<?xml version="1.0" encoding="UTF-8"?>
<svg width="345px" height="385px" viewBox="0 0 345 385" version="1.1" xmlns="http://www.w3.org/2000/svg" xmlns:xlink="http://www.w3.org/1999/xlink">
    <!-- Generator: Sketch 60 (88103) - https://sketch.com -->
    <title>Illustration / Flow /  Desktop / 0 mobile numbers Activated</title>
    <desc>Created with Sketch.</desc>
    <g id="Illustration-/-Flow-/--Desktop-/-0-mobile-numbers-Activated" stroke="none" stroke-width="1" fill="none" fill-rule="evenodd">
        <path d="M330.625,349.885135 C331.559011,349.885135 332.316176,350.640579 332.316176,351.572466 C332.316176,352.504354 331.559011,353.259798 330.625,353.259798 C329.690989,353.259798 328.933824,352.504354 328.933824,351.572466 C328.933824,350.640579 329.690989,349.885135 330.625,349.885135 Z M100.625,349.885135 C101.559011,349.885135 102.316176,350.640579 102.316176,351.572466 C102.316176,352.504354 101.559011,353.259798 100.625,353.259798 C99.690989,353.259798 98.9338235,352.504354 98.9338235,351.572466 C98.9338235,350.640579 99.690989,349.885135 100.625,349.885135 Z M311.764706,154 C315.50075,154 318.529412,157.025103 318.529412,160.756757 C318.529412,164.48841 315.50075,167.513514 311.764706,167.513514 C308.028662,167.513514 305,164.48841 305,160.756757 C305,157.025103 308.028662,154 311.764706,154 Z M40.5,125 C46.2989899,125 51,129.70101 51,135.5 C51,141.29899 46.2989899,146 40.5,146 C34.7010101,146 30,141.29899 30,135.5 C30,129.70101 34.7010101,125 40.5,125 Z" id="Combined-Shape" fill="#239A98"></path>
        <path d="M158.625,145.885135 C159.559011,145.885135 160.316176,146.640579 160.316176,147.572466 C160.316176,148.504354 159.559011,149.259798 158.625,149.259798 C157.690989,149.259798 156.933824,148.504354 156.933824,147.572466 C156.933824,146.640579 157.690989,145.885135 158.625,145.885135 Z M171.308824,76.6283784 C172.242835,76.6283784 173,77.3838223 173,78.3157096 C173,79.247597 172.242835,80.0030409 171.308824,80.0030409 C170.374813,80.0030409 169.617647,79.247597 169.617647,78.3157096 C169.617647,77.3838223 170.374813,76.6283784 171.308824,76.6283784 Z" id="Oval-Copy-14" fill="#8C8D8E"></path>
        <path d="M244.5,348 C254.717268,348 263,356.282732 263,366.5 C263,376.717268 254.717268,385 244.5,385 C234.282732,385 226,376.717268 226,366.5 C226,356.282732 234.282732,348 244.5,348 Z M228.308824,232.628378 C229.242835,232.628378 230,233.383822 230,234.31571 C230,235.247597 229.242835,236.003041 228.308824,236.003041 C227.374813,236.003041 226.617647,235.247597 226.617647,234.31571 C226.617647,233.383822 227.374813,232.628378 228.308824,232.628378 Z M113.308824,232.628378 C114.242835,232.628378 115,233.383822 115,234.31571 C115,235.247597 114.242835,236.003041 113.308824,236.003041 C112.374813,236.003041 111.617647,235.247597 111.617647,234.31571 C111.617647,233.383822 112.374813,232.628378 113.308824,232.628378 Z M343.308824,232.628378 C344.242835,232.628378 345,233.383822 345,234.31571 C345,235.247597 344.242835,236.003041 343.308824,236.003041 C342.374813,236.003041 341.617647,235.247597 341.617647,234.31571 C341.617647,233.383822 342.374813,232.628378 343.308824,232.628378 Z M273.625,145.885135 C274.559011,145.885135 275.316176,146.640579 275.316176,147.572466 C275.316176,148.504354 274.559011,149.259798 273.625,149.259798 C272.690989,149.259798 271.933824,148.504354 271.933824,147.572466 C271.933824,146.640579 272.690989,145.885135 273.625,145.885135 Z M186.529412,112.101351 C190.265456,112.101351 193.294118,115.126454 193.294118,118.858108 C193.294118,122.589762 190.265456,125.614865 186.529412,125.614865 C182.793368,125.614865 179.764706,122.589762 179.764706,118.858108 C179.764706,115.126454 182.793368,112.101351 186.529412,112.101351 Z M174.691176,98.5878378 C175.625187,98.5878378 176.382353,99.3432818 176.382353,100.275169 C176.382353,101.207056 175.625187,101.9625 174.691176,101.9625 C173.757165,101.9625 173,101.207056 173,100.275169 C173,99.3432818 173.757165,98.5878378 174.691176,98.5878378 Z M286.308824,76.6283784 L286.454745,76.6345719 C287.320439,76.7083876 288,77.432869 288,78.3157096 C288,79.247597 287.242835,80.0030409 286.308824,80.0030409 L286.308824,80.0030409 C285.374813,80.0030409 284.617647,79.247597 284.617647,78.3157096 C284.617647,77.3838223 285.374813,76.6283784 286.308824,76.6283784 Z M171.308824,76.6283784 C172.242835,76.6283784 173,77.3838223 173,78.3157096 C173,79.247597 172.242835,80.0030409 171.308824,80.0030409 C170.374813,80.0030409 169.617647,79.247597 169.617647,78.3157096 C169.617647,77.3838223 170.374813,76.6283784 171.308824,76.6283784 Z" id="Combined-Shape" fill="#F2F2F2"></path>
        <path d="M59.6390251,290.821918 C60.5628738,290.821918 61.458355,291.028112 62.2733042,291.419802 C62.5221917,291.539425 62.6269814,291.838161 62.5073586,292.087049 C62.3877357,292.335936 62.0889991,292.440726 61.8401116,292.321103 C61.1596307,291.994043 60.412108,291.821918 59.6390251,291.821918 C56.8344064,291.821918 54.5612745,294.089881 54.5612745,296.886986 C54.5612745,299.684091 56.8344064,301.952055 59.6390251,301.952055 C62.4436437,301.952055 64.7167756,299.684091 64.7167756,296.886986 C64.7167756,295.844899 64.4011549,294.851197 63.8204567,294.012452 C63.6632684,293.785414 63.7198931,293.473936 63.9469316,293.316748 C64.17397,293.15956 64.4854473,293.216185 64.6426356,293.443223 C65.3381917,294.447865 65.7167756,295.639802 65.7167756,296.886986 C65.7167756,300.236886 62.9954195,302.952055 59.6390251,302.952055 C56.2826306,302.952055 53.5612745,300.236886 53.5612745,296.886986 C53.5612745,293.537086 56.2826306,290.821918 59.6390251,290.821918 Z M289.639025,290.821918 C290.562874,290.821918 291.458355,291.028112 292.273304,291.419802 C292.522192,291.539425 292.626981,291.838161 292.507359,292.087049 C292.387736,292.335936 292.088999,292.440726 291.840112,292.321103 C291.159631,291.994043 290.412108,291.821918 289.639025,291.821918 C286.834406,291.821918 284.561275,294.089881 284.561275,296.886986 C284.561275,299.684091 286.834406,301.952055 289.639025,301.952055 C292.443644,301.952055 294.716776,299.684091 294.716776,296.886986 C294.716776,295.844899 294.401155,294.851197 293.820457,294.012452 C293.663268,293.785414 293.719893,293.473936 293.946932,293.316748 C294.17397,293.15956 294.485447,293.216185 294.642636,293.443223 C295.338192,294.447865 295.716776,295.639802 295.716776,296.886986 C295.716776,300.236886 292.99542,302.952055 289.639025,302.952055 C286.282631,302.952055 283.561275,300.236886 283.561275,296.886986 C283.561275,293.537086 286.282631,290.821918 289.639025,290.821918 Z M174.639025,290.821918 C175.562874,290.821918 176.458355,291.028112 177.273304,291.419802 C177.522192,291.539425 177.626981,291.838161 177.507359,292.087049 C177.387736,292.335936 177.088999,292.440726 176.840112,292.321103 C176.159631,291.994043 175.412108,291.821918 174.639025,291.821918 C171.834406,291.821918 169.561275,294.089881 169.561275,296.886986 C169.561275,299.684091 171.834406,301.952055 174.639025,301.952055 C177.443644,301.952055 179.716776,299.684091 179.716776,296.886986 C179.716776,295.844899 179.401155,294.851197 178.820457,294.012452 C178.663268,293.785414 178.719893,293.473936 178.946932,293.316748 C179.17397,293.15956 179.485447,293.216185 179.642636,293.443223 C180.338192,294.447865 180.716776,295.639802 180.716776,296.886986 C180.716776,300.236886 177.99542,302.952055 174.639025,302.952055 C171.282631,302.952055 168.561275,300.236886 168.561275,296.886986 C168.561275,293.537086 171.282631,290.821918 174.639025,290.821918 Z M174.639025,277.123288 C177.99542,277.123288 180.716776,279.838456 180.716776,283.188356 C180.716776,286.538256 177.99542,289.253425 174.639025,289.253425 C171.282631,289.253425 168.561275,286.538256 168.561275,283.188356 C168.561275,279.838456 171.282631,277.123288 174.639025,277.123288 Z M289.639025,277.123288 C292.99542,277.123288 295.716776,279.838456 295.716776,283.188356 C295.716776,286.538256 292.99542,289.253425 289.639025,289.253425 C286.282631,289.253425 283.561275,286.538256 283.561275,283.188356 C283.561275,279.838456 286.282631,277.123288 289.639025,277.123288 Z M59.6390251,277.123288 C62.9954195,277.123288 65.7167756,279.838456 65.7167756,283.188356 C65.7167756,286.538256 62.9954195,289.253425 59.6390251,289.253425 C56.2826306,289.253425 53.5612745,286.538256 53.5612745,283.188356 C53.5612745,279.838456 56.2826306,277.123288 59.6390251,277.123288 Z M59.6390251,278.123288 C56.8344064,278.123288 54.5612745,280.391251 54.5612745,283.188356 C54.5612745,285.985461 56.8344064,288.253425 59.6390251,288.253425 C62.4436437,288.253425 64.7167756,285.985461 64.7167756,283.188356 C64.7167756,280.391251 62.4436437,278.123288 59.6390251,278.123288 Z M174.639025,278.123288 C171.834406,278.123288 169.561275,280.391251 169.561275,283.188356 C169.561275,285.985461 171.834406,288.253425 174.639025,288.253425 C177.443644,288.253425 179.716776,285.985461 179.716776,283.188356 C179.716776,280.391251 177.443644,278.123288 174.639025,278.123288 Z M289.639025,278.123288 C286.834406,278.123288 284.561275,280.391251 284.561275,283.188356 C284.561275,285.985461 286.834406,288.253425 289.639025,288.253425 C292.443644,288.253425 294.716776,285.985461 294.716776,283.188356 C294.716776,280.391251 292.443644,278.123288 289.639025,278.123288 Z M289.639025,263.424658 C290.562874,263.424658 291.458355,263.630852 292.273304,264.022541 C292.522192,264.142164 292.626981,264.440901 292.507359,264.689788 C292.387736,264.938676 292.088999,265.043466 291.840112,264.923843 C291.159631,264.596783 290.412108,264.424658 289.639025,264.424658 C286.834406,264.424658 284.561275,266.692621 284.561275,269.489726 C284.561275,272.286831 286.834406,274.554795 289.639025,274.554795 C292.443644,274.554795 294.716776,272.286831 294.716776,269.489726 C294.716776,268.447639 294.401155,267.453937 293.820457,266.615192 C293.663268,266.388153 293.719893,266.076676 293.946932,265.919488 C294.17397,265.7623 294.485447,265.818924 294.642636,266.045963 C295.338192,267.050605 295.716776,268.242541 295.716776,269.489726 C295.716776,272.839626 292.99542,275.554795 289.639025,275.554795 C286.282631,275.554795 283.561275,272.839626 283.561275,269.489726 C283.561275,266.139826 286.282631,263.424658 289.639025,263.424658 Z M306.801334,263.424658 C310.157729,263.424658 312.879085,266.139826 312.879085,269.489726 C312.879085,272.839626 310.157729,275.554795 306.801334,275.554795 C303.44494,275.554795 300.723584,272.839626 300.723584,269.489726 C300.723584,266.139826 303.44494,263.424658 306.801334,263.424658 Z M174.639025,263.424658 C175.562874,263.424658 176.458355,263.630852 177.273304,264.022541 C177.522192,264.142164 177.626981,264.440901 177.507359,264.689788 C177.387736,264.938676 177.088999,265.043466 176.840112,264.923843 C176.159631,264.596783 175.412108,264.424658 174.639025,264.424658 C171.834406,264.424658 169.561275,266.692621 169.561275,269.489726 C169.561275,272.286831 171.834406,274.554795 174.639025,274.554795 C177.443644,274.554795 179.716776,272.286831 179.716776,269.489726 C179.716776,268.447639 179.401155,267.453937 178.820457,266.615192 C178.663268,266.388153 178.719893,266.076676 178.946932,265.919488 C179.17397,265.7623 179.485447,265.818924 179.642636,266.045963 C180.338192,267.050605 180.716776,268.242541 180.716776,269.489726 C180.716776,272.839626 177.99542,275.554795 174.639025,275.554795 C171.282631,275.554795 168.561275,272.839626 168.561275,269.489726 C168.561275,266.139826 171.282631,263.424658 174.639025,263.424658 Z M191.801334,263.424658 C195.157729,263.424658 197.879085,266.139826 197.879085,269.489726 C197.879085,272.839626 195.157729,275.554795 191.801334,275.554795 C188.44494,275.554795 185.723584,272.839626 185.723584,269.489726 C185.723584,266.139826 188.44494,263.424658 191.801334,263.424658 Z M157.476716,263.424658 C160.83311,263.424658 163.554466,266.139826 163.554466,269.489726 C163.554466,272.839626 160.83311,275.554795 157.476716,275.554795 C154.120321,275.554795 151.398965,272.839626 151.398965,269.489726 C151.398965,266.139826 154.120321,263.424658 157.476716,263.424658 Z M42.4767157,263.424658 C45.8331102,263.424658 48.5544662,266.139826 48.5544662,269.489726 C48.5544662,272.839626 45.8331102,275.554795 42.4767157,275.554795 C39.1203212,275.554795 36.3989651,272.839626 36.3989651,269.489726 C36.3989651,266.139826 39.1203212,263.424658 42.4767157,263.424658 Z M76.8013344,263.424658 C80.1577289,263.424658 82.879085,266.139826 82.879085,269.489726 C82.879085,272.839626 80.1577289,275.554795 76.8013344,275.554795 C73.4449399,275.554795 70.7235839,272.839626 70.7235839,269.489726 C70.7235839,266.139826 73.4449399,263.424658 76.8013344,263.424658 Z M272.476716,263.424658 C275.83311,263.424658 278.554466,266.139826 278.554466,269.489726 C278.554466,272.839626 275.83311,275.554795 272.476716,275.554795 C269.120321,275.554795 266.398965,272.839626 266.398965,269.489726 C266.398965,266.139826 269.120321,263.424658 272.476716,263.424658 Z M59.6390251,263.424658 C60.5628738,263.424658 61.458355,263.630852 62.2733042,264.022541 C62.5221917,264.142164 62.6269814,264.440901 62.5073586,264.689788 C62.3877357,264.938676 62.0889991,265.043466 61.8401116,264.923843 C61.1596307,264.596783 60.412108,264.424658 59.6390251,264.424658 C56.8344064,264.424658 54.5612745,266.692621 54.5612745,269.489726 C54.5612745,272.286831 56.8344064,274.554795 59.6390251,274.554795 C62.4436437,274.554795 64.7167756,272.286831 64.7167756,269.489726 C64.7167756,268.447639 64.4011549,267.453937 63.8204567,266.615192 C63.6632684,266.388153 63.7198931,266.076676 63.9469316,265.919488 C64.17397,265.7623 64.4854473,265.818924 64.6426356,266.045963 C65.3381917,267.050605 65.7167756,268.242541 65.7167756,269.489726 C65.7167756,272.839626 62.9954195,275.554795 59.6390251,275.554795 C56.2826306,275.554795 53.5612745,272.839626 53.5612745,269.489726 C53.5612745,266.139826 56.2826306,263.424658 59.6390251,263.424658 Z M191.801334,264.424658 C188.996716,264.424658 186.723584,266.692621 186.723584,269.489726 C186.723584,272.286831 188.996716,274.554795 191.801334,274.554795 C194.605953,274.554795 196.879085,272.286831 196.879085,269.489726 C196.879085,266.692621 194.605953,264.424658 191.801334,264.424658 Z M157.476716,264.424658 C154.672097,264.424658 152.398965,266.692621 152.398965,269.489726 C152.398965,272.286831 154.672097,274.554795 157.476716,274.554795 C160.281334,274.554795 162.554466,272.286831 162.554466,269.489726 C162.554466,266.692621 160.281334,264.424658 157.476716,264.424658 Z M42.4767157,264.424658 C39.672097,264.424658 37.3989651,266.692621 37.3989651,269.489726 C37.3989651,272.286831 39.672097,274.554795 42.4767157,274.554795 C45.2813343,274.554795 47.5544662,272.286831 47.5544662,269.489726 C47.5544662,266.692621 45.2813343,264.424658 42.4767157,264.424658 Z M76.8013344,264.424658 C73.9967158,264.424658 71.7235839,266.692621 71.7235839,269.489726 C71.7235839,272.286831 73.9967158,274.554795 76.8013344,274.554795 C79.6059531,274.554795 81.879085,272.286831 81.879085,269.489726 C81.879085,266.692621 79.6059531,264.424658 76.8013344,264.424658 Z M272.476716,264.424658 C269.672097,264.424658 267.398965,266.692621 267.398965,269.489726 C267.398965,272.286831 269.672097,274.554795 272.476716,274.554795 C275.281334,274.554795 277.554466,272.286831 277.554466,269.489726 C277.554466,266.692621 275.281334,264.424658 272.476716,264.424658 Z M306.801334,264.424658 C303.996716,264.424658 301.723584,266.692621 301.723584,269.489726 C301.723584,272.286831 303.996716,274.554795 306.801334,274.554795 C309.605953,274.554795 311.879085,272.286831 311.879085,269.489726 C311.879085,266.692621 309.605953,264.424658 306.801334,264.424658 Z M174.639025,249.726027 C177.99542,249.726027 180.716776,252.441196 180.716776,255.791096 C180.716776,259.140996 177.99542,261.856164 174.639025,261.856164 C171.282631,261.856164 168.561275,259.140996 168.561275,255.791096 C168.561275,254.816488 168.792227,253.873875 169.228816,253.025057 C170.261945,251.016446 172.335599,249.726027 174.639025,249.726027 Z M272.476716,249.726027 C273.400564,249.726027 274.296046,249.932222 275.110995,250.323911 C275.359882,250.443534 275.464672,250.742271 275.345049,250.991158 C275.225426,251.240046 274.92669,251.344835 274.677802,251.225213 C273.997321,250.898153 273.249799,250.726027 272.476716,250.726027 C269.672097,250.726027 267.398965,252.993991 267.398965,255.791096 C267.398965,258.588201 269.672097,260.856164 272.476716,260.856164 C275.281334,260.856164 277.554466,258.588201 277.554466,255.791096 C277.554466,254.749009 277.238846,253.755306 276.658147,252.916562 C276.500959,252.689523 276.557584,252.378046 276.784622,252.220858 C277.011661,252.063669 277.323138,252.120294 277.480326,252.347333 C278.175882,253.351975 278.554466,254.543911 278.554466,255.791096 C278.554466,259.140996 275.83311,261.856164 272.476716,261.856164 C269.120321,261.856164 266.398965,259.140996 266.398965,255.791096 C266.398965,252.441196 269.120321,249.726027 272.476716,249.726027 Z M306.801334,249.726027 C310.157729,249.726027 312.879085,252.441196 312.879085,255.791096 C312.879085,259.140996 310.157729,261.856164 306.801334,261.856164 C303.44494,261.856164 300.723584,259.140996 300.723584,255.791096 C300.723584,252.441196 303.44494,249.726027 306.801334,249.726027 Z M289.639025,249.726027 C292.99542,249.726027 295.716776,252.441196 295.716776,255.791096 C295.716776,259.140996 292.99542,261.856164 289.639025,261.856164 C286.282631,261.856164 283.561275,259.140996 283.561275,255.791096 C283.561275,254.816488 283.792227,253.873875 284.228816,253.025057 C285.261945,251.016446 287.335599,249.726027 289.639025,249.726027 Z M191.801334,249.726027 C195.157729,249.726027 197.879085,252.441196 197.879085,255.791096 C197.879085,259.140996 195.157729,261.856164 191.801334,261.856164 C188.44494,261.856164 185.723584,259.140996 185.723584,255.791096 C185.723584,252.441196 188.44494,249.726027 191.801334,249.726027 Z M157.476716,249.726027 C158.400564,249.726027 159.296046,249.932222 160.110995,250.323911 C160.359882,250.443534 160.464672,250.742271 160.345049,250.991158 C160.225426,251.240046 159.92669,251.344835 159.677802,251.225213 C158.997321,250.898153 158.249799,250.726027 157.476716,250.726027 C154.672097,250.726027 152.398965,252.993991 152.398965,255.791096 C152.398965,258.588201 154.672097,260.856164 157.476716,260.856164 C160.281334,260.856164 162.554466,258.588201 162.554466,255.791096 C162.554466,254.749009 162.238846,253.755306 161.658147,252.916562 C161.500959,252.689523 161.557584,252.378046 161.784622,252.220858 C162.011661,252.063669 162.323138,252.120294 162.480326,252.347333 C163.175882,253.351975 163.554466,254.543911 163.554466,255.791096 C163.554466,259.140996 160.83311,261.856164 157.476716,261.856164 C154.120321,261.856164 151.398965,259.140996 151.398965,255.791096 C151.398965,252.441196 154.120321,249.726027 157.476716,249.726027 Z M42.4767157,249.726027 C43.4005644,249.726027 44.2960457,249.932222 45.1109949,250.323911 C45.3598824,250.443534 45.4646721,250.742271 45.3450492,250.991158 C45.2254264,251.240046 44.9266897,251.344835 44.6778022,251.225213 C43.9973213,250.898153 43.2497986,250.726027 42.4767157,250.726027 C39.672097,250.726027 37.3989651,252.993991 37.3989651,255.791096 C37.3989651,258.588201 39.672097,260.856164 42.4767157,260.856164 C45.2813343,260.856164 47.5544662,258.588201 47.5544662,255.791096 C47.5544662,254.749009 47.2388456,253.755306 46.6581473,252.916562 C46.500959,252.689523 46.5575838,252.378046 46.7846222,252.220858 C47.0116606,252.063669 47.323138,252.120294 47.4803262,252.347333 C48.1758823,253.351975 48.5544662,254.543911 48.5544662,255.791096 C48.5544662,259.140996 45.8331102,261.856164 42.4767157,261.856164 C39.1203212,261.856164 36.3989651,259.140996 36.3989651,255.791096 C36.3989651,252.441196 39.1203212,249.726027 42.4767157,249.726027 Z M76.8013344,249.726027 C80.1577289,249.726027 82.879085,252.441196 82.879085,255.791096 C82.879085,259.140996 80.1577289,261.856164 76.8013344,261.856164 C73.4449399,261.856164 70.7235839,259.140996 70.7235839,255.791096 C70.7235839,252.441196 73.4449399,249.726027 76.8013344,249.726027 Z M59.6390251,249.726027 C62.9954195,249.726027 65.7167756,252.441196 65.7167756,255.791096 C65.7167756,259.140996 62.9954195,261.856164 59.6390251,261.856164 C56.2826306,261.856164 53.5612745,259.140996 53.5612745,255.791096 C53.5612745,254.816488 53.7922266,253.873875 54.228816,253.025057 C55.2619453,251.016446 57.3355994,249.726027 59.6390251,249.726027 Z M174.639025,250.726027 C172.713702,250.726027 170.981368,251.804045 170.11808,253.482451 C169.753838,254.190612 169.561275,254.976543 169.561275,255.791096 C169.561275,258.588201 171.834406,260.856164 174.639025,260.856164 C177.443644,260.856164 179.716776,258.588201 179.716776,255.791096 C179.716776,252.993991 177.443644,250.726027 174.639025,250.726027 Z M306.801334,250.726027 C303.996716,250.726027 301.723584,252.993991 301.723584,255.791096 C301.723584,258.588201 303.996716,260.856164 306.801334,260.856164 C309.605953,260.856164 311.879085,258.588201 311.879085,255.791096 C311.879085,252.993991 309.605953,250.726027 306.801334,250.726027 Z M289.639025,250.726027 C287.713702,250.726027 285.981368,251.804045 285.11808,253.482451 C284.753838,254.190612 284.561275,254.976543 284.561275,255.791096 C284.561275,258.588201 286.834406,260.856164 289.639025,260.856164 C292.443644,260.856164 294.716776,258.588201 294.716776,255.791096 C294.716776,252.993991 292.443644,250.726027 289.639025,250.726027 Z M76.8013344,250.726027 C73.9967158,250.726027 71.7235839,252.993991 71.7235839,255.791096 C71.7235839,258.588201 73.9967158,260.856164 76.8013344,260.856164 C79.6059531,260.856164 81.879085,258.588201 81.879085,255.791096 C81.879085,252.993991 79.6059531,250.726027 76.8013344,250.726027 Z M59.6390251,250.726027 C57.7137021,250.726027 55.9813685,251.804045 55.1180805,253.482451 C54.7538376,254.190612 54.5612745,254.976543 54.5612745,255.791096 C54.5612745,258.588201 56.8344064,260.856164 59.6390251,260.856164 C62.4436437,260.856164 64.7167756,258.588201 64.7167756,255.791096 C64.7167756,252.993991 62.4436437,250.726027 59.6390251,250.726027 Z M191.801334,250.726027 C188.996716,250.726027 186.723584,252.993991 186.723584,255.791096 C186.723584,258.588201 188.996716,260.856164 191.801334,260.856164 C194.605953,260.856164 196.879085,258.588201 196.879085,255.791096 C196.879085,252.993991 194.605953,250.726027 191.801334,250.726027 Z M174.639025,236.027397 C177.99542,236.027397 180.716776,238.742566 180.716776,242.092466 C180.716776,245.442366 177.99542,248.157534 174.639025,248.157534 C171.282631,248.157534 168.561275,245.442366 168.561275,242.092466 C168.561275,238.742566 171.282631,236.027397 174.639025,236.027397 Z M59.6390251,236.027397 C62.9954195,236.027397 65.7167756,238.742566 65.7167756,242.092466 C65.7167756,245.442366 62.9954195,248.157534 59.6390251,248.157534 C56.2826306,248.157534 53.5612745,245.442366 53.5612745,242.092466 C53.5612745,238.742566 56.2826306,236.027397 59.6390251,236.027397 Z M42.4767157,236.027397 C45.8331102,236.027397 48.5544662,238.742566 48.5544662,242.092466 C48.5544662,245.442366 45.8331102,248.157534 42.4767157,248.157534 C39.1203212,248.157534 36.3989651,245.442366 36.3989651,242.092466 C36.3989651,238.742566 39.1203212,236.027397 42.4767157,236.027397 Z M157.476716,236.027397 C160.83311,236.027397 163.554466,238.742566 163.554466,242.092466 C163.554466,245.442366 160.83311,248.157534 157.476716,248.157534 C154.120321,248.157534 151.398965,245.442366 151.398965,242.092466 C151.398965,238.742566 154.120321,236.027397 157.476716,236.027397 Z M191.801334,236.027397 C192.725183,236.027397 193.620664,236.233592 194.435614,236.625281 C194.684501,236.744904 194.789291,237.043641 194.669668,237.292528 C194.550045,237.541416 194.251308,237.646205 194.002421,237.526582 C193.32194,237.199523 192.574417,237.027397 191.801334,237.027397 C188.996716,237.027397 186.723584,239.295361 186.723584,242.092466 C186.723584,244.889571 188.996716,247.157534 191.801334,247.157534 C194.605953,247.157534 196.879085,244.889571 196.879085,242.092466 C196.879085,241.050379 196.563464,240.056676 195.982766,239.217932 C195.825578,238.990893 195.882203,238.679416 196.109241,238.522228 C196.336279,238.365039 196.647757,238.421664 196.804945,238.648702 C197.500501,239.653345 197.879085,240.845281 197.879085,242.092466 C197.879085,245.442366 195.157729,248.157534 191.801334,248.157534 C188.44494,248.157534 185.723584,245.442366 185.723584,242.092466 C185.723584,238.742566 188.44494,236.027397 191.801334,236.027397 Z M306.801334,236.027397 C307.725183,236.027397 308.620664,236.233592 309.435614,236.625281 C309.684501,236.744904 309.789291,237.043641 309.669668,237.292528 C309.550045,237.541416 309.251308,237.646205 309.002421,237.526582 C308.32194,237.199523 307.574417,237.027397 306.801334,237.027397 C303.996716,237.027397 301.723584,239.295361 301.723584,242.092466 C301.723584,244.889571 303.996716,247.157534 306.801334,247.157534 C309.605953,247.157534 311.879085,244.889571 311.879085,242.092466 C311.879085,241.050379 311.563464,240.056676 310.982766,239.217932 C310.825578,238.990893 310.882203,238.679416 311.109241,238.522228 C311.336279,238.365039 311.647757,238.421664 311.804945,238.648702 C312.500501,239.653345 312.879085,240.845281 312.879085,242.092466 C312.879085,245.442366 310.157729,248.157534 306.801334,248.157534 C303.44494,248.157534 300.723584,245.442366 300.723584,242.092466 C300.723584,238.742566 303.44494,236.027397 306.801334,236.027397 Z M272.476716,236.027397 C275.83311,236.027397 278.554466,238.742566 278.554466,242.092466 C278.554466,245.442366 275.83311,248.157534 272.476716,248.157534 C269.120321,248.157534 266.398965,245.442366 266.398965,242.092466 C266.398965,238.742566 269.120321,236.027397 272.476716,236.027397 Z M289.639025,236.027397 C292.99542,236.027397 295.716776,238.742566 295.716776,242.092466 C295.716776,245.442366 292.99542,248.157534 289.639025,248.157534 C286.282631,248.157534 283.561275,245.442366 283.561275,242.092466 C283.561275,238.742566 286.282631,236.027397 289.639025,236.027397 Z M76.8013344,236.027397 C77.7251832,236.027397 78.6206644,236.233592 79.4356136,236.625281 C79.6845011,236.744904 79.7892908,237.043641 79.669668,237.292528 C79.5500451,237.541416 79.2513085,237.646205 79.002421,237.526582 C78.3219401,237.199523 77.5744174,237.027397 76.8013344,237.027397 C73.9967158,237.027397 71.7235839,239.295361 71.7235839,242.092466 C71.7235839,244.889571 73.9967158,247.157534 76.8013344,247.157534 C79.6059531,247.157534 81.879085,244.889571 81.879085,242.092466 C81.879085,241.050379 81.5634643,240.056676 80.982766,239.217932 C80.8255778,238.990893 80.8822025,238.679416 81.1092409,238.522228 C81.3362794,238.365039 81.6477567,238.421664 81.804945,238.648702 C82.5005011,239.653345 82.879085,240.845281 82.879085,242.092466 C82.879085,245.442366 80.1577289,248.157534 76.8013344,248.157534 C73.4449399,248.157534 70.7235839,245.442366 70.7235839,242.092466 C70.7235839,238.742566 73.4449399,236.027397 76.8013344,236.027397 Z M272.476716,237.027397 C269.672097,237.027397 267.398965,239.295361 267.398965,242.092466 C267.398965,244.889571 269.672097,247.157534 272.476716,247.157534 C275.281334,247.157534 277.554466,244.889571 277.554466,242.092466 C277.554466,239.295361 275.281334,237.027397 272.476716,237.027397 Z M289.639025,237.027397 C286.834406,237.027397 284.561275,239.295361 284.561275,242.092466 C284.561275,244.889571 286.834406,247.157534 289.639025,247.157534 C292.443644,247.157534 294.716776,244.889571 294.716776,242.092466 C294.716776,239.295361 292.443644,237.027397 289.639025,237.027397 Z M59.6390251,237.027397 C56.8344064,237.027397 54.5612745,239.295361 54.5612745,242.092466 C54.5612745,244.889571 56.8344064,247.157534 59.6390251,247.157534 C62.4436437,247.157534 64.7167756,244.889571 64.7167756,242.092466 C64.7167756,239.295361 62.4436437,237.027397 59.6390251,237.027397 Z M42.4767157,237.027397 C39.672097,237.027397 37.3989651,239.295361 37.3989651,242.092466 C37.3989651,244.889571 39.672097,247.157534 42.4767157,247.157534 C45.2813343,247.157534 47.5544662,244.889571 47.5544662,242.092466 C47.5544662,239.295361 45.2813343,237.027397 42.4767157,237.027397 Z M157.476716,237.027397 C154.672097,237.027397 152.398965,239.295361 152.398965,242.092466 C152.398965,244.889571 154.672097,247.157534 157.476716,247.157534 C160.281334,247.157534 162.554466,244.889571 162.554466,242.092466 C162.554466,239.295361 160.281334,237.027397 157.476716,237.027397 Z M174.639025,237.027397 C171.834406,237.027397 169.561275,239.295361 169.561275,242.092466 C169.561275,244.889571 171.834406,247.157534 174.639025,247.157534 C177.443644,247.157534 179.716776,244.889571 179.716776,242.092466 C179.716776,239.295361 177.443644,237.027397 174.639025,237.027397 Z M232.639025,134.821918 C233.562874,134.821918 234.458355,135.028112 235.273304,135.419802 C235.522192,135.539425 235.626981,135.838161 235.507359,136.087049 C235.387736,136.335936 235.088999,136.440726 234.840112,136.321103 C234.159631,135.994043 233.412108,135.821918 232.639025,135.821918 C229.834406,135.821918 227.561275,138.089881 227.561275,140.886986 C227.561275,143.684091 229.834406,145.952055 232.639025,145.952055 C235.443644,145.952055 237.716776,143.684091 237.716776,140.886986 C237.716776,139.844899 237.401155,138.851197 236.820457,138.012452 C236.663268,137.785414 236.719893,137.473936 236.946932,137.316748 C237.17397,137.15956 237.485447,137.216185 237.642636,137.443223 C238.338192,138.447865 238.716776,139.639802 238.716776,140.886986 C238.716776,144.236886 235.99542,146.952055 232.639025,146.952055 C229.282631,146.952055 226.561275,144.236886 226.561275,140.886986 C226.561275,137.537086 229.282631,134.821918 232.639025,134.821918 Z M117.639025,134.821918 C118.562874,134.821918 119.458355,135.028112 120.273304,135.419802 C120.522192,135.539425 120.626981,135.838161 120.507359,136.087049 C120.387736,136.335936 120.088999,136.440726 119.840112,136.321103 C119.159631,135.994043 118.412108,135.821918 117.639025,135.821918 C114.834406,135.821918 112.561275,138.089881 112.561275,140.886986 C112.561275,143.684091 114.834406,145.952055 117.639025,145.952055 C120.443644,145.952055 122.716776,143.684091 122.716776,140.886986 C122.716776,139.844899 122.401155,138.851197 121.820457,138.012452 C121.663268,137.785414 121.719893,137.473936 121.946932,137.316748 C122.17397,137.15956 122.485447,137.216185 122.642636,137.443223 C123.338192,138.447865 123.716776,139.639802 123.716776,140.886986 C123.716776,144.236886 120.99542,146.952055 117.639025,146.952055 C114.282631,146.952055 111.561275,144.236886 111.561275,140.886986 C111.561275,137.537086 114.282631,134.821918 117.639025,134.821918 Z M232.639025,121.123288 C235.99542,121.123288 238.716776,123.838456 238.716776,127.188356 C238.716776,130.538256 235.99542,133.253425 232.639025,133.253425 C229.282631,133.253425 226.561275,130.538256 226.561275,127.188356 C226.561275,123.838456 229.282631,121.123288 232.639025,121.123288 Z M117.639025,121.123288 C120.99542,121.123288 123.716776,123.838456 123.716776,127.188356 C123.716776,130.538256 120.99542,133.253425 117.639025,133.253425 C114.282631,133.253425 111.561275,130.538256 111.561275,127.188356 C111.561275,123.838456 114.282631,121.123288 117.639025,121.123288 Z M117.639025,122.123288 C114.834406,122.123288 112.561275,124.391251 112.561275,127.188356 C112.561275,129.985461 114.834406,132.253425 117.639025,132.253425 C120.443644,132.253425 122.716776,129.985461 122.716776,127.188356 C122.716776,124.391251 120.443644,122.123288 117.639025,122.123288 Z M232.639025,122.123288 C229.834406,122.123288 227.561275,124.391251 227.561275,127.188356 C227.561275,129.985461 229.834406,132.253425 232.639025,132.253425 C235.443644,132.253425 237.716776,129.985461 237.716776,127.188356 C237.716776,124.391251 235.443644,122.123288 232.639025,122.123288 Z M249.801334,107.424658 C253.157729,107.424658 255.879085,110.139826 255.879085,113.489726 C255.879085,116.839626 253.157729,119.554795 249.801334,119.554795 C246.44494,119.554795 243.723584,116.839626 243.723584,113.489726 C243.723584,110.139826 246.44494,107.424658 249.801334,107.424658 Z M215.476716,107.424658 C218.83311,107.424658 221.554466,110.139826 221.554466,113.489726 C221.554466,116.839626 218.83311,119.554795 215.476716,119.554795 C212.120321,119.554795 209.398965,116.839626 209.398965,113.489726 C209.398965,110.139826 212.120321,107.424658 215.476716,107.424658 Z M232.639025,107.424658 C233.562874,107.424658 234.458355,107.630852 235.273304,108.022541 C235.522192,108.142164 235.626981,108.440901 235.507359,108.689788 C235.387736,108.938676 235.088999,109.043466 234.840112,108.923843 C234.159631,108.596783 233.412108,108.424658 232.639025,108.424658 C229.834406,108.424658 227.561275,110.692621 227.561275,113.489726 C227.561275,116.286831 229.834406,118.554795 232.639025,118.554795 C235.443644,118.554795 237.716776,116.286831 237.716776,113.489726 C237.716776,112.447639 237.401155,111.453937 236.820457,110.615192 C236.663268,110.388153 236.719893,110.076676 236.946932,109.919488 C237.17397,109.7623 237.485447,109.818924 237.642636,110.045963 C238.338192,111.050605 238.716776,112.242541 238.716776,113.489726 C238.716776,116.839626 235.99542,119.554795 232.639025,119.554795 C229.282631,119.554795 226.561275,116.839626 226.561275,113.489726 C226.561275,110.139826 229.282631,107.424658 232.639025,107.424658 Z M100.476716,107.424658 C103.83311,107.424658 106.554466,110.139826 106.554466,113.489726 C106.554466,116.839626 103.83311,119.554795 100.476716,119.554795 C97.1203212,119.554795 94.3989651,116.839626 94.3989651,113.489726 C94.3989651,110.139826 97.1203212,107.424658 100.476716,107.424658 Z M117.639025,107.424658 C118.562874,107.424658 119.458355,107.630852 120.273304,108.022541 C120.522192,108.142164 120.626981,108.440901 120.507359,108.689788 C120.387736,108.938676 120.088999,109.043466 119.840112,108.923843 C119.159631,108.596783 118.412108,108.424658 117.639025,108.424658 C114.834406,108.424658 112.561275,110.692621 112.561275,113.489726 C112.561275,116.286831 114.834406,118.554795 117.639025,118.554795 C120.443644,118.554795 122.716776,116.286831 122.716776,113.489726 C122.716776,112.447639 122.401155,111.453937 121.820457,110.615192 C121.663268,110.388153 121.719893,110.076676 121.946932,109.919488 C122.17397,109.7623 122.485447,109.818924 122.642636,110.045963 C123.338192,111.050605 123.716776,112.242541 123.716776,113.489726 C123.716776,116.839626 120.99542,119.554795 117.639025,119.554795 C114.282631,119.554795 111.561275,116.839626 111.561275,113.489726 C111.561275,110.139826 114.282631,107.424658 117.639025,107.424658 Z M134.801334,107.424658 C138.157729,107.424658 140.879085,110.139826 140.879085,113.489726 C140.879085,116.839626 138.157729,119.554795 134.801334,119.554795 C131.44494,119.554795 128.723584,116.839626 128.723584,113.489726 C128.723584,110.139826 131.44494,107.424658 134.801334,107.424658 Z M134.801334,108.424658 C131.996716,108.424658 129.723584,110.692621 129.723584,113.489726 C129.723584,116.286831 131.996716,118.554795 134.801334,118.554795 C137.605953,118.554795 139.879085,116.286831 139.879085,113.489726 C139.879085,110.692621 137.605953,108.424658 134.801334,108.424658 Z M100.476716,108.424658 C97.672097,108.424658 95.3989651,110.692621 95.3989651,113.489726 C95.3989651,116.286831 97.672097,118.554795 100.476716,118.554795 C103.281334,118.554795 105.554466,116.286831 105.554466,113.489726 C105.554466,110.692621 103.281334,108.424658 100.476716,108.424658 Z M249.801334,108.424658 C246.996716,108.424658 244.723584,110.692621 244.723584,113.489726 C244.723584,116.286831 246.996716,118.554795 249.801334,118.554795 C252.605953,118.554795 254.879085,116.286831 254.879085,113.489726 C254.879085,110.692621 252.605953,108.424658 249.801334,108.424658 Z M215.476716,108.424658 C212.672097,108.424658 210.398965,110.692621 210.398965,113.489726 C210.398965,116.286831 212.672097,118.554795 215.476716,118.554795 C218.281334,118.554795 220.554466,116.286831 220.554466,113.489726 C220.554466,110.692621 218.281334,108.424658 215.476716,108.424658 Z M100.476716,93.7260274 C101.400564,93.7260274 102.296046,93.9322221 103.110995,94.3239113 C103.359882,94.4435341 103.464672,94.7422708 103.345049,94.9911583 C103.225426,95.2400458 102.92669,95.3448355 102.677802,95.2252126 C101.997321,94.8981529 101.249799,94.7260274 100.476716,94.7260274 C97.672097,94.7260274 95.3989651,96.9939909 95.3989651,99.7910959 C95.3989651,102.588201 97.672097,104.856164 100.476716,104.856164 C103.281334,104.856164 105.554466,102.588201 105.554466,99.7910959 C105.554466,98.749009 105.238846,97.7553064 104.658147,96.9165618 C104.500959,96.6895233 104.557584,96.378046 104.784622,96.2208577 C105.011661,96.0636695 105.323138,96.1202942 105.480326,96.3473326 C106.175882,97.3519747 106.554466,98.5439113 106.554466,99.7910959 C106.554466,103.140996 103.83311,105.856164 100.476716,105.856164 C97.1203212,105.856164 94.3989651,103.140996 94.3989651,99.7910959 C94.3989651,96.441196 97.1203212,93.7260274 100.476716,93.7260274 Z M134.801334,93.7260274 C138.157729,93.7260274 140.879085,96.441196 140.879085,99.7910959 C140.879085,103.140996 138.157729,105.856164 134.801334,105.856164 C131.44494,105.856164 128.723584,103.140996 128.723584,99.7910959 C128.723584,96.441196 131.44494,93.7260274 134.801334,93.7260274 Z M215.476716,93.7260274 C216.400564,93.7260274 217.296046,93.9322221 218.110995,94.3239113 C218.359882,94.4435341 218.464672,94.7422708 218.345049,94.9911583 C218.225426,95.2400458 217.92669,95.3448355 217.677802,95.2252126 C216.997321,94.8981529 216.249799,94.7260274 215.476716,94.7260274 C212.672097,94.7260274 210.398965,96.9939909 210.398965,99.7910959 C210.398965,102.588201 212.672097,104.856164 215.476716,104.856164 C218.281334,104.856164 220.554466,102.588201 220.554466,99.7910959 C220.554466,98.749009 220.238846,97.7553064 219.658147,96.9165618 C219.500959,96.6895233 219.557584,96.378046 219.784622,96.2208577 C220.011661,96.0636695 220.323138,96.1202942 220.480326,96.3473326 C221.175882,97.3519747 221.554466,98.5439113 221.554466,99.7910959 C221.554466,103.140996 218.83311,105.856164 215.476716,105.856164 C212.120321,105.856164 209.398965,103.140996 209.398965,99.7910959 C209.398965,96.441196 212.120321,93.7260274 215.476716,93.7260274 Z M249.801334,93.7260274 C253.157729,93.7260274 255.879085,96.441196 255.879085,99.7910959 C255.879085,103.140996 253.157729,105.856164 249.801334,105.856164 C246.44494,105.856164 243.723584,103.140996 243.723584,99.7910959 C243.723584,96.441196 246.44494,93.7260274 249.801334,93.7260274 Z M232.639025,93.7260274 C235.99542,93.7260274 238.716776,96.441196 238.716776,99.7910959 C238.716776,103.140996 235.99542,105.856164 232.639025,105.856164 C229.282631,105.856164 226.561275,103.140996 226.561275,99.7910959 C226.561275,98.8164878 226.792227,97.8738748 227.228816,97.0250574 C228.261945,95.0164464 230.335599,93.7260274 232.639025,93.7260274 Z M117.639025,93.7260274 C120.99542,93.7260274 123.716776,96.441196 123.716776,99.7910959 C123.716776,103.140996 120.99542,105.856164 117.639025,105.856164 C114.282631,105.856164 111.561275,103.140996 111.561275,99.7910959 C111.561275,98.8164878 111.792227,97.8738748 112.228816,97.0250574 C113.261945,95.0164464 115.335599,93.7260274 117.639025,93.7260274 Z M117.639025,94.7260274 C115.713702,94.7260274 113.981368,95.8040453 113.11808,97.4824507 C112.753838,98.190612 112.561275,98.9765433 112.561275,99.7910959 C112.561275,102.588201 114.834406,104.856164 117.639025,104.856164 C120.443644,104.856164 122.716776,102.588201 122.716776,99.7910959 C122.716776,96.9939909 120.443644,94.7260274 117.639025,94.7260274 Z M232.639025,94.7260274 C230.713702,94.7260274 228.981368,95.8040453 228.11808,97.4824507 C227.753838,98.190612 227.561275,98.9765433 227.561275,99.7910959 C227.561275,102.588201 229.834406,104.856164 232.639025,104.856164 C235.443644,104.856164 237.716776,102.588201 237.716776,99.7910959 C237.716776,96.9939909 235.443644,94.7260274 232.639025,94.7260274 Z M249.801334,94.7260274 C246.996716,94.7260274 244.723584,96.9939909 244.723584,99.7910959 C244.723584,102.588201 246.996716,104.856164 249.801334,104.856164 C252.605953,104.856164 254.879085,102.588201 254.879085,99.7910959 C254.879085,96.9939909 252.605953,94.7260274 249.801334,94.7260274 Z M134.801334,94.7260274 C131.996716,94.7260274 129.723584,96.9939909 129.723584,99.7910959 C129.723584,102.588201 131.996716,104.856164 134.801334,104.856164 C137.605953,104.856164 139.879085,102.588201 139.879085,99.7910959 C139.879085,96.9939909 137.605953,94.7260274 134.801334,94.7260274 Z M215.476716,80.0273973 C218.83311,80.0273973 221.554466,82.7425658 221.554466,86.0924658 C221.554466,89.4423657 218.83311,92.1575342 215.476716,92.1575342 C212.120321,92.1575342 209.398965,89.4423657 209.398965,86.0924658 C209.398965,82.7425658 212.120321,80.0273973 215.476716,80.0273973 Z M117.639025,80.0273973 C120.99542,80.0273973 123.716776,82.7425658 123.716776,86.0924658 C123.716776,89.4423657 120.99542,92.1575342 117.639025,92.1575342 C114.282631,92.1575342 111.561275,89.4423657 111.561275,86.0924658 C111.561275,82.7425658 114.282631,80.0273973 117.639025,80.0273973 Z M100.476716,80.0273973 C103.83311,80.0273973 106.554466,82.7425658 106.554466,86.0924658 C106.554466,89.4423657 103.83311,92.1575342 100.476716,92.1575342 C97.1203212,92.1575342 94.3989651,89.4423657 94.3989651,86.0924658 C94.3989651,82.7425658 97.1203212,80.0273973 100.476716,80.0273973 Z M232.639025,80.0273973 C235.99542,80.0273973 238.716776,82.7425658 238.716776,86.0924658 C238.716776,89.4423657 235.99542,92.1575342 232.639025,92.1575342 C229.282631,92.1575342 226.561275,89.4423657 226.561275,86.0924658 C226.561275,82.7425658 229.282631,80.0273973 232.639025,80.0273973 Z M134.801334,80.0273973 C135.725183,80.0273973 136.620664,80.2335919 137.435614,80.6252811 C137.684501,80.744904 137.789291,81.0436406 137.669668,81.2925281 C137.550045,81.5414156 137.251308,81.6462053 137.002421,81.5265825 C136.32194,81.1995228 135.574417,81.0273973 134.801334,81.0273973 C131.996716,81.0273973 129.723584,83.2953608 129.723584,86.0924658 C129.723584,88.8895707 131.996716,91.1575342 134.801334,91.1575342 C137.605953,91.1575342 139.879085,88.8895707 139.879085,86.0924658 C139.879085,85.0503788 139.563464,84.0566762 138.982766,83.2179316 C138.825578,82.9908932 138.882203,82.6794159 139.109241,82.5222276 C139.336279,82.3650393 139.647757,82.4216641 139.804945,82.6487025 C140.500501,83.6533446 140.879085,84.8452812 140.879085,86.0924658 C140.879085,89.4423657 138.157729,92.1575342 134.801334,92.1575342 C131.44494,92.1575342 128.723584,89.4423657 128.723584,86.0924658 C128.723584,82.7425658 131.44494,80.0273973 134.801334,80.0273973 Z M249.801334,80.0273973 C250.725183,80.0273973 251.620664,80.2335919 252.435614,80.6252811 C252.684501,80.744904 252.789291,81.0436406 252.669668,81.2925281 C252.550045,81.5414156 252.251308,81.6462053 252.002421,81.5265825 C251.32194,81.1995228 250.574417,81.0273973 249.801334,81.0273973 C246.996716,81.0273973 244.723584,83.2953608 244.723584,86.0924658 C244.723584,88.8895707 246.996716,91.1575342 249.801334,91.1575342 C252.605953,91.1575342 254.879085,88.8895707 254.879085,86.0924658 C254.879085,85.0503788 254.563464,84.0566762 253.982766,83.2179316 C253.825578,82.9908932 253.882203,82.6794159 254.109241,82.5222276 C254.336279,82.3650393 254.647757,82.4216641 254.804945,82.6487025 C255.500501,83.6533446 255.879085,84.8452812 255.879085,86.0924658 C255.879085,89.4423657 253.157729,92.1575342 249.801334,92.1575342 C246.44494,92.1575342 243.723584,89.4423657 243.723584,86.0924658 C243.723584,82.7425658 246.44494,80.0273973 249.801334,80.0273973 Z M215.476716,81.0273973 C212.672097,81.0273973 210.398965,83.2953608 210.398965,86.0924658 C210.398965,88.8895707 212.672097,91.1575342 215.476716,91.1575342 C218.281334,91.1575342 220.554466,88.8895707 220.554466,86.0924658 C220.554466,83.2953608 218.281334,81.0273973 215.476716,81.0273973 Z M232.639025,81.0273973 C229.834406,81.0273973 227.561275,83.2953608 227.561275,86.0924658 C227.561275,88.8895707 229.834406,91.1575342 232.639025,91.1575342 C235.443644,91.1575342 237.716776,88.8895707 237.716776,86.0924658 C237.716776,83.2953608 235.443644,81.0273973 232.639025,81.0273973 Z M117.639025,81.0273973 C114.834406,81.0273973 112.561275,83.2953608 112.561275,86.0924658 C112.561275,88.8895707 114.834406,91.1575342 117.639025,91.1575342 C120.443644,91.1575342 122.716776,88.8895707 122.716776,86.0924658 C122.716776,83.2953608 120.443644,81.0273973 117.639025,81.0273973 Z M100.476716,81.0273973 C97.672097,81.0273973 95.3989651,83.2953608 95.3989651,86.0924658 C95.3989651,88.8895707 97.672097,91.1575342 100.476716,91.1575342 C103.281334,91.1575342 105.554466,88.8895707 105.554466,86.0924658 C105.554466,83.2953608 103.281334,81.0273973 100.476716,81.0273973 Z M248.508363,47.0675676 C248.742123,47.0675676 248.931623,47.2566365 248.931623,47.4898649 C248.931623,47.7230932 248.742123,47.9121622 248.508363,47.9121622 C248.274603,47.9121622 248.085103,47.7230932 248.085103,47.4898649 C248.085103,47.2566365 248.274603,47.0675676 248.508363,47.0675676 Z" id="Combined-Shape" fill="#8C8D8E" fill-rule="nonzero"></path>
        <path d="M86.6696623,197.25 C89.8530074,197.25 92.4479771,199.766885 92.5642859,202.91626 L92.5683551,203.136986 L92.5683551,317.863014 C92.5683551,321.040787 90.0457342,323.629895 86.8907777,323.74594 L86.6696623,323.75 L32.6083878,323.75 C29.4250427,323.75 26.830073,321.233115 26.7137642,318.08374 L26.709695,317.863014 L26.709695,218.64326 C26.709695,218.229047 27.0454814,217.89326 27.459695,217.89326 C27.8393908,217.89326 28.153186,218.175414 28.2028484,218.54149 L28.209695,218.64326 L28.209695,317.863014 C28.209695,320.214247 30.0645561,322.134045 32.3952354,322.24494 L32.6083878,322.25 L86.6696623,322.25 C89.0279128,322.25 90.9521342,320.399356 91.0632837,318.075535 L91.0683551,317.863014 L91.0683551,203.136986 C91.0683551,200.785753 89.213494,198.865955 86.8828147,198.75506 L86.6696623,198.75 L32.6083878,198.75 C30.2501373,198.75 28.3259159,200.600644 28.2147664,202.924465 L28.209695,203.136986 L28.209695,212.982877 C28.209695,213.39709 27.8739086,213.732877 27.459695,213.732877 C27.0799992,213.732877 26.766204,213.450723 26.7165416,213.084647 L26.709695,212.982877 L26.709695,203.136986 C26.709695,199.959213 29.2323159,197.370105 32.3872724,197.25406 L32.6083878,197.25 L86.6696623,197.25 Z M316.669662,197.25 C319.853007,197.25 322.447977,199.766885 322.564286,202.91626 L322.568355,203.136986 L322.568355,317.863014 C322.568355,321.040787 320.045734,323.629895 316.890778,323.74594 L316.669662,323.75 L262.608388,323.75 C259.425043,323.75 256.830073,321.233115 256.713764,318.08374 L256.709695,317.863014 L256.709695,218.64326 C256.709695,218.229047 257.045481,217.89326 257.459695,217.89326 C257.839391,217.89326 258.153186,218.175414 258.202848,218.54149 L258.209695,218.64326 L258.209695,317.863014 C258.209695,320.214247 260.064556,322.134045 262.395235,322.24494 L262.608388,322.25 L316.669662,322.25 C319.027913,322.25 320.952134,320.399356 321.063284,318.075535 L321.068355,317.863014 L321.068355,203.136986 C321.068355,200.785753 319.213494,198.865955 316.882815,198.75506 L316.669662,198.75 L262.608388,198.75 C260.250137,198.75 258.325916,200.600644 258.214766,202.924465 L258.209695,203.136986 L258.209695,212.982877 C258.209695,213.39709 257.873909,213.732877 257.459695,213.732877 C257.079999,213.732877 256.766204,213.450723 256.716542,213.084647 L256.709695,212.982877 L256.709695,203.136986 C256.709695,199.959213 259.232316,197.370105 262.387272,197.25406 L262.608388,197.25 L316.669662,197.25 Z M201.669662,197.25 C204.927039,197.25 207.568355,199.885311 207.568355,203.136986 L207.568355,203.136986 L207.568355,317.863014 C207.568355,321.114689 204.927039,323.75 201.669662,323.75 L201.669662,323.75 L147.608388,323.75 C144.351011,323.75 141.709695,321.114689 141.709695,317.863014 L141.709695,317.863014 L141.709695,218.64326 C141.709695,218.229047 142.045481,217.89326 142.459695,217.89326 C142.873909,217.89326 143.209695,218.229047 143.209695,218.64326 L143.209695,218.64326 L143.209695,317.863014 C143.209695,320.285497 145.178675,322.25 147.608388,322.25 L147.608388,322.25 L201.669662,322.25 C204.099375,322.25 206.068355,320.285497 206.068355,317.863014 L206.068355,317.863014 L206.068355,203.136986 C206.068355,200.714503 204.099375,198.75 201.669662,198.75 L201.669662,198.75 L147.608388,198.75 C145.178675,198.75 143.209695,200.714503 143.209695,203.136986 L143.209695,203.136986 L143.209695,212.982877 C143.209695,213.39709 142.873909,213.732877 142.459695,213.732877 C142.045481,213.732877 141.709695,213.39709 141.709695,212.982877 L141.709695,212.982877 L141.709695,203.136986 C141.709695,199.885311 144.351011,197.25 147.608388,197.25 L147.608388,197.25 Z M159.192947,316.499168 C159.473331,316.499168 159.700627,316.726465 159.700627,317.006849 C159.700627,317.25608 159.521035,317.463364 159.284203,317.506351 L159.192947,317.51453 L148.895561,317.51453 C148.615177,317.51453 148.38788,317.287234 148.38788,317.006849 C148.38788,316.757619 148.567472,316.550334 148.804305,316.507348 L148.895561,316.499168 L159.192947,316.499168 Z M57.9227941,316.499168 C58.2031785,316.499168 58.430475,316.726465 58.430475,317.006849 C58.430475,317.25608 58.2508827,317.463364 58.0140504,317.506351 L57.9227941,317.51453 L47.6254085,317.51453 C47.3450241,317.51453 47.1177277,317.287234 47.1177277,317.006849 C47.1177277,316.757619 47.2973199,316.550334 47.5341522,316.507348 L47.6254085,316.499168 L57.9227941,316.499168 Z M71.6526416,316.499168 C71.933026,316.499168 72.1603224,316.726465 72.1603224,317.006849 C72.1603224,317.25608 71.9807302,317.463364 71.7438979,317.506351 L71.6526416,317.51453 L61.355256,317.51453 C61.0748716,317.51453 60.8475752,317.287234 60.8475752,317.006849 C60.8475752,316.757619 61.0271674,316.550334 61.2639997,316.507348 L61.355256,316.499168 L71.6526416,316.499168 Z M85.3824891,316.499168 C85.6628735,316.499168 85.8901699,316.726465 85.8901699,317.006849 C85.8901699,317.25608 85.7105777,317.463364 85.4737454,317.506351 L85.3824891,317.51453 L75.0851035,317.51453 C74.8047191,317.51453 74.5774227,317.287234 74.5774227,317.006849 C74.5774227,316.757619 74.7570149,316.550334 74.9938472,316.507348 L75.0851035,316.499168 L85.3824891,316.499168 Z M186.652642,316.499168 C186.933026,316.499168 187.160322,316.726465 187.160322,317.006849 C187.160322,317.25608 186.98073,317.463364 186.743898,317.506351 L186.652642,317.51453 L176.355256,317.51453 C176.074872,317.51453 175.847575,317.287234 175.847575,317.006849 C175.847575,316.757619 176.027167,316.550334 176.264,316.507348 L176.355256,316.499168 L186.652642,316.499168 Z M200.382489,316.499168 C200.662873,316.499168 200.89017,316.726465 200.89017,317.006849 C200.89017,317.25608 200.710578,317.463364 200.473745,317.506351 L200.382489,317.51453 L190.085103,317.51453 C189.804719,317.51453 189.577423,317.287234 189.577423,317.006849 C189.577423,316.757619 189.757015,316.550334 189.993847,316.507348 L190.085103,316.499168 L200.382489,316.499168 Z M172.922794,316.499168 C173.203179,316.499168 173.430475,316.726465 173.430475,317.006849 C173.430475,317.25608 173.250883,317.463364 173.01405,317.506351 L172.922794,317.51453 L162.625408,317.51453 C162.345024,317.51453 162.117728,317.287234 162.117728,317.006849 C162.117728,316.757619 162.29732,316.550334 162.534152,316.507348 L162.625408,316.499168 L172.922794,316.499168 Z M287.922794,316.499168 C288.203179,316.499168 288.430475,316.726465 288.430475,317.006849 C288.430475,317.25608 288.250883,317.463364 288.01405,317.506351 L287.922794,317.51453 L277.625408,317.51453 C277.345024,317.51453 277.117728,317.287234 277.117728,317.006849 C277.117728,316.757619 277.29732,316.550334 277.534152,316.507348 L277.625408,316.499168 L287.922794,316.499168 Z M315.382489,316.499168 C315.662873,316.499168 315.89017,316.726465 315.89017,317.006849 C315.89017,317.25608 315.710578,317.463364 315.473745,317.506351 L315.382489,317.51453 L305.085103,317.51453 C304.804719,317.51453 304.577423,317.287234 304.577423,317.006849 C304.577423,316.757619 304.757015,316.550334 304.993847,316.507348 L305.085103,316.499168 L315.382489,316.499168 Z M274.192947,316.499168 C274.473331,316.499168 274.700627,316.726465 274.700627,317.006849 C274.700627,317.25608 274.521035,317.463364 274.284203,317.506351 L274.192947,317.51453 L263.895561,317.51453 C263.615177,317.51453 263.38788,317.287234 263.38788,317.006849 C263.38788,316.757619 263.567472,316.550334 263.804305,316.507348 L263.895561,316.499168 L274.192947,316.499168 Z M301.652642,316.499168 C301.933026,316.499168 302.160322,316.726465 302.160322,317.006849 C302.160322,317.25608 301.98073,317.463364 301.743898,317.506351 L301.652642,317.51453 L291.355256,317.51453 C291.074872,317.51453 290.847575,317.287234 290.847575,317.006849 C290.847575,316.757619 291.027167,316.550334 291.264,316.507348 L291.355256,316.499168 L301.652642,316.499168 Z M44.1929466,316.499168 C44.473331,316.499168 44.7006275,316.726465 44.7006275,317.006849 C44.7006275,317.25608 44.5210352,317.463364 44.2842029,317.506351 L44.1929466,317.51453 L33.895561,317.51453 C33.6151766,317.51453 33.3878802,317.287234 33.3878802,317.006849 C33.3878802,316.757619 33.5674724,316.550334 33.8043047,316.507348 L33.895561,316.499168 L44.1929466,316.499168 Z M215.625,301.885135 C216.559011,301.885135 217.316176,302.640579 217.316176,303.572466 C217.316176,304.504354 216.559011,305.259798 215.625,305.259798 C214.690989,305.259798 213.933824,304.504354 213.933824,303.572466 C213.933824,302.640579 214.690989,301.885135 215.625,301.885135 Z M272.476716,277.123288 C275.83311,277.123288 278.554466,279.838456 278.554466,283.188356 C278.554466,286.538256 275.83311,289.253425 272.476716,289.253425 C269.120321,289.253425 266.398965,286.538256 266.398965,283.188356 C266.398965,279.838456 269.120321,277.123288 272.476716,277.123288 Z M157.476716,277.123288 C160.83311,277.123288 163.554466,279.838456 163.554466,283.188356 C163.554466,286.538256 160.83311,289.253425 157.476716,289.253425 C154.120321,289.253425 151.398965,286.538256 151.398965,283.188356 C151.398965,279.838456 154.120321,277.123288 157.476716,277.123288 Z M191.801334,277.123288 C192.725183,277.123288 193.620664,277.329482 194.435614,277.721172 C194.684501,277.840794 194.789291,278.139531 194.669668,278.388419 C194.550045,278.637306 194.251308,278.742096 194.002421,278.622473 C193.32194,278.295413 192.574417,278.123288 191.801334,278.123288 C188.996716,278.123288 186.723584,280.391251 186.723584,283.188356 C186.723584,285.985461 188.996716,288.253425 191.801334,288.253425 C194.605953,288.253425 196.879085,285.985461 196.879085,283.188356 C196.879085,282.146269 196.563464,281.152567 195.982766,280.313822 C195.825578,280.086784 195.882203,279.775306 196.109241,279.618118 C196.336279,279.46093 196.647757,279.517554 196.804945,279.744593 C197.500501,280.749235 197.879085,281.941172 197.879085,283.188356 C197.879085,286.538256 195.157729,289.253425 191.801334,289.253425 C188.44494,289.253425 185.723584,286.538256 185.723584,283.188356 C185.723584,279.838456 188.44494,277.123288 191.801334,277.123288 Z M42.4767157,277.123288 C45.8331102,277.123288 48.5544662,279.838456 48.5544662,283.188356 C48.5544662,286.538256 45.8331102,289.253425 42.4767157,289.253425 C39.1203212,289.253425 36.3989651,286.538256 36.3989651,283.188356 C36.3989651,279.838456 39.1203212,277.123288 42.4767157,277.123288 Z M306.801334,277.123288 C307.725183,277.123288 308.620664,277.329482 309.435614,277.721172 C309.684501,277.840794 309.789291,278.139531 309.669668,278.388419 C309.550045,278.637306 309.251308,278.742096 309.002421,278.622473 C308.32194,278.295413 307.574417,278.123288 306.801334,278.123288 C303.996716,278.123288 301.723584,280.391251 301.723584,283.188356 C301.723584,285.985461 303.996716,288.253425 306.801334,288.253425 C309.605953,288.253425 311.879085,285.985461 311.879085,283.188356 C311.879085,282.146269 311.563464,281.152567 310.982766,280.313822 C310.825578,280.086784 310.882203,279.775306 311.109241,279.618118 C311.336279,279.46093 311.647757,279.517554 311.804945,279.744593 C312.500501,280.749235 312.879085,281.941172 312.879085,283.188356 C312.879085,286.538256 310.157729,289.253425 306.801334,289.253425 C303.44494,289.253425 300.723584,286.538256 300.723584,283.188356 C300.723584,279.838456 303.44494,277.123288 306.801334,277.123288 Z M76.8013344,277.123288 C77.7251832,277.123288 78.6206644,277.329482 79.4356136,277.721172 C79.6845011,277.840794 79.7892908,278.139531 79.669668,278.388419 C79.5500451,278.637306 79.2513085,278.742096 79.002421,278.622473 C78.3219401,278.295413 77.5744174,278.123288 76.8013344,278.123288 C73.9967158,278.123288 71.7235839,280.391251 71.7235839,283.188356 C71.7235839,285.985461 73.9967158,288.253425 76.8013344,288.253425 C79.6059531,288.253425 81.879085,285.985461 81.879085,283.188356 C81.879085,282.146269 81.5634643,281.152567 80.982766,280.313822 C80.8255778,280.086784 80.8822025,279.775306 81.1092409,279.618118 C81.3362794,279.46093 81.6477567,279.517554 81.804945,279.744593 C82.5005011,280.749235 82.879085,281.941172 82.879085,283.188356 C82.879085,286.538256 80.1577289,289.253425 76.8013344,289.253425 C73.4449399,289.253425 70.7235839,286.538256 70.7235839,283.188356 C70.7235839,279.838456 73.4449399,277.123288 76.8013344,277.123288 Z M157.476716,278.123288 C154.672097,278.123288 152.398965,280.391251 152.398965,283.188356 C152.398965,285.985461 154.672097,288.253425 157.476716,288.253425 C160.281334,288.253425 162.554466,285.985461 162.554466,283.188356 C162.554466,280.391251 160.281334,278.123288 157.476716,278.123288 Z M42.4767157,278.123288 C39.672097,278.123288 37.3989651,280.391251 37.3989651,283.188356 C37.3989651,285.985461 39.672097,288.253425 42.4767157,288.253425 C45.2813343,288.253425 47.5544662,285.985461 47.5544662,283.188356 C47.5544662,280.391251 45.2813343,278.123288 42.4767157,278.123288 Z M272.476716,278.123288 C269.672097,278.123288 267.398965,280.391251 267.398965,283.188356 C267.398965,285.985461 269.672097,288.253425 272.476716,288.253425 C275.281334,288.253425 277.554466,285.985461 277.554466,283.188356 C277.554466,280.391251 275.281334,278.123288 272.476716,278.123288 Z M272.476716,280.547945 C272.752858,280.547945 272.976716,280.771803 272.976716,281.047945 L272.976716,281.047945 L272.976,281.982 L273.640513,281.320902 C273.814277,281.147533 274.083723,281.128554 274.278438,281.263772 L274.34762,281.321706 C274.520988,281.49547 274.539967,281.764916 274.404749,281.959631 L274.346815,282.028813 L273.684427,282.687857 L274.622004,282.688356 C274.867464,282.688356 275.071613,282.865231 275.113949,283.098481 L275.122004,283.188356 C275.122004,283.433816 274.945129,283.637965 274.71188,283.6803 L274.622004,283.688356 L273.684427,283.687857 L274.346815,284.347899 C274.520578,284.521268 274.54017,284.790671 274.405396,284.985693 L274.34762,285.055006 C274.174251,285.22877 273.904848,285.248362 273.709827,285.113588 L273.640513,285.055811 L272.976,284.392 L272.976716,285.328767 C272.976716,285.574227 272.799841,285.778375 272.566591,285.820711 L272.476716,285.828767 C272.200573,285.828767 271.976716,285.604909 271.976716,285.328767 L271.976716,285.328767 L271.976,284.392 L271.312919,285.055811 C271.139155,285.22918 270.869708,285.248158 270.674994,285.11294 L270.605812,285.055006 C270.432443,284.881242 270.413465,284.611796 270.548682,284.417082 L270.606617,284.347899 L271.268427,283.687857 L270.331427,283.688356 C270.085967,283.688356 269.881819,283.511481 269.839483,283.278232 L269.831427,283.188356 C269.831427,282.942896 270.008302,282.738748 270.241551,282.696412 L270.331427,282.688356 L271.268427,282.687857 L270.606617,282.028813 C270.432853,281.855444 270.413261,281.586042 270.548035,281.39102 L270.605812,281.321706 C270.779181,281.147942 271.048583,281.128351 271.243605,281.263125 L271.312918,281.320902 L271.976,281.982 L271.976716,281.047945 C271.976716,280.802485 272.153591,280.598337 272.38684,280.556001 Z M192.65945,280.547945 C192.90491,280.547945 193.109058,280.72482 193.151394,280.95807 L193.15945,281.047945 L193.158461,281.829945 L193.941283,281.830011 C194.217425,281.830011 194.441283,282.053868 194.441283,282.330011 C194.441283,282.575471 194.264407,282.779619 194.031158,282.821955 L193.941283,282.830011 L193.158461,282.829945 L193.158461,283.545945 L193.941283,283.546242 C194.217425,283.546242 194.441283,283.770099 194.441283,284.046242 C194.441283,284.291702 194.264407,284.49585 194.031158,284.538186 L193.941283,284.546242 L193.158461,284.545945 L193.15945,285.328767 C193.15945,285.604909 192.935592,285.828767 192.65945,285.828767 C192.41399,285.828767 192.209842,285.651892 192.167506,285.418643 L192.15945,285.328767 L192.158461,284.545945 L191.442461,284.545945 L191.443219,285.328767 C191.443219,285.604909 191.219361,285.828767 190.943219,285.828767 C190.697759,285.828767 190.493611,285.651892 190.451275,285.418643 L190.443219,285.328767 L190.442461,284.545945 L189.660461,284.546242 C189.384318,284.546242 189.160461,284.322384 189.160461,284.046242 C189.160461,283.800782 189.337336,283.596633 189.570585,283.554297 L189.660461,283.546242 L190.442461,283.545945 L190.442461,282.829945 L189.660461,282.830011 C189.384318,282.830011 189.160461,282.606153 189.160461,282.330011 C189.160461,282.084551 189.337336,281.880402 189.570585,281.838066 L189.660461,281.830011 L190.442461,281.829945 L190.443219,281.047945 C190.443219,280.771803 190.667077,280.547945 190.943219,280.547945 C191.188679,280.547945 191.392827,280.72482 191.435163,280.95807 L191.443219,281.047945 L191.442461,281.829945 L192.158461,281.829945 L192.15945,281.047945 C192.15945,280.771803 192.383308,280.547945 192.65945,280.547945 Z M42.4767157,280.547945 C42.7528581,280.547945 42.9767157,280.771803 42.9767157,281.047945 L42.9767157,281.047945 L42.976,281.982 L43.6405131,281.320902 C43.8142769,281.147533 44.083723,281.128554 44.2784376,281.263772 L44.3476196,281.321706 C44.5209881,281.49547 44.5399666,281.764916 44.404749,281.959631 L44.3468149,282.028813 L43.684427,282.687857 L44.6220044,282.688356 C44.8674642,282.688356 45.0716127,282.865231 45.1139487,283.098481 L45.1220044,283.188356 C45.1220044,283.433816 44.9451292,283.637965 44.71188,283.6803 L44.6220044,283.688356 L43.684427,283.687857 L44.3468149,284.347899 C44.5205784,284.521268 44.5401702,284.790671 44.4053962,284.985693 L44.3476196,285.055006 C44.1742507,285.22877 43.9048484,285.248362 43.7098266,285.113588 L43.6405129,285.055811 L42.976,284.392 L42.9767157,285.328767 C42.9767157,285.574227 42.7998405,285.778375 42.5665913,285.820711 L42.4767157,285.828767 C42.2005733,285.828767 41.9767157,285.604909 41.9767157,285.328767 L41.9767157,285.328767 L41.976,284.392 L41.3129185,285.055811 C41.1391545,285.22918 40.8697083,285.248158 40.6749938,285.11294 L40.6058117,285.055006 C40.4324432,284.881242 40.4134648,284.611796 40.5486824,284.417082 L40.6066165,284.347899 L41.268427,283.687857 L40.331427,283.688356 C40.0859671,283.688356 39.8818186,283.511481 39.8394827,283.278232 L39.831427,283.188356 C39.831427,282.942896 40.0083022,282.738748 40.2415514,282.696412 L40.331427,282.688356 L41.268427,282.687857 L40.6066165,282.028813 C40.4328529,281.855444 40.4132612,281.586042 40.5480352,281.39102 L40.6058117,281.321706 C40.7791806,281.147942 41.0485829,281.128351 41.2436046,281.263125 L41.3129183,281.320902 L41.976,281.982 L41.9767157,281.047945 C41.9767157,280.802485 42.1535908,280.598337 42.3868401,280.556001 Z M307.65945,280.547945 C307.90491,280.547945 308.109058,280.72482 308.151394,280.95807 L308.15945,281.047945 L308.158461,281.829945 L308.941283,281.830011 C309.217425,281.830011 309.441283,282.053868 309.441283,282.330011 C309.441283,282.575471 309.264407,282.779619 309.031158,282.821955 L308.941283,282.830011 L308.158461,282.829945 L308.158461,283.545945 L308.941283,283.546242 C309.217425,283.546242 309.441283,283.770099 309.441283,284.046242 C309.441283,284.291702 309.264407,284.49585 309.031158,284.538186 L308.941283,284.546242 L308.158461,284.545945 L308.15945,285.328767 C308.15945,285.604909 307.935592,285.828767 307.65945,285.828767 C307.41399,285.828767 307.209842,285.651892 307.167506,285.418643 L307.15945,285.328767 L307.158461,284.545945 L306.442461,284.545945 L306.443219,285.328767 C306.443219,285.604909 306.219361,285.828767 305.943219,285.828767 C305.697759,285.828767 305.493611,285.651892 305.451275,285.418643 L305.443219,285.328767 L305.442461,284.545945 L304.660461,284.546242 C304.384318,284.546242 304.160461,284.322384 304.160461,284.046242 C304.160461,283.800782 304.337336,283.596633 304.570585,283.554297 L304.660461,283.546242 L305.442461,283.545945 L305.442461,282.829945 L304.660461,282.830011 C304.384318,282.830011 304.160461,282.606153 304.160461,282.330011 C304.160461,282.084551 304.337336,281.880402 304.570585,281.838066 L304.660461,281.830011 L305.442461,281.829945 L305.443219,281.047945 C305.443219,280.771803 305.667077,280.547945 305.943219,280.547945 C306.188679,280.547945 306.392827,280.72482 306.435163,280.95807 L306.443219,281.047945 L306.442461,281.829945 L307.158461,281.829945 L307.15945,281.047945 C307.15945,280.771803 307.383308,280.547945 307.65945,280.547945 Z M77.6594499,280.547945 C77.9049098,280.547945 78.1090583,280.72482 78.1513942,280.95807 L78.1594499,281.047945 L78.1584607,281.829945 L78.9412826,281.830011 C79.217425,281.830011 79.4412826,282.053868 79.4412826,282.330011 C79.4412826,282.575471 79.2644074,282.779619 79.0311582,282.821955 L78.9412826,282.830011 L78.1584607,282.829945 L78.1584607,283.545945 L78.9412826,283.546242 C79.217425,283.546242 79.4412826,283.770099 79.4412826,284.046242 C79.4412826,284.291702 79.2644074,284.49585 79.0311582,284.538186 L78.9412826,284.546242 L78.1584607,284.545945 L78.1594499,285.328767 C78.1594499,285.604909 77.9355923,285.828767 77.6594499,285.828767 C77.41399,285.828767 77.2098415,285.651892 77.1675056,285.418643 L77.1594499,285.328767 L77.1584607,284.545945 L76.4424607,284.545945 L76.443219,285.328767 C76.443219,285.604909 76.2193613,285.828767 75.943219,285.828767 C75.6977591,285.828767 75.4936106,285.651892 75.4512746,285.418643 L75.443219,285.328767 L75.4424607,284.545945 L74.6604607,284.546242 C74.3843183,284.546242 74.1604607,284.322384 74.1604607,284.046242 C74.1604607,283.800782 74.3373358,283.596633 74.570585,283.554297 L74.6604607,283.546242 L75.4424607,283.545945 L75.4424607,282.829945 L74.6604607,282.830011 C74.3843183,282.830011 74.1604607,282.606153 74.1604607,282.330011 C74.1604607,282.084551 74.3373358,281.880402 74.570585,281.838066 L74.6604607,281.830011 L75.4424607,281.829945 L75.443219,281.047945 C75.443219,280.771803 75.6670766,280.547945 75.943219,280.547945 C76.1886788,280.547945 76.3928273,280.72482 76.4351633,280.95807 L76.443219,281.047945 L76.4424607,281.829945 L77.1584607,281.829945 L77.1594499,281.047945 C77.1594499,280.771803 77.3833075,280.547945 77.6594499,280.547945 Z M157.476716,280.547945 C157.722176,280.547945 157.926324,280.72482 157.96866,280.95807 L157.976716,281.047945 L157.976427,281.981945 L158.640513,281.320902 C158.814277,281.147533 159.083723,281.128554 159.278438,281.263772 L159.34762,281.321706 C159.520988,281.49547 159.539967,281.764916 159.404749,281.959631 L159.346815,282.028813 L158.684427,282.687945 L159.622004,282.688356 C159.867464,282.688356 160.071613,282.865231 160.113949,283.098481 L160.122004,283.188356 C160.122004,283.433816 159.945129,283.637965 159.71188,283.6803 L159.622004,283.688356 L158.685427,283.687945 L159.346815,284.347899 C159.520578,284.521268 159.54017,284.790671 159.405396,284.985693 L159.34762,285.055006 C159.174251,285.22877 158.904848,285.248362 158.709827,285.113588 L158.640513,285.055811 L157.976427,284.392945 L157.976716,285.328767 C157.976716,285.574227 157.799841,285.778375 157.566591,285.820711 L157.476716,285.828767 C157.231256,285.828767 157.027107,285.651892 156.984771,285.418643 L156.976716,285.328767 L156.976427,284.392945 L156.312919,285.055811 C156.139155,285.22918 155.869708,285.248158 155.674994,285.11294 L155.605812,285.055006 C155.432443,284.881242 155.413465,284.611796 155.548682,284.417082 L155.606617,284.347899 L156.267427,283.687945 L155.331427,283.688356 C155.085967,283.688356 154.881819,283.511481 154.839483,283.278232 L154.831427,283.188356 C154.831427,282.942896 155.008302,282.738748 155.241551,282.696412 L155.331427,282.688356 L156.268427,282.687945 L155.606617,282.028813 C155.432853,281.855444 155.413261,281.586042 155.548035,281.39102 L155.605812,281.321706 C155.779181,281.147942 156.048583,281.128351 156.243605,281.263125 L156.312918,281.320902 L156.976427,281.981945 L156.976716,281.047945 C156.976716,280.802485 157.153591,280.598337 157.38684,280.556001 L157.476716,280.547945 Z M77.1584607,282.829945 L76.4424607,282.829945 L76.4424607,283.545945 L77.1584607,283.545945 L77.1584607,282.829945 Z M307.158461,282.829945 L306.442461,282.829945 L306.442461,283.545945 L307.158461,283.545945 L307.158461,282.829945 Z M192.158461,282.829945 L191.442461,282.829945 L191.442461,283.545945 L192.158461,283.545945 L192.158461,282.829945 Z M1.69117647,254.587838 C2.62518744,254.587838 3.38235294,255.343282 3.38235294,256.275169 C3.38235294,257.207056 2.62518744,257.9625 1.69117647,257.9625 C0.757165497,257.9625 3.55271368e-15,257.207056 3.55271368e-15,256.275169 C3.55271368e-15,255.343282 0.757165497,254.587838 1.69117647,254.587838 Z M116.691176,254.587838 C117.625187,254.587838 118.382353,255.343282 118.382353,256.275169 C118.382353,257.207056 117.625187,257.9625 116.691176,257.9625 C115.757165,257.9625 115,257.207056 115,256.275169 C115,255.343282 115.757165,254.587838 116.691176,254.587838 Z M231.691176,254.587838 C232.625187,254.587838 233.382353,255.343282 233.382353,256.275169 C233.382353,257.207056 232.625187,257.9625 231.691176,257.9625 C230.757165,257.9625 230,257.207056 230,256.275169 C230,255.343282 230.757165,254.587838 231.691176,254.587838 Z M302.946575,203.067568 C303.179804,203.067568 303.368873,203.256637 303.368873,203.489865 C303.368873,203.723093 303.179804,203.912162 302.946575,203.912162 L272.899013,203.912162 C272.665785,203.912162 272.476716,203.723093 272.476716,203.489865 C272.476716,203.256637 272.665785,203.067568 272.899013,203.067568 L302.946575,203.067568 Z M190.508363,203.067568 C190.742123,203.067568 190.931623,203.256637 190.931623,203.489865 C190.931623,203.723093 190.742123,203.912162 190.508363,203.912162 C190.274603,203.912162 190.085103,203.723093 190.085103,203.489865 C190.085103,203.256637 190.274603,203.067568 190.508363,203.067568 Z M72.9465753,203.067568 C73.1798036,203.067568 73.3688725,203.256637 73.3688725,203.489865 C73.3688725,203.723093 73.1798036,203.912162 72.9465753,203.912162 L42.899013,203.912162 C42.6657846,203.912162 42.4767157,203.723093 42.4767157,203.489865 C42.4767157,203.256637 42.6657846,203.067568 42.899013,203.067568 L72.9465753,203.067568 Z M75.5083631,203.067568 C75.742123,203.067568 75.9316228,203.256637 75.9316228,203.489865 C75.9316228,203.723093 75.742123,203.912162 75.5083631,203.912162 C75.2746033,203.912162 75.0851035,203.723093 75.0851035,203.489865 C75.0851035,203.256637 75.2746033,203.067568 75.5083631,203.067568 Z M305.508363,203.067568 C305.742123,203.067568 305.931623,203.256637 305.931623,203.489865 C305.931623,203.723093 305.742123,203.912162 305.508363,203.912162 C305.274603,203.912162 305.085103,203.723093 305.085103,203.489865 C305.085103,203.256637 305.274603,203.067568 305.508363,203.067568 Z M187.946575,203.067568 C188.179804,203.067568 188.368873,203.256637 188.368873,203.489865 C188.368873,203.723093 188.179804,203.912162 187.946575,203.912162 L157.899013,203.912162 C157.665785,203.912162 157.476716,203.723093 157.476716,203.489865 C157.476716,203.256637 157.665785,203.067568 157.899013,203.067568 L187.946575,203.067568 Z M259.669662,41.25 C262.927039,41.25 265.568355,43.8853109 265.568355,47.1369863 L265.568355,47.1369863 L265.568355,161.863014 C265.568355,165.114689 262.927039,167.75 259.669662,167.75 L259.669662,167.75 L205.608388,167.75 C202.351011,167.75 199.709695,165.114689 199.709695,161.863014 L199.709695,161.863014 L199.709695,62.6432604 C199.709695,62.2290468 200.045481,61.8932604 200.459695,61.8932604 C200.873909,61.8932604 201.209695,62.2290468 201.209695,62.6432604 L201.209695,62.6432604 L201.209695,161.863014 C201.209695,164.285497 203.178675,166.25 205.608388,166.25 L205.608388,166.25 L259.669662,166.25 C262.099375,166.25 264.068355,164.285497 264.068355,161.863014 L264.068355,161.863014 L264.068355,47.1369863 C264.068355,44.7145033 262.099375,42.75 259.669662,42.75 L259.669662,42.75 L205.608388,42.75 C203.178675,42.75 201.209695,44.7145033 201.209695,47.1369863 L201.209695,47.1369863 L201.209695,56.9828767 C201.209695,57.3970903 200.873909,57.7328767 200.459695,57.7328767 C200.045481,57.7328767 199.709695,57.3970903 199.709695,56.9828767 L199.709695,56.9828767 L199.709695,47.1369863 C199.709695,43.8853109 202.351011,41.25 205.608388,41.25 L205.608388,41.25 Z M144.669662,41.25 C147.927039,41.25 150.568355,43.8853109 150.568355,47.1369863 L150.568355,47.1369863 L150.568355,161.863014 C150.568355,165.114689 147.927039,167.75 144.669662,167.75 L144.669662,167.75 L90.6083878,167.75 C87.3510114,167.75 84.709695,165.114689 84.709695,161.863014 L84.709695,161.863014 L84.709695,62.6432604 C84.709695,62.2290468 85.0454814,61.8932604 85.459695,61.8932604 C85.8739086,61.8932604 86.209695,62.2290468 86.209695,62.6432604 L86.209695,62.6432604 L86.209695,161.863014 C86.209695,164.285497 88.1786752,166.25 90.6083878,166.25 L90.6083878,166.25 L144.669662,166.25 C147.099375,166.25 149.068355,164.285497 149.068355,161.863014 L149.068355,161.863014 L149.068355,47.1369863 C149.068355,44.7145033 147.099375,42.75 144.669662,42.75 L144.669662,42.75 L90.6083878,42.75 C88.1786752,42.75 86.209695,44.7145033 86.209695,47.1369863 L86.209695,47.1369863 L86.209695,56.9828767 C86.209695,57.3970903 85.8739086,57.7328767 85.459695,57.7328767 C85.0454814,57.7328767 84.709695,57.3970903 84.709695,56.9828767 L84.709695,56.9828767 L84.709695,47.1369863 C84.709695,43.8853109 87.3510114,41.25 90.6083878,41.25 L90.6083878,41.25 Z M102.192947,160.499168 C102.473331,160.499168 102.700627,160.726465 102.700627,161.006849 C102.700627,161.25608 102.521035,161.463364 102.284203,161.506351 L102.192947,161.51453 L91.895561,161.51453 C91.6151766,161.51453 91.3878802,161.287234 91.3878802,161.006849 C91.3878802,160.757619 91.5674724,160.550334 91.8043047,160.507348 L91.895561,160.499168 L102.192947,160.499168 Z M230.922794,160.499168 C231.203179,160.499168 231.430475,160.726465 231.430475,161.006849 C231.430475,161.25608 231.250883,161.463364 231.01405,161.506351 L230.922794,161.51453 L220.625408,161.51453 C220.345024,161.51453 220.117728,161.287234 220.117728,161.006849 C220.117728,160.757619 220.29732,160.550334 220.534152,160.507348 L220.625408,160.499168 L230.922794,160.499168 Z M143.382489,160.499168 C143.662873,160.499168 143.89017,160.726465 143.89017,161.006849 C143.89017,161.25608 143.710578,161.463364 143.473745,161.506351 L143.382489,161.51453 L133.085103,161.51453 C132.804719,161.51453 132.577423,161.287234 132.577423,161.006849 C132.577423,160.757619 132.757015,160.550334 132.993847,160.507348 L133.085103,160.499168 L143.382489,160.499168 Z M217.192947,160.499168 C217.473331,160.499168 217.700627,160.726465 217.700627,161.006849 C217.700627,161.25608 217.521035,161.463364 217.284203,161.506351 L217.192947,161.51453 L206.895561,161.51453 C206.615177,161.51453 206.38788,161.287234 206.38788,161.006849 C206.38788,160.757619 206.567472,160.550334 206.804305,160.507348 L206.895561,160.499168 L217.192947,160.499168 Z M244.652642,160.499168 C244.933026,160.499168 245.160322,160.726465 245.160322,161.006849 C245.160322,161.25608 244.98073,161.463364 244.743898,161.506351 L244.652642,161.51453 L234.355256,161.51453 C234.074872,161.51453 233.847575,161.287234 233.847575,161.006849 C233.847575,160.757619 234.027167,160.550334 234.264,160.507348 L234.355256,160.499168 L244.652642,160.499168 Z M258.382489,160.499168 C258.662873,160.499168 258.89017,160.726465 258.89017,161.006849 C258.89017,161.25608 258.710578,161.463364 258.473745,161.506351 L258.382489,161.51453 L248.085103,161.51453 C247.804719,161.51453 247.577423,161.287234 247.577423,161.006849 C247.577423,160.757619 247.757015,160.550334 247.993847,160.507348 L248.085103,160.499168 L258.382489,160.499168 Z M115.922794,160.499168 C116.203179,160.499168 116.430475,160.726465 116.430475,161.006849 C116.430475,161.25608 116.250883,161.463364 116.01405,161.506351 L115.922794,161.51453 L105.625408,161.51453 C105.345024,161.51453 105.117728,161.287234 105.117728,161.006849 C105.117728,160.757619 105.29732,160.550334 105.534152,160.507348 L105.625408,160.499168 L115.922794,160.499168 Z M129.652642,160.499168 C129.933026,160.499168 130.160322,160.726465 130.160322,161.006849 C130.160322,161.25608 129.98073,161.463364 129.743898,161.506351 L129.652642,161.51453 L119.355256,161.51453 C119.074872,161.51453 118.847575,161.287234 118.847575,161.006849 C118.847575,160.757619 119.027167,160.550334 119.264,160.507348 L119.355256,160.499168 L129.652642,160.499168 Z M273.625,145.885135 C274.559011,145.885135 275.316176,146.640579 275.316176,147.572466 C275.316176,148.504354 274.559011,149.259798 273.625,149.259798 C272.690989,149.259798 271.933824,148.504354 271.933824,147.572466 C271.933824,146.640579 272.690989,145.885135 273.625,145.885135 Z M158.625,145.885135 C159.559011,145.885135 160.316176,146.640579 160.316176,147.572466 C160.316176,148.504354 159.559011,149.259798 158.625,149.259798 C157.690989,149.259798 156.933824,148.504354 156.933824,147.572466 C156.933824,146.640579 157.690989,145.885135 158.625,145.885135 Z M100.476716,121.123288 C103.83311,121.123288 106.554466,123.838456 106.554466,127.188356 C106.554466,130.538256 103.83311,133.253425 100.476716,133.253425 C97.1203212,133.253425 94.3989651,130.538256 94.3989651,127.188356 C94.3989651,123.838456 97.1203212,121.123288 100.476716,121.123288 Z M249.801334,121.123288 C250.725183,121.123288 251.620664,121.329482 252.435614,121.721172 C252.684501,121.840794 252.789291,122.139531 252.669668,122.388419 C252.550045,122.637306 252.251308,122.742096 252.002421,122.622473 C251.32194,122.295413 250.574417,122.123288 249.801334,122.123288 C246.996716,122.123288 244.723584,124.391251 244.723584,127.188356 C244.723584,129.985461 246.996716,132.253425 249.801334,132.253425 C252.605953,132.253425 254.879085,129.985461 254.879085,127.188356 C254.879085,126.146269 254.563464,125.152567 253.982766,124.313822 C253.825578,124.086784 253.882203,123.775306 254.109241,123.618118 C254.336279,123.46093 254.647757,123.517554 254.804945,123.744593 C255.500501,124.749235 255.879085,125.941172 255.879085,127.188356 C255.879085,130.538256 253.157729,133.253425 249.801334,133.253425 C246.44494,133.253425 243.723584,130.538256 243.723584,127.188356 C243.723584,123.838456 246.44494,121.123288 249.801334,121.123288 Z M215.476716,121.123288 C218.83311,121.123288 221.554466,123.838456 221.554466,127.188356 C221.554466,130.538256 218.83311,133.253425 215.476716,133.253425 C212.120321,133.253425 209.398965,130.538256 209.398965,127.188356 C209.398965,123.838456 212.120321,121.123288 215.476716,121.123288 Z M134.801334,121.123288 C135.725183,121.123288 136.620664,121.329482 137.435614,121.721172 C137.684501,121.840794 137.789291,122.139531 137.669668,122.388419 C137.550045,122.637306 137.251308,122.742096 137.002421,122.622473 C136.32194,122.295413 135.574417,122.123288 134.801334,122.123288 C131.996716,122.123288 129.723584,124.391251 129.723584,127.188356 C129.723584,129.985461 131.996716,132.253425 134.801334,132.253425 C137.605953,132.253425 139.879085,129.985461 139.879085,127.188356 C139.879085,126.146269 139.563464,125.152567 138.982766,124.313822 C138.825578,124.086784 138.882203,123.775306 139.109241,123.618118 C139.336279,123.46093 139.647757,123.517554 139.804945,123.744593 C140.500501,124.749235 140.879085,125.941172 140.879085,127.188356 C140.879085,130.538256 138.157729,133.253425 134.801334,133.253425 C131.44494,133.253425 128.723584,130.538256 128.723584,127.188356 C128.723584,123.838456 131.44494,121.123288 134.801334,121.123288 Z M215.476716,122.123288 C212.672097,122.123288 210.398965,124.391251 210.398965,127.188356 C210.398965,129.985461 212.672097,132.253425 215.476716,132.253425 C218.281334,132.253425 220.554466,129.985461 220.554466,127.188356 C220.554466,124.391251 218.281334,122.123288 215.476716,122.123288 Z M100.476716,122.123288 C97.672097,122.123288 95.3989651,124.391251 95.3989651,127.188356 C95.3989651,129.985461 97.672097,132.253425 100.476716,132.253425 C103.281334,132.253425 105.554466,129.985461 105.554466,127.188356 C105.554466,124.391251 103.281334,122.123288 100.476716,122.123288 Z M100.476716,124.547945 C100.722176,124.547945 100.926324,124.72482 100.96866,124.95807 L100.976716,125.047945 L100.976427,125.981945 L101.640513,125.320902 C101.814277,125.147533 102.083723,125.128554 102.278438,125.263772 L102.34762,125.321706 C102.520988,125.49547 102.539967,125.764916 102.404749,125.959631 L102.346815,126.028813 L101.684427,126.687945 L102.622004,126.688356 C102.867464,126.688356 103.071613,126.865231 103.113949,127.098481 L103.122004,127.188356 C103.122004,127.433816 102.945129,127.637965 102.71188,127.6803 L102.622004,127.688356 L101.685427,127.687945 L102.346815,128.347899 C102.520578,128.521268 102.54017,128.790671 102.405396,128.985693 L102.34762,129.055006 C102.174251,129.22877 101.904848,129.248362 101.709827,129.113588 L101.640513,129.055811 L100.976427,128.392945 L100.976716,129.328767 C100.976716,129.574227 100.799841,129.778375 100.566591,129.820711 L100.476716,129.828767 C100.231256,129.828767 100.027107,129.651892 99.9847714,129.418643 L99.9767157,129.328767 L99.976427,128.392945 L99.3129185,129.055811 C99.1391545,129.22918 98.8697083,129.248158 98.6749938,129.11294 L98.6058117,129.055006 C98.4324432,128.881242 98.4134648,128.611796 98.5486824,128.417082 L98.6066165,128.347899 L99.267427,127.687945 L98.331427,127.688356 C98.0859671,127.688356 97.8818186,127.511481 97.8394827,127.278232 L97.831427,127.188356 C97.831427,126.942896 98.0083022,126.738748 98.2415514,126.696412 L98.331427,126.688356 L99.268427,126.687945 L98.6066165,126.028813 C98.4328529,125.855444 98.4132612,125.586042 98.5480352,125.39102 L98.6058117,125.321706 C98.7791806,125.147942 99.0485829,125.128351 99.2436046,125.263125 L99.3129183,125.320902 L99.976427,125.981945 L99.9767157,125.047945 C99.9767157,124.802485 100.153591,124.598337 100.38684,124.556001 L100.476716,124.547945 Z M250.65945,124.547945 C250.90491,124.547945 251.109058,124.72482 251.151394,124.95807 L251.15945,125.047945 L251.158461,125.829945 L251.941283,125.830011 C252.217425,125.830011 252.441283,126.053868 252.441283,126.330011 C252.441283,126.575471 252.264407,126.779619 252.031158,126.821955 L251.941283,126.830011 L251.158461,126.829945 L251.158461,127.545945 L251.941283,127.546242 C252.217425,127.546242 252.441283,127.770099 252.441283,128.046242 C252.441283,128.291702 252.264407,128.49585 252.031158,128.538186 L251.941283,128.546242 L251.158461,128.545945 L251.15945,129.328767 C251.15945,129.604909 250.935592,129.828767 250.65945,129.828767 C250.41399,129.828767 250.209842,129.651892 250.167506,129.418643 L250.15945,129.328767 L250.158461,128.545945 L249.442461,128.545945 L249.443219,129.328767 C249.443219,129.604909 249.219361,129.828767 248.943219,129.828767 C248.697759,129.828767 248.493611,129.651892 248.451275,129.418643 L248.443219,129.328767 L248.442461,128.545945 L247.660461,128.546242 C247.384318,128.546242 247.160461,128.322384 247.160461,128.046242 C247.160461,127.800782 247.337336,127.596633 247.570585,127.554297 L247.660461,127.546242 L248.442461,127.545945 L248.442461,126.829945 L247.660461,126.830011 C247.384318,126.830011 247.160461,126.606153 247.160461,126.330011 C247.160461,126.084551 247.337336,125.880402 247.570585,125.838066 L247.660461,125.830011 L248.442461,125.829945 L248.443219,125.047945 C248.443219,124.771803 248.667077,124.547945 248.943219,124.547945 C249.188679,124.547945 249.392827,124.72482 249.435163,124.95807 L249.443219,125.047945 L249.442461,125.829945 L250.158461,125.829945 L250.15945,125.047945 C250.15945,124.771803 250.383308,124.547945 250.65945,124.547945 Z M215.476716,124.547945 C215.722176,124.547945 215.926324,124.72482 215.96866,124.95807 L215.976716,125.047945 L215.976427,125.981945 L216.640513,125.320902 C216.814277,125.147533 217.083723,125.128554 217.278438,125.263772 L217.34762,125.321706 C217.520988,125.49547 217.539967,125.764916 217.404749,125.959631 L217.346815,126.028813 L216.684427,126.687945 L217.622004,126.688356 C217.867464,126.688356 218.071613,126.865231 218.113949,127.098481 L218.122004,127.188356 C218.122004,127.433816 217.945129,127.637965 217.71188,127.6803 L217.622004,127.688356 L216.685427,127.687945 L217.346815,128.347899 C217.520578,128.521268 217.54017,128.790671 217.405396,128.985693 L217.34762,129.055006 C217.174251,129.22877 216.904848,129.248362 216.709827,129.113588 L216.640513,129.055811 L215.976427,128.392945 L215.976716,129.328767 C215.976716,129.574227 215.799841,129.778375 215.566591,129.820711 L215.476716,129.828767 C215.231256,129.828767 215.027107,129.651892 214.984771,129.418643 L214.976716,129.328767 L214.976427,128.392945 L214.312919,129.055811 C214.139155,129.22918 213.869708,129.248158 213.674994,129.11294 L213.605812,129.055006 C213.432443,128.881242 213.413465,128.611796 213.548682,128.417082 L213.606617,128.347899 L214.267427,127.687945 L213.331427,127.688356 C213.085967,127.688356 212.881819,127.511481 212.839483,127.278232 L212.831427,127.188356 C212.831427,126.942896 213.008302,126.738748 213.241551,126.696412 L213.331427,126.688356 L214.268427,126.687945 L213.606617,126.028813 C213.432853,125.855444 213.413261,125.586042 213.548035,125.39102 L213.605812,125.321706 C213.779181,125.147942 214.048583,125.128351 214.243605,125.263125 L214.312918,125.320902 L214.976427,125.981945 L214.976716,125.047945 C214.976716,124.802485 215.153591,124.598337 215.38684,124.556001 L215.476716,124.547945 Z M135.65945,124.547945 C135.90491,124.547945 136.109058,124.72482 136.151394,124.95807 L136.15945,125.047945 L136.158461,125.829945 L136.941283,125.830011 C137.217425,125.830011 137.441283,126.053868 137.441283,126.330011 C137.441283,126.575471 137.264407,126.779619 137.031158,126.821955 L136.941283,126.830011 L136.158461,126.829945 L136.158461,127.545945 L136.941283,127.546242 C137.217425,127.546242 137.441283,127.770099 137.441283,128.046242 C137.441283,128.291702 137.264407,128.49585 137.031158,128.538186 L136.941283,128.546242 L136.158461,128.545945 L136.15945,129.328767 C136.15945,129.604909 135.935592,129.828767 135.65945,129.828767 C135.41399,129.828767 135.209842,129.651892 135.167506,129.418643 L135.15945,129.328767 L135.158461,128.545945 L134.442461,128.545945 L134.443219,129.328767 C134.443219,129.604909 134.219361,129.828767 133.943219,129.828767 C133.697759,129.828767 133.493611,129.651892 133.451275,129.418643 L133.443219,129.328767 L133.442461,128.545945 L132.660461,128.546242 C132.384318,128.546242 132.160461,128.322384 132.160461,128.046242 C132.160461,127.800782 132.337336,127.596633 132.570585,127.554297 L132.660461,127.546242 L133.442461,127.545945 L133.442461,126.829945 L132.660461,126.830011 C132.384318,126.830011 132.160461,126.606153 132.160461,126.330011 C132.160461,126.084551 132.337336,125.880402 132.570585,125.838066 L132.660461,125.830011 L133.442461,125.829945 L133.443219,125.047945 C133.443219,124.771803 133.667077,124.547945 133.943219,124.547945 C134.188679,124.547945 134.392827,124.72482 134.435163,124.95807 L134.443219,125.047945 L134.442461,125.829945 L135.158461,125.829945 L135.15945,125.047945 C135.15945,124.771803 135.383308,124.547945 135.65945,124.547945 Z M135.158461,126.829945 L134.442461,126.829945 L134.442461,127.545945 L135.158461,127.545945 L135.158461,126.829945 Z M250.158461,126.829945 L249.442461,126.829945 L249.442461,127.545945 L250.158461,127.545945 L250.158461,126.829945 Z M59.6911765,98.5878378 C60.6251874,98.5878378 61.3823529,99.3432818 61.3823529,100.275169 C61.3823529,101.207056 60.6251874,101.9625 59.6911765,101.9625 C58.7571655,101.9625 58,101.207056 58,100.275169 C58,99.3432818 58.7571655,98.5878378 59.6911765,98.5878378 Z M174.691176,98.5878378 C175.625187,98.5878378 176.382353,99.3432818 176.382353,100.275169 C176.382353,101.207056 175.625187,101.9625 174.691176,101.9625 C173.757165,101.9625 173,101.207056 173,100.275169 C173,99.3432818 173.757165,98.5878378 174.691176,98.5878378 Z M133.508363,47.0675676 C133.742123,47.0675676 133.931623,47.2566365 133.931623,47.4898649 C133.931623,47.7230932 133.742123,47.9121622 133.508363,47.9121622 C133.274603,47.9121622 133.085103,47.7230932 133.085103,47.4898649 C133.085103,47.2566365 133.274603,47.0675676 133.508363,47.0675676 Z M130.946575,47.0675676 C131.179804,47.0675676 131.368873,47.2566365 131.368873,47.4898649 C131.368873,47.7230932 131.179804,47.9121622 130.946575,47.9121622 L100.899013,47.9121622 C100.665785,47.9121622 100.476716,47.7230932 100.476716,47.4898649 C100.476716,47.2566365 100.665785,47.0675676 100.899013,47.0675676 L130.946575,47.0675676 Z M245.946575,47.0675676 C246.179804,47.0675676 246.368873,47.2566365 246.368873,47.4898649 C246.368873,47.7230932 246.179804,47.9121622 245.946575,47.9121622 L215.899013,47.9121622 C215.665785,47.9121622 215.476716,47.7230932 215.476716,47.4898649 C215.476716,47.2566365 215.665785,47.0675676 215.899013,47.0675676 L245.946575,47.0675676 Z" id="Combined-Shape" fill="#C5C6C6" fill-rule="nonzero"></path>
    </g>
</svg>