<svg width="171" height="170" viewBox="0 0 171 170" fill="none" xmlns="http://www.w3.org/2000/svg">
<path opacity="0.24" fill-rule="evenodd" clip-rule="evenodd" d="M168.315 41.4643C169.317 55.1556 170.333 72.3662 170.333 85.9999C170.333 99.6336 169.317 116.844 168.315 130.535C167.812 137.405 167.309 143.433 166.932 147.744C166.743 149.9 166.586 151.629 166.475 152.82C166.42 153.416 166.377 153.877 166.347 154.191L166.302 154.666L166.301 154.672L166.301 154.674C166.301 154.675 166.301 154.675 159.333 154L166.301 154.674L165.688 161H29.3333V147H152.943C152.957 146.844 152.971 146.685 152.985 146.524C153.358 142.262 153.855 136.302 154.352 129.513C155.35 115.887 156.333 99.098 156.333 85.9999C156.333 72.9018 155.35 56.1123 154.352 42.4866C153.855 35.6974 153.358 29.7373 152.985 25.4758C152.799 23.3455 152.643 21.641 152.535 20.4711C152.481 19.8861 152.438 19.4349 152.41 19.1311L152.366 18.6763C152.366 18.6762 152.366 18.6752 154.295 18.4882L159.333 17.9999C166.301 17.3246 166.301 17.3249 166.301 17.3255L166.301 17.3273L166.302 17.3338L166.347 17.8087C166.377 18.1224 166.42 18.5839 166.475 19.1796C166.586 20.371 166.743 22.0994 166.932 24.2557C167.309 28.5673 167.812 34.595 168.315 41.4643Z" fill="#00807B"/>
<path d="M16.3333 77C16.3333 103.732 20.3333 145 20.3333 145H150.333C150.333 145 154.333 103.732 154.333 77C154.333 50.2682 150.333 9 150.333 9H20.3333C20.3333 9 16.3333 50.2682 16.3333 77Z" stroke="#004A47" stroke-width="5"/>
<circle opacity="0.24" cx="71.3333" cy="105" r="7" fill="#00807B"/>
<circle opacity="0.24" cx="105.333" cy="105" r="7" fill="#00807B"/>
<circle opacity="0.24" cx="88.3333" cy="95" r="7" fill="#00807B"/>
<circle opacity="0.24" cx="71.3333" cy="124" r="7" fill="#00807B"/>
<circle opacity="0.24" cx="105.333" cy="124" r="7" fill="#00807B"/>
<circle opacity="0.24" cx="88.3333" cy="114" r="7" fill="#00807B"/>
<circle cx="85.8333" cy="74.5" r="1.5" stroke="#004A47" stroke-width="5"/>
<circle cx="85.8333" cy="92.5" r="4.5" stroke="#004A47" stroke-width="5"/>
<circle cx="102.833" cy="102.5" r="4.5" stroke="#004A47" stroke-width="5"/>
<circle cx="68.8333" cy="102.5" r="4.5" stroke="#004A47" stroke-width="5"/>
<circle cx="85.8333" cy="111.5" r="4.5" stroke="#004A47" stroke-width="5"/>
<circle cx="102.833" cy="121.5" r="4.5" stroke="#004A47" stroke-width="5"/>
<circle cx="68.8333" cy="121.5" r="4.5" stroke="#004A47" stroke-width="5"/>
<rect x="48.3333" y="29" width="28" height="28" stroke="#004A47" stroke-width="5"/>
<rect x="93.3333" y="29" width="28" height="28" stroke="#004A47" stroke-width="5"/>
<path d="M65.5712 40.7426L63.3236 42.9903L61.0759 45.2379C60.5437 45.7701 60.3585 45.8024 60.3026 45.8122C60.2994 45.8127 60.2967 45.8132 60.2944 45.8137C59.7627 45.9237 59.1817 45.5912 58.8284 45.2379L57.7047 44.1141L54.3333 47.4854L55.5324 48.6844L55.5523 48.7018C56.0914 49.1735 56.933 49.9082 58.2811 50.1295C59.6255 50.3503 61.8291 50.1041 66.1331 45.8001C70.4372 41.496 70.6836 39.2922 70.4629 37.9478C70.2415 36.5997 69.5068 35.7581 69.0351 35.219L69.0177 35.1991L67.8187 34L64.4474 37.3714L65.5712 38.495C65.9245 38.8484 66.257 39.4293 66.147 39.961C66.1465 39.9634 66.146 39.9661 66.1455 39.9692C66.1357 40.0252 66.1034 40.2104 65.5712 40.7426Z" fill="#004A47"/>
<path d="M110.571 40.7426L108.324 42.9903L106.076 45.2379C105.544 45.7701 105.359 45.8024 105.303 45.8122C105.299 45.8127 105.297 45.8132 105.294 45.8137C104.763 45.9237 104.182 45.5912 103.828 45.2379L102.705 44.1141L99.3333 47.4854L100.532 48.6844L100.552 48.7018C101.091 49.1735 101.933 49.9082 103.281 50.1295C104.625 50.3503 106.829 50.1041 111.133 45.8001C115.437 41.496 115.684 39.2922 115.463 37.9478C115.242 36.5997 114.507 35.7581 114.035 35.219L114.018 35.1991L112.819 34L109.447 37.3714L110.571 38.495C110.924 38.8484 111.257 39.4293 111.147 39.961C111.147 39.9634 111.146 39.9661 111.145 39.9692C111.136 40.0252 111.103 40.2104 110.571 40.7426Z" fill="#004A47"/>
</svg>
