<svg width="74" height="84" viewBox="0 0 74 84" fill="none" xmlns="http://www.w3.org/2000/svg">
<path d="M56.5098 5.6773C50.7266 1.98915 44.0096 0 37 0C16.9344 0 0.667969 16.2664 0.667969 36.3321C0.667969 56.3977 16.9344 72.6641 37 72.6641C57.0657 72.6641 73.3321 56.3977 73.3321 36.3321C73.3321 26.89 69.7142 18.0145 63.3398 11.3072C63.0973 11.0521 62.6938 11.0418 62.4386 11.2843C62.1835 11.5268 62.1732 11.9303 62.4157 12.1854C68.5672 18.6581 72.0573 27.2202 72.0573 36.3321C72.0573 55.6936 56.3616 71.3893 37 71.3893C17.6384 71.3893 1.94278 55.6936 1.94278 36.3321C1.94278 16.9705 17.6384 1.27481 37 1.27481C43.7649 1.27481 50.2444 3.19363 55.8243 6.75213C56.1211 6.94142 56.5152 6.85426 56.7045 6.55745C56.8937 6.26064 56.8066 5.86658 56.5098 5.6773Z" fill="#291D18"/>
<path d="M31.2634 58.0045L42.7367 58.0045L42.7367 65.6533L31.2634 65.6533L31.2634 58.0045Z" stroke="#291D18"/>
<path d="M25.0785 35.4137C24.9755 33.1359 26.7944 31.2329 29.0744 31.2329L44.9257 31.2329C47.2058 31.2329 49.0247 33.1359 48.9216 35.4137L48.0725 54.1847C47.9758 56.3213 46.2154 58.0039 44.0766 58.0039L29.9236 58.0039C27.7848 58.0039 26.0244 56.3213 25.9277 54.1847L25.0785 35.4137Z" stroke="#291D18"/>
<path d="M37.0002 30.5957V11.4736" stroke="#291D18" stroke-linecap="square"/>
<path d="M31.901 30.5957V25.4965L29.9888 23.5843" stroke="#291D18" stroke-linecap="square"/>
<path d="M42.0994 30.5957V25.4965L44.0116 23.5843" stroke="#291D18" stroke-linecap="square"/>
<path d="M34.4505 30.5957V17.8476L32.5383 15.9354" stroke="#291D18" stroke-linecap="square"/>
<path d="M39.5498 30.5957V17.8476L41.462 15.9354" stroke="#291D18" stroke-linecap="square"/>
<line x1="37.1377" y1="83" x2="37.1377" y2="66.1527" stroke="#291D18" stroke-linecap="round"/>
<circle cx="28.0765" cy="21.671" r="1.91221" stroke="#291D18"/>
<circle cx="45.9239" cy="21.671" r="1.91221" stroke="#291D18"/>
<path d="M32.5383 14.0226C32.5383 15.0787 31.6822 15.9348 30.6261 15.9348C29.57 15.9348 28.7139 15.0787 28.7139 14.0226C28.7139 12.9665 29.57 12.1104 30.6261 12.1104C31.6822 12.1104 32.5383 12.9665 32.5383 14.0226Z" stroke="#291D18"/>
<path d="M45.2863 14.0226C45.2863 15.0787 44.4302 15.9348 43.3741 15.9348C42.318 15.9348 41.4619 15.0787 41.4619 14.0226C41.4619 12.9665 42.318 12.1104 43.3741 12.1104C44.4302 12.1104 45.2863 12.9665 45.2863 14.0226Z" stroke="#291D18"/>
<circle cx="37.0001" cy="8.92393" r="1.91221" stroke="#291D18"/>
</svg>
