<?xml version="1.0" encoding="UTF-8"?>
<svg width="299px" height="264px" viewBox="0 0 299 264" version="1.1" xmlns="http://www.w3.org/2000/svg" xmlns:xlink="http://www.w3.org/1999/xlink">
    <!-- Generator: Sketch 60 (88103) - https://sketch.com -->
    <title>Illustration / Flow / Desktop / Existing Fixd Line</title>
    <desc>Created with Sketch.</desc>
    <g id="Illustration-/-Flow-/-Desktop-/-Existing-Fixd-Line" stroke="none" stroke-width="1" fill="none" fill-rule="evenodd">
        <g id="Illustration-/-Flow-/-Desktop-/-Switch-vatse-lijn" transform="translate(0.000000, 1.000000)">
            <path d="M101.311995,76.9517544 C101.726209,76.9517544 102.061995,77.2875408 102.061995,77.7017544 C102.061995,78.1159679 101.726209,78.4517544 101.311995,78.4517544 C94.5246411,78.4517544 88.9993744,83.9530921 88.8342518,90.8827128 L88.830454,91.1939353 L80.2125,171.587719 C80.2125,178.480343 85.6379526,184.083043 92.3867185,184.246337 L92.6897727,184.25 L102.610227,184.25 C103.024441,184.25 103.360227,184.585786 103.360227,185 C103.360227,185.379696 103.078073,185.693491 102.711998,185.743153 L102.610227,185.75 L92.6897727,185.75 C85.0723368,185.75 78.881835,179.577291 78.7200127,171.827192 L78.7167682,171.507819 L87.3347222,91.1140351 C87.3347222,83.2947374 93.5902106,76.9517544 101.311995,76.9517544 Z M203.113005,76.9517544 C210.730441,76.9517544 216.920943,83.1244637 217.082765,90.7211527 L217.08601,91.0341349 L225.7125,171.587719 C225.7125,179.301351 219.624937,185.578298 212.047457,185.746537 L211.735227,185.75 L115.8375,185.75 C115.423286,185.75 115.0875,185.414214 115.0875,185 C115.0875,184.620304 115.369654,184.306509 115.735729,184.256847 L115.8375,184.25 L211.735227,184.25 C218.522581,184.25 224.047848,178.748662 224.21297,171.971895 L224.216768,171.66762 L215.590278,91.1140351 C215.590278,84.2214116 210.164825,78.6187118 203.416059,78.4554171 L203.113005,78.4517544 L109.934217,78.4517544 C109.520004,78.4517544 109.184217,78.1159679 109.184217,77.7017544 C109.184217,77.3220586 109.466371,77.0082634 109.832447,76.958601 L109.934217,76.9517544 L203.113005,76.9517544 Z M226.052525,45.25 C236.211882,45.25 244.438889,53.7143147 244.433077,64.0518981 L244.433077,64.0518981 L248.75,98.5742151 C248.75,109.004984 240.522993,117.469298 230.363636,117.469298 C229.949423,117.469298 229.613636,117.133512 229.613636,116.719298 C229.613636,116.305085 229.949423,115.969298 230.363636,115.969298 C239.684869,115.969298 247.25,108.185952 247.255811,98.6674002 L247.255811,98.6674002 L242.938889,64.1450831 C242.938889,54.5333461 235.373758,46.75 226.052525,46.75 L226.052525,46.75 L78.1030303,46.75 C68.7817972,46.75 61.2166667,54.5333461 61.2166667,64.1450831 L61.2166667,64.1450831 L61.2037773,64.2835312 L54.7501305,98.6433445 L54.7543475,98.97295 C54.9601213,108.400291 62.4443711,115.969298 71.6363636,115.969298 L71.6363636,115.969298 L79.5904702,115.969298 C80.0046838,115.969298 80.3404702,116.305085 80.3404702,116.719298 C80.3404702,117.133512 80.0046838,117.469298 79.5904702,117.469298 L79.5904702,117.469298 L71.6363636,117.469298 C61.4770074,117.469298 53.25,109.004984 53.25,98.5742151 L53.25,98.5742151 L53.2628893,98.435767 L59.7167919,64.0745921 C59.7537576,53.676207 67.9665694,45.25 78.1030303,45.25 L78.1030303,45.25 Z M126.334965,62.3201754 C126.749179,62.3201754 127.084965,62.6559619 127.084965,63.0701754 C127.084965,63.484389 126.749179,63.8201754 126.334965,63.8201754 C122.265849,63.8201754 118.690844,66.7723841 117.58525,71.0398557 L117.516668,71.3200169 L116.568313,75.4317183 C116.475219,75.8353351 116.072556,76.0870641 115.66894,75.9939707 C115.298958,75.9086352 115.056603,75.563175 115.090486,75.1953032 L115.106687,75.0945975 L116.055042,70.9828961 C117.226956,65.9019283 121.459275,62.3201754 126.334965,62.3201754 Z M177.426439,62.3201754 C177.498815,62.3201754 177.568796,62.3304273 177.635011,62.3495582 C182.09142,62.69049 185.885495,66.0236502 187.08447,70.6836626 L187.157458,70.9828961 L188.105813,75.0945975 C188.198906,75.4982143 187.947177,75.9008774 187.54356,75.9939707 C187.173578,76.0793063 186.804398,75.8748953 186.673731,75.5293465 L186.644187,75.4317183 L185.695832,71.3200169 C184.698538,66.9961337 181.188891,63.9519275 177.142191,63.8243442 L176.877535,63.8201754 L168.870776,63.8201754 C164.80166,63.8201754 161.226655,66.7723841 160.121061,71.0398557 L160.052479,71.3200169 L159.104124,75.4317183 C159.01103,75.8353351 158.608367,76.0870641 158.20475,75.9939707 C157.834768,75.9086352 157.592414,75.563175 157.626297,75.1953032 L157.642498,75.0945975 L158.590853,70.9828961 C159.74023,65.9996393 163.833436,62.4584896 168.590217,62.3241345 L168.870776,62.3201754 L177.426439,62.3201754 Z M132.408278,62.3201754 C137.190205,62.3201754 141.353267,65.7654932 142.617212,70.6914415 L142.688201,70.9828961 L143.636556,75.0945975 C143.729649,75.4982143 143.47792,75.9008774 143.074304,75.9939707 C142.704322,76.0793063 142.335141,75.8748953 142.204475,75.5293465 L142.17493,75.4317183 L141.226575,71.3200169 C140.207601,66.9021362 136.565854,63.8201754 132.408278,63.8201754 C131.994064,63.8201754 131.658278,63.484389 131.658278,63.0701754 C131.658278,62.6559619 131.994064,62.3201754 132.408278,62.3201754 Z" id="Combined-Shape" fill="#8C8D8E" fill-rule="nonzero"></path>
            <path d="M57.5,176 C59.9852814,176 62,178.014719 62,180.5 C62,182.985281 59.9852814,185 57.5,185 C55.0147186,185 53,182.985281 53,180.5 C53,178.014719 55.0147186,176 57.5,176 Z M151.95,94.25 C171.115222,94.25 186.65,109.871878 186.65,129.140351 C186.65,148.408824 171.115222,164.030702 151.95,164.030702 C132.784778,164.030702 117.25,148.408824 117.25,129.140351 C117.25,109.871878 132.784778,94.25 151.95,94.25 Z M151.95,95.75 C133.615088,95.75 118.75,110.698433 118.75,129.140351 C118.75,147.582268 133.615088,162.530702 151.95,162.530702 C170.284912,162.530702 185.15,147.582268 185.15,129.140351 C185.15,110.698433 170.284912,95.75 151.95,95.75 Z M165.350499,114.624969 C165.557623,114.266259 166.016322,114.143375 166.375031,114.350499 C166.733741,114.557623 166.856625,115.016322 166.649501,115.375031 L166.649501,115.375031 L149.904481,144.375031 C149.653794,144.809186 149.055934,144.879895 148.710885,144.516198 L148.710885,144.516198 L136.455905,131.598939 C136.170817,131.298443 136.183306,130.823734 136.483802,130.538645 C136.784297,130.253557 137.259006,130.266046 137.544095,130.566542 L137.544095,130.566542 L149.107746,142.755113 Z M275.5,41 C277.985281,41 280,43.0147186 280,45.5 C280,47.9852814 277.985281,50 275.5,50 C273.014719,50 271,47.9852814 271,45.5 C271,43.0147186 273.014719,41 275.5,41 Z M194,0 C198.970563,0 203,4.02943725 203,9 C203,13.9705627 198.970563,18 194,18 C189.029437,18 185,13.9705627 185,9 C185,4.02943725 189.029437,0 194,0 Z" id="Combined-Shape" fill="#239A98" fill-rule="nonzero"></path>
            <path d="M269,203 C285.568542,203 299,216.431458 299,233 C299,249.568542 285.568542,263 269,263 C252.431458,263 239,249.568542 239,233 C239,216.431458 252.431458,203 269,203 Z M18,19 C27.9411255,19 36,27.2827321 36,37.5 C36,47.7172679 27.9411255,56 18,56 C8.0588745,56 0,47.7172679 0,37.5 C0,27.2827321 8.0588745,19 18,19 Z" id="Combined-Shape" fill="#F2F2F2"></path>
        </g>
    </g>
</svg>