<svg xmlns="http://www.w3.org/2000/svg" width="132" height="82" viewBox="0 0 132 82">
  <g fill="none" fill-rule="evenodd" transform="translate(.545 .567)">
    <path fill="#C5C6C6" fill-rule="nonzero" d="M87.9933083,35.6368821 L43.4448153,35.6368821 C43.168673,35.6368821 42.9448153,35.8607398 42.9448153,36.1368821 L42.9448153,80.7057014 C42.9448153,80.9818438 43.168673,81.2057014 43.4448153,81.2057014 L87.9933083,81.2057014 C88.2694507,81.2057014 88.4933083,80.9818438 88.4933083,80.7057014 L88.4933083,36.1368821 C88.4933083,35.8607398 88.2694507,35.6368821 87.9933083,35.6368821 Z M87.493,36.636 L87.493,80.205 L43.944,80.205 L43.944,36.636 L87.493,36.636 Z"/>
    <path fill="#C5C6C6" fill-rule="nonzero" d="M87.6398356,35.7832481 C87.8134415,35.6097213 88.0828703,35.5904977 88.2777077,35.7255381 L88.3469424,35.7834094 L101.840448,49.2830721 C102.035666,49.4783788 102.035594,49.7949612 101.840287,49.9901789 C101.666681,50.1637056 101.397252,50.1829293 101.202415,50.0478888 L101.13318,49.9900176 L87.6396743,36.4903549 C87.4444567,36.2950482 87.4445289,35.9784657 87.6398356,35.7832481 Z"/>
    <path fill="#C5C6C6" fill-rule="nonzero" d="M29.5978366,35.7832481 C29.7714426,35.6097213 30.0408714,35.5904977 30.2357087,35.7255381 L30.3049434,35.7834094 L43.7984494,49.2830721 C43.993667,49.4783788 43.9935948,49.7949612 43.7982881,49.9901789 C43.6246822,50.1637056 43.3552534,50.1829293 43.160416,50.0478888 L43.0911813,49.9900176 L29.5976754,36.4903549 C29.4024577,36.2950482 29.40253,35.9784657 29.5978366,35.7832481 Z" transform="matrix(-1 0 0 1 73.396 0)"/>
    <path fill="#239A98" fill-rule="nonzero" d="M83.177255,68.1600746 L67.5250818,68.1600746 C67.2489395,68.1600746 67.0250818,68.3839322 67.0250818,68.6600746 L67.0250818,75.8874507 C67.0250818,76.1635931 67.2489395,76.3874507 67.5250818,76.3874507 L83.177255,76.3874507 C83.4533974,76.3874507 83.677255,76.1635931 83.677255,75.8874507 L83.677255,68.6600746 C83.677255,68.3839322 83.4533974,68.1600746 83.177255,68.1600746 Z M82.677,69.16 L82.677,75.387 L68.025,75.387 L68.025,69.16 L82.677,69.16 Z"/>
    <path fill="#C5C6C6" fill-rule="nonzero" d="M101.486814 80.2057014C101.762957 80.2057014 101.986814 80.4295591 101.986814 80.7057014 101.986814 80.9511613 101.809939 81.1553098 101.57669 81.1976458L101.486814 81.2057014 87.9933083 81.2057014C87.717166 81.2057014 87.4933083 80.9818438 87.4933083 80.7057014 87.4933083 80.4602415 87.6701835 80.2560931 87.9034327 80.2137571L87.9933083 80.2057014 101.486814 80.2057014zM106.354512 80.2057014C106.630654 80.2057014 106.854512 80.4295591 106.854512 80.7057014 106.854512 80.9511613 106.677636 81.1553098 106.444387 81.1976458L106.354512 81.2057014 105.150498 81.2057014C104.874356 81.2057014 104.650498 80.9818438 104.650498 80.7057014 104.650498 80.4602415 104.827373 80.2560931 105.060623 80.2137571L105.150498 80.2057014 106.354512 80.2057014zM46.4548487 80.2057014C46.730991 80.2057014 46.9548487 80.4295591 46.9548487 80.7057014 46.9548487 80.9511613 46.7779735 81.1553098 46.5447243 81.1976458L46.4548487 81.2057014 37.4247487 81.2057014C37.1486063 81.2057014 36.9247487 80.9818438 36.9247487 80.7057014 36.9247487 80.4602415 37.1016239 80.2560931 37.3348731 80.2137571L37.4247487 80.2057014 46.4548487 80.2057014zM33.5117054 80.2057014C33.7878478 80.2057014 34.0117054 80.4295591 34.0117054 80.7057014 34.0117054 80.9511613 33.8348303 81.1553098 33.6015811 81.1976458L33.5117054 81.2057014 28.0936455 81.2057014C27.8175031 81.2057014 27.5936455 80.9818438 27.5936455 80.7057014 27.5936455 80.4602415 27.7705206 80.2560931 28.0037699 80.2137571L28.0936455 80.2057014 33.5117054 80.2057014z"/>
    <ellipse cx="76.254" cy="4.517" fill="#239A98" rx="4.515" ry="4.517"/>
    <ellipse cx="15.301" cy="73.027" fill="#239A98" rx="2.258" ry="2.259"/>
    <ellipse cx="117.14" cy="22.837" fill="#239A98" rx="2.258" ry="2.259"/>
    <ellipse cx="5.769" cy="39.148" fill="#F2F2F2" rx="5.769" ry="6.023"/>
  </g>
</svg>
