<svg width="158" height="148" viewBox="0 0 158 148" fill="none" xmlns="http://www.w3.org/2000/svg">
<g id="Status=Success">
<g id="Group 101">
<g id="Success">
<path id="Fill 63" fill-rule="evenodd" clip-rule="evenodd" d="M101.23 59.5241C106.125 64.3314 109.159 71.021 109.159 78.4189C109.159 93.0545 97.2806 104.919 82.6274 104.919C67.9742 104.919 56.0956 93.0545 56.0956 78.4189C56.0956 63.7844 67.9742 51.9189 82.6274 51.9189C87.6001 51.9189 92.2537 53.286 96.231 55.662" fill="#E5CFC7"/>
<path id="Stroke-3" d="M121.321 56C127.653 56 132.838 60.9928 132.996 67.2476L133 67.5417V87C133 87.5523 132.552 88 132 88C131.487 88 131.064 87.614 131.007 87.1166L131 87V67.5417C131 62.3541 126.804 58.1473 121.596 58.0038L121.321 58H114.944C114.391 58 113.944 57.5523 113.944 57C113.944 56.4872 114.33 56.0645 114.827 56.0067L114.944 56H121.321Z" fill="#291D18"/>
<path id="Stroke-5" d="M24 79C24.5128 79 24.9355 79.386 24.9933 79.8834L25 80V108.567C25 113.686 29.1697 117.854 34.3864 117.996L34.6619 118H40.0007C40.553 118 41.0007 118.448 41.0007 119C41.0007 119.513 40.6147 119.936 40.1173 119.993L40.0007 120H34.6619C28.3214 120 23.161 115.046 23.0037 108.858L23 108.567V80C23 79.4477 23.4477 79 24 79Z" fill="#291D18"/>
<g id="Card">
<path id="Path" d="M152.814 87C155.029 87 156.884 88.8105 156.995 91.0184L157 91.2265V130.774C157 133.068 155.238 134.887 153.023 134.995L152.814 135H115.318V133H152.814C153.972 133 154.915 132.114 154.995 130.936L155 130.774V91.2265C155 90.0767 154.075 89.0894 152.966 89.0057L152.814 89H114.862V87H152.814Z" fill="#291D18"/>
<path id="Stroke-21" d="M146.4 123.12C146.952 123.12 147.4 123.568 147.4 124.12C147.4 124.633 147.014 125.056 146.517 125.113L146.4 125.12H137.28C136.728 125.12 136.28 124.672 136.28 124.12C136.28 123.607 136.666 123.185 137.163 123.127L137.28 123.12H146.4Z" fill="#291D18"/>
<path id="Fill-23" fill-rule="evenodd" clip-rule="evenodd" d="M134.544 124.12C134.544 124.667 134.179 125.032 133.632 125.032C133.085 125.032 132.72 124.667 132.72 124.12C132.72 123.573 133.085 123.208 133.632 123.208C134.179 123.208 134.544 123.664 134.544 124.12Z" fill="#291D18"/>
<path id="Fill-25" fill-rule="evenodd" clip-rule="evenodd" d="M129.984 124.12C129.984 124.667 129.619 125.032 129.072 125.032C128.525 125.032 128.16 124.667 128.16 124.12C128.16 123.573 128.525 123.208 129.072 123.208C129.528 123.208 129.984 123.664 129.984 124.12Z" fill="#291D18"/>
<path id="Stroke-13" d="M155 104V106H115V104H155Z" fill="#291D18"/>
<path id="Stroke-13 Copy" d="M155 96V98H115V96H155Z" fill="#291D18"/>
</g>
<g id="Euro">
<path id="Path_2" d="M25 32C30.4904 32 35.701 33.8538 39.9087 37.1953L40.2884 37.5032L39.0133 39.0439C35.0968 35.8027 30.1868 34 25 34C12.8563 34 3 43.8563 3 56C3 68.1437 12.8563 78 25 78C30.2439 78 35.2024 76.1567 39.1325 72.8567L39.487 72.5527L40.8049 74.057C36.4594 77.864 30.8925 80 25 80C11.7517 80 1 69.2483 1 56C1 42.7517 11.7517 32 25 32Z" fill="#291D18"/>
<path id="Fill-31" d="M26.3522 46.6034C21.9857 46.7276 18.3592 49.8738 17.6484 54.0367L17.623 54.1946L16.5639 54.1954C16.0644 54.1954 15.694 54.5518 15.694 55.0475L15.7004 55.1593C15.7517 55.5959 16.1028 55.8996 16.5639 55.8996L17.585 55.8986L17.5975 56.1166C17.613 56.3318 17.6357 56.5549 17.6644 56.7814L17.694 56.9976L16.4699 56.9985C15.9704 56.9985 15.6 57.355 15.6 57.8507L15.6064 57.9625C15.6577 58.3991 16.0088 58.7028 16.4699 58.7028L18.161 58.7026L18.2551 58.9402C19.5961 62.1998 22.9113 64.3996 26.6204 64.3996C28.1539 64.3996 29.6304 64.0384 30.9398 63.3601C31.3234 63.1757 31.496 62.5671 31.2987 62.1875C31.1019 61.8087 30.4911 61.6485 30.1125 61.8306C29.0598 62.4205 27.9171 62.6954 26.6204 62.6954L26.3503 62.6903C23.7469 62.593 21.3876 61.0966 20.184 58.8679L20.098 58.7026L25.2106 58.7028C25.7101 58.7028 26.0805 58.3464 26.0805 57.8507L26.0741 57.7388C26.0228 57.3022 25.6717 56.9985 25.2106 56.9985L19.5 56.9976L19.4978 56.9866C19.424 56.6887 19.3725 56.3911 19.343 56.0939L19.328 55.8986L25.1166 55.8996C25.6161 55.8996 25.9866 55.5432 25.9866 55.0475L25.9801 54.9357C25.9288 54.499 25.5777 54.1954 25.1166 54.1954L19.38 54.1946L19.3858 54.1684C20.0369 50.7962 23.0547 48.3039 26.6204 48.3039C27.7844 48.3039 28.9338 48.6016 30.1125 49.1686C30.5567 49.457 31.1377 49.2893 31.3217 48.7582C31.5182 48.3893 31.4034 47.7819 30.8779 47.6134C29.5254 46.9585 28.0581 46.5996 26.6204 46.5996L26.3522 46.6034Z" fill="#291D18"/>
</g>
<path id="Fill-69" fill-rule="evenodd" clip-rule="evenodd" d="M28 104C28 106.222 26.2222 108 24 108C21.7778 108 20 106.222 20 104C20 101.778 21.7778 100 24 100C26.2222 100 28 101.778 28 104Z" fill="#291D18"/>
<path id="Fill-71" fill-rule="evenodd" clip-rule="evenodd" d="M126 61C126 58.7778 127.778 57 130 57C132.222 57 134 58.7778 134 61C134 63.2222 132.222 65 130 65C127.778 65 126 63.2222 126 61Z" fill="#291D18"/>
</g>
<g id="Mobile">
<path id="Stroke 57" fill-rule="evenodd" clip-rule="evenodd" d="M115.996 13.4407C115.835 6.56966 110.309 1 103.576 1H51.4237L51.123 1.00371C44.4264 1.16902 39 6.84028 39 13.7492V134.251L39.0036 134.559C39.1647 141.43 44.6901 147 51.4237 147H103.576L103.877 146.996C110.573 146.831 116 141.16 116 134.251V13.7492L115.996 13.4407ZM51.4237 3H103.576L103.857 3.00388C109.446 3.15866 114 7.92735 114 13.7492V134.251L113.996 134.541C113.845 140.327 109.199 145 103.576 145H51.4237L51.1433 144.996C45.5533 144.841 41 140.073 41 134.251V13.7492L41.0038 13.459C41.1546 7.67286 45.8001 3 51.4237 3Z" fill="#291D18"/>
<path id="Fill 59" fill-rule="evenodd" clip-rule="evenodd" d="M80.5 125.465C80.5 127.122 79.1569 128.465 77.4996 128.465C75.8431 128.465 74.5 127.122 74.5 125.465C74.5 123.808 75.8431 122.465 77.4996 122.465C79.1569 122.465 80.5 123.808 80.5 125.465Z" fill="#291D18"/>
<g id="Tick">
<path id="Stroke 65" d="M77.5 47C82.3506 47 87.0136 48.3067 91.0878 50.7436C91.5618 51.0271 91.7162 51.6412 91.4327 52.1151C91.1492 52.5891 90.5352 52.7435 90.0612 52.46C86.2951 50.2074 81.9865 49 77.5 49C63.9693 49 53 59.9696 53 73.5C53 87.031 63.969 98 77.5 98C91.031 98 102 87.031 102 73.5C102 66.8401 99.3326 60.6077 94.6782 56.0312C94.2844 55.644 94.2791 55.0108 94.6663 54.617C95.0535 54.2232 95.6866 54.2179 96.0805 54.6051C101.113 59.5538 104 66.2984 104 73.5C104 88.1356 92.1356 100 77.5 100C62.8644 100 51 88.1356 51 73.5C51 58.8651 62.8648 47 77.5 47Z" fill="#291D18"/>
</g>
<path id="Stroke 67" d="M88.8716 60.1806C89.1554 59.7068 89.7695 59.5528 90.2433 59.8366C90.6833 60.1001 90.8475 60.6485 90.6415 61.1048L90.5873 61.2083L75.9371 85.6672C75.6231 86.1915 74.9249 86.3072 74.46 85.9387L74.3703 85.8586L64.5617 75.9987C64.1722 75.6072 64.1738 74.974 64.5654 74.5845C64.9268 74.225 65.4941 74.1987 65.8856 74.5048L65.9796 74.5882L74.882 83.5364L88.8716 60.1806Z" fill="#291D18"/>
<path id="Stroke 61" d="M101 18.9297C101.552 18.9297 102 19.3774 102 19.9297C102 20.4425 101.614 20.8652 101.117 20.923L101 20.9297H54C53.4477 20.9297 53 20.482 53 19.9297C53 19.4169 53.386 18.9942 53.8834 18.9364L54 18.9297H101Z" fill="#291D18"/>
</g>
</g>
</g>
</svg>
