<svg width="64" height="64" viewBox="0 0 64 64" fill="none" xmlns="http://www.w3.org/2000/svg">
<path fill-rule="evenodd" clip-rule="evenodd" d="M52.7268 1.30066C52.7268 1.30066 44.3422 0 31.9999 0C19.6572 0 11.2719 1.30066 11.2719 1.30066C5.98933 1.93772 1.91742 6.09662 1.27645 11.3777C1.27599 11.3785 0 20.7992 0 31.9995C0 43.2005 1.27599 52.6206 1.27645 52.6217C1.91742 57.9031 5.98933 62.0612 11.2719 62.6992C11.2719 62.6992 19.6572 64 31.9999 64C44.3422 64 52.7268 62.6992 52.7268 62.6992C58.0105 62.0612 62.0821 57.9031 62.7234 52.6217C62.7234 52.6206 64 43.2005 64 31.9995C64 20.7992 62.7234 11.3785 62.7234 11.3777C62.0821 6.09662 58.0105 1.93772 52.7268 1.30066Z" fill="#FDD671"/>
</svg>
