<?xml version="1.0" encoding="UTF-8"?>
<svg width="86px" height="42px" viewBox="0 0 86 42" version="1.1" xmlns="http://www.w3.org/2000/svg" xmlns:xlink="http://www.w3.org/1999/xlink">
    <title>EASYSWITCH</title>
    <desc>Created with Sketch.</desc>
    <g id="Move-to-Wigo-desktop" stroke="none" stroke-width="1" fill="none" fill-rule="evenodd">
        <g id="04.07-Change-Bundle---Desktop---TV---Easy-Switch-Zelf-doen" transform="translate(-835.000000, -796.000000)" fill="#8C8D8E" fill-rule="nonzero">
            <g id="Choice-Component-1-Copy-2" transform="translate(808.000000, 748.000000)">
                <path d="M45.3793103,67 L52.7980296,67 C54.1576355,67 55,66.1162791 55,64.9085271 C55,63.7007752 54.1576355,62.8317829 52.7980296,62.8317829 L47.8029557,62.8317829 L47.8029557,59.3116279 L51.8669951,59.3116279 C53.226601,59.3116279 54.0689655,58.4131783 54.0689655,57.2054248 C54.0689655,56.0124031 53.226601,55.1286822 51.8669951,55.1286822 L47.8029557,55.1286822 L47.8029557,52.1682171 L52.2955665,52.1682171 C53.6403941,52.1682171 54.4975369,51.2844961 54.4975369,50.0620155 C54.4975369,48.8689922 53.6551724,48 52.2955665,48 L45.3793103,48 C44.0197044,48 43,48.8689922 43,50.0620155 L43,64.9085271 C43,66.1162791 44.0197044,67 45.3793103,67 Z M58.3296703,67 C59.4432234,67 60.2637363,66.4550388 60.6886447,65.1883721 C60.8791209,64.6286822 61.0695971,63.9511628 61.2893773,63.2 L66.7106227,63.2 L67.021978,64.2659884 C67.1208791,64.5992248 67.2161172,64.9085271 67.3113553,65.1883721 C67.7362637,66.4550388 68.5567766,67 69.6703297,67 C70.9450549,67 72,65.9395349 72,64.6139535 C72,64.3825028 71.9700979,64.1961399 71.9049541,63.958248 L71.70155,63.2884062 C71.0812983,61.3254683 68.1074481,52.4112403 66.5494505,49.251938 C66.1245421,48.3976744 65.2600733,48 64.029304,48 C62.7985348,48 61.8754579,48.3829457 61.4505495,49.251938 C59.6043956,53.0077519 56.5714286,62.4341085 56.1904762,63.6418605 L56.0950459,63.958248 C56.0299021,64.1961399 56,64.3825028 56,64.6139535 C56,65.9395349 57.0549451,67 58.3296703,67 Z M62,59 C62.4692737,57.6969697 62.9888268,56.2878788 63.5083799,55 C64.027933,56.3181818 64.5307263,57.6969697 65,59 L62,59 Z M78.2167431,67 C82.1972477,67 85,64.6105183 85,61.1783537 C85,54.9512195 77.3222477,55.5304878 77.3222477,53.3292683 C77.3222477,52.6341463 77.9334862,52.0983232 78.7534404,52.0983232 C79.3944954,52.0983232 79.9461009,52.3879573 80.7362385,52.9672256 C81.1983945,53.3003049 81.809633,53.4885671 82.3463303,53.4885671 C83.5688073,53.4885671 84.5527523,52.5327744 84.5527523,51.3307927 C84.5527523,50.6356707 84.2247706,50.0419207 83.5986239,49.5640244 C82.2419725,48.5358232 80.4678899,48 78.7534404,48 C75.190367,48 72.4025229,50.3025915 72.4025229,53.3292683 C72.4025229,59.2957317 80.0802752,58.933689 80.0802752,61.1783537 C80.0802752,62.2644817 79.3944954,62.9016768 78.2167431,62.9016768 C77.4598624,62.9016768 76.8951129,62.5491458 76.314763,62.1336058 L75.9954128,61.902439 C75.5630734,61.5838415 74.9518349,61.2073171 74.2511468,61.2073171 C72.9541284,61.2073171 72,62.2644817 72,63.3940549 C72,64.0167683 72.3876147,64.6684451 72.9988532,65.1463415 C74.5194954,66.3338415 76.293578,67 78.2167431,67 Z M92.0073762,67 C93.3498419,67 94.3972603,66.0868217 94.3972603,64.8790698 L94.3972603,59.6651163 C94.5152792,59.5325581 94.6185458,59.4147287 94.6923077,59.2968992 C96.1970495,56.9550388 97.8788198,53.4348837 98.5869336,51.8 L98.6985579,51.521832 C98.8393631,51.15412 99,50.6577089 99,50.2682171 C99,49.0751938 98.085353,48 96.6986301,48 C95.5945316,48 94.9008841,48.7667075 94.5173397,49.611338 L93.936847,50.9768037 C93.4060439,52.2055739 92.9315688,53.2139535 92.0516333,54.9372093 L91.6745202,54.1986929 C90.7436527,52.3477656 89.7762276,50.2340465 89.4257113,49.4434109 C89.0126449,48.5302326 88.3487882,48 87.1981033,48 C85.9736565,48 85,49.0751938 85,50.2682171 C85,50.7930937 85.2574959,51.4426164 85.5114451,52.0014875 L86.3825985,53.8778196 C87.0318383,55.2605755 88.0846076,57.399503 89.1737362,59.0202982 L89.3224447,59.2379845 C89.4404636,59.4147287 89.5289779,59.5325581 89.6174921,59.6356589 L89.6174921,64.8790698 C89.6174921,66.0868217 90.6649104,67 92.0073762,67 Z M33.2167431,90 C37.1972477,90 40,87.6105183 40,84.1783537 C40,77.9512195 32.3222477,78.5304878 32.3222477,76.3292683 C32.3222477,75.6341463 32.9334862,75.0983232 33.7534404,75.0983232 C34.3944954,75.0983232 34.9461009,75.3879573 35.7362385,75.9672256 C36.1983945,76.3003049 36.809633,76.4885671 37.3463303,76.4885671 C38.5688073,76.4885671 39.5527523,75.5327744 39.5527523,74.3307927 C39.5527523,73.6356707 39.2247706,73.0419207 38.5986239,72.5640244 C37.2419725,71.5358232 35.4678899,71 33.7534404,71 C30.190367,71 27.4025229,73.3025915 27.4025229,76.3292683 C27.4025229,82.2957317 35.0802752,81.933689 35.0802752,84.1783537 C35.0802752,85.2644817 34.3944954,85.9016768 33.2167431,85.9016768 C32.4598624,85.9016768 31.8951129,85.5491458 31.314763,85.1336058 L30.9954128,84.902439 C30.5630734,84.5838415 29.9518349,84.2073171 29.2511468,84.2073171 C27.9541284,84.2073171 27,85.2644817 27,86.3940549 C27,87.0167683 27.3876147,87.6684451 27.9988532,88.1463415 C29.5194954,89.3338415 31.293578,90 33.2167431,90 Z M46.4767049,90 C47.3531398,90 47.9621877,89.7790698 48.4672519,89.2930233 C49.1208643,88.6744186 49.8933153,86.155814 50.9925726,82.0612403 L51.2779705,83.1090074 C52.241676,86.5925907 53.0045279,88.7692886 53.5327481,89.2930233 C53.9932478,89.7496124 54.5725861,90 55.5084402,90 C56.8156651,90 57.7218096,89.4697674 58.1525996,88.7333333 C58.951975,87.3746124 60.6183979,80.0303379 61.3559058,76.5403157 L61.7277539,74.7276134 C61.8995814,73.9120241 62,73.558863 62,73.1503876 C62,71.927907 60.9750169,71 59.5489534,71 C58.286293,71 57.3950034,71.603876 57.1573261,72.6643411 L56.3963803,76.4588562 C56.1190801,77.8089797 55.7903011,79.3609819 55.4490209,80.8534884 L54.7438497,78.0058716 C54.3251319,76.2982677 53.9274621,74.6358804 53.6218771,73.2534884 C53.3396354,72.0015504 52.2849426,71.4271318 50.9925726,71.4271318 C49.7299122,71.4271318 48.6900743,72.0015504 48.3929777,73.2387597 L48.156773,74.2246367 C47.6708512,76.2695618 47.1069741,78.7241417 46.5212694,81.0596899 L46.2620073,79.865272 C46.0931975,79.0779848 45.9335147,78.3152199 45.7893414,77.6162129 L45.1100608,74.2403101 C45.0506415,73.9457364 44.8872384,73.0472868 44.8129642,72.7821705 C44.486158,71.5007752 43.6394328,71 42.4064821,71 C41.0695476,71 40,71.8248062 40,72.9294574 C40,73.3043693 40.0721871,73.7329618 40.1821084,74.2645775 L41.0489782,78.3818964 C41.8157448,81.9602619 43.0477155,87.3457687 43.8474004,88.7333333 C44.3079001,89.5286822 45.3031735,90 46.4767049,90 Z M65.5,90 C66.904321,90 68,89.0868217 68,87.8790698 L68,73.0914729 C68,71.8984496 66.9197531,71 65.5,71 C64.0802469,71 63,71.8984496 63,73.0914729 L63,87.8790698 C63,89.0868217 64.095679,90 65.5,90 Z M75.4547284,90 C76.8279678,90 77.9144869,89.0868217 77.9144869,87.8790698 L77.9144869,75.1682171 L80.5855131,75.1682171 C81.9587525,75.1682171 83,74.2844961 83,73.0620155 C83,71.8689922 81.9587525,71 80.5855131,71 L70.4144869,71 C69.0412475,71 68,71.8689922 68,73.0620155 C68,74.2844961 69.0412475,75.1682171 70.4144869,75.1682171 L73.0100604,75.1682171 L73.0100604,87.8790698 C73.0100604,89.0868217 74.0814889,90 75.4547284,90 Z M90.9473684,90 C92.8270677,90 94.8571429,89.4641768 96.556391,88.6097561 C97.3383459,88.21875 97.8195489,87.4801829 97.8195489,86.6547256 C97.8195489,85.4672256 96.8421053,84.5259146 95.6090226,84.5259146 C94.9473684,84.5259146 94.3609023,84.8300305 94.0902256,85.003811 C92.9022556,85.6265244 91.9398496,85.9016768 90.9473684,85.9016768 C88.7067669,85.9016768 86.962406,83.5990854 86.962406,80.5144817 C86.962406,77.4443598 88.8270677,75.0983232 91.1879699,75.0983232 C92.6182122,75.0983232 93.4306136,75.4530356 93.9103314,75.7454509 L94.075188,75.851372 C94.5263158,76.1554878 95.0827068,76.4306394 95.7894737,76.4306394 C97.0676692,76.4306394 98,75.4169207 98,74.2873476 C98,73.6356707 97.6842105,73.0998476 97.0375915,72.5929878 L96.9031804,72.4944779 C96.1825898,71.9965989 94.1634085,71 91.1879699,71 C85.9699248,71 82,75.1128049 82,80.5144817 C82,85.9306402 85.8195489,90 90.9473684,90 Z M101.372385,90 C100.039749,90 99,89.0868217 99,87.8790698 L99,73.0914729 C99,71.8984496 100.039749,71 101.372385,71 C102.719665,71 103.759414,71.8984496 103.759414,73.0914729 L103.759414,77.9813953 L108.240586,77.9813953 L108.240586,73.0914729 C108.240586,71.8984496 109.280335,71 110.627615,71 C111.960251,71 113,71.8984496 113,73.0914729 L113,87.8790698 C113,89.0868217 111.960251,90 110.627615,90 C109.294979,90 108.240586,89.0868217 108.240586,87.8790698 L108.240586,82.1643411 L103.759414,82.1643411 L103.759414,87.8790698 C103.759414,89.0868217 102.705021,90 101.372385,90 Z" id="EASYSWITCH"></path>
            </g>
        </g>
    </g>
</svg>