<svg xmlns="http://www.w3.org/2000/svg" width="90" height="40"><path fill="#ffff" fill-rule="evenodd" d="M90 0v40H0V0h90zm-3.456 3.48H3.456v33.04h83.088V3.48zm-31.23 6.572c3.841 0 6.868 2.195 6.868 5.594 0 .24-.015.921-.015.921h-4.55v-.676c0-1.078-.738-2.177-2.304-2.177-1.604 0-2.199 1.078-2.199 1.901 0 1.318.948 1.956 2.381 2.237 5.918 1.15 7.05 2.687 7.05 5.987 0 3.51-3.188 5.872-7.232 5.872-4.917 0-7.229-2.372-7.155-5.785.003-.149-.004-.751-.004-.751h4.92v.787c0 .9.497 1.977 2.24 1.977 1.468 0 2.21-.86 2.21-2.008 0-1.323-.956-1.858-2.39-2.089-5.256-.86-6.68-2.992-6.68-6.077 0-3.222 3.025-5.713 6.86-5.713zm24.233.42v3.744h-7.459v3.587h7.265v3.442h-7.265v4.313h7.46v3.716H67.372V10.47h12.174zm-43.382-.407c3.888 0 7.16 2.246 7.16 7.756v11.453h-4.73V22.85H33.85v6.423h-4.823V17.82c0-5.51 3.245-7.756 7.137-7.756zm-17.855.406c3.574 0 5.937 2.34 5.937 5.188 0 1.297-1.15 3.04-2.149 3.554v.026c1.987.87 2.808 2.433 2.808 4.198 0 3.5-2.749 5.837-6.867 5.837h-7.586V10.47zm-.457 10.67h-2.71v4.7h2.71c1.556 0 2.49-.973 2.49-2.352 0-1.6-1.113-2.347-2.49-2.347zm18.312-7.265c-1.259 0-2.314.723-2.314 2.753v2.617h4.744V16.63c0-2.03-1.15-2.753-2.43-2.753zm-18.177.062h-2.845V17.9h2.845c.922 0 1.702-.865 1.702-1.985 0-1.163-.78-1.978-1.702-1.978z"/></svg>