<svg width="218" height="123" xmlns="http://www.w3.org/2000/svg"><g fill="none" fill-rule="evenodd"><path d="M100.852 53.5a3.5 3.5 0 013.495 3.308l.005.192v11.446h-5V58.5H5.5v59h33.014V101h-21.5v-5h21.5V78h-21.5v-5h41.5v5h-15v39.5h30.332L99.5 101.365V89.732h5v12.463a3.5 3.5 0 01-1.461 2.844l-.176.118-26.721 16.806a3.5 3.5 0 01-1.617.528l-.246.009H4a3.5 3.5 0 01-3.495-3.308L.5 119V57a3.5 3.5 0 013.308-3.495L4 53.5h96.852z" fill="#979797" fill-rule="nonzero"/><text font-family="AkagiPro-Medium, Akagi Pro" font-size="6" font-weight="400"><tspan x="66" y="71" fill="#979797">8932</tspan> <tspan x="66" y="77" fill="#979797">03</tspan> <tspan x="72.42" y="77" fill="#009793">00</tspan> <tspan x="66" y="83" fill="#009793">6429</tspan> <tspan x="66" y="89" fill="#009793">2806</tspan> <tspan x="66" y="95" fill="#009793">8691</tspan> <tspan x="66" y="101" fill="#009793">L205</tspan></text><path d="M210.372.104c4.367 0 6.779 2.548 6.779 7.28 0 4.975-2.26 7.22-6.779 7.22l.128-.001V78a2.5 2.5 0 01-2.336 2.495L208 80.5H91.5V83h-8v-8h8v2.5h116V14.595c-4.095-.16-6.35-2.636-6.35-7.211 0-4.975 2.26-7.28 6.78-7.28zM89.5 77h-4v4h4v-4zM210.372 2.11h-2.443c-1.706 0-2.886.373-3.61 1.14-.762.809-1.148 2.2-1.148 4.134 0 1.817.405 3.166 1.203 4.01.756.798 1.952 1.203 3.555 1.203h2.443c1.716 0 2.9-.366 3.618-1.119.757-.792 1.14-2.17 1.14-4.094 0-4.727-2.715-5.273-4.758-5.273zm-.1 5.493v3.456h-2.402V7.603h2.402zm-1.201-4.06c.792 0 1.461.667 1.461 1.456 0 .79-.67 1.456-1.461 1.456a1.46 1.46 0 01-1.461-1.456 1.46 1.46 0 011.46-1.455z" fill="#239A98" fill-rule="nonzero"/></g></svg>