<svg viewBox="0 0 410 411" xmlns="http://www.w3.org/2000/svg" xmlns:xlink="http://www.w3.org/1999/xlink"><defs><path id="a" d="M0 .216h409.785V410H0z"/></defs><g fill="none" fill-rule="evenodd"><g transform="translate(0 .784)"><mask id="b" fill="#fff"><use xlink:href="#a"/></mask><path d="M347.264 300.666c-2.969 24.479-21.84 43.746-46.32 46.705 0 0-38.86 6.024-96.053 6.024-57.197 0-96.053-6.024-96.053-6.024-24.478-2.959-43.346-22.226-46.32-46.705 0-.006-5.913-43.656-5.913-95.562s5.912-95.555 5.912-95.562c2.975-24.473 21.843-43.74 46.321-46.693 0 0 38.856-6.03 96.053-6.03 57.193 0 96.053 6.03 96.053 6.03 24.48 2.953 43.351 22.22 46.32 46.693 0 .007 5.922 43.656 5.922 95.562s-5.922 95.556-5.922 95.562m54.347-227.601c-4.106-33.814-30.176-60.442-64.007-64.522 0 0-53.686-8.327-132.713-8.327-79.028 0-132.718 8.327-132.718 8.327-33.824 4.08-59.896 30.708-64 64.522C8.17 73.071 0 133.391 0 205.104c0 71.719 8.17 132.036 8.173 132.042 4.104 33.817 30.176 60.44 64 64.526 0 0 53.69 8.328 132.718 8.328 79.027 0 132.713-8.328 132.713-8.328 33.831-4.086 59.901-30.709 64.007-64.526 0-.006 8.174-60.323 8.174-132.042 0-71.713-8.174-132.033-8.174-132.039" fill="#FEFEFE" mask="url(#b)"/></g><path d="M226.706 167.54c8.938-1.272 17.68-1.826 28.118-1.634 10.104.217 20.76 1.19 30.2 2.929 0 0 3.089.737 3.089-2.562v-21.291c0-1.952-2.476-2.564-2.476-2.564-10.346-2.716-20.6-4.234-30.74-4.452-9.551-.168-19.07.778-28.573 2.85 0 0-2.365.734-2.365 2.822v21.059c0 3.909 2.747 2.844 2.747 2.844m-74.419 13.024s31.957-.038 31.957-26.853c0-26.796-31.957-26.835-31.957-26.835s-31.957.04-31.957 26.835c0 26.815 31.957 26.853 31.957 26.853m138.291 54.088c-11.097 6.976-43.504 24.747-85.54 24.747-42.036 0-74.437-17.77-85.538-24.747 0 0-4.15-2.94-4.15 2.523v10.913c0 3.276 3.654 6.732 3.654 6.732 10.953 8.553 45.246 32.51 86.035 32.53 40.785-.02 75.062-23.977 86.035-32.53 0 0 3.652-3.456 3.652-6.732v-10.913c0-5.463-4.148-2.523-4.148-2.523" fill="#FEFEFE"/></g></svg>