<svg width="144" height="118" xmlns="http://www.w3.org/2000/svg"><defs><filter x="-27.5%" y="-27.7%" width="155.1%" height="155.3%" filterUnits="objectBoundingBox" id="a"><feGaussianBlur stdDeviation=".7" in="SourceGraphic"/></filter></defs><g transform="translate(2)" fill="none" fill-rule="evenodd"><g stroke="#575756" stroke-width="2"><path d="M19.593 70.02l7.513 4.337a1.5 1.5 0 002.049-.55l.864-1.497 29.773-51.567.748-1.296a1.496 1.496 0 00-.548-2.043l-7.516-4.34a1.5 1.5 0 00-2.049.55L19.044 67.97a1.5 1.5 0 00.55 2.05zm9.552 3.804l30.91-53.536M29.97 49.046l10.392 6M40.216 31.3l10.392 6"/><path d="M34.858 40.58c-9.898-8.054-14.018-14.667-12.36-19.84 2.49-7.758 10.647-7.383 14.525-1.617 2.585 3.844 1.658 10.972-2.78 21.384m.37.497c-11.924-4.545-19.711-4.806-23.361-.783-5.475 6.034-1.071 12.911 5.862 13.386 4.621.317 10.33-4.05 17.128-13.1"/></g><ellipse fill="#FDC400" fill-rule="nonzero" filter="url(#a)" cx="126.813" cy="107.797" rx="3.813" ry="3.797"/><ellipse fill="#239A98" cx="85.813" cy="3.797" rx="3.813" ry="3.797"/><rect stroke="#575756" stroke-width="2" x="52" y="51" width="60" height="40" rx="2"/><ellipse fill="#F5B0A3" cx="134.375" cy="29.254" rx="7.625" ry="7.593"/><ellipse fill="#F5B0A3" fill-rule="nonzero" cx="25.719" cy="111.831" rx="5.719" ry="5.695"/><path stroke="#575756" stroke-width="2" d="M71.953 51.458v40m20.492-40v40"/></g></svg>