<svg width="64" height="62" xmlns="http://www.w3.org/2000/svg"><defs><filter x="-52.5%" y="-52.5%" width="205%" height="205%" filterUnits="objectBoundingBox" id="a"><feGaussianBlur stdDeviation=".7" in="SourceGraphic"/></filter></defs><g transform="translate(0 3)" fill="none" fill-rule="evenodd"><path d="M15.188 23.5v3.803c0 .468.379.847.847.847h.734c.062 0 .113.05.113.112V45.5a1.5 1.5 0 001.5 1.5h28.236a1.5 1.5 0 001.5-1.5V28.262c0-.062.05-.112.113-.112h.672a.785.785 0 00.785-.785V23.5a1.5 1.5 0 00-1.5-1.5h-31.5a1.5 1.5 0 00-1.5 1.5zm.776 4.65h32.43M27.438 22v25m10.75-25v25m-5.622-25c1.063-6.637 2.987-10.259 5.772-10.864 4.177-.908 6.146 2.912 4.544 6.2-1.069 2.192-4.55 3.647-10.444 4.364m-.128.3c-1.064-6.637-2.988-10.259-5.773-10.864-4.177-.908-6.146 2.912-4.544 6.2 1.069 2.192 4.55 3.647 10.444 4.364" stroke="#575756" stroke-width="1.5"/><circle fill="#F5B0A3" cx="60" cy="27" r="4"/><circle fill="#F5B0A3" fill-rule="nonzero" cx="3" cy="41" r="3"/><circle fill="#FDC400" fill-rule="nonzero" filter="url(#a)" cx="41" cy="2" r="2"/><circle fill="#239A98" cx="22" cy="57" r="2"/></g></svg>