<svg xmlns="http://www.w3.org/2000/svg" width="24" height="24" fill="none"><path fill="#291D18" d="M16.988 16.879H15.03v-4.267h1.958z"/><path fill="#291D18" d="M12.013 0c3.29 0 6.143 1.169 8.48 3.506C22.805 5.844 24 8.698 24 11.986c0 3.316-1.196 6.143-3.506 8.507Q16.946 24 12.014 24c-3.316 0-6.143-1.169-8.508-3.507C1.17 18.13 0 15.303 0 11.986c0-3.288 1.169-6.142 3.506-8.48C5.871 1.17 8.698 0 12.013 0m3.017 6.85h1.958v2.01h2.364V5.926l-1.305-1.304h-4.104L12.64 5.925v11.77l1.304 1.304h4.104l1.305-1.277v-6.116l-1.305-1.223h-2.255l-.762.788zm-4.076-2.23H8.997L7.91 7.122l-.11.57-.108-.57-1.169-2.5H4.675v6.333H6.17V7.149c.054.488.136.842.217 1.06l1.414 2.745 1.413-2.745c.109-.272.217-.599.272-1.06l-.055 3.805h1.523zM9.43 14.026h1.523V13.1L9.92 12.096H5.68L4.675 13.1v4.866l1.006 1.033h4.24l1.033-1.033v-3.044h-3.37v1.359H9.43v1.25H6.17v-4.05h3.261z"/></svg>