<svg xmlns="http://www.w3.org/2000/svg" width="50" height="50" viewBox="0 0 50 50">
  <g fill="none" fill-rule="evenodd">
    <path fill="#239A98" d="M12.819426,-5.17920154e-16 L37.180574,5.17920154e-16 C41.6381677,-3.00926524e-16 43.2545989,0.464128056 44.8842285,1.33566352 C46.5138581,2.20719898 47.792801,3.48614185 48.6643365,5.11577148 C49.5358719,6.74540111 50,8.3618323 50,12.819426 L50,37.180574 C50,41.6381677 49.5358719,43.2545989 48.6643365,44.8842285 C47.792801,46.5138581 46.5138581,47.792801 44.8842285,48.6643365 C43.2545989,49.5358719 41.6381677,50 37.180574,50 L12.819426,50 C8.3618323,50 6.74540111,49.5358719 5.11577148,48.6643365 C3.48614185,47.792801 2.20719898,46.5138581 1.33566352,44.8842285 C0.464128056,43.2545989 2.00617683e-16,41.6381677 -3.45280103e-16,37.180574 L3.45280103e-16,12.819426 C-2.00617683e-16,8.3618323 0.464128056,6.74540111 1.33566352,5.11577148 C2.20719898,3.48614185 3.48614185,2.20719898 5.11577148,1.33566352 C6.74540111,0.464128056 8.3618323,3.00926524e-16 12.819426,-5.17920154e-16 Z"/>
    <path fill="#FFF" fill-rule="nonzero" d="M18.9993128,18.5 C19.5515976,18.5 19.9993128,18.9477153 19.999413,19.5000014 C19.9993128,20.0128358 19.6132726,20.4355072 19.1159339,20.4932723 L18.9993128,20.5 L4.99931281,20.5 C4.44702806,20.5 3.99931281,20.0522847 3.9992126,19.4999986 C3.99931281,18.9871642 4.385353,18.5644928 4.88269168,18.5067277 L4.99931281,18.5 L18.9993128,18.5 Z M19.5,3 C20.8807119,3 22,4.11928813 22,5.5 L22,5.5 L22,14.5 C22,15.8807119 20.8807119,17 19.5,17 L19.5,17 L4.5,17 C3.11928813,17 2,15.8807119 2,14.5 L2,14.5 L2,5.5 C2,4.11928813 3.11928813,3 4.5,3 L4.5,3 Z M19.5,5 L4.5,5 C4.22385763,5 4,5.22385763 4,5.5 L4,5.5 L4,14.5 C4,14.7761424 4.22385763,15 4.5,15 L4.5,15 L19.5,15 C19.7761424,15 20,14.7761424 20,14.5 L20,14.5 L20,5.5 C20,5.22385763 19.7761424,5 19.5,5 L19.5,5 Z M12,12 C12.5522847,12 13,12.4477153 13,13 C13,13.5522847 12.5522847,14 12,14 C11.4477153,14 11,13.5522847 11,13 C11,12.4477153 11.4477153,12 12,12 Z" transform="translate(13 13)"/>
  </g>
</svg>
