<svg width="140" height="32" viewBox="0 0 140 32" fill="none" xmlns="http://www.w3.org/2000/svg">
<path fill-rule="evenodd" clip-rule="evenodd" d="M27.1291 23.3752C26.8974 25.2791 25.4227 26.7782 23.5104 27.0082C23.5104 27.0082 20.4748 27.4773 16.0069 27.4773C11.5384 27.4773 8.50278 27.0082 8.50278 27.0082C6.59076 26.7782 5.11667 25.2791 4.8841 23.3752C4.8841 23.3752 4.42197 19.9782 4.42197 15.9402C4.42197 11.9022 4.8841 8.50585 4.8841 8.50585C5.11667 6.60157 6.59076 5.10254 8.50278 4.87282C8.50278 4.87282 11.5384 4.40345 16.0069 4.40345C20.4748 4.40345 23.5104 4.87282 23.5104 4.87282C25.4227 5.10254 26.8974 6.60157 27.1291 8.50525C27.1291 8.50525 27.5915 11.9022 27.5915 15.9402C27.5915 19.9422 27.1373 23.3142 27.1292 23.3743L27.1292 23.3744L27.1292 23.3744L27.1291 23.3752ZM31.375 5.66767C31.0541 3.03691 29.0172 0.965535 26.3744 0.647905C26.3744 0.647905 22.1805 0 16.0069 0C9.83288 0 5.63836 0.647905 5.63836 0.647905C2.99626 0.965535 0.959335 3.03691 0.638448 5.66767C0.638145 5.66797 0 10.3608 0 15.9402C0 21.5197 0.638145 26.2125 0.638448 26.2128C0.959335 28.8444 2.99626 30.9149 5.63836 31.2328C5.63836 31.2328 9.83288 31.8807 16.0069 31.8807C22.1805 31.8807 26.3744 31.2328 26.3744 31.2328C29.0172 30.9149 31.0541 28.8444 31.375 26.2128C31.375 26.2128 32.0137 21.5197 32.0137 15.9402C32.0137 10.4014 31.3842 5.73643 31.3751 5.66842L31.375 5.66767ZM22.5476 12.858V11.2021C22.5476 11.05 22.3534 11.0022 22.3534 11.0022C21.5444 10.7908 20.7417 10.6731 19.9481 10.6559C19.2011 10.643 18.4559 10.7167 17.7122 10.8778C17.7122 10.8778 17.5271 10.9347 17.5271 11.0973V12.7354C17.5271 13.0398 17.7418 12.9567 17.7418 12.9567C18.4414 12.8577 19.1261 12.8146 19.9421 12.8294C20.7332 12.8465 21.5671 12.9221 22.3059 13.0576C22.3059 13.0576 22.5476 13.1151 22.5476 12.858ZM11.9177 9.79317C11.9177 9.79317 14.4186 9.79618 14.4186 11.8808C14.4186 13.9669 11.9177 13.9699 11.9177 13.9699C11.9177 13.9699 9.41688 13.9669 9.41688 11.8808C9.41688 9.79618 11.9177 9.79317 11.9177 9.79317ZM16.0463 22.2778C12.8544 22.2763 10.1699 20.4123 9.31313 19.747C9.31313 19.747 9.02732 19.4781 9.02732 19.2231V18.3744C9.02732 17.9493 9.35214 18.1784 9.35214 18.1784C10.2204 18.7209 12.7567 20.1034 16.0463 20.1034C19.3356 20.1034 21.8719 18.7209 22.7405 18.1784C22.7405 18.1784 23.065 17.9493 23.065 18.3744V19.2231C23.065 19.4781 22.7792 19.747 22.7792 19.747C21.9206 20.4123 19.2383 22.2763 16.0463 22.2778ZM105.929 9.05939L101.542 20.1129H110.25L105.929 9.05939ZM105.958 0.876876C107.272 0.876876 108.178 1.46758 108.725 2.67668L118.798 27.1971C118.916 27.4892 119.041 27.9507 119.041 28.3716C119.041 29.8098 117.775 30.9798 116.218 30.9798C115.47 30.9798 114.453 30.6935 113.852 29.3293L112.125 24.9099H99.6386L97.9156 29.2519C97.4417 30.4309 96.685 30.9798 95.5342 30.9798C94.0196 30.9798 92.8329 29.9053 92.8329 28.5339C92.8329 28.0054 92.969 27.6166 93.0592 27.3591L93.06 27.3567L103.216 2.71341C103.698 1.51214 104.646 0.876876 105.958 0.876876ZM134.272 2.49393C134.698 1.65394 135.279 0.876876 136.642 0.876876C138.005 0.876876 139.343 2.12903 139.343 3.40437C139.343 4.11038 139.019 4.7616 138.668 5.36073L130.085 20.1439L130.06 20.1867V28.2909C130.06 29.9495 129.041 30.9798 127.4 30.9798C125.758 30.9798 124.739 29.9495 124.739 28.2909V20.1936L115.685 4.99854C115.38 4.51321 115.211 3.9469 115.211 3.40437C115.211 2.2597 116.435 0.876876 117.953 0.876876C118.532 0.876876 119.389 1.0241 120.14 2.29522L127.42 14.6361L134.268 2.50085L134.272 2.49393ZM79.1989 25.992H87.2117C88.8409 25.992 89.7755 26.8931 89.7755 28.4638C89.7755 30.0341 88.8409 30.9346 87.2117 30.9346H73.9087V3.4658C73.9087 1.81774 74.8725 0.872673 76.5538 0.872673C78.235 0.872673 79.1989 1.81774 79.1989 3.4658V25.992ZM55.2083 14.9466H61.0284C63.4791 14.9466 65.4722 12.9619 65.4722 10.5226C65.4722 8.08334 63.4791 6.09898 61.0284 6.09898H47.4613V21.8757C47.4613 24.0019 49.1989 25.7318 51.3347 25.7318C53.4708 25.7318 55.2083 24.0019 55.2083 21.8757V14.9466ZM42.211 0.872677H61.0284C66.3822 0.872677 70.7225 5.19305 70.7225 10.5226C70.7225 15.8522 66.3822 20.1728 61.0284 20.1728H60.4583V21.8757C60.4583 26.8916 56.3736 30.9578 51.3347 30.9578C46.296 30.9578 42.211 26.8916 42.211 21.8757V0.872677Z" fill="#919EBB"/>
</svg>
