<?xml version="1.0" encoding="UTF-8"?>
<svg width="135px" height="60px" viewBox="0 0 135 60" version="1.1" xmlns="http://www.w3.org/2000/svg" xmlns:xlink="http://www.w3.org/1999/xlink">
    <g id="logo" stroke="none" stroke-width="1" fill="none" fill-rule="evenodd" transform="translate(-630.000000, -176.000000)">
        <g id="base" transform="translate(0.000000, 40.000000)" fill="#009793">
            <path d="M630,136 L765,136 L765,196 L630,196 L630,136 Z M635.18407,190.78074 L759.81593,190.78074 L759.81593,141.218906 L635.18407,141.218906 L635.18407,190.78074 Z M702.237464,171.889464 C702.241502,171.665738 702.230267,170.76217 702.230267,170.76217 L709.609623,170.76217 L709.609623,171.943582 C709.609623,173.294425 710.357126,174.907901 712.970228,174.907901 C715.173414,174.907901 716.284837,173.618782 716.284837,171.897069 C716.284837,169.912721 714.851274,169.109962 712.701808,168.762966 C704.816508,167.473493 702.682315,164.275191 702.682315,159.647168 C702.682315,154.814343 707.218947,151.077331 712.970228,151.077331 C718.732744,151.077331 723.273414,154.370252 723.273414,159.469426 C723.273414,159.828448 723.250592,160.851218 723.250592,160.851218 L716.426157,160.851218 L716.426157,159.836053 C716.426157,158.218862 715.318947,156.570367 712.970228,156.570367 C710.564103,156.570367 709.671242,158.187912 709.671242,159.422912 C709.671242,161.399478 711.093043,162.356634 713.24251,162.77738 C722.120033,164.503161 723.817627,166.807799 723.817627,171.758235 C723.817627,177.023478 719.035923,180.567007 712.970228,180.567007 C705.594382,180.567007 702.126515,177.007914 702.237464,171.889464 Z M731.059174,151.706769 L749.320865,151.706769 L749.320865,157.323429 L738.132542,157.323429 L738.132542,162.704161 L749.029623,162.704161 L749.029623,167.867003 L738.132542,167.867003 L738.132542,174.336826 L749.320865,174.336826 L749.320865,179.910864 L731.059174,179.910864 L731.059174,151.706769 Z M680.777029,170.27581 L680.777029,179.910864 L673.542679,179.910864 L673.542679,162.73122 C673.542679,154.466817 678.408823,151.096786 684.248056,151.096786 C690.080091,151.096786 694.988544,154.466817 694.988544,162.73122 L694.988544,179.910864 L687.892178,179.910864 L687.892178,170.27581 L680.777029,170.27581 Z M657.46539,151.706769 C662.825364,151.706769 666.369772,155.215457 666.369772,159.48888 C666.369772,161.434142 664.64567,164.047398 663.147503,164.819561 L663.147503,164.858116 C666.128212,166.162798 667.358485,168.507937 667.358485,171.155856 C667.358485,176.405713 663.235806,179.910864 657.058986,179.910864 L645.67896,179.910864 L645.67896,151.706769 L657.46539,151.706769 Z M652.714057,156.906398 L652.714057,162.850953 L656.982269,162.850953 C658.365449,162.850953 659.534454,161.553875 659.534454,159.874608 C659.534454,158.129725 658.365449,156.906398 656.982269,156.906398 L652.714057,156.906398 Z M687.892178,164.869611 L687.892178,160.944245 C687.892178,157.898395 686.1679,156.813724 684.248056,156.813724 C682.359285,156.813724 680.777029,157.898395 680.777029,160.944245 L680.777029,164.869611 L687.892178,164.869611 Z M656.77933,174.761286 C659.112776,174.761286 660.515267,173.302383 660.515267,171.232966 C660.515267,168.832117 658.844532,167.712782 656.77933,167.712782 L652.714057,167.712782 L652.714057,174.761286 L656.77933,174.761286 Z" id="logo"></path>
        </g>
    </g>
</svg>
