<svg xmlns="http://www.w3.org/2000/svg" width="98" height="78" viewBox="0 0 98 78">
  <g fill="#111" fill-rule="evenodd" transform="translate(1)">
    <path fill-rule="nonzero" d="M49.5636552 26.5L24.5636552 26.5C23.1829433 26.5 22.0636552 27.6192881 22.0636552 29L22.0636552 75C22.0636552 76.3807119 23.1829433 77.5 24.5636552 77.5L49.5636552 77.5C50.9443671 77.5 52.0636552 76.3807119 52.0636552 75L52.0636552 29C52.0636552 27.6192881 50.9443671 26.5 49.5636552 26.5zM49.063 29.5L49.063 74.5 25.063 74.5 25.063 29.5 49.063 29.5zM81.5636552 2.5L61.5636552 2.5C60.1829433 2.5 59.0636552 3.61928813 59.0636552 5L59.0636552 39C59.0636552 40.3807119 60.1829433 41.5 61.5636552 41.5L81.5636552 41.5C82.9443671 41.5 84.0636552 40.3807119 84.0636552 39L84.0636552 5C84.0636552 3.61928813 82.9443671 2.5 81.5636552 2.5zM81.063 5.5L81.063 38.5 62.063 38.5 62.063 5.5 81.063 5.5z"/>
    <polygon fill-rule="nonzero" points="69.503 60.989 71.624 63.111 66.742 67.992 71.567 72.335 69.56 74.565 62.385 68.107"/>
    <polygon fill-rule="nonzero" points="9.939 17.712 12.061 19.833 7.178 24.714 12.003 29.057 9.997 31.287 2.821 24.83" transform="rotate(-115 7.441 24.5)"/>
    <path fill-rule="nonzero" d="M95.9069554 48.3581886L96.056211 49.8507444C97.2156374 61.4450083 85.5797594 69.3414302 66.1584495 69.5479856L65.5675471 69.5518869 64.0675521 69.5557788 64.0597684 66.5557889 65.5597684 66.551897C83.6177182 66.5050439 93.8184256 59.8111577 93.0963277 50.4342223L93.0710994 50.1492556 92.9218438 48.6566998 95.9069554 48.3581886zM30 .5L30 3.5 28.5 3.5C22.7397837 3.5 16.2221466 6.27417372 12.0606602 10.4356602 7.7962583 14.700062 6.74575859 19.5256471 9.57504468 23.907449L9.73934101 24.1549948 10.5843463 25.3943358 8.10566422 27.0843463 7.26065899 25.8450052C3.32965781 20.0795368 4.65644476 13.5972349 9.93933983 8.31433983 14.5536611 3.70001853 21.6182188.635438263 28.0707702.504376324L28.5.5 30 .5z"/>
    <rect width="4" height="4" x="35.064" y="66" rx="1"/>
    <rect width="13" height="3" x="30.564" y="34" rx=".5"/>
    <rect width="4" height="4" x="69.564" y="31" rx="1"/>
    <rect width="10" height="3" x="66.564" y="9" rx=".5"/>
  </g>
</svg>
