<svg xmlns="http://www.w3.org/2000/svg" width="24" height="24" fill="none"><path fill="#111" d="m12 1.932 9 3.375V13c0 .865-.336 1.789-.813 2.649-.486.877-1.167 1.774-1.966 2.606-1.583 1.65-3.74 3.155-5.978 3.715l-.243.06-.242-.06c-2.239-.56-4.396-2.066-5.98-3.715-.798-.832-1.479-1.729-1.965-2.606-.477-.86-.813-1.784-.813-2.65V5.308zm-7 4.76V13c0 .384.164.96.562 1.679.389.7.958 1.46 1.66 2.19 1.35 1.408 3.091 2.606 4.778 3.095 1.687-.49 3.427-1.687 4.779-3.094.7-.73 1.27-1.49 1.659-2.191.398-.719.562-1.295.562-1.68V6.694l-7-2.625z"/></svg>