<svg xmlns="http://www.w3.org/2000/svg" width="24" height="24" fill="none"><path fill="#111" d="M3 5.375 12 2l3 1.125-.702 1.873L12 4.136 5 6.761v6.307c0 .384.164.96.562 1.68.389.7.958 1.46 1.66 2.19 1.35 1.408 3.09 2.605 4.777 3.094H12a8 8 0 0 0 .819-.29l.923-.386.769 1.847-.923.384a9.5 9.5 0 0 1-1.347.45l-.241.06v.002l-.242-.06c-2.239-.56-4.396-2.066-5.98-3.716-.798-.832-1.479-1.729-1.965-2.606-.477-.86-.813-1.783-.813-2.649zm14.699-1.238 3.3 1.237v2.831h-2V6.76l-2.002-.75zm3.299 8.93v-2.125h-2v2.125c0 .222-.054.52-.192.89l-.255.647 1.875.698.254-.647c.194-.52.318-1.06.318-1.588m-1.761 4.143-.551.604c-.578.66-1.243 1.3-1.965 1.878l-.45.364-1.25-1.561.45-.364a13.6 13.6 0 0 0 1.71-1.634l.552-.604z"/></svg>