<svg xmlns="http://www.w3.org/2000/svg" width="24" height="24" fill="none"><path fill="#111" d="m5.5 1.586 5.37 5.37-.618.703v.001l-.01.011-.046.056a5.7 5.7 0 0 0-.642.975c-.153.298-.253.58-.284.815-.03.225.009.349.062.428.446.669 1.308 1.656 2.25 2.598.949.949 1.883 1.756 2.448 2.11l.013.007.012.008.012.007.036.016a1 1 0 0 0 .133.04 1.3 1.3 0 0 0 .454.005c.368-.055.93-.27 1.603-.943l.707-.707 5.414 5.414-1.73 1.73-.025.023c-.679.593-1.738 1.518-3.434 1.796-1.692.278-3.839-.108-6.704-1.671-4.267-2.327-6.906-6.37-7.97-9.562l-.022-.065a9.3 9.3 0 0 1-.528-2.718c-.048-1.431.288-3.236 1.792-4.74zm0 2.828-.293.293C4.211 5.703 3.964 6.898 4 7.967c.033 1 .312 1.818.424 2.145l.025.072c.936 2.809 3.29 6.398 7.03 8.438 2.635 1.438 4.322 1.634 5.422 1.454 1.08-.178 1.768-.74 2.416-1.307l.269-.269-2.638-2.638c-1.608 1.175-3.15 1.029-3.989.48-.767-.483-1.828-1.421-2.791-2.385-.974-.974-1.945-2.07-2.5-2.902-.395-.593-.455-1.243-.381-1.8.072-.547.278-1.056.487-1.465.132-.257.274-.493.408-.694z"/></svg>