<svg xmlns="http://www.w3.org/2000/svg" width="24" height="24" fill="none"><path fill="#000" d="M11 8H9v2h2zm2 0h2v2h-2z"/><path fill="#000" d="M18 3H6v8a2 2 0 0 0-2 2v8h2v-8h12v8h2v-8a2 2 0 0 0-2-2zM8 11V5h8v6z"/><path fill="#000" d="M16.956 16.711c.007 1.295-.588 2.366-1.897 2.366-1.386 0-1.918-1.19-1.918-2.345 0-1.183.546-2.359 1.918-2.359 1.414 0 1.897 1.218 1.897 2.338m-2.282.007c-.014.966.12 1.211.385 1.211.26 0 .378-.245.378-1.211 0-.91-.09-1.19-.378-1.19-.273 0-.385.245-.385 1.19M8.501 19.07c1.176 0 2.051-.483 2.051-1.372 0-.588-.441-.98-1.029-1.085v-.014c.63-.168.903-.539.903-1.05 0-.763-.763-1.169-1.708-1.169-.602 0-1.169.133-1.54.287l.175 1.134c.245-.098.644-.21 1.036-.21.364 0 .483.154.483.252 0 .189-.21.231-.518.231h-.399l-.07 1.134h.504c.392 0 .588.147.588.364 0 .203-.203.294-.567.294-.427 0-.931-.119-1.197-.238l-.168 1.169c.315.168.868.273 1.456.273m3.459.021a.84.84 0 0 0 .84-.847.834.834 0 0 0-.84-.84.834.834 0 0 0-.84.84.84.84 0 0 0 .84.847"/></svg>