<svg xmlns="http://www.w3.org/2000/svg" width="24" height="24" fill="none"><path fill="#000" d="M11 8H9v2h2zm2 0h2v2h-2z"/><path fill="#000" d="M6 3h12v8a2 2 0 0 1 2 2v8h-2v-8H6v8H4v-8a2 2 0 0 1 2-2zm2 2v6h8V5z"/><path fill="#000" d="M16.956 16.711c.007 1.295-.588 2.366-1.897 2.366-1.386 0-1.918-1.19-1.918-2.345 0-1.183.546-2.359 1.918-2.359 1.414 0 1.897 1.218 1.897 2.338m-2.282.007c-.014.966.12 1.211.385 1.211.26 0 .378-.245.378-1.211 0-.91-.09-1.19-.378-1.19-.273 0-.385.245-.385 1.19M7.024 19h3.451l.063-1.246H9.187l.008-.006c.518-.364 1.294-.909 1.294-1.828 0-1.015-.728-1.54-1.75-1.54-.595 0-1.351.196-1.715.406l.441 1.071c.322-.161.623-.252.938-.252.329 0 .553.112.553.455-.006.467-.533.895-1.298 1.515q-.297.238-.634.522zm4.936.091a.84.84 0 0 0 .84-.847.834.834 0 0 0-.84-.84.834.834 0 0 0-.84.84.84.84 0 0 0 .84.847"/></svg>