<svg width="167" height="358" fill="none" xmlns="http://www.w3.org/2000/svg"><path d="M1016.96 192.81c-11.01-89.519-79.874-159.757-169.393-170.775C847.567 22.035 704.337 0 495 0 285.663 0 142.433 22.035 142.433 22.035 52.913 33.053-15.947 103.291-26.965 192.81c0 0-22.035 161.134-22.035 351.19s22.035 351.19 22.035 351.19c11.018 89.519 79.879 159.76 169.398 170.77 0 0 143.23 22.04 352.567 22.04 209.337 0 352.567-22.04 352.567-22.04 89.519-11.01 159.753-81.251 169.393-170.77 0 0 22.04-161.134 22.04-351.19s-22.04-351.19-22.04-351.19zM873.734 798.785c-8.263 64.729-57.843 115.686-122.572 123.949 0 0-103.291 16.527-256.162 16.527-152.871 0-256.162-16.527-256.162-16.527-64.729-8.263-115.686-57.843-122.572-123.949 0 0-16.527-115.686-16.527-254.785 0-137.722 16.527-254.785 16.527-254.785 8.263-64.729 57.843-115.686 122.572-123.949 0 0 103.291-16.527 256.162-16.527 152.871 0 256.162 16.527 256.162 16.527 64.729 8.263 115.686 57.843 122.572 123.949 0 0 16.527 115.686 16.527 254.785-1.378 137.721-16.527 254.785-16.527 254.785z" fill="url(#paint0_linear_644_29458)" fill-opacity=".32"/><defs><linearGradient id="paint0_linear_644_29458" x1="-14" y1="-19" x2="171" y2="342" gradientUnits="userSpaceOnUse"><stop stop-color="#fff"/><stop offset="1" stop-color="#fff" stop-opacity="0"/></linearGradient></defs></svg>