<svg width="237" height="131" xmlns="http://www.w3.org/2000/svg"><g fill="none" fill-rule="evenodd"><path d="M225.128 16.608a.785.785 0 01-.81-.81v-.576c0-.468.342-.81.81-.81s.81.342.81.81v.576c0 .468-.342.81-.81.81zm.009-3.627a.785.785 0 01-.81-.81c0-1.458.765-2.223 1.638-2.754l.441-.27c.585-.36.882-.63.882-1.251 0-.918-.72-1.44-1.746-1.44-.774 0-1.422.414-1.71.612a.995.995 0 01-.54.162c-.468 0-.792-.36-.792-.81 0-.234.108-.432.306-.594.387-.315 1.278-.936 2.736-.936 1.926 0 3.42 1.035 3.42 3.006 0 2.925-3.015 2.052-3.015 4.275 0 .468-.342.81-.81.81zm.613 8.519c-5.937 0-10.75-4.813-10.75-10.75S219.813 0 225.75 0s10.75 4.813 10.75 10.75-4.813 10.75-10.75 10.75zm0-1.5a9.25 9.25 0 100-18.5 9.25 9.25 0 000 18.5z" fill="#239A98" fill-rule="nonzero"/><g transform="translate(1 22)"><circle stroke="#239A98" stroke-width="2" transform="rotate(90 88.5 73)" cx="88.5" cy="73" r="2.5"/><path d="M95 79.136v9.992a5 5 0 01-1.497 3.568l-14.129 13.872A5 5 0 0175.871 108H5a5 5 0 01-5-5V49a5 5 0 015-5h85a5 5 0 015 5v17.94" stroke="#C5C6C6" stroke-width="2" stroke-linecap="round"/><text transform="translate(47.219 52.145)" font-family="BloomSpeakBody-Bold, BloomSpeak Body" font-size="6" font-weight="bold" fill="#239A98"><tspan x="21.463" y="6.818">1234</tspan> <tspan x="21.463" y="12.818">1000</tspan> <tspan x="21.463" y="18.818">6429</tspan> <tspan x="21.463" y="24.818">2806</tspan> <tspan x="21.463" y="30.818">8691</tspan> <tspan x="21.463" y="36.818">L205</tspan></text><path d="M31.183 90H11a1 1 0 01-1-1V55a1 1 0 011-1h20.115m5.786 0H57a1 1 0 011 1v34a1 1 0 01-1 1H36.966" stroke="#C5C6C6" stroke-width="2" stroke-linecap="round"/><path d="M26 54v36m16-36v36" stroke="#C5C6C6" stroke-width="2" stroke-linecap="square"/><path d="M25.867 66h-15.68m44.787 0H42M26 78H14.095M58 78H42" stroke="#C5C6C6" stroke-width="2" stroke-linecap="round"/><path d="M225 0v58.5" stroke="#239A98" stroke-width="1.5" stroke-linecap="square"/><path d="M210 73c8.284 0 15-6.716 15-15" stroke="#239A98" stroke-width="1.5"/><path d="M91.737 73H210" stroke="#239A98" stroke-width="1.5" stroke-linecap="square"/></g></g></svg>