<svg width="167" height="202" fill="none" xmlns="http://www.w3.org/2000/svg"><path d="M793.21-480.089c-8.395-68.208-60.863-121.726-129.072-130.121 0 0-109.134-16.79-268.638-16.79-159.504 0-268.638 16.79-268.638 16.79C58.653-601.815 6.185-548.297-2.21-480.089c0 0-16.79 122.776-16.79 267.589S-2.21 55.089-2.21 55.089c8.395 68.208 60.863 121.726 129.072 130.121 0 0 109.134 16.79 268.638 16.79 159.504 0 268.638-16.79 268.638-16.79 68.209-8.395 121.727-61.913 129.072-130.121 0 0 16.79-122.776 16.79-267.589s-16.79-267.589-16.79-267.589zM684.076-18.367c-6.296 49.32-44.073 88.147-93.394 94.443 0 0-78.702 12.592-195.182 12.592-116.48 0-195.182-12.592-195.182-12.592-49.321-6.296-88.147-44.073-93.394-94.443 0 0-12.592-88.147-12.592-194.133 0-104.937 12.592-194.133 12.592-194.133 6.296-49.32 44.073-88.147 93.394-94.443 0 0 78.702-12.592 195.182-12.592 116.48 0 195.182 12.592 195.182 12.592 49.321 6.296 88.147 44.073 93.394 94.443 0 0 12.592 88.147 12.592 194.133-1.049 104.937-12.592 194.133-12.592 194.133z" fill="url(#paint0_linear_644_29463)" fill-opacity=".32"/><defs><linearGradient id="paint0_linear_644_29463" x1="18" y1="171" x2="142" y2="21" gradientUnits="userSpaceOnUse"><stop stop-color="#fff"/><stop offset="1" stop-color="#fff" stop-opacity="0"/></linearGradient></defs></svg>