<svg xmlns="http://www.w3.org/2000/svg" width="24" height="24" fill="none"><path fill="#291D18" d="m7.909 8.041-6.052.88-.113.022a1 1 0 0 0-.44 1.683l4.378 4.268-1.034 6.027-.013.11a1 1 0 0 0 1.464.944l5.413-2.845 5.412 2.845.1.047a1 1 0 0 0 1.351-1.1l-1.034-6.028 4.38-4.268.078-.085a1 1 0 0 0-.633-1.62l-6.052-.88-2.706-5.484a1 1 0 0 0-1.793 0zm3.603-2.783 2.042 4.14.06.106a1 1 0 0 0 .693.44l4.566.664-3.304 3.221-.082.09a1 1 0 0 0-.206.795l.78 4.548-4.084-2.147-.112-.05a1 1 0 0 0-.819.05l-4.084 2.147.78-4.548.013-.122a1 1 0 0 0-.3-.763L4.15 10.608l4.567-.663a1 1 0 0 0 .752-.548z"/></svg>