<svg width="24" height="24" viewBox="0 0 24 24" fill="none" xmlns="http://www.w3.org/2000/svg">
<path fill-rule="evenodd" clip-rule="evenodd" d="M17.8075 7.55961C17.9876 7.67668 18.1252 7.84863 18.2 8.05001C18.268 8.24209 18.2757 8.45037 18.2221 8.64695C18.1685 8.84354 18.0561 9.01906 17.9 9.15001L14.75 11.96C14.6402 12.057 14.5105 12.1287 14.37 12.17L10.2 13.38L9.2 16.63C9.14489 16.8083 9.04097 16.9677 8.9 17.09L5.66 20C5.47067 20.1428 5.23676 20.2137 5 20.2C4.85851 20.1994 4.71876 20.1687 4.59 20.11C4.41455 20.0311 4.26557 19.9033 4.16092 19.7419C4.05628 19.5805 4.0004 19.3924 4 19.2V10.2C4.05149 9.42193 4.40392 8.69448 4.98259 8.17181C5.56127 7.64914 6.32072 7.37232 7.1 7.40001H7.83V7.33001V6.33001C7.83 5.18427 8.28514 4.08547 9.0953 3.27531C9.90546 2.46515 11.0043 2.01001 12.15 2.01001C13.2957 2.01001 14.3945 2.46515 15.2047 3.27531C16.0149 4.08547 16.47 5.18427 16.47 6.33001V7.33001V7.40001H17.2C17.4144 7.38658 17.6274 7.44254 17.8075 7.55961ZM9.9 6.33001V7.33001H9.88C9.88 7.36001 9.86 7.40001 9.86 7.40001H14.54V7.33001V6.33001C14.54 5.71471 14.2956 5.12461 13.8605 4.68952C13.4254 4.25444 12.8353 4.01001 12.22 4.01001C11.6047 4.01001 11.0146 4.25444 10.5795 4.68952C10.1444 5.12461 9.9 5.71471 9.9 6.33001ZM9.09 11.62L13.58 10.33L14.59 9.40001H7.1C6.5 9.40001 6 9.77001 6 10.2V17L7.41 15.78L8.41 12.29C8.45851 12.1305 8.54613 11.9856 8.66489 11.8686C8.78365 11.7516 8.92979 11.6661 9.09 11.62ZM8.00008 22H17.2001C17.5966 22.0313 17.9955 21.9834 18.3734 21.8591C18.7512 21.7349 19.1006 21.5367 19.4012 21.2761C19.7018 21.0156 19.9475 20.6978 20.1242 20.3414C20.3008 19.985 20.4048 19.597 20.4301 19.2V11.1C20.4306 10.9087 20.3762 10.7213 20.2734 10.56C20.1706 10.3988 20.0237 10.2703 19.8501 10.19C19.6749 10.1078 19.4795 10.0782 19.2878 10.1048C19.0961 10.1315 18.9163 10.2132 18.7701 10.34L15.6401 13.07L12.3601 14.15C12.2205 14.1953 12.0926 14.2707 11.9855 14.3709C11.8783 14.4712 11.7945 14.5938 11.7401 14.73L10.7401 17.17L7.33008 20.26C7.18088 20.3956 7.07616 20.5731 7.02965 20.7693C6.98315 20.9655 6.99703 21.1712 7.06948 21.3593C7.14193 21.5475 7.26956 21.7093 7.43564 21.8237C7.60171 21.938 7.79846 21.9995 8.00008 22ZM17.2001 20H10.5501L12.2401 18.5C12.3515 18.3942 12.437 18.2642 12.4901 18.12L13.3801 15.91L16.3801 14.91C16.5098 14.8694 16.6293 14.8012 16.7301 14.71L18.3601 13.29V19.2C18.3601 19.63 17.8201 20 17.2001 20Z" fill="#291D18"/>
</svg>
