<svg xmlns="http://www.w3.org/2000/svg" width="24" height="24" fill="none"><path fill="#291D18" d="M6.913 19a1 1 0 1 0 0-2 1 1 0 0 0 0 2"/><path fill="#291D18" d="M5.34 2h3.154a2.5 2.5 0 0 1 2.497 2.361l.833 15a2.5 2.5 0 0 1-2.358 2.635l-.05.002L4.5 22A2.5 2.5 0 0 1 2 19.5v-.052L2.844 4.36A2.5 2.5 0 0 1 5.34 2m3.154 2H5.34a.5.5 0 0 0-.499.472l-.84 15.014.007.104A.5.5 0 0 0 4.5 20h4.855a.5.5 0 0 0 .472-.528l-.834-15A.5.5 0 0 0 8.494 4m7.471 1c0-.847.975-1.294 1.614-.79l.085.075 3.86 3.77a1 1 0 0 1 .056 1.372l-.085.087-2.896 2.608 2.818 2.068a1 1 0 0 1 .204 1.413l-.078.09-3.86 3.97c-.6.616-1.624.237-1.711-.582l-.007-.115v-4.473l-1.382 1.246a1 1 0 0 1-1.323.014l-.09-.088a1 1 0 0 1-.014-1.322l.088-.09 2.19-1.973-2.112-1.549a1 1 0 0 1-.283-1.292l.068-.105A1 1 0 0 1 14.4 9.05l.106.068 1.46 1.071zm2 9.138v2.365l1.342-1.381zm0-4.138 1.4-1.26-1.4-1.366z"/></svg>