<svg xmlns="http://www.w3.org/2000/svg" width="24" height="24" fill="none"><path fill="#291D18" d="M9 11h6a1 1 0 0 1 1 1v6a1 1 0 0 1-1 1H9a1 1 0 0 1-1-1v-6a1 1 0 0 1 1-1m5 6v-4h-4v4z"/><path fill="#291D18" d="M7.5 2H14a1 1 0 0 1 .707.293l4 4A1 1 0 0 1 19 7v12.5a2.5 2.5 0 0 1-2.5 2.5h-9A2.5 2.5 0 0 1 5 19.5v-15A2.5 2.5 0 0 1 7.5 2M17 7.415 13.585 4h-.335v3a.75.75 0 0 1-1.493.102L11.75 7V4h-.5v3a.75.75 0 0 1-1.493.102L9.75 7V4h-.5v3a.75.75 0 0 1-1.493.102L7.75 7V4H7.5a.5.5 0 0 0-.5.5v15a.5.5 0 0 0 .5.5h9a.5.5 0 0 0 .5-.5z"/></svg>