<svg xmlns="http://www.w3.org/2000/svg" width="24" height="24" fill="none"><g fill="#291D18"><path d="M16.5 9a1.5 1.5 0 1 0 0-3 1.5 1.5 0 0 0 0 3"/><path d="M9 8.5a6.5 6.5 0 1 1 4.66 6.236l-.946.964a1 1 0 0 1-.581.291L12 16h-1v1a1 1 0 0 1-.206.608l-.087.1-1 1a1 1 0 0 1-.576.283L9 19H8v1a1 1 0 0 1-.212.615l-.089.1-1 .978a1 1 0 0 1-.57.277L6 21.98H3a1 1 0 0 1-.993-.884L2 20.98v-3a1 1 0 0 1 .207-.61l.087-.099 6.966-6.944A6.5 6.5 0 0 1 9 8.5m1.179 3.734L4 18.393v1.585h1.591l.409-.4V18a1 1 0 0 1 .883-.993L7 17h1.584L9 16.584V15a1 1 0 0 1 .883-.993L10 14h1.579l.18-.184a6.5 6.5 0 0 1-1.58-1.582M20 8.5a4.5 4.5 0 1 0-9 0 4.5 4.5 0 0 0 9 0"/></g></svg>