<svg xmlns="http://www.w3.org/2000/svg" width="24" height="24" fill="none"><path fill="#291D18" d="M5 2a3 3 0 0 0-3 3v14a3 3 0 0 0 3 3h3.537a7.6 7.6 0 0 1-.871-2H5a1 1 0 0 1-1-1V5a1 1 0 0 1 1-1h4a1 1 0 0 1 1 1v7.276a7.6 7.6 0 0 1 2-1.261V5a3 3 0 0 0-3-3zm10 0a1 1 0 1 0 0 2 5 5 0 0 1 5 5 1 1 0 1 0 2 0 7 7 0 0 0-7-7m-1 4a1 1 0 0 1 1-1 4 4 0 0 1 4 4 1 1 0 1 1-2 0 2 2 0 0 0-2-2 1 1 0 0 1-1-1M7 6a1 1 0 0 1 1 1v3a1 1 0 1 1-2 0V7a1 1 0 0 1 1-1m9.606 8.493a.43.43 0 0 1-.239-.28l-.327-1.31a.4.4 0 0 0-.388-.302h-1.304a.4.4 0 0 0-.388.302l-.327 1.31a.43.43 0 0 1-.24.28 4 4 0 0 0-.626.362.43.43 0 0 1-.362.067l-1.299-.37a.4.4 0 0 0-.456.184l-.652 1.129a.4.4 0 0 0 .068.487l.97.938c.094.09.136.219.124.347a4 4 0 0 0 0 .726.43.43 0 0 1-.123.346l-.97.939a.4.4 0 0 0-.069.487l.652 1.13a.4.4 0 0 0 .457.184l1.297-.372a.43.43 0 0 1 .362.067q.296.21.628.363a.43.43 0 0 1 .239.28l.327 1.31a.4.4 0 0 0 .388.302h1.304a.4.4 0 0 0 .388-.303l.327-1.309a.43.43 0 0 1 .239-.28q.332-.152.627-.363a.43.43 0 0 1 .363-.067l1.297.372a.4.4 0 0 0 .457-.185l.652-1.129a.4.4 0 0 0-.069-.487l-.97-.94a.43.43 0 0 1-.123-.346 4 4 0 0 0 0-.725.43.43 0 0 1 .123-.346l.97-.939a.4.4 0 0 0 .07-.487l-.653-1.13a.4.4 0 0 0-.456-.184l-1.299.371a.43.43 0 0 1-.362-.067 4 4 0 0 0-.627-.362M16.5 18a1.5 1.5 0 1 1-3 0 1.5 1.5 0 0 1 3 0"/></svg>