<svg xmlns="http://www.w3.org/2000/svg" width="24" height="24" fill="none"><path fill="#291D18" d="M12 4a14 14 0 0 0-9.9 4.1 1 1 0 0 0 1.415 1.415 12 12 0 0 1 16.97 0A1 1 0 1 0 21.9 8.1 14 14 0 0 0 12 4"/><path fill="#291D18" d="M8.173 8.761a10 10 0 0 1 10.898 2.168 1 1 0 0 1-1.414 1.414 8 8 0 0 0-11.314 0A1 1 0 1 1 4.93 10.93a10 10 0 0 1 3.243-2.17"/><path fill="#291D18" d="M12 12a6 6 0 0 0-4.243 1.757 1 1 0 1 0 1.414 1.415 4 4 0 0 1 5.657 0 1 1 0 0 0 1.415-1.415A6 6 0 0 0 12 12m0 4.4a1.6 1.6 0 1 0 0 3.2 1.6 1.6 0 0 0 0-3.2"/></svg>