<svg width="871" height="99" viewBox="0 0 871 99" fill="none" xmlns="http://www.w3.org/2000/svg">
<path fill-rule="evenodd" clip-rule="evenodd" d="M66.1014 60.6116C66.1014 60.6116 66.9307 59.8268 66.9307 59.0826V56.6045C66.9307 55.3637 65.9887 56.0316 65.9887 56.0316C63.4687 57.6156 56.1092 61.6515 46.5633 61.6515C37.0169 61.6515 29.6588 57.6156 27.1378 56.0316C27.1378 56.0316 26.1954 55.3637 26.1954 56.6045V59.0826C26.1954 59.8268 27.0252 60.6116 27.0252 60.6116C29.5125 62.5537 37.3003 67.9942 46.5633 67.9988C55.8253 67.9942 63.6095 62.5537 66.1014 60.6116ZM34.5836 31.5562C34.5836 31.5562 27.3263 31.5649 27.3263 37.6503C27.3263 43.7399 34.5836 43.7485 34.5836 43.7485C34.5836 43.7485 41.8408 43.7399 41.8408 37.6503C41.8408 31.5649 34.5836 31.5562 34.5836 31.5562ZM65.4292 35.6678C65.4292 35.2243 64.8662 35.0855 64.8662 35.0855C62.5169 34.4687 60.1885 34.1238 57.886 34.0743C55.7168 34.0361 53.5553 34.2509 51.397 34.7217C51.397 34.7217 50.8594 34.8882 50.8594 35.3623V40.1449C50.8594 41.0327 51.4837 40.7906 51.4837 40.7906C53.5135 40.5015 55.4988 40.3757 57.8692 40.4195C60.1635 40.4686 62.5837 40.69 64.7279 41.0844C64.7279 41.0844 65.4292 41.2518 65.4292 40.5028V35.6678ZM68.3428 81.8073C68.3428 81.8073 59.5179 83.1753 46.5299 83.1753C33.5405 83.1753 24.7165 81.8073 24.7165 81.8073C19.1577 81.1353 14.8727 76.7597 14.1975 71.2008C14.1975 71.2008 12.8547 61.2865 12.8547 49.4992C12.8547 37.7116 14.1975 27.7976 14.1975 27.7976C14.8727 22.2397 19.1577 17.8645 24.7165 17.1938C24.7165 17.1938 33.5405 15.8242 46.5299 15.8242C59.5179 15.8242 68.3428 17.1938 68.3428 17.1938C73.9021 17.8645 78.1876 22.2397 78.8618 27.7976C78.8618 27.7976 80.2067 37.7116 80.2067 49.4992C80.2067 61.2865 78.8618 71.2008 78.8618 71.2008C78.1876 76.7597 73.9021 81.1353 68.3428 81.8073ZM76.6681 4.86124C76.6681 4.86124 64.4763 2.97 46.5299 2.97C28.5828 2.97 16.3901 4.86124 16.3901 4.86124C8.70885 5.78756 2.78804 11.8349 1.85604 19.5138C1.85604 19.5138 0 33.2133 0 49.4992C0 65.7862 1.85604 79.4852 1.85604 79.4852C2.78804 87.1647 8.70885 93.2108 16.3901 94.1385C16.3901 94.1385 28.5828 96.03 46.5299 96.03C64.4763 96.03 76.6681 94.1385 76.6681 94.1385C84.3509 93.2108 90.2713 87.1647 91.2037 79.4852C91.2037 79.4852 93.06 65.7862 93.06 49.4992C93.06 33.2133 91.2037 19.5138 91.2037 19.5138C90.2713 11.8349 84.3509 5.78756 76.6681 4.86124Z" fill="#FFC421"/>
<path fill-rule="evenodd" clip-rule="evenodd" d="M122.76 5.28185H177.638C193.253 5.28185 205.91 17.972 205.91 33.6255C205.91 49.2807 193.253 61.9708 177.638 61.9708H175.976V66.9726C175.976 81.7064 164.063 93.6493 149.368 93.6493C134.674 93.6493 122.76 81.7064 122.76 66.9726V5.28185ZM160.665 46.6199H177.639C184.786 46.6199 190.6 40.7913 190.6 33.6256C190.6 26.4617 184.786 20.6322 177.639 20.6322H138.072V66.9727C138.072 73.2188 143.139 78.2992 149.368 78.2992C155.598 78.2992 160.665 73.2188 160.665 66.9727V46.6199Z" fill="white"/>
<path fill-rule="evenodd" clip-rule="evenodd" d="M397.17 5.29331C393.195 5.29331 391.498 7.57587 390.257 10.0433L390.246 10.0645L370.274 45.7107L349.042 9.45957C346.851 5.72577 344.353 5.29331 342.664 5.29331C338.234 5.29331 334.667 9.35521 334.667 12.7185C334.667 14.3121 335.158 15.9756 336.049 17.4003L362.454 62.0352V85.8194C362.454 90.6922 365.428 93.7186 370.215 93.7186C375.001 93.7186 377.974 90.6922 377.974 85.8194V62.0149L378.048 61.8893L403.079 18.4651C404.102 16.7052 405.049 14.7923 405.049 12.7185C405.049 8.9714 401.146 5.29331 397.17 5.29331ZM307.678 5.29321C311.511 5.29321 314.154 7.02834 315.749 10.5808L345.129 82.6073C345.472 83.4651 345.838 84.8208 345.838 86.0572C345.838 90.2818 342.144 93.7184 337.605 93.7184C335.422 93.7184 332.454 92.8765 330.704 88.8695L325.666 75.8887H289.25L284.224 88.6422C282.842 92.1054 280.635 93.7184 277.278 93.7184C272.861 93.7184 269.401 90.5621 269.401 86.5338C269.401 84.9765 269.799 83.8312 270.063 83.076L299.681 10.6879C301.087 7.15923 303.852 5.29321 307.678 5.29321ZM307.595 29.3286L294.801 61.7973H320.197L307.595 29.3286ZM253.005 79.0664H229.636V12.898C229.636 8.057 226.824 5.28185 221.921 5.28185C217.018 5.28185 214.206 8.057 214.206 12.898V93.5851H253.005C257.757 93.5851 260.483 90.9399 260.483 86.327C260.483 81.7133 257.757 79.0664 253.005 79.0664Z" fill="white"/>
<path fill-rule="evenodd" clip-rule="evenodd" d="M866.857 16.4006C864.314 12.621 860.734 9.6736 856.214 7.64055C851.725 5.62164 846.524 4.5976 840.755 4.5976C834.83 4.5976 829.321 5.66055 824.385 7.75816C819.427 9.86284 815.313 12.9199 812.157 16.8437C808.991 20.7806 807.043 25.4339 806.369 30.6753C806.201 32.1866 806.116 33.2991 806.116 33.995C806.116 38.6934 807.397 42.7286 809.922 45.9899C812.408 49.2018 815.422 51.7725 818.88 53.6313C822.281 55.461 826.35 57.2288 830.979 58.8842L833.83 59.8782C838.286 61.5053 841.399 62.8778 843.068 63.954C844.583 64.9303 845.319 66.2426 845.319 67.9679C845.319 69.9205 844.485 71.667 842.769 73.3101C841.07 74.9399 838.395 75.7667 834.82 75.7667C830.566 75.7667 827.254 74.8037 824.975 72.9042C823.17 71.4008 822.215 69.7551 822.057 67.8715C821.96 66.6821 821.022 65.7952 819.874 65.7952C819.784 65.7952 819.693 65.8013 819.601 65.8128L819.525 65.8226L802.669 67.9609C801.574 68.0988 800.744 68.999 800.693 70.0991C800.682 70.3733 800.675 70.6147 800.675 70.819C800.675 78.2225 803.456 84.1589 808.94 88.462C814.368 92.7244 821.869 94.8848 831.232 94.8848C840.917 94.8848 849.078 92.4777 855.487 87.7316C861.938 82.9571 865.721 76.3805 866.732 68.1846C866.904 66.6388 866.986 65.5564 866.986 64.8684C866.986 60.0825 865.7 56.103 863.164 53.0406C860.67 50.0348 857.964 47.8196 855.117 46.4551C852.338 45.1268 848.384 43.5324 843.361 41.7151C838.949 40.0774 835.635 38.7695 833.517 37.8286C831.468 36.9221 829.923 35.9529 828.922 34.9492C827.989 34.0145 827.535 32.9321 827.535 31.6383C827.535 29.1375 828.41 27.245 830.209 25.8522C832.044 24.4347 834.594 23.7157 837.787 23.7157C841.68 23.7157 844.681 24.7663 846.71 26.8373C848.359 28.5229 849.215 30.3472 849.328 32.4156C849.393 33.605 850.381 34.5362 851.578 34.5362C851.672 34.5362 851.769 34.53 851.864 34.5177L868.701 32.3829C869.795 32.2441 870.625 31.3447 870.676 30.2455C870.69 29.974 870.696 29.7344 870.696 29.5319C870.696 24.6071 869.404 20.189 866.857 16.4006Z" fill="#00E650"/>
<path fill-rule="evenodd" clip-rule="evenodd" d="M803.186 24.2109C803.664 23.7899 803.922 23.2487 803.937 22.6403L805.783 7.95178C805.901 7.32303 805.756 6.74822 805.365 6.28926C804.973 5.83118 804.433 5.58976 803.802 5.58976H741.348C740.74 5.58976 740.191 5.81615 739.764 6.24504C739.367 6.64299 739.11 7.12848 739.001 7.68737L738.995 7.71655L738.991 7.74573L737.263 22.4714C737.146 23.1011 737.291 23.6759 737.684 24.1348C738.072 24.5902 738.612 24.8317 739.245 24.8317H759.246L751.114 91.5314C750.997 92.162 751.143 92.7359 751.536 93.1957C751.923 93.6503 752.464 93.8926 753.096 93.8926H770.163C770.773 93.8926 771.321 93.6662 771.748 93.2373C772.142 92.842 772.398 92.3592 772.51 91.7985L772.517 91.7702L780.677 24.8317H801.576C802.175 24.8317 802.716 24.623 803.186 24.2109Z" fill="#00E650"/>
<path fill-rule="evenodd" clip-rule="evenodd" d="M672.949 5.58978H708.565C715.991 5.58978 721.952 7.7484 726.284 12.0055C730.618 16.2679 732.816 22.0806 732.816 29.2833C732.816 30.1332 732.734 31.4535 732.562 33.3521C731.806 38.9985 729.8 43.9595 726.599 48.0972C723.407 52.2226 719.242 55.2567 714.243 57.1093L725.838 91.1185C725.956 91.3803 726.015 91.6836 726.015 92.0214C726.015 92.46 725.854 93.8926 723.776 93.8926H705.845C704.696 93.8926 703.872 93.3134 703.515 92.2416L693.522 59.3387C693.506 59.3131 693.491 59.3016 693.478 59.3007H685.687L681.736 91.7402L681.732 91.7702L681.726 91.7985C681.614 92.3592 681.357 92.842 680.964 93.2373C680.537 93.6662 679.989 93.8926 679.379 93.8926H662.313C661.679 93.8926 661.139 93.6503 660.751 93.1958C660.358 92.7359 660.212 92.1611 660.331 91.5306L670.587 7.78289C670.601 7.17359 670.86 6.63239 671.339 6.21145C671.807 5.79936 672.349 5.58978 672.949 5.58978ZM700.897 42.0424C703.941 42.0424 706.381 41.1359 708.357 39.2718C710.319 37.4209 711.273 35.0456 711.273 32.0107C711.273 29.7353 710.567 27.9932 709.112 26.6844C707.653 25.373 705.638 24.7079 703.123 24.7079H689.891L687.821 42.0424H700.897Z" fill="#00E650"/>
<path fill-rule="evenodd" clip-rule="evenodd" d="M609.68 0C582.412 0 560.306 22.1628 560.306 49.5007C560.306 76.8394 582.412 99.0004 609.68 99.0004C636.948 99.0004 659.054 76.8394 659.054 49.5007C659.054 22.1628 636.948 0 609.68 0Z" fill="#00E650"/>
<path fill-rule="evenodd" clip-rule="evenodd" d="M497.177 5.58978H531.804C539.472 5.58978 545.66 7.7882 550.195 12.1222C554.74 16.4669 557.045 22.4086 557.045 29.7794C557.045 30.6257 556.963 32.0256 556.792 34.0879C556.119 39.56 554.286 44.4715 551.344 48.6871C548.396 52.9079 544.533 56.2029 539.863 58.48C535.206 60.7518 529.914 61.9041 524.137 61.9041H509.577L509.576 61.9052C509.566 61.9193 509.552 61.9394 509.537 61.9704L505.964 91.7393L505.961 91.7693L505.955 91.7985C505.842 92.3583 505.586 92.842 505.193 93.2373C504.764 93.6662 504.216 93.8926 503.608 93.8926H486.541C485.907 93.8926 485.367 93.6503 484.979 93.1949C484.586 92.735 484.441 92.1611 484.56 91.5306L494.821 7.74133L494.824 7.7148L494.829 7.68738C494.94 7.12849 495.196 6.643 495.592 6.24506C496.019 5.81616 496.567 5.58978 497.177 5.58978ZM523.89 44.0259C527.298 44.0259 530.117 42.9709 532.27 40.8901C534.445 38.7863 535.503 36.1263 535.503 32.7552C535.503 30.311 534.714 28.4053 533.091 26.9302C531.468 25.4552 529.247 24.7079 526.487 24.7079H514.153C514.142 24.7212 514.128 24.7433 514.113 24.7752L511.804 44.0259H523.89Z" fill="#00E650"/>
<path fill-rule="evenodd" clip-rule="evenodd" d="M484.97 29.5319C484.97 24.6071 483.678 20.189 481.131 16.4006C478.588 12.621 475.008 9.6736 470.488 7.64055C465.999 5.62164 460.799 4.5976 455.029 4.5976C449.104 4.5976 443.597 5.66055 438.659 7.75816C433.702 9.86284 429.588 12.9199 426.432 16.8437C423.264 20.7806 421.318 25.4339 420.644 30.6753C420.475 32.1866 420.39 33.2991 420.39 33.995C420.39 38.6934 421.67 42.7286 424.197 45.9899C426.681 49.2018 429.695 51.7725 433.155 53.6313C436.554 55.461 440.625 57.2288 445.253 58.8842L448.104 59.8782C452.561 61.5053 455.673 62.8778 457.343 63.954C458.857 64.9303 459.594 66.2426 459.594 67.9679C459.594 69.9205 458.759 71.667 457.044 73.3101C455.344 74.9399 452.669 75.7667 449.094 75.7667C444.84 75.7667 441.528 74.8037 439.249 72.9042C437.443 71.4008 436.489 69.7551 436.331 67.8715C436.234 66.6821 435.296 65.7952 434.149 65.7952C434.059 65.7952 433.967 65.8013 433.875 65.8128L433.799 65.8226L416.944 67.9609C415.849 68.0988 415.018 68.999 414.968 70.0991C414.954 70.3733 414.949 70.6147 414.949 70.819C414.949 78.2225 417.729 84.1589 423.215 88.462C428.642 92.7244 436.142 94.8848 445.507 94.8848C455.192 94.8848 463.352 92.4777 469.762 87.7316C476.212 82.9571 479.996 76.3805 481.007 68.1846C481.178 66.6388 481.26 65.5564 481.26 64.8684C481.26 60.0825 479.974 56.103 477.438 53.0406C474.946 50.0348 472.238 47.8196 469.392 46.4551C466.613 45.1268 462.658 43.5324 457.635 41.7151C453.223 40.0774 449.91 38.7695 447.791 37.8286C445.743 36.9221 444.196 35.9529 443.196 34.9492C442.263 34.0145 441.809 32.9321 441.809 31.6383C441.809 29.1375 442.684 27.245 444.483 25.8522C446.319 24.4347 448.868 23.7157 452.062 23.7157C455.954 23.7157 458.957 24.7663 460.984 26.8373C462.633 28.5229 463.49 30.3472 463.603 32.4156C463.667 33.605 464.656 34.5362 465.852 34.5362C465.946 34.5362 466.042 34.53 466.138 34.5177L482.975 32.3829C484.069 32.2441 484.901 31.3447 484.951 30.2455C484.963 29.974 484.97 29.7344 484.97 29.5319Z" fill="#00E650"/>
</svg>
