<svg width="756" height="100" viewBox="0 0 756 100" fill="none" xmlns="http://www.w3.org/2000/svg">
<path fill-rule="evenodd" clip-rule="evenodd" d="M0 5.33531H55.4326C71.205 5.33531 83.99 18.1536 83.99 33.9652C83.99 49.7786 71.205 62.5969 55.4326 62.5969H53.7532V67.6492C53.7532 82.5318 41.7201 94.5953 26.877 94.5953C12.034 94.5953 0 82.5318 0 67.6492V5.33531ZM38.2882 47.0909H55.4335C62.6528 47.0909 68.525 41.2035 68.525 33.9654C68.525 26.7291 62.6528 20.8407 55.4335 20.8407H15.4667V67.6493C15.4667 73.9585 20.5852 79.0902 26.877 79.0902C33.1697 79.0902 38.2882 73.9585 38.2882 67.6493V47.0909Z" fill="white"/>
<path fill-rule="evenodd" clip-rule="evenodd" d="M277.182 5.34689C273.167 5.34689 271.453 7.6525 270.199 10.1448L270.188 10.1662L250.014 46.1725L228.567 9.55523C226.354 5.78372 223.831 5.34689 222.126 5.34689C217.651 5.34689 214.048 9.44982 214.048 12.847C214.048 14.4568 214.543 16.1371 215.443 17.5762L242.116 62.6619V86.6863C242.116 91.6084 245.119 94.6653 249.954 94.6653C254.789 94.6653 257.792 91.6084 257.792 86.6863V62.6414L257.866 62.5145L283.151 18.6517C284.184 16.874 285.14 14.9418 285.14 12.847C285.14 9.06213 281.198 5.34689 277.182 5.34689ZM186.786 5.34679C190.658 5.34679 193.327 7.09945 194.938 10.6878L224.615 83.4418C224.962 84.3083 225.331 85.6777 225.331 86.9265C225.331 91.1938 221.6 94.6652 217.015 94.6652C214.81 94.6652 211.813 93.8148 210.045 89.7672L204.956 76.6554H168.171L163.095 89.5377C161.699 93.0358 159.469 94.6652 156.079 94.6652C151.617 94.6652 148.122 91.477 148.122 87.408C148.122 85.8349 148.524 84.6781 148.791 83.9152L178.708 10.7959C180.128 7.23165 182.922 5.34679 186.786 5.34679ZM186.702 29.625L173.779 62.4216H199.431L186.702 29.625ZM131.561 79.8652H107.955V13.0284C107.955 8.13849 105.116 5.33531 100.163 5.33531C95.2106 5.33531 92.3701 8.13849 92.3701 13.0284V94.5305H131.561C136.361 94.5305 139.114 91.8586 139.114 87.1992C139.114 82.5388 136.361 79.8652 131.561 79.8652Z" fill="white"/>
<path fill-rule="evenodd" clip-rule="evenodd" d="M751.613 16.5663C749.044 12.7486 745.428 9.77136 740.863 7.71778C736.329 5.67848 731.075 4.6441 725.248 4.6441C719.262 4.6441 713.698 5.71779 708.712 7.83658C703.704 9.96252 699.549 13.0505 696.361 17.0138C693.162 20.9906 691.195 25.6909 690.514 30.9852C690.344 32.5118 690.259 33.6355 690.259 34.3385C690.259 39.0843 691.552 43.1602 694.103 46.4545C696.614 49.6988 699.658 52.2955 703.152 54.1731C706.586 56.0213 710.697 57.8069 715.373 59.479L718.253 60.4831C722.754 62.1266 725.898 63.513 727.584 64.6001C729.115 65.5862 729.858 66.9118 729.858 68.6545C729.858 70.6268 729.016 72.391 727.282 74.0507C725.566 75.6969 722.863 76.5321 719.252 76.5321C714.955 76.5321 711.611 75.5594 709.308 73.6407C707.484 72.1221 706.52 70.4598 706.361 68.5572C706.263 67.3558 705.315 66.4598 704.156 66.4598C704.065 66.4598 703.972 66.4661 703.88 66.4777L703.803 66.4875L686.777 68.6474C685.671 68.7867 684.833 69.6961 684.781 70.8073C684.769 71.0842 684.762 71.328 684.762 71.5344C684.762 79.0127 687.571 85.0091 693.111 89.3556C698.594 93.6611 706.17 95.8433 715.629 95.8433C725.412 95.8433 733.655 93.4119 740.129 88.6178C746.644 83.7952 750.466 77.152 751.487 68.8734C751.66 67.312 751.743 66.2186 751.743 65.5237C751.743 60.6894 750.444 56.6698 747.883 53.5764C745.364 50.5403 742.63 48.3027 739.754 46.9244C736.948 45.5827 732.954 43.9722 727.88 42.1366C723.423 40.4823 720.076 39.1611 717.936 38.2107C715.867 37.2951 714.306 36.3161 713.295 35.3023C712.353 34.3581 711.894 33.2648 711.894 31.9579C711.894 29.4318 712.778 27.5203 714.595 26.1134C716.449 24.6815 719.024 23.9553 722.25 23.9553C726.181 23.9553 729.213 25.0165 731.263 27.1085C732.928 28.811 733.793 30.6538 733.907 32.7431C733.973 33.9445 734.971 34.8851 736.18 34.8851C736.275 34.8851 736.372 34.8789 736.469 34.8664L753.476 32.7101C754.581 32.5698 755.419 31.6614 755.471 30.5511C755.484 30.2768 755.491 30.0348 755.491 29.8302C755.491 24.8557 754.186 20.393 751.613 16.5663Z" fill="#FFFF00"/>
<path fill-rule="evenodd" clip-rule="evenodd" d="M687.299 24.4555C687.782 24.0303 688.043 23.4836 688.058 22.8691L689.923 8.03216C690.041 7.39705 689.895 6.81644 689.5 6.35284C689.104 5.89014 688.559 5.64628 687.922 5.64628H624.837C624.222 5.64628 623.668 5.87495 623.236 6.30818C622.836 6.71014 622.576 7.20054 622.466 7.76507L622.459 7.79455L622.456 7.82403L620.711 22.6985C620.592 23.3345 620.738 23.9151 621.135 24.3787C621.528 24.8387 622.073 25.0825 622.713 25.0825H642.915L634.701 92.4561C634.583 93.093 634.73 93.6727 635.127 94.1372C635.518 94.5963 636.065 94.8411 636.703 94.8411H653.943C654.558 94.8411 655.112 94.6124 655.544 94.1792C655.941 93.7799 656.2 93.2922 656.314 92.7258L656.32 92.6973L664.562 25.0825H685.673C686.278 25.0825 686.825 24.8717 687.299 24.4555Z" fill="#FFFF00"/>
<path fill-rule="evenodd" clip-rule="evenodd" d="M555.746 5.64629H591.722C599.223 5.64629 605.245 7.82672 609.62 12.1268C613.998 16.4323 616.219 22.3037 616.219 29.5792C616.219 30.4376 616.136 31.7712 615.962 33.689C615.198 39.3924 613.171 44.4036 609.938 48.5831C606.714 52.7501 602.508 55.8149 597.458 57.6863L609.169 92.0389C609.289 92.3034 609.348 92.6097 609.348 92.951C609.348 93.394 609.186 94.8411 607.087 94.8411H588.975C587.815 94.8411 586.981 94.256 586.622 93.1734L576.527 59.9381C576.511 59.9122 576.496 59.9006 576.483 59.8997H568.613L564.622 92.6669L564.618 92.6973L564.612 92.7259C564.499 93.2922 564.24 93.7799 563.842 94.1792C563.411 94.6124 562.858 94.8411 562.241 94.8411H545.003C544.363 94.8411 543.817 94.5963 543.426 94.1372C543.028 93.6727 542.881 93.0921 543.001 92.4552L553.361 7.86156C553.375 7.24611 553.636 6.69944 554.12 6.27425C554.593 5.85799 555.14 5.64629 555.746 5.64629ZM583.977 42.4671C587.052 42.4671 589.516 41.5515 591.512 39.6685C593.494 37.799 594.458 35.3997 594.458 32.334C594.458 30.0357 593.744 28.276 592.275 26.954C590.801 25.6293 588.766 24.9576 586.225 24.9576H572.86L570.769 42.4671H583.977Z" fill="#FFFF00"/>
<path fill-rule="evenodd" clip-rule="evenodd" d="M378.199 5.64629H413.176C420.921 5.64629 427.171 7.86692 431.753 12.2447C436.343 16.6333 438.672 22.635 438.672 30.0803C438.672 30.9351 438.589 32.3492 438.416 34.4322C437.736 39.9597 435.885 44.9208 432.913 49.1789C429.935 53.4424 426.034 56.7707 421.316 59.0708C416.612 61.3656 411.267 62.5295 405.431 62.5295H390.724L390.723 62.5306C390.713 62.5448 390.699 62.5651 390.684 62.5965L387.075 92.666L387.072 92.6964L387.065 92.7259C386.951 93.2913 386.693 93.7799 386.296 94.1792C385.863 94.6124 385.309 94.8411 384.695 94.8411H367.455C366.816 94.8411 366.269 94.5963 365.878 94.1363C365.481 93.6718 365.334 93.0921 365.454 92.4552L375.819 7.81958L375.822 7.79278L375.828 7.76509C375.939 7.20055 376.198 6.71016 376.598 6.30819C377.03 5.87497 377.583 5.64629 378.199 5.64629ZM405.182 44.4707C408.624 44.4707 411.472 43.405 413.647 41.3032C415.844 39.1781 416.912 36.4912 416.912 33.0862C416.912 30.6172 416.115 28.6923 414.476 27.2023C412.837 25.7124 410.592 24.9576 407.805 24.9576H395.346C395.336 24.971 395.321 24.9933 395.306 25.0255L392.974 44.4707H405.182Z" fill="#FFFF00"/>
<path fill-rule="evenodd" clip-rule="evenodd" d="M365.869 29.8302C365.869 24.8557 364.564 20.393 361.991 16.5663C359.422 12.7486 355.806 9.77136 351.24 7.71778C346.706 5.67848 341.453 4.6441 335.625 4.6441C329.641 4.6441 324.077 5.71779 319.09 7.83658C314.083 9.96252 309.927 13.0505 306.739 17.0138C303.54 20.9906 301.573 25.6909 300.893 30.9852C300.723 32.5118 300.636 33.6355 300.636 34.3385C300.636 39.0843 301.93 43.1602 304.482 46.4545C306.991 49.6988 310.036 52.2955 313.53 54.1731C316.964 56.0213 321.076 57.8069 325.751 59.479L328.63 60.4831C333.132 62.1266 336.276 63.513 337.962 64.6001C339.492 65.5862 340.236 66.9118 340.236 68.6545C340.236 70.6268 339.393 72.391 337.661 74.0507C335.943 75.6969 333.242 76.5321 329.63 76.5321C325.334 76.5321 321.988 75.5594 319.686 73.6407C317.862 72.1221 316.898 70.4598 316.739 68.5572C316.641 67.3558 315.693 66.4598 314.534 66.4598C314.443 66.4598 314.351 66.4661 314.257 66.4777L314.181 66.4875L297.155 68.6474C296.049 68.7867 295.21 69.6961 295.159 70.8073C295.146 71.0842 295.141 71.328 295.141 71.5344C295.141 79.0127 297.949 85.0091 303.49 89.3556C308.972 93.6611 316.548 95.8433 326.007 95.8433C335.79 95.8433 344.032 93.4119 350.507 88.6178C357.022 83.7952 360.844 77.152 361.866 68.8734C362.038 67.312 362.122 66.2186 362.122 65.5237C362.122 60.6894 360.823 56.6698 358.26 53.5764C355.743 50.5403 353.008 48.3027 350.133 46.9244C347.326 45.5827 343.331 43.9722 338.258 42.1366C333.801 40.4823 330.454 39.1611 328.314 38.2107C326.245 37.2951 324.683 36.3161 323.673 35.3023C322.73 34.3581 322.271 33.2648 322.271 31.9579C322.271 29.4318 323.155 27.5203 324.973 26.1134C326.827 24.6815 329.402 23.9553 332.628 23.9553C336.56 23.9553 339.593 25.0165 341.64 27.1085C343.306 28.811 344.171 30.6538 344.285 32.7431C344.35 33.9445 345.349 34.8851 346.557 34.8851C346.653 34.8851 346.75 34.8789 346.847 34.8664L363.854 32.7101C364.958 32.5698 365.799 31.6614 365.849 30.5511C365.862 30.2768 365.869 30.0348 365.869 29.8302Z" fill="#FFFF00"/>
<path d="M482.806 37.6027H480.126C479.974 37.6027 479.894 37.6831 479.894 37.835L478.733 47.3205C478.67 47.4723 478.733 47.5527 478.921 47.5527H481.6C482.708 47.5527 483.654 47.115 484.423 46.2308C485.191 45.3555 485.691 44.1586 485.905 42.6491C485.932 42.399 485.95 42.0507 485.95 41.5863C485.95 40.3537 485.673 39.3801 485.119 38.6745C484.565 37.96 483.797 37.6027 482.806 37.6027ZM460.923 37.2811C459.905 37.2811 459.047 37.6474 458.36 38.3708C457.663 39.0943 457.243 40.0411 457.091 41.2201L455.144 57.2258C455.117 57.4133 455.1 57.6724 455.1 58.0118C455.1 58.9675 455.35 59.7356 455.859 60.2983C456.368 60.8699 457.082 61.1558 458.011 61.1558C459.03 61.1558 459.896 60.7895 460.602 60.0661C461.307 59.3426 461.745 58.3958 461.897 57.2169L463.888 41.2111C463.915 41.0593 463.933 40.845 463.933 40.5591C463.933 39.5409 463.665 38.7371 463.12 38.1565C462.584 37.5759 461.852 37.2811 460.923 37.2811ZM491.711 0C464.103 0 441.711 22.383 441.711 50C441.711 77.6081 464.094 100 491.711 100C519.328 100 541.711 77.6177 541.711 50.0007C541.711 22.3837 519.328 0 491.711 0ZM469.024 41.4434L467.131 56.9847C466.818 59.6374 465.782 61.7631 464.004 63.3708C462.227 64.9786 460.048 65.7735 457.458 65.7735C455.117 65.7735 453.26 65.1125 451.902 63.7817C450.544 62.4598 449.866 60.6556 449.866 58.3691C449.866 58.119 449.892 57.6635 449.955 56.9847L451.848 41.4434C452.152 38.7906 453.197 36.6649 454.974 35.0571C456.752 33.4494 458.931 32.6545 461.522 32.6545C463.862 32.6545 465.719 33.3065 467.077 34.6195C468.435 35.9325 469.114 37.7099 469.114 39.9607C469.114 40.2733 469.087 40.7646 469.024 41.4434ZM491.095 42.5062C490.782 45.284 489.808 47.517 488.156 49.214C486.504 50.911 484.521 51.7595 482.207 51.7595H478.411C478.286 51.7595 478.197 51.8399 478.135 51.9918L476.563 64.8535C476.536 65.0054 476.464 65.1394 476.357 65.2465C476.25 65.3537 476.116 65.4073 475.964 65.4073H471.847C471.507 65.4073 471.338 65.2197 471.338 64.8535L475.223 33.5298C475.223 33.378 475.285 33.244 475.41 33.1368C475.535 33.0297 475.669 32.9761 475.83 32.9761H484.253C486.379 32.9761 488.067 33.6906 489.317 35.1286C490.568 36.5666 491.193 38.4512 491.193 40.8003C491.184 41.5327 491.157 42.1043 491.095 42.5062ZM511.914 37.0936C511.888 37.2454 511.816 37.3794 511.709 37.4866C511.602 37.5938 511.468 37.6474 511.316 37.6474H501.598C501.447 37.6474 501.366 37.7278 501.366 37.8796L500.259 46.6238C500.259 46.7756 500.339 46.856 500.491 46.856H506.225C506.377 46.856 506.502 46.9096 506.591 47.0168C506.681 47.124 506.716 47.2579 506.68 47.4098L506.216 50.9735C506.216 51.1254 506.154 51.2594 506.028 51.3665C505.903 51.4737 505.769 51.5273 505.609 51.5273H499.874C499.723 51.5273 499.642 51.6077 499.642 51.7595L498.535 60.5484C498.535 60.7003 498.615 60.7807 498.767 60.7807H508.44C508.592 60.7807 508.717 60.8342 508.806 60.9414C508.896 61.0486 508.931 61.1826 508.896 61.3344L508.476 64.8535C508.449 65.0054 508.378 65.1394 508.27 65.2465C508.163 65.3537 508.029 65.4073 507.877 65.4073H493.301C492.961 65.4073 492.792 65.2197 492.792 64.8535L496.632 33.5745C496.659 33.4226 496.739 33.2887 496.864 33.1815C496.99 33.0743 497.123 33.0207 497.284 33.0207H511.861C512.013 33.0207 512.138 33.0743 512.227 33.1815C512.316 33.2887 512.352 33.4226 512.316 33.5745L511.914 37.0936ZM530.975 65.2465C530.85 65.3537 530.716 65.4073 530.555 65.4073H525.884C525.571 65.4073 525.392 65.2554 525.33 64.9428L521.07 45.3287C521.043 45.2393 520.98 45.1947 520.909 45.2125C520.828 45.2304 520.793 45.284 520.793 45.3734L518.435 64.8535C518.408 65.0054 518.336 65.1394 518.229 65.2465C518.122 65.3537 517.988 65.4073 517.836 65.4073H513.763C513.424 65.4073 513.254 65.2197 513.254 64.8535L517.095 33.5745C517.122 33.4226 517.202 33.2887 517.327 33.1815C517.452 33.0743 517.586 33.0207 517.747 33.0207H522.329C522.633 33.0207 522.82 33.1725 522.883 33.4851L527.232 52.9654C527.232 53.0547 527.268 53.0993 527.349 53.0814C527.429 53.0636 527.483 53.01 527.509 52.9207L529.867 33.5834C529.894 33.4316 529.966 33.2976 530.073 33.1904C530.18 33.0832 530.314 33.0297 530.466 33.0297H534.539C534.691 33.0297 534.815 33.0832 534.905 33.1904C534.994 33.2976 535.03 33.4316 534.994 33.5834L531.154 64.8624C531.162 65.0053 531.1 65.1394 530.975 65.2465Z" fill="#FFFF00"/>
</svg>
