<svg xmlns="http://www.w3.org/2000/svg" width="24" height="24" fill="none"><path fill="#111" d="m19.778 2.808-15.97 15.97 1.414 1.414 15.97-15.97zm-4.272 12.151a4.9 4.9 0 0 0-2.489-1.342l1.6-1.6a6.9 6.9 0 0 1 2.303 1.528zm2.515-2.515a8.5 8.5 0 0 0-2.228-1.603l1.477-1.477a10.5 10.5 0 0 1 2.166 1.666zm-6.622-2.462 1.94-1.94a10.47 10.47 0 0 0-8.731 2.988l1.414 1.414a8.45 8.45 0 0 1 5.377-2.462m9.137-.053a12 12 0 0 0-2.132-1.7l1.446-1.445a14 14 0 0 1 2.1 1.73z"/><path fill="#111" d="M14.682 6.698 16.31 5.07C11.463 3.52 5.94 4.668 2.093 8.515l1.414 1.414a12.03 12.03 0 0 1 11.175-3.231M12 19.5a2 2 0 1 0 0-4 2 2 0 0 0 0 4"/></svg>