<svg xmlns="http://www.w3.org/2000/svg" width="24" height="24" fill="none"><path fill="#291D18" d="M24 11.973q0-4.969-3.507-8.47C18.13 1.166 15.303 0 11.986 0q-4.932 0-8.48 3.502C1.196 5.837 0 8.661 0 11.972c0 3.313 1.196 6.136 3.506 8.498C5.871 22.833 8.698 24 11.986 24c3.316 0 6.143-1.167 8.507-3.53C22.831 18.108 24 15.285 24 11.973m-11.254-7.48c.19-.326.46-.488.786-.461.73.027 1.46 1.164 2.165 3.356l.784 2.68c.108.595.136 1.082.055 1.515s-.38.811-.84 1.164c-.432.324-.865.514-1.298.54-.488.055-.84-.026-1.11-.27-.297-.217-.406-.595-.352-1.11 0-.27.162-.54.406-.838l.73-.785c.623-.677.813-1.38.542-2.138-.27-.812-.622-1.38-1.082-1.678l-.515-.379a1.6 1.6 0 0 1-.379-.622c-.108-.325-.053-.623.108-.975m6.334 6.71c-.217-.026-.352-.27-.406-.757-.082-.54-.027-.92.19-1.19.189-.244.405-.325.676-.217.27.081.406.298.351.622 0 .27-.108.596-.297.975-.19.379-.38.568-.514.568m1.542.542c-.162-.108-.162-.27-.054-.433h-.46c-.054-.054-.108-.216-.081-.433.027-.27.054-.487.162-.65.108-.215.298-.27.515-.162.189.082.297.27.243.542.162-.082.298-.054.433.162.136.19.136.379 0 .541.162-.054.298 0 .379.217.08.19.027.406-.135.595a.53.53 0 0 1-.38.162c-.135 0-.189-.054-.243-.108-.108-.108-.108-.27.027-.46zm0 .677c.27.351.379.704.352 1.082-.027.92-.514 2.057-1.462 3.491-1.137 1.706-2.002 2.49-2.652 2.355-.325-.081-.487-.27-.568-.596-.109-.297-.054-.568.108-.838a1 1 0 0 1 .514-.38l.596-.107c.595-.082 1.082-.434 1.488-1.029.406-.568.352-1.272-.135-2.084l-.542-.92c-.162-.352-.243-.623-.216-.839.162-.866.704-1.136 1.57-.839.379.163.703.406.947.704m-4.654 1.136c-.082-.27-.055-.46.108-.595.054-.054.162-.054.27 0 .163.054.298.19.406.352.163.297.163.568 0 .785-.135.243-.297.27-.46.08.108.272.054.515-.162.705l-.542.027q0 .527-.405.568c-.244.027-.433-.109-.514-.433-.108-.217-.108-.487-.055-.812.055-.298.108-.487.217-.541.216-.082.379 0 .541.243-.108-.297-.054-.487.108-.54q.326-.164.488.161m-3.032 2.193c-.136-.352-.081-.812.162-1.327.217-.54.46-.757.704-.73.135.027.27.27.378.758.109.46.163.839.109 1.136-.054.352-.27.568-.623.596-.351.054-.622-.081-.73-.433m-9.04-6.09c-.026-.324.11-.54.38-.622.27-.108.487-.027.703.216.19.271.244.65.163 1.191-.081.487-.19.73-.406.758-.108 0-.27-.163-.514-.569q-.285-.567-.325-.974M2.031 11.53c.108-.217.216-.27.433-.217-.136-.162-.136-.351 0-.541.108-.216.27-.244.433-.162-.054-.271 0-.46.216-.542.217-.108.379-.053.514.163.109.162.163.379.19.65 0 .216-.027.378-.108.432h-.433c.054.19.054.352-.055.433l-.46-.027c.136.163.163.325.082.46a.36.36 0 0 1-.27.108.44.44 0 0 1-.353-.162c-.19-.19-.243-.379-.19-.595m9.201-6.062c-.108.243-.243.46-.405.622l-.488.379c-.46.298-.839.866-1.11 1.678-.243.758-.08 1.461.542 2.138l.73.785c.244.297.38.568.407.839.054.514-.055.892-.352 1.11-.27.243-.623.324-1.137.27-.406-.027-.839-.217-1.272-.541-.46-.353-.731-.758-.839-1.164-.081-.433-.054-.947.054-1.516l.785-2.679C8.85 5.196 9.58 4.06 10.31 4.032c.352-.027.596.135.785.46.19.352.216.65.135.975m-2.733 8.47c.162-.243.352-.324.514-.243.135.054.19.243.244.541.054.325.027.595-.027.812-.082.324-.298.46-.569.433s-.379-.216-.379-.568l-.54-.027c-.217-.19-.272-.433-.163-.704q-.285.284-.487-.08c-.136-.218-.109-.489.054-.786l.379-.352c.135-.054.216-.054.27 0 .162.108.19.325.081.595.136-.189.298-.27.46-.162.217.081.271.271.163.541m1.083 1.651q-.081-.406.081-1.136c.135-.487.27-.731.406-.758.244-.027.46.19.677.73.243.542.297.975.162 1.327s-.379.487-.704.433c-.352-.028-.568-.244-.622-.596m-3.87-3.03c.026.216-.028.486-.217.838l-.542.92c-.487.812-.514 1.516-.108 2.084.406.595.893.947 1.435 1.029l.595.108c.216.054.379.19.54.379.163.27.218.541.11.838-.082.326-.271.515-.596.596-.623.136-1.489-.65-2.625-2.355-.948-1.488-1.462-2.652-1.462-3.49-.027-.38.109-.732.352-1.083.244-.298.542-.541.893-.704.974-.324 1.489-.054 1.624.84"/></svg>