<svg width="148" height="149" viewBox="0 0 148 149" fill="none" xmlns="http://www.w3.org/2000/svg">
<path opacity="0.24" d="M116.946 62.9338C116.946 91.6203 93.6906 114.875 65.0041 114.875C36.3175 114.875 13.0625 91.6203 13.0625 62.9338C13.0625 34.2472 36.3175 10.9922 65.0041 10.9922C93.6906 10.9922 116.946 34.2472 116.946 62.9338Z" fill="#00807B"/>
<path fill-rule="evenodd" clip-rule="evenodd" d="M144.327 148.524L89.7886 93.9853L93.4614 90.3125L148 144.851L144.327 148.524Z" fill="#00807B"/>
<path fill-rule="evenodd" clip-rule="evenodd" d="M66.5462 69.6374L40.7099 45.9365L27.6859 60.1339L17.3914 83.5776L31.0513 96.1085L53.5222 83.8348L66.5462 69.6374ZM56.7677 87.9805L30.2791 102.449L11.1411 84.8925L23.2762 57.2572L40.3936 38.5977L73.885 69.321L56.7677 87.9805Z" fill="#004A47"/>
<path fill-rule="evenodd" clip-rule="evenodd" d="M50.7457 86.8635L41.1767 78.0854L44.688 74.2578L54.257 83.0359L50.7457 86.8635Z" fill="#004A47"/>
<path fill-rule="evenodd" clip-rule="evenodd" d="M45.0402 93.0823L35.4712 84.3042L38.9824 80.4766L48.5514 89.2547L45.0402 93.0823Z" fill="#004A47"/>
<path fill-rule="evenodd" clip-rule="evenodd" d="M28.7731 78.1604L19.2041 69.3823L22.7153 65.5547L32.2843 74.3328L28.7731 78.1604Z" fill="#004A47"/>
<path fill-rule="evenodd" clip-rule="evenodd" d="M35.9855 96.2287L29.7656 90.5229L33.2769 86.6953L39.4967 92.4011L35.9855 96.2287Z" fill="#004A47"/>
<path fill-rule="evenodd" clip-rule="evenodd" d="M23.067 84.381L16.8472 78.6752L20.3584 74.8477L26.5782 80.5534L23.067 84.381Z" fill="#004A47"/>
<path fill-rule="evenodd" clip-rule="evenodd" d="M34.4786 71.9416L24.9097 63.1635L28.4209 59.3359L37.9899 68.114L34.4786 71.9416Z" fill="#004A47"/>
<path fill-rule="evenodd" clip-rule="evenodd" d="M56.977 60.8599L49.8002 54.2763L44.0945 60.4962L51.2712 67.0798L56.977 60.8599ZM49.4839 46.9375L36.7556 60.8125L51.5876 74.4186L64.3158 60.5436L49.4839 46.9375Z" fill="#004A47"/>
<path fill-rule="evenodd" clip-rule="evenodd" d="M64.7592 49.4946L60.9316 45.9834L55.2258 52.2032L59.0534 55.7144L64.7592 49.4946ZM60.6152 38.6445L47.887 52.5196L59.3698 63.0533L72.098 49.1783L60.6152 38.6445Z" fill="#004A47"/>
<path fill-rule="evenodd" clip-rule="evenodd" d="M78.5189 48.904L60.3378 32.2256L48.0485 45.6221L66.2295 62.3005L78.5189 48.904ZM60.0215 24.8867L40.7096 45.9385L66.5459 69.6394L85.8577 48.5876L60.0215 24.8867Z" fill="#004A47"/>
<path fill-rule="evenodd" clip-rule="evenodd" d="M8.19793 103.493C9.75425 100.074 13.5697 96.4685 19.2178 92.5039L21.4559 95.6924C15.85 99.6273 12.829 102.722 11.7434 105.107C11.2352 106.223 11.2026 107.071 11.4135 107.773C11.6348 108.51 12.2047 109.35 13.3855 110.271C15.8071 112.159 20.2117 113.936 26.8051 115.634C33.3238 117.313 41.7322 118.857 51.9569 120.411C71.0523 122.687 84.9586 125.236 94.0717 127.801C98.614 129.08 102.076 130.392 104.413 131.734C105.578 132.403 106.57 133.14 107.272 133.972C107.985 134.818 108.504 135.902 108.375 137.151C108.248 138.376 107.54 139.333 106.725 140.039C105.91 140.745 104.836 141.336 103.612 141.848C101.155 142.874 97.6923 143.738 93.3604 144.442C84.6671 145.856 72.0683 146.689 56.0467 146.689H56.0231L55.9995 146.688C49.4243 146.529 45.3331 146.074 39.8593 145.465C37.8282 145.24 35.6067 144.992 32.9973 144.732L33.3849 140.855C36.0874 141.126 38.3533 141.377 40.4015 141.605C45.8017 142.206 49.6882 142.638 56.0704 142.793C71.9815 142.793 84.3388 141.962 92.7352 140.597C96.9502 139.912 100.067 139.107 102.11 138.253C103.136 137.825 103.793 137.424 104.175 137.094C104.363 136.931 104.448 136.818 104.483 136.759C104.459 136.707 104.406 136.616 104.293 136.483C104.001 136.136 103.439 135.667 102.473 135.112C100.55 134.008 97.4492 132.799 93.0163 131.551C84.1838 129.065 70.498 126.543 51.4649 124.276L51.4338 124.272L51.4028 124.267C41.1246 122.706 32.5516 121.137 25.8333 119.407C19.1832 117.694 14.0926 115.762 10.9902 113.343C9.40915 112.11 8.20988 110.648 7.6828 108.895C7.14538 107.107 7.38517 105.278 8.19793 103.493ZM104.502 136.813C104.502 136.813 104.5 136.808 104.499 136.799C104.502 136.809 104.503 136.813 104.502 136.813ZM104.506 136.716C104.507 136.712 104.508 136.71 104.508 136.71C104.508 136.71 104.507 136.712 104.506 136.716Z" fill="#004A47"/>
<path fill-rule="evenodd" clip-rule="evenodd" d="M54.6163 5.79572C27.3641 5.79572 5.2718 27.888 5.2718 55.1402C5.2718 82.3925 27.3641 104.485 54.6163 104.485C81.8685 104.485 103.961 82.3925 103.961 55.1402C103.961 27.888 81.8685 5.79572 54.6163 5.79572ZM0.0776367 55.1402C0.0776367 25.0194 24.4954 0.601562 54.6163 0.601562C84.7372 0.601562 109.155 25.0194 109.155 55.1402C109.155 85.2611 84.7372 109.679 54.6163 109.679C24.4954 109.679 0.0776367 85.2611 0.0776367 55.1402Z" fill="#00807B"/>
<path fill-rule="evenodd" clip-rule="evenodd" d="M29.0827 135.393L34.9288 140.257L34.0069 145.33L27.1483 147.616L20.6637 146.752L22.5846 134.527L29.0827 135.393ZM24.7564 137.437L23.642 144.529L26.8965 144.962L31.7266 143.353L32.1026 141.284L27.9974 137.868L24.7564 137.437Z" fill="#004A47"/>
<path fill-rule="evenodd" clip-rule="evenodd" d="M19.5558 139.149L26.0485 139.799L25.79 142.383L19.2973 141.734L19.5558 139.149Z" fill="#004A47"/>
<path fill-rule="evenodd" clip-rule="evenodd" d="M12.8955 144.801L14.3824 134.184L24.553 135.609L23.0662 146.225L12.8955 144.801ZM15.8277 142.589L20.8544 143.293L21.6208 137.821L16.5941 137.117L15.8277 142.589Z" fill="#004A47"/>
</svg>
