<?xml version="1.0" encoding="UTF-8"?>
<svg width="144px" height="144px" viewBox="0 0 144 144" version="1.1" xmlns="http://www.w3.org/2000/svg" xmlns:xlink="http://www.w3.org/1999/xlink">
    <title>CustomerPricing</title>
    <g id="CustomerPricing" stroke="none" stroke-width="1" fill="none" fill-rule="evenodd">
        <g id="Group-9" transform="translate(1.000000, 4.000000)">
            <g id="Group-6" transform="translate(5.291925, 0.000000)" stroke="#239A98" stroke-width="2">
                <path d="M91.6087104,73.1161757 C87.9583369,71.3137884 83.8509314,70.3014561 79.5079533,70.3014561 C64.3481929,70.3014561 52.058779,82.6362667 52.058779,97.8520268 C52.058779,113.067787 64.3481929,125.402597 79.5079533,125.402597 C94.6677137,125.402597 106.957128,113.067787 106.957128,97.8520268 C106.957128,90.9334735 104.416304,84.6105535 100.220126,79.7720055" id="Path" stroke-linecap="round"></path>
                <path d="M23.637425,83.9020424 L2.85137935,83.890748 C2.18658581,83.8903867 1.64737133,83.3511723 1.6470101,82.6863787 L1.62084768,34.5377712 C1.62084768,33.8729777 2.15911545,33.3347099 2.82390899,33.3347099 L89.755947,33.3819459 C90.0751922,33.3821193 90.3814307,33.5091053 90.6072938,33.7349684 L114.694679,57.8223533 C115.165014,58.2926887 115.165428,59.054839 114.695604,59.5246636 L90.634381,83.5858862 C90.4087633,83.811504 90.1026625,83.9379839 89.7834174,83.9379839 L66.8119386,83.9255019 L66.8119386,83.9255019" id="Path" transform="translate(58.334275, 58.636347) rotate(-45.000000) translate(-58.334275, -58.636347) "></path>
                <ellipse id="Oval" cx="80.4544766" cy="36.1007477" rx="6.62566278" ry="6.65013774"></ellipse>
                <line x1="63.3525223" y1="98.2601338" x2="96.8680503" y2="98.2601338" id="Line" stroke-linecap="round"></line>
            </g>
            <ellipse id="Oval" fill="#F2F2F2" cx="29.5465839" cy="12.8051948" rx="8.37888199" ry="8.38961039"></ellipse>
            <ellipse id="Oval-Copy-5" fill="#D8D8D8" cx="127.447205" cy="64.9090909" rx="2.20496894" ry="2.20779221"></ellipse>
            <ellipse id="Oval-Copy-5" fill="#F2F2F2" cx="138.031056" cy="49.8961039" rx="3.9689441" ry="3.97402597"></ellipse>
            <ellipse id="Oval-Copy-5" fill="#239A98" cx="3.9689441" cy="125.844156" rx="3.9689441" ry="3.97402597"></ellipse>
            <ellipse id="Oval-Copy-5" fill="#D8D8D8" cx="18.0807453" cy="133.792208" rx="2.20496894" ry="2.20779221"></ellipse>
        </g>
    </g>
</svg>