<?xml version="1.0" encoding="UTF-8"?>
<svg width="92px" height="66px" viewBox="0 0 92 66" version="1.1" xmlns="http://www.w3.org/2000/svg" xmlns:xlink="http://www.w3.org/1999/xlink">
    <!-- Generator: Sketch 60 (88103) - https://sketch.com -->
    <title>Illustrations / Flow /  Mobile / Land Phone</title>
    <desc>Created with Sketch.</desc>
    <g id="Illustrations-/-Flow-/--Mobile-/-Land-Phone" stroke="none" stroke-width="1" fill="none" fill-rule="evenodd">
        <g fill="#8C8D8E" fill-rule="nonzero" id="Combined-Shape">
            <path d="M22.8363636,14.75 C23.2505772,14.75 23.5863636,15.0857864 23.5863636,15.5 C23.5863636,15.9142136 23.2505772,16.25 22.8363636,16.25 C19.9354789,16.25 17.5680386,18.5658261 17.4502718,21.5433165 L17.4456842,21.7678431 L13.45,58.8125 C13.45,61.7436563 15.746687,64.130974 18.6198244,64.2456848 L18.8363636,64.25 L23.4386364,64.25 C23.8528499,64.25 24.1886364,64.5857864 24.1886364,65 C24.1886364,65.3796958 23.9064825,65.693491 23.5404069,65.7431534 L23.4386364,65.75 L18.8363636,65.75 C15.1109935,65.75 12.0787192,62.7707153 11.9580429,58.9754925 L11.9543158,58.7321569 L15.95,21.6875 C15.95,17.8574114 19.0317303,14.75 22.8363636,14.75 Z M58.469043,8.35 C58.5201152,8.35 58.5699952,8.35510487 58.6182004,8.36483219 C60.8209187,8.53621581 62.7002495,10.0917918 63.3270973,12.2743335 L63.3874377,12.5023192 L63.8288876,14.3233 C63.8645798,14.4705302 63.8541478,14.6181472 63.8068617,14.7509481 L70.0636364,14.75 C73.7890065,14.75 76.8212808,17.7292847 76.9419571,21.3736565 L76.9456842,21.6071569 L80.95,58.8125 C80.95,62.5627951 77.9953375,65.6202109 74.3004633,65.7459755 L74.0636364,65.75 L29.575,65.75 C29.1607864,65.75 28.825,65.4142136 28.825,65 C28.825,64.6203042 29.1071539,64.306509 29.4732294,64.2568466 L29.575,64.25 L74.0636364,64.25 C76.9645211,64.25 79.3319614,61.9341739 79.4497282,59.1058966 L79.4543158,58.8928431 L75.45,21.6875 C75.45,18.7563437 73.153313,16.369026 70.2801756,16.2543152 L70.0636364,16.25 L26.8363636,16.25 C26.4221501,16.25 26.0863636,15.9142136 26.0863636,15.5 C26.0863636,15.1203042 26.3685175,14.806509 26.7345931,14.7568466 L26.8363636,14.75 L29.0931676,14.7510305 C29.056634,14.6484653 29.0420842,14.5370598 29.0537892,14.4238188 L29.0711124,14.3233 L29.5125623,12.5023192 C30.1032135,10.065883 32.2342802,8.35 34.6864664,8.35 C35.10068,8.35 35.4364664,8.68578644 35.4364664,9.1 C35.4364664,9.51421356 35.10068,9.85 34.6864664,9.85 C32.9986717,9.85 31.51347,10.995516 31.0225273,12.6612465 L30.9703375,12.8557192 L30.5288876,14.6767 L30.505,14.75 L41.694,14.75 L41.6711124,14.6767 L41.2296625,12.8557192 C40.8004766,11.0853271 39.2662435,9.85 37.5135336,9.85 C37.09932,9.85 36.7635336,9.51421356 36.7635336,9.1 C36.7635336,8.68578644 37.09932,8.35 37.5135336,8.35 C39.889089,8.35 41.9632812,9.96031601 42.6275884,12.2760446 L42.6874377,12.5023192 L43.1288876,14.3233 C43.1645798,14.4705302 43.1541478,14.6181472 43.1068617,14.7509481 L48.8931676,14.7510305 C48.856634,14.6484653 48.8420842,14.5370598 48.8537892,14.4238188 L48.8711124,14.3233 L49.3125623,12.5023192 C49.8847556,10.1420217 51.9025928,8.45794635 54.257552,8.35499663 L54.4864664,8.35 L58.469043,8.35 Z M46.45,19.4 C51.1206959,19.4 55.5439982,21.0189724 59.0729895,23.9299434 L59.0729895,23.9299434 L58.4366646,24.7013646 C55.0851989,21.9368297 50.8863241,20.4 46.45,20.4 C36.0394325,20.4 27.6,28.8394325 27.6,39.25 C27.6,49.6605675 36.0394325,58.1 46.45,58.1 C56.8605675,58.1 65.3,49.6605675 65.3,39.25 L65.3,39.25 L66.3,39.25 C66.3,50.2128523 57.4128523,59.1 46.45,59.1 C35.4871477,59.1 26.6,50.2128523 26.6,39.25 C26.6,28.2871477 35.4871477,19.4 46.45,19.4 Z M46.45,23 C55.4246272,23 62.7,30.2753728 62.7,39.25 C62.7,48.2246272 55.4246272,55.5 46.45,55.5 C37.4753728,55.5 30.2,48.2246272 30.2,39.25 C30.2,30.2753728 37.4753728,23 46.45,23 Z M46.45,24 C38.0276576,24 31.2,30.8276576 31.2,39.25 C31.2,47.6723424 38.0276576,54.5 46.45,54.5 C54.8723424,54.5 61.7,47.6723424 61.7,39.25 C61.7,30.8276576 54.8723424,24 46.45,24 Z M46,45.5 C47.7673112,45.5 49.2,46.9326888 49.2,48.7 C49.2,50.4673112 47.7673112,51.9 46,51.9 C44.2326888,51.9 42.8,50.4673112 42.8,48.7 C42.8,46.9326888 44.2326888,45.5 46,45.5 Z M46,46.5 C44.7849736,46.5 43.8,47.4849736 43.8,48.7 C43.8,49.9150264 44.7849736,50.9 46,50.9 C47.2150264,50.9 48.2,49.9150264 48.2,48.7 C48.2,47.4849736 47.2150264,46.5 46,46.5 Z M41.6350559,43.5143318 L41.7673098,43.6388414 L41.88806,43.7661984 C42.9748017,44.9786674 42.934552,46.8418644 41.7673135,48.006136 C40.5590841,49.2112723 38.600694,49.2112723 37.3924637,48.006135 C36.183539,46.8002834 36.183539,44.8446904 37.3924647,43.6388378 C38.5575431,42.4767423 40.420156,42.4352387 41.6350559,43.5143318 Z M54.6075363,43.6388389 C55.816461,44.8446904 55.816461,46.8002834 54.6075353,48.006136 C53.399306,49.2112723 51.4409159,49.2112723 50.2326855,48.006135 C49.065448,46.8418644 49.0251983,44.9786674 50.111941,43.7661974 L50.2326891,43.6388425 L50.3649451,43.5143308 C51.579844,42.4352387 53.4424569,42.4767423 54.6075363,43.6388389 Z M38.098669,44.3468482 C37.2814709,45.161969 37.2814709,46.4830048 38.098668,47.2981245 C38.9165797,48.1139424 40.2431985,48.1139424 41.0611092,47.2981256 C41.8427768,46.5184447 41.8767625,45.2758853 41.1630646,44.4559573 L41.0611067,44.3468507 L40.9516226,44.245067 C40.128802,43.5325736 38.8810185,43.5665019 38.098669,44.3468482 Z M51.0483783,44.2450661 L50.9388922,44.3468518 L50.8369363,44.4559564 C50.1232375,45.2758853 50.1572232,46.5184447 50.9388898,47.2981245 C51.7568015,48.1139424 53.0834203,48.1139424 53.901331,47.2981256 C54.7185291,46.4830048 54.7185291,45.161969 53.901332,44.3468493 C53.1189816,43.5665019 51.871198,43.5325736 51.0483783,44.2450661 Z M55,36.5 C56.7673112,36.5 58.2,37.9326888 58.2,39.7 C58.2,41.4673112 56.7673112,42.9 55,42.9 C53.2326888,42.9 51.8,41.4673112 51.8,39.7 C51.8,37.9326888 53.2326888,36.5 55,36.5 Z M37,36.5 C38.7673112,36.5 40.2,37.9326888 40.2,39.7 C40.2,41.4673112 38.7673112,42.9 37,42.9 C35.2326888,42.9 33.8,41.4673112 33.8,39.7 C33.8,37.9326888 35.2326888,36.5 37,36.5 Z M55,37.5 C53.7849736,37.5 52.8,38.4849736 52.8,39.7 C52.8,40.9150264 53.7849736,41.9 55,41.9 C56.2150264,41.9 57.2,40.9150264 57.2,39.7 C57.2,38.4849736 56.2150264,37.5 55,37.5 Z M37,37.5 C35.7849736,37.5 34.8,38.4849736 34.8,39.7 C34.8,40.9150264 35.7849736,41.9 37,41.9 C38.2150264,41.9 39.2,40.9150264 39.2,39.7 C39.2,38.4849736 38.2150264,37.5 37,37.5 Z M54.4752831,30.7068602 L54.6075371,30.8313698 L54.7282872,30.9587268 C55.815029,32.1711958 55.7747792,34.0343928 54.6075407,35.1986645 C53.3993114,36.4038007 51.4409213,36.4038007 50.2326909,35.1986634 C49.0237662,33.9928118 49.0237662,32.0372188 50.232692,30.8313662 C51.3977704,29.6692707 53.2603832,29.6277672 54.4752831,30.7068602 Z M41.7673091,30.8313673 C42.9762338,32.0372188 42.9762338,33.9928118 41.767308,35.1986645 C40.5590787,36.4038007 38.6006886,36.4038007 37.3924582,35.1986634 C36.2252207,34.0343928 36.184971,32.1711958 37.2717137,30.9587258 L37.3924618,30.8313709 L37.5247179,30.7068592 C38.7396168,29.6277672 40.6022297,29.6692707 41.7673091,30.8313673 Z M50.9388963,31.5393767 C50.1216982,32.3544975 50.1216982,33.6755332 50.9388952,34.4906529 C51.7568069,35.3064708 53.0834257,35.3064708 53.9013364,34.490654 C54.6830041,33.7109732 54.7169897,32.4684138 54.0032919,31.6484858 L53.901334,31.5393791 L53.7918499,31.4375954 C52.9690292,30.7251021 51.7212457,30.7590303 50.9388963,31.5393767 Z M38.208151,31.4375945 L38.098665,31.5393802 L37.9967091,31.6484848 C37.2830103,32.4684138 37.3169959,33.7109731 38.0986625,34.4906529 C38.9165743,35.3064708 40.2431931,35.3064708 41.0611037,34.490654 C41.8783018,33.6755332 41.8783018,32.3544974 41.0611048,31.5393777 C40.2787543,30.7590303 39.0309708,30.7251021 38.208151,31.4375945 Z M80.8181818,0.25 C85.7537858,0.25 89.75,4.31036394 89.744043,9.21881811 L89.744043,9.21881811 L91.75,25.0868421 C91.75,30.0896361 87.7537858,34.15 82.8181818,34.15 C82.4039683,34.15 82.0681818,33.8142136 82.0681818,33.4 C82.0681818,32.9857864 82.4039683,32.65 82.8181818,32.65 C86.9199646,32.65 90.25,29.2665088 90.255957,25.1811819 L90.255957,25.1811819 L88.25,9.31315789 C88.25,5.13349119 84.9199646,1.75 80.8181818,1.75 L80.8181818,1.75 L12.1818182,1.75 C8.08003536,1.75 4.75,5.13349119 4.75,9.31315789 L4.75,9.31315789 L4.73679263,9.45328863 L1.75030353,25.1559339 L1.75640614,25.4038197 C1.91970165,29.4362446 5.18424388,32.65 9.18181818,32.65 L9.18181818,32.65 L12.8718676,32.65 C13.2860812,32.65 13.6218676,32.9857864 13.6218676,33.4 C13.6218676,33.8142136 13.2860812,34.15 12.8718676,34.15 L12.8718676,34.15 L9.18181818,34.15 C4.24621419,34.15 0.25,30.0896361 0.25,25.0868421 L0.25,25.0868421 L0.263207371,24.9467114 L3.25027719,9.2410127 C3.28847634,4.27138605 7.26996124,0.25 12.1818182,0.25 L12.1818182,0.25 Z M46,27.5 C47.7673112,27.5 49.2,28.9326888 49.2,30.7 C49.2,32.4673112 47.7673112,33.9 46,33.9 C44.2326888,33.9 42.8,32.4673112 42.8,30.7 C42.8,28.9326888 44.2326888,27.5 46,27.5 Z M46,28.5 C44.7849736,28.5 43.8,29.4849736 43.8,30.7 C43.8,31.9150264 44.7849736,32.9 46,32.9 C47.2150264,32.9 48.2,31.9150264 48.2,30.7 C48.2,29.4849736 47.2150264,28.5 46,28.5 Z M58.2135336,9.85 L54.4864664,9.85 C52.7986717,9.85 51.31347,10.995516 50.8225273,12.6612465 L50.7703375,12.8557192 L50.3288876,14.6767 L50.305,14.75 L62.394,14.75 L62.3711124,14.6767 L61.9296625,12.8557192 C61.5163723,11.1508972 60.0783745,9.94223969 58.407335,9.85504807 L58.2135336,9.85 Z"></path>
        </g>
    </g>
</svg>