<svg xmlns="http://www.w3.org/2000/svg" width="52" height="52" viewBox="0 0 52 52">
  <g fill="#111" fill-rule="evenodd" transform="translate(2 2)">
    <path fill-rule="nonzero" d="M34,-1.5 L14,-1.5 C5.43958638,-1.5 -1.5,5.43958638 -1.5,14 L-1.5,34 C-1.5,42.5604136 5.43958638,49.5 14,49.5 L34,49.5 C42.5604136,49.5 49.5,42.5604136 49.5,34 L49.5,14 C49.5,5.43958638 42.5604136,-1.5 34,-1.5 Z M14,1.5 L34,1.5 C40.9035594,1.5 46.5,7.09644063 46.5,14 L46.5,34 C46.5,40.9035594 40.9035594,46.5 34,46.5 L14,46.5 C7.09644063,46.5 1.5,40.9035594 1.5,34 L1.5,14 C1.5,7.09644063 7.09644063,1.5 14,1.5 Z"/>
    <rect width="25" height="3" x="11.5" y="22.5" rx=".5" transform="matrix(1 0 0 -1 0 48)"/>
    <rect width="3" height="25" x="22.5" y="11.5" rx=".5" transform="matrix(1 0 0 -1 0 48)"/>
  </g>
</svg>
