<svg xmlns="http://www.w3.org/2000/svg" width="83" height="78" viewBox="0 0 83 78">
  <path fill="#8C8D8E" d="M41.3999999,28.25 C42.9177968,28.25 44.1584778,29.436474 44.2451619,30.932541 L44.25,31.1000001 L44.25,74.8999999 C44.25,76.4177968 43.063526,77.6584778 41.567459,77.7451619 L41.3999999,77.75 L18.6000001,77.75 C17.0822032,77.75 15.8415222,76.563526 15.7548381,75.067459 L15.75,74.8999999 L15.75,45 C15.75,44.5857864 16.0857864,44.25 16.5,44.25 C16.8796958,44.25 17.193491,44.5321539 17.2431534,44.8982294 L17.25,45 L17.25,74.8999999 C17.25,75.6017264 17.7853993,76.1784038 18.4699861,76.2438201 L18.6000001,76.25 L41.3999999,76.25 C42.1017264,76.25 42.6784038,75.7146007 42.7438201,75.0300139 L42.75,74.8999999 L42.75,31.1000001 C42.75,30.3982736 42.2146007,29.8215962 41.5300139,29.7561799 L41.3999999,29.75 L18.6000001,29.75 C17.8982736,29.75 17.3215962,30.2853993 17.2561799,30.9699861 L17.25,31.1000001 L17.25,37 C17.25,37.4142136 16.9142136,37.75 16.5,37.75 C16.1203042,37.75 15.806509,37.4678461 15.7568466,37.1017706 L15.75,37 L15.75,31.1000001 C15.75,29.5822032 16.936474,28.3415222 18.432541,28.2548381 L18.6000001,28.25 L41.3999999,28.25 Z M30,71 C30.8284271,71 31.5,71.6715729 31.5,72.5 C31.5,73.3284271 30.8284271,74 30,74 C29.1715729,74 28.5,73.3284271 28.5,72.5 C28.5,71.6715729 29.1715729,71 30,71 Z M81.9114213,38.1987793 L82.0127602,38.2103786 C82.4201969,38.2849991 82.6899977,38.6757837 82.6153773,39.0832204 C80.7877702,49.0621722 70.1120699,56.3346898 52.990401,56.7328077 L55.5017235,58.9925294 C55.7816167,59.2444333 55.8276887,59.6592488 55.6255672,59.9639047 L55.5574706,60.0517235 C55.3055667,60.3316167 54.8907512,60.3776887 54.5860953,60.1755672 L54.4982765,60.1074706 L50.4982765,56.5074706 C50.2079187,56.2461487 50.1707318,55.8120593 50.3946525,55.5070113 L50.4696699,55.4196699 L54.4696699,51.4196699 C54.7625631,51.1267767 55.2374369,51.1267767 55.5303301,51.4196699 C55.7965966,51.6859365 55.8208027,52.1026002 55.6029482,52.3962117 L55.5303301,52.4803301 L52.7752305,55.237249 C69.3458338,54.9034825 79.4477803,48.0522716 81.1399185,38.8129957 C81.2083206,38.4395121 81.5423883,38.1816808 81.9114213,38.1987793 Z M68.3999999,0.25 C69.9177968,0.25 71.1584778,1.43647403 71.2451619,2.93254099 L71.25,3.10000014 L71.25,32.8999999 C71.25,34.4177968 70.063526,35.6584778 68.567459,35.7451619 L68.3999999,35.75 L53.6000001,35.75 C52.0822032,35.75 50.8415222,34.563526 50.7548381,33.067459 L50.75,32.8999999 L50.75,10 C50.75,9.58578644 51.0857864,9.25 51.5,9.25 C51.8796958,9.25 52.193491,9.53215388 52.2431534,9.89822944 L52.25,10 L52.25,32.8999999 C52.25,33.6017264 52.7853993,34.1784038 53.4699861,34.2438201 L53.6000001,34.25 L68.3999999,34.25 C69.1017264,34.25 69.6784038,33.7146007 69.7438201,33.0300139 L69.75,32.8999999 L69.75,3.10000014 C69.75,2.39827356 69.2146007,1.8215962 68.5300139,1.75617992 L68.3999999,1.75 L53.6000001,1.75 C52.8982736,1.75 52.3215962,2.28539933 52.2561799,2.96998612 L52.25,3.10000014 L52.25,6 C52.25,6.41421356 51.9142136,6.75 51.5,6.75 C51.1203042,6.75 50.806509,6.46784612 50.7568466,6.10177056 L50.75,6 L50.75,3.10000014 C50.75,1.58220323 51.936474,0.341522169 53.432541,0.254838059 L53.6000001,0.25 L68.3999999,0.25 Z M36.5,33.25 C36.9142136,33.25 37.25,33.5857864 37.25,34 C37.25,34.3796958 36.9678461,34.693491 36.6017706,34.7431534 L36.5,34.75 L23.5,34.75 C23.0857864,34.75 22.75,34.4142136 22.75,34 C22.75,33.6203042 23.0321539,33.306509 23.3982294,33.2568466 L23.5,33.25 L36.5,33.25 Z M78.4604555,26.9079858 C80.3097755,28.3463458 81.6476681,30.3687221 82.3348157,32.724543 C82.4508006,33.1221865 82.2224713,33.5385646 81.8248278,33.6545496 C81.4271842,33.7705345 81.0108061,33.5422052 80.8948211,33.1445616 C80.2942917,31.085703 79.1344844,29.332523 77.5395445,28.0920142 C77.2125841,27.8377116 77.1536833,27.3665049 77.4079858,27.0395445 C77.6622884,26.7125841 78.1334951,26.6536833 78.4604555,26.9079858 Z M26.1373388,11.4225741 C26.2224626,11.8279466 25.9628497,12.2255723 25.5574772,12.310696 C18.5634233,13.7793696 12.3012949,16.5382087 8.69257653,19.8598108 C4.97064866,23.2856152 4.27804663,26.9987905 7.07063276,30.8646672 L7.8072517,27.3951987 C7.88546026,27.0268521 8.22166508,26.7795449 8.58656552,26.8022593 L8.69666722,26.8173232 C9.06501377,26.8955318 9.31232102,27.2317366 9.28960662,27.5966371 L9.27454267,27.7067388 L8.15685121,32.9708404 C8.07571863,33.3529585 7.71837964,33.602208 7.34223996,33.560811 L7.22909145,33.5395147 L1.76498983,32.0754131 C1.36489025,31.9682067 1.12745339,31.556954 1.23465974,31.1568544 C1.33212007,30.7931275 1.68085838,30.5638326 2.04406062,30.6056944 L2.1532184,30.6265243 L5.745831,31.5898204 C2.61249284,27.1230885 3.46750924,22.6304825 7.67672986,18.7561552 C11.5114707,15.2265134 18.0128543,12.3622683 25.249217,10.8427125 C25.6545894,10.7575888 26.0522151,11.0172017 26.1373388,11.4225741 Z M61,29 C61.8284271,29 62.5,29.6715729 62.5,30.5 C62.5,31.3284271 61.8284271,32 61,32 C60.1715729,32 59.5,31.3284271 59.5,30.5 C59.5,29.6715729 60.1715729,29 61,29 Z M43.7155109,10.7816303 C44.1122556,10.9006537 44.3373931,11.3187663 44.2183697,11.7155109 C44.0993463,12.1122556 43.6812337,12.3373931 43.2844891,12.2183697 C40.8879972,11.4994221 37.9337872,11.1697461 34.647165,11.236547 C34.2330369,11.2449642 33.8904964,10.9160705 33.8820792,10.5019425 C33.873662,10.0878145 34.2025556,9.74527389 34.6166837,9.7368567 C38.049391,9.66708665 41.1559612,10.0137654 43.7155109,10.7816303 Z M64.5,4.25 C64.9142136,4.25 65.25,4.58578644 65.25,5 C65.25,5.37969577 64.9678461,5.69349096 64.6017706,5.74315338 L64.5,5.75 L57.5,5.75 C57.0857864,5.75 56.75,5.41421356 56.75,5 C56.75,4.62030423 57.0321539,4.30650904 57.3982294,4.25684662 L57.5,4.25 L64.5,4.25 Z"/>
</svg>
