<?xml version="1.0" encoding="UTF-8"?>
<svg width="350px" height="246px" viewBox="0 0 350 246" version="1.1" xmlns="http://www.w3.org/2000/svg" xmlns:xlink="http://www.w3.org/1999/xlink">
    <!-- Generator: Sketch 60 (88103) - https://sketch.com -->
    <title>Illustration / Flow / Desktop / Activate TV</title>
    <desc>Created with Sketch.</desc>
    <g id="Illustration-/-Flow-/-Desktop-/-Activate-TV" stroke="none" stroke-width="1" fill="none" fill-rule="evenodd">
        <g id="Illustrations-/-Flows-/-Desktop-/-Computer-Active" fill="#C5C6C6">
            <path d="M299,24 C305.627417,24 311,29.372583 311,36 L311,188.8 C311,195.427417 305.627417,200.8 299,200.8 L38,200.8 C31.372583,200.8 26,195.427417 26,188.8 L26,36 C26,29.372583 31.372583,24 38,24 L299,24 Z M299,26 L38,26 C32.4771525,26 28,30.4771525 28,36 L28,188.8 C28,194.322847 32.4771525,198.8 38,198.8 L299,198.8 C304.522847,198.8 309,194.322847 309,188.8 L309,36 C309,30.4771525 304.522847,26 299,26 Z M339,100 C340.656854,100 342,101.343146 342,103 C342,104.656854 340.656854,106 339,106 C337.343146,106 336,104.656854 336,103 C336,101.343146 337.343146,100 339,100 Z M4,44 C6.209139,44 8,45.790861 8,48 C8,50.209139 6.209139,52 4,52 C1.790861,52 0,50.209139 0,48 C0,45.790861 1.790861,44 4,44 Z M54,0 C57.8659932,0 61,3.13400675 61,7 C61,10.8659932 57.8659932,14 54,14 C50.1340068,14 47,10.8659932 47,7 C47,3.13400675 50.1340068,0 54,0 Z" id="Combined-Shape"></path>
            <path d="M258.696983,210.85 C260.353837,210.85 261.696983,212.193146 261.696983,213.85 C261.696983,214.070441 261.672686,214.29021 261.624533,214.505326 L255.799161,240.529095 C255.083363,243.72679 252.245043,246 248.968212,246 L88.031788,246 C84.7549575,246 81.9166367,243.72679 81.2008387,240.529095 L75.3754673,214.505326 C75.0135405,212.888485 76.0308495,211.284377 77.6476905,210.92245 C77.8628074,210.874297 78.0825764,210.85 78.303017,210.85 L258.696983,210.85 Z M258.696983,212.85 L78.303017,212.85 C78.2295368,212.85 78.1562805,212.858099 78.0845748,212.87415 C77.5456278,212.994792 77.2065248,213.529495 77.3271671,214.068442 L83.1525385,240.092211 C83.6638228,242.376278 85.6911948,244 88.031788,244 L248.968212,244 C251.308805,244 253.336177,242.376278 253.847461,240.092211 L259.672833,214.068442 C259.688884,213.996737 259.696983,213.92348 259.696983,213.85 C259.696983,213.297715 259.249268,212.85 258.696983,212.85 Z M239.058252,224.28125 C241.350502,224.28125 243.208738,226.13647 243.208738,228.425 C243.208738,230.71353 241.350502,232.56875 239.058252,232.56875 C236.766003,232.56875 234.907767,230.71353 234.907767,228.425 C234.907767,226.13647 236.766003,224.28125 239.058252,224.28125 Z M149.131068,227.425 C149.683353,227.425 150.131068,227.872715 150.131068,228.425 C150.131068,228.977285 149.683353,229.425 149.131068,229.425 L149.131068,229.425 L93.7912621,229.425 C93.2389774,229.425 92.7912621,228.977285 92.7912621,228.425 C92.7912621,227.872715 93.2389774,227.425 93.7912621,227.425 L93.7912621,227.425 Z M168.5,173.175 C171.556333,173.175 174.033981,175.648627 174.033981,178.7 C174.033981,181.751373 171.556333,184.225 168.5,184.225 C165.443667,184.225 162.966019,181.751373 162.966019,178.7 C162.966019,175.648627 165.443667,173.175 168.5,173.175 Z M347,116 C348.656854,116 350,117.343146 350,119 C350,120.656854 348.656854,122 347,122 C345.343146,122 344,120.656854 344,119 C344,117.343146 345.343146,116 347,116 Z" id="Combined-Shape"></path>
        </g>
    </g>
</svg>