<?xml version="1.0" encoding="UTF-8"?>
<svg width="176px" height="127px" viewBox="0 0 176 127" version="1.1" xmlns="http://www.w3.org/2000/svg" xmlns:xlink="http://www.w3.org/1999/xlink">
    <!-- Generator: Sketch 60 (88103) - https://sketch.com -->
    <title>Illustrations / Flow / Mobile / Check TV</title>
    <desc>Created with Sketch.</desc>
    <g id="Illustrations-/-Flow-/-Mobile-/-Check-TV" stroke="none" stroke-width="1" fill="none" fill-rule="evenodd">
        <path d="M120.844621,115 C121.858736,115 122.680839,115.820811 122.680839,116.833333 C122.680839,117.845855 121.858736,118.666667 120.844621,118.666667 C119.830506,118.666667 119.008403,117.845855 119.008403,116.833333 C119.008403,115.820811 119.830506,115 120.844621,115 Z M146,16 C152.627417,16 158,21.372583 158,28 L158,93.9555556 C158,100.582973 152.627417,105.955556 146,105.955556 L25,105.955556 C18.372583,105.955556 13,100.582973 13,93.9555556 L13,28 C13,21.372583 18.372583,16 25,16 L146,16 Z M146,17 L25,17 C18.9248678,17 14,21.9248678 14,28 L14,93.9555556 C14,100.030688 18.9248678,104.955556 25,104.955556 L146,104.955556 C152.075132,104.955556 157,100.030688 157,93.9555556 L157,28 C157,21.9248678 152.075132,17 146,17 Z M169,61 C169.552285,61 170,61.4477153 170,62 C170,62.5522847 169.552285,63 169,63 C168.447715,63 168,62.5522847 168,62 C168,61.4477153 168.447715,61 169,61 Z M2.5,26 C3.88071187,26 5,27.1192881 5,28.5 C5,29.8807119 3.88071187,31 2.5,31 C1.11928813,31 0,29.8807119 0,28.5 C0,27.1192881 1.11928813,26 2.5,26 Z M32,0 C34.209139,0 36,1.790861 36,4 C36,6.209139 34.209139,8 32,8 C29.790861,8 28,6.209139 28,4 C28,1.790861 29.790861,0 32,0 Z" id="Combined-Shape" fill="#239A98"></path>
        <path d="M129.615394,108.522222 C131.297774,108.522222 132.661613,109.890241 132.661613,111.577778 C132.661613,111.802957 132.636797,112.027445 132.587618,112.247155 L130.761137,120.407046 C129.94934,124.03379 126.739029,126.611111 123.033354,126.611111 L47.9666455,126.611111 C44.2609714,126.611111 41.0506604,124.03379 40.2388629,120.407046 L38.4123816,112.247155 C38.0438246,110.600609 39.0757603,108.96613 40.7172743,108.596443 C40.936312,108.547114 41.1601149,108.522222 41.3846057,108.522222 L129.615394,108.522222 Z M129.615394,109.744444 L41.3846057,109.744444 C41.2499112,109.744444 41.1156295,109.759379 40.9842068,109.788977 C39.9992984,110.010789 39.380137,110.991477 39.6012712,111.979404 L41.4277526,120.139296 C42.1146581,123.208079 44.8310751,125.388889 47.9666455,125.388889 L123.033354,125.388889 C126.168925,125.388889 128.885342,123.208079 129.572247,120.139296 L131.398729,111.979404 C131.428236,111.847578 131.443125,111.712885 131.443125,111.577778 C131.443125,110.565256 130.624822,109.744444 129.615394,109.744444 Z M75.2729869,117.045833 C75.6872004,117.045833 76.0229869,117.38162 76.0229869,117.795833 C76.0229869,118.210047 75.6872004,118.545833 75.2729869,118.545833 L75.2729869,118.545833 L47.1176471,118.545833 C46.7034335,118.545833 46.3676471,118.210047 46.3676471,117.795833 C46.3676471,117.38162 46.7034335,117.045833 47.1176471,117.045833 L47.1176471,117.045833 Z M84.9020719,91.7777778 C86.2542254,91.7777778 87.3503623,92.8721928 87.3503623,94.2222222 C87.3503623,95.5722516 86.2542254,96.6666667 84.9020719,96.6666667 C83.5499185,96.6666667 82.4537815,95.5722516 82.4537815,94.2222222 C82.4537815,92.8721928 83.5499185,91.7777778 84.9020719,91.7777778 Z M174,70 C175.104569,70 176,70.8954305 176,72 C176,73.1045695 175.104569,74 174,74 C172.895431,74 172,73.1045695 172,72 C172,70.8954305 172.895431,70 174,70 Z" id="Oval-2" fill="#C5C6C6"></path>
    </g>
</svg>