<?xml version="1.0" encoding="UTF-8"?>
<svg width="196px" height="121px" viewBox="0 0 196 121" version="1.1" xmlns="http://www.w3.org/2000/svg" xmlns:xlink="http://www.w3.org/1999/xlink">
    <!-- Generator: Sketch 59 (86127) - https://sketch.com -->
    <title>Illustrations / M / Small / Delete Bundle</title>
    <desc>Created with Sketch.</desc>
    <defs>
        <filter x="-37.5%" y="-37.5%" width="175.0%" height="175.0%" filterUnits="objectBoundingBox" id="filter-1">
            <feGaussianBlur stdDeviation="1" in="SourceGraphic"></feGaussianBlur>
        </filter>
        <filter x="0.0%" y="0.0%" width="100.0%" height="100.0%" filterUnits="objectBoundingBox" id="filter-2">
            <feGaussianBlur stdDeviation="0" in="SourceGraphic"></feGaussianBlur>
        </filter>
        <filter x="-37.5%" y="-37.5%" width="175.0%" height="175.0%" filterUnits="objectBoundingBox" id="filter-3">
            <feGaussianBlur stdDeviation="1" in="SourceGraphic"></feGaussianBlur>
        </filter>
    </defs>
    <g id="09---Consult-Bundle-Usage" stroke="none" stroke-width="1" fill="none" fill-rule="evenodd">
        <g id="Illustrations-/-M-/-Small-/-Delete-Bundle" transform="translate(2.000000, -4.000000)">
            <g id="Group">
                <path d="M113.865696,55.8291232 L68.6629509,55.8284271 L68.6629509,116.828427 C68.6629509,119.589851 70.9015272,121.828427 73.6629509,121.828427 L117.662951,121.828427 C120.424375,121.828427 122.662951,119.589851 122.662951,116.828427 L122.663085,59.7932725 C122.993342,59.8165773 123.326763,59.8284271 123.662951,59.8284271 C124.342285,59.8284271 125.010319,59.7800416 125.663793,59.6865289 L125.662951,116.828427 C125.662951,121.246705 122.081229,124.828427 117.662951,124.828427 L73.6629509,124.828427 C69.2446729,124.828427 65.6629509,121.246705 65.6629509,116.828427 L65.6629509,52.8284271 L111.536072,52.8287223 C112.174949,53.9330873 112.960351,54.9420821 113.865696,55.8291232 Z" id="Combined-Shape" fill="#D9415C" fill-rule="nonzero"></path>
                <line x1="47.4411255" y1="33.1066017" x2="124.441125" y2="33.1066017" id="Line-5-Copy-2" stroke="#D9415C" stroke-width="3" stroke-linecap="round" transform="translate(85.941125, 33.106602) rotate(-45.000000) translate(-85.941125, -33.106602) "></line>
                <path d="M52.7236111,34.9246212 L109.723611,34.9246212 L109.723611,27.4246212 C109.723611,23.8347703 106.813462,20.9246212 103.223611,20.9246212 L59.2236111,20.9246212 C55.6337602,20.9246212 52.7236111,23.8347703 52.7236111,27.4246212 L52.7236111,34.9246212 Z" id="Rectangle-Copy-7" stroke="#D9415C" stroke-width="3" transform="translate(81.223611, 27.924621) rotate(-45.000000) translate(-81.223611, -27.924621) "></path>
                <path d="M83.8345238,22.5 C83.8345238,17.8055796 80.0289442,14 75.3345238,14 C70.6401034,14 66.8345238,17.8055796 66.8345238,22.5" id="Shape-Copy-2" stroke="#D9415C" stroke-width="3" transform="translate(75.334524, 22.500000) rotate(-45.000000) translate(-75.334524, -22.500000) "></path>
                <line x1="75.6629509" y1="114.828427" x2="75.6629509" y2="80.8284271" id="Line-6-Copy-13" stroke="#D9415C" stroke-width="2" stroke-linecap="round"></line>
                <line x1="115.662951" y1="114.828427" x2="115.662951" y2="106.828427" id="Line-6-Copy-14" stroke="#D9415C" stroke-width="2" stroke-linecap="round"></line>
                <line x1="85.6629509" y1="114.828427" x2="85.6629509" y2="87.8284271" id="Line-6-Copy-15" stroke="#D9415C" stroke-width="2" stroke-linecap="round"></line>
                <line x1="105.662951" y1="114.828427" x2="105.662951" y2="87.8284271" id="Line-6-Copy-16" stroke="#D9415C" stroke-width="2" stroke-linecap="round"></line>
                <line x1="85.6629509" y1="80.8284271" x2="85.6629509" y2="77.8284271" id="Line-6-Copy-17" stroke="#D9415C" stroke-width="2" stroke-linecap="round"></line>
                <line x1="95.6629509" y1="87.8284271" x2="95.6629509" y2="77.8284271" id="Line-6-Copy-18" stroke="#D9415C" stroke-width="2" stroke-linecap="round"></line>
                <line x1="95.6629509" y1="114.828427" x2="95.6629509" y2="104.828427" id="Line-6-Copy-19" stroke="#D9415C" stroke-width="2" stroke-linecap="round"></line>
                <path d="M129.398859,33.0535963 C127.648336,32.2663937 125.70679,31.8284271 123.662951,31.8284271 C115.930964,31.8284271 109.662951,38.0964406 109.662951,45.8284271 C109.662951,53.5604136 115.930964,59.8284271 123.662951,59.8284271 C131.394937,59.8284271 137.662951,53.5604136 137.662951,45.8284271" id="Path" stroke="#D9415C" stroke-width="3"></path>
                <line x1="68.0771645" y1="42.7426407" x2="68.0771645" y2="39.7426407" id="Line-6-Copy-20" stroke="#D9415C" stroke-width="2" stroke-linecap="round" transform="translate(68.077164, 41.242641) rotate(-315.000000) translate(-68.077164, -41.242641) "></line>
                <path d="M109.662951,47.0487767 C114.061874,44.0883106 118.883317,44.0883106 124.127281,47.0487767 C128.700701,49.6306888 132.717297,49.4032275 136.177069,46.3663928" id="Path-2-Copy-3" stroke="#D9415C" stroke-width="2"></path>
                <line x1="75.6629509" y1="62.8284271" x2="103.662951" y2="62.8284271" id="Line-7-Copy-2" stroke="#D9415C" stroke-width="2" stroke-linecap="round"></line>
                <circle id="Oval-Copy-10" stroke="#D9415C" stroke-width="2" cx="138.662951" cy="36.8284271" r="10"></circle>
                <line x1="138.662951" y1="31.3284271" x2="138.662951" y2="37.8284271" id="Line-8-Copy" stroke="#D9415C" stroke-width="2" stroke-linecap="square"></line>
                <line x1="138.662951" y1="41.8284271" x2="138.662951" y2="42.3284271" id="Line-8-Copy-2" stroke="#D9415C" stroke-width="2" stroke-linecap="square"></line>
                <circle id="Oval-2-Copy-10" fill="#D9415C" fill-rule="nonzero" filter="url(#filter-1)" cx="188" cy="73.7010101" r="4"></circle>
                <circle id="Oval-2-Copy-3" fill="#D9415C" fill-rule="nonzero" filter="url(#filter-2)" cx="20" cy="86.7010101" r="6"></circle>
                <circle id="Oval-2-Copy-4" fill="#D9415C" fill-rule="nonzero" opacity="0.5" filter="url(#filter-3)" cx="4" cy="54.7010101" r="4"></circle>
                <circle id="Oval-2-Copy-11" fill="#D9415C" fill-rule="nonzero" cx="161" cy="104.70101" r="4"></circle>
            </g>
        </g>
    </g>
</svg>