<svg width="167" height="202" viewBox="0 0 167 202" fill="none" xmlns="http://www.w3.org/2000/svg">
<path d="M793.21 -480.089C784.815 -548.297 732.347 -601.815 664.138 -610.21C664.138 -610.21 555.004 -627 395.5 -627C235.996 -627 126.862 -610.21 126.862 -610.21C58.6532 -601.815 6.18481 -548.297 -2.21013 -480.089C-2.21013 -480.089 -19 -357.313 -19 -212.5C-19 -67.6874 -2.21013 55.0886 -2.21013 55.0886C6.18481 123.297 58.6532 176.815 126.862 185.21C126.862 185.21 235.996 202 395.5 202C555.004 202 664.138 185.21 664.138 185.21C732.347 176.815 785.865 123.297 793.21 55.0886C793.21 55.0886 810 -67.6874 810 -212.5C810 -357.313 793.21 -480.089 793.21 -480.089ZM684.076 -18.3671C677.78 30.9531 640.003 69.7797 590.682 76.0759C590.682 76.0759 511.98 88.6683 395.5 88.6683C279.02 88.6683 200.318 76.0759 200.318 76.0759C150.997 69.7797 112.171 32.0025 106.924 -18.3671C106.924 -18.3671 94.3316 -106.514 94.3316 -212.5C94.3316 -317.437 106.924 -406.633 106.924 -406.633C113.22 -455.953 150.997 -494.78 200.318 -501.076C200.318 -501.076 279.02 -513.668 395.5 -513.668C511.98 -513.668 590.682 -501.076 590.682 -501.076C640.003 -494.78 678.829 -457.003 684.076 -406.633C684.076 -406.633 696.668 -318.486 696.668 -212.5C695.619 -107.563 684.076 -18.3671 684.076 -18.3671Z" fill="url(#paint0_linear_644_29463)" fill-opacity="0.32"/>
<defs>
<linearGradient id="paint0_linear_644_29463" x1="18" y1="171" x2="142" y2="21" gradientUnits="userSpaceOnUse">
<stop stop-color="white"/>
<stop offset="1" stop-color="white" stop-opacity="0"/>
</linearGradient>
</defs>
</svg>
