<svg width="410" height="200" viewBox="0 0 410 200" fill="none" xmlns="http://www.w3.org/2000/svg">
<circle cx="215.5" cy="97" r="87" fill="#E5CFC7"/>
<path d="M251.73 13.5984C237.878 4.76446 221.79 0 205 0C156.938 0 117.977 38.9618 117.977 87.0236C117.977 135.085 156.938 174.047 205 174.047C253.062 174.047 292.024 135.085 292.024 87.0236C292.024 64.4077 283.358 43.1489 268.09 27.0834C267.509 26.4722 266.543 26.4476 265.932 27.0285C265.32 27.6094 265.296 28.5757 265.877 29.1869C280.611 44.6904 288.97 65.1986 288.97 87.0236C288.97 133.399 251.376 170.994 205 170.994C158.625 170.994 121.03 133.399 121.03 87.0236C121.03 40.6482 158.625 3.05346 205 3.05346C221.204 3.05346 236.724 7.64947 250.089 16.1729C250.8 16.6263 251.743 16.4175 252.197 15.7066C252.65 14.9957 252.441 14.0518 251.73 13.5984Z" fill="#291D18"/>
<path d="M191.259 138.931L218.74 138.931L218.74 157.252L191.259 157.252L191.259 138.931Z" stroke="#291D18" stroke-width="2"/>
<path d="M176.181 78.9897C176.078 76.712 177.897 74.809 180.177 74.809L229.823 74.809C232.103 74.809 233.922 76.712 233.819 78.9897L231.28 135.112C231.183 137.249 229.423 138.932 227.284 138.932L182.716 138.932C180.577 138.932 178.817 137.249 178.72 135.112L176.181 78.9897Z" stroke="#291D18" stroke-width="2"/>
<path d="M205 73.2812V27.4793" stroke="#291D18" stroke-width="2" stroke-linecap="square"/>
<path d="M192.787 73.2812V61.0674L188.207 56.4872" stroke="#291D18" stroke-width="2" stroke-linecap="square"/>
<path d="M217.214 73.2812V61.0674L221.794 56.4872" stroke="#291D18" stroke-width="2" stroke-linecap="square"/>
<path d="M198.893 73.2812V42.7466L194.312 38.1665" stroke="#291D18" stroke-width="2" stroke-linecap="square"/>
<path d="M211.108 73.2812V42.7466L215.688 38.1665" stroke="#291D18" stroke-width="2" stroke-linecap="square"/>
<line x1="205.527" y1="199.001" x2="205.527" y2="158.253" stroke="#291D18" stroke-width="2" stroke-linecap="round"/>
<circle cx="183.627" cy="51.9083" r="4.58019" stroke="#291D18" stroke-width="2"/>
<circle cx="226.375" cy="51.9083" r="4.58019" stroke="#291D18" stroke-width="2"/>
<path d="M194.314 33.587C194.314 36.1166 192.264 38.1672 189.734 38.1672C187.204 38.1672 185.154 36.1166 185.154 33.587C185.154 31.0575 187.204 29.0068 189.734 29.0068C192.264 29.0068 194.314 31.0575 194.314 33.587Z" stroke="#291D18" stroke-width="2"/>
<path d="M224.848 33.587C224.848 36.1166 222.798 38.1672 220.268 38.1672C217.739 38.1672 215.688 36.1166 215.688 33.587C215.688 31.0575 217.739 29.0068 220.268 29.0068C222.798 29.0068 224.848 31.0575 224.848 33.587Z" stroke="#291D18" stroke-width="2"/>
<circle cx="205.002" cy="21.3732" r="4.58019" stroke="#291D18" stroke-width="2"/>
</svg>
