<?xml version="1.0" encoding="UTF-8"?>
<svg width="199px" height="254px" viewBox="0 0 199 254" version="1.1" xmlns="http://www.w3.org/2000/svg" xmlns:xlink="http://www.w3.org/1999/xlink">
    <!-- Generator: Sketch 60 (88103) - https://sketch.com -->
    <title>Illustration / Flow / Mobile / Internet Modem Check / Sett up</title>
    <desc>Created with Sketch.</desc>
    <defs>
        <polygon id="path-1" points="8.29268293e-06 0.00945985401 16.9910854 0.00945985401 16.9910854 17.9562044 8.29268293e-06 17.9562044"></polygon>
    </defs>
    <g id="Illustration-/-Flow-/-Mobile-/-Internet-Modem-Check-/-Sett-up" stroke="none" stroke-width="1" fill="none" fill-rule="evenodd">
        <g id="Group">
            <g id="Internet-Modem" transform="translate(53.000000, 89.000000)">
                <g id="Group-Copy">
                    <path d="M0.75,19.7773973 L0.75,6.78082192 C0.75,3.40058555 2.50120707,0.75 4.48,0.75 L51.52,0.75 C53.4987929,0.75 55.25,3.40058555 55.25,6.78082192 L55.25,158.219178 C55.25,161.599414 53.4987929,164.25 51.52,164.25 L4.48,164.25 C2.50120707,164.25 0.75,161.599414 0.75,158.219178 L0.75,27.2491037 C0.75,26.8348901 0.414213562,26.4991037 0,26.4991037 C-0.414213562,26.4991037 -0.75,26.8348901 -0.75,27.2491037 L-0.75,158.219178 C-0.75,162.328831 1.51032157,165.75 4.48,165.75 L51.52,165.75 C54.4896784,165.75 56.75,162.328831 56.75,158.219178 L56.75,6.78082192 C56.75,2.67116921 54.4896784,-0.75 51.52,-0.75 L4.48,-0.75 C1.51032157,-0.75 -0.75,2.67116921 -0.75,6.78082192 L-0.75,19.7773973 C-0.75,20.1916108 -0.414213562,20.5273973 0,20.5273973 C0.414213562,20.5273973 0.75,20.1916108 0.75,19.7773973 Z" id="Path-Copy" fill="#C5C6C6" fill-rule="nonzero"></path>
                    <path d="M28,134 C30.209139,134 32,135.790861 32,138 L32,150 C32,152.209139 30.209139,154 28,154 C25.790861,154 24,152.209139 24,150 L24,138 C24,135.790861 25.790861,134 28,134 Z" id="Rectangle" stroke="#979797" stroke-linecap="round" transform="translate(28.000000, 144.000000) rotate(-270.000000) translate(-28.000000, -144.000000) "></path>
                    <g id="smilie" transform="translate(20.000000, 15.000000)">
                        <g id="Group-3">
                            <mask id="mask-2" fill="white">
                                <use xlink:href="#path-1"></use>
                            </mask>
                            <g id="Clip-2"></g>
                            <path d="M14.3987595,13.167854 C14.2756546,14.239927 13.4931985,15.0837372 12.4781741,15.2133285 C12.4781741,15.2133285 10.8669059,15.4771533 8.49548878,15.4771533 C6.12390585,15.4771533 4.51280341,15.2133285 4.51280341,15.2133285 C3.49786195,15.0837372 2.71553024,14.239927 2.59217659,13.167854 C2.59217659,13.1675912 2.34704488,11.2559124 2.34704488,8.98265693 C2.34704488,6.70940146 2.59217659,4.79776642 2.59217659,4.79745985 C2.71553024,3.72564964 3.49786195,2.88183942 4.51280341,2.75251095 C4.51280341,2.75251095 6.12390585,2.48842336 8.49548878,2.48842336 C10.8669059,2.48842336 12.4781741,2.75251095 12.4781741,2.75251095 C13.4931985,2.88183942 14.2756546,3.72564964 14.3987595,4.79745985 C14.3987595,4.79776642 14.6443059,6.70940146 14.6443059,8.98265693 C14.6443059,11.2559124 14.3987595,13.1675912 14.3987595,13.167854 M16.6521717,3.19992701 C16.4819229,1.7190219 15.4009717,0.552832117 13.9982229,0.374145985 C13.9982229,0.374145985 11.772218,0.00945985401 8.49548878,0.00945985401 C5.21871805,0.00945985401 2.99254732,0.374145985 2.99254732,0.374145985 C1.59008878,0.552832117 0.509054634,1.7190219 0.33888878,3.19992701 C0.33876439,3.20018978 8.29268293e-06,5.84194161 8.29268293e-06,8.98265693 C8.29268293e-06,12.123635 0.33876439,14.7652555 0.33888878,14.7655182 C0.509054634,16.2465547 1.59008878,17.4125255 2.99254732,17.5914745 C2.99254732,17.5914745 5.21871805,17.9562044 8.49548878,17.9562044 C11.772218,17.9562044 13.9982229,17.5914745 13.9982229,17.5914745 C15.4009717,17.4125255 16.4819229,16.2465547 16.6521717,14.7655182 C16.6521717,14.7652555 16.9910937,12.123635 16.9910937,8.98265693 C16.9910937,5.84194161 16.6521717,3.20018978 16.6521717,3.19992701" id="Fill-1" fill="#C5C6C6" mask="url(#mask-2)"></path>
                        </g>
                        <path d="M9.45918805,7.53719818 C9.81445662,7.49824254 10.1619743,7.48128933 10.5768253,7.48716481 C10.9784402,7.49380533 11.401996,7.52361114 11.7772578,7.57679646 C11.7772578,7.57679646 11.9,7.59934973 11.9,7.49839554 L11.9,6.84686005 C11.9,6.78712602 11.8015837,6.76839793 11.8015837,6.76839793 C11.3903498,6.68528439 10.9827727,6.63883139 10.5797667,6.63216027 C10.2000927,6.62701923 9.82177027,6.6559682 9.44400427,6.71937441 C9.44400427,6.71937441 9.35,6.74183587 9.35,6.8057317 L9.35,7.45016766 C9.35,7.56978873 9.45918805,7.53719818 9.45918805,7.53719818" id="Fill-4" fill="#C5C6C6"></path>
                        <path d="M6.375,7.57894737 C6.375,7.57894737 7.65,7.57760629 7.65,6.63126132 C7.65,5.6855869 6.375,5.68421053 6.375,5.68421053 C6.375,5.68421053 5.1,5.6855869 5.1,6.63126132 C5.1,7.57760629 6.375,7.57894737 6.375,7.57894737" id="Fill-6" fill="#C5C6C6"></path>
                        <path d="M12.5730967,10.449039 C12.0998336,10.6961584 10.7177448,11.3256823 8.92504265,11.3256823 C7.13225515,11.3256823 5.7504223,10.6961584 5.27698856,10.449039 C5.27698856,10.449039 5.1,10.3448918 5.1,10.5384143 L5.1,10.9249989 C5.1,11.0410487 5.25583523,11.1634748 5.25583523,11.1634748 C5.72295708,11.4664582 7.18547966,12.3151164 8.92504265,12.3157895 C10.664435,12.3151164 12.1262753,11.4664582 12.5942501,11.1634748 C12.5942501,11.1634748 12.75,11.0410487 12.75,10.9249989 L12.75,10.5384143 C12.75,10.3448918 12.5730967,10.449039 12.5730967,10.449039" id="Fill-8" fill="#C5C6C6"></path>
                    </g>
                    <line x1="51" y1="85.5" x2="52" y2="85.5" id="Line-Copy-2" stroke="#CFCFCF" stroke-linecap="round"></line>
                </g>
                <path d="M28,124.5 C31.0375661,124.5 33.5,126.962434 33.5,130 C33.5,133.037566 31.0375661,135.5 28,135.5 C24.9624339,135.5 22.5,133.037566 22.5,130 C22.5,126.962434 24.9624339,124.5 28,124.5 Z M28,125.5 C25.5147186,125.5 23.5,127.514719 23.5,130 C23.5,132.485281 25.5147186,134.5 28,134.5 C30.4852814,134.5 32.5,132.485281 32.5,130 C32.5,127.514719 30.4852814,125.5 28,125.5 Z" id="Rectangle-Copy-3" fill="#979797" fill-rule="nonzero"></path>
                <path d="M28,43.5 C29.3807119,43.5 30.5,44.6192881 30.5,46 C30.5,47.3807119 29.3807119,48.5 28,48.5 C26.6192881,48.5 25.5,47.3807119 25.5,46 C25.5,44.6192881 26.6192881,43.5 28,43.5 Z M28,44.5 C27.1715729,44.5 26.5,45.1715729 26.5,46 C26.5,46.8284271 27.1715729,47.5 28,47.5 C28.8284271,47.5 29.5,46.8284271 29.5,46 C29.5,45.1715729 28.8284271,44.5 28,44.5 Z" id="Oval" fill="#979797" fill-rule="nonzero"></path>
                <path d="M28,51.5 C29.3807119,51.5 30.5,52.6192881 30.5,54 C30.5,55.3807119 29.3807119,56.5 28,56.5 C26.6192881,56.5 25.5,55.3807119 25.5,54 C25.5,52.6192881 26.6192881,51.5 28,51.5 Z M28,52.5 C27.1715729,52.5 26.5,53.1715729 26.5,54 C26.5,54.8284271 27.1715729,55.5 28,55.5 C28.8284271,55.5 29.5,54.8284271 29.5,54 C29.5,53.1715729 28.8284271,52.5 28,52.5 Z" id="Oval-Copy-7" fill="#979797" fill-rule="nonzero"></path>
                <path d="M28,59.5 C29.3807119,59.5 30.5,60.6192881 30.5,62 C30.5,63.3807119 29.3807119,64.5 28,64.5 C26.6192881,64.5 25.5,63.3807119 25.5,62 C25.5,60.6192881 26.6192881,59.5 28,59.5 Z M28,60.5 C27.1715729,60.5 26.5,61.1715729 26.5,62 C26.5,62.8284271 27.1715729,63.5 28,63.5 C28.8284271,63.5 29.5,62.8284271 29.5,62 C29.5,61.1715729 28.8284271,60.5 28,60.5 Z" id="Oval-Copy-8" fill="#979797" fill-rule="nonzero"></path>
                <path d="M28,68.5 C29.3807119,68.5 30.5,69.6192881 30.5,71 C30.5,72.3807119 29.3807119,73.5 28,73.5 C26.6192881,73.5 25.5,72.3807119 25.5,71 C25.5,69.6192881 26.6192881,68.5 28,68.5 Z M28,69.5 C27.1715729,69.5 26.5,70.1715729 26.5,71 C26.5,71.8284271 27.1715729,72.5 28,72.5 C28.8284271,72.5 29.5,71.8284271 29.5,71 C29.5,70.1715729 28.8284271,69.5 28,69.5 Z" id="Oval-Copy-9" fill="#979797" fill-rule="nonzero"></path>
                <path d="M28,76.5 C29.3807119,76.5 30.5,77.6192881 30.5,79 C30.5,80.3807119 29.3807119,81.5 28,81.5 C26.6192881,81.5 25.5,80.3807119 25.5,79 C25.5,77.6192881 26.6192881,76.5 28,76.5 Z M28,77.5 C27.1715729,77.5 26.5,78.1715729 26.5,79 C26.5,79.8284271 27.1715729,80.5 28,80.5 C28.8284271,80.5 29.5,79.8284271 29.5,79 C29.5,78.1715729 28.8284271,77.5 28,77.5 Z" id="Oval-Copy-10" fill="#979797" fill-rule="nonzero"></path>
            </g>
            <circle id="Oval-Copy-2" fill="#F2F2F2" cx="15" cy="30" r="15"></circle>
            <circle id="Oval-Copy-4" fill="#F2F2F2" cx="167" cy="30" r="10"></circle>
            <circle id="Oval-Copy-4" fill="#C5C6C6" cx="189" cy="166" r="10"></circle>
            <circle id="Oval-Copy" fill="#C5C6C6" cx="48" cy="3" r="3"></circle>
            <circle id="Oval-Copy-3" fill="#C5C6C6" cx="161" cy="112" r="2"></circle>
        </g>
    </g>
</svg>