<?xml version="1.0" encoding="UTF-8"?>
<svg width="167px" height="48px" viewBox="0 0 167 48" version="1.1" xmlns="http://www.w3.org/2000/svg" xmlns:xlink="http://www.w3.org/1999/xlink">
    <title>Play more</title>
    <g id="Voucher-Activation-(ALMOST-APPROVED)" stroke="none" stroke-width="1" fill="none" fill-rule="evenodd">
        <g id="Play-more">
            <g transform="translate(0.249942, 0.108265)">
                <path d="M166.407526,23.7177753 C166.407526,15.3467203 165.532175,8.81283309 165.532175,8.81283309 L165.532175,8.87298019 C165.09771,5.03219122 162.183727,1.98077472 158.519559,1.53922969 L158.550267,1.53922969 C158.550267,1.53922969 158.507183,1.534334 158.441213,1.52745671 C158.429537,1.52582481 158.419262,1.52442604 158.408287,1.5236101 C156.935124,1.35424238 155.577203,1.52766688e-13 83.2355217,1.52766688e-13 C10.6627721,1.52766688e-13 7.79876192,1.653346 7.79876192,1.653346 L7.88271248,1.653346 C4.23092146,2.09279287 1.32476087,5.12555911 0.875467742,8.94816407 L0.875467742,8.92636657 C0.875467742,8.92636657 0.86694425,8.98756276 0.852816269,9.10272814 C0.851998948,9.11147046 0.850714586,9.12067902 0.849546985,9.13035385 C0.705348177,10.2844556 1.09423581e-12,16.3153685 1.09423581e-12,23.8316585 C1.09423581e-12,31.3260344 0.70102805,37.3434258 0.848145863,38.5234048 C0.85351683,38.5812206 0.863091164,38.6365886 0.869746494,38.6935885 C0.873015778,38.7196988 0.875467742,38.7373 0.875467742,38.7373 L0.875467742,38.732754 C1.32546143,42.5628191 4.23862763,45.5969841 7.89649018,46.0296702 L7.79876192,46.0296702 C7.79876192,46.0296702 10.6627721,47.6831328 83.2355217,47.6831328 C155.577203,47.6831328 158.550267,45.9156705 158.550267,45.9156705 L158.506482,45.9156705 C162.176371,45.4804199 165.09771,42.4269053 165.532175,38.5794722 L165.532175,38.6230671 C165.532175,38.6230671 166.407526,32.0896462 166.407526,23.7177753" id="Fill-1" fill="#1E6A75"></path>
                <path d="M19.7713499,21.9281027 C20.8539407,21.9281027 21.4868326,21.1854465 21.4868326,19.8158575 C21.4868326,18.6276541 20.7706283,17.9181781 19.7713499,17.9181781 L18.1724341,17.9181781 L18.1724341,21.9281027 L19.7713499,21.9281027 Z M12.7594805,32.1590395 L12.7594805,15.6244309 C12.7594805,14.2712575 13.9420695,13.248257 15.4742415,13.248257 L19.7713499,13.248257 C23.8185213,13.248257 26.9830986,16.0204988 26.9830986,19.8158575 C26.9830986,23.9247409 24.1017128,26.5979075 19.7713499,26.5979075 L18.1724341,26.5979075 L18.1724341,32.1590395 C18.1724341,33.5120965 16.9899625,34.5352135 15.4742415,34.5352135 C13.9420695,34.5352135 12.7594805,33.5120965 12.7594805,32.1590395 L12.7594805,32.1590395 Z" id="Fill-4" fill="#FFFFFF"></path>
                <path d="M27.819782,32.1919869 L27.819782,15.5914835 C27.819782,14.254842 28.9873795,13.248257 30.4840345,13.248257 C31.9970496,13.248257 33.164647,14.254842 33.164647,15.5914835 L33.164647,29.8652923 L38.509512,29.8652923 C40.0225271,29.8652923 41.2067167,30.8554618 41.2067167,32.1919869 C41.2067167,33.528512 40.0225271,34.5352135 38.509512,34.5352135 L30.4840345,34.5352135 C28.9873795,34.5352135 27.819782,33.528512 27.819782,32.1919869" id="Fill-6" fill="#FFFFFF"></path>
                <path d="M52.7130651,25.6078544 C52.2517778,24.1887861 51.7575996,22.6870581 51.2470339,21.2514578 C50.7362358,22.6541106 50.2256702,24.1887861 49.7643829,25.6078544 L52.7130651,25.6078544 Z M42.2525709,31.8619304 C42.2525709,31.4989265 42.3183529,31.2348813 42.4667691,30.7728021 C42.894933,29.4196287 46.3049025,18.8586354 48.3806372,14.6509098 C48.8583119,13.6771558 49.8961792,13.248257 51.2799249,13.248257 C52.6636705,13.248257 53.6355235,13.6936877 54.1133144,14.6509098 C56.0241293,18.5121634 59.8294879,30.0467943 60.0272987,30.7728021 C60.1754824,31.2348813 60.2412644,31.4989265 60.2412644,31.8619304 C60.2412644,33.3471265 59.0552133,34.5352135 57.6220731,34.5352135 C56.3701238,34.5352135 55.4476654,33.9246963 54.9698745,32.5055115 C54.7557926,31.8783459 54.5415945,31.1193906 54.2945053,30.2777756 L48.1994463,30.2777756 C47.9523571,31.1193906 47.738159,31.8783459 47.524077,32.5055115 C47.0462861,33.9246963 46.1238278,34.5352135 44.8717623,34.5352135 C43.438622,34.5352135 42.2525709,33.3471265 42.2525709,31.8619304 L42.2525709,31.8619304 Z" id="Fill-8" fill="#FFFFFF"></path>
                <path d="M62.2778461,32.1590395 L62.2778461,26.2844994 C62.1785946,26.1690087 62.0794596,26.0369861 61.9472019,25.8389522 C60.1122723,23.1986165 58.3269102,19.1063816 57.9797047,18.3801408 C57.6491771,17.6706649 57.1037016,16.5980685 57.1037016,15.7895174 C57.1037016,14.4528759 58.1946526,13.248257 59.5667969,13.248257 C60.856251,13.248257 61.5999964,13.8423587 62.0628983,14.8653592 C62.5092388,15.8720606 63.8482604,18.7927406 65.0054568,21.0204765 C66.2947943,18.4957479 66.8072636,17.3406084 67.6999447,15.2119476 C68.1132791,14.2053626 68.9067086,13.248257 70.2126074,13.248257 C71.7665769,13.248257 72.7915157,14.4528759 72.7915157,15.7895174 C72.7915157,16.3505553 72.4939942,17.1095106 72.3286138,17.5056948 C71.5351843,19.3372465 69.6506872,23.2811598 67.9644601,25.9048471 C67.8818865,26.0369861 67.7661902,26.1690087 67.6338159,26.3174468 L67.6338159,32.1590395 C67.6338159,33.5120965 66.4600581,34.5352135 64.9558893,34.5352135 C63.4514873,34.5352135 62.2778461,33.5120965 62.2778461,32.1590395" id="Fill-10" fill="#FFFFFF"></path>
                <path d="M79.9033247,32.175455 C79.9033247,31.9114098 79.9362388,31.5484058 79.952754,31.4329152 L81.6671937,15.7564536 C81.8319968,14.2712575 83.0684264,13.248257 84.4201134,13.248257 L84.7004065,13.248257 C86.0356947,13.248257 86.8763412,13.7432835 87.436811,14.601314 C88.2610586,15.8224649 89.3821145,18.7431448 90.9975794,24.3042767 C92.5966455,18.7431448 93.7341002,15.8389968 94.5418327,14.601314 C95.1023025,13.7432835 95.9430653,13.248257 97.2783535,13.248257 L97.5585302,13.248257 C98.9103336,13.248257 100.146647,14.2712575 100.311566,15.7564536 L102.02589,31.4329152 C102.042405,31.5484058 102.075435,31.9114098 102.075435,32.175455 C102.075435,33.5945233 101.020324,34.5352135 99.5037175,34.5352135 C97.7892777,34.5352135 96.9156008,33.5945233 96.7838282,32.4064363 L95.9759794,24.7002281 C95.0528732,27.7199832 94.1132518,31.0864431 93.7999284,32.0599643 C93.4538072,33.1655081 92.2998372,33.9905911 91.0470087,33.9905911 L90.931635,33.9905911 C89.6788065,33.9905911 88.5248365,33.1655081 88.178599,32.0599643 C87.8655081,31.0864431 86.9258868,27.7199832 86.0026643,24.7002281 L85.1949318,32.4064363 C85.0630429,33.5945233 84.189366,34.5352135 82.4749262,34.5352135 C80.9583198,34.5352135 79.9033247,33.5945233 79.9033247,32.175455" id="Fill-12" fill="#FFFFFF"></path>
                <path d="M116.881123,23.9413386 C116.881123,20.3349962 115.086225,17.7211887 112.743207,17.7211887 C110.466433,17.7211887 108.605174,20.434203 108.605174,23.9413386 C108.605174,27.3821807 110.466433,30.062165 112.743207,30.062165 C115.102874,30.062165 116.881123,27.4815042 116.881123,23.9413386 M103.12129,23.9413386 C103.12129,17.7542188 107.259205,13.0395613 112.743207,13.0395613 C118.326867,13.0395613 122.365008,17.6384386 122.365008,23.9413386 C122.365008,30.1614885 118.310219,34.7439091 112.743207,34.7439091 C107.275737,34.7439091 103.12129,30.0457083 103.12129,23.9413386" id="Fill-14" fill="#FFFFFF"></path>
                <path d="M131.274022,21.4660236 C132.430313,21.4660236 132.975533,20.8388581 132.975533,19.5023329 C132.975533,18.5452273 132.331246,17.9180617 131.274022,17.9180617 L129.407243,17.9180617 L129.407243,21.4660236 L131.274022,21.4660236 Z M124.038375,32.1590395 L124.038375,15.6244309 C124.038375,14.2712575 125.211216,13.248257 126.714592,13.248257 L131.274022,13.248257 C135.915969,13.248257 138.443586,15.9380719 138.443586,19.5848762 C138.443586,21.7630163 137.518413,23.363703 135.43695,24.4692468 C136.692425,25.5914389 137.435779,27.2580205 138.393936,29.8652923 C138.724354,30.7398547 138.889506,31.3834358 138.889506,31.8619304 C138.889506,33.2645832 137.766198,34.5352135 136.262938,34.5352135 C135.073547,34.5352135 133.999774,33.8916324 133.636371,32.6870135 C132.100011,27.5715451 131.141855,26.1358284 129.88638,26.1358284 L129.407243,26.1358284 L129.407243,32.1590395 C129.407243,33.5120965 128.217852,34.5352135 126.714592,34.5352135 C125.211216,34.5352135 124.038375,33.5120965 124.038375,32.1590395 L124.038375,32.1590395 Z" id="Fill-16" fill="#FFFFFF"></path>
                <path d="M140.981214,32.1919869 L140.981214,15.5584196 C140.981214,14.2217781 142.118776,13.248257 143.635524,13.248257 L151.351168,13.248257 C152.867801,13.248257 153.80751,14.2217781 153.80751,15.5584196 C153.80751,16.928125 152.8514,17.9181781 151.351168,17.9181781 L146.339268,17.9181781 L146.339268,21.2350423 L150.872997,21.2350423 C152.389746,21.2350423 153.329455,22.2250954 153.329455,23.5616205 C153.329455,24.914794 152.389746,25.9214954 150.872997,25.9214954 L146.339268,25.9214954 L146.339268,29.8652923 L151.911691,29.8652923 C153.428439,29.8652923 154.368149,30.8389299 154.368149,32.1919869 C154.368149,33.5451604 153.428439,34.5352135 151.911691,34.5352135 L143.635524,34.5352135 C142.118776,34.5352135 140.981214,33.5451604 140.981214,32.1919869" id="Fill-18" fill="#FFFFFF"></path>
            </g>
        </g>
    </g>
</svg>