<?xml version="1.0" encoding="UTF-8"?>
<svg width="188px" height="48px" viewBox="0 0 188 48" version="1.1" xmlns="http://www.w3.org/2000/svg" xmlns:xlink="http://www.w3.org/1999/xlink">
    <title>Play sports</title>
    <g id="Voucher-Activation-(ALMOST-APPROVED)" stroke="none" stroke-width="1" fill="none" fill-rule="evenodd">
        <g id="Play-sports">
            <g id="Play-Sports" transform="translate(-0.000058, 0.108265)">
                <path d="M187.907861,23.7177753 C187.907861,15.3467203 187.035686,8.81283309 187.035686,8.81283309 L187.035686,8.87298019 C186.602797,5.03219122 183.699384,1.98089128 180.048507,1.53934626 L180.079104,1.53934626 C180.079104,1.53934626 180.036176,1.53445056 179.970446,1.52745671 C179.958812,1.52582481 179.948574,1.52442604 179.937639,1.5236101 C178.469819,1.35424238 177.116824,1.49213975e-13 93.9698688,1.49213975e-13 C10.6240941,1.49213975e-13 7.77047277,1.653346 7.77047277,1.653346 L7.85411881,1.653346 C4.21557426,2.09279287 1.31995545,5.12567567 0.872292079,8.94816407 L0.872292079,8.92636657 C0.872292079,8.92636657 0.863799505,8.98756276 0.849722772,9.10272814 C0.848908416,9.11147046 0.847628713,9.12067902 0.846465347,9.13035385 C0.702789604,10.2844556 1.42108547e-13,16.3153685 1.42108547e-13,23.8316585 C1.42108547e-13,31.3260344 0.698485149,37.3434258 0.845069307,38.5234048 C0.850420792,38.5812206 0.859960396,38.6365886 0.866591584,38.6935885 C0.86984901,38.7196988 0.872292079,38.7373 0.872292079,38.7373 L0.872292079,38.732754 C1.32065347,42.5628191 4.22325248,45.5969841 7.86784653,46.0296702 L7.77047277,46.0296702 C7.77047277,46.0296702 10.6240941,47.6831328 93.9698688,47.6831328 C177.116824,47.6831328 180.079104,45.9156705 180.079104,45.9156705 L180.035478,45.9156705 C183.692054,45.4804199 186.602797,42.4269053 187.035686,38.5795887 L187.035686,38.6230671 C187.035686,38.6230671 187.907861,32.0896462 187.907861,23.7177753" id="Fill-1" fill="#42AE5C"></path>
                <path d="M19.2840666,21.9281027 C20.3628008,21.9281027 20.9934382,21.1854465 20.9934382,19.8158575 C20.9934382,18.6276541 20.2797852,17.9181781 19.2840666,17.9181781 L17.6908466,17.9181781 L17.6908466,21.9281027 L19.2840666,21.9281027 Z M12.2971757,32.1590395 L12.2971757,15.6244309 C12.2971757,14.2712575 13.475552,13.248257 15.0022659,13.248257 L19.2840666,13.248257 C23.3168206,13.248257 26.4701247,16.0204988 26.4701247,19.8158575 C26.4701247,23.9247409 23.5990033,26.5979075 19.2840666,26.5979075 L17.6908466,26.5979075 L17.6908466,32.1590395 C17.6908466,33.5120965 16.5125874,34.5352135 15.0022659,34.5352135 C13.475552,34.5352135 12.2971757,33.5120965 12.2971757,32.1590395 L12.2971757,32.1590395 Z" id="Fill-4" fill="#FFFFFF"></path>
                <path d="M27.3038276,32.1919869 L27.3038276,15.5914835 C27.3038276,14.254842 28.4672657,13.248257 29.9585891,13.248257 C31.4662144,13.248257 32.6296525,14.254842 32.6296525,15.5914835 L32.6296525,29.8652923 L37.9554773,29.8652923 C39.4631026,29.8652923 40.6430737,30.8554618 40.6430737,32.1919869 C40.6430737,33.528512 39.4631026,34.5352135 37.9554773,34.5352135 L29.9585891,34.5352135 C28.4672657,34.5352135 27.3038276,33.528512 27.3038276,32.1919869" id="Fill-6" fill="#FFFFFF"></path>
                <path d="M52.1084328,25.6078544 C51.6487888,24.1887861 51.1563709,22.6870581 50.6476241,21.2514578 C50.1386456,22.6541106 49.6298988,24.1887861 49.1702547,25.6078544 L52.1084328,25.6078544 Z M41.6852023,31.8619304 C41.6852023,31.4989265 41.7507499,31.2348813 41.8986374,30.7728021 C42.325276,29.4196287 45.7230982,18.8586354 47.7914384,14.6509098 C48.2674115,13.6771558 49.3015816,13.248257 50.6803979,13.248257 C52.0592142,13.248257 53.0276051,13.6936877 53.5036939,14.6509098 C55.4077019,18.5121634 59.1995047,30.0467943 59.3966108,30.7728021 C59.5442666,31.2348813 59.6098143,31.4989265 59.6098143,31.8619304 C59.6098143,33.3471265 58.4279883,34.5352135 56.9999533,34.5352135 C55.7524639,34.5352135 54.8332916,33.9246963 54.3572028,32.5055115 C54.1438835,31.8783459 53.9304484,31.1193906 53.6842394,30.2777756 L47.6108929,30.2777756 C47.364684,31.1193906 47.1512489,31.8783459 46.9379296,32.5055115 C46.4618407,33.9246963 45.5426685,34.5352135 44.2950632,34.5352135 C42.8670283,34.5352135 41.6852023,33.3471265 41.6852023,31.8619304 L41.6852023,31.8619304 Z" id="Fill-8" fill="#FFFFFF"></path>
                <path d="M61.639141,32.1590395 L61.639141,26.2844994 C61.540243,26.1690087 61.4414612,26.0369861 61.3096747,25.8389522 C59.4812817,23.1986165 57.7022796,19.1063816 57.3563109,18.3801408 C57.0269608,17.6706649 56.4834285,16.5980685 56.4834285,15.7895174 C56.4834285,14.4528759 57.5704931,13.248257 58.9377494,13.248257 C60.2226101,13.248257 60.963706,13.8423587 61.4249589,14.8653592 C61.8697094,15.8720606 63.2039609,18.7927406 64.3570351,21.0204765 C65.6417795,18.4957479 66.1524233,17.3406084 67.0419243,15.2119476 C67.4537863,14.2053626 68.2443894,13.248257 69.5456362,13.248257 C71.0940699,13.248257 72.1153575,14.4528759 72.1153575,15.7895174 C72.1153575,16.3505553 71.8188959,17.1095106 71.6541046,17.5056948 C70.8635016,19.3372465 68.9857177,23.2811598 67.3054974,25.9048471 C67.223218,26.0369861 67.1079338,26.1690087 66.9760311,26.3174468 L66.9760311,32.1590395 C66.9760311,33.5120965 65.8064546,34.5352135 64.3076442,34.5352135 C62.8086013,34.5352135 61.639141,33.5120965 61.639141,32.1590395" id="Fill-10" fill="#FFFFFF"></path>
                <path d="M79.8899065,32.6263691 C79.2137561,32.0803815 78.7849806,31.3359803 78.7849806,30.6247259 C78.7849806,29.3343372 79.8404548,28.1265819 81.2752528,28.1265819 C82.0504231,28.1265819 82.7266899,28.5567893 83.2049171,28.9207032 C83.979971,29.4997208 84.6726442,30.062165 85.6622604,30.062165 C86.9652259,30.062165 87.7237571,29.3343372 87.7237571,28.0935519 C87.7237571,25.5293478 79.2302788,25.9429818 79.2302788,19.1273576 C79.2302788,15.6698255 82.3143207,13.0395613 86.2560301,13.0395613 C88.152649,13.0395613 90.1152423,13.6516089 91.6158984,14.8261008 C92.3085716,15.3720883 92.671489,16.0504294 92.671489,16.8443173 C92.671489,18.2174562 91.5829694,19.3091979 90.2306685,19.3091979 C89.6370151,19.3091979 88.9607483,19.0943276 88.4494757,18.7137236 C87.575402,18.0520726 86.9652259,17.7211887 86.2560301,17.7211887 C85.348911,17.7211887 84.6726442,18.3332363 84.6726442,19.1273576 C84.6726442,21.6418416 93.1663553,20.9801906 93.1663553,28.0935519 C93.1663553,32.0142047 90.0656743,34.7439091 85.6622604,34.7439091 C83.5347892,34.7439091 81.5721959,33.9828179 79.8899065,32.6263691" id="Fill-12" fill="#FFFFFF"></path>
                <path d="M102.029195,21.9281027 C103.107929,21.9281027 103.738566,21.1854465 103.738566,19.8158575 C103.738566,18.6276541 103.024913,17.9181781 102.029195,17.9181781 L100.435975,17.9181781 L100.435975,21.9281027 L102.029195,21.9281027 Z M95.0421868,32.1590395 L95.0421868,15.6244309 C95.0421868,14.2712575 96.2205631,13.248257 97.747394,13.248257 L102.029195,13.248257 C106.061949,13.248257 109.215136,16.0204988 109.215136,19.8158575 C109.215136,23.9247409 106.344132,26.5979075 102.029195,26.5979075 L100.435975,26.5979075 L100.435975,32.1590395 C100.435975,33.5120965 99.2575985,34.5352135 97.747394,34.5352135 C96.2205631,34.5352135 95.0421868,33.5120965 95.0421868,32.1590395 L95.0421868,32.1590395 Z" id="Fill-14" fill="#FFFFFF"></path>
                <path d="M123.134378,23.9413386 C123.134378,20.3349962 121.345874,17.7211887 119.011203,17.7211887 C116.74254,17.7211887 114.887911,20.434203 114.887911,23.9413386 C114.887911,27.3821807 116.74254,30.062165 119.011203,30.062165 C121.362463,30.062165 123.134378,27.4815042 123.134378,23.9413386 M109.423561,23.9413386 C109.423561,17.7542188 113.546737,13.0395613 119.011203,13.0395613 C124.574972,13.0395613 128.598728,17.6384386 128.598728,23.9413386 C128.598728,30.1614885 124.558383,34.7439091 119.011203,34.7439091 C113.563209,34.7439091 109.423561,30.0457083 109.423561,23.9413386" id="Fill-16" fill="#FFFFFF"></path>
                <path d="M137.684431,21.4660236 C138.836603,21.4660236 139.379881,20.8388581 139.379881,19.5023329 C139.379881,18.5452273 138.737888,17.9180617 137.684431,17.9180617 L135.824302,17.9180617 L135.824302,21.4660236 L137.684431,21.4660236 Z M130.474559,32.1590395 L130.474559,15.6244309 C130.474559,14.2712575 131.643222,13.248257 133.141243,13.248257 L137.684431,13.248257 C142.309842,13.248257 144.828454,15.9380719 144.828454,19.5848762 C144.828454,21.7630163 143.906577,23.363703 141.832529,24.4692468 C143.083531,25.5914389 143.824238,27.2580205 144.778981,29.8652923 C145.108223,30.7398547 145.272785,31.3834358 145.272785,31.8619304 C145.272785,33.2645832 144.15348,34.5352135 142.655575,34.5352135 C141.470421,34.5352135 140.400472,33.8916324 140.038364,32.6870135 C138.507477,27.5715451 137.552734,26.1358284 136.301732,26.1358284 L135.824302,26.1358284 L135.824302,32.1590395 C135.824302,33.5120965 134.639148,34.5352135 133.141243,34.5352135 C131.643222,34.5352135 130.474559,33.5120965 130.474559,32.1590395 L130.474559,32.1590395 Z" id="Fill-18" fill="#FFFFFF"></path>
                <path d="M150.147155,32.1590395 L150.147155,17.9181781 L147.297992,17.9181781 C145.790609,17.9181781 144.647508,16.928125 144.647508,15.5584196 C144.647508,14.2218945 145.790609,13.248257 147.297992,13.248257 L158.462773,13.248257 C159.970273,13.248257 161.11314,14.2218945 161.11314,15.5584196 C161.11314,16.928125 159.970273,17.9181781 158.462773,17.9181781 L155.53075,17.9181781 L155.53075,32.1590395 C155.53075,33.5120965 154.338096,34.5352135 152.830713,34.5352135 C151.323213,34.5352135 150.147155,33.5120965 150.147155,32.1590395" id="Fill-20" fill="#FFFFFF"></path>
                <path d="M162.426492,32.6263691 C161.750341,32.0803815 161.321566,31.3359803 161.321566,30.6247259 C161.321566,29.3343372 162.37704,28.1265819 163.811838,28.1265819 C164.587008,28.1265819 165.263275,28.5567893 165.741502,28.9207032 C166.516556,29.4997208 167.20923,30.062165 168.198846,30.062165 C169.501811,30.062165 170.260343,29.3343372 170.260343,28.0935519 C170.260343,25.5293478 161.766864,25.9429818 161.766864,19.1273576 C161.766864,15.6698255 164.850906,13.0395613 168.792615,13.0395613 C170.689234,13.0395613 172.651828,13.6516089 174.152484,14.8261008 C174.845157,15.3720883 175.208074,16.0504294 175.208074,16.8443173 C175.208074,18.2174562 174.119555,19.3091979 172.767254,19.3091979 C172.1736,19.3091979 171.497334,19.0943276 170.986061,18.7137236 C170.111987,18.0520726 169.501811,17.7211887 168.792615,17.7211887 C167.885496,17.7211887 167.20923,18.3332363 167.20923,19.1273576 C167.20923,21.6418416 175.702941,20.9801906 175.702941,28.0935519 C175.702941,32.0142047 172.60226,34.7439091 168.198846,34.7439091 C166.071375,34.7439091 164.108781,33.9828179 162.426492,32.6263691" id="Fill-22" fill="#FFFFFF"></path>
            </g>
        </g>
    </g>
</svg>