<svg width="470" height="268" viewBox="0 0 470 268" fill="none" xmlns="http://www.w3.org/2000/svg">
<line x1="1.33984" y1="266.3" x2="468.66" y2="266.3" stroke="#291D18" stroke-width="2" stroke-linecap="round"/>
<path d="M94.3618 131.375C91.8724 131.566 89.0709 131.934 86.6046 132.865C84.1191 133.804 81.78 135.393 80.5627 138.132C79.5828 140.336 76.1748 150.791 71.9117 162.918C67.6397 175.071 63.5067 186.995 63.2552 187.833C63.0162 188.629 62.5177 190.34 62.9261 192.192C63.3731 194.218 64.8072 196.046 67.6556 197.185C70.6263 198.373 73.0732 197.801 74.8777 196.488C76.5494 195.272 77.5378 193.523 78.042 192.515C78.2251 192.148 78.5737 191.2 78.9872 190.038C79.4276 188.802 80.0027 187.145 80.6639 185.217C81.9868 181.359 83.6615 176.395 85.3055 171.493C86.3296 168.44 87.3422 165.41 88.2511 162.684L89.9437 264.019" stroke="#291D18" stroke-width="2" stroke-linecap="round" stroke-linejoin="round"/>
<path d="M115.685 131.375C118.174 131.566 120.976 131.934 123.442 132.865C125.928 133.804 128.267 135.393 129.484 138.132C130.464 140.336 133.872 150.791 138.135 162.918C142.407 175.071 146.54 186.995 146.792 187.833C147.031 188.629 147.529 190.34 147.121 192.192C146.674 194.218 145.24 196.046 142.391 197.185C139.421 198.373 136.974 197.801 135.169 196.488C133.497 195.272 132.509 193.523 132.005 192.515C131.822 192.148 131.473 191.2 131.06 190.038C130.619 188.802 130.044 187.145 129.383 185.217C128.06 181.359 126.385 176.395 124.741 171.493C123.717 168.44 122.705 165.41 121.796 162.684L120.103 264.019" stroke="#291D18" stroke-width="2" stroke-linecap="round" stroke-linejoin="round"/>
<path d="M122.596 109.865C122.596 117.204 116.647 123.152 109.309 123.152C101.97 123.152 96.0212 117.204 96.0212 109.865C96.0212 102.527 101.97 96.5776 109.309 96.5776C116.647 96.5776 122.596 102.527 122.596 109.865Z" fill="#E5CFC7"/>
<path fill-rule="evenodd" clip-rule="evenodd" d="M89.5386 113.71C89.5386 105.14 96.4859 98.1924 105.056 98.1924C113.626 98.1924 120.573 105.14 120.573 113.71C120.573 122.28 113.626 129.227 105.056 129.227C96.4859 129.227 89.5386 122.28 89.5386 113.71Z" stroke="#291D18" stroke-width="2" stroke-linecap="round" stroke-linejoin="round"/>
<path d="M105.211 195.943V264.688" stroke="#291D18" stroke-width="2" stroke-linecap="round"/>
<path d="M357.855 166.04C356.013 166.181 353.94 166.453 352.115 167.142C350.276 167.837 348.545 169.013 347.645 171.04C346.919 172.671 344.398 180.407 341.243 189.381C338.082 198.374 335.024 207.197 334.838 207.817C334.661 208.406 334.292 209.672 334.594 211.042C334.925 212.542 335.986 213.894 338.094 214.737C340.292 215.617 342.103 215.193 343.438 214.222C344.675 213.322 345.406 212.027 345.779 211.281C345.915 211.01 346.173 210.308 346.479 209.449C346.805 208.534 347.23 207.308 347.719 205.881C348.698 203.026 349.938 199.353 351.154 195.726C351.912 193.467 352.661 191.225 353.334 189.208L354.586 264.192" stroke="#291D18" stroke-width="2" stroke-linecap="round" stroke-linejoin="round"/>
<path d="M373.634 166.04C375.476 166.181 377.549 166.453 379.374 167.142C381.213 167.837 382.944 169.013 383.845 171.04C384.57 172.671 387.092 180.407 390.246 189.381C393.407 198.374 396.466 207.197 396.652 207.817C396.829 208.406 397.197 209.672 396.895 211.042C396.564 212.542 395.503 213.894 393.396 214.737C391.197 215.617 389.387 215.193 388.051 214.222C386.814 213.322 386.083 212.027 385.71 211.281C385.574 211.01 385.317 210.308 385.01 209.449C384.685 208.534 384.259 207.308 383.77 205.881C382.791 203.026 381.552 199.353 380.335 195.726C379.577 193.467 378.828 191.225 378.156 189.208L376.903 264.192" stroke="#291D18" stroke-width="2" stroke-linecap="round" stroke-linejoin="round"/>
<path d="M378.748 150.123C378.748 155.553 374.346 159.956 368.916 159.956C363.485 159.956 359.083 155.553 359.083 150.123C359.083 144.693 363.485 140.291 368.916 140.291C374.346 140.291 378.748 144.693 378.748 150.123Z" fill="#E5CFC7"/>
<path fill-rule="evenodd" clip-rule="evenodd" d="M354.286 152.968C354.286 146.626 359.427 141.485 365.769 141.485C372.11 141.485 377.251 146.626 377.251 152.968C377.251 159.309 372.11 164.45 365.769 164.45C359.427 164.45 354.286 159.309 354.286 152.968Z" stroke="#291D18" stroke-width="2" stroke-linecap="round" stroke-linejoin="round"/>
<path d="M365.884 213.818V264.688" stroke="#291D18" stroke-width="2" stroke-linecap="round"/>
<path d="M173.494 69.1226C169.843 69.4035 165.733 69.9427 162.115 71.309C158.469 72.686 155.037 75.0171 153.252 79.035C151.814 82.269 146.815 97.6055 140.561 115.396L134.212 133.67M144.912 164.641C147.364 162.858 148.814 160.291 149.554 158.812C149.823 158.275 150.334 156.883 150.941 155.18C151.587 153.366 152.43 150.935 153.4 148.106C155.341 142.447 157.797 135.165 160.209 127.975C161.711 123.496 163.197 119.051 164.53 115.053L167.013 263.706" stroke="#291D18" stroke-width="2" stroke-linecap="round" stroke-linejoin="round"/>
<path d="M204.774 69.1226C208.426 69.4035 212.536 69.9427 216.154 71.309C219.8 72.686 223.231 75.0171 225.017 79.0349C226.455 82.269 231.454 97.6055 237.708 115.396C243.974 133.224 250.037 150.715 250.406 151.944C250.757 153.112 251.488 155.622 250.889 158.338C250.233 161.311 248.13 163.992 243.951 165.664C239.593 167.407 236.004 166.567 233.357 164.641C230.904 162.858 229.454 160.291 228.715 158.812C228.446 158.275 227.935 156.883 227.328 155.18C226.682 153.366 225.839 150.935 224.869 148.106C222.928 142.447 220.471 135.165 218.06 127.975C216.557 123.496 215.072 119.051 213.739 115.053L211.256 263.706" stroke="#291D18" stroke-width="2" stroke-linecap="round" stroke-linejoin="round"/>
<path d="M214.912 37.5692C214.912 48.3343 206.185 57.0612 195.42 57.0612C184.655 57.0612 175.928 48.3343 175.928 37.5692C175.928 26.804 184.655 18.0771 195.42 18.0771C206.185 18.0771 214.912 26.804 214.912 37.5692Z" fill="#E5CFC7"/>
<path fill-rule="evenodd" clip-rule="evenodd" d="M166.419 43.2083C166.419 30.6367 176.61 20.4453 189.182 20.4453C201.753 20.4453 211.945 30.6367 211.945 43.2083C211.945 55.78 201.753 65.9714 189.182 65.9714C176.61 65.9714 166.419 55.78 166.419 43.2083Z" stroke="#291D18" stroke-width="2" stroke-linecap="round" stroke-linejoin="round"/>
<path d="M189.41 163.841V264.688" stroke="#291D18" stroke-width="2" stroke-linecap="round"/>
<path d="M281.816 86.4297C278.487 86.6857 274.741 87.1772 271.443 88.4226C268.12 89.6778 264.992 91.8025 263.365 95.4649C262.054 98.4128 257.497 112.392 251.797 128.608L249.911 134.29M246.106 174.427C250.078 176.016 253.35 175.25 255.763 173.496C257.998 171.87 259.32 169.53 259.994 168.182C260.239 167.692 260.705 166.424 261.258 164.871C261.847 163.218 262.616 161.002 263.5 158.424C265.269 153.266 267.508 146.628 269.706 140.074C271.076 135.991 272.43 131.939 273.645 128.295L275.908 263.793" stroke="#291D18" stroke-width="2" stroke-linecap="round" stroke-linejoin="round"/>
<path d="M310.327 86.4297C313.656 86.6857 317.402 87.1772 320.7 88.4226C324.023 89.6778 327.151 91.8025 328.779 95.4649C330.089 98.4128 334.646 112.392 340.346 128.608C346.058 144.858 351.585 160.802 351.921 161.922M336.38 173.496C333.934 171.936 332.823 169.53 332.149 168.182C331.904 167.692 331.438 166.424 330.885 164.871C330.297 163.218 329.527 161.002 328.643 158.424C326.874 153.266 324.635 146.628 322.437 140.074C321.068 135.991 319.714 131.939 318.498 128.295L316.235 263.793" stroke="#291D18" stroke-width="2" stroke-linecap="round" stroke-linejoin="round"/>
<path d="M319.569 57.6684C319.569 67.4809 311.614 75.4355 301.802 75.4355C291.989 75.4355 284.034 67.4809 284.034 57.6684C284.034 47.856 291.989 39.9014 301.802 39.9014C311.614 39.9014 319.569 47.856 319.569 57.6684Z" fill="#E5CFC7"/>
<path fill-rule="evenodd" clip-rule="evenodd" d="M275.366 62.8082C275.366 51.349 284.656 42.0596 296.115 42.0596C307.574 42.0596 316.863 51.349 316.863 62.8082C316.863 74.2673 307.574 83.5568 296.115 83.5568C284.656 83.5568 275.366 74.2673 275.366 62.8082Z" stroke="#291D18" stroke-width="2" stroke-linecap="round" stroke-linejoin="round"/>
<path d="M296.323 172.767V264.689" stroke="#291D18" stroke-width="2" stroke-linecap="round"/>
<circle cx="444.733" cy="227.028" r="7" fill="#291D18" fill-opacity="0.12"/>
<circle cx="4.5" cy="4.5" r="4.5" transform="matrix(-1 0 0 1 402.634 47.2637)" fill="#291D18" fill-opacity="0.12"/>
<circle cx="423.613" cy="80.5801" r="9" fill="#291D18" fill-opacity="0.12"/>
<circle cx="4.5" cy="4.5" r="4.5" transform="matrix(0.965926 0.258819 0.258819 -0.965926 22.3398 49.334)" fill="#291D18" fill-opacity="0.12"/>
<circle cx="66.9996" cy="11.7229" r="9" transform="rotate(-165 66.9996 11.7229)" fill="#291D18" fill-opacity="0.12"/>
</svg>
