<?xml version="1.0" encoding="UTF-8"?>
<svg width="24px" height="24px" viewBox="0 0 24 24" version="1.1" xmlns="http://www.w3.org/2000/svg" xmlns:xlink="http://www.w3.org/1999/xlink">
    <title>Broken_Black</title>
    <defs>
        <polygon id="path-1" points="5.1010989 2.06373626 19.1204396 2.06373626 19.1204396 21.9868132 5.1010989 21.9868132"></polygon>
    </defs>
    <g id="(B)-Process---CheckOut" stroke="none" stroke-width="1" fill="none" fill-rule="evenodd">
        <g id="01-D-Delivery-Overview" transform="translate(-988.000000, -482.000000)">
            <g id="Group-5-Copy" transform="translate(834.000000, 442.000000)">
                <g id="Group-3" transform="translate(108.000000, 12.000000)">
                    <g id="Broken_Black" transform="translate(46.000000, 28.000000)">
                        <rect id="Rectangle" x="0" y="0" width="24" height="24"></rect>
                        <mask id="mask-2" fill="white">
                            <use xlink:href="#path-1"></use>
                        </mask>
                        <g id="Clip-2"></g>
                        <path d="M12.992967,17.5206593 C13.3228571,17.7802198 13.5340659,18.1824176 13.5340659,18.6386813 C13.5340659,19.4254945 12.9024176,20.0571429 12.1116484,20.0573626 C11.3250549,20.0573626 10.6892308,19.4257143 10.689011,18.6391209 C10.689011,18.1828571 10.9013187,17.7804396 11.2316484,17.5206593 L7.14681319,17.5210989 L7.14571404,5.40527473 C7.14549451,4.69054945 7.72681319,4.10923077 8.44153846,4.10901099 L11.1142857,4.10879121 L13.6958242,4.10857143 L15.7784615,4.1083514 C16.4931868,4.10813187 17.0745055,4.68945055 17.0745055,5.40417582 L17.0762637,17.5202198 L12.992967,17.5206593 Z M8.4410989,2.06461538 C6.59934066,2.06461538 5.10087912,3.5632967 5.1010989,5.40549451 L5.10241758,18.6595604 C5.10263736,20.5015385 6.60131868,22 8.4432967,21.9997802 L15.7804396,21.9989011 C17.6224176,21.9986813 19.1206593,20.5 19.1204396,18.658022 L19.1191209,5.40395604 C19.1189011,3.56175824 17.6202198,2.06351648 15.7782418,2.06373626 L8.4410989,2.06461538 Z" id="Fill-1" fill="#009793" mask="url(#mask-2)"></path>
                    </g>
                </g>
            </g>
        </g>
    </g>
</svg>