<?xml version="1.0" encoding="UTF-8"?>
<svg version="1.1" viewBox="0 0 495 486" xmlns="http://www.w3.org/2000/svg">
	<g fill="none" fill-rule="evenodd">
		<g transform="translate(-103 -135)">
			<g transform="translate(103 135)">
				<path d="m241 411.73v-130.83l4.7396-6.4746m6.2741-8.5708l15.999-21.856h102.99v110.7m0 8.3867v120.91h-130v-75.082" stroke="#979797" stroke-linecap="round" stroke-linejoin="round" stroke-width="2" />
				<path d="m241 281.5h76" stroke="#979797" stroke-linejoin="round" stroke-width="2" />
				<path d="m316.5 483v-206" stroke="#979797" stroke-linejoin="round" stroke-width="2" />
				<circle cx="343.5" cy="319.5" r="18.5" stroke="#8C8D8E" stroke-linejoin="round" stroke-width="1.5" />
				<path d="m343.5 304v30" stroke="#979797" stroke-linecap="round" stroke-linejoin="round" stroke-width="1.5" />
				<path d="m328 319.5h30" stroke="#979797" stroke-linecap="round" stroke-linejoin="round" stroke-width="1.5" />
				<polyline points="362 464 362 484 325 484 325 464 325 464" stroke="#979797" stroke-linejoin="round" stroke-width="2.52" />
				<path d="m324.65 478.5h36.348" stroke="#979797" stroke-linecap="round" stroke-linejoin="round" stroke-width="1.5" />
				<path d="m325 471.5h36.348" stroke="#979797" stroke-linecap="round" stroke-linejoin="round" stroke-width="1.5" />
				<path d="m324.65 464.5h36.348" stroke="#979797" stroke-linecap="round" stroke-linejoin="round" stroke-width="1.5" />
				<path d="m362 465v-33.548c0-10.191-8.2827-18.452-18.5-18.452s-18.5 8.2611-18.5 18.452v33.548" stroke="#979797" stroke-linejoin="round" stroke-width="2.52" />
				<path d="m325 430.5h37" stroke="#979797" stroke-linecap="round" stroke-linejoin="bevel" stroke-width="1.5" />
				<path d="m354.15 431v34m-20.308 0v-34" fill="#8C8D8E" stroke="#979797" stroke-linejoin="round" stroke-width="1.5" />
				<path d="m349.5 447c0.27614 0 0.5-0.22386 0.5-0.5s-0.22386-0.5-0.5-0.5-0.5 0.22386-0.5 0.5 0.22386 0.5 0.5 0.5z" fill="#575756" stroke="#979797" stroke-linejoin="round" stroke-width="1.68" />
				<path d="m316 424.5v3.5h-37.201-4.1208-4.038-35.28v-3.5h-3.36v-3.5h84v3.5z" fill="#fff" stroke="#979797" stroke-linejoin="round" stroke-width="2" />
				<path d="m316 351.5v3.5h-80.64v-3.5h-3.36v-3.5h84v3.5z" fill="#fff" stroke="#979797" stroke-linejoin="round" stroke-width="2" />
				<polyline points="325.11 277 310.7 277 310.7 273.5 309 273.5 309 270 343 270" fill="#fff" stroke="#979797" stroke-linecap="round" stroke-linejoin="round" stroke-width="2" />
				<polyline transform="translate(352.5 273.5) scale(-1 1) translate(-352.5 -273.5)" points="376 277 330.7 277 330.7 273.5 329 273.5 329 270 363.04 270" fill="#fff" stroke="#979797" stroke-linecap="round" stroke-linejoin="round" stroke-width="2" />
				<rect x="250" y="363" width="24" height="50" stroke="#979797" stroke-linejoin="round" stroke-width="1.5" />
				<rect x="283" y="363" width="24" height="50" stroke="#979797" stroke-linejoin="round" stroke-width="1.5" />
				<path d="m256 307.5h46" stroke="#979797" stroke-linecap="round" stroke-width="1.68" />
				<path d="m250 379.5h19.174" stroke="#979797" stroke-linecap="round" stroke-linejoin="round" stroke-width="1.5" />
				<path d="m283 379.5h18.333" stroke="#979797" stroke-linecap="round" stroke-linejoin="round" stroke-width="1.5" />
				<rect x="250" y="438" width="55" height="46" stroke="#979797" stroke-linejoin="round" stroke-width="1.5" />
				<path d="m274 477h8" stroke="#979797" stroke-linecap="round" stroke-linejoin="round" stroke-width="1.5" />
				<rect x="250" y="291" width="55" height="47" stroke="#979797" stroke-linejoin="round" stroke-width="1.5" />
				<path d="m250 307.5h50" stroke="#979797" stroke-linecap="round" stroke-width="1.5" />
				<polygon points="309 270 342.5 232 376 270" fill="#fff" stroke="#979797" stroke-linejoin="round" stroke-width="1.68" />
				<path d="m309 270l33.5-38 33.5 38h-67zm16.464-5.4579l17.036-19.325 16.896 19.166" fill="#fff" stroke="#979797" stroke-linecap="round" stroke-linejoin="round" stroke-width="2" />
				<path d="m98 484.5h396" stroke="#979797" stroke-linecap="round" stroke-width="2" />
				<circle cx="326.5" cy="221.5" r="3.5" fill="#D8D8D8" />
				<circle cx="117" cy="326" r="5" fill="#D8D8D8" />
				<circle cx="3" cy="172" r="3" fill="#D8D8D8" />
				<circle cx="389" cy="122" r="2" fill="#D8D8D8" />
				<circle cx="325" cy="2" r="2" fill="#D8D8D8" />
				<circle cx="235.5" cy="163.5" r="3.5" fill="#239A98" />
				<circle cx="195.5" cy="269.5" r="3.5" fill="#D8D8D8" />
				<path d="m244 210h11.707c0-6.5019 5.2414-11.773 11.707-11.773 0.45926 0 0.91234 0.026593 1.3578 0.078333 2.5628-5.9817 8.4783-10.169 15.366-10.169 0.58972 0 1.1723 0.030694 1.7463 0.090582 0.79718-8.5421 7.9474-15.227 16.65-15.227 8.1495 0 14.937 5.8617 16.422 13.621 0.64179-0.1096 1.3014-0.16668 1.9742-0.16668 6.4655 0 11.707 5.2708 11.707 11.773h8.3621" stroke="#239A98" stroke-linecap="round" stroke-linejoin="round" stroke-width="2" />
				<path d="m104 304.27h12.595c0-8.3596 6.767-15.136 15.115-15.136 0-8.3596 6.767-15.136 15.115-15.136 8.3475 0 15.115 6.7768 15.115 15.136 7.5047 0 14.125 3.792 18.055 9.5672 2.4814-1.7873 5.5258-2.8399 8.8157-2.8399 8.3475 0 15.115 6.7768 15.115 15.136h10.076" stroke="#239A98" stroke-linecap="round" stroke-linejoin="round" stroke-width="2" />
				<circle cx="424.5" cy="434.5" r="21.5" fill="#D8D8D8" stroke="#979797" stroke-width="2" />
				<path d="m425 456.67v26.807" stroke="#979797" stroke-linecap="square" stroke-width="1.5" />
				<path d="m153.37 428c-0.092337-1.1591-0.069023-2.3444 0.080161-3.5432 1.2009-9.6494 10.103-16.511 19.884-15.327 9.7807 1.1848 16.736 9.9677 15.535 19.617-1.2009 9.6494-10.103 16.511-19.884 15.327-2.5906-0.31382-4.983-1.1607-7.0781-2.4155-1.5341 4.7405-6.3116 7.8876-11.501 7.259-5.8684-0.7109-10.042-5.9806-9.321-11.77 0.72056-5.7897 6.062-9.9068 11.93-9.196 0.11894 0.014408 0.23718 0.030689 0.3547 0.048809z" fill="#D8D8D8" stroke="#979797" stroke-width="2" />
				<circle cx="187.5" cy="445.5" r="10.5" fill="#D8D8D8" stroke="#979797" stroke-width="2" />
				<path d="m171.5 433.88v50.498" stroke="#979797" stroke-linecap="round" stroke-linejoin="round" stroke-width="1.5" />
				<polyline points="171 458 158.63 456.25 151 444" stroke="#979797" stroke-linecap="round" stroke-linejoin="round" stroke-width="1.5" />
				<path d="m172 465l14-14" stroke="#979797" stroke-linecap="round" stroke-linejoin="round" stroke-width="1.5" />
				<path d="m387 454h2c1.1046 0 2 0.89543 2 2v28h-6v-28c0-1.1046 0.89543-2 2-2z" stroke="#979797" stroke-linejoin="round" stroke-width="1.5" />
				<rect x="386" y="370" width="4" height="84" stroke="#979797" stroke-width="1.5" />
				<path d="m381 363c0 3.866 3.134 7 7 7s7-3.134 7-7" stroke="#979797" stroke-width="1.5" />
				<path d="m378.5 363h18.879" stroke="#979797" stroke-linecap="round" stroke-width="2" />
			</g>
		</g>
	</g>
</svg>