<svg width="83" height="64" viewBox="0 0 83 64" fill="none" xmlns="http://www.w3.org/2000/svg">
<path d="M77.0687 23.3706C57.4748 3.77664 25.7067 3.77664 6.11277 23.3706L0.220215 17.478C23.0685 -5.37029 60.113 -5.37028 82.9613 17.478L77.0687 23.3706Z" fill="#00807B"/>
<path d="M16.5921 33.85C30.3985 20.0436 52.783 20.0436 66.5894 33.85L72.482 27.9574C55.4212 10.8967 27.7603 10.8967 10.6996 27.9574L16.5921 33.85Z" fill="#00807B"/>
<path d="M27.0715 44.3293C35.0902 36.3105 48.0913 36.3105 56.1101 44.3293L62.0026 38.4367C50.7295 27.1636 32.4521 27.1636 21.1789 38.4367L27.0715 44.3293Z" fill="#00807B"/>
<path d="M41.4998 63.2501C46.1022 63.2501 49.8332 59.5191 49.8332 54.9167C49.8332 50.3144 46.1022 46.5834 41.4998 46.5834C36.8975 46.5834 33.1665 50.3144 33.1665 54.9167C33.1665 59.5191 36.8975 63.2501 41.4998 63.2501Z" fill="#00807B"/>
</svg>
