<?xml version="1.0" encoding="UTF-8"?>
<svg width="343px" height="344px" viewBox="0 0 343 344" version="1.1" xmlns="http://www.w3.org/2000/svg" xmlns:xlink="http://www.w3.org/1999/xlink">
	<title>Artboard</title>
	<g id="Artboard" stroke="none" stroke-width="1" fill="none" fill-rule="evenodd">
		<path d="M140.209695,123.982877 L140.209695,114.136986 C140.209695,111.714503 142.178675,109.75 144.608388,109.75 L198.669662,109.75 C201.099375,109.75 203.068355,111.714503 203.068355,114.136986 L203.068355,228.863014 C203.068355,231.285497 201.099375,233.25 198.669662,233.25 L144.608388,233.25 C142.178675,233.25 140.209695,231.285497 140.209695,228.863014 L140.209695,129.64326 C140.209695,129.229047 139.873909,128.89326 139.459695,128.89326 C139.045481,128.89326 138.709695,129.229047 138.709695,129.64326 L138.709695,228.863014 C138.709695,232.114689 141.351011,234.75 144.608388,234.75 L198.669662,234.75 C201.927039,234.75 204.568355,232.114689 204.568355,228.863014 L204.568355,114.136986 C204.568355,110.885311 201.927039,108.25 198.669662,108.25 L144.608388,108.25 C141.351011,108.25 138.709695,110.885311 138.709695,114.136986 L138.709695,123.982877 C138.709695,124.39709 139.045481,124.732877 139.459695,124.732877 C139.873909,124.732877 140.209695,124.39709 140.209695,123.982877 Z" id="Path" class="one-image" fill="#C5C6C6" fill-rule="nonzero"></path>
		<g id="Illustrations/Adding5MobileNumbers/Stage1/Desktop-Copy" transform="translate(14.000000, 13.000000)">
			<ellipse id="Oval-Copy-4" fill="#F2F2F2" cx="196.529412" cy="21.8581081" rx="6.76470588" ry="6.75675676"></ellipse>
			<ellipse id="Oval-Copy-24" fill="#F2F2F2" cx="256.308824" cy="21.3157096" rx="1.69117647" ry="1.68733127"></ellipse>
			<ellipse id="Oval-Copy-25" fill="#F2F2F2" cx="144.691176" cy="43.2751691" rx="1.69117647" ry="1.68733127"></ellipse>
			<circle id="Oval-Copy-4" fill="#F2F2F2" cx="214.5" cy="299.5" r="18.5"></circle>
			<circle id="Oval-Copy-5" fill="#F2F2F2" cx="42.5" cy="179.5" r="11"></circle>
			<ellipse id="Oval-Copy-24" fill="#F2F2F2" cx="216.308824" cy="157.31571" rx="1.69117647" ry="1.68733127"></ellipse>
			<ellipse id="Oval-Copy-24" fill="#F2F2F2" cx="86.3088235" cy="2.31570965" rx="1.69117647" ry="1.68733127"></ellipse>
			<ellipse id="Oval-Copy-24" fill="#F2F2F2" cx="256.308824" cy="21.3157096" rx="1.69117647" ry="1.68733127"></ellipse>
			<ellipse id="Oval-Copy-24" fill="#F2F2F2" cx="83.3088235" cy="177.31571" rx="1.69117647" ry="1.68733127"></ellipse>
			<ellipse id="Oval-Copy-24" fill="#F2F2F2" cx="313.308824" cy="177.31571" rx="1.69117647" ry="1.68733127"></ellipse>
			<ellipse id="Oval-Copy-13" fill="#F2F2F2" cx="243.625" cy="90.5724664" rx="1.69117647" ry="1.68733127"></ellipse>
			<ellipse id="Oval-Copy-25" fill="#C5C6C6" cx="86.6911765" cy="199.275169" rx="1.69117647" ry="1.68733127"></ellipse>
			<ellipse id="Oval-Copy-13" fill="#C5C6C6" cx="128.625" cy="80.5724664" rx="1.69117647" ry="1.68733127"></ellipse>
			<ellipse id="Oval-Copy-25" fill="#C5C6C6" cx="29.6911765" cy="43.2751691" rx="1.69117647" ry="1.68733127"></ellipse>
			<ellipse id="Oval-Copy-13" fill="#C5C6C6" cx="243.625" cy="90.5724664" rx="1.69117647" ry="1.68733127"></ellipse>
			<ellipse id="Oval-Copy-25" fill="#C5C6C6" cx="144.691176" cy="43.2751691" rx="1.69117647" ry="1.68733127"></ellipse>
			<ellipse id="Oval-Copy-25" fill="#C5C6C6" cx="252.691176" cy="208.275169" rx="1.69117647" ry="1.68733127"></ellipse>
			<ellipse id="Oval-Copy-13" fill="#C5C6C6" fill-rule="nonzero" cx="185.625" cy="246.572466" rx="1.69117647" ry="1.68733127"></ellipse>
			<ellipse id="Oval-Copy-25" fill="#C5C6C6" fill-rule="nonzero" cx="1.69117647" cy="219.275169" rx="1.69117647" ry="1.68733127"></ellipse>
			<ellipse id="Oval" fill="#C5C6C6" cx="286.764706" cy="136.756757" rx="6.76470588" ry="6.75675676"></ellipse>
			<circle id="Oval-Copy-25" fill="#C5C6C6" cx="10.5" cy="78.5" r="10.5"></circle>
			<ellipse id="Oval-Copy-13" fill="#C5C6C6" cx="300.625" cy="294.572466" rx="1.69117647" ry="1.68733127"></ellipse>
			<ellipse id="Oval-Copy-13" fill="#C5C6C6" cx="40.625" cy="284.572466" rx="1.69117647" ry="1.68733127"></ellipse>
		</g>
		<g id="Group" transform="translate(144.709695, 113.250000)">
			<ellipse id="Oval-Copy-81" fill="#C5C6C6" cx="42.7986682" cy="1.23986486" rx="1" ry="1"></ellipse>
			<rect id="Rectangle" fill="#C5C6C6" x="9.7670207" y="0.817567568" width="30.8921569" height="1" rx="0.5"></rect>
			<path d="M26.9293301,74.8732877 C30.2857245,74.8732877 33.0070806,77.5884562 33.0070806,80.9383562 C33.0070806,84.2882561 30.2857245,87.0034247 26.9293301,87.0034247 C23.5729356,87.0034247 20.8515795,84.2882561 20.8515795,80.9383562 C20.8515795,77.5884562 23.5729356,74.8732877 26.9293301,74.8732877 Z M26.9293301,75.8732877 C24.1247114,75.8732877 21.8515795,78.1412512 21.8515795,80.9383562 C21.8515795,83.7354611 24.1247114,86.0034247 26.9293301,86.0034247 C29.7339487,86.0034247 32.0070806,83.7354611 32.0070806,80.9383562 C32.0070806,78.1412512 29.7339487,75.8732877 26.9293301,75.8732877 Z" id="Oval-Copy-127" fill="#8C8D8E" fill-rule="nonzero"></path>
			<path d="M26.9293301,47.4760274 C30.2857245,47.4760274 33.0070806,50.191196 33.0070806,53.5410959 C33.0070806,56.8909958 30.2857245,59.6061644 26.9293301,59.6061644 C23.5729356,59.6061644 20.8515795,56.8909958 20.8515795,53.5410959 C20.8515795,52.5664878 21.0825316,51.6238748 21.519121,50.7750574 C22.5522503,48.7664464 24.6259044,47.4760274 26.9293301,47.4760274 Z M26.9293301,48.4760274 C25.0040071,48.4760274 23.2716735,49.5540453 22.4083855,51.2324507 C22.0441426,51.940612 21.8515795,52.7265433 21.8515795,53.5410959 C21.8515795,56.3382009 24.1247114,58.6061644 26.9293301,58.6061644 C29.7339487,58.6061644 32.0070806,56.3382009 32.0070806,53.5410959 C32.0070806,50.7439909 29.7339487,48.4760274 26.9293301,48.4760274 Z" id="Oval-Copy-133" fill="#8C8D8E" fill-rule="nonzero"></path>
			<path d="M26.9293301,33.7773973 C30.2857245,33.7773973 33.0070806,36.4925658 33.0070806,39.8424658 C33.0070806,43.1923657 30.2857245,45.9075342 26.9293301,45.9075342 C23.5729356,45.9075342 20.8515795,43.1923657 20.8515795,39.8424658 C20.8515795,36.4925658 23.5729356,33.7773973 26.9293301,33.7773973 Z M26.9293301,34.7773973 C24.1247114,34.7773973 21.8515795,37.0453608 21.8515795,39.8424658 C21.8515795,42.6395707 24.1247114,44.9075342 26.9293301,44.9075342 C29.7339487,44.9075342 32.0070806,42.6395707 32.0070806,39.8424658 C32.0070806,37.0453608 29.7339487,34.7773973 26.9293301,34.7773973 Z" id="Oval-Copy-136" fill="#8C8D8E" fill-rule="nonzero"></path>
			<path d="M9.7670207,61.1746575 C13.1234152,61.1746575 15.8447712,63.8898261 15.8447712,67.239726 C15.8447712,70.589626 13.1234152,73.3047945 9.7670207,73.3047945 C6.41062622,73.3047945 3.68927015,70.589626 3.68927015,67.239726 C3.68927015,63.8898261 6.41062622,61.1746575 9.7670207,61.1746575 Z M9.7670207,62.1746575 C6.96240205,62.1746575 4.68927015,64.442621 4.68927015,67.239726 C4.68927015,70.036831 6.96240205,72.3047945 9.7670207,72.3047945 C12.5716393,72.3047945 14.8447712,70.036831 14.8447712,67.239726 C14.8447712,64.442621 12.5716393,62.1746575 9.7670207,62.1746575 Z" id="Oval-Copy-131" fill="#8C8D8E" fill-rule="nonzero"></path>
			<path d="M9.7670207,33.7773973 C13.1234152,33.7773973 15.8447712,36.4925658 15.8447712,39.8424658 C15.8447712,43.1923657 13.1234152,45.9075342 9.7670207,45.9075342 C6.41062622,45.9075342 3.68927015,43.1923657 3.68927015,39.8424658 C3.68927015,36.4925658 6.41062622,33.7773973 9.7670207,33.7773973 Z M9.7670207,34.7773973 C6.96240205,34.7773973 4.68927015,37.0453608 4.68927015,39.8424658 C4.68927015,42.6395707 6.96240205,44.9075342 9.7670207,44.9075342 C12.5716393,44.9075342 14.8447712,42.6395707 14.8447712,39.8424658 C14.8447712,37.0453608 12.5716393,34.7773973 9.7670207,34.7773973 Z" id="Oval-Copy-137" fill="#8C8D8E" fill-rule="nonzero"></path>
			<path d="M44.0916394,61.1746575 C47.4480339,61.1746575 50.16939,63.8898261 50.16939,67.239726 C50.16939,70.589626 47.4480339,73.3047945 44.0916394,73.3047945 C40.735245,73.3047945 38.0138889,70.589626 38.0138889,67.239726 C38.0138889,63.8898261 40.735245,61.1746575 44.0916394,61.1746575 Z M44.0916394,62.1746575 C41.2870208,62.1746575 39.0138889,64.442621 39.0138889,67.239726 C39.0138889,70.036831 41.2870208,72.3047945 44.0916394,72.3047945 C46.8962581,72.3047945 49.16939,70.036831 49.16939,67.239726 C49.16939,64.442621 46.8962581,62.1746575 44.0916394,62.1746575 Z" id="Oval-Copy-132" fill="#8C8D8E" fill-rule="nonzero"></path>
			<path d="M44.0916394,47.4760274 C47.4480339,47.4760274 50.16939,50.191196 50.16939,53.5410959 C50.16939,56.8909958 47.4480339,59.6061644 44.0916394,59.6061644 C40.735245,59.6061644 38.0138889,56.8909958 38.0138889,53.5410959 C38.0138889,50.191196 40.735245,47.4760274 44.0916394,47.4760274 Z M44.0916394,48.4760274 C41.2870208,48.4760274 39.0138889,50.7439909 39.0138889,53.5410959 C39.0138889,56.3382009 41.2870208,58.6061644 44.0916394,58.6061644 C46.8962581,58.6061644 49.16939,56.3382009 49.16939,53.5410959 C49.16939,50.7439909 46.8962581,48.4760274 44.0916394,48.4760274 Z" id="Oval-Copy-135" fill="#8C8D8E" fill-rule="nonzero"></path>
			<path d="M46.7259186,34.3752811 C45.9109694,33.9835919 45.0154882,33.7773973 44.0916394,33.7773973 C40.735245,33.7773973 38.0138889,36.4925658 38.0138889,39.8424658 C38.0138889,43.1923657 40.735245,45.9075342 44.0916394,45.9075342 C47.4480339,45.9075342 50.16939,43.1923657 50.16939,39.8424658 C50.16939,38.5952812 49.7908061,37.4033446 49.09525,36.3987025 C48.9380617,36.1716641 48.6265844,36.1150393 48.399546,36.2722276 C48.1725075,36.4294159 48.1158828,36.7408932 48.2730711,36.9679316 C48.8537693,37.8066762 49.16939,38.8003788 49.16939,39.8424658 C49.16939,42.6395707 46.8962581,44.9075342 44.0916394,44.9075342 C41.2870208,44.9075342 39.0138889,42.6395707 39.0138889,39.8424658 C39.0138889,37.0453608 41.2870208,34.7773973 44.0916394,34.7773973 C44.8647224,34.7773973 45.6122451,34.9495228 46.292726,35.2765825 C46.5416135,35.3962053 46.8403501,35.2914156 46.959973,35.0425281 C47.0795958,34.7936406 46.9748061,34.494904 46.7259186,34.3752811 Z" id="Path" fill="#8C8D8E" fill-rule="nonzero"></path>
			<path d="M29.5636093,89.1698017 C28.7486601,88.7781125 27.8531788,88.5719178 26.9293301,88.5719178 C23.5729356,88.5719178 20.8515795,91.2870864 20.8515795,94.6369863 C20.8515795,97.9868862 23.5729356,100.702055 26.9293301,100.702055 C30.2857245,100.702055 33.0070806,97.9868862 33.0070806,94.6369863 C33.0070806,93.3898017 32.6284967,92.1978651 31.9329406,91.193223 C31.7757523,90.9661846 31.464275,90.9095599 31.2372366,91.0667482 C31.0101981,91.2239364 30.9535734,91.5354137 31.1107617,91.7624522 C31.6914599,92.6011968 32.0070806,93.5948994 32.0070806,94.6369863 C32.0070806,97.4340913 29.7339487,99.7020548 26.9293301,99.7020548 C24.1247114,99.7020548 21.8515795,97.4340913 21.8515795,94.6369863 C21.8515795,91.8398813 24.1247114,89.5719178 26.9293301,89.5719178 C27.702413,89.5719178 28.4499357,89.7440434 29.1304166,90.071103 C29.3793041,90.1907259 29.6780408,90.0859362 29.7976636,89.8370487 C29.9172865,89.5881612 29.8124967,89.2894245 29.5636093,89.1698017 Z" id="Path-Copy-60" fill="#8C8D8E" fill-rule="nonzero"></path>
			<path d="M29.5636093,61.7725414 C28.7486601,61.3808522 27.8531788,61.1746575 26.9293301,61.1746575 C23.5729356,61.1746575 20.8515795,63.8898261 20.8515795,67.239726 C20.8515795,70.589626 23.5729356,73.3047945 26.9293301,73.3047945 C30.2857245,73.3047945 33.0070806,70.589626 33.0070806,67.239726 C33.0070806,65.9925414 32.6284967,64.8006049 31.9329406,63.7959628 C31.7757523,63.5689243 31.464275,63.5122996 31.2372366,63.6694879 C31.0101981,63.8266762 30.9535734,64.1381535 31.1107617,64.3651919 C31.6914599,65.2039365 32.0070806,66.1976391 32.0070806,67.239726 C32.0070806,70.036831 29.7339487,72.3047945 26.9293301,72.3047945 C24.1247114,72.3047945 21.8515795,70.036831 21.8515795,67.239726 C21.8515795,64.442621 24.1247114,62.1746575 26.9293301,62.1746575 C27.702413,62.1746575 28.4499357,62.3467831 29.1304166,62.6738428 C29.3793041,62.7934656 29.6780408,62.6886759 29.7976636,62.4397884 C29.9172865,62.1909009 29.8124967,61.8921643 29.5636093,61.7725414 Z" id="Path-Copy-59" fill="#8C8D8E" fill-rule="nonzero"></path>
			<path d="M12.4012999,48.0739113 C11.5863507,47.6822221 10.6908694,47.4760274 9.7670207,47.4760274 C6.41062622,47.4760274 3.68927015,50.191196 3.68927015,53.5410959 C3.68927015,56.8909958 6.41062622,59.6061644 9.7670207,59.6061644 C13.1234152,59.6061644 15.8447712,56.8909958 15.8447712,53.5410959 C15.8447712,52.2939113 15.4661873,51.1019747 14.7706312,50.0973326 C14.613443,49.8702942 14.3019657,49.8136695 14.0749272,49.9708577 C13.8478888,50.128046 13.791264,50.4395233 13.9484523,50.6665618 C14.5291506,51.5053064 14.8447712,52.499009 14.8447712,53.5410959 C14.8447712,56.3382009 12.5716393,58.6061644 9.7670207,58.6061644 C6.96240205,58.6061644 4.68927015,56.3382009 4.68927015,53.5410959 C4.68927015,50.7439909 6.96240205,48.4760274 9.7670207,48.4760274 C10.5401036,48.4760274 11.2876263,48.6481529 11.9681072,48.9752126 C12.2169947,49.0948355 12.5157314,48.9900458 12.6353542,48.7411583 C12.7549771,48.4922708 12.6501874,48.1935341 12.4012999,48.0739113 Z" id="Path-Copy-61" fill="#8C8D8E" fill-rule="nonzero"></path>
			<path d="M9.7670207,74.8732877 C13.1234152,74.8732877 15.8447712,77.5884562 15.8447712,80.9383562 C15.8447712,84.2882561 13.1234152,87.0034247 9.7670207,87.0034247 C6.41062622,87.0034247 3.68927015,84.2882561 3.68927015,80.9383562 C3.68927015,77.5884562 6.41062622,74.8732877 9.7670207,74.8732877 Z M9.7670207,75.8732877 C6.96240205,75.8732877 4.68927015,78.1412512 4.68927015,80.9383562 C4.68927015,83.7354611 6.96240205,86.0034247 9.7670207,86.0034247 C12.5716393,86.0034247 14.8447712,83.7354611 14.8447712,80.9383562 C14.8447712,78.1412512 12.5716393,75.8732877 9.7670207,75.8732877 Z" id="Oval-Copy-128" fill="#C5C6C6" fill-rule="nonzero"></path>
			<path d="M46.7259186,75.4711715 C45.9109694,75.0794823 45.0154882,74.8732877 44.0916394,74.8732877 C40.735245,74.8732877 38.0138889,77.5884562 38.0138889,80.9383562 C38.0138889,84.2882561 40.735245,87.0034247 44.0916394,87.0034247 C47.4480339,87.0034247 50.16939,84.2882561 50.16939,80.9383562 C50.16939,79.6911716 49.7908061,78.499235 49.09525,77.4945929 C48.9380617,77.2675545 48.6265844,77.2109297 48.399546,77.368118 C48.1725075,77.5253063 48.1158828,77.8367836 48.2730711,78.063822 C48.8537693,78.9025667 49.16939,79.8962692 49.16939,80.9383562 C49.16939,83.7354611 46.8962581,86.0034247 44.0916394,86.0034247 C41.2870208,86.0034247 39.0138889,83.7354611 39.0138889,80.9383562 C39.0138889,78.1412512 41.2870208,75.8732877 44.0916394,75.8732877 C44.8647224,75.8732877 45.6122451,76.0454132 46.292726,76.3724729 C46.5416135,76.4920957 46.8403501,76.387306 46.959973,76.1384185 C47.0795958,75.889531 46.9748061,75.5907944 46.7259186,75.4711715 Z" id="Path-Copy-62" fill="#C5C6C6" fill-rule="nonzero"></path>
			<path d="M11.4832516,114.249168 C11.763636,114.249168 11.9909325,114.476465 11.9909325,114.756849 C11.9909325,115.037234 11.763636,115.26453 11.4832516,115.26453 L11.4832516,115.26453 L1.18586601,115.26453 C0.90548163,115.26453 0.678185178,115.037234 0.678185178,114.756849 C0.678185178,114.476465 0.90548163,114.249168 1.18586601,114.249168 L1.18586601,114.249168 Z M38.9429466,114.249168 C39.223331,114.249168 39.4506275,114.476465 39.4506275,114.756849 C39.4506275,115.037234 39.223331,115.26453 38.9429466,115.26453 L38.9429466,115.26453 L28.645561,115.26453 C28.3651766,115.26453 28.1378802,115.037234 28.1378802,114.756849 C28.1378802,114.476465 28.3651766,114.249168 28.645561,114.249168 L28.645561,114.249168 Z M25.2130991,114.249168 C25.4934835,114.249168 25.72078,114.476465 25.72078,114.756849 C25.72078,115.037234 25.4934835,115.26453 25.2130991,115.26453 L25.2130991,115.26453 L14.9157135,115.26453 C14.6353291,115.26453 14.4080327,115.037234 14.4080327,114.756849 C14.4080327,114.476465 14.6353291,114.249168 14.9157135,114.249168 L14.9157135,114.249168 Z M52.6727941,114.249168 C52.9531785,114.249168 53.180475,114.476465 53.180475,114.756849 C53.180475,115.037234 52.9531785,115.26453 52.6727941,115.26453 L52.6727941,115.26453 L42.3754085,115.26453 C42.0950241,115.26453 41.8677277,115.037234 41.8677277,114.756849 C41.8677277,114.476465 42.0950241,114.249168 42.3754085,114.249168 L42.3754085,114.249168 Z" id="Combined-Shape" fill="#C5C6C6" fill-rule="nonzero"></path>
			<path d="M44.9497549,78.2979452 C45.1952148,78.2979452 45.3993633,78.4748204 45.4416992,78.7080696 L45.4497549,78.7979452 L45.4487657,79.5799452 L46.2315876,79.5800107 C46.50773,79.5800107 46.7315876,79.8038683 46.7315876,80.0800107 C46.7315876,80.3254706 46.5547124,80.5296191 46.3214632,80.571955 L46.2315876,80.5800107 L45.4487657,80.5799452 L45.4487657,81.2959452 L46.2315876,81.2962416 C46.50773,81.2962416 46.7315876,81.5200992 46.7315876,81.7962416 C46.7315876,82.0417015 46.5547124,82.24585 46.3214632,82.288186 L46.2315876,82.2962416 L45.4487657,82.2959452 L45.4497549,83.0787671 C45.4497549,83.3549095 45.2258973,83.5787671 44.9497549,83.5787671 C44.704295,83.5787671 44.5001465,83.401892 44.4578106,83.1686428 L44.4497549,83.0787671 L44.4487657,82.2959452 L43.7327657,82.2959452 L43.733524,83.0787671 C43.733524,83.3549095 43.5096663,83.5787671 43.233524,83.5787671 C42.9880641,83.5787671 42.7839156,83.401892 42.7415796,83.1686428 L42.733524,83.0787671 L42.7327657,82.2959452 L41.9507657,82.2962416 C41.6746233,82.2962416 41.4507657,82.072384 41.4507657,81.7962416 C41.4507657,81.5507817 41.6276408,81.3466333 41.8608901,81.3042973 L41.9507657,81.2962416 L42.7327657,81.2959452 L42.7327657,80.5799452 L41.9507657,80.5800107 C41.6746233,80.5800107 41.4507657,80.3561531 41.4507657,80.0800107 C41.4507657,79.8345508 41.6276408,79.6304023 41.8608901,79.5880664 L41.9507657,79.5800107 L42.7327657,79.5799452 L42.733524,78.7979452 C42.733524,78.5218028 42.9573816,78.2979452 43.233524,78.2979452 C43.4789839,78.2979452 43.6831323,78.4748204 43.7254683,78.7080696 L43.733524,78.7979452 L43.7327657,79.5799452 L44.4487657,79.5799452 L44.4497549,78.7979452 C44.4497549,78.5218028 44.6736125,78.2979452 44.9497549,78.2979452 Z M44.4487657,80.5799452 L43.7327657,80.5799452 L43.7327657,81.2959452 L44.4487657,81.2959452 L44.4487657,80.5799452 Z" id="Combined-Shape" fill="#C5C6C6" fill-rule="nonzero"></path>
			<path d="M9.7670207,78.2979452 C10.0431631,78.2979452 10.2670207,78.5218028 10.2670207,78.7979452 L10.2670207,78.7979452 L10.266732,79.7319452 L10.9308181,79.0709015 C11.1045819,78.8975328 11.3740281,78.8785543 11.5687426,79.0137719 L11.6379247,79.0717061 C11.8329642,79.2671905 11.8326039,79.5837728 11.6371199,79.7788128 L11.6371199,79.7788128 L10.974732,80.4379452 L11.9123094,80.4383562 C12.1577693,80.4383562 12.3619177,80.6152313 12.4042537,80.8484805 L12.4123094,80.9383562 C12.4123094,81.2144985 12.1884517,81.4383562 11.9123094,81.4383562 L11.9123094,81.4383562 L10.975732,81.4379452 L11.6371199,82.0978995 C11.8108834,82.2712684 11.8304752,82.5406707 11.6957012,82.7356925 L11.6379247,82.8050063 C11.4428846,83.0004903 11.1263023,83.0008506 10.9308179,82.805811 L10.9308179,82.805811 L10.266732,82.1429452 L10.2670207,83.0787671 C10.2670207,83.324227 10.0901455,83.5283755 9.85689633,83.5707115 L9.7670207,83.5787671 C9.49087832,83.5787671 9.2670207,83.3549095 9.2670207,83.0787671 L9.2670207,83.0787671 L9.26673203,82.1429452 L8.60322352,82.805811 C8.42945954,82.9791795 8.16001335,82.998158 7.96529881,82.8629404 L7.89611674,82.8050063 C7.70107719,82.6095218 7.70143751,82.2929395 7.89692153,82.0978995 L7.89692153,82.0978995 L8.55773203,81.4379452 L7.62173203,81.4383562 C7.37627214,81.4383562 7.17212366,81.261481 7.1297877,81.0282318 L7.12173203,80.9383562 C7.12173203,80.6622138 7.34558965,80.4383562 7.62173203,80.4383562 L7.62173203,80.4383562 L8.55873203,80.4379452 L7.89692153,79.7788128 C7.72315795,79.6054439 7.7035662,79.3360416 7.83834021,79.1410198 L7.89611674,79.0717061 C8.09115676,78.876222 8.40773905,78.8758617 8.6032233,79.0709015 L8.6032233,79.0709015 L9.26673203,79.7319452 L9.2670207,78.7979452 C9.2670207,78.5524853 9.44389586,78.3483368 9.67714506,78.3060009 Z" id="Combined-Shape" fill="#C5C6C6" fill-rule="nonzero"></path>
		</g>
	</g>
</svg>
