<svg width="306" height="347" viewBox="0 0 306 347" fill="none" xmlns="http://www.w3.org/2000/svg">
<rect x="95.3613" y="219.958" width="113" height="87" rx="9" transform="rotate(14 95.3613 219.958)" fill="#E5CFC7"/>
<path fill-rule="evenodd" clip-rule="evenodd" d="M186.115 232.345L186.031 232.263L185.932 232.188C185.558 231.939 185.048 231.966 184.702 232.284C184.295 232.657 184.267 233.289 184.641 233.697L192.973 242.783L193.148 242.982C194.633 244.73 195.171 247.1 194.575 249.326L175.264 321.393L175.198 321.624C174.104 325.218 170.348 327.323 166.691 326.343L156.575 323.632L156.46 323.608C155.965 323.535 155.483 323.844 155.35 324.339C155.207 324.873 155.523 325.421 156.057 325.564L166.174 328.275L166.431 328.34C171.15 329.459 175.933 326.626 177.196 321.911L196.507 249.844L196.581 249.546C197.25 246.661 196.457 243.624 194.447 241.432L186.115 232.345ZM61.8987 286.01L61.8174 285.914L61.7269 285.831C61.3798 285.55 60.8736 285.528 60.4991 285.807C60.0565 286.137 59.9656 286.764 60.2959 287.207L70.2763 300.577L70.495 300.858C71.6891 302.332 73.3209 303.394 75.1592 303.887L131.449 318.97L131.564 318.993C132.059 319.066 132.541 318.758 132.674 318.263C132.817 317.729 132.5 317.181 131.967 317.038L75.6768 301.955L75.3755 301.867C73.9811 301.425 72.7571 300.557 71.879 299.381L61.8987 286.01Z" fill="#291D18"/>
<path fill-rule="evenodd" clip-rule="evenodd" d="M88.4424 204.954L182.137 230.06C186.938 231.346 189.788 236.281 188.501 241.083L170.125 309.663C168.838 314.464 163.903 317.314 159.102 316.027L65.4075 290.922C60.6063 289.635 57.757 284.7 59.0435 279.899L77.4197 211.318C78.7061 206.517 83.6412 203.668 88.4424 204.954ZM181.62 231.991L87.9248 206.886C84.1905 205.885 80.3522 208.101 79.3516 211.836L60.9754 280.416C59.9749 284.151 62.1909 287.989 65.9252 288.99L159.62 314.095C163.354 315.096 167.193 312.88 168.193 309.145L186.569 240.565C187.57 236.83 185.354 232.992 181.62 231.991Z" fill="#291D18"/>
<path fill-rule="evenodd" clip-rule="evenodd" d="M260.454 81.5135C244.524 57.2412 219.938 39.3447 190.813 31.5406C127.873 14.6757 63.6842 50.0755 47.458 110.633C47.3151 111.166 47.6317 111.714 48.1651 111.857C48.6986 112 49.2469 111.684 49.3899 111.15C65.3256 51.6774 128.405 16.889 190.296 33.4725C218.944 41.1489 243.12 58.747 258.782 82.6109C259.085 83.0726 259.705 83.2012 260.167 82.8982C260.629 82.5952 260.757 81.9752 260.454 81.5135ZM275.417 171.714C281.619 148.566 280.056 124.494 271.305 102.39C271.102 101.876 270.521 101.625 270.007 101.828C269.494 102.032 269.242 102.613 269.445 103.126C278.04 124.836 279.575 148.468 273.485 171.196C273.342 171.73 273.658 172.278 274.192 172.421C274.725 172.564 275.274 172.247 275.417 171.714Z" fill="#291D18"/>
<path fill-rule="evenodd" clip-rule="evenodd" d="M47.4576 110.633C51.911 94.0123 106.278 94.8175 169.331 111.713C232.384 128.607 279.869 155.094 275.416 171.714C270.963 188.334 216.596 187.529 153.543 170.634C90.4899 153.739 43.0042 127.253 47.4576 110.633ZM273.484 171.196C277.464 156.342 230.591 130.198 168.813 113.644C107.035 97.0907 53.3697 96.2958 49.3895 111.15C45.4094 126.004 92.2824 152.148 154.061 168.702C215.839 185.255 269.504 186.05 273.484 171.196Z" fill="#291D18"/>
<path d="M163.89 110.772C164.385 110.904 164.693 111.387 164.621 111.882L164.597 111.996L136.127 218.248C135.984 218.782 135.435 219.098 134.902 218.955C134.407 218.822 134.098 218.34 134.171 217.845L134.195 217.73L162.665 111.479C162.808 110.945 163.356 110.629 163.89 110.772Z" fill="#291D18"/>
<path d="M231.102 138.67C231.529 138.32 232.159 138.382 232.509 138.809C232.832 139.203 232.804 139.771 232.462 140.131L232.37 140.217L163.147 196.949C162.72 197.299 162.09 197.237 161.739 196.81C161.416 196.415 161.445 195.848 161.787 195.488L161.879 195.402L231.102 138.67Z" fill="#291D18"/>
<path d="M156.814 198.483C157.24 198.132 157.87 198.193 158.221 198.619C158.546 199.013 158.519 199.58 158.177 199.941L158.085 200.027L145.225 210.618C144.799 210.969 144.169 210.908 143.818 210.482C143.494 210.088 143.521 209.521 143.862 209.16L143.954 209.074L156.814 198.483Z" fill="#291D18"/>
<path d="M90.9164 99.4481C90.7187 98.9324 90.1404 98.6746 89.6247 98.8723C89.1487 99.0548 88.8924 99.5615 89.0112 100.044L89.0488 100.164L134.253 218.096C134.45 218.612 135.029 218.869 135.544 218.672C136.02 218.489 136.277 217.982 136.158 217.5L136.12 217.38L90.9164 99.4481Z" fill="#291D18"/>
<path d="M52.0719 120.248C51.7101 119.831 51.0786 119.786 50.6613 120.147C50.2738 120.483 50.2074 121.052 50.4896 121.466L50.5609 121.558L134.356 218.198C134.718 218.615 135.349 218.66 135.766 218.298C136.154 217.962 136.22 217.393 135.938 216.98L135.867 216.887L52.0719 120.248Z" fill="#291D18"/>
<path d="M265.202 178.278C265.724 178.097 266.293 178.374 266.474 178.896C266.641 179.381 266.415 179.907 265.963 180.124L265.855 180.168L137.097 219.065C136.575 219.245 136.005 218.968 135.825 218.446C135.657 217.962 135.884 217.436 136.335 217.219L136.443 217.174L265.202 178.278Z" fill="#291D18"/>
<path fill-rule="evenodd" clip-rule="evenodd" d="M142.782 220.429C142.855 219.934 142.547 219.452 142.051 219.319C141.518 219.176 140.969 219.492 140.827 220.026L118.22 304.394L121.426 311.958L121.482 312.07C121.731 312.5 122.267 312.687 122.736 312.488L122.849 312.432C123.279 312.183 123.466 311.647 123.267 311.178L120.33 304.247L142.758 220.544L142.782 220.429ZM129.259 216.806C129.332 216.311 129.024 215.828 128.528 215.696C127.995 215.553 127.447 215.869 127.304 216.403L104.704 300.745L107.441 308.171L107.492 308.286C107.72 308.728 108.247 308.94 108.725 308.764L108.84 308.713C109.281 308.485 109.494 307.958 109.318 307.48L106.8 300.65L129.235 216.92L129.259 216.806Z" fill="#291D18"/>
<path d="M148.602 321.407C149.136 321.549 149.454 322.096 149.312 322.63C149.181 323.126 148.7 323.435 148.204 323.364L148.09 323.34L139.123 320.962C138.589 320.821 138.271 320.273 138.413 319.74C138.544 319.244 139.026 318.934 139.522 319.006L139.636 319.029L148.602 321.407Z" fill="#291D18"/>
</svg>
