<svg xmlns="http://www.w3.org/2000/svg" width="250" height="120" viewBox="0 0 250 120">
  <g fill="none" fill-rule="evenodd">
    <rect width="50" height="70" y="50" fill="#66C0BD"/>
    <rect width="50" height="82" x="50" y="38" fill="#33ABA7"/>
    <rect width="50" height="95" x="100" y="25" fill="#009793"/>
    <rect width="50" height="108" x="150" y="12" fill="#007874"/>
    <rect width="50" height="120" x="200" fill="#005A57"/>
    <path fill="#FFF" fill-rule="nonzero" d="M19.756 95.64L19.756 94.728 15.604 92.628 15.604 92.604 19.756 90.492 19.756 89.58 14.56 92.292 14.56 92.928 19.756 95.64zM23.872 96.132C25.612 96.132 26.584 94.668 26.596 92.112 26.596 89.628 25.636 88.068 23.872 88.068 22.108 88.068 21.136 89.604 21.136 92.124 21.148 94.62 22.084 96.132 23.872 96.132zM23.872 95.268C22.684 95.268 22.24 94.092 22.24 92.124 22.24 90.108 22.744 88.932 23.872 88.932 24.988 88.932 25.492 90.12 25.492 92.124 25.492 94.092 25.048 95.268 23.872 95.268zM28.768 96.132C29.188 96.132 29.536 95.784 29.536 95.364 29.536 94.944 29.188 94.596 28.768 94.596 28.336 94.596 28 94.944 28 95.364 28 95.784 28.336 96.132 28.768 96.132zM34.84 96L34.84 93.924 35.812 93.924 35.872 93.048 34.84 93.048 34.84 88.164 33.604 88.164 30.16 93.156 30.16 93.924 33.796 93.924 33.796 96 34.84 96zM33.796 93.048L31.276 93.048 31.276 93.036 33.22 90.228 33.784 89.268 33.82 89.28 33.796 90.384 33.796 93.048zM15.112 110L16.72 103.304 16.744 103.304 18.316 110 19.54 110 21.52 101.804 20.392 101.804 19.504 105.92 18.94 108.668 18.904 108.668 18.316 105.92 17.344 101.804 16.156 101.804 15.172 105.92 14.572 108.68 14.536 108.68 13.984 105.92 13.084 101.804 11.932 101.804 13.876 110 15.112 110zM22.732 110.312L26.068 101.72 25.204 101.72 21.88 110.312 22.732 110.312zM28.192 110L28.192 107.6 28.828 107.216 30.724 110 32.044 110 29.62 106.652 31.804 104.132 30.508 104.132 28.804 106.328 28.192 106.712 28.192 101.228 27.112 101.276 27.112 110 28.192 110zM37.972 110.732C37.9 109.412 36.304 109.4 34.24 109.28 33.784 109.256 33.64 109.112 33.604 108.908 33.556 108.668 33.724 108.38 33.928 108.14 34.228 108.296 34.6 108.392 35.032 108.392 36.268 108.392 37.324 107.576 37.324 106.208 37.324 105.5 37.072 104.96 36.664 104.588 36.676 104.348 36.904 104.228 37.06 104.228L37.84 104.228 37.84 103.496 37.024 103.496C36.472 103.496 36.28 103.892 36.232 104.288 35.908 104.096 35.452 104 35.02 104 33.7 104 32.716 104.828 32.716 106.208 32.716 106.94 33.052 107.516 33.46 107.852L33.46 107.876C33.076 108.236 32.764 108.668 32.764 109.088 32.764 109.364 32.86 109.616 33.088 109.796L33.088 109.82C32.596 110.108 32.248 110.54 32.236 111.008 32.176 112.568 34.12 112.736 34.66 112.748 37.264 112.796 38.02 111.644 37.972 110.732zM35.02 107.636C34.18 107.636 33.748 107.12 33.748 106.208 33.748 105.296 34.18 104.78 35.02 104.78 35.86 104.78 36.292 105.296 36.292 106.208 36.292 107.12 35.848 107.636 35.02 107.636zM34.744 111.884C34.24 111.872 33.16 111.728 33.16 110.84 33.16 110.552 33.34 110.264 33.664 110.024 33.808 110.06 34 110.096 34.216 110.096 35.704 110.12 36.952 110.228 37 110.72 37.06 111.236 36.58 111.932 34.744 111.884zM64.56 81.64L69.756 78.94 69.756 78.28 64.56 75.58 64.56 76.492 68.736 78.604 68.736 78.628 64.56 80.728 64.56 81.64zM73.872 82.132C75.612 82.132 76.584 80.668 76.596 78.112 76.596 75.628 75.636 74.068 73.872 74.068 72.108 74.068 71.136 75.604 71.136 78.124 71.148 80.62 72.084 82.132 73.872 82.132zM73.872 81.268C72.684 81.268 72.24 80.092 72.24 78.124 72.24 76.108 72.744 74.932 73.872 74.932 74.988 74.932 75.492 76.12 75.492 78.124 75.492 80.092 75.048 81.268 73.872 81.268zM78.768 82.132C79.188 82.132 79.536 81.784 79.536 81.364 79.536 80.944 79.188 80.596 78.768 80.596 78.336 80.596 78 80.944 78 81.364 78 81.784 78.336 82.132 78.768 82.132zM84.84 82L84.84 79.924 85.812 79.924 85.872 79.048 84.84 79.048 84.84 74.164 83.604 74.164 80.16 79.156 80.16 79.924 83.796 79.924 83.796 82 84.84 82zM83.796 79.048L81.276 79.048 81.276 79.036 83.22 76.228 83.784 75.268 83.82 75.28 83.796 76.384 83.796 79.048zM69.672 95.64L69.672 94.728 65.52 92.628 65.52 92.604 69.672 90.492 69.672 89.58 64.476 92.292 64.476 92.928 69.672 95.64zM73.788 96.132C75.528 96.132 76.5 94.668 76.512 92.112 76.512 89.628 75.552 88.068 73.788 88.068 72.024 88.068 71.052 89.604 71.052 92.124 71.064 94.62 72 96.132 73.788 96.132zM73.788 95.268C72.6 95.268 72.156 94.092 72.156 92.124 72.156 90.108 72.66 88.932 73.788 88.932 74.904 88.932 75.408 90.12 75.408 92.124 75.408 94.092 74.964 95.268 73.788 95.268zM78.684 96.132C79.104 96.132 79.452 95.784 79.452 95.364 79.452 94.944 79.104 94.596 78.684 94.596 78.252 94.596 77.916 94.944 77.916 95.364 77.916 95.784 78.252 96.132 78.684 96.132zM83.052 96.12C84.588 96.12 85.776 95.256 85.776 93.876 85.776 92.94 85.152 92.268 84.18 91.872L84.18 91.848C85.104 91.404 85.5 90.744 85.5 90.012 85.5 88.956 84.624 88.08 83.16 88.08 81.78 88.08 80.664 88.848 80.664 90.132 80.664 90.84 81.084 91.512 81.972 91.908L81.972 91.932C80.976 92.352 80.4 93.06 80.4 94.032 80.4 95.22 81.42 96.12 83.052 96.12zM83.232 91.5C82.344 91.296 81.732 90.852 81.732 90.096 81.732 89.424 82.212 88.884 83.088 88.884 84.012 88.884 84.432 89.46 84.432 90.108 84.432 90.816 83.868 91.296 83.232 91.5zM83.076 95.316C82.044 95.316 81.516 94.656 81.516 93.888 81.516 93.132 82.08 92.568 82.932 92.304 83.94 92.568 84.648 93.036 84.648 93.96 84.648 94.74 84.048 95.316 83.076 95.316zM65.112 110L66.72 103.304 66.744 103.304 68.316 110 69.54 110 71.52 101.804 70.392 101.804 69.504 105.92 68.94 108.668 68.904 108.668 68.316 105.92 67.344 101.804 66.156 101.804 65.172 105.92 64.572 108.68 64.536 108.68 63.984 105.92 63.084 101.804 61.932 101.804 63.876 110 65.112 110zM72.732 110.312L76.068 101.72 75.204 101.72 71.88 110.312 72.732 110.312zM78.192 110L78.192 107.6 78.828 107.216 80.724 110 82.044 110 79.62 106.652 81.804 104.132 80.508 104.132 78.804 106.328 78.192 106.712 78.192 101.228 77.112 101.276 77.112 110 78.192 110zM87.972 110.732C87.9 109.412 86.304 109.4 84.24 109.28 83.784 109.256 83.64 109.112 83.604 108.908 83.556 108.668 83.724 108.38 83.928 108.14 84.228 108.296 84.6 108.392 85.032 108.392 86.268 108.392 87.324 107.576 87.324 106.208 87.324 105.5 87.072 104.96 86.664 104.588 86.676 104.348 86.904 104.228 87.06 104.228L87.84 104.228 87.84 103.496 87.024 103.496C86.472 103.496 86.28 103.892 86.232 104.288 85.908 104.096 85.452 104 85.02 104 83.7 104 82.716 104.828 82.716 106.208 82.716 106.94 83.052 107.516 83.46 107.852L83.46 107.876C83.076 108.236 82.764 108.668 82.764 109.088 82.764 109.364 82.86 109.616 83.088 109.796L83.088 109.82C82.596 110.108 82.248 110.54 82.236 111.008 82.176 112.568 84.12 112.736 84.66 112.748 87.264 112.796 88.02 111.644 87.972 110.732zM85.02 107.636C84.18 107.636 83.748 107.12 83.748 106.208 83.748 105.296 84.18 104.78 85.02 104.78 85.86 104.78 86.292 105.296 86.292 106.208 86.292 107.12 85.848 107.636 85.02 107.636zM84.744 111.884C84.24 111.872 83.16 111.728 83.16 110.84 83.16 110.552 83.34 110.264 83.664 110.024 83.808 110.06 84 110.096 84.216 110.096 85.704 110.12 86.952 110.228 87 110.72 87.06 111.236 86.58 111.932 84.744 111.884zM114.476 81.64L119.672 78.94 119.672 78.28 114.476 75.58 114.476 76.492 118.652 78.604 118.652 78.628 114.476 80.728 114.476 81.64zM123.788 82.132C125.528 82.132 126.5 80.668 126.512 78.112 126.512 75.628 125.552 74.068 123.788 74.068 122.024 74.068 121.052 75.604 121.052 78.124 121.064 80.62 122 82.132 123.788 82.132zM123.788 81.268C122.6 81.268 122.156 80.092 122.156 78.124 122.156 76.108 122.66 74.932 123.788 74.932 124.904 74.932 125.408 76.12 125.408 78.124 125.408 80.092 124.964 81.268 123.788 81.268zM128.684 82.132C129.104 82.132 129.452 81.784 129.452 81.364 129.452 80.944 129.104 80.596 128.684 80.596 128.252 80.596 127.916 80.944 127.916 81.364 127.916 81.784 128.252 82.132 128.684 82.132zM133.052 82.12C134.588 82.12 135.776 81.256 135.776 79.876 135.776 78.94 135.152 78.268 134.18 77.872L134.18 77.848C135.104 77.404 135.5 76.744 135.5 76.012 135.5 74.956 134.624 74.08 133.16 74.08 131.78 74.08 130.664 74.848 130.664 76.132 130.664 76.84 131.084 77.512 131.972 77.908L131.972 77.932C130.976 78.352 130.4 79.06 130.4 80.032 130.4 81.22 131.42 82.12 133.052 82.12zM133.232 77.5C132.344 77.296 131.732 76.852 131.732 76.096 131.732 75.424 132.212 74.884 133.088 74.884 134.012 74.884 134.432 75.46 134.432 76.108 134.432 76.816 133.868 77.296 133.232 77.5zM133.076 81.316C132.044 81.316 131.516 80.656 131.516 79.888 131.516 79.132 132.08 78.568 132.932 78.304 133.94 78.568 134.648 79.036 134.648 79.96 134.648 80.74 134.048 81.316 133.076 81.316zM120.356 95.64L120.356 94.728 116.204 92.628 116.204 92.604 120.356 90.492 120.356 89.58 115.16 92.292 115.16 92.928 120.356 95.64zM124.808 96L124.808 88.164 123.908 88.164 122.06 89.112 122.36 89.904 123.716 89.208 123.74 89.208 123.752 96 124.808 96zM128.252 96.132C128.672 96.132 129.02 95.784 129.02 95.364 129.02 94.944 128.672 94.596 128.252 94.596 127.82 94.596 127.484 94.944 127.484 95.364 127.484 95.784 127.82 96.132 128.252 96.132zM134.948 96L135.008 95.088 131.444 95.088C133.304 93.444 134.828 92.136 134.828 90.372 134.828 89.124 134.024 88.08 132.44 88.08 131.6 88.08 130.76 88.368 130.196 88.752L130.508 89.52C131 89.244 131.552 88.992 132.224 88.992 133.28 88.992 133.724 89.64 133.724 90.504 133.724 91.872 132.404 93.072 129.956 95.28L129.956 96 134.948 96zM115.112 110L116.72 103.304 116.744 103.304 118.316 110 119.54 110 121.52 101.804 120.392 101.804 119.504 105.92 118.94 108.668 118.904 108.668 118.316 105.92 117.344 101.804 116.156 101.804 115.172 105.92 114.572 108.68 114.536 108.68 113.984 105.92 113.084 101.804 111.932 101.804 113.876 110 115.112 110zM122.732 110.312L126.068 101.72 125.204 101.72 121.88 110.312 122.732 110.312zM128.192 110L128.192 107.6 128.828 107.216 130.724 110 132.044 110 129.62 106.652 131.804 104.132 130.508 104.132 128.804 106.328 128.192 106.712 128.192 101.228 127.112 101.276 127.112 110 128.192 110zM137.972 110.732C137.9 109.412 136.304 109.4 134.24 109.28 133.784 109.256 133.64 109.112 133.604 108.908 133.556 108.668 133.724 108.38 133.928 108.14 134.228 108.296 134.6 108.392 135.032 108.392 136.268 108.392 137.324 107.576 137.324 106.208 137.324 105.5 137.072 104.96 136.664 104.588 136.676 104.348 136.904 104.228 137.06 104.228L137.84 104.228 137.84 103.496 137.024 103.496C136.472 103.496 136.28 103.892 136.232 104.288 135.908 104.096 135.452 104 135.02 104 133.7 104 132.716 104.828 132.716 106.208 132.716 106.94 133.052 107.516 133.46 107.852L133.46 107.876C133.076 108.236 132.764 108.668 132.764 109.088 132.764 109.364 132.86 109.616 133.088 109.796L133.088 109.82C132.596 110.108 132.248 110.54 132.236 111.008 132.176 112.568 134.12 112.736 134.66 112.748 137.264 112.796 138.02 111.644 137.972 110.732zM135.02 107.636C134.18 107.636 133.748 107.12 133.748 106.208 133.748 105.296 134.18 104.78 135.02 104.78 135.86 104.78 136.292 105.296 136.292 106.208 136.292 107.12 135.848 107.636 135.02 107.636zM134.744 111.884C134.24 111.872 133.16 111.728 133.16 110.84 133.16 110.552 133.34 110.264 133.664 110.024 133.808 110.06 134 110.096 134.216 110.096 135.704 110.12 136.952 110.228 137 110.72 137.06 111.236 136.58 111.932 134.744 111.884zM165.16 81.64L170.356 78.94 170.356 78.28 165.16 75.58 165.16 76.492 169.336 78.604 169.336 78.628 165.16 80.728 165.16 81.64zM174.808 82L174.808 74.164 173.908 74.164 172.06 75.112 172.36 75.904 173.716 75.208 173.74 75.208 173.752 82 174.808 82zM178.252 82.132C178.672 82.132 179.02 81.784 179.02 81.364 179.02 80.944 178.672 80.596 178.252 80.596 177.82 80.596 177.484 80.944 177.484 81.364 177.484 81.784 177.82 82.132 178.252 82.132zM184.948 82L185.008 81.088 181.444 81.088C183.304 79.444 184.828 78.136 184.828 76.372 184.828 75.124 184.024 74.08 182.44 74.08 181.6 74.08 180.76 74.368 180.196 74.752L180.508 75.52C181 75.244 181.552 74.992 182.224 74.992 183.28 74.992 183.724 75.64 183.724 76.504 183.724 77.872 182.404 79.072 179.956 81.28L179.956 82 184.948 82zM170.254 95.64L170.254 94.728 166.102 92.628 166.102 92.604 170.254 90.492 170.254 89.58 165.058 92.292 165.058 92.928 170.254 95.64zM174.706 96L174.706 88.164 173.806 88.164 171.958 89.112 172.258 89.904 173.614 89.208 173.638 89.208 173.65 96 174.706 96zM178.15 96.132C178.57 96.132 178.918 95.784 178.918 95.364 178.918 94.944 178.57 94.596 178.15 94.596 177.718 94.596 177.382 94.944 177.382 95.364 177.382 95.784 177.718 96.132 178.15 96.132zM182.578 96.12C184.222 96.12 185.23 94.884 185.23 93.408 185.23 91.896 184.282 90.864 182.854 90.864 182.074 90.864 181.402 91.224 180.994 91.716L180.958 91.716C181.234 89.904 182.698 88.92 184.462 88.92L184.462 88.044C181.918 87.996 179.842 89.64 179.842 92.796 179.842 94.788 180.874 96.12 182.578 96.12zM182.626 95.28C181.45 95.28 180.886 94.2 180.934 92.82 181.126 92.232 181.858 91.716 182.554 91.716 183.55 91.716 184.126 92.436 184.126 93.468 184.126 94.548 183.514 95.28 182.626 95.28zM165.112 110L166.72 103.304 166.744 103.304 168.316 110 169.54 110 171.52 101.804 170.392 101.804 169.504 105.92 168.94 108.668 168.904 108.668 168.316 105.92 167.344 101.804 166.156 101.804 165.172 105.92 164.572 108.68 164.536 108.68 163.984 105.92 163.084 101.804 161.932 101.804 163.876 110 165.112 110zM172.732 110.312L176.068 101.72 175.204 101.72 171.88 110.312 172.732 110.312zM178.192 110L178.192 107.6 178.828 107.216 180.724 110 182.044 110 179.62 106.652 181.804 104.132 180.508 104.132 178.804 106.328 178.192 106.712 178.192 101.228 177.112 101.276 177.112 110 178.192 110zM187.972 110.732C187.9 109.412 186.304 109.4 184.24 109.28 183.784 109.256 183.64 109.112 183.604 108.908 183.556 108.668 183.724 108.38 183.928 108.14 184.228 108.296 184.6 108.392 185.032 108.392 186.268 108.392 187.324 107.576 187.324 106.208 187.324 105.5 187.072 104.96 186.664 104.588 186.676 104.348 186.904 104.228 187.06 104.228L187.84 104.228 187.84 103.496 187.024 103.496C186.472 103.496 186.28 103.892 186.232 104.288 185.908 104.096 185.452 104 185.02 104 183.7 104 182.716 104.828 182.716 106.208 182.716 106.94 183.052 107.516 183.46 107.852L183.46 107.876C183.076 108.236 182.764 108.668 182.764 109.088 182.764 109.364 182.86 109.616 183.088 109.796L183.088 109.82C182.596 110.108 182.248 110.54 182.236 111.008 182.176 112.568 184.12 112.736 184.66 112.748 187.264 112.796 188.02 111.644 187.972 110.732zM185.02 107.636C184.18 107.636 183.748 107.12 183.748 106.208 183.748 105.296 184.18 104.78 185.02 104.78 185.86 104.78 186.292 105.296 186.292 106.208 186.292 107.12 185.848 107.636 185.02 107.636zM184.744 111.884C184.24 111.872 183.16 111.728 183.16 110.84 183.16 110.552 183.34 110.264 183.664 110.024 183.808 110.06 184 110.096 184.216 110.096 185.704 110.12 186.952 110.228 187 110.72 187.06 111.236 186.58 111.932 184.744 111.884zM215.058 81.64L220.254 78.94 220.254 78.28 215.058 75.58 215.058 76.492 219.234 78.604 219.234 78.628 215.058 80.728 215.058 81.64zM224.706 82L224.706 74.164 223.806 74.164 221.958 75.112 222.258 75.904 223.614 75.208 223.638 75.208 223.65 82 224.706 82zM228.15 82.132C228.57 82.132 228.918 81.784 228.918 81.364 228.918 80.944 228.57 80.596 228.15 80.596 227.718 80.596 227.382 80.944 227.382 81.364 227.382 81.784 227.718 82.132 228.15 82.132zM232.578 82.12C234.222 82.12 235.23 80.884 235.23 79.408 235.23 77.896 234.282 76.864 232.854 76.864 232.074 76.864 231.402 77.224 230.994 77.716L230.958 77.716C231.234 75.904 232.698 74.92 234.462 74.92L234.462 74.044C231.918 73.996 229.842 75.64 229.842 78.796 229.842 80.788 230.874 82.12 232.578 82.12zM232.626 81.28C231.45 81.28 230.886 80.2 230.934 78.82 231.126 78.232 231.858 77.716 232.554 77.716 233.55 77.716 234.126 78.436 234.126 79.468 234.126 80.548 233.514 81.28 232.626 81.28zM224.472 95.64L224.472 94.728 220.32 92.628 220.32 92.604 224.472 90.492 224.472 89.58 219.276 92.292 219.276 92.928 224.472 95.64zM230.832 96L230.892 95.088 227.328 95.088C229.188 93.444 230.712 92.136 230.712 90.372 230.712 89.124 229.908 88.08 228.324 88.08 227.484 88.08 226.644 88.368 226.08 88.752L226.392 89.52C226.884 89.244 227.436 88.992 228.108 88.992 229.164 88.992 229.608 89.64 229.608 90.504 229.608 91.872 228.288 93.072 225.84 95.28L225.84 96 230.832 96zM215.112 110L216.72 103.304 216.744 103.304 218.316 110 219.54 110 221.52 101.804 220.392 101.804 219.504 105.92 218.94 108.668 218.904 108.668 218.316 105.92 217.344 101.804 216.156 101.804 215.172 105.92 214.572 108.68 214.536 108.68 213.984 105.92 213.084 101.804 211.932 101.804 213.876 110 215.112 110zM222.732 110.312L226.068 101.72 225.204 101.72 221.88 110.312 222.732 110.312zM228.192 110L228.192 107.6 228.828 107.216 230.724 110 232.044 110 229.62 106.652 231.804 104.132 230.508 104.132 228.804 106.328 228.192 106.712 228.192 101.228 227.112 101.276 227.112 110 228.192 110zM237.972 110.732C237.9 109.412 236.304 109.4 234.24 109.28 233.784 109.256 233.64 109.112 233.604 108.908 233.556 108.668 233.724 108.38 233.928 108.14 234.228 108.296 234.6 108.392 235.032 108.392 236.268 108.392 237.324 107.576 237.324 106.208 237.324 105.5 237.072 104.96 236.664 104.588 236.676 104.348 236.904 104.228 237.06 104.228L237.84 104.228 237.84 103.496 237.024 103.496C236.472 103.496 236.28 103.892 236.232 104.288 235.908 104.096 235.452 104 235.02 104 233.7 104 232.716 104.828 232.716 106.208 232.716 106.94 233.052 107.516 233.46 107.852L233.46 107.876C233.076 108.236 232.764 108.668 232.764 109.088 232.764 109.364 232.86 109.616 233.088 109.796L233.088 109.82C232.596 110.108 232.248 110.54 232.236 111.008 232.176 112.568 234.12 112.736 234.66 112.748 237.264 112.796 238.02 111.644 237.972 110.732zM235.02 107.636C234.18 107.636 233.748 107.12 233.748 106.208 233.748 105.296 234.18 104.78 235.02 104.78 235.86 104.78 236.292 105.296 236.292 106.208 236.292 107.12 235.848 107.636 235.02 107.636zM234.744 111.884C234.24 111.872 233.16 111.728 233.16 110.84 233.16 110.552 233.34 110.264 233.664 110.024 233.808 110.06 234 110.096 234.216 110.096 235.704 110.12 236.952 110.228 237 110.72 237.06 111.236 236.58 111.932 234.744 111.884zM22.844 66L23.53 63.55 26.33 63.55 27.044 66 29.088 66 26.19 56.424 23.74 56.424 20.842 66 22.844 66zM26.008 62.066L23.866 62.066 24.622 59.14 24.916 58.006 24.944 58.006 25.224 59.14 26.008 62.066zM73.915 66.056C76.953 66.056 78.563 65.398 78.563 63.284 78.563 62.066 77.695 61.226 76.673 60.946L76.673 60.918C77.667 60.54 78.241 59.728 78.241 58.818 78.241 56.97 76.701 56.396 74.573 56.396 73.551 56.396 72.501 56.452 71.801 56.522L71.801 65.986C72.333 66.014 73.033 66.056 73.915 66.056zM74.601 60.316L73.677 60.316 73.677 57.894C73.971 57.88 74.321 57.852 74.811 57.852 75.721 57.852 76.309 58.216 76.309 59.042 76.309 59.854 75.749 60.316 74.601 60.316zM74.545 64.586C74.209 64.586 73.929 64.586 73.677 64.572L73.677 61.758 74.783 61.758C75.805 61.758 76.561 62.206 76.561 63.172 76.561 64.236 75.735 64.586 74.545 64.586zM125.099 66.14C126.135 66.14 127.059 65.958 127.549 65.734L127.353 64.194C126.821 64.418 126.051 64.558 125.337 64.558 123.489 64.558 122.453 63.298 122.453 61.226 122.453 59.042 123.615 57.88 125.337 57.88 126.121 57.88 126.793 58.034 127.353 58.244L127.619 56.718C127.143 56.494 126.275 56.298 125.239 56.298 122.313 56.298 120.465 58.314 120.465 61.31 120.465 64.026 121.991 66.14 125.099 66.14zM173.607 66.056C177.233 66.056 179.137 64.46 179.137 61.086 179.137 58.188 177.513 56.396 174.153 56.396 173.131 56.396 172.109 56.438 171.255 56.522L171.255 65.986C171.871 66.014 172.641 66.056 173.607 66.056zM173.901 64.544C173.635 64.544 173.355 64.53 173.159 64.502L173.159 57.964C173.425 57.936 173.789 57.908 174.237 57.908 176.099 57.908 177.135 59.042 177.135 61.114 177.135 63.55 175.959 64.544 173.901 64.544z"/>
    <polygon fill="#FFF" fill-rule="nonzero" points="229.031 66 229.115 64.432 225.153 64.432 225.153 61.87 228.499 61.87 228.597 60.302 225.153 60.302 225.153 58.02 228.835 58.02 228.933 56.438 223.249 56.438 223.249 66"/>
  </g>
</svg>
