<svg xmlns="http://www.w3.org/2000/svg" width="90" height="90" viewBox="0 0 90 90">
  <g fill="none" fill-rule="evenodd">
    <path fill="#239A98" d="M11.819426,-5.17920154e-16 L76.180574,5.17920154e-16 C80.6381677,-3.00926524e-16 82.2545989,0.464128056 83.8842285,1.33566352 C85.5138581,2.20719898 86.792801,3.48614185 87.6643365,5.11577148 C88.5358719,6.74540111 89,8.3618323 89,12.819426 L89,77.180574 C89,81.6381677 88.5358719,83.2545989 87.6643365,84.8842285 C86.792801,86.5138581 85.5138581,87.792801 83.8842285,88.6643365 C82.2545989,89.5358719 80.6381677,90 76.180574,90 L11.819426,90 C7.3618323,90 5.74540111,89.5358719 4.11577148,88.6643365 C2.48614185,87.792801 1.20719898,86.5138581 0.335663519,84.8842285 C-0.535871944,83.2545989 -1,81.6381677 -1,77.180574 L-1,12.819426 C-1,8.3618323 -0.535871944,6.74540111 0.335663519,5.11577148 C1.20719898,3.48614185 2.48614185,2.20719898 4.11577148,1.33566352 C5.74540111,0.464128056 7.3618323,3.00926524e-16 11.819426,-5.17920154e-16 Z"/>
    <g transform="translate(20 21)">
      <rect width="48" height="48"/>
      <path fill="#FFF" fill-rule="nonzero" d="M41,39.3684211 C41,41.8411906 39.1414657,43.8804203 36.7809753,43.9949292 L36.5714286,44 L11.4285714,44 C9.03972773,44 7.11294071,42.0314209 7.00478867,39.5854436 L7,39.3684211 L7,20 L5.33333333,20 C3.56582871,20 2.10402465,18.6639653 2.00531225,16.9587103 L2,16.7746356 L2,10.0985423 C2,8.08083793 2.57657418,7.14330715 4.85301749,6.51423146 L5.027,6.468 L5.37928971,6.34029835 C9.66363283,4.82123848 15.6238548,4.04762299 23.2775082,4.00213212 L24,4 L24.7224918,4.00213212 C32.3761452,4.04762299 38.3363672,4.82123848 42.6207103,6.34029835 L42.6207103,6.34029835 L42.973,6.468 L43.1469825,6.51423146 C45.4234258,7.14330715 46,8.08083793 46,10.0985423 L46,10.0985423 L46,16.7746356 L45.9946878,16.9587103 C45.8959753,18.6639653 44.4341713,20 42.6666667,20 L42.6666667,20 L41,20 L41,39.3684211 Z M28.5,29 C29.8807119,29 31,30.1192881 31,31.5 C31,32.8807119 29.8807119,34 28.5,34 C27.1192881,34 26,32.8807119 26,31.5 C26,30.1192881 27.1192881,29 28.5,29 Z M19.5,29 C20.8807119,29 22,30.1192881 22,31.5 C22,32.8807119 20.8807119,34 19.5,34 C18.1192881,34 17,32.8807119 17,31.5 C17,30.1192881 18.1192881,29 19.5,29 Z M19.5,22 C20.8807119,22 22,23.1192881 22,24.5 C22,25.8807119 20.8807119,27 19.5,27 C18.1192881,27 17,25.8807119 17,24.5 C17,23.1192881 18.1192881,22 19.5,22 Z M28.5,22 C29.8807119,22 31,23.1192881 31,24.5 C31,25.8807119 29.8807119,27 28.5,27 C27.1192881,27 26,25.8807119 26,24.5 C26,23.1192881 27.1192881,22 28.5,22 Z M24,10.8811651 L24.9320493,10.8857328 C25.0837548,10.887257 25.2336443,10.8891635 25.3817206,10.8914534 L25.3817206,10.8914534 L26.2484445,10.9098041 C26.38928,10.9136327 26.5283082,10.9178471 26.6655322,10.9224487 L26.6655322,10.9224487 L27.467247,10.9547128 C27.5972653,10.9608675 27.7254851,10.9674118 27.8519094,10.9743467 L27.8519094,10.9743467 L28.5889317,11.0206546 C30.2584846,11.1396912 31.5772583,11.3357803 32.5532934,11.6122355 C35.2306114,12.5364583 36.6666667,14.0966922 36.6666667,16.2530658 L36.6666667,16.2530658 L36.6666667,16.7746356 L36.6734371,16.8981298 C36.7406212,17.5082613 37.2999696,18 38,18 L38,18 L42.6666667,18 L42.8046928,17.9935541 C43.4844035,17.9296483 44,17.3988935 44,16.7746356 L44,16.7746356 L43.9980844,9.82516034 L43.9894861,9.59086618 C43.9538448,9.0143108 43.8012954,8.80803581 43.1668344,8.59879531 L43.1668344,8.59879531 L42.9056089,8.51946211 L42.419703,8.39037297 L42.3158751,8.35780181 L41.9422358,8.22172281 C37.7769871,6.74690586 31.7898252,6 24,6 L24,6 C16.2101748,6 10.2230129,6.74690586 6.05776425,8.22172281 L5.68412486,8.35780181 L5.58029701,8.39037297 L5.09439106,8.51946211 L4.83316565,8.59879531 C4.19870457,8.80803581 4.0461552,9.0143108 4.0105139,9.59086618 L4.00191558,9.82516034 L4,16.7746356 C4,17.3988935 4.51559654,17.9296483 5.19530716,17.9935541 L5.33333333,18 L10,18 C10.7000304,18 11.2593788,17.5082613 11.3265629,16.8981298 L11.3333333,16.7746356 L11.3333333,16.0097653 C11.3333333,13.8269832 12.8030925,12.3357435 15.4907484,11.6008365 C15.6968441,11.5524682 15.9187761,11.5065081 16.156609,11.4629353 L16.6534947,11.378967 L17.1928968,11.3013285 C17.3797963,11.2764999 17.5738009,11.2527202 17.7749297,11.2299832 L18.3997079,11.1648943 C18.507406,11.1545655 18.61689,11.1444959 18.7281622,11.1346846 L19.4172727,11.0789117 L20.1494145,11.0293036 L20.924702,10.9858235 L21.7432496,10.9484349 L23.0524341,10.9036931 L23.9796325,10.8813725 L24,10.8811651 Z M38,20 L37.8118424,19.9949317 C36.0675223,19.9007338 34.6666667,18.5050303 34.6666667,16.7746356 L34.6666667,16.7746356 L34.6666667,16.2530658 L34.6619891,16.0998812 C34.5932339,14.9887265 33.7632175,14.1451983 31.9539208,13.5194611 C31.7193604,13.4532931 31.4536019,13.3919585 31.1570554,13.3356045 L31.1570554,13.3356045 L30.6891959,13.2548273 L30.1754619,13.1816315 C30.0860338,13.1700701 29.994707,13.1588292 29.9014881,13.1479111 L29.9014881,13.1479111 L29.319519,13.0862942 C29.0172324,13.0574409 28.6980312,13.0315341 28.3620883,13.0086359 L28.3620883,13.0086359 L27.6679318,12.9668695 L26.9294385,12.9332364 L26.1469159,12.9078471 L25.3206717,12.890812 C25.179338,12.8886751 25.0361953,12.886891 24.8912501,12.8854618 L24.8912501,12.8854618 L24,12.8811651 C23.997977,12.8811651 23.9959554,12.8811591 23.9939352,12.8811471 L23.1242569,12.9024907 L22.2713882,12.9296583 L21.4619849,12.9623962 L20.6962703,13.00064 L19.9744681,13.0443253 L19.2968018,13.0933876 C19.1875478,13.1020091 19.0801421,13.1108521 18.9745894,13.119915 L18.3635458,13.1769221 L17.7971968,13.2391454 L17.2757659,13.3065203 L16.7994765,13.3789824 L16.3685522,13.4564675 L15.9832165,13.538911 C14.2018108,14.026476 13.4038439,14.7787193 13.337823,15.8602384 L13.3333333,16.0097653 L13.3333333,16.7746356 C13.3333333,18.5050303 11.9324777,19.9007338 10.1881576,19.9949317 L10,20 L9,20 L9,39.3684211 C9,40.775621 10.0142944,41.9062602 11.2703599,41.9944598 L11.4285714,42 L36.5714286,42 C37.8463005,42 38.9115898,40.9256487 38.9947731,39.5428252 L39,39.3684211 L39,20 L38,20 Z"/>
    </g>
    <path fill="#239A98" d="M11.819426,-5.17920154e-16 L76.180574,5.17920154e-16 C80.6381677,-3.00926524e-16 82.2545989,0.464128056 83.8842285,1.33566352 C85.5138581,2.20719898 86.792801,3.48614185 87.6643365,5.11577148 C88.5358719,6.74540111 89,8.3618323 89,12.819426 L89,77.180574 C89,81.6381677 88.5358719,83.2545989 87.6643365,84.8842285 C86.792801,86.5138581 85.5138581,87.792801 83.8842285,88.6643365 C82.2545989,89.5358719 80.6381677,90 76.180574,90 L11.819426,90 C7.3618323,90 5.74540111,89.5358719 4.11577148,88.6643365 C2.48614185,87.792801 1.20719898,86.5138581 0.335663519,84.8842285 C-0.535871944,83.2545989 -1,81.6381677 -1,77.180574 L-1,12.819426 C-1,8.3618323 -0.535871944,6.74540111 0.335663519,5.11577148 C1.20719898,3.48614185 2.48614185,2.20719898 4.11577148,1.33566352 C5.74540111,0.464128056 7.3618323,3.00926524e-16 11.819426,-5.17920154e-16 Z"/>
    <g transform="translate(20 21)">
      <rect width="48" height="48"/>
      <path fill="#FFF" fill-rule="nonzero" d="M41,39.3684211 C41,41.8411906 39.1414657,43.8804203 36.7809753,43.9949292 L36.5714286,44 L11.4285714,44 C9.03972773,44 7.11294071,42.0314209 7.00478867,39.5854436 L7,39.3684211 L7,20 L5.33333333,20 C3.56582871,20 2.10402465,18.6639653 2.00531225,16.9587103 L2,16.7746356 L2,10.0985423 C2,8.08083793 2.57657418,7.14330715 4.85301749,6.51423146 L5.027,6.468 L5.37928971,6.34029835 C9.66363283,4.82123848 15.6238548,4.04762299 23.2775082,4.00213212 L24,4 L24.7224918,4.00213212 C32.3761452,4.04762299 38.3363672,4.82123848 42.6207103,6.34029835 L42.6207103,6.34029835 L42.973,6.468 L43.1469825,6.51423146 C45.4234258,7.14330715 46,8.08083793 46,10.0985423 L46,10.0985423 L46,16.7746356 L45.9946878,16.9587103 C45.8959753,18.6639653 44.4341713,20 42.6666667,20 L42.6666667,20 L41,20 L41,39.3684211 Z M28.5,29 C29.8807119,29 31,30.1192881 31,31.5 C31,32.8807119 29.8807119,34 28.5,34 C27.1192881,34 26,32.8807119 26,31.5 C26,30.1192881 27.1192881,29 28.5,29 Z M19.5,29 C20.8807119,29 22,30.1192881 22,31.5 C22,32.8807119 20.8807119,34 19.5,34 C18.1192881,34 17,32.8807119 17,31.5 C17,30.1192881 18.1192881,29 19.5,29 Z M19.5,22 C20.8807119,22 22,23.1192881 22,24.5 C22,25.8807119 20.8807119,27 19.5,27 C18.1192881,27 17,25.8807119 17,24.5 C17,23.1192881 18.1192881,22 19.5,22 Z M28.5,22 C29.8807119,22 31,23.1192881 31,24.5 C31,25.8807119 29.8807119,27 28.5,27 C27.1192881,27 26,25.8807119 26,24.5 C26,23.1192881 27.1192881,22 28.5,22 Z M24,10.8811651 L24.9320493,10.8857328 C25.0837548,10.887257 25.2336443,10.8891635 25.3817206,10.8914534 L25.3817206,10.8914534 L26.2484445,10.9098041 C26.38928,10.9136327 26.5283082,10.9178471 26.6655322,10.9224487 L26.6655322,10.9224487 L27.467247,10.9547128 C27.5972653,10.9608675 27.7254851,10.9674118 27.8519094,10.9743467 L27.8519094,10.9743467 L28.5889317,11.0206546 C30.2584846,11.1396912 31.5772583,11.3357803 32.5532934,11.6122355 C35.2306114,12.5364583 36.6666667,14.0966922 36.6666667,16.2530658 L36.6666667,16.2530658 L36.6666667,16.7746356 L36.6734371,16.8981298 C36.7406212,17.5082613 37.2999696,18 38,18 L38,18 L42.6666667,18 L42.8046928,17.9935541 C43.4844035,17.9296483 44,17.3988935 44,16.7746356 L44,16.7746356 L43.9980844,9.82516034 L43.9894861,9.59086618 C43.9538448,9.0143108 43.8012954,8.80803581 43.1668344,8.59879531 L43.1668344,8.59879531 L42.9056089,8.51946211 L42.419703,8.39037297 L42.3158751,8.35780181 L41.9422358,8.22172281 C37.7769871,6.74690586 31.7898252,6 24,6 L24,6 C16.2101748,6 10.2230129,6.74690586 6.05776425,8.22172281 L5.68412486,8.35780181 L5.58029701,8.39037297 L5.09439106,8.51946211 L4.83316565,8.59879531 C4.19870457,8.80803581 4.0461552,9.0143108 4.0105139,9.59086618 L4.00191558,9.82516034 L4,16.7746356 C4,17.3988935 4.51559654,17.9296483 5.19530716,17.9935541 L5.33333333,18 L10,18 C10.7000304,18 11.2593788,17.5082613 11.3265629,16.8981298 L11.3333333,16.7746356 L11.3333333,16.0097653 C11.3333333,13.8269832 12.8030925,12.3357435 15.4907484,11.6008365 C15.6968441,11.5524682 15.9187761,11.5065081 16.156609,11.4629353 L16.6534947,11.378967 L17.1928968,11.3013285 C17.3797963,11.2764999 17.5738009,11.2527202 17.7749297,11.2299832 L18.3997079,11.1648943 C18.507406,11.1545655 18.61689,11.1444959 18.7281622,11.1346846 L19.4172727,11.0789117 L20.1494145,11.0293036 L20.924702,10.9858235 L21.7432496,10.9484349 L23.0524341,10.9036931 L23.9796325,10.8813725 L24,10.8811651 Z M38,20 L37.8118424,19.9949317 C36.0675223,19.9007338 34.6666667,18.5050303 34.6666667,16.7746356 L34.6666667,16.7746356 L34.6666667,16.2530658 L34.6619891,16.0998812 C34.5932339,14.9887265 33.7632175,14.1451983 31.9539208,13.5194611 C31.7193604,13.4532931 31.4536019,13.3919585 31.1570554,13.3356045 L31.1570554,13.3356045 L30.6891959,13.2548273 L30.1754619,13.1816315 C30.0860338,13.1700701 29.994707,13.1588292 29.9014881,13.1479111 L29.9014881,13.1479111 L29.319519,13.0862942 C29.0172324,13.0574409 28.6980312,13.0315341 28.3620883,13.0086359 L28.3620883,13.0086359 L27.6679318,12.9668695 L26.9294385,12.9332364 L26.1469159,12.9078471 L25.3206717,12.890812 C25.179338,12.8886751 25.0361953,12.886891 24.8912501,12.8854618 L24.8912501,12.8854618 L24,12.8811651 C23.997977,12.8811651 23.9959554,12.8811591 23.9939352,12.8811471 L23.1242569,12.9024907 L22.2713882,12.9296583 L21.4619849,12.9623962 L20.6962703,13.00064 L19.9744681,13.0443253 L19.2968018,13.0933876 C19.1875478,13.1020091 19.0801421,13.1108521 18.9745894,13.119915 L18.3635458,13.1769221 L17.7971968,13.2391454 L17.2757659,13.3065203 L16.7994765,13.3789824 L16.3685522,13.4564675 L15.9832165,13.538911 C14.2018108,14.026476 13.4038439,14.7787193 13.337823,15.8602384 L13.3333333,16.0097653 L13.3333333,16.7746356 C13.3333333,18.5050303 11.9324777,19.9007338 10.1881576,19.9949317 L10,20 L9,20 L9,39.3684211 C9,40.775621 10.0142944,41.9062602 11.2703599,41.9944598 L11.4285714,42 L36.5714286,42 C37.8463005,42 38.9115898,40.9256487 38.9947731,39.5428252 L39,39.3684211 L39,20 L38,20 Z"/>
    </g>
  </g>
</svg>
