<svg width="376" height="185" viewBox="0 0 376 185" fill="none" xmlns="http://www.w3.org/2000/svg">
<path fill-rule="evenodd" clip-rule="evenodd" d="M264.5 86.4199C261.739 86.4199 259.5 88.6585 259.5 91.4199V139.42C259.5 139.983 259.593 140.524 259.764 141.028C259.072 141.405 258.468 141.946 258.013 142.619L245.163 161.619C242.917 164.939 245.296 169.42 249.304 169.42H368.532C372.741 169.42 375.067 164.538 372.415 161.27L357.001 142.27C356.528 141.686 355.936 141.225 355.275 140.909C355.421 140.439 355.5 139.938 355.5 139.42V91.4199C355.5 88.6585 353.261 86.4199 350.5 86.4199H264.5Z" fill="#E5CFC7"/>
<rect x="61.5" y="137.42" width="109" height="33" rx="5" fill="#E5CFC7"/>
<path fill-rule="evenodd" clip-rule="evenodd" d="M128.814 121.42C125.589 121.42 123.208 118.413 123.947 115.274L128.5 95.9374V17.4199C128.5 14.6585 130.739 12.4199 133.5 12.4199H148.5C151.261 12.4199 153.5 14.6585 153.5 17.4199V95.7406L158.066 115.282C158.799 118.419 156.418 121.42 153.197 121.42H128.814Z" fill="#E5CFC7"/>
<path fill-rule="evenodd" clip-rule="evenodd" d="M136.279 35.2225C136.279 34.1993 135.461 33.3662 134.448 33.3662C133.435 33.3662 132.618 34.1993 132.618 35.2225C132.618 36.2457 133.435 37.0788 134.448 37.0788C135.461 37.0788 136.279 36.2457 136.279 35.2225ZM133.597 35.2228C133.597 34.737 133.98 34.3467 134.448 34.3467C134.916 34.3467 135.299 34.737 135.299 35.2228C135.299 35.7087 134.916 36.099 134.448 36.099C133.98 36.099 133.597 35.7087 133.597 35.2228Z" fill="#291D18"/>
<path fill-rule="evenodd" clip-rule="evenodd" d="M136.279 40.6873C136.279 39.6641 135.461 38.8311 134.448 38.8311C133.435 38.8311 132.618 39.6641 132.618 40.6873C132.618 41.7106 133.435 42.5436 134.448 42.5436C135.461 42.5436 136.279 41.7106 136.279 40.6873ZM133.597 40.6877C133.597 40.2018 133.98 39.8115 134.448 39.8115C134.916 39.8115 135.299 40.2018 135.299 40.6877C135.299 41.1735 134.916 41.5639 134.448 41.5639C133.98 41.5639 133.597 41.1735 133.597 40.6877Z" fill="#291D18"/>
<path fill-rule="evenodd" clip-rule="evenodd" d="M136.279 46.1522C136.279 45.1289 135.461 44.2959 134.448 44.2959C133.435 44.2959 132.618 45.1289 132.618 46.1522C132.618 47.1754 133.435 48.0085 134.448 48.0085C135.461 48.0085 136.279 47.1754 136.279 46.1522ZM133.597 46.1525C133.597 45.6667 133.98 45.2764 134.448 45.2764C134.916 45.2764 135.299 45.6667 135.299 46.1525C135.299 46.6384 134.916 47.0287 134.448 47.0287C133.98 47.0287 133.597 46.6384 133.597 46.1525Z" fill="#291D18"/>
<path fill-rule="evenodd" clip-rule="evenodd" d="M136.279 71.1522C136.279 70.1289 135.461 69.2959 134.448 69.2959C133.435 69.2959 132.618 70.1289 132.618 71.1522C132.618 72.1754 133.435 73.0085 134.448 73.0085C135.461 73.0085 136.279 72.1754 136.279 71.1522ZM133.597 71.1525C133.597 70.6667 133.98 70.2764 134.448 70.2764C134.916 70.2764 135.299 70.6667 135.299 71.1525C135.299 71.6384 134.916 72.0287 134.448 72.0287C133.98 72.0287 133.597 71.6384 133.597 71.1525Z" fill="#291D18"/>
<path fill-rule="evenodd" clip-rule="evenodd" d="M137 52.8311V54.4199H132V50.4199H137V51.8311H190.621C192.489 51.8311 194.016 53.2953 194.115 55.139L194.121 55.3311V82.4771H193.121V55.3311C193.121 54.0056 192.089 52.921 190.785 52.8364L190.621 52.8311H137ZM136 51.4189H133V53.4189H136V51.4189ZM194.121 115.992V146.42C194.121 147.746 195.152 148.83 196.456 148.915L196.621 148.92H243.5V149.92H196.621C194.752 149.92 193.226 148.456 193.126 146.612L193.121 146.42V115.992H194.121Z" fill="#291D18"/>
<path fill-rule="evenodd" clip-rule="evenodd" d="M141.11 5.41992C144.259 5.41992 146.822 7.92314 146.92 11.0479L146.923 11.2324V84.9951C146.923 85.3057 146.671 85.5576 146.36 85.5576C146.075 85.5576 145.84 85.346 145.803 85.0714L145.798 84.9951V11.2324C145.798 8.70112 143.791 6.63844 141.282 6.54801L141.11 6.54492H126.86C124.329 6.54492 122.266 8.55135 122.176 11.0606L122.173 11.2324V18.1349C122.173 18.4455 121.921 18.6974 121.61 18.6974C121.325 18.6974 121.09 18.4858 121.053 18.2112L121.048 18.1349V11.2324C121.048 8.084 123.551 5.52024 126.676 5.42279L126.86 5.41992H141.11ZM146.356 88.2805C146.613 88.2737 146.85 88.4454 146.916 88.7055L151.361 106.345L151.385 106.536C151.622 108.664 150.717 110.34 149.173 111.323V112.482C149.173 113.579 148.316 114.476 147.236 114.541L147.11 114.545H136.249L136.231 114.545H122.36C118.827 114.545 116.153 112.271 116.537 108.803L116.561 108.613L120.499 90.5896L120.561 90.342L120.675 89.8759L120.774 89.4491L120.858 89.062L120.926 88.7151L120.979 88.4087C121.017 88.1704 121.039 87.9749 121.046 87.8232L121.048 87.7374V22.0381C121.048 21.7274 121.299 21.4756 121.61 21.4756C121.895 21.4756 122.13 21.6872 122.167 21.9618L122.173 22.0381V87.7374C122.173 87.9084 122.156 88.118 122.122 88.3671L122.074 88.6848L122.009 89.0406L121.929 89.4347L121.833 89.8674L121.721 90.3387L121.593 90.8492L117.667 108.811C117.285 111.528 119.299 113.345 122.179 113.418L122.36 113.42H135.86V113.42H136.284C138.639 113.394 140.492 111.598 141.255 108.825L141.311 108.609L145.811 88.7189C145.87 88.4589 146.1 88.2821 146.356 88.2805ZM146.395 91.2396L142.406 108.869C141.915 110.832 140.933 112.426 139.607 113.42H147.11C147.596 113.42 147.995 113.051 148.043 112.578L148.048 112.482V111.875C147.299 112.149 146.46 112.295 145.566 112.295H143.581L143.505 112.29C143.23 112.253 143.019 112.017 143.019 111.733C143.019 111.422 143.27 111.17 143.581 111.17H145.566L145.747 111.168C148.627 111.095 150.641 109.278 150.259 106.561L146.395 91.2396Z" fill="#291D18"/>
<path d="M147.485 18.9199C148.392 18.9199 149.111 19.6766 149.169 20.6098L149.173 20.7324V25.7324C149.173 26.6798 148.492 27.476 147.602 27.5407L147.485 27.5449H146.923V26.4199H147.485C147.759 26.4199 148.007 26.1683 148.043 25.8211L148.048 25.7324V20.7324C148.048 20.3704 147.821 20.0909 147.553 20.0501L147.485 20.0449H146.923V18.9199H147.485Z" fill="#291D18"/>
<path d="M141 176.92C141.276 176.92 141.5 177.144 141.5 177.42C141.5 177.665 141.323 177.87 141.09 177.912L141 177.92H134.5C134.5 177.912 134.5 176.92 134.5 176.92H141Z" fill="#291D18"/>
<path d="M55 176.92C55.2761 176.92 55.5 177.144 55.5 177.42C55.5 177.665 55.3231 177.87 55.0899 177.912L55 177.92H48.5C48.5 177.912 48.5 176.92 48.5 176.92H55Z" fill="#291D18"/>
<path fill-rule="evenodd" clip-rule="evenodd" d="M70.5 154.42C70.5 153.315 69.6046 152.42 68.5 152.42C67.3954 152.42 66.5 153.315 66.5 154.42C66.5 155.524 67.3954 156.42 68.5 156.42C69.6046 156.42 70.5 155.524 70.5 154.42ZM67.5 154.42C67.5 153.868 67.9477 153.42 68.5 153.42C69.0523 153.42 69.5 153.868 69.5 154.42C69.5 154.972 69.0523 155.42 68.5 155.42C67.9477 155.42 67.5 154.972 67.5 154.42Z" fill="#291D18"/>
<path fill-rule="evenodd" clip-rule="evenodd" d="M111 154.42C111 153.315 110.105 152.42 109 152.42C107.895 152.42 107 153.315 107 154.42C107 155.524 107.895 156.42 109 156.42C110.105 156.42 111 155.524 111 154.42ZM108 154.42C108 153.868 108.448 153.42 109 153.42C109.552 153.42 110 153.868 110 154.42C110 154.972 109.552 155.42 109 155.42C108.448 155.42 108 154.972 108 154.42Z" fill="#291D18"/>
<path fill-rule="evenodd" clip-rule="evenodd" d="M119 154.42C119 153.315 118.105 152.42 117 152.42C115.895 152.42 115 153.315 115 154.42C115 155.524 115.895 156.42 117 156.42C118.105 156.42 119 155.524 119 154.42ZM116 154.42C116 153.868 116.448 153.42 117 153.42C117.552 153.42 118 153.868 118 154.42C118 154.972 117.552 155.42 117 155.42C116.448 155.42 116 154.972 116 154.42Z" fill="#291D18"/>
<path fill-rule="evenodd" clip-rule="evenodd" d="M103 154.42C103 153.315 102.105 152.42 101 152.42C99.8954 152.42 99 153.315 99 154.42C99 155.524 99.8954 156.42 101 156.42C102.105 156.42 103 155.524 103 154.42ZM100 154.42C100 153.868 100.448 153.42 101 153.42C101.552 153.42 102 153.868 102 154.42C102 154.972 101.552 155.42 101 155.42C100.448 155.42 100 154.972 100 154.42Z" fill="#291D18"/>
<path fill-rule="evenodd" clip-rule="evenodd" d="M79 154.42C79 153.315 78.1046 152.42 77 152.42C75.8954 152.42 75 153.315 75 154.42C75 155.524 75.8954 156.42 77 156.42C78.1046 156.42 79 155.524 79 154.42ZM76 154.42C76 153.868 76.4477 153.42 77 153.42C77.5523 153.42 78 153.868 78 154.42C78 154.972 77.5523 155.42 77 155.42C76.4477 155.42 76 154.972 76 154.42Z" fill="#291D18"/>
<circle cx="77" cy="154.42" r="0.5" fill="#291D18"/>
<path fill-rule="evenodd" clip-rule="evenodd" d="M177.578 61.5528C177.468 59.1659 175.498 57.2646 173.083 57.2646H136.05V58.2646H173.083L173.275 58.2698C175.119 58.3695 176.583 59.8961 176.583 61.7646V173.713L176.578 173.905C176.478 175.748 174.952 177.213 173.083 177.213H143.125V178.213H173.083L173.295 178.208C175.682 178.097 177.583 176.127 177.583 173.713V61.7646L177.578 61.5528ZM77.5 173.713V155.932H76.5V173.713L76.5049 173.925C76.6155 176.312 78.5857 178.213 81 178.213H108.883V177.213H81L80.808 177.208C78.9643 177.108 77.5 175.581 77.5 173.713Z" fill="#291D18"/>
<path fill-rule="evenodd" clip-rule="evenodd" d="M134.5 180.419V174.419L139.798 174.42C139.295 175.146 139 176.21 139 177.42C139 178.664 139.278 179.71 139.762 180.42L134.5 180.419ZM141 173.42C141.087 173.42 141.172 173.425 141.256 173.436C141.288 173.432 141.321 173.428 141.354 173.426L141.5 173.42V173.484C142.722 173.809 143.5 175.337 143.5 177.42C143.5 179.407 142.703 181.003 141.5 181.35V181.42C141.413 181.42 141.328 181.414 141.244 181.404C141.212 181.408 141.179 181.412 141.146 181.414L141 181.42H134.498C134.452 182.484 133.575 183.333 132.5 183.333L132.414 183.331L116.414 182.645C115.344 182.599 114.5 181.718 114.5 180.647V180.42H108.5V174.42H114.5V174.194C114.5 173.122 115.344 172.241 116.414 172.195L132.414 171.51C133.517 171.462 134.45 172.317 134.498 173.42H141ZM115.5 174.42V174.194L115.506 174.08C115.561 173.597 115.96 173.216 116.457 173.194L132.457 172.509L132.574 172.51C133.035 172.544 133.414 172.892 133.487 173.349L133.498 173.458L133.5 173.529L133.5 173.905L133.5 173.92V180.92L133.5 180.92L133.5 181.333L133.493 181.449C133.436 181.947 133.013 182.333 132.5 182.333L116.457 181.646L116.344 181.635C115.864 181.56 115.5 181.144 115.5 180.647V180.42V174.42ZM114.5 175.419H109.5V179.419H114.5V175.419ZM140 177.42C140 175.832 140.577 174.681 141.26 174.459C141.958 174.672 142.5 175.749 142.5 177.42C142.5 179.008 141.923 180.159 141.24 180.381C140.542 180.168 140 179.091 140 177.42Z" fill="#291D18"/>
<path fill-rule="evenodd" clip-rule="evenodd" d="M87 154.42C87 153.315 86.1046 152.42 85 152.42C83.8954 152.42 83 153.315 83 154.42C83 155.524 83.8954 156.42 85 156.42C86.1046 156.42 87 155.524 87 154.42ZM84 154.42C84 153.868 84.4477 153.42 85 153.42C85.5523 153.42 86 153.868 86 154.42C86 154.972 85.5523 155.42 85 155.42C84.4477 155.42 84 154.972 84 154.42Z" fill="#291D18"/>
<circle cx="85" cy="154.42" r="0.5" fill="#291D18"/>
<circle cx="68.5" cy="154.42" r="0.5" fill="#291D18"/>
<path d="M68 131.155V144.685C68 144.815 68.2239 144.92 68.5 144.92C68.7761 144.92 69 144.815 69 144.685V131.155C69 131.025 68.7761 130.92 68.5 130.92C68.2239 130.92 68 131.025 68 131.155Z" fill="#291D18"/>
<path d="M76.5 131.155V144.685C76.5 144.815 76.7239 144.92 77 144.92C77.2761 144.92 77.5 144.815 77.5 144.685V131.155C77.5 131.025 77.2761 130.92 77 130.92C76.7239 130.92 76.5 131.025 76.5 131.155Z" fill="#291D18"/>
<path d="M84.5 131.155V144.685C84.5 144.815 84.7239 144.92 85 144.92C85.2761 144.92 85.5 144.815 85.5 144.685V131.155C85.5 131.025 85.2761 130.92 85 130.92C84.7239 130.92 84.5 131.025 84.5 131.155Z" fill="#291D18"/>
<path fill-rule="evenodd" clip-rule="evenodd" d="M140.5 151.42C140.5 150.315 139.605 149.42 138.5 149.42H131.5C130.395 149.42 129.5 150.315 129.5 151.42C129.5 152.524 130.395 153.42 131.5 153.42H138.5C139.605 153.42 140.5 152.524 140.5 151.42ZM131.5 150.42H138.5L138.617 150.427C139.114 150.484 139.5 150.907 139.5 151.42C139.5 151.972 139.052 152.42 138.5 152.42H131.5L131.383 152.413C130.886 152.355 130.5 151.933 130.5 151.42C130.5 150.868 130.948 150.42 131.5 150.42Z" fill="#291D18"/>
<path d="M92.5 131.155V144.685C92.5 144.815 92.7239 144.92 93 144.92C93.2761 144.92 93.5 144.815 93.5 144.685V131.155C93.5 131.025 93.2761 130.92 93 130.92C92.7239 130.92 92.5 131.025 92.5 131.155Z" fill="#291D18"/>
<path d="M100.5 131.155V144.685C100.5 144.815 100.724 144.92 101 144.92C101.276 144.92 101.5 144.815 101.5 144.685V131.155C101.5 131.025 101.276 130.92 101 130.92C100.724 130.92 100.5 131.025 100.5 131.155Z" fill="#291D18"/>
<path d="M108.5 131.155V144.685C108.5 144.815 108.724 144.92 109 144.92C109.276 144.92 109.5 144.815 109.5 144.685V131.155C109.5 131.025 109.276 130.92 109 130.92C108.724 130.92 108.5 131.025 108.5 131.155Z" fill="#291D18"/>
<path d="M116.5 131.155V144.685C116.5 144.815 116.724 144.92 117 144.92C117.276 144.92 117.5 144.815 117.5 144.685V131.155C117.5 131.025 117.276 130.92 117 130.92C116.724 130.92 116.5 131.025 116.5 131.155Z" fill="#291D18"/>
<ellipse cx="150.617" cy="153.629" rx="2.40323" ry="2.41667" fill="#291D18"/>
<path d="M144.091 129.92C144.368 129.92 144.591 130.144 144.591 130.42C144.591 130.665 144.414 130.87 144.181 130.912L144.091 130.92H59.5C57.0857 130.92 55.1155 132.821 55.0049 135.208L55 135.42V156.42C55 158.834 56.9012 160.804 59.2882 160.915L59.5 160.92H156.5C158.914 160.92 160.884 159.019 160.995 156.632L161 156.42V135.42C161 133.006 159.099 131.035 156.712 130.925L156.5 130.92H149.281C149.005 130.92 148.781 130.696 148.781 130.42C148.781 130.174 148.958 129.97 149.191 129.928L149.281 129.92H156.5C159.463 129.92 161.88 132.264 161.996 135.199L162 135.42V156.42C162 159.383 159.656 161.799 156.721 161.916L156.5 161.92H59.5C56.5365 161.92 54.1205 159.576 54.0044 156.641L54 156.42V135.42C54 132.456 56.3438 130.04 59.2788 129.924L59.5 129.92H144.091Z" fill="#291D18"/>
<path fill-rule="evenodd" clip-rule="evenodd" d="M324.661 79.1201C324.661 78.844 324.437 78.6201 324.161 78.6201H259.5L259.267 78.6242C255.785 78.747 253 81.6083 253 85.1201V132.12L253.029 132.299C253.223 133.307 253.962 134.353 254.836 135.027C253.959 135.234 253.168 135.734 252.602 136.458L238.546 154.458C237.997 155.161 237.699 156.028 237.699 156.92C237.699 159.129 239.49 160.92 241.699 160.92H359.301C360.194 160.92 361.06 160.622 361.763 160.073C363.504 158.713 363.814 156.199 362.454 154.458L348.398 136.458C347.839 135.742 347.06 135.246 346.196 135.034C347.098 134.384 347.818 133.393 347.961 132.453C347.986 132.393 348 132.327 348 132.257V85.1201L347.996 84.887C347.873 81.4051 345.012 78.6201 341.5 78.6201H331.733L331.644 78.6282C331.41 78.6705 331.233 78.8747 331.233 79.1201C331.233 79.3963 331.457 79.6201 331.733 79.6201H341.5L341.721 79.6245C344.656 79.7406 347 82.1566 347 85.1201L346.999 132C346.99 132.038 346.985 132.079 346.985 132.12L346.978 132.246C346.87 133.313 345.438 134.701 344.314 134.76L256.639 134.759L256.52 134.752C255.546 134.639 254.144 133.198 253.996 132.056L254 85.1201L254.004 84.8989C254.121 81.9639 256.537 79.6201 259.5 79.6201H324.161L324.251 79.6121C324.484 79.5697 324.661 79.3656 324.661 79.1201ZM345.246 135.92H255.755C254.897 135.92 254.084 136.287 253.517 136.922L253.39 137.074L239.334 155.074C238.922 155.601 238.699 156.251 238.699 156.92C238.699 158.518 239.948 159.824 241.522 159.915L241.699 159.92H359.301C359.971 159.92 360.62 159.696 361.148 159.284C362.404 158.304 362.666 156.523 361.778 155.227L361.666 155.074L347.61 137.074C347.082 136.397 346.292 135.982 345.443 135.926L345.246 135.92Z" fill="#291D18"/>
<path d="M340.5 82.4199C342.914 82.4199 344.884 84.3212 344.995 86.7081L345 86.9199V127.92C345 130.334 343.099 132.304 340.712 132.415L340.5 132.42H273.5C273.224 132.42 273 132.196 273 131.92C273 131.674 273.177 131.47 273.41 131.428L273.5 131.42H340.5C342.369 131.42 343.895 129.956 343.995 128.112L344 127.92V86.9199C344 85.0514 342.536 83.5248 340.692 83.4251L340.5 83.4199H260.5C258.631 83.4199 257.105 84.8842 257.005 86.7279L257 86.9199V127.92C257 129.788 258.464 131.315 260.308 131.415L260.5 131.42H268.725C269.002 131.42 269.225 131.644 269.225 131.92C269.225 132.165 269.049 132.37 268.815 132.412L268.725 132.42H260.5C258.086 132.42 256.116 130.519 256.005 128.132L256 127.92V86.9199C256 84.5056 257.901 82.5354 260.288 82.4248L260.5 82.4199H340.5Z" fill="#291D18"/>
<path d="M153.212 29.6375C153.016 29.8327 152.7 29.8327 152.505 29.6375C152.309 29.4422 152.309 29.1256 152.505 28.9304C156.023 25.4115 156.173 19.8711 152.858 16.556C152.663 16.3607 152.663 16.0442 152.858 15.8489C153.053 15.6536 153.37 15.6536 153.565 15.8489C157.28 19.5633 157.113 25.7364 153.212 29.6375Z" fill="#291D18"/>
<path d="M160.283 36.7085C160.087 36.9038 159.771 36.9038 159.576 36.7085C159.38 36.5133 159.38 36.1967 159.576 36.0014C166.996 28.5815 166.996 16.5513 159.576 9.13138C159.38 8.93612 159.38 8.61953 159.576 8.42427C159.771 8.22901 160.087 8.22901 160.283 8.42427C168.093 16.2348 168.093 28.8981 160.283 36.7085Z" fill="#291D18"/>
<path d="M168.061 44.4866C167.865 44.6819 167.549 44.6819 167.354 44.4866C167.158 44.2914 167.158 43.9748 167.354 43.7795C178.679 32.4543 178.679 14.0925 167.354 2.76734C167.158 2.57208 167.158 2.2555 167.354 2.06023C167.549 1.86497 167.865 1.86497 168.061 2.06023C179.776 13.776 179.776 32.7709 168.061 44.4866Z" fill="#291D18"/>
<path fill-rule="evenodd" clip-rule="evenodd" d="M345.399 139.646C344.834 138.875 343.935 138.42 342.98 138.42H335.157C334.96 138.42 334.764 138.439 334.571 138.478C332.946 138.802 331.891 140.382 332.215 142.007L334.01 151.007C334.29 152.41 335.522 153.42 336.952 153.42H349.58C350.218 153.42 350.839 153.216 351.354 152.839C352.69 151.859 352.979 149.982 351.999 148.646L345.399 139.646ZM335.157 139.42H342.98L343.152 139.427C343.724 139.477 344.25 139.77 344.592 140.237L351.192 149.237L351.284 149.373C351.825 150.252 351.609 151.412 350.762 152.033C350.419 152.284 350.005 152.42 349.58 152.42H336.952L336.795 152.414C335.909 152.344 335.167 151.694 334.991 150.811L333.196 141.811L333.172 141.664C333.045 140.634 333.732 139.665 334.766 139.459C334.895 139.433 335.026 139.42 335.157 139.42Z" fill="#291D18"/>
<path fill-rule="evenodd" clip-rule="evenodd" d="M255.108 139.646C255.673 138.875 256.571 138.42 257.527 138.42H312.38C313.884 138.42 315.155 139.533 315.354 141.023L316.554 150.023C316.571 150.155 316.58 150.287 316.58 150.42C316.58 152.077 315.237 153.42 313.58 153.42H250.927C250.289 153.42 249.667 153.216 249.153 152.839C247.817 151.859 247.528 149.982 248.508 148.646L255.108 139.646ZM312.38 139.42H257.527L257.354 139.427C256.783 139.477 256.257 139.77 255.914 140.237L249.314 149.237L249.222 149.373C248.682 150.252 248.898 151.412 249.744 152.033C250.087 152.284 250.501 152.42 250.927 152.42H313.58L313.729 152.414C314.764 152.338 315.58 151.474 315.58 150.42C315.58 150.332 315.574 150.243 315.563 150.156L314.363 141.156L314.336 141.001C314.14 140.086 313.33 139.42 312.38 139.42Z" fill="#291D18"/>
<path fill-rule="evenodd" clip-rule="evenodd" d="M327.768 147.751C327.689 147.267 327.271 146.911 326.781 146.911H324.174L324.061 146.917C323.513 146.98 323.118 147.475 323.18 148.024L323.338 149.42H320.647C320.603 149.42 320.56 149.423 320.517 149.428C319.97 149.5 319.584 150.001 319.655 150.549L319.916 152.549C319.981 153.047 320.405 153.42 320.907 153.42H330.94C331 153.42 331.059 153.414 331.118 153.404C331.661 153.306 332.022 152.786 331.925 152.243L331.565 150.243C331.479 149.766 331.065 149.42 330.581 149.42H328.039L327.768 147.751ZM324.174 147.911H326.781L327.052 149.58L327.076 149.689C327.196 150.117 327.587 150.42 328.039 150.42H330.581L330.94 152.42H320.907L320.647 150.42H323.338L323.456 150.413C323.995 150.35 324.395 149.861 324.332 149.307L324.174 147.911Z" fill="#291D18"/>
<path d="M356 155.42C356.276 155.42 356.5 155.644 356.5 155.92C356.5 156.165 356.323 156.37 356.09 156.412L356 156.42H245C244.724 156.42 244.5 156.196 244.5 155.92C244.5 155.674 244.677 155.47 244.91 155.428L245 155.42H356Z" fill="#291D18"/>
<path fill-rule="evenodd" clip-rule="evenodd" d="M69 156.045V174.42C69 176.288 67.5357 177.815 65.692 177.915L65.5 177.92H57.4828C57.3609 179.671 56.5999 181.032 55.5 181.35V181.42C55.413 181.42 55.3278 181.414 55.2443 181.404C55.2118 181.408 55.1791 181.412 55.1461 181.414L55 181.42H48.4981C48.4525 182.484 47.5754 183.333 46.5 183.333L46.4144 183.331L30.4144 182.645C29.3441 182.599 28.5 181.718 28.5 180.647V180.42H22.5V177.92H1.5V176.92H22.5V174.42H28.5V174.194C28.5 173.122 29.3441 172.241 30.4144 172.195L46.4144 171.51C47.5172 171.462 48.4496 172.317 48.4981 173.42H55C55.087 173.42 55.1723 173.425 55.2558 173.436C55.2882 173.432 55.3209 173.428 55.3539 173.426L55.5 173.42V173.484C56.6216 173.783 57.3696 175.095 57.4845 176.92H65.5C66.8255 176.92 67.91 175.888 67.9947 174.584L68 174.42V156.045H69ZM48.5 174.419V180.419L53.7615 180.42C53.2776 179.71 53 178.664 53 177.42C53 176.21 53.2954 175.146 53.7978 174.42L48.5 174.419ZM29.5 174.194V174.42V180.42V180.647C29.5 181.144 29.8639 181.56 30.3444 181.635L30.4572 181.646L46.5 182.333C47.0128 182.333 47.4355 181.947 47.4933 181.449L47.5 181.333L47.5 180.92L47.5 180.92V173.92L47.5002 173.905L47.5002 173.529L47.498 173.458L47.4874 173.349C47.4144 172.892 47.0349 172.544 46.574 172.51L46.4572 172.509L30.4572 173.194C29.9603 173.216 29.5609 173.597 29.5063 174.08L29.5 174.194ZM23.5 175.419H28.5V179.419H23.5V175.419ZM55.2597 174.459C54.5775 174.681 54 175.832 54 177.42C54 179.091 54.5419 180.168 55.2403 180.381C55.9225 180.159 56.5 179.008 56.5 177.42C56.5 175.749 55.9581 174.672 55.2597 174.459Z" fill="#291D18"/>
<path fill-rule="evenodd" clip-rule="evenodd" d="M136.5 57.4199C136.5 56.3154 135.605 55.4199 134.5 55.4199C133.395 55.4199 132.5 56.3154 132.5 57.4199C132.5 58.5245 133.395 59.4199 134.5 59.4199C135.605 59.4199 136.5 58.5245 136.5 57.4199ZM133.5 57.4199C133.5 56.8676 133.948 56.4199 134.5 56.4199C135.052 56.4199 135.5 56.8676 135.5 57.4199C135.5 57.9722 135.052 58.4199 134.5 58.4199C133.948 58.4199 133.5 57.9722 133.5 57.4199Z" fill="#291D18"/>
<circle cx="134.5" cy="57.4199" r="0.5" fill="#291D18"/>
<path d="M140.5 133.92C141.825 133.92 142.91 134.951 142.995 136.256L143 136.42V154.42C143 155.745 141.968 156.83 140.664 156.915L140.5 156.92H129.5C128.175 156.92 127.09 155.888 127.005 154.584L127 154.42V143.607C127 143.331 127.224 143.107 127.5 143.107C127.745 143.107 127.95 143.284 127.992 143.517L128 143.607V154.42C128 155.2 128.595 155.84 129.356 155.913L129.5 155.92H140.5C141.28 155.92 141.92 155.325 141.993 154.564L142 154.42V136.42C142 135.64 141.405 134.999 140.644 134.927L140.5 134.92H129.5C128.72 134.92 128.08 135.515 128.007 136.275L128 136.42V139.245C128 139.521 127.776 139.745 127.5 139.745C127.255 139.745 127.05 139.568 127.008 139.335L127 139.245V136.42C127 135.094 128.032 134.01 129.336 133.925L129.5 133.92H140.5Z" fill="#291D18"/>
<circle cx="300.5" cy="81.1201" r="1" fill="#291D18"/>
<path fill-rule="evenodd" clip-rule="evenodd" d="M329.778 140.091C329.618 139.127 328.783 138.42 327.805 138.42H319.861C319.751 138.42 319.641 138.429 319.532 138.447C318.442 138.629 317.706 139.659 317.888 140.749L318.221 142.749C318.382 143.713 319.216 144.42 320.194 144.42H328.139C328.249 144.42 328.359 144.411 328.468 144.393C329.557 144.211 330.293 143.181 330.112 142.091L329.778 140.091ZM319.861 139.42H327.805L327.926 139.427C328.362 139.48 328.718 139.814 328.792 140.256L329.125 142.256L329.138 142.372C329.163 142.872 328.809 143.322 328.303 143.406C328.249 143.415 328.194 143.42 328.139 143.42H320.194L320.073 143.413C319.638 143.36 319.281 143.026 319.208 142.584L318.874 140.584L318.862 140.468C318.837 139.968 319.19 139.518 319.696 139.434C319.751 139.424 319.806 139.42 319.861 139.42Z" fill="#291D18"/>
</svg>
