<svg width="80" height="80" viewBox="0 0 80 80" fill="none" xmlns="http://www.w3.org/2000/svg">
<path fill-rule="evenodd" clip-rule="evenodd" d="M65.9085 1.62583C65.9085 1.62583 55.4277 0 39.9999 0C24.5715 0 14.0899 1.62583 14.0899 1.62583C7.48666 2.42215 2.39677 7.62078 1.59557 14.2221C1.59498 14.2231 0 25.999 0 39.9993C0 54.0006 1.59498 65.7758 1.59557 65.7771C2.39677 72.3788 7.48666 77.5765 14.0899 78.374C14.0899 78.374 24.5715 80 39.9999 80C55.4277 80 65.9085 78.374 65.9085 78.374C72.5132 77.5765 77.6026 72.3788 78.4042 65.7771C78.4042 65.7758 80 54.0006 80 39.9993C80 25.999 78.4042 14.2231 78.4042 14.2221C77.6026 7.62078 72.5132 2.42215 65.9085 1.62583Z" fill="#FFF7C7"/>
<path d="M40.0007 48.4449C38.7734 48.4449 37.7784 49.4398 37.7784 50.6671C37.7784 51.8944 38.7734 52.8893 40.0007 52.8893C41.228 52.8893 42.2247 51.8944 42.2247 50.6671C42.2247 49.4398 41.228 48.4449 40.0007 48.4449Z" fill="#291D18"/>
<path d="M34.6673 22.2227C31.7218 22.2227 29.334 24.6105 29.334 27.556V52.4449C29.334 55.3904 31.7218 57.7782 34.6673 57.7782H45.334C48.2795 57.7782 50.6673 55.3904 50.6673 52.4449V27.556C50.6673 24.6105 48.2795 22.2227 45.334 22.2227H34.6673ZM32.8895 27.556C32.8895 26.5741 33.6855 25.7782 34.6673 25.7782H45.334C46.3158 25.7782 47.1118 26.5741 47.1118 27.556V52.4449C47.1118 53.4267 46.3158 54.2227 45.334 54.2227H34.6673C33.6855 54.2227 32.8895 53.4267 32.8895 52.4449V27.556Z" fill="#291D18"/>
</svg>
