<?xml version="1.0" encoding="UTF-8"?>
<svg width="218px" height="123px" viewBox="0 0 218 123" version="1.1" xmlns="http://www.w3.org/2000/svg" xmlns:xlink="http://www.w3.org/1999/xlink">
    <title>Illustration Copy</title>
    <g id="Page-1" stroke="none" stroke-width="1" fill="none" fill-rule="evenodd">
        <g id="Illustration-Copy">
            <path d="M210.371983,0.103611457 C214.73854,0.103611457 217.1506,2.65163288 217.1506,7.38401672 C217.1506,12.3588399 214.891263,14.6036115 210.371983,14.6036115 L210.5,14.6026115 L210.5,78 C210.5,79.3254834 209.468464,80.4100387 208.164376,80.4946823 L208,80.5 L91.5,80.4996115 L91.5,83 L83.5,83 L83.5,75 L91.5,75 L91.5,77.4996115 L207.5,77.5 L207.500111,14.5953681 C203.405092,14.4356927 201.1506,11.9588325 201.1506,7.38401672 C201.1506,2.40899285 203.410139,0.103611457 207.929217,0.103611457 L207.929217,0.103611457 Z M89.5,77 L85.5,77 L85.5,81 L89.5,81 L89.5,77 Z M210.371983,2.11055965 L207.929217,2.11055965 C206.223401,2.11055965 205.042623,2.48324993 204.319611,3.25010483 C203.557408,4.05870426 203.170751,5.44951936 203.170751,7.38401672 C203.170751,9.20110762 203.575589,10.5499775 204.373953,11.3932971 C205.130095,12.1918618 206.326227,12.5966633 207.929217,12.5966633 L207.929217,12.5966633 L210.371983,12.5966633 C212.088102,12.5966633 213.271708,12.2307966 213.990478,11.4779903 C214.747024,10.6860486 215.130449,9.30847934 215.130449,7.38401672 C215.130449,2.65705164 212.41476,2.11055965 210.371983,2.11055965 L210.371983,2.11055965 Z M210.2718,7.60288917 L210.2718,11.0591283 L207.8698,11.0591283 L207.8698,7.60288917 L210.2718,7.60288917 Z M209.0708,3.54371108 C209.8628,3.54371108 210.532,4.21021171 210.532,4.9992528 C210.532,5.7882939 209.8628,6.45499377 209.0708,6.45499377 C208.2652,6.45499377 207.6098,5.80184309 207.6098,4.9992528 C207.6098,4.19686177 208.2652,3.54371108 209.0708,3.54371108 Z" id="Combined-Shape" fill="#239A98" fill-rule="nonzero"></path>
            <path d="M100.852184,53.5 C102.720747,53.5 104.24731,54.9642776 104.347005,56.8079648 L104.352184,57 L104.352184,68.4457013 L99.3521838,68.4457013 L99.352,58.5 L5.5,58.5 L5.5,117.5 L38.514,117.5 L38.514,101 L17.0143567,101 L17.0143567,96 L38.514,96 L38.514,78 L17.0143567,78 L17.0143567,73 L58.5143567,73 L58.5143567,78 L43.514,78 L43.514,117.5 L73.846,117.5 L99.5,101.365 L99.5,89.7322565 L104.5,89.7322565 L104.5,102.194503 C104.5,103.326989 103.952483,104.384747 103.03888,105.039339 L102.863333,105.157271 L76.14199,121.962767 C75.6536414,122.269898 75.0980757,122.450869 74.5251257,122.491313 L74.2786566,122.5 L4,122.5 C2.1314366,122.5 0.604873551,121.035722 0.505178863,119.192035 L0.5,119 L0.5,57 C0.5,55.1314366 1.9642776,53.6048736 3.8079648,53.5051789 L4,53.5 L100.852184,53.5 Z" id="Combined-Shape" fill="#979797" fill-rule="nonzero"></path>
            <text id="8932-0300-6429-2806" font-family="AkagiPro-Medium, Akagi Pro" font-size="6" font-weight="400" line-spacing="6" fill="#239A98">
                <tspan x="66" y="71">8932</tspan>
                <tspan x="66" y="77">0300</tspan>
                <tspan x="66" y="83">6429</tspan>
                <tspan x="66" y="89">2806</tspan>
                <tspan x="66" y="95">8691</tspan>
                <tspan x="66" y="101">L205</tspan>
            </text>
        </g>
    </g>
</svg>