<svg xmlns="http://www.w3.org/2000/svg" viewBox="0 0 115 91"><path fill="#575756" fill-rule="nonzero" d="M47.178 83.115a3.52 3.52 0 013.514 3.527 3.52 3.52 0 01-3.514 3.528 3.52 3.52 0 01-3.515-3.528 3.52 3.52 0 013.515-3.527zM107 82a2 2 0 110 4 2 2 0 010-4zM94.15 30.335c3.685 0 6.694 3.02 6.694 6.715v25.523c0 3.695-3.009 6.715-6.693 6.715h-6.11a1 1 0 01-1-1V31.335c0-.166.04-.322.112-.46a.987.987 0 01-.112-.458c0-15.506-12.52-28.074-27.963-28.074-15.444 0-27.964 12.568-27.964 28.074 0 .166-.04.322-.112.46a.987.987 0 01.112.458v35.038c0 5.32 2.862 10.32 7.787 13.835a1 1 0 01-1.161 1.628c-4.537-3.237-7.516-7.673-8.372-12.547h-5.364c-3.685 0-6.693-3.02-6.693-6.716V37.05c0-3.695 3.008-6.715 6.693-6.715h5.11C29.158 13.765 42.555.343 59.078.343c16.383 0 29.694 13.198 29.959 29.577l.003.414.001.064-.001-.064h5.11zm-65.036 2h-5.11c-2.578 0-4.693 2.123-4.693 4.715v25.523c0 2.592 2.115 4.715 4.693 4.715h5.11V32.335zm65.037 0h-5.11v34.953h5.11c2.578 0 4.693-2.123 4.693-4.715V37.05c0-2.592-2.115-4.715-4.693-4.715zM114 58a1 1 0 110 2 1 1 0 010-2zM5 12a5 5 0 110 10 5 5 0 010-10zm103-6a3 3 0 110 6 3 3 0 010-6z"/></svg>