<svg xmlns="http://www.w3.org/2000/svg" viewBox="0 0 115 76"><path fill="#575756" fill-rule="nonzero" d="M68 0c20.848 0 37.75 16.818 37.75 37.566S88.848 75.132 68 75.132c-7.711 0-13.114-1.17-18.36-4.29l-.414-.25-14.96 4.871a.75.75 0 01-.971-.847l.025-.097 4.546-14.053-.326-.396c-5.046-6.228-7.29-13.338-7.29-22.504C30.25 16.818 47.152 0 68 0zm0 1.5c-20.021 0-36.25 16.148-36.25 36.066 0 9.179 2.305 16.134 7.528 22.248a.75.75 0 01.17.61l-.027.108-4.221 13.05 13.894-4.525a.75.75 0 01.632.078C54.932 72.417 60.2 73.632 68 73.632c20.021 0 36.25-16.148 36.25-36.066C104.25 17.648 88.021 1.5 68 1.5zm39 65.25a2 2 0 110 4 2 2 0 010-4zM63.703 27c.157 0 .314.05.446.148l.094.083 10.083 10.52 20.477-5.565c.746-.203 1.253.705.748 1.234l-.072.067-22.52 18.681-.069.089a.762.762 0 01-.593.243.748.748 0 01-.447-.148l-.093-.083-10.083-10.52-20.477 5.565c-.746.203-1.253-.705-.748-1.234l.072-.067L63.04 27.332a.759.759 0 01.663-.332zm-.056 1.777L44.14 44.96l17.571-4.775a.75.75 0 01.663.136l.075.069 9.904 10.333L91.86 34.54l-17.571 4.775a.75.75 0 01-.663-.136l-.075-.069-9.904-10.333zM114 42.75a1 1 0 110 2 1 1 0 010-2zm-109-14a5 5 0 110 10 5 5 0 010-10zm17-23a2 2 0 110 4 2 2 0 010-4z"/></svg>