<svg width="179" height="179" viewBox="0 0 179 179" fill="none" xmlns="http://www.w3.org/2000/svg">
<circle cx="96.385" cy="96.385" r="79.8615" fill="#E5CFC7"/>
<path d="M123.384 15.018C110.891 7.05086 96.3806 2.75391 81.2385 2.75391C37.8927 2.75391 2.75391 37.8927 2.75391 81.2385C2.75391 124.584 37.8927 159.723 81.2385 159.723C124.584 159.723 159.723 124.584 159.723 81.2385C159.723 60.8418 151.908 41.6689 138.138 27.1798C137.614 26.6286 136.742 26.6064 136.191 27.1303C135.64 27.6542 135.618 28.5257 136.142 29.0769C149.43 43.0592 156.969 61.555 156.969 81.2385C156.969 123.063 123.063 156.969 81.2385 156.969C39.4136 156.969 5.50775 123.063 5.50775 81.2385C5.50775 39.4136 39.4136 5.50775 81.2385 5.50775C95.8521 5.50775 109.849 9.65279 121.903 17.3399C122.544 17.7488 123.395 17.5605 123.804 16.9193C124.213 16.2782 124.025 15.4269 123.384 15.018Z" fill="#291D18"/>
<path fill-rule="evenodd" clip-rule="evenodd" d="M77.2822 111.52C77.6236 111.476 77.9456 111.305 78.1732 111.026C78.2261 110.962 78.2723 110.894 78.3116 110.823L114.093 50.27C114.48 49.6153 114.263 48.771 113.608 48.3841C112.953 47.9972 112.109 48.2144 111.722 48.869L76.7782 108.005L50.4904 84.3461C49.9252 83.8374 49.0546 83.8832 48.5459 84.4484C48.0371 85.0137 48.083 85.8843 48.6482 86.393L76.1611 111.155C76.2126 111.203 76.2683 111.248 76.3282 111.289C76.439 111.366 76.5581 111.424 76.6815 111.464C76.8785 111.528 77.0836 111.546 77.2822 111.52Z" fill="#291D18"/>
</svg>
