<svg xmlns="http://www.w3.org/2000/svg" width="24" height="24" fill="none"><path fill="#291D18" fill-rule="evenodd" d="M17.586 5H6.414L12 10.586zM19 6.414 13.414 12 19 17.586zM10.586 12 5 6.414v11.172zm-4.172 7L12 13.414 17.586 19zM5 3a2 2 0 0 0-2 2v14a2 2 0 0 0 2 2h14a2 2 0 0 0 2-2V5a2 2 0 0 0-2-2z" clip-rule="evenodd"/></svg><svg xmlns="http://www.w3.org/2000/svg" width="24" height="24" fill="none"><path fill="#291D18" d="M5 3a2 2 0 0 0-2 2v14a2 2 0 0 0 2 2h14a2 2 0 0 0 2-2V5a2 2 0 0 0-2-2zm12.586 2L12 10.586 6.414 5zM19 6.414v11.172L13.414 12zM10.586 12 5 17.586V6.414zm-4.172 7L12 13.414 17.586 19z"/></svg>