<svg xmlns="http://www.w3.org/2000/svg" width="24" height="24" fill="none"><path fill="#291D18" d="M13.007 5a1 1 0 0 1-1.993.117L11.007 5V3A1 1 0 0 1 13 2.883l.007.117zm-7.852-.21a1 1 0 0 0-1.184 1.607l1.532 1.286.1.074A1 1 0 0 0 6.789 6.15L5.256 4.865zm1.966 11.503a1 1 0 0 0-1.414 0l-1.414 1.414-.083.094a1 1 0 0 0 1.497 1.32l1.414-1.414.084-.094a1 1 0 0 0-.084-1.32M13 18.883a1 1 0 0 0-1.993.117v2l.007.117A1 1 0 0 0 13.007 21v-2zM7 12a5 5 0 1 1 10 0 5 5 0 0 1-10 0m5-3a3 3 0 1 0 0 6zm-6.883 3.993A1 1 0 0 0 5 11H3l-.117.007A1 1 0 0 0 3 13h2z"/></svg>