<svg xmlns="http://www.w3.org/2000/svg" width="24" height="24" fill="none"><path fill="#291D18" d="M11.97 6a1 1 0 0 0 1-1V3l-.006-.117A1 1 0 0 0 10.971 3v2l.006.117a1 1 0 0 0 .994.883m8.269-1.051a1 1 0 0 0-1.41-.123L17.3 6.11l-.091.087a1 1 0 0 0 1.376 1.445l1.532-1.285.091-.087a1 1 0 0 0 .033-1.322m-16.394.04a1 1 0 0 1 1.308-.198l.101.075L6.788 6.15a1 1 0 0 1-1.184 1.607l-.101-.074L3.97 6.397a1 1 0 0 1-.124-1.409m13.447 11.305a1 1 0 0 1 1.32-.083l.094.083 1.414 1.414a1 1 0 0 1-1.32 1.497l-.094-.083-1.414-1.414a1 1 0 0 1 0-1.414m-11.586 0a1 1 0 0 1 1.498 1.32l-.084.094-1.414 1.414a1 1 0 0 1-1.497-1.32l.083-.094zm6.263 1.554a1 1 0 0 1 .994.884l.007.116v2a1 1 0 0 1-1.994.117l-.006-.117v-2a1 1 0 0 1 1-1M12 7a5 5 0 1 1 0 10 5 5 0 0 1 0-10m0 2a3 3 0 1 0 0 6 3 3 0 0 0 0-6m10 3a1 1 0 0 1-.883.993L21 13h-2a1 1 0 0 1-.117-1.993L19 11h2a1 1 0 0 1 1 1m-16.883.993A1 1 0 0 0 5 11H3l-.117.007A1 1 0 0 0 3 13h2z"/></svg>