<svg width="136" height="40" viewBox="0 0 136 40" fill="none" xmlns="http://www.w3.org/2000/svg">
<g clip-path="url(#clip0_3966_3560)">
<path d="M34.4839 23.0235H39.2861V29.4223H44.081V18.0176C44.081 12.5293 40.7676 10.2984 36.8266 10.2984C32.8856 10.2984 29.5941 12.5329 29.5941 18.0176V29.4223H34.4802V23.0235H34.4839ZM34.4839 16.8351C34.4839 14.8146 35.5494 14.0891 36.8266 14.0891C38.1038 14.0891 39.2861 14.8109 39.2861 16.8351V19.4396H34.4839V16.8351Z" fill="#00807B"/>
<path d="M25.4195 23.6111C25.4195 21.8518 24.5912 20.2956 22.5806 19.4359V19.4069C23.5913 18.8954 24.7554 17.1579 24.7554 15.8701C24.7554 13.0334 22.3653 10.7046 18.7454 10.7046H10.7794V29.4259H18.468C22.6389 29.4259 25.4232 27.1007 25.4232 23.6147L25.4195 23.6111ZM15.5305 14.1543H18.4133C19.3511 14.1543 20.1393 14.9669 20.1393 16.124C20.1393 17.2812 19.3475 18.101 18.4133 18.101H15.5305V14.1543ZM15.5305 26.0016V21.3295H18.2783C19.6722 21.3295 20.8034 22.0731 20.8034 23.6619C20.8034 25.0403 19.8474 26.0016 18.2783 26.0016H15.5305Z" fill="#00807B"/>
<path d="M80.7834 25.7223H73.2225V21.4274H80.5863V18.0031H73.2225V14.43H80.7834V10.701H68.4495V29.4223H80.7834V25.7223Z" fill="#00807B"/>
<path d="M48.9744 23.35C48.9744 23.35 48.9816 23.9485 48.9816 24.1008C48.9087 27.4925 51.2514 29.8576 56.236 29.8576C60.3303 29.8576 63.5561 27.5106 63.5561 24.0138C63.5561 20.7309 62.4103 19.1965 56.4148 18.0539C54.9625 17.7745 54.0028 17.1397 54.0028 15.8266C54.0028 15.0068 54.6049 13.9331 56.236 13.9331C57.8672 13.9331 58.5678 15.0286 58.5678 16.0987V16.7697H63.1729C63.1729 16.7697 63.1875 16.095 63.1875 15.8556C63.1875 12.4676 60.1187 10.2802 56.2324 10.2802C52.3461 10.2802 49.2809 12.765 49.2809 15.9717C49.2809 19.1784 50.7223 21.1626 56.0463 22.0223C57.5023 22.2508 58.4693 22.7841 58.4693 24.1008C58.4693 25.2435 57.7176 26.0996 56.2324 26.0996C54.4626 26.0996 53.959 25.0258 53.959 24.1335V23.3463H48.9707L48.9744 23.35Z" fill="#00807B"/>
<path d="M0 0V40H135.385V0H0ZM88.2239 36.699H3.33526V3.30099H88.2239V36.699ZM122.474 28.9254H115.216L109.786 10.7518L109.545 15.5945H105.623V28.9254H99.7915V15.5945H95.7045L95.9453 10.7518H116.212L118.336 20.9413L118.821 23.8143H118.876L119.361 20.9413L121.485 10.7518H127.908L122.478 28.9254H122.474Z" fill="#00807B"/>
</g>
<defs>
<clipPath id="clip0_3966_3560">
<rect width="135.385" height="40" fill="white"/>
</clipPath>
</defs>
</svg>
