<svg width="66" height="82" viewBox="0 0 66 82" fill="none" xmlns="http://www.w3.org/2000/svg">
<g clip-path="url(#clip0_2964_1241)">
<path d="M50.6464 30V77.1615H2.3623V13.173L34.5002 13.173" stroke="#3D9E9B" stroke-width="3"/>
<path d="M17.0568 40.6667H13.5V44H16.7C16.7 44.5633 16.7298 45.1194 16.7879 45.6667H13.5V49H17.5194C19.4962 54.826 24.8301 59 31.1 59C33.3989 59 35.5721 58.4388 37.5 57.4408V53.5755C35.6859 54.8936 33.4796 55.6667 31.1 55.6667C26.6322 55.6667 22.7754 52.9416 20.9778 49H29.5V45.6667H20.0134C19.9387 45.1223 19.9 44.5659 19.9 44H29.5V40.6667H20.3638C21.7407 35.8475 26.0264 32.3333 31.1 32.3333C33.4796 32.3333 35.6859 33.1064 37.5 34.4245V30.5592C35.5721 29.5612 33.3989 29 31.1 29C24.2469 29 18.512 33.9867 17.0568 40.6667Z" fill="#3D9E9B"/>
<path d="M13.5 65H39.5" stroke="#3D9E9B" stroke-width="3" stroke-linecap="square"/>
<rect x="44" y="7" width="22.275" height="22.14" fill="#D6EBEA"/>
<rect x="39.125" y="2.14001" width="22.575" height="22.42" stroke="#3D9E9B" stroke-width="3"/>
<path d="M45.6675 12.4923L49.6887 16.4929L56.7659 9.45178" stroke="#004A47" stroke-width="3"/>
</g>
<defs>
<clipPath id="clip0_2964_1241">
<rect width="66" height="82" fill="white"/>
</clipPath>
</defs>
</svg>
