<svg xmlns="http://www.w3.org/2000/svg" width="24" height="24" fill="none"><path fill="#291D18" d="M13.53 7.53a.75.75 0 0 0-1.06-1.06l-1 1a.75.75 0 0 0 1.06 1.06z"/><path fill="#291D18" d="M12 12a4 4 0 1 0 0-8 4 4 0 0 0 0 8m0-1.5a2.5 2.5 0 1 1 0-5 2.5 2.5 0 0 1 0 5m-2.5 6a.5.5 0 1 0 0-1 .5.5 0 0 0 0 1m3-.5a.5.5 0 1 1-1 0 .5.5 0 0 1 1 0m2 .5a.5.5 0 1 0 0-1 .5.5 0 0 0 0 1"/><path fill="#291D18" d="M5 3.547c0-.394.234-.746.612-.854C6.536 2.427 8.557 2 12 2s5.464.427 6.388.693c.378.108.612.46.612.854v13.906c0 .394-.234.746-.612.854q-.259.076-.638.163v1.162c0 .636-.364 1.298-1.074 1.527-.787.255-2.282.591-4.676.591s-3.889-.336-4.676-.59c-.71-.23-1.074-.892-1.074-1.528V18.47a12 12 0 0 1-.638-.163C5.234 18.2 5 17.847 5 17.453zm7-.047c-2.773 0-4.541.287-5.5.512v9.238h11V4.012c-.959-.225-2.727-.512-5.5-.512m5.5 11.25h-11v2.238c.959.225 2.727.512 5.5.512s4.541-.287 5.5-.512zm-9.75 3.988v.894c0 .046.013.075.021.088l.008.01.006.002c.625.202 1.963.518 4.215.518s3.59-.316 4.215-.518l.006-.003.008-.009a.16.16 0 0 0 .021-.088v-.894c-1.065.148-2.467.262-4.25.262s-3.185-.114-4.25-.262"/></svg>