<svg xmlns="http://www.w3.org/2000/svg" width="24" height="24" fill="none"><path fill="#291D18" d="M10.227 2.435A.78.78 0 0 1 10.94 2h4.16c.27 0 .521.131.664.347a.69.69 0 0 1 .034.712l-2.556 4.795h4.978a.79.79 0 0 1 .682.377.69.69 0 0 1-.02.742l-4.455 6.685h1.713a.78.78 0 0 1 .733.483.7.7 0 0 1-.234.811L10.4 21.83a.82.82 0 0 1-.63.16.78.78 0 0 1-.538-.345l-3.12-4.878a.69.69 0 0 1-.01-.737.79.79 0 0 1 .679-.372h1.638l2.184-3.414H6.78a.8.8 0 0 1-.654-.333.69.69 0 0 1-.059-.696zm1.22 1.028L7.98 10.781h4a.79.79 0 0 1 .679.37.7.7 0 0 1-.01.738l-3.12 4.878a.79.79 0 0 1-.669.355h-.702l1.942 3.037 3.886-3.037h-.966a.79.79 0 0 1-.682-.377.69.69 0 0 1 .02-.743l4.455-6.685H11.98a.8.8 0 0 1-.664-.347.69.69 0 0 1-.034-.712l2.556-4.795z"/></svg>