<svg xmlns="http://www.w3.org/2000/svg" width="24" height="24" fill="none"><path fill="#111" d="M22 2H2v20h20zm-8.822 10.838H10.63c-.028-.168-.028-.476-.028-.686 0-.9.525-1.232.972-1.516.334-.211.624-.396.624-.766 0-.406-.616-.518-1.19-.518-.364 0-.714.042-.882.084L10 7.098c.462-.056.994-.098 1.638-.098 2.352 0 3.514 1.036 3.514 2.422 0 1.164-.583 1.6-1.115 1.999-.448.335-.859.643-.859 1.333zm.42 2.394c0 .938-.742 1.694-1.68 1.694a1.69 1.69 0 0 1-1.694-1.694c0-.938.756-1.68 1.694-1.68s1.68.742 1.68 1.68"/></svg>