<svg width="185" height="100" viewBox="0 0 185 100" fill="none" xmlns="http://www.w3.org/2000/svg">
<g clip-path="url(#clip0_672_877)">
<path d="M83.5918 67.7563C83.6943 67.7713 83.7143 67.7738 83.8142 67.7888C85.4738 68.0138 87.1033 68.3137 88.3505 68.871C89.5077 69.3809 90.185 70.0282 90.8023 71.1779C91.7421 72.9249 91.8045 75.3692 90.9548 77.2212C90.3199 78.5983 88.9253 79.753 87.6532 80.3653C86.331 81.0052 85.0289 81.3101 83.5368 81.4825C80.925 81.77 78.1033 81.2276 75.7539 80.0929C74.3618 79.4131 72.6648 78.2459 71.81 76.7364C71.1802 75.6342 71.2002 74.1971 71.9675 73.1473C73.1897 71.4753 75.8039 71.1079 77.7759 71.1779C79.278 71.2354 81.9822 71.7002 83.4093 72.2076C83.8042 72.3501 85.2613 72.9174 85.5188 73.1798C85.6987 73.3623 85.8137 73.6247 85.7337 73.8671C85.4088 74.8644 82.9845 75.3892 82.2871 75.4967C80.4152 75.7816 79.4429 75.0743 77.3135 74.2345C76.7862 74.0271 76.0814 73.7972 75.5415 73.7472C74.5743 73.6547 73.4096 73.9246 73.2246 74.9818C73.1322 75.5267 73.7695 76.034 74.2569 76.2465C75.399 76.7364 76.3263 76.9138 77.451 76.9288C80.7701 76.9838 84.5015 76.4364 87.2183 74.512C87.5882 74.247 87.9556 73.8571 87.9581 73.3698C87.9706 72.38 86.2361 71.7777 86.2361 71.7777C84.4066 71.0154 81.025 70.643 79.2855 70.5006C77.4585 70.3431 74.5843 70.1057 73.892 70.0032C73.1822 69.9032 72.4099 69.7583 71.795 69.4808C71.1777 69.2034 70.5729 68.5786 70.3929 67.8863C70.0755 66.6391 70.4804 65.1095 71.1727 64.1148C72.9872 61.5055 77.2385 60.5158 80.4127 60.1234C83.4868 59.741 88.4555 59.7435 91.4746 61.3481C91.9395 61.598 92.1794 61.8305 92.082 62.3278C91.8845 63.2651 91.1822 63.8674 90.3299 64.1323C89.4377 64.4147 87.5882 64.5272 86.7734 64.5772C83.1344 64.7821 78.7356 64.6747 75.2691 65.6194C74.9967 65.6969 74.5268 65.8219 74.3768 65.9918C73.8345 66.5816 75.384 66.7491 75.7165 66.8166C75.8164 66.8391 75.8339 66.8441 75.9364 66.8541L83.5968 67.7563M61.9452 51.5283C61.9452 51.5283 62.5376 50.641 63.0324 49.9662C63.9347 48.739 65.5692 47.037 66.8014 45.9848C67.1788 45.6649 67.6212 45.3 67.6212 45.3C67.6212 45.3 66.9264 45.37 66.534 45.45C65.6017 45.6324 64.2321 46.5422 63.5473 47.1295C62.4176 48.0967 61.1779 49.6663 61.7378 51.0634C61.8178 51.2609 61.9452 51.5258 61.9452 51.5258M68.221 53.2053C70.0055 53.0829 71.6751 52.5705 73.2296 51.7057C74.7567 50.8535 76.9986 49.1889 76.7662 47.232C76.6962 46.5996 76.2813 46.1198 75.7564 45.8973C75.0766 45.6024 74.7217 45.6499 73.852 45.9073C73.2196 46.0948 72.9372 46.2047 72.3399 46.5472C70.5904 47.5644 68.1085 49.7388 66.7614 51.4758C66.4515 51.8857 66.1366 52.3431 65.8892 52.658C65.7317 52.8504 65.6117 53.0279 65.6292 53.0754C65.6817 53.2728 67.5212 53.2528 68.2185 53.2053M63.6773 56.5419C63.4948 56.7368 63.2999 57.2067 63.0974 57.5466C62.99 57.7291 62.79 57.9615 62.6575 58.0565C62.1927 58.3989 61.8003 58.4139 61.3504 58.019C60.7231 57.4641 60.3582 56.6044 60.3332 55.7671C60.3207 55.4022 60.3807 54.9998 60.3132 54.6899C60.2007 54.1701 59.6784 53.6352 59.3984 53.1403C59.0685 52.5555 58.8036 51.5333 58.7711 50.876C58.6561 48.824 59.7408 46.932 61.1455 45.44C62.5626 43.9304 64.4146 42.6757 66.429 41.8234C68.3335 41.0212 71.1252 40.4738 73.2171 41.1986C73.897 41.4336 74.8467 42.0134 75.3241 42.6182C75.424 42.7457 75.5065 42.8807 75.6115 42.9481C75.704 43.0081 75.9464 43.0306 76.1413 43.0656C76.8087 43.1806 77.7684 43.6854 78.1608 44.0228C78.9481 44.7027 79.3804 45.3525 79.5804 46.2947C79.9803 48.1917 78.8881 50.2761 77.6434 51.5408C75.5115 53.7227 73.4071 55.2573 70.6803 56.3245C69.4832 56.7918 67.6162 57.2292 66.259 57.1067C65.8367 57.0718 65.4043 56.9593 64.9919 56.9318C64.782 56.9143 64.0172 56.7169 63.9347 56.6594C63.8322 56.5819 63.7023 56.5119 63.6773 56.5394M66.1141 60.7482C66.1966 60.7632 66.3265 60.8007 66.4365 60.8407C67.3937 61.2056 67.7861 62.0904 68.0211 63.0626C68.5659 65.3195 68.8009 70.3106 68.8908 72.2676C68.9558 73.7322 68.9933 75.1768 69.0558 76.6264C69.1083 77.8535 69.2057 79.4881 68.9508 80.6378C68.8583 81.0502 68.5809 81.5325 68.186 81.7775C67.7311 82.0674 66.6989 82.0899 66.1316 81.9724C64.732 81.6825 64.2771 80.7827 64.0772 79.4006C63.6023 76.0965 63.8322 69.6133 64.1121 66.8791C64.2046 65.9768 64.5445 63.0801 65.0169 61.8679C65.1769 61.458 65.5218 60.6333 66.1191 60.7507M23.5358 66.2467C23.5358 66.2467 21.4514 66.3942 20.0193 66.5516C18.1948 66.7491 14.7682 67.3414 12.7888 68.0462C12.1964 68.2587 10.9917 68.7635 10.8843 69.3734C10.7743 70.0057 11.1667 70.5006 11.6041 71.0129C11.8565 71.3103 13.2861 72.685 13.686 73.0199C15.3655 74.422 18.7696 76.5839 21.2789 77.6336C22.1387 77.9885 23.5658 78.5009 23.5658 78.5009C23.5658 78.5009 23.4608 74.442 23.4783 70.4431C23.4883 68.3337 23.5358 66.2442 23.5358 66.2442M61.7328 67.8588C61.8528 68.9485 61.5728 71.0104 61.5229 71.2828C61.4329 71.9102 60.9605 73.3548 60.883 73.5322C60.5006 74.412 60.1257 75.1318 59.7258 75.8491C59.041 77.0788 57.419 79.0282 56.4542 79.863C52.8677 82.9621 47.3168 84.7267 42.5556 85.309C39.324 85.6989 35.61 85.6414 32.1859 85.0066C31.0087 84.7916 29.2542 84.3892 29.2542 84.3892C29.2542 84.3892 29.2592 85.0915 29.2042 85.5839C29.1767 85.8089 29.0068 86.4012 28.9118 86.5936C28.6619 87.1085 28.2545 87.3734 27.6597 87.4859C26.9424 87.6184 26.1801 87.6633 25.5178 87.3809C24.4306 86.9235 24.0382 85.9038 23.8507 84.7316C23.6958 83.7919 23.5358 82.1599 23.5358 82.1599C23.5358 82.1599 22.721 81.775 22.0437 81.4376C19.9593 80.4078 17.9773 79.1657 16.2453 77.8835C15.7654 77.5261 13.7035 75.7991 13.2461 75.3692C11.969 74.1571 10.8218 72.9524 9.94954 71.4053C9.26972 70.1982 9.07478 69.1234 9.59213 67.8438C10.3044 66.0593 12.8637 64.7147 14.6133 63.9499C15.9004 63.3825 19.8943 62.0779 21.5563 61.8354C22.3411 61.723 23.5558 61.5055 23.6308 61.4556C23.6608 61.4331 23.6833 61.4131 23.7058 61.3856C23.7432 61.3306 23.8082 59.5636 23.7957 58.9188C23.7807 58.2814 24.2681 54.1101 24.4231 53.2278C24.5055 52.7504 24.8654 50.9134 25.2353 50.4311C25.4753 50.1062 25.9026 50.1312 26.2501 50.3461C28.1545 51.5308 28.7319 55.6372 28.8743 57.7266C28.9593 59.0012 29.0018 60.9157 29.0018 60.9157C29.0018 60.9157 31.1862 60.8507 32.5308 60.8882C33.8355 60.9182 35.2751 61.1256 36.6322 61.3406C38.3667 61.618 41.7508 62.3553 43.6903 63.34C45.2873 64.1498 46.7819 65.5144 47.2668 66.959C47.7166 68.2837 47.6492 69.1984 46.9644 70.3931C46.1946 71.7427 44.735 72.7449 43.2579 72.8274C42.818 72.8524 41.1609 72.635 40.6511 72.2401C40.4511 72.0826 40.4611 71.7977 40.6061 71.6078C40.6611 71.5378 41.4334 71.1279 41.8908 70.888C42.1207 70.763 42.3106 70.628 42.4881 70.4656C42.868 70.1307 43.2104 69.7633 43.1729 69.3309C43.1204 68.771 42.5281 68.4261 41.9632 68.2037C39.314 67.1515 34.0254 66.2792 31.4711 66.1268C30.4714 66.0668 29.0493 66.0193 29.0493 66.0193L29.3492 80.1304C29.3492 80.1304 30.5239 80.3554 31.4536 80.5053C31.986 80.5853 34.2404 80.7877 34.8377 80.8027C39.3964 80.9227 44.4875 80.5153 48.6739 78.5409C50.5109 77.6761 52.1954 76.5989 53.4726 75.1418C55.1546 73.2123 56.0344 70.573 55.8044 67.8188C55.5495 64.8071 53.4301 61.2331 51.738 59.0587C47.2668 53.3078 39.6039 48.5791 32.8632 45.8074C25.9801 42.9781 19.1795 41.3511 11.874 41.0787C9.99202 41.0087 5.88565 41.1036 3.81122 41.6785C3.5138 41.761 3.21639 41.8609 2.93896 41.9234C2.72152 41.9759 2.37912 42.1184 2.28414 42.1958C2.23166 42.2383 2.18167 42.2958 2.18167 42.2958C2.18167 42.2958 2.30914 42.3658 2.4316 42.4183C2.65154 42.5133 3.57879 42.5707 4.05616 42.6607C4.48354 42.7407 4.93091 42.9681 5.10587 43.2805C5.27332 43.578 5.29581 43.8129 5.09337 44.0628C4.6235 44.6352 2.85399 44.5377 2.0742 44.4152C1.26442 44.2853 0.2572 44.0378 0.0697517 43.333C-0.145189 42.5033 0.249702 41.6885 0.674585 40.9362C1.53185 39.4291 2.75651 38.6468 4.55352 38.157C7.10532 37.4546 10.3269 36.9648 12.7363 36.8723C18.1898 36.6674 23.3509 37.6196 28.6344 39.2242C31.6586 40.1389 35.6175 41.671 38.5167 43.0681C40.5961 44.0703 43.8727 45.9148 45.7147 47.1195C46.2945 47.5019 49.6936 49.9987 50.221 50.4361C51.3232 51.3358 52.7628 52.6305 53.805 53.6652C55.8219 55.6646 58.3312 58.7288 59.5509 61.1606C59.8433 61.743 60.0708 62.3153 60.4481 62.9901C60.5781 63.2226 61.1355 64.6047 61.2279 65.0046C61.3204 65.3995 61.4554 65.9818 61.4729 66.0043C61.5004 66.2167 61.7578 67.4039 61.7378 67.8638L61.7328 67.8588ZM130.289 64.7396C127.735 65.3295 121.019 65.6544 121.019 65.6544L120.172 68.3087C120.172 68.3087 123.528 68.0212 125.97 68.2762C125.97 68.2762 126.762 68.1837 126.855 69.1734C126.885 70.0982 126.777 71.0879 126.777 71.0879C126.777 71.0879 126.725 71.6877 125.878 71.8402C124.958 71.9952 118.645 72.2376 118.645 72.2376L117.622 75.6966C117.622 75.6966 117.243 76.4964 118.095 76.269C118.887 76.0565 125.5 74.8169 126.363 74.9943C127.287 75.2243 128.307 76.4539 128.012 77.5761C127.66 78.9682 121.056 83.1771 117.038 82.8822C117.038 82.8822 114.926 83.0196 113.139 80.1654C111.477 77.4487 113.768 72.3051 113.768 72.3051C113.768 72.3051 112.719 69.9032 113.479 69.091C113.479 69.091 113.931 68.6786 115.253 68.5861L116.87 65.2395C116.87 65.2395 115.026 65.367 113.931 64.0098C112.911 62.7227 112.824 62.1329 113.609 61.778C114.446 61.3631 122.121 59.9635 127.402 60.1409C127.402 60.1409 129.237 59.961 130.829 63.1451C130.829 63.1451 131.601 64.4322 130.289 64.7421V64.7396ZM110.422 77.6111C109.745 79.2032 107.958 80.9027 105.736 79.848C103.544 78.7883 100.05 71.6403 100.05 71.6403C100.05 71.6403 98.7226 68.9735 98.4677 69.0435C98.4677 69.0435 98.1803 68.5236 98.0053 71.4353C97.8229 74.337 98.0403 79.9905 96.8831 80.8827C95.7884 81.775 94.4613 81.4201 93.7715 80.3778C93.1467 79.3481 92.8867 76.9088 93.2266 72.62C93.6265 68.3237 94.6263 63.7524 95.9009 62.3303C97.1756 60.9157 98.1978 61.9429 98.5952 62.3153C98.5952 62.3153 100.297 63.8599 103.106 68.3911L103.601 69.2309C103.601 69.2309 106.153 73.5122 106.421 73.5047C106.421 73.5047 106.628 73.6997 106.815 73.5597C107.083 73.4847 106.975 72.1101 106.975 72.1101C106.975 72.1101 106.446 67.4439 104.119 59.5436C104.119 59.5436 103.766 58.5588 104.004 57.6366C104.241 56.7044 105.176 57.1417 105.176 57.1417C105.176 57.1417 108.785 58.9562 110.537 64.8321C112.276 70.708 111.109 76.0115 110.422 77.6161V77.6111ZM149.264 74.0921C147.622 76.9588 142.983 82.9596 136.82 81.5425C134.785 86.4787 133.076 91.4723 132.098 98.9427C132.098 98.9427 131.883 100.395 130.676 99.89C129.482 99.4701 127.512 97.4831 127.112 94.7339C126.685 91.1224 128.292 85.0141 131.579 78.011C130.619 76.4514 129.967 74.2245 130.526 71.0554C130.526 71.0554 131.354 65.167 137.267 59.861C137.267 59.861 137.977 59.2487 138.387 59.4361C138.839 59.6261 138.629 61.5405 138.272 62.4728C137.899 63.4 135.265 67.9588 135.265 67.9588C135.265 67.9588 133.623 71.0379 134.085 73.4647C137.187 68.6961 144.238 59.0812 148.609 62.1129C150.076 63.1626 150.753 65.447 150.753 67.9088C150.753 70.0707 150.233 72.3675 149.269 74.0896L149.264 74.0921ZM147.989 66.5417C147.989 66.5417 147.747 64.6447 145.892 66.7341C144.298 68.4961 141.423 71.7977 139.109 76.284C141.536 76.0116 143.88 74.6944 144.588 74.0221C145.74 72.9999 148.421 70.2281 147.989 66.5417ZM183.217 66.1093H171.923C171.698 62.2703 171.233 58.5289 170.505 54.6799C170.43 54.28 170.083 53.9926 169.681 53.9926H167.076C166.849 53.9926 166.634 54.0926 166.489 54.27C166.342 54.45 166.284 54.6799 166.327 54.9074C167.066 58.6338 167.536 62.3028 167.766 66.1143H156.899C156.392 66.1143 155.982 66.5242 155.982 67.029V69.3759C155.982 69.8832 156.392 70.2956 156.899 70.2956H167.921C167.929 70.8755 167.934 71.3953 167.934 71.8827C167.934 75.2668 167.789 78.056 167.446 81.2026C167.419 81.4451 167.499 81.6875 167.664 81.8674C167.824 82.0474 168.054 82.1499 168.293 82.1499H170.708C171.18 82.1499 171.57 81.795 171.618 81.3251C171.947 78.156 172.09 75.3342 172.09 71.8827C172.09 71.3978 172.085 70.8755 172.077 70.2956H183.219C183.724 70.2956 184.137 69.8832 184.137 69.3759V67.029C184.137 66.5217 183.724 66.1118 183.219 66.1118L183.217 66.1093Z" fill="#01147B"/>
<path d="M168.968 48.4717C163.215 34.3106 153.485 22.2389 140.829 13.5688C127.875 4.68871 112.686 0 96.9082 0C70.8254 0 46.622 12.9639 32.1685 34.673C32.0086 34.9079 31.9711 35.2003 32.061 35.4727C32.156 35.7477 32.366 35.9576 32.6359 36.0476L34.6603 36.7299C34.7828 36.7699 34.9053 36.7874 35.0227 36.7874C35.3976 36.7874 35.75 36.6024 35.9575 36.29C42.5856 26.5502 51.5582 18.4399 61.9028 12.8365C72.5849 7.05056 84.6866 3.9914 96.9057 3.9914C111.664 3.9914 125.905 8.34021 138.089 16.5754C149.976 24.6082 159.209 35.8152 164.79 48.984C164.957 49.3764 165.342 49.6314 165.767 49.6314H168.184C168.461 49.6314 168.723 49.4914 168.881 49.2565C169.038 49.024 169.068 48.7291 168.963 48.4692L168.968 48.4717Z" fill="url(#paint0_radial_672_877)"/>
</g>
<defs>
<radialGradient id="paint0_radial_672_877" cx="0" cy="0" r="1" gradientUnits="userSpaceOnUse" gradientTransform="translate(168.756 49.8451) scale(131.828 131.828)">
<stop stop-color="#01147B"/>
<stop offset="0.03" stop-color="#000F97"/>
<stop offset="0.06" stop-color="#000ABC"/>
<stop offset="0.1" stop-color="#0005D9"/>
<stop offset="0.14" stop-color="#0002EE"/>
<stop offset="0.18" stop-color="#0000FA"/>
<stop offset="0.22" stop-color="#0000FF"/>
<stop offset="1" stop-color="#00FFFF" stop-opacity="0"/>
</radialGradient>
<clipPath id="clip0_672_877">
<rect width="184.127" height="100" fill="white"/>
</clipPath>
</defs>
</svg>
