<svg xmlns="http://www.w3.org/2000/svg" width="42" height="49" viewBox="0 0 42 49">
  <g fill="none" fill-rule="evenodd" transform="translate(0 1)">
    <path fill="#8C8D8E" fill-rule="nonzero" d="M24,11.25 C26.6233526,11.25 28.75,13.3766474 28.75,16 L28.75,16 L28.75,17.25 L37,17.25 C39.5504817,17.25 41.6314697,19.2601413 41.7451121,21.782572 L41.75,22 L41.75,43 C41.75,45.6233526 39.6233526,47.75 37,47.75 L37,47.75 L5,47.75 C2.37664744,47.75 0.25,45.6233526 0.25,43 L0.25,43 L0.25,22 C0.25,19.3766474 2.37664744,17.25 5,17.25 L5,17.25 L13.25,17.25 L13.25,16 C13.25,13.4495183 15.2601413,11.3685303 17.782572,11.2548879 L18,11.25 Z M34.246017,32.7461693 L34,32.75 L33.75,32.75 L33.75,35 C33.75,35.3796958 33.4678461,35.693491 33.1017706,35.7431534 L33,35.75 L30,35.75 C29.5857864,35.75 29.25,35.4142136 29.25,35 L29.25,35 L29.25,32.75 L12.75,32.75 L12.75,35 C12.75,35.3796958 12.4678461,35.693491 12.1017706,35.7431534 L12,35.75 L9,35.75 C8.58578644,35.75 8.25,35.4142136 8.25,35 L8.25,35 L8.25,32.75 L8,32.75 C5.43461964,32.75 3.16036511,31.5035421 1.74982328,29.5832131 L1.75,43 C1.75,44.7949254 3.20507456,46.25 5,46.25 L5,46.25 L37,46.25 C38.7949254,46.25 40.25,44.7949254 40.25,43 L40.25,43 L40.2515534,29.5813383 C38.886355,31.4411019 36.7112612,32.6692938 34.246017,32.7461693 Z M37,36.25 C37.3796958,36.25 37.693491,36.5321539 37.7431534,36.8982294 L37.75,37 L37.75,40 C37.75,42.0042592 36.1776389,43.6412737 34.1991586,43.744802 L34,43.75 L8,43.75 C5.99574083,43.75 4.35872626,42.1776389 4.25519801,40.1991586 L4.25,40 L4.25,37 C4.25,36.5857864 4.58578644,36.25 5,36.25 C5.37969577,36.25 5.69349096,36.5321539 5.74315338,36.8982294 L5.75,37 L5.75,40 C5.75,41.190864 6.67516159,42.1656449 7.84595119,42.2448092 L8,42.25 L34,42.25 C35.190864,42.25 36.1656449,41.3248384 36.2448092,40.1540488 L36.25,40 L36.25,37 C36.25,36.5857864 36.5857864,36.25 37,36.25 Z M11.25,29.75 L9.75,29.75 L9.75,34.25 L11.25,34.25 L11.25,29.75 Z M32.25,29.75 L30.75,29.75 L30.75,34.25 L32.25,34.25 L32.25,29.75 Z M37,18.75 L5,18.75 C3.26696854,18.75 1.85075407,20.1064548 1.75514479,21.8155761 L1.75,22 L1.75,25 C1.75,28.3750735 4.4252368,31.1253119 7.77087313,31.245878 L8,31.25 L8.25,31.25 L8.25,29 C8.25,28.6203042 8.53215388,28.306509 8.89822944,28.2568466 L9,28.25 L12,28.25 C12.4142136,28.25 12.75,28.5857864 12.75,29 L12.75,29 L12.75,31.25 L29.25,31.25 L29.25,29 C29.25,28.6203042 29.5321539,28.306509 29.8982294,28.2568466 L30,28.25 L33,28.25 C33.4142136,28.25 33.75,28.5857864 33.75,29 L33.75,29 L33.75,31.25 L34,31.25 C37.3750735,31.25 40.1253119,28.5747632 40.245878,25.2291269 L40.25,25 L40.25,22 C40.25,20.2669685 38.8935452,18.8507541 37.1844239,18.7551448 L37,18.75 Z M35,22.25 C35.4142136,22.25 35.75,22.5857864 35.75,23 C35.75,23.3796958 35.4678461,23.693491 35.1017706,23.7431534 L35,23.75 L32,23.75 C31.5857864,23.75 31.25,23.4142136 31.25,23 C31.25,22.6203042 31.5321539,22.306509 31.8982294,22.2568466 L32,22.25 L35,22.25 Z M23,22.25 C23.4142136,22.25 23.75,22.5857864 23.75,23 C23.75,23.3796958 23.4678461,23.693491 23.1017706,23.7431534 L23,23.75 L7,23.75 C6.58578644,23.75 6.25,23.4142136 6.25,23 C6.25,22.6203042 6.53215388,22.306509 6.89822944,22.2568466 L7,22.25 L23,22.25 Z M29,22.25 C29.4142136,22.25 29.75,22.5857864 29.75,23 C29.75,23.3796958 29.4678461,23.693491 29.1017706,23.7431534 L29,23.75 L26,23.75 C25.5857864,23.75 25.25,23.4142136 25.25,23 C25.25,22.6203042 25.5321539,22.306509 25.8982294,22.2568466 L26,22.25 L29,22.25 Z M24,12.75 L18,12.75 C16.2050746,12.75 14.75,14.2050746 14.75,16 L14.75,16 L14.75,17.25 L16.25,17.25 L16.25,17 C16.25,15.5374682 17.3917046,14.3415957 18.8324777,14.2550188 L19,14.25 L23,14.25 C24.5187831,14.25 25.75,15.4812169 25.75,17 L25.75,17 L25.75,17.25 L27.25,17.25 L27.25,16 C27.25,14.2669685 25.8935452,12.8507541 24.1844239,12.7551448 L24.1844239,12.7551448 L24,12.75 Z M23,15.75 L19,15.75 C18.3096441,15.75 17.75,16.3096441 17.75,17 L17.75,17 L17.75,17.25 L24.25,17.25 L24.25,17 C24.25,16.3527913 23.7581253,15.8204661 23.1278052,15.7564536 L23.1278052,15.7564536 L23,15.75 Z"/>
    <path fill="#239A98" d="M37,13 C37.5522847,13 38,13.4477153 38,14 C38,14.5522847 37.5522847,15 37,15 C36.4477153,15 36,14.5522847 36,14 C36,13.4477153 36.4477153,13 37,13 Z M4,12 C4.55228475,12 5,12.4477153 5,13 C5,13.5522847 4.55228475,14 4,14 C3.44771525,14 3,13.5522847 3,13 C3,12.4477153 3.44771525,12 4,12 Z M26,6 C26.5522847,6 27,6.44771525 27,7 C27,7.55228475 26.5522847,8 26,8 C25.4477153,8 25,7.55228475 25,7 C25,6.44771525 25.4477153,6 26,6 Z M8,6 C8.55228475,6 9,6.44771525 9,7 C9,7.55228475 8.55228475,8 8,8 C7.44771525,8 7,7.55228475 7,7 C7,6.44771525 7.44771525,6 8,6 Z M35,0 C36.1045695,0 37,0.8954305 37,2 C37,3.1045695 36.1045695,4 35,4 C33.8954305,4 33,3.1045695 33,2 C33,0.8954305 33.8954305,0 35,0 Z M17,0 C17.5522847,0 18,0.44771525 18,1 C18,1.55228475 17.5522847,2 17,2 C16.4477153,2 16,1.55228475 16,1 C16,0.44771525 16.4477153,0 17,0 Z"/>
  </g>
</svg>
