<svg xmlns="http://www.w3.org/2000/svg" width="45" height="50" viewBox="0 0 45 50">
  <g fill="none" fill-rule="evenodd" transform="translate(1 1)">
    <path fill="#8C8D8E" fill-rule="nonzero" d="M19.6495803,16.2498274 C29.3182406,16.2195677 37.0216595,24.0502043 37.0216595,33.8013373 C37.0216595,34.8030693 36.9387684,35.7944966 36.7750905,36.7683785 C36.756167,36.8809736 36.7130715,36.9834639 36.6520127,37.0714274 C36.6307248,37.1110955 36.6052071,37.1500198 36.575621,37.1870025 C36.2382237,37.608749 35.7028753,38.098251 34.9656155,38.6604486 L34.5434257,38.974341 L34.0810446,39.3028305 L33.5783293,39.6460953 L33.035137,40.0043135 C32.9412239,40.0652726 32.8456183,40.1268621 32.7483173,40.1890858 L32.1441418,40.5700683 L31.4991322,40.9664495 L30.8131457,41.3784078 L30.4547415,41.5902839 L30.3240915,41.651076 C27.0248315,42.8155208 23.532462,43.2035618 19.8551178,42.8164729 C18.8059915,42.7060386 17.5915632,42.4643886 16.2107233,42.0915426 L15.5064307,41.8941867 C15.3867356,41.859472 15.2658836,41.8238461 15.143874,41.7873092 L14.3979207,41.5571554 L13.6241552,41.305137 L12.8225465,41.0312545 C12.6866231,40.9837854 12.5495383,40.9354054 12.4112914,40.8861144 L11.5678603,40.5794368 L10.6965091,40.2508966 C10.5489555,40.194318 10.4002373,40.1368285 10.2503538,40.0784281 L9.33706464,39.7170949 C9.18251754,39.6550509 9.02680389,39.592096 8.86992305,39.5282302 L7.91462658,39.1341052 L6.93128672,38.7181197 L6.27255514,38.433364 C8.85857446,40.3796504 12.3701862,42.080637 16.5880908,43.5451872 C20.5899352,44.9347165 24.1737249,45.8157315 28.5314227,46.687271 C31.0298653,47.1869595 32.9021785,46.9002649 34.1898533,45.8818282 L34.3544987,45.7448434 L41.614,39.043 L41.6554992,38.9836546 C42.1976223,38.1408261 41.9753792,37.4342232 40.8092516,36.6105211 L40.6443668,36.4974485 L39.8170661,35.9514693 C39.7298331,35.894548 39.6441639,35.8388748 39.5600594,35.7844501 C39.2123058,35.5594161 39.112822,35.09508 39.337856,34.7473264 C39.56289,34.3995728 40.0272262,34.300089 40.3749797,34.525123 L40.9071155,34.8723482 L41.4764171,35.249373 C43.4234088,36.5473675 43.9723817,38.1638717 42.91281,39.8018055 L42.7974526,39.9713112 L42.6958626,40.0864852 L35.3570873,46.8603785 C33.6579181,48.3471515 31.2639807,48.7634885 28.2372485,48.158142 C23.8177375,47.2742398 20.1773854,46.3793199 16.0960733,44.9621977 C9.94098405,42.8250139 5.2025418,40.1865631 2.45794426,36.9191851 L2.4463787,36.9053269 C2.429929,36.8847927 2.41450688,36.8633193 2.40020741,36.8409692 L2.45794426,36.9191851 C2.42918313,36.8849457 2.40400632,36.8488891 2.38237418,36.8114715 C2.37176057,36.7932494 2.36165798,36.7738504 2.35238125,36.7539195 C2.34518056,36.7385135 2.33877644,36.723497 2.33288945,36.7083399 C2.32741078,36.6939894 2.32201844,36.6786478 2.31710426,36.6630504 C2.31093793,36.6439381 2.30583306,36.6251947 2.3014723,36.6063298 C2.30030607,36.6006204 2.29895252,36.5944449 2.29767231,36.5882355 C2.17332642,35.9851209 2.29558049,35.0081505 2.6024709,33.6134583 L2.73890849,33.0168597 L2.91355476,32.3048631 L3.43277548,30.3338896 C5.77886413,21.242796 11.4408424,16.2761736 19.6495803,16.2498274 Z M19.6543322,17.7499962 C14.0077843,17.7679977 9.72000543,20.3160201 7.01631175,25.1978727 C10.4650527,21.6939651 15.428168,19.8418573 20.5598089,20.2523885 C20.9727033,20.2854201 21.280643,20.6469145 21.2476115,21.0598089 C21.2145799,21.4727033 20.8530855,21.780643 20.4401911,21.7476115 C13.2276389,21.1706073 6.40163563,25.4759859 4.41222508,32.6223573 L4.22828818,33.3199604 L4.07193826,33.9451247 C3.92862021,34.5631543 3.83373641,35.1378331 3.79806131,35.6827536 L4.42350784,35.9689284 L5.47140339,36.441662 L6.49122449,36.8928191 L7.48294032,37.3224005 L8.44652008,37.7304065 C8.60477032,37.7966096 8.76184694,37.8619138 8.9177493,37.926319 L9.83906716,38.3019632 L10.7321719,38.6560335 L11.5970327,38.9885304 L12.4336188,39.2994546 L13.2418993,39.5888065 C13.6389581,39.7280894 14.0253907,39.859283 14.4011798,39.9823875 L15.1385616,40.2178112 C15.5001517,40.3301304 15.8510868,40.4343607 16.1913495,40.5305025 L16.85764,40.7120013 C18.0530658,41.0249775 19.1048523,41.2292103 20.0121449,41.3247148 C23.278795,41.6685727 26.3754239,41.3637705 29.3088843,40.4113813 L29.761,40.257 L30.3663803,39.898015 L30.9992251,39.5138938 L31.5926028,39.1451971 L32.1463706,38.7921032 L32.6603858,38.4547903 C32.7427343,38.3998964 32.8234205,38.3456675 32.9024414,38.2921073 L32.9806036,38.23674 L32.9793205,38.1522492 L32.9595571,37.7935717 L32.9115351,37.1276789 L32.8487501,36.3960298 L32.7794024,35.6972818 L32.7335743,35.2984479 L32.7116925,35.1300924 C31.6609912,27.4571285 28.8556638,23.7203937 24.0061211,22.348827 C23.607542,22.2360992 23.3758136,21.8216031 23.4885413,21.423024 C23.6012691,21.0244448 24.0157652,20.7927165 24.4143443,20.9054442 C29.78486,22.4243546 32.9566188,26.5485615 34.1354965,34.4896456 L34.2212615,35.1066072 L34.294624,35.7640764 L34.3430033,36.2638471 L34.388094,36.7788242 L34.4186036,37.18274 L34.6291725,37.0111744 C34.9210249,36.764658 35.1523683,36.5432482 35.3225664,36.3477387 L35.2958371,36.519764 C35.4457211,35.6279557 35.5216595,34.719686 35.5216595,33.8013373 C35.5216595,24.8739829 28.4860604,17.7221947 19.6543322,17.7499962 Z"/>
    <path fill="#239A98" d="M15,30 C15.5522847,30 16,30.4477153 16,31 C16,31.5522847 15.5522847,32 15,32 C14.4477153,32 14,31.5522847 14,31 C14,30.4477153 14.4477153,30 15,30 Z M1,21 C1.55228475,21 2,21.4477153 2,22 C2,22.5522847 1.55228475,23 1,23 C0.44771525,23 0,22.5522847 0,22 C0,21.4477153 0.44771525,21 1,21 Z M39,21 C39.5522847,21 40,21.4477153 40,22 C40,22.5522847 39.5522847,23 39,23 C38.4477153,23 38,22.5522847 38,22 C38,21.4477153 38.4477153,21 39,21 Z M5,9 C5.55228475,9 6,9.44771525 6,10 C6,10.5522847 5.55228475,11 5,11 C4.44771525,11 4,10.5522847 4,10 C4,9.44771525 4.44771525,9 5,9 Z M18,9 C18.5522847,9 19,9.44771525 19,10 C19,10.5522847 18.5522847,11 18,11 C17.4477153,11 17,10.5522847 17,10 C17,9.44771525 17.4477153,9 18,9 Z M33,6 C34.1045695,6 35,6.8954305 35,8 C35,9.1045695 34.1045695,10 33,10 C31.8954305,10 31,9.1045695 31,8 C31,6.8954305 31.8954305,6 33,6 Z M22,2.27373675e-13 C22.5522847,2.27373675e-13 23,0.44771525 23,1 C23,1.55228475 22.5522847,2 22,2 C21.4477153,2 21,1.55228475 21,1 C21,0.44771525 21.4477153,2.27373675e-13 22,2.27373675e-13 Z"/>
  </g>
</svg>
