<svg xmlns="http://www.w3.org/2000/svg" width="24" height="24" fill="none"><path fill="#111" d="M2 2v20h20V2zm1.964 18.036V3.964h16.081v16.072z"/><path fill="#111" d="M14.26 11.37c0-2.94-1.74-4.6-5.26-4.6-1.17 0-2.32.04-3.27.12v9.25c.51.05 1.29.12 2.42.12 3.77.01 6.11-1 6.11-4.89M8.73 9.13c.07-.01.21-.03.43-.03 1.03 0 1.96.51 1.96 2.32 0 2.03-1.02 2.48-2.2 2.48-.03 0-.15 0-.19-.03z"/><path fill="#111" d="m13.18 16.08.26 2.26c2.76.01 4.68-1.59 4.68-5.52V6.81h-2.99v6.04c0 1.8-.09 3.28-1.95 3.23"/></svg>