<svg xmlns="http://www.w3.org/2000/svg" width="24" height="24" fill="none"><path fill="#111" d="M9.268 3.28 8.135 4.64H19.5v15h-15v-9.517h2v7.517h11v-11H8.135L9.268 8 7.732 9.28 4.698 5.64 7.732 2z"/><path fill="#111" d="M12.91 15.52c.61 0 1.32-.13 1.73-.31l-.2-1.67c-.27.11-.74.23-1.27.23-.5 0-.98-.07-1.23-.45h1.77l.1-1.04h-2.09c-.01-.13-.02-.26 0-.38h1.99l.1-1.05h-1.86c.29-.42.73-.48 1.12-.48.49 0 .96.12 1.33.25l.25-1.69c-.49-.19-1.2-.29-1.77-.29-1.62 0-2.82.92-3.18 2.21h-.6L9 11.9h.53c0 .16 0 .27.01.38H9.1L9 13.32h.69c.45 1.47 1.61 2.2 3.22 2.2"/></svg>