<svg xmlns="http://www.w3.org/2000/svg" width="24" height="24" fill="none"><path fill="#111" d="m19.778 2.808-6.485 6.484a3 3 0 0 0-4.001 4.001l-6.484 6.485 1.414 1.414 16.97-16.97zM12 18.25a9.3 9.3 0 0 1-3.277-.582l1.604-1.603c.52.119 1.077.185 1.673.185 2.412 0 4.177-1.086 5.496-2.348.663-.634 1.204-1.304 1.652-1.896l.004-.006-.004-.006c-.448-.592-.989-1.262-1.652-1.896a11 11 0 0 0-.638-.565l1.42-1.42q.315.266.6.54c.776.74 1.39 1.507 1.865 2.134.125.165.263.352.385.517v.001l.003.002.22.297s.251.286.34.38l.016.016-.222.23q-.06.067-.134.166l-.22.297-.003.003c-.122.164-.26.351-.385.517-.474.627-1.09 1.394-1.864 2.135-1.556 1.488-3.791 2.902-6.879 2.902"/><path fill="#111" d="M12 7.75c.563 0 1.091.06 1.586.166L15.2 6.303A9.3 9.3 0 0 0 12 5.75c-3.088 0-5.323 1.414-6.879 2.902-.774.741-1.39 1.508-1.864 2.135-.125.166-.264.353-.386.518l-.222.299s-.251.286-.34.38L2.293 12l.222.23q.06.067.134.166l.221.297v.001l.387.519c.474.627 1.09 1.394 1.864 2.135q.26.248.543.49l1.42-1.42q-.304-.25-.58-.516c-.663-.634-1.204-1.304-1.652-1.896L4.848 12l.004-.006c.448-.592.989-1.262 1.652-1.896C7.823 8.836 9.588 7.75 12 7.75M12 15a3 3 0 0 1-.562-.053l3.51-3.508Q15 11.712 15 12a3 3 0 0 1-3 3"/></svg>