<svg xmlns="http://www.w3.org/2000/svg" width="24" height="24" fill="none"><path fill="#111" d="M6.909 7a4.3 4.3 0 0 1-.752-1.06c-.384-.778-.518-1.75-.023-2.608s1.404-1.228 2.27-1.283c.874-.057 1.83.186 2.694.685a5.3 5.3 0 0 1 1.201.942c.34-.359.746-.68 1.201-.942.865-.5 1.82-.742 2.694-.685.866.055 1.775.425 2.27 1.283s.361 1.83-.023 2.607A4.3 4.3 0 0 1 17.689 7H21v5h-1v10H4V12H3V7zm4.326-.561a2.7 2.7 0 0 1 .023-.804l-.012-.024c-.19-.385-.578-.816-1.148-1.145s-1.137-.45-1.566-.422c-.436.029-.609.19-.666.288-.057.099-.11.328.084.72.19.385.578.817 1.148 1.146.57.33 1.137.449 1.566.421.297-.019.472-.1.571-.18m2.106-.804c.045.263.056.534.022.804.1.08.274.161.571.18.429.028.996-.092 1.566-.421.57-.33.958-.76 1.148-1.145.194-.393.141-.622.084-.721s-.23-.26-.666-.288c-.429-.027-.996.093-1.566.422-.57.33-.958.76-1.148 1.145zM5 9v1h4V9zm6 1h2V9h-2zm2 2h-2v8h2zm2 8h3v-8h-3zm0-10h4V9h-4zm-9 2v8h3v-8z"/></svg>