<svg xmlns="http://www.w3.org/2000/svg" width="24" height="24" fill="none"><path fill="#111" d="M20.935 8.377c.717.9 1.062 2.147 1.062 3.623 0 2.515-1.04 4.388-3.012 4.882-1.822.455-3.948-.424-5.825-2.113l1.337-1.486c1.669 1.5 3.126 1.878 4.002 1.658.726-.181 1.498-.916 1.498-2.941 0-1.19-.28-1.943-.626-2.377-.324-.407-.775-.623-1.374-.623-1.29 0-3.28 1.04-5.2 3.6-2.08 2.773-4.59 4.4-6.8 4.4-1.151 0-2.2-.45-2.938-1.377-.717-.9-1.062-2.147-1.062-3.623 0-2.301 1.087-4.051 2.975-4.59 1.79-.512 3.92.188 5.831 1.832L9.5 10.758c-1.63-1.4-3.077-1.683-3.98-1.426-.804.23-1.524 1.002-1.524 2.668 0 1.19.28 1.943.626 2.377.324.407.775.623 1.374.623 1.29 0 3.28-1.04 5.2-3.6 2.08-2.773 4.59-4.4 6.8-4.4 1.15 0 2.2.45 2.938 1.377"/></svg>