<svg xmlns="http://www.w3.org/2000/svg" width="24" height="24" fill="none"><path fill="#111" d="M13 2h-2v2h2zM6 3l1.5 1.5L6 6 4.5 4.5zm13.5 1.5L18 3l-1.5 1.5L18 6zM9 17a.3.3 0 0 0-.013-.068 1.3 1.3 0 0 0-.068-.19 3.5 3.5 0 0 0-.31-.545 7 7 0 0 0-.816-.99 5.95 5.95 0 1 1 8.414 0c-.214.214-.545.59-.816.99a3.6 3.6 0 0 0-.31.545 1.3 1.3 0 0 0-.068.19C15 16.977 15 16.998 15 17v5H9zm.207-8.793a3.95 3.95 0 0 0 0 5.586c.286.286.705.76 1.06 1.285.177.263.352.558.486.864.129.296.247.665.247 1.058h2c0-.393.118-.762.248-1.058.133-.306.308-.601.486-.864a9.3 9.3 0 0 1 1.059-1.285 3.95 3.95 0 1 0-5.586-5.586M11 19v1h2v-1zM21 9h-2v2h2zM3 9h2v2H3z"/></svg>