<svg xmlns="http://www.w3.org/2000/svg" width="24" height="24" fill="none"><path fill="#111" d="M12 6a4 4 0 1 0 0 8 4 4 0 0 0 0-8m-2 4a2 2 0 1 1 4 0 2 2 0 0 1-4 0"/><path fill="#111" d="M20 10c0 4-6 11.5-8 11.5S4 14.418 4 10a8 8 0 1 1 16 0m-2 0a6 6 0 0 0-12 0c0 .695.249 1.663.784 2.822.523 1.131 1.256 2.31 2.063 3.381.81 1.075 1.654 1.99 2.37 2.612.312.27.57.46.766.581a6.4 6.4 0 0 0 .767-.611c.723-.657 1.573-1.613 2.39-2.721.814-1.106 1.554-2.306 2.08-3.43.547-1.164.78-2.067.78-2.634m-6.26 9.534-.01.003h.003zm.493-.005-.004-.002.005.002z"/></svg>