<svg xmlns="http://www.w3.org/2000/svg" width="24" height="24" fill="none"><path fill="#000" d="M12.338 6.283 6.869 11.75c-.855.856-1.364 1.915-1.369 2.998-.005 1.057.472 2.296 1.897 3.543 1.339 1.171 2.675 1.323 3.83 1.075 1.208-.26 2.243-.969 2.804-1.53l3-3 1.414 1.414-3 3c-.772.773-2.137 1.714-3.797 2.07-1.71.369-3.708.104-5.568-1.524-1.776-1.554-2.587-3.315-2.58-5.057.007-1.718.81-3.258 1.955-4.403l5.532-5.532.035-.029q.097-.081.24-.21c.5-.442 1.405-1.243 2.454-1.691.655-.28 1.429-.458 2.27-.336.85.123 1.677.539 2.448 1.288C19.85 5.2 20.368 6.602 20.27 7.904c-.095 1.254-.748 2.225-1.296 2.819l-.021.022-5.766 5.526-.005.006c-.563.523-1.292 1.097-2.138 1.311a2.67 2.67 0 0 1-1.42-.015c-.492-.143-.934-.426-1.33-.822-.83-.83-1.056-1.78-.918-2.63.129-.789.555-1.42.918-1.784l3-3 1.414 1.414-3 3a1.37 1.37 0 0 0-.357.691c-.037.225-.012.526.357.895.204.204.365.284.475.316a.7.7 0 0 0 .368-.003q.5-.125 1.264-.833l5.709-5.472c.368-.405.704-.962.752-1.592.044-.591-.15-1.44-1.233-2.491-.517-.501-.969-.69-1.343-.744-.383-.055-.78.018-1.197.196-.717.306-1.312.827-1.828 1.279q-.174.152-.336.29"/></svg>