<svg xmlns="http://www.w3.org/2000/svg" width="24" height="24" fill="none"><path fill="#111" d="M9 13a1 1 0 1 0 0-2 1 1 0 0 0 0 2m7-1a1 1 0 1 1-2 0 1 1 0 0 1 2 0m-4 3.25c-1.48 0-2.126-.436-2.47-.78a.75.75 0 0 0-1.06 1.06c.656.656 1.697 1.22 3.53 1.22s2.874-.564 3.53-1.22a.75.75 0 1 0-1.06-1.06c-.344.344-.99.78-2.47.78"/><path fill="#111" d="M14 4a2 2 0 0 1-1.25 1.855V7.25H17c.966 0 1.75.784 1.75 1.75v1.25H19a2.25 2.25 0 0 1 2.25 2.25v3A2.25 2.25 0 0 1 19 17.75h-.25V19A1.75 1.75 0 0 1 17 20.75H7A1.75 1.75 0 0 1 5.25 19v-1.25H5a2.25 2.25 0 0 1-2.25-2.25v-3A2.25 2.25 0 0 1 5 10.25h.25V9c0-.966.784-1.75 1.75-1.75h4.25V5.855A2 2 0 1 1 14 4m-1.5 0a.5.5 0 1 0-1 0 .5.5 0 0 0 1 0m6.25 7.75v4.5H19a.75.75 0 0 0 .75-.75v-3a.75.75 0 0 0-.75-.75zM17.25 9a.25.25 0 0 0-.25-.25H7a.25.25 0 0 0-.25.25v10c0 .138.112.25.25.25h10a.25.25 0 0 0 .25-.25zM5 11.75a.75.75 0 0 0-.75.75v3c0 .414.336.75.75.75h.25v-4.5z"/></svg>