<svg xmlns="http://www.w3.org/2000/svg" width="24" height="24" fill="none"><path fill="#111" d="M16 12a4 4 0 1 1-8 0 4 4 0 0 1 8 0m-2 0a2 2 0 1 0-4 0 2 2 0 0 0 4 0"/><path fill="#111" d="M15 2H9v2.465L6.928 5.846 4.553 4.658 2.21 9.342 4 10.535v2.93l-1.79 1.193 2.343 4.684 2.375-1.188L9 19.535V22h6v-2.465l2.072-1.381 2.375 1.188 2.342-4.684L20 13.465v-2.93l1.804-1.202-2.451-4.68-2.288 1.188L15 4.465zm-4 3.535V4h2v1.535l3.936 2.624 1.569-.813.692 1.321L18 9.465v5.07l1.21.807-.657 1.316-1.625-.812L13 18.465V20h-2v-1.535l-3.928-2.619-1.625.812-.658-1.316L6 14.535v-5.07l-1.21-.807.658-1.316 1.625.812z"/></svg>