<svg xmlns="http://www.w3.org/2000/svg" width="24" height="24" fill="none"><path fill="#111" d="M6.343 6.343a8 8 0 0 1 11.314 11.314l1.414 1.414c3.905-3.905 3.905-10.237 0-14.142s-10.237-3.905-14.142 0-3.905 10.237 0 14.142l1.414-1.414a8 8 0 0 1 0-11.314"/><path fill="#111" d="M8.707 8.707a4.657 4.657 0 0 1 6.586 6.586l1.414 1.414a6.657 6.657 0 1 0-9.414 0l1.414-1.414a4.657 4.657 0 0 1 0-6.586"/><path fill="#111" d="M9 12a3 3 0 1 1 6 0 3 3 0 0 1-6 0m3-1a1 1 0 1 0 0 2 1 1 0 0 0 0-2m0 5a4 4 0 0 0-4 4v2h8v-2a4 4 0 0 0-4-4m-2 4a2 2 0 1 1 4 0z"/></svg>