<svg xmlns="http://www.w3.org/2000/svg" width="24" height="24" fill="none"><path fill="#111" d="M2.5 7v10c0 1.796 1.643 3 3.333 3h11.834C19.357 20 21 18.796 21 17v-6c0-1.309-.872-2.303-2-2.746V7c0-1.796-1.643-3-3.333-3H5.833C4.143 4 2.5 5.204 2.5 7m13.167-1C16.553 6 17 6.587 17 7v1h-1V7H6v1h-.556C4.95 8 4.5 7.579 4.5 7c0-.413.447-1 1.333-1zm1.833 7.5H19v1h-1.5a.5.5 0 0 1 0-1m0-2a2.5 2.5 0 0 0 0 5H19v.5c0 .413-.447 1-1.333 1H5.833c-.886 0-1.333-.587-1.333-1V9.843c.295.102.613.157.944.157h12.223c.886 0 1.333.587 1.333 1v.5z"/></svg>