<svg xmlns="http://www.w3.org/2000/svg" width="410" height="366" viewBox="-60 1 419 366">
  <g fill="none" fill-rule="evenodd" transform="translate(3 3)">
    <circle cx="250" cy="50" r="12" fill="#239A98"/>
    <circle cx="234" cy="248" r="4" fill="#239A98"/>
    <circle cx="32" cy="180" r="16" fill="#F2F2F2"/>
    <path fill="#111" fill-rule="nonzero" d="M202,-1 C209.077135,-1 214.833428,4.65519183 214.99645,11.6931438 L215,12 L215,280 C215,287.077135 209.344808,292.833428 202.306856,292.99645 L202,293 L76,293 C68.9228654,293 63.1665717,287.344808 63.0035504,280.306856 L63,280 L63,48.2226563 C63,47.6703715 63.4477153,47.2226562 64,47.2226562 C64.5128358,47.2226562 64.9355072,47.6086964 64.9932723,48.1060351 L65,48.2226563 L65,280 C65,285.978702 69.7697636,290.843365 75.7115925,290.996293 L76,291 L202,291 C207.978702,291 212.843365,286.230236 212.996293,280.288407 L213,280 L213,12 C213,6.02129842 208.230236,1.15663482 202.288407,1.0037074 L202,1 L76,1 C70.0212984,1 65.1566348,5.76976358 65.0037074,11.7115925 L65,12 L65,35 C65,35.5522847 64.5522847,36 64,36 C63.4871642,36 63.0644928,35.6139598 63.0067277,35.1166211 L63,35 L63,12 C63,4.92286542 68.6551918,-0.833428335 75.6931438,-0.996449558 L76,-1 L202,-1 Z"/>
    <circle cx="176" cy="17" r="1" fill="#111"/>
    <path fill="#111" fill-rule="nonzero" d="M139 185.5C131.544156 185.5 125.5 191.544156 125.5 199 125.5 206.455844 131.544156 212.5 139 212.5 146.455844 212.5 152.5 206.455844 152.5 199 152.5 191.544156 146.455844 185.5 139 185.5zM139 186.5C145.903559 186.5 151.5 192.096441 151.5 199 151.5 205.903559 145.903559 211.5 139 211.5 132.096441 211.5 126.5 205.903559 126.5 199 126.5 192.096441 132.096441 186.5 139 186.5zM139 121.5C133.882722 121.5 129.276718 124.372813 126.981943 128.844484 126.012656 130.733267 125.5 132.8304 125.5 135 125.5 142.455844 131.544156 148.5 139 148.5 146.455844 148.5 152.5 142.455844 152.5 135 152.5 127.544156 146.455844 121.5 139 121.5zM139 122.5C145.903559 122.5 151.5 128.096441 151.5 135 151.5 141.903559 145.903559 147.5 139 147.5 132.096441 147.5 126.5 141.903559 126.5 135 126.5 132.990121 126.974426 131.049374 127.87163 129.301055 129.996813 125.159855 134.261381 122.5 139 122.5zM139 89.5C131.544156 89.5 125.5 95.5441559 125.5 103 125.5 110.455844 131.544156 116.5 139 116.5 146.455844 116.5 152.5 110.455844 152.5 103 152.5 95.5441559 146.455844 89.5 139 89.5zM139 90.5C145.903559 90.5 151.5 96.0964406 151.5 103 151.5 109.903559 145.903559 115.5 139 115.5 132.096441 115.5 126.5 109.903559 126.5 103 126.5 96.0964406 132.096441 90.5 139 90.5z"/>
    <path fill="#818181" fill-rule="nonzero" d="M99,185.5 C91.5441559,185.5 85.5,191.544156 85.5,199 C85.5,206.455844 91.5441559,212.5 99,212.5 C106.455844,212.5 112.5,206.455844 112.5,199 C112.5,191.544156 106.455844,185.5 99,185.5 Z M99,186.5 C105.903559,186.5 111.5,192.096441 111.5,199 C111.5,205.903559 105.903559,211.5 99,211.5 C92.0964406,211.5 86.5,205.903559 86.5,199 C86.5,192.096441 92.0964406,186.5 99,186.5 Z"/>
    <path fill="#111" fill-rule="nonzero" d="M99 153.5C91.5441559 153.5 85.5 159.544156 85.5 167 85.5 174.455844 91.5441559 180.5 99 180.5 106.455844 180.5 112.5 174.455844 112.5 167 112.5 159.544156 106.455844 153.5 99 153.5zM99 154.5C105.903559 154.5 111.5 160.096441 111.5 167 111.5 173.903559 105.903559 179.5 99 179.5 92.0964406 179.5 86.5 173.903559 86.5 167 86.5 160.096441 92.0964406 154.5 99 154.5zM99 89.5C91.5441559 89.5 85.5 95.5441559 85.5 103 85.5 110.455844 91.5441559 116.5 99 116.5 106.455844 116.5 112.5 110.455844 112.5 103 112.5 95.5441559 106.455844 89.5 99 89.5zM99 90.5C105.903559 90.5 111.5 96.0964406 111.5 103 111.5 109.903559 105.903559 115.5 99 115.5 92.0964406 115.5 86.5 109.903559 86.5 103 86.5 96.0964406 92.0964406 90.5 99 90.5zM179 153.5C171.544156 153.5 165.5 159.544156 165.5 167 165.5 174.455844 171.544156 180.5 179 180.5 186.455844 180.5 192.5 174.455844 192.5 167 192.5 159.544156 186.455844 153.5 179 153.5zM179 154.5C185.903559 154.5 191.5 160.096441 191.5 167 191.5 173.903559 185.903559 179.5 179 179.5 172.096441 179.5 166.5 173.903559 166.5 167 166.5 160.096441 172.096441 154.5 179 154.5zM179 121.5C171.544156 121.5 165.5 127.544156 165.5 135 165.5 142.455844 171.544156 148.5 179 148.5 186.455844 148.5 192.5 142.455844 192.5 135 192.5 127.544156 186.455844 121.5 179 121.5zM179 122.5C185.903559 122.5 191.5 128.096441 191.5 135 191.5 141.903559 185.903559 147.5 179 147.5 172.096441 147.5 166.5 141.903559 166.5 135 166.5 128.096441 172.096441 122.5 179 122.5zM179 89.5C181.053052 89.5 183.04184 89.9589844 184.851863 90.8309188 185.100644 90.950763 185.205168 91.2495927 185.085324 91.4983737 184.96548 91.7471547 184.66665 91.8516787 184.417869 91.7318346 182.742511 90.9247716 180.901967 90.5 179 90.5 172.096441 90.5 166.5 96.0964406 166.5 103 166.5 109.903559 172.096441 115.5 179 115.5 185.903559 115.5 191.5 109.903559 191.5 103 191.5 100.428476 190.722371 97.9746032 189.292345 95.9044053 189.135398 95.6771996 189.192355 95.3657828 189.41956 95.2088364 189.646766 95.0518899 189.958183 95.1088463 190.115129 95.336052 191.659654 97.5720055 192.5 100.223786 192.5 103 192.5 110.455844 186.455844 116.5 179 116.5 171.544156 116.5 165.5 110.455844 165.5 103 165.5 95.5441559 171.544156 89.5 179 89.5zM139 217.5C141.053052 217.5 143.04184 217.958984 144.851863 218.830919 145.100644 218.950763 145.205168 219.249593 145.085324 219.498374 144.96548 219.747155 144.66665 219.851679 144.417869 219.731835 142.742511 218.924772 140.901967 218.5 139 218.5 132.096441 218.5 126.5 224.096441 126.5 231 126.5 237.903559 132.096441 243.5 139 243.5 145.903559 243.5 151.5 237.903559 151.5 231 151.5 228.428476 150.722371 225.974603 149.292345 223.904405 149.135398 223.6772 149.192355 223.365783 149.41956 223.208836 149.646766 223.05189 149.958183 223.108846 150.115129 223.336052 151.659654 225.572005 152.5 228.223786 152.5 231 152.5 238.455844 146.455844 244.5 139 244.5 131.544156 244.5 125.5 238.455844 125.5 231 125.5 223.544156 131.544156 217.5 139 217.5zM139 153.5C141.053052 153.5 143.04184 153.958984 144.851863 154.830919 145.100644 154.950763 145.205168 155.249593 145.085324 155.498374 144.96548 155.747155 144.66665 155.851679 144.417869 155.731835 142.742511 154.924772 140.901967 154.5 139 154.5 132.096441 154.5 126.5 160.096441 126.5 167 126.5 173.903559 132.096441 179.5 139 179.5 145.903559 179.5 151.5 173.903559 151.5 167 151.5 164.428476 150.722371 161.974603 149.292345 159.904405 149.135398 159.6772 149.192355 159.365783 149.41956 159.208836 149.646766 159.05189 149.958183 159.108846 150.115129 159.336052 151.659654 161.572005 152.5 164.223786 152.5 167 152.5 174.455844 146.455844 180.5 139 180.5 131.544156 180.5 125.5 174.455844 125.5 167 125.5 159.544156 131.544156 153.5 139 153.5zM99 121.5C101.053052 121.5 103.04184 121.958984 104.851863 122.830919 105.100644 122.950763 105.205168 123.249593 105.085324 123.498374 104.96548 123.747155 104.66665 123.851679 104.417869 123.731835 102.742511 122.924772 100.901967 122.5 99 122.5 92.0964406 122.5 86.5 128.096441 86.5 135 86.5 141.903559 92.0964406 147.5 99 147.5 105.903559 147.5 111.5 141.903559 111.5 135 111.5 132.428476 110.722371 129.974603 109.292345 127.904405 109.135398 127.6772 109.192355 127.365783 109.41956 127.208836 109.646766 127.05189 109.958183 127.108846 110.115129 127.336052 111.659654 129.572005 112.5 132.223786 112.5 135 112.5 142.455844 106.455844 148.5 99 148.5 91.5441559 148.5 85.5 142.455844 85.5 135 85.5 127.544156 91.5441559 121.5 99 121.5z"/>
    <path fill="#818181" fill-rule="nonzero" d="M179,185.5 C181.053052,185.5 183.04184,185.958984 184.851863,186.830919 C185.100644,186.950763 185.205168,187.249593 185.085324,187.498374 C184.96548,187.747155 184.66665,187.851679 184.417869,187.731835 C182.742511,186.924772 180.901967,186.5 179,186.5 C172.096441,186.5 166.5,192.096441 166.5,199 C166.5,205.903559 172.096441,211.5 179,211.5 C185.903559,211.5 191.5,205.903559 191.5,199 C191.5,196.428476 190.722371,193.974603 189.292345,191.904405 C189.135398,191.6772 189.192355,191.365783 189.41956,191.208836 C189.646766,191.05189 189.958183,191.108846 190.115129,191.336052 C191.659654,193.572005 192.5,196.223786 192.5,199 C192.5,206.455844 186.455844,212.5 179,212.5 C171.544156,212.5 165.5,206.455844 165.5,199 C165.5,191.544156 171.544156,185.5 179,185.5 Z"/>
    <rect width="72" height="2" x="99" y="16" fill="#111" rx="1"/>
    <circle cx="266" cy="82" r="4" fill="#F2F2F2"/>
    <circle cx="4" cy="136" r="4" fill="#239A98"/>
    <path fill="#111" fill-rule="nonzero" d="M103 277C103.552285 277 104 277.447715 104 278 104 278.512836 103.61396 278.935507 103.116621 278.993272L103 279 79 279C78.4477153 279 78 278.552285 78 278 78 277.487164 78.3860402 277.064493 78.8833789 277.006728L79 277 103 277zM167 277C167.552285 277 168 277.447715 168 278 168 278.512836 167.61396 278.935507 167.116621 278.993272L167 279 143 279C142.447715 279 142 278.552285 142 278 142 277.487164 142.38604 277.064493 142.883379 277.006728L143 277 167 277zM135 277C135.552285 277 136 277.447715 136 278 136 278.512836 135.61396 278.935507 135.116621 278.993272L135 279 111 279C110.447715 279 110 278.552285 110 278 110 277.487164 110.38604 277.064493 110.883379 277.006728L111 277 135 277zM199 277C199.552285 277 200 277.447715 200 278 200 278.512836 199.61396 278.935507 199.116621 278.993272L199 279 175 279C174.447715 279 174 278.552285 174 278 174 277.487164 174.38604 277.064493 174.883379 277.006728L175 277 199 277z"/>
    <path fill="#818181" fill-rule="nonzero" d="M99 193.5C99.2454599 193.5 99.4496084 193.676875 99.4919443 193.910124L99.5 194 99.5 204C99.5 204.276142 99.2761424 204.5 99 204.5 98.7545401 204.5 98.5503916 204.323125 98.5080557 204.089876L98.5 204 98.5 194C98.5 193.723858 98.7238576 193.5 99 193.5zM177 193.5C177.24546 193.5 177.449608 193.676875 177.491944 193.910124L177.5 194 177.5 204C177.5 204.276142 177.276142 204.5 177 204.5 176.75454 204.5 176.550392 204.323125 176.508056 204.089876L176.5 204 176.5 194C176.5 193.723858 176.723858 193.5 177 193.5zM181 193.5C181.24546 193.5 181.449608 193.676875 181.491944 193.910124L181.5 194 181.5 204C181.5 204.276142 181.276142 204.5 181 204.5 180.75454 204.5 180.550392 204.323125 180.508056 204.089876L180.5 204 180.5 194C180.5 193.723858 180.723858 193.5 181 193.5z"/>
    <path fill="#818181" fill-rule="nonzero" d="M179,191.5 C179.24546,191.5 179.449608,191.676875 179.491944,191.910124 L179.5,192 L179.5,202 C179.5,202.276142 179.276142,202.5 179,202.5 C178.75454,202.5 178.550392,202.323125 178.508056,202.089876 L178.5,202 L178.5,192 C178.5,191.723858 178.723858,191.5 179,191.5 Z" transform="rotate(90 179 197)"/>
    <path fill="#818181" fill-rule="nonzero" d="M179,195.5 C179.24546,195.5 179.449608,195.676875 179.491944,195.910124 L179.5,196 L179.5,206 C179.5,206.276142 179.276142,206.5 179,206.5 C178.75454,206.5 178.550392,206.323125 178.508056,206.089876 L178.5,206 L178.5,196 C178.5,195.723858 178.723858,195.5 179,195.5 Z" transform="rotate(90 179 201)"/>
    <path fill="#818181" fill-rule="nonzero" d="M99,193.5 C99.2454599,193.5 99.4496084,193.676875 99.4919443,193.910124 L99.5,194 L99.5,204 C99.5,204.276142 99.2761424,204.5 99,204.5 C98.7545401,204.5 98.5503916,204.323125 98.5080557,204.089876 L98.5,204 L98.5,194 C98.5,193.723858 98.7238576,193.5 99,193.5 Z" transform="rotate(45 99 199)"/>
    <path fill="#818181" fill-rule="nonzero" d="M99,193.5 C99.2454599,193.5 99.4496084,193.676875 99.4919443,193.910124 L99.5,194 L99.5,204 C99.5,204.276142 99.2761424,204.5 99,204.5 C98.7545401,204.5 98.5503916,204.323125 98.5080557,204.089876 L98.5,204 L98.5,194 C98.5,193.723858 98.7238576,193.5 99,193.5 Z" transform="rotate(90 99 199)"/>
    <path fill="#818181" fill-rule="nonzero" d="M99,193.5 C99.2454599,193.5 99.4496084,193.676875 99.4919443,193.910124 L99.5,194 L99.5,204 C99.5,204.276142 99.2761424,204.5 99,204.5 C98.7545401,204.5 98.5503916,204.323125 98.5080557,204.089876 L98.5,204 L98.5,194 C98.5,193.723858 98.7238576,193.5 99,193.5 Z" transform="rotate(135 99 199)"/>
  </g>
</svg>
