<svg width="224" height="224" viewBox="0 0 224 224" fill="none" xmlns="http://www.w3.org/2000/svg">
<path opacity="0.24" d="M161.778 42.311L161.778 201.6L77.1556 201.6L77.1556 42.311L161.778 42.311Z" fill="#00807B"/>
<path fill-rule="evenodd" clip-rule="evenodd" d="M57.2446 148.089H67.2002V150.578H57.2446C51.0591 150.578 46.0446 145.563 46.0446 139.378V134.4H48.5335V139.378C48.5335 144.189 52.4336 148.089 57.2446 148.089ZM48.5335 99.5556V114.489H46.0446V99.5556H48.5335Z" fill="#004A47"/>
<path fill-rule="evenodd" clip-rule="evenodd" d="M44.4357 119.831L51.9023 127.298L50.1424 129.058L42.6758 121.591L44.4357 119.831Z" fill="#004A47"/>
<path fill-rule="evenodd" clip-rule="evenodd" d="M50.1424 119.831L42.6758 127.298L44.4357 129.058L51.9024 121.591L50.1424 119.831Z" fill="#004A47"/>
<path fill-rule="evenodd" clip-rule="evenodd" d="M161.778 75.911H151.822V73.4221H161.778C167.963 73.4221 172.978 78.4365 172.978 84.6221V89.5999H170.489V84.6221C170.489 79.8111 166.589 75.911 161.778 75.911ZM170.489 124.444V109.511H172.978V124.444H170.489Z" fill="#004A47"/>
<path fill-rule="evenodd" clip-rule="evenodd" d="M47.2889 52.2666C34.9177 52.2666 24.8889 62.2954 24.8889 74.6666C24.8889 87.0378 34.9177 97.0666 47.2889 97.0666C54.3617 97.0666 60.6678 93.7915 64.777 88.6654L68.6609 91.7789C63.6476 98.0328 55.9359 102.044 47.2889 102.044C32.1686 102.044 19.9111 89.7869 19.9111 74.6666C19.9111 59.5463 32.1686 47.2888 47.2889 47.2888C55.9359 47.2888 63.6476 51.3004 68.6609 57.5543L64.777 60.6678C60.6678 55.5417 54.3617 52.2666 47.2889 52.2666Z" fill="#004A47"/>
<path fill-rule="evenodd" clip-rule="evenodd" d="M171.734 171.733C184.105 171.733 194.134 161.705 194.134 149.333C194.134 136.962 184.105 126.933 171.734 126.933C164.661 126.933 158.355 130.209 154.245 135.335L150.362 132.221C155.375 125.967 163.087 121.956 171.734 121.956C186.854 121.956 199.111 134.213 199.111 149.333C199.111 164.454 186.854 176.711 171.734 176.711C163.087 176.711 155.375 172.7 150.362 166.446L154.245 163.332C158.355 168.458 164.661 171.733 171.734 171.733Z" fill="#004A47"/>
<path fill-rule="evenodd" clip-rule="evenodd" d="M154.311 29.8667L154.311 194.133L64.711 194.133L64.711 29.8667L154.311 29.8667ZM149.333 34.8445L69.6888 34.8445L69.6888 189.156L149.333 189.156L149.333 34.8445Z" fill="#00807B"/>
<path fill-rule="evenodd" clip-rule="evenodd" d="M128.178 181.689C128.178 183.063 127.063 184.178 125.689 184.178L93.3333 184.178C91.9587 184.178 90.8444 183.063 90.8444 181.689C90.8444 180.314 91.9587 179.2 93.3333 179.2L125.689 179.2C127.063 179.2 128.178 180.314 128.178 181.689Z" fill="#00807B"/>
<path fill-rule="evenodd" clip-rule="evenodd" d="M112 42.3112C112 43.6857 110.886 44.8 109.511 44.8H102.044C100.67 44.8 99.5556 43.6857 99.5556 42.3112C99.5556 40.9366 100.67 39.8223 102.044 39.8223H109.511C110.886 39.8223 112 40.9366 112 42.3112Z" fill="#00807B"/>
<path fill-rule="evenodd" clip-rule="evenodd" d="M121.956 42.3112C121.956 44.3731 120.285 46.0445 118.223 46.0445H118.222C116.16 46.0445 114.489 44.3731 114.489 42.3112C114.489 40.2494 116.16 38.5779 118.222 38.5779H118.223C120.285 38.5779 121.956 40.2494 121.956 42.3112Z" fill="#00807B"/>
<path fill-rule="evenodd" clip-rule="evenodd" d="M110.133 77.1167L141.8 132.533H78.4668L110.133 77.1167ZM110.133 87.1497L87.0444 127.555H133.222L110.133 87.1497Z" fill="#00807B"/>
<path fill-rule="evenodd" clip-rule="evenodd" d="M107.645 115.111V100.178H112.622V115.111H107.645Z" fill="#00807B"/>
<path fill-rule="evenodd" clip-rule="evenodd" d="M112.622 117.6L112.622 122.578L107.644 122.578L107.644 117.6L112.622 117.6Z" fill="#00807B"/>
<path fill-rule="evenodd" clip-rule="evenodd" d="M37.5857 74.6667C39.5249 78.0188 43.149 80.2666 47.2888 80.2666C51.4286 80.2666 55.0527 78.0188 56.9918 74.6666C55.0527 71.3145 51.4286 69.0666 47.2888 69.0666C43.149 69.0666 39.5249 71.3145 37.5857 74.6667ZM62.4711 74.6666C60.1927 68.4918 54.2549 64.0889 47.2888 64.0889C40.3226 64.0889 34.3848 68.4918 32.1064 74.6667C34.3848 80.8415 40.3226 85.2444 47.2888 85.2444C54.2549 85.2444 60.1927 80.8415 62.4711 74.6666Z" fill="#004A47"/>
<path d="M51.0223 74.6667C51.0223 76.7285 49.3509 78.4 47.289 78.4C45.2271 78.4 43.5557 76.7285 43.5557 74.6667C43.5557 72.6048 45.2271 70.9333 47.289 70.9333C49.3509 70.9333 51.0223 72.6048 51.0223 74.6667Z" fill="#004A47"/>
<path fill-rule="evenodd" clip-rule="evenodd" d="M169.245 140.933C166.324 140.933 163.956 143.301 163.956 146.222C163.956 149.143 166.324 151.511 169.245 151.511C172.166 151.511 174.533 149.143 174.533 146.222C174.533 143.301 172.166 140.933 169.245 140.933ZM159.6 146.222C159.6 140.896 163.918 136.578 169.245 136.578C174.571 136.578 178.889 140.896 178.889 146.222C178.889 148.097 178.354 149.846 177.429 151.327L184.473 158.371L181.394 161.451L174.349 154.407C172.869 155.332 171.119 155.867 169.245 155.867C163.918 155.867 159.6 151.549 159.6 146.222Z" fill="#004A47"/>
<path fill-rule="evenodd" clip-rule="evenodd" d="M168.88 94.9424L176.347 102.409L174.587 104.169L167.12 96.7023L168.88 94.9424Z" fill="#004A47"/>
<path fill-rule="evenodd" clip-rule="evenodd" d="M174.587 94.9424L167.12 102.409L168.88 104.169L176.347 96.7023L174.587 94.9424Z" fill="#004A47"/>
</svg>
