<?xml version="1.0" encoding="UTF-8"?>
<svg width="105px" height="138px" viewBox="0 0 105 138" version="1.1" xmlns="http://www.w3.org/2000/svg" xmlns:xlink="http://www.w3.org/1999/xlink">
    <!-- Generator: Sketch 60 (88103) - https://sketch.com -->
    <title>Illustration / Flow / Mobile / Internet Modem Check / Active</title>
    <desc>Created with Sketch.</desc>
    <defs>
        <polygon id="path-1" points="4.76829268e-06 0.0054603101 9.76987409 0.0054603101 9.76987409 10.3644775 4.76829268e-06 10.3644775"></polygon>
    </defs>
    <g id="Illustration-/-Flow-/-Mobile-/-Internet-Modem-Check-/-Active" stroke="none" stroke-width="1" fill="none" fill-rule="evenodd">
        <path d="M58.1888262,40.670075 C60.0691087,40.670075 61.4502229,42.7716004 61.4502229,45.2603561 L61.4502229,45.2603561 L61.4502229,132.409719 C61.4502229,134.898475 60.0691087,137 58.1888262,137 L58.1888262,137 L31.2613967,137 C29.3811142,137 28,134.898475 28,132.409719 L28,132.409719 L28,57.0393912 C28,56.6593802 28.3120036,56.3513204 28.6968796,56.3513204 C29.0817556,56.3513204 29.3937593,56.6593802 29.3937593,57.0393912 L29.3937593,57.0393912 L29.3937593,132.409719 C29.3937593,134.231226 30.3089919,135.623858 31.2613967,135.623858 L31.2613967,135.623858 L58.1888262,135.623858 C59.141231,135.623858 60.0564636,134.231226 60.0564636,132.409719 L60.0564636,132.409719 L60.0564636,45.2603561 C60.0564636,43.4388494 59.141231,42.0462168 58.1888262,42.0462168 L58.1888262,42.0462168 L31.2613967,42.0462168 C30.3089919,42.0462168 29.3937593,43.4388494 29.3937593,45.2603561 L29.3937593,45.2603561 L29.3937593,52.7395925 C29.3937593,53.1196036 29.0817556,53.4276634 28.6968796,53.4276634 C28.3120036,53.4276634 28,53.1196036 28,52.7395925 L28,52.7395925 L28,45.2603561 C28,42.7716004 29.3811142,40.670075 31.2613967,40.670075 L31.2613967,40.670075 Z M100.5,83 C102.985281,83 105,85.0147186 105,87.5 C105,89.9852814 102.985281,92 100.5,92 C98.0147186,92 96,89.9852814 96,87.5 C96,85.0147186 98.0147186,83 100.5,83 Z" id="Combined-Shape" fill="#239A98" fill-rule="nonzero"></path>
        <path d="M47.8519526,121.483125 C49.3520977,121.483125 50.5682055,122.719633 50.5682055,124.244943 C50.5682055,125.770254 49.3520977,127.006762 47.8519526,127.006762 L41.1480474,127.006762 C39.6479023,127.006762 38.4317945,125.770254 38.4317945,124.244943 C38.4317945,122.719633 39.6479023,121.483125 41.1480474,121.483125 L47.8519526,121.483125 Z M47.8519526,122.323125 L41.1480474,122.323125 C40.1041676,122.323125 39.2579359,123.183553 39.2579359,124.244943 C39.2579359,125.306334 40.1041676,126.166762 41.1480474,126.166762 L47.8519526,126.166762 C48.8958324,126.166762 49.7420641,125.306334 49.7420641,124.244943 C49.7420641,123.183553 48.8958324,122.323125 47.8519526,122.323125 Z M44.5,112.774759 C46.4329966,112.774759 48,114.313515 48,116.211666 L48,116.320714 C48,118.218865 46.4329966,119.757621 44.5,119.757621 C42.5670034,119.757621 41,118.218865 41,116.320714 L41,116.211666 C41,114.313515 42.5670034,112.774759 44.5,112.774759 Z M44.5,113.650936 C43.0597855,113.650936 41.892261,114.797414 41.892261,116.211666 L41.892261,116.320714 C41.892261,117.734966 43.0597855,118.881445 44.5,118.881445 C45.9402145,118.881445 47.107739,117.734966 47.107739,116.320714 L47.107739,116.211666 C47.107739,114.797414 45.9402145,113.650936 44.5,113.650936 Z M44.5,84.8433107 C45.3300616,84.8433107 46,85.5148167 46,86.3396383 C46,87.1644598 45.3300616,87.8359658 44.5,87.8359658 C43.6699384,87.8359658 43,87.1644598 43,86.3396383 C43,85.5148167 43.6699384,84.8433107 44.5,84.8433107 Z M44.5,85.6333716 C44.1164423,85.6333716 43.8025478,85.9480006 43.8025478,86.3396383 C43.8025478,86.7312759 44.1164423,87.0459049 44.5,87.0459049 C44.8835577,87.0459049 45.1974522,86.7312759 45.1974522,86.3396383 C45.1974522,85.9480006 44.8835577,85.6333716 44.5,85.6333716 Z M44.5,80.8531037 C45.3321029,80.8531037 46,81.5264383 46,82.3494313 C46,83.1724244 45.3321029,83.8457589 44.5,83.8457589 C43.6678971,83.8457589 43,83.1724244 43,82.3494313 C43,81.5264383 43.6678971,80.8531037 44.5,80.8531037 Z M44.5,81.6304168 C44.1184836,81.6304168 43.8025478,81.9489247 43.8025478,82.3494313 C43.8025478,82.749938 44.1184836,83.0684459 44.5,83.0684459 C44.8815164,83.0684459 45.1974522,82.749938 45.1974522,82.3494313 C45.1974522,81.9489247 44.8815164,81.6304168 44.5,81.6304168 Z M44.5,75.8653451 C45.3300616,75.8653451 46,76.5368511 46,77.3616727 C46,78.1864943 45.3300616,78.8580003 44.5,78.8580003 C43.6699384,78.8580003 43,78.1864943 43,77.3616727 C43,76.5368511 43.6699384,75.8653451 44.5,75.8653451 Z M44.5,76.6554061 C44.1164423,76.6554061 43.8025478,76.9700351 43.8025478,77.3616727 C43.8025478,77.7533103 44.1164423,78.0679393 44.5,78.0679393 C44.8835577,78.0679393 45.1974522,77.7533103 45.1974522,77.3616727 C45.1974522,76.9700351 44.8835577,76.6554061 44.5,76.6554061 Z M44.5,70.8775865 C45.3300616,70.8775865 46,71.5490925 46,72.373914 C46,73.1987356 45.3300616,73.8702416 44.5,73.8702416 C43.6699384,73.8702416 43,73.1987356 43,72.373914 C43,71.5490925 43.6699384,70.8775865 44.5,70.8775865 Z M44.5,71.6676474 C44.1164423,71.6676474 43.8025478,71.9822764 43.8025478,72.373914 C43.8025478,72.7655517 44.1164423,73.0801807 44.5,73.0801807 C44.8835577,73.0801807 45.1974522,72.7655517 45.1974522,72.373914 C45.1974522,71.9822764 44.8835577,71.6676474 44.5,71.6676474 Z M44.5,65.8898278 C45.3300616,65.8898278 46,66.5613338 46,67.3861554 C46,68.210977 45.3300616,68.882483 44.5,68.882483 C43.6699384,68.882483 43,68.210977 43,67.3861554 C43,66.5613338 43.6699384,65.8898278 44.5,65.8898278 Z M44.5,66.6798888 C44.1164423,66.6798888 43.8025478,66.9945178 43.8025478,67.3861554 C43.8025478,67.777793 44.1164423,68.092422 44.5,68.092422 C44.8835577,68.092422 45.1974522,67.777793 45.1974522,67.3861554 C45.1974522,66.9945178 44.8835577,66.6798888 44.5,66.6798888 Z M85,55.9338967 C85.5522847,55.9338967 86,56.3805158 86,56.9314484 C86,57.482381 85.5522847,57.9290001 85,57.9290001 C84.4477153,57.9290001 84,57.482381 84,56.9314484 C84,56.3805158 84.4477153,55.9338967 85,55.9338967 Z" id="Combined-Shape" fill="#D8D8D8"></path>
        <g id="smilie" transform="translate(40.000000, 50.000000)">
            <mask id="mask-2" fill="white">
                <use xlink:href="#path-1"></use>
            </mask>
            <g id="Clip-2"></g>
            <path d="M8.27928672,7.60059999 C8.20850141,8.21940985 7.75858916,8.70646446 7.17495013,8.78126565 C7.17495013,8.78126565 6.24847087,8.93354763 4.88490605,8.93354763 C3.52124587,8.93354763 2.59486196,8.78126565 2.59486196,8.78126565 C2.01127062,8.70646446 1.56142989,8.21940985 1.49050154,7.60059999 C1.49050154,7.60044831 1.3495508,6.49701065 1.3495508,5.18486779 C1.3495508,3.87272494 1.49050154,2.76931255 1.49050154,2.7691356 C1.56142989,2.15047741 2.01127062,1.6634228 2.59486196,1.58877329 C2.59486196,1.58877329 3.52124587,1.43633963 4.88490605,1.43633963 C6.24847087,1.43633963 7.17495013,1.58877329 7.17495013,1.58877329 C7.75858916,1.6634228 8.20850141,2.15047741 8.27928672,2.7691356 C8.27928672,2.76931255 8.42047587,3.87272494 8.42047587,5.18486779 C8.42047587,6.49701065 8.27928672,7.60044831 8.27928672,7.60059999 M9.57499873,1.84702573 C9.47710568,0.992234407 8.85555873,0.319099511 8.04897818,0.21596032 C8.04897818,0.21596032 6.76902538,0.0054603101 4.88490605,0.0054603101 C3.00076288,0.0054603101 1.72071471,0.21596032 1.72071471,0.21596032 C0.914301049,0.319099511 0.292706415,0.992234407 0.194861049,1.84702573 C0.194789524,1.8471774 4.76829268e-06,3.37201956 4.76829268e-06,5.18486779 C4.76829268e-06,6.9978677 0.194789524,8.52263402 0.194861049,8.52278569 C0.292706415,9.37765285 0.914301049,10.0506614 1.72071471,10.1539522 C1.72071471,10.1539522 3.00076288,10.3644775 4.88490605,10.3644775 C6.76902538,10.3644775 8.04897818,10.1539522 8.04897818,10.1539522 C8.85555873,10.0506614 9.47710568,9.37765285 9.57499873,8.52278569 C9.57499873,8.52263402 9.76987885,6.9978677 9.76987885,5.18486779 C9.76987885,3.37201956 9.57499873,1.8471774 9.57499873,1.84702573" id="Fill-1" fill="#C5C6C6" mask="url(#mask-2)"></path>
            <path d="M5.43903313,4.08009366 C5.64331256,4.05760813 5.84313523,4.04782259 6.08167454,4.05121397 C6.31260309,4.05504693 6.55614769,4.0722511 6.77192326,4.10295013 C6.77192326,4.10295013 6.8425,4.11596808 6.8425,4.05769644 L6.8425,3.68162448 C6.8425,3.64714548 6.78591062,3.63633547 6.78591062,3.63633547 C6.54945113,3.58836161 6.3150943,3.56154853 6.08336583,3.5576979 C5.86505333,3.55473045 5.64751791,3.57144005 5.43030246,3.60803866 C5.43030246,3.60803866 5.37625,3.62100361 5.37625,3.65788484 L5.37625,4.02985889 C5.37625,4.09890521 5.43903313,4.08009366 5.43903313,4.08009366" id="Fill-4" fill="#C5C6C6" mask="url(#mask-2)"></path>
            <path d="M3.665625,4.37463441 C3.665625,4.37463441 4.39875,4.37386033 4.39875,3.82762177 C4.39875,3.28177026 3.665625,3.28097581 3.665625,3.28097581 C3.665625,3.28097581 2.9325,3.28177026 2.9325,3.82762177 C2.9325,4.37386033 3.665625,4.37463441 3.665625,4.37463441" id="Fill-6" fill="#C5C6C6" mask="url(#mask-2)"></path>
            <path d="M7.22953062,6.03127629 C6.95740431,6.17391576 6.16270329,6.53728245 5.13189952,6.53728245 C4.10104671,6.53728245 3.30649282,6.17391576 3.03426842,6.03127629 C3.03426842,6.03127629 2.9325,5.9711616 2.9325,6.0828645 L2.9325,6.30600449 C2.9325,6.37298943 3.02210526,6.44365485 3.02210526,6.44365485 C3.29070032,6.61853952 4.13165081,7.10839242 5.13189952,7.10878092 C6.13205015,7.10839242 6.97260827,6.61853952 7.24169379,6.44365485 C7.24169379,6.44365485 7.33125,6.37298943 7.33125,6.30600449 L7.33125,6.0828645 C7.33125,5.9711616 7.22953062,6.03127629 7.22953062,6.03127629" id="Fill-8" fill="#C5C6C6" mask="url(#mask-2)"></path>
        </g>
        <ellipse id="Oval-Copy-3" fill="#239A98" cx="23.5" cy="1.48163797" rx="1.5" ry="1.49632759"></ellipse>
        <circle id="Oval-Copy-2" fill="#F2F2F2" cx="7" cy="14" r="7"></circle>
        <circle id="Oval-Copy-4" fill="#F2F2F2" cx="91" cy="14" r="5"></circle>
    </g>
</svg>