<svg xmlns="http://www.w3.org/2000/svg" width="284" height="118" viewBox="0 0 284 118">
  <g fill="none" fill-rule="evenodd" transform="translate(2 1)">
    <circle cx="270" cy="105" r="10" fill="#F2F2F2" fill-rule="nonzero"/>
    <circle cx="262" cy="26" r="4" fill="#D9415C" fill-rule="nonzero" filter="url(#no-results-(mobile)-a)"/>
    <circle cx="4" cy="90" r="4" fill="#D9415C"/>
    <circle cx="21.5" cy="9.5" r="8.5" fill="#F2F2F2"/>
    <path fill="#F2F2F2" fill-rule="nonzero" d="M185.5,48 L185.5,50 L55.7407407,50 C52.6798023,50 50.1138001,52.9663921 50.0036814,56.7467911 L50,57 L50,100 C50,103.815514 52.49946,106.864852 55.5374329,106.995629 L55.7407407,107 L224.259259,107 C227.320198,107 229.8862,104.033608 229.996319,100.253209 L230,100 L230,57 C230,53.1844858 227.50054,50.1351478 224.462567,50.004371 L224.259259,50 L208.25,50 L208.25,48 L224.259259,48 C228.497432,48 231.875193,51.9173181 231.996619,56.7316343 L232,57 L232,100 C232,104.846503 228.699297,108.851939 224.493813,108.995989 L224.259259,109 L55.7407407,109 C51.5025681,109 48.1248072,105.082682 48.0033806,100.268366 L48,100 L48,57 C48,52.1534974 51.3007032,48.1480611 55.5061871,48.004011 L55.7407407,48 L185.5,48 Z"/>
    <path fill="#D9415C" fill-rule="nonzero" d="M213,8 C209.134007,8 206,11.1340068 206,15 C206,18.8659932 209.134007,22 213,22 C216.865993,22 220,18.8659932 220,15 C220,11.1340068 216.865993,8 213,8 Z M213,10 C215.761424,10 218,12.2385763 218,15 C218,17.7614237 215.761424,20 213,20 C210.238576,20 208,17.7614237 208,15 C208,12.2385763 210.238576,10 213,10 Z"/>
    <path fill="#D9415C" fill-rule="nonzero" d="M216.292893 18.2928932C216.653377 17.9324093 217.220608 17.9046797 217.612899 18.2097046L217.707107 18.2928932 223.707107 24.2928932C224.097631 24.6834175 224.097631 25.3165825 223.707107 25.7071068 223.346623 26.0675907 222.779392 26.0953203 222.387101 25.7902954L222.292893 25.7071068 216.292893 19.7071068C215.902369 19.3165825 215.902369 18.6834175 216.292893 18.2928932zM139.632433 64.50214L124.132743 91.50214C123.750036 92.1688036 124.231297 93 125 93L156 93C156.768711 93 157.249971 92.1687887 156.867249 91.502125L141.366939 64.502125C140.982585 63.8326183 140.016776 63.8326267 139.632433 64.50214zM140.499 67.007L154.273 91 126.726 91 140.499 67.007z"/>
    <polygon fill="#D9415C" fill-rule="nonzero" points="139 74 141 74 141 84 139 84"/>
    <polygon fill="#D9415C" points="139 88 141 88 141 86 139 86"/>
    <path fill="#D9415C" fill-rule="nonzero" d="M223,0 L57,0 C52.0294373,0 48,4.02943725 48,9 L48,25 C48,29.9705627 52.0294373,34 57,34 L223,34 C227.970563,34 232,29.9705627 232,25 L232,9 C232,4.02943725 227.970563,0 223,0 Z M57,2 L223,2 C226.865993,2 230,5.13400675 230,9 L230,25 C230,28.8659932 226.865993,32 223,32 L57,32 C53.1340068,32 50,28.8659932 50,25 L50,9 C50,5.13400675 53.1340068,2 57,2 Z"/>
    <polygon fill="#D9415C" fill-rule="nonzero" points="180 16 180 18 64 18 64 16"/>
    <polygon fill="#D9415C" fill-rule="nonzero" points="180 16.5 180 18.5 64 18.5 64 16.5"/>
  </g>
</svg>
