<?xml version="1.0" encoding="UTF-8"?>
<svg width="161px" height="160px" viewBox="0 0 161 160" version="1.1" xmlns="http://www.w3.org/2000/svg" xmlns:xlink="http://www.w3.org/1999/xlink">
    <title>person icon</title>
    <g id="Login-2.1" stroke="none" stroke-width="1" fill="none" fill-rule="evenodd">
        <g id="person-icon" fill-rule="nonzero">
            <g id="person" transform="translate(0.500000, 0.513072)">
                <path d="M80,31.8431373 C59.8831144,31.8431373 43.5620915,47.9535663 43.5620915,67.8431373 C43.5620915,87.7327082 59.8831144,103.843137 80,103.843137 C100.116886,103.843137 116.437908,87.7327082 116.437908,67.8431373 C116.437908,47.9535663 100.116886,31.8431373 80,31.8431373 Z M80,36.8431373 C97.369893,36.8431373 111.437908,50.72963 111.437908,67.8431373 C111.437908,84.9566445 97.369893,98.8431373 80,98.8431373 C62.630107,98.8431373 48.5620915,84.9566445 48.5620915,67.8431373 C48.5620915,50.72963 62.630107,36.8431373 80,36.8431373 Z" id="Oval" fill="#009793" transform="translate(80.000000, 67.843137) rotate(-90.000000) translate(-80.000000, -67.843137) "></path>
                <path d="M79.5,101.924405 C49.1748788,101.924405 32.4811316,117.429405 25.0882861,156.016513 L24.5191887,158.986928 L134.609481,158.986928 L133.992479,155.983804 C126.286488,118.476543 108.769015,101.924405 79.5,101.924405 Z M80.2985492,106.928835 C105.49108,107.209743 120.664429,120.865669 128.193312,152.890868 L128.446,153.985928 L30.596,153.985928 L30.6467442,153.747569 C37.8577331,119.807199 52.5371196,106.924405 79.5,106.924405 L80.2985492,106.928835 Z" id="Path" fill="#009793"></path>
                <polygon id="Path-2" fill="#AAAAAA" points="79.5 2.84217094e-13 79.5 5 5 4.9999281 5 153.986928 29.1256001 153.986928 29.1256001 158.986928 0 158.986928 0 2.84217094e-13"></polygon>
                <path d="M53.3161021,2.84217094e-13 L53.3161021,5 L31,4.9999281 L31,153.986928 L159.5,153.986928 L159.5,158.986928 L26,158.986928 L26,2.84217094e-13 L53.3161021,2.84217094e-13 Z M107.5,2.84217094e-13 L107.5,5 L73.5,5 L73.5,2.84217094e-13 L107.5,2.84217094e-13 Z" id="Shape" fill="#AAAAAA" transform="translate(92.750000, 79.493464) scale(-1, 1) translate(-92.750000, -79.493464) "></path>
                <polygon id="Path-3" fill="#AAAAAA" points="157.5 108.698665 157.5 111.698665 122.844006 111.698665 122.844006 108.698665"></polygon>
                <polygon id="Path-3-Copy" fill="#AAAAAA" points="37.1559939 108.385621 37.1559939 111.385621 2.5 111.385621 2.5 108.385621"></polygon>
            </g>
        </g>
    </g>
</svg>