<svg width="518" height="279" viewBox="0 0 518 279" fill="none" xmlns="http://www.w3.org/2000/svg">
<rect x="34.2985" y="153.733" width="40.699" height="117.361" rx="6" transform="rotate(13.177 34.2985 153.733)" fill="#E5CFC7"/>
<path d="M26.9353 159.788L29.0173 150.895C29.5588 148.582 31.1799 147.049 32.5319 147.365L64.6711 154.89C66.0231 155.206 66.7949 157.3 66.2534 159.613L41.9929 263.236C41.4514 265.549 39.8303 267.082 38.4783 266.766L6.33915 259.241C4.98717 258.925 4.21532 256.831 4.75683 254.518L25.7383 164.901C25.8046 164.617 25.629 164.334 25.346 164.268C25.063 164.201 24.7798 164.378 24.7134 164.661L3.73199 254.278C3.07362 257.09 4.06987 259.793 6.09885 260.268L38.238 267.792C40.267 268.267 42.3594 266.288 43.0178 263.476L67.2783 159.853C67.9366 157.041 66.9404 154.339 64.9114 153.864L32.7722 146.339C30.7432 145.864 28.6508 147.843 27.9925 150.655L25.9104 159.548C25.8441 159.832 26.0197 160.115 26.3027 160.182C26.5857 160.248 26.8689 160.072 26.9353 159.788Z" fill="#291D18"/>
<path fill-rule="evenodd" clip-rule="evenodd" d="M29.0313 253.186C30.7293 253.584 32.4286 252.527 32.8267 250.827C33.2248 249.126 32.1711 247.425 30.4731 247.028L22.2743 245.108C20.5763 244.711 18.877 245.767 18.4788 247.468C18.0807 249.168 19.1345 250.869 20.8325 251.267L29.0313 253.186ZM30.3129 247.712C31.6336 248.021 32.4531 249.344 32.1435 250.667C31.8338 251.989 30.5121 252.811 29.1915 252.502L20.9927 250.582C19.672 250.273 18.8524 248.95 19.1621 247.627C19.4717 246.305 20.7934 245.483 22.1141 245.792L30.3129 247.712Z" fill="#291D18"/>
<path fill-rule="evenodd" clip-rule="evenodd" d="M48.581 170.912C48.3252 171.626 47.6554 172.078 46.9411 172.005C46.9411 172.005 45.798 171.927 44.1778 171.548C42.5574 171.169 41.499 170.73 41.499 170.73C40.8263 170.479 40.4269 169.777 40.5144 169.024C40.5144 169.023 40.6532 167.676 41.0174 166.121C41.3816 164.565 41.8553 163.296 41.8553 163.296C42.1113 162.582 42.781 162.13 43.4952 162.204C43.4952 162.204 44.6382 162.281 46.2586 162.66C47.8788 163.04 48.9374 163.478 48.9374 163.478C49.6101 163.729 50.0096 164.432 49.922 165.185C49.9219 165.185 49.7834 166.532 49.4193 168.088C49.0551 169.643 48.5811 170.912 48.581 170.912ZM51.7174 164.452C51.8383 163.412 51.2866 162.441 50.3569 162.094C50.3569 162.094 48.8944 161.489 46.6556 160.964C44.4168 160.44 42.8374 160.334 42.8374 160.334C41.8506 160.232 40.9252 160.857 40.5717 161.843C40.5715 161.843 39.9169 163.596 39.4137 165.745C38.9106 167.895 38.7188 169.756 38.7189 169.757C38.5979 170.797 39.1497 171.768 40.0792 172.115C40.0792 172.115 41.5418 172.72 43.7806 173.245C46.0193 173.769 47.5986 173.875 47.5986 173.875C48.5857 173.977 49.511 173.352 49.8646 172.366C49.8647 172.366 50.5194 170.613 51.0226 168.463C51.5257 166.314 51.7174 164.452 51.7174 164.452Z" fill="#291D18"/>
<path fill-rule="evenodd" clip-rule="evenodd" d="M46.1081 166.269C46.3571 166.3 46.5972 166.344 46.8797 166.414C47.1531 166.483 47.4377 166.571 47.6855 166.667C47.6855 166.667 47.7658 166.702 47.782 166.633L47.8863 166.188C47.8959 166.147 47.8317 166.118 47.8317 166.118C47.564 165.995 47.293 165.898 47.0187 165.829C46.7601 165.765 46.497 165.724 46.2288 165.707C46.2288 165.707 46.1609 165.708 46.1507 165.751L46.0475 166.192C46.0283 166.274 46.1081 166.269 46.1081 166.269Z" fill="#291D18"/>
<path fill-rule="evenodd" clip-rule="evenodd" d="M43.9942 165.805C43.9942 165.805 44.8655 166.008 45.0171 165.36C45.1686 164.713 44.2977 164.508 44.2977 164.508C44.2977 164.508 43.4264 164.305 43.2749 164.952C43.1233 165.6 43.9942 165.805 43.9942 165.805Z" fill="#291D18"/>
<path fill-rule="evenodd" clip-rule="evenodd" d="M47.7692 168.759C47.4063 168.853 46.3611 169.063 45.1363 168.776C43.9114 168.489 43.0682 167.837 42.7843 167.592C42.7843 167.592 42.68 167.493 42.649 167.625L42.5871 167.89C42.5685 167.969 42.6554 168.078 42.6554 168.078C42.926 168.36 43.7893 169.175 44.9777 169.453C46.1662 169.731 47.3009 169.384 47.6692 169.252C47.6692 169.252 47.7952 169.193 47.8138 169.113L47.8758 168.849C47.9068 168.717 47.7692 168.759 47.7692 168.759Z" fill="#291D18"/>
<path fill-rule="evenodd" clip-rule="evenodd" d="M31.6534 240.447C32.14 238.369 30.8521 236.29 28.7767 235.804C26.7013 235.318 24.6244 236.609 24.1378 238.688C23.6512 240.766 24.9391 242.845 27.0145 243.331C29.0898 243.817 31.1667 242.526 31.6534 240.447ZM24.8211 238.848C25.2192 237.147 26.9185 236.091 28.6165 236.488C30.3145 236.886 31.3683 238.587 30.9701 240.287C30.572 241.988 28.8727 243.044 27.1747 242.647C25.4767 242.249 24.4229 240.548 24.8211 238.848Z" fill="#291D18"/>
<path fill-rule="evenodd" clip-rule="evenodd" d="M43.0605 182.49C43.2817 181.545 42.6963 180.6 41.7529 180.379C40.8096 180.159 39.8656 180.745 39.6444 181.69C39.4232 182.635 40.0086 183.58 40.9519 183.801C41.8953 184.022 42.8393 183.435 43.0605 182.49ZM40.3276 181.85C40.4603 181.283 41.0267 180.931 41.5927 181.064C42.1587 181.196 42.51 181.763 42.3773 182.33C42.2446 182.897 41.6781 183.249 41.1121 183.116C40.5461 182.984 40.1949 182.417 40.3276 181.85Z" fill="#291D18"/>
<path fill-rule="evenodd" clip-rule="evenodd" d="M41.7789 187.964C42.0001 187.019 41.4147 186.074 40.4713 185.854C39.528 185.633 38.5839 186.219 38.3627 187.164C38.1416 188.109 38.727 189.054 39.6703 189.275C40.6137 189.496 41.5577 188.909 41.7789 187.964ZM39.046 187.324C39.1787 186.757 39.7451 186.405 40.3111 186.538C40.8771 186.67 41.2284 187.237 41.0957 187.804C40.963 188.371 40.3965 188.723 39.8305 188.591C39.2645 188.458 38.9133 187.891 39.046 187.324Z" fill="#291D18"/>
<path fill-rule="evenodd" clip-rule="evenodd" d="M40.4973 193.438C40.7185 192.493 40.1331 191.548 39.1898 191.328C38.2464 191.107 37.3024 191.694 37.0812 192.638C36.86 193.583 37.4454 194.528 38.3888 194.749C39.3321 194.97 40.2762 194.383 40.4973 193.438ZM37.7644 192.798C37.8971 192.231 38.4636 191.879 39.0296 192.012C39.5956 192.144 39.9468 192.711 39.8141 193.278C39.6814 193.845 39.115 194.197 38.549 194.065C37.983 193.932 37.6317 193.365 37.7644 192.798Z" fill="#291D18"/>
<path fill-rule="evenodd" clip-rule="evenodd" d="M39.0555 199.596C39.2767 198.652 38.6913 197.707 37.7479 197.486C36.8046 197.265 35.8605 197.852 35.6394 198.797C35.4182 199.741 36.0036 200.686 36.9469 200.907C37.8903 201.128 38.8343 200.541 39.0555 199.596ZM36.3226 198.957C36.4553 198.39 37.0217 198.038 37.5877 198.17C38.1537 198.303 38.505 198.87 38.3723 199.436C38.2396 200.003 37.6731 200.355 37.1071 200.223C36.5411 200.09 36.1899 199.523 36.3226 198.957Z" fill="#291D18"/>
<path fill-rule="evenodd" clip-rule="evenodd" d="M37.7739 205.07C37.9951 204.126 37.4097 203.181 36.4663 202.96C35.523 202.739 34.5789 203.326 34.3577 204.271C34.1365 205.215 34.722 206.16 35.6653 206.381C36.6087 206.602 37.5527 206.015 37.7739 205.07ZM35.041 204.431C35.1737 203.864 35.7401 203.512 36.3061 203.644C36.8721 203.777 37.2234 204.344 37.0907 204.911C36.958 205.477 36.3915 205.829 35.8255 205.697C35.2595 205.564 34.9083 204.998 35.041 204.431Z" fill="#291D18"/>
<ellipse cx="230.226" cy="212.172" rx="4.31336" ry="4.31902" fill="#291D18"/>
<path fill-rule="evenodd" clip-rule="evenodd" d="M160.669 237.006H299.783C301.569 237.006 303.018 238.457 303.018 240.246C303.018 240.483 302.992 240.72 302.94 240.952L298.874 259.17C298.103 262.624 295.042 265.08 291.507 265.08H168.944C165.41 265.08 162.349 262.624 161.578 259.17L157.512 240.952C157.122 239.206 158.22 237.475 159.963 237.084C160.195 237.032 160.431 237.006 160.669 237.006ZM299.783 239.166H160.669C160.59 239.166 160.511 239.175 160.434 239.192C159.852 239.322 159.487 239.899 159.616 240.481L163.683 258.699C164.233 261.166 166.42 262.92 168.944 262.92H291.507C294.032 262.92 296.218 261.166 296.769 258.699L300.835 240.481C300.852 240.404 300.861 240.325 300.861 240.246C300.861 239.649 300.378 239.166 299.783 239.166Z" fill="#291D18"/>
<path d="M215.129 249.963C215.725 249.963 216.207 250.447 216.207 251.043C216.207 251.597 215.791 252.053 215.255 252.116L215.129 252.123H171.995C171.4 252.123 170.917 251.639 170.917 251.043C170.917 250.489 171.333 250.033 171.87 249.971L171.995 249.963H215.129Z" fill="#291D18"/>
<ellipse cx="285.221" cy="251.043" rx="3.23502" ry="3.23927" fill="#291D18"/>
<path fill-rule="evenodd" clip-rule="evenodd" d="M341.295 104.196C341.295 97.0403 335.501 91.2393 328.355 91.2393H132.097C124.95 91.2393 119.157 97.0403 119.157 104.196V216.491C119.157 223.647 124.95 229.448 132.097 229.448H328.355C335.501 229.448 341.295 223.647 341.295 216.491V104.196ZM132.097 93.3988H328.355L328.657 93.4029C334.473 93.563 339.138 98.3341 339.138 104.196V216.491L339.134 216.793C338.974 222.617 334.209 227.288 328.355 227.288H132.097L131.795 227.284C125.979 227.124 121.313 222.353 121.313 216.491V104.196L121.318 103.894C121.477 98.0705 126.242 93.3988 132.097 93.3988Z" fill="#291D18"/>
<ellipse cx="443.574" cy="127.463" rx="28.13" ry="28.1722" transform="rotate(13.9866 443.574 127.463)" fill="#E5CFC7"/>
<path fill-rule="evenodd" clip-rule="evenodd" d="M393.22 66.2224L393.286 66.0354C394.709 60.3224 400.405 56.8297 406.003 58.2241L499.678 81.5566C505.277 82.951 508.67 88.7077 507.247 94.4207L504.582 116.792C503.183 122.374 497.486 125.867 491.888 124.472C491.323 124.331 490.75 124.676 490.609 125.242C490.468 125.809 490.812 126.382 491.377 126.522C498.113 128.2 504.95 124.009 506.653 117.171L509.318 94.7997C510.997 88.0926 506.925 81.1842 500.189 79.5063L406.514 56.1738C399.81 54.5041 393.007 58.6472 391.263 65.427L381.84 85.8788L381.774 86.0659C380.071 92.904 384.142 99.8124 390.878 101.49L395.915 102.745C396.48 102.885 397.052 102.541 397.193 101.974C397.335 101.408 396.991 100.835 396.425 100.694L391.389 99.4399C385.933 98.081 382.572 92.5785 383.722 87.0113L383.798 86.6704L393.22 66.2224ZM416.887 80.8952C417.028 80.329 416.684 79.7559 416.119 79.6151C410.926 78.3217 405.662 81.5215 404.359 86.7566L386.293 136.033L386.215 136.367C385.088 141.595 388.212 146.698 393.297 147.965L399.578 149.529L399.719 149.554C400.235 149.611 400.727 149.278 400.857 148.759C400.998 148.193 400.654 147.62 400.088 147.479L393.807 145.914L393.513 145.835C389.631 144.701 387.309 140.658 388.307 136.651L406.372 87.3749L406.455 87.0696C407.63 83.0398 411.649 80.6792 415.608 81.6654C416.174 81.8062 416.746 81.4614 416.887 80.8952ZM424.658 81.7419L421.578 80.9749L421.437 80.9496C420.92 80.8931 420.428 81.2261 420.299 81.745C420.158 82.3112 420.502 82.8843 421.067 83.0251L480.064 97.72L480.358 97.7995C484.24 98.933 486.562 102.977 485.564 106.983L478.363 159.199L478.284 159.488C477.16 163.314 473.141 165.675 469.181 164.689L408.463 149.565L408.322 149.54C407.806 149.483 407.314 149.816 407.184 150.335C407.043 150.901 407.387 151.474 407.953 151.615L468.671 166.739L468.995 166.814C474.081 167.898 479.154 164.723 480.431 159.597L487.633 107.382L487.707 107.062C488.783 102.039 485.659 96.9361 480.575 95.6697L472.036 93.5429C472.145 93.3777 472.209 93.1799 472.211 92.967L472.228 90.3279L472.224 89.9958C472.111 86.7995 470.076 84.0344 467.128 83.0513C467.065 83.0217 466.999 82.9977 466.929 82.9804L461.494 81.6265L461.18 81.5555C457.931 80.8957 454.603 82.5116 453.019 85.5433L451.796 87.8822L451.739 88.0137C451.684 88.164 451.666 88.3207 451.681 88.4728L443.785 86.506C443.894 86.3408 443.958 86.143 443.959 85.9302L443.977 83.2911L443.972 82.9615C443.854 79.5704 441.571 76.6642 438.329 75.8567C437.764 75.7159 437.191 76.0607 437.05 76.6268C436.909 77.193 437.253 77.7661 437.819 77.9069C440.211 78.5028 441.884 80.7128 441.867 83.2786L441.85 85.9177L441.856 86.0257L426.588 82.2227C426.608 82.193 426.626 82.1621 426.643 82.1299L427.865 79.791L428.003 79.5429C429.24 77.433 431.657 76.3721 433.96 76.9459C434.526 77.0867 435.098 76.7419 435.239 76.1757C435.38 75.6096 435.036 75.0364 434.471 74.8956C431.124 74.062 427.631 75.6829 425.996 78.8124L424.773 81.1513L424.716 81.2828C424.661 81.4331 424.643 81.5898 424.658 81.7419ZM453.611 88.9536L470.107 93.0625L470.101 92.9545L470.118 90.3154C470.135 87.8447 468.584 85.7038 466.333 85.0166L466.07 84.9438L460.983 83.6768C458.68 83.103 456.263 84.1639 455.026 86.2738L454.888 86.5219L453.666 88.8608C453.649 88.893 453.631 88.9239 453.611 88.9536ZM445.538 98.9189C457.787 101.97 465.239 114.387 462.184 126.654C459.128 138.921 446.722 146.392 434.473 143.342C422.225 140.291 414.772 127.873 417.828 115.606C420.883 103.339 433.29 95.868 445.538 98.9189ZM445.198 100.286C433.703 97.4226 422.06 104.434 419.192 115.946C416.325 127.458 423.319 139.112 434.814 141.975C446.309 144.838 457.952 137.826 460.819 126.314C463.686 114.802 456.692 103.149 445.198 100.286ZM462.449 104.481C458.624 99.3026 453.138 95.586 446.764 93.9983C431.802 90.2715 416.647 99.3978 412.914 114.382C409.182 129.367 418.286 144.535 433.248 148.262C448.21 151.989 463.365 142.863 467.097 127.878L465.732 127.538C462.188 141.768 447.797 150.434 433.588 146.895C419.38 143.356 410.735 128.952 414.279 114.722C417.824 100.493 432.215 91.8261 446.423 95.3651C452.478 96.8732 457.685 100.401 461.318 105.319L462.449 104.481ZM443.392 104.917C445.804 105.518 447.271 107.963 446.67 110.378C446.068 112.794 443.625 114.265 441.213 113.665C438.801 113.064 437.333 110.619 437.935 108.203C438.537 105.787 440.98 104.316 443.392 104.917ZM443.051 106.284C441.393 105.871 439.714 106.882 439.3 108.543C438.886 110.204 439.895 111.885 441.553 112.298C443.212 112.711 444.891 111.699 445.305 110.039C445.719 108.378 444.71 106.697 443.051 106.284ZM440.542 134.982C441.143 132.566 439.676 130.121 437.264 129.52C434.852 128.919 432.409 130.39 431.807 132.806C431.205 135.222 432.673 137.667 435.085 138.268C437.497 138.869 439.94 137.397 440.542 134.982ZM433.172 133.146C433.585 131.485 435.265 130.474 436.923 130.887C438.582 131.3 439.59 132.981 439.177 134.642C438.763 136.303 437.084 137.314 435.425 136.901C433.767 136.488 432.758 134.807 433.172 133.146ZM447.154 123.564C447.756 121.148 450.199 119.677 452.611 120.278C455.023 120.879 456.491 123.324 455.889 125.74C455.287 128.155 452.844 129.627 450.432 129.026C448.02 128.425 446.553 125.98 447.154 123.564ZM448.519 123.904C448.105 125.565 449.114 127.246 450.773 127.659C452.431 128.072 454.11 127.06 454.524 125.4C454.938 123.739 453.929 122.058 452.271 121.645C450.612 121.232 448.933 122.243 448.519 123.904ZM428.045 114.159C425.633 113.558 423.189 115.029 422.588 117.445C421.986 119.861 423.454 122.306 425.866 122.907C428.278 123.508 430.721 122.036 431.322 119.621C431.924 117.205 430.457 114.76 428.045 114.159ZM426.206 121.54C424.548 121.127 423.539 119.446 423.953 117.785C424.366 116.124 426.046 115.113 427.704 115.526C429.362 115.939 430.371 117.62 429.958 119.281C429.544 120.941 427.864 121.953 426.206 121.54ZM454.127 112.611C455.197 114.638 454.508 117.171 452.518 118.366C450.459 119.602 447.786 118.937 446.548 116.879C445.308 114.819 445.974 112.146 448.034 110.909C450.02 109.717 452.576 110.293 453.867 112.181L454.005 112.396L454.127 112.611ZM452.686 112.948C451.805 111.694 450.091 111.316 448.757 112.117C447.364 112.953 446.915 114.759 447.753 116.151C448.591 117.544 450.402 117.995 451.796 117.158C453.128 116.358 453.597 114.671 452.902 113.308L452.8 113.124L452.686 112.948ZM430.634 131.507C432.623 130.312 433.312 127.779 432.242 125.752L432.121 125.537L431.982 125.322C430.692 123.434 428.136 122.858 426.15 124.05C424.089 125.287 423.424 127.96 424.663 130.019C425.902 132.077 428.574 132.743 430.634 131.507ZM426.873 125.258C428.206 124.457 429.921 124.835 430.801 126.089L430.916 126.265L431.018 126.449C431.713 127.812 431.243 129.499 429.911 130.299C428.517 131.136 426.706 130.685 425.868 129.292C425.03 127.9 425.48 126.094 426.873 125.258ZM443.897 128.29C445.922 127.228 448.45 127.918 449.645 129.902C450.884 131.961 450.219 134.634 448.158 135.872C446.099 137.108 443.426 136.442 442.187 134.384C440.991 132.396 441.57 129.836 443.466 128.548L443.674 128.415L443.897 128.29ZM444.221 129.737C442.967 130.615 442.591 132.325 443.392 133.657C444.231 135.05 446.041 135.501 447.435 134.664C448.828 133.827 449.278 132.022 448.44 130.63C447.638 129.297 445.947 128.827 444.581 129.521L444.397 129.623L444.221 129.737ZM436.481 108.031C435.286 106.047 432.758 105.357 430.733 106.419L430.51 106.544L430.302 106.677C428.406 107.965 427.827 110.525 429.023 112.514C430.262 114.572 432.935 115.237 434.994 114.001C437.055 112.764 437.72 110.091 436.481 108.031ZM430.228 111.786C429.427 110.454 429.803 108.745 431.057 107.866L431.233 107.752L431.417 107.65C432.783 106.956 434.474 107.426 435.276 108.759C436.114 110.151 435.664 111.957 434.271 112.793C432.877 113.63 431.067 113.179 430.228 111.786Z" fill="#291D18"/>
<rect x="25.1497" y="41.9731" width="45.9973" height="83.6109" rx="12" transform="rotate(-12.937 25.1497 41.9731)" fill="#E5CFC7"/>
<path fill-rule="evenodd" clip-rule="evenodd" d="M25.9373 35.3252L55.9743 28.4253C60.3416 27.4221 64.7282 30.1567 65.7271 34.5052L81.1955 101.844C82.1945 106.193 79.4411 110.567 75.0736 111.57L45.0366 118.47C40.6688 119.474 36.283 116.739 35.2839 112.39L19.8155 45.0516C18.8166 40.7029 21.5696 36.3285 25.9373 35.3252ZM56.3321 29.9824L26.2951 36.8822C22.7911 37.6871 20.578 41.2035 21.3794 44.6923L36.8479 112.031C37.6494 115.52 41.1749 117.718 44.6791 116.913L74.7161 110.013C78.2199 109.208 80.4332 105.692 79.6318 102.203L64.1633 34.8644C63.362 31.3758 59.8357 29.1776 56.3321 29.9824Z" fill="#291D18"/>
<path fill-rule="evenodd" clip-rule="evenodd" d="M59.6518 103.09C59.9323 104.311 59.1656 105.529 57.9391 105.811C56.7131 106.093 55.4918 105.331 55.2113 104.11C54.9307 102.889 55.6974 101.671 56.9233 101.389C58.1499 101.107 59.3712 101.869 59.6518 103.09Z" fill="#291D18"/>
<path d="M57.4761 39.5296C57.9079 39.4304 58.3381 39.6985 58.4369 40.1285C58.5298 40.5332 58.2961 40.937 57.9083 41.0658L57.8338 41.0867L30.9815 47.2549C30.5497 47.3541 30.1195 47.086 30.0208 46.656C29.9278 46.2513 30.1615 45.8475 30.5493 45.7187L30.6238 45.6978L57.4761 39.5296Z" fill="#291D18"/>
<ellipse cx="397.196" cy="243.795" rx="5.82312" ry="5.63264" fill="#291D18" fill-opacity="0.12"/>
<ellipse cx="367.718" cy="62.9818" rx="5.82312" ry="5.63264" transform="rotate(34.6399 367.718 62.9818)" fill="#291D18" fill-opacity="0.12"/>
<ellipse cx="3.69219" cy="3.56896" rx="3.69219" ry="3.56896" transform="matrix(-1 0 0 1 410.361 200.433)" fill="#291D18" fill-opacity="0.12"/>
<ellipse cx="3.69219" cy="3.56896" rx="3.69219" ry="3.56896" transform="matrix(-0.822741 -0.568417 -0.568417 0.822741 403.197 34.7891)" fill="#291D18" fill-opacity="0.12"/>
<ellipse cx="3.69219" cy="3.56896" rx="3.69219" ry="3.56896" transform="matrix(0.965926 0.258819 0.258819 -0.965926 95.3651 44.2583)" fill="#291D18" fill-opacity="0.12"/>
<ellipse cx="3.69219" cy="3.56896" rx="3.69219" ry="3.56896" transform="matrix(-1 0 0 1 100.217 200.433)" fill="#291D18" fill-opacity="0.12"/>
<ellipse cx="429.645" cy="230.297" rx="8.73467" ry="8.44896" fill="#291D18" fill-opacity="0.12"/>
<ellipse cx="134.048" cy="10.422" rx="8.73467" ry="8.44896" transform="rotate(-165 134.048 10.422)" fill="#291D18" fill-opacity="0.12"/>
</svg>
