<svg width="398" height="206" viewBox="0 0 398 206" fill="none" xmlns="http://www.w3.org/2000/svg">
<rect x="60" y="138.5" width="109" height="33" rx="5" fill="#E5CFC7"/>
<path fill-rule="evenodd" clip-rule="evenodd" d="M254.132 102.267C254.696 100.051 256.691 98.5 258.978 98.5H353.022C355.309 98.5 357.304 100.051 357.868 102.267L360.413 112.267C361.218 115.427 358.83 118.5 355.568 118.5H256.432C253.17 118.5 250.782 115.427 251.587 112.267L254.132 102.267Z" fill="#E5CFC7"/>
<rect x="235" y="6.5" width="142" height="76" rx="5" fill="#E5CFC7"/>
<path fill-rule="evenodd" clip-rule="evenodd" d="M128.314 117.5C125.089 117.5 122.708 114.493 123.447 111.354L128 92.0175V13.5C128 10.7386 130.239 8.5 133 8.5H148C150.761 8.5 153 10.7386 153 13.5V91.8207L157.566 111.362C158.299 114.499 155.918 117.5 152.697 117.5H128.314Z" fill="#E5CFC7"/>
<path fill-rule="evenodd" clip-rule="evenodd" d="M367 86C369.963 86 372.38 88.3438 372.496 91.2788L372.5 91.5V98.9941C372.5 99.2703 372.276 99.4941 372 99.4941C371.755 99.4941 371.55 99.3173 371.508 99.084L371.5 98.9941V91.5C371.5 89.0857 369.599 87.1155 367.212 87.0049L367 87H235C232.586 87 230.616 88.9012 230.505 91.2882L230.5 91.5V116.5C230.5 118.914 232.401 120.884 234.788 120.995L235 121H236H239H363H366H367C369.414 121 371.384 119.099 371.495 116.712L371.5 116.5V102.579C371.5 102.303 371.724 102.079 372 102.079C372.245 102.079 372.45 102.256 372.492 102.489L372.5 102.579V116.5C372.5 119.4 370.256 121.776 367.409 121.985C367.468 122.146 367.5 122.319 367.5 122.5C367.5 123.328 366.828 124 366 124H363C362.172 124 361.5 123.328 361.5 122.5C361.5 122.325 361.53 122.156 361.585 122H240.415C240.47 122.156 240.5 122.325 240.5 122.5C240.5 123.328 239.828 124 239 124H236C235.172 124 234.5 123.328 234.5 122.5C234.5 122.319 234.532 122.146 234.591 121.985C231.817 121.781 229.615 119.52 229.504 116.721L229.5 116.5V91.5C229.5 88.5365 231.844 86.1205 234.779 86.0044L235 86H367ZM363 122C362.724 122 362.5 122.224 362.5 122.5C362.5 122.776 362.724 123 363 123H366C366.276 123 366.5 122.776 366.5 122.5C366.5 122.224 366.276 122 366 122H363ZM236 122H239C239.276 122 239.5 122.224 239.5 122.5C239.5 122.776 239.276 123 239 123H236C235.724 123 235.5 122.776 235.5 122.5C235.5 122.224 235.724 122 236 122Z" fill="#291D18"/>
<path d="M203.5 198C203.776 198 204 198.224 204 198.5C204 198.745 203.823 198.95 203.59 198.992L203.5 199H197C197 198.992 197 198 197 198H203.5Z" fill="#291D18"/>
<path fill-rule="evenodd" clip-rule="evenodd" d="M135.779 31.3026C135.779 30.2793 134.961 29.4463 133.948 29.4463C132.935 29.4463 132.118 30.2793 132.118 31.3026C132.118 32.3258 132.935 33.1589 133.948 33.1589C134.961 33.1589 135.779 32.3258 135.779 31.3026ZM133.097 31.3029C133.097 30.8171 133.48 30.4268 133.948 30.4268C134.416 30.4268 134.8 30.8171 134.8 31.3029C134.8 31.7888 134.416 32.1791 133.948 32.1791C133.48 32.1791 133.097 31.7888 133.097 31.3029Z" fill="#291D18"/>
<path fill-rule="evenodd" clip-rule="evenodd" d="M135.779 36.7674C135.779 35.7442 134.961 34.9111 133.948 34.9111C132.935 34.9111 132.118 35.7442 132.118 36.7674C132.118 37.7907 132.935 38.6237 133.948 38.6237C134.961 38.6237 135.779 37.7907 135.779 36.7674ZM133.097 36.7678C133.097 36.2819 133.48 35.8916 133.948 35.8916C134.416 35.8916 134.8 36.2819 134.8 36.7678C134.8 37.2536 134.416 37.6439 133.948 37.6439C133.48 37.6439 133.097 37.2536 133.097 36.7678Z" fill="#291D18"/>
<path fill-rule="evenodd" clip-rule="evenodd" d="M135.779 42.2323C135.779 41.209 134.961 40.376 133.948 40.376C132.935 40.376 132.118 41.209 132.118 42.2323C132.118 43.2555 132.935 44.0885 133.948 44.0885C134.961 44.0885 135.779 43.2555 135.779 42.2323ZM133.097 42.2326C133.097 41.7468 133.48 41.3564 133.948 41.3564C134.416 41.3564 134.8 41.7468 134.8 42.2326C134.8 42.7185 134.416 43.1088 133.948 43.1088C133.48 43.1088 133.097 42.7185 133.097 42.2326Z" fill="#291D18"/>
<circle cx="134" cy="67" r="0.5" fill="#291D18"/>
<path fill-rule="evenodd" clip-rule="evenodd" d="M136.5 55.5V51.5H131.5V55.5H136.5ZM132.5 52.499H135.5V54.499H132.5V52.499Z" fill="#291D18"/>
<path fill-rule="evenodd" clip-rule="evenodd" d="M136.5 47.9111V46.5H131.5V50.5H136.5V48.9111H200.121L200.285 48.9165C201.589 49.0011 202.621 50.0856 202.621 51.4111V104.498H203.621V51.4111L203.615 51.2191C203.516 49.3754 201.989 47.9111 200.121 47.9111H136.5ZM132.5 47.499H135.5V49.499H132.5V47.499ZM320 105.5V101.5H315V105.5H317.214V177.794L317.209 177.958C317.124 179.262 316.04 180.294 314.714 180.294H206.121L205.956 180.288C204.652 180.204 203.621 179.119 203.621 177.794V138.08L202.621 138.079V177.794L202.626 177.986C202.726 179.829 204.252 181.294 206.121 181.294H314.714L314.906 181.288C316.75 181.189 318.214 179.662 318.214 177.794V105.5H320ZM316 102.5H319V104.5H316V102.5Z" fill="#291D18"/>
<path fill-rule="evenodd" clip-rule="evenodd" d="M140.61 1.5C143.759 1.5 146.322 4.00322 146.42 7.12799L146.423 7.3125V81.0752C146.423 81.3858 146.171 81.6377 145.86 81.6377C145.575 81.6377 145.34 81.4261 145.303 81.1515L145.298 81.0752V7.3125C145.298 4.78119 143.291 2.71852 140.782 2.62809L140.61 2.625H126.36C123.829 2.625 121.766 4.63143 121.676 7.14066L121.673 7.3125V14.215C121.673 14.5256 121.421 14.7775 121.11 14.7775C120.825 14.7775 120.59 14.5658 120.553 14.2913L120.548 14.215V7.3125C120.548 4.16408 123.051 1.60031 126.176 1.50287L126.36 1.5H140.61ZM145.856 84.3605C146.113 84.3538 146.35 84.5255 146.416 84.7855L150.861 102.425L150.885 102.616C151.122 104.744 150.217 106.42 148.673 107.403V108.562C148.673 109.659 147.816 110.556 146.736 110.621L146.61 110.625H135.749L135.731 110.625H121.86C118.327 110.625 115.653 108.351 116.037 104.883L116.061 104.693L119.999 86.6697L120.061 86.4221L120.175 85.956L120.274 85.5292L120.358 85.1421L120.426 84.7951L120.479 84.4888C120.517 84.2505 120.539 84.055 120.546 83.9033L120.548 83.8175V18.1182C120.548 17.8075 120.799 17.5557 121.11 17.5557C121.395 17.5557 121.63 17.7673 121.667 18.0418L121.673 18.1182V83.8175C121.673 83.9885 121.656 84.1981 121.622 84.4472L121.574 84.7649L121.509 85.1207L121.429 85.5148L121.333 85.9474L121.221 86.4188L121.093 86.9292L117.167 104.891C116.785 107.608 118.799 109.425 121.679 109.498L121.86 109.5H135.36V109.5H135.784C138.139 109.474 139.992 107.678 140.755 104.905L140.811 104.689L145.311 84.799C145.37 84.539 145.6 84.3622 145.856 84.3605ZM145.895 87.3197L141.906 104.949C141.415 106.912 140.433 108.506 139.107 109.5H146.61C147.096 109.5 147.495 109.131 147.543 108.658L147.548 108.562V107.955C146.799 108.229 145.96 108.375 145.066 108.375H143.081L143.005 108.37C142.73 108.333 142.519 108.097 142.519 107.813C142.519 107.502 142.77 107.25 143.081 107.25H145.066L145.247 107.248C148.127 107.175 150.141 105.358 149.759 102.641L145.895 87.3197Z" fill="#291D18"/>
<path d="M146.985 30C147.892 30 148.61 30.7567 148.669 31.6898L148.673 31.8125V36.8125C148.673 37.7599 147.992 38.5561 147.102 38.6208L146.985 38.625H146.423V37.5H146.985C147.259 37.5 147.507 37.2483 147.543 36.9012L147.548 36.8125V31.8125C147.548 31.4505 147.321 31.171 147.053 31.1302L146.985 31.125H146.423V30H146.985Z" fill="#291D18"/>
<path d="M331.296 93C331.572 93 331.796 93.2239 331.796 93.5C331.796 93.7455 331.619 93.9496 331.386 93.9919L331.296 94H254C251.799 94 250.319 95.5425 249.562 98.326L249.488 98.6085L247.49 107.602C246.932 110.279 248.851 111.919 251.779 111.997L252 112H349C352.037 112 354.093 110.417 353.556 107.802L351.511 98.6029C350.951 95.9422 349.356 94.1169 347.209 94.0054L347 94H335.967C335.691 94 335.467 93.7761 335.467 93.5C335.467 93.2545 335.644 93.0504 335.877 93.0081L335.967 93H347C349.72 93 351.708 95.1094 352.428 98.1233L354.485 107.379C355.336 110.79 352.786 112.91 349.228 112.997L349 113H252C248.468 113 245.897 110.967 246.47 107.612L246.512 107.392L248.515 98.3798C249.325 95.1079 251.077 93.1193 253.754 93.0052L254 93H331.296Z" fill="#291D18"/>
<path fill-rule="evenodd" clip-rule="evenodd" d="M282 79.5V76.5H281V79.5H282ZM321 79.5V76.5H320V79.5H321Z" fill="#291D18"/>
<path fill-rule="evenodd" clip-rule="evenodd" d="M275 79H327C328.933 79 330.5 80.567 330.5 82.5V83.5C330.5 85.433 328.933 87 327 87H275C273.067 87 271.5 85.433 271.5 83.5V82.5C271.5 80.567 273.067 79 275 79ZM327 80H275C273.619 80 272.5 81.1193 272.5 82.5V83.5C272.5 84.8807 273.619 86 275 86H327C328.381 86 329.5 84.8807 329.5 83.5V82.5C329.5 81.1193 328.381 80 327 80Z" fill="#291D18"/>
<path d="M344.585 1C344.861 1 345.085 1.22386 345.085 1.5C345.085 1.74546 344.908 1.94961 344.674 1.99194L344.585 2H237.676C233.794 2 230.631 5.10925 230.504 8.99526L230.5 9.23913V68.7609C230.5 72.6782 233.584 75.8674 237.434 75.996L237.676 76H364.324C368.206 76 371.369 72.8908 371.496 69.0047L371.5 68.7609V9.23913C371.5 5.32176 368.416 2.13257 364.566 2.00403L364.324 2H352.109C351.833 2 351.609 1.77614 351.609 1.5C351.609 1.25454 351.786 1.05039 352.02 1.00806L352.109 1H364.324C368.757 1 372.364 4.55431 372.496 8.98729L372.5 9.23913V68.7609C372.5 73.2261 368.975 76.8631 364.574 76.9962L364.324 77H237.676C233.243 77 229.636 73.4457 229.504 69.0127L229.5 68.7609V9.23913C229.5 4.77395 233.025 1.13695 237.426 1.00378L237.676 1H344.585Z" fill="#291D18"/>
<path d="M363.819 4C366.883 4 369.381 6.40946 369.496 9.42636L369.5 9.64286V68.2482C369.5 71.293 367.073 73.7733 364.037 73.887L363.819 73.891H255.326C255.05 73.891 254.826 73.6672 254.826 73.391C254.826 73.1456 255.003 72.9414 255.236 72.8991L255.326 72.891H363.819C366.333 72.891 368.383 70.9255 368.495 68.4606L368.5 68.2482V9.64286C368.5 7.15071 366.52 5.1159 364.033 5.00478L363.819 5H238.181C235.667 5 233.617 6.96558 233.505 9.4304L233.5 9.64286V68.2482C233.5 70.7403 235.48 72.7751 237.967 72.8863L238.181 72.891H248.835C249.111 72.891 249.335 73.1149 249.335 73.391C249.335 73.6365 249.158 73.8407 248.925 73.883L248.835 73.891H238.181C235.117 73.891 232.619 71.4816 232.504 68.4647L232.5 68.2482V9.64286C232.5 6.59806 234.927 4.11779 237.963 4.00407L238.181 4H363.819Z" fill="#291D18"/>
<path d="M269.416 103.812H298.254C298.531 103.812 298.754 103.589 298.754 103.312C298.754 103.036 298.531 102.812 298.254 102.812H269.416C269.14 102.812 268.916 103.036 268.916 103.312C268.916 103.589 269.14 103.812 269.416 103.812Z" fill="#291D18"/>
<path fill-rule="evenodd" clip-rule="evenodd" d="M346 103.303C346 102.192 345.105 101.292 344 101.292C342.895 101.292 342 102.192 342 103.303C342 104.414 342.895 105.314 344 105.314C345.105 105.314 346 104.414 346 103.303ZM343 103.303C343 102.743 343.449 102.292 344 102.292C344.551 102.292 345 102.743 345 103.303C345 103.863 344.551 104.314 344 104.314C343.449 104.314 343 103.863 343 103.303Z" fill="#291D18"/>
<path fill-rule="evenodd" clip-rule="evenodd" d="M390.17 56.5V100H386V107H385C384.448 107 384 107.448 384 108V117C384 117.184 384.05 117.356 384.136 117.504L384.917 126.091C384.964 126.606 385.396 127 385.913 127H386V131C386 131.552 386.448 132 387 132H388V138H390.17V177.794L390.165 177.958C390.08 179.262 388.996 180.294 387.67 180.294H336.214L336.05 180.288C334.746 180.204 333.714 179.119 333.714 177.794V105.801L333.97 105.779C334.019 105.774 334.07 105.768 334.122 105.762L334.446 105.717C335.454 105.556 336.714 105.154 336.714 104.149L336.727 103.549L336.729 103.298L336.724 103.148L336.71 103.011C336.665 102.706 336.527 102.503 336.152 102.371L335.976 102.318C335.881 102.294 335.773 102.273 335.652 102.255L335.393 102.222C335.3 102.212 335.201 102.204 335.095 102.196L334.756 102.176L334.374 102.162L333.715 102.151L333.214 102.149L332.481 102.154L331.858 102.169L331.498 102.186L331.18 102.208C331.13 102.213 331.082 102.217 331.036 102.222L330.776 102.255C330.655 102.273 330.547 102.294 330.452 102.318L330.276 102.371C329.901 102.503 329.764 102.706 329.719 103.011L329.704 103.148L329.699 103.298L329.714 104.149C329.714 105.12 330.891 105.528 331.881 105.7L332.201 105.749L332.497 105.783C332.544 105.787 332.589 105.791 332.632 105.795L332.714 105.801V177.794L332.719 177.986C332.819 179.829 334.346 181.294 336.214 181.294H387.67L387.862 181.288C389.706 181.189 391.17 179.662 391.17 177.794V138H393V132H394C394.552 132 395 131.552 395 131V127H395.087C395.604 127 396.036 126.606 396.083 126.091L396.864 117.504C396.95 117.356 397 117.184 397 117V108C397 107.448 396.552 107 396 107H395V100H391.17V56.5L391.165 56.308C391.065 54.4643 389.539 53 387.67 53H372V54H387.67L387.835 54.0053C389.139 54.09 390.17 55.1745 390.17 56.5ZM392 132H389V137H392V132ZM393 131H394V126H395.087L395.888 117.192L396.001 116.999L396 108H395H386H385L384.999 117.001L385.112 117.192L385.913 126H387V131H388H393ZM388 107H387V101H394V107H393V102.75H392V107H389V102.75H388V107ZM333.208 104.824L333.351 104.821L333.557 104.81C333.597 104.808 333.638 104.805 333.681 104.801C334.044 104.772 334.404 104.721 334.731 104.642C335.366 104.491 335.663 104.303 335.708 104.181L335.714 104.149L335.729 103.352L335.729 103.285L335.716 103.28C335.675 103.27 335.626 103.26 335.571 103.251L335.383 103.225C335.348 103.221 335.311 103.218 335.272 103.214L335.015 103.193L334.709 103.176L334.351 103.163L333.712 103.152H332.716L332.077 103.163L331.719 103.176L331.413 103.193L331.156 103.214L330.945 103.238C330.883 103.247 330.828 103.256 330.779 103.265L330.7 103.285L330.699 103.367L330.714 104.045C330.714 104.079 330.714 104.114 330.714 104.149C330.714 104.262 330.976 104.458 331.624 104.624C332.178 104.766 332.781 104.821 333.208 104.824Z" fill="#291D18"/>
<path fill-rule="evenodd" clip-rule="evenodd" d="M70 157.5C70 156.395 69.1046 155.5 68 155.5C66.8954 155.5 66 156.395 66 157.5C66 158.605 66.8954 159.5 68 159.5C69.1046 159.5 70 158.605 70 157.5ZM67 157.5C67 156.948 67.4477 156.5 68 156.5C68.5523 156.5 69 156.948 69 157.5C69 158.052 68.5523 158.5 68 158.5C67.4477 158.5 67 158.052 67 157.5Z" fill="#291D18"/>
<circle cx="68" cy="157.5" r="0.5" fill="#291D18"/>
<circle cx="84.5" cy="157.5" r="0.5" fill="#291D18"/>
<path fill-rule="evenodd" clip-rule="evenodd" d="M78.5 157.5C78.5 156.395 77.6046 155.5 76.5 155.5C75.3954 155.5 74.5 156.395 74.5 157.5C74.5 158.605 75.3954 159.5 76.5 159.5C77.6046 159.5 78.5 158.605 78.5 157.5ZM75.5 157.5C75.5 156.948 75.9477 156.5 76.5 156.5C77.0523 156.5 77.5 156.948 77.5 157.5C77.5 158.052 77.0523 158.5 76.5 158.5C75.9477 158.5 75.5 158.052 75.5 157.5Z" fill="#291D18"/>
<circle cx="76.5" cy="157.5" r="0.5" fill="#291D18"/>
<path fill-rule="evenodd" clip-rule="evenodd" d="M110.5 157.5C110.5 156.395 109.605 155.5 108.5 155.5C107.395 155.5 106.5 156.395 106.5 157.5C106.5 158.605 107.395 159.5 108.5 159.5C109.605 159.5 110.5 158.605 110.5 157.5ZM107.5 157.5C107.5 156.948 107.948 156.5 108.5 156.5C109.052 156.5 109.5 156.948 109.5 157.5C109.5 158.052 109.052 158.5 108.5 158.5C107.948 158.5 107.5 158.052 107.5 157.5Z" fill="#291D18"/>
<path fill-rule="evenodd" clip-rule="evenodd" d="M102.5 157.5C102.5 156.395 101.605 155.5 100.5 155.5C99.3954 155.5 98.5 156.395 98.5 157.5C98.5 158.605 99.3954 159.5 100.5 159.5C101.605 159.5 102.5 158.605 102.5 157.5ZM99.5 157.5C99.5 156.948 99.9477 156.5 100.5 156.5C101.052 156.5 101.5 156.948 101.5 157.5C101.5 158.052 101.052 158.5 100.5 158.5C99.9477 158.5 99.5 158.052 99.5 157.5Z" fill="#291D18"/>
<path fill-rule="evenodd" clip-rule="evenodd" d="M118.5 157.5C118.5 156.395 117.605 155.5 116.5 155.5C115.395 155.5 114.5 156.395 114.5 157.5C114.5 158.605 115.395 159.5 116.5 159.5C117.605 159.5 118.5 158.605 118.5 157.5ZM115.5 157.5C115.5 156.948 115.948 156.5 116.5 156.5C117.052 156.5 117.5 156.948 117.5 157.5C117.5 158.052 117.052 158.5 116.5 158.5C115.948 158.5 115.5 158.052 115.5 157.5Z" fill="#291D18"/>
<path d="M67.5 134.235V147.765C67.5 147.895 67.7239 148 68 148C68.2761 148 68.5 147.895 68.5 147.765V134.235C68.5 134.105 68.2761 134 68 134C67.7239 134 67.5 134.105 67.5 134.235Z" fill="#291D18"/>
<path d="M76 134.235V147.765C76 147.895 76.2239 148 76.5 148C76.7761 148 77 147.895 77 147.765V134.235C77 134.105 76.7761 134 76.5 134C76.2239 134 76 134.105 76 134.235Z" fill="#291D18"/>
<path d="M84 134.235V147.765C84 147.895 84.2239 148 84.5 148C84.7761 148 85 147.895 85 147.765V134.235C85 134.105 84.7761 134 84.5 134C84.2239 134 84 134.105 84 134.235Z" fill="#291D18"/>
<path d="M140 137C141.325 137 142.41 138.032 142.495 139.336L142.5 139.5V157.5C142.5 158.825 141.468 159.91 140.164 159.995L140 160H129C127.675 160 126.59 158.968 126.505 157.664L126.5 157.5V146.687C126.5 146.411 126.724 146.187 127 146.187C127.245 146.187 127.45 146.364 127.492 146.597L127.5 146.687V157.5C127.5 158.28 128.095 158.92 128.856 158.993L129 159H140C140.78 159 141.42 158.405 141.493 157.644L141.5 157.5V139.5C141.5 138.72 140.905 138.08 140.144 138.007L140 138H129C128.22 138 127.58 138.595 127.507 139.356L127.5 139.5V142.325C127.5 142.601 127.276 142.825 127 142.825C126.755 142.825 126.55 142.648 126.508 142.415L126.5 142.325V139.5C126.5 138.175 127.532 137.09 128.836 137.005L129 137H140Z" fill="#291D18"/>
<path fill-rule="evenodd" clip-rule="evenodd" d="M140 154.5C140 153.395 139.105 152.5 138 152.5H131C129.895 152.5 129 153.395 129 154.5C129 155.605 129.895 156.5 131 156.5H138C139.105 156.5 140 155.605 140 154.5ZM131 153.5H138L138.117 153.507C138.614 153.564 139 153.987 139 154.5C139 155.052 138.552 155.5 138 155.5H131L130.883 155.493C130.386 155.436 130 155.013 130 154.5C130 153.948 130.448 153.5 131 153.5Z" fill="#291D18"/>
<path d="M92 134.235V147.765C92 147.895 92.2239 148 92.5 148C92.7761 148 93 147.895 93 147.765V134.235C93 134.105 92.7761 134 92.5 134C92.2239 134 92 134.105 92 134.235Z" fill="#291D18"/>
<path d="M100 134.235V147.765C100 147.895 100.224 148 100.5 148C100.776 148 101 147.895 101 147.765V134.235C101 134.105 100.776 134 100.5 134C100.224 134 100 134.105 100 134.235Z" fill="#291D18"/>
<path d="M108 134.235V147.765C108 147.895 108.224 148 108.5 148C108.776 148 109 147.895 109 147.765V134.235C109 134.105 108.776 134 108.5 134C108.224 134 108 134.105 108 134.235Z" fill="#291D18"/>
<path d="M116 134.235V147.765C116 147.895 116.224 148 116.5 148C116.776 148 117 147.895 117 147.765V134.235C117 134.105 116.776 134 116.5 134C116.224 134 116 134.105 116 134.235Z" fill="#291D18"/>
<ellipse cx="150.117" cy="156.709" rx="2.40323" ry="2.41667" fill="#291D18"/>
<path d="M143.591 133C143.868 133 144.091 133.224 144.091 133.5C144.091 133.745 143.915 133.95 143.681 133.992L143.591 134H59C56.5857 134 54.6155 135.901 54.5049 138.288L54.5 138.5V159.5C54.5 161.914 56.4012 163.884 58.7882 163.995L59 164H156C158.414 164 160.384 162.099 160.495 159.712L160.5 159.5V138.5C160.5 136.086 158.599 134.116 156.212 134.005L156 134H148.781C148.505 134 148.281 133.776 148.281 133.5C148.281 133.255 148.458 133.05 148.691 133.008L148.781 133H156C158.963 133 161.38 135.344 161.496 138.279L161.5 138.5V159.5C161.5 162.463 159.156 164.88 156.221 164.996L156 165H59C56.0365 165 53.6205 162.656 53.5044 159.721L53.5 159.5V138.5C53.5 135.537 55.8438 133.12 58.7788 133.004L59 133H143.591Z" fill="#291D18"/>
<path fill-rule="evenodd" clip-rule="evenodd" d="M324.5 101.5C325.605 101.5 326.5 102.395 326.5 103.5C326.5 104.432 325.863 105.215 325 105.437V195.267C325 197.135 323.536 198.662 321.692 198.762L321.5 198.767H205.995C205.927 200.629 205.148 202.099 204 202.43V202.5C203.913 202.5 203.828 202.494 203.744 202.484C203.712 202.488 203.679 202.492 203.646 202.494L203.5 202.5H196.998C196.952 203.564 196.075 204.413 195 204.413L194.914 204.411L178.914 203.725C177.844 203.679 177 202.798 177 201.727V201.5H171V198.767H79.5C77.6314 198.767 76.1049 197.302 76.0052 195.459L76 195.267V159.5H77V195.267C77 196.592 78.0315 197.677 79.3356 197.761L79.5 197.767H171V195.5H177V195.274C177 194.202 177.844 193.321 178.914 193.275L194.914 192.59C196.017 192.542 196.95 193.398 196.998 194.5H203.5C203.587 194.5 203.672 194.505 203.756 194.516C203.788 194.512 203.821 194.508 203.854 194.506L204 194.5V194.564C205.073 194.85 205.804 196.064 205.966 197.767H321.5C322.825 197.767 323.91 196.735 323.995 195.431L324 195.267V105.437C323.137 105.215 322.5 104.432 322.5 103.5C322.5 102.395 323.395 101.5 324.5 101.5ZM324.5 102.5C323.948 102.5 323.5 102.948 323.5 103.5C323.5 104.052 323.948 104.5 324.5 104.5C325.052 104.5 325.5 104.052 325.5 103.5C325.5 102.948 325.052 102.5 324.5 102.5ZM197 201.499V195.499L202.298 195.5C201.795 196.226 201.5 197.29 201.5 198.5C201.5 199.744 201.778 200.79 202.262 201.5L197 201.499ZM178 195.5V195.274L178.006 195.16C178.061 194.677 178.46 194.296 178.957 194.275L194.957 193.589L195.074 193.591C195.535 193.624 195.914 193.973 195.987 194.429L195.998 194.538L196 194.609L196 194.985L196 195V202L196 202L196 202.413L195.993 202.529C195.936 203.027 195.513 203.413 195 203.413L178.957 202.726L178.844 202.715C178.364 202.64 178 202.224 178 201.727V201.5V195.5ZM177 196.499H172V200.499H177V196.499ZM202.5 198.5C202.5 196.912 203.077 195.761 203.76 195.539C204.458 195.752 205 196.829 205 198.5C205 200.088 204.423 201.239 203.74 201.461C203.042 201.248 202.5 200.171 202.5 198.5Z" fill="#291D18"/>
<path d="M172.651 106.55C172.651 106.274 172.874 106.05 173.151 106.05C173.396 106.05 173.6 106.227 173.642 106.46L173.651 106.55V113.05C173.642 113.05 172.651 113.05 172.651 113.05V106.55Z" fill="#291D18"/>
<path d="M50.5 198C50.7761 198 51 198.224 51 198.5C51 198.745 50.8231 198.95 50.5899 198.992L50.5 199H44C44 198.992 44 198 44 198H50.5Z" fill="#291D18"/>
<path fill-rule="evenodd" clip-rule="evenodd" d="M44 201.499V195.499L49.2978 195.5C48.7954 196.226 48.5 197.29 48.5 198.5C48.5 199.744 48.7776 200.79 49.2615 201.5L44 201.499ZM50.5 194.5C50.587 194.5 50.6723 194.505 50.7558 194.516C50.7882 194.512 50.8209 194.508 50.8539 194.506L51 194.5V194.564C52.2216 194.889 53 196.418 53 198.5C53 200.487 52.2026 202.083 51 202.43V202.5C50.913 202.5 50.8278 202.495 50.7443 202.484C50.7118 202.488 50.6791 202.492 50.6461 202.494L50.5 202.5H43.9981C43.9525 203.564 43.0754 204.413 42 204.413L41.9144 204.411L25.9144 203.725C24.8441 203.679 24 202.798 24 201.727V201.5H18V195.5H24V195.274C24 194.202 24.8441 193.321 25.9144 193.275L41.9144 192.59C43.0172 192.542 43.9496 193.398 43.9981 194.5H50.5ZM25 195.5V195.274L25.0063 195.16C25.0609 194.677 25.4603 194.296 25.9572 194.275L41.9572 193.589L42.074 193.591C42.5349 193.624 42.9144 193.973 42.9874 194.429L42.998 194.538L43.0002 194.609L43.0002 194.985L43 195V202L43 202L43 202.413L42.9933 202.529C42.9355 203.027 42.5128 203.413 42 203.413L25.9572 202.726L25.8444 202.715C25.3639 202.64 25 202.224 25 201.727V201.5V195.5ZM24 196.499H19V200.499H24V196.499ZM49.5 198.5C49.5 196.912 50.0775 195.761 50.7597 195.539C51.4581 195.752 52 196.829 52 198.5C52 200.088 51.4225 201.239 50.7403 201.461C50.0419 201.248 49.5 200.171 49.5 198.5Z" fill="#291D18"/>
<path d="M52.7928 198C55.5056 198 59.5746 198 65 198C66.3255 198 67.4101 196.968 67.4947 195.664L67.5 195.5V159.5H68.5V195.5C68.5 197.369 67.0358 198.895 65.1921 198.995L65 199H52.7928V198Z" fill="#291D18"/>
<path d="M18.1506 199H1V198C8.89943 198 14.6201 198 18.1619 198" fill="#291D18"/>
<circle cx="324.5" cy="103.5" r="0.5" fill="#291D18"/>
<path fill-rule="evenodd" clip-rule="evenodd" d="M135.937 66.5C135.715 65.6374 134.932 65 134 65C132.895 65 132 65.8954 132 67C132 68.1046 132.895 69 134 69C134.932 69 135.715 68.3626 135.937 67.5H169.218L169.41 67.5052C171.253 67.6049 172.718 69.1314 172.718 71V104.061C170.858 104.162 169.517 104.915 169.215 106.05H169.151L169.156 106.196C169.159 106.229 169.162 106.262 169.167 106.294C169.156 106.378 169.151 106.463 169.151 106.55V113.052C168.048 113.1 167.193 114.033 167.24 115.135L167.926 131.135C167.971 132.206 168.853 133.05 169.924 133.05H170.151V139.05H172.718V176.793L172.712 176.985C172.613 178.829 171.086 180.293 169.218 180.293H88.5L88.308 180.288C86.4643 180.188 85 178.662 85 176.793V159.5H84.5243C85.6177 159.487 86.5 158.596 86.5 157.5C86.5 156.395 85.6046 155.5 84.5 155.5C83.3954 155.5 82.5 156.395 82.5 157.5C82.5 158.596 83.3823 159.487 84.4757 159.5H84V176.793L84.0049 177.005C84.1155 179.392 86.0857 181.293 88.5 181.293H169.218L169.429 181.288C171.816 181.178 173.718 179.207 173.718 176.793V139.05H176.151V133.05H176.377C177.449 133.05 178.33 132.206 178.375 131.135L179.061 115.135L179.063 115.05C179.063 113.975 178.214 113.098 177.151 113.052V106.55L177.145 106.404C177.142 106.371 177.139 106.338 177.134 106.306C177.145 106.222 177.151 106.137 177.151 106.05H177.08C176.767 104.964 175.436 104.208 173.718 104.072V71L173.713 70.7882C173.602 68.4012 171.632 66.5 169.218 66.5H135.937ZM134 66C133.448 66 133 66.4477 133 67C133 67.5523 133.448 68 134 68C134.552 68 135 67.5523 135 67C135 66.4477 134.552 66 134 66ZM84.5 156.5C83.9477 156.5 83.5 156.948 83.5 157.5C83.5 158.052 83.9477 158.5 84.5 158.5C85.0523 158.5 85.5 158.052 85.5 157.5C85.5 156.948 85.0523 156.5 84.5 156.5ZM176.15 113.05H170.15L170.15 107.752C170.876 108.254 171.941 108.55 173.151 108.55C174.394 108.55 175.44 108.272 176.15 107.788L176.15 113.05ZM170.151 132.05H169.924L169.811 132.043C169.327 131.989 168.946 131.59 168.925 131.093L168.239 115.093L168.241 114.976C168.274 114.515 168.623 114.135 169.079 114.062L169.189 114.052L169.259 114.05L169.636 114.05L169.651 114.05H176.651L176.651 114.05L177.063 114.05L177.18 114.057C177.677 114.114 178.063 114.537 178.063 115.05L177.376 131.093L177.365 131.205C177.29 131.686 176.875 132.05 176.377 132.05H176.151H170.151ZM171.15 133.05V138.05H175.15V133.05H171.15ZM173.151 107.55C171.563 107.55 170.411 106.972 170.189 106.29C170.402 105.592 171.479 105.05 173.151 105.05C174.738 105.05 175.89 105.627 176.112 106.309C175.899 107.008 174.822 107.55 173.151 107.55Z" fill="#291D18"/>
</svg>
