<svg width="229" height="100" viewBox="0 0 229 100" fill="none" xmlns="http://www.w3.org/2000/svg">
<path fill-rule="evenodd" clip-rule="evenodd" d="M228.571 0V100H0V0H228.571ZM220.257 8.24607H8.31409V91.7539H220.257V8.24607Z" fill="white"/>
<path fill-rule="evenodd" clip-rule="evenodd" d="M140.152 25.6544C149.918 25.6544 157.572 31.0209 157.572 39.5288V41.7539H146.09V40.0524C146.09 37.4346 144.243 34.6859 140.284 34.6859C136.193 34.6859 134.741 37.3037 134.741 39.3979C134.741 42.801 137.116 44.3717 140.812 45.0262C155.724 47.9058 158.628 51.7016 158.628 59.9476C158.628 68.7173 150.577 74.6073 140.416 74.6073C128.011 74.6073 122.204 68.7173 122.336 60.2094V58.377H134.609V60.3403C134.609 62.6963 135.929 65.3141 140.284 65.3141C143.979 65.3141 145.826 63.2199 145.826 60.3403C145.826 57.0681 143.451 55.6283 139.756 55.1047C126.427 52.8796 122.864 47.644 122.864 39.9215C122.864 31.8063 130.386 25.6544 140.152 25.6544ZM201.65 26.7016V36.1257H182.778V45.0262H201.122V53.534H182.778V64.267H201.65V73.5602H170.901V26.7016H201.65ZM92.1148 25.6544C101.881 25.6544 110.195 31.2827 110.195 45.0262V73.5602H98.1854V57.5916H86.1762V73.5602H74.035V45.0262C74.035 31.2827 82.2171 25.6544 92.1148 25.6544ZM46.7173 26.5707C55.8232 26.5707 61.7618 32.4607 61.7618 39.5288C61.7618 42.801 58.8585 47.1204 56.351 48.4293V48.5602C61.3659 50.7853 63.4774 54.5811 63.4774 59.0314C63.4774 67.6702 56.483 73.5602 45.9254 73.4293H26.7898V26.5707H46.7173ZM45.6615 53.4031H38.7991V65.1832H45.6615C49.6206 65.1832 51.996 62.6963 51.996 59.2932C51.996 55.2356 49.0927 53.4031 45.6615 53.4031ZM91.9828 35.2094C88.8156 35.2094 86.1762 36.911 86.1762 42.0157V48.5602H98.1854V42.0157C98.1854 37.0419 95.2821 35.2094 91.9828 35.2094ZM46.0574 35.3403H38.7991V45.288H46.0574C48.4329 45.288 50.4124 43.0628 50.4124 40.3141C50.4124 37.4346 48.4329 35.3403 46.0574 35.3403Z" fill="white"/>
</svg>
