<svg width="137" height="86" viewBox="0 0 137 86" fill="none" xmlns="http://www.w3.org/2000/svg">
<path fill-rule="evenodd" clip-rule="evenodd" d="M58.9097 28C58.9097 27.7239 59.1335 27.5 59.4097 27.5H108.5C111.538 27.5 114 29.9624 114 33V80C114 83.0376 111.538 85.5 108.5 85.5H47.5C44.4624 85.5 42 83.0376 42 80V51.3182C42 51.042 42.2239 50.8182 42.5 50.8182C42.7761 50.8182 43 51.042 43 51.3182V80C43 82.4853 45.0147 84.5 47.5 84.5H108.5C110.985 84.5 113 82.4853 113 80V33C113 30.5147 110.985 28.5 108.5 28.5H59.4097C59.1335 28.5 58.9097 28.2761 58.9097 28Z" fill="#291D18"/>
<path fill-rule="evenodd" clip-rule="evenodd" d="M108.5 63.7725C108.224 63.7725 108 63.9963 108 64.2725V77.9997C108 79.3804 106.881 80.4997 105.5 80.4997H50.5C49.1193 80.4997 48 79.3804 48 77.9997V73.2725C48 72.9963 47.7761 72.7725 47.5 72.7725C47.2239 72.7725 47 72.9963 47 73.2725V77.9997C47 79.9327 48.567 81.4997 50.5 81.4997H105.5C107.433 81.4997 109 79.9327 109 77.9997V64.2725C109 63.9963 108.776 63.7725 108.5 63.7725Z" fill="#291D18"/>
<path fill-rule="evenodd" clip-rule="evenodd" d="M35 85C35 84.7239 35.2239 84.5 35.5 84.5H129.5C129.776 84.5 130 84.7239 130 85C130 85.2761 129.776 85.5 129.5 85.5H35.5C35.2239 85.5 35 85.2761 35 85Z" fill="#291D18"/>
<path fill-rule="evenodd" clip-rule="evenodd" d="M134 85C134 84.7239 134.224 84.5 134.5 84.5H135.942C136.218 84.5 136.442 84.7239 136.442 85C136.442 85.2761 136.218 85.5 135.942 85.5H134.5C134.224 85.5 134 85.2761 134 85Z" fill="#291D18"/>
<path fill-rule="evenodd" clip-rule="evenodd" d="M11 85C11 84.7239 11.2239 84.5 11.5 84.5H29.9422C30.2184 84.5 30.4422 84.7239 30.4422 85C30.4422 85.2761 30.2184 85.5 29.9422 85.5H11.5C11.2239 85.5 11 85.2761 11 85Z" fill="#291D18"/>
<path fill-rule="evenodd" clip-rule="evenodd" d="M113.5 46.5C113.776 46.5 114 46.7239 114 47V51C114 55.6944 110.194 59.5 105.5 59.5H100.5C100.224 59.5 100 59.2761 100 59C100 58.7239 100.224 58.5 100.5 58.5H105.5C109.642 58.5 113 55.1421 113 51V47C113 46.7239 113.224 46.5 113.5 46.5ZM42.5 50.5C42.7761 50.5 43 50.7239 43 51C43 55.1421 46.3579 58.5 50.5 58.5H56.5C56.7761 58.5 57 58.7239 57 59C57 59.2761 56.7761 59.5 56.5 59.5H50.5C45.8056 59.5 42 55.6944 42 51C42 50.7239 42.2239 50.5 42.5 50.5ZM92.5 59.5L64.5 59.5C64.2239 59.5 64 59.2761 64 59C64 58.7239 64.2239 58.5 64.5 58.5L92.5 58.5C92.7761 58.5 93 58.7239 93 59C93 59.2761 92.7761 59.5 92.5 59.5Z" fill="#291D18"/>
<path fill-rule="evenodd" clip-rule="evenodd" d="M96 34C96 34.2761 95.7761 34.5 95.5 34.5L58.5 34.5C58.2239 34.5 58 34.2761 58 34C58 33.7239 58.2239 33.5 58.5 33.5L95.5 33.5C95.7761 33.5 96 33.7239 96 34Z" fill="#291D18"/>
<path fill-rule="evenodd" clip-rule="evenodd" d="M56 65C56 65.8284 56.6716 66.5 57.5 66.5H63.5C64.3284 66.5 65 65.8284 65 65V64C65 63.7239 64.7761 63.5 64.5 63.5C64.2239 63.5 64 63.7239 64 64V65C64 65.2761 63.7761 65.5 63.5 65.5H57.5C57.2239 65.5 57 65.2761 57 65V53C57 52.7239 57.2239 52.5 57.5 52.5H63.5C63.7761 52.5 64 52.7239 64 53V60C64 60.2761 64.2239 60.5 64.5 60.5C64.7761 60.5 65 60.2761 65 60V53C65 52.1716 64.3284 51.5 63.5 51.5H57.5C56.6716 51.5 56 52.1716 56 53V65Z" fill="#291D18"/>
<path fill-rule="evenodd" clip-rule="evenodd" d="M92 65C92 65.8284 92.6716 66.5 93.5 66.5H99.5C100.328 66.5 101 65.8284 101 65V64C101 63.7239 100.776 63.5 100.5 63.5C100.224 63.5 100 63.7239 100 64V65C100 65.2761 99.7761 65.5 99.5 65.5H93.5C93.2239 65.5 93 65.2761 93 65V53C93 52.7239 93.2239 52.5 93.5 52.5H99.5C99.7761 52.5 100 52.7239 100 53V60C100 60.2761 100.224 60.5 100.5 60.5C100.776 60.5 101 60.2761 101 60V53C101 52.1716 100.328 51.5 99.5 51.5H93.5C92.6716 51.5 92 52.1716 92 53V65Z" fill="#291D18"/>
<path fill-rule="evenodd" clip-rule="evenodd" d="M28.1811 1.5C13.7217 1.5 2 13.2217 2 27.6811C2 42.1405 13.7217 53.8621 28.1811 53.8621C42.6405 53.8621 54.3621 42.1405 54.3621 27.6811C54.3621 13.2217 42.6405 1.5 28.1811 1.5ZM1 27.6811C1 12.6694 13.1694 0.5 28.1811 0.5C43.1928 0.5 55.3621 12.6694 55.3621 27.6811C55.3621 42.6928 43.1928 54.8621 28.1811 54.8621C13.1694 54.8621 1 42.6928 1 27.6811Z" fill="#291D18"/>
<path fill-rule="evenodd" clip-rule="evenodd" d="M38.8623 20.8847C40.4462 22.4881 41.6066 24.5429 42.1522 26.8499H46.5C47.0523 26.8499 47.5 27.2976 47.5 27.8499V32.3499C47.5 32.9022 47.0523 33.3499 46.5 33.3499H42.0232C41.5673 34.9815 40.8006 36.4753 39.7944 37.7572L41.8424 40.7119C42.1549 41.1627 42.0459 41.7811 41.5981 42.0979L37.4685 45.0195C37.0146 45.3406 36.3859 45.2298 36.0691 44.7728L34.0126 41.8058C32.9016 42.1596 31.7221 42.3499 30.5 42.3499C29.288 42.3499 28.118 42.1627 27.0151 41.8146L25.401 44.6393C25.1252 45.1218 24.5089 45.287 24.0289 45.0069L19.664 42.4608C19.1899 42.1843 19.0273 41.5774 19.2996 41.1009L21.2083 37.7606C20.2008 36.478 19.4331 34.983 18.9768 33.3499H14.5C13.9477 33.3499 13.5 32.9022 13.5 32.3499V27.8499C13.5 27.2976 13.9477 26.8499 14.5 26.8499H18.8478C19.3147 24.8755 20.232 23.0858 21.4796 21.6058L18.8964 17.0852C18.6241 16.6087 18.7867 16.0017 19.2608 15.7252L23.6257 13.1791C24.1057 12.8991 24.722 13.0642 24.9978 13.5467L27.4101 17.7682C28.3959 17.4953 29.4317 17.3499 30.5 17.3499C31.2193 17.3499 31.9238 17.4158 32.6083 17.5422L35.3445 13.4448C35.6532 12.9824 36.2799 12.8606 36.7393 13.1738L40.9182 16.0225C41.3715 16.3315 41.4912 16.9479 41.1866 17.4041L38.8623 20.8847ZM30 34.3499C32.4853 34.3499 34.5 32.3351 34.5 29.8499C34.5 27.3646 32.4853 25.3499 30 25.3499C27.5147 25.3499 25.5 27.3646 25.5 29.8499C25.5 32.3351 27.5147 34.3499 30 34.3499Z" fill="#E5CFC7"/>
<path fill-rule="evenodd" clip-rule="evenodd" d="M32.9286 11.1671C33.3918 10.4735 34.3318 10.291 35.021 10.7607L39.1998 13.6094C39.8797 14.0729 40.0593 14.9976 39.6024 15.6819L37.5008 18.8289C38.918 20.3581 39.9777 22.2469 40.5416 24.3499H44.5C45.3284 24.3499 46 25.0215 46 25.8499V30.3499C46 31.1783 45.3284 31.8499 44.5 31.8499H40.397C39.9524 33.2813 39.2756 34.6045 38.4124 35.7711L40.2534 38.4271C40.7221 39.1033 40.5586 40.0309 39.8869 40.5061L35.7573 43.4277C35.0764 43.9094 34.1333 43.7432 33.6582 43.0577L31.8087 40.3895C30.7545 40.6897 29.6449 40.8499 28.5 40.8499C27.3773 40.8499 26.2886 40.6959 25.2526 40.4068L23.8351 42.8874C23.4215 43.6112 22.497 43.8589 21.7769 43.4389L17.412 40.8928L17.664 40.4609L17.412 40.8928C16.701 40.478 16.457 39.5676 16.8655 38.8529L18.6096 35.8007C17.7359 34.6269 17.0514 33.2934 16.603 31.8499H12.5C11.6716 31.8499 11 31.1783 11 30.3499V25.8499C11 25.0215 11.6716 24.3499 12.5 24.3499H16.4584C16.9361 22.5684 17.7696 20.9406 18.8747 19.555L16.4623 15.3333C16.0538 14.6185 16.2978 13.7082 17.0088 13.2934L21.3737 10.7473C22.0938 10.3272 23.0183 10.5749 23.4319 11.2987L25.6546 15.1883C26.569 14.9669 27.5216 14.8499 28.5 14.8499C29.1361 14.8499 29.7615 14.8994 30.3725 14.9949L32.9286 11.1671ZM34.4577 11.587C34.228 11.4304 33.9147 11.4913 33.7603 11.7225L31.0241 15.8199C30.9131 15.986 30.7139 16.0702 30.5175 16.0339C29.8628 15.913 29.1887 15.8499 28.5 15.8499C27.4773 15.8499 26.4864 15.9891 25.5434 16.2501C25.3231 16.3111 25.0894 16.2148 24.9759 16.0163L22.5636 11.7949C22.4258 11.5536 22.1176 11.471 21.8776 11.611L17.5127 14.1572C17.2757 14.2954 17.1944 14.5989 17.3305 14.8371L19.9138 19.3577C20.0179 19.5399 19.9972 19.7677 19.8619 19.9281C18.6644 21.3487 17.7831 23.0676 17.3344 24.965C17.2811 25.1906 17.0796 25.3499 16.8478 25.3499H12.5C12.2239 25.3499 12 25.5738 12 25.8499V30.3499C12 30.6261 12.2239 30.8499 12.5 30.8499H16.9768C17.2011 30.8499 17.3979 30.9993 17.4583 31.2154C17.8968 32.7847 18.6343 34.2206 19.6015 35.4518C19.7272 35.6118 19.7434 35.8321 19.6425 36.0088L17.7337 39.349C17.5976 39.5872 17.6789 39.8907 17.9159 40.029L22.2808 42.5751C22.5208 42.7151 22.829 42.6326 22.9669 42.3913L24.581 39.5666C24.6978 39.3623 24.9412 39.267 25.1656 39.3379C26.2205 39.6708 27.3398 39.8499 28.5 39.8499C29.6699 39.8499 30.7982 39.6678 31.8609 39.3295C32.0702 39.2628 32.2984 39.3406 32.4235 39.5211L34.48 42.488C34.6384 42.7165 34.9528 42.7719 35.1797 42.6114L39.3093 39.6898C39.5332 39.5314 39.5877 39.2222 39.4315 38.9968L37.3834 36.042C37.2585 35.8617 37.2656 35.621 37.4011 35.4485C38.367 34.218 39.1036 32.7832 39.5417 31.2154C39.6021 30.9993 39.7989 30.8499 40.0232 30.8499H44.5C44.7761 30.8499 45 30.6261 45 30.3499V25.8499C45 25.5738 44.7761 25.3499 44.5 25.3499H40.1522C39.9204 25.3499 39.7189 25.1906 39.6656 24.965C39.1413 22.7479 38.0264 20.7747 36.5066 19.2362C36.3398 19.0673 36.3147 18.8045 36.4465 18.6071L38.7708 15.1265C38.9231 14.8984 38.8632 14.5902 38.6366 14.4357L34.4577 11.587ZM28 23.8499C25.7909 23.8499 24 25.6408 24 27.8499C24 30.0591 25.7909 31.8499 28 31.8499C30.2091 31.8499 32 30.0591 32 27.8499C32 25.6408 30.2091 23.8499 28 23.8499ZM23 27.8499C23 25.0885 25.2386 22.8499 28 22.8499C30.7614 22.8499 33 25.0885 33 27.8499C33 30.6113 30.7614 32.8499 28 32.8499C25.2386 32.8499 23 30.6113 23 27.8499Z" fill="#291D18"/>
<path fill-rule="evenodd" clip-rule="evenodd" d="M66 23C66 19.9624 68.4624 17.5 71.5 17.5H85.5C88.5376 17.5 91 19.9624 91 23V28C91 28.2761 90.7761 28.5 90.5 28.5H66.5C66.2239 28.5 66 28.2761 66 28V23ZM71.5 18.5C69.0147 18.5 67 20.5147 67 23V27.5H90V23C90 20.5147 87.9853 18.5 85.5 18.5H71.5Z" fill="#291D18"/>
</svg>
