<svg width="159" height="86" viewBox="0 0 159 86" fill="none" xmlns="http://www.w3.org/2000/svg">
<path fill-rule="evenodd" clip-rule="evenodd" d="M64.69 65.9697C59.9459 65.9697 56.1 69.8156 56.1 74.5597C56.1 79.3038 59.9459 83.1497 64.69 83.1497C69.4341 83.1497 73.28 79.3038 73.28 74.5597C73.28 69.8156 69.4341 65.9697 64.69 65.9697ZM55.1 74.5597C55.1 69.2633 59.3936 64.9697 64.69 64.9697C69.9864 64.9697 74.28 69.2633 74.28 74.5597C74.28 79.8561 69.9864 84.1497 64.69 84.1497C59.3936 84.1497 55.1 79.8561 55.1 74.5597Z" fill="#291D18"/>
<path fill-rule="evenodd" clip-rule="evenodd" d="M64.7 71.9697C63.2696 71.9697 62.11 73.1293 62.11 74.5597C62.11 75.9901 63.2696 77.1497 64.7 77.1497C66.1304 77.1497 67.29 75.9901 67.29 74.5597C67.29 73.1293 66.1304 71.9697 64.7 71.9697ZM61.11 74.5597C61.11 72.577 62.7173 70.9697 64.7 70.9697C66.6827 70.9697 68.29 72.577 68.29 74.5597C68.29 76.5424 66.6827 78.1497 64.7 78.1497C62.7173 78.1497 61.11 76.5424 61.11 74.5597Z" fill="#291D18"/>
<path fill-rule="evenodd" clip-rule="evenodd" d="M120.79 65.9697C116.046 65.9697 112.2 69.8156 112.2 74.5597C112.2 79.3038 116.046 83.1497 120.79 83.1497C125.534 83.1497 129.38 79.3038 129.38 74.5597C129.38 69.8156 125.534 65.9697 120.79 65.9697ZM111.2 74.5597C111.2 69.2633 115.494 64.9697 120.79 64.9697C126.086 64.9697 130.38 69.2633 130.38 74.5597C130.38 79.8561 126.086 84.1497 120.79 84.1497C115.494 84.1497 111.2 79.8561 111.2 74.5597Z" fill="#291D18"/>
<path fill-rule="evenodd" clip-rule="evenodd" d="M120.79 71.9697C119.36 71.9697 118.2 73.1293 118.2 74.5597C118.2 75.9901 119.36 77.1497 120.79 77.1497C122.22 77.1497 123.38 75.9901 123.38 74.5597C123.38 73.1293 122.22 71.9697 120.79 71.9697ZM117.2 74.5597C117.2 72.577 118.807 70.9697 120.79 70.9697C122.773 70.9697 124.38 72.577 124.38 74.5597C124.38 76.5424 122.773 78.1497 120.79 78.1497C118.807 78.1497 117.2 76.5424 117.2 74.5597Z" fill="#291D18"/>
<path fill-rule="evenodd" clip-rule="evenodd" d="M71 16.3096C71 16.0334 71.2239 15.8096 71.5 15.8096H96.49C96.4979 15.8096 96.5058 15.8098 96.5136 15.8101L96.49 16.3096C96.5136 15.8101 96.5139 15.8101 96.5142 15.8102L96.515 15.8102L96.5171 15.8103L96.5236 15.8106L96.5453 15.8119C96.5636 15.8131 96.5896 15.8149 96.6227 15.8176C96.6889 15.8229 96.7837 15.8317 96.903 15.8459C97.1414 15.8742 97.4787 15.9239 97.882 16.0102C98.6866 16.1822 99.7656 16.5018 100.85 17.0946C103.043 18.2935 105.23 20.6025 105.23 24.9296V71.3696C105.23 71.6442 105.008 71.8675 104.734 71.8696L73.3038 72.1095C73.0277 72.1117 72.8021 71.8895 72.8 71.6134C72.7979 71.3372 73.02 71.1117 73.2962 71.1096L104.23 70.8734V24.9296C104.23 21.0266 102.297 19.0256 100.37 17.972C99.3944 17.4385 98.4134 17.1463 97.673 16.9881C97.3038 16.9091 96.9973 16.8641 96.7851 16.8389C96.6791 16.8263 96.5969 16.8187 96.5424 16.8143C96.5151 16.8121 96.4948 16.8108 96.482 16.8099L96.4759 16.8096H71.5C71.2239 16.8096 71 16.5857 71 16.3096ZM44 59C44.2761 59 44.5 59.2239 44.5 59.5V71.1296H56.07C56.3461 71.1296 56.57 71.3534 56.57 71.6296C56.57 71.9057 56.3461 72.1296 56.07 72.1296H44C43.7239 72.1296 43.5 71.9057 43.5 71.6296V59.5C43.5 59.2239 43.7239 59 44 59Z" fill="#291D18"/>
<path fill-rule="evenodd" clip-rule="evenodd" d="M121.59 22.9893L121.58 23.4893C121.59 22.9894 121.59 22.9893 121.59 22.9893L121.592 22.9894L121.595 22.9895L121.606 22.9898L121.646 22.9911C121.68 22.9923 121.729 22.9944 121.793 22.9978C121.92 23.0046 122.105 23.0168 122.338 23.0384C122.805 23.0814 123.47 23.1619 124.268 23.3118C125.862 23.6112 127.999 24.1898 130.161 25.309C134.51 27.5602 138.927 31.9893 139.24 40.5911C139.24 40.5955 139.24 40.5998 139.24 40.6041C139.24 40.6058 139.24 40.6076 139.24 40.6093V71.4893C139.24 71.7654 139.016 71.9893 138.74 71.9893H129.3C129.024 71.9893 128.8 71.7654 128.8 71.4893C128.8 71.2131 129.024 70.9893 129.3 70.9893H138.24V40.6185C137.94 32.4362 133.779 28.3076 129.701 26.1971C127.65 25.135 125.611 24.5817 124.083 24.2946C123.32 24.1512 122.687 24.0747 122.246 24.0342C122.026 24.0139 121.855 24.0026 121.739 23.9964C121.681 23.9933 121.638 23.9915 121.609 23.9904L121.578 23.9894L121.575 23.9893L105.24 24.0378V70.8693H111.9C112.176 70.8693 112.4 71.0932 112.4 71.3693C112.4 71.6454 112.176 71.8693 111.9 71.8693H104.74C104.464 71.8693 104.24 71.6454 104.24 71.3693V23.5393C104.24 23.2637 104.463 23.0401 104.739 23.0393L121.59 22.9893Z" fill="#291D18"/>
<path fill-rule="evenodd" clip-rule="evenodd" d="M109.5 54C109.5 53.7239 109.724 53.5 110 53.5H116.5C116.776 53.5 117 53.7239 117 54C117 54.2761 116.776 54.5 116.5 54.5H110C109.724 54.5 109.5 54.2761 109.5 54Z" fill="#291D18"/>
<path fill-rule="evenodd" clip-rule="evenodd" d="M135.26 59.4893C135.26 59.2131 135.484 58.9893 135.76 58.9893H138.76C139.036 58.9893 139.26 59.2131 139.26 59.4893C139.26 59.7654 139.036 59.9893 138.76 59.9893H136.26V64.9893H139.735C140.245 64.9391 140.76 65.0017 141.243 65.1726C141.736 65.3466 142.183 65.6285 142.552 65.9976C142.921 66.3667 143.203 66.8138 143.377 67.3059C143.548 67.7895 143.61 68.3046 143.56 68.8147V71.5293C143.56 71.8054 143.336 72.0293 143.06 72.0293H138.82C138.544 72.0293 138.32 71.8054 138.32 71.5293C138.32 71.2531 138.544 71.0293 138.82 71.0293H142.56V68.7893C142.56 68.7716 142.561 68.754 142.563 68.7365C142.602 68.3657 142.558 67.9908 142.434 67.6392C142.31 67.2877 142.108 66.9684 141.845 66.7047C141.581 66.4411 141.262 66.2397 140.91 66.1155C140.558 65.9912 140.184 65.9471 139.813 65.9865C139.795 65.9883 139.778 65.9893 139.76 65.9893H135.76C135.484 65.9893 135.26 65.7654 135.26 65.4893V59.4893Z" fill="#291D18"/>
<path fill-rule="evenodd" clip-rule="evenodd" d="M109.24 28.3994C109.24 28.1233 109.464 27.8994 109.74 27.8994H121.61C125.019 27.8994 128.288 29.2529 130.7 31.6623C133.111 34.0718 134.467 37.3401 134.47 40.749V48.2894C134.47 48.5656 134.246 48.7894 133.97 48.7894H109.74C109.464 48.7894 109.24 48.5656 109.24 48.2894V28.3994ZM110.24 28.8994V47.7894H133.47V40.7498C133.467 37.606 132.217 34.5918 129.993 32.3697C127.769 30.1476 124.754 28.8994 121.61 28.8994H110.24Z" fill="#291D18"/>
<path fill-rule="evenodd" clip-rule="evenodd" d="M125.449 62.9598C123.906 62.2726 122.222 61.9572 120.534 62.039C120.258 62.0524 120.024 61.8396 120.011 61.5638C119.997 61.288 120.21 61.0536 120.486 61.0402C122.33 60.9508 124.169 61.2954 125.856 62.0462C127.543 62.7971 129.03 63.9333 130.197 65.3634C130.372 65.5773 130.34 65.8923 130.126 66.0669C129.912 66.2415 129.597 66.2097 129.423 65.9958C128.354 64.6869 126.993 63.647 125.449 62.9598Z" fill="#291D18"/>
<path fill-rule="evenodd" clip-rule="evenodd" d="M69.354 62.9598C67.8086 62.2726 66.1236 61.9572 64.4342 62.039C64.1584 62.0524 63.924 61.8396 63.9106 61.5638C63.8972 61.288 64.11 61.0536 64.3858 61.0402C66.2313 60.9508 68.072 61.2953 69.7603 62.0461C71.4485 62.7968 72.9373 63.9329 74.1071 65.3631C74.2819 65.5768 74.2503 65.8918 74.0366 66.0666C73.8228 66.2415 73.5078 66.2099 73.333 65.9962C72.2622 64.687 70.8994 63.647 69.354 62.9598Z" fill="#291D18"/>
<path fill-rule="evenodd" clip-rule="evenodd" d="M16.5 84.5C16.5 84.2239 16.7239 84 17 84H153C153.276 84 153.5 84.2239 153.5 84.5C153.5 84.7761 153.276 85 153 85H17C16.7239 85 16.5 84.7761 16.5 84.5Z" fill="#291D18"/>
<path fill-rule="evenodd" clip-rule="evenodd" d="M156.5 84.5C156.5 84.2239 156.724 84 157 84H158.442C158.718 84 158.942 84.2239 158.942 84.5C158.942 84.7761 158.718 85 158.442 85H157C156.724 85 156.5 84.7761 156.5 84.5Z" fill="#291D18"/>
<path fill-rule="evenodd" clip-rule="evenodd" d="M0.5 84.5C0.5 84.2239 0.723858 84 1 84H7.44223C7.71837 84 7.94223 84.2239 7.94223 84.5C7.94223 84.7761 7.71837 85 7.44223 85H1C0.723858 85 0.5 84.7761 0.5 84.5Z" fill="#291D18"/>
<path fill-rule="evenodd" clip-rule="evenodd" d="M42.6811 2C28.2217 2 16.5 13.7217 16.5 28.1811C16.5 42.6405 28.2217 54.3621 42.6811 54.3621C57.1405 54.3621 68.8621 42.6405 68.8621 28.1811C68.8621 13.7217 57.1405 2 42.6811 2ZM15.5 28.1811C15.5 13.1694 27.6694 1 42.6811 1C57.6928 1 69.8621 13.1694 69.8621 28.1811C69.8621 43.1928 57.6928 55.3621 42.6811 55.3621C27.6694 55.3621 15.5 43.1928 15.5 28.1811Z" fill="#291D18"/>
<path fill-rule="evenodd" clip-rule="evenodd" d="M71.5 38.5C71.5 38.2239 71.7239 38 72 38L97 38C97.2761 38 97.5 38.2239 97.5 38.5C97.5 38.7761 97.2761 39 97 39L72 39C71.7239 39 71.5 38.7761 71.5 38.5Z" fill="#291D18"/>
<path fill-rule="evenodd" clip-rule="evenodd" d="M42.9028 24.8865C44.0209 25.9819 44.84 27.3857 45.2251 28.9617H48.2942C48.684 28.9617 49.0001 29.2676 49.0001 29.6449V32.7191C49.0001 33.0964 48.684 33.4022 48.2942 33.4022H45.1341C44.8123 34.5169 44.2711 35.5374 43.5608 36.4131L45.0065 38.4317C45.2271 38.7397 45.1501 39.1621 44.834 39.3786L41.919 41.3745C41.5986 41.5939 41.1548 41.5182 40.9312 41.206L39.4795 39.179C38.6953 39.4207 37.8627 39.5507 37.0001 39.5507C36.1445 39.5507 35.3186 39.4228 34.5401 39.185L33.4007 41.1148C33.2061 41.4444 32.7711 41.5572 32.4322 41.3659L29.3511 39.6265C29.0165 39.4376 28.9017 39.023 29.0939 38.6974L30.4412 36.4155C29.73 35.5393 29.1881 34.5179 28.866 33.4022H25.7059C25.3161 33.4022 25.0001 33.0964 25.0001 32.7191V29.6449C25.0001 29.2676 25.3161 28.9617 25.7059 28.9617H28.775C29.1046 27.6129 29.7521 26.3902 30.6327 25.3791L28.8093 22.2908C28.6171 21.9653 28.7319 21.5507 29.0665 21.3618L32.1476 19.6223C32.4864 19.431 32.9215 19.5439 33.1161 19.8735L34.8189 22.7574C35.5148 22.571 36.2459 22.4717 37.0001 22.4717C37.5078 22.4717 38.0051 22.5167 38.4882 22.603L40.4197 19.8038C40.6376 19.488 41.08 19.4048 41.4043 19.6188L44.3541 21.5649C44.674 21.7759 44.7586 22.1971 44.5435 22.5087L42.9028 24.8865ZM36.6471 34.0854C38.4014 34.0854 39.8236 32.709 39.8236 31.0112C39.8236 29.3133 38.4014 27.937 36.6471 27.937C34.8928 27.937 33.4706 29.3133 33.4706 31.0112C33.4706 32.709 34.8928 34.0854 36.6471 34.0854Z" fill="#E5CFC7"/>
<path fill-rule="evenodd" clip-rule="evenodd" d="M38.3601 18.5282C38.7223 17.9804 39.4615 17.8334 40.0043 18.207L42.8311 20.1531C43.3636 20.5197 43.5017 21.2471 43.1462 21.7846L41.7914 23.8335C42.7001 24.8515 43.3862 26.0894 43.7701 27.4618H46.3235C46.9779 27.4618 47.5 27.9962 47.5 28.645V31.7192C47.5 32.368 46.9779 32.9023 46.3235 32.9023H43.6674C43.3732 33.8173 42.9431 34.6671 42.402 35.4251L43.5851 37.1489C43.9498 37.6802 43.8241 38.4098 43.2982 38.7855L40.5047 40.7814C39.9686 41.1644 39.2268 41.0306 38.8551 40.489L37.6696 38.7618C36.9761 38.9505 36.2489 39.0508 35.5 39.0508C34.7699 39.0508 34.0605 38.9555 33.3828 38.7759L32.4858 40.3611C32.1628 40.932 31.4363 41.1312 30.8687 40.7968L31.1225 40.366L30.8687 40.7968L27.916 39.0574C27.3583 38.7289 27.1707 38.0122 27.4881 37.4513L28.6185 35.4536C28.0677 34.6884 27.6305 33.8288 27.3326 32.9023H24.6765C24.0221 32.9023 23.5 32.368 23.5 31.7192V28.645C23.5 27.9962 24.0221 27.4618 24.6765 27.4618H27.2299C27.5534 26.3056 28.0913 25.2448 28.796 24.3307L27.2153 21.5372C26.8979 20.9762 27.0856 20.2596 27.6432 19.9311L30.5959 18.1916C31.1636 17.8572 31.89 18.0565 32.2131 18.6274L31.7779 18.8736L32.2131 18.6274L33.6569 21.1791C34.2511 21.0433 34.8678 20.9718 35.5 20.9718C35.9028 20.9718 36.2994 21.0008 36.6879 21.057L38.3601 18.5282ZM39.4372 19.0307C39.3583 18.9764 39.2497 18.9957 39.1942 19.0797L37.3432 21.8789C37.2324 22.0465 37.0321 22.1315 36.8345 22.0947C36.4016 22.0139 35.9557 21.9718 35.5 21.9718C34.8234 21.9718 34.168 22.0648 33.5444 22.2391C33.3229 22.301 33.0878 22.2039 32.9746 22.0038L31.3427 19.1198C31.2927 19.0314 31.1853 19.0051 31.1035 19.0533L28.1508 20.7927C28.067 20.842 28.0347 20.9546 28.0857 21.0447L29.8332 24.133C29.9357 24.3141 29.9152 24.5398 29.7818 24.6996C28.9875 25.6512 28.4025 26.8033 28.1045 28.0758C28.0515 28.3019 27.8499 28.4618 27.6177 28.4618H24.6765C24.5836 28.4618 24.5 28.5392 24.5 28.645V31.7192C24.5 31.825 24.5836 31.9023 24.6765 31.9023H27.7049C27.9296 31.9023 28.1268 32.0524 28.1868 32.269C28.478 33.3214 28.9675 34.2838 29.6091 35.1086C29.7331 35.2679 29.749 35.4862 29.6496 35.6618L28.3584 37.9438C28.3074 38.0339 28.3398 38.1465 28.4235 38.1958L31.3763 39.9352C31.4581 39.9834 31.5655 39.957 31.6155 39.8686L32.7074 37.9389C32.824 37.7329 33.0689 37.6369 33.2944 37.7087C33.9922 37.9311 34.7324 38.0508 35.5 38.0508C36.274 38.0508 37.0202 37.9291 37.7231 37.7031C37.9335 37.6355 38.1633 37.714 38.2884 37.8962L39.6796 39.9231C39.7364 40.0059 39.8453 40.0235 39.9233 39.9678L42.7169 37.9718C42.7968 37.9147 42.8186 37.7994 42.7606 37.7147L41.3751 35.6962C41.252 35.5167 41.259 35.2782 41.3926 35.1064C42.0334 34.2821 42.5223 33.3204 42.8132 32.269C42.8732 32.0524 43.0704 31.9023 43.2951 31.9023H46.3235C46.4164 31.9023 46.5 31.825 46.5 31.7192V28.645C46.5 28.5392 46.4164 28.4618 46.3235 28.4618H43.3824C43.1501 28.4618 42.9485 28.3019 42.8955 28.0758C42.5473 26.5888 41.8071 25.2665 40.7994 24.2363C40.6347 24.0679 40.6098 23.8073 40.7398 23.6109L42.3121 21.233C42.3688 21.1473 42.3449 21.0324 42.2641 20.9768L39.4372 19.0307ZM35.1618 27.4371C33.7613 27.4371 32.6176 28.5849 32.6176 30.0113C32.6176 31.4376 33.7613 32.5855 35.1618 32.5855C36.5622 32.5855 37.7059 31.4376 37.7059 30.0113C37.7059 28.5849 36.5622 27.4371 35.1618 27.4371ZM31.6176 30.0113C31.6176 28.0419 33.1998 26.4371 35.1618 26.4371C37.1238 26.4371 38.7059 28.0419 38.7059 30.0113C38.7059 31.9806 37.1238 33.5855 35.1618 33.5855C33.1998 33.5855 31.6176 31.9806 31.6176 30.0113Z" fill="#291D18"/>
<path d="M61.4038 16.1997C61.2779 15.7604 61.114 15.338 60.9141 14.9356L60.8163 14.7387L60.5997 14.7015C59.9254 14.5857 59.2427 14.9029 58.9006 15.508L56.5669 19.7179L56.5283 19.7818C56.3527 20.0524 56.0202 20.2037 55.685 20.1549L53.6161 19.8536L53.5434 19.8402C53.3653 19.8014 53.1924 19.6952 53.0681 19.5418L51.8665 18.058L51.8223 17.999C51.6391 17.7382 51.621 17.3784 51.7856 17.0872L54.2442 12.7378L54.29 12.6492C54.5747 12.0355 54.4082 11.325 53.8986 10.9121L53.7628 10.8021L53.5887 10.8172C53.1112 10.8587 52.6362 10.9464 52.1686 11.0805C48.2047 12.2171 45.9128 16.3519 47.0494 20.3157L47.1126 20.5249C47.311 21.1484 47.587 21.7363 47.9332 22.2779L47.9558 22.3115L47.9266 22.3407C47.7218 22.5545 47.544 22.7953 47.3976 23.0594L43.6478 29.8243L35.0209 44.7297C34.4909 45.6454 34.7658 46.8154 35.6481 47.3993L38.1747 49.0715C39.1415 49.7114 40.448 49.3978 41.0191 48.3888L53.4547 26.417L53.5237 26.2861C53.6118 26.1101 53.6842 25.9284 53.7406 25.7426L53.7498 25.7104L53.7809 25.7128C54.6173 25.7628 55.4614 25.671 56.2846 25.4349C60.2485 24.2983 62.5405 20.1635 61.4038 16.1997Z" fill="#E4E4E4"/>
<path d="M62.4038 17.1997C62.2779 16.7604 62.114 16.338 61.9141 15.9356L61.8163 15.7387L61.5997 15.7015C60.9254 15.5857 60.2427 15.9029 59.9006 16.508L57.5669 20.7179L57.5283 20.7818C57.3527 21.0524 57.0202 21.2037 56.685 21.1549L54.6161 20.8536L54.5434 20.8402C54.3653 20.8014 54.1924 20.6952 54.0681 20.5418L52.8665 19.058L52.8223 18.999C52.6391 18.7382 52.621 18.3784 52.7856 18.0872L55.2442 13.7378L55.29 13.6492C55.5747 13.0355 55.4082 12.325 54.8986 11.9121L54.7628 11.8021L54.5887 11.8172C54.1112 11.8587 53.6362 11.9464 53.1686 12.0805C49.2047 13.2171 46.9128 17.3519 48.0494 21.3157L48.1126 21.5249C48.311 22.1484 48.587 22.7363 48.9332 23.2779L48.9558 23.3115L48.9266 23.3407C48.7218 23.5545 48.544 23.7953 48.3976 24.0594L44.6478 30.8243L36.0209 45.7297C35.4909 46.6454 35.7658 47.8154 36.6481 48.3993L39.1747 50.0715C40.1415 50.7114 41.448 50.3978 42.0191 49.3888L54.4547 27.417L54.5237 27.2861C54.6118 27.1101 54.6842 26.9284 54.7406 26.7426L54.7498 26.7104L54.7809 26.7128C55.6173 26.7628 56.4614 26.671 57.2846 26.4349C61.2485 25.2983 63.5405 21.1635 62.4038 17.1997Z" fill="#E5CFC7"/>
<path fill-rule="evenodd" clip-rule="evenodd" d="M61.0818 14.2705C61.2818 14.673 61.4456 15.0954 61.5716 15.5346C62.7082 19.4985 60.4163 23.6333 56.4524 24.7699C55.6292 25.0059 54.785 25.0978 53.9487 25.0477L53.9176 25.0453L53.9084 25.0776C53.8519 25.2634 53.7795 25.4451 53.6915 25.6211L53.6225 25.7519L41.1868 47.7238C40.6158 48.7327 39.3093 49.0463 38.3425 48.4065L35.8158 46.7343C34.9335 46.1504 34.6587 44.9803 35.1886 44.0646L43.8155 29.1593L47.5653 22.3944C47.7117 22.1303 47.8896 21.8894 48.0944 21.6757L48.1236 21.6465L48.1009 21.6129C47.7548 21.0713 47.4788 20.4834 47.2804 19.8599L47.2172 19.6507C46.0805 15.6868 48.3725 11.5521 52.3363 10.4155C52.804 10.2814 53.279 10.1936 53.7564 10.1522L53.9306 10.1371L54.0663 10.2471C54.5759 10.66 54.7424 11.3705 54.4578 11.9841L54.4119 12.0727L51.9534 16.4221C51.7887 16.7134 51.8069 17.0731 51.99 17.3339L52.0343 17.3929L53.2359 18.8767C53.3601 19.0302 53.533 19.1364 53.7111 19.1752L53.7839 19.1886L55.8528 19.4899C56.1879 19.5387 56.5204 19.3874 56.696 19.1168L56.7347 19.0529L59.0683 14.843C59.4105 14.2378 60.0932 13.9207 60.7675 14.0365L60.9841 14.0737L61.0818 14.2705ZM56.2138 23.9371C59.7181 22.9323 61.7443 19.2769 60.7395 15.7726C60.6726 15.5393 60.5937 15.3116 60.5031 15.09L60.4139 14.8818L60.3521 14.8906C60.1556 14.9267 59.9769 15.0384 59.8602 15.207L59.8237 15.2653L57.4844 19.4848L57.4305 19.5742C57.0634 20.141 56.3985 20.4435 55.728 20.3459L53.6446 20.0422L53.5427 20.0235C53.1574 19.9402 52.8117 19.7278 52.5632 19.4209L51.3525 17.9256L51.2906 17.8432C50.9068 17.2975 50.8705 16.5781 51.1998 15.9955L53.6501 11.6614L53.68 11.6039C53.7646 11.4213 53.7448 11.2113 53.6392 11.0495L53.6286 11.0346L53.41 11.0643C53.1999 11.0963 52.9905 11.1385 52.7825 11.191L52.575 11.247C49.0707 12.2518 47.0445 15.9072 48.0493 19.4115C48.2629 20.1563 48.5994 20.8458 49.0432 21.4586L49.2844 21.7917L48.964 22.0496C48.7051 22.2581 48.4876 22.5157 48.3225 22.8135L44.6809 29.3832L35.739 44.5613C35.4654 45.0256 35.609 45.6232 36.0637 45.9125L38.9385 47.742C39.4211 48.0491 40.0627 47.8895 40.345 47.3919L52.8654 25.3316C52.9889 25.1087 53.0778 24.873 53.1311 24.6302L53.1548 24.5082L53.2233 24.1028L53.6317 24.1504C54.4903 24.2507 55.364 24.1808 56.2138 23.9371Z" fill="#291D18"/>
<path d="M40.4069 44.2403C40.4069 44.9128 39.8616 45.458 39.1891 45.458C38.5165 45.458 37.9713 44.9128 37.9713 44.2403C37.9713 43.5677 38.5165 43.0225 39.1891 43.0225C39.8616 43.0225 40.4069 43.5677 40.4069 44.2403Z" fill="#291D18"/>
<path fill-rule="evenodd" clip-rule="evenodd" d="M51.8473 24.6324C51.929 24.4317 51.8491 24.1972 51.6545 24.0903C51.445 23.9752 51.1819 24.0518 51.0668 24.2613L46.2607 33.0126L46.239 33.0582C46.1572 33.2589 46.2372 33.4935 46.4317 33.6003C46.6413 33.7154 46.9044 33.6388 47.0195 33.4293L51.8256 24.6781L51.8473 24.6324ZM46.1273 35.0501C46.2154 34.8521 46.143 34.6151 45.9519 34.5021C45.7461 34.3804 45.4807 34.4486 45.359 34.6543L43.6808 37.4919L43.6576 37.5369C43.5696 37.7349 43.642 37.9718 43.8331 38.0848C44.0388 38.2065 44.3043 38.1384 44.426 37.9326L46.1041 35.095L46.1273 35.0501Z" fill="#291D18"/>
</svg>
