<svg width="251" height="197" viewBox="0 0 251 197" fill="none" xmlns="http://www.w3.org/2000/svg">
<path fill-rule="evenodd" clip-rule="evenodd" d="M89.4151 152.779L87.2051 152.197C47.8833 141.796 21.7131 132.144 8.58291 123.152C19.851 142.365 58.7328 160.898 125.097 178.323C125.4 178.204 125.74 178.172 126.082 178.248L164.466 186.817C177.511 189.103 187.783 186.389 195.469 178.704C201.139 173.034 209.353 165.424 220.074 155.907L227.422 149.43L235.478 142.414C243.635 133.833 243.635 127.205 235.713 121.474C226.964 115.145 218.774 110.076 211.146 106.266C210.308 105.847 209.968 104.827 210.386 103.988C210.804 103.149 211.822 102.808 212.661 103.227C220.464 107.125 228.809 112.29 237.699 118.721C247.417 125.751 247.417 134.781 237.816 144.869C221.502 159.009 209.238 170.055 201.03 177.998L199.39 179.597L197.866 181.107C189.352 189.621 177.961 192.63 163.805 190.148L126.39 181.797C126.054 181.944 125.667 181.983 125.285 181.883C52.6734 162.913 12.1355 142.616 3.5089 120.462C3.40253 120.189 3.37159 119.905 3.40597 119.633C3.41251 119.581 3.4215 119.529 3.43301 119.477C3.66721 118.417 3.90468 117.365 4.14545 116.321C4.07543 115.499 4.12458 114.659 4.30251 113.826L11.5147 80.0386C23.2214 30.6677 54.7995 3.39648 106.49 3.39648C161.345 3.39648 205.814 47.8762 205.814 102.746V121.974C205.814 122.417 205.642 122.842 205.333 123.159C174.357 155.005 135.634 164.886 89.4151 152.779ZM9.63404 119.744C8.53447 118.956 7.81636 117.782 7.58661 116.498L7.59875 116.445L8.46261 112.828C22.7928 54.3456 47.975 24.9102 91.025 24.9102C99.1064 24.9102 107.003 25.8939 114.555 27.8473C118.154 28.7781 121.669 29.9275 125.084 31.2919C125.954 31.6395 126.941 31.215 127.288 30.3438C127.635 29.4727 127.211 28.4847 126.341 28.1372C122.792 26.7193 119.141 25.5252 115.404 24.5587C107.571 22.5328 99.3897 21.5136 91.025 21.5136C54.4793 21.5136 30.3218 41.7598 14.6784 81.4643L14.8232 80.7859C26.1716 32.9284 56.4343 6.79304 106.49 6.79304C159.472 6.79304 202.422 49.753 202.422 102.746V121.281C198.635 125.137 194.731 128.655 190.711 131.837C189.887 82.4098 169.339 46.8756 135.489 30.7375C134.643 30.3343 133.631 30.694 133.228 31.5409C132.826 32.3877 133.185 33.4011 134.031 33.8042C167.221 49.6278 187.2 84.8927 187.344 134.403C160.185 154.318 127.877 159.343 90.2736 149.493L85.922 148.342L81.6792 147.197C45.379 137.304 21.3302 128.125 9.63404 119.744Z" fill="#291D18"/>
</svg>
