<svg width="109" height="86" viewBox="0 0 109 86" fill="none" xmlns="http://www.w3.org/2000/svg">
<path d="M23.5115 20.5437C23.0197 19.5547 23.4227 18.3542 24.4118 17.8624L53.6377 3.32911C54.6267 2.83729 55.8272 3.24036 56.319 4.22939L70.2046 32.1527C70.6964 33.1418 70.2933 34.3422 69.3043 34.8341L40.0784 49.3674C39.0894 49.8592 37.8889 49.4561 37.3971 48.4671L23.5115 20.5437Z" fill="#E5CFC7"/>
<path d="M68.7824 40.4855C67.7787 40.0243 67.339 38.8368 67.8002 37.8331L77.5949 16.5184C78.0561 15.5147 79.2436 15.0749 80.2473 15.5361L89.1002 19.6043C90.1039 20.0655 90.5437 21.2531 90.0825 22.2567L80.2878 43.5715C79.8266 44.5751 78.639 45.0149 77.6354 44.5537L68.7824 40.4855Z" fill="#E5CFC7"/>
<path fill-rule="evenodd" clip-rule="evenodd" d="M22 36.5C22 36.2239 22.2239 36 22.5 36H86.5C86.7761 36 87 36.2239 87 36.5V84.5H86V37H23V84.5H22V36.5Z" fill="#291D18"/>
<path fill-rule="evenodd" clip-rule="evenodd" d="M57 65.5C57 65.2239 57.2239 65 57.5 65H78.5C78.7761 65 79 65.2239 79 65.5V75.5C79 75.7761 78.7761 76 78.5 76H57.5C57.2239 76 57 75.7761 57 75.5V65.5ZM58 66V75H78V66H58Z" fill="#291D18"/>
<path fill-rule="evenodd" clip-rule="evenodd" d="M22.8536 36.1464C23.0488 36.3417 23.0488 36.6583 22.8536 36.8536L4.85355 54.8536C4.65829 55.0488 4.34171 55.0488 4.14645 54.8536C3.95118 54.6583 3.95118 54.3417 4.14645 54.1464L22.1464 36.1464C22.3417 35.9512 22.6583 35.9512 22.8536 36.1464Z" fill="#291D18"/>
<path fill-rule="evenodd" clip-rule="evenodd" d="M104.854 54.8536C104.658 55.0488 104.342 55.0488 104.146 54.8536L86.1464 36.8536C85.9512 36.6583 85.9512 36.3417 86.1464 36.1464C86.3417 35.9512 86.6583 35.9512 86.8536 36.1464L104.854 54.1464C105.049 54.3417 105.049 54.6583 104.854 54.8536Z" fill="#291D18"/>
<path fill-rule="evenodd" clip-rule="evenodd" d="M12 84.5C12 84.2239 12.2239 84 12.5 84H101.942C102.218 84 102.442 84.2239 102.442 84.5C102.442 84.7761 102.218 85 101.942 85H12.5C12.2239 85 12 84.7761 12 84.5Z" fill="#291D18"/>
<path fill-rule="evenodd" clip-rule="evenodd" d="M106 84.5C106 84.2239 106.224 84 106.5 84H107.942C108.218 84 108.442 84.2239 108.442 84.5C108.442 84.7761 108.218 85 107.942 85H106.5C106.224 85 106 84.7761 106 84.5Z" fill="#291D18"/>
<path fill-rule="evenodd" clip-rule="evenodd" d="M1 84.5C1 84.2239 1.22386 84 1.5 84H7.94223C8.21837 84 8.44223 84.2239 8.44223 84.5C8.44223 84.7761 8.21837 85 7.94223 85H1.5C1.22386 85 1 84.7761 1 84.5Z" fill="#291D18"/>
<path fill-rule="evenodd" clip-rule="evenodd" d="M18.9428 18.7258C18.328 17.4895 18.8319 15.9889 20.0682 15.3742L39.2365 5.84263C39.4837 5.71967 39.7839 5.82045 39.9068 6.06771C40.0298 6.31497 39.929 6.61508 39.6817 6.73803L20.5134 16.2696C19.7717 16.6384 19.4693 17.5388 19.8382 18.2806L28.4058 35.5103C28.5287 35.7576 28.428 36.0577 28.1807 36.1806C27.9335 36.3036 27.6333 36.2028 27.5104 35.9556L18.9428 18.7258ZM43.669 4.19694C43.546 3.94968 43.6468 3.64957 43.8941 3.52661L49.0896 0.943089C50.3259 0.328332 51.8265 0.83219 52.4413 2.06849L66.2934 29.9255C66.9081 31.1618 66.4043 32.6624 65.168 33.2772L59.0512 36.3188C58.804 36.4417 58.5039 36.3409 58.3809 36.0937C58.258 35.8464 58.3587 35.5463 58.606 35.4234L64.7227 32.3818C65.4645 32.0129 65.7668 31.1126 65.398 30.3708L51.5459 2.51374C51.177 1.77196 50.2767 1.46964 49.5349 1.8385L44.3393 4.42202C44.0921 4.54497 43.7919 4.4442 43.669 4.19694Z" fill="#291D18"/>
<path fill-rule="evenodd" clip-rule="evenodd" d="M27.6598 21.6526C27.045 20.4163 27.5489 18.9157 28.7852 18.3009L46.1627 9.65988C47.399 9.04512 48.8995 9.54898 49.5143 10.7853L57.5764 26.9984C58.1911 28.2347 57.6873 29.7352 56.451 30.35L44.269 36.4076C44.0218 36.5305 43.7217 36.4297 43.5987 36.1825C43.4758 35.9352 43.5765 35.6351 43.8238 35.5121L56.0057 29.4546C56.7475 29.0857 57.0498 28.1854 56.681 27.4436L48.6189 11.2305C48.25 10.4887 47.3497 10.1864 46.6079 10.5553L29.2304 19.1964C28.4886 19.5652 28.1863 20.4656 28.5552 21.2073L35.7803 35.7372C35.9032 35.9845 35.8024 36.2846 35.5552 36.4076C35.3079 36.5305 35.0078 36.4297 34.8849 36.1825L27.6598 21.6526Z" fill="#291D18"/>
<path fill-rule="evenodd" clip-rule="evenodd" d="M65.7913 32.3162C65.5403 32.2009 65.4304 31.904 65.5457 31.6531L74.0651 13.1095C74.6415 11.8549 76.1259 11.3051 77.3805 11.8815L86.4674 16.0562C87.722 16.6327 88.2718 18.117 87.6954 19.3716L80.1894 35.7095C80.0741 35.9604 79.7772 36.0704 79.5263 35.9551C79.2753 35.8398 79.1654 35.543 79.2807 35.292L86.7867 18.9542C87.1326 18.2014 86.8027 17.3108 86.0499 16.9649L76.963 12.7902C76.2103 12.4443 75.3196 12.7742 74.9738 13.527L66.4544 32.0706C66.3391 32.3215 66.0422 32.4314 65.7913 32.3162Z" fill="#291D18"/>
<path fill-rule="evenodd" clip-rule="evenodd" d="M68.2687 34.1072C67.5165 33.7616 67.1869 32.8717 67.5325 32.1195L75.048 15.761C75.3936 15.0088 76.2835 14.6791 77.0357 15.0247C77.7879 15.3703 78.1175 16.2602 77.7719 17.0124L70.2564 33.3709C69.9108 34.1231 69.0209 34.4527 68.2687 34.1072ZM68.4411 32.537C68.3261 32.7873 68.4358 33.0835 68.6862 33.1985C68.9365 33.3135 69.2327 33.2038 69.3477 32.9535L76.8632 16.5949C76.9783 16.3446 76.8686 16.0484 76.6182 15.9334C76.3679 15.8184 76.0717 15.9281 75.9567 16.1784L68.4411 32.537Z" fill="#291D18"/>
<path d="M23.5 37H85.5V54H23.5V37Z" fill="white"/>
</svg>
