<svg xmlns="http://www.w3.org/2000/svg" width="50" height="55" viewBox="0 0 50 55">
  <g fill="none" fill-rule="evenodd" transform="translate(0 1)">
    <path fill="#239A98" d="M2,37 C2.55228475,37 3,37.4477153 3,38 C3,38.5522847 2.55228475,39 2,39 C1.44771525,39 1,38.5522847 1,38 C1,37.4477153 1.44771525,37 2,37 Z M43,20 C43.5522847,20 44,20.4477153 44,21 C44,21.5522847 43.5522847,22 43,22 C42.4477153,22 42,21.5522847 42,21 C42,20.4477153 42.4477153,20 43,20 Z M2,7 C2.55228475,7 3,7.44771525 3,8 C3,8.55228475 2.55228475,9 2,9 C1.44771525,9 1,8.55228475 1,8 C1,7.44771525 1.44771525,7 2,7 Z M38,4 C39.1045695,4 40,4.8954305 40,6 C40,7.1045695 39.1045695,8 38,8 C36.8954305,8 36,7.1045695 36,6 C36,4.8954305 36.8954305,4 38,4 Z M16,4 C16.5522847,4 17,4.44771525 17,5 C17,5.55228475 16.5522847,6 16,6 C15.4477153,6 15,5.55228475 15,5 C15,4.44771525 15.4477153,4 16,4 Z M27,0 C27.5522847,0 28,0.44771525 28,1 C28,1.55228475 27.5522847,2 27,2 C26.4477153,2 26,1.55228475 26,1 C26,0.44771525 26.4477153,0 27,0 Z"/>
    <path fill="#8C8D8E" fill-rule="nonzero" d="M35,0.25 L35.0255704,0.250396705 C35.0469676,0.25114233 35.06831,0.252799654 35.0895356,0.255358185 L35,0.25 C35.2667026,0.25 35.4802635,0.378707373 35.6105691,0.563421021 C35.6104184,0.564235993 35.6109325,0.564957147 35.6114456,0.565679482 C36.3380017,1.58854051 36.75,3.00374372 36.75,4.50894533 C36.75,4.90631283 36.7214186,5.29843371 36.6652175,5.68032431 C36.6049092,6.090124 36.2238114,6.37344273 35.8140117,6.31313442 C35.404212,6.2528261 35.1208933,5.87172827 35.1812016,5.46192859 C35.226739,5.15249816 35.25,4.83337069 35.25,4.50894533 C35.25,3.67766102 35.0963424,2.89150226 34.8247072,2.23518804 L32.4319385,4.62846525 C34.2987099,5.25012231 35.6961572,6.90257115 35.9404877,8.92441659 L35.963112,9.15389264 L36.7773602,19.7995868 C36.9421786,21.9544656 36.138515,24.1088811 34.6615137,25.3702293 L44.2839746,29.3058398 C44.5555589,29.4164134 44.75,29.6841892 44.75,30 L44.75,30 L44.75,38.5 C44.75,38.8892449 44.4522228,39.213797 44.0644163,39.2472286 L44.0644163,39.2472286 L15.0644163,41.7472286 C15.0634055,41.7473157 15.062395,41.7474008 15.0613849,41.7474839 C14.9455474,41.7585294 14.8254662,41.7414526 14.7102877,41.6924349 C14.7006075,41.6879724 14.6910351,41.683714 14.6815682,41.6792626 C14.6484026,41.6637094 14.6158429,41.6452831 14.5839749,41.6240377 L14.6407442,41.6585196 C14.6254898,41.6501729 14.6105502,41.6413095 14.59595,41.6319518 L14.5839749,41.6240377 L5.58397485,35.6240377 C5.37532585,35.4849384 5.25,35.2507649 5.25,35 L5.25,35 L5.25,27.034 L3.2530801,5.06790181 C3.25069944,5.03934154 3.24986545,5.01706952 3.25001715,4.99480072 C3.25036266,4.9302491 3.25903537,4.86565558 3.27625464,4.80252003 C3.27957807,4.79035794 3.28315264,4.77846029 3.28701298,4.76668305 C3.29276029,4.74910614 3.29920409,4.73165214 3.30633521,4.7143763 C3.31245978,4.69959353 3.31889177,4.68532022 3.32575222,4.67128229 C3.33322372,4.65596103 3.3415137,4.64038653 3.3504067,4.62502275 C3.35922329,4.60977745 3.36838326,4.59514458 3.37802734,4.58085197 C3.38186951,4.57519005 3.38574161,4.56961295 3.3896999,4.56407135 L3.40164622,4.54780464 C3.4155343,4.52943883 3.43025751,4.51171618 3.4457656,4.49469699 L3.3896999,4.56407135 C3.41428897,4.52964665 3.44125273,4.49792349 3.4702087,4.46896562 L7.36560256,0.476257111 C7.47852026,0.360516474 7.62498643,0.285156305 7.78254303,0.259641863 L7.90243902,0.25 L35,0.25 Z M43.25,30.803 L15.75,32.7 L15.75,40.182 L43.25,37.811 L43.25,30.803 Z M6.75,28.274 L6.75,34.598 L14.25,39.598 L14.25,32.441 L6.75,28.274 Z M3,33.25 C3.41421356,33.25 3.75,33.5857864 3.75,34 C3.75,34.3796958 3.46784612,34.693491 3.10177056,34.7431534 L3,34.75 L1,34.75 C0.585786438,34.75 0.25,34.4142136 0.25,34 C0.25,33.6203042 0.532153882,33.306509 0.898229443,33.2568466 L1,33.25 L3,33.25 Z M49,33.25 C49.4142136,33.25 49.75,33.5857864 49.75,34 C49.75,34.3796958 49.4678461,34.693491 49.1017706,34.7431534 L49,34.75 L47,34.75 C46.5857864,34.75 46.25,34.4142136 46.25,34 C46.25,33.6203042 46.5321539,33.306509 46.8982294,33.2568466 L47,33.25 L49,33.25 Z M32.25,26.292 L25.679,26.657 L8.632,27.604 L15.169,31.236 L32.25,30.058 L32.25,26.292 Z M33.75,26.617 L33.75,29.954 L40.732,29.473 L33.75,26.617 Z M33.189,1.75 L9.62715676,1.75084334 C10.0447753,2.45688365 10.2736129,3.25826403 10.2736129,4.09494296 C10.2736129,5.75185139 9.3755902,7.26139114 7.91979334,8.16655979 C7.62118989,8.35222201 7.24281612,8.30255886 7.00148747,8.0681364 L4.894,6.56 L6.67427726,26.1386028 C7.98295491,25.4842908 8.74506039,24.1185307 8.69755022,22.5611933 L8.68586214,22.3455438 L7.53003245,10.5560811 C7.48961705,10.1438439 7.79103813,9.77689654 8.20327163,9.7364394 C8.58115934,9.69943368 8.92098742,9.94962383 9.0061314,10.309107 L9.02287524,10.409724 L10.1800205,22.2141462 C10.2930571,23.6659335 9.88460111,25.0326008 9.06414126,26.0789288 L32.179,24.794 L30.353,5.761 L12.7056281,6.07296093 C12.3259913,6.07964807 12.0072755,5.80306446 11.9511735,5.43792032 L11.9425356,5.33628613 C11.9358484,4.95664926 12.2124321,4.63793348 12.5775762,4.5818315 L12.6792104,4.57319358 L30.683,4.255 L33.189,1.75 Z M31.8862997,6.02881765 L33.6360375,24.270427 C34.7081269,23.3859904 35.3546054,21.7906643 35.2946954,20.1439515 L35.2817286,19.9139819 L34.4674804,9.26828775 C34.3499339,7.7314541 33.2990772,6.46740617 31.8862997,6.02881765 Z M7.96794541,2.00698193 L5.147,4.897 L7.53376806,6.60262042 C8.31678642,5.96198373 8.77361289,5.05951109 8.77361289,4.09494296 C8.77361289,3.32759223 8.48562499,2.59852666 7.96794541,2.00698193 Z" transform="translate(0 12)"/>
  </g>
</svg>
