<svg width="235" height="347" viewBox="0 0 235 347" fill="none" xmlns="http://www.w3.org/2000/svg">
<ellipse rx="22.5916" ry="39.5481" transform="matrix(0.742107 -0.670282 0.667978 0.744181 55.1719 168.036)" fill="#E5CFC7"/>
<ellipse rx="30.0994" ry="53.7128" transform="matrix(0.890433 -0.455115 0.452868 0.891578 67.5003 73.6983)" fill="#E5CFC7"/>
<ellipse rx="30.1125" ry="48.038" transform="matrix(-0.808144 -0.588984 -0.586586 0.809887 178.865 83.9313)" fill="#E5CFC7"/>
<path d="M52.1831 56.877C52.9784 56.2074 54.1642 56.3113 54.8317 57.109C84.5027 92.5684 97.1338 150.366 92.8691 230.472C92.8137 231.512 91.9283 232.31 90.8915 232.255C89.8547 232.199 89.0591 231.311 89.1144 230.271C93.3332 151.029 80.8976 94.1267 51.9518 59.5339C51.2843 58.7361 51.3878 57.5466 52.1831 56.877Z" fill="#291D18"/>
<path d="M169.207 68.5891C169.924 67.8359 171.114 67.8086 171.865 68.5281C172.616 69.2475 172.643 70.4413 171.926 71.1944C134.936 110.037 110.689 163.187 99.2081 230.691C99.0335 231.717 98.0622 232.408 97.0387 232.232C96.0152 232.057 95.3271 231.083 95.5017 230.056C107.102 161.852 131.663 108.014 169.207 68.5891Z" fill="#291D18"/>
<path d="M44.3268 157.879C45.1074 157.192 46.2952 157.27 46.9799 158.053C64.5141 178.105 76.5553 202.077 83.0988 229.941C83.3369 230.955 82.7106 231.97 81.7 232.209C80.6894 232.448 79.6771 231.82 79.439 230.806C73.0341 203.532 61.2736 180.119 44.1532 160.541C43.4685 159.758 43.5463 158.566 44.3268 157.879Z" fill="#291D18"/>
<path fill-rule="evenodd" clip-rule="evenodd" d="M25.8901 172.865C12.8557 155.512 9.82526 135.434 19.8648 127.844C29.9043 120.255 48.307 128.711 61.3414 146.064C74.3757 163.418 77.4062 183.496 67.3666 191.085C57.3271 198.675 38.9244 190.218 25.8901 172.865ZM47.0917 136.696C37.569 129.185 27.7124 126.632 22.1262 130.855C16.5399 135.078 16.2688 145.287 20.8414 156.541L21.3498 157.751C23.194 161.997 25.717 166.365 28.8939 170.594C32.0708 174.824 35.5606 178.461 39.1204 181.409L40.1392 182.233C49.6619 189.745 59.5186 192.297 65.1048 188.074C70.6911 183.851 70.9621 173.642 66.3896 162.388L65.8811 161.179C64.0369 156.933 61.5139 152.565 58.3371 148.335C55.1602 144.106 51.6704 140.469 48.1105 137.52L47.0917 136.696Z" fill="#291D18"/>
<path fill-rule="evenodd" clip-rule="evenodd" d="M20.4392 52.1044C17.6637 35.1944 21.3341 20.9165 31.5215 15.7067C41.7089 10.4969 55.3751 15.9089 67.374 28.1021L68.444 29.212C68.6215 29.4 68.7986 29.5895 68.9753 29.7804L70.0304 30.9436C71.4299 32.5178 72.8003 34.1846 74.1326 35.9374L75.1246 37.2681C78.0783 41.3079 80.8286 45.7751 83.2755 50.5952C85.7225 55.4154 87.7068 60.2743 89.2269 65.0472L89.7164 66.6349C90.3462 68.747 90.8843 70.8394 91.3305 72.9012L91.648 74.4415C91.698 74.6972 91.7466 74.9524 91.7938 75.2071L92.0596 76.7283C94.8351 93.6383 91.1647 107.916 80.9773 113.126C70.7899 118.336 57.1237 112.924 45.1248 100.731L44.0548 99.6207C43.8773 99.4327 43.7002 99.2433 43.5235 99.0523L42.4684 97.8891C41.0689 96.3149 39.6985 94.6481 38.3662 92.8953L37.3742 91.5646C34.4205 87.5248 31.6702 83.0576 29.2233 78.2375C26.7763 73.4174 24.792 68.5584 23.2719 63.7855L22.7824 62.1978C22.1526 60.0857 21.6145 57.9933 21.1683 55.9316L20.8508 54.3912C20.8008 54.1355 20.7522 53.8803 20.705 53.6256L20.4392 52.1044ZM56.0727 23.4407C47.7655 17.7334 39.4961 15.8588 33.2262 19.0652C26.9563 22.2715 23.6068 30.088 23.3244 40.188L23.3051 41.436C23.296 44.3739 23.5378 47.4904 24.0339 50.7313L24.262 52.1277C24.5464 53.7654 24.8945 55.4323 25.3067 57.1215L25.6758 58.5747C25.7399 58.8178 25.8053 59.0613 25.8721 59.3052L26.2883 60.773C26.3603 61.0184 26.4337 61.2642 26.5083 61.5103L26.9719 62.9907C28.4102 67.4432 30.2757 71.9924 32.5757 76.5229C34.8757 81.0535 37.4461 85.2422 40.1897 89.0272L41.1105 90.2738C41.265 90.4791 41.42 90.683 41.5755 90.8857L42.514 92.0865C42.6713 92.2841 42.8291 92.4803 42.9874 92.6753L43.9419 93.8291C45.0612 95.1567 46.2002 96.4191 47.3531 97.6126L48.3446 98.6187C50.6654 100.926 53.0354 102.955 55.4088 104.674L56.4261 105.392C64.7333 111.099 73.0027 112.974 79.2726 109.768C85.5425 106.561 88.892 98.7447 89.1745 88.6447L89.1937 87.3967C89.2028 84.4589 88.961 81.3423 88.465 78.1014L88.2368 76.705C87.9524 75.0673 87.6043 73.4004 87.1921 71.7112L86.8231 70.258C86.7589 70.0149 86.6935 69.7714 86.6267 69.5276L86.2105 68.0597C86.1385 67.8143 86.0652 67.5685 85.9905 67.3224L85.5269 65.842C84.0886 61.3896 82.2231 56.8404 79.9231 52.3098L79.5373 51.5579C77.3369 47.315 74.9003 43.3802 72.3091 39.8055L71.3883 38.5589C71.2338 38.3537 71.0788 38.1497 70.9233 37.947L69.9848 36.7462C69.8275 36.5486 69.6697 36.3524 69.5114 36.1574L68.557 35.0036C67.4376 33.676 66.2986 32.4136 65.1457 31.2201L64.1542 30.214C61.8334 27.9062 59.4634 25.8781 57.09 24.1586L56.0727 23.4407Z" fill="#291D18"/>
<path fill-rule="evenodd" clip-rule="evenodd" d="M200.394 71.4769C206.125 56.7595 205.495 43.1436 197.234 36.6686C189.337 30.4793 176.816 32.6554 164.505 40.8411L163.37 41.6137C163.181 41.7453 162.992 41.8783 162.803 42.0127L161.67 42.8357L160.541 43.6919C159.978 44.1282 159.416 44.5767 158.856 45.0373L157.739 45.9744C156.068 47.4039 154.418 48.9403 152.802 50.5774L151.73 51.6836C149.774 53.7387 147.873 55.942 146.05 58.2821C144.228 60.6223 142.557 63.0057 141.042 65.4067L140.232 66.718C139.039 68.687 137.952 70.6648 136.974 72.6373L136.338 73.9513C135.821 75.0454 135.338 76.137 134.89 77.2235L134.367 78.5248C134.283 78.7412 134.2 78.9574 134.119 79.1734L133.646 80.4658C128.707 94.4297 129.632 107.144 137.528 113.333C145.546 119.618 158.332 117.277 170.825 108.779L171.959 107.989L173.092 107.166C178.557 103.108 183.907 97.8891 188.711 91.7196C193.516 85.5501 197.269 79.0801 199.872 72.7782L200.394 71.4769ZM164.962 45.1062C176.547 36.8586 188.215 34.3849 194.92 39.6397C199.921 43.56 201.431 51.2103 199.727 60.3539L199.492 61.5292C199.24 62.7121 198.935 63.9179 198.579 65.1418L198.205 66.3716C197.554 68.4308 196.761 70.536 195.827 72.6657L195.25 73.9463C192.874 79.0791 189.694 84.3284 185.747 89.3964C181.307 95.0978 176.41 99.9097 171.454 103.678L170.351 104.498C169.065 105.435 167.776 106.301 166.492 107.093L165.393 107.754C164.295 108.397 163.203 108.985 162.12 109.517L161.04 110.03C152.608 113.901 144.844 114.282 139.842 110.362C133.35 105.274 132.741 93.9029 137.406 81.1384L137.882 79.8785L138.392 78.6107C138.655 77.975 138.931 77.3367 139.219 76.6964L139.813 75.4132C142.154 70.4854 145.232 65.4621 149.014 60.6053C153.29 55.115 157.99 50.4496 162.758 46.7465L163.859 45.9091L164.962 45.1062Z" fill="#291D18"/>
<path fill-rule="evenodd" clip-rule="evenodd" d="M42.1114 228.486H153.407C154.446 228.486 155.287 229.331 155.287 230.372V342.016C155.287 343.057 154.446 343.902 153.407 343.902H42.1114C41.0731 343.902 40.2314 343.057 40.2314 342.016V230.372C40.2314 229.331 41.0731 228.486 42.1114 228.486ZM151.526 340.128V232.256H43.9896V340.128H151.526Z" fill="#291D18"/>
<path d="M152.079 229.039C152.757 228.359 153.823 228.307 154.561 228.882L154.738 229.039L188.449 262.855C189.183 263.591 189.183 264.785 188.449 265.522C187.771 266.202 186.705 266.254 185.967 265.679L185.79 265.522L152.079 231.706C151.345 230.969 151.345 229.775 152.079 229.039Z" fill="#291D18"/>
<path d="M43.4415 229.039C42.7638 228.359 41.6974 228.307 40.9599 228.882L40.7828 229.039L7.07185 262.855C6.33766 263.591 6.33766 264.785 7.07185 265.522C7.74956 266.202 8.81596 266.254 9.55346 265.679L9.73057 265.522L43.4415 231.706C44.1757 230.969 44.1757 229.775 43.4415 229.039Z" fill="#291D18"/>
<path fill-rule="evenodd" clip-rule="evenodd" d="M102.272 309.957H141.376C142.414 309.957 143.256 310.801 143.256 311.843V329.947C143.256 330.989 142.414 331.833 141.376 331.833H102.272C101.233 331.833 100.392 330.989 100.392 329.947V311.843C100.392 310.801 101.233 309.957 102.272 309.957ZM139.494 328.06V313.727H104.15V328.06H139.494Z" fill="#291D18"/>
<path d="M187.119 340.131C188.158 340.131 188.999 340.975 188.999 342.017C188.999 342.984 188.274 343.781 187.339 343.89L187.119 343.903H153.408C152.37 343.903 151.528 343.058 151.528 342.017C151.528 341.05 152.254 340.252 153.189 340.144L153.408 340.131H187.119Z" fill="#291D18"/>
<path d="M199.28 340.131C200.318 340.131 201.16 340.975 201.16 342.017C201.16 342.984 200.434 343.781 199.499 343.89L199.28 343.903H196.272C195.233 343.903 194.392 343.058 194.392 342.017C194.392 341.05 195.117 340.252 196.052 340.144L196.272 340.131H199.28Z" fill="#291D18"/>
<path d="M49.6314 340.131C50.6697 340.131 51.5114 340.975 51.5114 342.017C51.5114 342.984 50.7857 343.781 49.8507 343.89L49.6314 343.903H27.0714C26.0331 343.903 25.1914 343.058 25.1914 342.017C25.1914 341.05 25.9172 340.252 26.8522 340.144L27.0714 340.131H49.6314Z" fill="#291D18"/>
<path d="M17.2959 340.131C18.3342 340.131 19.1759 340.975 19.1759 342.017C19.1759 342.984 18.4501 343.781 17.5151 343.89L17.2959 343.903H3.75988C2.72159 343.903 1.87988 343.058 1.87988 342.017C1.87988 341.05 2.60564 340.252 3.54063 340.144L3.75988 340.131H17.2959Z" fill="#291D18"/>
</svg>
