<svg width="115" height="86" viewBox="0 0 115 86" fill="none" xmlns="http://www.w3.org/2000/svg">
<path d="M104.908 14.0623L110.594 29.6379C110.594 36.3861 104.952 41.8567 97.993 41.8567C91.0338 41.8567 85.3923 36.3861 85.3923 29.6379C85.3923 36.3861 79.9217 41.8567 73.1735 41.8567C66.4252 41.8567 60.9546 36.3861 60.9546 29.6379C60.9546 36.3861 55.3131 41.8567 48.3539 41.8567C41.3948 41.8567 35.7532 36.3861 35.7532 29.6379C35.7532 36.3861 30.1972 41.8567 23.3435 41.8567C16.4898 41.8567 10.9337 36.3861 10.9337 29.6379L16.6191 14.0623C18.0594 10.1164 21.8122 7.49121 26.0128 7.49121H95.5145C99.7151 7.49121 103.468 10.1164 104.908 14.0623Z" fill="#E5CFC7"/>
<path fill-rule="evenodd" clip-rule="evenodd" d="M21 35V85H20V35H21ZM94 85V35H95V85H94Z" fill="#291D18"/>
<path fill-rule="evenodd" clip-rule="evenodd" d="M22.958 1.5C18.9674 1.5 15.4024 3.9939 14.034 7.74255L8.37932 23.2342C8.42712 29.6589 13.7336 34.8655 20.2888 34.8655C26.8737 34.8655 32.1985 29.6115 32.1985 23.1467H33.1985C33.1985 29.6044 38.6016 34.8655 45.2992 34.8655C51.9968 34.8655 57.3999 29.6044 57.3999 23.1467H58.3999C58.3999 29.6188 63.6466 34.8655 70.1187 34.8655C76.5909 34.8655 81.8376 29.6188 81.8376 23.1467H82.8376C82.8376 29.6044 88.2406 34.8655 94.9383 34.8655C101.606 34.8655 106.99 29.6519 107.039 23.2341L101.384 7.74255C100.016 3.99401 96.4488 1.5 92.4581 1.5H40.4363C40.1601 1.5 39.9363 1.27614 39.9363 1C39.9363 0.723858 40.1601 0.5 40.4363 0.5H92.4581C96.8686 0.5 100.811 3.25633 102.323 7.39966L108.009 22.9752L108.039 23.1467C108.039 30.1855 102.159 35.8655 94.9383 35.8655C88.9702 35.8655 83.9181 31.9853 82.3448 26.6647C80.8187 31.9779 75.9227 35.8655 70.1187 35.8655C64.3148 35.8655 59.4188 31.9779 57.8927 26.6647C56.3194 31.9853 51.2673 35.8655 45.2992 35.8655C39.3266 35.8655 34.2712 31.9793 32.7021 26.6524C31.1565 31.9757 26.1793 35.8655 20.2888 35.8655C13.1662 35.8655 7.379 30.1784 7.379 23.1467L7.40931 22.9752L13.0947 7.39966C14.607 3.25644 18.5473 0.5 22.958 0.5H27.5C27.7761 0.5 28 0.723858 28 1C28 1.27614 27.7761 1.5 27.5 1.5H22.958Z" fill="#291D18"/>
<path fill-rule="evenodd" clip-rule="evenodd" d="M12.8826 26.2683C13.1342 26.1544 13.4305 26.2659 13.5444 26.5174C14.4241 28.4593 16.2984 29.934 18.5931 30.3687C18.8644 30.4201 19.0427 30.6817 18.9913 30.9531C18.9399 31.2244 18.6783 31.4027 18.4069 31.3513C15.8082 30.8589 13.6541 29.1831 12.6335 26.9301C12.5196 26.6785 12.6311 26.3822 12.8826 26.2683Z" fill="#291D18"/>
<path fill-rule="evenodd" clip-rule="evenodd" d="M93 5C93 4.72386 93.2239 4.5 93.5 4.5C95.988 4.5 98.155 6.27415 98.9763 8.848C99.0603 9.11107 98.9151 9.39239 98.652 9.47633C98.3889 9.56028 98.1076 9.41508 98.0237 9.152C97.312 6.92186 95.4828 5.5 93.5 5.5C93.2239 5.5 93 5.27614 93 5Z" fill="#291D18"/>
<path fill-rule="evenodd" clip-rule="evenodd" d="M27 49C27 48.7239 27.2239 48.5 27.5 48.5H48.5C48.7761 48.5 49 48.7239 49 49V77C49 77.2761 48.7761 77.5 48.5 77.5H27.5C27.2239 77.5 27 77.2761 27 77V49ZM28 49.5V76.5H48V49.5H28Z" fill="#291D18"/>
<path fill-rule="evenodd" clip-rule="evenodd" d="M56 49C56 48.7239 56.2239 48.5 56.5 48.5H86.5C86.7761 48.5 87 48.7239 87 49V85C87 85.2761 86.7761 85.5 86.5 85.5H56.5C56.2239 85.5 56 85.2761 56 85V49ZM57 49.5V84.5H86V49.5H57Z" fill="#291D18"/>
<path fill-rule="evenodd" clip-rule="evenodd" d="M13 85C13 84.7239 13.2239 84.5 13.5 84.5H104.942C105.218 84.5 105.442 84.7239 105.442 85C105.442 85.2761 105.218 85.5 104.942 85.5H13.5C13.2239 85.5 13 85.2761 13 85Z" fill="#291D18"/>
<path fill-rule="evenodd" clip-rule="evenodd" d="M110 85C110 84.7239 110.224 84.5 110.5 84.5H113.942C114.218 84.5 114.442 84.7239 114.442 85C114.442 85.2761 114.218 85.5 113.942 85.5H110.5C110.224 85.5 110 85.2761 110 85Z" fill="#291D18"/>
<path fill-rule="evenodd" clip-rule="evenodd" d="M1 85C1 84.7239 1.22386 84.5 1.5 84.5H7.94223C8.21837 84.5 8.44223 84.7239 8.44223 85C8.44223 85.2761 8.21837 85.5 7.94223 85.5H1.5C1.22386 85.5 1 85.2761 1 85Z" fill="#291D18"/>
<path fill-rule="evenodd" clip-rule="evenodd" d="M27 56C27 55.7239 27.2239 55.5 27.5 55.5H41.5C41.7761 55.5 42 55.7239 42 56C42 56.2761 41.7761 56.5 41.5 56.5H27.5C27.2239 56.5 27 56.2761 27 56Z" fill="#291D18"/>
<path fill-rule="evenodd" clip-rule="evenodd" d="M71.5 48.5C71.7761 48.5 72 48.7239 72 49L72 85C72 85.2761 71.7761 85.5 71.5 85.5C71.2239 85.5 71 85.2761 71 85L71 49C71 48.7239 71.2239 48.5 71.5 48.5Z" fill="#291D18"/>
<path fill-rule="evenodd" clip-rule="evenodd" d="M74 67L74 63C74 62.7239 74.2239 62.5 74.5 62.5C74.7761 62.5 75 62.7239 75 63L75 67C75 67.2761 74.7761 67.5 74.5 67.5C74.2239 67.5 74 67.2761 74 67ZM68 67L68 63C68 62.7239 68.2239 62.5 68.5 62.5C68.7761 62.5 69 62.7239 69 63L69 67C69 67.2761 68.7761 67.5 68.5 67.5C68.2239 67.5 68 67.2761 68 67Z" fill="#291D18"/>
<path fill-rule="evenodd" clip-rule="evenodd" d="M107.539 23.6465H7.879V22.6465H107.539V23.6465Z" fill="#291D18"/>
</svg>
