<svg xmlns="http://www.w3.org/2000/svg" width="50" height="49" viewBox="0 0 50 49">
  <g fill="none" fill-rule="evenodd" transform="translate(1 1)">
    <path fill="#8C8D8E" fill-rule="nonzero" d="M39.4412048,11.75 C39.9982689,11.75 40.5187744,12.0149156 40.8469808,12.4577197 L40.9316069,12.5828295 L44.6387437,18.6069269 C44.6516006,18.6280195 44.6594763,18.6421335 44.6669002,18.6565186 L44.6387437,18.6069269 C44.6584227,18.6389053 44.6753701,18.671472 44.689701,18.7044209 C44.6926818,18.7118001 44.6959289,18.7197225 44.6990429,18.7277114 C44.7314785,18.8090784 44.7479538,18.8916767 44.7507525,18.9732674 L44.75,45.25 L48,45.25 C48.4142136,45.25 48.75,45.5857864 48.75,46 C48.75,46.3796958 48.4678461,46.693491 48.1017706,46.7431534 L48,46.75 L0,46.75 C-0.414213562,46.75 -0.75,46.4142136 -0.75,46 C-0.75,45.6203042 -0.467846118,45.306509 -0.101770557,45.2568466 L0,45.25 L3.25,45.25 L3.25,19 L3.2492475,18.9732674 C3.2520462,18.8916767 3.26852152,18.8090784 3.30033622,18.7284481 C3.30407114,18.7197225 3.30731822,18.7118001 3.31069558,18.703947 C3.3114571,18.7017584 3.31263223,18.6990983 3.31382452,18.6964409 L3.3330998,18.6565186 C3.34052373,18.6421335 3.34839943,18.6280195 3.35670812,18.6141953 L3.36125626,18.6069269 L7.06839314,12.5828295 C7.36034898,12.1084013 7.85876212,11.80395 8.40789205,11.7565028 L8.55879519,11.75 L39.4412048,11.75 Z M27.999472,23.5619964 L27.9948005,23.5708995 C27.149317,24.8819471 25.6760308,25.75 24,25.75 C22.3201782,25.75 20.8440193,24.8780159 19.999472,23.5619964 C19.1559807,24.8780159 17.6798218,25.75 16,25.75 C14.3201782,25.75 12.8440193,24.8780159 11.999472,23.5619964 C11.1559807,24.8780159 9.67982178,25.75 8,25.75 C6.74272734,25.75 5.59954381,25.2615264 4.74987759,24.4640073 L4.75,45.25 L29.25,45.25 L29.25,29 C29.25,28.6203042 29.5321539,28.306509 29.8982294,28.2568466 L30,28.25 L40,28.25 C40.4142136,28.25 40.75,28.5857864 40.75,29 L40.75,29 L40.75,45.25 L43.25,45.25 L43.2511342,24.4630574 C42.4013638,25.2611385 41.2577718,25.75 40,25.75 C38.3201782,25.75 36.8440193,24.8780159 35.999472,23.5619964 C35.1559807,24.8780159 33.6798218,25.75 32,25.75 C30.3201782,25.75 28.8440193,24.8780159 27.999472,23.5619964 Z M39.25,41.75 L30.75,41.75 L30.75,45.25 L39.25,45.25 L39.25,41.75 Z M26,28.25 C26.4142136,28.25 26.75,28.5857864 26.75,29 L26.75,29 L26.75,41 C26.75,41.4142136 26.4142136,41.75 26,41.75 L26,41.75 L8,41.75 C7.58578644,41.75 7.25,41.4142136 7.25,41 L7.25,41 L7.25,29 C7.25,28.5857864 7.58578644,28.25 8,28.25 L8,28.25 Z M39.25,29.75 L30.75,29.75 L30.75,40.25 L39.25,40.25 L39.25,29.75 Z M25.25,29.75 L8.75,29.75 L8.75,40.25 L25.25,40.25 L25.25,29.75 Z M39.4412048,13.25 L8.55879519,13.25 C8.49368381,13.25 8.43206858,13.2753343 8.38613528,13.3191936 L8.34588061,13.3689756 L5.341,18.25 L7,18.25 C7.37969577,18.25 7.69349096,18.5321539 7.74315338,18.8982294 L7.75,19 C7.75,19.3796958 7.46784612,19.693491 7.10177056,19.7431534 L7,19.75 L4.75,19.75 L4.75,21 C4.75,22.7949254 6.20507456,24.25 8,24.25 C9.73303146,24.25 11.1492459,22.8935452 11.2448552,21.1844239 L11.25,21 L11.25,19.75 L10.5,19.75 C10.0857864,19.75 9.75,19.4142136 9.75,19 C9.75,18.6203042 10.0321539,18.306509 10.3982294,18.2568466 L10.5,18.25 L38,18.25 C38.4142136,18.25 38.75,18.5857864 38.75,19 C38.75,19.3796958 38.4678461,19.693491 38.1017706,19.7431534 L38,19.75 L36.75,19.75 L36.75,21 C36.75,22.7949254 38.2050746,24.25 40,24.25 C41.7330315,24.25 43.1492459,22.8935452 43.2448552,21.1844239 L43.25,21 L43.25,19.75 L41,19.75 C40.5857864,19.75 40.25,19.4142136 40.25,19 C40.25,18.6203042 40.5321539,18.306509 40.8982294,18.2568466 L41,18.25 L42.658,18.25 L39.6541194,13.3689756 C39.6199947,13.313523 39.5661261,13.2743255 39.5046995,13.2581926 L39.4412048,13.25 Z M19.25,19.75 L12.75,19.75 L12.75,21 C12.75,22.7949254 14.2050746,24.25 16,24.25 C17.7330315,24.25 19.1492459,22.8935452 19.2448552,21.1844239 L19.25,21 L19.25,19.75 Z M27.25,19.75 L20.75,19.75 L20.75,21 C20.75,22.7949254 22.2050746,24.25 24,24.25 C25.7330315,24.25 27.1492459,22.8935452 27.2448552,21.1844239 L27.25,21 L27.25,19.75 Z M35.25,19.75 L28.75,19.75 L28.75,21 C28.75,22.7949254 30.2050746,24.25 32,24.25 C33.7330315,24.25 35.1492459,22.8935452 35.2448552,21.1844239 L35.25,21 L35.25,19.75 Z"/>
    <path fill="#239A98" d="M1,28 C1.55228475,28 2,28.4477153 2,29 C2,29.5522847 1.55228475,30 1,30 C0.44771525,30 0,29.5522847 0,29 C0,28.4477153 0.44771525,28 1,28 Z M47,21 C47.5522847,21 48,21.4477153 48,22 C48,22.5522847 47.5522847,23 47,23 C46.4477153,23 46,22.5522847 46,22 C46,21.4477153 46.4477153,21 47,21 Z M4,8 C4.55228475,8 5,8.44771525 5,9 C5,9.55228475 4.55228475,10 4,10 C3.44771525,10 3,9.55228475 3,9 C3,8.44771525 3.44771525,8 4,8 Z M20,7 C20.5522847,7 21,7.44771525 21,8 C21,8.55228475 20.5522847,9 20,9 C19.4477153,9 19,8.55228475 19,8 C19,7.44771525 19.4477153,7 20,7 Z M37,2.27373675e-13 C38.1045695,2.27373675e-13 39,0.8954305 39,2 C39,3.1045695 38.1045695,4 37,4 C35.8954305,4 35,3.1045695 35,2 C35,0.8954305 35.8954305,2.27373675e-13 37,2.27373675e-13 Z M25,2.27373675e-13 C25.5522847,2.27373675e-13 26,0.44771525 26,1 C26,1.55228475 25.5522847,2 25,2 C24.4477153,2 24,1.55228475 24,1 C24,0.44771525 24.4477153,2.27373675e-13 25,2.27373675e-13 Z"/>
  </g>
</svg>
