<?xml version="1.0" encoding="UTF-8"?>
<svg width="122px" height="101px" viewBox="0 0 122 101" version="1.1" xmlns="http://www.w3.org/2000/svg" xmlns:xlink="http://www.w3.org/1999/xlink">
    <!-- Generator: Sketch 60 (88103) - https://sketch.com -->
    <title>telenet box</title>
    <desc>Created with Sketch.</desc>
    <g id="Archived" stroke="none" stroke-width="1" fill="none" fill-rule="evenodd">
        <g id="02.03-Change-Bundle---Desktop---Technieker" transform="translate(-515.000000, -349.000000)">
            <g id="telenet-box" transform="translate(515.015625, 349.031250)">
                <path d="M116.031492,62.2373883 C116.60725,62.2373883 117.073994,62.7062599 117.073994,63.2846424 C117.073994,63.8630249 116.60725,64.3318966 116.031492,64.3318966 C115.455734,64.3318966 114.98899,63.8630249 114.98899,63.2846424 C114.98899,62.7062599 115.455734,62.2373883 116.031492,62.2373883 Z M52.960121,51.739304 C53.8237579,51.739304 54.523874,52.4426114 54.523874,53.3101852 C54.523874,54.1777589 53.8237579,54.8810664 52.960121,54.8810664 C52.096484,54.8810664 51.3963679,54.1777589 51.3963679,53.3101852 C51.3963679,52.4426114 52.096484,51.739304 52.960121,51.739304 Z M84.7564321,44.4085249 C85.907948,44.4085249 86.8414361,45.3462682 86.8414361,46.5030332 C86.8414361,47.6597982 85.907948,48.5975415 84.7564321,48.5975415 C83.6049162,48.5975415 82.6714281,47.6597982 82.6714281,46.5030332 C82.6714281,45.3462682 83.6049162,44.4085249 84.7564321,44.4085249 Z M28.9825748,45.4557791 C29.8462118,45.4557791 30.5463279,46.1590865 30.5463279,47.0266603 C30.5463279,47.894234 29.8462118,48.5975415 28.9825748,48.5975415 C28.1189379,48.5975415 27.4188218,47.894234 27.4188218,47.0266603 C27.4188218,46.1590865 28.1189379,45.4557791 28.9825748,45.4557791 Z M107.691476,30.7942209 C108.267234,30.7942209 108.733978,31.2630926 108.733978,31.8414751 C108.733978,32.4198576 108.267234,32.8887292 107.691476,32.8887292 C107.115718,32.8887292 106.648974,32.4198576 106.648974,31.8414751 C106.648974,31.2630926 107.115718,30.7942209 107.691476,30.7942209 Z M70.161404,28.6997126 C70.737162,28.6997126 71.203906,29.1685843 71.203906,29.7469668 C71.203906,30.3253493 70.737162,30.7942209 70.161404,30.7942209 C69.5856461,30.7942209 69.118902,30.3253493 69.118902,29.7469668 C69.118902,29.1685843 69.5856461,28.6997126 70.161404,28.6997126 Z" id="Combined-Shape" fill="#239A98"></path>
                <path d="M17.0906517,0.613783294 L86.0561689,2.91263387 C86.0613372,2.91280615 86.0664846,2.91305627 86.07161,2.91338309 L86.0821236,2.9141643 L86.0821236,2.9141643 L86.1122182,2.91763818 C86.1252369,2.91956205 86.1381654,2.92199593 86.1509723,2.92493025 C86.1559083,2.92599097 86.1611377,2.92726686 86.1663493,2.92862817 L86.2156831,2.94441405 C86.2189302,2.94563508 86.2221651,2.94688986 86.2253872,2.94817822 C86.238444,2.95346136 86.2430242,2.95547262 86.2475795,2.95755589 L86.2713472,2.96929857 C86.2816626,2.97468444 86.2918034,2.98043639 86.3017478,2.98654782 C86.3092811,2.99126079 86.3124134,2.99328785 86.3155211,2.99534859 C86.3426613,3.01328826 86.3687999,3.0345379 86.3930649,3.05880293 L86.3428114,3.0147901 C86.3536477,3.02306934 86.3641325,3.03177967 86.374241,3.04089448 L86.3930649,3.05880293 C86.3968381,3.06257611 86.4005383,3.0663946 86.4041657,3.07025663 L86.4037408,3.06977424 L86.4313227,3.10159783 L86.4313227,3.10159783 C86.4367047,3.10848318 86.4408159,3.1139225 86.4448166,3.11944593 C86.4508746,3.12780532 86.4565174,3.13612367 86.4618822,3.1445678 C86.4679997,3.1541811 86.4739241,3.1642436 86.4794983,3.17452002 C87.689469,5.44417796 87.983148,9.35989923 87.3988798,14.9585071 C87.3702173,15.233158 87.1243333,15.4325709 86.8496825,15.4039085 C86.5750317,15.3752461 86.3756187,15.1293621 86.4042811,14.8547113 C86.916027,9.95103146 86.733966,6.41527424 85.8856617,4.27285188 L77.943051,12.2155956 C83.0261771,12.8786268 85.9309307,15.588901 86.5380334,20.2849281 C86.85372,22.7268097 87.4005628,26.454986 88.1789406,31.4722 L88.1789406,31.4722 L89.6219792,40.6001373 L91.0194472,49.2325682 C91.5487378,54.0575306 90.2878147,57.3766533 87.208904,59.0850493 C85.6321795,59.9599267 84.5353524,60.5525398 83.7639382,60.9140444 L109.209986,70.8568012 C109.543033,70.9869336 109.602322,71.3585332 109.445888,71.6010488 C109.498181,71.6777944 109.528017,71.7716396 109.528017,71.8724535 L109.528017,71.8724535 L109.527139,77.6606383 L109.542116,77.6599945 L121.036369,77.6599945 C121.450582,77.6599945 121.786369,77.9957809 121.786369,78.4099945 C121.786369,78.8242081 121.450582,79.1599945 121.036369,79.1599945 L121.036369,79.1599945 L109.542116,79.1599945 C109.537331,79.1599945 109.532557,79.1599497 109.527794,79.1598605 L109.528017,93.3223126 C109.528017,93.5811233 109.330515,93.7971578 109.072742,93.8203083 L109.072742,93.8203083 L35.118781,100.462076 C35.0528936,100.467993 34.9870378,100.460739 34.9248682,100.441305 L34.9131739,100.443838 L34.9131739,100.443838 L34.8232983,100.451893 C34.5811258,100.451893 34.3791656,100.279724 34.3331418,100.05111 L13.5113069,85.2136244 C13.3796347,85.1198022 13.3014561,84.9681017 13.3014561,84.8064225 L13.3014561,84.8064225 L13.3030298,79.0919257 C13.207862,79.135628 13.1019723,79.1599945 12.9903915,79.1599945 L12.9903915,79.1599945 L1.49613865,79.1599945 C1.08192509,79.1599945 0.746138649,78.8242081 0.746138649,78.4099945 C0.746138649,77.9957809 1.08192509,77.6599945 1.49613865,77.6599945 L1.49613865,77.6599945 L12.9903915,77.6599945 C13.1019723,77.6599945 13.207862,77.684361 13.3030298,77.7280632 L13.3046808,64.5619791 L7.38181668,12.6644537 C7.35774901,12.453567 7.46858962,12.258375 7.64575995,12.165126 L7.42168618,11.6614026 C7.41772787,11.6524964 7.41405084,11.6435364 7.41065124,11.6345327 C7.40600885,11.6224243 7.40190593,11.610047 7.39829651,11.5975503 C7.39396751,11.582637 7.3904123,11.5678994 7.38754669,11.5531252 C7.38474169,11.5381438 7.38250244,11.5227069 7.38098371,11.5072047 C7.37963387,11.4948461 7.37888625,11.4824654 7.37860029,11.4701135 C7.37836264,11.4547601 7.37870165,11.4393525 7.37974973,11.4239762 C7.38070807,11.4091457 7.38240144,11.3944105 7.38473784,11.3798053 C7.38682484,11.3665477 7.38949489,11.3531741 7.39271851,11.3398996 C7.39620295,11.3259696 7.40019953,11.3122103 7.40477322,11.2986507 C7.40885649,11.2860901 7.41371661,11.2733587 7.41912045,11.2607947 C7.42686176,11.2431664 7.4352256,11.2263939 7.44451665,11.2101157 C7.46116752,11.1808745 7.48136691,11.1526118 7.50488729,11.1261514 L7.45768095,11.1883528 C7.46767336,11.1727423 7.47855435,11.1576525 7.49029122,11.1431681 L7.50488729,11.1261514 L16.7002896,0.781323828 C16.7261832,0.752193512 16.7547179,0.726804347 16.7852125,0.705196394 C16.8246423,0.677280548 16.8688929,0.654646565 16.9162075,0.638911041 C16.9279473,0.635094407 16.9390974,0.631844229 16.9503323,0.628987642 C16.9946388,0.617558083 17.0419477,0.612159828 17.0906517,0.613783294 L17.0361218,0.614941678 C17.0531349,0.613651132 17.0702109,0.613226217 17.087278,0.613671154 L17.0906517,0.613783294 Z M14.2987845,64.4867353 L14.3014561,64.5052841 L14.3014561,84.5487484 L34.3231386,98.8146383 L34.3232983,78.7719259 C34.3232983,78.526466 34.5001735,78.3223175 34.7334227,78.2799816 L34.8232983,78.2719259 C35.0994407,78.2719259 35.3232983,78.4957835 35.3232983,78.7719259 L35.3232983,78.7719259 L35.3231386,99.4386383 L108.528017,92.8652049 L108.528017,71.8724535 C108.528017,71.866317 108.528128,71.8602063 108.528347,71.8541233 L36.2388111,76.3251959 C36.144472,76.3310304 36.0504113,76.3100052 35.967535,76.264558 L35.967535,76.264558 L15.0409024,64.7886179 C14.964663,64.8291426 14.8909744,64.8342336 14.7748272,64.8317819 C14.5071338,64.8261312 14.3540651,64.6713278 14.2987845,64.4867353 Z M82.0911386,61.3936383 L16.5730032,64.4886065 L36.3214945,75.3181716 L106.735003,70.9633717 L83.0911386,61.7246383 L83.0912356,71.2284483 C83.0912356,71.4739082 82.9143605,71.6780566 82.6811113,71.7203926 L82.5912356,71.7284483 C82.3150933,71.7284483 82.0912356,71.5045907 82.0912356,71.2284483 L82.0912356,71.2284483 L82.0911386,61.3936383 Z M8.56813865,14.2406383 L14.2761386,64.2886383 L14.2780317,64.2612076 C14.2804917,64.23719 14.2841418,64.2146541 14.2889334,64.1928065 C14.2231064,63.9122739 14.4048157,63.5898819 14.7515581,63.5735074 L14.7515581,63.5735074 L14.8371386,63.5686383 L14.8861157,63.5136088 C14.9849621,63.3972104 15.0995408,63.2591805 15.2297771,63.099603 L15.3652298,62.9328461 L15.8340523,62.3465717 L16.6849591,61.2611813 C18.5090214,58.9148412 19.1974608,55.7162914 18.7307964,51.6286051 L18.7307964,51.6286051 L15.7666216,18.9614775 C14.9475694,20.1356356 13.9581194,21.2106985 12.7980287,22.1858961 L12.7980287,22.1858961 C12.7630373,22.21545 12.7233025,22.2405377 12.6793623,22.2600667 C12.4270202,22.3722187 12.1315394,22.2585722 12.0193873,22.0062302 L12.0193873,22.0062302 L8.56813865,14.2406383 Z M17.8113958,1.63849419 C19.4351477,8.45486219 18.8904374,14.0402803 16.1661371,18.3595079 L16.7110846,18.3096938 L19.7255213,51.5266843 C20.2186055,55.8445387 19.4743489,59.3024201 17.4744529,61.8749398 C16.9612411,62.5350978 16.5331197,63.0778492 16.1891402,63.5042601 L16.1891402,63.5042601 L16.1881386,63.5046383 L82.0291386,60.3956383 L76.3991386,13.1026383 L21.0388424,12.4499473 C20.7933996,12.447054 20.5913502,12.2677847 20.5517417,12.0340527 L20.5447354,11.9440883 C20.5480259,11.6679651 20.7745067,11.4467618 21.0506299,11.4500168 L21.0506299,11.4500168 L76.6381386,12.1056383 L84.8701386,3.87363826 Z M77.4140051,13.1598665 L83.0062274,60.1559085 C83.1346343,60.0982294 83.2794974,60.0303626 83.4404132,59.9524171 L83.4404132,59.9524171 L83.8131532,59.7682866 C84.0777315,59.6353544 84.3744659,59.482071 84.7032724,59.308473 L84.7032724,59.308473 L85.4971732,58.8836119 L86.723719,58.2106377 C89.4048402,56.7229634 90.5146619,53.801584 90.0289574,49.367626 C88.2793843,38.6473622 87.0074456,30.584101 86.2128426,25.1755467 L86.2128426,25.1755467 L85.7538205,21.9631086 L85.5462867,20.4131411 C84.9850129,16.0716067 82.317228,13.6760032 77.4140051,13.1598665 Z M16.8873862,2.07721451 L8.46613865,11.5486383 L12.6580048,20.9802062 C17.4026693,16.6633066 18.8200933,10.3864737 16.8873862,2.07721451 Z" id="Combined-Shape" fill="#979797" fill-rule="nonzero"></path>
            </g>
        </g>
    </g>
</svg>
