<svg xmlns="http://www.w3.org/2000/svg" width="24" height="24" fill="none"><path fill="#291D18" d="M17 2c-2.632 0-5 1.893-5 4.5q.001.532.131 1.03c-.244.473-.429.837-.536 1.101-.065.16-.149.394-.158.654-.012.332.1.648.332.897.24.258.535.359.76.4.216.04.44.037.645.024.34-.023.787-.09 1.353-.193.734.376 1.58.587 2.473.587 2.632 0 5-1.893 5-4.5S19.632 2 17 2m-3 4.5C14 5.24 15.213 4 17 4s3 1.24 3 2.5S18.786 9 17 9a3.4 3.4 0 0 1-1.775-.487 1 1 0 0 0-.708-.131q-.36.067-.633.114l.214-.418a1 1 0 0 0 .044-.817A2.1 2.1 0 0 1 14 6.5"/><path fill="#291D18" d="m5.293 14.074-.252-.442c-1.566-2.776-2.527-5.128-2.878-7.077l-.041-.243-.033-.137c-.276-1.21.094-1.852 1.054-2.407l2.598-1.5.132-.07a2 2 0 0 1 2.6.802l1 1.732.07.132a2 2 0 0 1-.802 2.6l-.203.118-.057.038c-.2.15-.267.423-.164 1.004.129.532.595 1.533 1.38 2.893l.317.516c.675 1.081 1.208 1.824 1.562 2.193.393.38.609.455.812.366l.055-.027.298-.172a2 2 0 0 1 2.653.605l.08.127 1 1.732a2 2 0 0 1-.606 2.652l-.127.08-2.598 1.5c-.96.554-1.7.554-2.612-.291l-.101-.096-.19-.158c-1.513-1.278-3.069-3.287-4.69-6.03zm1.732-1c1.606 2.782 3.112 4.761 4.493 5.933l.207.17.084.075.194.188.075-.046 2.663-1.537-1-1.732-.298.172c-1.08.624-2.238.351-3.283-.659-.563-.586-1.278-1.606-2.177-3.089l-.007-.012-.007-.012c-.877-1.52-1.412-2.667-1.61-3.493C6.1 7.58 6.48 6.46 7.54 5.85l.202-.118-1-1.732-2.663 1.538L4 5.58l.066.262.023.111.044.264c.324 1.781 1.285 4.076 2.89 6.857"/></svg>