<svg xmlns="http://www.w3.org/2000/svg" width="24" height="24" fill="none"><path fill="#291D18" d="M16.75 14.75a1 1 0 1 1-2 0 1 1 0 0 1 2 0m-1 4a1 1 0 1 0 0-2 1 1 0 0 0 0 2m-7-3a1 1 0 1 1-2 0 1 1 0 0 1 2 0m1.75-10A.75.75 0 0 0 9.75 5h-4l-.102.007A.75.75 0 0 0 5.75 6.5h4l.101-.007a.75.75 0 0 0 .648-.743"/><path fill="#291D18" d="M4.75 2h6a2.75 2.75 0 0 1 2.75 2.75V6h4.25c2.155 0 3.75 1.279 3.75 2.75v4a.75.75 0 0 1-.75.75h-.25v5.25a2.75 2.75 0 0 1-2.582 2.745l-.168.005h-10a2.75 2.75 0 0 1-2.647-2H4.75A2.75 2.75 0 0 1 2 16.75v-12A2.75 2.75 0 0 1 4.75 2m8.75 14.75a2.75 2.75 0 0 1-2.75 2.75h-4c.204.272.516.457.872.494L7.75 20h10a1.25 1.25 0 0 0 1.244-1.122L19 18.75V13.5h-1.25a.75.75 0 0 1-.75-.75c0-1.635-.41-2.25-1.25-2.25H13.5zM10.75 3.5h-6c-.69 0-1.25.56-1.25 1.25v12c0 .69.56 1.25 1.25 1.25h6c.69 0 1.25-.56 1.25-1.25v-12c0-.69-.56-1.25-1.25-1.25m2.75 4V9h2.25c1.574 0 2.477 1.03 2.697 2.828l.017.172H20V8.75c0-.533-.776-1.181-2.045-1.245L17.75 7.5z"/></svg>