<svg xmlns="http://www.w3.org/2000/svg" width="24" height="24" fill="none"><path fill="#111" d="M11.649 2.064a1 1 0 0 1 .702 0l1.733.65a1 1 0 1 1-.702 1.872L12 4.068 5 6.693V12c0 1.672.845 3.441 2.235 4.947C8.557 18.379 10.29 19.48 12 19.965a9 9 0 0 0 .725-.241c.541-.208 1.172.017 1.396.551.202.483-.003 1.044-.488 1.24q-.688.279-1.39.455a1 1 0 0 1-.486 0c-2.211-.553-4.377-1.917-5.992-3.667C4.155 16.56 3 14.328 3 12V6a1 1 0 0 1 .649-.936zm4.019 17.246c.332.416.934.5 1.34.16a13 13 0 0 0 1.614-1.607c.329-.39.26-.967-.124-1.303-.445-.39-1.129-.301-1.516.145q-.106.122-.217.242-.436.472-.925.891c-.433.373-.529 1.026-.172 1.473m4.943-4.937c-.161.499-.716.729-1.208.547-.542-.2-.79-.82-.63-1.375A5.6 5.6 0 0 0 19 12v-.06a1 1 0 1 1 2 0V12c0 .808-.14 1.605-.389 2.374M20 8.209a1 1 0 0 0 1-1V6a1 1 0 0 0-.649-.936l-1.689-.634a1 1 0 0 0-.702 1.873l1.04.39v.516a1 1 0 0 0 1 1"/></svg>