<svg class="config-img" width="400" height="400" viewBox="0 0 400 400" fill="none" xmlns="http://www.w3.org/2000/svg">
<rect class="filled-img" x="226" y="224" width="86" height="157" rx="12" fill="#E5CFC7"/>
<path fill-rule="evenodd" clip-rule="evenodd" d="M230.227 214H287.849C296.227 214 303.075 220.849 303.075 229.227V358.965C303.075 367.344 296.227 374.192 287.849 374.192H230.227C221.847 374.192 215 367.344 215 358.965V229.227C215 220.848 221.848 214 230.227 214ZM287.849 217H230.227C223.505 217 218 222.505 218 229.227V358.965C218 365.687 223.504 371.192 230.227 371.192H287.849C294.57 371.192 300.075 365.687 300.075 358.965V229.227C300.075 222.505 294.57 217 287.849 217Z" fill="#291D18"/>
<path fill-rule="evenodd" clip-rule="evenodd" d="M262.372 350.235C262.372 352.588 260.465 354.495 258.112 354.495C255.76 354.495 253.854 352.588 253.854 350.235C253.854 347.882 255.76 345.976 258.112 345.976C260.465 345.976 262.372 347.882 262.372 350.235Z" fill="#291D18"/>
<path d="M285.013 233C285.841 233 286.513 233.672 286.513 234.5C286.513 235.28 285.918 235.92 285.157 235.993L285.013 236H233.5C232.672 236 232 235.328 232 234.5C232 233.72 232.595 233.08 233.356 233.007L233.5 233H285.013Z" fill="#291D18"/>
<rect class="filled-img" x="99" y="224" width="86" height="157" rx="12" fill="#E5CFC7"/>
<path fill-rule="evenodd" clip-rule="evenodd" d="M103.227 214H160.849C169.227 214 176.075 220.849 176.075 229.227V358.965C176.075 367.344 169.227 374.192 160.849 374.192H103.227C94.8474 374.192 88 367.344 88 358.965V229.227C88 220.848 94.8478 214 103.227 214ZM160.849 217H103.227C96.5047 217 91 222.505 91 229.227V358.965C91 365.687 96.5043 371.192 103.227 371.192H160.849C167.57 371.192 173.075 365.687 173.075 358.965V229.227C173.075 222.505 167.57 217 160.849 217Z" fill="#291D18"/>
<path fill-rule="evenodd" clip-rule="evenodd" d="M135.372 350.235C135.372 352.588 133.465 354.495 131.112 354.495C128.76 354.495 126.854 352.588 126.854 350.235C126.854 347.882 128.76 345.976 131.112 345.976C133.465 345.976 135.372 347.882 135.372 350.235Z" fill="#291D18"/>
<path d="M158.013 233C158.841 233 159.513 233.672 159.513 234.5C159.513 235.28 158.918 235.92 158.157 235.993L158.013 236H106.5C105.672 236 105 235.328 105 234.5C105 233.72 105.595 233.08 106.356 233.007L106.5 233H158.013Z" fill="#291D18"/>
<rect class="filled-img" x="290" y="28" width="86" height="157" rx="12" fill="#E5CFC7"/>
<path fill-rule="evenodd" clip-rule="evenodd" d="M294.227 18H351.849C360.227 18 367.075 24.8486 367.075 33.2266V162.965C367.075 171.344 360.227 178.192 351.849 178.192H294.227C285.847 178.192 279 171.344 279 162.965V33.2266C279 24.8482 285.848 18 294.227 18ZM351.849 21H294.227C287.505 21 282 26.505 282 33.2266V162.965C282 169.687 287.504 175.192 294.227 175.192H351.849C358.57 175.192 364.075 169.687 364.075 162.965V33.2266C364.075 26.5054 358.57 21 351.849 21Z" fill="#291D18"/>
<path fill-rule="evenodd" clip-rule="evenodd" d="M326.372 154.235C326.372 156.588 324.465 158.495 322.112 158.495C319.76 158.495 317.854 156.588 317.854 154.235C317.854 151.882 319.76 149.976 322.112 149.976C324.465 149.976 326.372 151.882 326.372 154.235Z" fill="#291D18"/>
<path d="M349.013 37C349.841 37 350.513 37.6716 350.513 38.5C350.513 39.2797 349.918 39.9204 349.157 39.9931L349.013 40H297.5C296.672 40 296 39.3284 296 38.5C296 37.7203 296.595 37.0796 297.356 37.0069L297.5 37H349.013Z" fill="#291D18"/>
<rect class="filled-img" x="163" y="28" width="86" height="157" rx="12" fill="#E5CFC7"/>
<path fill-rule="evenodd" clip-rule="evenodd" d="M167.227 18H224.849C233.227 18 240.075 24.8486 240.075 33.2266V162.965C240.075 171.344 233.227 178.192 224.849 178.192H167.227C158.847 178.192 152 171.344 152 162.965V33.2266C152 24.8482 158.848 18 167.227 18ZM224.849 21H167.227C160.505 21 155 26.505 155 33.2266V162.965C155 169.687 160.504 175.192 167.227 175.192H224.849C231.57 175.192 237.075 169.687 237.075 162.965V33.2266C237.075 26.5054 231.57 21 224.849 21Z" fill="#291D18"/>
<path fill-rule="evenodd" clip-rule="evenodd" d="M199.372 154.235C199.372 156.588 197.465 158.495 195.112 158.495C192.76 158.495 190.854 156.588 190.854 154.235C190.854 151.882 192.76 149.976 195.112 149.976C197.465 149.976 199.372 151.882 199.372 154.235Z" fill="#291D18"/>
<path d="M222.013 37C222.841 37 223.513 37.6716 223.513 38.5C223.513 39.2797 222.918 39.9204 222.157 39.9931L222.013 40H170.5C169.672 40 169 39.3284 169 38.5C169 37.7203 169.595 37.0796 170.356 37.0069L170.5 37H222.013Z" fill="#291D18"/>
<rect class="filled-img" x="36" y="28" width="86" height="157" rx="12" fill="#E5CFC7"/>
<path fill-rule="evenodd" clip-rule="evenodd" d="M40.2266 18H97.8487C106.227 18 113.075 24.8486 113.075 33.2266V162.965C113.075 171.344 106.227 178.192 97.8487 178.192H40.2266C31.8474 178.192 25 171.344 25 162.965V33.2266C25 24.8482 31.8478 18 40.2266 18ZM97.8487 21H40.2266C33.5047 21 28 26.505 28 33.2266V162.965C28 169.687 33.5043 175.192 40.2266 175.192H97.8487C104.57 175.192 110.075 169.687 110.075 162.965V33.2266C110.075 26.5054 104.57 21 97.8487 21Z" fill="#291D18"/>
<path fill-rule="evenodd" clip-rule="evenodd" d="M72.372 154.235C72.372 156.588 70.4652 158.495 68.1122 158.495C65.7604 158.495 63.8535 156.588 63.8535 154.235C63.8535 151.882 65.7604 149.976 68.1122 149.976C70.4652 149.976 72.372 151.882 72.372 154.235Z" fill="#291D18"/>
<path d="M95.0126 37C95.841 37 96.5126 37.6716 96.5126 38.5C96.5126 39.2797 95.9177 39.9204 95.157 39.9931L95.0126 40H43.5C42.6716 40 42 39.3284 42 38.5C42 37.7203 42.5949 37.0796 43.3555 37.0069L43.5 37H95.0126Z" fill="#291D18"/>
</svg>
