<?xml version="1.0" encoding="UTF-8"?>
<svg width="97px" height="16px" viewBox="0 0 97 16" version="1.1" xmlns="http://www.w3.org/2000/svg" xmlns:xlink="http://www.w3.org/1999/xlink">
    <title>streamz</title>
    <g id="FINAL-DESIGNS" stroke="none" stroke-width="1" fill="none" fill-rule="evenodd">
        <g id="Config-V2_promo" transform="translate(-64.000000, -1767.000000)" fill-rule="nonzero">
            <g id="Entertainment" transform="translate(0.000000, 1582.000000)">
                <g id="streamz" transform="translate(16.000000, 166.000000)">
                    <g transform="translate(48.000000, 19.000000)" id="Path">
                        <path d="M86.4800013,10.9200003 C86.4800013,12.1200003 86.4800013,13.4000003 86.4800013,14.6000003 C86.4800013,15.0800003 86.4000013,15.3200003 85.8400013,15.3200003 C83.9200013,15.3200003 83.9200013,15.4000003 83.9200013,13.4800003 C83.9200013,11.6400003 83.9200013,9.80000025 83.9200013,7.96000022 C83.9200013,6.5200002 83.2000013,5.80000019 82.0000013,5.72000019 C80.5600013,5.64000019 79.6800012,6.3600002 79.6800012,7.80000022 C79.6800012,9.96000025 79.6000012,12.2000003 79.6800012,14.3600003 C79.6800012,15.1600003 79.4400012,15.4000003 78.6400012,15.3200003 C76.9600012,15.2400003 76.9600012,15.3200003 76.9600012,13.6400003 C76.9600012,11.7200003 76.9600012,9.88000025 76.9600012,7.96000022 C76.9600012,6.5200002 76.2400012,5.80000019 74.9600012,5.72000019 C73.6000012,5.72000019 72.8000011,6.4400002 72.7200011,7.88000022 C72.7200011,10.0400003 72.7200011,12.2800003 72.7200011,14.4400003 C72.7200011,15.1600003 72.5600011,15.4000003 71.8400011,15.3200003 C70.0800011,15.3200003 70.0800011,15.3200003 70.0800011,13.5600003 C70.0800011,11.7200003 70.0800011,9.80000025 70.0800011,7.96000022 C70.0000011,6.2000002 70.4800011,4.76000018 72.0800011,3.88000016 C73.8400012,2.92000015 75.6800012,2.92000015 77.4400012,4.04000016 C78.0800012,4.44000017 78.4800012,4.52000017 79.1200012,4.04000016 C80.7200013,3.00000015 82.4000013,2.92000015 84.1600013,3.72000016 C85.6000013,4.36000017 86.4000013,5.56000019 86.4800013,7.16000021 C86.5600013,8.44000023 86.4800013,9.64000025 86.4800013,10.9200003 C86.4800013,10.9200003 86.4800013,10.9200003 86.4800013,10.9200003 Z" fill="#131B28"></path>
                        <path d="M50.8800008,10.6800003 C49.6000008,10.6800003 48.4000008,10.7600003 47.1200008,10.6800003 C46.1600007,10.6000003 46.3200007,11.0000003 46.6400008,11.6400003 C47.6000008,13.4800003 50.5600008,14.0400003 52.3200008,12.6000003 C52.5600008,12.4400003 52.7200008,11.8800003 53.1200009,12.1200003 C53.7600009,12.3600003 54.3200009,12.7600003 54.8000009,13.1600003 C55.1200009,13.4000003 54.6400009,13.6400003 54.4800009,13.8800003 C52.6400008,15.8000003 50.3200008,16.1200003 47.9200008,15.4800003 C45.6000007,14.8400003 44.1600007,13.2400003 43.6800007,10.9200003 C43.1200007,8.44000023 44.2400007,5.80000019 46.4000008,4.52000017 C48.5600008,3.16000015 51.4400008,3.32000015 53.3600009,4.92000018 C54.9600009,6.2000002 55.5200009,7.96000022 55.5200009,9.96000025 C55.5200009,10.6000003 55.2800009,10.8400003 54.6400009,10.8400003 C53.4400009,10.6000003 52.1600008,10.6800003 50.8800008,10.6800003 Z" fill="#131B28"></path>
                        <path d="M66.240001,14.3600003 C63.040001,16.1200003 60.720001,16.0400003 58.5600009,14.1200003 C56.4800009,12.2800003 56.0000009,9.24000024 57.2800009,6.76000021 C58.5600009,4.28000017 61.360001,3.08000015 64.240001,3.72000016 C66.8800011,4.36000017 68.8000011,6.6800002 68.8000011,9.40000024 C68.8000011,11.0800003 68.8000011,12.8400003 68.8000011,14.5200003 C68.8000011,15.1600003 68.6400011,15.4800003 68.0000011,15.4000003 C67.7600011,15.4000003 67.5200011,15.4000003 67.2000011,15.4000003 C66.4800011,15.4800003 66.080001,15.2400003 66.240001,14.3600003 Z" fill="#131B28"></path>
                        <path d="M93.0400014,6.2000002 C91.4400014,6.2000002 90.1600014,6.1200002 88.8000014,6.2000002 C88.0800014,6.2000002 87.8400014,5.96000019 87.9200014,5.32000018 C87.9200014,5.08000018 87.9200014,4.84000018 87.9200014,4.60000017 C87.8400014,3.96000016 88.1600014,3.88000016 88.7200014,3.88000016 C90.8800014,3.88000016 92.9600014,3.88000016 95.1200015,3.88000016 C95.6000015,3.88000016 96.2400015,3.64000016 96.4000015,4.04000016 C96.5600015,4.68000017 96.6400015,5.40000018 96.1600015,6.04000019 C94.8800015,7.80000022 93.6800015,9.56000025 92.4000014,11.3200003 C92.0000014,11.8000003 91.6800014,12.3600003 91.2000014,13.0000003 C92.8800014,13.0000003 94.3200015,13.0800003 95.7600014,13.0000003 C96.5600015,13.0000003 96.8800015,13.1600003 96.7200015,13.9600003 C96.6400015,14.2000003 96.7200015,14.5200003 96.7200015,14.8400003 C96.7200015,15.2400003 96.6400015,15.4000003 96.2400015,15.4000003 C93.6000015,15.4000003 90.9600014,15.4000003 88.3200014,15.4000003 C87.9200014,15.4000003 87.8400014,15.2400003 87.7600014,14.8400003 C87.7600014,14.1200003 87.8400014,13.4800003 88.3200014,12.9200003 C89.8400014,10.6800003 91.3600014,8.52000023 93.0400014,6.2000002 Z" fill="#131B28"></path>
                        <path d="M24.8800004,3.48000016 C26.4800005,3.48000016 27.9200005,3.96000016 28.9600005,5.32000018 C29.2800005,5.72000019 29.3600005,6.04000019 28.8000005,6.2800002 C28.5600005,6.3600002 28.3200005,6.5200002 28.0800005,6.6800002 C27.6000005,7.00000021 27.2000005,7.16000021 26.8000005,6.5200002 C26.1600004,5.72000019 25.2800004,5.72000019 24.3200004,5.96000019 C23.8400004,6.1200002 23.4400004,6.3600002 23.4400004,6.92000021 C23.4400004,7.48000016 23.7600004,7.80000022 24.2400004,7.96000022 C25.4400004,8.52000023 26.7200005,8.60000023 27.8400005,9.16000024 C29.7600005,10.1200003 30.2400005,12.6000003 28.8800005,14.1200003 C28.0000005,15.0800003 26.8000005,15.4800002 25.5200004,15.5600003 C25.1200004,15.5600003 24.7200004,15.5600003 24.2400004,15.5600003 C22.4800004,15.5600003 21.2000004,14.8400003 20.4000004,13.2400003 C20.4000004,13.1600003 20.4000004,13.0800003 20.4000004,13.0000003 C20.6400004,12.3600003 21.2800004,12.2000003 21.7600004,11.9600003 C22.2400004,11.7200003 22.6400004,11.9600003 23.0400004,12.3600003 C23.7600004,13.1600003 24.7200004,13.1600003 25.6800004,13.0800003 C26.1600004,13.0000003 26.6400005,12.7600003 26.7200005,12.2000003 C26.8000005,11.6400003 26.3200005,11.4800002 25.9200004,11.2400003 C25.6000004,11.0800003 25.2800004,11.0800003 25.0400004,10.9200003 C24.1600004,10.6000003 23.2800004,10.4400003 22.4800004,9.96000025 C21.8400004,9.56000025 21.2800004,9.00000024 20.8800004,8.28000023 C20.8800004,8.20000023 20.8000004,8.12000023 20.8000004,7.96000022 C20.6400004,7.32000021 20.6400004,6.6000002 20.8000004,5.96000019 C20.8000004,5.88000019 20.8800004,5.80000019 20.8800004,5.72000019 C21.5200004,4.60000017 22.4000004,3.72000016 23.7600004,3.56000016 C24.1600004,3.48000016 24.5600004,3.64000016 24.8800004,3.48000016 Z" fill="#131B28"></path>
                        <path d="M30.6400005,7.00000021 C30.6400005,5.40000018 30.6400005,3.80000016 30.6400005,2.28000014 C30.6400005,1.56000013 30.8000005,1.32000012 31.5200005,1.08000012 C33.2000006,0.600000113 33.2000006,0.600000113 33.2000006,2.36000014 C33.2000006,2.60000014 33.2000006,2.84000015 33.2000006,3.00000015 C33.1200006,3.64000016 33.3600006,3.96000016 34.0800006,3.88000016 C34.4000006,3.88000016 34.6400005,3.88000016 34.9600006,3.88000016 C36.0000006,3.72000016 36.2400006,4.12000017 36.1600006,5.08000018 C36.0800006,6.3600002 36.1600006,6.3600002 34.8800006,6.3600002 C34.6400005,6.3600002 34.4000006,6.3600002 34.0800006,6.3600002 C33.4400006,6.2800002 33.2000006,6.5200002 33.2000006,7.24000021 C33.2800006,8.60000023 33.2000006,10.0400003 33.2000006,11.4000003 C33.2000006,12.9200003 33.5200006,13.2400003 35.0400006,13.2400003 C35.6800006,13.2400003 36.2400006,13.1600003 36.0800006,14.1200003 C36.0000006,14.8400003 36.3200006,15.7200003 35.0400006,15.5600003 C34.7200006,15.4800003 34.4000006,15.5600003 34.0800006,15.5600003 C31.9200005,15.4800003 30.8800005,14.5200003 30.7200005,12.4400003 C30.7200005,12.2800003 30.7200005,12.2000003 30.7200005,12.0400003 C30.6400005,10.2800003 30.6400005,8.60000023 30.6400005,7.00000021 Z" fill="#131B28"></path>
                        <path d="M40.2400007,5.40000018 C40.9600007,4.36000017 41.8400007,3.80000016 43.0400007,3.64000016 C43.2000007,3.64000016 43.4400007,3.56000016 43.5200007,3.64000016 C44.0000007,4.36000017 43.6000007,5.16000018 43.7600007,5.88000019 C43.8400007,6.2800002 43.5200007,6.2800002 43.2000007,6.3600002 C41.1200007,6.6800002 40.2400007,7.56000022 40.2400007,9.72000025 C40.2400007,11.3200003 40.2400007,12.9200003 40.2400007,14.5200003 C40.2400007,15.1600003 40.0800007,15.4000003 39.4400006,15.4000003 C37.6800006,15.4000003 37.6800006,15.4000003 37.6800006,13.6400003 C37.6800006,10.6800003 37.6800006,7.72000022 37.6800006,4.76000018 C37.6800006,4.04000016 37.8400006,3.72000016 38.5600006,3.88000016 C38.5600006,3.88000016 38.6400006,3.88000016 38.6400006,3.88000016 C40.0800007,3.80000016 40.0800007,3.80000016 40.2400007,5.40000018 Z" fill="#131B28"></path>
                        <path d="M20.5600004,13.1600003 C21.3600004,14.6000003 22.7200004,15.3200003 24.3200004,15.6400003 C22.4000004,15.6400003 20.5600004,15.6400003 18.6400003,15.6400003 C17.8400003,15.2400003 17.8400003,14.5200003 17.7600003,13.8000003 C17.7600003,13.3200003 18.0800003,13.1600003 18.4800003,13.1600003 C19.2000003,13.0800003 19.8400004,13.0000003 20.5600004,13.1600003 Z" fill="#DE3342"></path>
                        <path d="M1.04000008,8.20000023 C1.04000008,7.40000018 1.04000008,6.6000002 1.04000008,5.72000019 C1.20000008,5.48000019 1.44000008,5.40000018 1.76000009,5.40000018 C2.00000009,5.40000018 2.16000009,5.40000018 2.4000001,5.40000018 C2.5600001,5.40000018 2.6400001,5.48000019 2.8000001,5.56000019 C2.5600001,6.3600002 2.9600001,7.16000021 2.9600001,7.96000022 C2.8800001,8.04000022 2.8800001,8.12000023 2.8000001,8.20000023 C2.4800001,8.44000023 2.08000009,8.36000023 1.76000009,8.36000023 C1.36000008,8.44000023 1.20000008,8.36000023 1.04000008,8.20000023 Z" fill="#5E5235"></path>
                        <path d="M2.8800001,15.6400003 C2.7200001,15.6400003 2.4800001,15.6400003 2.32000009,15.6400003 C1.76000009,14.8400003 1.36000008,14.0400003 1.84000009,13.0800003 C2.00000009,12.6800003 1.84000009,12.4400003 1.84000009,12.1200003 C1.76000009,11.6400003 1.52000008,11.2400003 1.68000008,10.7600003 C1.92000009,10.5200003 2.16000009,10.5200003 2.4000001,10.6000003 C2.4800001,10.6000003 2.5600001,10.6800003 2.6400001,10.7600003 C3.0400001,11.5600003 3.44000011,12.3600003 3.0400001,13.3200003 C2.6400001,13.7200003 2.8800001,14.1200003 2.9600001,14.5200003 C3.0400001,14.8400003 3.28000011,15.2400003 2.8800001,15.6400003 Z" fill="#461D31"></path>
                        <path d="M1.76000009,15.6400003 C1.20000008,15.7200003 0.960000074,15.4800003 0.960000074,14.9200003 C0.960000074,13.4800003 0.960000074,12.1200003 0.960000074,10.6800003 C1.12000008,10.5200003 1.36000008,10.5200003 1.60000008,10.6800003 C1.76000009,11.6400003 2.32000009,12.5200003 1.68000008,13.4800003 C1.52000008,13.7200003 1.76000009,14.0400003 1.84000009,14.3600003 C1.92000009,14.7600003 2.08000009,15.2400003 1.76000009,15.6400003 Z" fill="#3B1C2F"></path>
                        <path d="M24.8800002,3.48000016 C24.5600004,3.64000016 24.1600004,3.64000016 23.7600004,3.64000016 C21.0400004,4.28000017 18.2400003,3.96000016 15.5200003,3.96000016 C15.2800003,3.96000016 15.0400003,3.96000016 14.8000003,3.96000016 C14.4800003,3.96000016 14.1600003,4.04000016 13.8400003,3.96000016 C13.6000003,3.96000016 13.2800003,3.96000016 13.0400003,3.96000016 C12.8000003,4.04000016 12.5600002,3.96000016 12.2400002,3.96000016 C12.0000002,3.96000016 11.8400002,3.96000016 11.6000002,3.96000016 C11.2800002,4.04000016 10.9600002,4.04000016 10.7200002,3.96000016 C10.4000002,3.96000016 10.0000002,4.04000016 9.6800002,3.88000016 C9.6000002,3.88000016 9.5200002,3.80000016 9.4400002,3.72000016 C9.3600002,3.64000016 9.3600002,3.56000016 9.4400002,3.48000016 C14.5600003,3.40000015 19.7600004,3.40000015 24.8800002,3.48000016 Z" fill="#893D2A"></path>
                        <path d="M1.60000008,10.6800003 C1.44000008,10.6800003 1.20000008,10.6800003 1.04000008,10.6800003 C1.04000008,9.88000025 1.04000008,9.00000024 1.04000008,8.20000023 C1.20000008,8.20000023 1.44000008,8.20000023 1.60000008,8.20000023 C2.4000001,8.60000023 2.8000001,9.48000025 2.5600001,10.6800003 C2.32000009,10.6800003 2.08000009,10.6800003 1.76000009,10.6800003 C1.68000008,10.7600003 1.68000008,10.7600003 1.60000008,10.6800003 Z" fill="#502137"></path>
                        <path d="M12.4800002,15.5600003 C12.0800002,15.5600003 11.6800002,15.5600003 11.3600002,15.5600003 C10.7200002,14.9200003 10.6400002,14.2000003 10.8000002,13.3200003 C10.8800002,13.0800003 11.1200002,13.0000003 11.2800002,12.9200003 C11.4400002,12.8400003 11.6000002,12.8400003 11.7600002,12.8400003 C12.1600002,12.8400003 12.6400002,12.7600003 12.9600003,13.0800003 C13.1200003,13.3200003 12.9600003,13.4000003 12.8000003,13.5600003 C12.4000002,13.6400003 12.2400002,13.8000003 12.3200002,14.2800003 C12.4800002,14.6800003 12.7200002,15.0800003 12.4800002,15.5600003 Z" fill="#A82C3B"></path>
                        <path d="M12.6400002,13.3200003 C12.8000003,13.2400003 12.8800003,13.1600003 13.0400003,13.1600003 C13.0400003,13.1600003 13.1200003,13.0800003 13.1200003,13.0800003 C13.5200003,12.8400003 13.9200003,12.8400003 14.2400003,13.0800003 C14.3200003,13.1600003 14.4000003,13.2400003 14.4000003,13.3200003 C14.4000003,13.4000003 14.3200003,13.4800003 14.2400003,13.5600003 C13.7600003,13.7200003 14.0000003,14.0400003 14.0800003,14.2800003 C14.1600003,14.7600003 14.4000003,15.1600003 14.1600003,15.6400003 C13.8400003,15.6400003 13.5200003,15.6400003 13.2000003,15.6400003 C12.5600002,14.9200003 12.2400002,14.2000003 12.6400002,13.3200003 Z" fill="#B82E3D"></path>
                        <path d="M9.4400002,15.5600003 C9.1200002,15.5600003 8.80000019,15.5600003 8.48000019,15.5600003 C7.84000018,15.1600003 7.84000018,14.4400003 7.68000017,13.8000003 C7.60000017,13.3200003 7.92000018,13.0800003 8.32000018,12.9200003 C8.48000019,12.8400003 8.72000019,12.8400003 8.96000019,12.8400003 C9.1200002,12.8400003 9.2800002,12.9200003 9.3600002,13.0000003 C9.4400002,13.0800003 9.4400002,13.1600003 9.4400002,13.2400003 C9.1200002,13.5600003 9.2000002,13.9600003 9.2800002,14.3600003 C9.4400002,14.8400003 9.6800002,15.1600003 9.4400002,15.5600003 Z" fill="#8A2837"></path>
                        <path d="M20.5600004,13.1600003 C19.9200004,13.5600003 19.2800003,13.3200003 18.6400003,13.3200003 C18.0800003,13.3200003 17.9200003,13.4800003 18.0800003,14.0400003 C18.2400003,14.6000003 18.3200003,15.1600003 18.6400003,15.6400003 C18.4000003,15.6400003 18.1600003,15.6400003 17.8400003,15.6400003 C16.9600003,15.0800003 16.8800003,14.2000003 17.0400003,13.3200003 C17.2800003,13.1600003 17.5200003,13.0000003 17.7600003,12.9200003 C18.7200003,12.8400003 19.6800004,12.5200003 20.5600004,13.1600003 L20.5600004,13.1600003 Z" fill="#DA3341"></path>
                        <path d="M1.60000008,10.6800003 C1.68000008,10.6800003 1.76000009,10.6800003 1.76000009,10.6800003 C1.92000009,11.1600003 2.00000009,11.7200003 2.16000009,12.2000003 C2.24000009,12.6000003 2.4000001,12.9200003 2.00000009,13.3200003 C1.60000008,13.6400003 2.08000009,14.0400003 2.16000009,14.4400003 C2.24000009,14.8400003 2.32000009,15.2400003 2.4000001,15.6400003 C2.24000009,15.6400003 2.00000009,15.6400003 1.84000009,15.6400003 C1.20000008,13.9600003 2.08000009,12.2800003 1.60000008,10.6800003 Z" fill="#411E2F"></path>
                        <path d="M14.2400003,13.3200003 C14.3200003,13.3200003 14.4000003,13.3200003 14.4000003,13.3200003 C14.6400003,13.0800003 14.8800003,13.0800003 15.1200003,13.2400003 C15.5200003,13.9600003 15.8400003,14.7600003 15.6800003,15.6400003 C15.3600003,15.6400003 15.0400003,15.6400003 14.7200003,15.6400003 C14.0800003,15.0000003 13.9200003,14.2000003 14.2400003,13.3200003 Z" fill="#C4303F"></path>
                        <path d="M15.7600003,15.5600003 C15.3600003,14.8400003 15.2000003,14.1200003 15.2000003,13.3200003 C15.2800003,13.1600003 15.4400003,13.0000003 15.6000003,12.9200003 C15.6800003,12.9200003 15.7600003,12.8400003 15.9200003,12.8400003 C16.0000003,12.8400003 16.1600003,12.8400003 16.2400003,12.8400003 C16.7200003,12.9200003 17.2800003,12.6800003 17.6800003,13.0800003 C17.5200003,13.2400003 17.2800003,13.2400003 17.1200003,13.2400003 C16.9600003,13.4000003 16.7200003,13.4800003 16.4800003,13.5600003 C15.9200003,13.7200003 16.2400003,14.1200003 16.2400003,14.3600003 C16.3200003,14.7600003 16.5600003,15.0800003 16.4800003,15.4800003 C16.2400003,15.5600003 16.0000003,15.5600003 15.7600003,15.5600003 Z" fill="#CA303F"></path>
                        <path d="M16.3200003,13.3200003 C16.5600003,13.3200003 16.8000003,13.3200003 17.1200003,13.3200003 C17.4400003,14.0400003 17.4400003,14.9200003 17.8400003,15.5600003 C17.6000003,15.5600003 17.3600003,15.5600003 17.0400003,15.5600003 C16.3200003,15.0800003 16.0800003,14.3600003 16.3200003,13.3200003 Z" fill="#D53240"></path>
                        <path d="M12.6400002,13.3200003 C12.7200002,14.1200003 13.0400003,14.8400003 13.2000003,15.5600003 C12.9600003,15.5600003 12.7200002,15.5600003 12.4000002,15.5600003 C12.2400002,15.0800003 12.1600002,14.6000003 11.9200002,14.1200003 C11.7600002,13.4800003 12.0000002,13.3200003 12.6400002,13.3200003 Z" fill="#B02D3C"></path>
                        <path d="M6.32000015,15.5600003 C6.08000015,15.5600003 5.84000015,15.5600003 5.52000014,15.5600003 C4.80000013,14.7600003 4.64000013,13.8000003 5.04000013,13.0000003 C5.20000014,12.8400003 5.44000014,12.8400003 5.68000014,12.9200003 C5.76000015,12.9200003 5.84000015,13.0000003 5.92000015,13.0800003 C6.08000015,13.9600003 6.56000016,14.6800003 6.32000015,15.5600003 Z" fill="#6C2434"></path>
                        <path d="M2.8800001,15.6400003 C2.8000001,15.2400003 2.6400001,14.8400003 2.5600001,14.3600003 C2.4800001,13.9600003 2.24000009,13.4000003 2.8800001,13.1600003 C3.0400001,13.0800003 3.12000011,13.0000003 3.28000011,13.0800003 C3.44000011,13.8800003 3.92000012,14.6800003 3.68000011,15.5600003 C3.44000011,15.6400003 3.20000011,15.6400003 2.8800001,15.6400003 Z" fill="#4F2030"></path>
                        <path d="M9.4400002,13.3200003 C9.4400002,13.2400003 9.4400002,13.1600003 9.4400002,13.1600003 C9.5200002,13.0000003 9.6800002,12.9200003 9.84000021,12.9200003 C10.1600002,12.9200003 10.4800002,12.8400003 10.8000002,12.9200003 C11.0400002,12.9200003 11.2000002,13.0000003 11.3600002,13.2400003 C11.2000002,13.3200003 11.1200002,13.4000003 10.9600002,13.4000003 C10.5600002,13.6400003 10.5600002,13.9600003 10.6400002,14.3600003 C10.7200002,14.7600003 10.9600002,15.1600003 10.7200002,15.6400003 C10.5600002,15.6400003 10.3200002,15.6400003 10.1600002,15.6400003 C9.3600002,15.0000003 9.2800002,14.2000003 9.4400002,13.3200003 Z" fill="#992A39"></path>
                        <path d="M10.7200002,15.5600003 C10.4000002,15.1600003 10.4000002,14.6000003 10.2400002,14.1200003 C10.0000002,13.4800003 10.2400002,13.2400003 10.8800002,13.3200003 C11.0400002,14.0400003 11.1200002,14.8400003 11.2800002,15.5600003 C11.1200002,15.5600003 10.9600002,15.5600003 10.7200002,15.5600003 Z" fill="#9F2B3A"></path>
                        <path d="M4.80000013,15.5600003 C4.64000013,15.5600003 4.40000013,15.5600003 4.24000012,15.5600003 C3.60000011,14.8400003 3.36000011,14.0400003 3.68000011,13.0800003 C3.76000012,13.0000003 3.84000012,12.9200003 3.92000012,12.9200003 C4.16000012,12.8400003 4.48000013,12.8400003 4.64000013,13.0800003 C4.72000013,13.5600003 4.80000013,14.1200003 4.96000013,14.6000003 C5.04000013,15.0000003 5.12000014,15.3200003 4.80000013,15.5600003 Z" fill="#5C2232"></path>
                        <path d="M1.76000009,5.72000019 C1.52000008,5.72000019 1.28000008,5.72000019 1.04000008,5.72000019 C0.960000074,3.40000015 0.960000074,3.40000015 3.20000011,3.40000015 C3.44000011,3.40000015 3.60000011,3.40000015 3.84000012,3.40000015 C3.84000012,3.48000016 3.84000012,3.56000016 3.76000012,3.64000016 C3.68000011,3.72000016 3.52000011,3.80000016 3.36000011,3.80000016 C3.20000011,3.88000016 2.9600001,3.80000016 2.8000001,3.80000016 C2.6400001,3.80000016 2.4800001,3.80000016 2.24000009,3.80000016 C2.08000009,3.80000016 2.00000009,3.80000016 1.84000009,3.80000016 C1.44000008,3.88000016 1.60000008,4.20000017 1.60000008,4.44000017 C1.84000009,5.00000018 2.08000009,5.32000018 1.76000009,5.72000019 Z" fill="#5A2D2A"></path>
                        <path d="M4.80000013,15.5600003 C4.88000013,14.7600003 4.16000012,13.9600003 4.64000013,13.0800003 C4.72000013,13.0000003 4.80000013,13.0000003 4.88000013,12.9200003 C5.04000013,12.9200003 5.12000014,12.9200003 5.20000014,13.0800003 C4.96000013,13.9600003 5.52000014,14.6800003 5.60000014,15.5600003 C5.36000014,15.5600003 5.12000014,15.5600003 4.80000013,15.5600003 Z" fill="#642333"></path>
                        <path d="M9.4400002,13.3200003 C9.76000021,14.0400003 9.76000021,14.9200003 10.2400002,15.5600003 C10.0000002,15.5600003 9.76000021,15.5600003 9.4400002,15.5600003 C9.2800002,15.0000003 9.1200002,14.5200003 8.96000019,13.9600003 C8.80000019,13.5600003 8.96000019,13.3200003 9.4400002,13.3200003 Z" fill="#932939"></path>
                        <path d="M8.48000019,13.1600003 C8.08000018,13.4000003 7.84000018,13.6400003 8.08000018,14.2000003 C8.24000018,14.6800003 8.40000018,15.1600003 8.48000019,15.6400003 C8.32000018,15.6400003 8.08000018,15.6400003 7.92000018,15.6400003 C7.04000016,14.8400003 6.88000016,13.8800003 7.52000017,13.0800003 C7.60000017,13.0000003 7.68000017,13.0000003 7.84000018,12.9200003 C8.08000018,12.8400003 8.24000018,12.9200003 8.40000018,13.0000003 C8.40000018,13.0800003 8.40000018,13.0800003 8.48000019,13.1600003 Z" fill="#822736"></path>
                        <path d="M7.28000017,15.5600003 C7.12000017,15.5600003 6.88000016,15.5600003 6.72000016,15.5600003 C6.24000015,14.8400003 5.92000015,14.0400003 6.16000015,13.0800003 C6.24000015,13.0000003 6.32000015,12.9200003 6.40000015,12.9200003 C6.56000016,12.8400003 6.80000016,12.8400003 6.96000016,12.9200003 C7.04000016,13.0000003 7.12000017,13.0000003 7.12000017,13.1600003 C6.96000016,13.5600003 7.04000016,13.9600003 7.20000017,14.4400003 C7.36000017,14.8400003 7.68000017,15.1600003 7.28000017,15.5600003 Z" fill="#772536"></path>
                        <path d="M3.84000012,13.1600003 C3.60000011,14.0400003 4.16000012,14.7600003 4.24000012,15.6400003 C4.08000012,15.6400003 3.84000012,15.6400003 3.68000011,15.6400003 C3.60000011,14.8400003 3.0400001,14.0400003 3.28000011,13.1600003 C3.52000011,13.0000003 3.68000011,13.0000003 3.84000012,13.1600003 Z" fill="#562131"></path>
                        <path d="M16.3200003,13.3200003 C16.5600003,14.0400003 16.5600003,14.9200003 17.0400003,15.5600003 C16.8800003,15.5600003 16.6400003,15.5600003 16.4800003,15.5600003 C16.0800003,15.0800003 16.0000003,14.4400003 15.8400003,13.8800003 C15.6800003,13.4000003 15.9200003,13.3200003 16.3200003,13.3200003 Z" fill="#D03140"></path>
                        <path d="M14.2400003,13.3200003 C14.3200003,14.1200003 14.5600003,14.8400003 14.8000003,15.5600003 C14.6400003,15.5600003 14.4000003,15.5600003 14.2400003,15.5600003 C13.9200003,15.0000003 13.9200003,14.2800003 13.6800003,13.7200003 C13.3600003,13.1600003 14.0000003,13.4000003 14.2400003,13.3200003 Z" fill="#BE2F3E"></path>
                        <path d="M7.28000017,15.5600003 C7.12000017,15.0000003 7.04000016,14.4400003 6.88000016,13.9600003 C6.80000016,13.6400003 6.80000016,13.4000003 7.12000017,13.1600003 C7.28000017,13.0000003 7.52000017,13.0000003 7.68000017,13.1600003 C7.12000017,13.6400003 7.36000017,14.1200003 7.52000017,14.6800003 C7.60000017,15.0000003 7.76000018,15.3200003 7.84000018,15.6400003 C7.68000017,15.5600003 7.52000017,15.5600003 7.28000017,15.5600003 Z" fill="#7D2636"></path>
                        <path d="M6.32000015,13.1600003 C6.08000015,14.0400003 6.64000016,14.7600003 6.72000016,15.6400003 C6.56000016,15.6400003 6.48000016,15.6400003 6.32000015,15.6400003 C6.16000015,14.8400003 5.60000014,14.0400003 5.92000015,13.1600003 C6.08000015,13.0800003 6.24000015,13.0800003 6.32000015,13.1600003 Z" fill="#712534"></path>
                        <path d="M9.4400002,3.48000016 C9.4400002,3.56000016 9.4400002,3.56000016 9.4400002,3.64000016 C9.2000002,3.96000016 8.88000019,3.96000016 8.56000019,3.96000016 C8.32000018,3.96000016 8.00000018,3.96000016 7.84000018,3.80000016 C7.76000018,3.72000016 7.76000018,3.64000016 7.76000018,3.48000016 C8.24000018,3.48000016 8.88000019,3.48000016 9.4400002,3.48000016 Z" fill="#7F382A"></path>
                        <path d="M5.04000013,3.48000016 C5.52000014,3.48000016 5.92000015,3.48000016 6.40000015,3.48000016 C6.48000016,3.56000016 6.48000016,3.64000016 6.40000015,3.72000016 C6.24000015,3.88000016 6.08000015,3.88000016 5.84000015,3.88000016 C5.60000014,3.88000016 5.36000014,3.88000016 5.12000014,3.72000016 C4.96000013,3.64000016 4.96000013,3.56000016 5.04000013,3.48000016 Z" fill="#6D332A"></path>
                        <path d="M6.32000015,3.64000016 C6.32000015,3.56000016 6.32000015,3.56000016 6.32000015,3.48000016 C6.80000016,3.48000016 7.20000017,3.48000016 7.68000017,3.48000016 C7.68000017,3.56000016 7.68000017,3.56000016 7.68000017,3.64000016 C7.68000017,3.64000016 7.60000017,3.72000016 7.60000017,3.72000016 C7.36000017,3.88000016 7.04000016,3.88000016 6.72000016,3.88000016 C6.56000016,3.88000016 6.48000016,3.80000016 6.32000015,3.64000016 Z" fill="#73342A"></path>
                        <path d="M5.04000013,3.48000016 C5.04000013,3.56000016 5.04000013,3.56000016 5.04000013,3.64000016 C4.96000013,3.72000016 4.88000013,3.80000016 4.80000013,3.80000016 C4.48000013,3.88000016 4.24000012,3.88000016 3.92000012,3.72000016 C3.92000012,3.72000016 3.84000012,3.64000016 3.84000012,3.64000016 C3.84000012,3.56000016 3.84000012,3.56000016 3.84000012,3.48000016 C4.24000012,3.48000016 4.64000013,3.48000016 5.04000013,3.48000016 Z" fill="#602F2A"></path>
                        <path d="M49.6000008,8.60000023 C48.7200008,8.60000023 47.7600008,8.60000023 46.8800008,8.60000023 C46.4000008,8.60000023 46.3200007,8.44000023 46.4800008,8.04000022 C46.8800008,6.76000021 48.1600008,5.88000019 49.6000008,5.88000019 C51.1200008,5.80000019 52.4000008,6.6000002 52.8000008,7.88000022 C52.9600008,8.44000023 52.8800008,8.60000023 52.2400008,8.60000023 C51.3600008,8.52000023 50.4800008,8.60000023 49.6000008,8.60000023 Z" fill="#F2F2F2"></path>
                        <path d="M59.1200009,9.56000025 C59.1200009,7.56000022 60.640001,5.96000019 62.640001,5.96000019 C64.640001,5.96000019 66.240001,7.56000022 66.240001,9.64000025 C66.240001,11.6400003 64.720001,13.2400003 62.720001,13.2400003 C60.640001,13.2400003 59.1200009,11.6400003 59.1200009,9.56000025 Z" fill="#F2F2F2"></path>
                        <path d="M17.6800003,13.1600003 C17.1200003,13.1600003 16.5600003,13.1600003 15.9200003,13.1600003 C15.9200003,12.8400003 16.1600003,12.7600003 16.4000003,12.6800003 C17.0400003,12.6800003 17.1200003,12.2800003 16.9600003,11.8000003 C16.8800003,11.3200003 16.6400003,10.9200003 17.1200003,10.5200003 C17.2000003,10.4400003 17.3600003,10.4400003 17.4400003,10.4400003 C20.0000004,10.2800003 22.5600004,10.2000003 25.1200004,10.6800003 C25.6800004,10.6800003 26.0800004,10.9200003 26.5600005,11.1600003 C27.4400005,11.6400003 27.3600005,12.6800003 26.4800005,13.1600003 C25.4400004,13.7200003 23.6000004,13.4800003 22.9600004,12.6000003 C22.4800004,11.8800003 22.0800004,11.9600003 21.5200004,12.4400003 C21.2000004,12.6800003 20.7200004,12.7600003 20.5600004,13.1600003 C19.6000004,13.1600003 18.6400003,13.1600003 17.6800003,13.1600003 Z" fill="#BA2746"></path>
                        <path d="M15.3600003,3.64000016 C18.1600003,3.64000016 20.9600004,3.64000016 23.8400004,3.64000016 C22.7200004,4.04000016 21.8400004,4.76000018 21.2000004,5.72000019 C21.0400004,5.88000019 20.8000004,5.96000019 20.5600004,5.96000019 C18.9600003,5.96000019 17.3600003,6.04000019 15.7600003,5.88000019 C15.1200003,5.24000018 14.9600003,4.52000017 15.3600003,3.64000016 Z" fill="#E95829"></path>
                        <path d="M25.1200004,10.6800003 C22.4800004,10.6800003 19.8400004,10.6800003 17.2800003,10.6800003 C16.4800003,10.0400003 16.5600003,9.16000024 16.5600003,8.28000023 C16.7200003,8.12000023 16.8800003,8.04000022 17.1200003,7.96000022 C18.1600003,7.88000022 19.2000003,7.96000022 20.2400004,7.96000022 C20.5600004,7.96000022 20.8800004,7.96000022 21.1200004,8.20000023 C22.0000004,9.80000025 23.6000004,10.1200003 25.1200004,10.6800003 Z" fill="#EA365D"></path>
                        <path d="M21.0400004,5.96000019 C21.0400004,6.6800002 21.0400004,7.32000021 21.0400004,8.04000022 C19.6000004,8.20000023 18.1600003,8.04000022 16.8000003,8.12000023 C15.9200003,7.56000022 15.7600003,6.6800002 16.2400003,5.88000019 C17.8400003,5.88000019 19.4400003,5.72000019 21.0400004,5.96000019 Z" fill="#F8D44F"></path>
                        <path d="M21.0400004,5.96000019 C19.3600003,5.96000019 17.7600003,5.96000019 16.0800003,5.96000019 C15.6800003,6.2800002 15.8400003,6.6000002 15.9200003,7.00000021 C16.0000003,7.40000021 16.2400003,7.80000022 15.8400003,8.20000023 C15.6000003,8.36000023 15.3600003,8.36000023 15.1200003,8.20000023 C14.4800003,7.64000019 14.4000003,6.84000021 14.4000003,6.04000019 C14.5600003,5.72000019 14.8800003,5.72000019 15.2000003,5.64000019 C15.2800003,5.64000019 15.3600003,5.72000019 15.4400003,5.72000019 C17.2800003,5.72000019 19.1200003,5.72000019 21.0400004,5.72000019 C21.1200004,5.80000019 21.1200004,5.88000019 21.0400004,5.96000019 Z" fill="#EFCD4D"></path>
                        <path d="M15.1200003,8.04000022 C15.3600003,8.04000022 15.6000003,8.04000022 15.9200003,8.04000022 C16.1600003,7.80000022 16.4000003,7.88000022 16.7200002,8.04000022 C18.1600003,8.04000022 19.6000004,8.04000022 21.1200004,8.04000022 C21.2000004,8.12000023 21.2000004,8.12000023 21.2000004,8.20000023 C19.7600004,8.20000023 18.4000003,8.20000023 16.9600003,8.28000023 C16.3200003,8.52000023 15.6000003,8.52000023 14.8800003,8.52000023 C14.2400003,8.44000023 13.5200003,8.60000023 12.8800003,8.36000023 C12.8000003,8.28000023 12.7200002,8.20000023 12.7200002,8.12000023 C12.8000003,7.88000022 13.0400003,7.80000022 13.2800003,7.80000022 C13.5200003,7.72000022 13.8400003,7.80000022 14.0800003,7.80000022 C14.3200003,7.80000022 14.4800003,7.80000022 14.7200002,7.80000022 C14.8000003,7.80000022 14.9600003,7.88000022 15.1200003,8.04000022 Z" fill="#D9864C"></path>
                        <path d="M2.7200001,8.04000022 C2.4000001,7.56000019 2.4800001,7.00000021 2.24000009,6.5200002 C2.00000009,5.96000019 2.4800001,5.96000019 2.7200001,5.80000019 C2.7200001,5.80000019 2.8000001,5.72000019 2.8000001,5.72000019 C2.9600001,5.64000019 3.12000011,5.56000019 3.28000011,5.56000019 C3.44000011,5.56000019 3.60000011,5.56000019 3.76000012,5.64000019 C3.84000012,5.72000019 3.92000012,5.72000019 3.92000012,5.80000019 C3.92000012,5.88000019 3.92000012,5.96000019 3.84000012,6.04000019 C3.76000012,6.1200002 3.68000011,6.1200002 3.68000011,6.2000002 C3.44000011,6.5200002 3.68000011,6.84000021 3.68000011,7.16000021 C3.76000012,7.48000022 3.92000012,7.88000022 3.52000011,8.20000023 C3.20000011,8.28000023 2.9600001,8.28000023 2.7200001,8.04000022 Z" fill="#6E6038"></path>
                        <path d="M2.5600001,10.6800003 C2.16000009,9.88000025 2.32000009,8.84000024 1.60000008,8.20000023 C2.00000009,8.20000023 2.4000001,8.20000023 2.7200001,8.20000023 C2.7200001,8.20000023 2.8000001,8.28000023 2.8000001,8.28000023 C2.8800001,8.36000023 2.8800001,8.44000023 2.9600001,8.52000023 C3.0400001,9.24000024 3.68000011,9.96000025 3.20000011,10.7600003 C2.9600001,10.9200003 2.7200001,10.8400003 2.5600001,10.6800003 L2.5600001,10.6800003 Z" fill="#5B233A"></path>
                        <path d="M1.76000009,5.72000019 C1.68000008,5.24000018 1.52000008,4.84000018 1.44000008,4.36000017 C1.36000008,3.96000016 1.44000008,3.64000016 2.00000009,3.64000016 C2.32000009,4.28000017 2.6400001,4.92000018 2.4000001,5.72000019 C2.16000009,5.72000019 1.92000009,5.72000019 1.76000009,5.72000019 Z" fill="#602F2A"></path>
                        <path d="M2.32000009,5.72000019 C2.16000009,5.00000018 1.84000009,4.36000017 1.92000009,3.64000016 C2.08000009,3.64000016 2.16000009,3.64000016 2.32000009,3.64000016 C2.7200001,4.28000017 3.20000011,4.92000018 2.7200001,5.72000019 C2.7200001,5.72000019 2.7200001,5.72000019 2.7200001,5.72000019 C2.5600001,5.72000019 2.4800001,5.72000019 2.32000009,5.72000019 Z" fill="#67302A"></path>
                        <path d="M2.7200001,8.04000022 C3.0400001,8.04000022 3.36000011,8.04000022 3.68000011,8.04000022 C3.84000012,7.88000022 4.00000012,7.80000022 4.24000012,7.80000022 C4.40000013,7.80000022 4.56000013,7.88000022 4.7200001,7.96000022 C4.88000013,8.12000023 4.88000013,8.28000023 4.7200001,8.36000023 C4.08000012,8.52000023 3.36000011,8.68000023 2.7200001,8.20000023 C2.7200001,8.20000023 2.7200001,8.20000023 2.7200001,8.20000023 C2.7200001,8.12000023 2.7200001,8.04000022 2.7200001,8.04000022 Z" fill="#6C5037"></path>
                        <path d="M2.5600001,10.6800003 C2.8000001,10.6800003 3.0400001,10.6800003 3.36000011,10.6800003 C3.44000011,10.6000003 3.52000011,10.6000003 3.68000011,10.6800003 C4.48000013,11.6400003 4.5600001,12.5200003 4.00000012,13.1600003 C4.00000012,13.1600003 4.00000012,13.1600003 4.00000012,13.1600003 C3.84000012,13.1600003 3.60000011,13.1600003 3.44000011,13.1600003 C3.28000011,13.1600003 3.20000011,13.1600003 3.0400001,13.1600003 C3.20000011,12.2800003 2.6400001,11.4800003 2.5600001,10.6800003 Z" fill="#4D1E33"></path>
                        <path d="M9.6000002,3.64000016 C10.0000002,3.64000016 10.4000002,3.64000016 10.7200002,3.64000016 C11.2000002,4.28000017 11.3600002,4.92000018 11.2000002,5.64000016 C11.0400002,5.88000019 10.8000002,5.96000019 10.5600002,6.04000019 C10.4000002,6.04000019 10.2400002,6.04000019 10.0800002,6.04000019 C10.0000002,6.04000019 9.92000021,5.96000019 9.84000021,5.88000019 C9.6000002,5.16000018 9.1200002,4.44000017 9.6000002,3.64000016 Z" fill="#BC4A29"></path>
                        <path d="M9.6000002,3.64000016 C9.76000021,4.36000017 9.84000021,5.16000018 10.0000002,5.88000019 C9.92000021,5.96000019 9.84000021,6.04000019 9.76000021,6.04000019 C9.4400002,6.04000019 9.04000019,6.04000019 8.80000019,5.72000019 C8.48000019,5.08000018 8.16000018,4.44000017 8.56000019,3.64000016 C8.88000019,3.64000016 9.2000002,3.64000016 9.5200002,3.64000016 C9.5200002,3.64000016 9.5200002,3.64000016 9.6000002,3.64000016 Z" fill="#B34729"></path>
                        <path d="M11.1200002,5.72000019 C10.9600002,5.00000018 10.6400002,4.36000017 10.7200002,3.64000016 C11.0400002,3.64000016 11.3600002,3.64000016 11.6800002,3.64000016 C12.1600002,4.28000017 12.4000002,5.00000018 12.0000002,5.80000019 C11.7600002,6.04000019 11.4400002,6.04000019 11.1200002,5.72000019 Z" fill="#C84E29"></path>
                        <path d="M13.8400003,3.64000016 C14.1600003,3.64000016 14.4800003,3.64000016 14.8000003,3.64000016 C15.1200003,4.28000017 15.5200003,5.00000018 15.0400003,5.72000019 C14.8000003,5.88000019 14.4800003,5.88000019 14.2400003,5.80000019 C13.7600003,5.16000018 13.3600003,4.44000017 13.8400003,3.64000016 Z" fill="#E15529"></path>
                        <path d="M12.3200002,3.64000016 C12.5600002,3.64000016 12.8000003,3.64000016 13.1200003,3.64000016 C13.8400003,4.28000017 13.9200003,4.84000018 13.5200003,5.80000019 C13.2800003,5.96000019 12.9600003,5.96000019 12.7200002,5.88000019 C12.2400002,5.16000018 11.9200002,4.44000017 12.3200002,3.64000016 Z" fill="#D65229"></path>
                        <path d="M12.3200002,3.64000016 C12.4800002,4.36000017 12.8000003,5.00000018 12.7200002,5.72000019 C12.5600002,5.88000019 12.3200002,5.88000019 12.1600002,5.72000019 C11.9200002,5.08000018 11.7600002,4.36000017 11.7600002,3.64000016 C11.9200002,3.64000016 12.0800002,3.64000016 12.3200002,3.64000016 Z" fill="#CF5029"></path>
                        <path d="M13.4400003,5.72000019 C13.5200003,5.00000018 13.3600003,4.36000017 13.0400003,3.64000016 C13.2800003,3.64000016 13.5200003,3.64000016 13.8400003,3.64000016 C13.7600003,4.36000017 14.3200003,5.00000018 14.2400003,5.72000019 C13.9200003,5.96000019 13.6800003,5.96000019 13.4400003,5.72000019 Z" fill="#DB5329"></path>
                        <path d="M14.9600003,5.72000019 C14.8800003,5.00000018 14.8000003,4.36000017 14.8000003,3.64000016 C14.9600003,3.64000016 15.2000003,3.64000016 15.3600003,3.64000016 C15.2800003,4.36000017 15.9200003,5.00000018 15.5200003,5.72000019 C15.4400003,5.72000019 15.3600003,5.72000019 15.3600003,5.72000019 C15.2000003,5.80000019 15.0400003,5.88000019 14.9600003,5.72000019 Z" fill="#E75729"></path>
                        <path d="M13.0400003,13.1600003 C12.5600002,13.1600003 12.1600002,13.1600003 11.6800002,13.1600003 C11.7600002,12.6000003 11.8400002,12.0400003 11.6000002,11.4800003 C11.4400002,11.1600003 11.4400002,10.8400003 11.6800002,10.6000003 C11.8400002,10.4400003 12.0800002,10.4400003 12.2400002,10.4400003 C12.4000002,10.4400003 12.5600002,10.5200003 12.7200002,10.6000003 C13.3600003,11.2400003 13.5200003,12.0400003 13.3600003,12.9200003 C13.3600003,13.0000003 13.2000003,13.0800003 13.0400003,13.1600003 C13.0400003,13.1600003 13.0400003,13.1600003 13.0400003,13.1600003 Z" fill="#9A2440"></path>
                        <path d="M11.6800002,10.6800003 C11.6000002,11.2400003 12.0000002,11.6400003 12.0800002,12.1200003 C12.2400002,12.6800003 12.0800002,12.9200003 11.6800002,13.1600003 C11.5200002,13.1600003 11.4400002,13.1600003 11.2800002,13.1600003 C11.1200002,13.1600003 10.8800002,13.1600003 10.7200002,13.1600003 C11.0400002,12.7600003 11.0400002,12.6800003 10.8800002,11.9600003 C10.8000002,11.5600003 10.5600002,11.1600003 10.7200002,10.6800003 C10.8800002,10.5200003 11.1200002,10.4400003 11.2800002,10.5200003 C11.4400002,10.4400003 11.6000002,10.5200003 11.6800002,10.6800003 Z" fill="#93243F"></path>
                        <path d="M13.0400003,13.1600003 C13.1200003,13.0800003 13.2000003,13.0000003 13.2000003,13.0000003 C13.6800003,12.6800003 13.6800003,12.2800003 13.5200003,11.8000003 C13.3600003,11.4000003 13.1200003,11.0800003 13.3600003,10.6800003 C13.4400003,10.6000003 13.6000003,10.5200003 13.7600003,10.5200003 C13.9200003,10.5200003 14.0800003,10.6000003 14.1600003,10.6800003 C14.7200003,11.3200003 14.9600003,12.0400003 14.8800003,12.9200003 C14.8000003,13.0800003 14.6400003,13.2400003 14.4800003,13.2400003 C14.4000003,13.2400003 14.4000003,13.2400003 14.3200003,13.2400003 C13.9200003,13.1600003 13.5200003,13.1600003 13.0400003,13.1600003 Z" fill="#A62643"></path>
                        <path d="M15.5200003,13.1600003 C15.3600003,13.2400003 15.2800003,13.3200003 15.1200003,13.3200003 C14.8800003,13.3200003 14.6400003,13.3200003 14.3200003,13.3200003 C14.3200003,13.2400003 14.3200003,13.1600003 14.3200003,13.1600003 C14.3200003,13.1600003 14.3200003,13.1600003 14.3200003,13.1600003 C14.6400003,13.0800003 14.9600003,12.8400003 15.3600003,13.0800003 C15.4400003,13.0800003 15.5200003,13.0800003 15.5200003,13.1600003 Z" fill="#BE2F3E"></path>
                        <path d="M9.84000021,13.1600003 C9.6800002,13.1600003 9.6000002,13.1600003 9.4400002,13.1600003 C9.2800002,13.1600003 9.2000002,13.1600003 9.04000019,13.1600003 C9.2000002,12.6000003 9.1200002,12.1200003 8.96000019,11.5600003 C8.88000019,11.2400003 8.80000019,10.9200003 9.04000019,10.6000003 C9.2000002,10.5200003 9.2800002,10.4400003 9.4400002,10.4400003 C9.6800002,10.4400003 9.84000021,10.5200003 10.0800002,10.6000003 C10.4000002,11.0000003 10.4800002,11.4000003 10.5600002,11.8800003 C10.7200002,12.5200003 10.6400002,13.0800003 9.84000021,13.1600003 Z" fill="#85223D"></path>
                        <path d="M9.04000019,10.6800003 C9.2000002,11.1600003 9.2800002,11.7200003 9.4400002,12.2000003 C9.6000002,12.6800003 9.4400002,12.9200003 9.04000019,13.1600003 C8.88000019,13.1600003 8.64000019,13.1600003 8.48000019,13.1600003 C8.48000019,13.1600003 8.48000019,13.1600003 8.48000019,13.1600003 C8.56000019,12.2800003 8.00000018,11.4800003 8.24000018,10.6800003 C8.32000018,10.6000003 8.48000019,10.5200003 8.64000019,10.5200003 C8.80000019,10.5200003 8.96000019,10.5200003 9.04000019,10.6800003 Z" fill="#7F223C"></path>
                        <path d="M16.4800003,12.9200003 C16.2400003,12.9200003 16.0800003,12.9200003 15.9200003,13.0800003 C15.8400003,13.0800003 15.7600003,13.0800003 15.7600003,13.0800003 C15.2000003,12.3600003 14.8800003,11.4800003 15.1200003,10.6000003 C15.2800003,10.4400003 15.5200003,10.3600003 15.7600003,10.4400003 C15.9200003,10.4400003 16.0800003,10.5200003 16.2400003,10.6000003 C16.6400003,11.3200003 17.0400003,12.1200003 16.4800003,12.9200003 Z" fill="#B12744"></path>
                        <path d="M15.1200003,10.6800003 C15.2800003,11.4800003 15.5200003,12.2800003 15.6800003,13.1600003 C15.6000003,13.1600003 15.5200003,13.1600003 15.5200003,13.1600003 C15.5200003,13.1600003 15.5200003,13.1600003 15.5200003,13.1600003 C15.2800003,12.9200003 14.9600003,13.1600003 14.7200003,13.0000003 C14.7200003,12.2000003 14.4000003,11.4800003 14.1600003,10.7600003 C14.2400003,10.6000003 14.4000003,10.5200003 14.5600003,10.5200003 C14.8000003,10.4400003 15.0400003,10.5200003 15.1200003,10.6800003 Z" fill="#AB2643"></path>
                        <path d="M5.20000014,13.1600003 C5.04000013,13.1600003 4.96000013,13.1600003 4.80000013,13.1600003 C4.80000013,12.2800003 4.16000012,11.4800003 4.56000013,10.6000003 C4.72000013,10.5200003 4.80000013,10.4400003 4.96000013,10.4400003 C5.28000014,10.4400003 5.52000014,10.4400003 5.76000015,10.6800003 C6.16000015,11.1600003 6.16000015,11.7200003 6.32000015,12.2800003 C6.40000015,12.7600003 6.24000015,13.0800003 5.76000015,13.1600003 C5.60000014,13.1600003 5.44000014,13.1600003 5.20000014,13.1600003 Z" fill="#611F36"></path>
                        <path d="M5.76000015,13.1600003 C6.08000015,12.9200003 6.16000015,12.6800003 6.00000015,12.2800003 C5.84000015,11.8000003 5.68000014,11.2400003 5.76000015,10.6800003 C5.76000015,10.6800003 5.84000015,10.6000003 5.84000015,10.6000003 C6.08000015,10.5200003 6.24000015,10.5200003 6.40000015,10.6800003 C6.80000016,11.1600003 6.80000016,11.8000003 6.96000016,12.4400003 C7.04000016,12.9200003 6.80000016,13.0800003 6.48000016,13.1600003 C6.40000015,13.1600003 6.32000015,13.1600003 6.32000015,13.1600003 C6.16000015,13.1600003 6.08000015,13.1600003 5.92000015,13.1600003 C5.92000015,13.1600003 5.84000015,13.1600003 5.76000015,13.1600003 Z" fill="#692038"></path>
                        <path d="M9.84000021,13.1600003 C10.4000002,12.9200003 10.4800002,12.5200003 10.3200002,11.9600003 C10.1600002,11.5600003 10.1600002,11.0800003 10.0800002,10.6800003 C10.1600002,10.5200003 10.3200002,10.5200003 10.4800002,10.5200003 C10.6400002,10.5200003 10.8000002,10.6000003 10.8800002,10.6800003 C11.1200002,11.0800003 11.2000002,11.6400003 11.3600002,12.0400003 C11.6000002,12.6000003 11.4400002,12.9200003 10.8800002,13.1600003 C10.4000002,13.1600003 10.1600002,13.1600003 9.84000021,13.1600003 Z" fill="#8D233E"></path>
                        <path d="M4.64000013,10.6800003 C4.72000013,11.1600003 4.88000013,11.5600003 4.96000013,12.0400003 C5.04000013,12.4400003 5.12000014,12.8400003 4.80000013,13.1600003 C4.72000013,13.1600003 4.64000013,13.1600003 4.64000013,13.1600003 C4.40000013,13.1600003 4.16000012,13.1600003 3.84000012,13.1600003 C4.24000012,12.2800003 3.68000011,11.4800003 3.44000011,10.6800003 C3.52000011,10.5200003 3.68000011,10.5200003 3.76000012,10.4400003 C3.92000012,10.4400003 4.16000012,10.4400003 4.32000012,10.5200003 C4.48000013,10.5200003 4.56000013,10.6000003 4.64000013,10.6800003 Z" fill="#571F34"></path>
                        <path d="M2.7200001,5.72000019 C2.8000001,5.00000018 2.24000009,4.36000017 2.32000009,3.64000016 C2.4800001,3.64000016 2.7200001,3.64000016 2.8800001,3.64000016 C3.28000011,4.28000017 3.60000011,4.92000018 3.28000011,5.72000019 C3.12000011,5.72000019 2.8800001,5.72000019 2.7200001,5.72000019 Z" fill="#6D332A"></path>
                        <path d="M3.52000011,3.64000016 C3.68000011,3.64000016 3.76000012,3.64000016 3.92000012,3.64000016 C3.92000012,3.64000016 3.92000012,3.64000016 3.92000012,3.64000016 C4.48000013,4.28000017 4.80000013,4.92000018 4.40000013,5.72000019 C4.24000012,5.80000019 4.08000012,5.80000019 3.92000012,5.72000019 L3.92000012,5.72000019 C3.28000011,5.08000018 3.0400001,4.44000017 3.52000011,3.64000016 Z" fill="#78362A"></path>
                        <path d="M3.52000011,3.64000016 C3.44000011,4.36000017 3.60000011,5.08000018 3.92000012,5.72000019 C3.76000012,5.72000019 3.52000011,5.72000019 3.36000011,5.72000019 C3.36000011,5.00000018 2.9600001,4.36000017 2.9600001,3.64000016 C3.12000011,3.64000016 3.28000011,3.64000016 3.52000011,3.64000016 Z" fill="#73342A"></path>
                        <path d="M7.68000017,13.1600003 C7.52000017,13.1600003 7.28000017,13.1600003 7.12000017,13.1600003 C7.12000017,13.1600003 7.12000017,13.1600003 7.12000017,13.1600003 C7.12000017,12.6800003 6.96000016,12.2000003 6.88000016,11.7200003 C6.80000016,11.4000003 6.56000016,11.0000003 6.88000016,10.6800003 C7.04000016,10.6000003 7.12000017,10.5200003 7.28000017,10.5200003 C7.44000017,10.5200003 7.60000017,10.6000003 7.68000017,10.6800003 C8.08000018,11.1600003 8.16000018,11.8000003 8.32000018,12.4400003 C8.40000018,12.8400003 8.24000018,13.0800003 7.84000018,13.2400003 C7.84000018,13.1600003 7.76000018,13.1600003 7.68000017,13.1600003 Z" fill="#73213A"></path>
                        <path d="M7.92000018,13.1600003 C8.40000018,12.7600003 8.08000018,12.2800003 8.00000018,11.8800003 C7.92000018,11.4800003 7.84000018,11.0800003 7.76000018,10.6800003 C7.92000018,10.5200003 8.16000018,10.5200003 8.32000018,10.6800003 C8.48000019,11.2400003 8.56000019,11.8000003 8.80000019,12.3600003 C8.96000019,12.7600003 8.72000019,12.9200003 8.48000019,13.1600003 C8.24000018,13.1600003 8.08000018,13.1600003 7.92000018,13.1600003 Z" fill="#79213B"></path>
                        <path d="M6.96000016,10.6800003 C7.04000016,11.1600003 7.20000017,11.7200003 7.28000017,12.2000003 C7.36000017,12.5200003 7.44000017,12.8400003 7.12000017,13.1600003 C6.96000016,13.1600003 6.72000016,13.1600003 6.56000016,13.1600003 C7.12000017,12.7600003 6.72000016,12.2800003 6.64000016,11.8800003 C6.56000016,11.4800003 6.48000016,11.0800003 6.32000015,10.6800003 C6.32000015,10.6800003 6.40000015,10.6000003 6.40000015,10.6000003 C6.64000016,10.5200003 6.80000016,10.5200003 6.96000016,10.6800003 Z" fill="#6E2039"></path>
                        <path d="M8.48000019,3.64000016 C8.64000019,4.36000017 8.72000019,5.00000018 8.88000019,5.72000019 C8.88000019,5.72000019 8.80000019,5.80000019 8.80000019,5.80000019 C8.56000019,5.96000019 8.24000018,5.88000019 8.08000018,5.72000019 C7.76000018,5.08000018 7.36000017,4.36000017 7.84000018,3.64000016 C7.84000018,3.64000016 7.84000018,3.64000016 7.84000018,3.64000016 C7.92000018,3.64000016 8.24000018,3.64000016 8.48000019,3.64000016 Z" fill="#A7482A"></path>
                        <path d="M4.80000013,3.64000016 C4.88000013,3.64000016 4.96000013,3.64000016 4.96000013,3.64000016 C5.20000014,3.64000016 5.44000014,3.64000016 5.76000015,3.64000016 C6.40000015,4.20000017 6.56000016,4.92000018 6.24000015,5.72000019 C6.08000015,5.88000019 6.00000015,5.88000019 5.76000015,5.96000019 C5.52000014,5.96000019 5.28000014,5.96000019 5.12000014,5.80000019 C4.72000013,5.16000018 4.32000012,4.44000017 4.80000013,3.64000016 Z" fill="#893D2A"></path>
                        <path d="M6.16000015,5.72000019 C6.24000015,5.00000018 5.92000015,4.36000017 5.76000015,3.64000016 C5.92000015,3.64000016 6.16000015,3.64000016 6.32000015,3.64000016 C6.48000016,3.64000016 6.56000016,3.64000016 6.72000016,3.64000016 C7.28000017,4.28000017 7.52000017,4.92000018 7.20000017,5.72000019 C7.12000017,5.80000019 7.04000016,5.88000019 6.96000016,5.88000019 C6.64000016,5.96000019 6.40000015,5.96000019 6.16000015,5.72000019 Z" fill="#96432A"></path>
                        <path d="M7.12000017,5.72000019 C7.28000017,5.00000018 6.72000016,4.36000017 6.72000016,3.64000016 C7.04000016,3.64000016 7.36000017,3.64000016 7.68000017,3.64000016 C7.68000017,4.36000017 8.08000018,5.00000018 8.08000018,5.72000019 C7.76000018,6.04000019 7.44000017,6.04000019 7.12000017,5.72000019 Z" fill="#A0442A"></path>
                        <path d="M4.80000013,3.64000016 C4.72000013,4.36000017 5.12000014,5.00000018 5.20000014,5.72000019 C4.88000013,6.04000019 4.56000013,6.04000019 4.24000012,5.72000019 C4.40000013,5.00000018 3.84000012,4.36000017 3.84000012,3.64000016 C4.16000012,3.64000016 4.48000013,3.64000016 4.80000013,3.64000016 Z" fill="#7F382A"></path>
                        <path d="M16.0800003,10.6800003 C15.9200003,10.6800003 15.8400003,10.6800003 15.6800003,10.6800003 C15.2000003,9.96000025 14.8800003,9.24000024 15.2800003,8.36000023 C15.6800003,8.28000023 16.0800003,8.28000023 16.4000003,8.44000023 C17.0400003,9.08000024 16.8000003,9.96000025 17.2000003,10.6800003 C17.1200003,10.6800003 17.0400003,10.6800003 17.0400003,10.6800003 C16.7200003,10.9200003 16.4000003,10.9200003 16.0800003,10.6800003 Z" fill="#E4365C"></path>
                        <path d="M16.0800003,10.6800003 C16.4000003,10.6800003 16.7200003,10.6800003 17.0400003,10.6800003 C17.1200003,11.0800003 17.1200003,11.4800003 17.2800003,11.8800003 C17.6000003,12.6800003 17.3600003,13.0800003 16.4800003,13.0000003 C16.5600003,12.2000003 16.1600003,11.4800003 16.0800003,10.6800003 Z" fill="#B62745"></path>
                        <path d="M16.4800003,8.36000023 C16.0800003,8.36000023 15.6800003,8.36000023 15.3600003,8.36000023 C15.2000003,8.52000023 15.0400003,8.52000023 14.8000003,8.44000023 C14.7200003,8.36000023 14.7200003,8.28000023 14.7200003,8.20000023 C15.4400003,8.20000023 16.0800003,8.20000023 16.8000003,8.20000023 C16.7200003,8.28000023 16.6400003,8.36000023 16.4800003,8.36000023 Z" fill="#DF3B59"></path>
                        <path d="M16.7200003,8.04000022 C16.4800003,8.04000022 16.2400003,8.04000022 15.9200003,8.04000022 C15.7600003,7.64000022 15.6800003,7.24000021 15.6000003,6.76000021 C15.5200003,6.3600002 15.5200003,5.88000019 16.1600003,5.96000019 C16.2400003,6.6800002 16.4000003,7.32000021 16.7200003,8.04000022 Z" fill="#F5D34E"></path>
                        <path d="M15.1200003,8.04000022 C14.9600003,8.04000022 14.7200003,8.04000022 14.5600003,8.04000022 C13.8400003,7.48000022 13.6000003,6.84000021 13.9200003,5.96000019 C14.1600003,5.88000019 14.3200003,5.88000019 14.5600003,5.96000019 C14.8000003,6.6000002 14.9600003,7.32000021 15.1200003,8.04000022 Z" fill="#E9CA4D"></path>
                        <path d="M14.5600003,5.96000019 C14.4000003,5.96000019 14.1600003,5.96000019 14.0000003,5.96000019 C13.8400003,6.1200002 13.6800003,6.2000002 13.4400003,6.2000002 C13.2800003,6.2000002 13.0400003,6.2000002 12.8800003,6.2000002 C12.7200002,6.2000002 12.4800002,6.2000002 12.3200002,6.2000002 C12.1600002,6.2000002 11.9200002,6.2000002 11.7600002,6.2000002 C11.4400002,6.2000002 11.1200002,6.2000002 10.8800002,6.1200002 C10.8000002,6.04000019 10.7200002,6.04000019 10.6400002,5.88000019 C10.8000002,5.64000019 11.0400002,5.72000019 11.2000002,5.72000019 C11.5200002,5.72000019 11.8400002,5.72000019 12.1600002,5.72000019 C12.3200002,5.72000019 12.5600002,5.72000019 12.7200002,5.72000019 C12.9600003,5.72000019 13.2000003,5.72000019 13.5200003,5.72000019 C13.7600003,5.72000019 14.0000003,5.72000019 14.3200003,5.72000019 C14.5600003,5.72000019 14.8000003,5.72000019 15.1200003,5.72000019 C15.2800003,5.72000019 15.3600003,5.72000019 15.5200003,5.80000019 C15.1200003,5.96000019 14.8800003,5.88000019 14.5600003,5.96000019 Z" fill="#D49F40"></path>
                        <path d="M12.8800003,5.96000019 C13.0400003,5.96000019 13.2800003,5.96000019 13.4400003,5.96000019 C13.9200003,6.6000002 14.0800003,7.32000021 14.0000003,8.04000022 C13.7600003,8.04000022 13.5200003,8.04000022 13.2000003,8.04000022 C12.7200002,7.40000021 12.4000002,6.76000021 12.8800003,5.96000019 Z" fill="#DEC14B"></path>
                        <path d="M12.8800003,5.96000019 C12.8800003,6.6800002 13.2000003,7.32000021 13.2800003,8.04000022 C13.1200003,8.04000022 12.8800003,8.04000022 12.7200002,8.04000022 C12.6400002,8.04000022 12.6400002,7.96000019 12.5600002,7.96000019 C12.2400002,7.32000021 11.7600002,6.6800002 12.3200002,5.96000019 C12.4800002,5.96000019 12.6400002,5.96000019 12.8800003,5.96000019 Z" fill="#D9BC4A"></path>
                        <path d="M14.0000003,8.04000022 C13.6800003,7.40000021 13.5200003,6.6800002 13.4400003,5.96000019 C13.6000003,5.96000019 13.8400003,5.96000019 14.0000003,5.96000019 C14.0800003,6.6800002 14.0800003,7.40000021 14.5600003,8.04000022 C14.4000003,8.04000022 14.1600003,8.04000022 14.0000003,8.04000022 Z" fill="#E3C34B"></path>
                        <path d="M14.8000003,8.20000023 C14.8000003,8.28000023 14.8000003,8.28000023 14.8000003,8.36000023 C14.6400003,8.60000023 14.4000003,8.60000023 14.0800003,8.60000023 C13.8400003,8.60000023 13.6000003,8.68000023 13.2800003,8.60000023 C13.0400003,8.60000023 12.8800003,8.60000023 12.7200002,8.52000023 C12.5600002,8.44000023 12.4800002,8.36000023 12.4800002,8.20000023 C12.5600002,8.12000023 12.6400002,8.04000022 12.7200002,8.12000023 C13.3600003,8.20000023 14.0800003,8.20000023 14.8000003,8.20000023 Z" fill="#D33E52"></path>
                        <path d="M12.6400002,8.20000023 C12.5600002,8.20000023 12.4800002,8.20000023 12.4800002,8.20000023 C12.2400002,8.52000023 11.9200002,8.44000023 11.6000002,8.44000023 C11.3600002,8.44000023 11.2000002,8.36000023 11.0400002,8.28000023 C10.9600002,8.20000023 10.9600002,8.12000023 10.9600002,7.96000022 C11.0400002,7.80000022 11.2000002,7.80000022 11.3600002,7.72000022 C11.6000002,7.64000022 11.9200002,7.72000022 12.1600002,7.72000022 C12.4000002,7.72000022 12.5600002,7.88000022 12.7200002,7.96000022 C12.7200002,7.96000022 12.7200002,7.96000022 12.7200002,7.96000022 C12.6400002,8.04000022 12.6400002,8.12000023 12.6400002,8.20000023 Z" fill="#CB7E4A"></path>
                        <path d="M4.24000012,8.04000022 C4.08000012,8.04000022 3.84000012,8.04000022 3.68000011,8.04000022 C3.52000011,7.48000022 3.44000011,6.92000021 3.20000011,6.4400002 C2.8800001,5.72000019 3.44000011,6.04000019 3.68000011,5.96000019 C4.16000012,6.5200002 4.40000013,7.24000021 4.24000012,8.04000022 Z" fill="#746539"></path>
                        <path d="M4.24000012,8.04000022 C3.92000012,7.40000019 3.76000012,6.6800002 3.68000011,5.96000019 C3.76000012,5.96000019 3.84000012,5.96000019 3.84000012,5.96000019 C3.92000012,5.88000019 4.00000012,5.88000019 4.08000012,5.96000019 C4.64000013,6.6000002 4.72000013,7.32000021 4.56000013,8.04000022 C4.48000013,8.04000022 4.40000013,8.04000022 4.24000012,8.04000022 Z" fill="#7B6C3A"></path>
                        <path d="M4.08000012,5.96000019 C4.00000012,5.96000019 3.92000012,5.96000019 3.92000012,5.96000019 C3.92000012,5.88000019 3.92000012,5.88000019 3.92000012,5.80000019 C4.08000012,5.80000019 4.16000012,5.80000019 4.32000012,5.80000019 C4.64000013,5.80000019 4.96000013,5.80000019 5.28000014,5.80000019 C5.44000014,5.80000019 5.68000014,5.80000019 5.84000015,5.80000019 C5.92000012,5.96000019 5.76000015,6.04000019 5.68000014,6.1200002 C5.52000014,6.2000002 5.28000014,6.2000002 5.12000014,6.2000002 C4.96000013,6.2000002 4.80000013,6.2000002 4.72000013,6.2000002 C4.40000013,6.1200002 4.24000012,6.04000019 4.08000012,5.96000019 Z" fill="#826436"></path>
                        <path d="M3.84000012,10.6800003 C3.68000011,10.6800003 3.60000011,10.6800003 3.44000011,10.6800003 C3.36000011,10.6800003 3.28000011,10.6800003 3.28000011,10.6800003 C2.9600001,9.96000025 2.7200001,9.24000024 2.7200001,8.44000023 C2.8800001,8.28000023 3.12000011,8.36000023 3.36000011,8.36000023 C3.92000012,9.00000024 4.16000012,9.80000025 3.84000012,10.6800003 Z" fill="#63233C"></path>
                        <path d="M3.28000011,8.36000023 C3.12000011,8.36000023 2.8800001,8.36000023 2.7200001,8.36000023 C2.7200001,8.28000023 2.7200001,8.20000023 2.7200001,8.20000023 C3.44000011,8.20000023 4.16000012,8.20000023 4.80000013,8.20000023 C4.80000013,8.28000023 4.80000013,8.28000023 4.80000013,8.36000023 C4.7200001,8.52000023 4.64000013,8.60000023 4.48000013,8.60000023 C4.32000012,8.68000023 4.08000012,8.68000023 3.92000012,8.68000023 C3.68000011,8.68000023 3.52000011,8.60000023 3.28000011,8.36000023 Z" fill="#6C323A"></path>
                        <path d="M4.08000012,5.96000019 C4.24000012,5.96000019 4.48000013,5.96000019 4.64000013,5.96000019 C4.96000013,6.2800002 4.96000013,6.6800002 5.04000013,7.08000021 C5.12000014,7.32000021 5.12000014,7.64000022 5.44000014,7.72000022 C5.60000014,7.80000022 5.76000015,7.80000022 5.92000015,7.80000022 C6.08000012,7.80000022 6.16000015,7.80000022 6.32000015,7.80000022 C6.56000016,7.80000022 6.72000016,7.80000022 6.88000016,7.88000022 C6.96000016,7.96000019 7.04000016,8.04000022 7.04000016,8.12000023 C7.04000016,8.20000023 6.96000016,8.36000023 6.88000016,8.36000023 C6.32000015,8.60000023 5.68000014,8.44000023 5.12000014,8.44000023 C4.96000013,8.44000023 4.80000013,8.36000023 4.72000013,8.20000023 C4.72000013,8.20000023 4.72000013,8.20000023 4.72000013,8.20000023 C4.64000013,8.12000023 4.56000013,8.12000023 4.56000013,8.04000022 C4.48000013,7.32000021 4.24000012,6.6000002 4.08000012,5.96000019 Z" fill="#80703B"></path>
                        <path d="M11.3600002,8.04000022 C11.2000002,8.04000022 11.1200002,8.04000022 10.9600002,8.04000022 C10.8000002,8.12000023 10.6400002,8.12000023 10.4800002,8.04000022 C10.0800002,7.40000021 9.6800002,6.76000021 10.1600002,5.96000019 C10.3200002,5.96000019 10.4000002,5.96000019 10.5600002,5.96000019 C10.6400002,5.96000019 10.7200002,5.96000019 10.8000002,5.96000019 C11.5200002,6.5200002 11.6800002,7.08000021 11.3600002,8.04000022 Z" fill="#C5A947"></path>
                        <path d="M10.1600002,5.96000019 C10.0800002,6.6800002 10.4000002,7.32000021 10.5600002,8.04000022 C10.4000002,8.20000023 10.1600002,8.20000023 10.0000002,8.12000023 C9.5200002,7.48000022 9.2800002,6.76000021 9.3600002,5.96000019 C9.5200002,5.88000019 9.6800002,5.88000019 9.84000021,5.96000019 C9.92000021,5.96000019 10.0000002,5.96000019 10.0000002,5.96000019 C10.0800002,5.88000019 10.1600002,5.96000019 10.1600002,5.96000019 Z" fill="#BDA445"></path>
                        <path d="M9.84000021,5.88000019 C9.6800002,5.88000019 9.6000002,5.88000019 9.4400002,5.88000019 C9.3600002,5.96000019 9.2000002,6.04000019 9.1200002,6.04000019 C9.04000019,6.04000019 8.96000019,5.96000019 8.88000019,5.96000019 C8.80000019,5.88000019 8.80000019,5.80000019 8.88000019,5.80000019 C8.88000019,5.80000019 8.88000019,5.80000019 8.88000019,5.80000019 C9.2000002,5.80000019 9.5200002,5.64000019 9.84000021,5.88000019 Z" fill="#AC9642"></path>
                        <path d="M11.5200002,8.20000023 C11.8400002,8.20000023 12.1600002,8.20000023 12.4800002,8.20000023 C12.5600002,8.28000023 12.6400002,8.28000023 12.6400002,8.36000023 C13.1200003,9.08000024 13.3600003,9.80000025 13.2000003,10.6800003 C12.9600003,10.8400003 12.8000003,10.7600003 12.6400002,10.6800003 C12.4800002,10.6800003 12.4000002,10.6800003 12.2400002,10.6800003 C11.5200002,10.0400003 11.4400002,9.16000024 11.5200002,8.20000023 Z" fill="#C43254"></path>
                        <path d="M11.5200002,8.20000023 C11.7600002,9.00000024 12.0000002,9.80000025 12.2400002,10.6000003 C12.0800002,10.6000003 11.8400002,10.6000003 11.6800002,10.6000003 C11.5200002,10.6000003 11.4400002,10.6000003 11.2800002,10.6000003 C10.5600002,10.0400003 10.4800002,9.24000024 10.5600002,8.44000023 C10.6400002,8.36000023 10.6400002,8.28000023 10.7200002,8.20000023 C10.8000002,8.20000023 10.8000002,8.20000023 10.8800002,8.12000023 C11.1200002,8.20000023 11.3600002,8.20000023 11.5200002,8.20000023 Z" fill="#BB3152"></path>
                        <path d="M12.6400002,10.6800003 C12.8000003,10.6800003 13.0400003,10.6800003 13.2000003,10.6800003 C13.2800003,10.6000003 13.3600003,10.6000003 13.3600003,10.6800003 C13.5200003,11.0800003 13.7600003,11.5600003 13.9200003,11.9600003 C14.1600003,12.6800003 14.0800003,13.0800003 13.2000003,12.9200003 C13.2000003,12.1200003 12.9600003,11.4000003 12.6400002,10.6800003 Z" fill="#A12542"></path>
                        <path d="M10.7200002,8.36000023 C10.8000002,9.16000024 11.0400002,9.88000025 11.2800002,10.6000003 C11.1200002,10.6000003 10.8800002,10.6000003 10.7200002,10.6000003 C10.5600002,10.6000003 10.4800002,10.6000003 10.3200002,10.6000003 C9.76000021,9.88000025 9.4400002,9.16000024 9.92000021,8.28000023 C10.2400002,8.20000023 10.4800002,8.20000023 10.7200002,8.36000023 Z" fill="#B32F4F"></path>
                        <path d="M13.2800003,8.36000023 C13.5200003,8.36000023 13.7600003,8.36000023 14.0800003,8.36000023 C14.7200003,9.00000024 15.0400003,9.72000025 14.6400003,10.6000003 C14.4800003,10.6000003 14.4000003,10.6000003 14.2400003,10.6000003 C14.0800003,10.6000003 14.0000003,10.6000003 13.8400003,10.6000003 C13.1200003,10.0400003 12.8800003,9.24000024 13.2800003,8.36000023 Z" fill="#D13357"></path>
                        <path d="M13.2800003,8.36000023 C13.2800003,9.16000024 13.5200003,9.88000025 13.8400003,10.6000003 C13.6800003,10.6000003 13.6000003,10.6000003 13.4400003,10.6000003 C13.3600003,10.6000003 13.2800003,10.6000003 13.2800003,10.6000003 C12.9600003,9.88000025 12.7200002,9.16000024 12.7200002,8.36000023 C12.8800003,8.36000023 13.0400003,8.36000023 13.2800003,8.36000023 Z" fill="#CB3256"></path>
                        <path d="M14.8000003,12.9200003 C15.0400003,12.9200003 15.3600003,12.8400003 15.6000003,13.0800003 C15.2000003,13.0800003 14.8000003,13.0800003 14.4800003,13.0800003 C14.4800003,13.0800003 14.6400003,13.0000003 14.8000003,12.9200003 Z" fill="#B12744"></path>
                        <path d="M9.04000019,10.6800003 C8.88000019,10.6800003 8.80000019,10.6800003 8.64000019,10.6800003 C7.68000017,10.2000003 7.92000018,9.16000024 7.60000017,8.44000023 C7.60000017,8.36000023 7.60000017,8.28000023 7.68000017,8.20000023 C7.92000018,8.04000022 8.16000018,8.04000022 8.40000018,8.04000022 C8.64000019,8.12000023 8.88000019,8.20000023 9.1200002,8.44000023 C9.4400002,9.16000024 9.92000021,9.88000025 9.3600002,10.7600003 C9.2800002,10.6800003 9.2000002,10.6800003 9.04000019,10.6800003 Z" fill="#9F2F4A"></path>
                        <path d="M9.4400002,10.6800003 C9.2800002,9.96000025 9.2000002,9.16000024 9.04000019,8.44000023 C9.3600002,8.12000023 9.6800002,8.12000023 10.0000002,8.44000023 C10.1600002,9.16000024 10.2400002,9.96000025 10.4000002,10.6800003 C10.2400002,10.6800003 10.1600002,10.6800003 10.0000002,10.6800003 C9.84000021,10.6800003 9.6000002,10.6800003 9.4400002,10.6800003 Z" fill="#AA2E4D"></path>
                        <path d="M7.68000017,8.36000023 C8.08000018,8.44000023 8.00000018,8.68000023 8.08000018,9.00000024 C8.16000018,9.56000025 8.24000018,10.2000003 8.64000019,10.6800003 C8.48000019,10.6800003 8.40000018,10.6800003 8.24000018,10.6800003 C8.08000018,10.6800003 7.84000018,10.6800003 7.68000017,10.6800003 C7.52000017,10.6800003 7.44000017,10.6800003 7.28000017,10.6800003 C6.72000016,9.96000025 6.32000015,9.24000024 6.72000016,8.36000023 C7.04000016,8.28000023 7.44000017,8.12000023 7.68000017,8.36000023 Z" fill="#942B48"></path>
                        <path d="M14.5600003,10.6800003 C14.4000003,9.96000025 14.1600003,9.16000024 14.0000003,8.44000023 C14.2400003,8.44000023 14.4800003,8.44000023 14.8000003,8.44000023 C14.9600003,8.44000023 15.2000003,8.44000023 15.3600003,8.44000023 C15.4400003,9.24000024 15.8400003,9.88000025 15.7600003,10.6800003 C15.6000003,10.6800003 15.3600003,10.6800003 15.2000003,10.6800003 C14.9600003,10.6800003 14.8000003,10.6800003 14.5600003,10.6800003 Z" fill="#D93459"></path>
                        <path d="M4.80000013,8.20000023 C4.96000013,8.20000023 5.04000013,8.20000023 5.20000014,8.20000023 C5.28000014,8.28000023 5.36000014,8.36000023 5.44000014,8.36000023 C5.76000015,9.08000024 6.08000015,9.80000025 5.76000015,10.6000003 C5.76000015,10.6000003 5.76000015,10.6000003 5.76000015,10.6000003 C5.52000014,10.6000003 5.28000014,10.6000003 4.96000013,10.6000003 C4.64000013,9.88000025 4.08000012,9.16000024 4.56000013,8.36000023 C4.72000013,8.36000023 4.72000013,8.28000023 4.80000013,8.20000023 Z" fill="#792742"></path>
                        <path d="M4.64000013,8.36000023 C4.56000013,9.16000024 5.12000014,9.80000025 5.04000013,10.6000003 C4.88000013,10.6000003 4.80000013,10.6000003 4.64000013,10.6000003 C4.56000013,10.6000003 4.48000013,10.6000003 4.48000013,10.6000003 C4.00000012,9.88000025 3.68000011,9.16000024 4.08000012,8.36000023 C4.24000012,8.36000023 4.48000013,8.36000023 4.64000013,8.36000023 Z" fill="#72263F"></path>
                        <path d="M5.76000015,10.6800003 C5.60000014,9.96000025 5.36000014,9.16000024 5.20000014,8.44000023 C5.36000014,8.28000023 5.60000014,8.36000023 5.84000015,8.36000023 C6.40000015,9.08000024 6.72000016,9.80000025 6.40000015,10.6800003 C6.40000015,10.6800003 6.40000015,10.6800003 6.40000015,10.6800003 C6.16000015,10.6800003 6.00000015,10.6800003 5.76000015,10.6800003 Z" fill="#802843"></path>
                        <path d="M4.08000012,8.36000023 C4.24000012,9.08000024 4.32000012,9.88000025 4.48000013,10.6000003 C4.32000012,10.6000003 4.08000012,10.6000003 3.92000012,10.6000003 C3.76000012,9.88000025 3.52000011,9.08000024 3.36000011,8.36000023 C3.52000011,8.36000023 3.84000012,8.36000023 4.08000012,8.36000023 Z" fill="#6B253D"></path>
                        <path d="M6.32000015,10.6800003 C6.16000015,9.96000025 5.92000015,9.16000024 5.76000015,8.44000023 C6.08000015,8.28000023 6.40000015,8.28000023 6.72000016,8.44000023 C6.88000016,9.16000024 7.12000017,9.96000025 7.28000017,10.6800003 C7.12000017,10.6800003 7.04000016,10.6800003 6.88000016,10.6800003 C6.72000016,10.6800003 6.56000016,10.6800003 6.32000015,10.6800003 Z" fill="#862845"></path>
                        <path d="M8.88000019,5.80000019 C8.88000019,5.88000019 8.88000019,5.88000019 8.88000019,5.96000019 C8.80000019,6.1200002 8.64000019,6.2000002 8.56000019,6.2000002 C8.40000018,6.2000002 8.16000018,6.2000002 8.00000018,6.2800002 C7.76000018,6.2800002 7.52000017,6.2800002 7.28000017,6.2000002 C7.20000017,6.2000002 7.12000017,6.1200002 7.04000016,6.04000019 C6.96000016,5.96000019 6.96000016,5.96000019 6.96000016,5.88000019 C6.96000016,5.80000019 6.96000016,5.80000019 6.96000016,5.80000019 C7.04000016,5.80000019 7.12000017,5.80000019 7.12000017,5.80000019 C7.44000017,5.80000019 7.76000018,5.80000019 8.08000018,5.80000019 C8.32000018,5.72000019 8.56000019,5.72000019 8.88000019,5.80000019 Z" fill="#A08341"></path>
                        <path d="M6.96000016,5.80000019 C6.96000016,5.88000019 6.96000016,5.88000019 6.96000016,5.96000019 C6.88000016,6.1200002 6.80000016,6.1200002 6.64000016,6.2000002 C6.16000015,6.3600002 6.40000015,6.6800002 6.48000016,6.92000021 C6.56000016,7.32000021 6.80000016,7.72000022 6.40000015,8.04000022 C6.24000015,8.04000022 6.16000015,8.04000022 6.00000015,8.04000022 C5.44000014,7.40000021 5.12000014,6.76000021 5.60000014,5.96000019 C5.68000014,5.88000019 5.76000015,5.88000019 5.76000015,5.80000019 C5.92000015,5.80000019 6.00000015,5.80000019 6.16000015,5.80000019 C6.40000015,5.72000019 6.64000016,5.72000019 6.96000016,5.80000019 Z" fill="#907F3E"></path>
                        <path d="M11.3600002,8.04000022 C11.2000002,7.32000021 11.2000002,6.6000002 10.8000002,5.96000019 C11.1200002,5.96000019 11.4400002,5.96000019 11.7600002,5.96000019 C12.0800002,6.6000002 12.4000002,7.24000021 12.1600002,8.04000022 C11.8400002,8.04000022 11.6000002,8.04000022 11.3600002,8.04000022 Z" fill="#CCB248"></path>
                        <path d="M12.0800002,8.04000022 C11.8400002,7.40000021 11.6800002,6.6800002 11.6800002,5.96000019 C11.8400002,5.96000019 12.0800002,5.96000019 12.2400002,5.96000019 C12.1600002,6.6800002 12.4800002,7.32000021 12.6400002,8.04000022 C12.4800002,8.04000022 12.3200002,8.04000022 12.0800002,8.04000022 Z" fill="#D4B849"></path>
                        <path d="M10.0000002,8.04000022 C10.1600002,8.04000022 10.4000002,8.04000022 10.5600002,8.04000022 C10.7200002,8.04000022 10.8000002,8.04000022 10.9600002,8.04000022 C10.9600002,8.12000023 10.9600002,8.12000023 10.9600002,8.20000023 C10.9600002,8.20000023 10.9600002,8.20000023 10.9600002,8.20000023 C10.2400002,8.36000023 9.5200002,8.20000023 8.80000019,8.28000023 C8.64000019,8.28000023 8.64000019,8.20000023 8.56000019,8.12000023 C8.56000019,8.04000022 8.64000019,7.96000022 8.72000019,7.88000022 C8.96000019,7.72000022 9.2800002,7.80000022 9.5200002,7.80000022 C9.76000021,7.80000022 9.84000021,7.88000022 10.0000002,8.04000022 Z" fill="#B57246"></path>
                        <path d="M5.60000014,5.96000019 C5.52000014,6.6800002 5.84000015,7.32000021 6.00000015,8.04000022 C5.84000015,8.04000022 5.60000014,8.04000022 5.44000014,8.04000022 C5.12000014,7.40000021 4.72000013,6.76000021 5.04000013,5.96000019 C5.20000014,5.96000019 5.44000014,5.96000019 5.60000014,5.96000019 Z" fill="#8B7A3D"></path>
                        <path d="M5.04000013,5.96000019 C5.20000014,6.6800002 5.28000014,7.32000021 5.44000014,8.04000022 C4.56000013,7.56000022 4.80000013,6.6800002 4.64000013,5.96000019 C4.80000013,5.96000019 4.88000013,5.96000019 5.04000013,5.96000019 Z" fill="#85753C"></path>
                        <path d="M6.56000016,5.96000019 C6.72000016,5.96000019 6.80000016,5.96000019 6.96000016,5.96000019 C7.04000016,5.96000019 7.12000017,5.96000019 7.12000017,5.96000019 C7.84000018,6.5200002 8.00000018,7.24000021 7.68000017,8.12000023 C7.44000017,8.20000023 7.28000017,8.20000023 7.12000017,8.04000022 L7.04000016,8.04000022 L6.96000016,8.04000022 C6.56000016,7.40000021 6.08000015,6.76000021 6.56000016,5.96000019 Z" fill="#9B8840"></path>
                        <path d="M6.56000016,5.96000019 C6.48000016,6.6800002 6.88000016,7.32000021 6.96000016,8.04000022 C6.80000016,8.04000022 6.56000016,8.04000022 6.40000015,8.04000022 C6.48000016,7.56000022 6.24000015,7.16000021 6.08000015,6.6800002 C5.92000015,6.2000002 6.00000015,5.88000019 6.56000016,5.96000019 Z" fill="#96833F"></path>
                        <path d="M6.72000016,8.36000023 C6.40000015,8.36000023 6.08000015,8.36000023 5.76000015,8.36000023 C5.60000014,8.36000023 5.36000014,8.36000023 5.20000014,8.36000023 C5.20000014,8.28000023 5.20000014,8.28000023 5.20000014,8.20000023 C5.84000015,8.20000023 6.48000016,8.20000023 7.12000017,8.20000023 C7.36000017,8.12000023 7.52000017,8.04000022 7.68000017,8.28000023 C7.68000017,8.36000023 7.68000017,8.36000023 7.68000017,8.44000023 C7.36000017,8.36000023 7.04000016,8.36000023 6.72000016,8.36000023 Z" fill="#8B3144"></path>
                        <path d="M7.68000017,8.20000023 C7.52000017,8.20000023 7.28000017,8.20000023 7.12000017,8.12000023 C7.12000017,8.04000022 7.12000017,8.04000022 7.12000017,7.96000022 C7.28000017,7.96000022 7.52000017,7.96000022 7.68000017,7.96000022 C7.92000018,7.80000022 8.08000018,7.72000022 8.40000018,7.80000022 C8.48000019,7.80000022 8.56000019,7.88000022 8.64000019,7.96000022 C8.64000019,8.04000022 8.64000019,8.04000022 8.64000019,8.12000023 C8.56000019,8.20000023 8.56000019,8.20000023 8.48000019,8.12000023 C8.24000018,8.20000023 7.92000018,8.20000023 7.68000017,8.20000023 Z" fill="#A08341"></path>
                        <path d="M10.0000002,8.04000022 C9.84000021,8.04000022 9.76000021,8.04000022 9.6000002,8.04000022 C8.88000019,7.40000021 8.72000019,6.76000021 9.04000019,5.96000019 C9.2000002,5.96000019 9.2800002,5.96000019 9.4400002,5.96000019 C9.6000002,6.6000002 9.92000021,7.24000021 10.0000002,8.04000022 Z" fill="#B8A044"></path>
                        <path d="M9.04000019,5.96000019 C9.04000019,6.6800002 9.3600002,7.40000021 9.6000002,8.04000022 C9.3600002,8.04000022 9.1200002,8.04000022 8.80000019,8.04000022 C8.40000018,7.40000021 8.08000018,6.76000021 8.40000018,5.96000019 C8.56000019,5.96000019 8.64000019,5.96000019 8.80000019,5.96000019 C8.88000019,5.96000019 8.96000019,5.96000019 9.04000019,5.96000019 Z" fill="#B29B43"></path>
                        <path d="M8.48000019,8.20000023 C8.56000019,8.20000023 8.64000019,8.20000023 8.64000019,8.20000023 C9.4400002,8.20000023 10.1600002,8.20000023 10.9600002,8.20000023 C10.8800002,8.28000023 10.8000002,8.28000023 10.8000002,8.36000023 C10.5600002,8.36000023 10.3200002,8.36000023 10.0000002,8.36000023 C9.6800002,8.36000023 9.3600002,8.36000023 9.04000019,8.36000023 C8.80000019,8.36000023 8.64000019,8.44000023 8.48000019,8.20000023 Z" fill="#B0384A"></path>
                        <path d="M8.48000019,8.04000022 C8.24000018,8.04000022 8.00000018,8.04000022 7.68000017,8.04000022 C7.52000017,7.32000021 7.28000017,6.6800002 7.12000017,5.96000019 C7.36000017,5.96000019 7.60000017,5.96000019 7.92000018,5.96000019 C8.48000019,6.5200002 8.56000019,7.24000021 8.48000019,8.04000022 Z" fill="#A79242"></path>
                        <path d="M8.48000019,8.04000022 C8.32000018,7.32000021 8.08000018,6.6800002 7.92000018,5.96000019 C8.08000018,5.96000019 8.32000018,5.96000019 8.48000019,5.96000019 C8.64000019,6.6800002 8.72000019,7.32000021 8.88000019,8.04000022 C8.80000019,8.04000022 8.72000019,8.04000022 8.72000019,8.04000022 C8.56000019,8.04000022 8.56000019,8.04000022 8.48000019,8.04000022 Z" fill="#AC9642"></path>
                    </g>
                </g>
            </g>
        </g>
    </g>
</svg>