<svg xmlns="http://www.w3.org/2000/svg" width="250" height="120" viewBox="0 0 250 120">
  <g fill="none" fill-rule="evenodd">
    <path fill="#FFC300" d="M4,50 L46,50 C48.209139,50 50,51.790861 50,54 L50,120 L50,120 L0,120 L0,54 C-2.705415e-16,51.790861 1.790861,50 4,50 Z"/>
    <path fill="#FFB000" d="M54,38 L96,38 C98.209139,38 100,39.790861 100,42 L100,120 L100,120 L50,120 L50,42 C50,39.790861 51.790861,38 54,38 Z"/>
    <path fill="#FF9E00" d="M104,25 L146,25 C148.209139,25 150,26.790861 150,29 L150,120 L150,120 L100,120 L100,29 C100,26.790861 101.790861,25 104,25 Z"/>
    <path fill="#FF8B00" d="M153,12 L197,12 C198.656854,12 200,13.3431458 200,15 L200,120 L200,120 L150,120 L150,15 C150,13.3431458 151.343146,12 153,12 Z"/>
    <path fill="#FF7600" d="M204,0 L246,0 C248.209139,-4.05812251e-16 250,1.790861 250,4 L250,120 L250,120 L200,120 L200,4 C200,1.790861 201.790861,4.05812251e-16 204,0 Z"/>
    <path fill="#575756" fill-rule="nonzero" d="M19.5190009 95.802C19.705001 95.802 19.903001 95.6519999 19.903001 95.4299999 19.903001 95.2679999 19.813001 95.1299999 19.6570009 95.0459998L16.1050004 93.1979995 19.6510009 91.3679992C19.813001 91.2839992 19.921001 91.1819992 19.921001 90.9959992 19.921001 90.7859991 19.759001 90.6059991 19.5490009 90.6059991 19.4590009 90.6059991 19.3870009 90.6299991 19.3030009 90.6719991L15.1510002 92.8259995C14.9950002 92.9099995 14.8930002 93.0059995 14.8930002 93.1979995 14.8930002 93.3839996 14.9710002 93.4679996 15.1510002 93.5639996L19.2970009 95.736C19.3690009 95.772 19.4530009 95.802 19.5190009 95.802zM24.2470005 96.072C25.9570008 96.072 27.001001 94.6319998 27.001001 92.1839994 27.001001 89.771999 25.9390008 88.2119987 24.2470005 88.2119987 22.5610003 88.2119987 21.4990001 89.759999 21.4990001 92.1839994 21.4990001 94.6319998 22.5430003 96.072 24.2470005 96.072zM24.2470005 95.3039999C23.0410003 95.3039999 22.3150002 94.1159997 22.3150002 92.1839994 22.3150002 90.2459991 23.0530003 88.9799988 24.2470005 88.9799988 25.5010007 88.9799988 26.1790009 90.3779991 26.1790009 92.1839994 26.1790009 94.1159997 25.4410007 95.3039999 24.2470005 95.3039999zM28.7950002 96.072C29.0170002 96.072 29.1910003 95.91 29.1910003 95.6759999L29.1910003 95.2799999C29.1910003 95.0519998 29.0170002 94.8839998 28.7950002 94.8839998 28.5670002 94.8839998 28.3990001 95.0519998 28.3990001 95.2799999L28.3990001 95.6759999C28.3990001 95.91 28.5670002 96.072 28.7950002 96.072zM34.3330007 96C34.5610007 96 34.7290008 95.838 34.7290008 95.6039999L34.7290008 94.0619997 35.2270009 94.0619997C35.4550009 94.0619997 35.6230009 93.9119997 35.6230009 93.6839996 35.6230009 93.4559996 35.4550009 93.2999996 35.2270009 93.2999996L34.7290008 93.2999996 34.7290008 90.8459992C34.7290008 90.6119991 34.5610007 90.4499991 34.3330007 90.4499991 34.1050007 90.4499991 33.9370006 90.6119991 33.9370006 90.8459992L33.9370006 93.2999996 31.3450002 93.2999996C32.2990004 91.3679992 33.8170006 89.681999 34.5070007 88.9679988 34.6030008 88.8659988 34.6450008 88.7699988 34.6450008 88.6499988 34.6450008 88.4519988 34.4710007 88.2839987 34.2550007 88.2839987 34.1470007 88.2839987 34.0330007 88.3139987 33.9490006 88.4039988 33.1570005 89.3039989 31.5250002 91.1999992 30.4450001 93.3719996 30.3790001 93.5099996 30.3490001 93.6059996 30.3490001 93.6839996 30.3490001 93.8579996 30.4690001 94.0619997 30.7870001 94.0619997L33.9370006 94.0619997 33.9370006 95.6039999C33.9370006 95.838 34.1050007 96 34.3330007 96zM19.3750011 110C19.6090011 110 19.8610012 109.898 20.0170012 109.574 20.4370013 108.704 21.4810014 103.657999 21.6250015 102.835999 21.6490015 102.697999 21.6550015 102.673999 21.6550015 102.631999 21.6550015 102.421999 21.4870014 102.283999 21.2650014 102.283999 21.0490014 102.283999 20.9170014 102.379999 20.8570013 102.619999 20.8210013 102.760726 20.5368691 104.215305 20.2110298 105.724736L20.1011552 106.228184C19.8609736 107.315906 19.6110011 108.359272 19.4290011 108.884 19.4110011 108.932 19.3930011 108.962 19.3750011 108.98 19.3570011 108.956 19.3330011 108.926 19.3150011 108.878 18.871001 107.69 18.0490009 103.993999 17.8090008 102.871999 17.7610008 102.649999 17.5750008 102.487999 17.2990008 102.487999 17.0350007 102.487999 16.8490007 102.637999 16.7950007 102.871999 16.5310006 103.993999 15.7090005 107.606 15.2410004 108.89 15.2170004 108.95 15.1990004 108.98 15.1750004 109.016 15.1570004 108.986 15.1330004 108.944 15.1150004 108.89 14.9273129 108.3245 14.6693187 107.232195 14.425095 106.11433L14.3136602 105.598402C14.0024338 104.141808 13.7368752 102.773374 13.7050002 102.613999 13.6570002 102.367999 13.5250001 102.283999 13.3030001 102.283999 13.0810001 102.283999 12.913 102.421999 12.913 102.631999 12.913 102.673999 12.913 102.709999 12.937 102.835999 13.0870001 103.663999 14.1310002 108.71 14.5510003 109.586 14.7070003 109.91 14.9470004 110 15.1870004 110 15.4990005 110 15.6790005 109.874 15.8110005 109.598 16.0870006 109.022 16.8550007 106.045999 17.2510007 104.251999 17.2630008 104.185999 17.2750008 104.119999 17.2930008 104.071999 17.3050008 104.119999 17.3170008 104.185999 17.3290008 104.251999 17.7010008 106.009999 18.4450009 108.95 18.721001 109.574 18.871001 109.91 19.1710011 110 19.3750011 110zM22.7530001 111.098C22.9390002 111.098 23.0710002 110.972 23.1430002 110.78L26.0890007 102.925999C26.1250007 102.835999 26.1490007 102.751999 26.1490007 102.709999 26.1490007 102.535999 26.0170007 102.343999 25.7770006 102.343999 25.5550006 102.343999 25.4470006 102.469999 25.3750006 102.655999L22.4350001 110.468C22.3930001 110.588 22.3630001 110.678 22.3630001 110.72 22.3630001 110.918 22.5010001 111.098 22.7530001 111.098zM31.0750007 110C31.3030008 110 31.4710008 109.82 31.4710008 109.616 31.4710008 109.526 31.4410008 109.436 31.3810008 109.358 30.3730006 108.008 29.4850005 107.246 28.9870004 106.879999L30.8110007 105.145999C30.9130007 105.049999 30.9490007 104.947999 30.9490007 104.839999 30.9490007 104.641999 30.7630007 104.449999 30.5530006 104.449999 30.4510006 104.449999 30.3430006 104.485999 30.2470006 104.581999L28.2490003 106.507999 28.2490003 102.139999C28.2490003 101.905999 28.0750002 101.743999 27.8530002 101.743999 27.6250002 101.743999 27.4570001 101.905999 27.4570001 102.139999L27.4570001 109.604C27.4570001 109.838 27.6250002 110 27.8530002 110 28.0750002 110 28.2490003 109.838 28.2490003 109.604L28.2490003 107.324 28.2970003 107.33C28.6510003 107.582 29.6710005 108.392 30.7090007 109.76 30.8410007 109.934 30.9370007 110 31.0750007 110zM33.8170004 112.418C35.1070006 112.418 36.4870008 111.806 36.4870008 109.94L36.4870008 105.271999C36.4870008 105.049999 36.3370008 104.893999 36.2050008 104.803999 35.9410007 104.623999 35.2750006 104.377999 34.5430005 104.377999 32.9830002 104.377999 31.9510001 105.559999 31.9510001 107.21 31.9510001 108.944 32.9590002 110.072 34.4350005 110.072 34.8910005 110.072 35.2990006 109.916 35.6950007 109.664L35.6950007 109.994C35.6950007 111.35 34.6330005 111.65 33.8170004 111.65 33.3250003 111.65 32.9770002 111.518 32.8090002 111.446 32.6710002 111.386 32.5750002 111.326 32.4370001 111.326 32.2330001 111.326 32.0650001 111.488 32.0650001 111.692 32.0650001 111.89 32.2030001 112.004 32.3650001 112.094 32.5630002 112.202 33.1090002 112.418 33.8170004 112.418zM34.4350005 109.304C33.4210003 109.304 32.7730002 108.482 32.7730002 107.21 32.7730002 106.015999 33.4570003 105.145999 34.5430005 105.145999 35.0770006 105.145999 35.4490006 105.289999 35.6950007 105.415999L35.6950007 108.872C35.4310006 109.076 34.9210005 109.304 34.4350005 109.304zM65.2950002 81.802C65.3610002 81.802 65.4450003 81.772 65.5170003 81.736L69.6630009 79.5639996C69.843001 79.4679996 69.921001 79.3839996 69.921001 79.1979995 69.921001 79.0059995 69.819001 78.9099995 69.6630009 78.8259995L65.5110003 76.6719991C65.4270003 76.6299991 65.3550002 76.6059991 65.2650002 76.6059991 65.0550002 76.6059991 64.8930002 76.7859991 64.8930002 76.9959992 64.8930002 77.1819992 65.0010002 77.2839992 65.1630002 77.3679992L68.7090008 79.1979995 65.1570002 81.0459998C65.0010002 81.1299999 64.9110002 81.2679999 64.9110002 81.4299999 64.9110002 81.6519999 65.1090002 81.802 65.2950002 81.802zM74.2470005 82.072C75.9570008 82.072 77.001001 80.6319998 77.001001 78.1839994 77.001001 75.771999 75.9390008 74.2119987 74.2470005 74.2119987 72.5610003 74.2119987 71.4990001 75.759999 71.4990001 78.1839994 71.4990001 80.6319998 72.5430003 82.072 74.2470005 82.072zM74.2470005 81.3039999C73.0410003 81.3039999 72.3150002 80.1159997 72.3150002 78.1839994 72.3150002 76.2459991 73.0530003 74.9799988 74.2470005 74.9799988 75.5010007 74.9799988 76.1790009 76.3779991 76.1790009 78.1839994 76.1790009 80.1159997 75.4410007 81.3039999 74.2470005 81.3039999zM78.7950002 82.072C79.0170002 82.072 79.1910003 81.91 79.1910003 81.6759999L79.1910003 81.2799999C79.1910003 81.0519998 79.0170002 80.8839998 78.7950002 80.8839998 78.5670002 80.8839998 78.3990001 81.0519998 78.3990001 81.2799999L78.3990001 81.6759999C78.3990001 81.91 78.5670002 82.072 78.7950002 82.072zM84.3330007 82C84.5610007 82 84.7290008 81.838 84.7290008 81.6039999L84.7290008 80.0619997 85.2270009 80.0619997C85.4550009 80.0619997 85.6230009 79.9119997 85.6230009 79.6839996 85.6230009 79.4559996 85.4550009 79.2999996 85.2270009 79.2999996L84.7290008 79.2999996 84.7290008 76.8459992C84.7290008 76.6119991 84.5610007 76.4499991 84.3330007 76.4499991 84.1050007 76.4499991 83.9370006 76.6119991 83.9370006 76.8459992L83.9370006 79.2999996 81.3450002 79.2999996C82.2990004 77.3679992 83.8170006 75.681999 84.5070007 74.9679988 84.6030008 74.8659988 84.6450008 74.7699988 84.6450008 74.6499988 84.6450008 74.4519988 84.4710007 74.2839987 84.2550007 74.2839987 84.1470007 74.2839987 84.0330007 74.3139987 83.9490006 74.4039988 83.1570005 75.3039989 81.5250002 77.1999992 80.4450001 79.3719996 80.3790001 79.5099996 80.3490001 79.6059996 80.3490001 79.6839996 80.3490001 79.8579996 80.4690001 80.0619997 80.7870001 80.0619997L83.9370006 80.0619997 83.9370006 81.6039999C83.9370006 81.838 84.1050007 82 84.3330007 82zM69.4860009 95.802C69.672001 95.802 69.870001 95.6519999 69.870001 95.4299999 69.870001 95.2679999 69.780001 95.1299999 69.6240009 95.0459998L66.0720004 93.1979995 69.6180009 91.3679992C69.780001 91.2839992 69.888001 91.1819992 69.888001 90.9959992 69.888001 90.7859991 69.726001 90.6059991 69.5160009 90.6059991 69.4260009 90.6059991 69.3540009 90.6299991 69.2700009 90.6719991L65.1180002 92.8259995C64.9620002 92.9099995 64.8600002 93.0059995 64.8600002 93.1979995 64.8600002 93.3839996 64.9380002 93.4679996 65.1180002 93.5639996L69.2640009 95.736C69.3360009 95.772 69.4200009 95.802 69.4860009 95.802zM74.2140005 96.072C75.9240008 96.072 76.968001 94.6319998 76.968001 92.1839994 76.968001 89.771999 75.9060008 88.2119987 74.2140005 88.2119987 72.5280003 88.2119987 71.4660001 89.759999 71.4660001 92.1839994 71.4660001 94.6319998 72.5100003 96.072 74.2140005 96.072zM74.2140005 95.3039999C73.0080003 95.3039999 72.2820002 94.1159997 72.2820002 92.1839994 72.2820002 90.2459991 73.0200003 88.9799988 74.2140005 88.9799988 75.4680007 88.9799988 76.1460009 90.3779991 76.1460009 92.1839994 76.1460009 94.1159997 75.4080007 95.3039999 74.2140005 95.3039999zM78.7620002 96.072C78.9840002 96.072 79.1580003 95.91 79.1580003 95.6759999L79.1580003 95.2799999C79.1580003 95.0519998 78.9840002 94.8839998 78.7620002 94.8839998 78.5340002 94.8839998 78.3660001 95.0519998 78.3660001 95.2799999L78.3660001 95.6759999C78.3660001 95.91 78.5340002 96.072 78.7620002 96.072zM83.0580005 96.072C84.6900008 96.072 85.6020009 95.2799999 85.6020009 93.8459996 85.6020009 92.9219995 85.0020008 92.3459994 84.4200007 92.0939994 84.8820008 91.7819993 85.4160009 91.0919992 85.4160009 90.3239991 85.4160009 88.8599988 84.2160007 88.2119987 83.0580005 88.2119987 82.2180004 88.2119987 80.7480001 88.6499988 80.7480001 90.3239991 80.7480001 91.1519992 81.1380002 91.6679993 81.6360003 91.9259993 81.1200002 92.2019994 80.5380001 92.8799995 80.5380001 93.8459996 80.5380001 95.2199999 81.5580003 96.072 83.0580005 96.072zM83.5800006 91.7759993C82.3920004 91.6739993 81.5640003 91.3559992 81.5640003 90.3239991 81.5640003 89.2799989 82.5060004 88.9799988 83.0580005 88.9799988 83.6460006 88.9799988 84.6000008 89.2799989 84.6000008 90.3239991 84.6000008 91.0499992 84.0540007 91.7279993 83.5800006 91.7759993zM83.0580005 95.3039999C82.2540004 95.3039999 81.3540002 94.9079998 81.3540002 93.8459996 81.3540002 92.9519995 81.9120003 92.3939994 82.4460004 92.3639994 82.6380004 92.3879994 82.7580005 92.4059994 82.9140005 92.4299994 83.6340006 92.5319994 84.7860008 92.7419995 84.7860008 93.8459996 84.7860008 95.0279998 83.8620006 95.3039999 83.0580005 95.3039999zM69.3750011 110C69.6090011 110 69.8610012 109.898 70.0170012 109.574 70.4370013 108.704 71.4810014 103.657999 71.6250015 102.835999 71.6490015 102.697999 71.6550015 102.673999 71.6550015 102.631999 71.6550015 102.421999 71.4870014 102.283999 71.2650014 102.283999 71.0490014 102.283999 70.9170014 102.379999 70.8570013 102.619999 70.8210013 102.760726 70.5368691 104.215305 70.2110298 105.724736L70.1011552 106.228184C69.8609736 107.315906 69.6110011 108.359272 69.4290011 108.884 69.4110011 108.932 69.3930011 108.962 69.3750011 108.98 69.3570011 108.956 69.3330011 108.926 69.3150011 108.878 68.871001 107.69 68.0490009 103.993999 67.8090008 102.871999 67.7610008 102.649999 67.5750008 102.487999 67.2990008 102.487999 67.0350007 102.487999 66.8490007 102.637999 66.7950007 102.871999 66.5310006 103.993999 65.7090005 107.606 65.2410004 108.89 65.2170004 108.95 65.1990004 108.98 65.1750004 109.016 65.1570004 108.986 65.1330004 108.944 65.1150004 108.89 64.9273129 108.3245 64.6693187 107.232195 64.425095 106.11433L64.3136602 105.598402C64.0024338 104.141808 63.7368752 102.773374 63.7050002 102.613999 63.6570002 102.367999 63.5250001 102.283999 63.3030001 102.283999 63.0810001 102.283999 62.913 102.421999 62.913 102.631999 62.913 102.673999 62.913 102.709999 62.937 102.835999 63.0870001 103.663999 64.1310002 108.71 64.5510003 109.586 64.7070003 109.91 64.9470004 110 65.1870004 110 65.4990005 110 65.6790005 109.874 65.8110005 109.598 66.0870006 109.022 66.8550007 106.045999 67.2510007 104.251999 67.2630008 104.185999 67.2750008 104.119999 67.2930008 104.071999 67.3050008 104.119999 67.3170008 104.185999 67.3290008 104.251999 67.7010008 106.009999 68.4450009 108.95 68.721001 109.574 68.871001 109.91 69.1710011 110 69.3750011 110zM72.7530001 111.098C72.9390002 111.098 73.0710002 110.972 73.1430002 110.78L76.0890007 102.925999C76.1250007 102.835999 76.1490007 102.751999 76.1490007 102.709999 76.1490007 102.535999 76.0170007 102.343999 75.7770006 102.343999 75.5550006 102.343999 75.4470006 102.469999 75.3750006 102.655999L72.4350001 110.468C72.3930001 110.588 72.3630001 110.678 72.3630001 110.72 72.3630001 110.918 72.5010001 111.098 72.7530001 111.098zM81.0750007 110C81.3030008 110 81.4710008 109.82 81.4710008 109.616 81.4710008 109.526 81.4410008 109.436 81.3810008 109.358 80.3730006 108.008 79.4850005 107.246 78.9870004 106.879999L80.8110007 105.145999C80.9130007 105.049999 80.9490007 104.947999 80.9490007 104.839999 80.9490007 104.641999 80.7630007 104.449999 80.5530006 104.449999 80.4510006 104.449999 80.3430006 104.485999 80.2470006 104.581999L78.2490003 106.507999 78.2490003 102.139999C78.2490003 101.905999 78.0750002 101.743999 77.8530002 101.743999 77.6250002 101.743999 77.4570001 101.905999 77.4570001 102.139999L77.4570001 109.604C77.4570001 109.838 77.6250002 110 77.8530002 110 78.0750002 110 78.2490003 109.838 78.2490003 109.604L78.2490003 107.324 78.2970003 107.33C78.6510003 107.582 79.6710005 108.392 80.7090007 109.76 80.8410007 109.934 80.9370007 110 81.0750007 110zM83.8170004 112.418C85.1070006 112.418 86.4870008 111.806 86.4870008 109.94L86.4870008 105.271999C86.4870008 105.049999 86.3370008 104.893999 86.2050008 104.803999 85.9410007 104.623999 85.2750006 104.377999 84.5430005 104.377999 82.9830002 104.377999 81.9510001 105.559999 81.9510001 107.21 81.9510001 108.944 82.9590002 110.072 84.4350005 110.072 84.8910005 110.072 85.2990006 109.916 85.6950007 109.664L85.6950007 109.994C85.6950007 111.35 84.6330005 111.65 83.8170004 111.65 83.3250003 111.65 82.9770002 111.518 82.8090002 111.446 82.6710002 111.386 82.5750002 111.326 82.4370001 111.326 82.2330001 111.326 82.0650001 111.488 82.0650001 111.692 82.0650001 111.89 82.2030001 112.004 82.3650001 112.094 82.5630002 112.202 83.1090002 112.418 83.8170004 112.418zM84.4350005 109.304C83.4210003 109.304 82.7730002 108.482 82.7730002 107.21 82.7730002 106.015999 83.4570003 105.145999 84.5430005 105.145999 85.0770006 105.145999 85.4490006 105.289999 85.6950007 105.415999L85.6950007 108.872C85.4310006 109.076 84.9210005 109.304 84.4350005 109.304zM115.262 81.802C115.328 81.802 115.412 81.772 115.484 81.736L119.630001 79.5639996C119.810001 79.4679996 119.888001 79.3839996 119.888001 79.1979995 119.888001 79.0059995 119.786001 78.9099995 119.630001 78.8259995L115.478 76.6719991C115.394 76.6299991 115.322 76.6059991 115.232 76.6059991 115.022 76.6059991 114.86 76.7859991 114.86 76.9959992 114.86 77.1819992 114.968 77.2839992 115.13 77.3679992L118.676001 79.1979995 115.124 81.0459998C114.968 81.1299999 114.878 81.2679999 114.878 81.4299999 114.878 81.6519999 115.076 81.802 115.262 81.802zM124.214001 82.072C125.924001 82.072 126.968001 80.6319998 126.968001 78.1839994 126.968001 75.771999 125.906001 74.2119987 124.214001 74.2119987 122.528 74.2119987 121.466 75.759999 121.466 78.1839994 121.466 80.6319998 122.51 82.072 124.214001 82.072zM124.214001 81.3039999C123.008 81.3039999 122.282 80.1159997 122.282 78.1839994 122.282 76.2459991 123.02 74.9799988 124.214001 74.9799988 125.468001 74.9799988 126.146001 76.3779991 126.146001 78.1839994 126.146001 80.1159997 125.408001 81.3039999 124.214001 81.3039999zM128.762 82.072C128.984 82.072 129.158 81.91 129.158 81.6759999L129.158 81.2799999C129.158 81.0519998 128.984 80.8839998 128.762 80.8839998 128.534 80.8839998 128.366 81.0519998 128.366 81.2799999L128.366 81.6759999C128.366 81.91 128.534 82.072 128.762 82.072zM133.058001 82.072C134.690001 82.072 135.602001 81.2799999 135.602001 79.8459996 135.602001 78.9219995 135.002001 78.3459994 134.420001 78.0939994 134.882001 77.7819993 135.416001 77.0919992 135.416001 76.3239991 135.416001 74.8599988 134.216001 74.2119987 133.058001 74.2119987 132.218 74.2119987 130.748 74.6499988 130.748 76.3239991 130.748 77.1519992 131.138 77.6679993 131.636 77.9259993 131.12 78.2019994 130.538 78.8799995 130.538 79.8459996 130.538 81.2199999 131.558 82.072 133.058001 82.072zM133.580001 77.7759993C132.392 77.6739993 131.564 77.3559992 131.564 76.3239991 131.564 75.2799989 132.506 74.9799988 133.058001 74.9799988 133.646001 74.9799988 134.600001 75.2799989 134.600001 76.3239991 134.600001 77.0499992 134.054001 77.7279993 133.580001 77.7759993zM133.058001 81.3039999C132.254 81.3039999 131.354 80.9079998 131.354 79.8459996 131.354 78.9519995 131.912 78.3939994 132.446 78.3639994 132.638 78.3879994 132.758 78.4059994 132.914 78.4299994 133.634001 78.5319994 134.786001 78.7419995 134.786001 79.8459996 134.786001 81.0279998 133.862001 81.3039999 133.058001 81.3039999zM121.235001 95.802C121.421001 95.802 121.619001 95.6519999 121.619001 95.4299999 121.619001 95.2679999 121.529001 95.1299999 121.373001 95.0459998L117.821 93.1979995 121.367001 91.3679992C121.529001 91.2839992 121.637001 91.1819992 121.637001 90.9959992 121.637001 90.7859991 121.475001 90.6059991 121.265001 90.6059991 121.175001 90.6059991 121.103001 90.6299991 121.019001 90.6719991L116.867 92.8259995C116.711 92.9099995 116.609 93.0059995 116.609 93.1979995 116.609 93.3839996 116.687 93.4679996 116.867 93.5639996L121.013001 95.736C121.085001 95.772 121.169001 95.802 121.235001 95.802zM125.027 96C125.249 96 125.423 95.838 125.423 95.6039999L125.423 88.6859988C125.423 88.4519988 125.255 88.2839987 125.027 88.2839987 124.937 88.2839987 124.853 88.3079987 124.781 88.3559987L123.413 89.2559989C123.281 89.3459989 123.221 89.4719989 123.221 89.609999 123.221 89.831999 123.395 89.999999 123.623 89.999999 123.719 89.999999 123.791 89.969999 123.881 89.903999L124.631 89.3759989 124.631 95.6039999C124.631 95.838 124.805 96 125.027 96zM127.577 96.072C127.799 96.072 127.973 95.91 127.973 95.6759999L127.973 95.2799999C127.973 95.0519998 127.799 94.8839998 127.577 94.8839998 127.349 94.8839998 127.181 95.0519998 127.181 95.2799999L127.181 95.6759999C127.181 95.91 127.349 96.072 127.577 96.072zM133.439001 96C133.667001 96 133.841001 95.844 133.841001 95.6099999 133.841001 95.3819999 133.667001 95.2319999 133.439001 95.2319999L130.265 95.2319999C130.475 94.7219998 131.027 94.1639997 131.609 93.5819996L131.948622 93.2423535C132.864112 92.3272587 133.817001 91.3399992 133.817001 90.3479991 133.817001 88.4039988 132.257001 88.2119987 131.597 88.2119987 130.673 88.2119987 130.067 88.5899988 129.779 88.7759988 129.623 88.8779988 129.569 89.0099989 129.569 89.1359989 129.569 89.3459989 129.737 89.5259989 129.965 89.5259989 130.055 89.5259989 130.145 89.4779989 130.217 89.4299989 130.391 89.3219989 130.937 88.9799988 131.597 88.9799988 132.131001 88.9799988 133.001001 89.1719989 133.001001 90.3479991 133.001001 91.06523 132.227746 91.879597 131.39501 92.7138238L130.97699 93.1322344C130.144255 93.9709346 129.371 94.8166152 129.371 95.5919999 129.371 95.832 129.539 96 129.803 96L133.439001 96zM119.375001 110C119.609001 110 119.861001 109.898 120.017001 109.574 120.437001 108.704 121.481001 103.657999 121.625001 102.835999 121.649001 102.697999 121.655001 102.673999 121.655001 102.631999 121.655001 102.421999 121.487001 102.283999 121.265001 102.283999 121.049001 102.283999 120.917001 102.379999 120.857001 102.619999 120.821001 102.760726 120.536869 104.215305 120.21103 105.724736L120.101155 106.228184C119.860974 107.315906 119.611001 108.359272 119.429001 108.884 119.411001 108.932 119.393001 108.962 119.375001 108.98 119.357001 108.956 119.333001 108.926 119.315001 108.878 118.871001 107.69 118.049001 103.993999 117.809001 102.871999 117.761001 102.649999 117.575001 102.487999 117.299001 102.487999 117.035001 102.487999 116.849001 102.637999 116.795001 102.871999 116.531001 103.993999 115.709 107.606 115.241 108.89 115.217 108.95 115.199 108.98 115.175 109.016 115.157 108.986 115.133 108.944 115.115 108.89 114.927313 108.3245 114.669319 107.232195 114.425095 106.11433L114.31366 105.598402C114.002434 104.141808 113.736875 102.773374 113.705 102.613999 113.657 102.367999 113.525 102.283999 113.303 102.283999 113.081 102.283999 112.913 102.421999 112.913 102.631999 112.913 102.673999 112.913 102.709999 112.937 102.835999 113.087 103.663999 114.131 108.71 114.551 109.586 114.707 109.91 114.947 110 115.187 110 115.499 110 115.679 109.874 115.811001 109.598 116.087001 109.022 116.855001 106.045999 117.251001 104.251999 117.263001 104.185999 117.275001 104.119999 117.293001 104.071999 117.305001 104.119999 117.317001 104.185999 117.329001 104.251999 117.701001 106.009999 118.445001 108.95 118.721001 109.574 118.871001 109.91 119.171001 110 119.375001 110zM122.753 111.098C122.939 111.098 123.071 110.972 123.143 110.78L126.089001 102.925999C126.125001 102.835999 126.149001 102.751999 126.149001 102.709999 126.149001 102.535999 126.017001 102.343999 125.777001 102.343999 125.555001 102.343999 125.447001 102.469999 125.375001 102.655999L122.435 110.468C122.393 110.588 122.363 110.678 122.363 110.72 122.363 110.918 122.501 111.098 122.753 111.098zM131.075001 110C131.303001 110 131.471001 109.82 131.471001 109.616 131.471001 109.526 131.441001 109.436 131.381001 109.358 130.373001 108.008 129.485 107.246 128.987 106.879999L130.811001 105.145999C130.913001 105.049999 130.949001 104.947999 130.949001 104.839999 130.949001 104.641999 130.763001 104.449999 130.553001 104.449999 130.451001 104.449999 130.343001 104.485999 130.247001 104.581999L128.249 106.507999 128.249 102.139999C128.249 101.905999 128.075 101.743999 127.853 101.743999 127.625 101.743999 127.457 101.905999 127.457 102.139999L127.457 109.604C127.457 109.838 127.625 110 127.853 110 128.075 110 128.249 109.838 128.249 109.604L128.249 107.324 128.297 107.33C128.651 107.582 129.671 108.392 130.709001 109.76 130.841001 109.934 130.937001 110 131.075001 110zM133.817 112.418C135.107001 112.418 136.487001 111.806 136.487001 109.94L136.487001 105.271999C136.487001 105.049999 136.337001 104.893999 136.205001 104.803999 135.941001 104.623999 135.275001 104.377999 134.543 104.377999 132.983 104.377999 131.951 105.559999 131.951 107.21 131.951 108.944 132.959 110.072 134.435 110.072 134.891001 110.072 135.299001 109.916 135.695001 109.664L135.695001 109.994C135.695001 111.35 134.633 111.65 133.817 111.65 133.325 111.65 132.977 111.518 132.809 111.446 132.671 111.386 132.575 111.326 132.437 111.326 132.233 111.326 132.065 111.488 132.065 111.692 132.065 111.89 132.203 112.004 132.365 112.094 132.563 112.202 133.109 112.418 133.817 112.418zM134.435 109.304C133.421 109.304 132.773 108.482 132.773 107.21 132.773 106.015999 133.457 105.145999 134.543 105.145999 135.077001 105.145999 135.449001 105.289999 135.695001 105.415999L135.695001 108.872C135.431001 109.076 134.921001 109.304 134.435 109.304zM167.011 81.802C167.077 81.802 167.161 81.772 167.233 81.736L171.379001 79.5639996C171.559001 79.4679996 171.637001 79.3839996 171.637001 79.1979995 171.637001 79.0059995 171.535001 78.9099995 171.379001 78.8259995L167.227 76.6719991C167.143 76.6299991 167.071 76.6059991 166.981 76.6059991 166.771 76.6059991 166.609 76.7859991 166.609 76.9959992 166.609 77.1819992 166.717 77.2839992 166.879 77.3679992L170.425001 79.1979995 166.873 81.0459998C166.717 81.1299999 166.627 81.2679999 166.627 81.4299999 166.627 81.6519999 166.825 81.802 167.011 81.802zM175.027 82C175.249 82 175.423 81.838 175.423 81.6039999L175.423 74.6859988C175.423 74.4519988 175.255 74.2839987 175.027 74.2839987 174.937 74.2839987 174.853 74.3079987 174.781 74.3559987L173.413 75.2559989C173.281 75.3459989 173.221 75.4719989 173.221 75.609999 173.221 75.831999 173.395 75.999999 173.623 75.999999 173.719 75.999999 173.791 75.969999 173.881 75.903999L174.631 75.3759989 174.631 81.6039999C174.631 81.838 174.805 82 175.027 82zM177.577 82.072C177.799 82.072 177.973 81.91 177.973 81.6759999L177.973 81.2799999C177.973 81.0519998 177.799 80.8839998 177.577 80.8839998 177.349 80.8839998 177.181 81.0519998 177.181 81.2799999L177.181 81.6759999C177.181 81.91 177.349 82.072 177.577 82.072zM183.439001 82C183.667001 82 183.841001 81.844 183.841001 81.6099999 183.841001 81.3819999 183.667001 81.2319999 183.439001 81.2319999L180.265 81.2319999C180.475 80.7219998 181.027 80.1639997 181.609 79.5819996L181.948622 79.2423535C182.864112 78.3272587 183.817001 77.3399992 183.817001 76.3479991 183.817001 74.4039988 182.257001 74.2119987 181.597 74.2119987 180.673 74.2119987 180.067 74.5899988 179.779 74.7759988 179.623 74.8779988 179.569 75.0099989 179.569 75.1359989 179.569 75.3459989 179.737 75.5259989 179.965 75.5259989 180.055 75.5259989 180.145 75.4779989 180.217 75.4299989 180.391 75.3219989 180.937 74.9799988 181.597 74.9799988 182.131001 74.9799988 183.001001 75.1719989 183.001001 76.3479991 183.001001 77.06523 182.227746 77.879597 181.39501 78.7138238L180.97699 79.1322344C180.144255 79.9709346 179.371 80.8166152 179.371 81.5919999 179.371 81.832 179.539 82 179.803 82L183.439001 82zM170.992001 95.802C171.178001 95.802 171.376001 95.6519999 171.376001 95.4299999 171.376001 95.2679999 171.286001 95.1299999 171.130001 95.0459998L167.578 93.1979995 171.124001 91.3679992C171.286001 91.2839992 171.394001 91.1819992 171.394001 90.9959992 171.394001 90.7859991 171.232001 90.6059991 171.022001 90.6059991 170.932001 90.6059991 170.860001 90.6299991 170.776001 90.6719991L166.624 92.8259995C166.468 92.9099995 166.366 93.0059995 166.366 93.1979995 166.366 93.3839996 166.444 93.4679996 166.624 93.5639996L170.770001 95.736C170.842001 95.772 170.926001 95.802 170.992001 95.802zM174.784 96C175.006 96 175.18 95.838 175.18 95.6039999L175.18 88.6859988C175.18 88.4519988 175.012 88.2839987 174.784 88.2839987 174.694 88.2839987 174.61 88.3079987 174.538 88.3559987L173.17 89.2559989C173.038 89.3459989 172.978 89.4719989 172.978 89.609999 172.978 89.831999 173.152 89.999999 173.38 89.999999 173.476 89.999999 173.548 89.969999 173.638 89.903999L174.388 89.3759989 174.388 95.6039999C174.388 95.838 174.562 96 174.784 96zM177.334 96.072C177.556 96.072 177.73 95.91 177.73 95.6759999L177.73 95.2799999C177.73 95.0519998 177.556 94.8839998 177.334 94.8839998 177.106 94.8839998 176.938 95.0519998 176.938 95.2799999L176.938 95.6759999C176.938 95.91 177.106 96.072 177.334 96.072zM181.678001 96.072C183.556001 96.072 184.084001 94.4339997 184.084001 93.4259996 184.084001 92.4779994 183.556001 90.9659992 181.744001 90.9659992 180.898 90.9659992 180.262 91.3859992 179.932 91.9859993L179.932 91.9439993C180.046 89.5259989 180.922 88.9799988 181.882001 88.9799988 182.512001 88.9799988 182.842001 89.1899989 183.022001 89.3159989 183.166001 89.4179989 183.280001 89.5019989 183.436001 89.5019989 183.658001 89.5019989 183.802001 89.3219989 183.802001 89.1239989 183.802001 88.9979989 183.760001 88.9019988 183.640001 88.7939988 183.532001 88.6979988 183.022001 88.2119987 181.882001 88.2119987 179.986 88.2119987 179.128 89.5259989 179.128 92.5079994 179.128 93.4979996 179.296 94.2959997 179.632 94.8719998 180.082 95.6399999 180.754 96.072 181.678001 96.072zM181.678001 95.3039999C180.454 95.3039999 180.088 94.1879997 180.088 93.4259996 180.088 92.7599995 180.478 91.7339993 181.678001 91.7339993 182.902001 91.7339993 183.268001 92.7599995 183.268001 93.4259996 183.268001 94.1879997 182.902001 95.3039999 181.678001 95.3039999zM169.375001 110C169.609001 110 169.861001 109.898 170.017001 109.574 170.437001 108.704 171.481001 103.657999 171.625001 102.835999 171.649001 102.697999 171.655001 102.673999 171.655001 102.631999 171.655001 102.421999 171.487001 102.283999 171.265001 102.283999 171.049001 102.283999 170.917001 102.379999 170.857001 102.619999 170.821001 102.760726 170.536869 104.215305 170.21103 105.724736L170.101155 106.228184C169.860974 107.315906 169.611001 108.359272 169.429001 108.884 169.411001 108.932 169.393001 108.962 169.375001 108.98 169.357001 108.956 169.333001 108.926 169.315001 108.878 168.871001 107.69 168.049001 103.993999 167.809001 102.871999 167.761001 102.649999 167.575001 102.487999 167.299001 102.487999 167.035001 102.487999 166.849001 102.637999 166.795001 102.871999 166.531001 103.993999 165.709 107.606 165.241 108.89 165.217 108.95 165.199 108.98 165.175 109.016 165.157 108.986 165.133 108.944 165.115 108.89 164.927313 108.3245 164.669319 107.232195 164.425095 106.11433L164.31366 105.598402C164.002434 104.141808 163.736875 102.773374 163.705 102.613999 163.657 102.367999 163.525 102.283999 163.303 102.283999 163.081 102.283999 162.913 102.421999 162.913 102.631999 162.913 102.673999 162.913 102.709999 162.937 102.835999 163.087 103.663999 164.131 108.71 164.551 109.586 164.707 109.91 164.947 110 165.187 110 165.499 110 165.679 109.874 165.811001 109.598 166.087001 109.022 166.855001 106.045999 167.251001 104.251999 167.263001 104.185999 167.275001 104.119999 167.293001 104.071999 167.305001 104.119999 167.317001 104.185999 167.329001 104.251999 167.701001 106.009999 168.445001 108.95 168.721001 109.574 168.871001 109.91 169.171001 110 169.375001 110zM172.753 111.098C172.939 111.098 173.071 110.972 173.143 110.78L176.089001 102.925999C176.125001 102.835999 176.149001 102.751999 176.149001 102.709999 176.149001 102.535999 176.017001 102.343999 175.777001 102.343999 175.555001 102.343999 175.447001 102.469999 175.375001 102.655999L172.435 110.468C172.393 110.588 172.363 110.678 172.363 110.72 172.363 110.918 172.501 111.098 172.753 111.098zM181.075001 110C181.303001 110 181.471001 109.82 181.471001 109.616 181.471001 109.526 181.441001 109.436 181.381001 109.358 180.373001 108.008 179.485 107.246 178.987 106.879999L180.811001 105.145999C180.913001 105.049999 180.949001 104.947999 180.949001 104.839999 180.949001 104.641999 180.763001 104.449999 180.553001 104.449999 180.451001 104.449999 180.343001 104.485999 180.247001 104.581999L178.249 106.507999 178.249 102.139999C178.249 101.905999 178.075 101.743999 177.853 101.743999 177.625 101.743999 177.457 101.905999 177.457 102.139999L177.457 109.604C177.457 109.838 177.625 110 177.853 110 178.075 110 178.249 109.838 178.249 109.604L178.249 107.324 178.297 107.33C178.651 107.582 179.671 108.392 180.709001 109.76 180.841001 109.934 180.937001 110 181.075001 110zM183.817 112.418C185.107001 112.418 186.487001 111.806 186.487001 109.94L186.487001 105.271999C186.487001 105.049999 186.337001 104.893999 186.205001 104.803999 185.941001 104.623999 185.275001 104.377999 184.543 104.377999 182.983 104.377999 181.951 105.559999 181.951 107.21 181.951 108.944 182.959 110.072 184.435 110.072 184.891001 110.072 185.299001 109.916 185.695001 109.664L185.695001 109.994C185.695001 111.35 184.633 111.65 183.817 111.65 183.325 111.65 182.977 111.518 182.809 111.446 182.671 111.386 182.575 111.326 182.437 111.326 182.233 111.326 182.065 111.488 182.065 111.692 182.065 111.89 182.203 112.004 182.365 112.094 182.563 112.202 183.109 112.418 183.817 112.418zM184.435 109.304C183.421 109.304 182.773 108.482 182.773 107.21 182.773 106.015999 183.457 105.145999 184.543 105.145999 185.077001 105.145999 185.449001 105.289999 185.695001 105.415999L185.695001 108.872C185.431001 109.076 184.921001 109.304 184.435 109.304zM216.768 81.802C216.834 81.802 216.918 81.772 216.99 81.736L221.136001 79.5639996C221.316001 79.4679996 221.394001 79.3839996 221.394001 79.1979995 221.394001 79.0059995 221.292001 78.9099995 221.136001 78.8259995L216.984 76.6719991C216.9 76.6299991 216.828 76.6059991 216.738 76.6059991 216.528 76.6059991 216.366 76.7859991 216.366 76.9959992 216.366 77.1819992 216.474 77.2839992 216.636 77.3679992L220.182001 79.1979995 216.63 81.0459998C216.474 81.1299999 216.384 81.2679999 216.384 81.4299999 216.384 81.6519999 216.582 81.802 216.768 81.802zM224.784 82C225.006 82 225.18 81.838 225.18 81.6039999L225.18 74.6859988C225.18 74.4519988 225.012 74.2839987 224.784 74.2839987 224.694 74.2839987 224.61 74.3079987 224.538 74.3559987L223.17 75.2559989C223.038 75.3459989 222.978 75.4719989 222.978 75.609999 222.978 75.831999 223.152 75.999999 223.38 75.999999 223.476 75.999999 223.548 75.969999 223.638 75.903999L224.388 75.3759989 224.388 81.6039999C224.388 81.838 224.562 82 224.784 82zM227.334 82.072C227.556 82.072 227.73 81.91 227.73 81.6759999L227.73 81.2799999C227.73 81.0519998 227.556 80.8839998 227.334 80.8839998 227.106 80.8839998 226.938 81.0519998 226.938 81.2799999L226.938 81.6759999C226.938 81.91 227.106 82.072 227.334 82.072zM231.678001 82.072C233.556001 82.072 234.084001 80.4339997 234.084001 79.4259996 234.084001 78.4779994 233.556001 76.9659992 231.744001 76.9659992 230.898 76.9659992 230.262 77.3859992 229.932 77.9859993L229.932 77.9439993C230.046 75.5259989 230.922 74.9799988 231.882001 74.9799988 232.512001 74.9799988 232.842001 75.1899989 233.022001 75.3159989 233.166001 75.4179989 233.280001 75.5019989 233.436001 75.5019989 233.658001 75.5019989 233.802001 75.3219989 233.802001 75.1239989 233.802001 74.9979989 233.760001 74.9019988 233.640001 74.7939988 233.532001 74.6979988 233.022001 74.2119987 231.882001 74.2119987 229.986 74.2119987 229.128 75.5259989 229.128 78.5079994 229.128 79.4979996 229.296 80.2959997 229.632 80.8719998 230.082 81.6399999 230.754 82.072 231.678001 82.072zM231.678001 81.3039999C230.454 81.3039999 230.088 80.1879997 230.088 79.4259996 230.088 78.7599995 230.478 77.7339993 231.678001 77.7339993 232.902001 77.7339993 233.268001 78.7599995 233.268001 79.4259996 233.268001 80.1879997 232.902001 81.3039999 231.678001 81.3039999zM224.313001 95.802C224.499001 95.802 224.697001 95.6519999 224.697001 95.4299999 224.697001 95.2679999 224.607001 95.1299999 224.451001 95.0459998L220.899 93.1979995 224.445001 91.3679992C224.607001 91.2839992 224.715001 91.1819992 224.715001 90.9959992 224.715001 90.7859991 224.553001 90.6059991 224.343001 90.6059991 224.253001 90.6059991 224.181001 90.6299991 224.097001 90.6719991L219.945 92.8259995C219.789 92.9099995 219.687 93.0059995 219.687 93.1979995 219.687 93.3839996 219.765 93.4679996 219.945 93.5639996L224.091001 95.736C224.163001 95.772 224.247001 95.802 224.313001 95.802zM230.361001 96C230.589001 96 230.763001 95.844 230.763001 95.6099999 230.763001 95.3819999 230.589001 95.2319999 230.361001 95.2319999L227.187 95.2319999C227.397 94.7219998 227.949 94.1639997 228.531 93.5819996L228.870622 93.2423535C229.786112 92.3272587 230.739001 91.3399992 230.739001 90.3479991 230.739001 88.4039988 229.179001 88.2119987 228.519 88.2119987 227.595 88.2119987 226.989 88.5899988 226.701 88.7759988 226.545 88.8779988 226.491 89.0099989 226.491 89.1359989 226.491 89.3459989 226.659 89.5259989 226.887 89.5259989 226.977 89.5259989 227.067 89.4779989 227.139 89.4299989 227.313 89.3219989 227.859 88.9799988 228.519 88.9799988 229.053001 88.9799988 229.923001 89.1719989 229.923001 90.3479991 229.923001 91.06523 229.149746 91.879597 228.31701 92.7138238L227.89899 93.1322344C227.066255 93.9709346 226.293 94.8166152 226.293 95.5919999 226.293 95.832 226.461 96 226.725 96L230.361001 96zM219.375001 110C219.609001 110 219.861001 109.898 220.017001 109.574 220.437001 108.704 221.481001 103.657999 221.625001 102.835999 221.649001 102.697999 221.655001 102.673999 221.655001 102.631999 221.655001 102.421999 221.487001 102.283999 221.265001 102.283999 221.049001 102.283999 220.917001 102.379999 220.857001 102.619999 220.821001 102.760726 220.536869 104.215305 220.21103 105.724736L220.101155 106.228184C219.860974 107.315906 219.611001 108.359272 219.429001 108.884 219.411001 108.932 219.393001 108.962 219.375001 108.98 219.357001 108.956 219.333001 108.926 219.315001 108.878 218.871001 107.69 218.049001 103.993999 217.809001 102.871999 217.761001 102.649999 217.575001 102.487999 217.299001 102.487999 217.035001 102.487999 216.849001 102.637999 216.795001 102.871999 216.531001 103.993999 215.709 107.606 215.241 108.89 215.217 108.95 215.199 108.98 215.175 109.016 215.157 108.986 215.133 108.944 215.115 108.89 214.927313 108.3245 214.669319 107.232195 214.425095 106.11433L214.31366 105.598402C214.002434 104.141808 213.736875 102.773374 213.705 102.613999 213.657 102.367999 213.525 102.283999 213.303 102.283999 213.081 102.283999 212.913 102.421999 212.913 102.631999 212.913 102.673999 212.913 102.709999 212.937 102.835999 213.087 103.663999 214.131 108.71 214.551 109.586 214.707 109.91 214.947 110 215.187 110 215.499 110 215.679 109.874 215.811001 109.598 216.087001 109.022 216.855001 106.045999 217.251001 104.251999 217.263001 104.185999 217.275001 104.119999 217.293001 104.071999 217.305001 104.119999 217.317001 104.185999 217.329001 104.251999 217.701001 106.009999 218.445001 108.95 218.721001 109.574 218.871001 109.91 219.171001 110 219.375001 110zM222.753 111.098C222.939 111.098 223.071 110.972 223.143 110.78L226.089001 102.925999C226.125001 102.835999 226.149001 102.751999 226.149001 102.709999 226.149001 102.535999 226.017001 102.343999 225.777001 102.343999 225.555001 102.343999 225.447001 102.469999 225.375001 102.655999L222.435 110.468C222.393 110.588 222.363 110.678 222.363 110.72 222.363 110.918 222.501 111.098 222.753 111.098zM231.075001 110C231.303001 110 231.471001 109.82 231.471001 109.616 231.471001 109.526 231.441001 109.436 231.381001 109.358 230.373001 108.008 229.485 107.246 228.987 106.879999L230.811001 105.145999C230.913001 105.049999 230.949001 104.947999 230.949001 104.839999 230.949001 104.641999 230.763001 104.449999 230.553001 104.449999 230.451001 104.449999 230.343001 104.485999 230.247001 104.581999L228.249 106.507999 228.249 102.139999C228.249 101.905999 228.075 101.743999 227.853 101.743999 227.625 101.743999 227.457 101.905999 227.457 102.139999L227.457 109.604C227.457 109.838 227.625 110 227.853 110 228.075 110 228.249 109.838 228.249 109.604L228.249 107.324 228.297 107.33C228.651 107.582 229.671 108.392 230.709001 109.76 230.841001 109.934 230.937001 110 231.075001 110zM233.817 112.418C235.107001 112.418 236.487001 111.806 236.487001 109.94L236.487001 105.271999C236.487001 105.049999 236.337001 104.893999 236.205001 104.803999 235.941001 104.623999 235.275001 104.377999 234.543 104.377999 232.983 104.377999 231.951 105.559999 231.951 107.21 231.951 108.944 232.959 110.072 234.435 110.072 234.891001 110.072 235.299001 109.916 235.695001 109.664L235.695001 109.994C235.695001 111.35 234.633 111.65 233.817 111.65 233.325 111.65 232.977 111.518 232.809 111.446 232.671 111.386 232.575 111.326 232.437 111.326 232.233 111.326 232.065 111.488 232.065 111.692 232.065 111.89 232.203 112.004 232.365 112.094 232.563 112.202 233.109 112.418 233.817 112.418zM234.435 109.304C233.421 109.304 232.773 108.482 232.773 107.21 232.773 106.015999 233.457 105.145999 234.543 105.145999 235.077001 105.145999 235.449001 105.289999 235.695001 105.415999L235.695001 108.872C235.431001 109.076 234.921001 109.304 234.435 109.304zM28.0100011 66C28.4300012 66 28.6680012 65.762 28.6680012 65.4259999 28.6680012 65.3699999 28.6540012 65.2859999 28.6400012 65.2439999 28.6036012 65.1235999 28.5011212 64.8057998 28.3540652 64.3607677L28.2176021 63.9497894C27.5833039 62.0480451 26.4188009 58.6675988 25.8260008 57.4039986 25.6930008 57.1239985 25.4480007 56.9699985 25.0000006 56.9699985 24.5520006 56.9699985 24.3490005 57.0819985 24.1880005 57.3759986 23.2080003 59.1819989 21.4580001 64.8939998 21.36 65.2439999 21.346 65.2859999 21.332 65.3699999 21.332 65.4259999 21.332 65.762 21.5280001 66 21.9480001 66 22.2700002 66 22.4660002 65.86 22.5640002 65.5939999 22.7460003 65.1179999 22.9560003 64.2919997 23.2360004 63.4099996L26.7360009 63.4099996C27.016001 64.2919997 27.282001 65.1179999 27.464001 65.5939999 27.5620011 65.86 27.6880011 66 28.0100011 66zM26.3440009 62.1919994L23.6700004 62.1919994 23.8660005 61.5969993C24.2020005 60.5679991 24.4960006 59.727999 24.8460006 58.8389988 24.8950006 58.7129988 24.9440006 58.5869988 25.0000006 58.4539988L25.1540007 58.8319988 25.1540007 58.8319988C25.5180007 59.755999 25.8120008 60.5609991 26.1690008 61.6529993L26.3440009 62.1919994zM78.1010011 63.3959996C78.1010011 62.4439994 77.632001 61.6109993 76.7850009 61.2259992 77.415001 60.7849991 77.7230011 60.077999 77.7230011 59.4059989 77.7230011 57.8309987 76.7360009 56.9699985 74.7270006 56.9699985L73.0750003 56.9699985C72.7110002 56.9699985 72.4590002 57.2079986 72.4590002 57.5719986L72.4590002 65.3699999C72.4590002 65.734 72.7390002 66 73.1030003 66L74.7270006 66C75.5950007 66 78.1010011 65.944 78.1010011 63.3959996zM74.9510006 60.8199992L73.7190004 60.8199992 73.7190004 58.1879987 74.6850006 58.1879987C75.2310007 58.1879987 76.4210009 58.2439987 76.4210009 59.5039989 76.4210009 60.4139991 75.8470008 60.8199992 74.9510006 60.8199992zM74.8001735 64.7815501L73.7190004 64.7819998 73.7190004 62.0379994 75.0770006 62.0379994C76.2110008 62.0379994 76.7990009 62.4999994 76.7990009 63.3959996 76.7990009 64.6571664 75.397518 64.7740033 74.8001735 64.7815501L74.8001735 64.7815501zM124.490001 66.084C125.428001 66.084 126.254001 65.818 127.150001 65.3559999 127.353001 65.2509999 127.416001 65.0759998 127.416001 64.8519998 127.416001 64.5299998 127.136001 64.2079997 126.786001 64.2079997 126.688001 64.2079997 126.534001 64.2639997 126.450001 64.3059997 125.841001 64.6419998 125.176001 64.8659998 124.490001 64.8659998 122.936001 64.8659998 121.802 63.4099996 121.802 61.4919993 121.802 59.5879989 123.006001 58.1039987 124.616001 58.1039987 125.736001 58.1039987 126.324001 58.5099988 126.506001 58.6499988 126.618001 58.7339988 126.744001 58.7759988 126.884001 58.7759988 127.178001 58.7759988 127.5 58.5099988 127.5 58.1599987 127.5 57.9499987 127.388001 57.7539986 127.234001 57.6279986 126.926001 57.3759986 126.058001 56.8859985 124.616001 56.8859985 122.292 56.8859985 120.5 58.8599988 120.5 61.4919993 120.5 64.1239997 122.208 66.084 124.490001 66.084zM174.762001 66C177.142001 66 178.794001 64.1239997 178.794001 61.5199993 178.794001 58.8739988 177.142001 56.9699985 174.762001 56.9699985L172.382 56.9699985C172.018 56.9699985 171.766 57.2219986 171.766 57.5859986L171.766 65.3699999C171.766 65.734 172.018 66 172.382 66L174.762001 66zM174.762001 64.7819998L173.026 64.7819998 173.026 58.1879987 174.762001 58.1879987C176.442001 58.1879987 177.492001 59.5879989 177.492001 61.5199993 177.492001 63.4239996 176.442001 64.7819998 174.762001 64.7819998zM228.149001 66C228.513001 66 228.765001 65.748 228.765001 65.3839999 228.765001 65.0199998 228.513001 64.7819998 228.149001 64.7819998L224.985 64.7819998 224.985 61.8699993 227.659001 61.8699993C228.023001 61.8699993 228.275001 61.6179993 228.275001 61.2539992 228.275001 60.8899992 228.023001 60.6519991 227.659001 60.6519991L224.985 60.6519991 224.985 58.1879987 227.883001 58.1879987C228.247001 58.1879987 228.499001 57.9359987 228.499001 57.5719986 228.499001 57.2079986 228.247001 56.9699985 227.883001 56.9699985L224.341 56.9699985C223.977 56.9699985 223.725 57.2079986 223.725 57.5719986L223.725 65.3839999C223.725 65.748 223.977 66 224.341 66L228.149001 66z"/>
  </g>
</svg>
