<svg width="400" height="400" viewBox="0 0 400 400" fill="none" xmlns="http://www.w3.org/2000/svg">
<rect width="400" height="400" fill="white"/>
<path d="M143.5 98C143.5 129.605 175.682 149 220.5 149C220.5 124.163 210.555 100.202 193.5 85C175.057 68.5605 143.5 72.7964 143.5 98Z" fill="#E5CFC7"/>
<path d="M302.601 100.559C302.601 125.763 265.319 149 220.5 149C220.5 124.163 232.002 98.959 249.057 83.7567C270.476 64.6642 302.601 75.3557 302.601 100.559Z" fill="#E5CFC7"/>
<path d="M248.5 138H190.5V340H248.5V138Z" fill="#E5CFC7"/>
<path fill-rule="evenodd" clip-rule="evenodd" d="M304.5 193C303.395 193 302.5 193.895 302.5 195V322H104.5V195C104.5 193.895 103.605 193 102.5 193C101.395 193 100.5 193.895 100.5 195V322H69.5C68.3954 322 67.5 322.895 67.5 324C67.5 325.105 68.3954 326 69.5 326H320.5C321.605 326 322.5 325.105 322.5 324C322.5 322.895 321.605 322 320.5 322H306.5V195C306.5 193.895 305.605 193 304.5 193ZM351 324C351 322.895 350.105 322 349 322H332C330.895 322 330 322.895 330 324C330 325.105 330.895 326 332 326H349C350.105 326 351 325.105 351 324ZM61 324C61 322.895 60.1046 322 59 322H54.5C53.3954 322 52.5 322.895 52.5 324C52.5 325.105 53.3954 326 54.5 326H59C60.1046 326 61 325.105 61 324Z" fill="#291D18"/>
<path fill-rule="evenodd" clip-rule="evenodd" d="M321.5 195C321.5 196.105 320.605 197 319.5 197H87.5C86.3954 197 85.5 196.105 85.5 195V138C85.5 136.895 86.3954 136 87.5 136H319.5C320.605 136 321.5 136.895 321.5 138V195ZM317.5 193V140H89.5V193H317.5Z" fill="#291D18"/>
<path fill-rule="evenodd" clip-rule="evenodd" d="M232.5 136C233.605 136 234.5 136.895 234.5 138L234.5 195C234.5 196.105 233.605 197 232.5 197C231.395 197 230.5 196.105 230.5 195L230.5 140L176.5 140L176.5 184C176.5 185.105 175.605 186 174.5 186C173.395 186 172.5 185.105 172.5 184L172.5 138C172.5 136.895 173.395 136 174.5 136L232.5 136Z" fill="#291D18"/>
<path fill-rule="evenodd" clip-rule="evenodd" d="M230.5 322L230.5 206.5C230.5 205.395 231.395 204.5 232.5 204.5C233.605 204.5 234.5 205.395 234.5 206.5L234.5 324C234.5 325.105 233.605 326 232.5 326L174.5 326C173.395 326 172.5 325.105 172.5 324L172.5 195C172.5 193.895 173.395 193 174.5 193C175.605 193 176.5 193.895 176.5 195L176.5 322L230.5 322Z" fill="#291D18"/>
<path fill-rule="evenodd" clip-rule="evenodd" d="M267.25 66.4513C277.251 69.6608 284.601 77.9458 284.601 89.5592C284.601 101.137 275.989 112.714 261.328 121.516C247.195 130.002 227.816 135.646 206.526 135.984C207.128 112.363 218.228 88.6539 234.388 74.2497C244.573 65.1706 257.222 63.2329 267.25 66.4513ZM246.518 132.875C252.666 130.654 258.334 127.979 263.387 124.946C278.572 115.829 288.601 103.185 288.601 89.5592C288.601 75.9691 279.889 66.3066 268.473 62.6426C257.083 58.9875 242.96 61.2503 231.726 71.2637C214.236 86.8541 202.5 112.605 202.5 138C202.5 139.105 203.395 140 204.5 140C257.343 140 291.722 126.911 312.571 113.689C313.504 113.097 313.781 111.862 313.189 110.929C312.597 109.996 311.362 109.719 310.429 110.311C296.315 119.262 275.591 128.277 246.518 132.875Z" fill="#291D18"/>
<path fill-rule="evenodd" clip-rule="evenodd" d="M133.22 73.3464C130.323 76.6333 128.5 81.141 128.5 87C128.5 102.015 136.104 114.177 149.277 122.671C162.104 130.941 180.2 135.703 201.478 135.987C200.956 112.377 191.29 89.8628 175.169 75.493C166.406 67.6813 154.548 64.8222 144.997 66.8406C140.243 67.8455 136.133 70.0404 133.22 73.3464ZM160.237 132.675C155.457 130.801 151.062 128.581 147.109 126.033C132.987 116.927 124.5 103.589 124.5 87C124.5 80.2572 126.621 74.7841 130.218 70.702C133.799 66.639 138.73 64.0767 144.17 62.9271C155.009 60.6365 168.151 63.8792 177.831 72.507C195.362 88.1337 205.5 112.664 205.5 138C205.5 139.105 204.605 140 203.5 140C168.109 140 140.996 134.129 120.678 126.273C119.647 125.875 119.135 124.717 119.533 123.687C119.932 122.657 121.09 122.144 122.12 122.543C132.779 126.664 145.406 130.245 160.237 132.675ZM94.811 110.929C95.4025 109.996 96.6383 109.719 97.5711 110.311C101.224 112.627 105.318 114.947 109.883 117.193C110.874 117.681 111.282 118.88 110.795 119.871C110.307 120.862 109.108 121.27 108.117 120.782C103.423 118.473 99.2034 116.083 95.4289 113.689C94.4961 113.097 94.2195 111.862 94.811 110.929Z" fill="#291D18"/>
</svg>
