<svg xmlns="http://www.w3.org/2000/svg" width="212" height="133" viewBox="0 0 212 133"><g fill="none" fill-rule="evenodd" transform="translate(2 2)"><g transform="translate(1 10)"><g fill="#F2F2F2" transform="translate(101)"><rect width="1" height="20" x="71"/><rect width="1" height="20" x="23"/><rect width="1" height="20" x="48"/><rect width="1" height="20"/><rect width="2" height="20" x="76"/><rect width="2" height="20" x="28"/><rect width="2" height="20" x="51"/><rect width="2" height="20" x="3"/><rect width="2" height="20" x="80"/><rect width="2" height="20" x="32"/><rect width="2" height="20" x="55"/><rect width="2" height="20" x="7"/><rect width="1" height="20" x="85"/><rect width="1" height="20" x="37"/><rect width="1" height="20" x="60"/><rect width="1" height="20" x="12"/><rect width="1" height="20" x="87"/><rect width="1" height="20" x="39"/><rect width="1" height="20" x="62"/><rect width="1" height="20" x="14"/><rect width="1" height="20" x="89"/><rect width="1" height="20" x="41"/><rect width="1" height="20" x="64"/><rect width="1" height="20" x="16"/><rect width="1" height="20" x="93"/><rect width="1" height="20" x="45"/><rect width="1" height="20" x="68"/><rect width="1" height="20" x="20"/><rect width="1" height="20" x="94"/><rect width="1" height="20" x="46"/><rect width="1" height="20" x="69"/><rect width="1" height="20" x="21"/></g><line x2="205.904" y1="74" y2="74" stroke="#979797" stroke-width="3"/></g><polyline stroke="#239A98" stroke-width="3" points="75.99 18 92 18 92 38 13 38 13 18 70.539 18"/><polyline stroke="#979797" stroke-width="4" points="49.331 129 0 129 0 0 208 0 208 129 61.829 129"/></g></svg>