<svg xmlns="http://www.w3.org/2000/svg" width="210" height="131" viewBox="0 0 210 131"><g fill="none" fill-rule="evenodd" transform="translate(1 1)"><g transform="translate(1 10)"><g fill="#F2F2F2" transform="translate(101)"><rect width="1" height="20" x="71"/><rect width="1" height="20" x="23"/><rect width="1" height="20" x="48"/><rect width="1" height="20"/><rect width="2" height="20" x="76"/><rect width="2" height="20" x="28"/><rect width="2" height="20" x="51"/><rect width="2" height="20" x="3"/><rect width="2" height="20" x="80"/><rect width="2" height="20" x="32"/><rect width="2" height="20" x="55"/><rect width="2" height="20" x="7"/><rect width="1" height="20" x="85"/><rect width="1" height="20" x="37"/><rect width="1" height="20" x="60"/><rect width="1" height="20" x="12"/><rect width="1" height="20" x="87"/><rect width="1" height="20" x="39"/><rect width="1" height="20" x="62"/><rect width="1" height="20" x="14"/><rect width="1" height="20" x="89"/><rect width="1" height="20" x="41"/><rect width="1" height="20" x="64"/><rect width="1" height="20" x="16"/><rect width="1" height="20" x="93"/><rect width="1" height="20" x="45"/><rect width="1" height="20" x="68"/><rect width="1" height="20" x="20"/><rect width="1" height="20" x="94"/><rect width="1" height="20" x="46"/><rect width="1" height="20" x="69"/><rect width="1" height="20" x="21"/></g><line x2="205.904" y1="74" y2="74" stroke="#979797" stroke-width="2"/></g><path stroke="#979797" stroke-linecap="round" stroke-width="2" d="M48.2535724,129 L12,129 C5.372583,129 0,123.627417 0,117 L0,12 C0,5.372583 5.372583,0 12,0 L196,0 C202.627417,0 208,5.372583 208,12 L208,117 C208,123.627417 202.627417,129 196,129 L71.3011817,129 L71.3011817,129"/><path stroke="#239A98" stroke-linecap="round" stroke-width="2" d="M76.8654179,15 L85,15 C88.3137085,15 91,17.6862915 91,21 L91,29 C91,32.3137085 88.3137085,35 85,35 L18,35 C14.6862915,35 12,32.3137085 12,29 L12,21 C12,17.6862915 14.6862915,15 18,15 L66.8880499,15 L66.8880499,15"/></g></svg>