<?xml version="1.0" encoding="UTF-8"?>
<svg width="170px" height="169px" viewBox="0 0 170 169" version="1.1" xmlns="http://www.w3.org/2000/svg" xmlns:xlink="http://www.w3.org/1999/xlink">
    <!-- Generator: Sketch 60 (88103) - https://sketch.com -->
    <title>Illustrations / Flow / Mobile / WIGO check</title>
    <desc>Created with Sketch.</desc>
    <defs>
        <polygon id="path-1" points="3.40592351e-06 0.00395593895 6.97848149 0.00395593895 6.97848149 7.5089582 3.40592351e-06 7.5089582"></polygon>
    </defs>
    <g id="Illustrations-/-Flow-/-Mobile-/-WIGO-check" stroke="none" stroke-width="1" fill="none" fill-rule="evenodd">
        <g id="Group-4">
            <path d="M53.16,98.5 C54.5090727,98.5 55.5,100.027114 55.5,101.835616 L55.5,101.835616 L55.5,165.164384 C55.5,166.972886 54.5090727,168.5 53.16,168.5 L53.16,168.5 L33.84,168.5 C32.4909273,168.5 31.5,166.972886 31.5,165.164384 L31.5,165.164384 L31.5,110.39508 C31.5,110.118937 31.7238576,109.89508 32,109.89508 C32.2761424,109.89508 32.5,110.118937 32.5,110.39508 L32.5,110.39508 L32.5,165.164384 C32.5,166.488017 33.1566648,167.5 33.84,167.5 L33.84,167.5 L53.16,167.5 C53.8433352,167.5 54.5,166.488017 54.5,165.164384 L54.5,165.164384 L54.5,101.835616 C54.5,100.511983 53.8433352,99.5 53.16,99.5 L53.16,99.5 L33.84,99.5 C33.1566648,99.5 32.5,100.511983 32.5,101.835616 L32.5,101.835616 L32.5,107.270548 C32.5,107.54669 32.2761424,107.770548 32,107.770548 C31.7238576,107.770548 31.5,107.54669 31.5,107.270548 L31.5,107.270548 L31.5,101.835616 C31.5,100.027114 32.4909273,98.5 33.84,98.5 L33.84,98.5 Z M34.39,142.116206 C34.6354599,142.116206 34.8396084,142.293081 34.8819443,142.52633 L34.89,142.616206 L34.89,162.919863 C34.89,164.069181 35.3457994,164.952657 35.775393,165.04247 L35.8466667,165.05 L51.1416667,165.05 C51.5904828,165.05 52.0983333,164.133032 52.0983333,162.919863 C52.0983333,162.643721 52.322191,162.419863 52.5983333,162.419863 C52.8744757,162.419863 53.0983333,162.643721 53.0983333,162.919863 C53.0983333,164.546786 52.3619306,165.938999 51.2738942,166.043685 L51.1416667,166.05 L35.8466667,166.05 C34.7311153,166.05 33.9518067,164.720361 33.8935101,163.1139 L33.89,162.919863 L33.89,142.616206 C33.89,142.340063 34.1138576,142.116206 34.39,142.116206 Z M45.9344156,157.245455 C47.0239228,157.245455 47.9071429,158.128675 47.9071429,159.218182 C47.9071429,160.307689 47.0239228,161.190909 45.9344156,161.190909 L41.0655844,161.190909 C39.9760772,161.190909 39.0928571,160.307689 39.0928571,159.218182 C39.0928571,158.128675 39.9760772,157.245455 41.0655844,157.245455 L45.9344156,157.245455 Z M45.9344156,157.845455 L41.0655844,157.845455 C40.3074481,157.845455 39.6928571,158.460045 39.6928571,159.218182 C39.6928571,159.976318 40.3074481,160.590909 41.0655844,160.590909 L45.9344156,160.590909 C46.6925519,160.590909 47.3071429,159.976318 47.3071429,159.218182 C47.3071429,158.460045 46.6925519,157.845455 45.9344156,157.845455 Z M91.6235365,121 C91.8996789,121 92.1235365,121.223858 92.1235365,121.5 C92.1235365,121.776142 91.8996789,122 91.6235365,122 C90.5110525,122 89.5235512,122.792422 89.1810355,123.958216 L89.1345605,124.135833 L88.8389807,125.419858 C88.8180089,125.510961 88.7733789,125.590469 88.7130716,125.653387 L96.4269098,125.653387 C96.3867049,125.611442 96.3534677,125.562123 96.3295629,125.506911 L96.3010007,125.419858 L96.0054208,124.135833 C95.7148679,122.873645 94.684553,122 93.5164449,122 C93.2403025,122 93.0164449,121.776142 93.0164449,121.5 C93.0164449,121.223858 93.2403025,121 93.5164449,121 C95.1004332,121 96.4777812,122.11625 96.9301371,123.717113 L96.9799338,123.911502 L97.2755137,125.195527 C97.3148453,125.366387 97.2615062,125.536951 97.1484402,125.654572 L101.24895,125.654572 C101.154729,125.556554 101.101984,125.421771 101.109781,125.280688 L101.121877,125.195527 L101.417457,123.911502 C101.794664,122.272881 103.125597,121.093607 104.691905,121.005318 L104.880946,121 L107.547544,121 C107.584436,121 107.620395,121.003995 107.655011,121.011577 C109.118769,121.133612 110.362252,122.208935 110.788974,123.712939 L110.839952,123.911502 L111.135532,125.195527 C111.174864,125.366387 111.121525,125.536951 111.008459,125.654572 L115.96228,125.653846 C118.470705,125.653846 120.514522,127.657401 120.623522,130.119291 L120.628092,130.331396 L123.348276,155.769231 C123.348276,158.30779 121.374138,160.381861 118.89346,160.495128 L118.679624,160.5 L88.4568966,160.5 C88.1807542,160.5 87.9568966,160.276142 87.9568966,160 C87.9568966,159.75454 88.1337717,159.550392 88.3670209,159.508056 L88.4568966,159.5 L118.679624,159.5 C120.63879,159.5 122.241804,157.93724 122.34576,156.01575 L122.351116,155.82245 L119.630932,130.384615 C119.630932,128.389046 118.091117,126.761912 116.156967,126.659013 L115.96228,126.653846 L86.5964426,126.653846 C86.3203002,126.653846 86.0964426,126.429989 86.0964426,126.153846 C86.0964426,125.908386 86.2733177,125.704238 86.506567,125.661902 L86.5964426,125.653846 L87.9915411,125.654572 C87.8973195,125.556554 87.8445748,125.421771 87.8523719,125.280688 L87.8644676,125.195527 L88.1600475,123.911502 C88.552343,122.207336 89.9761887,121 91.6235365,121 Z M83.879099,125.653846 C84.1552414,125.653846 84.379099,125.877704 84.379099,126.153846 C84.379099,126.429989 84.1552414,126.653846 83.879099,126.653846 C81.919933,126.653846 80.3169189,128.216606 80.212963,130.234563 L80.2076066,130.437835 L77.4931034,155.769231 C77.4931034,157.764801 79.0329186,159.391934 80.9670685,159.494834 L81.1617555,159.5 L84.2882445,159.5 C84.5643869,159.5 84.7882445,159.723858 84.7882445,160 C84.7882445,160.24546 84.6113694,160.449608 84.3781201,160.491944 L84.2882445,160.5 L81.1617555,160.5 C78.6533305,160.5 76.6095137,158.496445 76.500514,155.936743 L76.4959438,155.716011 L79.210447,130.384615 C79.210447,127.773526 81.2990048,125.653846 83.879099,125.653846 Z M99.7517241,129 C102.987911,129 106.052953,130.128202 108.49784,132.156368 C108.710373,132.332675 108.739739,132.647893 108.563431,132.860426 C108.387124,133.072959 108.071906,133.102325 107.859373,132.926018 C105.592223,131.045293 102.752422,130 99.7517241,130 C92.7097767,130 87,135.742178 87,142.826923 C87,149.911668 92.7097767,155.653846 99.7517241,155.653846 C106.793672,155.653846 112.503448,149.911668 112.503448,142.826923 C112.503448,142.550781 112.727306,142.326923 113.003448,142.326923 C113.279591,142.326923 113.503448,142.550781 113.503448,142.826923 C113.503448,150.46269 107.347227,156.653846 99.7517241,156.653846 C92.1562213,156.653846 86,150.46269 86,142.826923 C86,135.191156 92.1562213,129 99.7517241,129 Z M43.5,150.972727 C44.7998416,150.972727 45.8535714,152.026457 45.8535714,153.326299 L45.8535714,153.400974 C45.8535714,154.700816 44.7998416,155.754545 43.5,155.754545 C42.2001584,155.754545 41.1464286,154.700816 41.1464286,153.400974 L41.1464286,153.326299 C41.1464286,152.026457 42.2001584,150.972727 43.5,150.972727 Z M43.5,151.572727 C42.5315292,151.572727 41.7464286,152.357828 41.7464286,153.326299 L41.7464286,153.400974 C41.7464286,154.369445 42.5315292,155.154545 43.5,155.154545 C44.4684708,155.154545 45.2535714,154.369445 45.2535714,153.400974 L45.2535714,153.326299 C45.2535714,152.357828 44.4684708,151.572727 43.5,151.572727 Z M157,151 C158.104569,151 159,151.895431 159,153 C159,154.104569 158.104569,155 157,155 C155.895431,155 155,154.104569 155,153 C155,151.895431 155.895431,151 157,151 Z M99.7693103,131.538462 C105.97077,131.538462 110.996897,136.593109 110.996897,142.826923 C110.996897,149.060737 105.97077,154.115385 99.7693103,154.115385 C93.5678504,154.115385 88.5417241,149.060737 88.5417241,142.826923 C88.5417241,136.593109 93.5678504,131.538462 99.7693103,131.538462 Z M99.7693103,132.538462 C94.1214058,132.538462 89.5417241,137.144131 89.5417241,142.826923 C89.5417241,148.509715 94.1214058,153.115385 99.7693103,153.115385 C105.417215,153.115385 109.996897,148.509715 109.996897,142.826923 C109.996897,137.144131 105.417215,132.538462 99.7693103,132.538462 Z M99.952122,146.969231 C101.001463,146.969231 101.852122,147.81989 101.852122,148.869231 C101.852122,149.918572 101.001463,150.769231 99.952122,150.769231 C98.902781,150.769231 98.052122,149.918572 98.052122,148.869231 C98.052122,147.81989 98.902781,146.969231 99.952122,146.969231 Z M99.952122,147.569231 C99.2341518,147.569231 98.652122,148.151261 98.652122,148.869231 C98.652122,149.587201 99.2341518,150.169231 99.952122,150.169231 C100.670092,150.169231 101.252122,149.587201 101.252122,148.869231 C101.252122,148.151261 100.670092,147.569231 99.952122,147.569231 Z M97.0633573,145.682572 L97.1635729,145.79213 C97.7983341,146.541879 97.764925,147.670467 97.0633573,148.380374 C96.324705,149.127616 95.1257219,149.127616 94.3870563,148.38036 C93.6504223,147.634972 93.6504223,146.427973 94.3870696,145.682572 C95.1257219,144.935329 96.324705,144.935329 97.0633573,145.682572 Z M105.766168,145.682595 C106.502802,146.427983 106.502802,147.634982 105.766155,148.380383 C105.027503,149.127626 103.82852,149.127626 103.089854,148.38037 C102.35322,147.634982 102.35322,146.427983 103.089877,145.682618 L103.198441,145.580936 C103.941665,144.937033 105.062676,144.970923 105.766168,145.682595 Z M103.614574,146.014802 L103.51662,146.104389 L103.427736,146.203906 C103.012946,146.718642 103.042575,147.478928 103.516613,147.958569 C104.020377,148.468223 104.835646,148.468223 105.339396,147.958583 C105.845052,147.446949 105.845052,146.616015 105.339409,146.104395 C104.867133,145.626597 104.121075,145.596733 103.614574,146.014802 Z M94.8138289,146.104372 C94.3081725,146.616006 94.3081725,147.44694 94.8138156,147.95856 C95.3175789,148.468213 96.132848,148.468213 96.636598,147.958573 C97.1106488,147.478919 97.1402789,146.718632 96.7254884,146.203896 L96.6366046,146.104379 L96.5386506,146.014793 C96.0321497,145.596723 95.2860925,145.626587 94.8138289,146.104372 Z M164.75,143.522869 C165.091117,143.522869 165.367647,143.794054 165.367647,144.128578 C165.367647,144.463101 165.091117,144.734286 164.75,144.734286 C164.408883,144.734286 164.132353,144.463101 164.132353,144.128578 C164.132353,143.794054 164.408883,143.522869 164.75,143.522869 Z M106.251724,140.63382 C107.301065,140.63382 108.151724,141.484479 108.151724,142.53382 C108.151724,143.583161 107.301065,144.43382 106.251724,144.43382 C105.202383,144.43382 104.351724,143.583161 104.351724,142.53382 C104.351724,141.484479 105.202383,140.63382 106.251724,140.63382 Z M94.0517241,140.63382 C95.1010652,140.63382 95.9517241,141.484479 95.9517241,142.53382 C95.9517241,143.583161 95.1010652,144.43382 94.0517241,144.43382 C93.0023831,144.43382 92.1517241,143.583161 92.1517241,142.53382 C92.1517241,141.484479 93.0023831,140.63382 94.0517241,140.63382 Z M106.251724,141.23382 C105.533754,141.23382 104.951724,141.815849 104.951724,142.53382 C104.951724,143.25179 105.533754,143.83382 106.251724,143.83382 C106.969694,143.83382 107.551724,143.25179 107.551724,142.53382 C107.551724,141.815849 106.969694,141.23382 106.251724,141.23382 Z M94.0517241,141.23382 C93.333754,141.23382 92.7517241,141.815849 92.7517241,142.53382 C92.7517241,143.25179 93.333754,143.83382 94.0517241,143.83382 C94.7696943,143.83382 95.3517241,143.25179 95.3517241,142.53382 C95.3517241,141.815849 94.7696943,141.23382 94.0517241,141.23382 Z M105.766164,136.877422 C105.882617,136.99528 105.881515,137.185226 105.76368,137.301702 C105.645845,137.418177 105.455899,137.417075 105.339423,137.29924 C104.835656,136.789595 104.02039,136.789595 103.516641,137.299222 C103.010992,137.810859 103.010992,138.64179 103.516623,139.153409 C104.02039,139.663055 104.835656,139.663055 105.339401,139.153432 C105.595011,138.894785 105.728476,138.54684 105.718076,138.187599 C105.713281,138.021983 105.843653,137.883838 106.009269,137.879043 C106.174885,137.874249 106.31303,138.00462 106.317824,138.170236 C106.332913,138.691424 106.1384,139.198524 105.766164,139.575228 C105.02751,140.322457 103.828537,140.322457 103.089864,139.57521 C102.353244,138.82982 102.353244,137.62283 103.089882,136.877422 C103.828537,136.130193 105.02751,136.130193 105.766164,136.877422 Z M96.3181221,136.492843 C97.054756,137.238231 97.054756,138.44523 96.3181088,139.190631 C95.5794565,139.937874 94.3804734,139.937874 93.6418077,139.190618 C92.9051738,138.44523 92.9051738,137.238231 93.6418309,136.492866 L93.7503949,136.391183 C94.4936184,135.747281 95.6146299,135.781171 96.3181221,136.492843 Z M94.1665278,136.82505 L94.0685737,136.914637 L93.97969,137.014154 C93.5648994,137.528889 93.5945288,138.289175 94.0685671,138.768817 C94.5723304,139.278471 95.3875995,139.278471 95.8913495,138.768831 C96.3970059,138.257197 96.3970059,137.426263 95.8913628,136.914643 C95.4190868,136.436845 94.6730288,136.406981 94.1665278,136.82505 Z M123.09899,115.5 C126.367713,115.5 129.02402,118.1805 129.136901,121.466702 L129.140634,121.691675 L130.5,132.669787 C130.5,136.119351 127.797558,138.923077 124.454545,138.923077 C124.178403,138.923077 123.954545,138.699219 123.954545,138.423077 C123.954545,138.146935 124.178403,137.923077 124.454545,137.923077 C127.165531,137.923077 129.383601,135.693995 129.499091,132.949141 L129.503811,132.731402 L128.144444,121.753289 C128.144444,118.922441 125.995887,116.620774 123.311962,116.504601 L123.09899,116.5 L76.5787879,116.5 C73.6122653,116.5 71.636628,118.306226 71.5294434,121.583096 L71.5248793,121.844846 L69.5,132.669787 C69.5,135.500636 71.6485571,137.802303 74.3324828,137.918476 L74.5454545,137.923077 L77.0464881,137.923077 C77.3226304,137.923077 77.5464881,138.146935 77.5464881,138.423077 C77.5464881,138.668537 77.3696129,138.872685 77.1363637,138.915021 L77.0464881,138.923077 L74.5454545,138.923077 C71.2767314,138.923077 68.6204249,136.242577 68.5118654,132.813191 L68.5084343,132.578231 L70.5333333,121.753289 C70.5333333,117.925664 72.8847715,115.604719 76.34141,115.503456 L76.5787879,115.5 L123.09899,115.5 Z M99.952122,134.7 C101.001463,134.7 101.852122,135.550659 101.852122,136.6 C101.852122,137.649341 101.001463,138.5 99.952122,138.5 C98.902781,138.5 98.052122,137.649341 98.052122,136.6 C98.052122,135.550659 98.902781,134.7 99.952122,134.7 Z M99.952122,135.3 C99.2341518,135.3 98.652122,135.88203 98.652122,136.6 C98.652122,137.31797 99.2341518,137.9 99.952122,137.9 C100.670092,137.9 101.252122,137.31797 101.252122,136.6 C101.252122,135.88203 100.670092,135.3 99.952122,135.3 Z M159.653268,88.5 C160.911074,88.5 161.944244,89.4618041 162.028158,90.6833051 L162.03366,90.8440464 L162.03366,132.027749 C162.03366,133.270505 161.052899,134.28409 159.815996,134.366398 L159.653268,134.371795 L139.90915,134.371795 C138.651344,134.371795 137.618174,133.409991 137.534261,132.18849 L137.528758,132.027749 L137.528758,96.4104012 C137.528758,96.1342588 137.752616,95.9104012 138.028758,95.9104012 C138.274218,95.9104012 138.478367,96.0872763 138.520703,96.3205255 L138.528758,96.4104012 L138.528758,132.027749 C138.528758,132.724302 139.074297,133.30027 139.775872,133.365621 L139.90915,133.371795 L159.653268,133.371795 C160.372826,133.371795 160.960691,132.836801 161.027362,132.156844 L161.03366,132.027749 L161.03366,90.8440464 C161.03366,90.1474926 160.488122,89.5715249 159.786547,89.5061742 L159.653268,89.5 L139.90915,89.5 C139.189592,89.5 138.601727,90.0349939 138.535056,90.7149509 L138.528758,90.8440464 L138.528758,94.3784686 C138.528758,94.6546109 138.304901,94.8784686 138.028758,94.8784686 C137.783298,94.8784686 137.57915,94.7015934 137.536814,94.4683442 L137.528758,94.3784686 L137.528758,90.8440464 C137.528758,89.6012903 138.509519,88.5877047 139.746422,88.5053968 L139.90915,88.5 L159.653268,88.5 Z M43.5,130.9 C44.1205699,130.9 44.6214286,131.409965 44.6214286,132.036364 C44.6214286,132.662762 44.1205699,133.172727 43.5,133.172727 C42.8794301,133.172727 42.3785714,132.662762 42.3785714,132.036364 C42.3785714,131.409965 42.8794301,130.9 43.5,130.9 Z M43.5,131.5 C43.2132449,131.5 42.9785714,131.73894 42.9785714,132.036364 C42.9785714,132.333787 43.2132449,132.572727 43.5,132.572727 C43.7867551,132.572727 44.0214286,132.333787 44.0214286,132.036364 C44.0214286,131.73894 43.7867551,131.5 43.5,131.5 Z M159.18317,131.420407 C159.348855,131.420407 159.48317,131.554722 159.48317,131.720407 C159.48317,131.886093 159.348855,132.020407 159.18317,132.020407 L159.18317,132.020407 L155.422386,132.020407 C155.2567,132.020407 155.122386,131.886093 155.122386,131.720407 C155.122386,131.554722 155.2567,131.420407 155.422386,131.420407 L155.422386,131.420407 Z M154.168791,131.420407 C154.334476,131.420407 154.468791,131.554722 154.468791,131.720407 C154.468791,131.886093 154.334476,132.020407 154.168791,132.020407 L154.168791,132.020407 L150.408007,132.020407 C150.242321,132.020407 150.108007,131.886093 150.108007,131.720407 C150.108007,131.554722 150.242321,131.420407 150.408007,131.420407 L150.408007,131.420407 Z M144.140033,131.420407 C144.305718,131.420407 144.440033,131.554722 144.440033,131.720407 C144.440033,131.886093 144.305718,132.020407 144.140033,132.020407 L144.140033,132.020407 L140.379248,132.020407 C140.213563,132.020407 140.079248,131.886093 140.079248,131.720407 C140.079248,131.554722 140.213563,131.420407 140.379248,131.420407 L140.379248,131.420407 Z M149.154412,131.420407 C149.320097,131.420407 149.454412,131.554722 149.454412,131.720407 C149.454412,131.886093 149.320097,132.020407 149.154412,132.020407 L149.154412,132.020407 L145.393627,132.020407 C145.227942,132.020407 145.093627,131.886093 145.093627,131.720407 C145.093627,131.554722 145.227942,131.420407 145.393627,131.420407 L145.393627,131.420407 Z M43.5,127.554545 C44.122096,127.554545 44.6214286,128.074286 44.6214286,128.709545 C44.6214286,129.344805 44.122096,129.864545 43.5,129.864545 C42.877904,129.864545 42.3785714,129.344805 42.3785714,128.709545 C42.3785714,128.074286 42.877904,127.554545 43.5,127.554545 Z M43.5,128.154545 C43.2147711,128.154545 42.9785714,128.400398 42.9785714,128.709545 C42.9785714,129.018692 43.2147711,129.264545 43.5,129.264545 C43.7852289,129.264545 44.0214286,129.018692 44.0214286,128.709545 C44.0214286,128.400398 43.7852289,128.154545 43.5,128.154545 Z M149.781209,122.200176 C150.135594,122.200176 150.479363,122.277979 150.792333,122.425831 C150.942143,122.496603 151.006216,122.67542 150.935443,122.82523 C150.864671,122.97504 150.685854,123.039112 150.536044,122.96834 C150.302858,122.858179 150.046573,122.800176 149.781209,122.800176 C148.820544,122.800176 148.044118,123.561594 148.044118,124.497893 C148.044118,125.434191 148.820544,126.195609 149.781209,126.195609 C150.741875,126.195609 151.518301,125.434191 151.518301,124.497893 C151.518301,124.14946 151.41099,123.817377 151.213214,123.536599 C151.117802,123.401143 151.150263,123.213988 151.285718,123.118576 C151.421174,123.023163 151.608329,123.055624 151.703741,123.19108 C151.972076,123.57203 152.118301,124.024535 152.118301,124.497893 C152.118301,125.768211 151.070653,126.795609 149.781209,126.795609 C148.491766,126.795609 147.444118,125.768211 147.444118,124.497893 C147.444118,123.227574 148.491766,122.200176 149.781209,122.200176 Z M43.5,123.790909 C44.1205699,123.790909 44.6214286,124.300874 44.6214286,124.927273 C44.6214286,125.553671 44.1205699,126.063636 43.5,126.063636 C42.8794301,126.063636 42.3785714,125.553671 42.3785714,124.927273 C42.3785714,124.300874 42.8794301,123.790909 43.5,123.790909 Z M107.376463,122 L104.880946,122 C103.768462,122 102.78096,122.792422 102.438445,123.958216 L102.39197,124.135833 L102.09639,125.419858 C102.075413,125.510983 102.030766,125.590507 101.970436,125.653433 L110.286928,125.653387 C110.246724,125.611442 110.213486,125.562123 110.189582,125.506911 L110.161019,125.419858 L109.865439,124.135833 C109.574887,122.873645 108.544572,122 107.376463,122 Z M43.5,124.390909 C43.2132449,124.390909 42.9785714,124.629849 42.9785714,124.927273 C42.9785714,125.224696 43.2132449,125.463636 43.5,125.463636 C43.7867551,125.463636 44.0214286,125.224696 44.0214286,124.927273 C44.0214286,124.629849 43.7867551,124.390909 43.5,124.390909 Z M43.5,120.445455 C44.1205699,120.445455 44.6214286,120.95542 44.6214286,121.581818 C44.6214286,122.208217 44.1205699,122.718182 43.5,122.718182 C42.8794301,122.718182 42.3785714,122.208217 42.3785714,121.581818 C42.3785714,120.95542 42.8794301,120.445455 43.5,120.445455 Z M43.5,121.045455 C43.2132449,121.045455 42.9785714,121.284395 42.9785714,121.581818 C42.9785714,121.879242 43.2132449,122.118182 43.5,122.118182 C43.7867551,122.118182 44.0214286,121.879242 44.0214286,121.581818 C44.0214286,121.284395 43.7867551,121.045455 43.5,121.045455 Z M143.513235,117.282719 C144.802679,117.282719 145.850327,118.310117 145.850327,119.580436 C145.850327,120.850754 144.802679,121.878152 143.513235,121.878152 C142.223792,121.878152 141.176144,120.850754 141.176144,119.580436 C141.176144,118.310117 142.223792,117.282719 143.513235,117.282719 Z M156.049183,117.282719 C156.403568,117.282719 156.747336,117.360522 157.060307,117.508374 C157.210117,117.579146 157.27419,117.757963 157.203417,117.907773 C157.132645,118.057583 156.953828,118.121655 156.804018,118.050883 C156.570832,117.940722 156.314547,117.882719 156.049183,117.882719 C155.088517,117.882719 154.312092,118.644137 154.312092,119.580436 C154.312092,120.516734 155.088517,121.278152 156.049183,121.278152 C157.009849,121.278152 157.786275,120.516734 157.786275,119.580436 C157.786275,119.232003 157.678964,118.89992 157.481188,118.619142 C157.385776,118.483686 157.418237,118.296531 157.553692,118.201119 C157.689147,118.105706 157.876303,118.138167 157.971715,118.273623 C158.24005,118.654573 158.386275,119.107078 158.386275,119.580436 C158.386275,120.850754 157.338627,121.878152 156.049183,121.878152 C154.759739,121.878152 153.712092,120.850754 153.712092,119.580436 C153.712092,118.310117 154.759739,117.282719 156.049183,117.282719 Z M149.781209,117.282719 C151.070653,117.282719 152.118301,118.310117 152.118301,119.580436 C152.118301,120.850754 151.070653,121.878152 149.781209,121.878152 C148.491766,121.878152 147.444118,120.850754 147.444118,119.580436 C147.444118,118.310117 148.491766,117.282719 149.781209,117.282719 Z M143.513235,117.882719 C142.55257,117.882719 141.776144,118.644137 141.776144,119.580436 C141.776144,120.516734 142.55257,121.278152 143.513235,121.278152 C144.473901,121.278152 145.250327,120.516734 145.250327,119.580436 C145.250327,118.644137 144.473901,117.882719 143.513235,117.882719 Z M149.781209,117.882719 C148.820544,117.882719 148.044118,118.644137 148.044118,119.580436 C148.044118,120.516734 148.820544,121.278152 149.781209,121.278152 C150.741875,121.278152 151.518301,120.516734 151.518301,119.580436 C151.518301,118.644137 150.741875,117.882719 149.781209,117.882719 Z M156.3,118.6 C156.392047,118.6 156.469571,118.662183 156.492856,118.746832 L156.5,118.8 L156.500299,119.099 L156.85,119.1 C156.942047,119.1 157.019571,119.162183 157.042856,119.246832 L157.05,119.3 C157.05,119.392047 156.987817,119.469571 156.903168,119.492856 L156.85,119.5 L156.500299,119.499 L156.500299,119.75 L156.853299,119.75 C156.945346,119.75 157.02287,119.812183 157.046154,119.896832 L157.053299,119.95 C157.053299,120.042047 156.991116,120.119571 156.906466,120.142856 L156.853299,120.15 L156.500299,120.15 L156.5,120.336705 C156.5,120.428753 156.437817,120.506277 156.353168,120.529561 L156.3,120.536705 C156.207953,120.536705 156.130429,120.474523 156.107144,120.389873 L156.1,120.336705 L156.100299,120.15 L155.900299,120.15 L155.9,120.336705 C155.9,120.428753 155.837817,120.506277 155.753168,120.529561 L155.7,120.536705 C155.607953,120.536705 155.530429,120.474523 155.507144,120.389873 L155.5,120.336705 L155.500299,120.15 L155.153299,120.15 C155.061251,120.15 154.983727,120.087817 154.960443,120.003168 L154.953299,119.95 C154.953299,119.857953 155.015481,119.780429 155.100131,119.757144 L155.153299,119.75 L155.500299,119.75 L155.500299,119.499 L155.15,119.5 C155.039543,119.5 154.95,119.410457 154.95,119.3 C154.95,119.207953 155.012183,119.130429 155.096832,119.107144 L155.15,119.1 L155.500299,119.099 L155.5,118.8 C155.5,118.707953 155.562183,118.630429 155.646832,118.607144 L155.7,118.6 C155.792047,118.6 155.869571,118.662183 155.892856,118.746832 L155.9,118.8 L155.900299,119.099 L156.100299,119.099 L156.1,118.8 C156.1,118.707953 156.162183,118.630429 156.246832,118.607144 L156.3,118.6 Z M143.45,118.6 C143.542047,118.6 143.619571,118.662183 143.642856,118.746832 L143.65,118.8 L143.649,119.094 L143.860847,118.887534 C143.923938,118.825663 144.017597,118.81408 144.092138,118.852296 L144.143683,118.890288 C144.205549,118.953384 144.217131,119.047044 144.178911,119.121582 L144.140916,119.173124 L143.929,119.38 L144.216993,119.380436 C144.309041,119.380436 144.386565,119.442618 144.409849,119.527268 L144.416993,119.580436 C144.416993,119.672483 144.354811,119.750007 144.270161,119.773291 L144.216993,119.780436 L143.956,119.78 L144.154471,119.974149 C144.217562,120.03602 144.230971,120.129436 144.194217,120.204709 L144.157238,120.256985 C144.095362,120.32007 144.001945,120.333478 143.926675,120.296721 L143.874402,120.259739 L143.649,120.038 L143.65,120.336705 C143.65,120.428753 143.587817,120.506277 143.503168,120.529561 L143.45,120.536705 C143.357953,120.536705 143.280429,120.474523 143.257144,120.389873 L143.25,120.336705 L143.249,120.046 L143.032884,120.259739 C142.969794,120.32161 142.876134,120.333193 142.801593,120.294977 L142.750048,120.256985 C142.688183,120.193889 142.6766,120.100229 142.71482,120.025691 L142.752815,119.974149 L142.95,119.78 L142.65,119.780436 C142.557953,119.780436 142.480429,119.718253 142.457144,119.633603 L142.45,119.580436 C142.45,119.488388 142.512183,119.410864 142.596832,119.38758 L142.65,119.380436 L142.977,119.38 L142.76637,119.173124 C142.70328,119.111253 142.689871,119.017837 142.726625,118.942564 L142.763604,118.890288 C142.82548,118.827203 142.918897,118.813795 142.994166,118.850552 L143.04644,118.887534 L143.249,119.086 L143.25,118.8 C143.25,118.707953 143.312183,118.630429 143.396832,118.607144 L143.45,118.6 Z M43.5,117.1 C44.1205699,117.1 44.6214286,117.609965 44.6214286,118.236364 C44.6214286,118.862762 44.1205699,119.372727 43.5,119.372727 C42.8794301,119.372727 42.3785714,118.862762 42.3785714,118.236364 C42.3785714,117.609965 42.8794301,117.1 43.5,117.1 Z M43.5,117.7 C43.2132449,117.7 42.9785714,117.93894 42.9785714,118.236364 C42.9785714,118.533787 43.2132449,118.772727 43.5,118.772727 C43.7867551,118.772727 44.0214286,118.533787 44.0214286,118.236364 C44.0214286,117.93894 43.7867551,117.7 43.5,117.7 Z M156.049183,112.365262 C157.338627,112.365262 158.386275,113.39266 158.386275,114.662979 C158.386275,115.933297 157.338627,116.960695 156.049183,116.960695 C154.759739,116.960695 153.712092,115.933297 153.712092,114.662979 C153.712092,113.39266 154.759739,112.365262 156.049183,112.365262 Z M149.781209,112.365262 C150.135594,112.365262 150.479363,112.443065 150.792333,112.590917 C150.942143,112.661689 151.006216,112.840506 150.935443,112.990316 C150.864671,113.140126 150.685854,113.204198 150.536044,113.133426 C150.302858,113.023266 150.046573,112.965262 149.781209,112.965262 C148.820544,112.965262 148.044118,113.72668 148.044118,114.662979 C148.044118,115.599277 148.820544,116.360695 149.781209,116.360695 C150.741875,116.360695 151.518301,115.599277 151.518301,114.662979 C151.518301,114.314546 151.41099,113.982463 151.213214,113.701685 C151.117802,113.566229 151.150263,113.379074 151.285718,113.283662 C151.421174,113.188249 151.608329,113.22071 151.703741,113.356166 C151.972076,113.737116 152.118301,114.189621 152.118301,114.662979 C152.118301,115.933297 151.070653,116.960695 149.781209,116.960695 C148.491766,116.960695 147.444118,115.933297 147.444118,114.662979 C147.444118,113.39266 148.491766,112.365262 149.781209,112.365262 Z M143.513235,112.365262 C144.802679,112.365262 145.850327,113.39266 145.850327,114.662979 C145.850327,115.933297 144.802679,116.960695 143.513235,116.960695 C142.223792,116.960695 141.176144,115.933297 141.176144,114.662979 C141.176144,113.39266 142.223792,112.365262 143.513235,112.365262 Z M143.513235,112.965262 C142.55257,112.965262 141.776144,113.72668 141.776144,114.662979 C141.776144,115.599277 142.55257,116.360695 143.513235,116.360695 C144.473901,116.360695 145.250327,115.599277 145.250327,114.662979 C145.250327,113.72668 144.473901,112.965262 143.513235,112.965262 Z M156.049183,112.965262 C155.088517,112.965262 154.312092,113.72668 154.312092,114.662979 C154.312092,115.599277 155.088517,116.360695 156.049183,116.360695 C157.009849,116.360695 157.786275,115.599277 157.786275,114.662979 C157.786275,113.72668 157.009849,112.965262 156.049183,112.965262 Z M143.513235,107.447805 C143.86762,107.447805 144.211389,107.525608 144.52436,107.67346 C144.674169,107.744232 144.738242,107.923049 144.66747,108.072859 C144.596697,108.222669 144.41788,108.286741 144.268071,108.215969 C144.034884,108.105809 143.778599,108.047805 143.513235,108.047805 C142.55257,108.047805 141.776144,108.809223 141.776144,109.745522 C141.776144,110.68182 142.55257,111.443238 143.513235,111.443238 C144.473901,111.443238 145.250327,110.68182 145.250327,109.745522 C145.250327,109.397089 145.143016,109.065006 144.94524,108.784228 C144.849828,108.648772 144.882289,108.461617 145.017744,108.366205 C145.1532,108.270792 145.340355,108.303254 145.435767,108.438709 C145.704102,108.819659 145.850327,109.272164 145.850327,109.745522 C145.850327,111.01584 144.802679,112.043238 143.513235,112.043238 C142.223792,112.043238 141.176144,111.01584 141.176144,109.745522 C141.176144,108.475203 142.223792,107.447805 143.513235,107.447805 Z M149.781209,107.447805 C151.070653,107.447805 152.118301,108.475203 152.118301,109.745522 C152.118301,111.01584 151.070653,112.043238 149.781209,112.043238 C148.491766,112.043238 147.444118,111.01584 147.444118,109.745522 C147.444118,109.375607 147.53334,109.017676 147.701889,108.695586 C148.099708,107.935367 148.896828,107.447805 149.781209,107.447805 Z M156.049183,107.447805 C157.338627,107.447805 158.386275,108.475203 158.386275,109.745522 C158.386275,111.01584 157.338627,112.043238 156.049183,112.043238 C154.759739,112.043238 153.712092,111.01584 153.712092,109.745522 C153.712092,108.475203 154.759739,107.447805 156.049183,107.447805 Z M51.1416667,101.05 C52.5357602,101.05 53.0019264,101.793058 53.0843071,103.529306 L53.0923854,103.74244 L53.0983333,104.180137 L53.0983333,111.12164 C53.0983333,111.397783 52.8744757,111.62164 52.5983333,111.62164 C52.3528734,111.62164 52.148725,111.444765 52.106389,111.211516 L52.0983333,111.12164 L52.097356,103.973298 L52.0890021,103.59829 C52.0457467,102.431702 51.8404761,102.082842 51.2354487,102.052262 L51.1416667,102.05 L35.7510547,102.051733 C35.0737195,102.077658 34.9146404,102.405656 34.8928309,103.779087 L34.89,104.180137 L34.89,109.221233 C34.89,109.497375 34.6661424,109.721233 34.39,109.721233 C34.1445401,109.721233 33.9403916,109.544358 33.8980557,109.311109 L33.89,109.221233 L33.89,104.180137 L33.8945365,103.739715 C33.9367016,101.844195 34.2905579,101.103297 35.6871603,101.052794 L35.8466667,101.05 L51.1416667,101.05 Z M149.781209,108.047805 C149.121178,108.047805 148.528285,108.41045 148.2335,108.973776 C148.10957,109.210601 148.044118,109.473174 148.044118,109.745522 C148.044118,110.68182 148.820544,111.443238 149.781209,111.443238 C150.741875,111.443238 151.518301,110.68182 151.518301,109.745522 C151.518301,108.809223 150.741875,108.047805 149.781209,108.047805 Z M156.049183,108.047805 C155.088517,108.047805 154.312092,108.809223 154.312092,109.745522 C154.312092,110.68182 155.088517,111.443238 156.049183,111.443238 C157.009849,111.443238 157.786275,110.68182 157.786275,109.745522 C157.786275,108.809223 157.009849,108.047805 156.049183,108.047805 Z M128.617647,109.313583 C128.958764,109.313583 129.235294,109.584768 129.235294,109.919291 C129.235294,110.253815 128.958764,110.525 128.617647,110.525 C128.27653,110.525 128,110.253815 128,109.919291 C128,109.584768 128.27653,109.313583 128.617647,109.313583 Z M149.781209,102.530348 C151.070653,102.530348 152.118301,103.557746 152.118301,104.828065 C152.118301,106.098383 151.070653,107.125782 149.781209,107.125782 C148.491766,107.125782 147.444118,106.098383 147.444118,104.828065 C147.444118,103.557746 148.491766,102.530348 149.781209,102.530348 Z M143.513235,102.530348 C144.802679,102.530348 145.850327,103.557746 145.850327,104.828065 C145.850327,106.098383 144.802679,107.125782 143.513235,107.125782 C142.223792,107.125782 141.176144,106.098383 141.176144,104.828065 C141.176144,103.557746 142.223792,102.530348 143.513235,102.530348 Z M156.049183,102.530348 C156.403568,102.530348 156.747336,102.608151 157.060307,102.756003 C157.210117,102.826775 157.27419,103.005592 157.203417,103.155402 C157.132645,103.305212 156.953828,103.369284 156.804018,103.298512 C156.570832,103.188352 156.314547,103.130348 156.049183,103.130348 C155.088517,103.130348 154.312092,103.891766 154.312092,104.828065 C154.312092,105.764363 155.088517,106.525782 156.049183,106.525782 C157.009849,106.525782 157.786275,105.764363 157.786275,104.828065 C157.786275,104.479632 157.678964,104.147549 157.481188,103.866771 C157.385776,103.731315 157.418237,103.54416 157.553692,103.448748 C157.689147,103.353335 157.876303,103.385797 157.971715,103.521252 C158.24005,103.902202 158.386275,104.354707 158.386275,104.828065 C158.386275,106.098383 157.338627,107.125782 156.049183,107.125782 C154.759739,107.125782 153.712092,106.098383 153.712092,104.828065 C153.712092,103.557746 154.759739,102.530348 156.049183,102.530348 Z M143.513235,103.130348 C142.55257,103.130348 141.776144,103.891766 141.776144,104.828065 C141.776144,105.764363 142.55257,106.525782 143.513235,106.525782 C144.473901,106.525782 145.250327,105.764363 145.250327,104.828065 C145.250327,103.891766 144.473901,103.130348 143.513235,103.130348 Z M149.781209,103.130348 C148.820544,103.130348 148.044118,103.891766 148.044118,104.828065 C148.044118,105.764363 148.820544,106.525782 149.781209,106.525782 C150.741875,106.525782 151.518301,105.764363 151.518301,104.828065 C151.518301,103.891766 150.741875,103.130348 149.781209,103.130348 Z M169.382353,101.4307 C169.72347,101.4307 170,101.701885 170,102.036409 C170,102.370932 169.72347,102.642117 169.382353,102.642117 C169.041236,102.642117 168.764706,102.370932 168.764706,102.036409 C168.764706,101.701885 169.041236,101.4307 169.382353,101.4307 Z M155.707884,90.9 C155.933152,90.9 156.115768,91.0790861 156.115768,91.3 C156.115768,91.5209139 155.933152,91.7 155.707884,91.7 C155.482616,91.7 155.3,91.5209139 155.3,91.3 C155.3,91.0790861 155.482616,90.9 155.707884,90.9 Z M154.282353,91 C154.448038,91 154.582353,91.1343146 154.582353,91.3 C154.582353,91.4656854 154.448038,91.6 154.282353,91.6 L143.6,91.6 C143.434315,91.6 143.3,91.4656854 143.3,91.3 C143.3,91.1343146 143.434315,91 143.6,91 L154.282353,91 Z M95.7050478,75.7 C97.0857597,75.7 98.2050478,76.8192881 98.2050478,78.2 C98.2050478,78.3842372 98.184682,78.5679099 98.1443213,78.7476719 L96.645347,85.423947 C95.9791132,88.3912828 93.3444442,90.5 90.3032357,90.5 L28.6967643,90.5 C25.6555558,90.5 23.0208868,88.3912828 22.354653,85.423947 L20.8556787,78.7476719 C20.5532078,77.4004984 21.4001067,76.0631973 22.7472803,75.7607265 C22.9270423,75.7203658 23.110715,75.7 23.2949522,75.7 L95.7050478,75.7 Z M95.7050478,76.7 L23.2949522,76.7 C23.1844099,76.7 23.0742063,76.7122195 22.9663491,76.7364359 C22.1580449,76.9179184 21.6499056,77.720299 21.8313881,78.5286032 L23.3303625,85.2048783 C23.8940988,87.7157008 26.123434,89.5 28.6967643,89.5 L90.3032357,89.5 C92.876566,89.5 95.1059012,87.7157008 95.6696375,85.2048783 L97.1686119,78.5286032 C97.1928283,78.420746 97.2050478,78.3105423 97.2050478,78.2 C97.2050478,77.3715729 96.5334749,76.7 95.7050478,76.7 Z M51.1067961,82.5375 C51.5210097,82.5375 51.8567961,82.8732864 51.8567961,83.2875 C51.8567961,83.6671958 51.5746422,83.980991 51.2085667,84.0306534 L51.1067961,84.0375 L28,84.0375 C27.5857864,84.0375 27.25,83.7017136 27.25,83.2875 C27.25,82.9078042 27.5321539,82.594009 27.8982294,82.5443466 L28,82.5375 L51.1067961,82.5375 Z M88.506965,81 C89.3392387,81 90.0139299,81.6715729 90.0139299,82.5 C90.0139299,83.3284271 89.3392387,84 88.506965,84 C87.6746912,84 87,83.3284271 87,82.5 C87,81.6715729 87.6746912,81 88.506965,81 Z M107,0 C113.627417,0 119,5.372583 119,12 L119,61.6 C119,68.227417 113.627417,73.6 107,73.6 L12,73.6 C5.372583,73.6 0,68.227417 0,61.6 L0,12 C0,5.372583 5.372583,0 12,0 L107,0 Z M107,1 L12,1 C5.92486775,1 1,5.92486775 1,12 L1,61.6 C1,67.6751322 5.92486775,72.6 12,72.6 L107,72.6 C113.075132,72.6 118,67.6751322 118,61.6 L118,12 C118,5.92486775 113.075132,1 107,1 Z M59.0092866,62 C60.118985,62 61.0185732,62.8954305 61.0185732,64 C61.0185732,65.1045695 60.118985,66 59.0092866,66 C57.8995883,66 57,65.1045695 57,64 C57,62.8954305 57.8995883,62 59.0092866,62 Z M156,45 C158.209139,45 160,46.790861 160,49 C160,51.209139 158.209139,53 156,53 C153.790861,53 152,51.209139 152,49 C152,46.790861 153.790861,45 156,45 Z" id="Combined-Shape" fill="#C5C6C6" fill-rule="nonzero"></path>
            <g id="smilie" transform="translate(40.214286, 105.272727)">
                <path d="M3.88502366,2.95598623 C4.03093754,2.93969568 4.17366802,2.93260616 4.34405325,2.93506318 C4.50900221,2.93784012 4.68296263,2.95030437 4.83708804,2.97254551 C4.83708804,2.97254551 4.8875,2.98197687 4.8875,2.93975967 L4.8875,2.66729937 C4.8875,2.64231968 4.84707902,2.63448794 4.84707902,2.63448794 C4.67817938,2.59973137 4.51078165,2.58030557 4.3452613,2.57751583 C4.18932381,2.57536594 4.03394136,2.58747187 3.87878747,2.61398719 C3.87878747,2.61398719 3.84017857,2.62338017 3.84017857,2.65010024 L3.84017857,2.91959164 C3.84017857,2.969615 3.88502366,2.95598623 3.88502366,2.95598623" id="Fill-4" fill="#C5C6C6"></path>
                <path d="M2.61830357,3.16937799 C2.61830357,3.16937799 3.14196429,3.16881717 3.14196429,2.77307292 C3.14196429,2.37760907 2.61830357,2.37703349 2.61830357,2.37703349 C2.61830357,2.37703349 2.09464286,2.37760907 2.09464286,2.77307292 C2.09464286,3.16881717 2.61830357,3.16937799 2.61830357,3.16937799" id="Fill-6" fill="#C5C6C6"></path>
                <path d="M5.16395044,4.36959813 C4.96957451,4.47293897 4.40193092,4.73619443 3.66564252,4.73619443 C2.92931908,4.73619443 2.36178059,4.47293897 2.16733459,4.36959813 C2.16733459,4.36959813 2.09464286,4.32604565 2.09464286,4.40697326 L2.09464286,4.56863591 C2.09464286,4.61716581 2.15864661,4.66836219 2.15864661,4.66836219 C2.35050023,4.79506434 2.95117915,5.14995777 3.66564252,5.15023923 C4.38003582,5.14995777 4.98043448,4.79506434 5.17263842,4.66836219 C5.17263842,4.66836219 5.23660714,4.61716581 5.23660714,4.56863591 L5.23660714,4.40697326 C5.23660714,4.32604565 5.16395044,4.36959813 5.16395044,4.36959813" id="Fill-8" fill="#C5C6C6"></path>
                <mask id="mask-2" fill="white">
                    <use xlink:href="#path-1"></use>
                </mask>
                <g id="Clip-2"></g>
                <path d="M5.91377623,5.50655713 C5.8632153,5.95487857 5.5418494,6.30774466 5.12496438,6.36193736 C5.12496438,6.36193736 4.46319348,6.4722641 3.48921861,6.4722641 C2.51517562,6.4722641 1.85347283,6.36193736 1.85347283,6.36193736 C1.43662187,6.30774466 1.11530706,5.95487857 1.06464395,5.50655713 C1.06464395,5.50644725 0.963964861,4.70701792 0.963964861,3.75638381 C0.963964861,2.8057497 1.06464395,2.00633869 1.06464395,2.00621048 C1.11530706,1.55799894 1.43662187,1.20513285 1.85347283,1.15105003 C1.85347283,1.15105003 2.51517562,1.0406134 3.48921861,1.0406134 C4.46319348,1.0406134 5.12496438,1.15105003 5.12496438,1.15105003 C5.5418494,1.20513285 5.8632153,1.55799894 5.91377623,2.00621048 C5.91377623,2.00633869 6.01462562,2.8057497 6.01462562,3.75638381 C6.01462562,4.70701792 5.91377623,5.50644725 5.91377623,5.50655713 M6.83928481,1.33815129 C6.7693612,0.718863703 6.32539909,0.23118434 5.74927013,0.156461048 C5.74927013,0.156461048 4.83501813,0.00395593895 3.48921861,0.00395593895 C2.14340206,0.00395593895 1.22908193,0.156461048 1.22908193,0.156461048 C0.653072178,0.23118434 0.20907601,0.718863703 0.139186463,1.33815129 C0.139135375,1.33826118 3.40592335e-06,2.44299376 3.40592335e-06,3.75638381 C3.40592335e-06,5.06988374 0.139135375,6.17456138 0.139186463,6.17467127 C0.20907601,6.7940138 0.653072178,7.28160159 1.22908193,7.35643477 C1.22908193,7.35643477 2.14340206,7.5089582 3.48921861,7.5089582 C4.83501813,7.5089582 5.74927013,7.35643477 5.74927013,7.35643477 C6.32539909,7.28160159 6.7693612,6.7940138 6.83928481,6.17467127 C6.83928481,6.17456138 6.9784849,5.06988374 6.9784849,3.75638381 C6.9784849,2.44299376 6.83928481,1.33826118 6.83928481,1.33815129" id="Fill-1" fill="#C5C6C6" mask="url(#mask-2)"></path>
            </g>
            <path d="M31.0158429,106.583333 C33.0478032,106.583333 34.4598435,106.069767 35.6308037,104.939922 C37.146164,103.501938 38.9370444,97.6472868 41.4856049,88.129199 L41.9232571,89.7484129 C44.2635628,98.3224625 46.1095501,103.682058 47.374846,104.939922 C48.4424862,106.001292 49.7856464,106.583333 51.9553669,106.583333 C54.9860874,106.583333 57.0869278,105.350775 58.085688,103.638889 C60.167743,100.090615 64.7868538,78.9818399 66.0392402,72.743905 L66.28299,71.5224404 C66.7369685,69.3070803 67.0056497,68.4354228 67.0056497,67.4153747 C67.0056497,64.5736434 64.6292893,62.4166667 61.3230486,62.4166667 C58.4670481,62.4166667 56.4305599,63.7527731 55.8212225,66.1070545 L55.7782076,66.2855297 C55.5026875,67.5865633 53.7462472,76.8649871 51.8176068,85.3217054 L50.628962,80.5208258 C49.4976543,75.9246942 48.3978417,71.3577854 47.581486,67.6550388 C46.9271259,64.744832 44.4818854,63.4095607 41.4856049,63.4095607 C38.5582043,63.4095607 36.1474038,64.744832 35.4586037,67.620801 L35.1786323,68.7871902 C33.9938877,73.7485556 32.586052,79.9362379 31.1191629,85.8010336 L30.465465,82.7782549 C29.9467132,80.3475751 29.4666859,78.0253066 29.060356,76.0270077 L27.8473623,69.9489664 C27.7172556,69.3022538 27.3721114,67.4034337 27.1890987,66.6752833 L27.1585621,66.5594315 C26.400882,63.5807494 24.4378016,62.4166667 21.5792811,62.4166667 C18.4796805,62.4166667 16,64.3339793 16,66.9018088 C16,68.2713178 16.4132801,69.9489664 16.9298802,72.379845 L17.9421991,77.2636758 C19.6400111,85.3504482 22.8841746,100.097186 24.9199617,103.638889 C25.9876019,105.487726 28.2950823,106.583333 31.0158429,106.583333 Z M75.5762712,106.583333 C78.7467043,106.583333 81.220339,104.460594 81.220339,101.653101 L81.220339,67.2784238 C81.220339,64.505168 78.7815443,62.4166667 75.5762712,62.4166667 C72.3709981,62.4166667 69.9322034,64.505168 69.9322034,67.2784238 L69.9322034,101.653101 C69.9322034,104.460594 72.405838,106.583333 75.5762712,106.583333 Z M105.441576,107 C109.808353,107 114.75966,105.86814 118.713829,103.878811 C120.639337,102.918445 121.774011,101.683689 121.774011,99.3856707 L121.774011,90.0907012 L121.770378,89.6274521 C121.66693,83.1701553 119.333137,81.1730183 112.043318,81.1730183 L107.435852,81.1730183 C104.306901,81.1730183 101.9344,83.2995427 101.9344,86.1463415 C101.9344,88.9245427 104.272517,90.913872 107.435852,90.913872 L109.017519,90.913872 C110.255346,90.913872 110.599187,91.3940549 110.599187,92.6631098 L110.599187,96.4359756 C109.086288,97.1219512 107.229547,97.2934451 105.441576,97.2934451 C100.318348,97.2934451 96.3297957,91.8742378 96.3297957,84.6028963 C96.3297957,77.2972561 100.627805,71.7065549 106.026105,71.7065549 C108.744903,71.7065549 110.440599,72.1849441 112.747188,73.6030265 L113.006072,73.7644817 C114.554788,74.7505716 115.756142,74.854657 116.640395,74.8616188 L116.753936,74.8620406 C119.023285,74.8620406 121.567707,72.7698171 121.567707,69.7858232 C121.567707,67.4878049 119.848503,65.910061 117.888611,64.8467988 L117.425855,64.606262 C115.088433,63.4128179 111.627051,62 106.026105,62 C94.0604467,62 84.9830508,71.7751524 84.9830508,84.6028963 C84.9830508,97.4306402 93.7166059,107 105.441576,107 Z M144.141243,107 C155.631197,107 164,97.4992378 164,84.6028963 C164,71.535061 155.665496,62 144.141243,62 C132.82278,62 124.282486,71.7751524 124.282486,84.6028963 C124.282486,97.2591463 132.857077,107 144.141243,107 Z M144.141243,97 C139.42568,97 135.570621,91.480563 135.570621,84.3938785 C135.570621,77.1709115 139.42568,71.5833333 144.141243,71.5833333 C148.994486,71.5833333 152.711864,76.9664879 152.711864,84.3938785 C152.711864,91.6849866 149.028907,97 144.141243,97 Z" id="Path" fill="#239A98" fill-rule="nonzero"></path>
        </g>
    </g>
</svg>