<svg xmlns="http://www.w3.org/2000/svg" width="15" height="21" fill="none"><path fill="#111" d="M1.413 7h11.174L11.42 21H2.58zm2.174 2 .833 10h5.16l.833-10zM4 4l.866.5v1L4 6l-.866-.5v-1zm0-1 .5-.866h1L6 3l-.5.866h-1zm1 2 .5-.866h1L7 5l-.5.866h-1zm2-3 .866.5v1L7 4l-.866-.5v-1zM6 0l.866.5v1L6 2l-.866-.5v-1zm2 4 .866.5v1L8 6l-.866-.5v-1zm5 15 .866.5v1L13 21l-.866-.5v-1zM0 20l.5-.866h1L2 20l-.5.866h-1zM8 3l.5-.866h1L10 3l-.5.866h-1zm6 14 .866.5v1L14 19l-.866-.5v-1zM10 4l.866.5v1L10 6l-.866-.5v-1z"/></svg>