<svg xmlns="http://www.w3.org/2000/svg" width="24" height="24" fill="none"><path fill="#111" d="M6.413 8h11.174L16.42 22H7.58zm2.174 2 .833 10h5.16l.833-10zM9 5l.866.5v1L9 7l-.866-.5v-1zm0-1 .5-.866h1L11 4l-.5.866h-1zm1 2 .5-.866h1L12 6l-.5.866h-1zm2-3 .866.5v1L12 5l-.866-.5v-1zm-1-2 .866.5v1L11 3l-.866-.5v-1zm2 4 .866.5v1L13 7l-.866-.5v-1zm5 15 .866.5v1L18 22l-.866-.5v-1zM5 21l.5-.866h1L7 21l-.5.866h-1zm8-17 .5-.866h1L15 4l-.5.866h-1zm6 14 .866.5v1L19 20l-.866-.5v-1zM15 5l.866.5v1L15 7l-.866-.5v-1z"/></svg>