<?xml version="1.0" encoding="UTF-8"?>
<svg width="303px" height="309px" viewBox="0 0 303 309" version="1.1" xmlns="http://www.w3.org/2000/svg" xmlns:xlink="http://www.w3.org/1999/xlink">
  <title>Illustrations/TerminateContract</title>
  <g id="Illustrations/TerminateContract" stroke="none" stroke-width="1" fill="none" fill-rule="evenodd">
    <g id="Group-7">
      <g id="Group" transform="translate(215.189294, 161.478977) rotate(11.000000) translate(-215.189294, -161.478977) translate(158.139084, 29.140862)">
        <path d="M18.9481519,0.447487107 L103.584354,0.447487107 C108.765144,0.447487107 112.965004,4.73594531 112.965004,10.0260266 L112.965004,254.278784 C112.965004,259.568865 108.765144,263.857323 103.584354,263.857323 L0.132368119,263.857323 L0.132368119,251.403277 L31.1617884,223.469963 L10.9504314,214.456602 L38.0492891,176.286913 L10.9504314,149.723599 L41.856608,124.867604 L0.132368119,59.450543 L18.9481519,0.447487107 Z" id="Path" stroke="#575756" stroke-width="1.8"></path>
        <path d="M11.1906391,39.354653 C17.5090026,39.354653 29.3923461,39.354653 46.8406695,39.354653 C47.4540181,39.354653 47.9563295,39.6397416 47.9563295,39.9878497 C47.9563295,40.3359579 47.4540181,40.6210465 46.8406695,40.6210465 C31.002044,40.6210465 19.1230748,40.6210465 11.203762,40.6210465" id="Path" fill="#8C8D8E"></path>
        <path d="M11.3975751,47.0550496 C17.7159387,47.0550496 29.5992822,47.0550496 47.0476056,47.0550496 C47.6609542,47.0550496 48.1632655,47.3401382 48.1632655,47.6882464 C48.1632655,48.0363545 47.6609542,48.3214431 47.0476056,48.3214431 C31.20898,48.3214431 19.3300108,48.3214431 11.410698,48.3214431" id="Path" fill="#8C8D8E"></path>
        <path d="M7.59419872,53.8747789 C13.9511888,53.8747789 29.4857645,53.8747789 47.040756,53.8747789 C47.6578542,53.8747789 48.1632364,54.1598675 48.1632364,54.5079757 C48.1632364,54.8560838 47.6578542,55.1411724 47.040756,55.1411724 C31.105303,55.1411724 15.5751284,55.1411724 7.60740186,55.1411724" id="Path" fill="#8C8D8E"></path>
        <path d="M7.80113478,61.5751756 C14.1581248,61.5751756 29.6927005,61.5751756 47.2476921,61.5751756 C47.8647903,61.5751756 48.3701724,61.8602641 48.3701724,62.2083723 C48.3701724,62.5564804 47.8647903,62.841569 47.2476921,62.841569 C31.3122391,62.841569 15.7820644,62.841569 7.81433791,62.841569" id="Path" fill="#8C8D8E"></path>
        <path d="M11.776479,68.9131133 C18.0948426,68.9131133 29.978186,68.9131133 47.4265095,68.9131133 C48.039858,68.9131133 48.5421694,69.1982019 48.5421694,69.54631 C48.5421694,69.8944182 48.039858,70.1795067 47.4265095,70.1795067 C31.5878839,70.1795067 19.7089147,70.1795067 11.7896019,70.1795067" id="Path" fill="#8C8D8E"></path>
        <path d="M44.1625199,128.602072 C52.4499946,128.602072 68.2812811,128.602072 91.6563797,128.602072 C92.031248,128.602072 92.3382522,128.887161 92.3382522,129.235269 C92.3382522,129.583377 92.031248,129.868466 91.6563797,129.868466 C68.2891706,129.868466 52.4630885,129.868466 44.1781335,129.868466" id="Path" fill="#8C8D8E"></path>
        <path d="M47.95425,121.661523 C55.7852651,121.661523 70.773516,121.661523 92.9190026,121.661523 C93.2903206,121.661523 93.5944174,121.946612 93.5944174,122.29472 C93.5944174,122.642828 93.2903206,122.927917 92.9190026,122.927917 C70.7955144,122.927917 55.8208351,122.927917 47.9949646,122.927917" id="Path" fill="#8C8D8E"></path>
        <path d="M41.4996474,114.565225 C50.1539288,114.565225 67.2400761,114.565225 92.7580893,114.565225 C93.1361195,114.565225 93.4457131,114.850313 93.4457131,115.198422 C93.4457131,115.54653 93.1361195,115.831618 92.7580893,115.831618 C69.9618868,115.831618 52.8647349,115.831618 41.4666336,115.831618" id="Path" fill="#8C8D8E"></path>
        <path d="M57.4703458,151.75524 L28.073412,151.75524 C27.7903268,151.75524 27.5584898,151.394318 27.5584898,150.953613 C27.5584898,150.512908 27.7903268,150.151986 28.073412,150.151986 L57.4703458,150.151986 C57.753431,150.151986 57.985268,150.512908 57.985268,150.953613 C57.985268,151.394318 57.753431,151.75524 57.4703458,151.75524" id="Fill-41" fill="#8C8D8E"></path>
        <path d="M92.9946543,144.401272 L28.4323686,144.401272 C28.0578698,144.401272 27.7511683,144.04035 27.7511683,143.599645 C27.7511683,143.15894 28.0578698,142.798018 28.4323686,142.798018 L92.9946543,142.798018 C93.369153,142.798018 93.6758545,143.15894 93.6758545,143.599645 C93.6758545,144.04035 93.369153,144.401272 92.9946543,144.401272" id="Fill-43" fill="#8C8D8E"></path>
        <path d="M35.3229529,135.784261 C48.1299014,135.784261 67.3403242,135.784261 92.9542213,135.784261 C93.3317564,135.784261 93.6409445,136.069349 93.6409445,136.417457 C93.6409445,136.765565 93.3317564,137.050654 92.9542213,137.050654 C67.3928863,137.050654 48.221885,137.050654 35.4412175,137.050654" id="Path" fill="#8C8D8E"></path>
        <path d="M31.7352856,196.869225 C42.052128,196.869225 62.1082384,196.869225 91.9036192,196.869225 C92.2804918,196.869225 92.588842,197.150998 92.588842,197.502422 C92.588842,197.85068 92.2804918,198.135619 91.9036192,198.135619 C62.1070211,198.135619 42.0509099,198.135619 31.7352856,198.135619" id="Path" fill="#8C8D8E"></path>
        <path d="M36.8148921,189.928676 C46.2552679,189.928676 64.6175343,189.928676 91.9016911,189.928676 C92.2732346,189.928676 92.5772248,190.210449 92.5772248,190.561873 C92.5772248,190.910131 92.2732346,191.19507 91.9016911,191.19507 C64.6164399,191.19507 46.2474755,191.19507 36.794798,191.19507" id="Path" fill="#8C8D8E"></path>
        <path d="M39.1001341,181.98664 C48.1140586,181.98664 65.6365667,181.98664 91.6676585,181.98664 C92.0412942,181.98664 92.346996,182.268413 92.346996,182.619837 C92.346996,182.968095 92.0412942,183.253034 91.6676585,183.253034 C65.6365667,183.253034 48.1140586,183.253034 39.1001341,183.253034" id="Path" fill="#8C8D8E"></path>
        <path d="M20.3601245,210.871143 C36.2657827,210.871143 60.12427,210.871143 91.9355863,210.871143 C92.3140614,210.871143 92.6237229,211.152915 92.6237229,211.504339 C92.6237229,211.852597 92.3140614,212.137536 91.9355863,212.137536 C60.12427,212.137536 36.2657827,212.137536 20.3601245,212.137536" id="Path" fill="#8C8D8E"></path>
        <path d="M25.419637,203.930594 C36.6258813,203.930594 58.798504,203.930594 91.9375292,203.930594 C92.3085462,203.930594 92.6121056,204.212366 92.6121056,204.56379 C92.6121056,204.912049 92.3085462,205.196987 91.9375292,205.196987 C62.3740216,205.196987 40.2013908,205.196987 25.419637,205.196987" id="Path" fill="#8C8D8E"></path>
      </g>
      <g id="Group-2" transform="translate(82.602414, 131.704918) rotate(-13.000000) translate(-82.602414, -131.704918) translate(26.186096, 10.131148)">
        <path d="M22.9807235,0.296519888 L103.040613,0.296519888 C107.941276,0.296519888 111.914048,4.23447911 111.914048,9.09219798 L111.914048,233.381989 C111.914048,238.239708 107.941276,242.177667 103.040613,242.177667 L39.5668769,242.177667 L39.817389,230.7415 L10.4657413,205.091197 L29.5842626,196.814505 L3.95065042,161.764455 L29.5842626,137.372181 L0.349194749,114.547685 L39.5668769,53.8432506 L22.9807235,0.296519888 Z" id="Path" stroke="#575756" stroke-width="1.8" transform="translate(56.131622, 121.237094) scale(-1, 1) translate(-56.131622, -121.237094) "></path>
        <path d="M77.4224788,119.160408 L17.8319038,119.160408 C17.4847335,119.160408 17.2004131,118.919793 17.2004131,118.62599 C17.2004131,118.332187 17.4847335,118.091572 17.8319038,118.091572 L77.4224788,118.091572 C77.7696491,118.091572 78.0539695,118.332187 78.0539695,118.62599 C78.0539695,118.919793 77.7696491,119.160408 77.4224788,119.160408" id="Fill-23" fill="#8C8D8E"></path>
        <path d="M77.6158251,112.705852 L18.019869,112.705852 C17.6741779,112.705852 17.3910688,112.465237 17.3910688,112.171434 C17.3910688,111.877631 17.6741779,111.637016 18.019869,111.637016 L77.6158251,111.637016 C77.9615162,111.637016 78.2446253,111.877631 78.2446253,112.171434 C78.2446253,112.465237 77.9615162,112.705852 77.6158251,112.705852" id="Fill-25" fill="#8C8D8E"></path>
        <path d="M77.8043488,106.251296 L18.2126567,106.251296 C17.8657935,106.251296 17.5817245,106.010682 17.5817245,105.716878 C17.5817245,105.423075 17.8657935,105.18246 18.2126567,105.18246 L77.8043488,105.18246 C78.151212,105.18246 78.435281,105.423075 78.435281,105.716878 C78.435281,106.010682 78.151212,106.251296 77.8043488,106.251296" id="Fill-27" fill="#8C8D8E"></path>
        <path d="M71.0731226,37.2952942 C62.2186176,37.2952942 44.8073427,37.2952942 18.8392979,37.2952942 C18.2834091,37.2952942 17.8281553,37.0102056 17.8281553,36.6620975 C17.8281553,36.3139893 18.2834091,36.0289007 18.8392979,36.0289007 C42.0551731,36.0289007 59.4670796,36.0289007 71.0750172,36.0289007" id="Path" fill="#8C8D8E"></path>
        <path d="M70.5972779,44.9837859 C61.7427729,44.9837859 44.331498,44.9837859 18.3634532,44.9837859 C17.8075643,44.9837859 17.3523106,44.6986973 17.3523106,44.3505892 C17.3523106,44.002481 17.8075643,43.7173925 18.3634532,43.7173925 C41.5793284,43.7173925 58.9912349,43.7173925 70.5991725,43.7173925" id="Path" fill="#8C8D8E"></path>
        <path d="M66.6519883,51.0110269 C57.6741656,51.0110269 44.5653241,51.0110269 18.2356195,51.0110269 C17.6719888,51.0110269 17.2103946,50.7259384 17.2103946,50.3778302 C17.2103946,50.0297221 17.6719888,49.7446335 18.2356195,49.7446335 C41.7748248,49.7446335 54.8843066,49.7446335 66.6539093,49.7446335" id="Path" fill="#8C8D8E"></path>
        <path d="M66.4632535,57.4655828 C56.6348404,57.4655828 40.4952359,57.4655828 18.0444367,57.4655828 C17.4810957,57.4655828 17.0197389,57.1804942 17.0197389,56.8323861 C17.0197389,56.4842779 17.4810957,56.1991893 18.0444367,56.1991893 C38.7315109,56.1991893 54.8711166,56.1991893 66.4632535,56.1991893" id="Path" fill="#8C8D8E"></path>
        <path d="M71.2606,64.63233 C62.406095,64.63233 44.9948201,64.63233 19.0267753,64.63233 C18.4708864,64.63233 18.0156326,64.3472414 18.0156326,63.9991332 C18.0156326,63.6510251 18.4708864,63.3659365 19.0267753,63.3659365 C42.2426505,63.3659365 59.6545569,63.3659365 71.2624946,63.3659365" id="Path" fill="#8C8D8E"></path>
        <path d="M53.7455351,138.570497 L18.2242401,138.570497 C17.8821788,138.570497 17.6020424,138.329882 17.6020424,138.036079 C17.6020424,137.742275 17.8821788,137.501661 18.2242401,137.501661 L53.7455351,137.501661 C54.0875964,137.501661 54.3677328,137.742275 54.3677328,138.036079 C54.3677328,138.329882 54.0875964,138.570497 53.7455351,138.570497" id="Fill-29" fill="#8C8D8E"></path>
        <path d="M72.7734809,70.6560157 L18.8791023,70.6560157 C18.3601128,70.6560157 17.9350782,70.415401 17.9350782,70.1215977 C17.9350782,69.8277944 18.3601128,69.5871797 18.8791023,69.5871797 L72.7734809,69.5871797 C73.2924705,69.5871797 73.717505,69.8277944 73.717505,70.1215977 C73.717505,70.415401 73.2924705,70.6560157 72.7734809,70.6560157" id="Fill-29-Copy" fill="#8C8D8E"></path>
        <path d="M78.2791471,132.354396 L18.6831911,132.354396 C18.3375,132.354396 18.0543909,132.113781 18.0543909,131.819978 C18.0543909,131.526175 18.3375,131.28556 18.6831911,131.28556 L78.2791471,131.28556 C78.6248382,131.28556 78.9079473,131.526175 78.9079473,131.819978 C78.9079473,132.113781 78.6248382,132.354396 78.2791471,132.354396" id="Fill-31" fill="#8C8D8E"></path>
        <path d="M77.2323817,125.614964 L17.6406895,125.614964 C17.2938263,125.614964 17.0097573,125.374349 17.0097573,125.080546 C17.0097573,124.786743 17.2938263,124.546128 17.6406895,124.546128 L77.2323817,124.546128 C77.5792448,124.546128 77.8633138,124.786743 77.8633138,125.080546 C77.8633138,125.374349 77.5792448,125.614964 77.2323817,125.614964" id="Fill-33" fill="#8C8D8E"></path>
        <path d="M101.032086,118.789419 C100.336318,118.789419 99.2926663,118.789419 97.9011308,118.789419 C97.5314743,118.789419 97.2287383,118.504331 97.2287383,118.156223 C97.2287383,117.808114 97.5314743,117.523026 97.9011308,117.523026 C99.2854177,117.523026 100.323633,117.523026 101.015776,117.523026" id="Path" fill="#8C8D8E"></path>
        <path d="M103.725813,112.61974 C102.452267,112.61974 100.541947,112.61974 97.9948547,112.61974 C97.6606242,112.61974 97.3869008,112.334651 97.3869008,111.986543 C97.3869008,111.638435 97.6606242,111.353347 97.9948547,111.353347 C100.534457,111.353347 102.439159,111.353347 103.70896,111.353347" id="Path" fill="#8C8D8E"></path>
        <path d="M100.178108,105.595431 C99.5109205,105.595431 98.4552517,105.595431 97.0111014,105.595431 C96.6612647,105.595431 96.3747605,105.310343 96.3747605,104.962234 C96.3747605,104.614126 96.6612647,104.329038 97.0111014,104.329038 C98.414664,104.329038 99.467336,104.329038 100.169117,104.329038" id="Path" fill="#8C8D8E"></path>
        <path d="M86.8564249,182.00185 C71.5004885,182.00185 48.466584,182.00185 17.7547113,182.00185 C17.4102354,182.00185 17.1283914,181.716911 17.1283914,181.368653 C17.1283914,181.017229 17.4102354,180.735456 17.7547113,180.735456 C48.4590146,180.735456 71.487242,180.735456 86.8393937,180.735456" id="Path" fill="#8C8D8E"></path>
        <path d="M93.4408076,175.02555 C76.7096057,175.02555 51.6128029,175.02555 18.1503992,175.02555 C17.8053314,175.02555 17.5230032,174.740611 17.5230032,174.392353 C17.5230032,174.040929 17.8053314,173.759156 18.1503992,173.759156 C51.6790879,173.759156 76.8256044,173.759156 93.5899488,173.759156" id="Path" fill="#8C8D8E"></path>
        <path d="M96.2836762,168.85587 C78.9537342,168.85587 52.9588212,168.85587 18.2989372,168.85587 C17.9577798,168.85587 17.6811657,168.570932 17.6811657,168.222674 C17.6811657,167.871249 17.9577798,167.589477 18.2989372,167.589477 C52.9588212,167.589477 78.9537342,167.589477 96.2836762,167.589477" id="Path" fill="#8C8D8E"></path>
        <path d="M80.9768788,202.172138 C67.0231657,202.172138 46.0925961,202.172138 18.1851699,202.172138 C17.8565931,202.172138 17.5877575,201.8872 17.5877575,201.538942 C17.5877575,201.187518 17.8565931,200.905745 18.1851699,200.905745 C46.0925961,200.905745 67.0231657,200.905745 80.9768788,200.905745" id="Path" fill="#8C8D8E"></path>
        <path d="M78.6644629,195.432706 C68.5945089,195.432706 48.5210485,195.432706 18.4440816,195.432706 C18.0958352,195.432706 17.8109064,195.147768 17.8109064,194.799509 C17.8109064,194.448085 18.0958352,194.166313 18.4440816,194.166313 C48.4501661,194.166313 68.4836015,194.166313 78.5443877,194.166313" id="Path" fill="#8C8D8E"></path>
        <path d="M81.6558225,187.886653 C70.8176496,187.886653 49.4751241,187.886653 17.6282462,187.886653 C17.2828075,187.886653 17.0027221,187.601714 17.0027221,187.253456 C17.0027221,186.902032 17.2828075,186.620259 17.6282462,186.620259 C50.6556301,186.620259 71.9994233,186.620259 81.6596258,186.620259" id="Path" fill="#8C8D8E"></path>
      </g>
      <path d="M157.974307,85.7998542 C157.974307,87.4193345 156.655341,88.7279018 155.034113,88.7279018 C153.406015,88.7279018 152.08705,87.4193345 152.08705,85.7998542 C152.08705,84.1837906 153.406015,82.8752232 155.034113,82.8752232 C156.655341,82.8752232 157.974307,84.1837906 157.974307,85.7998542" id="Fill-67-Copy" fill="#55A2A3"></path>
      <g id="Group-73-Copy" transform="translate(138.297343, 14.259941)" fill="#EFEEEE">
        <path d="M18.418183,10.1826234 C18.418183,15.2153121 14.3170248,19.2947623 9.25755577,19.2947623 C4.19808671,19.2947623 0.1003633,15.2153121 0.1003633,10.1826234 C0.1003633,5.14993473 4.19808671,1.07048445 9.25755577,1.07048445 C14.3170248,1.07048445 18.418183,5.14993473 18.418183,10.1826234" id="Fill-71"></path>
      </g>
      <path d="M24.5011042,233.991058 C24.5011042,236.53986 22.4230467,238.610335 19.8572467,238.610335 C17.2914467,238.610335 15.2133891,236.53986 15.2133891,233.991058 C15.2133891,231.438839 17.2914467,229.368364 19.8572467,229.368364 C22.4230467,229.368364 24.5011042,231.438839 24.5011042,233.991058" id="Fill-63-Copy" fill-opacity="0.6" fill="#8C8D8E"></path>
      <path d="M73.4222203,293.347316 C73.4222203,301.369551 66.8823499,307.874805 58.8208605,307.874805 C50.7525015,307.874805 44.2160659,301.369551 44.2160659,293.347316 C44.2160659,285.32508 50.7525015,278.823243 58.8208605,278.823243 C66.8823499,278.823243 73.4222203,285.32508 73.4222203,293.347316" id="Fill-74-Copy" fill-opacity="0.1" fill="#8C8D8E"></path>
      <path d="M116.181003,47.606517 C116.181003,50.3124841 113.975857,52.5059573 111.255491,52.5059573 C108.535125,52.5059573 106.333414,50.3124841 106.333414,47.606517 C106.333414,44.90055 108.535125,42.7070767 111.255491,42.7070767 C113.975857,42.7070767 116.181003,44.90055 116.181003,47.606517" id="Fill-76" fill-opacity="0.6" fill="#8C8D8E"></path>
      <path d="M280.949202,275.758871 C280.949202,277.378351 279.630237,278.686918 278.009008,278.686918 C276.38091,278.686918 275.061945,277.378351 275.061945,275.758871 C275.061945,274.142807 276.38091,272.83424 278.009008,272.83424 C279.630237,272.83424 280.949202,274.142807 280.949202,275.758871" id="Fill-67-Copy" fill="#55A2A3"></path>
      <g id="Group-73-Copy" transform="translate(282.824539, 214.350105)" fill="#EFEEEE">
        <path d="M18.418183,10.1826234 C18.418183,15.2153121 14.3170248,19.2947623 9.25755577,19.2947623 C4.19808671,19.2947623 0.1003633,15.2153121 0.1003633,10.1826234 C0.1003633,5.14993473 4.19808671,1.07048445 9.25755577,1.07048445 C14.3170248,1.07048445 18.418183,5.14993473 18.418183,10.1826234" id="Fill-71"></path>
      </g>
    </g>
  </g>
</svg>
