<?xml version="1.0" encoding="UTF-8"?>
<svg width="252px" height="162px" viewBox="0 0 252 162" version="1.1" xmlns="http://www.w3.org/2000/svg" xmlns:xlink="http://www.w3.org/1999/xlink">
    <title>Illustrations/Flow/AddingMobileNumbers/Balloon package</title>
    <g id="Final-Designs---Error-handling" stroke="none" stroke-width="1" fill="none" fill-rule="evenodd">
        <g id="01-C5-Error---New-product-=-product-holding" transform="translate(-280.000000, -206.000000)">
            <g id="Illustrations/Flow/AddingMobileNumbers/Balloon-package" transform="translate(280.000000, 206.000000)">
                <g id="Background" transform="translate(0.000000, 41.054795)" fill="#F2F2F2">
                    <path d="M241.319935,24.6066846 C246.095584,23.5877119 250.789903,26.64818 251.805038,31.4425265 C252.820036,36.2368731 249.771504,40.949557 244.995855,41.9686253 C240.220205,42.9876936 235.525887,39.9272255 234.510752,35.132838 C233.495753,30.3384915 236.544286,25.6257939 241.319935,24.6066846 Z" id="Clip-2" fill-rule="nonzero" transform="translate(243.157895, 33.287671) scale(1, -1) translate(-243.157895, -33.287671) "></path>
                    <path d="M8.31742266,42.3968079 C13.988506,41.1867778 19.5630095,44.8210837 20.7684821,50.5143701 C21.9737932,56.2076566 18.3536607,61.8039688 12.6825773,63.0141124 C7.01149397,64.224256 1.43699053,60.5899502 0.231517889,54.896615 C-0.973793246,49.2033285 2.64633929,43.6070001 8.31742266,42.3968079 Z" id="Clip-2-Copy" transform="translate(10.500000, 52.705479) scale(1, -1) translate(-10.500000, -52.705479) "></path>
                    <path d="M41.3107651,98.8268218 C43.1016335,98.444707 44.862003,99.5923826 45.2426786,101.390263 C45.6233031,103.188142 44.4801034,104.955399 42.6892349,105.33755 C40.8983665,105.7197 39.137997,104.572025 38.7573214,102.774129 C38.3766969,100.976249 39.5198966,99.2089878 41.3107651,98.8268218 Z" id="Clip-2-Copy-2" fill-rule="nonzero" transform="translate(42.000000, 102.082192) scale(1, -1) translate(-42.000000, -102.082192) "></path>
                    <path d="M210.416028,0.0733971523 C212.206897,-0.308717617 213.967266,0.838957923 214.347942,2.63683787 C214.728566,4.43471781 213.585367,6.2019743 211.794498,6.58412491 C210.00363,6.96627552 208.24326,5.81859998 207.862585,4.02070468 C207.48196,2.22282473 208.62516,0.455563123 210.416028,0.0733971523 Z" id="Clip-2-Copy-2" fill-rule="nonzero" transform="translate(211.105263, 3.328767) scale(1, -1) translate(-211.105263, -3.328767) "></path>
                    <path d="M240.258133,79.9638081 C242.049002,79.5816933 243.809371,80.7293689 244.190047,82.5272488 C244.570672,84.3251288 243.427472,86.0923853 241.636603,86.4745359 C239.845735,86.8566865 238.085365,85.7090109 237.70469,83.9111156 C237.324065,82.1132357 238.467265,80.3459741 240.258133,79.9638081 Z" id="Clip-2-Copy-2" transform="translate(240.947368, 83.219178) scale(1, -1) translate(-240.947368, -83.219178) "></path>
                </g>
                <g id="Group" transform="translate(41.400814, 34.889332)">
                    <path d="M115.546555,27.2476546 L132.480765,27.2476546 C138.305094,27.2476546 143.213367,31.4567863 144.129925,37.0499725 M144.283397,49.7926171 C144.283397,52.761642 144.283397,57.9260431 144.283397,63.8640929" id="Shape" stroke="#239A98" stroke-width="2" stroke-linecap="round"></path>
                    <g id="Cross2" transform="translate(140.763618, 39.796723)" stroke="#CB375A" stroke-linecap="round" stroke-width="2">
                        <line x1="6.67158143" y1="6.70240764" x2="0.000115303597" y2="1.10377461e-13" id="Stroke-4"></line>
                        <line x1="3.14134683e-14" y1="6.70240764" x2="6.67146613" y2="1.10377461e-13" id="Stroke-6"></line>
                    </g>
                    <path d="M53.6518177,96.0421751 L36.6991482,96.0421751 C30.1868423,96.0421751 24.9149756,90.8632674 24.9149756,84.465793 M24.9149756,71.6897774 C24.9149756,68.8479883 24.9149756,65.2703045 24.9149756,59.5867263 L24.9149756,50.5490244" id="Shape" stroke="#239A98" stroke-width="2" stroke-linecap="round"></path>
                    <g id="Cross" transform="translate(21.643555, 74.503659)" stroke="#CB375A" stroke-linecap="round" stroke-width="2">
                        <line x1="5.1046886e-14" y1="9.46092519e-14" x2="6.67146613" y2="6.70124946" id="Stroke-74"></line>
                        <line x1="6.67158143" y1="9.46092519e-14" x2="0.000115303593" y2="6.70124946" id="Stroke-75"></line>
                    </g>
                    <g id="Card" transform="translate(90.549923, 60.809451)">
                        <path d="M76.7160199,50.7669709 L5.33437583,50.7669709 C3.41061521,50.7669709 1.79060627,49.1562771 1.79060627,47.2435783 L1.79060627,4.35885668 C1.68935571,2.44615783 3.30936465,0.835464057 5.33437583,0.835464057 L76.7160199,0.835464057 C78.6397805,0.835464057 80.2597895,2.44615783 80.2597895,4.35885668 L80.2597895,47.2435783 C80.2597895,49.1562771 78.6397805,50.7669709 76.7160199,50.7669709" id="Fill-7" fill="#FFFFFF"></path>
                        <path d="M76.7385344,51.8765599 L5.30736032,51.8765599 C3.39582186,51.8765599 1.78610526,50.2399717 1.78610526,48.2965232 L1.78610526,4.41550084 C1.78610526,2.36976554 3.39582186,0.835464057 5.30736032,0.835464057 L76.7385344,0.835464057 C78.6500729,0.835464057 80.2597895,2.4720523 80.2597895,4.41550084 L80.2597895,48.2965232 C80.2597895,50.3422585 78.6500729,51.8765599 76.7385344,51.8765599 Z" id="Stroke-9" stroke="#575756" stroke-width="2"></path>
                        <line x1="59.5692632" y1="40.9138202" x2="69.6492632" y2="40.9138202" id="Stroke-21" stroke="#239A98" stroke-width="2" stroke-linecap="round"></line>
                        <path d="M56.5452632,40.9138202 C56.5452632,41.5209873 56.1420632,41.9257654 55.5372632,41.9257654 C54.9324632,41.9257654 54.5292632,41.5209873 54.5292632,40.9138202 C54.5292632,40.3066531 54.9324632,39.901875 55.5372632,39.901875 C56.1420632,39.901875 56.5452632,40.4078476 56.5452632,40.9138202" id="Fill-23" fill="#239A98"></path>
                        <path d="M51.5052632,40.9138202 C51.5052632,41.5209873 51.1020632,41.9257654 50.4972632,41.9257654 C49.8924632,41.9257654 49.4892632,41.5209873 49.4892632,40.9138202 C49.4892632,40.3066531 49.8924632,39.901875 50.4972632,39.901875 C51.0012632,39.901875 51.5052632,40.4078476 51.5052632,40.9138202" id="Fill-25" fill="#239A98"></path>
                        <line x1="0.680842105" y1="19.6984778" x2="79.1545263" y2="19.6984778" id="Stroke-13" stroke="#575756" stroke-width="2"></line>
                        <line x1="0.680842105" y1="10.8217654" x2="79.1545263" y2="10.8217654" id="Stroke-13-Copy" stroke="#575756" stroke-width="2"></line>
                    </g>
                    <g id="Euro">
                        <path d="M26.1351861,0.528750477 C40.0455861,0.528750477 51.3351861,11.8625368 51.3351861,25.8273806 C51.3351861,39.7922244 40.0455861,51.1260108 26.1351861,51.1260108 C12.2247861,51.1260108 0.935186112,39.7922244 0.935186112,25.8273806 C0.935186112,11.8625368 12.2247861,0.528750477 26.1351861,0.528750477" id="Fill-27" fill="#FFFFFF"></path>
                        <path d="M26.0202387,0.617517601 C40.0526598,0.617517601 51.4412914,12.0507231 51.4412914,26.1380655 C51.4412914,40.225408 40.0526598,51.6586135 26.0202387,51.6586135 C11.9878177,51.6586135 0.599186112,40.225408 0.599186112,26.1380655 C0.599186112,12.0507231 11.9878177,0.617517601 26.0202387,0.617517601 Z" id="Stroke-29" stroke="#575756" stroke-width="2"></path>
                        <path d="M18.4620958,27.6903098 C18.3582164,27.0882987 18.2543371,26.2856173 18.2543371,25.583271 L16.6961465,25.583271 C16.3845084,25.583271 16.1767497,25.3826007 16.1767497,25.0815951 C16.1767497,24.7805896 16.3845084,24.5799192 16.6961465,24.5799192 L18.2543371,24.5799192 C18.7737339,19.8641658 22.8250293,16.1517642 27.811239,16.1517642 C29.3694295,16.1517642 30.92762,16.5531049 32.3819312,17.2554511 C32.6935693,17.3557863 32.6935693,17.757127 32.5896899,17.9577974 C32.4858105,18.2588029 32.1741724,18.3591381 31.8625343,18.1584678 C30.6159819,17.5564567 29.2655501,17.155116 27.811239,17.155116 C23.4483055,17.155116 19.8125276,20.3658417 19.2931307,24.5799192 L26.1491691,24.5799192 C26.4608072,24.5799192 26.6685659,24.7805896 26.6685659,25.0815951 C26.6685659,25.3826007 26.4608072,25.583271 26.1491691,25.583271 L19.2931307,25.583271 C19.2931307,26.2856173 19.3970101,26.9879635 19.6047689,27.6903098 L26.2530484,27.6903098 C26.5646865,27.6903098 26.7724453,27.8909801 26.7724453,28.1919857 C26.7724453,28.4929912 26.5646865,28.6936616 26.2530484,28.6936616 L19.916407,28.6936616 C21.1629594,31.8040521 24.2793404,34.0114261 27.811239,34.0114261 C29.2655501,34.0114261 30.6159819,33.7104205 31.8625343,33.0080743 C32.0702931,32.9077391 32.4858105,33.0080743 32.5896899,33.2087446 C32.6935693,33.409415 32.5896899,33.8107557 32.3819312,33.9110909 C31.0314994,34.6134372 29.4733089,35.0147779 27.811239,35.0147779 C23.6560642,35.0147779 20.0202863,32.4060632 18.7737339,28.6936616 L16.5922672,28.6936616 C16.2806291,28.6936616 16.0728703,28.4929912 16.0728703,28.1919857 C16.0728703,27.8909801 16.2806291,27.6903098 16.5922672,27.6903098 L18.4620958,27.6903098 L18.4620958,27.6903098 Z" id="Fill-31" stroke="#239A98"></path>
                    </g>
                </g>
                <g id="Mobile" transform="translate(82.894737, 0.000000)">
                    <path d="M13.731454,162 L71.3738092,162 C78.9261089,162 85.1052632,155.634114 85.1052632,147.853588 L85.1052632,14.1464125 C85.1052632,6.36588561 78.9261089,0 71.3738092,0 L13.731454,0 C6.17801,0 0,6.36588561 0,14.1464125 L0,147.853588 C0,155.634114 6.17801,162 13.731454,162" id="Fill-55" fill="#FFFFFF"></path>
                    <path d="M71.3738092,1 C74.8716641,1 78.0494207,2.47769142 80.3540961,4.85201309 C82.6694164,7.23730143 84.1052632,10.5276934 84.1052632,14.1464125 L84.1052632,14.1464125 L84.1052632,147.853588 C84.1052632,151.472307 82.6694164,154.762699 80.3540961,157.147987 C78.0494207,159.522309 74.8716641,161 71.3738092,161 L71.3738092,161 L13.731454,161 C10.2332046,161 7.05554544,159.522445 4.75102077,157.148278 C2.43567418,154.762963 1,151.472447 1,147.853588 L1,147.853588 L1,14.1464125 C1,10.5275534 2.43567418,7.2370371 4.75102077,4.85172175 C7.05554544,2.47755537 10.2332046,1 13.731454,1 L13.731454,1 Z" id="Stroke-57" stroke="#575756" stroke-width="2"></path>
                    <path d="M45.8684211,138.104674 C45.8684211,139.943362 44.3839519,141.433441 42.5521863,141.433441 C40.7213113,141.433441 39.2368421,139.943362 39.2368421,138.104674 C39.2368421,136.265986 40.7213113,134.775907 42.5521863,134.775907 C44.3839519,134.775907 45.8684211,136.265986 45.8684211,138.104674" id="Fill-59" fill="#575756"></path>
                    <g id="Alert" transform="translate(14.368421, 51.041096)">
                        <polyline id="Path" stroke="#CB375A" stroke-width="2" stroke-linecap="round" stroke-linejoin="round" points="44.34872 51.0410959 56.3684211 51.0410959 28.1836478 9.06671998e-14 1.46072628e-12 51.0410959 39.4531985 51.0410959"></polyline>
                        <polygon id="Fill-72" fill="#CB375A" points="26.5263158 42.1643836 29.8421053 42.1643836 29.8421053 38.8356164 26.5263158 38.8356164"></polygon>
                        <line x1="28.1842105" y1="17.7534247" x2="28.1842105" y2="34.3972603" id="Stroke-70" stroke="#CB375A" stroke-width="3"></line>
                    </g>
                    <line x1="16.5789474" y1="21.0038678" x2="68.5263158" y2="21.0038678" id="Stroke-61" stroke="#575756" stroke-width="2" stroke-linecap="round"></line>
                </g>
            </g>
        </g>
    </g>
</svg>