<svg width="180" height="194" viewBox="0 0 180 194" fill="none" xmlns="http://www.w3.org/2000/svg">
<path d="M160.839 23.5209C160.839 32.2942 153.727 39.4064 144.953 39.4064C136.18 39.4064 129.068 32.2942 129.068 23.5209C129.068 14.7476 136.18 7.63538 144.953 7.63538C153.727 7.63538 160.839 14.7476 160.839 23.5209Z" fill="#E5CFC7"/>
<path d="M89.4954 6.11606C85.0032 6.07879 80.7783 6.39262 76.8065 7.01555C83 0.486837 94.1199 -1.89593 103.133 7.01555C98.1284 6.11518 93.4648 5.88113 89.4954 6.11606Z" fill="white"/>
<path d="M90.1485 192.702C69.6969 192.546 57.722 177.796 56.7889 172.427H125.891C124.834 177.926 110.6 192.857 90.1485 192.702Z" fill="white"/>
<path fill-rule="evenodd" clip-rule="evenodd" d="M89.4652 4.92439C86.4047 4.90039 83.4635 5.03718 80.6375 5.32247C83.0882 3.6665 85.966 2.60681 88.9881 2.41451C92.2459 2.20721 95.7199 3.00424 99.0641 5.218C95.6012 4.83016 92.3591 4.75556 89.4652 4.92439ZM88.8368 0.0364956C93.7796 -0.278025 99.0344 1.42037 103.704 5.90888C110.53 7.17587 117.962 9.66141 125.142 13.8472C128.025 8.49393 133.682 4.85544 140.188 4.85544C142.614 4.85544 144.926 5.36224 147.019 6.27691C147.622 6.54035 147.897 7.24271 147.634 7.84567C147.37 8.44863 146.668 8.72386 146.065 8.46042C144.267 7.67472 142.28 7.23826 140.188 7.23826C132.073 7.23826 125.494 13.817 125.494 21.9324C125.494 30.0477 132.073 36.6265 140.188 36.6265C148.303 36.6265 154.882 30.0477 154.882 21.9324C154.882 18.8387 153.927 15.9716 152.296 13.605C151.923 13.0632 152.059 12.3213 152.601 11.948C153.143 11.5746 153.885 11.7111 154.258 12.2529C156.155 15.0043 157.265 18.3405 157.265 21.9324C157.265 28.4134 153.654 34.0513 148.335 36.9442C155.642 49.1423 160.516 65.5135 160.849 87.2158L160.849 87.2341L160.849 141L178.946 166.738C180.981 169.632 178.911 173.619 175.372 173.619H126.793C126.263 175.119 125.156 176.887 123.653 178.698C121.779 180.954 119.183 183.402 115.979 185.659C109.572 190.172 100.662 193.973 90.1395 193.893C79.6168 193.813 71.263 189.976 65.4209 185.462C62.502 183.207 60.2 180.776 58.5591 178.544C57.2542 176.769 56.3214 175.057 55.8625 173.619H4.62713C1.17065 173.619 -0.916761 169.795 0.952735 166.887L17.5818 141.027V98.9771C17.5818 98.3191 18.1153 97.7857 18.7733 97.7857C19.4312 97.7857 19.9647 98.3191 19.9647 98.9771V141.727L2.95695 168.176C2.10718 169.498 3.056 171.236 4.62713 171.236H175.372C176.981 171.236 177.922 169.424 176.997 168.108L158.466 141.754V87.2429C158.135 65.7492 153.283 49.7384 146.152 37.9387C144.296 38.6309 142.286 39.0093 140.188 39.0093C130.757 39.0093 123.111 31.3637 123.111 21.9324C123.111 19.8584 123.481 17.8708 124.158 16.0318C117.05 11.8508 109.671 9.40244 102.922 8.18816C98.0065 7.30379 93.4372 7.07628 89.5658 7.30542L89.5257 7.30779L89.4855 7.30746C85.0552 7.2707 80.8954 7.58025 76.9911 8.1926C54.6104 11.7028 40.4249 25.2028 31.7783 40.9873C23.1131 56.8057 20.0494 74.8666 19.9646 87.2422C19.9601 87.9002 19.4231 88.43 18.7651 88.4255C18.1071 88.4209 17.5774 87.8839 17.5819 87.2259C17.6687 74.5477 20.7939 56.0796 29.6884 39.8425C38.5511 23.6636 53.1798 9.6488 76.2267 5.90166C79.4895 2.5995 83.9718 0.346058 88.8368 0.0364956ZM60.4789 177.133C59.4958 175.795 58.8139 174.593 58.4026 173.619H124.211C123.736 174.6 122.948 175.816 121.82 177.175C120.088 179.26 117.649 181.567 114.606 183.711C108.519 187.999 100.086 191.586 90.1576 191.51C80.2287 191.435 72.3692 187.819 66.8777 183.577C64.1297 181.454 61.9848 179.181 60.4789 177.133Z" fill="#291D18"/>
<path fill-rule="evenodd" clip-rule="evenodd" d="M77.8074 13.7256C77.9532 14.3672 77.5513 15.0056 76.9096 15.1514C63.2731 18.2506 53.0328 26.6513 45.7539 35.9699C38.4688 45.2965 34.2083 55.4716 32.525 61.946C32.3594 62.5828 31.7089 62.9648 31.0721 62.7993C30.4353 62.6337 30.0532 61.9832 30.2188 61.3464C31.9773 54.5828 36.3744 44.1068 43.8761 34.5031C51.3839 24.8915 62.0596 16.0829 76.3815 12.8279C77.0232 12.682 77.6615 13.084 77.8074 13.7256Z" fill="#291D18"/>
<path fill-rule="evenodd" clip-rule="evenodd" d="M152.102 91.4315C152.76 91.4315 153.293 91.9649 153.293 92.6229V133.131C153.293 133.789 152.76 134.322 152.102 134.322C151.444 134.322 150.911 133.789 150.911 133.131V92.6229C150.911 91.9649 151.444 91.4315 152.102 91.4315Z" fill="#291D18"/>
<path d="M139.648 28.5725C136.598 28.5725 134.825 26.0372 134.825 21.6146C134.825 17.2493 136.598 14.5615 139.648 14.5615C142.717 14.5615 144.471 17.2684 144.471 21.6146C144.471 26.0181 142.717 28.5725 139.648 28.5725ZM136.445 21.5956C136.445 25.1984 137.532 27.1619 139.648 27.1619C141.764 27.1619 142.85 25.1984 142.85 21.5956C142.85 18.0499 141.764 15.9721 139.648 15.9721C137.532 15.9721 136.445 18.0499 136.445 21.5956Z" fill="#291D18"/>
<path fill-rule="evenodd" clip-rule="evenodd" d="M68.6118 176.813C69.0519 176.324 69.8053 176.285 70.2943 176.725C71.5487 177.854 73.8944 179.626 76.777 181.19C79.6662 182.757 83.0125 184.069 86.285 184.367C86.9403 184.426 87.4232 185.006 87.3636 185.661C87.3041 186.316 86.7246 186.799 86.0693 186.74C82.3521 186.402 78.6823 184.934 75.6409 183.284C72.5929 181.631 70.0936 179.75 68.7003 178.496C68.2112 178.056 68.1716 177.302 68.6118 176.813Z" fill="#291D18"/>
</svg>
