<svg xmlns="http://www.w3.org/2000/svg" width="24" height="24" fill="none"><path fill="#291D18" d="M13 4a6 6 0 0 1 5.962 5.32C20.822 10.216 22 11.918 22 14a5.5 5.5 0 0 1-5 5.478v.022H8v-.017c-3.34-.236-6-2.804-6-5.983 0-3.023 2.406-5.494 5.513-5.931A6 6 0 0 1 13 4M8.5 17.5h8A3.5 3.5 0 0 0 20 14c0-1.41-.871-2.526-2.317-3.052a1 1 0 0 1-.668-.775A1 1 0 0 1 17 9.98a4 4 0 0 0-7.34-2.181c1.062.363 1.914.858 2.55 1.497a1 1 0 0 1-1.42 1.41c-.478-.481-1.222-.874-2.245-1.16l-.163-.043-.102.003c-2.328.099-4.166 1.767-4.275 3.803L4 13.5c0 2.187 1.995 4 4.5 4"/></svg>