<svg xmlns="http://www.w3.org/2000/svg" width="24" height="24" fill="none"><path fill="#291D18" d="M21.26 12.974a3 3 0 0 1 0 3.052l-2.068 3.5A3 3 0 0 1 16.609 21H12.39a3 3 0 0 1-2.582-1.474L7.725 16H7.39a3 3 0 0 1-2.582-1.474l-2.069-3.5a3 3 0 0 1 0-3.052l2.069-3.5A3 3 0 0 1 7.39 3h4.218a3 3 0 0 1 2.583 1.474L16.275 8h.334a3 3 0 0 1 2.583 1.474zm-4.486-2.96a2 2 0 0 1-.208.495l-2.374 4.017A3 3 0 0 1 11.609 16h-1.561l1.482 2.509a1 1 0 0 0 .861.491h4.218a1 1 0 0 0 .86-.491l2.069-3.5a1 1 0 0 0 0-1.018l-2.068-3.5a1 1 0 0 0-.696-.477M14.838 9.5 12.47 5.491A1 1 0 0 0 11.609 5H7.39a1 1 0 0 0-.86.491l-2.069 3.5a1 1 0 0 0 0 1.018l2.068 3.5A1 1 0 0 0 7.39 14h4.218a1 1 0 0 0 .86-.491z"/></svg>