<svg xmlns="http://www.w3.org/2000/svg" width="24" height="24" fill="none"><path fill="#291D18" d="M4.933 5.892A10.06 10.06 0 0 1 12 3a10.06 10.06 0 0 1 7.067 2.892C20.953 7.755 22 10.386 22 13c0 3.859-1.27 6.025-2.193 7.076-.627.714-1.508.924-2.238.924a2.938 2.938 0 0 1-2.825-3.745l.88-3.08A3 3 0 0 1 18.509 12h1.427c-.222-1.757-1.022-3.448-2.275-4.685A8.06 8.06 0 0 0 12 5a8.06 8.06 0 0 0-5.661 2.315C5.086 8.552 4.286 10.243 4.063 12h1.428a3 3 0 0 1 2.885 2.176l.88 3.08A2.938 2.938 0 0 1 6.43 21c-.73 0-1.611-.21-2.238-.924C3.27 19.024 2 16.859 2 13c0-2.613 1.047-5.245 2.933-7.108M4.033 14c.19 2.72 1.126 4.145 1.663 4.757.114.13.343.243.735.243a.938.938 0 0 0 .902-1.195l-.88-3.08A1 1 0 0 0 5.49 14zm15.933 0H18.51a1 1 0 0 0-.962.725l-.88 3.08A.938.938 0 0 0 17.57 19c.392 0 .62-.113.735-.243.537-.612 1.473-2.037 1.662-4.757"/></svg>