<svg xmlns="http://www.w3.org/2000/svg" width="24" height="24" fill="none"><path fill="#291D18" d="M13.055 15.228a1 1 0 1 1-2 0 1 1 0 0 1 2 0m-1-2.25c-.618 0-1.21.252-1.596.724a.75.75 0 1 1-1.162-.949c.704-.861 1.744-1.276 2.758-1.276s2.055.415 2.758 1.276a.75.75 0 0 1-1.161.949c-.386-.472-.978-.725-1.597-.725"/><path fill="#291D18" d="M12.055 10.478c-1.173 0-2.257.34-3.053 1.245a.75.75 0 1 1-1.127-.99c1.162-1.322 2.715-1.755 4.18-1.755s3.018.433 4.18 1.754a.75.75 0 1 1-1.126.99c-.796-.905-1.88-1.245-3.054-1.245"/><path fill="#291D18" d="M8.002 4a1 1 0 0 0-1 1v14a1 1 0 0 0 1 1H16a1 1 0 0 0 1-1V7.828a1 1 0 0 0-.293-.707L13.88 4.293A1 1 0 0 0 13.173 4zm-3 1a3 3 0 0 1 3-3h5.17a3 3 0 0 1 2.122.879l2.828 2.828A3 3 0 0 1 19 7.828V19a3 3 0 0 1-3 3H8.003a3 3 0 0 1-3-3z"/></svg>