<svg xmlns="http://www.w3.org/2000/svg" width="24" height="24" fill="none"><path fill="#291D18" d="M8.751 13a.75.75 0 1 0-1.5 0v1.25h-1.25a.75.75 0 0 0 0 1.5h1.25V17a.75.75 0 1 0 1.5 0v-1.25h1.25a.75.75 0 0 0 0-1.5h-1.25zm4 3a1.25 1.25 0 1 1 1.25 1.25c-.69 0-1.25-.56-1.25-1.25M17 12.75a1.25 1.25 0 0 0 0 2.5h.002a1.25 1.25 0 0 0 0-2.5z"/><path fill="#291D18" d="M15.595 2.196a1 1 0 0 1 .21 1.399c-.457.617-.908 1.039-1.365 1.345-.451.301-.875.466-1.2.592-.34.132-.549.215-.755.352-.188.125-.406.322-.659.705a1.63 1.63 0 0 0-.181 1.525c.148.402.41.713.638.886H19a3 3 0 0 1 3 3v6a3 3 0 0 1-3 3H5.002a3 3 0 0 1-3-3v-6a3 3 0 0 1 3-3h4.844a3.62 3.62 0 0 1 .31-3.511c.383-.582.785-.98 1.22-1.27.395-.263.79-.416 1.09-.532l.05-.02c.32-.123.561-.222.812-.39.245-.163.533-.417.869-.872a1 1 0 0 1 1.398-.209M12.025 11H5.001a1 1 0 0 0-1 1v6a1 1 0 0 0 1 1H19a1 1 0 0 0 1-1v-6a1 1 0 0 0-1-1z"/></svg>