<svg xmlns="http://www.w3.org/2000/svg" width="24" height="24" fill="none"><path fill="#291D18" d="M21.51 11.75a8.75 8.75 0 0 0-17.402-1.32l-.74-1.074-.07-.087a.75.75 0 0 0-1.165.939l2 2.9a.752.752 0 0 0 1.2.072l2.354-2.663.067-.088a.75.75 0 0 0-1.19-.905l-.967 1.092A7.252 7.252 0 0 1 20.01 11.75 7.25 7.25 0 0 1 12.76 19a.75.75 0 0 0 0 1.5 8.75 8.75 0 0 0 8.75-8.75"/><path fill="#291D18" d="m16.637 11.102-6-3.5a.75.75 0 0 0-1.128.648v7a.75.75 0 0 0 1.128.648l6-3.5a.75.75 0 0 0 0-1.296m-1.865.648-3.763 2.195V9.554z"/></svg>