<svg xmlns="http://www.w3.org/2000/svg" width="24" height="24" fill="none"><path fill="#291D18" d="M19 3H5a3 3 0 0 0-3 3v8a3 3 0 0 0 3 3h14a3 3 0 0 0 3-3V6a3 3 0 0 0-3-3M5 5h14a1 1 0 0 1 1 1v8a1 1 0 0 1-1 1h-2.5c0-1.34-.729-2.506-1.838-3.227a3.5 3.5 0 1 0-5.324 0C8.228 12.494 7.5 13.659 7.5 15H5a1 1 0 0 1-1-1V6a1 1 0 0 1 1-1m4.5 10 .006-.133C9.59 13.857 10.646 13 12 13c1.412 0 2.5.933 2.5 2zm2.5-4a1.5 1.5 0 1 1 0-3 1.5 1.5 0 0 1 0 3m8.024 8a1 1 0 0 0-1-1H5l-.117.007A1 1 0 0 0 5 20h14.024l.117-.007a1 1 0 0 0 .883-.993"/></svg>