<svg width="871" height="99" viewBox="0 0 871 99" fill="none" xmlns="http://www.w3.org/2000/svg">
<path fill-rule="evenodd" clip-rule="evenodd" d="M66.1014 60.6116C66.1014 60.6116 66.9307 59.8268 66.9307 59.0826V56.6045C66.9307 55.3637 65.9887 56.0316 65.9887 56.0316C63.4687 57.6156 56.1092 61.6515 46.5633 61.6515C37.0169 61.6515 29.6588 57.6156 27.1378 56.0316C27.1378 56.0316 26.1954 55.3637 26.1954 56.6045V59.0826C26.1954 59.8268 27.0252 60.6116 27.0252 60.6116C29.5125 62.5537 37.3003 67.9942 46.5633 67.9988C55.8253 67.9942 63.6095 62.5537 66.1014 60.6116ZM34.5836 31.5562C34.5836 31.5562 27.3263 31.5649 27.3263 37.6503C27.3263 43.7399 34.5836 43.7485 34.5836 43.7485C34.5836 43.7485 41.8408 43.7399 41.8408 37.6503C41.8408 31.5649 34.5836 31.5562 34.5836 31.5562ZM65.4292 35.6678C65.4292 35.2243 64.8662 35.0855 64.8662 35.0855C62.5169 34.4687 60.1885 34.1238 57.886 34.0743C55.7168 34.0361 53.5553 34.2509 51.397 34.7217C51.397 34.7217 50.8594 34.8882 50.8594 35.3623V40.145C50.8594 41.0327 51.4837 40.7906 51.4837 40.7906C53.5135 40.5015 55.4988 40.3757 57.8692 40.4195C60.1635 40.4686 62.5837 40.69 64.7279 41.0844C64.7279 41.0844 65.4292 41.2518 65.4292 40.5029V35.6678ZM68.3428 81.8073C68.3428 81.8073 59.5179 83.1753 46.5299 83.1753C33.5405 83.1753 24.7165 81.8073 24.7165 81.8073C19.1577 81.1353 14.8727 76.7597 14.1975 71.2008C14.1975 71.2008 12.8547 61.2866 12.8547 49.4992C12.8547 37.7116 14.1975 27.7976 14.1975 27.7976C14.8727 22.2397 19.1577 17.8645 24.7165 17.1938C24.7165 17.1938 33.5405 15.8242 46.5299 15.8242C59.5179 15.8242 68.3428 17.1938 68.3428 17.1938C73.9021 17.8645 78.1876 22.2397 78.8618 27.7976C78.8618 27.7976 80.2067 37.7116 80.2067 49.4992C80.2067 61.2866 78.8618 71.2008 78.8618 71.2008C78.1876 76.7597 73.9021 81.1353 68.3428 81.8073ZM76.6681 4.86124C76.6681 4.86124 64.4763 2.97 46.5299 2.97C28.5828 2.97 16.3901 4.86124 16.3901 4.86124C8.70885 5.78756 2.78804 11.8349 1.85604 19.5138C1.85604 19.5138 0 33.2133 0 49.4992C0 65.7862 1.85604 79.4852 1.85604 79.4852C2.78804 87.1647 8.70885 93.2108 16.3901 94.1385C16.3901 94.1385 28.5828 96.03 46.5299 96.03C64.4763 96.03 76.6681 94.1385 76.6681 94.1385C84.3509 93.2108 90.2713 87.1647 91.2037 79.4852C91.2037 79.4852 93.06 65.7862 93.06 49.4992C93.06 33.2133 91.2037 19.5138 91.2037 19.5138C90.2713 11.8349 84.3509 5.78756 76.6681 4.86124Z" fill="white"/>
<path fill-rule="evenodd" clip-rule="evenodd" d="M122.76 5.28185H177.638C193.253 5.28185 205.91 17.972 205.91 33.6255C205.91 49.2807 193.253 61.9708 177.638 61.9708H175.976V66.9726C175.976 81.7064 164.063 93.6493 149.368 93.6493C134.674 93.6493 122.76 81.7064 122.76 66.9726V5.28185ZM160.665 46.6199H177.639C184.786 46.6199 190.6 40.7913 190.6 33.6256C190.6 26.4617 184.786 20.6322 177.639 20.6322H138.072V66.9727C138.072 73.2188 143.139 78.2992 149.368 78.2992C155.598 78.2992 160.665 73.2188 160.665 66.9727V46.6199Z" fill="white"/>
<path fill-rule="evenodd" clip-rule="evenodd" d="M397.17 5.29331C393.195 5.29331 391.498 7.57587 390.257 10.0433L390.246 10.0645L370.274 45.7107L349.042 9.45957C346.851 5.72577 344.353 5.29331 342.664 5.29331C338.234 5.29331 334.667 9.35521 334.667 12.7185C334.667 14.3121 335.158 15.9756 336.049 17.4003L362.454 62.0352V85.8194C362.454 90.6922 365.428 93.7186 370.215 93.7186C375.001 93.7186 377.974 90.6922 377.974 85.8194V62.0149L378.048 61.8893L403.079 18.4651C404.102 16.7052 405.049 14.7923 405.049 12.7185C405.049 8.9714 401.146 5.29331 397.17 5.29331ZM307.678 5.29321C311.511 5.29321 314.154 7.02834 315.749 10.5808L345.129 82.6073C345.472 83.4651 345.838 84.8208 345.838 86.0572C345.838 90.2818 342.144 93.7185 337.605 93.7185C335.422 93.7185 332.454 92.8765 330.704 88.8695L325.666 75.8887H289.25L284.224 88.6422C282.842 92.1054 280.635 93.7185 277.278 93.7185C272.861 93.7185 269.401 90.5621 269.401 86.5339C269.401 84.9765 269.799 83.8312 270.063 83.076L299.681 10.6879C301.087 7.15923 303.852 5.29321 307.678 5.29321ZM307.595 29.3286L294.801 61.7973H320.197L307.595 29.3286ZM253.005 79.0664H229.636V12.898C229.636 8.057 226.824 5.28185 221.921 5.28185C217.018 5.28185 214.206 8.057 214.206 12.898V93.5851H253.005C257.757 93.5851 260.483 90.9399 260.483 86.3271C260.483 81.7133 257.757 79.0664 253.005 79.0664Z" fill="white"/>
<path fill-rule="evenodd" clip-rule="evenodd" d="M866.857 16.4007C864.314 12.6211 860.734 9.67365 856.214 7.6406C851.725 5.6217 846.524 4.59766 840.755 4.59766C834.83 4.59766 829.321 5.66061 824.385 7.75821C819.427 9.86289 815.313 12.92 812.157 16.8437C808.991 20.7807 807.043 25.434 806.369 30.6753C806.201 32.1866 806.116 33.2991 806.116 33.9951C806.116 38.6935 807.397 42.7286 809.922 45.99C812.408 49.2018 815.422 51.7726 818.88 53.6314C822.281 55.4611 826.35 57.2288 830.979 58.8843L833.83 59.8782C838.286 61.5054 841.399 62.8779 843.068 63.9541C844.583 64.9304 845.319 66.2427 845.319 67.968C845.319 69.9206 844.485 71.6671 842.769 73.3102C841.07 74.94 838.395 75.7668 834.82 75.7668C830.566 75.7668 827.254 74.8038 824.975 72.9043C823.17 71.4009 822.215 69.7552 822.057 67.8716C821.96 66.6822 821.022 65.7952 819.874 65.7952C819.784 65.7952 819.693 65.8014 819.601 65.8129L819.525 65.8226L802.669 67.9609C801.574 68.0989 800.744 68.9991 800.693 70.0992C800.682 70.3733 800.675 70.6148 800.675 70.819C800.675 78.2226 803.456 84.159 808.94 88.4621C814.368 92.7245 821.869 94.8849 831.232 94.8849C840.917 94.8849 849.078 92.4778 855.487 87.7316C861.938 82.9572 865.721 76.3805 866.732 68.1846C866.904 66.6389 866.986 65.5564 866.986 64.8685C866.986 60.0825 865.7 56.1031 863.164 53.0407C860.67 50.0349 857.964 47.8196 855.117 46.4551C852.338 45.1269 848.384 43.5325 843.361 41.7152C838.949 40.0774 835.635 38.7695 833.517 37.8286C831.468 36.9222 829.923 35.953 828.922 34.9493C827.989 34.0145 827.535 32.9321 827.535 31.6384C827.535 29.1375 828.41 27.2451 830.209 25.8523C832.044 24.4347 834.594 23.7158 837.787 23.7158C841.68 23.7158 844.681 24.7663 846.71 26.8374C848.359 28.5229 849.215 30.3473 849.328 32.4157C849.393 33.6051 850.381 34.5363 851.578 34.5363C851.672 34.5363 851.769 34.5301 851.864 34.5177L868.701 32.383C869.795 32.2441 870.625 31.3448 870.676 30.2456C870.69 29.9741 870.696 29.7344 870.696 29.5319C870.696 24.6071 869.404 20.1891 866.857 16.4007Z" fill="#FFFF00"/>
<path fill-rule="evenodd" clip-rule="evenodd" d="M803.186 24.2109C803.664 23.79 803.922 23.2488 803.937 22.6404L805.783 7.95183C805.901 7.32308 805.756 6.74827 805.365 6.28931C804.973 5.83124 804.433 5.58982 803.802 5.58982H741.348C740.74 5.58982 740.191 5.8162 739.764 6.2451C739.367 6.64304 739.11 7.12853 739.001 7.68742L738.995 7.7166L738.991 7.74579L737.263 22.4715C737.146 23.1011 737.291 23.6759 737.684 24.1349C738.072 24.5903 738.612 24.8317 739.245 24.8317H759.246L751.114 91.5315C750.997 92.162 751.143 92.736 751.536 93.1958C751.923 93.6504 752.464 93.8926 753.096 93.8926H770.163C770.773 93.8926 771.32 93.6663 771.748 93.2374C772.142 92.8421 772.398 92.3592 772.51 91.7986L772.517 91.7703L780.677 24.8317H801.576C802.175 24.8317 802.716 24.623 803.186 24.2109Z" fill="#FFFF00"/>
<path fill-rule="evenodd" clip-rule="evenodd" d="M672.949 5.58983H708.565C715.991 5.58983 721.952 7.74846 726.284 12.0056C730.618 16.268 732.816 22.0806 732.816 29.2834C732.816 30.1332 732.734 31.4535 732.562 33.3521C731.806 38.9985 729.8 43.9596 726.599 48.0973C723.407 52.2226 719.242 55.2567 714.243 57.1094L725.838 91.1186C725.956 91.3803 726.015 91.6836 726.015 92.0214C726.015 92.4601 725.854 93.8927 723.776 93.8927H705.845C704.696 93.8927 703.872 93.3134 703.515 92.2416L693.522 59.3388C693.506 59.3131 693.491 59.3016 693.478 59.3007H685.687L681.736 91.7402L681.732 91.7703L681.726 91.7986C681.614 92.3593 681.357 92.8421 680.964 93.2374C680.537 93.6663 679.989 93.8927 679.379 93.8927H662.313C661.679 93.8927 661.139 93.6504 660.751 93.1958C660.358 92.736 660.212 92.1612 660.331 91.5306L670.587 7.78294C670.601 7.17365 670.86 6.63244 671.339 6.21151C671.807 5.79941 672.349 5.58983 672.949 5.58983ZM700.897 42.0424C703.941 42.0424 706.381 41.136 708.357 39.2719C710.319 37.421 711.273 35.0457 711.273 32.0107C711.273 29.7354 710.567 27.9932 709.112 26.6845C707.653 25.373 705.638 24.708 703.123 24.708H689.891L687.821 42.0424H700.897Z" fill="#FFFF00"/>
<path fill-rule="evenodd" clip-rule="evenodd" d="M497.177 5.58983H531.804C539.472 5.58983 545.66 7.78825 550.195 12.1223C554.74 16.467 557.045 22.4087 557.045 29.7795C557.045 30.6258 556.963 32.0257 556.792 34.0879C556.119 39.5601 554.286 44.4716 551.344 48.6871C548.396 52.908 544.533 56.203 539.863 58.4801C535.206 60.7519 529.914 61.9042 524.137 61.9042H509.577L509.576 61.9053C509.566 61.9194 509.552 61.9395 509.537 61.9705L505.964 91.7393L505.961 91.7694L505.955 91.7986C505.842 92.3584 505.586 92.8421 505.193 93.2374C504.764 93.6663 504.216 93.8927 503.608 93.8927H486.541C485.907 93.8927 485.367 93.6504 484.979 93.1949C484.586 92.7351 484.441 92.1612 484.56 91.5306L494.821 7.74138L494.824 7.71485L494.829 7.68744C494.94 7.12855 495.196 6.64305 495.592 6.24511C496.019 5.81622 496.567 5.58983 497.177 5.58983ZM523.89 44.0259C527.298 44.0259 530.117 42.971 532.27 40.8902C534.445 38.7864 535.503 36.1263 535.503 32.7553C535.503 30.311 534.714 28.4053 533.091 26.9303C531.468 25.4552 529.247 24.708 526.487 24.708H514.153C514.142 24.7213 514.128 24.7434 514.113 24.7752L511.804 44.0259H523.89Z" fill="#FFFF00"/>
<path fill-rule="evenodd" clip-rule="evenodd" d="M484.97 29.5319C484.97 24.6071 483.678 20.1891 481.131 16.4007C478.588 12.6211 475.008 9.67365 470.488 7.6406C465.999 5.6217 460.799 4.59766 455.029 4.59766C449.104 4.59766 443.597 5.66061 438.659 7.75821C433.702 9.86289 429.588 12.92 426.432 16.8437C423.264 20.7807 421.318 25.434 420.644 30.6753C420.475 32.1866 420.39 33.2991 420.39 33.9951C420.39 38.6935 421.67 42.7286 424.197 45.99C426.681 49.2018 429.695 51.7726 433.155 53.6314C436.554 55.4611 440.625 57.2288 445.253 58.8843L448.104 59.8782C452.561 61.5054 455.673 62.8779 457.343 63.9541C458.857 64.9304 459.594 66.2427 459.594 67.968C459.594 69.9206 458.759 71.6671 457.044 73.3102C455.344 74.94 452.669 75.7668 449.094 75.7668C444.84 75.7668 441.528 74.8038 439.249 72.9043C437.443 71.4009 436.489 69.7552 436.331 67.8716C436.234 66.6822 435.296 65.7952 434.149 65.7952C434.059 65.7952 433.967 65.8014 433.875 65.8129L433.799 65.8226L416.944 67.9609C415.849 68.0989 415.018 68.9991 414.968 70.0992C414.954 70.3733 414.949 70.6148 414.949 70.819C414.949 78.2226 417.729 84.159 423.215 88.4621C428.642 92.7245 436.142 94.8849 445.507 94.8849C455.192 94.8849 463.352 92.4778 469.762 87.7316C476.212 82.9572 479.996 76.3805 481.007 68.1846C481.178 66.6389 481.26 65.5564 481.26 64.8685C481.26 60.0825 479.974 56.1031 477.438 53.0407C474.946 50.0349 472.238 47.8196 469.392 46.4551C466.613 45.1269 462.658 43.5325 457.635 41.7152C453.223 40.0774 449.91 38.7695 447.791 37.8286C445.743 36.9222 444.196 35.953 443.196 34.9493C442.263 34.0145 441.809 32.9321 441.809 31.6384C441.809 29.1375 442.684 27.2451 444.483 25.8523C446.319 24.4347 448.868 23.7158 452.062 23.7158C455.954 23.7158 458.957 24.7663 460.984 26.8374C462.633 28.5229 463.49 30.3473 463.603 32.4157C463.667 33.6051 464.656 34.5363 465.852 34.5363C465.946 34.5363 466.042 34.5301 466.138 34.5177L482.975 32.383C484.069 32.2441 484.901 31.3448 484.951 30.2456C484.963 29.9741 484.97 29.7344 484.97 29.5319Z" fill="#FFFF00"/>
<path d="M600.738 37.2267H598.085C597.935 37.2267 597.855 37.3063 597.855 37.4566L596.706 46.8473C596.644 46.9976 596.706 47.0771 596.891 47.0771H599.544C600.641 47.0771 601.578 46.6439 602.338 45.7685C603.099 44.9019 603.594 43.717 603.806 42.2226C603.833 41.9751 603.85 41.6302 603.85 41.1704C603.85 39.9501 603.576 38.9863 603.028 38.2878C602.48 37.5804 601.719 37.2267 600.738 37.2267ZM579.074 36.9083C578.066 36.9083 577.217 37.2709 576.536 37.9871C575.846 38.7034 575.431 39.6407 575.28 40.8079L573.353 56.6535C573.326 56.8392 573.309 57.0956 573.309 57.4317C573.309 58.3778 573.556 59.1382 574.06 59.6953C574.564 60.2612 575.272 60.5442 576.191 60.5442C577.199 60.5442 578.057 60.1816 578.756 59.4654C579.454 58.7492 579.887 57.8119 580.038 56.6447L582.009 40.799C582.036 40.6487 582.054 40.4365 582.054 40.1535C582.054 39.1455 581.788 38.3497 581.249 37.7749C580.719 37.2002 579.993 36.9083 579.074 36.9083ZM609.554 0C582.222 0 560.054 22.1592 560.054 49.5C560.054 76.832 582.213 99 609.554 99C636.895 99 659.054 76.8416 659.054 49.5007C659.054 22.1599 636.895 0 609.554 0ZM587.094 41.0289L585.219 56.4148C584.91 59.041 583.884 61.1455 582.124 62.7371C580.365 64.3288 578.207 65.1158 575.643 65.1158C573.326 65.1158 571.487 64.4614 570.143 63.1439C568.799 61.8352 568.127 60.049 568.127 57.7854C568.127 57.5378 568.153 57.0868 568.215 56.4148L570.09 41.0289C570.391 38.4027 571.425 36.2982 573.185 34.7066C574.944 33.1149 577.102 32.3279 579.666 32.3279C581.983 32.3279 583.822 32.9734 585.166 34.2733C586.51 35.5731 587.182 37.3328 587.182 39.5611C587.182 39.8705 587.156 40.3569 587.094 41.0289ZM608.944 42.0812C608.634 44.8312 607.67 47.0418 606.034 48.7219C604.399 50.4019 602.436 51.242 600.145 51.242H596.387C596.264 51.242 596.175 51.3215 596.113 51.4719L594.557 64.205C594.53 64.3553 594.46 64.488 594.354 64.5941C594.247 64.7002 594.115 64.7532 593.964 64.7532H589.888C589.552 64.7532 589.384 64.5675 589.384 64.205L593.231 33.1945C593.231 33.0442 593.292 32.9116 593.416 32.8055C593.54 32.6994 593.673 32.6463 593.832 32.6463H602.17C604.275 32.6463 605.946 33.3537 607.184 34.7773C608.422 36.201 609.041 38.0667 609.041 40.3923C609.032 41.1173 609.006 41.6833 608.944 42.0812ZM629.555 36.7227C629.529 36.873 629.458 37.0056 629.352 37.1117C629.246 37.2178 629.113 37.2709 628.963 37.2709H619.342C619.192 37.2709 619.112 37.3505 619.112 37.5008L618.016 46.1575C618.016 46.3079 618.096 46.3875 618.246 46.3875H623.923C624.073 46.3875 624.197 46.4405 624.285 46.5466C624.374 46.6527 624.409 46.7854 624.374 46.9357L623.914 50.4638C623.914 50.6141 623.852 50.7468 623.728 50.8529C623.604 50.959 623.472 51.012 623.313 51.012H617.636C617.485 51.012 617.406 51.0916 617.406 51.242L616.309 59.9429C616.309 60.0933 616.389 60.1729 616.539 60.1729H626.116C626.266 60.1729 626.39 60.2259 626.478 60.332C626.567 60.4381 626.602 60.5708 626.567 60.7211L626.151 64.205C626.125 64.3553 626.054 64.488 625.948 64.5941C625.842 64.7002 625.709 64.7532 625.559 64.7532H611.128C610.792 64.7532 610.624 64.5675 610.624 64.205L614.426 33.2387C614.452 33.0884 614.532 32.9558 614.656 32.8497C614.78 32.7436 614.912 32.6905 615.071 32.6905H629.502C629.653 32.6905 629.776 32.7436 629.865 32.8497C629.953 32.9558 629.989 33.0884 629.953 33.2387L629.555 36.7227ZM648.425 64.5941C648.301 64.7002 648.169 64.7532 648.01 64.7532H643.385C643.076 64.7532 642.899 64.6029 642.837 64.2934L638.619 44.8754C638.592 44.787 638.53 44.7427 638.46 44.7604C638.38 44.7781 638.345 44.8312 638.345 44.9196L636.01 64.205C635.984 64.3553 635.913 64.488 635.807 64.5941C635.701 64.7002 635.568 64.7532 635.418 64.7532H631.386C631.05 64.7532 630.882 64.5675 630.882 64.205L634.684 33.2387C634.711 33.0884 634.79 32.9558 634.914 32.8497C635.038 32.7436 635.17 32.6905 635.329 32.6905H639.866C640.166 32.6905 640.352 32.8408 640.414 33.1503L644.72 52.4357C644.72 52.5241 644.755 52.5683 644.835 52.5506C644.915 52.5329 644.968 52.4799 644.994 52.3915L647.329 33.2476C647.355 33.0973 647.426 32.9646 647.532 32.8585C647.638 32.7524 647.771 32.6994 647.921 32.6994H651.953C652.104 32.6994 652.227 32.7524 652.316 32.8585C652.404 32.9646 652.44 33.0973 652.404 33.2476L648.602 64.2138C648.611 64.3553 648.549 64.488 648.425 64.5941Z" fill="#FFFF00"/>
</svg>
