<svg width="405" height="100" viewBox="0 0 405 100" fill="none" xmlns="http://www.w3.org/2000/svg">
<path fill-rule="evenodd" clip-rule="evenodd" d="M175.322 62.4665L188.28 29.6694L201.05 62.4665H175.313H175.322ZM196.537 10.7239C194.929 7.13137 192.248 5.37087 188.36 5.37087C184.491 5.37087 181.685 7.25648 180.264 10.8222L150.255 83.9768C149.987 84.7364 149.584 85.8892 149.584 87.462C149.584 91.5371 153.088 94.7274 157.565 94.7274C160.961 94.7274 163.195 93.101 164.598 89.5979L169.692 76.7113H206.591L211.685 89.8302C213.472 93.8785 216.475 94.7274 218.682 94.7274C223.284 94.7274 227.029 91.2511 227.029 86.9884C227.029 85.7373 226.653 84.37 226.314 83.5031L196.537 10.7149V10.7239ZM279.03 5.36193C275.009 5.36193 273.284 7.66756 272.024 10.1698V10.1877L251.783 46.202L230.273 9.57998C228.047 5.79982 225.518 5.36193 223.811 5.36193C219.325 5.36193 215.706 9.47275 215.706 12.8686C215.706 14.4772 216.206 16.1573 217.109 17.605L243.856 62.6988V86.7382C243.856 91.6533 246.877 94.7185 251.72 94.7185C256.573 94.7185 259.584 91.6622 259.584 86.7382V62.6899L259.656 62.5648L285.018 18.6863C286.055 16.899 287.011 14.9687 287.011 12.8776C287.011 9.08847 283.061 5.37087 279.03 5.37087V5.36193ZM132.98 79.9196H109.298V13.0563C109.298 8.16801 106.457 5.36193 101.488 5.36193C96.5192 5.36193 93.6774 8.16801 93.6774 13.0563V94.5934H132.98C137.797 94.5934 140.559 91.9124 140.559 87.2654C140.559 82.6005 137.788 79.9196 132.98 79.9196ZM55.6077 47.1403H38.4048V67.7033C38.4048 74.0125 33.2752 79.1421 26.966 79.1421C20.6479 79.1421 15.5183 74.0125 15.5183 67.7033V20.8758H55.6077C62.8463 20.8758 68.7444 26.765 68.7444 34.0125C68.7444 41.2511 62.8463 47.1403 55.6077 47.1403ZM55.6077 5.36193H0.0044686V67.7033C-0.0607414 71.2847 0.588329 74.8431 1.91377 78.1708C3.23921 81.4985 5.21445 84.5288 7.72411 87.0845C10.2338 89.6403 13.2275 91.6704 16.5306 93.0562C19.8336 94.442 23.3796 95.1557 26.9616 95.1557C30.5435 95.1557 34.0896 94.442 37.3926 93.0562C40.6956 91.6704 43.6894 89.6403 46.199 87.0845C48.7087 84.5288 50.6839 81.4985 52.0094 78.1708C53.3348 74.8431 53.9839 71.2847 53.9187 67.7033V62.6452H55.6077C59.369 62.6452 63.0934 61.9044 66.5684 60.465C70.0433 59.0256 73.2008 56.9159 75.8604 54.2563C78.52 51.5967 80.6297 48.4392 82.0691 44.9643C83.5085 41.4893 84.2493 37.7649 84.2493 34.0036C84.2493 30.2423 83.5085 26.5179 82.0691 23.0429C80.6297 19.5679 78.52 16.4105 75.8604 13.7509C73.2008 11.0913 70.0433 8.98152 66.5684 7.54214C63.0934 6.10277 59.369 5.36193 55.6077 5.36193Z" fill="white"/>
<path fill-rule="evenodd" clip-rule="evenodd" d="M371.801 35.4781H338.485V29.6247H387.547C391.475 29.6247 395.243 28.0641 398.021 25.2862C400.799 22.5084 402.359 18.7408 402.359 14.8123C402.359 10.8839 400.799 7.11628 398.021 4.33843C395.243 1.56058 391.475 0 387.547 0H313.347V64.5308H378.896V70.3753H317.377C313.512 70.4703 309.836 72.0726 307.136 74.8401C304.436 77.6076 302.924 81.321 302.924 85.1877C302.924 89.0543 304.436 92.7678 307.136 95.5353C309.836 98.3028 313.512 99.9051 317.377 100H371.801C376.037 100 380.232 99.1656 384.146 97.5443C388.061 95.923 391.617 93.5467 394.613 90.551C397.608 87.5553 399.985 83.9989 401.606 80.0848C403.227 76.1707 404.062 71.9756 404.062 67.7391C404.062 63.5025 403.227 59.3074 401.606 55.3933C399.985 51.4793 397.608 47.9228 394.613 44.9271C391.617 41.9314 388.061 39.5551 384.146 37.9338C380.232 36.3126 376.037 35.4781 371.801 35.4781Z" fill="#FA00B4"/>
</svg>
