<?xml version="1.0" encoding="UTF-8"?>
<svg width="59px" height="29px" viewBox="0 0 59 29" version="1.1" xmlns="http://www.w3.org/2000/svg" xmlns:xlink="http://www.w3.org/1999/xlink">
    <title>Illustrations/Easyswitch/Card/Dark</title>
    <g id="🟢-All-Journeys" stroke="none" stroke-width="1" fill="none" fill-rule="evenodd">
        <g id="Internet-and-DTV-Easy-Switch---11.00-(M)" transform="translate(-36.000000, -294.000000)" fill="#8C8D8E" fill-rule="nonzero">
            <g id="Group-6" transform="translate(20.000000, 264.000000)">
                <g id="Illustrations/Easyswitch/Card/Dark" transform="translate(16.000000, 30.000000)">
                    <path d="M12.6090617,13.1190476 L17.6986482,13.1190476 C18.6314011,13.1190476 19.2093023,12.5088594 19.2093023,11.6749354 C19.2093023,10.8410114 18.6314011,10.240993 17.6986482,10.240993 L14.2717952,10.240993 L14.2717952,7.81040975 L17.0599152,7.81040975 C17.9926681,7.81040975 18.5705694,7.19005168 18.5705694,6.35612668 C18.5705694,5.53237357 17.9926681,4.92218531 17.0599152,4.92218531 L14.2717952,4.92218531 L14.2717952,2.87805463 L17.3539352,2.87805463 C18.2765494,2.87805463 18.8645893,2.26786637 18.8645893,1.42377261 C18.8645893,0.600018457 18.2866881,0 17.3539352,0 L12.6090617,0 C11.6763089,0 10.9767442,0.600018457 10.9767442,1.42377261 L10.9767442,11.6749354 C10.9767442,12.5088594 11.6763089,13.1190476 12.6090617,13.1190476 Z M21.493611,13.1190476 C22.2575603,13.1190476 22.8204702,12.7427649 23.1119772,11.8681617 C23.2426527,11.4817091 23.3733282,11.0138981 23.5241077,10.4952381 L27.2433342,10.4952381 L27.4569384,11.2312777 C27.5247892,11.4613695 27.5901269,11.6749354 27.6554647,11.8681617 C27.9469716,12.7427649 28.5098816,13.1190476 29.2738308,13.1190476 C30.1483516,13.1190476 30.872093,12.3868217 30.872093,11.4715393 C30.872093,11.3117281 30.8515788,11.1830489 30.8068871,11.0187903 L30.6673424,10.5562805 C30.2418209,9.20091862 28.2016214,3.0458564 27.1327626,0.86443337 C26.8412556,0.274584718 26.2481898,0 25.4038249,0 C24.5594599,0 23.9261862,0.264414913 23.6346793,0.86443337 C22.3681319,3.45773348 20.2873754,9.96640827 20.0260244,10.8003322 L19.9605547,11.0187903 C19.915863,11.1830489 19.8953488,11.3117281 19.8953488,11.4715393 C19.8953488,12.3868217 20.6190902,13.1190476 21.493611,13.1190476 Z M24.0116279,7.5952381 C24.3335715,6.6955267 24.6900091,5.72258297 25.0464467,4.83333333 C25.4028842,5.74350649 25.7478238,6.6955267 26.0697674,7.5952381 L24.0116279,7.5952381 Z M35.137068,13.1190476 C37.8678792,13.1190476 39.7906977,11.4691674 39.7906977,9.09933943 C39.7906977,4.79965157 34.5234025,5.19962253 34.5234025,3.67973287 C34.5234025,3.19976771 34.9427406,2.82979457 35.5052672,2.82979457 C35.9450608,2.82979457 36.3234878,3.02978005 36.865559,3.42975102 C37.1826195,3.65973432 37.6019575,3.78972488 37.9701568,3.78972488 C38.8088329,3.78972488 39.4838649,3.12977279 39.4838649,2.29983304 C39.4838649,1.81986789 39.2588543,1.40989765 38.8292885,1.0799216 C37.8985625,0.369973142 36.6814594,0 35.5052672,0 C33.0608332,0 31.1482425,1.58988458 31.1482425,3.67973287 C31.1482425,7.7994338 36.4155377,7.54945195 36.4155377,9.09933943 C36.4155377,9.84928499 35.9450608,10.289253 35.137068,10.289253 C34.6178126,10.289253 34.2303682,10.0458388 33.8322212,9.75891831 L33.6131321,9.59930314 C33.3165271,9.37931911 32.897189,9.11933798 32.4164844,9.11933798 C31.5266695,9.11933798 30.872093,9.84928499 30.872093,10.6292284 C30.872093,11.0591972 31.1380147,11.5091645 31.5573528,11.8391405 C32.6005841,12.659081 33.8176872,13.1190476 35.137068,13.1190476 Z M44.5980837,13.1190476 C45.5190776,13.1190476 46.2376553,12.4885197 46.2376553,11.6545958 L46.2376553,8.05448505 C46.3186218,7.96295681 46.3894675,7.88159838 46.4400716,7.80023994 C47.4723944,6.18324105 48.6261671,3.75265781 49.1119661,2.62380952 L49.1885455,2.43174112 C49.2851444,2.17784477 49.3953488,1.8350847 49.3953488,1.56614987 C49.3953488,0.742395718 48.7678585,0 47.8165021,0 C47.0590391,0 46.5831647,0.529393251 46.3200354,1.11259053 L45.9217904,2.05541206 C45.5576348,2.90384863 45.2321228,3.60011074 44.6284461,4.78997785 L44.369729,4.28004987 C43.7311106,3.00202862 43.067412,1.54255592 42.8269415,0.996640827 C42.5435587,0.366112957 42.0881221,0 41.2986988,0 C40.4586713,0 39.7906977,0.742395718 39.7906977,1.56614987 C39.7906977,1.92856472 39.9673519,2.37704468 40.1415728,2.76293184 L40.7392246,4.0584945 C41.1846332,5.01325454 41.9068819,6.49013301 42.6540749,7.60925352 L42.7560958,7.75956072 C42.8370623,7.88159838 42.8977871,7.96295681 42.958512,8.03414544 L42.958512,11.6545958 C42.958512,12.4885197 43.6770897,13.1190476 44.5980837,13.1190476 Z M4.26497493,29 C6.99578622,29 8.91860465,27.3501198 8.91860465,24.9802918 C8.91860465,20.6806039 3.65130947,21.0805749 3.65130947,19.5606852 C3.65130947,19.0807201 4.07064754,18.710747 4.63317421,18.710747 C5.07296778,18.710747 5.45139482,18.9107324 5.99346597,19.3107034 C6.31052646,19.5406867 6.72986452,19.6706773 7.09806379,19.6706773 C7.93673992,19.6706773 8.61177192,19.0107252 8.61177192,18.1807854 C8.61177192,17.7008203 8.38676125,17.29085 7.95719543,16.960874 C7.02646949,16.2509255 5.80936633,15.8809524 4.63317421,15.8809524 C2.18874013,15.8809524 0.276149456,17.470837 0.276149456,19.5606852 C0.276149456,23.6803862 5.54344463,23.4304043 5.54344463,24.9802918 C5.54344463,25.7302374 5.07296778,26.1702054 4.26497493,26.1702054 C3.74571954,26.1702054 3.35827514,25.9267911 2.96012813,25.6398707 L2.74103904,25.4802555 C2.44443407,25.2602715 2.02509601,25.0002904 1.5443914,25.0002904 C0.654576488,25.0002904 0,25.7302374 0,26.5101807 C0,26.9401495 0.265921698,27.3901169 0.685259761,27.7200929 C1.72849104,28.5400334 2.9455942,29 4.26497493,29 Z M13.3619255,29 C13.9632005,29 14.3810358,28.8474529 14.7275333,28.5118494 C15.1759418,28.0847176 15.7058791,26.3456811 16.4600207,23.5184755 L16.655817,24.2419337 C17.3169638,26.647265 17.8403157,28.1502231 18.2026993,28.5118494 C18.5186235,28.8271133 18.9160765,29 19.558116,29 C20.454933,29 21.0765903,28.633887 21.3721323,28.1253968 C21.920541,27.1872324 23.0637846,22.1161857 23.5697493,19.7064084 L23.8248544,18.4547807 C23.9427361,17.8916357 24.0116279,17.6477864 24.0116279,17.3657438 C24.0116279,16.5216501 23.3084418,15.8809524 22.3300959,15.8809524 C21.4638522,15.8809524 20.852386,16.2979144 20.6893284,17.0301403 L20.1672841,19.6501626 C19.9770433,20.5823908 19.7514856,21.6540113 19.5173516,22.6845515 L19.0335713,20.7183399 C18.7463114,19.5392801 18.4734915,18.3914412 18.2638459,17.4369324 C18.070215,16.5724991 17.3466467,16.1758767 16.4600207,16.1758767 C15.593777,16.1758767 14.8803998,16.5724991 14.6765777,17.4267626 L14.5145303,18.1074872 C14.1811654,19.5194593 13.7943194,21.2142884 13.3924988,22.8269288 L13.2146329,22.0022116 C13.0988215,21.4586086 12.9892717,20.9319376 12.8903621,20.4492899 L12.424344,18.1183093 C12.3835796,17.9149133 12.2714775,17.2945552 12.220522,17.1114987 C11.9963177,16.2267257 11.4154248,15.8809524 10.5695633,15.8809524 C9.65236405,15.8809524 8.91860465,16.4504614 8.91860465,17.2131968 C8.91860465,17.4720645 8.96812836,17.7679974 9.04353946,18.1350654 L9.6382525,20.9779761 C10.16429,23.4487523 11.0094792,27.1673165 11.5581003,28.1253968 C11.8740245,28.6745663 12.5568284,29 13.3619255,29 Z M26.4127907,29 C27.3762202,29 28.127907,28.3694721 28.127907,27.5355482 L28.127907,17.3250646 C28.127907,16.5013104 27.3868073,15.8809524 26.4127907,15.8809524 C25.438774,15.8809524 24.6976744,16.5013104 24.6976744,17.3250646 L24.6976744,27.5355482 C24.6976744,28.3694721 25.4493612,29 26.4127907,29 Z M33.2421974,29 C34.1843035,29 34.9297061,28.3694721 34.9297061,27.5355482 L34.9297061,18.759007 L36.7621543,18.759007 C37.7042604,18.759007 38.4186047,18.1488188 38.4186047,17.304725 C38.4186047,16.4809708 37.7042604,15.8809524 36.7621543,15.8809524 L29.7843573,15.8809524 C28.8422512,15.8809524 28.127907,16.4809708 28.127907,17.304725 C28.127907,18.1488188 28.8422512,18.759007 29.7843573,18.759007 L31.5650414,18.759007 L31.5650414,27.5355482 C31.5650414,28.3694721 32.3000912,29 33.2421974,29 Z M43.870869,29 C45.1604301,29 46.5531561,28.6300269 47.7189194,28.0400697 C48.2553768,27.7700893 48.5855045,27.2601263 48.5855045,26.6901677 C48.5855045,25.8702272 47.9149327,25.2202744 47.0689806,25.2202744 C46.6150551,25.2202744 46.212712,25.4302591 46.0270152,25.5502504 C45.2120126,25.9802192 44.5517573,26.1702054 43.870869,26.1702054 C42.3337122,26.1702054 41.1369995,24.5803208 41.1369995,22.4504755 C41.1369995,20.3306294 42.4162441,18.710747 44.0359329,18.710747 C45.0171456,18.710747 45.5744907,18.9556674 45.9035994,19.1575732 L46.0166987,19.2307092 C46.3261934,19.440694 46.7079035,19.6306796 47.1927785,19.6306796 C48.06968,19.6306796 48.7093023,18.930731 48.7093023,18.1507876 C48.7093023,17.7008203 48.4926561,17.3308471 48.0490453,16.9808725 L47.9568331,16.9128538 C47.4624744,16.5690802 46.0772221,15.8809524 44.0359329,15.8809524 C40.4561112,15.8809524 37.7325581,18.7207462 37.7325581,22.4504755 C37.7325581,26.190204 40.3529463,29 43.870869,29 Z M51.0229152,29 C50.108665,29 49.3953488,28.3694721 49.3953488,27.5355482 L49.3953488,17.3250646 C49.3953488,16.5013104 50.108665,15.8809524 51.0229152,15.8809524 C51.9472122,15.8809524 52.6605284,16.5013104 52.6605284,17.3250646 L52.6605284,20.7014396 L55.7348205,20.7014396 L55.7348205,17.3250646 C55.7348205,16.5013104 56.4481366,15.8809524 57.3724336,15.8809524 C58.2866839,15.8809524 59,16.5013104 59,17.3250646 L59,27.5355482 C59,28.3694721 58.2866839,29 57.3724336,29 C56.4581833,29 55.7348205,28.3694721 55.7348205,27.5355482 L55.7348205,23.5896641 L52.6605284,23.5896641 L52.6605284,27.5355482 C52.6605284,28.3694721 51.9371655,29 51.0229152,29 Z" id="EASYSWITCH"></path>
                </g>
            </g>
        </g>
    </g>
</svg>
