<?xml version="1.0" encoding="UTF-8"?>
<svg width="85px" height="73px" viewBox="0 0 85 73" version="1.1" xmlns="http://www.w3.org/2000/svg" xmlns:xlink="http://www.w3.org/1999/xlink">
    <!-- Generator: Sketch 60 (88103) - https://sketch.com -->
    <title>Illustration / Flow / Mobile / Telenet Installation / Dark</title>
    <desc>Created with Sketch.</desc>
    <g id="Illustration-/-Flow-/-Mobile-/-Telenet-Installation-/-Dark" stroke="none" stroke-width="1" fill="none" fill-rule="evenodd">
        <path d="M44.1200546,17.2812071 C60.2924229,17.2812071 73.4029492,30.3767656 73.4029492,46.5312413 L73.4029492,46.5312413 L73.4029492,52.1924253 C73.4029492,52.3227578 73.3520586,52.4479391 73.2611189,52.5413014 C64.1285408,61.9171578 52.7124615,64.826407 39.0860594,61.2617233 L39.0860594,61.2617233 L38.4345121,61.0904527 C26.839917,58.0277432 19.1238353,55.1858183 15.2533414,52.538032 C18.5938903,58.224995 30.1599231,63.7091907 49.9136042,68.8629026 L49.6073729,68.781833 C49.6963246,68.7474176 49.7960812,68.7380326 49.8961591,68.7603397 L49.8961591,68.7603397 L61.2127011,71.2833103 C65.0586055,71.9562733 68.0868743,71.1573151 70.3530041,68.8945476 C72.0246867,67.2253452 74.4462427,64.9847625 77.6071029,62.182729 L77.6071029,62.182729 L79.7732412,60.2758171 L82.1483605,58.2103158 C84.553297,55.6838565 84.553297,53.7324031 82.2177286,52.0452301 C79.6383382,50.1819243 77.223716,48.6894575 74.9749739,47.5676134 C74.7278737,47.444341 74.6274914,47.1440946 74.7507638,46.8969944 C74.8740363,46.6498942 75.1742826,46.5495119 75.4213829,46.6727844 C77.7218452,47.8204305 80.1821151,49.3411119 82.8033044,51.2346124 C85.6683157,53.3042456 85.6683157,55.9628794 82.8377367,58.9331088 C78.028091,63.09601 74.412183,66.3480928 71.9925359,68.6866478 L71.9925359,68.6866478 L71.5089892,69.157451 L71.0595857,69.6021791 C68.5493982,72.1086424 65.1911501,72.99466 61.0177405,72.2638508 L61.0177405,72.2638508 L49.9840771,69.8064182 C49.885598,69.8486364 49.7728595,69.8596564 49.6611558,69.830513 C28.253833,64.2453679 16.3024182,58.2696605 13.7591266,51.7471429 C13.7574416,51.7428218 13.7558209,51.7384914 13.7542639,51.7341529 C13.7477389,51.7161662 13.7423123,51.6978438 13.7379444,51.6791924 C13.7357665,51.6696494 13.7339081,51.6605537 13.7323102,51.6514516 C13.7290781,51.6332799 13.7268445,51.6143092 13.7257162,51.5951368 C13.7250375,51.5835169 13.7247685,51.5728037 13.7248438,51.5621241 C13.7250668,51.528278 13.7289346,51.4929193 13.7367661,51.457514 L13.7278423,51.5109971 C13.7291393,51.4992579 13.7308507,51.487591 13.7329669,51.4760177 L13.7367661,51.457514 C13.8058561,51.1451633 13.87591,50.8353059 13.9469382,50.5279438 C13.9261271,50.2865056 13.9405993,50.038934 13.9930996,49.7933196 L13.9930996,49.7933196 L16.1193917,39.8458988 C19.5707837,25.310303 28.8806503,17.2812071 44.1200546,17.2812071 Z M44.1200546,18.2812071 C29.3626362,18.2812071 20.4405525,25.9758678 17.0948219,40.0659187 L17.0948219,40.0659187 L17.0497837,40.2720173 C21.6617153,28.5784103 28.784428,22.6155693 39.5606872,22.6155693 C42.0267808,22.6155693 44.4387796,22.9156381 46.7480267,23.5120787 C47.8498046,23.7966499 48.9262737,24.1481864 49.9726562,24.5656441 C50.2291404,24.6679693 50.354111,24.9588418 50.2517857,25.2153261 C50.1494605,25.4718103 49.858588,25.5967809 49.6021038,25.4944556 C48.5951734,25.0927375 47.5589477,24.7543431 46.4979499,24.4803047 C44.2712535,23.9051856 41.9432735,23.6155693 39.5606872,23.6155693 C26.868679,23.6155693 19.4444256,32.2818451 15.2195967,49.5000158 L15.2195967,49.5000158 L14.9649137,50.564874 L14.9616545,50.5821333 C15.0297544,50.9592622 15.2413024,51.3041037 15.5649423,51.5357056 C19.0132229,54.0033507 26.1033108,56.7056322 36.805341,59.6183812 L36.805341,59.6183812 L38.0562182,59.9554003 L39.339144,60.2942792 C50.4248686,63.1943184 59.9497924,61.7151379 67.9564255,55.8524873 C67.9147673,41.2750384 62.0245965,30.8928073 52.239628,26.2341967 C51.9903011,26.1154925 51.8844105,25.8171443 52.0031147,25.5678173 C52.1218189,25.3184904 52.4201671,25.2125998 52.6694941,25.331304 C62.6489578,30.0825136 68.7068573,40.5439953 68.9500371,55.0957142 C70.134779,54.1599494 71.2859528,53.1238092 72.4029492,51.988443 L72.4029492,51.988443 L72.4029492,46.5312413 C72.4029492,30.9293062 59.7403937,18.2812071 44.1200546,18.2812071 Z" id="Combined-Shape" fill="#979797" fill-rule="nonzero"></path>
        <path d="M1.97454102,37.3800488 C2.64254909,37.3800488 3.18407663,37.9240448 3.18407663,38.5950979 C3.18407663,39.266151 2.64254909,39.8101471 1.97454102,39.8101471 C1.30653296,39.8101471 0.765005423,39.266151 0.765005423,38.5950979 C0.765005423,37.9240448 1.30653296,37.3800488 1.97454102,37.3800488 Z M80.9871957,36.6095298 C81.4325345,36.6095298 81.7935528,36.9721938 81.7935528,37.4195626 C81.7935528,37.8669313 81.4325345,38.2295953 80.9871957,38.2295953 C80.541857,38.2295953 80.1808387,37.8669313 80.1808387,37.4195626 C80.1808387,36.9721938 80.541857,36.6095298 80.9871957,36.6095298 Z M33.0606398,33.7842936 C33.5059785,33.7842936 33.8669968,34.1469576 33.8669968,34.5943263 C33.8669968,35.0416951 33.5059785,35.4043591 33.0606398,35.4043591 C32.6153011,35.4043591 32.2542827,35.0416951 32.2542827,34.5943263 C32.2542827,34.1469576 32.6153011,33.7842936 33.0606398,33.7842936 Z M18.9907427,18.2948865 C19.6587508,18.2948865 20.2002783,18.8388825 20.2002783,19.5099356 C20.2002783,20.1809887 19.6587508,20.7249848 18.9907427,20.7249848 C18.3227347,20.7249848 17.7812071,20.1809887 17.7812071,19.5099356 C17.7812071,18.8388825 18.3227347,18.2948865 18.9907427,18.2948865 Z M74.5363392,12.2887898 C74.9816779,12.2887898 75.3426963,12.6514538 75.3426963,13.0988226 C75.3426963,13.5461913 74.9816779,13.9088554 74.5363392,13.9088554 C74.0910005,13.9088554 73.7299821,13.5461913 73.7299821,13.0988226 C73.7299821,12.6514538 74.0910005,12.2887898 74.5363392,12.2887898 Z M55.018363,7.70518976 C55.9090404,7.70518976 56.6310771,8.43051781 56.6310771,9.3252553 C56.6310771,10.2199928 55.9090404,10.9453208 55.018363,10.9453208 C54.1276856,10.9453208 53.4056489,10.2199928 53.4056489,9.3252553 C53.4056489,8.43051781 54.1276856,7.70518976 55.018363,7.70518976 Z M40.1731226,-1.14908083e-13 C40.6184613,-1.14908083e-13 40.9794797,0.362664024 40.9794797,0.810032769 C40.9794797,1.25740151 40.6184613,1.62006554 40.1731226,1.62006554 C39.7277839,1.62006554 39.3667656,1.25740151 39.3667656,0.810032769 C39.3667656,0.362664024 39.7277839,-1.14908083e-13 40.1731226,-1.14908083e-13 Z" id="Combined-Shape" fill="#239A98"></path>
    </g>
</svg>