<svg xmlns="http://www.w3.org/2000/svg" width="50" height="50" viewBox="0 0 50 50">
  <g fill="none" fill-rule="evenodd">
    <path fill="#239A98" d="M12.819426,-5.17920154e-16 L37.180574,5.17920154e-16 C41.6381677,-3.00926524e-16 43.2545989,0.464128056 44.8842285,1.33566352 C46.5138581,2.20719898 47.792801,3.48614185 48.6643365,5.11577148 C49.5358719,6.74540111 50,8.3618323 50,12.819426 L50,37.180574 C50,41.6381677 49.5358719,43.2545989 48.6643365,44.8842285 C47.792801,46.5138581 46.5138581,47.792801 44.8842285,48.6643365 C43.2545989,49.5358719 41.6381677,50 37.180574,50 L12.819426,50 C8.3618323,50 6.74540111,49.5358719 5.11577148,48.6643365 C3.48614185,47.792801 2.20719898,46.5138581 1.33566352,44.8842285 C0.464128056,43.2545989 2.00617683e-16,41.6381677 -3.45280103e-16,37.180574 L3.45280103e-16,12.819426 C-2.00617683e-16,8.3618323 0.464128056,6.74540111 1.33566352,5.11577148 C2.20719898,3.48614185 3.48614185,2.20719898 5.11577148,1.33566352 C6.74540111,0.464128056 8.3618323,3.00926524e-16 12.819426,-5.17920154e-16 Z"/>
    <path fill="#FFF" fill-rule="nonzero" d="M15.5,2 C16.8807119,2 18,3.11928813 18,4.5 L18,4.5 L18,19.5 C18,20.8807119 16.8807119,22 15.5,22 L15.5,22 L8.5,22 C7.11928813,22 6,20.8807119 6,19.5 L6,19.5 L6,4.5 C6,3.11928813 7.11928813,2 8.5,2 L8.5,2 Z M15.5,4 L8.5,4 C8.22385763,4 8,4.22385763 8,4.5 L8,4.5 L8,19.5 C8,19.7761424 8.22385763,20 8.5,20 L8.5,20 L15.5,20 C15.7761424,20 16,19.7761424 16,19.5 L16,19.5 L16,4.5 C16,4.22385763 15.7761424,4 15.5,4 L15.5,4 Z M12,17 C12.5522847,17 13,17.4477153 13,18 C13,18.5522847 12.5522847,19 12,19 C11.4477153,19 11,18.5522847 11,18 C11,17.4477153 11.4477153,17 12,17 Z M13.9542342,6.02781167 C14.506519,6.02781167 14.9542342,6.47552692 14.9542342,7.02781167 C14.9542342,7.54064751 14.568194,7.96331883 14.0708553,8.02108394 L13.9542342,8.02781167 L9.98448493,8.02781167 C9.43220018,8.02781167 8.98448493,7.58009642 8.98448493,7.02781167 C8.98448493,6.51497583 9.37052512,6.09230451 9.86786381,6.0345394 L9.98448493,6.02781167 L13.9542342,6.02781167 Z" transform="translate(13 13)"/>
  </g>
</svg>
