<svg width="80" height="80" viewBox="0 0 80 80" fill="none" xmlns="http://www.w3.org/2000/svg">
<path fill-rule="evenodd" clip-rule="evenodd" d="M65.9085 1.62583C65.9085 1.62583 55.4277 0 39.9999 0C24.5715 0 14.0899 1.62583 14.0899 1.62583C7.48666 2.42215 2.39677 7.62078 1.59557 14.2221C1.59498 14.2231 0 25.999 0 39.9993C0 54.0006 1.59498 65.7758 1.59557 65.7771C2.39677 72.3788 7.48666 77.5765 14.0899 78.374C14.0899 78.374 24.5715 80 39.9999 80C55.4277 80 65.9085 78.374 65.9085 78.374C72.5132 77.5765 77.6026 72.3788 78.4042 65.7771C78.4042 65.7758 80 54.0006 80 39.9993C80 25.999 78.4042 14.2231 78.4042 14.2221C77.6026 7.62078 72.5132 2.42215 65.9085 1.62583Z" fill="#FFF7C7"/>
<path d="M22.2207 27.5556C22.2207 25.5919 23.8126 24 25.7763 24H54.2207C56.1844 24 57.7763 25.5919 57.7763 27.5556V45.3333C57.7763 47.297 56.1844 48.8889 54.2207 48.8889H25.7763C23.8126 48.8889 22.2207 47.297 22.2207 45.3333V27.5556ZM25.7763 27.5556V45.3333H54.2207V27.5556H25.7763Z" fill="#291D18"/>
<path d="M29.3318 52.4444C28.35 52.4444 27.554 53.2404 27.554 54.2222C27.554 55.2041 28.35 56 29.3318 56H50.6651C51.647 56 52.4429 55.2041 52.4429 54.2222C52.4429 53.2404 51.647 52.4444 50.6651 52.4444H29.3318Z" fill="#291D18"/>
</svg>
