<svg width="265" height="144" viewBox="0 0 265 144" fill="none" xmlns="http://www.w3.org/2000/svg">
<rect x="53.5" y="12" width="178" height="128" rx="12" fill="#E5CFC7"/>
<path fill-rule="evenodd" clip-rule="evenodd" d="M38.9388 98.7414H43.9073C44.4595 98.7414 44.9073 99.1891 44.9073 99.7414C44.9073 100.294 44.4595 100.741 43.9073 100.741H38.9388C32.0681 100.741 26.5 95.1729 26.5 88.3026V81.8757C26.8194 81.9579 27.1542 82.0017 27.4992 82.0017C27.8448 82.0017 28.1801 81.9578 28.5 81.8755V88.3026C28.5 94.0684 33.1727 98.7414 38.9388 98.7414ZM28.5 74.1262V63.8555C28.5 63.3032 28.0523 62.8555 27.5 62.8555C26.9477 62.8555 26.5 63.3032 26.5 63.8555V74.1259C26.8194 74.0437 27.1542 74 27.4992 74C27.8448 74 28.1801 74.0438 28.5 74.1262Z" fill="#291D18"/>
<path d="M27.7066 12.5C34.1744 12.5 40.2868 14.8093 45.0884 18.9293L45.4551 19.2498L43.4608 21.4909C39.1498 17.6546 33.5977 15.5 27.7066 15.5C14.6138 15.5 4 26.1142 4 39.2078C4 52.3004 14.614 62.9144 27.7066 62.9144C33.2099 62.9144 38.4196 61.035 42.6026 57.6518L42.9801 57.3401L44.9139 59.6336C40.1327 63.665 34.0911 65.9144 27.7066 65.9144C12.9571 65.9144 1 53.9573 1 39.2078C1 24.4573 12.957 12.5 27.7066 12.5Z" fill="#291D18"/>
<path d="M236.707 64.5C251.457 64.5 263.414 76.4571 263.414 91.2078C263.414 105.957 251.457 117.914 236.707 117.914C229.688 117.914 223.097 115.193 218.157 110.421L217.822 110.092L219.944 107.971C224.362 112.389 230.332 114.914 236.707 114.914C249.8 114.914 260.414 104.301 260.414 91.2078C260.414 78.114 249.8 67.5 236.707 67.5C230.488 67.5 224.653 69.9037 220.27 74.1238L219.944 74.4437L217.822 72.3224C222.797 67.3471 229.529 64.5 236.707 64.5Z" fill="#291D18"/>
<path fill-rule="evenodd" clip-rule="evenodd" d="M27.5 47.75C24.3614 47.75 21.5039 46.1529 18.9739 43.5196C18.1024 42.6126 17.3318 41.6433 16.6679 40.6737C16.4351 40.3337 16.232 40.0173 16.0593 39.7323C15.9983 39.6315 15.9452 39.5415 15.9003 39.4633L15.8732 39.4157L15.8583 39.3894C15.7194 39.1356 15.7194 38.8644 15.8419 38.6403C15.8812 38.5683 15.954 38.4415 16.0593 38.2677C16.232 37.9827 16.4351 37.6663 16.6679 37.3263C17.3318 36.3567 18.1024 35.3874 18.9739 34.4804C21.5039 31.8471 24.3614 30.25 27.5 30.25C30.6385 30.25 33.4961 31.8471 36.0261 34.4804C36.8976 35.3874 37.6682 36.3567 38.3321 37.3263C38.5648 37.6663 38.768 37.9827 38.9407 38.2677C39.0017 38.3685 39.0547 38.4585 39.0997 38.5367L39.1268 38.5843L39.1416 38.6106C39.2806 38.8644 39.2806 39.1356 39.1581 39.3597C39.1188 39.4317 39.0459 39.5585 38.9407 39.7323C38.768 40.0173 38.5648 40.3337 38.3321 40.6737C37.6682 41.6433 36.8976 42.6126 36.0261 43.5196C33.4961 46.1529 30.6385 47.75 27.5 47.75ZM17.9056 39.8263C18.5255 40.7317 19.2456 41.6374 20.0555 42.4804C22.3294 44.8471 24.8396 46.25 27.5 46.25C30.1604 46.25 32.6705 44.8471 34.9444 42.4804C35.7544 41.6374 36.4745 40.7317 37.0944 39.8263C37.2986 39.528 37.4776 39.2503 37.6304 39C37.4776 38.7497 37.2986 38.472 37.0944 38.1737C36.4745 37.2683 35.7544 36.3626 34.9444 35.5196C32.6705 33.1529 30.1604 31.75 27.5 31.75C24.8396 31.75 22.3294 33.1529 20.0555 35.5196C19.2456 36.3626 18.5255 37.2683 17.9056 38.1737C17.7014 38.472 17.5223 38.7497 17.3696 39C17.5223 39.2503 17.7014 39.528 17.9056 39.8263ZM21.75 39C21.75 42.1756 24.3244 44.75 27.5 44.75C30.6756 44.75 33.25 42.1756 33.25 39C33.25 35.8244 30.6756 33.25 27.5 33.25C24.3244 33.25 21.75 35.8244 21.75 39ZM27.5 43.25C29.8472 43.25 31.75 41.3472 31.75 39C31.75 36.6528 29.8472 34.75 27.5 34.75C25.1528 34.75 23.25 36.6528 23.25 39C23.25 41.3472 25.1528 43.25 27.5 43.25ZM25.5 38.25C25.0858 38.25 24.75 38.5858 24.75 39C24.75 40.5188 25.9812 41.75 27.5 41.75C29.0188 41.75 30.25 40.5188 30.25 39C30.25 37.4812 29.0188 36.25 27.5 36.25C27.0858 36.25 26.75 36.5858 26.75 37C26.75 37.4142 27.0858 37.75 27.5 37.75C28.1903 37.75 28.75 38.3096 28.75 39C28.75 39.6904 28.1903 40.25 27.5 40.25C26.8096 40.25 26.25 39.6904 26.25 39C26.25 38.5858 25.9142 38.25 25.5 38.25Z" fill="#291D18"/>
<path fill-rule="evenodd" clip-rule="evenodd" d="M233.5 96.75C228.668 96.75 224.75 92.8325 224.75 88C224.75 83.1675 228.668 79.25 233.5 79.25C238.332 79.25 242.25 83.1675 242.25 88C242.25 90.1462 241.477 92.112 240.195 93.6342L247.53 100.97C247.823 101.263 247.823 101.737 247.53 102.03C247.237 102.323 246.763 102.323 246.47 102.03L239.134 94.6949C237.612 95.9773 235.646 96.75 233.5 96.75ZM233.5 95.25C237.504 95.25 240.75 92.0041 240.75 88C240.75 83.9959 237.504 80.75 233.5 80.75C229.496 80.75 226.25 83.9959 226.25 88C226.25 92.0041 229.496 95.25 233.5 95.25Z" fill="#291D18"/>
<path fill-rule="evenodd" clip-rule="evenodd" d="M224.928 31H219.051C218.499 31 218.051 30.5523 218.051 30C218.051 29.4477 218.499 29 219.051 29H224.928C231.799 29 237.367 34.5685 237.367 41.4388V47.0944C237.088 47.0326 236.797 47 236.499 47C236.106 47 235.726 47.0568 235.367 47.1626V41.4388C235.367 35.673 230.695 31 224.928 31ZM235.367 54.8391V65.886C235.367 66.4382 235.815 66.886 236.367 66.886C236.92 66.886 237.367 66.4382 237.367 65.886V54.9072C237.088 54.9691 236.797 55.0017 236.499 55.0017C236.106 55.0017 235.726 54.9449 235.367 54.8391Z" fill="#291D18"/>
<path fill-rule="evenodd" clip-rule="evenodd" d="M220.5 13C220.5 6.37258 215.127 1 208.5 1H54.5C47.8726 1 42.5 6.37258 42.5 13V117C42.5 123.627 47.8726 129 54.5 129H208.5C215.127 129 220.5 123.627 220.5 117V13ZM54.5 4H208.5L208.765 4.00384C213.613 4.14421 217.5 8.1182 217.5 13V117L217.496 117.265C217.356 122.113 213.382 126 208.5 126H54.5L54.2346 125.996C49.3868 125.856 45.5 121.882 45.5 117V13L45.5038 12.7346C45.6442 7.88681 49.6182 4 54.5 4Z" fill="#291D18"/>
<path d="M187.5 139.5C188.328 139.5 189 140.172 189 141C189 141.78 188.405 142.42 187.644 142.493L187.5 142.5H75.5C74.6716 142.5 74 141.828 74 141C74 140.22 74.5949 139.58 75.3555 139.507L75.5 139.5H187.5Z" fill="#291D18"/>
<circle cx="131.5" cy="116" r="4" fill="#291D18"/>
<path fill-rule="evenodd" clip-rule="evenodd" d="M102.204 83.2442L130.204 35.2442C130.783 34.2519 132.216 34.2519 132.795 35.2442L160.796 83.2442C161.379 84.2442 160.658 85.5 159.5 85.5H103.5C102.342 85.5 101.621 84.2442 102.204 83.2442ZM156.889 82.4996L131.499 38.9766L106.11 82.4996H156.889Z" fill="#291D18"/>
<path d="M130 54H133V70H130V54Z" fill="#291D18"/>
<rect x="130" y="74" width="3" height="3" fill="#291D18"/>
<path d="M233.793 48.2928C234.153 47.9324 234.721 47.9047 235.113 48.2098L235.207 48.293L238.989 52.0756C239.38 52.4662 239.38 53.0993 238.989 53.4898C238.629 53.8503 238.061 53.878 237.669 53.5729L237.575 53.4897L233.793 49.707C233.402 49.3165 233.402 48.6833 233.793 48.2928Z" fill="#291D18"/>
<path d="M237.575 48.293C237.965 47.9024 238.598 47.9023 238.989 48.2928C239.35 48.6533 239.377 49.2205 239.072 49.6128L238.989 49.707L235.207 53.4897C234.817 53.8803 234.184 53.8803 233.793 53.4898C233.432 53.1294 233.405 52.5622 233.71 52.1698L233.793 52.0756L237.575 48.293Z" fill="#291D18"/>
<path d="M24.793 75.2928C25.1535 74.9324 25.7207 74.9047 26.113 75.2098L26.2072 75.293L29.9892 79.0756C30.3797 79.4662 30.3796 80.0993 29.9891 80.4898C29.6285 80.8503 29.0613 80.878 28.669 80.5729L28.5748 80.4897L24.7928 76.707C24.4023 76.3165 24.4024 75.6833 24.793 75.2928Z" fill="#291D18"/>
<path d="M28.5748 75.293C28.9653 74.9024 29.5985 74.9023 29.9891 75.2928C30.3496 75.6533 30.3773 76.2205 30.0724 76.6128L29.9892 76.707L26.2072 80.4897C25.8167 80.8803 25.1835 80.8803 24.793 80.4898C24.4324 80.1294 24.4047 79.5622 24.7097 79.1698L24.7928 79.0756L28.5748 75.293Z" fill="#291D18"/>
</svg>
