<?xml version="1.0" encoding="UTF-8"?>
<svg width="350px" height="359px" viewBox="0 0 350 359" version="1.1" xmlns="http://www.w3.org/2000/svg" xmlns:xlink="http://www.w3.org/1999/xlink">
    <title>Illustration / Flow / Desktop / Switch vatse lijn</title>
    <g id="(T)-Process---CheckOut-" stroke="none" stroke-width="1" fill="none" fill-rule="evenodd">
        <g id="Illustration-Switch-vatse-lijn">
            <g id="Group-2-Copy" transform="translate(193.000000, 38.000000)" stroke="#C5C6C6">
                <path d="M27.1756818,78 L21.6018182,78 C17.4973383,78 14.17,74.6237723 14.17,70.4589844 L19.0144444,25.2128906 C19.0144444,21.0481027 22.3417828,17.671875 26.4462626,17.671875 M31.2907071,17.671875 L83.6437374,17.671875 C87.7482172,17.671875 91.0755556,21.0481027 91.0755556,25.2128906 L95.92,70.4589844 C95.92,74.6237723 92.5926617,78 88.4881818,78 L34.6075,78" id="Shape" stroke-width="1.79999989" stroke-linecap="round"></path>
                <path d="M14.3781508,39.4875 C13.3850264,39.4875 11.8953397,39.4875 9.90909091,39.4875 C4.43645112,39.4875 0,34.9514008 0,29.3558388 L3.63333333,10.1316612 C3.63333333,4.53609922 8.06978445,0 13.5424242,0 L96.6686869,0 C102.141327,0 106.577778,4.53609922 106.577778,10.1316612 L109,29.3558388 C109,34.9514008 104.563549,39.4875 99.0909091,39.4875" id="Path" stroke-width="1.79999989" stroke-linecap="round"></path>
                <ellipse id="Oval" stroke-width="1.19999993" cx="54.5" cy="46.3125" rx="16.9555556" ry="17.0625"></ellipse>
                <path d="M69.9475128,28.4159533 C65.8971916,25.0538783 60.7054577,23.034375 55.045,23.034375 C42.1022069,23.034375 31.61,33.5927598 31.61,46.6171875 C31.61,59.6416152 42.1022069,70.2 55.045,70.2 C67.9877931,70.2 78.48,59.6416152 78.48,46.6171875" id="Path" stroke-width="1.19999993"></path>
            </g>
            <g id="Group-2-Copy-2" transform="translate(54.000000, 142.000000)">
                <path d="M48.6102273,139 L38.6897727,139 C31.3845517,139 25.4625,132.995117 25.4625,125.587719 L34.0847222,45.1140351 C34.0847222,37.706637 40.0067739,31.7017544 47.3119949,31.7017544 M55.9342172,31.7017544 L149.113005,31.7017544 C156.418226,31.7017544 162.340278,37.706637 162.340278,45.1140351 L170.9625,125.587719 C170.9625,132.995117 165.040448,139 157.735227,139 L61.8375,139" id="Shape" stroke="#8C8D8E" stroke-width="1.79999989" stroke-linecap="round"></path>
                <path d="M25.5904702,70.7192982 C23.822891,70.7192982 21.1715221,70.7192982 17.6363636,70.7192982 C7.89606896,70.7192982 0,62.5954678 0,52.5742151 L6.46666667,18.1450831 C6.46666667,8.12383042 14.3627356,0 24.1030303,0 L172.052525,0 C181.79282,0 189.688889,8.12383042 189.688889,18.1450831 L194,52.5742151 C194,62.5954678 186.103931,70.7192982 176.363636,70.7192982" id="Path" stroke="#8C8D8E" stroke-width="1.79999989" stroke-linecap="round"></path>
                <ellipse id="Oval" stroke="#8C8D8E" stroke-width="1.19999993" cx="98.2125" cy="82.9122807" rx="33.95" ry="34.1403509"></ellipse>
                <path d="M124.207092,51.0555187 C116.977308,45.0584249 107.710113,41.4561404 97.60625,41.4561404 C74.5034886,41.4561404 55.775,60.2896358 55.775,83.5219298 C55.775,106.754224 74.5034886,125.587719 97.60625,125.587719 C120.709011,125.587719 139.4375,106.754224 139.4375,83.5219298" id="Path" stroke="#C5C6C6" stroke-width="1.19999993"></path>
                <ellipse id="Oval" stroke="#8C8D8E" stroke-width="1.19999993" cx="97" cy="64.622807" rx="6.0625" ry="6.09649123"></ellipse>
                <ellipse id="Oval" stroke="#8C8D8E" stroke-width="1.19999993" cx="97" cy="103.640351" rx="6.0625" ry="6.09649123"></ellipse>
                <ellipse id="Oval" stroke="#8C8D8E" stroke-width="1.19999993" transform="translate(116.400000, 84.131579) scale(-1, -1) rotate(-270.000000) translate(-116.400000, -84.131579) " cx="116.4" cy="84.1315789" rx="6.09649123" ry="6.0625"></ellipse>
                <ellipse id="Oval" stroke="#8C8D8E" stroke-width="1.19999993" transform="translate(77.600000, 84.131579) scale(-1, -1) rotate(-270.000000) translate(-77.600000, -84.131579) " cx="77.6" cy="84.1315789" rx="6.09649123" ry="6.0625"></ellipse>
                <circle id="Oval" stroke="#8C8D8E" stroke-width="1.19999993" transform="translate(110.838912, 69.532609) rotate(-315.000000) translate(-110.838912, -69.532609) " cx="110.838912" cy="69.532609" r="5.60576345"></circle>
                <circle id="Oval" stroke="#8C8D8E" stroke-width="1.19999993" transform="translate(83.161088, 97.348836) rotate(-315.000000) translate(-83.161088, -97.348836) " cx="83.1610884" cy="97.3488363" r="5.60576345"></circle>
                <circle id="Oval" stroke="#8C8D8E" stroke-width="1.19999993" transform="translate(110.838912, 97.348836) scale(-1, -1) rotate(-225.000000) translate(-110.838912, -97.348836) " cx="110.838912" cy="97.3488363" r="5.60576345"></circle>
                <circle id="Oval" fill="#8C8D8E" transform="translate(83.161088, 69.532609) scale(-1, -1) rotate(-225.000000) translate(-83.161088, -69.532609) " cx="83.1610884" cy="69.532609" r="5.60576345"></circle>
                <path d="M61.8375,29.2631579 L62.785855,25.1514565 C63.8812994,20.4020323 67.8183322,17.0701754 72.3349653,17.0701754 M78.408278,17.0701754 C82.9249111,17.0701754 86.8619438,20.4020323 87.9573882,25.1514565 L88.9057432,29.2631579 M104.373311,29.2631579 L105.321666,25.1514565 C106.41711,20.4020323 110.354143,17.0701754 114.870776,17.0701754 L123.426439,17.0701754 M116.50129,17.0701754 C117.918233,17.0701754 120.043648,17.0701754 122.877535,17.0701754 C127.394168,17.0701754 131.331201,20.4020323 132.426645,25.1514565 L133.375,29.2631579" id="Shape" stroke="#8C8D8E" stroke-width="1.79999989" stroke-linecap="round"></path>
            </g>
            <path id="Shape" d="M301.903269,127.900829 C303.029545,134.621231 303.6,141.463412 303.6,148.378505 C303.6,190.164195 282.606068,228.308731 248.594144,250.559468 L247.559503,251.228855 L241.832,254.613 L249.763691,254.368382 L249.800857,255.567806 L239.534343,255.885926 L238.443958,255.919713 L238.999335,254.980757 L244.22848,246.140025 L245.261332,246.75094 L241.221,253.581 L246.930845,250.206927 C281.190989,228.287014 302.4,190.173833 302.4,148.378505 C302.4,141.957969 301.903485,135.601357 300.92244,129.348374 L300.719774,128.099171 L301.903269,127.900829 Z" fill="#C5C6C6" fill-rule="nonzero"></path>
            <circle id="Oval" fill="#239A98" cx="194" cy="9" r="9"></circle>
            <ellipse id="Oval-Copy" fill="#F2F2F2" cx="18" cy="133.5" rx="18" ry="18.5"></ellipse>
            <circle id="Oval-Copy-2" fill="#F2F2F2" cx="251.5" cy="311.5" r="12.5"></circle>
            <circle id="Oval-Copy-3" fill="#239A98" cx="57.5" cy="276.5" r="4.5"></circle>
            <circle id="Oval-Copy-4" fill="#239A98" cx="275.5" cy="141.5" r="4.5"></circle>
            <circle id="Oval-Copy-5" fill="#D8D8D8" cx="345.5" cy="72.5" r="4.5"></circle>
            <circle id="Oval-Copy-6" fill="#D8D8D8" cx="235.5" cy="354.5" r="4.5"></circle>
        </g>
    </g>
</svg>