<svg xmlns="http://www.w3.org/2000/svg" width="210" height="211" viewBox="0 0 210 211"><g fill="none" fill-rule="evenodd" transform="translate(1)"><text fill="#585857" font-family="BloomSpeakBody-Medium, BloomSpeak Body" font-size="12" font-weight="400">
                        <tspan x="127.067" y="11">ID Card Number</tspan>
                    </text><text fill="#585857" font-family="BloomSpeakBody-Medium, BloomSpeak Body" font-size="12" font-weight="400">
                        <tspan x="52.604" y="206">National Registry Number</tspan>
                    </text><path stroke="#979797" stroke-linecap="round" stroke-width="2" d="M93.2368574,171 L12,171 C5.372583,171 0,165.627417 0,159 C0,125.172541 0,102.542564 0,91.1100679 M0,77.9032759 C0,72.5914368 0,64.6236782 0,54 C0,47.372583 5.372583,42 12,42 C78.8183738,42 122.781217,42 143.888529,42 M156.75165,42 C165.473506,42 178.556289,42 196,42 C202.627417,42 208,47.372583 208,54 L208,159 C208,165.627417 202.627417,171 196,171 L107.324815,171"/><path stroke="#239A98" stroke-linecap="round" stroke-width="2" d="M179.865418 56 188 56C191.313708 56 194 58.6862915 194 62L194 70C194 73.3137085 191.313708 76 188 76L121 76C117.686292 76 115 73.3137085 115 70L115 62C115 58.6862915 117.686292 56 121 56L169.88805 56 169.88805 56M140.865418 135 149 135C152.313708 135 155 137.686292 155 141L155 149C155 152.313708 152.313708 155 149 155L82 155C78.6862915 155 76 152.313708 76 149L76 141C76 137.686292 78.6862915 135 82 135L130.88805 135 130.88805 135"/><line x1="135" x2="165" y1="35" y2="35" stroke="#239A98" stroke-linecap="round" stroke-width="2" transform="rotate(90 150 35)"/><line x1="85" x2="115" y1="176" y2="176" stroke="#239A98" stroke-linecap="round" stroke-width="2" transform="rotate(90 100 176)"/></g></svg>