<?xml version="1.0" encoding="UTF-8"?>
<svg width="117px" height="101px" viewBox="0 0 117 101" version="1.1" xmlns="http://www.w3.org/2000/svg" xmlns:xlink="http://www.w3.org/1999/xlink">
    <!-- Generator: Sketch 60 (88103) - https://sketch.com -->
    <title>Helmet illustration</title>
    <desc>Created with Sketch.</desc>
    <g id="Archived" stroke="none" stroke-width="1" fill="none" fill-rule="evenodd">
        <g id="02.03-Change-Bundle---Desktop---Technieker" transform="translate(-808.000000, -349.000000)" fill="#FFFFFF">
            <g id="Helmet-illustration" transform="translate(808.000000, 349.000000)">
                <path d="M60.2660352,24.191358 C82.6160609,24.191358 100.734568,42.2891797 100.734568,64.6142599 L100.734568,64.6142599 L100.734568,72.4754989 C100.734568,72.6058314 100.683677,72.7310127 100.592738,72.824375 C87.9610064,85.7925967 72.180668,89.8140243 53.3249007,84.8813323 C35.8342258,80.3057501 24.5554006,76.0856299 19.4443316,72.1843634 L19.612495,72.3109354 C23.5351622,80.2033755 38.6226012,87.7745454 64.8369007,94.9004822 L64.8369007,94.9004822 L66.5168977,95.3524951 L67.9024715,95.717504 C68.0038041,95.6639761 68.1239595,95.644823 68.2445816,95.6717094 L68.2445816,95.6717094 L83.9677516,99.1769056 C89.3675021,100.121763 93.6367383,98.9953965 96.8309567,95.8059173 L96.8309567,95.8059173 L97.8149592,94.8365296 C100.380496,92.3397215 103.961832,89.0688964 108.548773,85.0336337 L108.548773,85.0336337 L110.653592,83.1898814 L113.213682,80.9660399 C116.629146,77.3779908 116.629146,74.530749 113.28305,72.1135891 C109.693132,69.5202964 106.331267,67.4423432 103.198567,65.8795133 C102.951467,65.7562409 102.851084,65.4559945 102.974357,65.2088943 C103.097629,64.9617941 103.397876,64.8614118 103.644976,64.9846842 C106.829396,66.5733162 110.236909,68.679484 113.868626,71.3029714 C117.744164,74.1025915 117.744164,77.6570138 113.903058,81.6888329 C107.202562,87.4883256 102.169352,92.0157482 98.8059745,95.2683682 L98.8059745,95.2683682 L98.2608734,95.7986673 L97.5375383,96.5135488 C94.0992621,99.9467238 89.5000467,101.16015 83.7727911,100.157446 L83.7727911,100.157446 L68.3861257,96.7291223 C68.2762009,96.7927022 68.1421606,96.8146921 68.0095783,96.7801015 C38.3449952,89.040647 21.7868131,80.7615559 18.2872473,71.7865805 C18.2851974,71.7813233 18.2832425,71.7760524 18.2813817,71.7707699 C18.2752214,71.7535691 18.2698832,71.7352611 18.2656007,71.7166286 C18.2635871,71.7076099 18.2618991,71.6992523 18.2604309,71.6908892 C18.2571726,71.6725689 18.2549297,71.653445 18.2538102,71.6341169 C18.2531778,71.6232923 18.2529065,71.612916 18.2529585,71.6025706 C18.2531739,71.5678407 18.2570415,71.5324195 18.2648868,71.4969516 L18.2558541,71.5514297 C18.2571637,71.5393548 18.2589116,71.5273556 18.2610877,71.5154553 L18.2648868,71.4969516 C18.3370476,71.1707183 18.4099636,70.8464546 18.4836413,70.5241617 C18.4458045,70.2461711 18.4556337,69.9589285 18.5164206,69.6745597 L18.5164206,69.6745597 L21.5727804,55.3757425 C26.3454069,35.275745 39.197933,24.191358 60.2660352,24.191358 Z M60.2660352,25.191358 C39.679919,25.191358 27.2151757,35.9413099 22.5482106,55.5957625 L22.5482106,55.5957625 L21.9428645,58.4293776 C28.2800083,40.653417 38.3364099,31.5987654 53.9348019,31.5987654 C57.343045,31.5987654 60.6760715,32.0134163 63.8667001,32.8375033 C65.388728,33.2306181 66.8757159,33.7162154 68.3210787,34.2928477 C68.5775629,34.3951729 68.7025335,34.6860454 68.6002082,34.9425296 C68.497883,35.1990139 68.2070105,35.3239844 67.9505263,35.2216592 C66.5446156,34.6607665 65.0978712,34.1883113 63.6166232,33.8057293 C60.5085454,33.0029638 57.2595377,32.5987654 53.9348019,32.5987654 C35.7480896,32.5987654 25.3078199,45.328091 19.5039088,70.5489222 C19.5827001,70.8780691 19.7722168,71.1766139 20.051075,71.3894657 C25.0224815,75.1841281 36.2128162,79.3711384 53.5779853,83.9138881 L53.5779853,83.9138881 L54.1594249,84.0633684 C69.3987065,87.9121377 82.518871,85.77757 93.5611539,77.655541 C93.5288454,57.2908661 85.3056069,42.7674377 71.6245732,36.2539155 C71.3752462,36.1352113 71.2693556,35.8368631 71.3880598,35.5875361 C71.5067641,35.3382092 71.8051123,35.2323186 72.0544392,35.3510228 C85.9313714,41.957812 94.3230392,56.5617646 94.5567161,76.9023596 C96.3380859,75.5182462 98.0638756,73.9746806 99.7345679,72.2717181 L99.7345679,72.2717181 L99.7345679,64.6142599 C99.7345679,42.8417203 82.0640317,25.191358 60.2660352,25.191358 Z" id="Combined-Shape" fill-rule="nonzero"></path>
                <path d="M1.74188918,51.9067215 C2.66949922,51.9067215 3.42147574,52.6621259 3.42147574,53.5939643 C3.42147574,54.5258028 2.66949922,55.2812071 1.74188918,55.2812071 C0.814279131,55.2812071 0.0623026127,54.5258028 0.0623026127,53.5939643 C0.0623026127,52.6621259 0.814279131,51.9067215 1.74188918,51.9067215 Z M111.460523,50.8367627 C112.078929,50.8367627 112.580247,51.3403656 112.580247,51.9615912 C112.580247,52.5828169 112.078929,53.0864198 111.460523,53.0864198 C110.842116,53.0864198 110.340798,52.5828169 110.340798,51.9615912 C110.340798,51.3403656 110.842116,50.8367627 111.460523,50.8367627 Z M44.9086994,46.9135802 C45.5271061,46.9135802 46.0284238,47.4171831 46.0284238,48.0384088 C46.0284238,48.6596344 45.5271061,49.1632373 44.9086994,49.1632373 C44.2902927,49.1632373 43.788975,48.6596344 43.788975,48.0384088 C43.788975,47.4171831 44.2902927,46.9135802 44.9086994,46.9135802 Z M25.3709446,25.4046639 C26.2985546,25.4046639 27.0505312,26.1600683 27.0505312,27.0919067 C27.0505312,28.0237452 26.2985546,28.7791495 25.3709446,28.7791495 C24.4433345,28.7791495 23.691358,28.0237452 23.691358,27.0919067 C23.691358,26.1600683 24.4433345,25.4046639 25.3709446,25.4046639 Z M102.502728,17.0644719 C103.121134,17.0644719 103.622452,17.5680748 103.622452,18.1893004 C103.622452,18.8105261 103.121134,19.3141289 102.502728,19.3141289 C101.884321,19.3141289 101.383003,18.8105261 101.383003,18.1893004 C101.383003,17.5680748 101.884321,17.0644719 102.502728,17.0644719 Z M75.3996555,10.6995885 C76.6364689,10.6995885 77.6391042,11.7067943 77.6391042,12.9492455 C77.6391042,14.1916968 76.6364689,15.1989026 75.3996555,15.1989026 C74.1628421,15.1989026 73.1602067,14.1916968 73.1602067,12.9492455 C73.1602067,11.7067943 74.1628421,10.6995885 75.3996555,10.6995885 Z M54.7852426,-1.16351373e-13 C55.4036493,-1.16351373e-13 55.904967,0.503602888 55.904967,1.12482853 C55.904967,1.74605418 55.4036493,2.24965706 54.7852426,2.24965706 C54.1668359,2.24965706 53.6655182,1.74605418 53.6655182,1.12482853 C53.6655182,0.503602888 54.1668359,-1.16351373e-13 54.7852426,-1.16351373e-13 Z" id="Combined-Shape"></path>
            </g>
        </g>
    </g>
</svg>