<svg xmlns="http://www.w3.org/2000/svg" width="90" height="90" viewBox="0 0 90 90">
  <g fill="none" fill-rule="evenodd">
    <path fill="#239A98" d="M12.819426,-5.17920154e-16 L77.180574,5.17920154e-16 C81.6381677,-3.00926524e-16 83.2545989,0.464128056 84.8842285,1.33566352 C86.5138581,2.20719898 87.792801,3.48614185 88.6643365,5.11577148 C89.5358719,6.74540111 90,8.3618323 90,12.819426 L90,77.180574 C90,81.6381677 89.5358719,83.2545989 88.6643365,84.8842285 C87.792801,86.5138581 86.5138581,87.792801 84.8842285,88.6643365 C83.2545989,89.5358719 81.6381677,90 77.180574,90 L12.819426,90 C8.3618323,90 6.74540111,89.5358719 5.11577148,88.6643365 C3.48614185,87.792801 2.20719898,86.5138581 1.33566352,84.8842285 C0.464128056,83.2545989 2.00617683e-16,81.6381677 -3.45280103e-16,77.180574 L3.45280103e-16,12.819426 C-2.00617683e-16,8.3618323 0.464128056,6.74540111 1.33566352,5.11577148 C2.20719898,3.48614185 3.48614185,2.20719898 5.11577148,1.33566352 C6.74540111,0.464128056 8.3618323,3.00926524e-16 12.819426,-5.17920154e-16 Z"/>
    <g transform="translate(21 21)">
      <rect width="48" height="48"/>
      <path fill="#FFF" d="M18.1748093,2 C21.2256426,2 23.7450607,4.38333539 23.9142904,7.42947152 L23.9142904,7.42947152 L25.7200314,39.9328083 C25.8961329,43.1026363 23.4692382,45.815048 20.2994103,45.9911496 C20.1932259,45.9970487 20.0868983,46 19.9805502,46 L19.9805502,46 L9.01944981,46 C5.84473394,46 3.27111823,43.4263843 3.27111823,40.2516684 C3.27111823,40.1453203 3.2740695,40.0389927 3.27996863,39.9328083 L3.27996863,39.9328083 L5.08570956,7.42947152 C5.25493935,4.38333539 7.77435741,2 10.8251907,2 L10.8251907,2 Z M18.1748093,4 L10.8251907,4 C8.83582483,4 7.19298043,5.55410856 7.08263027,7.54041156 L7.08263027,7.54041156 L5.27688933,40.0437484 C5.27304267,40.1129883 5.27111823,40.1823217 5.27111823,40.2516684 C5.27111823,42.3218148 6.94930344,44 9.01944981,44 L9.01944981,44 L19.9805502,44 L20.1884702,43.9942289 C22.2554293,43.8793978 23.8379417,42.1107075 23.7231107,40.0437484 L23.7231107,40.0437484 L21.9173697,7.54041156 C21.8070196,5.55410856 20.1641752,4 18.1748093,4 L18.1748093,4 Z M14,35 C15.6568542,35 17,36.3431458 17,38 C17,39.6568542 15.6568542,41 14,41 C12.3431458,41 11,39.6568542 11,38 C11,36.3431458 12.3431458,35 14,35 Z M14,27 C15.1045695,27 16,27.8954305 16,29 C16,30.1045695 15.1045695,31 14,31 C12.8954305,31 12,30.1045695 12,29 C12,27.8954305 12.8954305,27 14,27 Z M35.4126023,12.5841686 C37.0976813,14.2692476 38.011086,16.4337989 37.8236399,18.3404829 C37.7696053,18.890118 37.2802343,19.2918815 36.7305993,19.2378469 C36.1809642,19.1838123 35.7792006,18.6944413 35.8332353,18.1448063 C35.9576846,16.8789193 35.2851287,15.2851221 33.9983887,13.9983821 C32.7159203,12.7159137 31.1217788,12.0446053 29.8533857,12.1669566 C29.3036526,12.2199847 28.8150181,11.8173258 28.76199,11.2675927 C28.7089618,10.7178596 29.1116207,10.2292251 29.6613538,10.176197 C31.5679182,9.99228668 33.7320625,10.9036288 35.4126023,12.5841686 Z M30.7071068,17.2928932 C31.0976311,17.6834175 31.0976311,18.3165825 30.7071068,18.7071068 C30.3165825,19.0976311 29.6834175,19.0976311 29.2928932,18.7071068 C28.9023689,18.3165825 28.9023689,17.6834175 29.2928932,17.2928932 C29.6834175,16.9023689 30.3165825,16.9023689 30.7071068,17.2928932 Z M40.6218915,6.87924179 C43.6457486,9.90309888 45.2150688,13.8255018 44.7959225,17.2531156 C44.7288856,17.8013167 44.2301367,18.1913774 43.6819355,18.1243405 C43.1337344,18.0573037 42.7436736,17.5585547 42.8107105,17.0103536 C43.1504035,14.2324779 41.8190312,10.9048086 39.207678,8.29345535 C36.5948359,5.68061326 33.2672418,4.34873587 30.4899925,4.68927205 C29.9418133,4.75648779 29.4429371,4.36658983 29.3757213,3.81841058 C29.3085056,3.27023133 29.6984035,2.77135512 30.2465828,2.70413938 C33.6740336,2.28387786 37.5965068,3.85385705 40.6218915,6.87924179 Z"/>
    </g>
    <path fill="#239A98" d="M12.819426,-5.17920154e-16 L77.180574,5.17920154e-16 C81.6381677,-3.00926524e-16 83.2545989,0.464128056 84.8842285,1.33566352 C86.5138581,2.20719898 87.792801,3.48614185 88.6643365,5.11577148 C89.5358719,6.74540111 90,8.3618323 90,12.819426 L90,77.180574 C90,81.6381677 89.5358719,83.2545989 88.6643365,84.8842285 C87.792801,86.5138581 86.5138581,87.792801 84.8842285,88.6643365 C83.2545989,89.5358719 81.6381677,90 77.180574,90 L12.819426,90 C8.3618323,90 6.74540111,89.5358719 5.11577148,88.6643365 C3.48614185,87.792801 2.20719898,86.5138581 1.33566352,84.8842285 C0.464128056,83.2545989 2.00617683e-16,81.6381677 -3.45280103e-16,77.180574 L3.45280103e-16,12.819426 C-2.00617683e-16,8.3618323 0.464128056,6.74540111 1.33566352,5.11577148 C2.20719898,3.48614185 3.48614185,2.20719898 5.11577148,1.33566352 C6.74540111,0.464128056 8.3618323,3.00926524e-16 12.819426,-5.17920154e-16 Z"/>
    <g transform="translate(21 21)">
      <rect width="48" height="48"/>
      <path fill="#FFF" d="M18.1748093,2 C21.2256426,2 23.7450607,4.38333539 23.9142904,7.42947152 L23.9142904,7.42947152 L25.7200314,39.9328083 C25.8961329,43.1026363 23.4692382,45.815048 20.2994103,45.9911496 C20.1932259,45.9970487 20.0868983,46 19.9805502,46 L19.9805502,46 L9.01944981,46 C5.84473394,46 3.27111823,43.4263843 3.27111823,40.2516684 C3.27111823,40.1453203 3.2740695,40.0389927 3.27996863,39.9328083 L3.27996863,39.9328083 L5.08570956,7.42947152 C5.25493935,4.38333539 7.77435741,2 10.8251907,2 L10.8251907,2 Z M18.1748093,4 L10.8251907,4 C8.83582483,4 7.19298043,5.55410856 7.08263027,7.54041156 L7.08263027,7.54041156 L5.27688933,40.0437484 C5.27304267,40.1129883 5.27111823,40.1823217 5.27111823,40.2516684 C5.27111823,42.3218148 6.94930344,44 9.01944981,44 L9.01944981,44 L19.9805502,44 L20.1884702,43.9942289 C22.2554293,43.8793978 23.8379417,42.1107075 23.7231107,40.0437484 L23.7231107,40.0437484 L21.9173697,7.54041156 C21.8070196,5.55410856 20.1641752,4 18.1748093,4 L18.1748093,4 Z M14,35 C15.6568542,35 17,36.3431458 17,38 C17,39.6568542 15.6568542,41 14,41 C12.3431458,41 11,39.6568542 11,38 C11,36.3431458 12.3431458,35 14,35 Z M14,27 C15.1045695,27 16,27.8954305 16,29 C16,30.1045695 15.1045695,31 14,31 C12.8954305,31 12,30.1045695 12,29 C12,27.8954305 12.8954305,27 14,27 Z M35.4126023,12.5841686 C37.0976813,14.2692476 38.011086,16.4337989 37.8236399,18.3404829 C37.7696053,18.890118 37.2802343,19.2918815 36.7305993,19.2378469 C36.1809642,19.1838123 35.7792006,18.6944413 35.8332353,18.1448063 C35.9576846,16.8789193 35.2851287,15.2851221 33.9983887,13.9983821 C32.7159203,12.7159137 31.1217788,12.0446053 29.8533857,12.1669566 C29.3036526,12.2199847 28.8150181,11.8173258 28.76199,11.2675927 C28.7089618,10.7178596 29.1116207,10.2292251 29.6613538,10.176197 C31.5679182,9.99228668 33.7320625,10.9036288 35.4126023,12.5841686 Z M30.7071068,17.2928932 C31.0976311,17.6834175 31.0976311,18.3165825 30.7071068,18.7071068 C30.3165825,19.0976311 29.6834175,19.0976311 29.2928932,18.7071068 C28.9023689,18.3165825 28.9023689,17.6834175 29.2928932,17.2928932 C29.6834175,16.9023689 30.3165825,16.9023689 30.7071068,17.2928932 Z M40.6218915,6.87924179 C43.6457486,9.90309888 45.2150688,13.8255018 44.7959225,17.2531156 C44.7288856,17.8013167 44.2301367,18.1913774 43.6819355,18.1243405 C43.1337344,18.0573037 42.7436736,17.5585547 42.8107105,17.0103536 C43.1504035,14.2324779 41.8190312,10.9048086 39.207678,8.29345535 C36.5948359,5.68061326 33.2672418,4.34873587 30.4899925,4.68927205 C29.9418133,4.75648779 29.4429371,4.36658983 29.3757213,3.81841058 C29.3085056,3.27023133 29.6984035,2.77135512 30.2465828,2.70413938 C33.6740336,2.28387786 37.5965068,3.85385705 40.6218915,6.87924179 Z"/>
    </g>
  </g>
</svg>
