<svg xmlns="http://www.w3.org/2000/svg" viewBox="0 0 23 23"><defs><style>.cls-1{fill:#8c8d8e;fill-rule:evenodd;}</style></defs><title>Asset 1</title><g id="Layer_2" data-name="Layer 2"><g id="Layer_1-2" data-name="Layer 1"><path class="cls-1" d="M22.54,4.09A4.11,4.11,0,0,0,19,.47,53.35,53.35,0,0,0,11.5,0,53.35,53.35,0,0,0,4.05.47,4.11,4.11,0,0,0,.46,4.09,61.5,61.5,0,0,0,0,11.5a61.5,61.5,0,0,0,.46,7.41,4.11,4.11,0,0,0,3.59,3.62A53.35,53.35,0,0,0,11.5,23,53.35,53.35,0,0,0,19,22.53a4.11,4.11,0,0,0,3.59-3.62A61.5,61.5,0,0,0,23,11.5,61.5,61.5,0,0,0,22.54,4.09ZM19.49,16.86a3,3,0,0,1-2.6,2.62,38.65,38.65,0,0,1-5.39.34,38.65,38.65,0,0,1-5.39-.34,3,3,0,0,1-2.6-2.62,45,45,0,0,1-.33-5.36,45,45,0,0,1,.33-5.36,3,3,0,0,1,2.6-2.62,38.65,38.65,0,0,1,5.39-.34,38.65,38.65,0,0,1,5.39.34,3,3,0,0,1,2.6,2.62,45,45,0,0,1,.33,5.36A45,45,0,0,1,19.49,16.86ZM16.17,9.28V8.08c0-.11-.14-.14-.14-.14a6.88,6.88,0,0,0-1.72-.25,6.77,6.77,0,0,0-1.61.16.18.18,0,0,0-.13.16V9.19c0,.22.15.16.15.16a8.91,8.91,0,0,1,1.58-.09,10.43,10.43,0,0,1,1.7.16.13.13,0,0,0,.17-.14m-5.83-.71c0-1.5-1.79-1.5-1.79-1.5s-1.8,0-1.8,1.5,1.8,1.51,1.8,1.51,1.79,0,1.79-1.51m1.17,7.5a8.38,8.38,0,0,1-4.83-1.82.69.69,0,0,1-.21-.38v-.61c0-.31.24-.15.24-.15a9.24,9.24,0,0,0,4.8,1.39,9.24,9.24,0,0,0,4.8-1.39s.23-.16.23.15v.61a.69.69,0,0,1-.2.38,8.42,8.42,0,0,1-4.83,1.82"/></g></g></svg>
