<?xml version="1.0" encoding="UTF-8"?>
<svg width="199px" height="254px" viewBox="0 0 199 254" version="1.1" xmlns="http://www.w3.org/2000/svg" xmlns:xlink="http://www.w3.org/1999/xlink">
    <!-- Generator: Sketch 60 (88103) - https://sketch.com -->
    <title>Illustration / Flow / Mobile / Internet Modem Check / Activate</title>
    <desc>Created with Sketch.</desc>
    <defs>
        <polygon id="path-1" points="8.29268293e-06 0.00945985401 16.9910854 0.00945985401 16.9910854 17.9562044 8.29268293e-06 17.9562044"></polygon>
    </defs>
    <g id="Illustration-/-Flow-/-Mobile-/-Internet-Modem-Check-/-Activate" stroke="none" stroke-width="1" fill="none" fill-rule="evenodd">
        <g id="Group">
            <g id="Internet-Modem" transform="translate(52.000000, 88.000000)">
                <g id="Group-Copy">
                    <path d="M1.75,20.7773973 L1.75,7.78082192 C1.75,4.40058555 3.50120707,1.75 5.48,1.75 L52.52,1.75 C54.4987929,1.75 56.25,4.40058555 56.25,7.78082192 L56.25,159.219178 C56.25,162.599414 54.4987929,165.25 52.52,165.25 L5.48,165.25 C3.50120707,165.25 1.75,162.599414 1.75,159.219178 L1.75,28.2491037 C1.75,27.8348901 1.41421356,27.4991037 1,27.4991037 C0.585786438,27.4991037 0.25,27.8348901 0.25,28.2491037 L0.25,159.219178 C0.25,163.328831 2.51032157,166.75 5.48,166.75 L52.52,166.75 C55.4896784,166.75 57.75,163.328831 57.75,159.219178 L57.75,7.78082192 C57.75,3.67116921 55.4896784,0.25 52.52,0.25 L5.48,0.25 C2.51032157,0.25 0.25,3.67116921 0.25,7.78082192 L0.25,20.7773973 C0.25,21.1916108 0.585786438,21.5273973 1,21.5273973 C1.41421356,21.5273973 1.75,21.1916108 1.75,20.7773973 Z" id="Path-Copy" fill="#239A98" fill-rule="nonzero"></path>
                    <path d="M29,134.5 C31.4852814,134.5 33.5,136.514719 33.5,139 L33.5,151 C33.5,153.485281 31.4852814,155.5 29,155.5 C26.5147186,155.5 24.5,153.485281 24.5,151 L24.5,139 C24.5,136.514719 26.5147186,134.5 29,134.5 Z M29,135.5 C27.0670034,135.5 25.5,137.067003 25.5,139 L25.5,151 C25.5,152.932997 27.0670034,154.5 29,154.5 C30.9329966,154.5 32.5,152.932997 32.5,151 L32.5,139 C32.5,137.067003 30.9329966,135.5 29,135.5 Z" id="Rectangle" fill="#979797" fill-rule="nonzero" transform="translate(29.000000, 145.000000) rotate(-270.000000) translate(-29.000000, -145.000000) "></path>
                    <g id="smilie" transform="translate(21.000000, 16.000000)">
                        <g id="Group-3">
                            <mask id="mask-2" fill="white">
                                <use xlink:href="#path-1"></use>
                            </mask>
                            <g id="Clip-2"></g>
                            <path d="M14.3987595,13.167854 C14.2756546,14.239927 13.4931985,15.0837372 12.4781741,15.2133285 C12.4781741,15.2133285 10.8669059,15.4771533 8.49548878,15.4771533 C6.12390585,15.4771533 4.51280341,15.2133285 4.51280341,15.2133285 C3.49786195,15.0837372 2.71553024,14.239927 2.59217659,13.167854 C2.59217659,13.1675912 2.34704488,11.2559124 2.34704488,8.98265693 C2.34704488,6.70940146 2.59217659,4.79776642 2.59217659,4.79745985 C2.71553024,3.72564964 3.49786195,2.88183942 4.51280341,2.75251095 C4.51280341,2.75251095 6.12390585,2.48842336 8.49548878,2.48842336 C10.8669059,2.48842336 12.4781741,2.75251095 12.4781741,2.75251095 C13.4931985,2.88183942 14.2756546,3.72564964 14.3987595,4.79745985 C14.3987595,4.79776642 14.6443059,6.70940146 14.6443059,8.98265693 C14.6443059,11.2559124 14.3987595,13.1675912 14.3987595,13.167854 M16.6521717,3.19992701 C16.4819229,1.7190219 15.4009717,0.552832117 13.9982229,0.374145985 C13.9982229,0.374145985 11.772218,0.00945985401 8.49548878,0.00945985401 C5.21871805,0.00945985401 2.99254732,0.374145985 2.99254732,0.374145985 C1.59008878,0.552832117 0.509054634,1.7190219 0.33888878,3.19992701 C0.33876439,3.20018978 8.29268293e-06,5.84194161 8.29268293e-06,8.98265693 C8.29268293e-06,12.123635 0.33876439,14.7652555 0.33888878,14.7655182 C0.509054634,16.2465547 1.59008878,17.4125255 2.99254732,17.5914745 C2.99254732,17.5914745 5.21871805,17.9562044 8.49548878,17.9562044 C11.772218,17.9562044 13.9982229,17.5914745 13.9982229,17.5914745 C15.4009717,17.4125255 16.4819229,16.2465547 16.6521717,14.7655182 C16.6521717,14.7652555 16.9910937,12.123635 16.9910937,8.98265693 C16.9910937,5.84194161 16.6521717,3.20018978 16.6521717,3.19992701" id="Fill-1" fill="#C5C6C6" mask="url(#mask-2)"></path>
                        </g>
                        <path d="M9.45918805,7.53719818 C9.81445662,7.49824254 10.1619743,7.48128933 10.5768253,7.48716481 C10.9784402,7.49380533 11.401996,7.52361114 11.7772578,7.57679646 C11.7772578,7.57679646 11.9,7.59934973 11.9,7.49839554 L11.9,6.84686005 C11.9,6.78712602 11.8015837,6.76839793 11.8015837,6.76839793 C11.3903498,6.68528439 10.9827727,6.63883139 10.5797667,6.63216027 C10.2000927,6.62701923 9.82177027,6.6559682 9.44400427,6.71937441 C9.44400427,6.71937441 9.35,6.74183587 9.35,6.8057317 L9.35,7.45016766 C9.35,7.56978873 9.45918805,7.53719818 9.45918805,7.53719818" id="Fill-4" fill="#C5C6C6"></path>
                        <path d="M6.375,7.57894737 C6.375,7.57894737 7.65,7.57760629 7.65,6.63126132 C7.65,5.6855869 6.375,5.68421053 6.375,5.68421053 C6.375,5.68421053 5.1,5.6855869 5.1,6.63126132 C5.1,7.57760629 6.375,7.57894737 6.375,7.57894737" id="Fill-6" fill="#C5C6C6"></path>
                        <path d="M12.5730967,10.449039 C12.0998336,10.6961584 10.7177448,11.3256823 8.92504265,11.3256823 C7.13225515,11.3256823 5.7504223,10.6961584 5.27698856,10.449039 C5.27698856,10.449039 5.1,10.3448918 5.1,10.5384143 L5.1,10.9249989 C5.1,11.0410487 5.25583523,11.1634748 5.25583523,11.1634748 C5.72295708,11.4664582 7.18547966,12.3151164 8.92504265,12.3157895 C10.664435,12.3151164 12.1262753,11.4664582 12.5942501,11.1634748 C12.5942501,11.1634748 12.75,11.0410487 12.75,10.9249989 L12.75,10.5384143 C12.75,10.3448918 12.5730967,10.449039 12.5730967,10.449039" id="Fill-8" fill="#C5C6C6"></path>
                    </g>
                    <line x1="52" y1="86.5" x2="53" y2="86.5" id="Line-Copy-2" stroke="#CFCFCF" stroke-linecap="round"></line>
                </g>
                <path d="M29,125.5 C32.0375661,125.5 34.5,127.962434 34.5,131 C34.5,134.037566 32.0375661,136.5 29,136.5 C25.9624339,136.5 23.5,134.037566 23.5,131 C23.5,127.962434 25.9624339,125.5 29,125.5 Z M29,126.5 C26.5147186,126.5 24.5,128.514719 24.5,131 C24.5,133.485281 26.5147186,135.5 29,135.5 C31.4852814,135.5 33.5,133.485281 33.5,131 C33.5,128.514719 31.4852814,126.5 29,126.5 Z" id="Rectangle-Copy-3" fill="#979797" fill-rule="nonzero"></path>
                <path d="M29,44.5 C30.3807119,44.5 31.5,45.6192881 31.5,47 C31.5,48.3807119 30.3807119,49.5 29,49.5 C27.6192881,49.5 26.5,48.3807119 26.5,47 C26.5,45.6192881 27.6192881,44.5 29,44.5 Z M29,45.5 C28.1715729,45.5 27.5,46.1715729 27.5,47 C27.5,47.8284271 28.1715729,48.5 29,48.5 C29.8284271,48.5 30.5,47.8284271 30.5,47 C30.5,46.1715729 29.8284271,45.5 29,45.5 Z" id="Oval" fill="#979797" fill-rule="nonzero"></path>
                <path d="M29,52.5 C30.3807119,52.5 31.5,53.6192881 31.5,55 C31.5,56.3807119 30.3807119,57.5 29,57.5 C27.6192881,57.5 26.5,56.3807119 26.5,55 C26.5,53.6192881 27.6192881,52.5 29,52.5 Z M29,53.5 C28.1715729,53.5 27.5,54.1715729 27.5,55 C27.5,55.8284271 28.1715729,56.5 29,56.5 C29.8284271,56.5 30.5,55.8284271 30.5,55 C30.5,54.1715729 29.8284271,53.5 29,53.5 Z" id="Oval-Copy-7" fill="#979797" fill-rule="nonzero"></path>
                <path d="M29,60.5 C30.3807119,60.5 31.5,61.6192881 31.5,63 C31.5,64.3807119 30.3807119,65.5 29,65.5 C27.6192881,65.5 26.5,64.3807119 26.5,63 C26.5,61.6192881 27.6192881,60.5 29,60.5 Z M29,61.5 C28.1715729,61.5 27.5,62.1715729 27.5,63 C27.5,63.8284271 28.1715729,64.5 29,64.5 C29.8284271,64.5 30.5,63.8284271 30.5,63 C30.5,62.1715729 29.8284271,61.5 29,61.5 Z" id="Oval-Copy-8" fill="#979797" fill-rule="nonzero"></path>
                <path d="M29,69.5 C30.3807119,69.5 31.5,70.6192881 31.5,72 C31.5,73.3807119 30.3807119,74.5 29,74.5 C27.6192881,74.5 26.5,73.3807119 26.5,72 C26.5,70.6192881 27.6192881,69.5 29,69.5 Z M29,70.5 C28.1715729,70.5 27.5,71.1715729 27.5,72 C27.5,72.8284271 28.1715729,73.5 29,73.5 C29.8284271,73.5 30.5,72.8284271 30.5,72 C30.5,71.1715729 29.8284271,70.5 29,70.5 Z" id="Oval-Copy-9" fill="#979797" fill-rule="nonzero"></path>
                <path d="M29,77.5 C30.3807119,77.5 31.5,78.6192881 31.5,80 C31.5,81.3807119 30.3807119,82.5 29,82.5 C27.6192881,82.5 26.5,81.3807119 26.5,80 C26.5,78.6192881 27.6192881,77.5 29,77.5 Z M29,78.5 C28.1715729,78.5 27.5,79.1715729 27.5,80 C27.5,80.8284271 28.1715729,81.5 29,81.5 C29.8284271,81.5 30.5,80.8284271 30.5,80 C30.5,79.1715729 29.8284271,78.5 29,78.5 Z" id="Oval-Copy-10" fill="#979797" fill-rule="nonzero"></path>
            </g>
            <circle id="Oval-Copy-2" fill="#F2F2F2" cx="15" cy="30" r="15"></circle>
            <circle id="Oval-Copy-4" fill="#F2F2F2" cx="167" cy="30" r="10"></circle>
            <circle id="Oval-Copy-4" fill="#239A98" cx="189" cy="166" r="10"></circle>
            <circle id="Oval-Copy" fill="#239A98" cx="48" cy="3" r="3"></circle>
            <circle id="Oval-Copy-3" fill="#C5C6C6" cx="161" cy="112" r="2"></circle>
        </g>
    </g>
</svg>