<svg width="80" height="80" viewBox="0 0 80 80" fill="none" xmlns="http://www.w3.org/2000/svg">
<path fill-rule="evenodd" clip-rule="evenodd" d="M65.9085 1.62583C65.9085 1.62583 55.4277 0 39.9999 0C24.5715 0 14.0899 1.62583 14.0899 1.62583C7.48666 2.42215 2.39677 7.62078 1.59557 14.2221C1.59498 14.2231 0 25.999 0 39.9993C0 54.0006 1.59498 65.7758 1.59557 65.7771C2.39677 72.3788 7.48666 77.5765 14.0899 78.374C14.0899 78.374 24.5715 80 39.9999 80C55.4277 80 65.9085 78.374 65.9085 78.374C72.5132 77.5765 77.6026 72.3788 78.4042 65.7771C78.4042 65.7758 80 54.0006 80 39.9993C80 25.999 78.4042 14.2231 78.4042 14.2221C77.6026 7.62078 72.5132 2.42215 65.9085 1.62583Z" fill="#FFF7C7"/>
<path d="M30.8396 28.4916C27.9916 28.0588 25.7689 29.8536 25.7763 32.0634C25.7826 33.9726 26.035 35.8811 26.5334 37.7411C27.543 41.509 29.5266 44.9448 32.2849 47.7031C35.0432 50.4614 38.4789 52.445 42.2468 53.4546C44.1068 53.9529 46.0153 54.2053 47.9245 54.2116C50.1344 54.219 51.9291 51.9963 51.4963 49.1484L50.9148 45.3229H46.5832L45.3008 48.9025C44.9887 49.7736 44.0607 50.2596 43.167 50.0202C40.002 49.1721 37.116 47.5059 34.7991 45.1889C32.4821 42.872 30.8158 39.9859 29.9678 36.8209C29.7283 35.9272 30.2144 34.9992 31.0854 34.6872L34.665 33.4047L34.665 29.0731L30.8396 28.4916ZM22.2207 32.0752C22.204 27.0398 27.0588 24.3206 31.3738 24.9765L35.1993 25.5579C36.9367 25.822 38.2206 27.3157 38.2206 29.0731V33.4047C38.2206 34.906 37.2776 36.2456 35.8642 36.7519L33.9092 37.4523C34.6664 39.4053 35.8237 41.1853 37.3132 42.6748C38.8027 44.1643 40.5827 45.3215 42.5356 46.0787L43.236 44.1237C43.7424 42.7103 45.0819 41.7673 46.5832 41.7673H50.9148C52.6722 41.7673 54.1659 43.0512 54.43 44.7886L55.0115 48.6141C55.6673 52.9291 52.9481 57.7839 47.9127 57.7672C45.6981 57.7598 43.4841 57.4671 41.3265 56.889C36.9558 55.7178 32.9704 53.4169 29.7707 50.2173C26.5711 47.0176 24.2701 43.0322 23.099 38.6614C22.5208 36.5038 22.2281 34.2898 22.2207 32.0752Z" fill="#291D18"/>
</svg>
