<?xml version="1.0" encoding="UTF-8"?>
<svg width="90px" height="90px" viewBox="0 0 90 90" version="1.1" xmlns="http://www.w3.org/2000/svg" xmlns:xlink="http://www.w3.org/1999/xlink">
    <title>Group 4</title>
    <g id="🟢-All-Journeys" stroke="none" stroke-width="1" fill="none" fill-rule="evenodd">
        <g id="10.00-Manage-Options-Chill---Chill-options-plan-(Not-activated)" transform="translate(-330.000000, -1475.000000)">
            <g id="Group-4" transform="translate(330.000000, 1475.000000)">
                <path d="M12.819426,-5.17920154e-16 L77.180574,5.17920154e-16 C81.6381677,-3.00926524e-16 83.2545989,0.464128056 84.8842285,1.33566352 C86.5138581,2.20719898 87.792801,3.48614185 88.6643365,5.11577148 C89.5358719,6.74540111 90,8.3618323 90,12.819426 L90,77.180574 C90,81.6381677 89.5358719,83.2545989 88.6643365,84.8842285 C87.792801,86.5138581 86.5138581,87.792801 84.8842285,88.6643365 C83.2545989,89.5358719 81.6381677,90 77.180574,90 L12.819426,90 C8.3618323,90 6.74540111,89.5358719 5.11577148,88.6643365 C3.48614185,87.792801 2.20719898,86.5138581 1.33566352,84.8842285 C0.464128056,83.2545989 2.00617683e-16,81.6381677 -3.45280103e-16,77.180574 L3.45280103e-16,12.819426 C-2.00617683e-16,8.3618323 0.464128056,6.74540111 1.33566352,5.11577148 C2.20719898,3.48614185 3.48614185,2.20719898 5.11577148,1.33566352 C6.74540111,0.464128056 8.3618323,3.00926524e-16 12.819426,-5.17920154e-16 Z" id="Rectangle-Copy-3" fill="#239A98"></path>
                <g id="Group-2" transform="translate(21.000000, 21.000000)">
                    <rect id="Rectangle" x="0" y="0" width="48" height="48"></rect>
                    <rect id="Rectangle" stroke="#FFFFFF" stroke-width="2" stroke-linejoin="round" x="10" y="18" width="28" height="24" rx="4"></rect>
                    <path d="M18,18 L18,11.1428571 C18,8.30253557 20.6862915,6 24,6 C27.3137085,6 30,8.30253557 30,11.1428571 L30,18" id="Path" stroke="#FFFFFF" stroke-width="2" stroke-linejoin="round"></path>
                    <circle id="Oval" stroke="#FFFFFF" stroke-width="2" cx="24" cy="28" r="4"></circle>
                    <line x1="24" y1="36" x2="24" y2="32" id="Path-68" stroke="#FFFFFF" stroke-width="2" stroke-linecap="round"></line>
                </g>
            </g>
        </g>
    </g>
</svg>