<?xml version="1.0" encoding="UTF-8"?>
<svg width="46px" height="77px" viewBox="0 0 46 77" version="1.1" xmlns="http://www.w3.org/2000/svg" xmlns:xlink="http://www.w3.org/1999/xlink">
    <title>Group 2</title>
    <g id="Page-1" stroke="none" stroke-width="1" fill="none" fill-rule="evenodd">
        <g id="Group-2" transform="translate(1.000000, 0.000000)">
            <path d="M7,76 L4,76 C1.790861,76 0,74.209139 0,72 L0,48 C0,45.790861 1.790861,44 4,44 L4,44 L40,44 C42.209139,44 44,45.790861 44,48 L44,72 C44,74.209139 42.209139,76 40,76 L11,76" id="Path" stroke="#8C8D8E" stroke-width="2" stroke-linecap="round"></path>
            <circle id="Oval" stroke="#8C8D8E" cx="22" cy="60" r="12"></circle>
            <line x1="16" y1="60" x2="28" y2="60" id="Line-15" stroke="#8C8D8E" stroke-linecap="round"></line>
            <line x1="16" y1="60" x2="28" y2="60" id="Line-15" stroke="#8C8D8E" stroke-linecap="round" transform="translate(22.000000, 60.000000) rotate(-270.000000) translate(-22.000000, -60.000000) "></line>
            <circle id="Oval" fill="#8C8D8E" cx="38" cy="50" r="2"></circle>
            <path d="M11,44 L11.3372187,42.6511253 C11.7267398,41.0930408 13.1266807,40 14.7327174,40 C20.0564617,40 22.3682935,40 24.1237793,40 M27,40 C27.5038406,40 28.2596014,40 29.2672826,40 C30.8733193,40 32.2732602,41.0930408 32.6627813,42.6511253 L33,44" id="Shape" stroke="#8C8D8E" stroke-width="2" stroke-linecap="round"></path>
            <line x1="21.5" y1="24" x2="21.5" y2="0" id="Path-7-Copy-11" stroke="#8C8D8E" stroke-dasharray="2,2" transform="translate(21.500000, 12.000000) scale(1, -1) translate(-21.500000, -12.000000) "></line>
        </g>
    </g>
</svg>