<?xml version="1.0" encoding="UTF-8"?>
<svg width="338px" height="142px" viewBox="0 0 338 142" version="1.1" xmlns="http://www.w3.org/2000/svg" xmlns:xlink="http://www.w3.org/1999/xlink">
    <!-- Generator: Sketch 59 (86127) - https://sketch.com -->
    <title>Admin / Illustrations / Large / Error  Copy</title>
    <desc>Created with Sketch.</desc>
    <defs>
        <path d="M12,3.25 C15.1385468,3.25 17.9960781,4.84708788 20.5261093,7.48037983 C21.3975658,8.38740399 22.1682394,9.35668158 22.8320859,10.3263043 C23.0648489,10.666281 23.2680086,10.98265 23.4406591,11.2676712 C23.5017063,11.3684512 23.5547539,11.4584506 23.5996839,11.5367003 C23.6248893,11.580801 23.6248893,11.580801 23.6416521,11.6106308 C23.7806293,11.8644492 23.7806293,12.1355508 23.658112,12.3597062 C23.6187598,12.4317044 23.5459571,12.558497 23.4406591,12.7323288 C23.2680086,13.01735 23.0648489,13.333719 22.8320859,13.6736957 C22.1682394,14.6433184 21.3975658,15.612596 20.5261093,16.5196202 C17.9960781,19.1529121 15.1385468,20.75 12,20.75 C8.86145315,20.75 6.00392186,19.1529121 3.47389067,16.5196202 C2.60243416,15.612596 1.83176057,14.6433184 1.1679141,13.6736957 C0.935151113,13.333719 0.731991355,13.01735 0.559340857,12.7323288 C0.498293749,12.6315488 0.445246099,12.5415494 0.400316103,12.4632997 C0.375110736,12.419199 0.375110736,12.419199 0.358347918,12.3893692 C0.21937068,12.1355508 0.21937068,11.8644492 0.34188796,11.6402938 C0.381240242,11.5682956 0.454042933,11.441503 0.559340857,11.2676712 C0.731991355,10.98265 0.935151113,10.666281 1.1679141,10.3263043 C1.83176057,9.35668158 2.60243416,8.38740399 3.47389067,7.48037983 C6.00392186,4.84708788 8.86145315,3.25 12,3.25 Z M12,4.75 C9.33955697,4.75 6.82944758,6.15291212 4.55554658,8.51962017 C3.74562682,9.36259601 3.02548602,10.2683184 2.40562487,11.1736957 C2.20136456,11.4720409 2.02235603,11.7496818 1.86957472,12 C2.02235603,12.2503182 2.20136456,12.5279591 2.40562487,12.8263043 C3.02548602,13.7316816 3.74562682,14.637404 4.55554658,15.4803798 C6.82944758,17.8470879 9.33955697,19.25 12,19.25 C14.660443,19.25 17.1705524,17.8470879 19.4444534,15.4803798 C20.2543732,14.637404 20.974514,13.7316816 21.5943751,12.8263043 C21.7986354,12.5279591 21.977644,12.2503182 22.1304253,12 C21.977644,11.7496818 21.7986354,11.4720409 21.5943751,11.1736957 C20.974514,10.2683184 20.2543732,9.36259601 19.4444534,8.51962017 C17.1705524,6.15291212 14.660443,4.75 12,4.75 Z M12,6.25 C15.1756373,6.25 17.75,8.82436269 17.75,12 C17.75,15.1756373 15.1756373,17.75 12,17.75 C8.82436269,17.75 6.25,15.1756373 6.25,12 C6.25,8.82436269 8.82436269,6.25 12,6.25 Z M12,7.75 C9.65278981,7.75 7.75,9.65278981 7.75,12 C7.75,14.3472102 9.65278981,16.25 12,16.25 C14.3472102,16.25 16.25,14.3472102 16.25,12 C16.25,9.65278981 14.3472102,7.75 12,7.75 Z M12,9.25 C13.5187831,9.25 14.75,10.4812169 14.75,12 C14.75,13.5187831 13.5187831,14.75 12,14.75 C10.4812169,14.75 9.25,13.5187831 9.25,12 C9.25,11.5857864 9.58578644,11.25 10,11.25 C10.4142136,11.25 10.75,11.5857864 10.75,12 C10.75,12.6903559 11.3096441,13.25 12,13.25 C12.6903559,13.25 13.25,12.6903559 13.25,12 C13.25,11.3096441 12.6903559,10.75 12,10.75 C11.5857864,10.75 11.25,10.4142136 11.25,10 C11.25,9.58578644 11.5857864,9.25 12,9.25 Z" id="path-1"></path>
        <filter x="0.0%" y="0.0%" width="100.0%" height="100.0%" filterUnits="objectBoundingBox" id="filter-3">
            <feGaussianBlur stdDeviation="0" in="SourceGraphic"></feGaussianBlur>
        </filter>
        <filter x="-37.5%" y="-37.5%" width="175.0%" height="175.0%" filterUnits="objectBoundingBox" id="filter-4">
            <feGaussianBlur stdDeviation="1" in="SourceGraphic"></feGaussianBlur>
        </filter>
        <filter x="0.0%" y="0.0%" width="100.0%" height="100.0%" filterUnits="objectBoundingBox" id="filter-5">
            <feGaussianBlur stdDeviation="0" in="SourceGraphic"></feGaussianBlur>
        </filter>
        <filter x="-37.5%" y="-37.5%" width="175.0%" height="175.0%" filterUnits="objectBoundingBox" id="filter-6">
            <feGaussianBlur stdDeviation="1" in="SourceGraphic"></feGaussianBlur>
        </filter>
    </defs>
    <g id="20---Generic-Warning-Message-" stroke="none" stroke-width="1" fill="none" fill-rule="evenodd">
        <g id="20-—-Generic---warning-message" transform="translate(-553.000000, -208.000000)">
            <g id="Group-64-Copy">
                <g id="Group-63">
                    <g id="Group-62" transform="translate(538.000000, 200.000000)">
                        <g id="Group-5">
                            <g id="Illustrations-/-D-/-Large-/-Error--2">
                                <g id="Main-Section" stroke-width="1" fill-rule="evenodd" transform="translate(53.000000, 8.000000)">
                                    <path d="M26.0005477,80.8753201 L26,87.3022247 C26,93.0680268 30.6727241,97.7410736 36.4388489,97.7410736 L36.4388489,97.7410736 L41.4072613,97.7410736 C41.9595461,97.7410736 42.4072613,98.1887889 42.4072613,98.7410736 C42.4072613,99.2933584 41.9595461,99.7410736 41.4072613,99.7410736 L41.4072613,99.7410736 L36.4388489,99.7410736 C29.5681236,99.7410736 24,94.1725654 24,87.3022247 L24,87.3022247 L24.0003218,80.8758007 C24.3195915,80.9579606 24.6542827,81.0016594 24.9991703,81.0016594 C25.3449894,81.0016594 25.6805316,80.9577901 26.0005477,80.8753201 Z M25,61.8551168 C25.5522847,61.8551168 26,62.302832 26,62.8551168 L26,62.8551168 L26.0005477,73.1263393 C25.6805316,73.0438693 25.3449894,73 24.9991703,73 C24.6542827,73 24.3195915,73.0436988 24.0003218,73.1258587 L24,62.8551168 C24,62.302832 24.4477153,61.8551168 25,61.8551168 Z" id="Combined-Shape" fill="#D9415C" fill-rule="nonzero"></path>
                                    <path d="M41.4469961,57.4868148 C37.0604021,61.1854795 31.3939014,63.4144388 25.2066475,63.4144388 C11.2855683,63.4144388 6.43041176e-13,52.1288705 6.43041176e-13,38.2077914 C6.43041176e-13,24.2855683 11.2855683,13 25.2066475,13 L25.2066475,13 C31.6369451,13 37.5047742,15.4075117 41.9579593,19.3703597" id="Path" stroke="#D9415C" stroke-width="3"></path>
                                    <path d="M216.382919,72.3830621 C220.944446,67.8213921 227.246108,65 234.206647,65 L234.206647,65 C248.128871,65 259.414439,76.2855683 259.414439,90.2077914 C259.414439,104.128871 248.128871,115.414439 234.206647,115.414439 C227.246108,115.414439 220.944446,112.593047 216.382919,108.03152" id="Path" stroke="#D9415C" stroke-width="3"></path>
                                    <g id="Icon-/-Medium-/-Eye" transform="translate(13.000000, 26.000000)">
                                        <mask id="mask-2" fill="white">
                                            <use xlink:href="#path-1"></use>
                                        </mask>
                                        <use id="Combined-Shape" fill="#D73754" fill-rule="nonzero" xlink:href="#path-1"></use>
                                    </g>
                                    <g id="Icon-/-Medium-/-Save" transform="translate(222.000000, 78.000000)" fill="#D73754" fill-rule="nonzero">
                                        <path d="M15.9157124,1.25570738 L17.3733752,1.3408564 C18.0931638,1.38290267 18.7676479,1.70595412 19.2515766,2.24044129 L22.0385685,5.31860441 C22.4964386,5.82431046 22.75,6.48214932 22.75,7.16433961 L22.75,19.75 C22.75,21.2687831 21.5187831,22.5 20,22.5 L4,22.5 C2.48121694,22.5 1.25,21.2687831 1.25,19.75 L1.25072068,3.98336701 L1.25072068,3.98336701 C1.28548918,2.46498197 2.5445689,1.26227313 4.06295395,1.29704163 L7.97247161,1.38656312 L8.02308489,1.38669712 L8.02308489,1.38669712 L15.7069499,1.25145334 C15.7765662,1.25022802 15.8462038,1.25164706 15.9157124,1.25570738 Z M16.55,2.79502747 L16.5503302,4.50375209 C16.5503302,6.02253515 15.3191133,7.25375209 13.8003302,7.25375209 L10,7.25375209 C8.48121694,7.25375209 7.25,6.02253515 7.25,4.50375209 L7.249,2.87002747 L4.02861543,2.79664854 C3.33844041,2.78084467 2.76613145,3.32753051 2.75032758,4.01770553 C2.75,4.03201199 2.75,4.03201199 2.75,4.04632096 L2.75,19.75 C2.75,20.4403559 3.30964406,21 4,21 L20,21 C20.6903559,21 21.25,20.4403559 21.25,19.75 L21.25,7.16433961 C21.25,6.85425311 21.1347448,6.55523545 20.9266221,6.32536906 L18.1396301,3.24720594 C17.9196625,3.00425723 17.6130789,2.85741566 17.2859022,2.83830372 L16.55,2.79502747 Z M16.4,10.25 C17.9187831,10.25 19.15,11.4812169 19.15,13 L19.15,16 C19.15,17.5187831 17.9187831,18.75 16.4,18.75 L7.4,18.75 C5.88121694,18.75 4.65,17.5187831 4.65,16 L4.65,13 C4.65,11.4812169 5.88121694,10.25 7.4,10.25 L16.4,10.25 Z M16.4,11.75 L7.4,11.75 C6.70964406,11.75 6.15,12.3096441 6.15,13 L6.15,16 C6.15,16.6903559 6.70964406,17.25 7.4,17.25 L16.4,17.25 C17.0903559,17.25 17.65,16.6903559 17.65,16 L17.65,13 C17.65,12.3096441 17.0903559,11.75 16.4,11.75 Z M15.05,2.76302747 L8.749,2.87402747 L8.75,4.50375209 C8.75,5.19410803 9.30964406,5.75375209 10,5.75375209 L13.8003302,5.75375209 C14.4906861,5.75375209 15.0503302,5.19410803 15.0503302,4.50375209 L15.05,2.76302747 Z" id="Combined-Shape"></path>
                                    </g>
                                    <path d="M232.867045,53.8390154 C233.226004,53.9448573 233.60596,54.0016594 233.99917,54.0016594 C234.297567,54.0016594 234.588311,53.9689969 234.868032,53.9070566 L234.867324,64.8859568 C234.867324,65.4382416 234.419608,65.8859568 233.867324,65.8859568 C233.315039,65.8859568 232.867324,65.4382416 232.867324,64.8859568 L232.867324,64.8859568 Z M222.428475,28 C229.2992,28 234.867324,33.5685083 234.867324,40.4388489 L234.867324,40.4388489 L234.868032,46.0946028 C234.588311,46.0326625 234.297567,46 233.99917,46 C233.60596,46 233.226004,46.0568021 232.867045,46.1626441 L232.867324,40.4388489 C232.867324,34.6730469 228.1946,30 222.428475,30 L222.428475,30 L216.551056,30 C215.998771,30 215.551056,29.5522847 215.551056,29 C215.551056,28.4477153 215.998771,28 216.551056,28 L216.551056,28 Z" id="Combined-Shape" fill="#D9415C" fill-rule="nonzero"></path>
                                    <rect id="Rectangle-8" stroke="#D9415C" stroke-width="3" x="41.5" y="1.5" width="175" height="125" rx="12"></rect>
                                    <line x1="73" y1="140" x2="185" y2="140" id="Line-13" stroke="#D9415C" stroke-width="3" stroke-linecap="round"></line>
                                    <circle id="Oval" fill="#D9415C" fill-rule="nonzero" cx="129" cy="115" r="4"></circle>
                                </g>
                                <circle id="Oval-2-Copy-3" fill="#D9415C" fill-rule="nonzero" filter="url(#filter-3)" cx="21" cy="81" r="6"></circle>
                                <circle id="Oval-2-Copy-4" fill="#D9415C" fill-rule="nonzero" opacity="0.5" filter="url(#filter-4)" cx="46" cy="21" r="4"></circle>
                                <circle id="Oval-2-Copy-6" fill="#D9415C" fill-rule="nonzero" filter="url(#filter-5)" cx="309" cy="28" r="4"></circle>
                                <polygon id="Stroke-68" stroke="#D9415C" stroke-width="3" stroke-linejoin="round" points="181.999441 43 154 91 210 91"></polygon>
                                <polygon id="Stroke-70" fill="#D9415C" fill-rule="nonzero" points="180.5 61 183.5 61 183.5 77 180.5 77"></polygon>
                                <polygon id="Fill-72" stroke="#D9415C" stroke-width="1" fill="#D9415C" fill-rule="evenodd" points="180.5 84 183.5 84 183.5 81 180.5 81"></polygon>
                                <g id="Group" stroke-width="1" fill-rule="evenodd" transform="translate(285.000000, 56.000000)" stroke="#D9415C" stroke-linecap="round">
                                    <line x1="3.78201028" y1="3.78266393" x2="-2.13162821e-13" y2="-7.10542736e-15" id="Stroke-4" stroke-width="2"></line>
                                    <line x1="-2.13162821e-13" y1="3.78266393" x2="3.78201028" y2="-7.10542736e-15" id="Stroke-6" stroke-width="2"></line>
                                </g>
                                <g id="Group-Copy" stroke-width="1" fill-rule="evenodd" transform="translate(76.000000, 83.000000)" stroke-linecap="round">
                                    <line x1="3.78201028" y1="3.78266393" x2="-2.13162821e-13" y2="-7.10542736e-15" id="Stroke-4" stroke="#CB375A" stroke-width="2"></line>
                                    <line x1="-2.13162821e-13" y1="3.78266393" x2="3.78201028" y2="-7.10542736e-15" id="Stroke-6" stroke="#D9415C" stroke-width="2"></line>
                                </g>
                                <circle id="Oval-2-Copy-9" fill="#D9415C" fill-rule="nonzero" cx="333" cy="128" r="8"></circle>
                                <circle id="Oval-2-Copy-10" fill="#D9415C" fill-rule="nonzero" filter="url(#filter-6)" cx="347" cy="105" r="4"></circle>
                                <circle id="Oval-2-Copy-11" fill="#D9415C" fill-rule="nonzero" cx="51" cy="128" r="4"></circle>
                            </g>
                        </g>
                    </g>
                </g>
            </g>
        </g>
    </g>
</svg>