<svg width="160" height="160" viewBox="0 0 160 160" fill="none" xmlns="http://www.w3.org/2000/svg">
<path fill-rule="evenodd" clip-rule="evenodd" d="M33.7778 33.7778H126.222V126.222H33.7778V33.7778ZM37.3334 37.3333V122.667H122.667V37.3333H37.3334Z" fill="#004A47"/>
<path opacity="0.24" fill-rule="evenodd" clip-rule="evenodd" d="M83.5556 83.5555C90.4285 83.5555 96.0001 77.984 96.0001 71.1111C96.0001 64.2382 90.4285 58.6667 83.5556 58.6667C76.6828 58.6667 71.1112 64.2382 71.1112 71.1111C71.1112 77.984 76.6828 83.5555 83.5556 83.5555ZM62.2223 112C62.2223 100.218 71.7735 90.6667 83.5556 90.6667C95.3377 90.6667 104.889 100.218 104.889 112H62.2223Z" fill="#009793"/>
<path fill-rule="evenodd" clip-rule="evenodd" d="M69.3334 67.5555C69.3334 61.6645 74.109 56.8889 80 56.8889C85.8911 56.8889 90.6667 61.6645 90.6667 67.5555C90.6667 73.4466 85.8911 78.2222 80 78.2222C74.109 78.2222 69.3334 73.4466 69.3334 67.5555ZM80 53.3333C72.1453 53.3333 65.7778 59.7008 65.7778 67.5555C65.7778 75.4103 72.1453 81.7778 80 81.7778C87.8547 81.7778 94.2223 75.4103 94.2223 67.5555C94.2223 59.7008 87.8547 53.3333 80 53.3333ZM60.4445 108.444C60.4445 97.6442 69.1998 88.8889 80 88.8889C90.8003 88.8889 99.5556 97.6442 99.5556 108.444H103.111C103.111 95.6805 92.7639 85.3333 80 85.3333C67.2361 85.3333 56.8889 95.6805 56.8889 108.444H60.4445Z" fill="#009793"/>
</svg>
