<svg xmlns="http://www.w3.org/2000/svg" width="116" height="91" viewBox="0 0 116 91">
  <g fill="none" fill-rule="evenodd" transform="translate(2 2)">
    <polygon fill="#AAA" fill-rule="nonzero" points="57.643 69.597 58.525 70.605 46.248 70.605 46.248 69.005 52.387 69.005 57.175 69.005"/>
    <polygon fill="#AAA" fill-rule="nonzero" points="86.657 28.168 88.223 28.5 84.139 47.781 83.33 47.272 82.732 46.703"/>
    <path fill="#AAA" fill-rule="nonzero" d="M19.3525714,28.1854161 L20.9159648,27.8451202 L28.591429,63.1078776 C29.3180287,66.4651983 32.2331879,68.8845304 35.6444859,69.0005494 L35.901237,69.0049108 L40.6188587,69.0049108 L40.6188587,70.6049108 L35.901237,70.6049108 C31.7180179,70.6049108 28.0892371,67.7492712 27.0892992,63.7121915 L27.0278343,63.4472459 L19.3525714,28.1854161 Z"/>
    <polygon fill="#AAA" fill-rule="nonzero" points="10.714 27.686 97.643 27.686 97.643 29.286 10.714 29.286"/>
    <polygon fill="#AAA" fill-rule="nonzero" points="41.518 2.724 42.943 3.451 29.788 29.256 28.363 28.529"/>
    <polygon fill="#AAA" fill-rule="nonzero" points="65.588 3.445 67.017 2.726 80.016 28.534 78.587 29.254"/>
    <path fill="#239A98" fill-rule="nonzero" d="M69.4272,38.904 C76.4619012,38.904 82.7611501,42.9501674 85.7550875,49.1596933 L85.9123004,49.4944053 L84.4572625,50.1598861 C81.788927,44.325714 75.9556864,40.504 69.4272,40.504 C60.3043396,40.504 52.9088,47.8995396 52.9088,57.0224 C52.9088,66.1452604 60.3043396,73.5408 69.4272,73.5408 C78.4439806,73.5408 85.7733772,66.3162498 85.9426091,57.3399298 L85.9456,57.0224 L87.5456,57.0224 C87.5456,67.028916 79.433716,75.1408 69.4272,75.1408 C59.420684,75.1408 51.3088,67.028916 51.3088,57.0224 C51.3088,47.015884 59.420684,38.904 69.4272,38.904 Z"/>
    <polygon fill="#239A98" fill-rule="nonzero" points="70.438 48.332 70.438 65.291 68.838 65.291 68.838 48.332"/>
    <polygon fill="#239A98" fill-rule="nonzero" points="77.83 56.011 77.83 57.611 61.024 57.611 61.024 56.011"/>
    <rect width="11.2" height="6.4" x="81.6" y="-.002" fill="#F2F2F2"/>
    <rect width="11.2" height="6.4" y="35.198" fill="#F2F2F2"/>
    <rect width="11.2" height="6.4" x="24" y="79.998" fill="#AAA"/>
    <rect width="11.2" height="6.4" x="100.8" y="35.198" fill="#F2F2F2"/>
  </g>
</svg>
