<svg xmlns="http://www.w3.org/2000/svg" width="74" height="59" viewBox="0 0 74 59">
  <g fill="none" fill-rule="evenodd" transform="translate(2 2)">
    <polygon fill="#AAA" fill-rule="nonzero" points="36.397 44.753 28.905 44.753 28.905 43.753 35.622 43.753"/>
    <polygon fill="#AAA" fill-rule="nonzero" points="54.161 18.23 55.139 18.437 52.584 30.499 52.05 30.129 51.792 29.412 52.883 24.261"/>
    <path fill="#AAA" fill-rule="nonzero" d="M12.0953571,18.2408851 L13.072478,18.0282001 L17.8696431,40.0674235 C18.3196051,42.1465143 20.1124545,43.6500607 22.219251,43.7479871 L22.4382731,43.7530692 L25.3867867,43.7530692 L25.3867867,44.7530692 L22.4382731,44.7530692 C19.8478739,44.7530692 17.5976364,43.0010635 16.9485217,40.5147416 L16.8923964,40.2795287 L12.0953571,18.2408851 Z"/>
    <polygon fill="#AAA" fill-rule="nonzero" points="6.696 17.928 61.027 17.928 61.027 18.928 6.696 18.928"/>
    <polygon fill="#AAA" fill-rule="nonzero" points="25.948 2.327 26.839 2.782 18.618 18.91 17.727 18.456"/>
    <polygon fill="#AAA" fill-rule="nonzero" points="40.993 2.778 41.886 2.329 50.01 18.459 49.117 18.909"/>
    <path fill="#239A98" fill-rule="nonzero" d="M43.392,24.94 C47.7631261,24.94 51.6799239,27.4395348 53.5640831,31.2822546 L53.6951878,31.5590033 L52.7857891,31.9749288 C51.1180794,28.3285713 47.472304,25.94 43.392,25.94 C37.6902122,25.94 33.068,30.5622122 33.068,36.264 C33.068,41.9657878 37.6902122,46.588 43.392,46.588 C48.998758,46.588 53.5616264,42.1185776 53.7121646,36.5481733 L53.716,36.264 L54.716,36.264 C54.716,42.5180725 49.6460725,47.588 43.392,47.588 C37.1379275,47.588 32.068,42.5180725 32.068,36.264 C32.068,30.0099275 37.1379275,24.94 43.392,24.94 Z"/>
    <polygon fill="#239A98" fill-rule="nonzero" points="44.024 30.832 44.024 41.432 43.024 41.432 43.024 30.832"/>
    <polygon fill="#239A98" fill-rule="nonzero" points="48.644 35.632 48.644 36.632 38.14 36.632 38.14 35.632"/>
    <rect width="7" height="4" x="51" y=".624" fill="#F2F2F2"/>
    <rect width="7" height="4" y="22.624" fill="#F2F2F2"/>
    <rect width="7" height="4" x="15" y="50.624" fill="#AAA"/>
    <rect width="7" height="4" x="63" y="22.624" fill="#F2F2F2"/>
  </g>
</svg>
