<svg width="74" height="58" viewBox="0 0 74 58" fill="none" xmlns="http://www.w3.org/2000/svg">
<path fill-rule="evenodd" clip-rule="evenodd" d="M26.3612 44.9805L25.7097 44.8092C14.1168 41.747 6.40126 38.9054 2.53021 36.258C5.85228 41.9145 17.3154 47.371 36.881 52.5012C36.9704 52.4663 37.0707 52.4567 37.1713 52.4791L48.4879 55.0021C52.3338 55.6751 55.362 54.8761 57.6282 52.6133C59.2998 50.9441 61.7214 48.7036 64.8823 45.9015L67.0484 43.9946L69.4235 41.9291C71.8285 39.4026 71.8284 37.4512 69.4929 35.764C66.9135 33.9007 64.4989 32.4083 62.2501 31.2864C62.003 31.1631 61.9026 30.8629 62.0259 30.6158C62.1492 30.3687 62.4494 30.2683 62.6965 30.3916C64.997 31.5392 67.4573 33.0599 70.0785 34.9534C72.9435 37.023 72.9435 39.6817 70.1129 42.6519C65.3032 46.8148 61.6873 50.0669 59.2677 52.4054L58.7841 52.8762L58.3347 53.321C55.8246 55.8274 52.4663 56.7135 48.2929 55.9826L37.2622 53.5239C37.163 53.5672 37.0491 53.5787 36.9363 53.5493C15.529 47.9642 3.57757 41.9885 1.03428 35.4659C1.0029 35.3855 0.993789 35.3018 1.00395 35.2217C1.00588 35.2065 1.00853 35.1912 1.01191 35.1759C1.08096 34.8638 1.15097 34.5541 1.22195 34.2469C1.20131 34.0049 1.2158 33.7575 1.26826 33.5121L3.39455 23.5647C6.84594 9.0291 16.1558 1 31.3952 1C47.5676 1 60.6781 14.0956 60.6781 30.25V35.9112C60.6781 36.0415 60.6272 36.1667 60.5363 36.2601C51.4037 45.6359 39.9876 48.5452 26.3612 44.9805ZM2.8401 35.2545C2.51592 35.0225 2.30421 34.6769 2.23647 34.2991L2.24005 34.2833L2.49474 33.2184C6.71957 16.0003 14.1438 7.33398 26.8358 7.33398C29.2184 7.33398 31.5464 7.6236 33.7731 8.19872C34.8341 8.47276 35.8703 8.81115 36.8772 9.21287C37.1337 9.3152 37.4246 9.19023 37.5269 8.93374C37.6293 8.67726 37.5043 8.38638 37.2478 8.28406C36.2014 7.8666 35.1249 7.51507 34.0232 7.23049C31.7139 6.63405 29.3019 6.33398 26.8358 6.33398C16.0614 6.33398 8.93929 12.2948 4.32729 23.9844L4.36998 23.7847C7.71571 9.69466 16.6378 2 31.3952 2C47.0156 2 59.6781 14.6481 59.6781 30.25V35.7072C58.5614 36.8424 57.4104 37.8783 56.2252 38.8151C55.9823 24.2628 49.9244 13.801 39.9447 9.04965C39.6953 8.93094 39.397 9.03683 39.2783 9.28616C39.1596 9.53549 39.2655 9.83384 39.5148 9.95254C49.3 14.6112 55.1902 24.9938 55.2326 39.5705C47.2257 45.4338 37.7005 46.9132 26.6143 44.0131L25.3314 43.6742L24.0805 43.3372C13.3785 40.4244 6.28838 37.7221 2.8401 35.2545Z" fill="#291D18"/>
</svg>
