<?xml version="1.0" encoding="UTF-8"?>
<svg width="248px" height="350px" viewBox="0 0 134 150" version="1.1" xmlns="http://www.w3.org/2000/svg" xmlns:xlink="http://www.w3.org/1999/xlink">
    <title>EasySwitch</title>
    <defs>
        <path d="M23.6658974,21.7447 C23.8108665,21.7447 23.9006842,21.650155 23.9006842,21.5209435 C23.9006842,21.3917319 23.8108665,21.2987627 23.6658974,21.2987627 L23.1332939,21.2987627 L23.1332939,20.9221584 L23.5666252,20.9221584 C23.7115942,20.9221584 23.801412,20.8260376 23.801412,20.6968261 C23.801412,20.5691903 23.7115942,20.4746453 23.5666252,20.4746453 L23.1332939,20.4746453 L23.1332939,20.1579195 L23.6123219,20.1579195 C23.7557152,20.1579195 23.8471087,20.0633745 23.8471087,19.9325872 C23.8471087,19.8049514 23.757291,19.7119822 23.6123219,19.7119822 L22.8748708,19.7119822 C22.7299018,19.7119822 22.621175,19.8049514 22.621175,19.9325872 L22.621175,21.5209435 C22.621175,21.650155 22.7299018,21.7447 22.8748708,21.7447 L23.6658974,21.7447 Z M25.4433435,21.7447 C25.5804338,21.7447 25.6938878,21.631246 25.6938878,21.4894285 C25.6938878,21.454762 25.6875848,21.4295499 25.673403,21.3854289 C25.654494,21.3160959 25.2904957,20.2146465 25.1077087,19.8459209 C25.0620119,19.7545274 24.9690427,19.7119822 24.8366796,19.7119822 C24.7043166,19.7119822 24.6050443,19.7529517 24.5593476,19.8459209 C24.3608031,20.2477373 24.0346228,21.2562174 23.9936532,21.3854289 C23.9794715,21.4295499 23.9731685,21.454762 23.9731685,21.4894285 C23.9731685,21.631246 24.0866225,21.7447 24.2237128,21.7447 C24.3434698,21.7447 24.4317118,21.6863972 24.4774086,21.5508827 C24.4978933,21.4910042 24.5183781,21.4185197 24.5420143,21.3381564 L25.1250419,21.3381564 C25.1486782,21.4185197 25.1691629,21.4910042 25.1896477,21.5508827 C25.2353445,21.6863972 25.3235865,21.7447 25.4433435,21.7447 Z M26.4077024,21.7620333 C26.8284277,21.7620333 27.1246687,21.5020345 27.1246687,21.1285816 C27.1246687,20.451009 26.3131573,20.514039 26.3131573,20.274525 C26.3131573,20.198889 26.3777631,20.1405862 26.4644294,20.1405862 C26.5321866,20.1405862 26.5904894,20.1721012 26.6740042,20.2351313 C26.7228524,20.2713735 26.7874582,20.2918583 26.8441852,20.2918583 C26.9733967,20.2918583 27.0773962,20.1878587 27.0773962,20.0570715 C27.0773962,19.9814355 27.0427297,19.9168297 26.9765482,19.8648299 C26.8331549,19.7529517 26.6456407,19.6946489 26.4644294,19.6946489 C26.0878251,19.6946489 25.7931598,19.9451932 25.7931598,20.274525 C25.7931598,20.9237341 26.6046711,20.8843404 26.6046711,21.1285816 C26.6046711,21.2467629 26.5321866,21.3160959 26.4077024,21.3160959 C26.3131573,21.3160959 26.2469758,21.2625204 26.1729156,21.2073692 C26.1272188,21.1727027 26.0626131,21.1317331 25.9885528,21.1317331 C25.8514625,21.1317331 25.7506145,21.2467629 25.7506145,21.3696714 C25.7506145,21.4374287 25.791584,21.5083375 25.8561898,21.5603372 C26.0169163,21.6895487 26.2044306,21.7620333 26.4077024,21.7620333 Z M27.8952104,21.7447 C28.0386036,21.7447 28.1504819,21.6470035 28.1504819,21.517792 L28.1504819,20.9599764 C28.1630879,20.9457946 28.1741182,20.9331886 28.1819969,20.9205826 C28.3427234,20.6700383 28.522359,20.293434 28.597995,20.1185257 C28.6137525,20.0807077 28.642116,20.0082232 28.642116,19.9546477 C28.642116,19.8270119 28.5444195,19.7119822 28.396299,19.7119822 C28.2718147,19.7119822 28.1961787,19.8033757 28.1567849,19.8994964 C28.0716944,20.1027682 28.0228461,20.2130707 27.8999376,20.4541605 C27.7896351,20.2414343 27.6619993,19.9625265 27.6194541,19.8664057 C27.5753331,19.7687092 27.5044243,19.7119822 27.3815158,19.7119822 C27.2507285,19.7119822 27.146729,19.8270119 27.146729,19.9546477 C27.146729,20.0318595 27.1987288,20.1342832 27.2302438,20.2020405 C27.2633345,20.2713735 27.4335155,20.6621596 27.6084238,20.9142796 C27.6210298,20.9331886 27.6304843,20.9457946 27.6399388,20.9568249 L27.6399388,21.517792 C27.6399388,21.6470035 27.7518171,21.7447 27.8952104,21.7447 Z M29.9200491,21.7620333 C30.3407744,21.7620333 30.6370155,21.5020345 30.6370155,21.1285816 C30.6370155,20.451009 29.8255041,20.514039 29.8255041,20.274525 C29.8255041,20.198889 29.8901099,20.1405862 29.9767761,20.1405862 C30.0445334,20.1405862 30.1028361,20.1721012 30.1863509,20.2351313 C30.2351992,20.2713735 30.2998049,20.2918583 30.3565319,20.2918583 C30.4857435,20.2918583 30.589743,20.1878587 30.589743,20.0570715 C30.589743,19.9814355 30.5550765,19.9168297 30.488895,19.8648299 C30.3455017,19.7529517 30.1579874,19.6946489 29.9767761,19.6946489 C29.6001718,19.6946489 29.3055065,19.9451932 29.3055065,20.274525 C29.3055065,20.9237341 30.1170179,20.8843404 30.1170179,21.1285816 C30.1170179,21.2467629 30.0445334,21.3160959 29.9200491,21.3160959 C29.8255041,21.3160959 29.7593226,21.2625204 29.6852623,21.2073692 C29.6395656,21.1727027 29.5749598,21.1317331 29.5008995,21.1317331 C29.3638093,21.1317331 29.2629613,21.2467629 29.2629613,21.3696714 C29.2629613,21.4374287 29.3039308,21.5083375 29.3685365,21.5603372 C29.5292631,21.6895487 29.7167773,21.7620333 29.9200491,21.7620333 Z M32.3199165,21.7447 C32.4585825,21.7447 32.5547033,21.687973 32.6004001,21.6091855 C32.6996723,21.4390044 32.9250046,20.3911305 32.9707014,20.154768 C32.9943376,20.035011 33.0085194,19.9924657 33.0085194,19.9420417 C33.0085194,19.8112544 32.8997926,19.7119822 32.7485206,19.7119822 C32.6145818,19.7119822 32.5200368,19.7765879 32.4948248,19.8900419 C32.4822188,19.9499205 32.4018555,20.3769488 32.3136135,20.7661591 C32.2442805,20.4856755 32.1702202,20.1831315 32.1197962,19.953072 C32.089857,19.8191332 31.9779787,19.7576789 31.8408884,19.7576789 C31.7069497,19.7576789 31.5966471,19.8191332 31.5651321,19.9514962 C31.5084051,20.1878587 31.4390721,20.4967058 31.3665876,20.7882196 C31.2941031,20.4557363 31.2310731,20.1311317 31.2168913,20.0586472 C31.2105883,20.0271322 31.1932551,19.9310115 31.1853763,19.9026479 C31.1507098,19.7655577 31.0608921,19.7119822 30.9301048,19.7119822 C30.7882873,19.7119822 30.6748332,19.8002242 30.6748332,19.9184055 C30.6748332,19.9814355 30.6937422,20.0586472 30.7173785,20.1705255 C30.752045,20.337555 30.9631955,21.3996107 31.0829526,21.6091855 C31.1318008,21.694276 31.2373761,21.7447 31.3618604,21.7447 C31.4548296,21.7447 31.5194354,21.7210637 31.5730109,21.669064 C31.6423439,21.6028825 31.7242829,21.3334292 31.8408884,20.8953706 C31.957494,21.3334292 32.0488875,21.6076097 32.1103417,21.669064 C32.15919,21.7179122 32.2206442,21.7447 32.3199165,21.7447 Z M33.3977293,21.7447 C33.5411226,21.7447 33.6530009,21.6470035 33.6530009,21.517792 L33.6530009,19.9357387 C33.6530009,19.8081029 33.5426983,19.7119822 33.3977293,19.7119822 C33.2527603,19.7119822 33.1424578,19.8081029 33.1424578,19.9357387 L33.1424578,21.517792 C33.1424578,21.6470035 33.254336,21.7447 33.3977293,21.7447 Z M34.7591774,21.7620333 C34.9561462,21.7620333 35.1688725,21.7037305 35.3469323,21.6107612 C35.4288713,21.568216 35.4792953,21.4878527 35.4792953,21.3980349 C35.4792953,21.2688234 35.3768715,21.1663997 35.24766,21.1663997 C35.178327,21.1663997 35.1168727,21.1994904 35.0885092,21.2183994 C34.9640249,21.2861567 34.8631769,21.3160959 34.7591774,21.3160959 C34.5243906,21.3160959 34.3416036,21.0655516 34.3416036,20.7299168 C34.3416036,20.3958578 34.5369966,20.1405862 34.7843894,20.1405862 C34.9529947,20.1405862 35.039661,20.1894345 35.0869335,20.2225253 C35.134206,20.255616 35.1925087,20.2855553 35.266569,20.2855553 C35.4005078,20.2855553 35.4982043,20.1752527 35.4982043,20.0523442 C35.4982043,19.9814355 35.4651135,19.9231327 35.3973563,19.8679814 C35.3374778,19.8191332 35.1184485,19.6946489 34.7843894,19.6946489 C34.2376041,19.6946489 33.821606,20.142162 33.821606,20.7299168 C33.821606,21.3192474 34.2218466,21.7620333 34.7591774,21.7620333 Z M36.880137,21.7447 C37.0235303,21.7447 37.1354085,21.6470035 37.1354085,21.517792 L37.1354085,19.9357387 C37.1354085,19.8081029 37.0235303,19.7119822 36.880137,19.7119822 C36.735168,19.7119822 36.6232897,19.8081029 36.6232897,19.9357387 L36.6232897,20.4588878 L36.1411101,20.4588878 L36.1411101,19.9357387 C36.1411101,19.8081029 36.0292318,19.7119822 35.8842628,19.7119822 C35.7408695,19.7119822 35.6289913,19.8081029 35.6289913,19.9357387 L35.6289913,21.517792 C35.6289913,21.6470035 35.7408695,21.7447 35.8842628,21.7447 C36.0276561,21.7447 36.1411101,21.6470035 36.1411101,21.517792 L36.1411101,20.9064009 L36.6232897,20.9064009 L36.6232897,21.517792 C36.6232897,21.6470035 36.7367437,21.7447 36.880137,21.7447 Z M38.2557666,20.7614318 C38.3991598,20.7614318 38.5110381,20.6637353 38.5110381,20.5345238 L38.5110381,20.4431303 C38.5110381,20.3139188 38.3991598,20.2162222 38.2557666,20.2162222 C38.1123733,20.2162222 38.000495,20.3139188 38.000495,20.4431303 L38.000495,20.5345238 C38.000495,20.6637353 38.1123733,20.7614318 38.2557666,20.7614318 Z M38.2557666,21.7447 C38.3991598,21.7447 38.5110381,21.6470035 38.5110381,21.517792 L38.5110381,21.4263984 C38.5110381,21.2971869 38.3991598,21.1994904 38.2557666,21.1994904 C38.1123733,21.1994904 38.000495,21.2971869 38.000495,21.4263984 L38.000495,21.517792 C38.000495,21.6470035 38.1123733,21.7447 38.2557666,21.7447 Z M39.9449706,21.7447 C40.0867881,21.7447 40.2002422,21.6454277 40.2002422,21.517792 L40.2002422,19.9388902 C40.2002422,19.8096787 40.0883639,19.7119822 39.9449706,19.7119822 C39.8929709,19.7119822 39.8330924,19.7277397 39.7810926,19.7592547 L39.3713975,20.009799 C39.2941858,20.0570715 39.2579435,20.1374347 39.2579435,20.2209495 C39.2579435,20.3470095 39.3461855,20.4462818 39.4895788,20.4462818 C39.5242453,20.4462818 39.5683663,20.4336758 39.6109116,20.4116153 L39.6896991,20.3706458 L39.6896991,21.517792 C39.6896991,21.6470035 39.8015773,21.7447 39.9449706,21.7447 Z M41.4324787,21.7447 C41.5774477,21.7447 41.689326,21.6485792 41.689326,21.5193677 C41.689326,21.3917319 41.5774477,21.2971869 41.4324787,21.2971869 L40.9644809,21.2971869 C41.0007231,21.2562174 41.0416926,21.2168237 41.1015711,21.1616724 C41.4088424,20.8780374 41.6861745,20.6668868 41.6861745,20.318646 C41.6861745,19.9262842 41.4309029,19.6930732 41.0117534,19.6930732 C40.8258148,19.6930732 40.6603611,19.7371942 40.5043618,19.8380422 C40.4224228,19.8916177 40.3814533,19.965678 40.3814533,20.0460412 C40.3814533,20.173677 40.4744225,20.2792523 40.6162401,20.2792523 C40.6871488,20.2792523 40.7375728,20.2461615 40.7722393,20.2256768 C40.8447238,20.1815557 40.8888448,20.1405862 41.0117534,20.1405862 C41.1078741,20.1405862 41.1661769,20.2036162 41.1661769,20.318646 C41.1661769,20.6464021 40.338908,21.0340366 40.338908,21.517792 C40.338908,21.6470035 40.4492105,21.7447 40.5941795,21.7447 L41.4324787,21.7447 Z M42.4173224,21.7620333 C42.8081084,21.7620333 43.1374402,21.4768225 43.1374402,21.1301574 C43.1374402,20.9410674 43.057077,20.7771893 42.9042292,20.6952503 C43.0523497,20.6038568 43.1122282,20.476221 43.1122282,20.3170703 C43.1122282,19.940466 42.8301689,19.6946489 42.4094436,19.6946489 C42.2172021,19.6946489 42.021809,19.7718607 41.9509003,19.8191332 C41.864234,19.8758602 41.820113,19.9483447 41.820113,20.0318595 C41.820113,20.161071 41.9178095,20.268222 42.0596271,20.268222 C42.1084753,20.268222 42.1652023,20.2461615 42.1982931,20.2225253 C42.2424141,20.1910102 42.3196258,20.1405862 42.4094436,20.1405862 C42.5339279,20.1405862 42.5922306,20.198889 42.5922306,20.3170703 C42.5922306,20.4289485 42.5071401,20.4967058 42.3700499,20.4967058 L42.2881108,20.4967058 C42.1447176,20.4967058 42.0485968,20.5928266 42.0485968,20.7204623 C42.0485968,20.8512496 42.1399903,20.9426431 42.2881108,20.9426431 L42.3700499,20.9426431 C42.5307764,20.9426431 42.6174426,21.0088246 42.6174426,21.1301574 C42.6174426,21.2310054 42.5276249,21.3160959 42.4173224,21.3160959 C42.3054441,21.3160959 42.2487171,21.3019142 42.1967173,21.2625204 C42.1620508,21.2373084 42.1084753,21.1821572 41.9997485,21.1821572 C41.8689613,21.1821572 41.7649618,21.2908839 41.7649618,21.4153682 C41.7649618,21.5083375 41.820113,21.5729432 41.9115065,21.6359732 C41.9950213,21.694276 42.1982931,21.7620333 42.4173224,21.7620333 Z M44.2704044,21.7447 C44.4137977,21.7447 44.5272517,21.6470035 44.5272517,21.517792 L44.5272517,21.3019142 L44.5335547,21.3019142 C44.6785237,21.3019142 44.7888263,21.2073692 44.7888263,21.0797334 C44.7888263,20.9505219 44.676948,20.8544011 44.5335547,20.8544011 L44.5272517,20.8544011 L44.5272517,20.7031291 C44.5272517,20.5739176 44.4137977,20.476221 44.2704044,20.476221 C44.1270112,20.476221 44.0151329,20.5739176 44.0151329,20.7031291 L44.0151329,20.8544011 L43.7929521,20.8544011 C43.9836179,20.5644631 44.1537989,20.3737973 44.3948887,20.1264045 C44.4516157,20.0696775 44.487858,20.022405 44.487858,19.9373145 C44.487858,19.8128302 44.3822827,19.7119822 44.2451924,19.7119822 C44.1632534,19.7119822 44.0860416,19.7419214 43.9883451,19.8506482 C43.6668921,20.2036162 43.3801055,20.6101598 43.2209548,20.9284614 C43.1957427,20.9788854 43.1847125,21.0450669 43.1847125,21.0797334 C43.1847125,21.2057934 43.2965908,21.3019142 43.4431355,21.3019142 L44.0151329,21.3019142 L44.0151329,21.517792 C44.0151329,21.6470035 44.1270112,21.7447 44.2704044,21.7447 Z" id="path-1"></path>
    </defs>
    <g id="Page-1" stroke="none" stroke-width="1" fill="none" fill-rule="evenodd">
        <g id="EasySwitch" fill-rule="nonzero">
            <path d="M13.8,40.9 C13.6,40.9 13.5,40.8 13.5,40.6 L13.5,14 C13.5,12.6 14.7,11.4 16.1,11.4 L42.7,11.4 C42.9,11.4 43,11.5 43,11.7 C43,11.9 42.9,12 42.7,12 L16.1,12 C15,12 14.1,12.9 14.1,14 L14.1,40.6 C14.1,40.8 14,40.9 13.8,40.9 Z" id="Path" fill="#8E8E8F"></path>
            <path d="M45.2,25.7 L22.9,25.7 C22.8,25.7 22.7,25.6 22.7,25.5 C22.7,25.4 22.8,25.3 22.9,25.3 L45.1,25.3 C45.2,25.3 45.3,25.4 45.3,25.5 C45.3,25.6 45.3,25.7 45.2,25.7 Z" id="Path" fill="#E1E1E1"></path>
            <path d="M43.8,30.6 L22.9,30.6 C22.8,30.6 22.7,30.5 22.7,30.4 C22.7,30.3 22.8,30.2 22.9,30.2 L43.8,30.2 C43.9,30.2 44,30.3 44,30.4 C44,30.5 43.9,30.6 43.8,30.6 Z" id="Path" fill="#E1E1E1"></path>
            <path d="M41.1,35.5 L22.9,35.5 C22.8,35.5 22.7,35.4 22.7,35.3 C22.7,35.2 22.8,35.1 22.9,35.1 L41.1,35.1 C41.2,35.1 41.3,35.2 41.3,35.3 C41.3,35.4 41.2,35.5 41.1,35.5 Z" id="Path" fill="#E1E1E1"></path>
            <path d="M36,40.4 L22.9,40.4 C22.8,40.4 22.7,40.3 22.7,40.2 C22.7,40.1 22.8,40 22.9,40 L36,40 C36.1,40 36.2,40.1 36.2,40.2 C36.2,40.3 36.1,40.4 36,40.4 Z" id="Path" fill="#E1E1E1"></path>
            <path d="M52.8,32.2 L45.6,32.2 C45.5,32.2 45.4,32.1 45.4,32 C45.4,31.9 45.5,31.8 45.6,31.8 L52.8,31.8 C52.9,31.8 53,31.9 53,32 C53,32.1 52.9,32.2 52.8,32.2 Z" id="Path" fill="#E1E1E1"></path>
            <path d="M52.8,30 L46.7,30 C46.6,30 46.5,29.9 46.5,29.8 C46.5,29.7 46.6,29.6 46.7,29.6 L52.8,29.6 C52.9,29.6 53,29.7 53,29.8 C53,29.9 52.9,30 52.8,30 Z" id="Path" fill="#E1E1E1"></path>
            <path d="M52.8,27.8 L47.3,27.8 C47.2,27.8 47.1,27.7 47.1,27.6 C47.1,27.5 47.2,27.4 47.3,27.4 L52.8,27.4 C52.9,27.4 53,27.5 53,27.6 C53,27.7 52.9,27.8 52.8,27.8 Z" id="Path" fill="#E1E1E1"></path>
            <path d="M48.1,38.9 L42.3,38.9 C42.2,38.9 42.1,38.8 42.1,38.7 C42.1,38.6 42.2,38.5 42.3,38.5 L48.1,38.5 C48.2,38.5 48.3,38.6 48.3,38.7 C48.3,38.8 48.2,38.9 48.1,38.9 Z" id="Path" fill="#E1E1E1"></path>
            <path d="M52.8,36.6 L43.7,36.6 C43.6,36.6 43.5,36.5 43.5,36.4 C43.5,36.3 43.6,36.2 43.7,36.2 L52.8,36.2 C52.9,36.2 53,36.3 53,36.4 C53,36.5 52.9,36.6 52.8,36.6 Z" id="Path" fill="#E1E1E1"></path>
            <path d="M52.8,34.4 L44.9,34.4 C44.8,34.4 44.7,34.3 44.7,34.2 C44.7,34.1 44.8,34 44.9,34 L52.8,34 C52.9,34 53,34.1 53,34.2 C53,34.3 52.9,34.4 52.8,34.4 Z" id="Path" fill="#E1E1E1"></path>
            <path d="M44.8,55.2 L24.9,55.2 C24.8,55.2 24.7,55.1 24.7,55 C24.7,54.9 24.8,54.8 24.9,54.8 L44.8,54.8 C44.9,54.8 45,54.9 45,55 C45,55.1 44.9,55.2 44.8,55.2 Z" id="Path" fill="#E1E1E1"></path>
            <path d="M44.9,53 L24.9,53 C24.8,53 24.7,52.9 24.7,52.8 C24.7,52.7 24.8,52.6 24.9,52.6 L44.9,52.6 C45,52.6 45.1,52.7 45.1,52.8 C45.1,52.9 45,53 44.9,53 Z" id="Path" fill="#E1E1E1"></path>
            <path d="M44.8,50.7 L24.9,50.7 C24.8,50.7 24.7,50.6 24.7,50.5 C24.7,50.4 24.8,50.3 24.9,50.3 L44.8,50.3 C44.9,50.3 45,50.4 45,50.5 C45,50.6 45,50.7 44.8,50.7 Z" id="Path" fill="#E1E1E1"></path>
            <path d="M37,61.8 L25,61.8 C24.9,61.8 24.8,61.7 24.8,61.6 C24.8,61.5 24.9,61.4 25,61.4 L37,61.4 C37.1,61.4 37.2,61.5 37.2,61.6 C37.2,61.7 37.1,61.8 37,61.8 Z" id="Path" fill="#E1E1E1"></path>
            <path d="M44.9,59.6 L24.9,59.6 C24.8,59.6 24.7,59.5 24.7,59.4 C24.7,59.3 24.8,59.2 24.9,59.2 L44.9,59.2 C45,59.2 45.1,59.3 45.1,59.4 C45.1,59.5 45,59.6 44.9,59.6 Z" id="Path" fill="#E1E1E1"></path>
            <path d="M44.8,57.4 L24.9,57.4 C24.8,57.4 24.7,57.3 24.7,57.2 C24.7,57.1 24.8,57 24.9,57 L44.8,57 C44.9,57 45,57.1 45,57.2 C45,57.3 45,57.4 44.8,57.4 Z" id="Path" fill="#E1E1E1"></path>
            <path d="M71.3,55.2 L51.4,55.2 C51.3,55.2 51.2,55.1 51.2,55 C51.2,54.9 51.3,54.8 51.4,54.8 L71.3,54.8 C71.4,54.8 71.5,54.9 71.5,55 C71.5,55.1 71.5,55.2 71.3,55.2 Z" id="Path" fill="#E1E1E1"></path>
            <path d="M71.4,53 L51.4,53 C51.3,53 51.2,52.9 51.2,52.8 C51.2,52.7 51.3,52.6 51.4,52.6 L71.4,52.6 C71.5,52.6 71.6,52.7 71.6,52.8 C71.6,52.9 71.5,53 71.4,53 Z" id="Path" fill="#E1E1E1"></path>
            <path d="M71.4,50.7 L51.4,50.7 C51.3,50.7 51.2,50.6 51.2,50.5 C51.2,50.4 51.3,50.3 51.4,50.3 L71.3,50.3 C71.4,50.3 71.5,50.4 71.5,50.5 C71.5,50.6 71.5,50.7 71.4,50.7 Z" id="Path" fill="#E1E1E1"></path>
            <path d="M63.5,61.8 L51.5,61.8 C51.4,61.8 51.3,61.7 51.3,61.6 C51.3,61.5 51.4,61.4 51.5,61.4 L63.5,61.4 C63.6,61.4 63.7,61.5 63.7,61.6 C63.7,61.7 63.6,61.8 63.5,61.8 Z" id="Path" fill="#E1E1E1"></path>
            <path d="M71.4,59.6 L51.4,59.6 C51.3,59.6 51.2,59.5 51.2,59.4 C51.2,59.3 51.3,59.2 51.4,59.2 L71.4,59.2 C71.5,59.2 71.6,59.3 71.6,59.4 C71.6,59.5 71.5,59.6 71.4,59.6 Z" id="Path" fill="#E1E1E1"></path>
            <path d="M71.4,57.4 L51.4,57.4 C51.3,57.4 51.2,57.3 51.2,57.2 C51.2,57.1 51.3,57 51.4,57 L71.3,57 C71.4,57 71.5,57.1 71.5,57.2 C71.5,57.3 71.5,57.4 71.4,57.4 Z" id="Path" fill="#E1E1E1"></path>
            <path d="M68.7,76.2 L24.9,76.2 C24.8,76.2 24.7,76.1 24.7,76 C24.7,75.9 24.8,75.8 24.9,75.8 L68.7,75.8 C68.8,75.8 68.9,75.9 68.9,76 C68.9,76.1 68.8,76.2 68.7,76.2 Z" id="Path" fill="#E1E1E1"></path>
            <path d="M69.1,74 L24.9,74 C24.8,74 24.7,73.9 24.7,73.8 C24.7,73.7 24.8,73.6 24.9,73.6 L69.1,73.6 C69.2,73.6 69.3,73.7 69.3,73.8 C69.3,73.9 69.2,74 69.1,74 Z" id="Path" fill="#E1E1E1"></path>
            <path d="M69.5,71.8 L24.9,71.8 C24.8,71.8 24.7,71.7 24.7,71.6 C24.7,71.5 24.8,71.4 24.9,71.4 L69.4,71.4 C69.5,71.4 69.6,71.5 69.6,71.6 C69.6,71.7 69.6,71.8 69.5,71.8 Z" id="Path" fill="#E1E1E1"></path>
            <path d="M50.7,82.9 L24.9,82.9 C24.8,82.9 24.7,82.8 24.7,82.7 C24.7,82.6 24.8,82.5 24.9,82.5 L50.7,82.5 C50.8,82.5 50.9,82.6 50.9,82.7 C50.9,82.8 50.8,82.9 50.7,82.9 Z" id="Path" fill="#E1E1E1"></path>
            <path d="M68.1,80.7 L24.9,80.7 C24.8,80.7 24.7,80.6 24.7,80.5 C24.7,80.4 24.8,80.3 24.9,80.3 L68.1,80.3 C68.2,80.3 68.3,80.4 68.3,80.5 C68.3,80.6 68.2,80.7 68.1,80.7 Z" id="Path" fill="#E1E1E1"></path>
            <path d="M69.5,78.5 L24.9,78.5 C24.8,78.5 24.7,78.4 24.7,78.3 C24.7,78.2 24.8,78.1 24.9,78.1 L69.4,78.1 C69.5,78.1 69.6,78.2 69.6,78.3 C69.6,78.4 69.6,78.5 69.5,78.5 Z" id="Path" fill="#E1E1E1"></path>
            <path d="M73.8,97 L18.9,97 C17.7,97 16.7,95.4 16.7,93.4 L16.7,44.5 C16.7,44.3 16.9,44.1 17.1,44.1 C17.3,44.1 17.5,44.3 17.5,44.5 L17.5,93.3 C17.5,95 18.3,96.2 18.9,96.2 L73.8,96.2 C74.5,96.2 75.2,95 75.2,93.3 L75.2,18.7 C75.2,17 74.4,15.8 73.8,15.8 L46.7,15.8 C46.5,15.8 46.3,15.6 46.3,15.4 C46.3,15.2 46.5,15 46.7,15 L73.8,15 C75,15 76,16.6 76,18.6 L76,93.3 C75.9,95.4 75,97 73.8,97 Z" id="Path" fill="#8E8E8F"></path>
            <g id="EASYSWICH:1234">
                <use fill="#000000" xlink:href="#path-1"></use>
                <use fill="#56A3A4" xlink:href="#path-1"></use>
            </g>
            <circle id="Oval" fill="#D8D9D9" cx="5.2" cy="49" r="1.4"></circle>
            <circle id="Oval" fill="#56A3A4" cx="11.2" cy="52.5" r="1"></circle>
            <circle id="Oval" fill="#56A3A4" cx="79.9" cy="80.5" r="1"></circle>
            <circle id="Oval" fill="#F0EFEF" cx="64" cy="32.1" r="5.3"></circle>
            <circle id="Oval" fill="#F0EFEF" cx="84" cy="65.5" r="2.7"></circle>
            <circle id="Oval" fill="#F0EFEF" cx="5.1" cy="67.9" r="4.3"></circle>
            <circle id="Oval" fill="#D8D9D9" cx="70.5" cy="8.6" r="1.4"></circle>
            <path d="M24.9,46.1 C12.2,46.1 1.9,35.8 1.9,23.1 C1.9,10.4 12.2,0.1 24.9,0.1 C27.9,0.1 30.9,0.7 33.7,1.8 C33.9,1.9 33.9,2 33.9,2.2 C33.9,2.4 33.7,2.4 33.5,2.4 C30.8,1.3 27.9,0.7 25,0.7 C12.6,0.7 2.6,10.8 2.6,23.1 C2.6,35.4 12.7,45.5 25,45.5 C37.3,45.5 47.3,35.4 47.3,23 C47.3,15.9 44.1,9.4 38.5,5.2 C38.4,5.1 38.3,4.9 38.4,4.8 C38.5,4.7 38.7,4.6 38.8,4.7 C44.6,9.1 47.9,15.8 47.9,23 C47.9,35.8 37.6,46.1 24.9,46.1 Z" id="Path" fill="#56A3A4"></path>
            <path d="M63.6,63.2 C63.5,63.2 63.4,63.2 63.4,63.1 L40.4,40.1 C40.3,40 40.3,39.8 40.4,39.6 C40.5,39.5 40.7,39.5 40.9,39.6 L63.9,62.6 C64,62.7 64,62.9 63.9,63.1 C63.8,63.1 63.7,63.2 63.6,63.2 Z" id="Path" fill="#56A3A4"></path>
        </g>
    </g>
</svg>
