<?xml version="1.0" encoding="UTF-8"?>
<svg width="223px" height="242px" viewBox="0 0 223 242" version="1.1" xmlns="http://www.w3.org/2000/svg" xmlns:xlink="http://www.w3.org/1999/xlink">
    <!-- Generator: Sketch 63.1 (92452) - https://sketch.com -->
    <title>Illustration / D / PID / Password Changed</title>
    <desc>Created with Sketch.</desc>
    <defs>
        <path d="M39.1370353,7.48683808 C39.4204468,7.0128166 40.0344675,6.85829668 40.508489,7.14170818 C40.9825105,7.42511968 41.1370304,8.03914043 40.8536189,8.51316192 L21.7212202,40.5131619 C21.3862817,41.0733652 20.6131537,41.1677432 20.1532879,40.704564 L7.29035954,27.7489565 C6.90123959,27.3570329 6.90351241,26.723872 7.29543601,26.3347521 C7.68735962,25.9456321 8.32052052,25.9479049 8.70964046,26.3398285 L20.6653789,38.3817097 L39.1370353,7.48683808 Z" id="path-1"></path>
    </defs>
    <g id="PID---Recover-Password" stroke="none" stroke-width="1" fill="none" fill-rule="evenodd">
        <g id="06---PID---CMP---Profile-Complete-(D)" transform="translate(-375.000000, -210.000000)">
            <g id="Illustration-/-D-/-PID-/-Password-Changed" transform="translate(346.000000, 208.000000)">
                <path d="M171,67 L171,43 C171,20.90861 153.09139,3 131,3 C108.90861,3 91,20.90861 91,43 C91,46.5555556 91,49.2222222 91,51 C91,53.2462109 91,56.2019401 91,59.8671875 C91,61.2915335 91,63.6691377 91,67" id="Path-Copy-44" stroke="#239A98" stroke-width="2"></path>
                <path d="M155,67 L155,43 C155,29.745166 144.254834,19 131,19 C117.745166,19 107,29.745166 107,43 L107,67" id="Shape-Copy-19" stroke="#239A98" stroke-width="2"></path>
                <path d="M97,212 L77,212 C68.163444,212 61,204.836556 61,196 L61,88 C61,79.163444 68.163444,72 77,72 L185,72 C193.836556,72 201,79.163444 201,88 L201,102 M201,182 C201,187.502899 201,182.985972 201,196 C201,204.836556 193.836556,212 185,212 L108.797852,212" id="Shape" stroke="#239A98" stroke-width="2" stroke-linecap="round"></path>
                <path d="M83,71 L83,71 C83,68.790861 84.790861,67 87,67 L87,67 L111,67 C113.209139,67 115,68.790861 115,71 L115,71" id="Path-Copy-50" stroke="#239A98" stroke-width="1"></path>
                <path d="M147,71 L147,71 C147,68.790861 148.790861,67 151,67 L151,67 L175,67 C177.209139,67 179,68.790861 179,71 L179,71" id="Path-Copy-51" stroke="#239A98" stroke-width="1"></path>
                <path d="M157.463317,94.9178742 C149.643102,90.5129391 140.615015,88 131,88 C101.176624,88 77,112.176624 77,142 C77,171.823376 101.176624,196 131,196 C149.238471,196 165.365097,186.958117 175.141817,173.112413" id="Path-Copy-52" stroke="#8C8D8E" stroke-width="1" stroke-linecap="round"></path>
                <g id="Icon-/-Big-/-Yes" transform="translate(177.000000, 118.000000)">
                    <mask id="mask-2" fill="white">
                        <use xlink:href="#path-1"></use>
                    </mask>
                    <use id="Path-3" fill="#239A98" fill-rule="nonzero" xlink:href="#path-1"></use>
                </g>
                <path d="M131,118 C139.284271,118 146,124.715729 146,133 C146,138.342959 143.206504,143.033461 139.000379,145.690639 L139,158 C139,162.418278 135.418278,166 131,166 C126.581722,166 123,162.418278 123,158 L123.000628,145.691275 C118.793942,143.034209 116,138.343385 116,133 C116,124.715729 122.715729,118 131,118 Z" id="Combined-Shape" stroke="#8C8D8E" stroke-width="2"></path>
                <circle id="Oval-Copy-112" fill="#239A98" fill-rule="evenodd" cx="80" cy="236" r="8"></circle>
                <circle id="Oval-Copy-109" fill="#239A98" fill-rule="evenodd" cx="244" cy="71" r="8"></circle>
                <circle id="Oval-Copy-110" fill="#239A98" fill-rule="evenodd" cx="216" cy="31" r="4"></circle>
                <circle id="Oval-Copy-111" fill="#239A98" fill-rule="evenodd" cx="33" cy="138" r="4"></circle>
                <path d="M178.090995,174.794111 C184.579837,179.335459 192.47875,182 201,182 L201,182 C223.09139,182 241,164.09139 241,142 C241,119.90861 223.09139,102 201,102 C178.90861,102 161,119.90861 161,142 C161,148.063488 162.349152,153.811864 164.763639,158.961313" id="Path" stroke="#239A98" stroke-width="2" stroke-linecap="round" transform="translate(201.000000, 142.000000) scale(-1, -1) translate(-201.000000, -142.000000) "></path>
            </g>
        </g>
    </g>
</svg>