<svg width="556" height="360" viewBox="0 0 556 360" fill="none" xmlns="http://www.w3.org/2000/svg">
<path d="M316.857 202.871H304.526C298.428 202.871 293.426 207.763 293.217 213.934L291.23 272.648C291.23 278.975 296.297 284.104 302.546 284.104L318.802 284.099C325.049 283.921 329.97 278.649 329.794 272.325L328.168 214.004C327.996 207.805 322.982 202.871 316.857 202.871Z" fill="#E5CFC7"/>
<path d="M310.168 196.575H297.341C290.997 196.575 285.794 201.602 285.576 207.942L283.51 268.274C283.51 274.775 288.78 280.046 295.281 280.046L312.191 280.041C318.69 279.858 323.81 274.441 323.626 267.942L321.935 208.014C321.755 201.645 316.54 196.575 310.168 196.575Z" stroke="#291D18" stroke-width="2"/>
<path d="M322.675 263.881C316.535 266.404 310.083 267.703 303.495 267.703C297.624 267.703 291.862 266.671 286.332 264.662L284.27 263.863" stroke="#291D18" stroke-width="2" stroke-linecap="round"/>
<ellipse cx="297.122" cy="253.292" rx="2.14028" ry="2.14028" stroke="#291D18"/>
<circle cx="297.122" cy="240.45" r="2.14028" stroke="#291D18"/>
<circle cx="297.122" cy="227.609" r="2.14028" stroke="#291D18"/>
<ellipse cx="303.543" cy="212.626" rx="4.28056" ry="4.28056" stroke="#291D18"/>
<circle cx="309.964" cy="253.293" r="2.14028" stroke="#291D18"/>
<ellipse cx="309.964" cy="240.45" rx="2.14028" ry="2.14028" stroke="#291D18"/>
<ellipse cx="309.964" cy="227.609" rx="2.14028" ry="2.14028" stroke="#291D18"/>
<path d="M307.432 187.139V146.101C307.432 139.309 312.947 133.794 319.738 133.794H459.256C466.062 133.794 471.57 139.309 471.57 146.101V228.178C471.57 234.977 466.062 240.484 459.256 240.484H395.658H383.344H351.541H335.64" stroke="#291D18" stroke-width="2" stroke-linecap="round"/>
<path d="M351.621 255.794L431.867 255.794" stroke="#291D18" stroke-width="2" stroke-linecap="round"/>
<path d="M391.967 240.794L391.967 254.794" stroke="#291D18" stroke-width="2" stroke-linecap="round"/>
<path d="M395.967 228.794C395.967 231.004 394.176 232.794 391.967 232.794C389.758 232.794 387.967 231.004 387.967 228.794C387.967 226.585 389.758 224.794 391.967 224.794C394.176 224.794 395.967 226.585 395.967 228.794Z" fill="#291D18"/>
<path fill-rule="evenodd" clip-rule="evenodd" d="M120.448 173.185C112.575 165.312 101.97 162.002 92.5901 163.936C89.8594 164.499 87.1892 162.742 86.6263 160.011C86.0633 157.28 87.8206 154.61 90.5514 154.047C103.623 151.352 117.589 156.046 127.588 166.045C137.584 176.041 142.274 190.006 139.584 203.075C139.022 205.806 136.352 207.565 133.621 207.002C130.89 206.44 129.132 203.771 129.694 201.04C131.625 191.658 128.317 181.053 120.448 173.185Z" fill="#E5CFC7"/>
<path fill-rule="evenodd" clip-rule="evenodd" d="M110.192 183.443C106.08 179.331 100.556 177.656 95.7009 178.653C92.9697 179.214 90.3009 177.454 89.74 174.723C89.1791 171.992 90.9384 169.323 93.6696 168.762C102.168 167.017 111.059 170.03 117.332 176.303C123.612 182.584 126.641 191.479 124.877 199.993C124.311 202.723 121.64 204.478 118.909 203.912C116.179 203.346 114.424 200.675 114.99 197.944C115.995 193.094 114.32 187.57 110.192 183.443Z" fill="#E5CFC7"/>
<path fill-rule="evenodd" clip-rule="evenodd" d="M101.192 192.449C100.577 191.833 99.9054 191.736 99.5457 191.81C96.8145 192.371 94.1457 190.612 93.5848 187.88C93.0239 185.149 94.7833 182.48 97.5145 181.919C101.517 181.097 105.555 182.532 108.332 185.309C111.109 188.086 112.553 192.126 111.722 196.141C111.156 198.871 108.484 200.626 105.754 200.06C103.024 199.495 101.269 196.823 101.835 194.093C101.907 193.742 101.816 193.072 101.192 192.449Z" fill="#E5CFC7"/>
<path d="M223.345 183.209C223.345 193.294 220.931 200.259 209.931 200.259L206.257 200.296H155.119M86.6475 135.365V111.794C86.6475 101.794 89.9307 97.8093 98.9307 97.8093L103.735 97.7729H154.996H180.627" stroke="#291D18" stroke-width="2" stroke-linecap="round"/>
<path d="M131.269 198.692C133.579 187.466 129.58 175.181 120.648 166.249C111.712 157.313 99.4261 153.311 88.2002 155.625" stroke="#291D18" stroke-width="2" stroke-linecap="round"/>
<path d="M116.562 195.602C117.946 188.92 115.595 181.71 110.391 176.506C105.198 171.314 97.9908 168.97 91.3138 170.341" stroke="#291D18" stroke-width="2" stroke-linecap="round"/>
<path d="M103.408 191.751C103.86 189.569 103.092 187.213 101.392 185.513C99.6953 183.817 97.3408 183.051 95.1596 183.499" stroke="#291D18" stroke-width="2" stroke-linecap="round"/>
<path fill-rule="evenodd" clip-rule="evenodd" d="M203.898 75.896C199.556 75.896 196.035 79.2346 196.035 83.353V162.894C196.035 167.012 199.556 170.351 203.898 170.351H240.592C244.934 170.351 248.455 167.012 248.455 162.894V83.353C248.455 79.2346 244.934 75.896 240.592 75.896H203.898Z" stroke="#291D18" stroke-width="2"/>
<path d="M224.866 160.408C224.866 161.781 223.693 162.894 222.245 162.894C220.797 162.894 219.624 161.781 219.624 160.408C219.624 159.035 220.797 157.922 222.245 157.922C223.693 157.922 224.866 159.035 224.866 160.408Z" fill="#291D18"/>
<path d="M215.037 86.2339H229.125" stroke="#291D18" stroke-width="2" stroke-linecap="round"/>
</svg>
