<?xml version="1.0" encoding="UTF-8"?>
<svg width="29px" height="30px" viewBox="0 0 29 30" version="1.1" xmlns="http://www.w3.org/2000/svg" xmlns:xlink="http://www.w3.org/1999/xlink">
    <!-- Generator: Sketch 51 (57462) - http://www.bohemiancoding.com/sketch -->
    <title>Page 1</title>
    <desc>Created with Sketch.</desc>
    <defs></defs>
    <g id="Add-Subscription" stroke="none" stroke-width="1" fill="none" fill-rule="evenodd">
        <g id="Artboard" transform="translate(-958.000000, -832.000000)" fill="#ffffff">
            <g id="Page-1" transform="translate(958.000000, 832.000000)">
                <polygon id="Fill-1" points="6.18003488 10.3095843 22.6837326 10.3095843 22.6837326 6.99711236 6.18003488 6.99711236"></polygon>
                <polygon id="Fill-2" points="6.18003488 16.3793596 17.8289302 16.3793596 17.8289302 13.0668876 6.18003488 13.0668876"></polygon>
                <path d="M25.3622535,17.4009438 C25.3622535,18.4762247 24.4868581,19.3512809 23.4114977,19.3512809 L5.26457907,19.3512809 C4.1888814,19.3512809 3.31382326,18.4762247 3.31382326,17.4009438 L3.31382326,5.59948315 C3.31382326,4.52420225 4.1888814,3.64948315 5.26457907,3.64948315 L23.4114977,3.64948315 C24.4868581,3.64948315 25.3622535,4.52420225 25.3622535,5.59948315 L25.3622535,17.4009438 Z M23.4114977,0.337011236 L5.26457907,0.337011236 C2.36154419,0.337011236 6.74418605e-05,2.69791011 6.74418605e-05,5.59948315 L6.74418605e-05,17.4009438 C6.74418605e-05,20.3028539 2.36154419,22.6637528 5.26457907,22.6637528 L8.02328837,22.6637528 C6.94590465,24.3855506 5.49152093,25.8686966 3.59977674,27.2220674 L5.52827674,29.916 C8.36049767,27.8901573 10.4076953,25.5225169 11.7599047,22.6637528 L23.4114977,22.6637528 C26.3141953,22.6637528 28.6760093,20.3028539 28.6760093,17.4009438 L28.6760093,5.59948315 C28.6760093,2.69791011 26.3141953,0.337011236 23.4114977,0.337011236 Z" id="Fill-3"></path>
            </g>
        </g>
    </g>
</svg>
