<svg width="265" height="144" fill="none" xmlns="http://www.w3.org/2000/svg"><rect x="53.5" y="12" width="178" height="128" rx="12" fill="#E5CFC7"/><path fill-rule="evenodd" clip-rule="evenodd" d="M38.939 98.741h4.968a1 1 0 010 2H38.94c-6.87 0-12.439-5.568-12.439-12.438v-6.427a4.004 4.004 0 002 0v6.427c0 5.765 4.673 10.438 10.439 10.438zM28.5 74.126v-10.27a1 1 0 10-2 0v10.27a4.004 4.004 0 012 0z" fill="#291D18"/><path d="M27.707 12.5c6.467 0 12.58 2.31 17.381 6.43l.367.32-1.994 2.24a23.61 23.61 0 00-15.754-5.99C14.614 15.5 4 26.114 4 39.208 4 52.3 14.614 62.914 27.707 62.914a23.6 23.6 0 0014.896-5.262l.377-.312 1.934 2.294a26.603 26.603 0 01-17.207 6.28C12.957 65.914 1 53.957 1 39.208 1 24.458 12.957 12.5 27.707 12.5zm209 52c14.75 0 26.707 11.957 26.707 26.708 0 14.749-11.957 26.706-26.707 26.706a26.615 26.615 0 01-18.55-7.493l-.335-.329 2.122-2.121a23.622 23.622 0 0016.763 6.943c13.093 0 23.707-10.613 23.707-23.706 0-13.094-10.614-23.708-23.707-23.708a23.617 23.617 0 00-16.437 6.624l-.326.32-2.122-2.122a26.624 26.624 0 0118.885-7.822z" fill="#291D18"/><path fill-rule="evenodd" clip-rule="evenodd" d="M27.5 47.75c-3.139 0-5.996-1.597-8.526-4.23a22.314 22.314 0 01-3.074-4.057l-.027-.047-.015-.027a.766.766 0 01-.016-.749c.04-.072.112-.199.217-.372a22.314 22.314 0 012.915-3.787c2.53-2.634 5.387-4.231 8.526-4.231 3.139 0 5.996 1.597 8.526 4.23a22.314 22.314 0 013.074 4.057l.027.047.015.027a.766.766 0 01.016.749c-.04.072-.112.199-.217.372a22.314 22.314 0 01-2.915 3.787c-2.53 2.634-5.388 4.231-8.526 4.231zm-9.594-7.924c.62.906 1.34 1.811 2.15 2.654 2.273 2.367 4.784 3.77 7.444 3.77s5.17-1.403 7.444-3.77A20.827 20.827 0 0037.63 39a20.827 20.827 0 00-2.686-3.48c-2.274-2.367-4.784-3.77-7.444-3.77s-5.17 1.403-7.445 3.77A20.835 20.835 0 0017.37 39c.152.25.331.528.536.826zM21.75 39a5.75 5.75 0 1011.5 0 5.75 5.75 0 00-11.5 0zm5.75 4.25a4.25 4.25 0 100-8.5 4.25 4.25 0 000 8.5zm-2-5a.75.75 0 00-.75.75 2.75 2.75 0 102.75-2.75.75.75 0 000 1.5A1.25 1.25 0 1126.25 39a.75.75 0 00-.75-.75zm208 58.5a8.75 8.75 0 116.695-3.116l7.335 7.336a.749.749 0 11-1.06 1.06l-7.336-7.335a8.714 8.714 0 01-5.634 2.055zm0-1.5a7.25 7.25 0 100-14.5 7.25 7.25 0 000 14.5zM224.928 31h-5.877a1 1 0 010-2h5.877c6.871 0 12.439 5.569 12.439 12.439v5.655a4.014 4.014 0 00-2 .069v-5.724c0-5.766-4.672-10.439-10.439-10.439zm10.439 23.84v11.046a1 1 0 002 0V54.907a4.008 4.008 0 01-2-.068z" fill="#291D18"/><path fill-rule="evenodd" clip-rule="evenodd" d="M220.5 13c0-6.627-5.373-12-12-12h-154c-6.627 0-12 5.373-12 12v104c0 6.627 5.373 12 12 12h154c6.627 0 12-5.373 12-12V13zm-166-9h154l.265.004A9 9 0 01217.5 13v104l-.004.265A9 9 0 01208.5 126h-154l-.265-.004A9 9 0 0145.5 117V13l.004-.265A9 9 0 0154.5 4z" fill="#291D18"/><path d="M187.5 139.5a1.5 1.5 0 01.144 2.993l-.144.007h-112a1.5 1.5 0 01-.144-2.993l.144-.007h112z" fill="#291D18"/><circle cx="131.5" cy="116" r="4" fill="#291D18"/><path fill-rule="evenodd" clip-rule="evenodd" d="M102.204 83.244l28-48a1.5 1.5 0 012.591 0l28.001 48A1.5 1.5 0 01159.5 85.5h-56a1.5 1.5 0 01-1.296-2.256zm54.685-.744l-25.39-43.523L106.11 82.5h50.779z" fill="#291D18"/><path d="M130 54h3v16h-3V54zm0 20h3v3h-3zm103.793-25.707a1 1 0 011.32-.083l.094.083 3.782 3.783a1 1 0 01-1.32 1.497l-.094-.083-3.782-3.783a1 1 0 010-1.414z" fill="#291D18"/><path d="M237.575 48.293a1 1 0 011.497 1.32l-.083.094-3.782 3.783a1 1 0 01-1.497-1.32l.083-.094 3.782-3.783zm-212.782 27a1 1 0 011.32-.083l.094.083 3.782 3.783a1 1 0 01-1.32 1.497l-.094-.083-3.782-3.783a1 1 0 010-1.414z" fill="#291D18"/><path d="M28.575 75.293a1 1 0 011.497 1.32l-.083.094-3.782 3.783a1 1 0 01-1.497-1.32l.083-.094 3.782-3.783z" fill="#291D18"/></svg>