<svg xmlns="http://www.w3.org/2000/svg" viewBox="0 0 23 23"><g data-name="Layer 2"><path d="M22.54 4.09A4.11 4.11 0 0019 .47 53.35 53.35 0 0011.5 0a53.35 53.35 0 00-7.45.47A4.11 4.11 0 00.46 4.09 61.5 61.5 0 000 11.5a61.5 61.5 0 00.46 7.41 4.11 4.11 0 003.59 3.62 53.35 53.35 0 007.45.47 53.35 53.35 0 007.5-.47 4.11 4.11 0 003.59-3.62A61.5 61.5 0 0023 11.5a61.5 61.5 0 00-.46-7.41zm-3.05 12.77a3 3 0 01-2.6 2.62 38.65 38.65 0 01-5.39.34 38.65 38.65 0 01-5.39-.34 3 3 0 01-2.6-2.62 45 45 0 01-.33-5.36 45 45 0 01.33-5.36 3 3 0 012.6-2.62 38.65 38.65 0 015.39-.34 38.65 38.65 0 015.39.34 3 3 0 012.6 2.62 45 45 0 01.33 5.36 45 45 0 01-.33 5.36zm-3.32-7.58v-1.2c0-.11-.14-.14-.14-.14a6.88 6.88 0 00-1.72-.25 6.77 6.77 0 00-1.61.16.18.18 0 00-.13.16v1.18c0 .22.15.16.15.16a8.91 8.91 0 011.58-.09 10.43 10.43 0 011.7.16.13.13 0 00.17-.14m-5.83-.71c0-1.5-1.79-1.5-1.79-1.5s-1.8 0-1.8 1.5 1.8 1.51 1.8 1.51 1.79 0 1.79-1.51m1.17 7.5a8.38 8.38 0 01-4.83-1.82.69.69 0 01-.21-.38v-.61c0-.31.24-.15.24-.15a9.24 9.24 0 004.8 1.39 9.24 9.24 0 004.8-1.39s.23-.16.23.15v.61a.69.69 0 01-.2.38 8.42 8.42 0 01-4.83 1.82" fill="#ffc421" fill-rule="evenodd" data-name="Layer 1"/></g></svg>