<svg width="224" height="224" fill="none" xmlns="http://www.w3.org/2000/svg"><path opacity=".24" d="M161.778 42.311V201.6H77.156V42.311h84.622z" fill="#00807B"/><path fill-rule="evenodd" clip-rule="evenodd" d="M57.245 148.089H67.2v2.489h-9.955c-6.186 0-11.2-5.015-11.2-11.2V134.4h2.488v4.978c0 4.811 3.9 8.711 8.712 8.711zm-8.712-48.533v14.933h-2.488V99.556h2.488zm-4.097 20.275l7.466 7.467-1.76 1.76-7.466-7.467 1.76-1.76z" fill="#004A47"/><path fill-rule="evenodd" clip-rule="evenodd" d="M50.142 119.831l-7.466 7.467 1.76 1.76 7.466-7.467-1.76-1.76zm111.636-43.92h-9.956v-2.489h9.956c6.185 0 11.2 5.014 11.2 11.2V89.6h-2.489v-4.978c0-4.81-3.9-8.711-8.711-8.711zm8.711 48.533v-14.933h2.489v14.933h-2.489zm-123.2-72.177c-12.371 0-22.4 10.028-22.4 22.4 0 12.37 10.029 22.4 22.4 22.4 7.073 0 13.379-3.275 17.488-8.402l3.884 3.114c-5.013 6.254-12.725 10.265-21.372 10.265-15.12 0-27.378-12.257-27.378-27.377S32.17 47.289 47.29 47.289c8.647 0 16.359 4.011 21.372 10.265l-3.884 3.114c-4.11-5.126-10.415-8.401-17.488-8.401z" fill="#004A47"/><path fill-rule="evenodd" clip-rule="evenodd" d="M171.734 171.733c12.371 0 22.4-10.028 22.4-22.4 0-12.371-10.029-22.4-22.4-22.4-7.073 0-13.379 3.276-17.489 8.402l-3.883-3.114c5.013-6.254 12.725-10.265 21.372-10.265 15.12 0 27.377 12.257 27.377 27.377 0 15.121-12.257 27.378-27.377 27.378-8.647 0-16.359-4.011-21.372-10.265l3.883-3.114c4.11 5.126 10.416 8.401 17.489 8.401z" fill="#004A47"/><path fill-rule="evenodd" clip-rule="evenodd" d="M154.311 29.867v164.266h-89.6V29.867h89.6zm-4.978 4.977H69.689v154.312h79.644V34.844z" fill="#00807B"/><path fill-rule="evenodd" clip-rule="evenodd" d="M128.178 181.689a2.49 2.49 0 01-2.489 2.489H93.333a2.49 2.49 0 010-4.978h32.356a2.49 2.49 0 012.489 2.489zM112 42.311a2.489 2.489 0 01-2.489 2.489h-7.467a2.489 2.489 0 010-4.978h7.467a2.489 2.489 0 012.489 2.49zm9.956 0a3.733 3.733 0 01-3.733 3.733h-.001a3.733 3.733 0 110-7.466h.001a3.733 3.733 0 013.733 3.733zm-11.823 34.806l31.667 55.416H78.467l31.666-55.416zm0 10.033l-23.089 40.405h46.178L110.133 87.15z" fill="#00807B"/><path fill-rule="evenodd" clip-rule="evenodd" d="M107.645 115.111v-14.933h4.977v14.933h-4.977zm4.977 2.489v4.978h-4.978V117.6h4.978z" fill="#00807B"/><path fill-rule="evenodd" clip-rule="evenodd" d="M37.586 74.667a11.199 11.199 0 009.703 5.6c4.14 0 7.764-2.248 9.703-5.6a11.199 11.199 0 00-9.703-5.6c-4.14 0-7.764 2.248-9.703 5.6zm24.885 0c-2.278-6.175-8.216-10.578-15.182-10.578-6.966 0-12.904 4.403-15.183 10.578 2.279 6.174 8.217 10.577 15.183 10.577 6.966 0 12.904-4.403 15.182-10.577z" fill="#004A47"/><path d="M51.022 74.667a3.733 3.733 0 11-7.466 0 3.733 3.733 0 017.466 0z" fill="#004A47"/><path fill-rule="evenodd" clip-rule="evenodd" d="M169.245 140.933a5.289 5.289 0 100 10.578 5.289 5.289 0 000-10.578zm-9.645 5.289c0-5.326 4.318-9.644 9.645-9.644 5.326 0 9.644 4.318 9.644 9.644a9.604 9.604 0 01-1.46 5.105l7.044 7.044-3.079 3.08-7.045-7.044a9.645 9.645 0 01-14.749-8.185zm9.28-51.28l7.467 7.467-1.76 1.76-7.467-7.467 1.76-1.76z" fill="#004A47"/><path fill-rule="evenodd" clip-rule="evenodd" d="M174.587 94.942l-7.467 7.467 1.76 1.76 7.467-7.467-1.76-1.76z" fill="#004A47"/></svg>