<svg xmlns="http://www.w3.org/2000/svg" width="24" height="24" fill="none"><path fill="#111" d="M11 3v3H9V3zm-5 9a4 4 0 1 1 8 0 4 4 0 0 1-8 0m4-2a2 2 0 1 0 0 4 2 2 0 0 0 0-4m1 11v-3H9v3zm-5-4-2 2-1.414-1.414 2-2zm-4-4h2v-2H2zm4-6L4 5 2.586 6.414l2 2z"/><path fill="#111" d="M15.556 19C19.204 19 22 15.772 22 12s-2.796-7-6.444-7c-.652 0-1.281.105-1.875.3l-1.902.627 1.644 1.144A5.99 5.99 0 0 1 16 12a5.99 5.99 0 0 1-2.577 4.929l-1.644 1.144 1.902.626a6 6 0 0 0 1.875.301M20 12c0 2.55-1.658 4.533-3.698 4.928A7.97 7.97 0 0 0 18 12c0-1.86-.635-3.57-1.698-4.928C18.342 7.467 20 9.45 20 12"/></svg>