<?xml version="1.0" encoding="UTF-8"?>
<svg width="130px" height="137px" viewBox="0 0 130 137" version="1.1" xmlns="http://www.w3.org/2000/svg" xmlns:xlink="http://www.w3.org/1999/xlink">
    <!-- Generator: Sketch 60 (88103) - https://sketch.com -->
    <title>Illustration / Flow /  Mobile / 4 mobile numbers Activated</title>
    <desc>Created with Sketch.</desc>
    <g id="Illustration-/-Flow-/--Mobile-/-4-mobile-numbers-Activated" stroke="none" stroke-width="1" fill="none" fill-rule="evenodd">
        <path d="M76.6716336,69.6023672 C78.2548211,69.6023672 79.5429675,70.8640342 79.5429675,72.4263205 L79.5429675,72.4263205 L79.5429675,122.041743 C79.5429675,123.604029 78.2548211,124.865696 76.6716336,124.865696 L76.6716336,124.865696 L52.8554084,124.865696 C51.2722208,124.865696 49.9840744,123.604029 49.9840744,122.041743 L49.9840744,122.041743 L49.9840744,79.1322996 C49.9840744,78.7996213 50.2541014,78.5299324 50.5871965,78.5299324 C50.9202916,78.5299324 51.1903185,78.7996213 51.1903185,79.1322996 L51.1903185,79.1322996 L51.1903185,122.041743 C51.1903185,122.933353 51.9331982,123.660962 52.8554084,123.660962 L52.8554084,123.660962 L76.6716336,123.660962 C77.5938437,123.660962 78.3367234,122.933353 78.3367234,122.041743 L78.3367234,122.041743 L78.3367234,72.4263205 C78.3367234,71.5347105 77.5938437,70.8071016 76.6716336,70.8071016 L76.6716336,70.8071016 L52.8554084,70.8071016 C51.9331982,70.8071016 51.1903185,71.5347105 51.1903185,72.4263205 L51.1903185,72.4263205 L51.1903185,76.6843605 C51.1903185,77.0170387 50.9202916,77.2867277 50.5871965,77.2867277 C50.2541014,77.2867277 49.9840744,77.0170387 49.9840744,76.6843605 L49.9840744,76.6843605 L49.9840744,72.4263205 C49.9840744,70.8640342 51.2722208,69.6023672 52.8554084,69.6023672 L52.8554084,69.6023672 Z M27.6716336,69.6023672 C29.2548211,69.6023672 30.5429675,70.8640342 30.5429675,72.4263205 L30.5429675,72.4263205 L30.5429675,122.041743 C30.5429675,123.604029 29.2548211,124.865696 27.6716336,124.865696 L27.6716336,124.865696 L3.85540839,124.865696 C2.27222083,124.865696 0.984074424,123.604029 0.984074424,122.041743 L0.984074424,122.041743 L0.984074424,79.1322996 C0.984074424,78.7996213 1.25410136,78.5299324 1.58719647,78.5299324 C1.92029157,78.5299324 2.19031851,78.7996213 2.19031851,79.1322996 L2.19031851,79.1322996 L2.19031851,122.041743 C2.19031851,122.933353 2.93319824,123.660962 3.85540839,123.660962 L3.85540839,123.660962 L27.6716336,123.660962 C28.5938437,123.660962 29.3367234,122.933353 29.3367234,122.041743 L29.3367234,122.041743 L29.3367234,72.4263205 C29.3367234,71.5347105 28.5938437,70.8071016 27.6716336,70.8071016 L27.6716336,70.8071016 L3.85540839,70.8071016 C2.93319824,70.8071016 2.19031851,71.5347105 2.19031851,72.4263205 L2.19031851,72.4263205 L2.19031851,76.6843605 C2.19031851,77.0170387 1.92029157,77.2867277 1.58719647,77.2867277 C1.25410136,77.2867277 0.984074424,77.0170387 0.984074424,76.6843605 L0.984074424,76.6843605 L0.984074424,72.4263205 C0.984074424,70.8640342 2.27222083,69.6023672 3.85540839,69.6023672 L3.85540839,69.6023672 Z M103.671634,0.602367197 C105.254821,0.602367197 106.542968,1.8640342 106.542968,3.42632048 L106.542968,3.42632048 L106.542968,53.041743 C106.542968,54.6040292 105.254821,55.8656962 103.671634,55.8656962 L103.671634,55.8656962 L79.8554084,55.8656962 C78.2722208,55.8656962 76.9840744,54.6040292 76.9840744,53.041743 L76.9840744,53.041743 L76.9840744,10.1322996 C76.9840744,9.79962134 77.2541014,9.52993236 77.5871965,9.52993236 C77.9202916,9.52993236 78.1903185,9.79962134 78.1903185,10.1322996 L78.1903185,10.1322996 L78.1903185,53.041743 C78.1903185,53.9333529 78.9331982,54.6609618 79.8554084,54.6609618 L79.8554084,54.6609618 L103.671634,54.6609618 C104.593844,54.6609618 105.336723,53.9333529 105.336723,53.041743 L105.336723,53.041743 L105.336723,3.42632048 C105.336723,2.53471053 104.593844,1.80710159 103.671634,1.80710159 L103.671634,1.80710159 L79.8554084,1.80710159 C78.9331982,1.80710159 78.1903185,2.53471053 78.1903185,3.42632048 L78.1903185,3.42632048 L78.1903185,7.68436046 C78.1903185,8.01703868 77.9202916,8.28672766 77.5871965,8.28672766 C77.2541014,8.28672766 76.9840744,8.01703868 76.9840744,7.68436046 L76.9840744,7.68436046 L76.9840744,3.42632048 C76.9840744,1.8640342 78.2722208,0.602367197 79.8554084,0.602367197 L79.8554084,0.602367197 Z M52.6716336,0.602367197 C54.2548211,0.602367197 55.5429675,1.8640342 55.5429675,3.42632048 L55.5429675,3.42632048 L55.5429675,53.041743 C55.5429675,54.6040292 54.2548211,55.8656962 52.6716336,55.8656962 L52.6716336,55.8656962 L28.8554084,55.8656962 C27.2722208,55.8656962 25.9840744,54.6040292 25.9840744,53.041743 L25.9840744,53.041743 L25.9840744,10.1322996 C25.9840744,9.79962134 26.2541014,9.52993236 26.5871965,9.52993236 C26.9202916,9.52993236 27.1903185,9.79962134 27.1903185,10.1322996 L27.1903185,10.1322996 L27.1903185,53.041743 C27.1903185,53.9333529 27.9331982,54.6609618 28.8554084,54.6609618 L28.8554084,54.6609618 L52.6716336,54.6609618 C53.5938437,54.6609618 54.3367234,53.9333529 54.3367234,53.041743 L54.3367234,53.041743 L54.3367234,3.42632048 C54.3367234,2.53471053 53.5938437,1.80710159 52.6716336,1.80710159 L52.6716336,1.80710159 L28.8554084,1.80710159 C27.9331982,1.80710159 27.1903185,2.53471053 27.1903185,3.42632048 L27.1903185,3.42632048 L27.1903185,7.68436046 C27.1903185,8.01703868 26.9202916,8.28672766 26.5871965,8.28672766 C26.2541014,8.28672766 25.9840744,8.01703868 25.9840744,7.68436046 L25.9840744,7.68436046 L25.9840744,3.42632048 C25.9840744,1.8640342 27.2722208,0.602367197 28.8554084,0.602367197 L28.8554084,0.602367197 Z M124.596026,49.6688742 C125.967595,49.6688742 127.07947,50.7807498 127.07947,52.1523179 C127.07947,53.523886 125.967595,54.6357616 124.596026,54.6357616 C123.224458,54.6357616 122.112583,53.523886 122.112583,52.1523179 C122.112583,50.7807498 123.224458,49.6688742 124.596026,49.6688742 Z M107.708609,46.6887417 C107.982923,46.6887417 108.205298,46.9111168 108.205298,47.1854305 C108.205298,47.4597441 107.982923,47.6821192 107.708609,47.6821192 C107.434296,47.6821192 107.211921,47.4597441 107.211921,47.1854305 C107.211921,46.9111168 107.434296,46.6887417 107.708609,46.6887417 Z M9.36423841,29.8013245 C11.2844337,29.8013245 12.8410596,31.3579504 12.8410596,33.2781457 C12.8410596,35.198341 11.2844337,36.7549669 9.36423841,36.7549669 C7.44404309,36.7549669 5.88741722,35.198341 5.88741722,33.2781457 C5.88741722,31.3579504 7.44404309,29.8013245 9.36423841,29.8013245 Z" id="Combined-Shape" fill="#239A98" fill-rule="nonzero"></path>
        <path d="M16,133 C17.1045695,133 18,133.895431 18,135 C18,136.104569 17.1045695,137 16,137 C14.8954305,137 14,136.104569 14,135 C14,133.895431 14.8954305,133 16,133 Z M19.5,131 C19.7761424,131 20,131.223858 20,131.5 C20,131.776142 19.7761424,132 19.5,132 C19.2238576,132 19,131.776142 19,131.5 C19,131.223858 19.2238576,131 19.5,131 Z M114.763521,110.202128 C115.190996,110.202128 115.605664,110.29586 115.983184,110.473983 C116.163891,110.559244 116.241178,110.774671 116.155809,110.955152 C116.070441,111.135633 115.854744,111.212824 115.674037,111.127562 C115.392757,110.994848 115.083615,110.924969 114.763521,110.924969 C113.604724,110.924969 112.668165,111.842276 112.668165,112.970266 C112.668165,114.098257 113.604724,115.015564 114.763521,115.015564 C115.922318,115.015564 116.858877,114.098257 116.858877,112.970266 C116.858877,112.550498 116.729434,112.150426 116.490869,111.812163 C116.375778,111.648975 116.414934,111.423503 116.578326,111.308556 C116.741718,111.193609 116.967473,111.232716 117.082564,111.395904 C117.406241,111.854848 117.582624,112.399997 117.582624,112.970266 C117.582624,114.500663 116.318905,115.738405 114.763521,115.738405 C113.208137,115.738405 111.944418,114.500663 111.944418,112.970266 C111.944418,111.43987 113.208137,110.202128 114.763521,110.202128 Z M15.763521,110.202128 C16.190996,110.202128 16.6056644,110.29586 16.9831837,110.473983 C17.1638908,110.559244 17.2411779,110.774671 17.1558093,110.955152 C17.0704407,111.135633 16.8547437,111.212824 16.6740366,111.127562 C16.3927572,110.994848 16.0836145,110.924969 15.763521,110.924969 C14.6047238,110.924969 13.6681646,111.842276 13.6681646,112.970266 C13.6681646,114.098257 14.6047238,115.015564 15.763521,115.015564 C16.9223182,115.015564 17.8588773,114.098257 17.8588773,112.970266 C17.8588773,112.550498 17.7294342,112.150426 17.4908686,111.812163 C17.375778,111.648975 17.4149341,111.423503 17.5783262,111.308556 C17.7417184,111.193609 17.9674733,111.232716 18.0825639,111.395904 C18.4062411,111.854848 18.5826238,112.399997 18.5826238,112.970266 C18.5826238,114.500663 17.3189046,115.738405 15.763521,115.738405 C14.2081373,115.738405 12.9444182,114.500663 12.9444182,112.970266 C12.9444182,111.43987 14.2081373,110.202128 15.763521,110.202128 Z M64.763521,110.202128 C65.190996,110.202128 65.6056644,110.29586 65.9831837,110.473983 C66.1638908,110.559244 66.2411779,110.774671 66.1558093,110.955152 C66.0704407,111.135633 65.8547437,111.212824 65.6740366,111.127562 C65.3927572,110.994848 65.0836145,110.924969 64.763521,110.924969 C63.6047238,110.924969 62.6681646,111.842276 62.6681646,112.970266 C62.6681646,114.098257 63.6047238,115.015564 64.763521,115.015564 C65.9223182,115.015564 66.8588773,114.098257 66.8588773,112.970266 C66.8588773,112.550498 66.7294342,112.150426 66.4908686,111.812163 C66.375778,111.648975 66.4149341,111.423503 66.5783262,111.308556 C66.7417184,111.193609 66.9674733,111.232716 67.0825639,111.395904 C67.4062411,111.854848 67.5826238,112.399997 67.5826238,112.970266 C67.5826238,114.500663 66.3189046,115.738405 64.763521,115.738405 C63.2081373,115.738405 61.9444182,114.500663 61.9444182,112.970266 C61.9444182,111.43987 63.2081373,110.202128 64.763521,110.202128 Z M114.763521,104.277898 C116.318905,104.277898 117.582624,105.51564 117.582624,107.046037 C117.582624,108.576434 116.318905,109.814175 114.763521,109.814175 C113.208137,109.814175 111.944418,108.576434 111.944418,107.046037 C111.944418,105.51564 113.208137,104.277898 114.763521,104.277898 Z M15.763521,104.277898 C17.3189046,104.277898 18.5826238,105.51564 18.5826238,107.046037 C18.5826238,108.576434 17.3189046,109.814175 15.763521,109.814175 C14.2081373,109.814175 12.9444182,108.576434 12.9444182,107.046037 C12.9444182,105.51564 14.2081373,104.277898 15.763521,104.277898 Z M64.763521,104.277898 C66.3189046,104.277898 67.5826238,105.51564 67.5826238,107.046037 C67.5826238,108.576434 66.3189046,109.814175 64.763521,109.814175 C63.2081373,109.814175 61.9444182,108.576434 61.9444182,107.046037 C61.9444182,105.51564 63.2081373,104.277898 64.763521,104.277898 Z M114.763521,105.000739 C113.604724,105.000739 112.668165,105.918046 112.668165,107.046037 C112.668165,108.174028 113.604724,109.091335 114.763521,109.091335 C115.922318,109.091335 116.858877,108.174028 116.858877,107.046037 C116.858877,105.918046 115.922318,105.000739 114.763521,105.000739 Z M64.763521,105.000739 C63.6047238,105.000739 62.6681646,105.918046 62.6681646,107.046037 C62.6681646,108.174028 63.6047238,109.091335 64.763521,109.091335 C65.9223182,109.091335 66.8588773,108.174028 66.8588773,107.046037 C66.8588773,105.918046 65.9223182,105.000739 64.763521,105.000739 Z M15.763521,105.000739 C14.6047238,105.000739 13.6681646,105.918046 13.6681646,107.046037 C13.6681646,108.174028 14.6047238,109.091335 15.763521,109.091335 C16.9223182,109.091335 17.8588773,108.174028 17.8588773,107.046037 C17.8588773,105.918046 16.9223182,105.000739 15.763521,105.000739 Z M107.202815,98.3536688 C108.758198,98.3536688 110.021917,99.5914107 110.021917,101.121807 C110.021917,102.652204 108.758198,103.889946 107.202815,103.889946 C105.647431,103.889946 104.383712,102.652204 104.383712,101.121807 C104.383712,99.5914107 105.647431,98.3536688 107.202815,98.3536688 Z M114.763521,98.3536688 C115.190996,98.3536688 115.605664,98.4474012 115.983184,98.6255236 C116.163891,98.7107853 116.241178,98.9262123 116.155809,99.1066932 C116.070441,99.2871741 115.854744,99.3643645 115.674037,99.2791027 C115.392757,99.1463886 115.083615,99.0765094 114.763521,99.0765094 C113.604724,99.0765094 112.668165,99.9938165 112.668165,101.121807 C112.668165,102.249798 113.604724,103.167105 114.763521,103.167105 C115.922318,103.167105 116.858877,102.249798 116.858877,101.121807 C116.858877,100.702039 116.729434,100.301967 116.490869,99.9637035 C116.375778,99.8005158 116.414934,99.5750435 116.578326,99.4600969 C116.741718,99.3451503 116.967473,99.3842574 117.082564,99.547445 C117.406241,100.006389 117.582624,100.551538 117.582624,101.121807 C117.582624,102.652204 116.318905,103.889946 114.763521,103.889946 C113.208137,103.889946 111.944418,102.652204 111.944418,101.121807 C111.944418,99.5914107 113.208137,98.3536688 114.763521,98.3536688 Z M122.324227,98.3536688 C123.879611,98.3536688 125.14333,99.5914107 125.14333,101.121807 C125.14333,102.652204 123.879611,103.889946 122.324227,103.889946 C120.768844,103.889946 119.505125,102.652204 119.505125,101.121807 C119.505125,99.5914107 120.768844,98.3536688 122.324227,98.3536688 Z M57.2028146,98.3536688 C58.7581982,98.3536688 60.0219174,99.5914107 60.0219174,101.121807 C60.0219174,102.652204 58.7581982,103.889946 57.2028146,103.889946 C55.6474309,103.889946 54.3837118,102.652204 54.3837118,101.121807 C54.3837118,99.5914107 55.6474309,98.3536688 57.2028146,98.3536688 Z M64.763521,98.3536688 C65.190996,98.3536688 65.6056644,98.4474012 65.9831837,98.6255236 C66.1638908,98.7107853 66.2411779,98.9262123 66.1558093,99.1066932 C66.0704407,99.2871741 65.8547437,99.3643645 65.6740366,99.2791027 C65.3927572,99.1463886 65.0836145,99.0765094 64.763521,99.0765094 C63.6047238,99.0765094 62.6681646,99.9938165 62.6681646,101.121807 C62.6681646,102.249798 63.6047238,103.167105 64.763521,103.167105 C65.9223182,103.167105 66.8588773,102.249798 66.8588773,101.121807 C66.8588773,100.702039 66.7294342,100.301967 66.4908686,99.9637035 C66.375778,99.8005158 66.4149341,99.5750435 66.5783262,99.4600969 C66.7417184,99.3451503 66.9674733,99.3842574 67.0825639,99.547445 C67.4062411,100.006389 67.5826238,100.551538 67.5826238,101.121807 C67.5826238,102.652204 66.3189046,103.889946 64.763521,103.889946 C63.2081373,103.889946 61.9444182,102.652204 61.9444182,101.121807 C61.9444182,99.5914107 63.2081373,98.3536688 64.763521,98.3536688 Z M72.3242274,98.3536688 C73.879611,98.3536688 75.1433302,99.5914107 75.1433302,101.121807 C75.1433302,102.652204 73.879611,103.889946 72.3242274,103.889946 C70.7688437,103.889946 69.5051246,102.652204 69.5051246,101.121807 C69.5051246,99.5914107 70.7688437,98.3536688 72.3242274,98.3536688 Z M8.20281457,98.3536688 C9.75819822,98.3536688 11.0219174,99.5914107 11.0219174,101.121807 C11.0219174,102.652204 9.75819822,103.889946 8.20281457,103.889946 C6.64743092,103.889946 5.38371176,102.652204 5.38371176,101.121807 C5.38371176,99.5914107 6.64743092,98.3536688 8.20281457,98.3536688 Z M23.3242274,98.3536688 C24.879611,98.3536688 26.1433302,99.5914107 26.1433302,101.121807 C26.1433302,102.652204 24.879611,103.889946 23.3242274,103.889946 C21.7688437,103.889946 20.5051246,102.652204 20.5051246,101.121807 C20.5051246,99.5914107 21.7688437,98.3536688 23.3242274,98.3536688 Z M15.763521,98.3536688 C16.190996,98.3536688 16.6056644,98.4474012 16.9831837,98.6255236 C17.1638908,98.7107853 17.2411779,98.9262123 17.1558093,99.1066932 C17.0704407,99.2871741 16.8547437,99.3643645 16.6740366,99.2791027 C16.3927572,99.1463886 16.0836145,99.0765094 15.763521,99.0765094 C14.6047238,99.0765094 13.6681646,99.9938165 13.6681646,101.121807 C13.6681646,102.249798 14.6047238,103.167105 15.763521,103.167105 C16.9223182,103.167105 17.8588773,102.249798 17.8588773,101.121807 C17.8588773,100.702039 17.7294342,100.301967 17.4908686,99.9637035 C17.375778,99.8005158 17.4149341,99.5750435 17.5783262,99.4600969 C17.7417184,99.3451503 17.9674733,99.3842574 18.0825639,99.547445 C18.4062411,100.006389 18.5826238,100.551538 18.5826238,101.121807 C18.5826238,102.652204 17.3189046,103.889946 15.763521,103.889946 C14.2081373,103.889946 12.9444182,102.652204 12.9444182,101.121807 C12.9444182,99.5914107 14.2081373,98.3536688 15.763521,98.3536688 Z M122.324227,99.0765094 C121.16543,99.0765094 120.228871,99.9938165 120.228871,101.121807 C120.228871,102.249798 121.16543,103.167105 122.324227,103.167105 C123.483025,103.167105 124.419584,102.249798 124.419584,101.121807 C124.419584,99.9938165 123.483025,99.0765094 122.324227,99.0765094 Z M107.202815,99.0765094 C106.044017,99.0765094 105.107458,99.9938165 105.107458,101.121807 C105.107458,102.249798 106.044017,103.167105 107.202815,103.167105 C108.361612,103.167105 109.298171,102.249798 109.298171,101.121807 C109.298171,99.9938165 108.361612,99.0765094 107.202815,99.0765094 Z M72.3242274,99.0765094 C71.1654302,99.0765094 70.228871,99.9938165 70.228871,101.121807 C70.228871,102.249798 71.1654302,103.167105 72.3242274,103.167105 C73.4830246,103.167105 74.4195837,102.249798 74.4195837,101.121807 C74.4195837,99.9938165 73.4830246,99.0765094 72.3242274,99.0765094 Z M57.2028146,99.0765094 C56.0440174,99.0765094 55.1074582,99.9938165 55.1074582,101.121807 C55.1074582,102.249798 56.0440174,103.167105 57.2028146,103.167105 C58.3616118,103.167105 59.2981709,102.249798 59.2981709,101.121807 C59.2981709,99.9938165 58.3616118,99.0765094 57.2028146,99.0765094 Z M8.20281457,99.0765094 C7.04401737,99.0765094 6.10745822,99.9938165 6.10745822,101.121807 C6.10745822,102.249798 7.04401737,103.167105 8.20281457,103.167105 C9.36161177,103.167105 10.2981709,102.249798 10.2981709,101.121807 C10.2981709,99.9938165 9.36161177,99.0765094 8.20281457,99.0765094 Z M23.3242274,99.0765094 C22.1654302,99.0765094 21.228871,99.9938165 21.228871,101.121807 C21.228871,102.249798 22.1654302,103.167105 23.3242274,103.167105 C24.4830246,103.167105 25.4195837,102.249798 25.4195837,101.121807 C25.4195837,99.9938165 24.4830246,99.0765094 23.3242274,99.0765094 Z M72.3242274,92.4294392 C73.879611,92.4294392 75.1433302,93.6671811 75.1433302,95.1975778 C75.1433302,96.7279745 73.879611,97.9657164 72.3242274,97.9657164 C70.7688437,97.9657164 69.5051246,96.7279745 69.5051246,95.1975778 C69.5051246,93.6671811 70.7688437,92.4294392 72.3242274,92.4294392 Z M8.20281457,92.4294392 C8.63028956,92.4294392 9.04495796,92.5231717 9.4224773,92.701294 C9.60318438,92.7865558 9.68047148,93.0019828 9.59510287,93.1824637 C9.50973426,93.3629446 9.2940373,93.440135 9.11333023,93.3548732 C8.83205082,93.2221591 8.5229081,93.1522799 8.20281457,93.1522799 C7.04401737,93.1522799 6.10745822,94.0695869 6.10745822,95.1975778 C6.10745822,96.3255687 7.04401737,97.2428757 8.20281457,97.2428757 C9.36161177,97.2428757 10.2981709,96.3255687 10.2981709,95.1975778 C10.2981709,94.7778092 10.1687278,94.3777374 9.93016222,94.0394739 C9.81507159,93.8762863 9.8542277,93.6508139 10.0176198,93.5358673 C10.181012,93.4209207 10.4067669,93.4600278 10.5218575,93.6232155 C10.8455347,94.0821591 11.0219174,94.627308 11.0219174,95.1975778 C11.0219174,96.7279745 9.75819822,97.9657164 8.20281457,97.9657164 C6.64743092,97.9657164 5.38371176,96.7279745 5.38371176,95.1975778 C5.38371176,93.6671811 6.64743092,92.4294392 8.20281457,92.4294392 Z M23.3242274,92.4294392 C24.879611,92.4294392 26.1433302,93.6671811 26.1433302,95.1975778 C26.1433302,96.7279745 24.879611,97.9657164 23.3242274,97.9657164 C21.7688437,97.9657164 20.5051246,96.7279745 20.5051246,95.1975778 C20.5051246,93.6671811 21.7688437,92.4294392 23.3242274,92.4294392 Z M15.763521,92.4294392 C17.3189046,92.4294392 18.5826238,93.6671811 18.5826238,95.1975778 C18.5826238,96.7279745 17.3189046,97.9657164 15.763521,97.9657164 C14.2081373,97.9657164 12.9444182,96.7279745 12.9444182,95.1975778 C12.9444182,94.7519284 13.0520425,94.3207173 13.2553528,93.9326844 C13.7352196,93.0168226 14.6967413,92.4294392 15.763521,92.4294392 Z M64.763521,92.4294392 C66.3189046,92.4294392 67.5826238,93.6671811 67.5826238,95.1975778 C67.5826238,96.7279745 66.3189046,97.9657164 64.763521,97.9657164 C63.2081373,97.9657164 61.9444182,96.7279745 61.9444182,95.1975778 C61.9444182,94.7519284 62.0520425,94.3207173 62.2553528,93.9326844 C62.7352196,93.0168226 63.6967413,92.4294392 64.763521,92.4294392 Z M57.2028146,92.4294392 C57.6302896,92.4294392 58.044958,92.5231717 58.4224773,92.701294 C58.6031844,92.7865558 58.6804715,93.0019828 58.5951029,93.1824637 C58.5097343,93.3629446 58.2940373,93.440135 58.1133302,93.3548732 C57.8320508,93.2221591 57.5229081,93.1522799 57.2028146,93.1522799 C56.0440174,93.1522799 55.1074582,94.0695869 55.1074582,95.1975778 C55.1074582,96.3255687 56.0440174,97.2428757 57.2028146,97.2428757 C58.3616118,97.2428757 59.2981709,96.3255687 59.2981709,95.1975778 C59.2981709,94.7778092 59.1687278,94.3777374 58.9301622,94.0394739 C58.8150716,93.8762863 58.8542277,93.6508139 59.0176198,93.5358673 C59.181012,93.4209207 59.4067669,93.4600278 59.5218575,93.6232155 C59.8455347,94.0821591 60.0219174,94.627308 60.0219174,95.1975778 C60.0219174,96.7279745 58.7581982,97.9657164 57.2028146,97.9657164 C55.6474309,97.9657164 54.3837118,96.7279745 54.3837118,95.1975778 C54.3837118,93.6671811 55.6474309,92.4294392 57.2028146,92.4294392 Z M107.202815,92.4294392 C107.63029,92.4294392 108.044958,92.5231717 108.422477,92.701294 C108.603184,92.7865558 108.680471,93.0019828 108.595103,93.1824637 C108.509734,93.3629446 108.294037,93.440135 108.11333,93.3548732 C107.832051,93.2221591 107.522908,93.1522799 107.202815,93.1522799 C106.044017,93.1522799 105.107458,94.0695869 105.107458,95.1975778 C105.107458,96.3255687 106.044017,97.2428757 107.202815,97.2428757 C108.361612,97.2428757 109.298171,96.3255687 109.298171,95.1975778 C109.298171,94.7778092 109.168728,94.3777374 108.930162,94.0394739 C108.815072,93.8762863 108.854228,93.6508139 109.01762,93.5358673 C109.181012,93.4209207 109.406767,93.4600278 109.521858,93.6232155 C109.845535,94.0821591 110.021917,94.627308 110.021917,95.1975778 C110.021917,96.7279745 108.758198,97.9657164 107.202815,97.9657164 C105.647431,97.9657164 104.383712,96.7279745 104.383712,95.1975778 C104.383712,93.6671811 105.647431,92.4294392 107.202815,92.4294392 Z M122.324227,92.4294392 C123.879611,92.4294392 125.14333,93.6671811 125.14333,95.1975778 C125.14333,96.7279745 123.879611,97.9657164 122.324227,97.9657164 C120.768844,97.9657164 119.505125,96.7279745 119.505125,95.1975778 C119.505125,93.6671811 120.768844,92.4294392 122.324227,92.4294392 Z M114.763521,92.4294392 C116.318905,92.4294392 117.582624,93.6671811 117.582624,95.1975778 C117.582624,96.7279745 116.318905,97.9657164 114.763521,97.9657164 C113.208137,97.9657164 111.944418,96.7279745 111.944418,95.1975778 C111.944418,94.7519284 112.052042,94.3207173 112.255353,93.9326844 C112.73522,93.0168226 113.696741,92.4294392 114.763521,92.4294392 Z M64.763521,93.1522799 C63.9673622,93.1522799 63.252189,93.5891715 62.8966057,94.2678291 C62.7471163,94.5531408 62.6681646,94.8694711 62.6681646,95.1975778 C62.6681646,96.3255687 63.6047238,97.2428757 64.763521,97.2428757 C65.9223182,97.2428757 66.8588773,96.3255687 66.8588773,95.1975778 C66.8588773,94.0695869 65.9223182,93.1522799 64.763521,93.1522799 Z M23.3242274,93.1522799 C22.1654302,93.1522799 21.228871,94.0695869 21.228871,95.1975778 C21.228871,96.3255687 22.1654302,97.2428757 23.3242274,97.2428757 C24.4830246,97.2428757 25.4195837,96.3255687 25.4195837,95.1975778 C25.4195837,94.0695869 24.4830246,93.1522799 23.3242274,93.1522799 Z M15.763521,93.1522799 C14.9673622,93.1522799 14.252189,93.5891715 13.8966057,94.2678291 C13.7471163,94.5531408 13.6681646,94.8694711 13.6681646,95.1975778 C13.6681646,96.3255687 14.6047238,97.2428757 15.763521,97.2428757 C16.9223182,97.2428757 17.8588773,96.3255687 17.8588773,95.1975778 C17.8588773,94.0695869 16.9223182,93.1522799 15.763521,93.1522799 Z M122.324227,93.1522799 C121.16543,93.1522799 120.228871,94.0695869 120.228871,95.1975778 C120.228871,96.3255687 121.16543,97.2428757 122.324227,97.2428757 C123.483025,97.2428757 124.419584,96.3255687 124.419584,95.1975778 C124.419584,94.0695869 123.483025,93.1522799 122.324227,93.1522799 Z M114.763521,93.1522799 C113.967362,93.1522799 113.252189,93.5891715 112.896606,94.2678291 C112.747116,94.5531408 112.668165,94.8694711 112.668165,95.1975778 C112.668165,96.3255687 113.604724,97.2428757 114.763521,97.2428757 C115.922318,97.2428757 116.858877,96.3255687 116.858877,95.1975778 C116.858877,94.0695869 115.922318,93.1522799 114.763521,93.1522799 Z M72.3242274,93.1522799 C71.1654302,93.1522799 70.228871,94.0695869 70.228871,95.1975778 C70.228871,96.3255687 71.1654302,97.2428757 72.3242274,97.2428757 C73.4830246,97.2428757 74.4195837,96.3255687 74.4195837,95.1975778 C74.4195837,94.0695869 73.4830246,93.1522799 72.3242274,93.1522799 Z M64.763521,86.5052097 C66.3189046,86.5052097 67.5826238,87.7429516 67.5826238,89.2733483 C67.5826238,90.8037449 66.3189046,92.0414868 64.763521,92.0414868 C63.2081373,92.0414868 61.9444182,90.8037449 61.9444182,89.2733483 C61.9444182,87.7429516 63.2081373,86.5052097 64.763521,86.5052097 Z M23.3242274,86.5052097 C23.7517024,86.5052097 24.1663708,86.5989421 24.5438901,86.7770645 C24.7245972,86.8623262 24.8018843,87.0777532 24.7165157,87.2582341 C24.6311471,87.438715 24.4154501,87.5159054 24.234743,87.4306436 C23.9534636,87.2979295 23.6443209,87.2280503 23.3242274,87.2280503 C22.1654302,87.2280503 21.228871,88.1453574 21.228871,89.2733483 C21.228871,90.4013391 22.1654302,91.3186462 23.3242274,91.3186462 C24.4830246,91.3186462 25.4195837,90.4013391 25.4195837,89.2733483 C25.4195837,88.8535797 25.2901406,88.4535079 25.051575,88.1152444 C24.9364844,87.9520567 24.9756405,87.7265844 25.1390326,87.6116378 C25.3024248,87.4966912 25.5281797,87.5357983 25.6432703,87.6989859 C25.9669475,88.1579296 26.1433302,88.7030784 26.1433302,89.2733483 C26.1433302,90.8037449 24.879611,92.0414868 23.3242274,92.0414868 C21.7688437,92.0414868 20.5051246,90.8037449 20.5051246,89.2733483 C20.5051246,87.7429516 21.7688437,86.5052097 23.3242274,86.5052097 Z M8.20281457,86.5052097 C9.75819822,86.5052097 11.0219174,87.7429516 11.0219174,89.2733483 C11.0219174,90.8037449 9.75819822,92.0414868 8.20281457,92.0414868 C6.64743092,92.0414868 5.38371176,90.8037449 5.38371176,89.2733483 C5.38371176,87.7429516 6.64743092,86.5052097 8.20281457,86.5052097 Z M122.324227,86.5052097 C122.751702,86.5052097 123.166371,86.5989421 123.54389,86.7770645 C123.724597,86.8623262 123.801884,87.0777532 123.716516,87.2582341 C123.631147,87.438715 123.41545,87.5159054 123.234743,87.4306436 C122.953464,87.2979295 122.644321,87.2280503 122.324227,87.2280503 C121.16543,87.2280503 120.228871,88.1453574 120.228871,89.2733483 C120.228871,90.4013391 121.16543,91.3186462 122.324227,91.3186462 C123.483025,91.3186462 124.419584,90.4013391 124.419584,89.2733483 C124.419584,88.8535797 124.290141,88.4535079 124.051575,88.1152444 C123.936484,87.9520567 123.975641,87.7265844 124.139033,87.6116378 C124.302425,87.4966912 124.52818,87.5357983 124.64327,87.6989859 C124.966947,88.1579296 125.14333,88.7030784 125.14333,89.2733483 C125.14333,90.8037449 123.879611,92.0414868 122.324227,92.0414868 C120.768844,92.0414868 119.505125,90.8037449 119.505125,89.2733483 C119.505125,87.7429516 120.768844,86.5052097 122.324227,86.5052097 Z M57.2028146,86.5052097 C58.7581982,86.5052097 60.0219174,87.7429516 60.0219174,89.2733483 C60.0219174,90.8037449 58.7581982,92.0414868 57.2028146,92.0414868 C55.6474309,92.0414868 54.3837118,90.8037449 54.3837118,89.2733483 C54.3837118,87.7429516 55.6474309,86.5052097 57.2028146,86.5052097 Z M107.202815,86.5052097 C108.758198,86.5052097 110.021917,87.7429516 110.021917,89.2733483 C110.021917,90.8037449 108.758198,92.0414868 107.202815,92.0414868 C105.647431,92.0414868 104.383712,90.8037449 104.383712,89.2733483 C104.383712,87.7429516 105.647431,86.5052097 107.202815,86.5052097 Z M114.763521,86.5052097 C116.318905,86.5052097 117.582624,87.7429516 117.582624,89.2733483 C117.582624,90.8037449 116.318905,92.0414868 114.763521,92.0414868 C113.208137,92.0414868 111.944418,90.8037449 111.944418,89.2733483 C111.944418,87.7429516 113.208137,86.5052097 114.763521,86.5052097 Z M15.763521,86.5052097 C17.3189046,86.5052097 18.5826238,87.7429516 18.5826238,89.2733483 C18.5826238,90.8037449 17.3189046,92.0414868 15.763521,92.0414868 C14.2081373,92.0414868 12.9444182,90.8037449 12.9444182,89.2733483 C12.9444182,87.7429516 14.2081373,86.5052097 15.763521,86.5052097 Z M72.3242274,86.5052097 C72.7517024,86.5052097 73.1663708,86.5989421 73.5438901,86.7770645 C73.7245972,86.8623262 73.8018843,87.0777532 73.7165157,87.2582341 C73.6311471,87.438715 73.4154501,87.5159054 73.234743,87.4306436 C72.9534636,87.2979295 72.6443209,87.2280503 72.3242274,87.2280503 C71.1654302,87.2280503 70.228871,88.1453574 70.228871,89.2733483 C70.228871,90.4013391 71.1654302,91.3186462 72.3242274,91.3186462 C73.4830246,91.3186462 74.4195837,90.4013391 74.4195837,89.2733483 C74.4195837,88.8535797 74.2901406,88.4535079 74.051575,88.1152444 C73.9364844,87.9520567 73.9756405,87.7265844 74.1390326,87.6116378 C74.3024248,87.4966912 74.5281797,87.5357983 74.6432703,87.6989859 C74.9669475,88.1579296 75.1433302,88.7030784 75.1433302,89.2733483 C75.1433302,90.8037449 73.879611,92.0414868 72.3242274,92.0414868 C70.7688437,92.0414868 69.5051246,90.8037449 69.5051246,89.2733483 C69.5051246,87.7429516 70.7688437,86.5052097 72.3242274,86.5052097 Z M8.20281457,87.2280503 C7.04401737,87.2280503 6.10745822,88.1453574 6.10745822,89.2733483 C6.10745822,90.4013391 7.04401737,91.3186462 8.20281457,91.3186462 C9.36161177,91.3186462 10.2981709,90.4013391 10.2981709,89.2733483 C10.2981709,88.1453574 9.36161177,87.2280503 8.20281457,87.2280503 Z M57.2028146,87.2280503 C56.0440174,87.2280503 55.1074582,88.1453574 55.1074582,89.2733483 C55.1074582,90.4013391 56.0440174,91.3186462 57.2028146,91.3186462 C58.3616118,91.3186462 59.2981709,90.4013391 59.2981709,89.2733483 C59.2981709,88.1453574 58.3616118,87.2280503 57.2028146,87.2280503 Z M15.763521,87.2280503 C14.6047238,87.2280503 13.6681646,88.1453574 13.6681646,89.2733483 C13.6681646,90.4013391 14.6047238,91.3186462 15.763521,91.3186462 C16.9223182,91.3186462 17.8588773,90.4013391 17.8588773,89.2733483 C17.8588773,88.1453574 16.9223182,87.2280503 15.763521,87.2280503 Z M107.202815,87.2280503 C106.044017,87.2280503 105.107458,88.1453574 105.107458,89.2733483 C105.107458,90.4013391 106.044017,91.3186462 107.202815,91.3186462 C108.361612,91.3186462 109.298171,90.4013391 109.298171,89.2733483 C109.298171,88.1453574 108.361612,87.2280503 107.202815,87.2280503 Z M114.763521,87.2280503 C113.604724,87.2280503 112.668165,88.1453574 112.668165,89.2733483 C112.668165,90.4013391 113.604724,91.3186462 114.763521,91.3186462 C115.922318,91.3186462 116.858877,90.4013391 116.858877,89.2733483 C116.858877,88.1453574 115.922318,87.2280503 114.763521,87.2280503 Z M64.763521,87.2280503 C63.6047238,87.2280503 62.6681646,88.1453574 62.6681646,89.2733483 C62.6681646,90.4013391 63.6047238,91.3186462 64.763521,91.3186462 C65.9223182,91.3186462 66.8588773,90.4013391 66.8588773,89.2733483 C66.8588773,88.1453574 65.9223182,87.2280503 64.763521,87.2280503 Z M41,81 C42.1045695,81 43,81.8954305 43,83 C43,84.1045695 42.1045695,85 41,85 C39.8954305,85 39,84.1045695 39,83 C39,81.8954305 39.8954305,81 41,81 Z M91.763521,41.2021279 C92.190996,41.2021279 92.6056644,41.2958603 92.9831837,41.4739827 C93.1638908,41.5592444 93.2411779,41.7746714 93.1558093,41.9551523 C93.0704407,42.1356332 92.8547437,42.2128236 92.6740366,42.1275618 C92.3927572,41.9948477 92.0836145,41.9249685 91.763521,41.9249685 C90.6047238,41.9249685 89.6681646,42.8422756 89.6681646,43.9702665 C89.6681646,45.0982573 90.6047238,46.0155644 91.763521,46.0155644 C92.9223182,46.0155644 93.8588773,45.0982573 93.8588773,43.9702665 C93.8588773,43.5504979 93.7294342,43.1504261 93.4908686,42.8121626 C93.375778,42.6489749 93.4149341,42.4235026 93.5783262,42.308556 C93.7417184,42.1936094 93.9674733,42.2327165 94.0825639,42.3959041 C94.4062411,42.8548478 94.5826238,43.3999966 94.5826238,43.9702665 C94.5826238,45.5006631 93.3189046,46.738405 91.763521,46.738405 C90.2081373,46.738405 88.9444182,45.5006631 88.9444182,43.9702665 C88.9444182,42.4398698 90.2081373,41.2021279 91.763521,41.2021279 Z M40.763521,41.2021279 C41.190996,41.2021279 41.6056644,41.2958603 41.9831837,41.4739827 C42.1638908,41.5592444 42.2411779,41.7746714 42.1558093,41.9551523 C42.0704407,42.1356332 41.8547437,42.2128236 41.6740366,42.1275618 C41.3927572,41.9948477 41.0836145,41.9249685 40.763521,41.9249685 C39.6047238,41.9249685 38.6681646,42.8422756 38.6681646,43.9702665 C38.6681646,45.0982573 39.6047238,46.0155644 40.763521,46.0155644 C41.9223182,46.0155644 42.8588773,45.0982573 42.8588773,43.9702665 C42.8588773,43.5504979 42.7294342,43.1504261 42.4908686,42.8121626 C42.375778,42.6489749 42.4149341,42.4235026 42.5783262,42.308556 C42.7417184,42.1936094 42.9674733,42.2327165 43.0825639,42.3959041 C43.4062411,42.8548478 43.5826238,43.3999966 43.5826238,43.9702665 C43.5826238,45.5006631 42.3189046,46.738405 40.763521,46.738405 C39.2081373,46.738405 37.9444182,45.5006631 37.9444182,43.9702665 C37.9444182,42.4398698 39.2081373,41.2021279 40.763521,41.2021279 Z M91.763521,35.2778983 C93.3189046,35.2778983 94.5826238,36.5156402 94.5826238,38.0460369 C94.5826238,39.5764336 93.3189046,40.8141755 91.763521,40.8141755 C90.2081373,40.8141755 88.9444182,39.5764336 88.9444182,38.0460369 C88.9444182,36.5156402 90.2081373,35.2778983 91.763521,35.2778983 Z M40.763521,35.2778983 C42.3189046,35.2778983 43.5826238,36.5156402 43.5826238,38.0460369 C43.5826238,39.5764336 42.3189046,40.8141755 40.763521,40.8141755 C39.2081373,40.8141755 37.9444182,39.5764336 37.9444182,38.0460369 C37.9444182,36.5156402 39.2081373,35.2778983 40.763521,35.2778983 Z M91.763521,36.000739 C90.6047238,36.000739 89.6681646,36.918046 89.6681646,38.0460369 C89.6681646,39.1740278 90.6047238,40.0913348 91.763521,40.0913348 C92.9223182,40.0913348 93.8588773,39.1740278 93.8588773,38.0460369 C93.8588773,36.918046 92.9223182,36.000739 91.763521,36.000739 Z M40.763521,36.000739 C39.6047238,36.000739 38.6681646,36.918046 38.6681646,38.0460369 C38.6681646,39.1740278 39.6047238,40.0913348 40.763521,40.0913348 C41.9223182,40.0913348 42.8588773,39.1740278 42.8588773,38.0460369 C42.8588773,36.918046 41.9223182,36.000739 40.763521,36.000739 Z M40.763521,29.3536688 C41.190996,29.3536688 41.6056644,29.4474012 41.9831837,29.6255236 C42.1638908,29.7107853 42.2411779,29.9262123 42.1558093,30.1066932 C42.0704407,30.2871741 41.8547437,30.3643645 41.6740366,30.2791027 C41.3927572,30.1463886 41.0836145,30.0765094 40.763521,30.0765094 C39.6047238,30.0765094 38.6681646,30.9938165 38.6681646,32.1218074 C38.6681646,33.2497982 39.6047238,34.1671053 40.763521,34.1671053 C41.9223182,34.1671053 42.8588773,33.2497982 42.8588773,32.1218074 C42.8588773,31.7020388 42.7294342,31.301967 42.4908686,30.9637035 C42.375778,30.8005158 42.4149341,30.5750435 42.5783262,30.4600969 C42.7417184,30.3451503 42.9674733,30.3842574 43.0825639,30.547445 C43.4062411,31.0063887 43.5826238,31.5515375 43.5826238,32.1218074 C43.5826238,33.652204 42.3189046,34.8899459 40.763521,34.8899459 C39.2081373,34.8899459 37.9444182,33.652204 37.9444182,32.1218074 C37.9444182,30.5914107 39.2081373,29.3536688 40.763521,29.3536688 Z M48.3242274,29.3536688 C49.879611,29.3536688 51.1433302,30.5914107 51.1433302,32.1218074 C51.1433302,33.652204 49.879611,34.8899459 48.3242274,34.8899459 C46.7688437,34.8899459 45.5051246,33.652204 45.5051246,32.1218074 C45.5051246,30.5914107 46.7688437,29.3536688 48.3242274,29.3536688 Z M84.2028146,29.3536688 C85.7581982,29.3536688 87.0219174,30.5914107 87.0219174,32.1218074 C87.0219174,33.652204 85.7581982,34.8899459 84.2028146,34.8899459 C82.6474309,34.8899459 81.3837118,33.652204 81.3837118,32.1218074 C81.3837118,30.5914107 82.6474309,29.3536688 84.2028146,29.3536688 Z M99.3242274,29.3536688 C100.879611,29.3536688 102.14333,30.5914107 102.14333,32.1218074 C102.14333,33.652204 100.879611,34.8899459 99.3242274,34.8899459 C97.7688437,34.8899459 96.5051246,33.652204 96.5051246,32.1218074 C96.5051246,30.5914107 97.7688437,29.3536688 99.3242274,29.3536688 Z M91.763521,29.3536688 C92.190996,29.3536688 92.6056644,29.4474012 92.9831837,29.6255236 C93.1638908,29.7107853 93.2411779,29.9262123 93.1558093,30.1066932 C93.0704407,30.2871741 92.8547437,30.3643645 92.6740366,30.2791027 C92.3927572,30.1463886 92.0836145,30.0765094 91.763521,30.0765094 C90.6047238,30.0765094 89.6681646,30.9938165 89.6681646,32.1218074 C89.6681646,33.2497982 90.6047238,34.1671053 91.763521,34.1671053 C92.9223182,34.1671053 93.8588773,33.2497982 93.8588773,32.1218074 C93.8588773,31.7020388 93.7294342,31.301967 93.4908686,30.9637035 C93.375778,30.8005158 93.4149341,30.5750435 93.5783262,30.4600969 C93.7417184,30.3451503 93.9674733,30.3842574 94.0825639,30.547445 C94.4062411,31.0063887 94.5826238,31.5515375 94.5826238,32.1218074 C94.5826238,33.652204 93.3189046,34.8899459 91.763521,34.8899459 C90.2081373,34.8899459 88.9444182,33.652204 88.9444182,32.1218074 C88.9444182,30.5914107 90.2081373,29.3536688 91.763521,29.3536688 Z M33.2028146,29.3536688 C34.7581982,29.3536688 36.0219174,30.5914107 36.0219174,32.1218074 C36.0219174,33.652204 34.7581982,34.8899459 33.2028146,34.8899459 C31.6474309,34.8899459 30.3837118,33.652204 30.3837118,32.1218074 C30.3837118,30.5914107 31.6474309,29.3536688 33.2028146,29.3536688 Z M84.2028146,30.0765094 C83.0440174,30.0765094 82.1074582,30.9938165 82.1074582,32.1218074 C82.1074582,33.2497982 83.0440174,34.1671053 84.2028146,34.1671053 C85.3616118,34.1671053 86.2981709,33.2497982 86.2981709,32.1218074 C86.2981709,30.9938165 85.3616118,30.0765094 84.2028146,30.0765094 Z M99.3242274,30.0765094 C98.1654302,30.0765094 97.228871,30.9938165 97.228871,32.1218074 C97.228871,33.2497982 98.1654302,34.1671053 99.3242274,34.1671053 C100.483025,34.1671053 101.419584,33.2497982 101.419584,32.1218074 C101.419584,30.9938165 100.483025,30.0765094 99.3242274,30.0765094 Z M48.3242274,30.0765094 C47.1654302,30.0765094 46.228871,30.9938165 46.228871,32.1218074 C46.228871,33.2497982 47.1654302,34.1671053 48.3242274,34.1671053 C49.4830246,34.1671053 50.4195837,33.2497982 50.4195837,32.1218074 C50.4195837,30.9938165 49.4830246,30.0765094 48.3242274,30.0765094 Z M33.2028146,30.0765094 C32.0440174,30.0765094 31.1074582,30.9938165 31.1074582,32.1218074 C31.1074582,33.2497982 32.0440174,34.1671053 33.2028146,34.1671053 C34.3616118,34.1671053 35.2981709,33.2497982 35.2981709,32.1218074 C35.2981709,30.9938165 34.3616118,30.0765094 33.2028146,30.0765094 Z M91.763521,23.4294392 C93.3189046,23.4294392 94.5826238,24.6671811 94.5826238,26.1975778 C94.5826238,27.7279745 93.3189046,28.9657164 91.763521,28.9657164 C90.2081373,28.9657164 88.9444182,27.7279745 88.9444182,26.1975778 C88.9444182,25.7519284 89.0520425,25.3207173 89.2553528,24.9326844 C89.7352196,24.0168226 90.6967413,23.4294392 91.763521,23.4294392 Z M84.2028146,23.4294392 C84.6302896,23.4294392 85.044958,23.5231717 85.4224773,23.701294 C85.6031844,23.7865558 85.6804715,24.0019828 85.5951029,24.1824637 C85.5097343,24.3629446 85.2940373,24.440135 85.1133302,24.3548732 C84.8320508,24.2221591 84.5229081,24.1522799 84.2028146,24.1522799 C83.0440174,24.1522799 82.1074582,25.0695869 82.1074582,26.1975778 C82.1074582,27.3255687 83.0440174,28.2428757 84.2028146,28.2428757 C85.3616118,28.2428757 86.2981709,27.3255687 86.2981709,26.1975778 C86.2981709,25.7778092 86.1687278,25.3777374 85.9301622,25.0394739 C85.8150716,24.8762863 85.8542277,24.6508139 86.0176198,24.5358673 C86.181012,24.4209207 86.4067669,24.4600278 86.5218575,24.6232155 C86.8455347,25.0821591 87.0219174,25.627308 87.0219174,26.1975778 C87.0219174,27.7279745 85.7581982,28.9657164 84.2028146,28.9657164 C82.6474309,28.9657164 81.3837118,27.7279745 81.3837118,26.1975778 C81.3837118,24.6671811 82.6474309,23.4294392 84.2028146,23.4294392 Z M99.3242274,23.4294392 C100.879611,23.4294392 102.14333,24.6671811 102.14333,26.1975778 C102.14333,27.7279745 100.879611,28.9657164 99.3242274,28.9657164 C97.7688437,28.9657164 96.5051246,27.7279745 96.5051246,26.1975778 C96.5051246,24.6671811 97.7688437,23.4294392 99.3242274,23.4294392 Z M40.763521,23.4294392 C42.3189046,23.4294392 43.5826238,24.6671811 43.5826238,26.1975778 C43.5826238,27.7279745 42.3189046,28.9657164 40.763521,28.9657164 C39.2081373,28.9657164 37.9444182,27.7279745 37.9444182,26.1975778 C37.9444182,25.7519284 38.0520425,25.3207173 38.2553528,24.9326844 C38.7352196,24.0168226 39.6967413,23.4294392 40.763521,23.4294392 Z M48.3242274,23.4294392 C49.879611,23.4294392 51.1433302,24.6671811 51.1433302,26.1975778 C51.1433302,27.7279745 49.879611,28.9657164 48.3242274,28.9657164 C46.7688437,28.9657164 45.5051246,27.7279745 45.5051246,26.1975778 C45.5051246,24.6671811 46.7688437,23.4294392 48.3242274,23.4294392 Z M33.2028146,23.4294392 C33.6302896,23.4294392 34.044958,23.5231717 34.4224773,23.701294 C34.6031844,23.7865558 34.6804715,24.0019828 34.5951029,24.1824637 C34.5097343,24.3629446 34.2940373,24.440135 34.1133302,24.3548732 C33.8320508,24.2221591 33.5229081,24.1522799 33.2028146,24.1522799 C32.0440174,24.1522799 31.1074582,25.0695869 31.1074582,26.1975778 C31.1074582,27.3255687 32.0440174,28.2428757 33.2028146,28.2428757 C34.3616118,28.2428757 35.2981709,27.3255687 35.2981709,26.1975778 C35.2981709,25.7778092 35.1687278,25.3777374 34.9301622,25.0394739 C34.8150716,24.8762863 34.8542277,24.6508139 35.0176198,24.5358673 C35.181012,24.4209207 35.4067669,24.4600278 35.5218575,24.6232155 C35.8455347,25.0821591 36.0219174,25.627308 36.0219174,26.1975778 C36.0219174,27.7279745 34.7581982,28.9657164 33.2028146,28.9657164 C31.6474309,28.9657164 30.3837118,27.7279745 30.3837118,26.1975778 C30.3837118,24.6671811 31.6474309,23.4294392 33.2028146,23.4294392 Z M48.3242274,24.1522799 C47.1654302,24.1522799 46.228871,25.0695869 46.228871,26.1975778 C46.228871,27.3255687 47.1654302,28.2428757 48.3242274,28.2428757 C49.4830246,28.2428757 50.4195837,27.3255687 50.4195837,26.1975778 C50.4195837,25.0695869 49.4830246,24.1522799 48.3242274,24.1522799 Z M40.763521,24.1522799 C39.9673622,24.1522799 39.252189,24.5891715 38.8966057,25.2678291 C38.7471163,25.5531408 38.6681646,25.8694711 38.6681646,26.1975778 C38.6681646,27.3255687 39.6047238,28.2428757 40.763521,28.2428757 C41.9223182,28.2428757 42.8588773,27.3255687 42.8588773,26.1975778 C42.8588773,25.0695869 41.9223182,24.1522799 40.763521,24.1522799 Z M91.763521,24.1522799 C90.9673622,24.1522799 90.252189,24.5891715 89.8966057,25.2678291 C89.7471163,25.5531408 89.6681646,25.8694711 89.6681646,26.1975778 C89.6681646,27.3255687 90.6047238,28.2428757 91.763521,28.2428757 C92.9223182,28.2428757 93.8588773,27.3255687 93.8588773,26.1975778 C93.8588773,25.0695869 92.9223182,24.1522799 91.763521,24.1522799 Z M99.3242274,24.1522799 C98.1654302,24.1522799 97.228871,25.0695869 97.228871,26.1975778 C97.228871,27.3255687 98.1654302,28.2428757 99.3242274,28.2428757 C100.483025,28.2428757 101.419584,27.3255687 101.419584,26.1975778 C101.419584,25.0695869 100.483025,24.1522799 99.3242274,24.1522799 Z M66.2350993,25.6772063 C66.6465698,25.6772063 66.9801325,26.0039122 66.9801325,26.4069243 C66.9801325,26.8099365 66.6465698,27.1366424 66.2350993,27.1366424 C65.8236289,27.1366424 65.4900662,26.8099365 65.4900662,26.4069243 C65.4900662,26.0039122 65.8236289,25.6772063 66.2350993,25.6772063 Z M48.3242274,17.5052097 C48.7517024,17.5052097 49.1663708,17.5989421 49.5438901,17.7770645 C49.7245972,17.8623262 49.8018843,18.0777532 49.7165157,18.2582341 C49.6311471,18.438715 49.4154501,18.5159054 49.234743,18.4306436 C48.9534636,18.2979295 48.6443209,18.2280503 48.3242274,18.2280503 C47.1654302,18.2280503 46.228871,19.1453574 46.228871,20.2733483 C46.228871,21.4013391 47.1654302,22.3186462 48.3242274,22.3186462 C49.4830246,22.3186462 50.4195837,21.4013391 50.4195837,20.2733483 C50.4195837,19.8535797 50.2901406,19.4535079 50.051575,19.1152444 C49.9364844,18.9520567 49.9756405,18.7265844 50.1390326,18.6116378 C50.3024248,18.4966912 50.5281797,18.5357983 50.6432703,18.6989859 C50.9669475,19.1579296 51.1433302,19.7030784 51.1433302,20.2733483 C51.1433302,21.8037449 49.879611,23.0414868 48.3242274,23.0414868 C46.7688437,23.0414868 45.5051246,21.8037449 45.5051246,20.2733483 C45.5051246,18.7429516 46.7688437,17.5052097 48.3242274,17.5052097 Z M84.2028146,17.5052097 C85.7581982,17.5052097 87.0219174,18.7429516 87.0219174,20.2733483 C87.0219174,21.8037449 85.7581982,23.0414868 84.2028146,23.0414868 C82.6474309,23.0414868 81.3837118,21.8037449 81.3837118,20.2733483 C81.3837118,18.7429516 82.6474309,17.5052097 84.2028146,17.5052097 Z M91.763521,17.5052097 C93.3189046,17.5052097 94.5826238,18.7429516 94.5826238,20.2733483 C94.5826238,21.8037449 93.3189046,23.0414868 91.763521,23.0414868 C90.2081373,23.0414868 88.9444182,21.8037449 88.9444182,20.2733483 C88.9444182,18.7429516 90.2081373,17.5052097 91.763521,17.5052097 Z M99.3242274,17.5052097 C99.7517024,17.5052097 100.166371,17.5989421 100.54389,17.7770645 C100.724597,17.8623262 100.801884,18.0777532 100.716516,18.2582341 C100.631147,18.438715 100.41545,18.5159054 100.234743,18.4306436 C99.9534636,18.2979295 99.6443209,18.2280503 99.3242274,18.2280503 C98.1654302,18.2280503 97.228871,19.1453574 97.228871,20.2733483 C97.228871,21.4013391 98.1654302,22.3186462 99.3242274,22.3186462 C100.483025,22.3186462 101.419584,21.4013391 101.419584,20.2733483 C101.419584,19.8535797 101.290141,19.4535079 101.051575,19.1152444 C100.936484,18.9520567 100.975641,18.7265844 101.139033,18.6116378 C101.302425,18.4966912 101.52818,18.5357983 101.64327,18.6989859 C101.966947,19.1579296 102.14333,19.7030784 102.14333,20.2733483 C102.14333,21.8037449 100.879611,23.0414868 99.3242274,23.0414868 C97.7688437,23.0414868 96.5051246,21.8037449 96.5051246,20.2733483 C96.5051246,18.7429516 97.7688437,17.5052097 99.3242274,17.5052097 Z M40.763521,17.5052097 C42.3189046,17.5052097 43.5826238,18.7429516 43.5826238,20.2733483 C43.5826238,21.8037449 42.3189046,23.0414868 40.763521,23.0414868 C39.2081373,23.0414868 37.9444182,21.8037449 37.9444182,20.2733483 C37.9444182,18.7429516 39.2081373,17.5052097 40.763521,17.5052097 Z M33.2028146,17.5052097 C34.7581982,17.5052097 36.0219174,18.7429516 36.0219174,20.2733483 C36.0219174,21.8037449 34.7581982,23.0414868 33.2028146,23.0414868 C31.6474309,23.0414868 30.3837118,21.8037449 30.3837118,20.2733483 C30.3837118,18.7429516 31.6474309,17.5052097 33.2028146,17.5052097 Z M40.763521,18.2280503 C39.6047238,18.2280503 38.6681646,19.1453574 38.6681646,20.2733483 C38.6681646,21.4013391 39.6047238,22.3186462 40.763521,22.3186462 C41.9223182,22.3186462 42.8588773,21.4013391 42.8588773,20.2733483 C42.8588773,19.1453574 41.9223182,18.2280503 40.763521,18.2280503 Z M84.2028146,18.2280503 C83.0440174,18.2280503 82.1074582,19.1453574 82.1074582,20.2733483 C82.1074582,21.4013391 83.0440174,22.3186462 84.2028146,22.3186462 C85.3616118,22.3186462 86.2981709,21.4013391 86.2981709,20.2733483 C86.2981709,19.1453574 85.3616118,18.2280503 84.2028146,18.2280503 Z M91.763521,18.2280503 C90.6047238,18.2280503 89.6681646,19.1453574 89.6681646,20.2733483 C89.6681646,21.4013391 90.6047238,22.3186462 91.763521,22.3186462 C92.9223182,22.3186462 93.8588773,21.4013391 93.8588773,20.2733483 C93.8588773,19.1453574 92.9223182,18.2280503 91.763521,18.2280503 Z M33.2028146,18.2280503 C32.0440174,18.2280503 31.1074582,19.1453574 31.1074582,20.2733483 C31.1074582,21.4013391 32.0440174,22.3186462 33.2028146,22.3186462 C34.3616118,22.3186462 35.2981709,21.4013391 35.2981709,20.2733483 C35.2981709,19.1453574 34.3616118,18.2280503 33.2028146,18.2280503 Z" id="Combined-Shape" fill="#8C8D8E" fill-rule="nonzero"></path>
        <path d="M93,127 C95.7614237,127 98,129.238576 98,132 C98,134.761424 95.7614237,137 93,137 C90.2385763,137 88,134.761424 88,132 C88,129.238576 90.2385763,127 93,127 Z M126.671634,69.6023672 C128.254821,69.6023672 129.542968,70.8640342 129.542968,72.4263205 L129.542968,72.4263205 L129.542968,122.041743 C129.542968,123.604029 128.254821,124.865696 126.671634,124.865696 L126.671634,124.865696 L102.855408,124.865696 C101.272221,124.865696 99.9840744,123.604029 99.9840744,122.041743 L99.9840744,122.041743 L99.9840744,79.1322996 C99.9840744,78.7996213 100.254101,78.5299324 100.587196,78.5299324 C100.920292,78.5299324 101.190319,78.7996213 101.190319,79.1322996 L101.190319,79.1322996 L101.190319,122.041743 C101.190319,122.933353 101.933198,123.660962 102.855408,123.660962 L102.855408,123.660962 L126.671634,123.660962 C127.593844,123.660962 128.336723,122.933353 128.336723,122.041743 L128.336723,122.041743 L128.336723,72.4263205 C128.336723,71.5347105 127.593844,70.8071016 126.671634,70.8071016 L126.671634,70.8071016 L102.855408,70.8071016 C101.933198,70.8071016 101.190319,71.5347105 101.190319,72.4263205 L101.190319,72.4263205 L101.190319,76.6843605 C101.190319,77.0170387 100.920292,77.2867277 100.587196,77.2867277 C100.254101,77.2867277 99.9840744,77.0170387 99.9840744,76.6843605 L99.9840744,76.6843605 L99.9840744,72.4263205 C99.9840744,70.8640342 101.272221,69.6023672 102.855408,69.6023672 L102.855408,69.6023672 Z M114.00745,121.371479 C114.173136,121.371479 114.30745,121.505793 114.30745,121.671479 C114.30745,121.813495 114.20877,121.932463 114.076238,121.963555 L114.00745,121.971479 L109.471026,121.971479 C109.305341,121.971479 109.171026,121.837164 109.171026,121.671479 C109.171026,121.529463 109.269707,121.410494 109.402239,121.379402 L109.471026,121.371479 L114.00745,121.371479 Z M126.104581,121.371479 C126.270266,121.371479 126.404581,121.505793 126.404581,121.671479 C126.404581,121.813495 126.3059,121.932463 126.173368,121.963555 L126.104581,121.971479 L121.568157,121.971479 C121.402471,121.971479 121.268157,121.837164 121.268157,121.671479 C121.268157,121.529463 121.366837,121.410494 121.499369,121.379402 L121.568157,121.371479 L126.104581,121.371479 Z M21.0560155,121.371479 C21.2217009,121.371479 21.3560155,121.505793 21.3560155,121.671479 C21.3560155,121.813495 21.2573354,121.932463 21.1248027,121.963555 L21.0560155,121.971479 L16.5195916,121.971479 C16.3539062,121.971479 16.2195916,121.837164 16.2195916,121.671479 C16.2195916,121.529463 16.3182717,121.410494 16.4508044,121.379402 L16.5195916,121.371479 L21.0560155,121.371479 Z M15.0074503,121.371479 C15.1731358,121.371479 15.3074503,121.505793 15.3074503,121.671479 C15.3074503,121.813495 15.2087702,121.932463 15.0762376,121.963555 L15.0074503,121.971479 L10.4710265,121.971479 C10.3053411,121.971479 10.1710265,121.837164 10.1710265,121.671479 C10.1710265,121.529463 10.2697066,121.410494 10.4022392,121.379402 L10.4710265,121.371479 L15.0074503,121.371479 Z M27.1045806,121.371479 C27.270266,121.371479 27.4045806,121.505793 27.4045806,121.671479 C27.4045806,121.813495 27.3059005,121.932463 27.1733678,121.963555 L27.1045806,121.971479 L22.5681567,121.971479 C22.4024713,121.971479 22.2681567,121.837164 22.2681567,121.671479 C22.2681567,121.529463 22.3668368,121.410494 22.4993695,121.379402 L22.5681567,121.371479 L27.1045806,121.371479 Z M8.95888521,121.371479 C9.12457063,121.371479 9.25888521,121.505793 9.25888521,121.671479 C9.25888521,121.813495 9.16020511,121.932463 9.02767246,121.963555 L8.95888521,121.971479 L4.42246137,121.971479 C4.25677594,121.971479 4.12246137,121.837164 4.12246137,121.671479 C4.12246137,121.529463 4.22114146,121.410494 4.35367412,121.379402 L4.42246137,121.371479 L8.95888521,121.371479 Z M70.0560155,121.371479 C70.2217009,121.371479 70.3560155,121.505793 70.3560155,121.671479 C70.3560155,121.813495 70.2573354,121.932463 70.1248027,121.963555 L70.0560155,121.971479 L65.5195916,121.971479 C65.3539062,121.971479 65.2195916,121.837164 65.2195916,121.671479 C65.2195916,121.529463 65.3182717,121.410494 65.4508044,121.379402 L65.5195916,121.371479 L70.0560155,121.371479 Z M64.0074503,121.371479 C64.1731358,121.371479 64.3074503,121.505793 64.3074503,121.671479 C64.3074503,121.813495 64.2087702,121.932463 64.0762376,121.963555 L64.0074503,121.971479 L59.4710265,121.971479 C59.3053411,121.971479 59.1710265,121.837164 59.1710265,121.671479 C59.1710265,121.529463 59.2697066,121.410494 59.4022392,121.379402 L59.4710265,121.371479 L64.0074503,121.371479 Z M76.1045806,121.371479 C76.270266,121.371479 76.4045806,121.505793 76.4045806,121.671479 C76.4045806,121.813495 76.3059005,121.932463 76.1733678,121.963555 L76.1045806,121.971479 L71.5681567,121.971479 C71.4024713,121.971479 71.2681567,121.837164 71.2681567,121.671479 C71.2681567,121.529463 71.3668368,121.410494 71.4993695,121.379402 L71.5681567,121.371479 L76.1045806,121.371479 Z M57.9588852,121.371479 C58.1245706,121.371479 58.2588852,121.505793 58.2588852,121.671479 C58.2588852,121.813495 58.1602051,121.932463 58.0276725,121.963555 L57.9588852,121.971479 L53.4224614,121.971479 C53.2567759,121.971479 53.1224614,121.837164 53.1224614,121.671479 C53.1224614,121.529463 53.2211415,121.410494 53.3536741,121.379402 L53.4224614,121.371479 L57.9588852,121.371479 Z M120.056015,121.371479 C120.221701,121.371479 120.356015,121.505793 120.356015,121.671479 C120.356015,121.813495 120.257335,121.932463 120.124803,121.963555 L120.056015,121.971479 L115.519592,121.971479 C115.353906,121.971479 115.219592,121.837164 115.219592,121.671479 C115.219592,121.529463 115.318272,121.410494 115.450804,121.379402 L115.519592,121.371479 L120.056015,121.371479 Z M107.958885,121.371479 C108.124571,121.371479 108.258885,121.505793 108.258885,121.671479 C108.258885,121.813495 108.160205,121.932463 108.027672,121.963555 L107.958885,121.971479 L103.422461,121.971479 C103.256776,121.971479 103.122461,121.837164 103.122461,121.671479 C103.122461,121.529463 103.221141,121.410494 103.353674,121.379402 L103.422461,121.371479 L107.958885,121.371479 Z M107.202815,104.277898 C108.758198,104.277898 110.021917,105.51564 110.021917,107.046037 C110.021917,108.576434 108.758198,109.814175 107.202815,109.814175 C105.647431,109.814175 104.383712,108.576434 104.383712,107.046037 C104.383712,105.51564 105.647431,104.277898 107.202815,104.277898 Z M23.3242274,104.277898 C23.7517024,104.277898 24.1663708,104.371631 24.5438901,104.549753 C24.7245972,104.635015 24.8018843,104.850442 24.7165157,105.030923 C24.6311471,105.211404 24.4154501,105.288594 24.234743,105.203332 C23.9534636,105.070618 23.6443209,105.000739 23.3242274,105.000739 C22.1654302,105.000739 21.228871,105.918046 21.228871,107.046037 C21.228871,108.174028 22.1654302,109.091335 23.3242274,109.091335 C24.4830246,109.091335 25.4195837,108.174028 25.4195837,107.046037 C25.4195837,106.626268 25.2901406,106.226197 25.051575,105.887933 C24.9364844,105.724745 24.9756405,105.499273 25.1390326,105.384326 C25.3024248,105.26938 25.5281797,105.308487 25.6432703,105.471675 C25.9669475,105.930618 26.1433302,106.475767 26.1433302,107.046037 C26.1433302,108.576434 24.879611,109.814175 23.3242274,109.814175 C21.7688437,109.814175 20.5051246,108.576434 20.5051246,107.046037 C20.5051246,105.51564 21.7688437,104.277898 23.3242274,104.277898 Z M8.20281457,104.277898 C9.75819822,104.277898 11.0219174,105.51564 11.0219174,107.046037 C11.0219174,108.576434 9.75819822,109.814175 8.20281457,109.814175 C6.64743092,109.814175 5.38371176,108.576434 5.38371176,107.046037 C5.38371176,105.51564 6.64743092,104.277898 8.20281457,104.277898 Z M122.324227,104.277898 C122.751702,104.277898 123.166371,104.371631 123.54389,104.549753 C123.724597,104.635015 123.801884,104.850442 123.716516,105.030923 C123.631147,105.211404 123.41545,105.288594 123.234743,105.203332 C122.953464,105.070618 122.644321,105.000739 122.324227,105.000739 C121.16543,105.000739 120.228871,105.918046 120.228871,107.046037 C120.228871,108.174028 121.16543,109.091335 122.324227,109.091335 C123.483025,109.091335 124.419584,108.174028 124.419584,107.046037 C124.419584,106.626268 124.290141,106.226197 124.051575,105.887933 C123.936484,105.724745 123.975641,105.499273 124.139033,105.384326 C124.302425,105.26938 124.52818,105.308487 124.64327,105.471675 C124.966947,105.930618 125.14333,106.475767 125.14333,107.046037 C125.14333,108.576434 123.879611,109.814175 122.324227,109.814175 C120.768844,109.814175 119.505125,108.576434 119.505125,107.046037 C119.505125,105.51564 120.768844,104.277898 122.324227,104.277898 Z M57.2028146,104.277898 C58.7581982,104.277898 60.0219174,105.51564 60.0219174,107.046037 C60.0219174,108.576434 58.7581982,109.814175 57.2028146,109.814175 C55.6474309,109.814175 54.3837118,108.576434 54.3837118,107.046037 C54.3837118,105.51564 55.6474309,104.277898 57.2028146,104.277898 Z M72.3242274,104.277898 C72.7517024,104.277898 73.1663708,104.371631 73.5438901,104.549753 C73.7245972,104.635015 73.8018843,104.850442 73.7165157,105.030923 C73.6311471,105.211404 73.4154501,105.288594 73.234743,105.203332 C72.9534636,105.070618 72.6443209,105.000739 72.3242274,105.000739 C71.1654302,105.000739 70.228871,105.918046 70.228871,107.046037 C70.228871,108.174028 71.1654302,109.091335 72.3242274,109.091335 C73.4830246,109.091335 74.4195837,108.174028 74.4195837,107.046037 C74.4195837,106.626268 74.2901406,106.226197 74.051575,105.887933 C73.9364844,105.724745 73.9756405,105.499273 74.1390326,105.384326 C74.3024248,105.26938 74.5281797,105.308487 74.6432703,105.471675 C74.9669475,105.930618 75.1433302,106.475767 75.1433302,107.046037 C75.1433302,108.576434 73.879611,109.814175 72.3242274,109.814175 C70.7688437,109.814175 69.5051246,108.576434 69.5051246,107.046037 C69.5051246,105.51564 70.7688437,104.277898 72.3242274,104.277898 Z M57.2028146,105.000739 C56.0440174,105.000739 55.1074582,105.918046 55.1074582,107.046037 C55.1074582,108.174028 56.0440174,109.091335 57.2028146,109.091335 C58.3616118,109.091335 59.2981709,108.174028 59.2981709,107.046037 C59.2981709,105.918046 58.3616118,105.000739 57.2028146,105.000739 Z M8.20281457,105.000739 C7.04401737,105.000739 6.10745822,105.918046 6.10745822,107.046037 C6.10745822,108.174028 7.04401737,109.091335 8.20281457,109.091335 C9.36161177,109.091335 10.2981709,108.174028 10.2981709,107.046037 C10.2981709,105.918046 9.36161177,105.000739 8.20281457,105.000739 Z M107.202815,105.000739 C106.044017,105.000739 105.107458,105.918046 105.107458,107.046037 C105.107458,108.174028 106.044017,109.091335 107.202815,109.091335 C108.361612,109.091335 109.298171,108.174028 109.298171,107.046037 C109.298171,105.918046 108.361612,105.000739 107.202815,105.000739 Z M122.62334,105.864767 C122.734972,105.864767 122.82899,105.939775 122.857229,106.041882 L122.865893,106.106016 L122.866471,106.467767 L123.28755,106.467889 C123.398443,106.467889 123.491839,106.543397 123.51989,106.646185 L123.528497,106.710746 C123.528497,106.822518 123.453583,106.916654 123.351603,106.944928 L123.28755,106.953603 L122.866471,106.952767 L122.866471,107.251767 L123.291524,107.251948 C123.402417,107.251948 123.495813,107.327455 123.523864,107.430244 L123.532471,107.494805 C123.532471,107.606577 123.457557,107.700713 123.355577,107.728987 L123.291524,107.737662 L122.866471,107.736767 L122.865893,107.959658 C122.865893,108.070689 122.79048,108.164202 122.68782,108.192289 L122.62334,108.200906 C122.511708,108.200906 122.41769,108.125899 122.389451,108.023791 L122.380787,107.959658 L122.381471,107.736767 L122.143471,107.736767 L122.143053,107.959658 C122.143053,108.070689 122.067639,108.164202 121.96498,108.192289 L121.900499,108.200906 C121.788867,108.200906 121.694849,108.125899 121.66661,108.023791 L121.657946,107.959658 L121.658471,107.736767 L121.243476,107.737662 C121.132583,107.737662 121.039187,107.662155 121.011136,107.559366 L121.002529,107.494805 C121.002529,107.383033 121.077442,107.288897 121.179422,107.260623 L121.243476,107.251948 L121.658471,107.251767 L121.658471,106.952767 L121.239502,106.953603 C121.10643,106.953603 120.998555,106.844873 120.998555,106.710746 C120.998555,106.598974 121.073468,106.504838 121.175448,106.476564 L121.239502,106.467889 L121.658471,106.467767 L121.657946,106.106016 C121.657946,105.994984 121.733359,105.901471 121.836019,105.873385 L121.900499,105.864767 C122.012131,105.864767 122.10615,105.939775 122.134388,106.041882 L122.143053,106.106016 L122.143471,106.467767 L122.381471,106.467767 L122.380787,106.106016 C122.380787,105.994984 122.4562,105.901471 122.55886,105.873385 L122.62334,105.864767 Z M72.62334,105.864767 C72.734972,105.864767 72.8289903,105.939775 72.8572289,106.041882 L72.8658931,106.106016 L72.8664709,106.467767 L73.2875502,106.467889 C73.3984429,106.467889 73.4918387,106.543397 73.5198902,106.646185 L73.5284971,106.710746 C73.5284971,106.822518 73.4535835,106.916654 73.3516034,106.944928 L73.2875502,106.953603 L72.8664709,106.952767 L72.8664709,107.251767 L73.2915241,107.251948 C73.4024168,107.251948 73.4958125,107.327455 73.5238641,107.430244 L73.5324709,107.494805 C73.5324709,107.606577 73.4575573,107.700713 73.3555773,107.728987 L73.2915241,107.737662 L72.8664709,107.736767 L72.8658931,107.959658 C72.8658931,108.070689 72.7904801,108.164202 72.6878202,108.192289 L72.62334,108.200906 C72.5117079,108.200906 72.4176896,108.125899 72.389451,108.023791 L72.3807868,107.959658 L72.3814709,107.736767 L72.1434709,107.736767 L72.1430525,107.959658 C72.1430525,108.070689 72.0676395,108.164202 71.9649796,108.192289 L71.9004993,108.200906 C71.7888673,108.200906 71.6948489,108.125899 71.6666104,108.023791 L71.6579461,107.959658 L71.6584709,107.736767 L71.2434756,107.737662 C71.1325828,107.737662 71.0391871,107.662155 71.0111356,107.559366 L71.0025287,107.494805 C71.0025287,107.383033 71.0774423,107.288897 71.1794224,107.260623 L71.2434756,107.251948 L71.6584709,107.251767 L71.6584709,106.952767 L71.2395017,106.953603 C71.1064304,106.953603 70.9985548,106.844873 70.9985548,106.710746 C70.9985548,106.598974 71.0734684,106.504838 71.1754485,106.476564 L71.2395017,106.467889 L71.6584709,106.467767 L71.6579461,106.106016 C71.6579461,105.994984 71.7333592,105.901471 71.8360191,105.873385 L71.9004993,105.864767 C72.0121313,105.864767 72.1061497,105.939775 72.1343883,106.041882 L72.1430525,106.106016 L72.1434709,106.467767 L72.3814709,106.467767 L72.3807868,106.106016 C72.3807868,105.994984 72.4561998,105.901471 72.5588597,105.873385 L72.62334,105.864767 Z M23.62334,105.864767 C23.734972,105.864767 23.8289903,105.939775 23.8572289,106.041882 L23.8658931,106.106016 L23.8664709,106.467767 L24.2875502,106.467889 C24.3984429,106.467889 24.4918387,106.543397 24.5198902,106.646185 L24.5284971,106.710746 C24.5284971,106.822518 24.4535835,106.916654 24.3516034,106.944928 L24.2875502,106.953603 L23.8664709,106.952767 L23.8664709,107.251767 L24.2915241,107.251948 C24.4024168,107.251948 24.4958125,107.327455 24.5238641,107.430244 L24.5324709,107.494805 C24.5324709,107.606577 24.4575573,107.700713 24.3555773,107.728987 L24.2915241,107.737662 L23.8664709,107.736767 L23.8658931,107.959658 C23.8658931,108.070689 23.7904801,108.164202 23.6878202,108.192289 L23.62334,108.200906 C23.5117079,108.200906 23.4176896,108.125899 23.389451,108.023791 L23.3807868,107.959658 L23.3814709,107.736767 L23.1434709,107.736767 L23.1430525,107.959658 C23.1430525,108.070689 23.0676395,108.164202 22.9649796,108.192289 L22.9004993,108.200906 C22.7888673,108.200906 22.6948489,108.125899 22.6666104,108.023791 L22.6579461,107.959658 L22.6584709,107.736767 L22.2434756,107.737662 C22.1325828,107.737662 22.0391871,107.662155 22.0111356,107.559366 L22.0025287,107.494805 C22.0025287,107.383033 22.0774423,107.288897 22.1794224,107.260623 L22.2434756,107.251948 L22.6584709,107.251767 L22.6584709,106.952767 L22.2395017,106.953603 C22.1064304,106.953603 21.9985548,106.844873 21.9985548,106.710746 C21.9985548,106.598974 22.0734684,106.504838 22.1754485,106.476564 L22.2395017,106.467889 L22.6584709,106.467767 L22.6579461,106.106016 C22.6579461,105.994984 22.7333592,105.901471 22.8360191,105.873385 L22.9004993,105.864767 C23.0121313,105.864767 23.1061497,105.939775 23.1343883,106.041882 L23.1430525,106.106016 L23.1434709,106.467767 L23.3814709,106.467767 L23.3807868,106.106016 C23.3807868,105.994984 23.4561998,105.901471 23.5588597,105.873385 L23.62334,105.864767 Z M107.128146,105.864872 C107.239918,105.864872 107.334054,105.939786 107.362328,106.041766 L107.371003,106.105819 L107.370778,106.453872 L107.622345,106.208851 C107.701525,106.131213 107.821085,106.119731 107.913094,106.173469 L107.964451,106.213531 C108.04271,106.293334 108.055135,106.41299 108.002116,106.504573 L107.962455,106.555611 L107.710778,106.800872 L108.053847,106.801517 C108.16474,106.801517 108.258136,106.877024 108.286187,106.979813 L108.294794,107.044374 C108.294794,107.156146 108.21988,107.250282 108.1179,107.278556 L108.053847,107.287231 L107.745778,107.286872 L107.981128,107.517831 C108.060309,107.595469 108.074123,107.714763 108.022182,107.80779 L107.983124,107.859911 C107.904851,107.9397 107.785443,107.954456 107.692828,107.903243 L107.641018,107.864591 L107.370778,107.598872 L107.371003,107.957141 C107.371003,108.068034 107.295495,108.16143 107.192707,108.189481 L107.128146,108.198088 C107.016374,108.198088 106.922238,108.123174 106.893964,108.021194 L106.885289,107.957141 L106.884778,107.610872 L106.627469,107.864591 C106.548288,107.942229 106.428729,107.953711 106.336719,107.899973 L106.285362,107.859911 C106.207104,107.780108 106.194678,107.660452 106.247697,107.568869 L106.287358,107.517831 L106.521778,107.286872 L106.166036,107.287231 C106.055143,107.287231 105.961748,107.211723 105.933696,107.108935 L105.925089,107.044374 C105.925089,106.932602 106.000003,106.838466 106.101983,106.810192 L106.166036,106.801517 L106.556778,106.800872 L106.306032,106.555611 C106.226851,106.477973 106.213036,106.358679 106.264977,106.265652 L106.304036,106.213531 C106.382308,106.133742 106.501717,106.118986 106.594332,106.170199 L106.646142,106.208851 L106.884778,106.441872 L106.885289,106.105819 C106.885289,105.994927 106.960796,105.901531 107.063585,105.873479 L107.128146,105.864872 Z M8.1281457,105.864872 C8.23991761,105.864872 8.33405379,105.939786 8.36232775,106.041766 L8.37100284,106.105819 L8.37077806,106.453872 L8.62234459,106.208851 C8.7015251,106.131213 8.82108469,106.119731 8.91309444,106.173469 L8.96445087,106.213531 C9.0427097,106.293334 9.05513487,106.41299 9.00211626,106.504573 L8.96245497,106.555611 L8.71077806,106.800872 L9.05384712,106.801517 C9.16473986,106.801517 9.25813559,106.877024 9.28618714,106.979813 L9.294794,107.044374 C9.294794,107.156146 9.21988039,107.250282 9.11790034,107.278556 L9.05384712,107.287231 L8.74577806,107.286872 L8.98112816,107.517831 C9.06030868,107.595469 9.07412341,107.714763 9.02218244,107.80779 L8.98312406,107.859911 C8.90485142,107.9397 8.78544314,107.954456 8.69282815,107.903243 L8.64101778,107.864591 L8.37077806,107.598872 L8.37100284,107.957141 C8.37100284,108.068034 8.29549531,108.16143 8.19270674,108.189481 L8.1281457,108.198088 C8.01637378,108.198088 7.9222376,108.123174 7.89396364,108.021194 L7.88528855,107.957141 L7.88477806,107.610872 L7.62746878,107.864591 C7.54828826,107.942229 7.42872867,107.953711 7.33671893,107.899973 L7.2853625,107.859911 C7.20710366,107.780108 7.1946785,107.660452 7.2476971,107.568869 L7.2873584,107.517831 L7.52177806,107.286872 L7.1660362,107.287231 C7.05514346,107.287231 6.96174773,107.211723 6.93369617,107.108935 L6.92508932,107.044374 C6.92508932,106.932602 7.00000292,106.838466 7.10198297,106.810192 L7.1660362,106.801517 L7.55677806,106.800872 L7.3060316,106.555611 C7.22685108,106.477973 7.21303635,106.358679 7.26497732,106.265652 L7.3040357,106.213531 C7.38230834,106.133742 7.50171662,106.118986 7.59433161,106.170199 L7.64614198,106.208851 L7.88477806,106.441872 L7.88528855,106.105819 C7.88528855,105.994927 7.96079608,105.901531 8.06358465,105.873479 L8.1281457,105.864872 Z M57.1281457,105.864872 C57.2399176,105.864872 57.3340538,105.939786 57.3623277,106.041766 L57.3710028,106.105819 L57.3707781,106.453872 L57.6223446,106.208851 C57.7015251,106.131213 57.8210847,106.119731 57.9130944,106.173469 L57.9644509,106.213531 C58.0427097,106.293334 58.0551349,106.41299 58.0021163,106.504573 L57.962455,106.555611 L57.7107781,106.800872 L58.0538471,106.801517 C58.1647399,106.801517 58.2581356,106.877024 58.2861871,106.979813 L58.294794,107.044374 C58.294794,107.156146 58.2198804,107.250282 58.1179003,107.278556 L58.0538471,107.287231 L57.7457781,107.286872 L57.9811282,107.517831 C58.0603087,107.595469 58.0741234,107.714763 58.0221824,107.80779 L57.9831241,107.859911 C57.9048514,107.9397 57.7854431,107.954456 57.6928282,107.903243 L57.6410178,107.864591 L57.3707781,107.598872 L57.3710028,107.957141 C57.3710028,108.068034 57.2954953,108.16143 57.1927067,108.189481 L57.1281457,108.198088 C57.0163738,108.198088 56.9222376,108.123174 56.8939636,108.021194 L56.8852886,107.957141 L56.8847781,107.610872 L56.6274688,107.864591 C56.5482883,107.942229 56.4287287,107.953711 56.3367189,107.899973 L56.2853625,107.859911 C56.2071037,107.780108 56.1946785,107.660452 56.2476971,107.568869 L56.2873584,107.517831 L56.5217781,107.286872 L56.1660362,107.287231 C56.0551435,107.287231 55.9617477,107.211723 55.9336962,107.108935 L55.9250893,107.044374 C55.9250893,106.932602 56.0000029,106.838466 56.101983,106.810192 L56.1660362,106.801517 L56.5567781,106.800872 L56.3060316,106.555611 C56.2268511,106.477973 56.2130364,106.358679 56.2649773,106.265652 L56.3040357,106.213531 C56.3823083,106.133742 56.5017166,106.118986 56.5943316,106.170199 L56.646142,106.208851 L56.8847781,106.441872 L56.8852886,106.105819 C56.8852886,105.994927 56.9607961,105.901531 57.0635846,105.873479 L57.1281457,105.864872 Z M71.9125374,72.4937297 C72.1842656,72.4937297 72.4045449,72.7109193 72.4045449,72.9788361 C72.4045449,73.246753 72.1842656,73.4639425 71.9125374,73.4639425 C71.6408091,73.4639425 71.4205298,73.246753 71.4205298,72.9788361 C71.4205298,72.7109193 71.6408091,72.4937297 71.9125374,72.4937297 Z M22.9125374,72.4937297 C23.1842656,72.4937297 23.4045449,72.7109193 23.4045449,72.9788361 C23.4045449,73.246753 23.1842656,73.4639425 22.9125374,73.4639425 C22.6408091,73.4639425 22.4205298,73.246753 22.4205298,72.9788361 C22.4205298,72.7109193 22.6408091,72.4937297 22.9125374,72.4937297 Z M121.912537,72.4937297 C122.184266,72.4937297 122.404545,72.7109193 122.404545,72.9788361 C122.404545,73.246753 122.184266,73.4639425 121.912537,73.4639425 C121.640809,73.4639425 121.42053,73.246753 121.42053,72.9788361 C121.42053,72.7109193 121.640809,72.4937297 121.912537,72.4937297 Z M70.1910425,72.6150063 C70.3919801,72.6150063 70.5548723,72.7778985 70.5548723,72.9788361 C70.5548723,73.1797738 70.3919801,73.3426659 70.1910425,73.3426659 L57.3094305,73.3426659 C57.1084929,73.3426659 56.9456008,73.1797738 56.9456008,72.9788361 C56.9456008,72.7778985 57.1084929,72.6150063 57.3094305,72.6150063 L70.1910425,72.6150063 Z M21.1910425,72.6150063 C21.3919801,72.6150063 21.5548723,72.7778985 21.5548723,72.9788361 C21.5548723,73.1797738 21.3919801,73.3426659 21.1910425,73.3426659 L8.30943054,73.3426659 C8.1084929,73.3426659 7.94560076,73.1797738 7.94560076,72.9788361 C7.94560076,72.7778985 8.1084929,72.6150063 8.30943054,72.6150063 L21.1910425,72.6150063 Z M120.191042,72.6150063 C120.39198,72.6150063 120.554872,72.7778985 120.554872,72.9788361 C120.554872,73.1797738 120.39198,73.3426659 120.191042,73.3426659 L107.309431,73.3426659 C107.108493,73.3426659 106.945601,73.1797738 106.945601,72.9788361 C106.945601,72.7778985 107.108493,72.6150063 107.309431,72.6150063 L120.191042,72.6150063 Z M103.104581,52.3714786 C103.270266,52.3714786 103.404581,52.5057932 103.404581,52.6714786 C103.404581,52.8134947 103.3059,52.9324628 103.173368,52.9635554 L103.104581,52.9714786 L98.5681567,52.9714786 C98.4024713,52.9714786 98.2681567,52.837164 98.2681567,52.6714786 C98.2681567,52.5294625 98.3668368,52.4104944 98.4993695,52.3794018 L98.5681567,52.3714786 L103.104581,52.3714786 Z M52.1045806,52.3714786 C52.270266,52.3714786 52.4045806,52.5057932 52.4045806,52.6714786 C52.4045806,52.8134947 52.3059005,52.9324628 52.1733678,52.9635554 L52.1045806,52.9714786 L47.5681567,52.9714786 C47.4024713,52.9714786 47.2681567,52.837164 47.2681567,52.6714786 C47.2681567,52.5294625 47.3668368,52.4104944 47.4993695,52.3794018 L47.5681567,52.3714786 L52.1045806,52.3714786 Z M40.0074503,52.3714786 C40.1731358,52.3714786 40.3074503,52.5057932 40.3074503,52.6714786 C40.3074503,52.8134947 40.2087702,52.9324628 40.0762376,52.9635554 L40.0074503,52.9714786 L35.4710265,52.9714786 C35.3053411,52.9714786 35.1710265,52.837164 35.1710265,52.6714786 C35.1710265,52.5294625 35.2697066,52.4104944 35.4022392,52.3794018 L35.4710265,52.3714786 L40.0074503,52.3714786 Z M46.0560155,52.3714786 C46.2217009,52.3714786 46.3560155,52.5057932 46.3560155,52.6714786 C46.3560155,52.8134947 46.2573354,52.9324628 46.1248027,52.9635554 L46.0560155,52.9714786 L41.5195916,52.9714786 C41.3539062,52.9714786 41.2195916,52.837164 41.2195916,52.6714786 C41.2195916,52.5294625 41.3182717,52.4104944 41.4508044,52.3794018 L41.5195916,52.3714786 L46.0560155,52.3714786 Z M33.9588852,52.3714786 C34.1245706,52.3714786 34.2588852,52.5057932 34.2588852,52.6714786 C34.2588852,52.8134947 34.1602051,52.9324628 34.0276725,52.9635554 L33.9588852,52.9714786 L29.4224614,52.9714786 C29.2567759,52.9714786 29.1224614,52.837164 29.1224614,52.6714786 C29.1224614,52.5294625 29.2211415,52.4104944 29.3536741,52.3794018 L29.4224614,52.3714786 L33.9588852,52.3714786 Z M91.0074503,52.3714786 C91.1731358,52.3714786 91.3074503,52.5057932 91.3074503,52.6714786 C91.3074503,52.8134947 91.2087702,52.9324628 91.0762376,52.9635554 L91.0074503,52.9714786 L86.4710265,52.9714786 C86.3053411,52.9714786 86.1710265,52.837164 86.1710265,52.6714786 C86.1710265,52.5294625 86.2697066,52.4104944 86.4022392,52.3794018 L86.4710265,52.3714786 L91.0074503,52.3714786 Z M97.0560155,52.3714786 C97.2217009,52.3714786 97.3560155,52.5057932 97.3560155,52.6714786 C97.3560155,52.8134947 97.2573354,52.9324628 97.1248027,52.9635554 L97.0560155,52.9714786 L92.5195916,52.9714786 C92.3539062,52.9714786 92.2195916,52.837164 92.2195916,52.6714786 C92.2195916,52.5294625 92.3182717,52.4104944 92.4508044,52.3794018 L92.5195916,52.3714786 L97.0560155,52.3714786 Z M84.9588852,52.3714786 C85.1245706,52.3714786 85.2588852,52.5057932 85.2588852,52.6714786 C85.2588852,52.8134947 85.1602051,52.9324628 85.0276725,52.9635554 L84.9588852,52.9714786 L80.4224614,52.9714786 C80.2567759,52.9714786 80.1224614,52.837164 80.1224614,52.6714786 C80.1224614,52.5294625 80.2211415,52.4104944 80.3536741,52.3794018 L80.4224614,52.3714786 L84.9588852,52.3714786 Z M84.2028146,35.2778983 C85.7581982,35.2778983 87.0219174,36.5156402 87.0219174,38.0460369 C87.0219174,39.5764336 85.7581982,40.8141755 84.2028146,40.8141755 C82.6474309,40.8141755 81.3837118,39.5764336 81.3837118,38.0460369 C81.3837118,36.5156402 82.6474309,35.2778983 84.2028146,35.2778983 Z M99.3242274,35.2778983 C99.7517024,35.2778983 100.166371,35.3716308 100.54389,35.5497531 C100.724597,35.6350149 100.801884,35.8504419 100.716516,36.0309228 C100.631147,36.2114037 100.41545,36.2885941 100.234743,36.2033323 C99.9534636,36.0706182 99.6443209,36.000739 99.3242274,36.000739 C98.1654302,36.000739 97.228871,36.918046 97.228871,38.0460369 C97.228871,39.1740278 98.1654302,40.0913348 99.3242274,40.0913348 C100.483025,40.0913348 101.419584,39.1740278 101.419584,38.0460369 C101.419584,37.6262683 101.290141,37.2261965 101.051575,36.887933 C100.936484,36.7247454 100.975641,36.499273 101.139033,36.3843264 C101.302425,36.2693798 101.52818,36.3084869 101.64327,36.4716746 C101.966947,36.9306182 102.14333,37.4757671 102.14333,38.0460369 C102.14333,39.5764336 100.879611,40.8141755 99.3242274,40.8141755 C97.7688437,40.8141755 96.5051246,39.5764336 96.5051246,38.0460369 C96.5051246,36.5156402 97.7688437,35.2778983 99.3242274,35.2778983 Z M33.2028146,35.2778983 C34.7581982,35.2778983 36.0219174,36.5156402 36.0219174,38.0460369 C36.0219174,39.5764336 34.7581982,40.8141755 33.2028146,40.8141755 C31.6474309,40.8141755 30.3837118,39.5764336 30.3837118,38.0460369 C30.3837118,36.5156402 31.6474309,35.2778983 33.2028146,35.2778983 Z M48.3242274,35.2778983 C48.7517024,35.2778983 49.1663708,35.3716308 49.5438901,35.5497531 C49.7245972,35.6350149 49.8018843,35.8504419 49.7165157,36.0309228 C49.6311471,36.2114037 49.4154501,36.2885941 49.234743,36.2033323 C48.9534636,36.0706182 48.6443209,36.000739 48.3242274,36.000739 C47.1654302,36.000739 46.228871,36.918046 46.228871,38.0460369 C46.228871,39.1740278 47.1654302,40.0913348 48.3242274,40.0913348 C49.4830246,40.0913348 50.4195837,39.1740278 50.4195837,38.0460369 C50.4195837,37.6262683 50.2901406,37.2261965 50.051575,36.887933 C49.9364844,36.7247454 49.9756405,36.499273 50.1390326,36.3843264 C50.3024248,36.2693798 50.5281797,36.3084869 50.6432703,36.4716746 C50.9669475,36.9306182 51.1433302,37.4757671 51.1433302,38.0460369 C51.1433302,39.5764336 49.879611,40.8141755 48.3242274,40.8141755 C46.7688437,40.8141755 45.5051246,39.5764336 45.5051246,38.0460369 C45.5051246,36.5156402 46.7688437,35.2778983 48.3242274,35.2778983 Z M33.2028146,36.000739 C32.0440174,36.000739 31.1074582,36.918046 31.1074582,38.0460369 C31.1074582,39.1740278 32.0440174,40.0913348 33.2028146,40.0913348 C34.3616118,40.0913348 35.2981709,39.1740278 35.2981709,38.0460369 C35.2981709,36.918046 34.3616118,36.000739 33.2028146,36.000739 Z M84.2028146,36.000739 C83.0440174,36.000739 82.1074582,36.918046 82.1074582,38.0460369 C82.1074582,39.1740278 83.0440174,40.0913348 84.2028146,40.0913348 C85.3616118,40.0913348 86.2981709,39.1740278 86.2981709,38.0460369 C86.2981709,36.918046 85.3616118,36.000739 84.2028146,36.000739 Z M99.62334,36.8647671 C99.734972,36.8647671 99.8289903,36.9397746 99.8572289,37.0418825 L99.8658931,37.106016 L99.8664709,37.4677671 L100.28755,37.4678892 C100.398443,37.4678892 100.491839,37.5433967 100.51989,37.6461853 L100.528497,37.7107463 C100.528497,37.8225182 100.453583,37.9166544 100.351603,37.9449284 L100.28755,37.9536035 L99.8664709,37.9527671 L99.8664709,38.2517671 L100.291524,38.2519478 C100.402417,38.2519478 100.495813,38.3274554 100.523864,38.4302439 L100.532471,38.494805 C100.532471,38.6065769 100.457557,38.7007131 100.355577,38.728987 L100.291524,38.7376621 L99.8664709,38.7367671 L99.8658931,38.9596577 C99.8658931,39.0706894 99.7904801,39.1642021 99.6878202,39.1922888 L99.62334,39.2009065 C99.5117079,39.2009065 99.4176896,39.125899 99.389451,39.0237911 L99.3807868,38.9596577 L99.3814709,38.7367671 L99.1434709,38.7367671 L99.1430525,38.9596577 C99.1430525,39.0706894 99.0676395,39.1642021 98.9649796,39.1922888 L98.9004993,39.2009065 C98.7888673,39.2009065 98.6948489,39.125899 98.6666104,39.0237911 L98.6579461,38.9596577 L98.6584709,38.7367671 L98.2434756,38.7376621 C98.1325828,38.7376621 98.0391871,38.6621546 98.0111356,38.559366 L98.0025287,38.494805 C98.0025287,38.3830331 98.0774423,38.2888969 98.1794224,38.2606229 L98.2434756,38.2519478 L98.6584709,38.2517671 L98.6584709,37.9527671 L98.2395017,37.9536035 C98.1064304,37.9536035 97.9985548,37.8448726 97.9985548,37.7107463 C97.9985548,37.5989744 98.0734684,37.5048382 98.1754485,37.4765643 L98.2395017,37.4678892 L98.6584709,37.4677671 L98.6579461,37.106016 C98.6579461,36.9949843 98.7333592,36.9014715 98.8360191,36.8733848 L98.9004993,36.8647671 C99.0121313,36.8647671 99.1061497,36.9397746 99.1343883,37.0418825 L99.1430525,37.106016 L99.1434709,37.4677671 L99.3814709,37.4677671 L99.3807868,37.106016 C99.3807868,36.9949843 99.4561998,36.9014715 99.5588597,36.8733848 L99.62334,36.8647671 Z M48.62334,36.8647671 C48.734972,36.8647671 48.8289903,36.9397746 48.8572289,37.0418825 L48.8658931,37.106016 L48.8664709,37.4677671 L49.2875502,37.4678892 C49.3984429,37.4678892 49.4918387,37.5433967 49.5198902,37.6461853 L49.5284971,37.7107463 C49.5284971,37.8225182 49.4535835,37.9166544 49.3516034,37.9449284 L49.2875502,37.9536035 L48.8664709,37.9527671 L48.8664709,38.2517671 L49.2915241,38.2519478 C49.4024168,38.2519478 49.4958125,38.3274554 49.5238641,38.4302439 L49.5324709,38.494805 C49.5324709,38.6065769 49.4575573,38.7007131 49.3555773,38.728987 L49.2915241,38.7376621 L48.8664709,38.7367671 L48.8658931,38.9596577 C48.8658931,39.0706894 48.7904801,39.1642021 48.6878202,39.1922888 L48.62334,39.2009065 C48.5117079,39.2009065 48.4176896,39.125899 48.389451,39.0237911 L48.3807868,38.9596577 L48.3814709,38.7367671 L48.1434709,38.7367671 L48.1430525,38.9596577 C48.1430525,39.0706894 48.0676395,39.1642021 47.9649796,39.1922888 L47.9004993,39.2009065 C47.7888673,39.2009065 47.6948489,39.125899 47.6666104,39.0237911 L47.6579461,38.9596577 L47.6584709,38.7367671 L47.2434756,38.7376621 C47.1325828,38.7376621 47.0391871,38.6621546 47.0111356,38.559366 L47.0025287,38.494805 C47.0025287,38.3830331 47.0774423,38.2888969 47.1794224,38.2606229 L47.2434756,38.2519478 L47.6584709,38.2517671 L47.6584709,37.9527671 L47.2395017,37.9536035 C47.1064304,37.9536035 46.9985548,37.8448726 46.9985548,37.7107463 C46.9985548,37.5989744 47.0734684,37.5048382 47.1754485,37.4765643 L47.2395017,37.4678892 L47.6584709,37.4677671 L47.6579461,37.106016 C47.6579461,36.9949843 47.7333592,36.9014715 47.8360191,36.8733848 L47.9004993,36.8647671 C48.0121313,36.8647671 48.1061497,36.9397746 48.1343883,37.0418825 L48.1430525,37.106016 L48.1434709,37.4677671 L48.3814709,37.4677671 L48.3807868,37.106016 C48.3807868,36.9949843 48.4561998,36.9014715 48.5588597,36.8733848 L48.62334,36.8647671 Z M33.1281457,36.8648725 C33.2399176,36.8648725 33.3340538,36.9397861 33.3623277,37.0417661 L33.3710028,37.1058194 L33.3707781,37.4538725 L33.6223446,37.2088508 C33.7015251,37.1312127 33.8210847,37.1197309 33.9130944,37.1734694 L33.9644509,37.2135315 C34.0427097,37.2933345 34.0551349,37.4129896 34.0021163,37.5045732 L33.962455,37.5556114 L33.7107781,37.8008725 L34.0538471,37.8015167 C34.1647399,37.8015167 34.2581356,37.8770242 34.2861871,37.9798128 L34.294794,38.0443738 C34.294794,38.1561457 34.2198804,38.2502819 34.1179003,38.2785559 L34.0538471,38.287231 L33.7457781,38.2868725 L33.9811282,38.5178306 C34.0603087,38.5954687 34.0741234,38.714763 34.0221824,38.8077899 L33.9831241,38.8599106 C33.9048514,38.9396997 33.7854431,38.9544558 33.6928282,38.9032428 L33.6410178,38.8645913 L33.3707781,38.5988725 L33.3710028,38.9571411 C33.3710028,39.0680338 33.2954953,39.1614296 33.1927067,39.1894811 L33.1281457,39.198088 C33.0163738,39.198088 32.9222376,39.1231744 32.8939636,39.0211943 L32.8852886,38.9571411 L32.8847781,38.6108725 L32.6274688,38.8645913 C32.5482883,38.9422293 32.4287287,38.9537111 32.3367189,38.8999726 L32.2853625,38.8599106 C32.2071037,38.7801076 32.1946785,38.6604524 32.2476971,38.5688688 L32.2873584,38.5178306 L32.5217781,38.2868725 L32.1660362,38.287231 C32.0551435,38.287231 31.9617477,38.2117234 31.9336962,38.1089349 L31.9250893,38.0443738 C31.9250893,37.9326019 32.0000029,37.8384657 32.101983,37.8101918 L32.1660362,37.8015167 L32.5567781,37.8008725 L32.3060316,37.5556114 C32.2268511,37.4779734 32.2130364,37.3586791 32.2649773,37.2656522 L32.3040357,37.2135315 C32.3823083,37.1337423 32.5017166,37.1189862 32.5943316,37.1701992 L32.646142,37.2088508 L32.8847781,37.4418725 L32.8852886,37.1058194 C32.8852886,36.9949266 32.9607961,36.9015309 33.0635846,36.8734793 L33.1281457,36.8648725 Z M84.1281457,36.8648725 C84.2399176,36.8648725 84.3340538,36.9397861 84.3623277,37.0417661 L84.3710028,37.1058194 L84.3707781,37.4538725 L84.6223446,37.2088508 C84.7015251,37.1312127 84.8210847,37.1197309 84.9130944,37.1734694 L84.9644509,37.2135315 C85.0427097,37.2933345 85.0551349,37.4129896 85.0021163,37.5045732 L84.962455,37.5556114 L84.7107781,37.8008725 L85.0538471,37.8015167 C85.1647399,37.8015167 85.2581356,37.8770242 85.2861871,37.9798128 L85.294794,38.0443738 C85.294794,38.1561457 85.2198804,38.2502819 85.1179003,38.2785559 L85.0538471,38.287231 L84.7457781,38.2868725 L84.9811282,38.5178306 C85.0603087,38.5954687 85.0741234,38.714763 85.0221824,38.8077899 L84.9831241,38.8599106 C84.9048514,38.9396997 84.7854431,38.9544558 84.6928282,38.9032428 L84.6410178,38.8645913 L84.3707781,38.5988725 L84.3710028,38.9571411 C84.3710028,39.0680338 84.2954953,39.1614296 84.1927067,39.1894811 L84.1281457,39.198088 C84.0163738,39.198088 83.9222376,39.1231744 83.8939636,39.0211943 L83.8852886,38.9571411 L83.8847781,38.6108725 L83.6274688,38.8645913 C83.5482883,38.9422293 83.4287287,38.9537111 83.3367189,38.8999726 L83.2853625,38.8599106 C83.2071037,38.7801076 83.1946785,38.6604524 83.2476971,38.5688688 L83.2873584,38.5178306 L83.5217781,38.2868725 L83.1660362,38.287231 C83.0551435,38.287231 82.9617477,38.2117234 82.9336962,38.1089349 L82.9250893,38.0443738 C82.9250893,37.9326019 83.0000029,37.8384657 83.101983,37.8101918 L83.1660362,37.8015167 L83.5567781,37.8008725 L83.3060316,37.5556114 C83.2268511,37.4779734 83.2130364,37.3586791 83.2649773,37.2656522 L83.3040357,37.2135315 C83.3823083,37.1337423 83.5017166,37.1189862 83.5943316,37.1701992 L83.646142,37.2088508 L83.8847781,37.4418725 L83.8852886,37.1058194 C83.8852886,36.9949266 83.9607961,36.9015309 84.0635846,36.8734793 L84.1281457,36.8648725 Z M115.407285,16.1804262 C115.818755,16.1804262 116.152318,16.5071321 116.152318,16.9101442 C116.152318,17.3131564 115.818755,17.6398623 115.407285,17.6398623 C114.995814,17.6398623 114.662252,17.3131564 114.662252,16.9101442 C114.662252,16.5071321 114.995814,16.1804262 115.407285,16.1804262 Z M98.9125374,3.49372974 C99.1842656,3.49372974 99.4045449,3.71091927 99.4045449,3.97883613 C99.4045449,4.24675299 99.1842656,4.46394251 98.9125374,4.46394251 C98.6408091,4.46394251 98.4205298,4.24675299 98.4205298,3.97883613 C98.4205298,3.71091927 98.6408091,3.49372974 98.9125374,3.49372974 Z M47.9125374,3.49372974 C48.1842656,3.49372974 48.4045449,3.71091927 48.4045449,3.97883613 C48.4045449,4.24675299 48.1842656,4.46394251 47.9125374,4.46394251 C47.6408091,4.46394251 47.4205298,4.24675299 47.4205298,3.97883613 C47.4205298,3.71091927 47.6408091,3.49372974 47.9125374,3.49372974 Z M97.1910425,3.61500634 C97.3919801,3.61500634 97.5548723,3.77789848 97.5548723,3.97883613 C97.5548723,4.17977377 97.3919801,4.34266592 97.1910425,4.34266592 L84.3094305,4.34266592 C84.1084929,4.34266592 83.9456008,4.17977377 83.9456008,3.97883613 C83.9456008,3.77789848 84.1084929,3.61500634 84.3094305,3.61500634 L97.1910425,3.61500634 Z M46.1910425,3.61500634 C46.3919801,3.61500634 46.5548723,3.77789848 46.5548723,3.97883613 C46.5548723,4.17977377 46.3919801,4.34266592 46.1910425,4.34266592 L33.3094305,4.34266592 C33.1084929,4.34266592 32.9456008,4.17977377 32.9456008,3.97883613 C32.9456008,3.77789848 33.1084929,3.61500634 33.3094305,3.61500634 L46.1910425,3.61500634 Z" id="Combined-Shape" fill="#C5C6C6" fill-rule="nonzero"></path>
    </g>
</svg>