<svg width="360" height="360" viewBox="0 0 360 360" fill="none" xmlns="http://www.w3.org/2000/svg">
<path fill-rule="evenodd" clip-rule="evenodd" d="M76 76H284V284H76V76ZM84 84V276H276V84H84Z" fill="#004A47"/>
<path opacity="0.24" fill-rule="evenodd" clip-rule="evenodd" d="M188 188C203.464 188 216 175.464 216 160C216 144.536 203.464 132 188 132C172.536 132 160 144.536 160 160C160 175.464 172.536 188 188 188ZM140 252C140 225.49 161.49 204 188 204C214.51 204 236 225.49 236 252H140Z" fill="#009793"/>
<path fill-rule="evenodd" clip-rule="evenodd" d="M156 152C156 138.745 166.745 128 180 128C193.255 128 204 138.745 204 152C204 165.255 193.255 176 180 176C166.745 176 156 165.255 156 152ZM180 120C162.327 120 148 134.327 148 152C148 169.673 162.327 184 180 184C197.673 184 212 169.673 212 152C212 134.327 197.673 120 180 120ZM136 244C136 219.699 155.699 200 180 200C204.301 200 224 219.699 224 244H232C232 215.281 208.719 192 180 192C151.281 192 128 215.281 128 244H136Z" fill="#009793"/>
</svg>
