<?xml version="1.0" encoding="UTF-8"?>
<svg width="125px" height="117px" viewBox="0 0 125 117" version="1.1" xmlns="http://www.w3.org/2000/svg" xmlns:xlink="http://www.w3.org/1999/xlink">
    <!-- Generator: Sketch 60 (88103) - https://sketch.com -->
    <title>Illustrations / Flow / Mobile / Check Internet</title>
    <desc>Created with Sketch.</desc>
    <g id="Illustrations-/-Flow-/-Mobile-/-Check-Internet" stroke="none" stroke-width="1" fill="none" fill-rule="evenodd">
        <g id="Illustrations-/-Flows-/-Mobile-/-InternetCheck" fill-rule="nonzero">
            <path d="M36,105 C39.3137085,105 42,107.686292 42,111 C42,114.313708 39.3137085,117 36,117 C32.6862915,117 30,114.313708 30,111 C30,107.686292 32.6862915,105 36,105 Z M100,86 C101.104569,86 102,86.8954305 102,88 C102,89.1045695 101.104569,90 100,90 C98.8954305,90 98,89.1045695 98,88 C98,86.8954305 98.8954305,86 100,86 Z M78.9744569,39.8106286 C83.256815,45.0722745 85.6333333,51.6316804 85.6333333,58.5539126 C85.6333333,74.982346 72.2912962,88.3 55.8333333,88.3 C39.3753705,88.3 26.0333333,74.982346 26.0333333,58.5539126 C26.0333333,52.1652601 28.0562909,46.0804361 31.7511264,41.0297868 C31.8489522,40.896064 32.0366594,40.8669637 32.1703821,40.9647895 C32.3041049,41.0626153 32.3332052,41.2503225 32.2353794,41.3840452 C28.6151215,46.332751 26.6333333,52.2937418 26.6333333,58.5539126 C26.6333333,74.6507292 39.7064959,87.6999905 55.8333333,87.6999905 C71.9601707,87.6999905 85.0333333,74.6507292 85.0333333,58.5539126 C85.0333333,51.7709516 82.7051588,45.3449789 78.5091034,40.1893714 C78.4045164,40.0608676 78.4239049,39.8719102 78.5524087,39.7673232 C78.6809125,39.6627363 78.8698699,39.6821248 78.9744569,39.8106286 Z M8,78 C9.1045695,78 10,78.8954305 10,80 C10,81.1045695 9.1045695,82 8,82 C6.8954305,82 6,81.1045695 6,80 C6,78.8954305 6.8954305,78 8,78 Z M72.8260069,46.8306937 C75.0791628,50.1265898 76.3,53.9965818 76.3,58.0428949 C76.3,69.2324139 66.9857475,78.3 55.5,78.3 C44.0142525,78.3 34.7,69.2324139 34.7,58.0428949 C34.7,54.2591973 35.7671163,50.6277116 37.7534673,47.4715687 C37.8417197,47.3313432 38.0269376,47.2892106 38.167163,47.377463 C38.3073885,47.4657153 38.3495211,47.6509332 38.2612687,47.7911587 C36.3346172,50.8524441 35.3,54.3733326 35.3,58.0428949 C35.3,68.8973855 44.3420728,77.7 55.5,77.7 C66.6579272,77.7 75.7,68.8973855 75.7,58.0428949 C75.7,54.1186444 74.5163149,50.3664226 72.3306873,47.1693063 C72.237182,47.0325276 72.2722621,46.8458455 72.4090408,46.7523402 C72.5458195,46.6588349 72.7325016,46.6939149 72.8260069,46.8306937 Z M123,70 C124.104569,70 125,70.8954305 125,72 C125,73.1045695 124.104569,74 123,74 C121.895431,74 121,73.1045695 121,72 C121,70.8954305 121.895431,70 123,70 Z M57.7102993,50.6984914 L61.6188916,54.0199839 C62.1778518,54.494984 62.5,55.1915003 62.5,55.9250272 L62.5,63 C62.5,64.3807119 61.3807119,65.5 60,65.5 L52,65.5 C50.6192881,65.5 49.5,64.3807119 49.5,63 L49.5,55.9482589 C49.5,55.1980682 49.8368869,54.4875304 50.4176966,54.0127187 L54.5091044,50.6679944 C55.4436129,49.9040341 56.7905152,49.9168657 57.7102993,50.6984914 Z M55.1420257,51.4422105 L51.050618,54.7869347 C50.7021321,55.0718218 50.5,55.4981445 50.5,55.9482589 L50.5,63 C50.5,63.8284271 51.1715729,64.5 52,64.5 L60,64.5 C60.8284271,64.5 61.5,63.8284271 61.5,63 L61.5,55.9250272 C61.5,55.4849111 61.3067111,55.0670013 60.9713349,54.7820012 L57.0627427,51.4605087 C56.5108722,50.9915333 55.7027309,50.9838343 55.1420257,51.4422105 Z M56.0257496,36.7 C58.8487083,36.7 61.5934931,37.3883639 64.1380208,38.706848 C64.2851301,38.7830748 64.3425917,38.9641244 64.2663649,39.1112337 C64.1901381,39.258343 64.0090884,39.3158046 63.8619792,39.2395777 C61.4015657,37.9646787 58.7512233,37.3 56.0257496,37.3 C53.2814444,37.3 50.6133801,37.9739056 48.1388516,39.2659327 C47.991981,39.3426184 47.8107529,39.2857222 47.7340673,39.1388516 C47.6573816,38.991981 47.7142778,38.8107529 47.8611484,38.7340673 C50.4201939,37.3979111 53.1832987,36.7 56.0257496,36.7 Z M55.6815042,28.7 C61.3646209,28.7 66.810626,30.4704296 71.5052834,33.7541684 C71.6410525,33.8491338 71.6741303,34.036181 71.5791649,34.1719501 C71.4841995,34.3077191 71.2971523,34.340797 71.1613833,34.2458316 C66.5660209,31.031546 61.2396253,29.3 55.6815042,29.3 C50.2456074,29.3 45.0305112,30.9560216 40.5021443,34.0384602 C40.3651789,34.1316918 40.1785673,34.0962387 40.0853356,33.9592733 C39.9921039,33.822308 40.0275571,33.6356964 40.1645224,33.5424647 C44.7909909,30.3932488 50.1233222,28.7 55.6815042,28.7 Z M7.5,18 C11.6421356,18 15,21.3578644 15,25.5 C15,29.6421356 11.6421356,33 7.5,33 C3.35786438,33 0,29.6421356 0,25.5 C0,21.3578644 3.35786438,18 7.5,18 Z M109.5,0 C111.432997,0 113,1.56700338 113,3.5 C113,5.43299662 111.432997,7 109.5,7 C107.567003,7 106,5.43299662 106,3.5 C106,1.56700338 107.567003,0 109.5,0 Z" id="Combined-Shape" fill="#239A98"></path>
            <path d="M28.1032787,32.782356 C28.2234801,32.8963879 28.2284816,33.0862715 28.1144497,33.206473 C21.5286118,40.1486311 17.8,49.2775806 17.8,58.9840105 C17.8,79.8131208 34.9018789,96.6999993 56,96.6999993 C77.0981211,96.6999993 94.2,79.8131208 94.2,58.9840105 C94.2,49.3540815 90.530252,40.2914937 84.0371391,33.3671929 C83.9238053,33.246333 83.9299065,33.0564815 84.0507664,32.9431477 C84.1716263,32.829814 84.3614778,32.8359151 84.4748115,32.956775 C91.0710465,39.9910459 94.8,49.1998441 94.8,58.9840105 C94.8,80.1462027 77.4278047,97.3 56,97.3 C34.5721953,97.3 17.2,80.1462027 17.2,58.9840105 C17.2,49.122116 20.9887573,39.8459091 27.6791617,32.793527 C27.7931936,32.6733256 27.9830772,32.6683241 28.1032787,32.782356 Z M55.2425489,19.7 C63.385362,19.7 71.1539208,22.1887201 77.6721102,26.7542805 C77.8078174,26.8493344 77.8407733,27.0364031 77.7457195,27.1721102 C77.6506656,27.3078174 77.4635969,27.3407733 77.3278898,27.2457195 C70.9098146,22.7502825 63.2612391,20.3 55.2425489,20.3 C47.4386671,20.3 39.9835441,22.6203327 33.6681313,26.8939488 C33.5309112,26.9868051 33.3443973,26.9508412 33.251541,26.8136211 C33.1586847,26.6764009 33.1946486,26.4898871 33.3318687,26.3970308 C39.7458256,22.0567303 47.3178925,19.7 55.2425489,19.7 Z" id="Combined-Shape" fill="#C5C6C6"></path>
        </g>
    </g>
</svg>