<?xml version="1.0" encoding="utf-8"?>
<svg version="1.1" id="Layer_1" xmlns="http://www.w3.org/2000/svg" xmlns:xlink="http://www.w3.org/1999/xlink" x="0px" y="0px"
	 viewBox="0 0 75 100" style="enable-background:new 0 0 75 100;" xml:space="preserve">
<style type="text/css">
	.st0{fill:url(#Fill-1_1_);}
	.st1{fill:#FFC421;}
	.st2{fill:url(#Fill-5_1_);}
</style>
<g id="Desktop">
	<g id="Product-finder---Current-cards" transform="translate(-683.000000, -108.000000)">
		<g transform="translate(683.000000, 108.000000)">
			<g id="yellow-fellow">
				
					<linearGradient id="Fill-1_1_" gradientUnits="userSpaceOnUse" x1="-249.2444" y1="426.3451" x2="-249.2444" y2="425.3982" gradientTransform="matrix(25.3521 0 0 -8.3333 6355.8452 3624.9558)">
					<stop  offset="0" style="stop-color:#EFA31A"/>
					<stop  offset="1" style="stop-color:#FFC421"/>
				</linearGradient>
				<path id="Fill-1" class="st0" d="M24.3,71.9c1.8,0,3.4,0.7,4.7,1.9l2.4,2.4l3.2,3.1c1.3,1.3,3.4,1.3,4.7,0l3.2-3.1l2.4-2.4
					c1.2-1.2,2.9-1.9,4.7-1.9H24.3z"/>
				<path id="Fill-3" class="st1" d="M40.2,84.8c-1.9,1.8-4.9,1.8-6.8,0L27,78.6c-2.7-2.6-7.2-1.7-8.6,1.7c-2,4.9-2,10.7,0,15.5
					c1.4,3.4,5.9,4.2,8.6,1.7l4-3.8l11.3-10.8L40.2,84.8z"/>
				<g id="Group-7" transform="translate(30.633803, 77.083334)">
					
						<linearGradient id="Fill-5_1_" gradientUnits="userSpaceOnUse" x1="-279.6396" y1="376.697" x2="-280.3508" y2="377.1104" gradientTransform="matrix(26.0978 0 0 -22.6711 7325.0933 8557.0693)">
						<stop  offset="0" style="stop-color:#FFC421"/>
						<stop  offset="1" style="stop-color:#E39F11"/>
					</linearGradient>
					<path id="Fill-5" class="st2" d="M16,1.6L11.6,6L0.2,17.2l2.5-2.5c1.9-1.9,5-1.9,6.8,0l6.5,6.4c2.7,2.7,7.3,1.8,8.7-1.7
						c2.1-5.1,2.1-11,0-16.1c-0.9-2.1-2.9-3.3-4.9-3.3C18.5,0.1,17.1,0.6,16,1.6"/>
				</g>
				<g id="Group-16">
					<path id="Fill-8" class="st1" d="M63.6,54.2c-0.5,4.4-4,7.9-8.5,8.4c0,0-7.1,1.1-17.6,1.1c-10.5,0-17.6-1.1-17.6-1.1
						c-4.5-0.5-7.9-4-8.5-8.4c0,0-1.1-7.9-1.1-17.2c0-9.4,1.1-17.2,1.1-17.2c0.5-4.4,4-7.9,8.5-8.4c0,0,7.1-1.1,17.6-1.1
						c10.5,0,17.6,1.1,17.6,1.1c4.5,0.5,7.9,4,8.5,8.4c0,0,1.1,7.9,1.1,17.2C64.6,46.3,63.6,54.2,63.6,54.2 M73.5,13.1
						C72.8,7,68,2.2,61.8,1.5c0,0-9.8-1.5-24.3-1.5C23,0,13.2,1.5,13.2,1.5C7,2.2,2.2,7,1.5,13.1C1.5,13.1,0,24,0,37
						c0,12.9,1.5,23.8,1.5,23.8C2.2,66.9,7,71.7,13.2,72.5c0,0,9.8,1.5,24.3,1.5c14.5,0,24.3-1.5,24.3-1.5c6.2-0.7,11-5.5,11.7-11.6
						c0,0,1.5-10.9,1.5-23.8C75,24,73.5,13.1,73.5,13.1"/>
					<path id="Fill-10" class="st1" d="M52.8,29.8v-3.6c0-0.3-0.4-0.4-0.4-0.4c-1.9-0.5-3.7-0.7-5.6-0.7c-1.7,0-3.5,0.1-5.2,0.5
						c0,0-0.4,0.1-0.4,0.5v3.5c0,0.7,0.5,0.5,0.5,0.5c1.6-0.2,3.2-0.3,5.1-0.3c1.8,0,3.8,0.2,5.5,0.5C52.3,30.2,52.8,30.3,52.8,29.8
						"/>
					<path id="Fill-12" class="st1" d="M33.8,27.6c0-4.7-5.8-4.7-5.8-4.7s-5.8,0-5.8,4.7c0,4.7,5.8,4.7,5.8,4.7S33.8,32.3,33.8,27.6
						"/>
					<path id="Fill-14" class="st1" d="M37.5,51c-7.4,0-13.7-4.2-15.7-5.7c0,0-0.7-0.6-0.7-1.2v-1.9c0-1,0.8-0.4,0.8-0.4
						c2,1.2,7.9,4.3,15.6,4.3c7.7,0,13.6-3.1,15.6-4.3c0,0,0.8-0.5,0.8,0.4v1.9c0,0.6-0.7,1.2-0.7,1.2C51.2,46.8,44.9,51,37.5,51"/>
				</g>
			</g>
		</g>
	</g>
</g>
</svg>
