<?xml version="1.0" encoding="UTF-8"?>
<svg version="1.1" viewBox="0 0 107 88" xmlns="http://www.w3.org/2000/svg">
	<g fill="none" fill-rule="evenodd">
		<g transform="translate(-523 -453)">
			<g transform="translate(524.02 453.03)">
				<g transform="translate(22.984 24.969)" fill="#239A98">
					<ellipse cx="77.093" cy="30.089" rx="1" ry="1" />
					<ellipse cx="69.837" cy="2.7333" rx="1" ry="1" />
					<ellipse cx="37.186" cy=".91111" rx="1" ry="1" />
					<ellipse cx="49.884" cy="15.489" rx="1.814" ry="1.8222" />
					<ellipse cx="1.3605" cy="15.944" rx="1.3605" ry="1.3667" />
					<ellipse cx="22.221" cy="21.411" rx="1.3605" ry="1.3667" />
				</g>
				<polygon points="11.984 55.743 30.631 65.969 93.984 62.051 70.741 52.969" stroke="#979797" stroke-linejoin="round" />
				<path d="m70.984 52.969v9" stroke="#979797" stroke-linecap="round" />
				<polyline points="5.9844 10.969 11.137 56.12 11.137 73.782 29.644 86.969 93.984 81.19 93.984 62.529" stroke="#979797" stroke-linecap="round" stroke-linejoin="round" />
				<path d="m94.432 68.217h10" stroke="#8C8D8E" stroke-linecap="round" stroke-width="1.5" />
				<path d="m0.43164 68.217h10" stroke="#8C8D8E" stroke-linecap="round" stroke-width="1.5" />
				<path d="m13.984 0.96875l60 2" stroke="#979797" stroke-linecap="round" />
				<path d="m17.439 10.396l48.545 0.57227" stroke="#979797" stroke-linecap="round" />
				<path d="m29.426 68.532v18.427" stroke="#979797" stroke-linecap="round" stroke-linejoin="round" />
				<path d="m65.984 10.969l5 42" stroke="#979797" />
				<path d="m73.984 2.9688l-8 8" stroke="#979797" stroke-linecap="round" stroke-linejoin="round" />
				<path d="m13.235 15.969l2.6236 28.909c0.41698 3.6514-0.20625 6.5469-1.8697 8.6866-1.6634 2.1397-2.2918 2.8514-1.8851 2.135" stroke="#979797" />
				<path d="m65.984 10.969c4.7989 0.34384 7.4663 2.5888 8.0023 6.7349 0.53601 4.1461 1.8353 12.538 3.8978 25.176 0.44307 4.0389-0.58821 6.7536-3.0938 8.1439-2.5056 1.3903-3.8372 2.0353-3.9948 1.935" stroke="#979797" stroke-linecap="round" stroke-linejoin="round" />
				<path d="m73.984 2.9688c1 1.8755 1.25 5.2089 0.75 10" stroke="#979797" stroke-linecap="round" stroke-linejoin="round" />
				<path d="m14.065 0.96875c2.0421 7.9965 0.68183 13.996-4.0808 18" stroke="#979797" />
				<path d="m5.9844 9.9688l8-9" stroke="#979797" stroke-linecap="round" stroke-linejoin="round" />
				<path d="m5.9844 9.9688l4 9" stroke="#979797" stroke-linecap="round" stroke-linejoin="round" />
			</g>
		</g>
	</g>
</svg>