<svg xmlns="http://www.w3.org/2000/svg" width="24" height="24" fill="none"><path fill="#291D18" d="M13.006 5a1 1 0 0 1-1.994.117L11.006 5V3a1 1 0 0 1 1.993-.117l.007.117zm-7.852-.21A1 1 0 0 0 3.97 6.397l1.532 1.286.1.074A1 1 0 0 0 6.788 6.15L5.255 4.865zM7.12 16.293a1 1 0 0 0-1.414 0l-1.414 1.414-.083.094a1 1 0 0 0 1.497 1.32l1.414-1.414.084-.094a1 1 0 0 0-.084-1.32m5.879 2.59a1 1 0 0 0-1.993.117v2l.006.117A1 1 0 0 0 13.006 21v-2zm-6-6.883a5 5 0 1 1 10 0 5 5 0 0 1-10 0m8 0a3 3 0 1 0-6 0 3 3 0 0 0 6 0m-9.883.993A1 1 0 0 0 4.999 11h-2l-.117.007A1 1 0 0 0 3 13h2z"/></svg>