<svg xmlns="http://www.w3.org/2000/svg" width="24" height="24" fill="none"><path fill="#291D18" fill-rule="evenodd" d="M19.5 4a2.5 2.5 0 0 1 2.494 2.336L22 6.5v10a2.5 2.5 0 0 1-2.336 2.495L19.5 19h-7.482a1 1 0 0 1-.117-1.993l.117-.007H19.5a.5.5 0 0 0 .492-.41L20 16.5v-10a.5.5 0 0 0-.41-.492L19.5 6h-15a.5.5 0 0 0-.492.41L4 6.5v3a1 1 0 0 1-1.994.117L2 9.5v-3a2.5 2.5 0 0 1 2.335-2.495L4.5 4zM8.364 13.121c1.418 1.418 2.053 3.369 1.686 5.151a1 1 0 0 1-1.959-.403c.228-1.105-.187-2.379-1.141-3.333-.9-.9-2.08-1.32-3.137-1.176l-.197.033a1 1 0 1 1-.404-1.958c1.783-.368 3.733.268 5.152 1.686m-1.142 5.153c.22-1.06-.153-2.205-.98-3.031-.824-.825-1.968-1.197-3.028-.98a1 1 0 0 0 .402 1.96l.117-.017c.36-.03.77.126 1.095.45.363.363.515.83.436 1.213l-.017.115a1 1 0 0 0 1.975.29" clip-rule="evenodd"/></svg>