<svg xmlns="http://www.w3.org/2000/svg" width="24" height="24" fill="none"><path fill="#291D18" d="M2 5a3 3 0 0 1 3-3h4a3 3 0 0 1 3 3v6.015a7.6 7.6 0 0 0-2 1.261V5a1 1 0 0 0-1-1H5a1 1 0 0 0-1 1v14a1 1 0 0 0 1 1h2.666c.194.714.49 1.386.87 2H5a3 3 0 0 1-3-3zm12-2a1 1 0 0 1 1-1 7 7 0 0 1 7 7 1 1 0 1 1-2 0 5 5 0 0 0-5-5 1 1 0 0 1-1-1m0 3a1 1 0 0 1 1-1 4 4 0 0 1 4 4 1 1 0 1 1-2 0 2 2 0 0 0-2-2 1 1 0 0 1-1-1M8 7a1 1 0 1 0-2 0v3a1 1 0 1 0 2 0zm7 17a6 6 0 1 0 0-12 6 6 0 0 0 0 12m-1.434-8.566L15 16.87l1.434-1.435a.8.8 0 0 1 1.132 1.132L16.13 18l1.435 1.434a.8.8 0 0 1-1.132 1.132L15 19.13l-1.434 1.435a.8.8 0 0 1-1.132-1.132L13.87 18l-1.435-1.434a.8.8 0 0 1 1.132-1.132"/></svg>