<svg width="330" height="100" viewBox="0 0 330 100" fill="none" xmlns="http://www.w3.org/2000/svg">
<path d="M1.55344 59.8152C1.0213 59.8152 0.603774 59.703 0.378639 59.4724C0.112569 59.2459 0 58.8275 0 58.2602V16.3449C0 15.7408 0.112569 15.3612 0.378639 15.1327C0.644708 14.9041 1.02539 14.7898 1.55344 14.7898H6.07048C7.02014 14.7898 7.62596 15.2449 7.8163 16.151L8.27271 17.7775C9.52529 16.5653 11.0439 15.5816 12.8266 14.9021C14.6093 14.1837 16.4308 13.8429 18.2913 13.8429C22.3519 13.8429 25.5754 15.3184 27.9659 18.3061C30.3565 21.2958 31.5333 25.3059 31.5333 30.3751C31.5333 33.8546 30.9275 36.8831 29.7875 39.4933C28.6127 42.1034 27.0163 44.0728 25.0044 45.5115C22.9925 46.9135 20.6777 47.6298 18.06 47.6298C16.351 47.6298 14.6829 47.3645 13.1643 46.7972C11.6088 46.2666 10.2805 45.5115 9.18144 44.5258V58.2602C9.18144 58.8275 9.06888 59.2438 8.8376 59.4724C8.60837 59.7009 8.19085 59.8152 7.62187 59.8152H1.55344ZM15.3645 40.6708C17.7161 40.6708 19.462 39.8769 20.5631 38.2872C21.6621 36.6974 22.2311 34.2016 22.2311 30.7588C22.2311 27.316 21.699 24.7406 20.5999 23.1549C19.5008 21.5652 17.755 20.7713 15.3645 20.7713C13.1623 20.7713 11.1156 21.3386 9.1794 22.4753V39.0096C11.0378 40.1096 13.0865 40.6728 15.3645 40.6728V40.6708Z" fill="black"/>
<path d="M39.1589 46.876C38.6268 46.876 38.2092 46.7638 37.9841 46.4985C37.718 46.2332 37.6055 45.8536 37.6055 45.327V16.3808C37.6055 15.7768 37.718 15.3972 37.9841 15.1686C38.2502 14.9421 38.6309 14.8258 39.1589 14.8258H43.7128C44.6624 14.8258 45.2683 15.2809 45.4586 16.187L46.2937 19.591C47.9617 17.7379 49.5581 16.4502 51.0358 15.6564C52.5156 14.8625 54.11 14.485 55.778 14.485H56.6499C57.2189 14.485 57.6753 14.5972 57.9025 14.8278C58.1685 15.0543 58.2811 15.4727 58.2811 16.04V21.3011C58.2811 21.8317 58.1685 22.248 57.9373 22.4725C57.7101 22.7378 57.2905 22.8501 56.7215 22.8501C56.4186 22.8501 56.0379 22.8133 55.5836 22.7745C55.1272 22.7378 54.5213 22.699 53.8378 22.699C52.8881 22.699 51.7133 22.8521 50.3072 23.1133C48.9421 23.3786 47.7263 23.7174 46.7767 24.1357V45.2475C46.7767 45.7781 46.6641 46.1944 46.4328 46.4189C46.2057 46.6842 45.7861 46.7964 45.2171 46.7964L39.1548 46.876H39.1589Z" fill="black"/>
<path d="M66.9702 9.83649C65.3758 9.83649 64.0864 9.3814 63.1368 8.51203C62.1871 7.64267 61.6938 6.43045 61.6938 4.91824C61.6938 3.40604 62.1871 2.2326 63.1368 1.32446C64.0864 0.455089 65.3758 0 66.9702 0C68.5646 0 69.854 0.455089 70.8037 1.32446C71.7533 2.19382 72.2466 3.40604 72.2466 4.91824C72.2466 6.43045 71.7533 7.60389 70.8037 8.51203C69.854 9.3814 68.5646 9.83649 66.9702 9.83649ZM63.935 46.8784C63.4028 46.8784 62.9853 46.7662 62.7602 46.5009C62.4941 46.2356 62.3815 45.856 62.3815 45.3295V16.3812C62.3815 15.7772 62.4941 15.3976 62.7602 15.169C63.0262 14.9404 63.4069 14.8262 63.935 14.8262H69.9707C70.5396 14.8262 70.9572 14.9384 71.1864 15.169C71.4156 15.3996 71.5302 15.8139 71.5302 16.3812V45.3254C71.5302 45.856 71.4177 46.2723 71.1864 46.4968C70.9592 46.7621 70.5396 46.8744 69.9707 46.8744H63.935V46.8784Z" fill="black"/>
<path d="M80.822 46.8765C80.2898 46.8765 79.8723 46.7643 79.6472 46.499C79.3811 46.2337 79.2686 45.8541 79.2686 45.3276V16.3814C79.2686 15.7773 79.3811 15.3977 79.6472 15.1692C79.9133 14.9406 80.2939 14.8263 80.822 14.8263H85.3759C86.3255 14.8263 86.9314 15.2814 87.1217 16.1875L87.6149 17.8915C89.854 16.4161 91.827 15.3936 93.6506 14.7896C95.4333 14.1855 97.2548 13.8835 99.1521 13.8835C102.947 13.8835 105.603 15.2079 107.159 17.8956C109.283 16.4569 111.332 15.4345 113.194 14.8304C115.053 14.2263 117.028 13.8835 119.04 13.8835C121.96 13.8835 124.275 14.7161 125.872 16.3446C127.503 17.9711 128.299 20.2792 128.299 23.1914V45.3623C128.299 45.8929 128.186 46.3092 127.955 46.5337C127.728 46.799 127.308 46.9112 126.739 46.9112H120.704C120.172 46.9112 119.754 46.799 119.529 46.5337C119.302 46.2684 119.15 45.8888 119.15 45.3623V25.1954C119.15 22.3588 117.861 20.9221 115.317 20.9221C113.039 20.9221 110.763 21.4527 108.45 22.5486V45.3623C108.45 45.8929 108.338 46.3092 108.106 46.5337C107.879 46.799 107.46 46.9112 106.891 46.9112H100.855C100.323 46.9112 99.9053 46.799 99.6802 46.5337C99.4141 46.2684 99.3015 45.8888 99.3015 45.3623V25.1954C99.3015 22.3588 98.0121 20.9221 95.4681 20.9221C93.1164 20.9221 90.8016 21.4894 88.5237 22.6261V45.3643C88.5237 45.8949 88.4111 46.3113 88.1798 46.5357C87.9526 46.801 87.5331 46.9133 86.9641 46.9133L80.8261 46.8765H80.822Z" fill="black"/>
<path d="M149.92 47.8599C144.797 47.8599 140.888 46.6476 137.74 43.4702C135.691 41.3886 133.757 37.4928 133.757 30.8705C133.757 25.4972 135.466 21.4115 138.233 18.4606C141.005 15.4709 145.254 14.1097 149.238 14.1097C154.247 14.1097 157.208 15.2464 159.484 17.5137C159.863 17.8912 162.143 20.2361 162.143 24.0217C162.143 25.3074 162.18 26.6726 161.308 28.5624C160.702 29.8481 159.789 30.644 159.525 30.8705C155.804 34.2745 148.52 34.048 146.054 33.8969L142.071 33.2929C142.337 36.0561 143.096 38.2111 144.801 39.4233C146.396 40.5947 148.141 41.0498 151.709 41.0498C153.491 41.0498 155.882 40.707 158.956 39.8784C159.11 39.8417 159.449 39.7662 159.562 39.7254C159.638 39.7254 159.941 39.6886 160.131 39.7621C160.475 39.8743 160.851 40.1764 160.851 41.1233V43.9987C160.851 44.6804 160.776 45.1334 160.585 45.4007C160.395 45.666 160.016 45.9293 159.486 46.1579C156.222 47.2946 153.264 47.8619 149.924 47.8619L149.92 47.8599ZM153.753 24.3278C153.753 21.2626 151.592 20.3932 148.934 20.3932C147.188 20.3932 145.481 21.0381 144.304 22.287C143.166 23.536 142.482 25.389 142.179 27.7726C142.179 27.7726 146.885 28.642 150.299 28.0746C152.081 27.7685 153.751 26.7869 153.751 24.3278H153.753Z" fill="black"/>
<path d="M281.474 47.8599C276.351 47.8599 272.442 46.6476 269.294 43.4702C267.245 41.3886 265.311 37.4928 265.311 30.8705C265.311 25.4972 267.02 21.4115 269.787 18.4606C272.558 15.4709 276.807 14.1097 280.792 14.1097C285.8 14.1097 288.762 15.2464 291.038 17.5137C291.417 17.8912 293.697 20.2361 293.697 24.0217C293.697 25.3074 293.733 26.6726 292.861 28.5624C292.256 29.8481 291.343 30.644 291.079 30.8705C287.358 34.2745 280.074 34.048 277.608 33.8969L273.625 33.2929C273.891 36.0561 274.65 38.2111 276.355 39.4233C277.949 40.5947 279.695 41.0498 283.263 41.0498C285.045 41.0498 287.436 40.707 290.51 39.8784C290.663 39.8417 291.003 39.7662 291.116 39.7254C291.191 39.7254 291.494 39.6886 291.685 39.7621C292.028 39.8743 292.405 40.1764 292.405 41.1233V43.9987C292.405 44.6804 292.329 45.1334 292.139 45.4007C291.949 45.666 291.57 45.9293 291.04 46.1579C287.816 47.2946 284.818 47.8619 281.478 47.8619L281.474 47.8599ZM285.307 24.3278C285.307 21.2626 283.146 20.3932 280.487 20.3932C278.741 20.3932 277.034 21.0381 275.858 22.287C274.72 23.536 274.036 25.389 273.733 27.7726C273.733 27.7726 278.438 28.642 281.852 28.0746C283.637 27.7685 285.305 26.7869 285.305 24.3278H285.307Z" fill="black"/>
<path d="M189.8 46.8764C189.385 46.8764 189.041 46.8396 188.775 46.7233C188.509 46.6111 188.281 46.458 188.091 46.2315C187.901 46.0049 187.712 45.6641 187.561 45.2478L176.783 17.2853C176.671 16.9424 176.556 16.6404 176.48 16.4159C176.405 16.1506 176.368 15.9241 176.368 15.7343C176.368 15.0894 176.783 14.7874 177.62 14.7874H183.918C184.601 14.7874 185.093 14.8996 185.398 15.1649C185.701 15.4302 185.967 15.8465 186.118 16.4138L192.606 38.6602L199.207 16.4138C199.36 15.8098 199.622 15.3914 199.927 15.1649C200.23 14.9384 200.723 14.7874 201.407 14.7874H207.514C208.349 14.7874 208.767 15.0894 208.767 15.7343C208.767 15.9608 208.73 16.1894 208.654 16.4159C208.578 16.6812 208.464 16.9465 208.351 17.2853L197.573 45.2478C197.42 45.6621 197.23 46.0049 197.043 46.2315C196.853 46.458 196.628 46.6457 196.397 46.7233C196.167 46.7988 195.791 46.8764 195.334 46.8764H189.802H189.8Z" fill="black"/>
<path d="M217.309 9.83649C215.714 9.83649 214.425 9.3814 213.475 8.51203C212.525 7.64267 212.032 6.43045 212.032 4.91824C212.032 3.40604 212.525 2.2326 213.475 1.32446C214.425 0.455089 215.714 0 217.309 0C218.903 0 220.192 0.455089 221.142 1.32446C222.092 2.19382 222.585 3.40604 222.585 4.91824C222.585 6.43045 222.092 7.60389 221.142 8.51203C220.156 9.3814 218.903 9.83649 217.309 9.83649ZM214.273 46.8784C213.741 46.8784 213.324 46.7662 213.058 46.5009C212.792 46.2356 212.679 45.856 212.679 45.3295V16.3812C212.679 15.7772 212.792 15.3976 213.058 15.169C213.324 14.9404 213.704 14.8262 214.273 14.8262H220.309C220.878 14.8262 221.296 14.9384 221.525 15.169C221.754 15.3996 221.869 15.8139 221.869 16.3812V45.3254C221.869 45.856 221.756 46.2723 221.525 46.4968C221.298 46.7621 220.878 46.8744 220.309 46.8744H214.273V46.8784Z" fill="black"/>
<path d="M241.138 47.5577C238.407 47.5577 236.015 46.8393 234.003 45.4394C231.991 44.0374 230.435 42.0721 229.373 39.6109C228.311 37.113 227.779 34.2376 227.779 30.9826C227.779 25.799 229.031 21.6379 231.5 18.536C233.968 15.434 237.267 13.8442 241.328 13.8442C244.629 13.8442 247.513 14.7911 249.94 16.6809V2.00575C249.94 1.40168 250.053 1.0221 250.319 0.793534C250.585 0.567009 250.966 0.450684 251.535 0.450684H257.57C258.139 0.450684 258.557 0.562927 258.786 0.793534C259.013 1.02006 259.13 1.43841 259.13 2.00575V45.3271C259.13 45.8577 259.017 46.274 258.786 46.4985C258.559 46.7638 258.139 46.8761 257.57 46.8761H252.525C252.032 46.8761 251.653 46.7638 251.35 46.574C251.084 46.3475 250.894 46.0067 250.745 45.5149L250.366 44.0761C247.822 46.3842 244.707 47.5556 241.142 47.5556L241.138 47.5577ZM244.175 40.6701C246.187 40.6701 248.121 40.066 249.979 38.9293V22.3583C248.158 21.2992 246.109 20.8073 243.757 20.8073C241.406 20.8073 239.887 21.64 238.786 23.3052C237.683 24.9684 237.155 27.4663 237.155 30.7969C237.155 34.1274 237.724 36.6253 238.901 38.2885C240.004 39.8395 241.784 40.6701 244.177 40.6701H244.175Z" fill="black"/>
<path d="M313.957 47.8229C308.949 47.8229 305.042 46.3087 302.23 43.319C299.42 40.3292 298.018 36.1681 298.018 30.7968C298.018 25.4255 299.424 21.3379 302.23 18.3502C305.038 15.3605 308.947 13.8462 313.957 13.8462C318.967 13.8462 322.873 15.3605 325.685 18.3502C328.495 21.3399 329.897 25.501 329.897 30.7968C329.897 36.0926 328.491 40.3313 325.685 43.319C322.875 46.3087 318.967 47.8229 313.957 47.8229ZM313.957 40.7864C318.36 40.7864 320.558 37.4558 320.558 30.7968C320.558 24.1378 318.356 20.8848 313.957 20.8848C309.559 20.8848 307.357 24.1766 307.357 30.7968C307.357 37.4171 309.555 40.7864 313.957 40.7864Z" fill="black"/>
<path fill-rule="evenodd" clip-rule="evenodd" d="M234.445 80.1363C215.446 93.5809 188.139 100.413 164.743 99.9807C131.951 99.3767 102.646 86.7423 80.6753 66.2122C78.9519 64.6 80.5566 62.4714 82.6401 63.7326C106.488 78.167 136.149 87.1402 166.941 87.7096C187.713 88.0933 210.628 84.2178 231.805 75.7181C234.996 74.4385 237.585 77.9078 234.445 80.1363Z" fill="black"/>
<path fill-rule="evenodd" clip-rule="evenodd" d="M242.408 71.4018C240.069 68.2978 226.592 69.659 220.535 70.2692C218.702 70.4549 218.448 68.8529 220.12 67.7284C230.99 60.4143 248.528 62.9081 250.523 65.4591C252.535 68.0325 249.609 85.5586 239.4 93.7604C237.83 95.0216 236.371 94.3073 237.089 92.6155C239.455 87.0259 244.752 74.5078 242.41 71.3997L242.408 71.4018Z" fill="black"/>
</svg>
