<svg width="24" height="24" viewBox="0 0 24 24" fill="none" xmlns="http://www.w3.org/2000/svg">
<path d="M21.4182 10.1819C21.5364 10.8364 21.6 11.5182 21.6 12.2273C21.6 15.2728 20.5091 17.8364 18.6182 19.5773L15.3864 17.0683C15.3864 17.0683 15.3864 17.0683 15.3864 17.0683C16.4455 16.3592 17.15 15.3001 17.3818 14.0501H12V10.1819H21.4182Z" fill="#4285F4"/>
<path d="M3.06366 16.4909C4.70911 19.7591 8.09093 22.0001 12 22.0001C14.7 22.0001 16.9636 21.1046 18.6182 19.5773L15.3864 17.0683C14.4909 17.6683 13.3455 18.0228 12 18.0228C9.39548 18.0228 7.19093 16.2637 6.40457 13.9001L3.06366 16.4909Z" fill="#34A853"/>
<path d="M3.06366 7.50909L6.40455 10.1C6.20455 10.7 6.09091 11.3409 6.09091 12C6.09091 12.6591 6.20457 13.3001 6.40457 13.9001L3.06366 16.4909C2.38639 15.1409 2 13.6136 2 12C2 10.3864 2.38639 8.85909 3.06366 7.50909Z" fill="#FBBC05"/>
<path d="M12 5.97727C13.4682 5.97727 14.7864 6.48182 15.8228 7.47273L18.6909 4.60455C16.9591 2.99091 14.6955 2 12 2C8.09093 2 4.70912 4.24091 3.06366 7.50909L6.40455 10.1C7.19091 7.73635 9.39548 5.97727 12 5.97727Z" fill="#EA4335"/>
</svg>
