<?xml version="1.0" encoding="UTF-8"?>
<svg width="48px" height="48px" viewBox="0 0 48 48" version="1.1" xmlns="http://www.w3.org/2000/svg" xmlns:xlink="http://www.w3.org/1999/xlink">
    <title>Group 11</title>
    <g id="Final" stroke="none" stroke-width="1" fill="none" fill-rule="evenodd">
        <g id="Group-11" fill="#8C8D8E" fill-rule="nonzero">
            <path d="M24,0 C28.4546673,0 32.732212,1.21611209 36.4561558,3.48152688 C36.7515661,3.66123605 36.8453604,4.04639646 36.6656512,4.34180674 C36.485942,4.63721702 36.1007816,4.73101131 35.8053713,4.55130215 C32.2761751,2.40435964 28.2234847,1.25217391 24,1.25217391 C11.4367226,1.25217391 1.25217391,11.4367226 1.25217391,24 C1.25217391,36.5632774 11.4367226,46.7478261 24,46.7478261 C36.5632774,46.7478261 46.7478261,36.5632774 46.7478261,24 C46.7478261,18.2628477 44.6165005,12.859762 40.8348052,8.70096622 C40.6021768,8.44514078 40.6209818,8.04917072 40.8768072,7.81654235 C41.1326327,7.58391398 41.5286027,7.60271892 41.7612311,7.85854437 C45.7505371,12.2456532 48,17.9482267 48,24 C48,37.254834 37.254834,48 24,48 C10.745166,48 0,37.254834 0,24 C0,10.745166 10.745166,0 24,0 Z" id="Path"></path>
            <g id="Icons-/-Generic-/-Plus-/-24px" transform="translate(12.000000, 12.000000)">
                <path d="M12,2.25 C12.4142136,2.25 12.75,2.58578644 12.75,3 L12.75,11.25 L20.9997175,11.25 C21.4140871,11.25 21.75,11.5857864 21.75,12 C21.75,12.4142136 21.4140871,12.75 20.9997175,12.75 L12.75,12.75 L12.75,21 C12.75,21.4142136 12.4142136,21.75 12,21.75 C11.5857864,21.75 11.25,21.4142136 11.25,21 L11.25,12.75 L3.00028251,12.75 C2.58591292,12.75 2.25,12.4142136 2.25,12 C2.25,11.5857864 2.58591292,11.25 3.00028251,11.25 L11.25,11.25 L11.25,3 C11.25,2.58578644 11.5857864,2.25 12,2.25 Z" id="Combined-Shape"></path>
            </g>
        </g>
    </g>
</svg>