<?xml version="1.0" encoding="UTF-8"?>
<svg width="58px" height="58px" viewBox="0 0 58 58" version="1.1" xmlns="http://www.w3.org/2000/svg" xmlns:xlink="http://www.w3.org/1999/xlink">
    <title>Group 8</title>
    <g id="Final" stroke="none" stroke-width="1" fill="none" fill-rule="evenodd">
        <g id="Group-8" fill="#8C8D8E" fill-rule="nonzero">
            <path d="M29,0 C34.382723,0 39.5514228,1.46946878 44.0511882,4.20684498 C44.4081423,4.42399355 44.5214771,4.88939572 44.3043285,5.24634981 C44.08718,5.6033039 43.6217778,5.71663867 43.2648237,5.4994901 C39.0003783,2.9052679 34.1033773,1.51304348 29,1.51304348 C13.8193731,1.51304348 1.51304348,13.8193731 1.51304348,29 C1.51304348,44.1806269 13.8193731,56.4869565 29,56.4869565 C44.1806269,56.4869565 56.4869565,44.1806269 56.4869565,29 C56.4869565,22.0676076 53.9116048,15.5388791 49.3420563,10.5136675 C49.0609637,10.2045451 49.0836863,9.72608129 49.3928087,9.44498868 C49.7019311,9.16389606 50.180395,9.1866187 50.4614876,9.49574111 C55.281899,14.796831 58,21.6874406 58,29 C58,45.0162577 45.0162577,58 29,58 C12.9837423,58 0,45.0162577 0,29 C0,12.9837423 12.9837423,0 29,0 Z" id="Path"></path>
            <g id="Icons-/-Generic-/-Plus-/-24px" transform="translate(17.000000, 17.000000)">
                <path d="M12,2.25 C12.4142136,2.25 12.75,2.58578644 12.75,3 L12.75,11.25 L20.9997175,11.25 C21.4140871,11.25 21.75,11.5857864 21.75,12 C21.75,12.4142136 21.4140871,12.75 20.9997175,12.75 L12.75,12.75 L12.75,21 C12.75,21.4142136 12.4142136,21.75 12,21.75 C11.5857864,21.75 11.25,21.4142136 11.25,21 L11.25,12.75 L3.00028251,12.75 C2.58591292,12.75 2.25,12.4142136 2.25,12 C2.25,11.5857864 2.58591292,11.25 3.00028251,11.25 L11.25,11.25 L11.25,3 C11.25,2.58578644 11.5857864,2.25 12,2.25 Z" id="Combined-Shape"></path>
            </g>
        </g>
    </g>
</svg>