<?xml version="1.0" encoding="UTF-8"?>
<svg viewBox="0 0 410 411" version="1.1" xmlns="http://www.w3.org/2000/svg" xmlns:xlink="http://www.w3.org/1999/xlink">
	<defs>
		<polygon id="path-1" points="0.0002 0.216 409.785 0.216 409.785 410 0.0002 410"/>
	</defs>
	<g id="Branding-/-Logo-/-Main-/-Telenet-neg" stroke="none" stroke-width="1" fill="none" fill-rule="evenodd">
		<g id="smilie">
			<g id="Group-3" transform="translate(0.000000, 0.784000)">
				<mask id="mask-2" fill="white">
					<use xlink:href="#path-1"/>
				</mask>
				<g id="Clip-2"/>
				<path d="M347.2642,300.666 C344.2952,325.145 325.4242,344.412 300.9442,347.371 C300.9442,347.371 262.0842,353.395 204.8912,353.395 C147.6942,353.395 108.8382,347.371 108.8382,347.371 C84.3602,344.412 65.4922,325.145 62.5172,300.666 C62.5172,300.66 56.6052,257.01 56.6052,205.104 C56.6052,153.198 62.5172,109.549 62.5172,109.542 C65.4922,85.069 84.3602,65.802 108.8382,62.849 C108.8382,62.849 147.6942,56.819 204.8912,56.819 C262.0842,56.819 300.9442,62.849 300.9442,62.849 C325.4242,65.802 344.2952,85.069 347.2642,109.542 C347.2642,109.549 353.1862,153.198 353.1862,205.104 C353.1862,257.01 347.2642,300.66 347.2642,300.666 M401.6112,73.065 C397.5052,39.251 371.4352,12.623 337.6042,8.543 C337.6042,8.543 283.9182,0.216 204.8912,0.216 C125.8632,0.216 72.1732,8.543 72.1732,8.543 C38.3492,12.623 12.2772,39.251 8.1732,73.065 C8.1702,73.071 0.0002,133.391 0.0002,205.104 C0.0002,276.823 8.1702,337.14 8.1732,337.146 C12.2772,370.963 38.3492,397.586 72.1732,401.672 C72.1732,401.672 125.8632,410 204.8912,410 C283.9182,410 337.6042,401.672 337.6042,401.672 C371.4352,397.586 397.5052,370.963 401.6112,337.146 C401.6112,337.14 409.7852,276.823 409.7852,205.104 C409.7852,133.391 401.6112,73.071 401.6112,73.065" id="Fill-1" fill="#FEFEFE" mask="url(#mask-2)"/>
			</g>
			<path d="M226.7056,167.5408 C235.6436,166.2678 244.3866,165.7138 254.8236,165.9058 C264.9276,166.1228 275.5836,167.0968 285.0246,168.8348 C285.0246,168.8348 288.1126,169.5718 288.1126,166.2728 L288.1126,144.9818 C288.1126,143.0298 285.6366,142.4178 285.6366,142.4178 C275.2906,139.7018 265.0366,138.1838 254.8976,137.9658 C245.3456,137.7978 235.8276,138.7438 226.3236,140.8158 C226.3236,140.8158 223.9586,141.5498 223.9586,143.6378 L223.9586,164.6968 C223.9586,168.6058 226.7056,167.5408 226.7056,167.5408" id="Fill-4" fill="#FEFEFE"/>
			<path d="M152.2871,180.5653 C152.2871,180.5653 184.2441,180.5273 184.2441,153.7123 C184.2441,126.9163 152.2871,126.8773 152.2871,126.8773 C152.2871,126.8773 120.3301,126.9163 120.3301,153.7123 C120.3301,180.5273 152.2871,180.5653 152.2871,180.5653" id="Fill-6" fill="#FEFEFE"/>
			<path d="M290.5776,234.6531 C279.4806,241.6291 247.0736,259.4001 205.0386,259.4001 C163.0016,259.4001 130.6006,241.6291 119.4996,234.6531 C119.4996,234.6531 115.3496,231.7131 115.3496,237.1761 L115.3496,248.0891 C115.3496,251.3651 119.0036,254.8211 119.0036,254.8211 C129.9566,263.3741 164.2496,287.3311 205.0386,287.3501 C245.8236,287.3311 280.1006,263.3741 291.0736,254.8211 C291.0736,254.8211 294.7256,251.3651 294.7256,248.0891 L294.7256,237.1761 C294.7256,231.7131 290.5776,234.6531 290.5776,234.6531" id="Fill-8" fill="#FEFEFE"/>
		</g>
	</g>
</svg>
