<svg xmlns="http://www.w3.org/2000/svg" viewBox="0 0 80 108"><defs><style>.cls-1{fill:#29a8b8;}.cls-2{fill:#fff;}.cls-3,.cls-4{fill:#291d18;}.cls-4,.cls-5{fill-rule:evenodd;}.cls-5{fill:#ffc421;}</style></defs><g id="Layer_2" data-name="Layer 2"><rect class="cls-1" x="10.5" y="85.84" width="69.5" height="20"/><circle class="cls-2" cx="10.5" cy="95.84" r="10.5"/><g id="Genius"><path id="G" class="cls-3" d="M31.3,101.84A3.63,3.63,0,0,0,35,99.52h0l.16,2H37V95.3H31.7v1.89h2.9v.19a2.53,2.53,0,0,1-2.8,2.24c-1.71,0-3.16-1.06-3.16-3.76s1.47-3.81,3-3.81a2.68,2.68,0,0,1,2.62,2.3l2.54-.66a5.12,5.12,0,0,0-5.13-3.85c-2.94,0-5.66,1.84-5.66,6C26,100.34,29.1,101.84,31.3,101.84Z"/><path id="e" class="cls-3" d="M42.37,101.82a3.64,3.64,0,0,0,3.56-2.07l-1.89-1a1.53,1.53,0,0,1-1.53,1.08,1.61,1.61,0,0,1-1.71-1.51h5.32v-.82c0-2.54-1.26-4-3.8-4a3.88,3.88,0,0,0-4,4.19A3.82,3.82,0,0,0,42.37,101.82Zm-1.49-5c0-1,.54-1.58,1.42-1.58s1.31.56,1.34,1.58Z"/><path id="n" class="cls-3" d="M47.32,101.55H49.7v-4.1c0-1.36.64-1.91,1.44-1.91a1.08,1.08,0,0,1,1.09,1.22v4.79h2.38V96.17A2.39,2.39,0,0,0,52,93.6a2.63,2.63,0,0,0-2.3,1.19h0v-1H47.32Z"/><path id="i" class="cls-3" d="M56.06,101.55h2.38V93.82H56.06Zm-.34-10a1.54,1.54,0,1,0,1.55-1.41A1.44,1.44,0,0,0,55.72,91.6Z"/><path id="u" class="cls-3" d="M67.12,93.82h-2.4V98c0,1.33-.65,1.86-1.43,1.86a1.05,1.05,0,0,1-1.09-1.19V93.82H59.82V99.2a2.45,2.45,0,0,0,2.71,2.58,2.58,2.58,0,0,0,2.18-1.17h0v.94h2.4Z"/><path id="S" class="cls-3" d="M71.74,101.82c2.11,0,3.4-1,3.4-2.62,0-1.27-.82-2-2.65-2.38-1.52-.32-1.81-.56-1.81-1s.34-.62.88-.62A1.42,1.42,0,0,1,73,96.31l2.19-.7c-.46-1.33-1.74-2.08-3.55-2.08-2,0-3.24.93-3.24,2.49,0,1.28.83,2,2.56,2.37,1.5.3,1.86.57,1.86,1s-.35.69-1,.69a1.39,1.39,0,0,1-1.46-1.26l-2.27.67C68.44,101,69.77,101.82,71.74,101.82Z"/></g><path id="Lock" class="cls-4" d="M12.5,92.53a1.92,1.92,0,0,0-2-1.69,1.9,1.9,0,0,0-2,1.79v1.21H8a1.5,1.5,0,0,0-1.5,1.5v4a1.5,1.5,0,0,0,1.5,1.5h5a1.5,1.5,0,0,0,1.5-1.5v-4a1.5,1.5,0,0,0-1.5-1.5h-.5V92.53Zm-1,1.31V92.63a.91.91,0,0,0-1-.79.94.94,0,0,0-1,.72v1.28Zm-4,1.5a.5.5,0,0,1,.5-.5h5a.5.5,0,0,1,.5.5v4a.5.5,0,0,1-.5.5H8a.5.5,0,0,1-.5-.5ZM9,96.84a1.5,1.5,0,1,1,2,1.41v.59a.5.5,0,0,1-1,.06v-.65A1.5,1.5,0,0,1,9,96.84Zm1.5.5a.5.5,0,1,0-.5-.5A.5.5,0,0,0,10.5,97.34Z"/></g><g id="Genius-2" data-name="Genius"><path class="cls-5" d="M75.73,66.15a6.45,6.45,0,0,1-2.07-2.37,17.54,17.54,0,0,1-1.55-6.59c-.18-2.33-.18-4.91-.18-7.39v-.35c0-2.62,0-5.11-.22-7.23a11.93,11.93,0,0,0-2.84-6.94c0,1.48.08,3,.08,4.62a154.07,154.07,0,0,1-1.16,18.61,10.36,10.36,0,0,1-9,9.1A135.81,135.81,0,0,1,40,68.78a135.81,135.81,0,0,1-18.75-1.17,10.38,10.38,0,0,1-9-9.1A155.39,155.39,0,0,1,11.05,39.9,155.39,155.39,0,0,1,12.2,21.29a10.37,10.37,0,0,1,9.05-9.09A134.68,134.68,0,0,1,40,11,134.68,134.68,0,0,1,58.75,12.2a10.35,10.35,0,0,1,9,9.09s.53,3.85.87,9.43A14.49,14.49,0,0,1,75,41.88c.23,2.33.24,5,.24,7.57v.3c0,2.52,0,5,.17,7.18a14.37,14.37,0,0,0,1.17,5.29,3.19,3.19,0,0,0,1,1.15,2.33,2.33,0,0,0,1.07.34A220.12,220.12,0,0,0,80,39.9a213.34,213.34,0,0,0-1.6-25.71A14.31,14.31,0,0,0,65.91,1.62,187.4,187.4,0,0,0,40,0,187.4,187.4,0,0,0,14.09,1.62,14.31,14.31,0,0,0,1.6,14.19,213.34,213.34,0,0,0,0,39.9,213.41,213.41,0,0,0,1.6,65.62,14.3,14.3,0,0,0,14.09,78.18,186.27,186.27,0,0,0,40,79.81a186.27,186.27,0,0,0,25.91-1.63A14.28,14.28,0,0,0,78.16,67,5.54,5.54,0,0,1,75.73,66.15Z"/><path id="mondje" class="cls-5" d="M40,55.77c-8,0-14.66-4.67-16.8-6.34a2.3,2.3,0,0,1-.71-1.31V46c0-1.07.81-.5.81-.5A32.55,32.55,0,0,0,40,50.32a32.58,32.58,0,0,0,16.7-4.82s.81-.57.81.5v2.12a2.29,2.29,0,0,1-.72,1.31C54.68,51.1,48,55.76,40,55.77"/><path class="cls-5" d="M63.31,28.74a11.09,11.09,0,1,0-.17,3.33,9.43,9.43,0,0,1,5.73,3.21c-.05-1.61-.13-3.14-.21-4.56A11.88,11.88,0,0,0,63.31,28.74ZM52.25,36.49a6.67,6.67,0,1,1,6.67-6.67A6.67,6.67,0,0,1,52.25,36.49Z"/><path id="oog" class="cls-5" d="M36,29.74c0-5.22-6.24-5.23-6.24-5.23s-6.24,0-6.24,5.23S29.73,35,29.73,35,36,35,36,29.74"/></g></svg>