<svg width="70" height="179" viewBox="0 0 70 179" fill="none" xmlns="http://www.w3.org/2000/svg">
<rect x="10.75" y="10.75" width="58" height="167" rx="6" fill="#E5CFC7"/>
<path d="M2.5 21.5274V8.53082C2.5 5.15059 4.25121 2.5 6.23 2.5H53.27C55.2488 2.5 57 5.15059 57 8.53082V159.969C57 163.349 55.2488 166 53.27 166H6.23C4.25121 166 2.5 163.349 2.5 159.969V28.9991C2.5 28.5849 2.16421 28.2491 1.75 28.2491C1.33579 28.2491 1 28.5849 1 28.9991V159.969C1 164.079 3.26032 167.5 6.23 167.5H53.27C56.2397 167.5 58.5 164.079 58.5 159.969V8.53082C58.5 4.42117 56.2397 1 53.27 1H6.23C3.26032 1 1 4.42117 1 8.53082V21.5274C1 21.9416 1.33579 22.2774 1.75 22.2774C2.16421 22.2774 2.5 21.9416 2.5 21.5274Z" fill="#291D18"/>
<path fill-rule="evenodd" clip-rule="evenodd" d="M35.75 150.25C38.2353 150.25 40.25 148.235 40.25 145.75C40.25 143.265 38.2353 141.25 35.75 141.25H23.75C21.2647 141.25 19.25 143.265 19.25 145.75C19.25 148.235 21.2647 150.25 23.75 150.25H35.75ZM35.75 142.25C37.683 142.25 39.25 143.817 39.25 145.75C39.25 147.683 37.683 149.25 35.75 149.25H23.75C21.817 149.25 20.25 147.683 20.25 145.75C20.25 143.817 21.817 142.25 23.75 142.25H35.75Z" fill="#291D18"/>
<path fill-rule="evenodd" clip-rule="evenodd" d="M36.1488 29.9177C36.0257 30.9898 35.2432 31.8336 34.2282 31.9632C34.2282 31.9632 32.6169 32.227 30.2455 32.227C27.8739 32.227 26.2628 31.9632 26.2628 31.9632C25.2479 31.8336 24.4655 30.9898 24.3422 29.9177C24.3422 29.9174 24.097 28.0058 24.097 25.7325C24.097 23.4593 24.3422 21.5476 24.3422 21.5473C24.4655 20.4755 25.2479 19.6317 26.2628 19.5024C26.2628 19.5024 27.8739 19.2383 30.2455 19.2383C32.6169 19.2383 34.2282 19.5024 34.2282 19.5024C35.2432 19.6317 36.0257 20.4755 36.1488 21.5473C36.1488 21.5476 36.3943 23.4593 36.3943 25.7325C36.3943 28.0058 36.1488 29.9174 36.1488 29.9177M38.4022 19.9502C38.2319 18.4693 37.151 17.3031 35.7482 17.1245C35.7482 17.1245 33.5222 16.7598 30.2455 16.7598C26.9687 16.7598 24.7425 17.1245 24.7425 17.1245C23.3401 17.3031 22.259 18.4693 22.0889 19.9502C22.0888 19.9505 21.75 22.5922 21.75 25.733C21.75 28.8739 22.0888 31.5156 22.0889 31.5158C22.259 32.9969 23.3401 34.1628 24.7425 34.3418C24.7425 34.3418 26.9687 34.7065 30.2455 34.7065C33.5222 34.7065 35.7482 34.3418 35.7482 34.3418C37.151 34.1628 38.2319 32.9969 38.4022 31.5158C38.4022 31.5156 38.7411 28.8739 38.7411 25.733C38.7411 22.5922 38.4022 19.9505 38.4022 19.9502" fill="#291D18"/>
<path fill-rule="evenodd" clip-rule="evenodd" d="M31.2092 24.2875C31.5644 24.2485 31.9119 24.2315 32.3268 24.2374C32.7284 24.2441 33.152 24.2739 33.5272 24.3271C33.5272 24.3271 33.65 24.3496 33.65 24.2487V23.5971C33.65 23.5374 33.5516 23.5187 33.5516 23.5187C33.1403 23.4355 32.7327 23.3891 32.3297 23.3824C31.9501 23.3773 31.5717 23.4062 31.194 23.4696C31.194 23.4696 31.1 23.4921 31.1 23.556V24.2004C31.1 24.32 31.2092 24.2875 31.2092 24.2875" fill="#291D18"/>
<path fill-rule="evenodd" clip-rule="evenodd" d="M28.125 24.3293C28.125 24.3293 29.4 24.328 29.4 23.3816C29.4 22.4359 28.125 22.4346 28.125 22.4346C28.125 22.4346 26.85 22.4359 26.85 23.3816C26.85 24.328 28.125 24.3293 28.125 24.3293" fill="#291D18"/>
<path fill-rule="evenodd" clip-rule="evenodd" d="M34.3231 27.1989C33.8498 27.446 32.4677 28.0755 30.675 28.0755C28.8822 28.0755 27.5004 27.446 27.027 27.1989C27.027 27.1989 26.85 27.0947 26.85 27.2883V27.6748C26.85 27.7909 27.0058 27.9133 27.0058 27.9133C27.4729 28.2163 28.9355 29.065 30.675 29.0656C32.4144 29.065 33.8763 28.2163 34.3442 27.9133C34.3442 27.9133 34.5 27.7909 34.5 27.6748V27.2883C34.5 27.0947 34.3231 27.1989 34.3231 27.1989" fill="#291D18"/>
<path fill-rule="evenodd" clip-rule="evenodd" d="M35.25 131.75C35.25 128.712 32.7876 126.25 29.75 126.25C26.7124 126.25 24.25 128.712 24.25 131.75C24.25 134.788 26.7124 137.25 29.75 137.25C32.7876 137.25 35.25 134.788 35.25 131.75ZM25.25 131.75C25.25 129.265 27.2647 127.25 29.75 127.25C32.2353 127.25 34.25 129.265 34.25 131.75C34.25 134.235 32.2353 136.25 29.75 136.25C27.2647 136.25 25.25 134.235 25.25 131.75Z" fill="#291D18"/>
<path fill-rule="evenodd" clip-rule="evenodd" d="M32.25 47.75C32.25 46.3693 31.1307 45.25 29.75 45.25C28.3693 45.25 27.25 46.3693 27.25 47.75C27.25 49.1307 28.3693 50.25 29.75 50.25C31.1307 50.25 32.25 49.1307 32.25 47.75ZM28.25 47.75C28.25 46.9216 28.9216 46.25 29.75 46.25C30.5784 46.25 31.25 46.9216 31.25 47.75C31.25 48.5784 30.5784 49.25 29.75 49.25C28.9216 49.25 28.25 48.5784 28.25 47.75Z" fill="#291D18"/>
<path fill-rule="evenodd" clip-rule="evenodd" d="M32.25 55.75C32.25 54.3693 31.1307 53.25 29.75 53.25C28.3693 53.25 27.25 54.3693 27.25 55.75C27.25 57.1307 28.3693 58.25 29.75 58.25C31.1307 58.25 32.25 57.1307 32.25 55.75ZM28.25 55.75C28.25 54.9216 28.9216 54.25 29.75 54.25C30.5784 54.25 31.25 54.9216 31.25 55.75C31.25 56.5784 30.5784 57.25 29.75 57.25C28.9216 57.25 28.25 56.5784 28.25 55.75Z" fill="#291D18"/>
<path fill-rule="evenodd" clip-rule="evenodd" d="M32.25 63.75C32.25 62.3693 31.1307 61.25 29.75 61.25C28.3693 61.25 27.25 62.3693 27.25 63.75C27.25 65.1307 28.3693 66.25 29.75 66.25C31.1307 66.25 32.25 65.1307 32.25 63.75ZM28.25 63.75C28.25 62.9216 28.9216 62.25 29.75 62.25C30.5784 62.25 31.25 62.9216 31.25 63.75C31.25 64.5784 30.5784 65.25 29.75 65.25C28.9216 65.25 28.25 64.5784 28.25 63.75Z" fill="#291D18"/>
<path fill-rule="evenodd" clip-rule="evenodd" d="M32.25 72.75C32.25 71.3693 31.1307 70.25 29.75 70.25C28.3693 70.25 27.25 71.3693 27.25 72.75C27.25 74.1307 28.3693 75.25 29.75 75.25C31.1307 75.25 32.25 74.1307 32.25 72.75ZM28.25 72.75C28.25 71.9216 28.9216 71.25 29.75 71.25C30.5784 71.25 31.25 71.9216 31.25 72.75C31.25 73.5784 30.5784 74.25 29.75 74.25C28.9216 74.25 28.25 73.5784 28.25 72.75Z" fill="#291D18"/>
<path fill-rule="evenodd" clip-rule="evenodd" d="M32.25 80.75C32.25 79.3693 31.1307 78.25 29.75 78.25C28.3693 78.25 27.25 79.3693 27.25 80.75C27.25 82.1307 28.3693 83.25 29.75 83.25C31.1307 83.25 32.25 82.1307 32.25 80.75ZM28.25 80.75C28.25 79.9216 28.9216 79.25 29.75 79.25C30.5784 79.25 31.25 79.9216 31.25 80.75C31.25 81.5784 30.5784 82.25 29.75 82.25C28.9216 82.25 28.25 81.5784 28.25 80.75Z" fill="#291D18"/>
</svg>
