<svg xmlns="http://www.w3.org/2000/svg" width="264" height="162" viewBox="0 0 264 162">
  <g fill="none" fill-rule="evenodd">
    <path fill="#C5C6C6" fill-rule="nonzero" d="M176.399995,71 L87.5999986,71 C87.0477138,71 86.5999986,71.4477153 86.5999986,72 L86.5999986,160.799996 C86.5999986,161.352281 87.0477138,161.799996 87.5999986,161.799996 L176.399995,161.799996 C176.952279,161.799996 177.399995,161.352281 177.399995,160.799996 L177.399995,72 C177.399995,71.4477153 176.952279,71 176.399995,71 Z M175.399,73 L175.399,159.799 L88.599,159.799 L88.599,73 L175.399,73 Z"/>
    <path fill="#C5C6C6" fill-rule="nonzero" d="M175.692888,71.2928932 C176.053372,70.9324093 176.620603,70.9046797 177.012894,71.2097046 L177.107101,71.2928932 L204.004157,98.1899485 C204.394681,98.5804727 204.394681,99.2136377 204.004157,99.604162 C203.643673,99.964646 203.076442,99.9923755 202.68415,99.6873506 L202.589943,99.604162 L175.692888,72.7071068 C175.302364,72.3165825 175.302364,71.6834175 175.692888,71.2928932 Z"/>
    <path fill="#C5C6C6" fill-rule="nonzero" d="M59.9958366,71.2928932 C60.3563205,70.9324093 60.9235516,70.9046797 61.3158428,71.2097046 L61.4100501,71.2928932 L88.3071054,98.1899485 C88.6976297,98.5804727 88.6976297,99.2136377 88.3071054,99.604162 C87.9466214,99.964646 87.3793904,99.9923755 86.9870991,99.6873506 L86.8928918,99.604162 L59.9958366,72.7071068 C59.6053123,72.3165825 59.6053123,71.6834175 59.9958366,71.2928932 Z" transform="matrix(-1 0 0 1 148.303 0)"/>
    <path fill="#239A98" fill-rule="nonzero" d="M166.799995,135.799997 L135.599996,135.799997 C135.047712,135.799997 134.599996,136.247712 134.599996,136.799997 L134.599996,151.199996 C134.599996,151.752281 135.047712,152.199996 135.599996,152.199996 L166.799995,152.199996 C167.35228,152.199996 167.799995,151.752281 167.799995,151.199996 L167.799995,136.799997 C167.799995,136.247712 167.35228,135.799997 166.799995,135.799997 Z M165.799,137.799 L165.799,150.199 L136.599,150.199 L136.599,137.799 L165.799,137.799 Z"/>
    <path fill="#C5C6C6" fill-rule="nonzero" d="M203.29705 159.799996C203.849335 159.799996 204.29705 160.247711 204.29705 160.799996 204.29705 161.312832 203.91101 161.735503 203.413671 161.793268L203.29705 161.799996 176.399995 161.799996C175.84771 161.799996 175.399995 161.352281 175.399995 160.799996 175.399995 160.28716 175.786035 159.864489 176.283373 159.806724L176.399995 159.799996 203.29705 159.799996zM212.999993 159.799996C213.552278 159.799996 213.999993 160.247711 213.999993 160.799996 213.999993 161.312832 213.613953 161.735503 213.116614 161.793268L212.999993 161.799996 210.599993 161.799996C210.047708 161.799996 209.599993 161.352281 209.599993 160.799996 209.599993 160.28716 209.986033 159.864489 210.483372 159.806724L210.599993 159.799996 212.999993 159.799996zM93.5999991 159.799996C94.1522839 159.799996 94.5999991 160.247711 94.5999991 160.799996 94.5999991 161.312832 94.2139589 161.735503 93.7166202 161.793268L93.5999991 161.799996 75.5999991 161.799996C75.0477144 161.799996 74.5999991 161.352281 74.5999991 160.799996 74.5999991 160.28716 74.9860393 159.864489 75.483378 159.806724L75.5999991 159.799996 93.5999991 159.799996zM67.7999995 159.799996C68.3522843 159.799996 68.7999995 160.247711 68.7999995 160.799996 68.7999995 161.312832 68.4139593 161.735503 67.9166206 161.793268L67.7999995 161.799996 57 161.799996C56.4477153 161.799996 56 161.352281 56 160.799996 56 160.28716 56.3860402 159.864489 56.8833789 159.806724L57 159.799996 67.7999995 159.799996z"/>
    <circle cx="152" cy="9" r="9" fill="#239A98"/>
    <circle cx="31.5" cy="145.5" r="4.5" fill="#239A98"/>
    <circle cx="233.5" cy="45.5" r="4.5" fill="#239A98"/>
    <ellipse cx="11.5" cy="78" fill="#F2F2F2" rx="11.5" ry="12"/>
  </g>
</svg>
