<svg xmlns="http://www.w3.org/2000/svg" width="280" height="112" viewBox="0 0 280 112">
  <g fill="none" fill-rule="evenodd">
    <rect width="20" height="12" y="84" fill="#009793"/>
    <rect width="24" height="14" x="9" fill="#F2F2F2"/>
    <rect width="29" height="18" x="251" y="94" fill="#F2F2F2"/>
    <rect width="17" height="10" x="251" y="19" fill="#009793" fill-opacity=".4"/>
    <g fill="#1A1919" transform="translate(129 67)">
      <path d="M19.2939,17.1585 C18.2262,18.2838 16.4685,18.8307 13.92,18.8307 L10.2924,18.8307 C7.9119,18.8307 6.1356,18.2256 5.013,17.0319 C3.8271,15.7713 3.2259,13.755 3.2259,11.0388 C3.2259,8.1471 3.8001,6.0681 4.932,4.8594 C6.006,3.7131 7.7592,3.156 10.2924,3.156 L13.92,3.156 C16.9536,3.156 20.9868,3.9729 20.9868,11.0388 C20.9868,13.9155 20.4171,15.9744 19.2939,17.1585 Z M13.92,0.156 L10.2924,0.156 C3.5817,0.156 0.2259,3.6021 0.2259,11.0388 C0.2259,18.1125 3.8082,21.8307 10.2924,21.8307 L13.92,21.8307 C20.6313,21.8307 23.9868,18.4752 23.9868,11.0388 C23.9868,3.9648 20.4045,0.156 13.92,0.156 L13.92,0.156 Z"/>
      <path d="M11.0358 11.6421L13.1766 11.6421C13.29 11.1981 13.374 10.9824 13.4367 10.8216 13.5684 10.4832 13.6065 10.341 13.6065 9.33L13.6065 5.2419 10.6065 5.2419 10.6065 9.33C10.6065 10.3413 10.6443 10.4835 10.776 10.8216 10.8387 10.9827 10.9227 11.1981 11.0358 11.6421M12.1065 13.0947C11.1 13.0947 10.2816 13.9134 10.2816 14.9199 10.2816 15.9261 11.1 16.7448 12.1065 16.7448 13.1127 16.7448 13.9314 15.9261 13.9314 14.9199 13.9314 13.9134 13.1127 13.0947 12.1065 13.0947"/>
    </g>
    <path fill="#111" fill-rule="nonzero" d="M231,0 L231,32 L49,32 L49,0 L231,0 Z M228,3 L52,3 L52,29 L228,29 L228,3 Z"/>
    <polygon fill="#009793" fill-rule="nonzero" points="180 15.5 180 17.5 64 17.5 64 15.5"/>
    <polygon fill="#F2F2F2" fill-rule="nonzero" points="185.5 47 185.5 49 50 49 50 106 230 106 230 49 201.146 49 201.146 47 232 47 232 108 48 108 48 47"/>
  </g>
</svg>
