<svg xmlns="http://www.w3.org/2000/svg" width="24" height="24" fill="none"><path fill="#291D18" d="M12.303 3.001c2.909.02 4.862.342 4.862.342 1.314.167 2.327 1.263 2.486 2.654l.004.03c.029.232.21 1.762.283 3.765a1.3 1.3 0 0 1 .393-.06c.826 0 1.669.702 1.669 2.425 0 1.724-.843 2.425-1.67 2.425q-.244-.002-.465-.084a44 44 0 0 1-.21 2.331l-.004.03c-.16 1.392-1.172 2.486-2.486 2.655 0 0-.916.15-2.427.252-.383.521-1.106.903-2.25.903-1.842 0-2.591-.99-2.591-1.96s.75-1.96 2.591-1.96c.966 0 1.631.272 2.045.67a17 17 0 0 0 1.207-.14c.952-.12 1.685-.913 1.8-1.92.005-.035.23-1.817.23-3.931 0-1.97-.196-3.653-.226-3.9l-.004-.03c-.115-1.008-.848-1.8-1.8-1.922 0 0-1.509-.248-3.731-.248s-3.731.248-3.731.248c-.952.122-1.684.914-1.8 1.921 0 0-.23 1.796-.23 3.93 0 1.853.173 3.45.219 3.84l-.004.001q.004.055.004.11c0 .686-.503 1.241-1.123 1.241-.608 0-1.104-.535-1.122-1.202l-.047-.607a1.3 1.3 0 0 1-.506.1C2.843 14.91 2 14.207 2 12.484s.843-2.425 1.67-2.425q.208.001.4.061c.063-2.162.263-3.85.293-4.094l.004-.03c.16-1.391 1.172-2.487 2.486-2.654 0 0 2.086-.343 5.156-.343z"/><path fill="#291D18" d="M10.102 8.268s1.244.001 1.244 1.053-1.244 1.054-1.244 1.054-1.244-.002-1.244-1.054 1.244-1.053 1.244-1.053m5.224.806v.845c0 .13-.12.102-.12.102a7.4 7.4 0 0 0-1.171-.117 6.5 6.5 0 0 0-1.09.065s-.107.042-.107-.113V9.02c0-.083.092-.112.092-.112q.552-.123 1.108-.113.59.014 1.192.177s.096.024.096.102m-3.151 5.69c-1.583 0-2.916-.944-3.34-1.281 0 0-.143-.136-.143-.265v-.43c0-.216.162-.1.162-.1.43.275 1.689.975 3.321.975s2.89-.7 3.321-.975c0 0 .162-.116.162.1v.43c0 .129-.142.265-.142.265-.426.336-1.758 1.28-3.34 1.281"/></svg>