<svg xmlns="http://www.w3.org/2000/svg" width="24" height="24" fill="none"><path fill="#291D18" d="M9.25 5a2.75 2.75 0 1 1 4.95 1.651q.273.202.495.451c.414.468.615.898.713 1.521l.335 2.267a.75.75 0 0 1-.742.858H9a.75.75 0 0 1-.743-.858l.317-2.151.054-.317c.109-.518.308-.904.677-1.32q.221-.249.495-.45A2.74 2.74 0 0 1 9.25 5m2.748 2.75h-.005l-.838.004-.303-.002-.02.011a2 2 0 0 0-.285.214l-.119.12c-.223.252-.3.417-.353.759l-.208 1.392h4.265l-.188-1.271-.043-.258c-.054-.254-.137-.406-.329-.621a1.7 1.7 0 0 0-.253-.233l-.17-.113-.387.003L12 7.75zM13.25 5a1.25 1.25 0 1 0-2.5 0 1.25 1.25 0 0 0 2.5 0m-11 10a2.75 2.75 0 1 1 4.95 1.651q.273.202.495.451c.414.468.615.898.713 1.521l.335 2.267a.75.75 0 0 1-.743.858H2a.75.75 0 0 1-.742-.858l.317-2.151.054-.317c.109-.518.308-.904.677-1.32q.221-.249.495-.45A2.74 2.74 0 0 1 2.25 15m4 0a1.25 1.25 0 1 0-2.5 0 1.25 1.25 0 0 0 2.5 0m-2.398 2.752-.02.011a2 2 0 0 0-.285.214l-.119.12c-.223.252-.3.417-.353.759l-.208 1.392h4.265l-.188-1.271-.043-.258c-.054-.254-.138-.406-.329-.621a1.7 1.7 0 0 0-.253-.232l-.17-.114-.387.003-.767-.005-.84.004zM19 12.25a2.75 2.75 0 0 0-2.2 4.401 3.2 3.2 0 0 0-.494.451c-.369.416-.568.802-.677 1.32l-.054.317-.317 2.15a.75.75 0 0 0 .742.86h6a.75.75 0 0 0 .743-.86l-.335-2.266c-.098-.623-.299-1.053-.713-1.52a3.2 3.2 0 0 0-.496-.452A2.75 2.75 0 0 0 19 12.25m0 1.5a1.25 1.25 0 1 1 0 2.5 1.25 1.25 0 0 1 0-2.5m-.845 4.004.84-.004.767.005.386-.003.17.114q.144.105.254.232c.192.215.275.367.33.621l.042.258.188 1.271h-4.265l.208-1.392c.053-.342.13-.507.353-.758l.12-.121q.126-.117.285-.214l.02-.011zM7.47 7.335a.75.75 0 1 0-.938-1.17 8.74 8.74 0 0 0-3.01 4.65.75.75 0 0 0 1.453.37 7.24 7.24 0 0 1 2.494-3.85m6.727 14.115a.75.75 0 0 0-.391-1.45 6.6 6.6 0 0 1-1.805.25 7.4 7.4 0 0 1-1.815-.224.75.75 0 1 0-.37 1.453A9 9 0 0 0 12 21.75c.76 0 1.438-.096 2.196-.3M17.47 6.175c1.49 1.195 2.56 2.818 3.017 4.643a.75.75 0 0 1-1.455.364c-.375-1.5-1.26-2.843-2.5-3.836a.75.75 0 0 1 .938-1.17"/></svg>