<svg xmlns="http://www.w3.org/2000/svg" width="24" height="24" fill="none"><path fill="#291D18" d="M10 3a1 1 0 1 0 0-2 1 1 0 0 0 0 2m0 1a1 1 0 1 1-2 0 1 1 0 0 1 2 0"/><path fill="#291D18" d="M12 4a1 1 0 1 1-2 0 1 1 0 0 1 2 0m0 0a1 1 0 1 1 2 0 1 1 0 0 1-2 0"/><path fill="#291D18" d="M8 7a1 1 0 0 0 1-1 1 1 0 0 0 2 0 1 1 0 1 0 2 0 1 1 0 1 0 2 0 1 1 0 0 0-2 0 1 1 0 1 0-2 0 1 1 0 1 0-2 0 1 1 0 1 0-1 1m6.378.25H7.626a2.25 2.25 0 0 0-2.242 2.432l.772 9.54a2.75 2.75 0 0 0 2.741 2.528h4.237a2.75 2.75 0 0 0 2.741-2.536l.746-9.539q.007-.087.007-.175a2.25 2.25 0 0 0-2.25-2.25m-6.782 1.5h6.782a.75.75 0 0 1 .75.75l-.002.058-.746 9.54a1.25 1.25 0 0 1-1.246 1.152H8.897a1.25 1.25 0 0 1-1.246-1.15L6.88 9.56a.75.75 0 0 1 .687-.808zM17 22a1 1 0 1 0 0-2 1 1 0 0 0 0 2M6 21a1 1 0 1 1-2 0 1 1 0 0 1 2 0m13-2a1 1 0 1 1-2 0 1 1 0 0 1 2 0"/></svg>