<svg xmlns="http://www.w3.org/2000/svg" width="24" height="24" fill="none"><path fill="#291D18" d="M12.463 3a8.75 8.75 0 1 1 0 17.5.75.75 0 0 1 0-1.5 7.25 7.25 0 1 0-7.15-8.457l.772-.857a.75.75 0 0 1 1.183.916l-.068.087-1.893 2.102a.75.75 0 0 1-.61.247.75.75 0 0 1-.532-.17l-.08-.077-1.892-2.102a.75.75 0 0 1 1.034-1.08l.08.077.53.588A8.75 8.75 0 0 1 12.463 3"/><path fill="#291D18" d="M16.463 8a.75.75 0 0 1 .75.75v5a.75.75 0 0 1-.75.75h-8a.75.75 0 0 1-.75-.75v-5a.75.75 0 0 1 .75-.75zm-.75 5V9.5h-6.5V13zm.5 2.75a.75.75 0 0 0-.75-.75h-6l-.101.007a.75.75 0 0 0 .101 1.493h6l.102-.007a.75.75 0 0 0 .648-.743"/></svg>