<svg width="109" height="131" viewBox="0 0 109 131" fill="none" xmlns="http://www.w3.org/2000/svg">
<path d="M82.5766 53.9603V128.92H2.10315V21.2324L55.3747 21.2324" stroke="#3D9E9B" stroke-width="4"/>
<path d="M26.8712 64.2834H21.3355V69.2818H26.3158C26.3158 70.1265 26.3622 70.9604 26.4526 71.781H21.3355V76.7794H27.5911C30.6677 85.5155 38.9691 91.7745 48.7271 91.7745C52.305 91.7745 55.6871 90.933 58.6876 89.4365V83.6404C55.8642 85.617 52.4305 86.7761 48.7271 86.7761C41.7736 86.7761 35.7711 82.6898 32.9735 76.7794H46.2369V71.781H31.4726C31.3563 70.9647 31.2961 70.1303 31.2961 69.2818H46.2369V64.2834H32.0179C34.1608 57.057 40.8308 51.7874 48.7271 51.7874C52.4305 51.7874 55.8642 52.9466 58.6876 54.9232V49.1271C55.6871 47.6306 52.305 46.7891 48.7271 46.7891C38.0614 46.7891 29.1358 54.2667 26.8712 64.2834Z" fill="#3D9E9B"/>
<path d="M21 103.641H65" stroke="#3D9E9B" stroke-width="4" stroke-linecap="square"/>
<rect x="71.875" y="11.1797" width="37.125" height="37.26" fill="#D6EBEA"/>
<rect x="62.875" y="2.14062" width="38.625" height="38.78" stroke="#3D9E9B" stroke-width="4"/>
<path d="M74.2792 20.0876L80.9812 26.8204L92.7767 14.9707" stroke="#004A47" stroke-width="4"/>
</svg>
