<svg width="216" height="126" viewBox="0 0 216 126" fill="none" xmlns="http://www.w3.org/2000/svg">
<g clip-path="url(#clip0_5602_880)">
<path d="M3.50525 78.7227C7.67887 83.5757 10.7226 88.3403 12.903 92.9009" stroke="#291D18" stroke-width="4" stroke-linecap="round"/>
<path d="M135.163 114.326C141.674 114.985 147.433 114.728 152.502 113.861M163.662 110.64C162.735 111.03 161.773 111.399 160.776 111.745" stroke="#291D18" stroke-width="4" stroke-linecap="round"/>
<path d="M164.916 11.0461C162.5 17.5 158.5 24 148.618 27.6869" stroke="#291D18" stroke-width="4" stroke-linecap="round"/>
<path d="M104.257 44.332C96.7666 48.1806 87.6604 51.0721 75.3242 45.6763" stroke="#291D18" stroke-width="4" stroke-linecap="round"/>
<path d="M58.618 36.6253C58.618 36.6253 61.9845 37.5073 66.2827 40.3359" stroke="#291D18" stroke-width="4" stroke-linecap="round"/>
<path d="M118.614 25.927C108.299 34.7133 94.0053 37.2192 81.3159 32.4665C80.5182 32.1684 79.7692 31.2664 79.6334 30.493C78.6022 24.6113 77.5709 18.7301 76.5397 12.8484C76.4042 12.0737 76.9329 11.7212 77.7307 12.0193C90.4202 16.7719 104.713 14.2656 115.029 5.47931C115.678 4.92748 116.295 5.07927 116.431 5.854C117.462 11.7357 118.493 17.6169 119.525 23.4986C119.66 24.272 119.263 25.3752 118.614 25.927Z" fill="#E5CFC7"/>
<path d="M113.936 10.1051C114.507 13.3585 115.077 16.6115 115.648 19.865C115.52 19.9388 115.391 20.0272 115.262 20.1296C113.984 21.139 113.1 23.055 113.362 24.5438C113.389 24.6946 113.426 24.8346 113.474 24.9638C104.743 30.8119 93.9181 32.7093 83.7176 30.1803C83.7193 30.0426 83.7069 29.8985 83.6805 29.7472C83.4203 28.2584 81.9372 26.7574 80.3923 26.2428C80.2355 26.1907 80.0845 26.1517 79.9393 26.1254C79.3689 22.872 78.7985 19.6185 78.2281 16.3655C78.3821 16.443 78.5378 16.5078 78.6946 16.5599C80.2395 17.0746 81.3005 16.1675 81.039 14.6824C81.0125 14.5315 80.973 14.3802 80.9207 14.2293C91.1213 16.7579 101.946 14.8604 110.678 9.01228C110.68 9.17222 110.694 9.32762 110.721 9.47894C110.98 10.9641 112.286 11.4566 113.564 10.4467C113.694 10.3447 113.818 10.2306 113.936 10.1051Z" fill="#E5CFC7"/>
<path d="M102.325 21.6354C102.754 24.0752 101.089 26.7211 98.5253 27.1655C95.9632 27.6199 93.4977 25.698 93.071 23.2578C92.6404 20.8081 94.4107 18.7653 96.9729 18.3113C99.5367 17.8668 101.896 19.1853 102.325 21.6354Z" fill="#291D18" fill-opacity="0.32"/>
<path d="M88.7162 23.3696C88.9387 24.6346 88.0214 25.596 86.6724 25.4107C85.3234 25.2281 84.0571 23.9672 83.835 22.7023C83.6129 21.4346 84.5193 20.6417 85.8683 20.8243C87.2172 21.0101 88.4943 22.1019 88.7162 23.3696Z" fill="#291D18" fill-opacity="0.32"/>
<path d="M106.458 20.2603C106.679 21.5257 107.868 22.1174 109.074 21.4844C110.28 20.8533 111.042 19.2372 110.821 17.9723C110.598 16.7042 109.476 16.267 108.27 16.8981C107.065 17.531 106.235 18.9926 106.458 20.2603Z" fill="#291D18" fill-opacity="0.32"/>
<path d="M115.753 22.629C105.295 31.4761 90.8049 33.9993 77.9406 29.2138C77.1319 28.9136 76.3726 28.0053 76.235 27.2266C75.1895 21.3042 74.1441 15.3822 73.0986 9.45979C72.9612 8.67969 73.4973 8.32476 74.306 8.62494C87.1703 13.4105 101.661 10.8868 112.118 2.03967C112.776 1.48401 113.402 1.63685 113.54 2.41695C114.585 8.33936 115.63 14.2613 116.676 20.1837C116.814 20.9625 116.41 22.0733 115.753 22.629Z" stroke="#291D18" stroke-width="3"/>
<path d="M204.324 53.9554C204.351 56.8273 204.216 59.51 203.945 62.0035C203.789 63.5068 203.578 64.9498 203.328 66.325C202.793 69.3466 202.054 72.0698 201.181 74.5077C198.485 82.0475 194.488 86.9583 190.979 90.0476C188.581 91.7749 186.088 93.3469 183.534 94.7626C183.528 94.7692 183.521 94.7692 183.521 94.7692C170.698 101.855 156.099 104.931 141.474 103.263C139.754 103.068 137.918 101.74 137.363 100.392C133.156 90.1286 128.942 79.8666 124.735 69.597C124.18 68.249 125.068 67.2531 126.72 67.2804C152.977 67.7746 179.158 51.734 193.783 23.8583C194.705 22.1038 195.951 21.9889 196.635 23.6616C198.782 28.8981 200.937 34.1411 203.084 39.3775C203.084 39.3775 203.084 39.3841 203.091 39.3982C203.131 39.5743 203.396 40.733 203.511 42.3784C204.053 46.5512 204.311 50.4058 204.324 53.9554Z" fill="#E5CFC7"/>
<path d="M196.517 51.3539C196.544 54.2258 196.409 56.9085 196.138 59.402C195.983 60.9052 195.772 62.3482 195.521 63.7235C194.987 66.745 194.248 69.4682 193.374 71.9062C190.678 79.446 186.682 84.3567 183.172 87.4461C180.774 89.1734 178.281 90.7453 175.728 92.161C175.721 92.1676 175.714 92.1676 175.714 92.1676C162.891 99.2537 148.293 102.329 133.668 100.662C131.947 100.466 130.111 99.1379 129.556 97.79C125.349 87.527 121.135 77.265 116.929 66.9954C116.373 65.6475 117.261 64.6516 118.914 64.6789C145.17 65.1731 171.352 49.1324 185.977 21.2568C186.898 19.5022 188.144 19.3874 188.829 21.0601C190.976 26.2965 193.13 31.5395 195.278 36.776C195.278 36.776 195.278 36.7826 195.284 36.7967C195.325 36.9727 195.589 38.1314 195.704 39.7768C196.246 43.9496 196.504 47.8042 196.517 51.3539Z" stroke="#291D18" stroke-width="3"/>
<path d="M181.099 70.683C183.109 75.5768 181.139 82.2497 176.34 84.8006C171.55 87.3713 165.889 85.0444 163.993 80.416C162.084 75.7679 164.573 70.3583 169.253 67.5212C173.943 64.7039 179.086 65.7666 181.099 70.683Z" fill="#291D18" fill-opacity="0.32"/>
<path d="M188.386 64.8711C189.441 67.4465 192.04 67.9323 194.054 65.7588C196.072 63.591 196.713 59.5321 195.628 56.8852C194.54 54.2326 192.161 54.0528 190.172 56.2931C188.186 58.5372 187.327 62.2901 188.386 64.8711Z" fill="#291D18" fill-opacity="0.32"/>
<path d="M143.56 83.9619C143.322 86.5656 145.883 89.2599 149.236 89.7293C152.591 90.2058 155.466 88.2174 155.709 85.5407C155.952 82.8577 153.467 80.5599 150.105 80.1562C146.744 79.7575 143.796 81.3512 143.56 83.9619Z" fill="#291D18" fill-opacity="0.32"/>
<path d="M195 100.207C205.5 92.207 214.7 78.007 213.5 55.207" stroke="#291D18" stroke-width="4" stroke-linecap="round"/>
<path d="M195.728 41.4766C194.884 41.4766 194.156 40.8468 194.049 39.9921C193.937 39.096 193.802 38.1368 193.635 37.06C193.496 36.1601 194.094 35.312 194.988 35.1388C195.88 34.9665 196.752 35.5313 196.959 36.419C197.037 36.755 197.301 37.9815 197.419 39.6636C197.483 40.5795 196.807 41.3787 195.894 41.4681C195.838 41.4737 195.783 41.4766 195.728 41.4766Z" fill="#291D18"/>
<path d="M183.197 87.4562C179.302 90.891 176.003 92.0827 175.753 92.1711C175.746 92.1777 175.739 92.1777 175.739 92.1777C189.659 77.3965 182.392 53.7012 182.392 53.7012C195.012 53.9111 196.061 44.6986 195.729 39.7869C199.346 67.5816 190.283 81.2107 183.197 87.4562Z" fill="#E5CFC7"/>
<path d="M184.569 55.3323C185.791 60.5753 188.084 74.403 181.943 86.301C181.987 86.2615 182.032 86.222 182.077 86.1824C182.077 86.1815 182.077 86.1815 182.078 86.1815C188.411 80.5996 195.256 69.9893 194.851 50.302C194.575 50.6766 194.271 51.0409 193.939 51.3911C191.727 53.718 188.581 55.0396 184.569 55.3323ZM175.74 93.8672C175.064 93.8672 174.452 93.4653 174.185 92.8459C173.916 92.2246 174.043 91.5045 174.506 91.0132C187.574 77.1384 180.841 54.4202 180.772 54.1924C180.614 53.6747 180.712 53.1118 181.039 52.6788C181.365 52.2467 181.894 51.9926 182.419 52.0039C186.508 52.0688 189.561 51.0805 191.484 49.0576C193.934 46.4794 194.226 42.653 194.04 39.8978C193.978 38.9848 194.652 38.1875 195.563 38.0981C196.474 38.0105 197.291 38.6572 197.409 39.5646C201.039 67.4553 192.293 81.6915 184.318 88.722C180.389 92.187 176.982 93.5227 176.374 93.7429C176.173 93.8239 175.957 93.8672 175.74 93.8672Z" fill="#291D18"/>
<path d="M72.4994 97.8355C64.5146 77.3078 46.3399 60.4489 38.3552 39.9212C37.8516 38.6316 36.5798 37.898 35.4549 38.3031C26.9036 41.382 18.3531 44.4608 9.80258 47.5396C8.67906 47.9439 8.06918 49.3563 8.50036 50.6717C15.358 71.6053 32.4055 88.8694 39.2631 109.803C39.6943 111.118 41.0204 111.833 42.285 111.378C51.8823 107.923 61.4797 104.466 71.0763 101.01C72.3402 100.556 73.0036 99.1243 72.4994 97.8355Z" fill="#E5CFC7"/>
<path d="M66.4994 95.8355C58.5146 75.3078 40.3399 58.4489 32.3552 37.9212C31.8516 36.6316 30.5798 35.898 29.4549 36.3031C20.9036 39.382 12.3531 42.4608 3.80258 45.5396C2.67906 45.9439 2.06918 47.3563 2.50036 48.6717C9.35799 69.6053 26.4055 86.8694 33.2631 107.803C33.6943 109.118 35.0204 109.833 36.285 109.378C45.8823 105.923 55.4797 102.466 65.0763 99.0104C66.3402 98.556 67.0036 97.1243 66.4994 95.8355Z" stroke="#291D18" stroke-width="3"/>
<path d="M44.1189 81.3591C47.9525 79.9791 49.0355 75.822 46.4846 72.0944C43.9337 68.3667 38.9014 66.412 35.1908 67.7485C31.4722 69.0874 30.3892 73.2436 32.8244 77.0132C35.2602 80.7829 40.2933 82.7367 44.1189 81.3591Z" fill="#291D18" fill-opacity="0.32"/>
<path d="M31.4708 61.2807C33.3807 60.5931 33.9501 58.4367 32.8273 56.4345C31.7016 54.433 29.346 53.3306 27.4679 54.0061C25.5913 54.6824 24.8787 56.8896 25.974 58.9024C27.0664 60.9151 29.5645 61.9667 31.4708 61.2807Z" fill="#291D18" fill-opacity="0.32"/>
<path d="M48.3302 87.6533C50.3284 86.9334 52.9256 87.9495 54.0491 89.9517C55.1748 91.9523 54.3631 94.1959 52.3323 94.9271C50.3016 95.659 47.8462 94.5921 46.7516 92.5794C45.6592 90.5659 46.3284 88.3732 48.3302 87.6533Z" fill="#291D18" fill-opacity="0.32"/>
<path d="M30.1114 37.4176C30.0304 37.4176 29.9501 37.4306 29.8734 37.458L4.22185 46.6945C4.02651 46.7647 3.86734 46.9237 3.77185 47.1408C3.66333 47.3885 3.6532 47.6742 3.74219 47.9462C7.11277 58.235 13.1399 67.8662 18.968 77.1793C24.8924 86.645 31.0172 96.4335 34.5049 107.078C34.7017 107.678 35.3159 107.982 35.9041 107.769L64.6962 97.4019C64.987 97.297 65.2156 97.0848 65.3227 96.8201C65.4073 96.6119 65.408 96.3988 65.3256 96.1882C65.3256 96.1874 65.3256 96.1866 65.3249 96.1866C61.3987 86.0922 54.8007 76.6636 48.4206 67.545C41.9399 58.2835 35.2392 48.7064 31.1807 38.2723C30.9817 37.7623 30.5296 37.4176 30.1114 37.4176ZM35.5192 110.742C34 110.742 32.5994 109.722 32.0597 108.075C28.6891 97.7853 22.662 88.155 16.8338 78.8418C10.9095 69.3753 4.78396 59.5876 1.29691 48.9429C0.962675 47.9228 1.01115 46.8301 1.4322 45.8673C1.84095 44.9335 2.54704 44.2459 3.42169 43.9312L29.074 34.6947C30.8175 34.066 32.7918 35.1297 33.5681 37.115C37.495 47.211 44.0929 56.6395 50.473 65.7582C56.953 75.0197 63.6537 84.596 67.7122 95.0285C68.0892 95.9953 68.0834 97.0557 67.6956 98.0145C67.2861 99.0257 66.4845 99.8101 65.4956 100.165L36.7042 110.533C36.31 110.674 35.9106 110.742 35.5192 110.742Z" fill="#291D18"/>
<path d="M72.4355 76.3917C72.4355 76.3917 71.1856 73.7047 68.2256 70.2734" stroke="#291D18" stroke-width="4" stroke-linecap="round"/>
</g>
<defs>
<clipPath id="clip0_5602_880">
<rect width="216" height="125.2" fill="white"/>
</clipPath>
</defs>
</svg>
