<svg width="216" height="123" viewBox="0 0 216 123" fill="none" xmlns="http://www.w3.org/2000/svg">
<g clip-path="url(#clip0_5560_4370)">
<path d="M115.621 6.19862C100.331 18.5145 83.7633 16.3377 77.3906 13.7098L81.3549 30.7189C99.3598 37.9079 114.055 28.4451 119.152 22.8151L115.621 6.19862Z" fill="#C2E1DF"/>
<path opacity="0.6" d="M101.932 20.7275C102.413 22.985 100.952 25.505 98.5799 26.0054C96.2093 26.515 93.8486 24.8085 93.3689 22.5506C92.8853 20.2839 94.4649 18.3218 96.8355 17.8126C99.208 17.3123 101.45 18.4604 101.932 20.7275Z" fill="#004A47"/>
<path opacity="0.6" d="M89.3173 22.8009C89.5671 23.9713 88.7454 24.8975 87.483 24.7705C86.2206 24.646 84.9988 23.5145 84.7493 22.3441C84.4997 21.1711 85.3171 20.4022 86.5794 20.5267C87.8418 20.6542 89.0678 21.6279 89.3173 22.8009Z" fill="#004A47"/>
<path opacity="0.6" d="M105.733 19.3081C105.982 20.479 107.11 20.9899 108.211 20.3598C109.313 19.7314 109.968 18.2008 109.719 17.0303C109.469 15.8569 108.409 15.4877 107.307 16.1161C106.206 16.7461 105.483 18.1352 105.733 19.3081Z" fill="#004A47"/>
<path d="M111.592 3.06445C95.867 14.8187 79.3889 12.0434 73.1155 9.18643L76.4613 26.328C94.1941 34.1641 109.222 25.2396 114.52 19.7979L111.592 3.06445Z" stroke="#004A47" stroke-width="3"/>
<path d="M125.383 66.6821C159.128 67.7245 181.971 37.3111 189.174 21.974L196.415 37.3286C209.648 90.7171 163.861 100.433 139.313 98.6173L125.383 66.6821Z" fill="#C2E1DF"/>
<path d="M116.75 61.5798C150.425 63.9851 174.478 34.5197 182.295 19.4863L188.91 35.121C199.975 89.0006 153.832 96.8581 129.378 94.0518L116.75 61.5798Z" stroke="#004A47" stroke-width="5"/>
<path opacity="0.6" d="M176.218 66.6481C178.076 71.1717 176.255 77.3396 171.819 79.6976C167.391 82.0737 162.159 79.9229 160.406 75.6447C158.642 71.3483 160.942 66.348 165.268 63.7256C169.603 61.1214 174.357 62.1037 176.218 66.6481Z" fill="#004A47"/>
<path d="M182.953 61.2786C183.929 63.6591 186.331 64.1081 188.193 62.0991C190.058 60.0953 190.651 56.3435 189.648 53.8969C188.642 51.445 186.443 51.2788 184.605 53.3496C182.769 55.4239 181.975 58.8928 182.953 61.2786Z" fill="#291D18" fill-opacity="0.32"/>
<path opacity="0.6" d="M141.519 78.9217C141.3 81.3284 143.667 83.8188 146.766 84.2527C149.867 84.6931 152.525 82.8552 152.749 80.3809C152.974 77.901 150.677 75.777 147.569 75.4039C144.463 75.0354 141.738 76.5084 141.519 78.9217Z" fill="#004A47"/>
<path d="M178.158 82.1513C174.557 85.3262 171.508 86.4277 171.276 86.5095C171.27 86.5156 171.264 86.5156 171.264 86.5156C184.131 72.8528 177.413 50.9503 177.413 50.9503C189.078 51.1444 190.048 42.6289 189.741 38.0889C193.085 63.7805 184.707 76.3784 178.158 82.1513Z" fill="#C2E1DF"/>
<path d="M179.425 52.4609C180.555 57.3072 182.674 70.0886 176.998 81.0864C177.039 81.0499 177.081 81.0133 177.122 80.9768C177.122 80.9759 177.122 80.9759 177.123 80.9759C182.977 75.8163 189.304 66.0088 188.929 47.8112C188.674 48.1575 188.393 48.4942 188.086 48.8178C186.041 50.9687 183.134 52.1903 179.425 52.4609ZM171.264 88.0801C170.639 88.0801 170.074 87.7086 169.827 87.136C169.579 86.5618 169.696 85.8962 170.124 85.442C182.203 72.6171 175.98 51.6177 175.915 51.4072C175.769 50.9286 175.861 50.4083 176.163 50.0081C176.464 49.6087 176.953 49.3738 177.438 49.3843C181.218 49.4443 184.039 48.5307 185.817 46.6609C188.082 44.2778 188.351 40.7409 188.18 38.1942C188.123 37.3502 188.746 36.6133 189.588 36.5306C190.429 36.4497 191.184 37.0474 191.294 37.8862C194.649 63.6666 186.565 76.8256 179.193 83.3242C175.561 86.527 172.413 87.7616 171.85 87.9652C171.664 88.0401 171.465 88.0801 171.264 88.0801Z" fill="#004A47"/>
<path d="M177.485 50.7552C182.777 70.479 175.28 83.0268 170.87 86.8353C191.075 77.695 191.316 51.9579 189.511 38.7285C188.309 50.1539 181.494 51.3565 177.485 50.7552Z" stroke="#004A47" stroke-width="5"/>
<path d="M25.958 75.4285C18.0021 64.2902 12.9624 50.9176 11.1528 45.8181L40.2697 34.9609C43.2308 42.0345 51.3785 57.4784 57.5424 65.0648C63.958 72.9609 72.5121 88.7531 75.8022 96.1557L43.2308 108C43.2308 106.519 35.8282 89.2467 25.958 75.4285Z" fill="#C2E1DF"/>
<path d="M18.5552 72.4675C10.5993 61.3293 5.55952 47.9567 3.75 42.8571L32.8669 32C35.8279 39.0736 43.9756 54.5174 50.1396 62.1039C56.5552 70 65.1093 85.7922 68.3994 93.1948L35.8279 105.039C35.3344 103.558 28.4253 86.2857 18.5552 72.4675Z" stroke="#004A47" stroke-width="4"/>
<path opacity="0.6" d="M44.9653 77.0601C48.7491 75.698 49.8181 71.595 47.3003 67.9157C44.7825 64.2365 39.8155 62.3072 36.1531 63.6263C32.4829 64.9478 31.4139 69.05 33.8174 72.7707C36.2217 76.4914 41.1894 78.4199 44.9653 77.0601Z" fill="#004A47"/>
<path opacity="0.6" d="M32.4816 57.2405C34.3667 56.5618 34.9286 54.4334 33.8204 52.4572C32.7094 50.4817 30.3844 49.3936 28.5307 50.0603C26.6784 50.7279 25.9751 52.9064 27.0562 54.893C28.1344 56.8796 30.6 57.9175 32.4816 57.2405Z" fill="#004A47"/>
<path opacity="0.6" d="M49.1218 83.2703C51.094 82.5598 53.6575 83.5626 54.7664 85.5388C55.8775 87.5135 55.0763 89.7279 53.0719 90.4496C51.0676 91.1721 48.6441 90.119 47.5637 88.1324C46.4855 86.145 47.146 83.9808 49.1218 83.2703Z" fill="#004A47"/>
<path d="M70.0155 64.9994C71.4366 66.5985 74.1333 69.9493 75.1443 71.7148" stroke="#111111" stroke-width="4" stroke-linecap="square"/>
<path d="M4.49993 79.0156C8.67354 83.8687 11.7173 88.6333 13.8977 93.1939" stroke="#111111" stroke-width="4" stroke-linecap="square"/>
<path d="M134.663 111.326C141.174 111.985 146.933 111.728 152.002 110.861M163.162 107.64C162.235 108.03 161.273 108.399 160.276 108.745" stroke="#111111" stroke-width="4" stroke-linecap="square"/>
<path d="M162.416 20.0461C160 26.5 156 33 146.118 36.6869" stroke="#111111" stroke-width="4" stroke-linecap="square"/>
<path d="M103.757 41.332C96.2665 45.1806 87.1603 48.0721 74.8241 42.6763" stroke="#111111" stroke-width="4" stroke-linecap="square"/>
<path d="M58.1179 33.6253C58.1179 33.6253 61.4845 34.5073 65.7827 37.3359" stroke="#111111" stroke-width="4" stroke-linecap="square"/>
<path d="M194.5 97.207C205 89.207 214.2 75.007 213 52.207" stroke="#111111" stroke-width="4" stroke-linecap="square"/>
</g>
<defs>
<clipPath id="clip0_5560_4370">
<rect width="215" height="122.201" fill="white" transform="translate(0.5)"/>
</clipPath>
</defs>
</svg>
