<svg width="150" height="133" viewBox="0 0 150 133" fill="none" xmlns="http://www.w3.org/2000/svg">
<g clip-path="url(#clip0_3879_42918)">
<path d="M14.3696 37.7305H139.217C143.636 37.7305 147.217 41.3122 147.217 45.7305V121.52C147.217 125.939 143.636 129.52 139.217 129.52H14.3696" stroke="#B3B3B3" stroke-width="4"/>
<path d="M130.783 69.0734V45.7305C130.783 41.3122 127.201 37.7305 122.783 37.7305H11.413C6.99476 37.7305 3.41304 41.3122 3.41304 45.7305V121.52C3.41304 125.939 6.99476 129.52 11.413 129.52H122.783C127.201 129.52 130.783 125.939 130.783 121.52V98.1775" stroke="#B3B3B3" stroke-width="4"/>
<path d="M112 83.5C112 78.8056 115.806 75 120.5 75H146V92H120.5C115.806 92 112 88.1944 112 83.5Z" stroke="#B3B3B3" stroke-width="4"/>
<ellipse cx="120.511" cy="83.6253" rx="2.05435" ry="2.055" fill="#B3B3B3"/>
<path d="M61.4825 75.3887C61.4825 80.9877 56.9828 85.5267 51.432 85.5267C45.8813 85.5267 41.3815 80.9877 41.3815 75.3887" stroke="#ECECEC" stroke-width="4"/>
<path d="M98.3344 75.3887C98.3344 80.9877 93.8346 85.5267 88.2839 85.5267C82.7332 85.5267 78.2334 80.9877 78.2334 75.3887" stroke="#ECECEC" stroke-width="4"/>
<path d="M57.3738 71.2793C57.3738 76.8784 52.8741 81.4173 47.3233 81.4173C41.7726 81.4173 37.2728 76.8784 37.2728 71.2793" stroke="#00807B" stroke-width="4"/>
<path d="M94.2257 71.2793C94.2257 76.8784 89.7259 81.4173 84.1752 81.4173C78.6244 81.4173 74.1247 76.8784 74.1247 71.2793" stroke="#00807B" stroke-width="4"/>
<ellipse cx="68.6992" cy="96.2292" rx="5.02525" ry="5.069" fill="#ECECEC"/>
<path d="M70.2745 93.2448C70.2745 95.7723 68.2444 97.8138 65.7492 97.8138C63.2541 97.8138 61.224 95.7723 61.224 93.2448C61.224 90.7173 63.2541 88.6758 65.7492 88.6758C68.2444 88.6758 70.2745 90.7173 70.2745 93.2448Z" fill="#00807B" stroke="#00807B"/>
</g>
<path d="M56.8261 16.7236V13.8452L62.7552 5.02274V4.95253H57.4022L57.6422 0.740234H69.2844V3.78245L63.5713 12.4645V12.5113H69.3804L69.1644 16.7236H56.8261Z" fill="#00807B"/>
<path d="M69.1522 29.0533V27.4085L72.9252 22.3671V22.327H69.5188L69.6715 19.9199H77.0802V21.6583L73.4446 26.6195V26.6462H77.1413L77.0038 29.0533H69.1522Z" fill="#00807B"/>
<defs>
<clipPath id="clip0_3879_42918">
<rect width="149.283" height="97.27" fill="white" transform="translate(0.673912 34.9902)"/>
</clipPath>
</defs>
</svg>
