<svg xmlns="http://www.w3.org/2000/svg" width="24" height="24" fill="none"><path fill="#291D18" d="M13.263 2.573a3 3 0 0 0-2.526 0c-.572.265-.968.756-1.298 1.265-.332.51-.693 1.198-1.133 2.032l-4.745 9.017c-.388.737-.712 1.352-.922 1.86-.214.516-.377 1.067-.3 1.648a3 3 0 0 0 1.239 2.053c.478.338 1.042.45 1.598.502.548.05 1.242.05 2.076.05h9.496c.834 0 1.528 0 2.076-.05.556-.051 1.12-.164 1.598-.502a3 3 0 0 0 1.24-2.053c.076-.58-.087-1.132-.3-1.648-.212-.508-.535-1.123-.923-1.86L15.693 5.87c-.439-.834-.8-1.521-1.132-2.032-.33-.51-.726-1-1.298-1.265M12 14.7a1.3 1.3 0 0 1 1.3 1.3v.001a1.3 1.3 0 0 1-2.6 0V16a1.3 1.3 0 0 1 1.3-1.3M13 9v3.5a1 1 0 1 1-2 0V9a1 1 0 1 1 2 0"/></svg>