<svg xmlns="http://www.w3.org/2000/svg" width="24" height="24" fill="none"><path fill="#291D18" d="M18.93 8A7.001 7.001 0 0 0 5.07 8H5l-.174.005C3.272 8.087 2 9.27 2 10.778v4.444l.005.166C2.098 16.87 3.426 18 5 18h.18c.343 1.188 1.12 2.166 2.317 2.864a1 1 0 1 0 1.007-1.728c-1.134-.661-1.616-1.62-1.507-3.04L7 9l.005-.217A5 5 0 0 1 17 9.03v7.942a1 1 0 0 0 .005.133l.002.031a1 1 0 0 0 1.187.865H19c1.574 0 2.902-1.13 2.995-2.612l.005-.166v-4.444c0-1.507-1.272-2.69-2.826-2.773L19 8zm.07 2c.533 0 .934.32.993.686l.007.092v4.444c0 .37-.36.72-.87.771L19 16zM5 10v6l-.13-.007c-.51-.051-.87-.4-.87-.77v-4.445l.007-.092C4.066 10.32 4.468 10 5 10"/><path fill="#291D18" d="M11.5 21a1 1 0 1 0-2 0 1 1 0 0 0 2 0"/></svg>