<svg xmlns="http://www.w3.org/2000/svg" width="24" height="24" fill="none"><path fill="#291D18" d="M11.734 3.622c-2.325-2.158-5.899-2.176-8.092.025-2.25 2.258-2.174 5.972.144 8.297l.228.224a2.1 2.1 0 0 0 .034 2.93 2.08 2.08 0 0 0 1.477.613 2.093 2.093 0 0 0 2.09 2.097 2.093 2.093 0 0 0 2.089 2.096c0 .536.204 1.073.612 1.482a2.084 2.084 0 0 0 2.954 0l.739-.741c.305-.306.496-.683.573-1.078.968-.146 1.593-.716 1.83-1.547q.066-.229.088-.457c.974-.086 1.624-.667 1.882-1.646.677.148 1.374-.1 1.99-.748l.114-.126c.783-.929.552-1.974-.456-2.988l-.106-.103.437-.438.16-.169a5.61 5.61 0 0 0-.16-7.758c-2.103-2.11-5.606-1.756-7.894.54l-.111.111-.445-.446zm3.21 13.526.003.02c.007.145-.005.292-.041.42-.073.254-.225.399-.62.435a2.08 2.08 0 0 0-1.754-.957 2.093 2.093 0 0 0-2.09-2.096 2.093 2.093 0 0 0-2.089-2.096c0-.536-.204-1.073-.612-1.482a2.085 2.085 0 0 0-2.515-.338l-.286-.28-.153-.162c-1.534-1.696-1.537-4.254.01-5.806 1.596-1.602 4.262-1.547 5.953.15l.442.443-2.384 2.378-.116.156c-.657.937-.617 1.859.139 2.556l.121.103c.818.645 1.834.394 2.87-.507l1.852-1.95 4.542 4.434.072.063.317.241c.783.625.878.955.636 1.21-.384.402-.568.403-.956 0l-.026-.025-4.053-4.05-.08-.07a.78.78 0 0 0-1.028.073.79.79 0 0 0 .002 1.112l3.843 3.837c-.001.864-.242 1.118-.919 1.032l-.019-.004-3.996-4.014a.78.78 0 0 0-1.108 0 .79.79 0 0 0 0 1.111zM19.254 4.7l.142.15a4.034 4.034 0 0 1-.142 5.553l-.498.499L14.2 6.454l-.082-.07a.78.78 0 0 0-1.032.092L10.74 8.949l-.12.101c-.423.341-.626.375-.73.28-.15-.14-.15-.203.09-.513l3.594-3.577.163-.158c1.715-1.584 4.124-1.779 5.516-.383M5.967 12.443a.52.52 0 0 1 .666.06.525.525 0 0 1 0 .742l-.738.74-.073.061a.52.52 0 0 1-.666-.06.525.525 0 0 1 0-.741l.739-.741zM8.723 14.6a.525.525 0 0 1 0 .74l-.74.742-.071.06a.52.52 0 0 1-.667-.06.525.525 0 0 1 0-.741l.739-.741.072-.061a.52.52 0 0 1 .667.06m1.422 2.035a.52.52 0 0 1 .667.06.525.525 0 0 1 0 .742l-.739.741-.072.06a.52.52 0 0 1-.666-.06.525.525 0 0 1 0-.741l.738-.741zm2.756 2.157a.525.525 0 0 1 0 .741l-.739.741-.072.061a.52.52 0 0 1-.666-.06.525.525 0 0 1 0-.742l.738-.74.073-.061a.52.52 0 0 1 .666.06"/></svg>