<svg xmlns="http://www.w3.org/2000/svg" width="24" height="24" fill="none"><path fill="#291D18" d="M16.866 7.501c.995-1.72.316-3.527-.948-4.355-.636-.417-1.451-.606-2.276-.379a2.9 2.9 0 0 0-1.142.625 2.9 2.9 0 0 0-1.142-.625c-.825-.227-1.64-.037-2.275.38-1.265.827-1.943 2.635-.948 4.355.936 1.617 2.58 2.772 3.944 3.406a1 1 0 0 0 .843 0c1.363-.634 3.008-1.79 3.944-3.407m-3.484-2.029c.293-.548.6-.724.792-.777.2-.055.428-.02.648.124.447.293.734.952.313 1.68-.58 1-1.615 1.835-2.635 2.384-1.02-.55-2.055-1.383-2.634-2.383-.422-.729-.135-1.388.313-1.68.22-.145.447-.18.647-.125.193.053.5.23.792.777a1 1 0 0 0 1.764 0m2.824 9.048 3.066-1.538a.504.504 0 0 1 .602.784c-1.473 1.676-2.859 3.245-4.335 4.406C14.078 19.322 12.614 20 11 20c-1.325 0-2.014-.665-2.911-1.53q-.194-.189-.405-.387c-.517-.485-1.197-1.056-2.125-1.23-.96-.18-1.969.099-3.089.799a1 1 0 1 0 1.06 1.696c.88-.55 1.372-.583 1.66-.53.323.061.643.271 1.126.724q.157.148.333.323C7.528 20.733 8.811 22 11 22c2.223 0 4.113-.948 5.775-2.256 1.646-1.294 3.152-3.008 4.595-4.65l.007-.008A2.5 2.5 0 0 0 22 13.432c0-1.86-1.958-3.071-3.623-2.239l-3.008 1.51A2.6 2.6 0 0 0 13.581 12H3a1 1 0 1 0 0 2h10.58a.626.626 0 0 1 .123 1.24l-3.9.78a1 1 0 0 0 .392 1.96l3.9-.78a2.626 2.626 0 0 0 2.11-2.68"/></svg>