<svg xmlns="http://www.w3.org/2000/svg" width="24" height="24" fill="none"><path fill="#291D18" d="M2.002 12c0-5.523 4.477-10 10-10s10 4.477 10 10c0 5.413-4.307 9.84-9.72 9.996l-.28.004h-9c-.91 0-1.347-1.116-.68-1.734l2.005-1.857-.146-.176a9.96 9.96 0 0 1-2.174-5.905zm18 0a8 8 0 1 0-13.566 5.746 1 1 0 0 1-.017 1.452L5.552 20h6.436l.25-.003A8 8 0 0 0 20.002 12"/><path fill="#291D18" d="M10.768 9.297C10.768 8.002 9.236 8 9.236 8s-1.531.002-1.531 1.297c0 1.296 1.531 1.298 1.531 1.298s1.532-.002 1.532-1.298m4.901.736v-1.04c0-.096-.118-.126-.118-.126a6.2 6.2 0 0 0-1.468-.217 5.8 5.8 0 0 0-1.364.14s-.113.035-.113.137v1.03c0 .19.13.138.13.138a8 8 0 0 1 1.343-.08 9 9 0 0 1 1.443.144s.147.036.147-.126m-7.993 4.389c.523.415 2.164 1.577 4.114 1.578 1.95-.001 3.589-1.163 4.113-1.578 0 0 .175-.168.175-.326v-.53c0-.265-.199-.122-.199-.122-.53.338-2.08 1.2-4.09 1.2s-3.559-.862-4.09-1.2c0 0-.198-.143-.198.122v.53c0 .158.175.326.175.326"/></svg>