<?xml version="1.0" encoding="UTF-8"?>
<svg width="343px" height="344px" viewBox="0 0 343 344" version="1.1" xmlns="http://www.w3.org/2000/svg" xmlns:xlink="http://www.w3.org/1999/xlink">
	<title>Artboard</title>
	<g id="Artboard" stroke="none" stroke-width="1" fill="none" fill-rule="evenodd">
		<g id="Illustrations/Adding5MobileNumbers/Stage1/Desktop-Copy" transform="translate(-1.000000, 0.000000)">
			<path d="M158.625,104.885135 C159.559011,104.885135 160.316176,105.640579 160.316176,106.572466 C160.316176,107.504354 159.559011,108.259798 158.625,108.259798 C157.690989,108.259798 156.933824,107.504354 156.933824,106.572466 C156.933824,105.640579 157.690989,104.885135 158.625,104.885135 Z M171.308824,35.6283784 C172.242835,35.6283784 173,36.3838223 173,37.3157096 C173,38.247597 172.242835,39.0030409 171.308824,39.0030409 C170.374813,39.0030409 169.617647,38.247597 169.617647,37.3157096 C169.617647,36.3838223 170.374813,35.6283784 171.308824,35.6283784 Z" id="Oval-Copy-14" fill="#8C8D8E"></path>
			<path d="M244.5,307 C254.717268,307 263,315.282732 263,325.5 C263,335.717268 254.717268,344 244.5,344 C234.282732,344 226,335.717268 226,325.5 C226,315.282732 234.282732,307 244.5,307 Z M228.308824,191.628378 C229.242835,191.628378 230,192.383822 230,193.31571 C230,194.247597 229.242835,195.003041 228.308824,195.003041 C227.374813,195.003041 226.617647,194.247597 226.617647,193.31571 C226.617647,192.383822 227.374813,191.628378 228.308824,191.628378 Z M113.308824,191.628378 C114.242835,191.628378 115,192.383822 115,193.31571 C115,194.247597 114.242835,195.003041 113.308824,195.003041 C112.374813,195.003041 111.617647,194.247597 111.617647,193.31571 C111.617647,192.383822 112.374813,191.628378 113.308824,191.628378 Z M343.308824,191.628378 C344.242835,191.628378 345,192.383822 345,193.31571 C345,194.247597 344.242835,195.003041 343.308824,195.003041 C342.374813,195.003041 341.617647,194.247597 341.617647,193.31571 C341.617647,192.383822 342.374813,191.628378 343.308824,191.628378 Z M273.625,104.885135 C274.559011,104.885135 275.316176,105.640579 275.316176,106.572466 C275.316176,107.504354 274.559011,108.259798 273.625,108.259798 C272.690989,108.259798 271.933824,107.504354 271.933824,106.572466 C271.933824,105.640579 272.690989,104.885135 273.625,104.885135 Z M186.529412,71.1013514 C190.265456,71.1013514 193.294118,74.1264544 193.294118,77.8581081 C193.294118,81.5897618 190.265456,84.6148649 186.529412,84.6148649 C182.793368,84.6148649 179.764706,81.5897618 179.764706,77.8581081 C179.764706,74.1264544 182.793368,71.1013514 186.529412,71.1013514 Z M174.691176,57.5878378 C175.625187,57.5878378 176.382353,58.3432818 176.382353,59.2751691 C176.382353,60.2070564 175.625187,60.9625004 174.691176,60.9625004 C173.757165,60.9625004 173,60.2070564 173,59.2751691 C173,58.3432818 173.757165,57.5878378 174.691176,57.5878378 Z M286.308824,35.6283784 L286.454745,35.6345719 C287.320439,35.7083876 288,36.432869 288,37.3157096 C288,38.247597 287.242835,39.0030409 286.308824,39.0030409 L286.308824,39.0030409 C285.374813,39.0030409 284.617647,38.247597 284.617647,37.3157096 C284.617647,36.3838223 285.374813,35.6283784 286.308824,35.6283784 Z M171.308824,35.6283784 C172.242835,35.6283784 173,36.3838223 173,37.3157096 C173,38.247597 172.242835,39.0030409 171.308824,39.0030409 C170.374813,39.0030409 169.617647,38.247597 169.617647,37.3157096 C169.617647,36.3838223 170.374813,35.6283784 171.308824,35.6283784 Z" id="Combined-Shape" fill="#F2F2F2"></path>
			<path d="M59.6390251,249.821918 C60.5628738,249.821918 61.458355,250.028112 62.2733042,250.419802 C62.5221917,250.539425 62.6269814,250.838161 62.5073586,251.087049 C62.3877357,251.335936 62.0889991,251.440726 61.8401116,251.321103 C61.1596307,250.994043 60.412108,250.821918 59.6390251,250.821918 C56.8344064,250.821918 54.5612745,253.089881 54.5612745,255.886986 C54.5612745,258.684091 56.8344064,260.952055 59.6390251,260.952055 C62.4436437,260.952055 64.7167756,258.684091 64.7167756,255.886986 C64.7167756,254.844899 64.4011549,253.851197 63.8204567,253.012452 C63.6632684,252.785414 63.7198931,252.473936 63.9469316,252.316748 C64.17397,252.15956 64.4854473,252.216185 64.6426356,252.443223 C65.3381917,253.447865 65.7167756,254.639802 65.7167756,255.886986 C65.7167756,259.236886 62.9954195,261.952055 59.6390251,261.952055 C56.2826306,261.952055 53.5612745,259.236886 53.5612745,255.886986 C53.5612745,252.537086 56.2826306,249.821918 59.6390251,249.821918 Z M289.639025,249.821918 C290.562874,249.821918 291.458355,250.028112 292.273304,250.419802 C292.522192,250.539425 292.626981,250.838161 292.507359,251.087049 C292.387736,251.335936 292.088999,251.440726 291.840112,251.321103 C291.159631,250.994043 290.412108,250.821918 289.639025,250.821918 C286.834406,250.821918 284.561275,253.089881 284.561275,255.886986 C284.561275,258.684091 286.834406,260.952055 289.639025,260.952055 C292.443644,260.952055 294.716776,258.684091 294.716776,255.886986 C294.716776,254.844899 294.401155,253.851197 293.820457,253.012452 C293.663268,252.785414 293.719893,252.473936 293.946932,252.316748 C294.17397,252.15956 294.485447,252.216185 294.642636,252.443223 C295.338192,253.447865 295.716776,254.639802 295.716776,255.886986 C295.716776,259.236886 292.99542,261.952055 289.639025,261.952055 C286.282631,261.952055 283.561275,259.236886 283.561275,255.886986 C283.561275,252.537086 286.282631,249.821918 289.639025,249.821918 Z M174.639025,249.821918 C175.562874,249.821918 176.458355,250.028112 177.273304,250.419802 C177.522192,250.539425 177.626981,250.838161 177.507359,251.087049 C177.387736,251.335936 177.088999,251.440726 176.840112,251.321103 C176.159631,250.994043 175.412108,250.821918 174.639025,250.821918 C171.834406,250.821918 169.561275,253.089881 169.561275,255.886986 C169.561275,258.684091 171.834406,260.952055 174.639025,260.952055 C177.443644,260.952055 179.716776,258.684091 179.716776,255.886986 C179.716776,254.844899 179.401155,253.851197 178.820457,253.012452 C178.663268,252.785414 178.719893,252.473936 178.946932,252.316748 C179.17397,252.15956 179.485447,252.216185 179.642636,252.443223 C180.338192,253.447865 180.716776,254.639802 180.716776,255.886986 C180.716776,259.236886 177.99542,261.952055 174.639025,261.952055 C171.282631,261.952055 168.561275,259.236886 168.561275,255.886986 C168.561275,252.537086 171.282631,249.821918 174.639025,249.821918 Z M174.639025,236.123288 C177.99542,236.123288 180.716776,238.838456 180.716776,242.188356 C180.716776,245.538256 177.99542,248.253425 174.639025,248.253425 C171.282631,248.253425 168.561275,245.538256 168.561275,242.188356 C168.561275,238.838456 171.282631,236.123288 174.639025,236.123288 Z M289.639025,236.123288 C292.99542,236.123288 295.716776,238.838456 295.716776,242.188356 C295.716776,245.538256 292.99542,248.253425 289.639025,248.253425 C286.282631,248.253425 283.561275,245.538256 283.561275,242.188356 C283.561275,238.838456 286.282631,236.123288 289.639025,236.123288 Z M59.6390251,236.123288 C62.9954195,236.123288 65.7167756,238.838456 65.7167756,242.188356 C65.7167756,245.538256 62.9954195,248.253425 59.6390251,248.253425 C56.2826306,248.253425 53.5612745,245.538256 53.5612745,242.188356 C53.5612745,238.838456 56.2826306,236.123288 59.6390251,236.123288 Z M59.6390251,237.123288 C56.8344064,237.123288 54.5612745,239.391251 54.5612745,242.188356 C54.5612745,244.985461 56.8344064,247.253425 59.6390251,247.253425 C62.4436437,247.253425 64.7167756,244.985461 64.7167756,242.188356 C64.7167756,239.391251 62.4436437,237.123288 59.6390251,237.123288 Z M174.639025,237.123288 C171.834406,237.123288 169.561275,239.391251 169.561275,242.188356 C169.561275,244.985461 171.834406,247.253425 174.639025,247.253425 C177.443644,247.253425 179.716776,244.985461 179.716776,242.188356 C179.716776,239.391251 177.443644,237.123288 174.639025,237.123288 Z M289.639025,237.123288 C286.834406,237.123288 284.561275,239.391251 284.561275,242.188356 C284.561275,244.985461 286.834406,247.253425 289.639025,247.253425 C292.443644,247.253425 294.716776,244.985461 294.716776,242.188356 C294.716776,239.391251 292.443644,237.123288 289.639025,237.123288 Z M289.639025,222.424658 C290.562874,222.424658 291.458355,222.630852 292.273304,223.022541 C292.522192,223.142164 292.626981,223.440901 292.507359,223.689788 C292.387736,223.938676 292.088999,224.043466 291.840112,223.923843 C291.159631,223.596783 290.412108,223.424658 289.639025,223.424658 C286.834406,223.424658 284.561275,225.692621 284.561275,228.489726 C284.561275,231.286831 286.834406,233.554795 289.639025,233.554795 C292.443644,233.554795 294.716776,231.286831 294.716776,228.489726 C294.716776,227.447639 294.401155,226.453937 293.820457,225.615192 C293.663268,225.388153 293.719893,225.076676 293.946932,224.919488 C294.17397,224.7623 294.485447,224.818924 294.642636,225.045963 C295.338192,226.050605 295.716776,227.242541 295.716776,228.489726 C295.716776,231.839626 292.99542,234.554795 289.639025,234.554795 C286.282631,234.554795 283.561275,231.839626 283.561275,228.489726 C283.561275,225.139826 286.282631,222.424658 289.639025,222.424658 Z M306.801334,222.424658 C310.157729,222.424658 312.879085,225.139826 312.879085,228.489726 C312.879085,231.839626 310.157729,234.554795 306.801334,234.554795 C303.44494,234.554795 300.723584,231.839626 300.723584,228.489726 C300.723584,225.139826 303.44494,222.424658 306.801334,222.424658 Z M174.639025,222.424658 C175.562874,222.424658 176.458355,222.630852 177.273304,223.022541 C177.522192,223.142164 177.626981,223.440901 177.507359,223.689788 C177.387736,223.938676 177.088999,224.043466 176.840112,223.923843 C176.159631,223.596783 175.412108,223.424658 174.639025,223.424658 C171.834406,223.424658 169.561275,225.692621 169.561275,228.489726 C169.561275,231.286831 171.834406,233.554795 174.639025,233.554795 C177.443644,233.554795 179.716776,231.286831 179.716776,228.489726 C179.716776,227.447639 179.401155,226.453937 178.820457,225.615192 C178.663268,225.388153 178.719893,225.076676 178.946932,224.919488 C179.17397,224.7623 179.485447,224.818924 179.642636,225.045963 C180.338192,226.050605 180.716776,227.242541 180.716776,228.489726 C180.716776,231.839626 177.99542,234.554795 174.639025,234.554795 C171.282631,234.554795 168.561275,231.839626 168.561275,228.489726 C168.561275,225.139826 171.282631,222.424658 174.639025,222.424658 Z M191.801334,222.424658 C195.157729,222.424658 197.879085,225.139826 197.879085,228.489726 C197.879085,231.839626 195.157729,234.554795 191.801334,234.554795 C188.44494,234.554795 185.723584,231.839626 185.723584,228.489726 C185.723584,225.139826 188.44494,222.424658 191.801334,222.424658 Z M157.476716,222.424658 C160.83311,222.424658 163.554466,225.139826 163.554466,228.489726 C163.554466,231.839626 160.83311,234.554795 157.476716,234.554795 C154.120321,234.554795 151.398965,231.839626 151.398965,228.489726 C151.398965,225.139826 154.120321,222.424658 157.476716,222.424658 Z M42.4767157,222.424658 C45.8331102,222.424658 48.5544662,225.139826 48.5544662,228.489726 C48.5544662,231.839626 45.8331102,234.554795 42.4767157,234.554795 C39.1203212,234.554795 36.3989651,231.839626 36.3989651,228.489726 C36.3989651,225.139826 39.1203212,222.424658 42.4767157,222.424658 Z M76.8013344,222.424658 C80.1577289,222.424658 82.879085,225.139826 82.879085,228.489726 C82.879085,231.839626 80.1577289,234.554795 76.8013344,234.554795 C73.4449399,234.554795 70.7235839,231.839626 70.7235839,228.489726 C70.7235839,225.139826 73.4449399,222.424658 76.8013344,222.424658 Z M272.476716,222.424658 C275.83311,222.424658 278.554466,225.139826 278.554466,228.489726 C278.554466,231.839626 275.83311,234.554795 272.476716,234.554795 C269.120321,234.554795 266.398965,231.839626 266.398965,228.489726 C266.398965,225.139826 269.120321,222.424658 272.476716,222.424658 Z M59.6390251,222.424658 C60.5628738,222.424658 61.458355,222.630852 62.2733042,223.022541 C62.5221917,223.142164 62.6269814,223.440901 62.5073586,223.689788 C62.3877357,223.938676 62.0889991,224.043466 61.8401116,223.923843 C61.1596307,223.596783 60.412108,223.424658 59.6390251,223.424658 C56.8344064,223.424658 54.5612745,225.692621 54.5612745,228.489726 C54.5612745,231.286831 56.8344064,233.554795 59.6390251,233.554795 C62.4436437,233.554795 64.7167756,231.286831 64.7167756,228.489726 C64.7167756,227.447639 64.4011549,226.453937 63.8204567,225.615192 C63.6632684,225.388153 63.7198931,225.076676 63.9469316,224.919488 C64.17397,224.7623 64.4854473,224.818924 64.6426356,225.045963 C65.3381917,226.050605 65.7167756,227.242541 65.7167756,228.489726 C65.7167756,231.839626 62.9954195,234.554795 59.6390251,234.554795 C56.2826306,234.554795 53.5612745,231.839626 53.5612745,228.489726 C53.5612745,225.139826 56.2826306,222.424658 59.6390251,222.424658 Z M191.801334,223.424658 C188.996716,223.424658 186.723584,225.692621 186.723584,228.489726 C186.723584,231.286831 188.996716,233.554795 191.801334,233.554795 C194.605953,233.554795 196.879085,231.286831 196.879085,228.489726 C196.879085,225.692621 194.605953,223.424658 191.801334,223.424658 Z M157.476716,223.424658 C154.672097,223.424658 152.398965,225.692621 152.398965,228.489726 C152.398965,231.286831 154.672097,233.554795 157.476716,233.554795 C160.281334,233.554795 162.554466,231.286831 162.554466,228.489726 C162.554466,225.692621 160.281334,223.424658 157.476716,223.424658 Z M42.4767157,223.424658 C39.672097,223.424658 37.3989651,225.692621 37.3989651,228.489726 C37.3989651,231.286831 39.672097,233.554795 42.4767157,233.554795 C45.2813343,233.554795 47.5544662,231.286831 47.5544662,228.489726 C47.5544662,225.692621 45.2813343,223.424658 42.4767157,223.424658 Z M76.8013344,223.424658 C73.9967158,223.424658 71.7235839,225.692621 71.7235839,228.489726 C71.7235839,231.286831 73.9967158,233.554795 76.8013344,233.554795 C79.6059531,233.554795 81.879085,231.286831 81.879085,228.489726 C81.879085,225.692621 79.6059531,223.424658 76.8013344,223.424658 Z M272.476716,223.424658 C269.672097,223.424658 267.398965,225.692621 267.398965,228.489726 C267.398965,231.286831 269.672097,233.554795 272.476716,233.554795 C275.281334,233.554795 277.554466,231.286831 277.554466,228.489726 C277.554466,225.692621 275.281334,223.424658 272.476716,223.424658 Z M306.801334,223.424658 C303.996716,223.424658 301.723584,225.692621 301.723584,228.489726 C301.723584,231.286831 303.996716,233.554795 306.801334,233.554795 C309.605953,233.554795 311.879085,231.286831 311.879085,228.489726 C311.879085,225.692621 309.605953,223.424658 306.801334,223.424658 Z M174.639025,208.726027 C177.99542,208.726027 180.716776,211.441196 180.716776,214.791096 C180.716776,218.140996 177.99542,220.856164 174.639025,220.856164 C171.282631,220.856164 168.561275,218.140996 168.561275,214.791096 C168.561275,213.816488 168.792227,212.873875 169.228816,212.025057 C170.261945,210.016446 172.335599,208.726027 174.639025,208.726027 Z M272.476716,208.726027 C273.400564,208.726027 274.296046,208.932222 275.110995,209.323911 C275.359882,209.443534 275.464672,209.742271 275.345049,209.991158 C275.225426,210.240046 274.92669,210.344835 274.677802,210.225213 C273.997321,209.898153 273.249799,209.726027 272.476716,209.726027 C269.672097,209.726027 267.398965,211.993991 267.398965,214.791096 C267.398965,217.588201 269.672097,219.856164 272.476716,219.856164 C275.281334,219.856164 277.554466,217.588201 277.554466,214.791096 C277.554466,213.749009 277.238846,212.755306 276.658147,211.916562 C276.500959,211.689523 276.557584,211.378046 276.784622,211.220858 C277.011661,211.063669 277.323138,211.120294 277.480326,211.347333 C278.175882,212.351975 278.554466,213.543911 278.554466,214.791096 C278.554466,218.140996 275.83311,220.856164 272.476716,220.856164 C269.120321,220.856164 266.398965,218.140996 266.398965,214.791096 C266.398965,211.441196 269.120321,208.726027 272.476716,208.726027 Z M306.801334,208.726027 C310.157729,208.726027 312.879085,211.441196 312.879085,214.791096 C312.879085,218.140996 310.157729,220.856164 306.801334,220.856164 C303.44494,220.856164 300.723584,218.140996 300.723584,214.791096 C300.723584,211.441196 303.44494,208.726027 306.801334,208.726027 Z M289.639025,208.726027 C292.99542,208.726027 295.716776,211.441196 295.716776,214.791096 C295.716776,218.140996 292.99542,220.856164 289.639025,220.856164 C286.282631,220.856164 283.561275,218.140996 283.561275,214.791096 C283.561275,213.816488 283.792227,212.873875 284.228816,212.025057 C285.261945,210.016446 287.335599,208.726027 289.639025,208.726027 Z M191.801334,208.726027 C195.157729,208.726027 197.879085,211.441196 197.879085,214.791096 C197.879085,218.140996 195.157729,220.856164 191.801334,220.856164 C188.44494,220.856164 185.723584,218.140996 185.723584,214.791096 C185.723584,211.441196 188.44494,208.726027 191.801334,208.726027 Z M157.476716,208.726027 C158.400564,208.726027 159.296046,208.932222 160.110995,209.323911 C160.359882,209.443534 160.464672,209.742271 160.345049,209.991158 C160.225426,210.240046 159.92669,210.344835 159.677802,210.225213 C158.997321,209.898153 158.249799,209.726027 157.476716,209.726027 C154.672097,209.726027 152.398965,211.993991 152.398965,214.791096 C152.398965,217.588201 154.672097,219.856164 157.476716,219.856164 C160.281334,219.856164 162.554466,217.588201 162.554466,214.791096 C162.554466,213.749009 162.238846,212.755306 161.658147,211.916562 C161.500959,211.689523 161.557584,211.378046 161.784622,211.220858 C162.011661,211.063669 162.323138,211.120294 162.480326,211.347333 C163.175882,212.351975 163.554466,213.543911 163.554466,214.791096 C163.554466,218.140996 160.83311,220.856164 157.476716,220.856164 C154.120321,220.856164 151.398965,218.140996 151.398965,214.791096 C151.398965,211.441196 154.120321,208.726027 157.476716,208.726027 Z M42.4767157,208.726027 C43.4005644,208.726027 44.2960457,208.932222 45.1109949,209.323911 C45.3598824,209.443534 45.4646721,209.742271 45.3450492,209.991158 C45.2254264,210.240046 44.9266897,210.344835 44.6778022,210.225213 C43.9973213,209.898153 43.2497986,209.726027 42.4767157,209.726027 C39.672097,209.726027 37.3989651,211.993991 37.3989651,214.791096 C37.3989651,217.588201 39.672097,219.856164 42.4767157,219.856164 C45.2813343,219.856164 47.5544662,217.588201 47.5544662,214.791096 C47.5544662,213.749009 47.2388456,212.755306 46.6581473,211.916562 C46.500959,211.689523 46.5575838,211.378046 46.7846222,211.220858 C47.0116606,211.063669 47.323138,211.120294 47.4803262,211.347333 C48.1758823,212.351975 48.5544662,213.543911 48.5544662,214.791096 C48.5544662,218.140996 45.8331102,220.856164 42.4767157,220.856164 C39.1203212,220.856164 36.3989651,218.140996 36.3989651,214.791096 C36.3989651,211.441196 39.1203212,208.726027 42.4767157,208.726027 Z M76.8013344,208.726027 C80.1577289,208.726027 82.879085,211.441196 82.879085,214.791096 C82.879085,218.140996 80.1577289,220.856164 76.8013344,220.856164 C73.4449399,220.856164 70.7235839,218.140996 70.7235839,214.791096 C70.7235839,211.441196 73.4449399,208.726027 76.8013344,208.726027 Z M59.6390251,208.726027 C62.9954195,208.726027 65.7167756,211.441196 65.7167756,214.791096 C65.7167756,218.140996 62.9954195,220.856164 59.6390251,220.856164 C56.2826306,220.856164 53.5612745,218.140996 53.5612745,214.791096 C53.5612745,213.816488 53.7922266,212.873875 54.228816,212.025057 C55.2619453,210.016446 57.3355994,208.726027 59.6390251,208.726027 Z M174.639025,209.726027 C172.713702,209.726027 170.981368,210.804045 170.11808,212.482451 C169.753838,213.190612 169.561275,213.976543 169.561275,214.791096 C169.561275,217.588201 171.834406,219.856164 174.639025,219.856164 C177.443644,219.856164 179.716776,217.588201 179.716776,214.791096 C179.716776,211.993991 177.443644,209.726027 174.639025,209.726027 Z M306.801334,209.726027 C303.996716,209.726027 301.723584,211.993991 301.723584,214.791096 C301.723584,217.588201 303.996716,219.856164 306.801334,219.856164 C309.605953,219.856164 311.879085,217.588201 311.879085,214.791096 C311.879085,211.993991 309.605953,209.726027 306.801334,209.726027 Z M289.639025,209.726027 C287.713702,209.726027 285.981368,210.804045 285.11808,212.482451 C284.753838,213.190612 284.561275,213.976543 284.561275,214.791096 C284.561275,217.588201 286.834406,219.856164 289.639025,219.856164 C292.443644,219.856164 294.716776,217.588201 294.716776,214.791096 C294.716776,211.993991 292.443644,209.726027 289.639025,209.726027 Z M76.8013344,209.726027 C73.9967158,209.726027 71.7235839,211.993991 71.7235839,214.791096 C71.7235839,217.588201 73.9967158,219.856164 76.8013344,219.856164 C79.6059531,219.856164 81.879085,217.588201 81.879085,214.791096 C81.879085,211.993991 79.6059531,209.726027 76.8013344,209.726027 Z M59.6390251,209.726027 C57.7137021,209.726027 55.9813685,210.804045 55.1180805,212.482451 C54.7538376,213.190612 54.5612745,213.976543 54.5612745,214.791096 C54.5612745,217.588201 56.8344064,219.856164 59.6390251,219.856164 C62.4436437,219.856164 64.7167756,217.588201 64.7167756,214.791096 C64.7167756,211.993991 62.4436437,209.726027 59.6390251,209.726027 Z M191.801334,209.726027 C188.996716,209.726027 186.723584,211.993991 186.723584,214.791096 C186.723584,217.588201 188.996716,219.856164 191.801334,219.856164 C194.605953,219.856164 196.879085,217.588201 196.879085,214.791096 C196.879085,211.993991 194.605953,209.726027 191.801334,209.726027 Z M174.639025,195.027397 C177.99542,195.027397 180.716776,197.742566 180.716776,201.092466 C180.716776,204.442366 177.99542,207.157534 174.639025,207.157534 C171.282631,207.157534 168.561275,204.442366 168.561275,201.092466 C168.561275,197.742566 171.282631,195.027397 174.639025,195.027397 Z M59.6390251,195.027397 C62.9954195,195.027397 65.7167756,197.742566 65.7167756,201.092466 C65.7167756,204.442366 62.9954195,207.157534 59.6390251,207.157534 C56.2826306,207.157534 53.5612745,204.442366 53.5612745,201.092466 C53.5612745,197.742566 56.2826306,195.027397 59.6390251,195.027397 Z M42.4767157,195.027397 C45.8331102,195.027397 48.5544662,197.742566 48.5544662,201.092466 C48.5544662,204.442366 45.8331102,207.157534 42.4767157,207.157534 C39.1203212,207.157534 36.3989651,204.442366 36.3989651,201.092466 C36.3989651,197.742566 39.1203212,195.027397 42.4767157,195.027397 Z M157.476716,195.027397 C160.83311,195.027397 163.554466,197.742566 163.554466,201.092466 C163.554466,204.442366 160.83311,207.157534 157.476716,207.157534 C154.120321,207.157534 151.398965,204.442366 151.398965,201.092466 C151.398965,197.742566 154.120321,195.027397 157.476716,195.027397 Z M191.801334,195.027397 C192.725183,195.027397 193.620664,195.233592 194.435614,195.625281 C194.684501,195.744904 194.789291,196.043641 194.669668,196.292528 C194.550045,196.541416 194.251308,196.646205 194.002421,196.526582 C193.32194,196.199523 192.574417,196.027397 191.801334,196.027397 C188.996716,196.027397 186.723584,198.295361 186.723584,201.092466 C186.723584,203.889571 188.996716,206.157534 191.801334,206.157534 C194.605953,206.157534 196.879085,203.889571 196.879085,201.092466 C196.879085,200.050379 196.563464,199.056676 195.982766,198.217932 C195.825578,197.990893 195.882203,197.679416 196.109241,197.522228 C196.336279,197.365039 196.647757,197.421664 196.804945,197.648702 C197.500501,198.653345 197.879085,199.845281 197.879085,201.092466 C197.879085,204.442366 195.157729,207.157534 191.801334,207.157534 C188.44494,207.157534 185.723584,204.442366 185.723584,201.092466 C185.723584,197.742566 188.44494,195.027397 191.801334,195.027397 Z M306.801334,195.027397 C307.725183,195.027397 308.620664,195.233592 309.435614,195.625281 C309.684501,195.744904 309.789291,196.043641 309.669668,196.292528 C309.550045,196.541416 309.251308,196.646205 309.002421,196.526582 C308.32194,196.199523 307.574417,196.027397 306.801334,196.027397 C303.996716,196.027397 301.723584,198.295361 301.723584,201.092466 C301.723584,203.889571 303.996716,206.157534 306.801334,206.157534 C309.605953,206.157534 311.879085,203.889571 311.879085,201.092466 C311.879085,200.050379 311.563464,199.056676 310.982766,198.217932 C310.825578,197.990893 310.882203,197.679416 311.109241,197.522228 C311.336279,197.365039 311.647757,197.421664 311.804945,197.648702 C312.500501,198.653345 312.879085,199.845281 312.879085,201.092466 C312.879085,204.442366 310.157729,207.157534 306.801334,207.157534 C303.44494,207.157534 300.723584,204.442366 300.723584,201.092466 C300.723584,197.742566 303.44494,195.027397 306.801334,195.027397 Z M272.476716,195.027397 C275.83311,195.027397 278.554466,197.742566 278.554466,201.092466 C278.554466,204.442366 275.83311,207.157534 272.476716,207.157534 C269.120321,207.157534 266.398965,204.442366 266.398965,201.092466 C266.398965,197.742566 269.120321,195.027397 272.476716,195.027397 Z M289.639025,195.027397 C292.99542,195.027397 295.716776,197.742566 295.716776,201.092466 C295.716776,204.442366 292.99542,207.157534 289.639025,207.157534 C286.282631,207.157534 283.561275,204.442366 283.561275,201.092466 C283.561275,197.742566 286.282631,195.027397 289.639025,195.027397 Z M76.8013344,195.027397 C77.7251832,195.027397 78.6206644,195.233592 79.4356136,195.625281 C79.6845011,195.744904 79.7892908,196.043641 79.669668,196.292528 C79.5500451,196.541416 79.2513085,196.646205 79.002421,196.526582 C78.3219401,196.199523 77.5744174,196.027397 76.8013344,196.027397 C73.9967158,196.027397 71.7235839,198.295361 71.7235839,201.092466 C71.7235839,203.889571 73.9967158,206.157534 76.8013344,206.157534 C79.6059531,206.157534 81.879085,203.889571 81.879085,201.092466 C81.879085,200.050379 81.5634643,199.056676 80.982766,198.217932 C80.8255778,197.990893 80.8822025,197.679416 81.1092409,197.522228 C81.3362794,197.365039 81.6477567,197.421664 81.804945,197.648702 C82.5005011,198.653345 82.879085,199.845281 82.879085,201.092466 C82.879085,204.442366 80.1577289,207.157534 76.8013344,207.157534 C73.4449399,207.157534 70.7235839,204.442366 70.7235839,201.092466 C70.7235839,197.742566 73.4449399,195.027397 76.8013344,195.027397 Z M272.476716,196.027397 C269.672097,196.027397 267.398965,198.295361 267.398965,201.092466 C267.398965,203.889571 269.672097,206.157534 272.476716,206.157534 C275.281334,206.157534 277.554466,203.889571 277.554466,201.092466 C277.554466,198.295361 275.281334,196.027397 272.476716,196.027397 Z M289.639025,196.027397 C286.834406,196.027397 284.561275,198.295361 284.561275,201.092466 C284.561275,203.889571 286.834406,206.157534 289.639025,206.157534 C292.443644,206.157534 294.716776,203.889571 294.716776,201.092466 C294.716776,198.295361 292.443644,196.027397 289.639025,196.027397 Z M59.6390251,196.027397 C56.8344064,196.027397 54.5612745,198.295361 54.5612745,201.092466 C54.5612745,203.889571 56.8344064,206.157534 59.6390251,206.157534 C62.4436437,206.157534 64.7167756,203.889571 64.7167756,201.092466 C64.7167756,198.295361 62.4436437,196.027397 59.6390251,196.027397 Z M42.4767157,196.027397 C39.672097,196.027397 37.3989651,198.295361 37.3989651,201.092466 C37.3989651,203.889571 39.672097,206.157534 42.4767157,206.157534 C45.2813343,206.157534 47.5544662,203.889571 47.5544662,201.092466 C47.5544662,198.295361 45.2813343,196.027397 42.4767157,196.027397 Z M157.476716,196.027397 C154.672097,196.027397 152.398965,198.295361 152.398965,201.092466 C152.398965,203.889571 154.672097,206.157534 157.476716,206.157534 C160.281334,206.157534 162.554466,203.889571 162.554466,201.092466 C162.554466,198.295361 160.281334,196.027397 157.476716,196.027397 Z M174.639025,196.027397 C171.834406,196.027397 169.561275,198.295361 169.561275,201.092466 C169.561275,203.889571 171.834406,206.157534 174.639025,206.157534 C177.443644,206.157534 179.716776,203.889571 179.716776,201.092466 C179.716776,198.295361 177.443644,196.027397 174.639025,196.027397 Z M232.639025,93.8219178 C233.562874,93.8219178 234.458355,94.0281125 235.273304,94.4198017 C235.522192,94.5394245 235.626981,94.8381612 235.507359,95.0870487 C235.387736,95.3359362 235.088999,95.4407259 234.840112,95.321103 C234.159631,94.9940434 233.412108,94.8219178 232.639025,94.8219178 C229.834406,94.8219178 227.561275,97.0898813 227.561275,99.8869863 C227.561275,102.684091 229.834406,104.952055 232.639025,104.952055 C235.443644,104.952055 237.716776,102.684091 237.716776,99.8869863 C237.716776,98.8448994 237.401155,97.8511968 236.820457,97.0124522 C236.663268,96.7854137 236.719893,96.4739364 236.946932,96.3167482 C237.17397,96.1595599 237.485447,96.2161846 237.642636,96.443223 C238.338192,97.4478651 238.716776,98.6398017 238.716776,99.8869863 C238.716776,103.236886 235.99542,105.952055 232.639025,105.952055 C229.282631,105.952055 226.561275,103.236886 226.561275,99.8869863 C226.561275,96.5370864 229.282631,93.8219178 232.639025,93.8219178 Z M117.639025,93.8219178 C118.562874,93.8219178 119.458355,94.0281125 120.273304,94.4198017 C120.522192,94.5394245 120.626981,94.8381612 120.507359,95.0870487 C120.387736,95.3359362 120.088999,95.4407259 119.840112,95.321103 C119.159631,94.9940434 118.412108,94.8219178 117.639025,94.8219178 C114.834406,94.8219178 112.561275,97.0898813 112.561275,99.8869863 C112.561275,102.684091 114.834406,104.952055 117.639025,104.952055 C120.443644,104.952055 122.716776,102.684091 122.716776,99.8869863 C122.716776,98.8448994 122.401155,97.8511968 121.820457,97.0124522 C121.663268,96.7854137 121.719893,96.4739364 121.946932,96.3167482 C122.17397,96.1595599 122.485447,96.2161846 122.642636,96.443223 C123.338192,97.4478651 123.716776,98.6398017 123.716776,99.8869863 C123.716776,103.236886 120.99542,105.952055 117.639025,105.952055 C114.282631,105.952055 111.561275,103.236886 111.561275,99.8869863 C111.561275,96.5370864 114.282631,93.8219178 117.639025,93.8219178 Z M232.639025,80.1232877 C235.99542,80.1232877 238.716776,82.8384562 238.716776,86.1883562 C238.716776,89.5382561 235.99542,92.2534247 232.639025,92.2534247 C229.282631,92.2534247 226.561275,89.5382561 226.561275,86.1883562 C226.561275,82.8384562 229.282631,80.1232877 232.639025,80.1232877 Z M117.639025,80.1232877 C120.99542,80.1232877 123.716776,82.8384562 123.716776,86.1883562 C123.716776,89.5382561 120.99542,92.2534247 117.639025,92.2534247 C114.282631,92.2534247 111.561275,89.5382561 111.561275,86.1883562 C111.561275,82.8384562 114.282631,80.1232877 117.639025,80.1232877 Z M117.639025,81.1232877 C114.834406,81.1232877 112.561275,83.3912512 112.561275,86.1883562 C112.561275,88.9854611 114.834406,91.2534247 117.639025,91.2534247 C120.443644,91.2534247 122.716776,88.9854611 122.716776,86.1883562 C122.716776,83.3912512 120.443644,81.1232877 117.639025,81.1232877 Z M232.639025,81.1232877 C229.834406,81.1232877 227.561275,83.3912512 227.561275,86.1883562 C227.561275,88.9854611 229.834406,91.2534247 232.639025,91.2534247 C235.443644,91.2534247 237.716776,88.9854611 237.716776,86.1883562 C237.716776,83.3912512 235.443644,81.1232877 232.639025,81.1232877 Z M249.801334,66.4246575 C253.157729,66.4246575 255.879085,69.1398261 255.879085,72.489726 C255.879085,75.839626 253.157729,78.5547945 249.801334,78.5547945 C246.44494,78.5547945 243.723584,75.839626 243.723584,72.489726 C243.723584,69.1398261 246.44494,66.4246575 249.801334,66.4246575 Z M215.476716,66.4246575 C218.83311,66.4246575 221.554466,69.1398261 221.554466,72.489726 C221.554466,75.839626 218.83311,78.5547945 215.476716,78.5547945 C212.120321,78.5547945 209.398965,75.839626 209.398965,72.489726 C209.398965,69.1398261 212.120321,66.4246575 215.476716,66.4246575 Z M232.639025,66.4246575 C233.562874,66.4246575 234.458355,66.6308522 235.273304,67.0225414 C235.522192,67.1421643 235.626981,67.4409009 235.507359,67.6897884 C235.387736,67.9386759 235.088999,68.0434656 234.840112,67.9238428 C234.159631,67.5967831 233.412108,67.4246575 232.639025,67.4246575 C229.834406,67.4246575 227.561275,69.692621 227.561275,72.489726 C227.561275,75.286831 229.834406,77.5547945 232.639025,77.5547945 C235.443644,77.5547945 237.716776,75.286831 237.716776,72.489726 C237.716776,71.4476391 237.401155,70.4539365 236.820457,69.6151919 C236.663268,69.3881535 236.719893,69.0766762 236.946932,68.9194879 C237.17397,68.7622996 237.485447,68.8189243 237.642636,69.0459628 C238.338192,70.0506049 238.716776,71.2425414 238.716776,72.489726 C238.716776,75.839626 235.99542,78.5547945 232.639025,78.5547945 C229.282631,78.5547945 226.561275,75.839626 226.561275,72.489726 C226.561275,69.1398261 229.282631,66.4246575 232.639025,66.4246575 Z M100.476716,66.4246575 C103.83311,66.4246575 106.554466,69.1398261 106.554466,72.489726 C106.554466,75.839626 103.83311,78.5547945 100.476716,78.5547945 C97.1203212,78.5547945 94.3989651,75.839626 94.3989651,72.489726 C94.3989651,69.1398261 97.1203212,66.4246575 100.476716,66.4246575 Z M117.639025,66.4246575 C118.562874,66.4246575 119.458355,66.6308522 120.273304,67.0225414 C120.522192,67.1421643 120.626981,67.4409009 120.507359,67.6897884 C120.387736,67.9386759 120.088999,68.0434656 119.840112,67.9238428 C119.159631,67.5967831 118.412108,67.4246575 117.639025,67.4246575 C114.834406,67.4246575 112.561275,69.692621 112.561275,72.489726 C112.561275,75.286831 114.834406,77.5547945 117.639025,77.5547945 C120.443644,77.5547945 122.716776,75.286831 122.716776,72.489726 C122.716776,71.4476391 122.401155,70.4539365 121.820457,69.6151919 C121.663268,69.3881535 121.719893,69.0766762 121.946932,68.9194879 C122.17397,68.7622996 122.485447,68.8189243 122.642636,69.0459628 C123.338192,70.0506049 123.716776,71.2425414 123.716776,72.489726 C123.716776,75.839626 120.99542,78.5547945 117.639025,78.5547945 C114.282631,78.5547945 111.561275,75.839626 111.561275,72.489726 C111.561275,69.1398261 114.282631,66.4246575 117.639025,66.4246575 Z M134.801334,66.4246575 C138.157729,66.4246575 140.879085,69.1398261 140.879085,72.489726 C140.879085,75.839626 138.157729,78.5547945 134.801334,78.5547945 C131.44494,78.5547945 128.723584,75.839626 128.723584,72.489726 C128.723584,69.1398261 131.44494,66.4246575 134.801334,66.4246575 Z M134.801334,67.4246575 C131.996716,67.4246575 129.723584,69.692621 129.723584,72.489726 C129.723584,75.286831 131.996716,77.5547945 134.801334,77.5547945 C137.605953,77.5547945 139.879085,75.286831 139.879085,72.489726 C139.879085,69.692621 137.605953,67.4246575 134.801334,67.4246575 Z M100.476716,67.4246575 C97.672097,67.4246575 95.3989651,69.692621 95.3989651,72.489726 C95.3989651,75.286831 97.672097,77.5547945 100.476716,77.5547945 C103.281334,77.5547945 105.554466,75.286831 105.554466,72.489726 C105.554466,69.692621 103.281334,67.4246575 100.476716,67.4246575 Z M249.801334,67.4246575 C246.996716,67.4246575 244.723584,69.692621 244.723584,72.489726 C244.723584,75.286831 246.996716,77.5547945 249.801334,77.5547945 C252.605953,77.5547945 254.879085,75.286831 254.879085,72.489726 C254.879085,69.692621 252.605953,67.4246575 249.801334,67.4246575 Z M215.476716,67.4246575 C212.672097,67.4246575 210.398965,69.692621 210.398965,72.489726 C210.398965,75.286831 212.672097,77.5547945 215.476716,77.5547945 C218.281334,77.5547945 220.554466,75.286831 220.554466,72.489726 C220.554466,69.692621 218.281334,67.4246575 215.476716,67.4246575 Z M100.476716,52.7260274 C101.400564,52.7260274 102.296046,52.9322221 103.110995,53.3239113 C103.359882,53.4435341 103.464672,53.7422708 103.345049,53.9911583 C103.225426,54.2400458 102.92669,54.3448355 102.677802,54.2252126 C101.997321,53.8981529 101.249799,53.7260274 100.476716,53.7260274 C97.672097,53.7260274 95.3989651,55.9939909 95.3989651,58.7910959 C95.3989651,61.5882009 97.672097,63.8561644 100.476716,63.8561644 C103.281334,63.8561644 105.554466,61.5882009 105.554466,58.7910959 C105.554466,57.749009 105.238846,56.7553064 104.658147,55.9165618 C104.500959,55.6895233 104.557584,55.378046 104.784622,55.2208577 C105.011661,55.0636695 105.323138,55.1202942 105.480326,55.3473326 C106.175882,56.3519747 106.554466,57.5439113 106.554466,58.7910959 C106.554466,62.1409958 103.83311,64.8561644 100.476716,64.8561644 C97.1203212,64.8561644 94.3989651,62.1409958 94.3989651,58.7910959 C94.3989651,55.441196 97.1203212,52.7260274 100.476716,52.7260274 Z M134.801334,52.7260274 C138.157729,52.7260274 140.879085,55.441196 140.879085,58.7910959 C140.879085,62.1409958 138.157729,64.8561644 134.801334,64.8561644 C131.44494,64.8561644 128.723584,62.1409958 128.723584,58.7910959 C128.723584,55.441196 131.44494,52.7260274 134.801334,52.7260274 Z M215.476716,52.7260274 C216.400564,52.7260274 217.296046,52.9322221 218.110995,53.3239113 C218.359882,53.4435341 218.464672,53.7422708 218.345049,53.9911583 C218.225426,54.2400458 217.92669,54.3448355 217.677802,54.2252126 C216.997321,53.8981529 216.249799,53.7260274 215.476716,53.7260274 C212.672097,53.7260274 210.398965,55.9939909 210.398965,58.7910959 C210.398965,61.5882009 212.672097,63.8561644 215.476716,63.8561644 C218.281334,63.8561644 220.554466,61.5882009 220.554466,58.7910959 C220.554466,57.749009 220.238846,56.7553064 219.658147,55.9165618 C219.500959,55.6895233 219.557584,55.378046 219.784622,55.2208577 C220.011661,55.0636695 220.323138,55.1202942 220.480326,55.3473326 C221.175882,56.3519747 221.554466,57.5439113 221.554466,58.7910959 C221.554466,62.1409958 218.83311,64.8561644 215.476716,64.8561644 C212.120321,64.8561644 209.398965,62.1409958 209.398965,58.7910959 C209.398965,55.441196 212.120321,52.7260274 215.476716,52.7260274 Z M249.801334,52.7260274 C253.157729,52.7260274 255.879085,55.441196 255.879085,58.7910959 C255.879085,62.1409958 253.157729,64.8561644 249.801334,64.8561644 C246.44494,64.8561644 243.723584,62.1409958 243.723584,58.7910959 C243.723584,55.441196 246.44494,52.7260274 249.801334,52.7260274 Z M232.639025,52.7260274 C235.99542,52.7260274 238.716776,55.441196 238.716776,58.7910959 C238.716776,62.1409958 235.99542,64.8561644 232.639025,64.8561644 C229.282631,64.8561644 226.561275,62.1409958 226.561275,58.7910959 C226.561275,57.8164878 226.792227,56.8738748 227.228816,56.0250574 C228.261945,54.0164464 230.335599,52.7260274 232.639025,52.7260274 Z M117.639025,52.7260274 C120.99542,52.7260274 123.716776,55.441196 123.716776,58.7910959 C123.716776,62.1409958 120.99542,64.8561644 117.639025,64.8561644 C114.282631,64.8561644 111.561275,62.1409958 111.561275,58.7910959 C111.561275,57.8164878 111.792227,56.8738748 112.228816,56.0250574 C113.261945,54.0164464 115.335599,52.7260274 117.639025,52.7260274 Z M117.639025,53.7260274 C115.713702,53.7260274 113.981368,54.8040453 113.11808,56.4824507 C112.753838,57.190612 112.561275,57.9765433 112.561275,58.7910959 C112.561275,61.5882009 114.834406,63.8561644 117.639025,63.8561644 C120.443644,63.8561644 122.716776,61.5882009 122.716776,58.7910959 C122.716776,55.9939909 120.443644,53.7260274 117.639025,53.7260274 Z M232.639025,53.7260274 C230.713702,53.7260274 228.981368,54.8040453 228.11808,56.4824507 C227.753838,57.190612 227.561275,57.9765433 227.561275,58.7910959 C227.561275,61.5882009 229.834406,63.8561644 232.639025,63.8561644 C235.443644,63.8561644 237.716776,61.5882009 237.716776,58.7910959 C237.716776,55.9939909 235.443644,53.7260274 232.639025,53.7260274 Z M249.801334,53.7260274 C246.996716,53.7260274 244.723584,55.9939909 244.723584,58.7910959 C244.723584,61.5882009 246.996716,63.8561644 249.801334,63.8561644 C252.605953,63.8561644 254.879085,61.5882009 254.879085,58.7910959 C254.879085,55.9939909 252.605953,53.7260274 249.801334,53.7260274 Z M134.801334,53.7260274 C131.996716,53.7260274 129.723584,55.9939909 129.723584,58.7910959 C129.723584,61.5882009 131.996716,63.8561644 134.801334,63.8561644 C137.605953,63.8561644 139.879085,61.5882009 139.879085,58.7910959 C139.879085,55.9939909 137.605953,53.7260274 134.801334,53.7260274 Z M215.476716,39.0273973 C218.83311,39.0273973 221.554466,41.7425658 221.554466,45.0924658 C221.554466,48.4423657 218.83311,51.1575342 215.476716,51.1575342 C212.120321,51.1575342 209.398965,48.4423657 209.398965,45.0924658 C209.398965,41.7425658 212.120321,39.0273973 215.476716,39.0273973 Z M117.639025,39.0273973 C120.99542,39.0273973 123.716776,41.7425658 123.716776,45.0924658 C123.716776,48.4423657 120.99542,51.1575342 117.639025,51.1575342 C114.282631,51.1575342 111.561275,48.4423657 111.561275,45.0924658 C111.561275,41.7425658 114.282631,39.0273973 117.639025,39.0273973 Z M100.476716,39.0273973 C103.83311,39.0273973 106.554466,41.7425658 106.554466,45.0924658 C106.554466,48.4423657 103.83311,51.1575342 100.476716,51.1575342 C97.1203212,51.1575342 94.3989651,48.4423657 94.3989651,45.0924658 C94.3989651,41.7425658 97.1203212,39.0273973 100.476716,39.0273973 Z M232.639025,39.0273973 C235.99542,39.0273973 238.716776,41.7425658 238.716776,45.0924658 C238.716776,48.4423657 235.99542,51.1575342 232.639025,51.1575342 C229.282631,51.1575342 226.561275,48.4423657 226.561275,45.0924658 C226.561275,41.7425658 229.282631,39.0273973 232.639025,39.0273973 Z M134.801334,39.0273973 C135.725183,39.0273973 136.620664,39.2335919 137.435614,39.6252811 C137.684501,39.744904 137.789291,40.0436406 137.669668,40.2925281 C137.550045,40.5414156 137.251308,40.6462053 137.002421,40.5265825 C136.32194,40.1995228 135.574417,40.0273973 134.801334,40.0273973 C131.996716,40.0273973 129.723584,42.2953608 129.723584,45.0924658 C129.723584,47.8895707 131.996716,50.1575342 134.801334,50.1575342 C137.605953,50.1575342 139.879085,47.8895707 139.879085,45.0924658 C139.879085,44.0503788 139.563464,43.0566762 138.982766,42.2179316 C138.825578,41.9908932 138.882203,41.6794159 139.109241,41.5222276 C139.336279,41.3650393 139.647757,41.4216641 139.804945,41.6487025 C140.500501,42.6533446 140.879085,43.8452812 140.879085,45.0924658 C140.879085,48.4423657 138.157729,51.1575342 134.801334,51.1575342 C131.44494,51.1575342 128.723584,48.4423657 128.723584,45.0924658 C128.723584,41.7425658 131.44494,39.0273973 134.801334,39.0273973 Z M249.801334,39.0273973 C250.725183,39.0273973 251.620664,39.2335919 252.435614,39.6252811 C252.684501,39.744904 252.789291,40.0436406 252.669668,40.2925281 C252.550045,40.5414156 252.251308,40.6462053 252.002421,40.5265825 C251.32194,40.1995228 250.574417,40.0273973 249.801334,40.0273973 C246.996716,40.0273973 244.723584,42.2953608 244.723584,45.0924658 C244.723584,47.8895707 246.996716,50.1575342 249.801334,50.1575342 C252.605953,50.1575342 254.879085,47.8895707 254.879085,45.0924658 C254.879085,44.0503788 254.563464,43.0566762 253.982766,42.2179316 C253.825578,41.9908932 253.882203,41.6794159 254.109241,41.5222276 C254.336279,41.3650393 254.647757,41.4216641 254.804945,41.6487025 C255.500501,42.6533446 255.879085,43.8452812 255.879085,45.0924658 C255.879085,48.4423657 253.157729,51.1575342 249.801334,51.1575342 C246.44494,51.1575342 243.723584,48.4423657 243.723584,45.0924658 C243.723584,41.7425658 246.44494,39.0273973 249.801334,39.0273973 Z M215.476716,40.0273973 C212.672097,40.0273973 210.398965,42.2953608 210.398965,45.0924658 C210.398965,47.8895707 212.672097,50.1575342 215.476716,50.1575342 C218.281334,50.1575342 220.554466,47.8895707 220.554466,45.0924658 C220.554466,42.2953608 218.281334,40.0273973 215.476716,40.0273973 Z M232.639025,40.0273973 C229.834406,40.0273973 227.561275,42.2953608 227.561275,45.0924658 C227.561275,47.8895707 229.834406,50.1575342 232.639025,50.1575342 C235.443644,50.1575342 237.716776,47.8895707 237.716776,45.0924658 C237.716776,42.2953608 235.443644,40.0273973 232.639025,40.0273973 Z M117.639025,40.0273973 C114.834406,40.0273973 112.561275,42.2953608 112.561275,45.0924658 C112.561275,47.8895707 114.834406,50.1575342 117.639025,50.1575342 C120.443644,50.1575342 122.716776,47.8895707 122.716776,45.0924658 C122.716776,42.2953608 120.443644,40.0273973 117.639025,40.0273973 Z M100.476716,40.0273973 C97.672097,40.0273973 95.3989651,42.2953608 95.3989651,45.0924658 C95.3989651,47.8895707 97.672097,50.1575342 100.476716,50.1575342 C103.281334,50.1575342 105.554466,47.8895707 105.554466,45.0924658 C105.554466,42.2953608 103.281334,40.0273973 100.476716,40.0273973 Z M248.508363,6.06756757 C248.742123,6.06756757 248.931623,6.25663651 248.931623,6.48986486 C248.931623,6.72309322 248.742123,6.91216216 248.508363,6.91216216 C248.274603,6.91216216 248.085103,6.72309322 248.085103,6.48986486 C248.085103,6.25663651 248.274603,6.06756757 248.508363,6.06756757 Z" id="Combined-Shape" fill="#8C8D8E" fill-rule="nonzero"></path>
			<path d="M44.1929466,275.499168 C44.473331,275.499168 44.7006275,275.726465 44.7006275,276.006849 C44.7006275,276.25608 44.5210352,276.463364 44.2842029,276.506351 L44.1929466,276.51453 L33.895561,276.51453 C33.6151766,276.51453 33.3878802,276.287234 33.3878802,276.006849 C33.3878802,275.757619 33.5674724,275.550334 33.8043047,275.507348 L33.895561,275.499168 L44.1929466,275.499168 Z M71.6526416,275.499168 C71.933026,275.499168 72.1603224,275.726465 72.1603224,276.006849 C72.1603224,276.25608 71.9807302,276.463364 71.7438979,276.506351 L71.6526416,276.51453 L61.355256,276.51453 C61.0748716,276.51453 60.8475752,276.287234 60.8475752,276.006849 C60.8475752,275.757619 61.0271674,275.550334 61.2639997,275.507348 L61.355256,275.499168 L71.6526416,275.499168 Z M57.9227941,275.499168 C58.2031785,275.499168 58.430475,275.726465 58.430475,276.006849 C58.430475,276.25608 58.2508827,276.463364 58.0140504,276.506351 L57.9227941,276.51453 L47.6254085,276.51453 C47.3450241,276.51453 47.1177277,276.287234 47.1177277,276.006849 C47.1177277,275.757619 47.2973199,275.550334 47.5341522,275.507348 L47.6254085,275.499168 L57.9227941,275.499168 Z M85.3824891,275.499168 C85.6628735,275.499168 85.8901699,275.726465 85.8901699,276.006849 C85.8901699,276.25608 85.7105777,276.463364 85.4737454,276.506351 L85.3824891,276.51453 L75.0851035,276.51453 C74.8047191,276.51453 74.5774227,276.287234 74.5774227,276.006849 C74.5774227,275.757619 74.7570149,275.550334 74.9938472,275.507348 L75.0851035,275.499168 L85.3824891,275.499168 Z M274.192947,275.499168 C274.473331,275.499168 274.700627,275.726465 274.700627,276.006849 C274.700627,276.25608 274.521035,276.463364 274.284203,276.506351 L274.192947,276.51453 L263.895561,276.51453 C263.615177,276.51453 263.38788,276.287234 263.38788,276.006849 C263.38788,275.757619 263.567472,275.550334 263.804305,275.507348 L263.895561,275.499168 L274.192947,275.499168 Z M301.652642,275.499168 C301.933026,275.499168 302.160322,275.726465 302.160322,276.006849 C302.160322,276.25608 301.98073,276.463364 301.743898,276.506351 L301.652642,276.51453 L291.355256,276.51453 C291.074872,276.51453 290.847575,276.287234 290.847575,276.006849 C290.847575,275.757619 291.027167,275.550334 291.264,275.507348 L291.355256,275.499168 L301.652642,275.499168 Z M287.922794,275.499168 C288.203179,275.499168 288.430475,275.726465 288.430475,276.006849 C288.430475,276.25608 288.250883,276.463364 288.01405,276.506351 L287.922794,276.51453 L277.625408,276.51453 C277.345024,276.51453 277.117728,276.287234 277.117728,276.006849 C277.117728,275.757619 277.29732,275.550334 277.534152,275.507348 L277.625408,275.499168 L287.922794,275.499168 Z M315.382489,275.499168 C315.662873,275.499168 315.89017,275.726465 315.89017,276.006849 C315.89017,276.25608 315.710578,276.463364 315.473745,276.506351 L315.382489,276.51453 L305.085103,276.51453 C304.804719,276.51453 304.577423,276.287234 304.577423,276.006849 C304.577423,275.757619 304.757015,275.550334 304.993847,275.507348 L305.085103,275.499168 L315.382489,275.499168 Z M200.382489,275.499168 C200.662873,275.499168 200.89017,275.726465 200.89017,276.006849 C200.89017,276.25608 200.710578,276.463364 200.473745,276.506351 L200.382489,276.51453 L190.085103,276.51453 C189.804719,276.51453 189.577423,276.287234 189.577423,276.006849 C189.577423,275.757619 189.757015,275.550334 189.993847,275.507348 L190.085103,275.499168 L200.382489,275.499168 Z M172.922794,275.499168 C173.203179,275.499168 173.430475,275.726465 173.430475,276.006849 C173.430475,276.25608 173.250883,276.463364 173.01405,276.506351 L172.922794,276.51453 L162.625408,276.51453 C162.345024,276.51453 162.117728,276.287234 162.117728,276.006849 C162.117728,275.757619 162.29732,275.550334 162.534152,275.507348 L162.625408,275.499168 L172.922794,275.499168 Z M186.652642,275.499168 C186.933026,275.499168 187.160322,275.726465 187.160322,276.006849 C187.160322,276.25608 186.98073,276.463364 186.743898,276.506351 L186.652642,276.51453 L176.355256,276.51453 C176.074872,276.51453 175.847575,276.287234 175.847575,276.006849 C175.847575,275.757619 176.027167,275.550334 176.264,275.507348 L176.355256,275.499168 L186.652642,275.499168 Z M159.192947,275.499168 C159.473331,275.499168 159.700627,275.726465 159.700627,276.006849 C159.700627,276.25608 159.521035,276.463364 159.284203,276.506351 L159.192947,276.51453 L148.895561,276.51453 C148.615177,276.51453 148.38788,276.287234 148.38788,276.006849 C148.38788,275.757619 148.567472,275.550334 148.804305,275.507348 L148.895561,275.499168 L159.192947,275.499168 Z M215.625,260.885135 C216.559011,260.885135 217.316176,261.640579 217.316176,262.572466 C217.316176,263.504354 216.559011,264.259798 215.625,264.259798 C214.690989,264.259798 213.933824,263.504354 213.933824,262.572466 C213.933824,261.640579 214.690989,260.885135 215.625,260.885135 Z M272.476716,236.123288 C275.83311,236.123288 278.554466,238.838456 278.554466,242.188356 C278.554466,245.538256 275.83311,248.253425 272.476716,248.253425 C269.120321,248.253425 266.398965,245.538256 266.398965,242.188356 C266.398965,238.838456 269.120321,236.123288 272.476716,236.123288 Z M306.801334,236.123288 C307.725183,236.123288 308.620664,236.329482 309.435614,236.721172 C309.684501,236.840794 309.789291,237.139531 309.669668,237.388419 C309.550045,237.637306 309.251308,237.742096 309.002421,237.622473 C308.32194,237.295413 307.574417,237.123288 306.801334,237.123288 C303.996716,237.123288 301.723584,239.391251 301.723584,242.188356 C301.723584,244.985461 303.996716,247.253425 306.801334,247.253425 C309.605953,247.253425 311.879085,244.985461 311.879085,242.188356 C311.879085,241.146269 311.563464,240.152567 310.982766,239.313822 C310.825578,239.086784 310.882203,238.775306 311.109241,238.618118 C311.336279,238.46093 311.647757,238.517554 311.804945,238.744593 C312.500501,239.749235 312.879085,240.941172 312.879085,242.188356 C312.879085,245.538256 310.157729,248.253425 306.801334,248.253425 C303.44494,248.253425 300.723584,245.538256 300.723584,242.188356 C300.723584,238.838456 303.44494,236.123288 306.801334,236.123288 Z M157.476716,236.123288 C160.83311,236.123288 163.554466,238.838456 163.554466,242.188356 C163.554466,245.538256 160.83311,248.253425 157.476716,248.253425 C154.120321,248.253425 151.398965,245.538256 151.398965,242.188356 C151.398965,238.838456 154.120321,236.123288 157.476716,236.123288 Z M191.801334,236.123288 C192.725183,236.123288 193.620664,236.329482 194.435614,236.721172 C194.684501,236.840794 194.789291,237.139531 194.669668,237.388419 C194.550045,237.637306 194.251308,237.742096 194.002421,237.622473 C193.32194,237.295413 192.574417,237.123288 191.801334,237.123288 C188.996716,237.123288 186.723584,239.391251 186.723584,242.188356 C186.723584,244.985461 188.996716,247.253425 191.801334,247.253425 C194.605953,247.253425 196.879085,244.985461 196.879085,242.188356 C196.879085,241.146269 196.563464,240.152567 195.982766,239.313822 C195.825578,239.086784 195.882203,238.775306 196.109241,238.618118 C196.336279,238.46093 196.647757,238.517554 196.804945,238.744593 C197.500501,239.749235 197.879085,240.941172 197.879085,242.188356 C197.879085,245.538256 195.157729,248.253425 191.801334,248.253425 C188.44494,248.253425 185.723584,245.538256 185.723584,242.188356 C185.723584,238.838456 188.44494,236.123288 191.801334,236.123288 Z M76.8013344,236.123288 C77.7251832,236.123288 78.6206644,236.329482 79.4356136,236.721172 C79.6845011,236.840794 79.7892908,237.139531 79.669668,237.388419 C79.5500451,237.637306 79.2513085,237.742096 79.002421,237.622473 C78.3219401,237.295413 77.5744174,237.123288 76.8013344,237.123288 C73.9967158,237.123288 71.7235839,239.391251 71.7235839,242.188356 C71.7235839,244.985461 73.9967158,247.253425 76.8013344,247.253425 C79.6059531,247.253425 81.879085,244.985461 81.879085,242.188356 C81.879085,241.146269 81.5634643,240.152567 80.982766,239.313822 C80.8255778,239.086784 80.8822025,238.775306 81.1092409,238.618118 C81.3362794,238.46093 81.6477567,238.517554 81.804945,238.744593 C82.5005011,239.749235 82.879085,240.941172 82.879085,242.188356 C82.879085,245.538256 80.1577289,248.253425 76.8013344,248.253425 C73.4449399,248.253425 70.7235839,245.538256 70.7235839,242.188356 C70.7235839,238.838456 73.4449399,236.123288 76.8013344,236.123288 Z M42.4767157,236.123288 C45.8331102,236.123288 48.5544662,238.838456 48.5544662,242.188356 C48.5544662,245.538256 45.8331102,248.253425 42.4767157,248.253425 C39.1203212,248.253425 36.3989651,245.538256 36.3989651,242.188356 C36.3989651,238.838456 39.1203212,236.123288 42.4767157,236.123288 Z M42.4767157,237.123288 C39.672097,237.123288 37.3989651,239.391251 37.3989651,242.188356 C37.3989651,244.985461 39.672097,247.253425 42.4767157,247.253425 C45.2813343,247.253425 47.5544662,244.985461 47.5544662,242.188356 C47.5544662,239.391251 45.2813343,237.123288 42.4767157,237.123288 Z M157.476716,237.123288 C154.672097,237.123288 152.398965,239.391251 152.398965,242.188356 C152.398965,244.985461 154.672097,247.253425 157.476716,247.253425 C160.281334,247.253425 162.554466,244.985461 162.554466,242.188356 C162.554466,239.391251 160.281334,237.123288 157.476716,237.123288 Z M272.476716,237.123288 C269.672097,237.123288 267.398965,239.391251 267.398965,242.188356 C267.398965,244.985461 269.672097,247.253425 272.476716,247.253425 C275.281334,247.253425 277.554466,244.985461 277.554466,242.188356 C277.554466,239.391251 275.281334,237.123288 272.476716,237.123288 Z M307.65945,239.547945 C307.90491,239.547945 308.109058,239.72482 308.151394,239.95807 L308.15945,240.047945 L308.158461,240.829945 L308.941283,240.830011 C309.217425,240.830011 309.441283,241.053868 309.441283,241.330011 C309.441283,241.575471 309.264407,241.779619 309.031158,241.821955 L308.941283,241.830011 L308.158461,241.829945 L308.158461,242.545945 L308.941283,242.546242 C309.217425,242.546242 309.441283,242.770099 309.441283,243.046242 C309.441283,243.291702 309.264407,243.49585 309.031158,243.538186 L308.941283,243.546242 L308.158461,243.545945 L308.15945,244.328767 C308.15945,244.604909 307.935592,244.828767 307.65945,244.828767 C307.41399,244.828767 307.209842,244.651892 307.167506,244.418643 L307.15945,244.328767 L307.158461,243.545945 L306.442461,243.545945 L306.443219,244.328767 C306.443219,244.604909 306.219361,244.828767 305.943219,244.828767 C305.697759,244.828767 305.493611,244.651892 305.451275,244.418643 L305.443219,244.328767 L305.442461,243.545945 L304.660461,243.546242 C304.384318,243.546242 304.160461,243.322384 304.160461,243.046242 C304.160461,242.800782 304.337336,242.596633 304.570585,242.554297 L304.660461,242.546242 L305.442461,242.545945 L305.442461,241.829945 L304.660461,241.830011 C304.384318,241.830011 304.160461,241.606153 304.160461,241.330011 C304.160461,241.084551 304.337336,240.880402 304.570585,240.838066 L304.660461,240.830011 L305.442461,240.829945 L305.443219,240.047945 C305.443219,239.771803 305.667077,239.547945 305.943219,239.547945 C306.188679,239.547945 306.392827,239.72482 306.435163,239.95807 L306.443219,240.047945 L306.442461,240.829945 L307.158461,240.829945 L307.15945,240.047945 C307.15945,239.771803 307.383308,239.547945 307.65945,239.547945 Z M77.6594499,239.547945 C77.9049098,239.547945 78.1090583,239.72482 78.1513942,239.95807 L78.1594499,240.047945 L78.1584607,240.829945 L78.9412826,240.830011 C79.217425,240.830011 79.4412826,241.053868 79.4412826,241.330011 C79.4412826,241.575471 79.2644074,241.779619 79.0311582,241.821955 L78.9412826,241.830011 L78.1584607,241.829945 L78.1584607,242.545945 L78.9412826,242.546242 C79.217425,242.546242 79.4412826,242.770099 79.4412826,243.046242 C79.4412826,243.291702 79.2644074,243.49585 79.0311582,243.538186 L78.9412826,243.546242 L78.1584607,243.545945 L78.1594499,244.328767 C78.1594499,244.604909 77.9355923,244.828767 77.6594499,244.828767 C77.41399,244.828767 77.2098415,244.651892 77.1675056,244.418643 L77.1594499,244.328767 L77.1584607,243.545945 L76.4424607,243.545945 L76.443219,244.328767 C76.443219,244.604909 76.2193613,244.828767 75.943219,244.828767 C75.6977591,244.828767 75.4936106,244.651892 75.4512746,244.418643 L75.443219,244.328767 L75.4424607,243.545945 L74.6604607,243.546242 C74.3843183,243.546242 74.1604607,243.322384 74.1604607,243.046242 C74.1604607,242.800782 74.3373358,242.596633 74.570585,242.554297 L74.6604607,242.546242 L75.4424607,242.545945 L75.4424607,241.829945 L74.6604607,241.830011 C74.3843183,241.830011 74.1604607,241.606153 74.1604607,241.330011 C74.1604607,241.084551 74.3373358,240.880402 74.570585,240.838066 L74.6604607,240.830011 L75.4424607,240.829945 L75.443219,240.047945 C75.443219,239.771803 75.6670766,239.547945 75.943219,239.547945 C76.1886788,239.547945 76.3928273,239.72482 76.4351633,239.95807 L76.443219,240.047945 L76.4424607,240.829945 L77.1584607,240.829945 L77.1594499,240.047945 C77.1594499,239.771803 77.3833075,239.547945 77.6594499,239.547945 Z M272.476716,239.547945 C272.752858,239.547945 272.976716,239.771803 272.976716,240.047945 L272.976716,240.047945 L272.976,240.982568 L273.640513,240.320902 C273.814277,240.147533 274.083723,240.128554 274.278438,240.263772 L274.34762,240.321706 C274.520988,240.49547 274.539967,240.764916 274.404749,240.959631 L274.346815,241.028813 L273.684427,241.687857 L274.622004,241.688356 C274.867464,241.688356 275.071613,241.865231 275.113949,242.098481 L275.122004,242.188356 C275.122004,242.433816 274.945129,242.637965 274.71188,242.6803 L274.622004,242.688356 L273.684427,242.687857 L274.346815,243.347899 C274.520578,243.521268 274.54017,243.790671 274.405396,243.985693 L274.34762,244.055006 C274.174251,244.22877 273.904848,244.248362 273.709827,244.113588 L273.640513,244.055811 L272.976,243.392568 L272.976716,244.328767 C272.976716,244.574227 272.799841,244.778375 272.566591,244.820711 L272.476716,244.828767 C272.200573,244.828767 271.976716,244.604909 271.976716,244.328767 L271.976716,244.328767 L271.976,243.392568 L271.312919,244.055811 C271.139155,244.22918 270.869708,244.248158 270.674994,244.11294 L270.605812,244.055006 C270.432443,243.881242 270.413465,243.611796 270.548682,243.417082 L270.606617,243.347899 L271.268427,242.687857 L270.331427,242.688356 C270.085967,242.688356 269.881819,242.511481 269.839483,242.278232 L269.831427,242.188356 C269.831427,241.942896 270.008302,241.738748 270.241551,241.696412 L270.331427,241.688356 L271.268427,241.687857 L270.606617,241.028813 C270.432853,240.855444 270.413261,240.586042 270.548035,240.39102 L270.605812,240.321706 C270.779181,240.147942 271.048583,240.128351 271.243605,240.263125 L271.312918,240.320902 L271.976,240.982568 L271.976716,240.047945 C271.976716,239.802485 272.153591,239.598337 272.38684,239.556001 Z M192.65945,239.547945 C192.90491,239.547945 193.109058,239.72482 193.151394,239.95807 L193.15945,240.047945 L193.158461,240.829945 L193.941283,240.830011 C194.217425,240.830011 194.441283,241.053868 194.441283,241.330011 C194.441283,241.575471 194.264407,241.779619 194.031158,241.821955 L193.941283,241.830011 L193.158461,241.829945 L193.158461,242.545945 L193.941283,242.546242 C194.217425,242.546242 194.441283,242.770099 194.441283,243.046242 C194.441283,243.291702 194.264407,243.49585 194.031158,243.538186 L193.941283,243.546242 L193.158461,243.545945 L193.15945,244.328767 C193.15945,244.604909 192.935592,244.828767 192.65945,244.828767 C192.41399,244.828767 192.209842,244.651892 192.167506,244.418643 L192.15945,244.328767 L192.158461,243.545945 L191.442461,243.545945 L191.443219,244.328767 C191.443219,244.604909 191.219361,244.828767 190.943219,244.828767 C190.697759,244.828767 190.493611,244.651892 190.451275,244.418643 L190.443219,244.328767 L190.442461,243.545945 L189.660461,243.546242 C189.384318,243.546242 189.160461,243.322384 189.160461,243.046242 C189.160461,242.800782 189.337336,242.596633 189.570585,242.554297 L189.660461,242.546242 L190.442461,242.545945 L190.442461,241.829945 L189.660461,241.830011 C189.384318,241.830011 189.160461,241.606153 189.160461,241.330011 C189.160461,241.084551 189.337336,240.880402 189.570585,240.838066 L189.660461,240.830011 L190.442461,240.829945 L190.443219,240.047945 C190.443219,239.771803 190.667077,239.547945 190.943219,239.547945 C191.188679,239.547945 191.392827,239.72482 191.435163,239.95807 L191.443219,240.047945 L191.442461,240.829945 L192.158461,240.829945 L192.15945,240.047945 C192.15945,239.771803 192.383308,239.547945 192.65945,239.547945 Z M42.4767157,239.547945 C42.7528581,239.547945 42.9767157,239.771803 42.9767157,240.047945 L42.9767157,240.047945 L42.976,240.982568 L43.6405131,240.320902 C43.8142769,240.147533 44.083723,240.128554 44.2784376,240.263772 L44.3476196,240.321706 C44.5209881,240.49547 44.5399666,240.764916 44.404749,240.959631 L44.3468149,241.028813 L43.684427,241.687857 L44.6220044,241.688356 C44.8674642,241.688356 45.0716127,241.865231 45.1139487,242.098481 L45.1220044,242.188356 C45.1220044,242.433816 44.9451292,242.637965 44.71188,242.6803 L44.6220044,242.688356 L43.684427,242.687857 L44.3468149,243.347899 C44.5205784,243.521268 44.5401702,243.790671 44.4053962,243.985693 L44.3476196,244.055006 C44.1742507,244.22877 43.9048484,244.248362 43.7098266,244.113588 L43.6405129,244.055811 L42.976,243.392568 L42.9767157,244.328767 C42.9767157,244.574227 42.7998405,244.778375 42.5665913,244.820711 L42.4767157,244.828767 C42.2005733,244.828767 41.9767157,244.604909 41.9767157,244.328767 L41.9767157,244.328767 L41.976,243.392568 L41.3129185,244.055811 C41.1391545,244.22918 40.8697083,244.248158 40.6749938,244.11294 L40.6058117,244.055006 C40.4324432,243.881242 40.4134648,243.611796 40.5486824,243.417082 L40.6066165,243.347899 L41.268427,242.687857 L40.331427,242.688356 C40.0859671,242.688356 39.8818186,242.511481 39.8394827,242.278232 L39.831427,242.188356 C39.831427,241.942896 40.0083022,241.738748 40.2415514,241.696412 L40.331427,241.688356 L41.268427,241.687857 L40.6066165,241.028813 C40.4328529,240.855444 40.4132612,240.586042 40.5480352,240.39102 L40.6058117,240.321706 C40.7791806,240.147942 41.0485829,240.128351 41.2436046,240.263125 L41.3129183,240.320902 L41.976,240.982568 L41.9767157,240.047945 C41.9767157,239.802485 42.1535908,239.598337 42.3868401,239.556001 Z M157.476716,239.547945 C157.722176,239.547945 157.926324,239.72482 157.96866,239.95807 L157.976716,240.047945 L157.976427,240.981945 L158.640513,240.320902 C158.814277,240.147533 159.083723,240.128554 159.278438,240.263772 L159.34762,240.321706 C159.520988,240.49547 159.539967,240.764916 159.404749,240.959631 L159.346815,241.028813 L158.684427,241.687945 L159.622004,241.688356 C159.867464,241.688356 160.071613,241.865231 160.113949,242.098481 L160.122004,242.188356 C160.122004,242.433816 159.945129,242.637965 159.71188,242.6803 L159.622004,242.688356 L158.685427,242.687945 L159.346815,243.347899 C159.520578,243.521268 159.54017,243.790671 159.405396,243.985693 L159.34762,244.055006 C159.174251,244.22877 158.904848,244.248362 158.709827,244.113588 L158.640513,244.055811 L157.976427,243.392945 L157.976716,244.328767 C157.976716,244.574227 157.799841,244.778375 157.566591,244.820711 L157.476716,244.828767 C157.231256,244.828767 157.027107,244.651892 156.984771,244.418643 L156.976716,244.328767 L156.976427,243.392945 L156.312919,244.055811 C156.139155,244.22918 155.869708,244.248158 155.674994,244.11294 L155.605812,244.055006 C155.432443,243.881242 155.413465,243.611796 155.548682,243.417082 L155.606617,243.347899 L156.267427,242.687945 L155.331427,242.688356 C155.085967,242.688356 154.881819,242.511481 154.839483,242.278232 L154.831427,242.188356 C154.831427,241.942896 155.008302,241.738748 155.241551,241.696412 L155.331427,241.688356 L156.268427,241.687945 L155.606617,241.028813 C155.432853,240.855444 155.413261,240.586042 155.548035,240.39102 L155.605812,240.321706 C155.779181,240.147942 156.048583,240.128351 156.243605,240.263125 L156.312918,240.320902 L156.976427,240.981945 L156.976716,240.047945 C156.976716,239.802485 157.153591,239.598337 157.38684,239.556001 L157.476716,239.547945 Z M307.158461,241.829945 L306.442461,241.829945 L306.442461,242.545945 L307.158461,242.545945 L307.158461,241.829945 Z M192.158461,241.829945 L191.442461,241.829945 L191.442461,242.545945 L192.158461,242.545945 L192.158461,241.829945 Z M77.1584607,241.829945 L76.4424607,241.829945 L76.4424607,242.545945 L77.1584607,242.545945 L77.1584607,241.829945 Z M116.691176,213.587838 C117.625187,213.587838 118.382353,214.343282 118.382353,215.275169 C118.382353,216.207056 117.625187,216.9625 116.691176,216.9625 C115.757165,216.9625 115,216.207056 115,215.275169 C115,214.343282 115.757165,213.587838 116.691176,213.587838 Z M1.69117647,213.587838 C2.62518744,213.587838 3.38235294,214.343282 3.38235294,215.275169 C3.38235294,216.207056 2.62518744,216.9625 1.69117647,216.9625 C0.757165497,216.9625 0,216.207056 0,215.275169 C0,214.343282 0.757165497,213.587838 1.69117647,213.587838 Z M231.691176,213.587838 C232.625187,213.587838 233.382353,214.343282 233.382353,215.275169 C233.382353,216.207056 232.625187,216.9625 231.691176,216.9625 C230.757165,216.9625 230,216.207056 230,215.275169 C230,214.343282 230.757165,213.587838 231.691176,213.587838 Z M75.5083631,162.067568 C75.742123,162.067568 75.9316228,162.256637 75.9316228,162.489865 C75.9316228,162.723093 75.742123,162.912162 75.5083631,162.912162 C75.2746033,162.912162 75.0851035,162.723093 75.0851035,162.489865 C75.0851035,162.256637 75.2746033,162.067568 75.5083631,162.067568 Z M190.508363,162.067568 C190.742123,162.067568 190.931623,162.256637 190.931623,162.489865 C190.931623,162.723093 190.742123,162.912162 190.508363,162.912162 C190.274603,162.912162 190.085103,162.723093 190.085103,162.489865 C190.085103,162.256637 190.274603,162.067568 190.508363,162.067568 Z M302.946575,162.067568 C303.179804,162.067568 303.368873,162.256637 303.368873,162.489865 C303.368873,162.723093 303.179804,162.912162 302.946575,162.912162 L272.899013,162.912162 C272.665785,162.912162 272.476716,162.723093 272.476716,162.489865 C272.476716,162.256637 272.665785,162.067568 272.899013,162.067568 L302.946575,162.067568 Z M187.946575,162.067568 C188.179804,162.067568 188.368873,162.256637 188.368873,162.489865 C188.368873,162.723093 188.179804,162.912162 187.946575,162.912162 L157.899013,162.912162 C157.665785,162.912162 157.476716,162.723093 157.476716,162.489865 C157.476716,162.256637 157.665785,162.067568 157.899013,162.067568 L187.946575,162.067568 Z M72.9465753,162.067568 C73.1798036,162.067568 73.3688725,162.256637 73.3688725,162.489865 C73.3688725,162.723093 73.1798036,162.912162 72.9465753,162.912162 L42.899013,162.912162 C42.6657846,162.912162 42.4767157,162.723093 42.4767157,162.489865 C42.4767157,162.256637 42.6657846,162.067568 42.899013,162.067568 L72.9465753,162.067568 Z M305.508363,162.067568 C305.742123,162.067568 305.931623,162.256637 305.931623,162.489865 C305.931623,162.723093 305.742123,162.912162 305.508363,162.912162 C305.274603,162.912162 305.085103,162.723093 305.085103,162.489865 C305.085103,162.256637 305.274603,162.067568 305.508363,162.067568 Z M102.192947,119.499168 C102.473331,119.499168 102.700627,119.726465 102.700627,120.006849 C102.700627,120.25608 102.521035,120.463364 102.284203,120.506351 L102.192947,120.51453 L91.895561,120.51453 C91.6151766,120.51453 91.3878802,120.287234 91.3878802,120.006849 C91.3878802,119.757619 91.5674724,119.550334 91.8043047,119.507348 L91.895561,119.499168 L102.192947,119.499168 Z M217.192947,119.499168 C217.473331,119.499168 217.700627,119.726465 217.700627,120.006849 C217.700627,120.25608 217.521035,120.463364 217.284203,120.506351 L217.192947,120.51453 L206.895561,120.51453 C206.615177,120.51453 206.38788,120.287234 206.38788,120.006849 C206.38788,119.757619 206.567472,119.550334 206.804305,119.507348 L206.895561,119.499168 L217.192947,119.499168 Z M244.652642,119.499168 C244.933026,119.499168 245.160322,119.726465 245.160322,120.006849 C245.160322,120.25608 244.98073,120.463364 244.743898,120.506351 L244.652642,120.51453 L234.355256,120.51453 C234.074872,120.51453 233.847575,120.287234 233.847575,120.006849 C233.847575,119.757619 234.027167,119.550334 234.264,119.507348 L234.355256,119.499168 L244.652642,119.499168 Z M115.922794,119.499168 C116.203179,119.499168 116.430475,119.726465 116.430475,120.006849 C116.430475,120.25608 116.250883,120.463364 116.01405,120.506351 L115.922794,120.51453 L105.625408,120.51453 C105.345024,120.51453 105.117728,120.287234 105.117728,120.006849 C105.117728,119.757619 105.29732,119.550334 105.534152,119.507348 L105.625408,119.499168 L115.922794,119.499168 Z M258.382489,119.499168 C258.662873,119.499168 258.89017,119.726465 258.89017,120.006849 C258.89017,120.25608 258.710578,120.463364 258.473745,120.506351 L258.382489,120.51453 L248.085103,120.51453 C247.804719,120.51453 247.577423,120.287234 247.577423,120.006849 C247.577423,119.757619 247.757015,119.550334 247.993847,119.507348 L248.085103,119.499168 L258.382489,119.499168 Z M143.382489,119.499168 C143.662873,119.499168 143.89017,119.726465 143.89017,120.006849 C143.89017,120.25608 143.710578,120.463364 143.473745,120.506351 L143.382489,120.51453 L133.085103,120.51453 C132.804719,120.51453 132.577423,120.287234 132.577423,120.006849 C132.577423,119.757619 132.757015,119.550334 132.993847,119.507348 L133.085103,119.499168 L143.382489,119.499168 Z M230.922794,119.499168 C231.203179,119.499168 231.430475,119.726465 231.430475,120.006849 C231.430475,120.25608 231.250883,120.463364 231.01405,120.506351 L230.922794,120.51453 L220.625408,120.51453 C220.345024,120.51453 220.117728,120.287234 220.117728,120.006849 C220.117728,119.757619 220.29732,119.550334 220.534152,119.507348 L220.625408,119.499168 L230.922794,119.499168 Z M129.652642,119.499168 C129.933026,119.499168 130.160322,119.726465 130.160322,120.006849 C130.160322,120.25608 129.98073,120.463364 129.743898,120.506351 L129.652642,120.51453 L119.355256,120.51453 C119.074872,120.51453 118.847575,120.287234 118.847575,120.006849 C118.847575,119.757619 119.027167,119.550334 119.264,119.507348 L119.355256,119.499168 L129.652642,119.499168 Z M273.625,104.885135 C274.559011,104.885135 275.316176,105.640579 275.316176,106.572466 C275.316176,107.504354 274.559011,108.259798 273.625,108.259798 C272.690989,108.259798 271.933824,107.504354 271.933824,106.572466 C271.933824,105.640579 272.690989,104.885135 273.625,104.885135 Z M158.625,104.885135 C159.559011,104.885135 160.316176,105.640579 160.316176,106.572466 C160.316176,107.504354 159.559011,108.259798 158.625,108.259798 C157.690989,108.259798 156.933824,107.504354 156.933824,106.572466 C156.933824,105.640579 157.690989,104.885135 158.625,104.885135 Z M215.476716,80.1232877 C218.83311,80.1232877 221.554466,82.8384562 221.554466,86.1883562 C221.554466,89.5382561 218.83311,92.2534247 215.476716,92.2534247 C212.120321,92.2534247 209.398965,89.5382561 209.398965,86.1883562 C209.398965,82.8384562 212.120321,80.1232877 215.476716,80.1232877 Z M134.801334,80.1232877 C135.725183,80.1232877 136.620664,80.3294823 137.435614,80.7211715 C137.684501,80.8407944 137.789291,81.139531 137.669668,81.3884185 C137.550045,81.637306 137.251308,81.7420957 137.002421,81.6224729 C136.32194,81.2954132 135.574417,81.1232877 134.801334,81.1232877 C131.996716,81.1232877 129.723584,83.3912512 129.723584,86.1883562 C129.723584,88.9854611 131.996716,91.2534247 134.801334,91.2534247 C137.605953,91.2534247 139.879085,88.9854611 139.879085,86.1883562 C139.879085,85.1462692 139.563464,84.1525667 138.982766,83.313822 C138.825578,83.0867836 138.882203,82.7753063 139.109241,82.618118 C139.336279,82.4609297 139.647757,82.5175545 139.804945,82.7445929 C140.500501,83.749235 140.879085,84.9411716 140.879085,86.1883562 C140.879085,89.5382561 138.157729,92.2534247 134.801334,92.2534247 C131.44494,92.2534247 128.723584,89.5382561 128.723584,86.1883562 C128.723584,82.8384562 131.44494,80.1232877 134.801334,80.1232877 Z M100.476716,80.1232877 C103.83311,80.1232877 106.554466,82.8384562 106.554466,86.1883562 C106.554466,89.5382561 103.83311,92.2534247 100.476716,92.2534247 C97.1203212,92.2534247 94.3989651,89.5382561 94.3989651,86.1883562 C94.3989651,82.8384562 97.1203212,80.1232877 100.476716,80.1232877 Z M249.801334,80.1232877 C250.725183,80.1232877 251.620664,80.3294823 252.435614,80.7211715 C252.684501,80.8407944 252.789291,81.139531 252.669668,81.3884185 C252.550045,81.637306 252.251308,81.7420957 252.002421,81.6224729 C251.32194,81.2954132 250.574417,81.1232877 249.801334,81.1232877 C246.996716,81.1232877 244.723584,83.3912512 244.723584,86.1883562 C244.723584,88.9854611 246.996716,91.2534247 249.801334,91.2534247 C252.605953,91.2534247 254.879085,88.9854611 254.879085,86.1883562 C254.879085,85.1462692 254.563464,84.1525667 253.982766,83.313822 C253.825578,83.0867836 253.882203,82.7753063 254.109241,82.618118 C254.336279,82.4609297 254.647757,82.5175545 254.804945,82.7445929 C255.500501,83.749235 255.879085,84.9411716 255.879085,86.1883562 C255.879085,89.5382561 253.157729,92.2534247 249.801334,92.2534247 C246.44494,92.2534247 243.723584,89.5382561 243.723584,86.1883562 C243.723584,82.8384562 246.44494,80.1232877 249.801334,80.1232877 Z M215.476716,81.1232877 C212.672097,81.1232877 210.398965,83.3912512 210.398965,86.1883562 C210.398965,88.9854611 212.672097,91.2534247 215.476716,91.2534247 C218.281334,91.2534247 220.554466,88.9854611 220.554466,86.1883562 C220.554466,83.3912512 218.281334,81.1232877 215.476716,81.1232877 Z M100.476716,81.1232877 C97.672097,81.1232877 95.3989651,83.3912512 95.3989651,86.1883562 C95.3989651,88.9854611 97.672097,91.2534247 100.476716,91.2534247 C103.281334,91.2534247 105.554466,88.9854611 105.554466,86.1883562 C105.554466,83.3912512 103.281334,81.1232877 100.476716,81.1232877 Z M215.476716,83.5479452 C215.722176,83.5479452 215.926324,83.7248204 215.96866,83.9580696 L215.976716,84.0479452 L215.976427,84.9819452 L216.640513,84.3209015 C216.814277,84.1475328 217.083723,84.1285543 217.278438,84.2637719 L217.34762,84.3217061 C217.520988,84.49547 217.539967,84.7649162 217.404749,84.9596308 L217.346815,85.0288128 L216.684427,85.6879452 L217.622004,85.6883562 C217.867464,85.6883562 218.071613,85.8652313 218.113949,86.0984805 L218.122004,86.1883562 C218.122004,86.4338161 217.945129,86.6379645 217.71188,86.6803005 L217.622004,86.6883562 L216.685427,86.6879452 L217.346815,87.3478995 C217.520578,87.5212684 217.54017,87.7906707 217.405396,87.9856925 L217.34762,88.0550063 C217.174251,88.2287698 216.904848,88.2483616 216.709827,88.1135876 L216.640513,88.055811 L215.976427,87.3929452 L215.976716,88.3287671 C215.976716,88.574227 215.799841,88.7783755 215.566591,88.8207115 L215.476716,88.8287671 C215.231256,88.8287671 215.027107,88.651892 214.984771,88.4186428 L214.976716,88.3287671 L214.976427,87.3929452 L214.312919,88.055811 C214.139155,88.2291795 213.869708,88.248158 213.674994,88.1129404 L213.605812,88.0550063 C213.432443,87.8812423 213.413465,87.6117961 213.548682,87.4170815 L213.606617,87.3478995 L214.267427,86.6879452 L213.331427,86.6883562 C213.085967,86.6883562 212.881819,86.511481 212.839483,86.2782318 L212.831427,86.1883562 C212.831427,85.9428963 213.008302,85.7387478 213.241551,85.6964118 L213.331427,85.6883562 L214.268427,85.6879452 L213.606617,85.0288128 C213.432853,84.8554439 213.413261,84.5860416 213.548035,84.3910198 L213.605812,84.3217061 C213.779181,84.1479425 214.048583,84.1283507 214.243605,84.2631249 L214.312918,84.3209015 L214.976427,84.9819452 L214.976716,84.0479452 C214.976716,83.8024853 215.153591,83.5983368 215.38684,83.5560009 L215.476716,83.5479452 Z M135.65945,83.5479452 C135.90491,83.5479452 136.109058,83.7248204 136.151394,83.9580696 L136.15945,84.0479452 L136.158461,84.8299452 L136.941283,84.8300107 C137.217425,84.8300107 137.441283,85.0538683 137.441283,85.3300107 C137.441283,85.5754706 137.264407,85.7796191 137.031158,85.821955 L136.941283,85.8300107 L136.158461,85.8299452 L136.158461,86.5459452 L136.941283,86.5462416 C137.217425,86.5462416 137.441283,86.7700992 137.441283,87.0462416 C137.441283,87.2917015 137.264407,87.49585 137.031158,87.538186 L136.941283,87.5462416 L136.158461,87.5459452 L136.15945,88.3287671 C136.15945,88.6049095 135.935592,88.8287671 135.65945,88.8287671 C135.41399,88.8287671 135.209842,88.651892 135.167506,88.4186428 L135.15945,88.3287671 L135.158461,87.5459452 L134.442461,87.5459452 L134.443219,88.3287671 C134.443219,88.6049095 134.219361,88.8287671 133.943219,88.8287671 C133.697759,88.8287671 133.493611,88.651892 133.451275,88.4186428 L133.443219,88.3287671 L133.442461,87.5459452 L132.660461,87.5462416 C132.384318,87.5462416 132.160461,87.322384 132.160461,87.0462416 C132.160461,86.8007817 132.337336,86.5966333 132.570585,86.5542973 L132.660461,86.5462416 L133.442461,86.5459452 L133.442461,85.8299452 L132.660461,85.8300107 C132.384318,85.8300107 132.160461,85.6061531 132.160461,85.3300107 C132.160461,85.0845508 132.337336,84.8804023 132.570585,84.8380664 L132.660461,84.8300107 L133.442461,84.8299452 L133.443219,84.0479452 C133.443219,83.7718028 133.667077,83.5479452 133.943219,83.5479452 C134.188679,83.5479452 134.392827,83.7248204 134.435163,83.9580696 L134.443219,84.0479452 L134.442461,84.8299452 L135.158461,84.8299452 L135.15945,84.0479452 C135.15945,83.7718028 135.383308,83.5479452 135.65945,83.5479452 Z M250.65945,83.5479452 C250.90491,83.5479452 251.109058,83.7248204 251.151394,83.9580696 L251.15945,84.0479452 L251.158461,84.8299452 L251.941283,84.8300107 C252.217425,84.8300107 252.441283,85.0538683 252.441283,85.3300107 C252.441283,85.5754706 252.264407,85.7796191 252.031158,85.821955 L251.941283,85.8300107 L251.158461,85.8299452 L251.158461,86.5459452 L251.941283,86.5462416 C252.217425,86.5462416 252.441283,86.7700992 252.441283,87.0462416 C252.441283,87.2917015 252.264407,87.49585 252.031158,87.538186 L251.941283,87.5462416 L251.158461,87.5459452 L251.15945,88.3287671 C251.15945,88.6049095 250.935592,88.8287671 250.65945,88.8287671 C250.41399,88.8287671 250.209842,88.651892 250.167506,88.4186428 L250.15945,88.3287671 L250.158461,87.5459452 L249.442461,87.5459452 L249.443219,88.3287671 C249.443219,88.6049095 249.219361,88.8287671 248.943219,88.8287671 C248.697759,88.8287671 248.493611,88.651892 248.451275,88.4186428 L248.443219,88.3287671 L248.442461,87.5459452 L247.660461,87.5462416 C247.384318,87.5462416 247.160461,87.322384 247.160461,87.0462416 C247.160461,86.8007817 247.337336,86.5966333 247.570585,86.5542973 L247.660461,86.5462416 L248.442461,86.5459452 L248.442461,85.8299452 L247.660461,85.8300107 C247.384318,85.8300107 247.160461,85.6061531 247.160461,85.3300107 C247.160461,85.0845508 247.337336,84.8804023 247.570585,84.8380664 L247.660461,84.8300107 L248.442461,84.8299452 L248.443219,84.0479452 C248.443219,83.7718028 248.667077,83.5479452 248.943219,83.5479452 C249.188679,83.5479452 249.392827,83.7248204 249.435163,83.9580696 L249.443219,84.0479452 L249.442461,84.8299452 L250.158461,84.8299452 L250.15945,84.0479452 C250.15945,83.7718028 250.383308,83.5479452 250.65945,83.5479452 Z M100.476716,83.5479452 C100.722176,83.5479452 100.926324,83.7248204 100.96866,83.9580696 L100.976716,84.0479452 L100.976427,84.9819452 L101.640513,84.3209015 C101.814277,84.1475328 102.083723,84.1285543 102.278438,84.2637719 L102.34762,84.3217061 C102.520988,84.49547 102.539967,84.7649162 102.404749,84.9596308 L102.346815,85.0288128 L101.684427,85.6879452 L102.622004,85.6883562 C102.867464,85.6883562 103.071613,85.8652313 103.113949,86.0984805 L103.122004,86.1883562 C103.122004,86.4338161 102.945129,86.6379645 102.71188,86.6803005 L102.622004,86.6883562 L101.685427,86.6879452 L102.346815,87.3478995 C102.520578,87.5212684 102.54017,87.7906707 102.405396,87.9856925 L102.34762,88.0550063 C102.174251,88.2287698 101.904848,88.2483616 101.709827,88.1135876 L101.640513,88.055811 L100.976427,87.3929452 L100.976716,88.3287671 C100.976716,88.574227 100.799841,88.7783755 100.566591,88.8207115 L100.476716,88.8287671 C100.231256,88.8287671 100.027107,88.651892 99.9847714,88.4186428 L99.9767157,88.3287671 L99.976427,87.3929452 L99.3129185,88.055811 C99.1391545,88.2291795 98.8697083,88.248158 98.6749938,88.1129404 L98.6058117,88.0550063 C98.4324432,87.8812423 98.4134648,87.6117961 98.5486824,87.4170815 L98.6066165,87.3478995 L99.267427,86.6879452 L98.331427,86.6883562 C98.0859671,86.6883562 97.8818186,86.511481 97.8394827,86.2782318 L97.831427,86.1883562 C97.831427,85.9428963 98.0083022,85.7387478 98.2415514,85.6964118 L98.331427,85.6883562 L99.268427,85.6879452 L98.6066165,85.0288128 C98.4328529,84.8554439 98.4132612,84.5860416 98.5480352,84.3910198 L98.6058117,84.3217061 C98.7791806,84.1479425 99.0485829,84.1283507 99.2436046,84.2631249 L99.3129183,84.3209015 L99.976427,84.9819452 L99.9767157,84.0479452 C99.9767157,83.8024853 100.153591,83.5983368 100.38684,83.5560009 L100.476716,83.5479452 Z M250.158461,85.8299452 L249.442461,85.8299452 L249.442461,86.5459452 L250.158461,86.5459452 L250.158461,85.8299452 Z M135.158461,85.8299452 L134.442461,85.8299452 L134.442461,86.5459452 L135.158461,86.5459452 L135.158461,85.8299452 Z M59.6911765,57.5878378 C60.6251874,57.5878378 61.3823529,58.3432818 61.3823529,59.2751691 C61.3823529,60.2070564 60.6251874,60.9625004 59.6911765,60.9625004 C58.7571655,60.9625004 58,60.2070564 58,59.2751691 C58,58.3432818 58.7571655,57.5878378 59.6911765,57.5878378 Z M174.691176,57.5878378 C175.625187,57.5878378 176.382353,58.3432818 176.382353,59.2751691 C176.382353,60.2070564 175.625187,60.9625004 174.691176,60.9625004 C173.757165,60.9625004 173,60.2070564 173,59.2751691 C173,58.3432818 173.757165,57.5878378 174.691176,57.5878378 Z M133.508363,6.06756757 C133.742123,6.06756757 133.931623,6.25663651 133.931623,6.48986486 C133.931623,6.72309322 133.742123,6.91216216 133.508363,6.91216216 C133.274603,6.91216216 133.085103,6.72309322 133.085103,6.48986486 C133.085103,6.25663651 133.274603,6.06756757 133.508363,6.06756757 Z M130.946575,6.06756757 C131.179804,6.06756757 131.368873,6.25663651 131.368873,6.48986486 C131.368873,6.72309322 131.179804,6.91216216 130.946575,6.91216216 L100.899013,6.91216216 C100.665785,6.91216216 100.476716,6.72309322 100.476716,6.48986486 C100.476716,6.25663651 100.665785,6.06756757 100.899013,6.06756757 L130.946575,6.06756757 Z M245.946575,6.06756757 C246.179804,6.06756757 246.368873,6.25663651 246.368873,6.48986486 C246.368873,6.72309322 246.179804,6.91216216 245.946575,6.91216216 L215.899013,6.91216216 C215.665785,6.91216216 215.476716,6.72309322 215.476716,6.48986486 C215.476716,6.25663651 215.665785,6.06756757 215.899013,6.06756757 L245.946575,6.06756757 Z" id="Combined-Shape" fill="#C5C6C6" fill-rule="nonzero"></path>
			<ellipse id="Oval" fill="#C5C6C6" cx="311.764706" cy="119.756757" rx="6.76470588" ry="6.75675676"></ellipse>
			<circle id="Oval-Copy-25" fill="#C5C6C6" cx="40.5" cy="94.5" r="10.5"></circle>
			<ellipse id="Oval-Copy-13" fill="#C5C6C6" cx="330.625" cy="310.572466" rx="1.69117647" ry="1.68733127"></ellipse>
			<ellipse id="Oval-Copy-13" fill="#C5C6C6" cx="100.625" cy="310.572466" rx="1.69117647" ry="1.68733127"></ellipse>
			<path d="M86.209695,15.9828767 L86.209695,6.1369863 C86.209695,3.71450332 88.1786752,1.75 90.6083878,1.75 L144.669662,1.75 C147.099375,1.75 149.068355,3.71450332 149.068355,6.1369863 L149.068355,120.863014 C149.068355,123.285497 147.099375,125.25 144.669662,125.25 L90.6083878,125.25 C88.1786752,125.25 86.209695,123.285497 86.209695,120.863014 L86.209695,21.6432604 C86.209695,21.2290468 85.8739086,20.8932604 85.459695,20.8932604 C85.0454814,20.8932604 84.709695,21.2290468 84.709695,21.6432604 L84.709695,120.863014 C84.709695,124.114689 87.3510114,126.75 90.6083878,126.75 L144.669662,126.75 C147.927039,126.75 150.568355,124.114689 150.568355,120.863014 L150.568355,6.1369863 C150.568355,2.88531089 147.927039,0.25 144.669662,0.25 L90.6083878,0.25 C87.3510114,0.25 84.709695,2.88531089 84.709695,6.1369863 L84.709695,15.9828767 C84.709695,16.3970903 85.0454814,16.7328767 85.459695,16.7328767 C85.8739086,16.7328767 86.209695,16.3970903 86.209695,15.9828767 Z" id="Path" fill="#C5C6C6" fill-rule="nonzero"></path>
			<path d="M201.209695,15.9828767 L201.209695,6.1369863 C201.209695,3.71450332 203.178675,1.75 205.608388,1.75 L259.669662,1.75 C262.099375,1.75 264.068355,3.71450332 264.068355,6.1369863 L264.068355,120.863014 C264.068355,123.285497 262.099375,125.25 259.669662,125.25 L205.608388,125.25 C203.178675,125.25 201.209695,123.285497 201.209695,120.863014 L201.209695,21.6432604 C201.209695,21.2290468 200.873909,20.8932604 200.459695,20.8932604 C200.045481,20.8932604 199.709695,21.2290468 199.709695,21.6432604 L199.709695,120.863014 C199.709695,124.114689 202.351011,126.75 205.608388,126.75 L259.669662,126.75 C262.927039,126.75 265.568355,124.114689 265.568355,120.863014 L265.568355,6.1369863 C265.568355,2.88531089 262.927039,0.25 259.669662,0.25 L205.608388,0.25 C202.351011,0.25 199.709695,2.88531089 199.709695,6.1369863 L199.709695,15.9828767 C199.709695,16.3970903 200.045481,16.7328767 200.459695,16.7328767 C200.873909,16.7328767 201.209695,16.3970903 201.209695,15.9828767 Z" id="Path" fill="#C5C6C6" fill-rule="nonzero"></path>
			<path d="M28.209695,171.982877 L28.209695,162.136986 C28.209695,159.714503 30.1786752,157.75 32.6083878,157.75 L86.6696623,157.75 C89.099375,157.75 91.0683551,159.714503 91.0683551,162.136986 L91.0683551,276.863014 C91.0683551,279.285497 89.099375,281.25 86.6696623,281.25 L32.6083878,281.25 C30.1786752,281.25 28.209695,279.285497 28.209695,276.863014 L28.209695,177.64326 C28.209695,177.229047 27.8739086,176.89326 27.459695,176.89326 C27.0454814,176.89326 26.709695,177.229047 26.709695,177.64326 L26.709695,276.863014 C26.709695,280.114689 29.3510114,282.75 32.6083878,282.75 L86.6696623,282.75 C89.9270387,282.75 92.5683551,280.114689 92.5683551,276.863014 L92.5683551,162.136986 C92.5683551,158.885311 89.9270387,156.25 86.6696623,156.25 L32.6083878,156.25 C29.3510114,156.25 26.709695,158.885311 26.709695,162.136986 L26.709695,171.982877 C26.709695,172.39709 27.0454814,172.732877 27.459695,172.732877 C27.8739086,172.732877 28.209695,172.39709 28.209695,171.982877 Z" id="Path" fill="#C5C6C6" fill-rule="nonzero"></path>
			<path d="M143.209695,171.982877 L143.209695,162.136986 C143.209695,159.714503 145.178675,157.75 147.608388,157.75 L201.669662,157.75 C204.099375,157.75 206.068355,159.714503 206.068355,162.136986 L206.068355,276.863014 C206.068355,279.285497 204.099375,281.25 201.669662,281.25 L147.608388,281.25 C145.178675,281.25 143.209695,279.285497 143.209695,276.863014 L143.209695,177.64326 C143.209695,177.229047 142.873909,176.89326 142.459695,176.89326 C142.045481,176.89326 141.709695,177.229047 141.709695,177.64326 L141.709695,276.863014 C141.709695,280.114689 144.351011,282.75 147.608388,282.75 L201.669662,282.75 C204.927039,282.75 207.568355,280.114689 207.568355,276.863014 L207.568355,162.136986 C207.568355,158.885311 204.927039,156.25 201.669662,156.25 L147.608388,156.25 C144.351011,156.25 141.709695,158.885311 141.709695,162.136986 L141.709695,171.982877 C141.709695,172.39709 142.045481,172.732877 142.459695,172.732877 C142.873909,172.732877 143.209695,172.39709 143.209695,171.982877 Z" id="Path" fill="#C5C6C6" fill-rule="nonzero"></path>
			<path d="M258.209695,171.982877 L258.209695,162.136986 C258.209695,159.714503 260.178675,157.75 262.608388,157.75 L316.669662,157.75 C319.099375,157.75 321.068355,159.714503 321.068355,162.136986 L321.068355,276.863014 C321.068355,279.285497 319.099375,281.25 316.669662,281.25 L262.608388,281.25 C260.178675,281.25 258.209695,279.285497 258.209695,276.863014 L258.209695,177.64326 C258.209695,177.229047 257.873909,176.89326 257.459695,176.89326 C257.045481,176.89326 256.709695,177.229047 256.709695,177.64326 L256.709695,276.863014 C256.709695,280.114689 259.351011,282.75 262.608388,282.75 L316.669662,282.75 C319.927039,282.75 322.568355,280.114689 322.568355,276.863014 L322.568355,162.136986 C322.568355,158.885311 319.927039,156.25 316.669662,156.25 L262.608388,156.25 C259.351011,156.25 256.709695,158.885311 256.709695,162.136986 L256.709695,171.982877 C256.709695,172.39709 257.045481,172.732877 257.459695,172.732877 C257.873909,172.732877 258.209695,172.39709 258.209695,171.982877 Z" id="Path" fill="#C5C6C6" fill-rule="nonzero"></path>
		</g>
	</g>
</svg>
