<svg width="300" height="227" viewBox="0 0 300 227" fill="none" xmlns="http://www.w3.org/2000/svg">
<rect x="15.2073" y="15.2074" width="284.793" height="176.959" rx="7" fill="#E5CFC7"/>
<circle cx="145.161" cy="158.986" r="5.52995" fill="#291D18"/>
<path fill-rule="evenodd" clip-rule="evenodd" d="M55.9856 190.783H234.337C236.627 190.783 238.484 192.64 238.484 194.931C238.484 195.235 238.451 195.539 238.384 195.835L233.171 219.161C232.183 223.584 228.258 226.728 223.727 226.728H66.5955C62.064 226.728 58.1393 223.584 57.151 219.161L51.938 195.835C51.4384 193.6 52.8456 191.383 55.0811 190.883C55.378 190.817 55.6814 190.783 55.9856 190.783ZM234.337 193.548H55.9856C55.8842 193.548 55.7831 193.56 55.6841 193.582C54.939 193.748 54.4699 194.487 54.6364 195.232L59.8494 218.558C60.5554 221.717 63.3587 223.963 66.5955 223.963H223.727C226.964 223.963 229.767 221.717 230.473 218.558L235.686 195.232C235.708 195.133 235.719 195.032 235.719 194.931C235.719 194.167 235.1 193.548 234.337 193.548Z" fill="#291D18"/>
<path d="M125.806 207.373C126.57 207.373 127.189 207.992 127.189 208.756C127.189 209.465 126.655 210.049 125.968 210.129L125.806 210.138H70.5069C69.7434 210.138 69.1244 209.519 69.1244 208.756C69.1244 208.047 69.6581 207.462 70.3457 207.383L70.5069 207.373H125.806Z" fill="#291D18"/>
<ellipse cx="215.668" cy="208.756" rx="4.14746" ry="4.14747" fill="#291D18"/>
<path fill-rule="evenodd" clip-rule="evenodd" d="M287.558 20.7373C287.558 11.575 280.13 4.14746 270.968 4.14746H19.3548C10.1925 4.14746 2.76495 11.575 2.76495 20.7373V164.516C2.76495 173.678 10.1925 181.106 19.3548 181.106H270.968C280.13 181.106 287.558 173.678 287.558 164.516V20.7373ZM19.3548 6.91244H270.968L271.355 6.91775C278.811 7.12267 284.793 13.2315 284.793 20.7373V164.516L284.787 164.903C284.582 172.359 278.474 178.341 270.968 178.341H19.3548L18.9678 178.336C11.5115 178.131 5.52993 172.022 5.52993 164.516V20.7373L5.53524 20.3504C5.74016 12.894 11.849 6.91244 19.3548 6.91244Z" fill="#291D18"/>
</svg>
