<svg width="115" height="150" viewBox="0 0 115 150" fill="none" xmlns="http://www.w3.org/2000/svg">
<circle cx="41.4308" cy="41.2341" r="35.1232" fill="#E5CFC7"/>
<path fill-rule="evenodd" clip-rule="evenodd" d="M18.8972 63.2519C18.6431 63.2519 18.438 63.0466 18.438 62.7923V22.0133C18.438 19.8198 20.2197 18.0368 22.4117 18.0368H63.1716C63.4257 18.0368 63.6309 18.2421 63.6309 18.4963C63.6309 18.7506 63.4257 18.9559 63.1716 18.9559H22.4117C20.7264 18.9559 19.3564 20.3283 19.3564 22.0133V62.7923C19.3564 63.0466 19.1513 63.2519 18.8972 63.2519Z" fill="#291D18"/>
<path fill-rule="evenodd" clip-rule="evenodd" d="M66.9464 39.8727H32.9048C32.7364 39.8727 32.5986 39.7348 32.5986 39.5663C32.5986 39.3963 32.7364 39.2599 32.9048 39.2599H66.9464C67.1148 39.2599 67.2525 39.3963 67.2525 39.5663C67.2525 39.7348 67.1148 39.8727 66.9464 39.8727Z" fill="#291D18"/>
<path fill-rule="evenodd" clip-rule="evenodd" d="M64.8447 47.3938H32.9048C32.7364 47.3938 32.5986 47.2559 32.5986 47.0874C32.5986 46.9174 32.7364 46.7811 32.9048 46.7811H64.8447C65.0131 46.7811 65.1508 46.9174 65.1508 47.0874C65.1508 47.2559 65.0131 47.3938 64.8447 47.3938Z" fill="#291D18"/>
<path fill-rule="evenodd" clip-rule="evenodd" d="M60.7011 54.9154H32.9048C32.7364 54.9154 32.5986 54.7776 32.5986 54.6091C32.5986 54.4391 32.7364 54.3027 32.9048 54.3027H60.7011C60.8694 54.3027 61.0072 54.4391 61.0072 54.6091C61.0072 54.7776 60.8694 54.9154 60.7011 54.9154Z" fill="#291D18"/>
<path fill-rule="evenodd" clip-rule="evenodd" d="M52.9393 62.4365H32.9053C32.7369 62.4365 32.5991 62.2986 32.5991 62.1301C32.5991 61.9601 32.7369 61.8238 32.9053 61.8238H52.9393C53.1077 61.8238 53.2454 61.9601 53.2454 62.1301C53.2454 62.2986 53.1077 62.4365 52.9393 62.4365Z" fill="#291D18"/>
<path fill-rule="evenodd" clip-rule="evenodd" d="M78.6559 49.8845H68.4622C68.304 49.8845 68.1772 49.7469 68.1772 49.5786C68.1772 49.4088 68.304 49.2727 68.4622 49.2727H78.6559C78.8126 49.2727 78.9408 49.4088 78.9408 49.5786C78.9408 49.7469 78.8126 49.8845 78.6559 49.8845Z" fill="#291D18"/>
<path fill-rule="evenodd" clip-rule="evenodd" d="M78.6346 46.5042H69.2544C69.086 46.5042 68.9482 46.3663 68.9482 46.1978C68.9482 46.0278 69.086 45.8915 69.2544 45.8915H78.6346C78.803 45.8915 78.9408 46.0278 78.9408 46.1978C78.9408 46.3663 78.803 46.5042 78.6346 46.5042Z" fill="#291D18"/>
<path fill-rule="evenodd" clip-rule="evenodd" d="M78.6348 43.1218H70.2495C70.0811 43.1218 69.9434 42.9839 69.9434 42.8155C69.9434 42.6454 70.0811 42.5091 70.2495 42.5091H78.6348C78.8031 42.5091 78.9409 42.6454 78.9409 42.8155C78.9409 42.9839 78.8031 43.1218 78.6348 43.1218Z" fill="#291D18"/>
<path fill-rule="evenodd" clip-rule="evenodd" d="M70.2143 60.0941H61.2627C61.0943 60.0941 60.9565 59.9562 60.9565 59.7877C60.9565 59.6177 61.0943 59.4814 61.2627 59.4814H70.2143C70.3827 59.4814 70.5205 59.6177 70.5205 59.7877C70.5205 59.9562 70.3827 60.0941 70.2143 60.0941Z" fill="#291D18"/>
<path fill-rule="evenodd" clip-rule="evenodd" d="M78.6175 56.7102H63.9697C63.7904 56.7102 63.645 56.5726 63.645 56.4043C63.645 56.2345 63.7904 56.0984 63.9697 56.0984H78.6175C78.7952 56.0984 78.9406 56.2345 78.9406 56.4043C78.9406 56.5726 78.7952 56.7102 78.6175 56.7102Z" fill="#291D18"/>
<path fill-rule="evenodd" clip-rule="evenodd" d="M78.6349 53.3299H66.5361C66.3662 53.3299 66.23 53.192 66.23 53.0235C66.23 52.8535 66.3662 52.7172 66.5361 52.7172H78.6349C78.8033 52.7172 78.941 52.8535 78.941 53.0235C78.941 53.192 78.8033 53.3299 78.6349 53.3299Z" fill="#291D18"/>
<path fill-rule="evenodd" clip-rule="evenodd" d="M63.555 85.0759H33.0769C32.8993 85.0759 32.7539 84.9304 32.7539 84.7527C32.7539 84.575 32.8993 84.4295 33.0769 84.4295H63.555C63.7325 84.4295 63.878 84.575 63.878 84.7527C63.878 84.9304 63.7325 85.0759 63.555 85.0759Z" fill="#291D18"/>
<path fill-rule="evenodd" clip-rule="evenodd" d="M63.6882 81.694H33.0769C32.8993 81.694 32.7539 81.5484 32.7539 81.3707C32.7539 81.1931 32.8993 81.0475 33.0769 81.0475H63.6882C63.8657 81.0475 64.0111 81.1931 64.0111 81.3707C64.0111 81.5484 63.8657 81.694 63.6882 81.694Z" fill="#291D18"/>
<path fill-rule="evenodd" clip-rule="evenodd" d="M63.5835 78.3105H33.0779C32.9003 78.3105 32.7549 78.165 32.7549 77.9873C32.7549 77.8096 32.9003 77.6641 33.0779 77.6641H63.5835C63.7611 77.6641 63.9065 77.8096 63.9065 77.9873C63.9065 78.165 63.7611 78.3105 63.5835 78.3105Z" fill="#291D18"/>
<path fill-rule="evenodd" clip-rule="evenodd" d="M51.5164 95.284H33.0774C32.8998 95.284 32.7544 95.1385 32.7544 94.9608C32.7544 94.7831 32.8998 94.6376 33.0774 94.6376H51.5164C51.694 94.6376 51.8394 94.7831 51.8394 94.9608C51.8394 95.1385 51.694 95.284 51.5164 95.284Z" fill="#291D18"/>
<path fill-rule="evenodd" clip-rule="evenodd" d="M63.6882 91.9015H33.0769C32.8993 91.9015 32.7539 91.756 32.7539 91.5783C32.7539 91.4006 32.8993 91.2551 33.0769 91.2551H63.6882C63.8657 91.2551 64.0111 91.4006 64.0111 91.5783C64.0111 91.756 63.8657 91.9015 63.6882 91.9015Z" fill="#291D18"/>
<path fill-rule="evenodd" clip-rule="evenodd" d="M63.5835 88.5197H33.0779C32.9003 88.5197 32.7549 88.3742 32.7549 88.1965C32.7549 88.0188 32.9003 87.8733 33.0779 87.8733H63.5835C63.7611 87.8733 63.9065 88.0188 63.9065 88.1965C63.9065 88.3742 63.7611 88.5197 63.5835 88.5197Z" fill="#291D18"/>
<path fill-rule="evenodd" clip-rule="evenodd" d="M104.149 85.0759H73.6706C73.4931 85.0759 73.3477 84.9304 73.3477 84.7527C73.3477 84.575 73.4931 84.4295 73.6706 84.4295H104.149C104.326 84.4295 104.472 84.575 104.472 84.7527C104.472 84.9304 104.326 85.0759 104.149 85.0759Z" fill="#291D18"/>
<path fill-rule="evenodd" clip-rule="evenodd" d="M104.282 81.694H73.6706C73.4931 81.694 73.3477 81.5484 73.3477 81.3707C73.3477 81.1931 73.4931 81.0475 73.6706 81.0475H104.282C104.459 81.0475 104.605 81.1931 104.605 81.3707C104.605 81.5484 104.459 81.694 104.282 81.694Z" fill="#291D18"/>
<path fill-rule="evenodd" clip-rule="evenodd" d="M104.177 78.3105H73.6701C73.4926 78.3105 73.3472 78.165 73.3472 77.9873C73.3472 77.8096 73.4926 77.6641 73.6701 77.6641H104.177C104.355 77.6641 104.5 77.8096 104.5 77.9873C104.5 78.165 104.355 78.3105 104.177 78.3105Z" fill="#291D18"/>
<path fill-rule="evenodd" clip-rule="evenodd" d="M87.2705 95.284H73.5873C73.4556 95.284 73.3477 95.1385 73.3477 94.9608C73.3477 94.7831 73.4556 94.6376 73.5873 94.6376H87.2705C87.4023 94.6376 87.5102 94.7831 87.5102 94.9608C87.5102 95.1385 87.4023 95.284 87.2705 95.284Z" fill="#291D18"/>
<path fill-rule="evenodd" clip-rule="evenodd" d="M104.282 91.9015H73.6706C73.4931 91.9015 73.3477 91.756 73.3477 91.5783C73.3477 91.4006 73.4931 91.2551 73.6706 91.2551H104.282C104.459 91.2551 104.605 91.4006 104.605 91.5783C104.605 91.756 104.459 91.9015 104.282 91.9015Z" fill="#291D18"/>
<path fill-rule="evenodd" clip-rule="evenodd" d="M104.177 88.5197H73.6701C73.4926 88.5197 73.3472 88.3742 73.3472 88.1965C73.3472 88.0188 73.4926 87.8733 73.6701 87.8733H104.177C104.355 87.8733 104.5 88.0188 104.5 88.1965C104.5 88.3742 104.355 88.5197 104.177 88.5197Z" fill="#291D18"/>
<path fill-rule="evenodd" clip-rule="evenodd" d="M33.0934 117.325C32.9158 117.325 32.7705 117.188 32.7705 117.019C32.7705 116.849 32.9158 116.713 33.0934 116.713H103.827C104.005 116.713 104.15 116.849 104.15 117.019C104.15 117.188 104.005 117.325 103.827 117.325H33.0934Z" fill="#291D18"/>
<path fill-rule="evenodd" clip-rule="evenodd" d="M103.83 113.943H33.0904C32.9145 113.943 32.7705 113.806 32.7705 113.637C32.7705 113.467 32.9145 113.331 33.0904 113.331H103.83C104.006 113.331 104.15 113.467 104.15 113.637C104.15 113.806 104.006 113.943 103.83 113.943Z" fill="#291D18"/>
<path fill-rule="evenodd" clip-rule="evenodd" d="M103.832 110.561H33.0897C32.9134 110.561 32.7705 110.423 32.7705 110.255C32.7705 110.085 32.9134 109.948 33.0897 109.948H103.832C104.007 109.948 104.15 110.085 104.15 110.255C104.15 110.423 104.007 110.561 103.832 110.561Z" fill="#291D18"/>
<path fill-rule="evenodd" clip-rule="evenodd" d="M72.5926 127.535H33.0771C32.9088 127.535 32.771 127.397 32.771 127.229C32.771 127.059 32.9088 126.922 33.0771 126.922H72.5926C72.761 126.922 72.8987 127.059 72.8987 127.229C72.8987 127.397 72.761 127.535 72.5926 127.535Z" fill="#291D18"/>
<path fill-rule="evenodd" clip-rule="evenodd" d="M103.823 124.153H33.0977C32.9178 124.153 32.7705 124.015 32.7705 123.846C32.7705 123.676 32.9178 123.54 33.0977 123.54H103.823C104.003 123.54 104.15 123.676 104.15 123.846C104.15 124.015 104.003 124.153 103.823 124.153Z" fill="#291D18"/>
<path fill-rule="evenodd" clip-rule="evenodd" d="M103.832 120.771H33.0897C32.9134 120.771 32.7705 120.633 32.7705 120.464C32.7705 120.294 32.9134 120.158 33.0897 120.158H103.832C104.007 120.158 104.15 120.294 104.15 120.464C104.15 120.633 104.007 120.771 103.832 120.771Z" fill="#291D18"/>
<path fill-rule="evenodd" clip-rule="evenodd" d="M62.7054 35.2249C62.7054 35.4223 62.5345 35.5692 62.313 35.5692H61.0321C60.8106 35.5692 60.6421 35.4199 60.6421 35.2225C60.6421 34.8171 61.0224 34.4558 61.3658 34.1296C61.6485 33.8611 61.9061 33.6164 61.9061 33.3903C61.9061 33.2145 61.817 33.1182 61.6702 33.1182C61.5088 33.1182 61.4363 33.1644 61.3488 33.2202C61.3345 33.2294 61.3198 33.2387 61.3042 33.2482L61.2934 33.2546C61.2409 33.286 61.167 33.3301 61.0658 33.3301C60.8492 33.3301 60.7071 33.1688 60.7071 32.9738C60.7071 32.851 60.7697 32.7378 60.8949 32.656C61.1333 32.5019 61.3861 32.4344 61.6702 32.4344C62.3106 32.4344 62.7006 32.7908 62.7006 33.3903C62.7006 33.8668 62.3607 34.1754 61.9525 34.5459L61.9523 34.5461L61.9519 34.5465C61.9045 34.5895 61.8562 34.6333 61.8074 34.6784C61.7159 34.7626 61.6533 34.8228 61.5979 34.8854H62.313C62.5345 34.8854 62.7054 35.0299 62.7054 35.2249ZM39.7397 34.6276C39.7397 35.1982 39.2871 35.5955 38.6442 35.5955C38.3336 35.5955 38.0471 35.4847 37.8016 35.2873C37.7028 35.2078 37.6402 35.0995 37.6402 34.996C37.6402 34.8082 37.7943 34.6324 38.0038 34.6324C38.117 34.6324 38.2157 34.695 38.2855 34.748L38.3039 34.7618C38.4098 34.8409 38.5077 34.9141 38.6442 34.9141C38.8344 34.9141 38.9452 34.8082 38.9452 34.6276C38.9452 34.4857 38.766 34.4065 38.5438 34.3083C38.1816 34.1481 37.7053 33.9375 37.7053 33.3227C37.7053 32.8195 38.1555 32.4367 38.7309 32.4367C39.0078 32.4367 39.2943 32.5257 39.5134 32.6967C39.6145 32.7761 39.6675 32.8749 39.6675 32.9904C39.6675 33.1903 39.5086 33.3492 39.3111 33.3492C39.2245 33.3492 39.1258 33.3179 39.0511 33.2625C38.9235 33.1662 38.8344 33.118 38.7309 33.118C38.5985 33.118 38.4998 33.2071 38.4998 33.3227C38.4998 33.4591 38.6722 33.5313 38.8884 33.6219C39.252 33.7741 39.7397 33.9783 39.7397 34.6276ZM34.5624 35.2272C34.5624 35.4246 34.4252 35.5691 34.2037 35.5691H32.9951C32.7735 35.5691 32.6074 35.4246 32.6074 35.2272V32.8003C32.6074 32.6053 32.7735 32.4632 32.9951 32.4632H34.1218C34.3433 32.4632 34.4806 32.6053 34.4806 32.8003C34.4806 33.0001 34.3409 33.1446 34.1218 33.1446H33.3899V33.6285H34.052C34.2735 33.6285 34.4107 33.773 34.4107 33.968C34.4107 34.1654 34.2735 34.3123 34.052 34.3123H33.3899V34.8877H34.2037C34.4252 34.8877 34.5624 35.0298 34.5624 35.2272ZM37.4291 35.179C37.4291 35.3957 37.2558 35.5691 37.0463 35.5691C36.8633 35.5691 36.7285 35.48 36.6587 35.2729C36.6333 35.1986 36.6078 35.1115 36.5798 35.0156L36.56 34.9479H35.6691L35.6493 35.0157L35.6493 35.0157L35.6493 35.0157C35.6213 35.1116 35.5959 35.1986 35.5704 35.2729C35.5006 35.48 35.3658 35.5691 35.1828 35.5691C34.9733 35.5691 34.8 35.3957 34.8 35.179C34.8 35.1261 34.8096 35.0875 34.8313 35.0201C34.8939 34.8227 35.3923 33.2818 35.6956 32.6679C35.7655 32.5258 35.9171 32.4632 36.1194 32.4632C36.3216 32.4632 36.4637 32.5282 36.5335 32.6679C36.8128 33.2313 37.3689 34.9142 37.3978 35.0201C37.4195 35.0875 37.4291 35.1261 37.4291 35.179ZM36.3288 34.2667H35.8979C35.9653 34.0596 36.0399 33.8357 36.1146 33.631C36.1892 33.8405 36.2614 34.0596 36.3288 34.2667ZM40.9889 35.5691C41.208 35.5691 41.3789 35.4198 41.3789 35.2224V34.3701C41.3982 34.3484 41.415 34.3291 41.4271 34.3099C41.6727 33.9271 41.9471 33.3516 42.0627 33.0844C42.0868 33.0266 42.1301 32.9159 42.1301 32.834C42.1301 32.639 41.9808 32.4632 41.7545 32.4632C41.5643 32.4632 41.4488 32.6029 41.3886 32.7497C41.2585 33.0603 41.1839 33.2288 40.9961 33.5972C40.8276 33.2722 40.6326 32.846 40.5676 32.6992C40.5001 32.5499 40.3918 32.4632 40.204 32.4632C40.0042 32.4632 39.8453 32.639 39.8453 32.834C39.8453 32.9409 39.9105 33.0794 39.9586 33.1815L39.9729 33.212C39.9794 33.2257 39.9894 33.2475 40.0025 33.2761L40.0026 33.2763L40.0027 33.2766L40.0027 33.2766C40.0911 33.4695 40.3182 33.9651 40.5507 34.3002C40.57 34.3291 40.5844 34.3484 40.5989 34.3652V35.2224C40.5989 35.4198 40.7698 35.5691 40.9889 35.5691ZM45.3222 34.6276C45.3222 35.1982 44.8695 35.5955 44.2267 35.5955C43.9161 35.5955 43.6296 35.4847 43.384 35.2873C43.2853 35.2078 43.2227 35.0995 43.2227 34.996C43.2227 34.8082 43.3768 34.6324 43.5863 34.6324C43.6994 34.6324 43.7981 34.695 43.868 34.748L43.8864 34.7618C43.9923 34.8409 44.0901 34.9141 44.2267 34.9141C44.4169 34.9141 44.5276 34.8082 44.5276 34.6276C44.5276 34.4857 44.3484 34.4065 44.1263 34.3083C43.7641 34.1481 43.2877 33.9375 43.2877 33.3227C43.2877 32.8195 43.7379 32.4367 44.3134 32.4367C44.5902 32.4367 44.8767 32.5257 45.0958 32.6967C45.197 32.7761 45.2499 32.8749 45.2499 32.9904C45.2499 33.1903 45.091 33.3492 44.8936 33.3492C44.8069 33.3492 44.7082 33.3179 44.6336 33.2625C44.506 33.1662 44.4169 33.118 44.3134 33.118C44.1809 33.118 44.0822 33.2071 44.0822 33.3227C44.0822 33.4591 44.2546 33.5313 44.4708 33.6219C44.8345 33.7741 45.3222 33.9783 45.3222 34.6276ZM47.9894 35.5691C48.2013 35.5691 48.3482 35.4824 48.418 35.362C48.5697 35.102 48.914 33.5009 48.9838 33.1398C48.9951 33.0826 49.0049 33.037 49.0132 32.9989L49.0132 32.9987L49.0133 32.9985L49.0133 32.9985C49.0313 32.9148 49.0416 32.8676 49.0416 32.8147C49.0416 32.6149 48.8754 32.4632 48.6443 32.4632C48.4397 32.4632 48.2952 32.5619 48.2567 32.7353C48.2526 32.7548 48.2438 32.7997 48.2312 32.8641C48.2194 32.9242 48.2043 33.0013 48.1866 33.0904L48.1526 33.2605C48.104 33.5014 48.0432 33.7941 47.9798 34.0739C47.8739 33.6454 47.7607 33.1831 47.6837 32.8316C47.6379 32.6269 47.467 32.533 47.2575 32.533C47.0529 32.533 46.8843 32.6269 46.8362 32.8292C46.8038 32.9642 46.7687 33.1146 46.7317 33.2734L46.7316 33.2736L46.7316 33.2737C46.6696 33.5396 46.6021 33.8288 46.5328 34.1076C46.4276 33.625 46.3354 33.1532 46.3079 33.0123L46.3078 33.0121L46.3078 33.012L46.3078 33.012L46.3041 32.9929L46.2935 32.9376C46.2814 32.8742 46.2648 32.7864 46.2559 32.7545C46.203 32.5451 46.0657 32.4632 45.8659 32.4632C45.6492 32.4632 45.4759 32.598 45.4759 32.7786C45.4759 32.8608 45.4969 32.9588 45.5255 33.092L45.5255 33.092L45.5255 33.0921L45.5255 33.0921L45.5409 33.1638L45.5569 33.242C45.6408 33.6523 45.93 35.0655 46.0994 35.362C46.1741 35.492 46.3354 35.5691 46.5256 35.5691C46.6676 35.5691 46.7663 35.533 46.8482 35.4535C46.9541 35.3524 47.0793 34.9407 47.2575 34.2714C47.4357 34.9407 47.5753 35.3596 47.6692 35.4535C47.7438 35.5281 47.8377 35.5691 47.9894 35.5691ZM50.0982 35.2224C50.0982 35.4198 49.9273 35.5691 49.7082 35.5691C49.4891 35.5691 49.3181 35.4198 49.3181 35.2224V32.8051C49.3181 32.6101 49.4867 32.4632 49.7082 32.4632C49.9297 32.4632 50.0982 32.6101 50.0982 32.8051V35.2224ZM51.8083 35.5955C52.1093 35.5955 52.4343 35.5064 52.7064 35.3643C52.8316 35.2993 52.9086 35.1766 52.9086 35.0393C52.9086 34.8419 52.7521 34.6854 52.5547 34.6854C52.4487 34.6854 52.3548 34.736 52.3115 34.7648C52.1213 34.8684 51.9672 34.9141 51.8083 34.9141C51.4496 34.9141 51.1703 34.5313 51.1703 34.0185C51.1703 33.5081 51.4688 33.118 51.8468 33.118C52.1045 33.118 52.2369 33.1927 52.3091 33.2432C52.3813 33.2938 52.4704 33.3395 52.5836 33.3395C52.7882 33.3395 52.9375 33.171 52.9375 32.9832C52.9375 32.8749 52.8869 32.7858 52.7834 32.7015C52.6919 32.6269 52.3573 32.4367 51.8468 32.4367C51.0114 32.4367 50.3758 33.1204 50.3758 34.0185C50.3758 34.9189 50.9873 35.5955 51.8083 35.5955ZM55.4329 35.2224C55.4329 35.4198 55.262 35.5691 55.0429 35.5691C54.8238 35.5691 54.6505 35.4198 54.6505 35.2224V34.2882H53.9137V35.2224C53.9137 35.4198 53.7404 35.5691 53.5213 35.5691C53.3022 35.5691 53.1312 35.4198 53.1312 35.2224V32.8051C53.1312 32.6101 53.3022 32.4632 53.5213 32.4632C53.7428 32.4632 53.9137 32.6101 53.9137 32.8051V33.6044H54.6505V32.8051C54.6505 32.6101 54.8214 32.4632 55.0429 32.4632C55.262 32.4632 55.4329 32.6101 55.4329 32.8051V35.2224ZM57.2886 34.0669C57.5077 34.0669 57.6786 33.9176 57.6786 33.7202V33.5806C57.6786 33.3831 57.5077 33.2339 57.2886 33.2339C57.0695 33.2339 56.8986 33.3831 56.8986 33.5806V33.7202C56.8986 33.9176 57.0695 34.0669 57.2886 34.0669ZM57.6786 35.2228C57.6786 35.4202 57.5077 35.5695 57.2886 35.5695C57.0695 35.5695 56.8986 35.4202 56.8986 35.2228V35.0831C56.8986 34.8857 57.0695 34.7364 57.2886 34.7364C57.5077 34.7364 57.6786 34.8857 57.6786 35.0831V35.2228ZM60.0135 35.5691C60.2302 35.5691 60.4035 35.4174 60.4035 35.2224V32.8099C60.4035 32.6125 60.2326 32.4632 60.0135 32.4632C59.934 32.4632 59.8425 32.4873 59.7631 32.5354L59.1371 32.9183C59.0191 32.9905 58.9638 33.1133 58.9638 33.2409C58.9638 33.4335 59.0986 33.5852 59.3177 33.5852C59.3706 33.5852 59.4381 33.5659 59.5031 33.5322L59.6234 33.4696V35.2224C59.6234 35.4198 59.7944 35.5691 60.0135 35.5691ZM63.8897 35.5955C64.4868 35.5955 64.9899 35.1597 64.9899 34.63C64.9899 34.3411 64.8672 34.0907 64.6336 33.9655C64.8599 33.8259 64.9514 33.6308 64.9514 33.3877C64.9514 32.8123 64.5205 32.4367 63.8776 32.4367C63.5839 32.4367 63.2853 32.5546 63.177 32.6269C63.0446 32.7135 62.9772 32.8243 62.9772 32.9519C62.9772 33.1493 63.1264 33.313 63.3431 33.313C63.4178 33.313 63.5044 33.2793 63.555 33.2432C63.6224 33.1951 63.7404 33.118 63.8776 33.118C64.0678 33.118 64.1569 33.2071 64.1569 33.3877C64.1569 33.5586 64.0269 33.6621 63.8174 33.6621H63.6922C63.4731 33.6621 63.3263 33.809 63.3263 34.004C63.3263 34.2039 63.4659 34.3435 63.6922 34.3435H63.8174C64.063 34.3435 64.1954 34.4446 64.1954 34.63C64.1954 34.7841 64.0582 34.9141 63.8897 34.9141C63.7187 34.9141 63.632 34.8924 63.5526 34.8323C63.5455 34.8271 63.538 34.8212 63.5298 34.8148C63.4764 34.7728 63.3957 34.7095 63.2516 34.7095C63.0518 34.7095 62.8929 34.8756 62.8929 35.0658C62.8929 35.2078 62.9772 35.3066 63.1168 35.4029C63.2444 35.492 63.555 35.5955 63.8897 35.5955ZM67.2417 35.2224C67.2417 35.4198 67.0684 35.5691 66.8493 35.5691C66.6302 35.5691 66.4593 35.4198 66.4593 35.2224V34.8925H65.5853C65.3614 34.8925 65.1904 34.7457 65.1904 34.553C65.1904 34.5001 65.2073 34.399 65.2458 34.3219C65.489 33.8356 65.9272 33.2144 66.4183 32.6751C66.5676 32.509 66.6856 32.4632 66.8108 32.4632C67.0202 32.4632 67.1816 32.6173 67.1816 32.8075C67.1816 32.9375 67.1262 33.0097 67.0395 33.0964C66.6711 33.4744 66.4111 33.7657 66.1198 34.2088H66.4593V33.9776C66.4593 33.7802 66.6302 33.6309 66.8493 33.6309C67.0684 33.6309 67.2417 33.7802 67.2417 33.9776V34.2088H67.2514C67.4705 34.2088 67.6414 34.3556 67.6414 34.553C67.6414 34.7481 67.4729 34.8925 67.2514 34.8925H67.2417V35.2224Z" fill="#291D18"/>
<path fill-rule="evenodd" clip-rule="evenodd" d="M95.9768 58.0982C100.593 58.0982 104.348 54.4179 104.443 49.8414L104.445 49.6626L104.443 49.4839C104.348 44.9086 100.593 41.2285 95.9768 41.2285C91.3005 41.2285 87.5083 45.0048 87.5083 49.6626C87.5083 54.3217 91.3003 58.0982 95.9768 58.0982ZM95.9768 41.795C100.282 41.795 103.783 45.2237 103.877 49.487L103.879 49.6626L103.877 49.8383C103.783 54.1029 100.282 57.5317 95.9768 57.5317C91.6127 57.5317 88.0748 54.0083 88.0748 49.6626C88.0748 45.3183 91.6129 41.795 95.9768 41.795Z" fill="#291D18"/>
<path fill-rule="evenodd" clip-rule="evenodd" d="M95.3187 97.1042C95.1883 97.1042 95.0563 97.0553 94.9581 96.9544L59.5803 61.7253C59.3808 61.5266 59.3808 61.2041 59.5803 61.0054C59.7783 60.8052 60.1052 60.8052 60.3032 61.0054L95.6794 96.2361C95.879 96.4348 95.879 96.7557 95.6794 96.9544C95.5812 97.0553 95.4492 97.1042 95.3187 97.1042Z" fill="#291D18"/>
<path d="M109.411 23.1624C112.146 23.1624 114.372 25.3398 114.451 28.0556L114.453 28.2043V143.771C114.453 146.506 112.276 148.732 109.56 148.811L109.411 148.813H27.8348C25.1 148.813 22.8738 146.635 22.7951 143.919L22.793 143.771V68.2736H23.8127V143.771C23.8127 145.947 25.5407 147.719 27.6994 147.791L27.8348 147.793H109.411C111.587 147.793 113.36 146.065 113.431 143.906L113.433 143.771V28.2043C113.433 26.0282 111.705 24.2558 109.547 24.1844L109.411 24.1821H68.5214V23.1624H109.411Z" fill="#291D18"/>
<path fill-rule="evenodd" clip-rule="evenodd" d="M35.9365 71.0079C16.4334 71.0079 0.566406 55.2075 0.566406 35.7864C0.566406 16.3654 16.4334 0.566528 35.9365 0.566528C40.5885 0.566528 45.1117 1.45146 49.3785 3.19992C49.6133 3.29468 49.7254 3.56368 49.6287 3.79752C49.5304 4.03289 49.2618 4.14293 49.027 4.04664C44.8722 2.34556 40.4673 1.48355 35.9365 1.48355C16.9415 1.48355 1.4873 16.8713 1.4873 35.7864C1.4873 54.7016 16.9415 70.0909 35.9365 70.0909C54.9315 70.0909 70.3841 54.7016 70.3841 35.7864C70.3841 25.0007 65.4405 15.0586 56.8224 8.50492C56.6213 8.35208 56.5814 8.06322 56.7364 7.86453C56.8899 7.66125 57.1815 7.62152 57.3811 7.77741C66.2293 14.5038 71.3035 24.7134 71.3035 35.7864C71.3035 55.2075 55.4395 71.0079 35.9365 71.0079Z" fill="#291D18"/>
</svg>
