<svg xmlns="http://www.w3.org/2000/svg" width="397" height="136" viewBox="0 0 397 136">
  <g fill="none" fill-rule="evenodd" transform="translate(7)">
    <rect width="44" height="27" x="17" y="85" fill="#F2F2F2"/>
    <rect width="31" height="17" x="291" fill="#F2F2F2"/>
    <rect width="20" height="12" y="38" fill="#009793"/>
    <rect width="31" height="17" x="334" y="82" fill="#009793"/>
    <rect width="14" height="8" x="376" y="37" fill="#009793" fill-opacity=".4"/>
    <rect width="14" height="8" x="118" y="4" fill="#009793" fill-opacity=".4"/>
    <path fill="#111" fill-rule="nonzero" d="M299,28 L299,60 L84,60 L84,28 L299,28 Z M296,31 L87,31 L87,57 L296,57 L296,31 Z"/>
    <polygon fill="#009793" fill-rule="nonzero" points="215 43 215 45 99 45 99 43"/>
    <path fill="#111" fill-rule="nonzero" d="M285.5,46 L284.71,46 L284.43,45.73 C285.41,44.59 286,43.11 286,41.5 C286,37.91 283.09,35 279.5,35 C275.91,35 273,37.91 273,41.5 C273,45.09 275.91,48 279.5,48 C281.11,48 282.59,47.41 283.73,46.43 L284,46.71 L284,47.5 L289,52.49 L290.49,51 L285.5,46 Z M279.5,46 C277.01,46 275,43.99 275,41.5 C275,39.01 277.01,37 279.5,37 C281.99,37 284,39.01 284,41.5 C284,43.99 281.99,46 279.5,46 Z"/>
    <polygon fill="#F2F2F2" fill-rule="nonzero" points="245.25 75 245.25 77 85 77 85 134 298 134 298 77 262.977 77 262.977 75 300 75 300 136 83 136 83 75"/>
    <path fill="#1A1919" d="M198.2939,111.6585 C197.2262,112.7838 195.4685,113.3307 192.92,113.3307 L189.2924,113.3307 C186.9119,113.3307 185.1356,112.7256 184.013,111.5319 C182.8271,110.2713 182.2259,108.255 182.2259,105.5388 C182.2259,102.6471 182.8001,100.5681 183.932,99.3594 C185.006,98.2131 186.7592,97.656 189.2924,97.656 L192.92,97.656 C195.9536,97.656 199.9868,98.4729 199.9868,105.5388 C199.9868,108.4155 199.4171,110.4744 198.2939,111.6585 Z M192.92,94.656 L189.2924,94.656 C182.5817,94.656 179.2259,98.1021 179.2259,105.5388 C179.2259,112.6125 182.8082,116.3307 189.2924,116.3307 L192.92,116.3307 C199.6313,116.3307 202.9868,112.9752 202.9868,105.5388 C202.9868,98.4648 199.4045,94.656 192.92,94.656 L192.92,94.656 Z"/>
    <path fill="#1A1919" d="M190.0358 106.1421L192.1766 106.1421C192.29 105.6981 192.374 105.4824 192.4367 105.3216 192.5684 104.9832 192.6065 104.841 192.6065 103.83L192.6065 99.7419 189.6065 99.7419 189.6065 103.83C189.6065 104.8413 189.6443 104.9835 189.776 105.3216 189.8387 105.4827 189.9227 105.6981 190.0358 106.1421M191.1065 107.5947C190.1 107.5947 189.2816 108.4134 189.2816 109.4199 189.2816 110.4261 190.1 111.2448 191.1065 111.2448 192.1127 111.2448 192.9314 110.4261 192.9314 109.4199 192.9314 108.4134 192.1127 107.5947 191.1065 107.5947"/>
  </g>
</svg>
