<?xml version="1.0" encoding="UTF-8"?>
<svg width="86px" height="48px" viewBox="0 0 86 48" version="1.1" xmlns="http://www.w3.org/2000/svg" xmlns:xlink="http://www.w3.org/1999/xlink">
    <title> Play</title>
    <g id="Voucher-Activation-(ALMOST-APPROVED)" stroke="none" stroke-width="1" fill="none" fill-rule="evenodd">
        <g id="-Play">
            <g id="Play" transform="translate(0.250000, 0.000000)">
                <path d="M85.4065397,23.8259352 C85.4065397,15.4548802 84.5224107,8.92099297 84.5224107,8.92099297 L84.5224107,8.98125664 C84.0835893,5.14046766 81.1403845,2.08905116 77.4394728,1.64750614 L77.4706066,1.64750614 C77.4706066,1.64750614 77.4269721,1.64261044 77.360341,1.63561659 C77.3485479,1.6339847 77.3380521,1.63258593 77.3272024,1.63176998 C75.8391486,1.46240226 74.1562728,0.108276445 42.5925031,0.108276445 C11.2867666,0.108276445 7.87690862,1.76162245 7.87690862,1.76162245 L7.96170103,1.76162245 C4.27329,2.20106932 1.33798655,5.23383555 0.884187931,9.05632395 L0.884187931,9.03452646 C0.884187931,9.03452646 0.875578966,9.09572264 0.86130931,9.21088803 C0.860601724,9.2197469 0.859186552,9.22883891 0.858007241,9.23851373 C0.712362414,10.392732 -5.89655172e-05,16.4235284 -5.89655172e-05,23.9399349 C-5.89655172e-05,31.4341942 0.708116897,37.4515857 0.856592069,38.6315647 C0.862016897,38.6893805 0.871687241,38.7447485 0.87840931,38.8018649 C0.881711379,38.8279753 0.884187931,38.8454599 0.884187931,38.8454599 L0.884187931,38.8409139 C1.33869414,42.670979 4.28107345,45.705144 7.9756169,46.1378301 L7.87690862,46.1378301 C7.87690862,46.1378301 10.9472431,47.7912927 42.5925031,47.7912927 C74.1562728,47.7912927 77.4706066,46.0238304 77.4706066,46.0238304 L77.4262645,46.0238304 C81.1329548,45.5886964 84.0835893,42.5350652 84.5224107,38.6877486 L84.5224107,38.731227 C84.5224107,38.731227 85.4065397,32.197806 85.4065397,23.8259352" id="Fill-1" fill="#006872"></path>
                <path d="M19.7435778,22.0363675 C20.8362106,22.0363675 21.4749732,21.2937113 21.4749732,19.9241223 C21.4749732,18.7359189 20.7521254,18.0264429 19.7435778,18.0264429 L18.1298305,18.0264429 L18.1298305,22.0363675 L19.7435778,22.0363675 Z M12.6666667,32.2673043 L12.6666667,15.7326957 C12.6666667,14.3795223 13.8602254,13.3565217 15.4066097,13.3565217 L19.7435778,13.3565217 C23.8282905,13.3565217 27.0222222,16.1287635 27.0222222,19.9241223 C27.0222222,24.0330057 24.1141089,26.7061723 19.7435778,26.7061723 L18.1298305,26.7061723 L18.1298305,32.2673043 C18.1298305,33.6203613 16.9363904,34.6434783 15.4066097,34.6434783 C13.8602254,34.6434783 12.6666667,33.6203613 12.6666667,32.2673043 L12.6666667,32.2673043 Z" id="Fill-4" fill="#FFFFFF"></path>
                <path d="M28.0777778,32.3002517 L28.0777778,15.6997483 C28.0777778,14.3631068 29.2562058,13.3565217 30.7667437,13.3565217 C32.2937934,13.3565217 33.4722215,14.3631068 33.4722215,15.6997483 L33.4722215,29.9735571 L38.8666651,29.9735571 C40.3937148,29.9735571 41.5888889,30.9637266 41.5888889,32.3002517 C41.5888889,33.6367768 40.3937148,34.6434783 38.8666651,34.6434783 L30.7667437,34.6434783 C29.2562058,34.6434783 28.0777778,33.6367768 28.0777778,32.3002517" id="Fill-6" fill="#FFFFFF"></path>
                <path d="M52.9908584,25.7161192 C52.5252923,24.2970509 52.02653,22.7953229 51.5112284,21.3597226 C50.9956922,22.7623754 50.4803906,24.2970509 50.0148244,25.7161192 L52.9908584,25.7161192 Z M42.4333333,31.9701952 C42.4333333,31.6071912 42.4997255,31.343146 42.6495184,30.8810669 C43.0816539,29.5278935 46.5232541,18.9669002 48.6182432,14.7591746 C49.1003487,13.7854206 50.1478433,13.3565217 51.5444245,13.3565217 C52.9410057,13.3565217 53.9218735,13.8019525 54.4040963,14.7591746 C56.3326358,18.6204282 60.1732928,30.155059 60.3729384,30.8810669 C60.5224967,31.343146 60.5888889,31.6071912 60.5888889,31.9701952 C60.5888889,33.4553913 59.391836,34.6434783 57.9454021,34.6434783 C56.6818398,34.6434783 55.7508248,34.032961 55.2686019,32.6137763 C55.0525342,31.9866107 54.8363491,31.2276554 54.586968,30.3860404 L48.4353715,30.3860404 C48.1859904,31.2276554 47.9698054,31.9866107 47.7537376,32.6137763 C47.2715148,34.032961 46.3404997,34.6434783 45.0768201,34.6434783 C43.6303862,34.6434783 42.4333333,33.4553913 42.4333333,31.9701952 L42.4333333,31.9701952 Z" id="Fill-8" fill="#FFFFFF"></path>
                <path d="M62.855473,32.2673043 L62.855473,26.3927641 C62.7553007,26.2772735 62.6552462,26.1452509 62.5217617,25.947217 C60.6698114,23.3068813 58.8678884,19.2146464 58.5174621,18.4884056 C58.1839863,17.7789297 57.6333333,16.7063333 57.6333333,15.8977822 C57.6333333,14.5611407 58.7344039,13.3565217 60.1192761,13.3565217 C61.4206912,13.3565217 62.1713355,13.9506235 62.6385312,14.973624 C63.089012,15.9803254 64.4404542,18.9010054 65.6083848,21.1287412 C66.9096821,18.6040127 67.4269051,17.4488731 68.3278666,15.3202124 C68.7450351,14.3136274 69.5458244,13.3565217 70.8638366,13.3565217 C72.4322207,13.3565217 73.4666667,14.5611407 73.4666667,15.8977822 C73.4666667,16.4588201 73.1663854,17.2177754 72.9994709,17.6139596 C72.1986816,19.4455113 70.2967041,23.3894246 68.5948356,26.0131118 C68.511496,26.1452509 68.3947265,26.2772735 68.2611243,26.4257116 L68.2611243,32.2673043 C68.2611243,33.6203613 67.0764788,34.6434783 65.5583575,34.6434783 C64.0400007,34.6434783 62.855473,33.6203613 62.855473,32.2673043" id="Fill-10" fill="#FFFFFF"></path>
            </g>
        </g>
    </g>
</svg>