<svg xmlns="http://www.w3.org/2000/svg" width="24" height="24" fill="none"><path fill="#291D18" d="M4 5a3 3 0 0 1 3-3h10a3 3 0 0 1 3 3v14a3 3 0 0 1-3 3H7a3 3 0 0 1-3-3zm9.36 2.297a3.9 3.9 0 0 0-2.542.284A4.45 4.45 0 0 0 8.9 9.374q-.23.395-.386.826H8a.8.8 0 1 0 0 1.6h.204a5 5 0 0 0 0 .4H8a.8.8 0 1 0 0 1.6h.513q.156.432.386.826a4.45 4.45 0 0 0 1.92 1.793 3.9 3.9 0 0 0 2.541.284 4.2 4.2 0 0 0 2.217-1.348.8.8 0 1 0-1.204-1.053 2.6 2.6 0 0 1-1.367.841 2.3 2.3 0 0 1-1.503-.17 2.85 2.85 0 0 1-1.223-1.155l-.01-.018H12a.8.8 0 0 0 0-1.6H9.805a4 4 0 0 1 0-.4H13a.8.8 0 0 0 0-1.6h-2.73l.01-.018c.31-.53.74-.926 1.223-1.154a2.3 2.3 0 0 1 1.502-.171c.503.114.982.4 1.368.841a.8.8 0 0 0 1.204-1.053 4.2 4.2 0 0 0-2.217-1.348"/></svg>