<svg xmlns="http://www.w3.org/2000/svg" width="24" height="24" fill="none"><path fill="#291D18" d="M2.997 3h4a1 1 0 0 1 1 1v5a1 1 0 0 1-1 1h-.988q.1 3.99 1.026 6.38a5 5 0 0 1 9.924 0q.925-2.39 1.026-6.38h-.988a1 1 0 0 1-1-1V4a1 1 0 0 1 1-1h4a1 1 0 0 1 1 1v5a1 1 0 0 1-1 1h-1.012c-.081 3.424-.598 6.275-1.737 8.346-.634 1.151-1.469 2.079-2.538 2.713S13.396 22 11.997 22s-2.644-.307-3.714-.941-1.904-1.562-2.537-2.713C4.606 16.274 4.09 13.424 4.008 10H2.997a1 1 0 0 1-1-1V4a1 1 0 0 1 1-1m9 17a3 3 0 1 0 0-6 3 3 0 0 0 0 6m-8-12h2V5h-2zm14 0h2V5h-2z"/></svg>