<svg xmlns="http://www.w3.org/2000/svg" width="24" height="24" fill="none"><path fill="#291D18" d="M12 7.73a6 6 0 1 1-6 6 1 1 0 1 0-2 0 8 8 0 1 0 8-8H7.414l1.293-1.293a1 1 0 0 0-1.414-1.415l-3 3a1 1 0 0 0 0 1.415l3 3a1 1 0 0 0 1.414-1.415L7.414 7.73z"/><path fill="#291D18" d="M13.174 10.009a2.92 2.92 0 0 0-1.987.232 3.46 3.46 0 0 0-1.465 1.433q-.07.125-.13.256H9a.8.8 0 0 0 0 1.6h.205a4 4 0 0 0 0 .4H9a.8.8 0 0 0 0 1.6h.592q.06.13.13.255a3.46 3.46 0 0 0 1.465 1.433c.62.308 1.315.392 1.987.232a3.2 3.2 0 0 0 1.708-1.087.8.8 0 0 0-1.229-1.024c-.25.3-.55.483-.851.555-.298.07-.61.037-.903-.11a1.6 1.6 0 0 1-.37-.255H12a.8.8 0 0 0 0-1.6h-1.193a3 3 0 0 1 0-.4H13a.8.8 0 0 0 0-1.6h-1.47q.175-.158.37-.255c.293-.146.604-.18.902-.109.3.072.6.255.851.555a.8.8 0 1 0 1.23-1.024 3.2 3.2 0 0 0-1.71-1.087"/></svg>