<svg xmlns="http://www.w3.org/2000/svg" width="24" height="24" fill="none"><path fill="#291D18" d="M3.437 4.719A1 1 0 1 1 4.828 3.28l16.53 16a1 1 0 1 1-1.39 1.438zM19.696 16.28l-1.51-1.46C19.24 14.38 20 13.312 20 12.034c0-1.683-1.32-3-2.889-3H14a1 1 0 1 1 0-2h3.111c2.726 0 4.889 2.265 4.889 5a5.03 5.03 0 0 1-2.304 4.246m-5.032.698a1 1 0 0 1-.595-.577zM6.489 9.064l-1.632-1.58C3.162 8.278 2 10.03 2 12.036c0 2.735 2.162 5 4.889 5H10a1 1 0 1 0 0-2H6.889c-1.57 0-2.889-1.316-2.889-3 0-1.538 1.102-2.77 2.489-2.971"/><path fill="#291D18" d="M8 11.035h.525l2.066 2H8a1 1 0 0 1 0-2m6.277 0 2.02 1.955A1 1 0 0 0 16 11.035z"/></svg>