<svg xmlns="http://www.w3.org/2000/svg" width="24" height="24" fill="none"><path fill="#291D18" d="M14.29 2.293a1 1 0 0 1 1.414 0l6 6a1 1 0 0 1 0 1.414l-1 1a1 1 0 0 1-.707.293h-2.465l-1.334 2a4 4 0 0 1-1.143 5.496l-.503.336a1 1 0 0 1-1.262-.125l-3.293-3.293-5.293 5.293a1 1 0 0 1-1.414-1.414L8.583 14 5.29 10.707a1 1 0 0 1-.125-1.262l.336-.504a4 4 0 0 1 5.495-1.143l2-1.333V4a1 1 0 0 1 .294-.707zm-.174 14.412a2 2 0 0 0 .385-2.646l-.336-.504a1 1 0 0 1 0-1.11l2-3A1 1 0 0 1 16.997 9h2.586l-4.586-4.586V7a1 1 0 0 1-.445.832l-3 2a1 1 0 0 1-1.11 0l-.504-.336a2 2 0 0 0-2.646.385z"/></svg>