<svg xmlns="http://www.w3.org/2000/svg" width="24" height="24" fill="none"><path fill="#291D18" d="m9.51 6.828-4.867.708-.105.022a.75.75 0 0 0-.31 1.257l3.52 3.432-.83 4.848-.011.101a.75.75 0 0 0 1.099.69l4.353-2.289 4.353 2.289.093.041a.75.75 0 0 0 .996-.832l-.832-4.848 3.522-3.432.072-.08a.75.75 0 0 0-.487-1.2l-4.869-.707-2.175-4.41a.75.75 0 0 0-1.345 0zm2.85-2.384 1.678 3.402.053.09a.75.75 0 0 0 .512.32l3.751.545-2.714 2.648-.07.078a.75.75 0 0 0-.146.586l.641 3.738-3.357-1.765-.096-.042a.75.75 0 0 0-.602.042l-3.358 1.765.642-3.738.01-.104a.75.75 0 0 0-.225-.56L6.363 8.801l3.753-.545a.75.75 0 0 0 .565-.41z"/><path fill="#291D18" d="M15.102 18.648A.75.75 0 0 0 14.36 18l-.101.007a.75.75 0 0 0-.649.743v.922l-1.002-.37-.103-.03a.75.75 0 0 0-.42.03l-.975.365v-.917l-.007-.102a.75.75 0 0 0-1.493.102v2l.007.102a.75.75 0 0 0 1.007.6l1.725-.647 1.75.648.1.03a.75.75 0 0 0 .911-.733v-2z"/></svg>