<svg xmlns="http://www.w3.org/2000/svg" width="24" height="24" fill="none"><path fill="#291D18" d="M12.997 8.83a3.001 3.001 0 1 0-2 0v2.34a3 3 0 0 0-1.95 3.377l-2.029 1.171a3.001 3.001 0 1 0 1 1.732l2.028-1.17a3 3 0 0 0 1.95.72c.745 0 1.426-.271 1.95-.72l2.029 1.171a3.001 3.001 0 0 0 5.548 2.049 3 3 0 0 0-4.549-3.78l-2.027-1.171q.05-.268.05-.549a3 3 0 0 0-2-2.83zm-1-3.83a1 1 0 1 1 0 2 1 1 0 0 1 0-2m-.857 9.517-.02-.035a1 1 0 1 1 1.751.004l-.008.014-.008.014a1 1 0 0 1-1.715.003m6.912 2.995.007-.012.007-.012a1 1 0 1 1-.014.024m-13.85.987a1 1 0 1 1 1.733-1 1 1 0 0 1-1.732 1"/></svg>