<svg xmlns="http://www.w3.org/2000/svg" width="24" height="24" fill="none"><path fill="#291D18" d="M6 8a2 2 0 1 1 4 0 2 2 0 0 1-4 0m2-4a4 4 0 1 0 0 8 4 4 0 0 0 0-8m8 10a1 1 0 1 0 0 2c1.744 0 2.958.19 3.086.212l.054.008c.298.043.645.336.706.876l.002.02c.004.037.043.367.085.884H16a1 1 0 1 0 0 2h3.949c1.136 0 2.073-.957 1.98-2.129a27 27 0 0 0-.095-.993v-.005c-.145-1.288-1.061-2.437-2.406-2.632l-.02-.003C19.209 14.205 17.883 14 16 14m1.5-7a1.5 1.5 0 1 0 0 3 1.5 1.5 0 0 0 0-3M14 8.5a3.5 3.5 0 1 1 7 0 3.5 3.5 0 0 1-7 0M8 14c-1.882 0-3.209.205-3.409.238l-.019.003c-1.345.195-2.26 1.344-2.405 2.633v.004c-.008.059-.05.427-.096.993C1.978 19.043 2.915 20 4.051 20h7.898c1.136 0 2.073-.957 1.98-2.129a27 27 0 0 0-.095-.993v-.005c-.145-1.288-1.061-2.437-2.406-2.632l-.02-.003C11.209 14.205 9.883 14 8 14m-3.086 2.212C5.042 16.19 6.256 16 8 16s2.958.19 3.086.212l.054.008c.298.043.645.336.706.876l.002.02c.004.037.043.367.085.884H4.067c.042-.517.08-.847.085-.885l.002-.019c.061-.54.408-.833.706-.876z"/></svg>