<svg xmlns="http://www.w3.org/2000/svg" width="24" height="24" fill="none"><path fill="#291D18" d="M6 8a1 1 0 1 1 2 0 1 1 0 0 1-2 0m1-3a3 3 0 1 0 0 6 3 3 0 0 0 0-6m0 8a17.5 17.5 0 0 0-2.722.197l-.008.001-.075.012c-1.174.202-1.916 1.24-2.036 2.328l-.003.021c-.01.095-.067.615-.11 1.358C1.975 18.074 2.91 19 4.025 19h5.949c1.115 0 2.048-.926 1.98-2.083a27 27 0 0 0-.111-1.358l-.003-.021c-.12-1.088-.862-2.126-2.036-2.328l-.075-.012-.008-.001A17.6 17.6 0 0 0 7 13m-2.395 2.17C4.768 15.143 5.695 15 7 15s2.231.143 2.395.17l.043.007.027.004c.105.018.343.165.388.576l.003.026c.008.068.06.537.1 1.217H4.044c.04-.68.092-1.149.1-1.217l.003-.026c.045-.41.283-.558.387-.576l.028-.004zm11.912-6.294c-.13.676-.41 1.3-.8 1.836a3 3 0 1 0 0-5.424c.39.536.67 1.16.8 1.836a1 1 0 1 1 0 1.751m-5.8 1.836c.39-.536.67-1.16.8-1.836a1 1 0 1 0 0-1.751 4.6 4.6 0 0 0-.801-1.837 3 3 0 1 1 0 5.424M12.966 19h2.008c1.115 0 2.048-.925 1.98-2.083a27 27 0 0 0-.111-1.358l-.003-.021c-.12-1.088-.862-2.125-2.036-2.328l-.075-.012-.008-.001a17 17 0 0 0-2.285-.192c.499.603.817 1.33.95 2.05.549.043.912.099 1.008.115l.043.007.027.004c.105.018.343.165.388.576l.003.026c.008.068.06.537.1 1.217h-1.398a3.5 3.5 0 0 1-.59 2m7.008 0h-2.008a3.5 3.5 0 0 0 .591-2h1.398a25 25 0 0 0-.1-1.217l-.003-.026c-.045-.41-.283-.558-.388-.576l-.027-.004-.043-.007a13 13 0 0 0-1.009-.116 4.5 4.5 0 0 0-.95-2.05 17 17 0 0 1 2.286.193l.008.001.075.012c1.174.203 1.916 1.24 2.036 2.328l.003.021c.01.095.067.615.11 1.358.07 1.157-.864 2.083-1.98 2.083"/></svg>