<svg width="343" height="102" viewBox="0 0 343 102" fill="none" xmlns="http://www.w3.org/2000/svg">
<path d="M1.61331 60.4277C1.06066 60.4277 0.627044 60.3143 0.393231 60.0813C0.116907 59.8525 0 59.4298 0 58.8567V16.5122C0 15.902 0.116907 15.5185 0.393231 15.2876C0.669555 15.0567 1.06491 14.9412 1.61331 14.9412H6.30443C7.2907 14.9412 7.91986 15.401 8.11754 16.3164L8.59154 17.9595C9.89239 16.7349 11.4696 15.7412 13.3209 15.0546C15.1723 14.3289 17.0641 13.9846 18.9962 13.9846C23.2133 13.9846 26.5611 15.4752 29.0437 18.4935C31.5264 21.5138 32.7486 25.565 32.7486 30.6862C32.7486 34.2013 32.1194 37.2608 30.9355 39.8977C29.7154 42.5345 28.0575 44.524 25.9681 45.9775C23.8786 47.3938 21.4746 48.1175 18.756 48.1175C16.9812 48.1175 15.2488 47.8495 13.6716 47.2763C12.0562 46.7403 10.6767 45.9775 9.53529 44.9817V58.8567C9.53529 59.4298 9.41839 59.8504 9.1782 60.0813C8.94014 60.3122 8.50652 60.4277 7.91561 60.4277H1.61331ZM15.9566 41.0872C18.3989 41.0872 20.212 40.2852 21.3556 38.6792C22.497 37.0732 23.0879 34.5518 23.0879 31.0737C23.0879 27.5957 22.5353 24.9939 21.3938 23.392C20.2524 21.786 18.4393 20.984 15.9566 20.984C13.6695 20.984 11.544 21.5571 9.53317 22.7055V39.409C11.4632 40.5203 13.5909 41.0893 15.9566 41.0893V41.0872Z" fill="#1A98FF"/>
<path d="M40.668 47.356C40.1153 47.356 39.6817 47.2426 39.4479 46.9746C39.1716 46.7065 39.0547 46.3231 39.0547 45.7912V16.5486C39.0547 15.9383 39.1716 15.5548 39.4479 15.3239C39.7242 15.0951 40.1196 14.9776 40.668 14.9776H45.3974C46.3836 14.9776 47.0128 15.4373 47.2105 16.3527L48.0777 19.7915C49.8101 17.9196 51.468 16.6186 53.0027 15.8167C54.5394 15.0147 56.1953 14.6333 57.9276 14.6333H58.8331C59.424 14.6333 59.898 14.7467 60.1339 14.9796C60.4103 15.2085 60.5272 15.6311 60.5272 16.2043V21.5192C60.5272 22.0553 60.4103 22.4758 60.1701 22.7026C59.9341 22.9706 59.4984 23.084 58.9075 23.084C58.5929 23.084 58.1975 23.0469 57.7257 23.0077C57.2517 22.9706 56.6225 22.9315 55.9126 22.9315C54.9263 22.9315 53.7062 23.0861 52.246 23.35C50.8282 23.618 49.5656 23.9602 48.5794 24.3829V45.7108C48.5794 46.2468 48.4624 46.6674 48.2223 46.8941C47.9863 47.1622 47.5506 47.2756 46.9597 47.2756L40.6637 47.356H40.668Z" fill="#1A98FF"/>
<path d="M69.5515 9.93721C67.8957 9.93721 66.5566 9.47746 65.5703 8.59919C64.584 7.72092 64.0718 6.49629 64.0718 4.9686C64.0718 3.44091 64.584 2.25546 65.5703 1.33802C66.5566 0.459748 67.8957 0 69.5515 0C71.2073 0 72.5464 0.459748 73.5327 1.33802C74.5189 2.21628 75.0312 3.44091 75.0312 4.9686C75.0312 6.49629 74.5189 7.68175 73.5327 8.59919C72.5464 9.47746 71.2073 9.93721 69.5515 9.93721ZM66.3993 47.3584C65.8466 47.3584 65.413 47.245 65.1792 46.977C64.9029 46.709 64.786 46.3255 64.786 45.7936V16.549C64.786 15.9387 64.9029 15.5552 65.1792 15.3243C65.4555 15.0934 65.8509 14.978 66.3993 14.978H72.6676C73.2585 14.978 73.6921 15.0914 73.9302 15.3243C74.1682 15.5573 74.2872 15.9758 74.2872 16.549V45.7895C74.2872 46.3255 74.1703 46.7461 73.9302 46.9729C73.6942 47.2409 73.2585 47.3543 72.6676 47.3543H66.3993V47.3584Z" fill="#1A98FF"/>
<path d="M83.937 47.3565C83.3844 47.3565 82.9508 47.2431 82.717 46.9751C82.4406 46.7071 82.3237 46.3236 82.3237 45.7917V16.5491C82.3237 15.9389 82.4406 15.5554 82.717 15.3245C82.9933 15.0936 83.3886 14.9781 83.937 14.9781H88.6664C89.6527 14.9781 90.2819 15.4379 90.4795 16.3533L90.9918 18.0748C93.3172 16.5842 95.3662 15.5513 97.2601 14.941C99.1114 14.3308 101.003 14.0257 102.974 14.0257C106.914 14.0257 109.673 15.3637 111.289 18.0789C113.495 16.6254 115.623 15.5925 117.557 14.9823C119.487 14.372 121.538 14.0257 123.628 14.0257C126.661 14.0257 129.065 14.8668 130.723 16.512C132.417 18.1552 133.244 20.4869 133.244 23.4289V45.8268C133.244 46.3628 133.127 46.7834 132.887 47.0102C132.651 47.2782 132.215 47.3916 131.624 47.3916H125.356C124.803 47.3916 124.37 47.2782 124.136 47.0102C123.9 46.7422 123.743 46.3587 123.743 45.8268V25.4534C123.743 22.5877 122.403 21.1363 119.761 21.1363C117.396 21.1363 115.032 21.6724 112.63 22.7795V45.8268C112.63 46.3628 112.513 46.7834 112.273 47.0102C112.037 47.2782 111.601 47.3916 111.01 47.3916H104.742C104.189 47.3916 103.756 47.2782 103.522 47.0102C103.246 46.7422 103.129 46.3587 103.129 45.8268V25.4534C103.129 22.5877 101.79 21.1363 99.1476 21.1363C96.7053 21.1363 94.3013 21.7095 91.9355 22.8578V45.8288C91.9355 46.3649 91.8186 46.7854 91.5784 47.0122C91.3425 47.2803 90.9068 47.3936 90.3159 47.3936L83.9413 47.3565H83.937Z" fill="#1A98FF"/>
<path d="M155.698 48.3499C150.377 48.3499 146.318 47.1253 143.048 43.9152C140.921 41.8124 138.912 37.8766 138.912 31.1866C138.912 25.7582 140.687 21.6308 143.561 18.6496C146.439 15.6293 150.851 14.2541 154.99 14.2541C160.191 14.2541 163.267 15.4025 165.63 17.693C166.024 18.0744 168.392 20.4432 168.392 24.2676C168.392 25.5665 168.43 26.9457 167.524 28.8548C166.895 30.1537 165.947 30.9577 165.673 31.1866C161.809 34.6254 154.244 34.3966 151.683 34.244L147.546 33.6337C147.822 36.4252 148.611 38.6024 150.382 39.827C152.037 41.0104 153.851 41.4701 157.555 41.4701C159.407 41.4701 161.889 41.1238 165.082 40.2867C165.242 40.2496 165.594 40.1733 165.711 40.1321C165.79 40.1321 166.104 40.095 166.302 40.1692C166.659 40.2826 167.05 40.5877 167.05 41.5443V44.4492C167.05 45.1378 166.972 45.5955 166.774 45.8656C166.576 46.1336 166.183 46.3996 165.633 46.6305C162.242 47.7788 159.171 48.3519 155.702 48.3519L155.698 48.3499ZM159.679 24.5769C159.679 21.4803 157.434 20.602 154.673 20.602C152.86 20.602 151.087 21.2535 149.865 22.5152C148.683 23.7769 147.973 25.6489 147.659 28.057C147.659 28.057 152.545 28.9352 156.091 28.3621C157.942 28.0528 159.677 27.0612 159.677 24.5769H159.679Z" fill="#1A98FF"/>
<path d="M292.322 48.3499C287.001 48.3499 282.942 47.1253 279.672 43.9152C277.545 41.8124 275.536 37.8766 275.536 31.1866C275.536 25.7582 277.311 21.6308 280.185 18.6496C283.063 15.6293 287.475 14.2541 291.614 14.2541C296.815 14.2541 299.891 15.4025 302.254 17.693C302.648 18.0744 305.016 20.4432 305.016 24.2676C305.016 25.5665 305.054 26.9457 304.148 28.8548C303.519 30.1537 302.571 30.9577 302.297 31.1866C298.433 34.6254 290.868 34.3966 288.307 34.244L284.17 33.6337C284.447 36.4252 285.235 38.6024 287.006 39.827C288.661 41.0104 290.475 41.4701 294.179 41.4701C296.031 41.4701 298.514 41.1238 301.706 40.2867C301.866 40.2496 302.218 40.1733 302.335 40.1321C302.414 40.1321 302.729 40.095 302.926 40.1692C303.283 40.2826 303.674 40.5877 303.674 41.5443V44.4492C303.674 45.1378 303.596 45.5955 303.398 45.8656C303.2 46.1336 302.807 46.3996 302.257 46.6305C298.909 47.7788 295.795 48.3519 292.326 48.3519L292.322 48.3499ZM296.303 24.5769C296.303 21.4803 294.058 20.602 291.297 20.602C289.484 20.602 287.711 21.2535 286.489 22.5152C285.307 23.7769 284.597 25.6489 284.283 28.057C284.283 28.057 289.17 28.9352 292.715 28.3621C294.568 28.0528 296.301 27.0612 296.301 24.5769H296.303Z" fill="#1A98FF"/>
<path d="M197.115 47.3563C196.684 47.3563 196.327 47.3192 196.05 47.2017C195.774 47.0883 195.538 46.9337 195.34 46.7048C195.143 46.476 194.947 46.1317 194.79 45.7111L183.597 17.4622C183.48 17.1159 183.361 16.8108 183.282 16.584C183.203 16.316 183.165 16.0871 183.165 15.8954C183.165 15.2439 183.597 14.9388 184.466 14.9388H191.006C191.716 14.9388 192.226 15.0522 192.543 15.3202C192.858 15.5882 193.134 16.0088 193.291 16.5819L200.029 39.0561L206.884 16.5819C207.044 15.9717 207.316 15.549 207.632 15.3202C207.947 15.0913 208.459 14.9388 209.169 14.9388H215.512C216.379 14.9388 216.813 15.2439 216.813 15.8954C216.813 16.1242 216.774 16.3551 216.696 16.584C216.617 16.852 216.498 17.12 216.381 17.4622L205.188 45.7111C205.029 46.1296 204.831 46.476 204.638 46.7048C204.44 46.9337 204.206 47.1234 203.966 47.2017C203.728 47.278 203.337 47.3563 202.863 47.3563H197.117H197.115Z" fill="#1A98FF"/>
<path d="M225.684 9.93721C224.028 9.93721 222.689 9.47746 221.703 8.59919C220.716 7.72092 220.204 6.49629 220.204 4.9686C220.204 3.44091 220.716 2.25546 221.703 1.33802C222.689 0.459748 224.028 0 225.684 0C227.34 0 228.679 0.459748 229.665 1.33802C230.651 2.21628 231.164 3.44091 231.164 4.9686C231.164 6.49629 230.651 7.68175 229.665 8.59919C228.64 9.47746 227.34 9.93721 225.684 9.93721ZM222.532 47.3584C221.979 47.3584 221.545 47.245 221.269 46.977C220.993 46.709 220.876 46.3255 220.876 45.7936V16.549C220.876 15.9387 220.993 15.5552 221.269 15.3243C221.545 15.0934 221.941 14.978 222.532 14.978H228.8C229.391 14.978 229.824 15.0914 230.062 15.3243C230.301 15.5573 230.42 15.9758 230.42 16.549V45.7895C230.42 46.3255 230.303 46.7461 230.062 46.9729C229.827 47.2409 229.391 47.3543 228.8 47.3543H222.532V47.3584Z" fill="#1A98FF"/>
<path d="M250.431 48.0446C247.596 48.0446 245.111 47.3189 243.021 45.9046C240.932 44.4883 239.317 42.5029 238.213 40.0165C237.11 37.4931 236.558 34.5882 236.558 31.2998C236.558 26.0632 237.858 21.8595 240.422 18.7257C242.985 15.592 246.412 13.986 250.629 13.986C254.057 13.986 257.052 14.9426 259.573 16.8517V2.02629C259.573 1.41604 259.69 1.03257 259.966 0.801668C260.243 0.572823 260.638 0.455307 261.229 0.455307H267.497C268.088 0.455307 268.522 0.5687 268.76 0.801668C268.996 1.03051 269.117 1.45315 269.117 2.02629V45.7912C269.117 46.3273 269 46.7479 268.76 46.9746C268.524 47.2427 268.088 47.356 267.497 47.356H262.258C261.746 47.356 261.352 47.2427 261.038 47.0509C260.761 46.8221 260.564 46.4778 260.409 45.9809L260.015 44.5274C257.373 46.8592 254.138 48.0426 250.435 48.0426L250.431 48.0446ZM253.586 41.0865C255.675 41.0865 257.684 40.4763 259.614 39.3279V22.5872C257.722 21.5172 255.594 21.0204 253.152 21.0204C250.71 21.0204 249.132 21.8615 247.989 23.5438C246.843 25.2241 246.295 27.7476 246.295 31.1122C246.295 34.4768 246.886 37.0003 248.108 38.6806C249.254 40.2474 251.103 41.0865 253.588 41.0865H253.586Z" fill="#1A98FF"/>
<path d="M326.057 48.3126C320.856 48.3126 316.798 46.7828 313.878 43.7625C310.959 40.7422 309.503 36.5384 309.503 31.1121C309.503 25.6858 310.964 21.5563 313.878 18.5381C316.794 15.5177 320.854 13.988 326.057 13.988C331.261 13.988 335.316 15.5177 338.237 18.5381C341.155 21.5584 342.611 25.7621 342.611 31.1121C342.611 36.4621 341.151 40.7442 338.237 43.7625C335.318 46.7828 331.261 48.3126 326.057 48.3126ZM326.057 41.204C330.629 41.204 332.912 37.8393 332.912 31.1121C332.912 24.3849 330.625 21.0986 326.057 21.0986C321.489 21.0986 319.202 24.4241 319.202 31.1121C319.202 37.8002 321.485 41.204 326.057 41.204Z" fill="#1A98FF"/>
<path fill-rule="evenodd" clip-rule="evenodd" d="M243.48 80.9568C223.749 94.5391 195.389 101.441 171.092 101.004C137.036 100.394 106.602 87.6304 83.7844 66.8901C81.9947 65.2614 83.6611 63.1111 85.825 64.3852C110.592 78.9673 141.396 88.0325 173.375 88.6077C194.947 88.9952 218.745 85.0802 240.738 76.4933C244.052 75.2007 246.741 78.7055 243.48 80.9568Z" fill="#1A98FF"/>
<path fill-rule="evenodd" clip-rule="evenodd" d="M251.75 72.1329C249.321 68.9971 235.324 70.3722 229.034 70.9886C227.13 71.1762 226.866 69.5578 228.603 68.4219C239.892 61.0329 258.106 63.5522 260.178 66.1293C262.268 68.7291 259.228 86.4346 248.626 94.7204C246.996 95.9945 245.48 95.2729 246.226 93.5638C248.683 87.9169 254.184 75.2707 251.753 72.1308L251.75 72.1329Z" fill="#1A98FF"/>
</svg>
