<svg width="139" height="63" viewBox="0 0 139 63" fill="none" xmlns="http://www.w3.org/2000/svg">
<g clip-path="url(#clip0_672_866)">
<path fill-rule="evenodd" clip-rule="evenodd" d="M26.1692 12.6008L0 12.6V25.1992L25.9184 25.2C25.2364 23.4888 24.8529 21.5162 24.8529 19.2251C24.8529 16.8119 25.3172 14.5945 26.1692 12.6008Z" fill="#FED71F"/>
<path fill-rule="evenodd" clip-rule="evenodd" d="M0 25.2017V37.8L48.4615 37.7991C40.5169 35.5117 29.8121 33.5318 26.456 25.2L0 25.2017Z" fill="#FF0A5A"/>
<path fill-rule="evenodd" clip-rule="evenodd" d="M46.6327 37.8002L0 37.8V50.5708L21.081 50.5982H22.0144C21.8017 50.2147 21.5 49.7591 21.3106 49.3605L32.2354 43.0155C34.2464 47.7862 38.3416 51.369 44.721 51.369C44.9079 51.369 45.0893 51.3618 45.2734 51.358C45.4012 51.3603 45.5251 51.3685 45.6545 51.369C53.0705 51.3964 56.9361 49.0484 56.9361 44.5846C56.9361 41.0816 53.916 39.273 48.7462 37.8274" fill="#CC0243"/>
<path fill-rule="evenodd" clip-rule="evenodd" d="M21.9518 50.4L0 50.4003V63L45.5539 62.9998L45.5444 62.9861C34.2787 62.9345 26.012 58.1399 21.9518 50.4Z" fill="#F20D3A"/>
<path fill-rule="evenodd" clip-rule="evenodd" d="M25.0944 12.6C28.0092 4.99978 35.5224 1.18125 44.5846 0H0V12.6H25.0944Z" fill="#FF4B00"/>
<path fill-rule="evenodd" clip-rule="evenodd" d="M37.1125 18.0859C37.1125 13.774 41.242 11.7376 45.979 11.7376C50.9586 11.7376 55.2097 13.8938 57.3959 18.5648L68.4486 12.4563C64.1976 4.55112 55.9385 0 45.979 0C33.5903 0 23.7522 7.06651 23.7522 18.3251C23.7522 39.7645 56.4244 33.7758 56.4244 44.4355C56.4244 49.2266 51.9304 51.1425 46.1004 51.1425C39.4203 51.1425 34.562 47.9089 32.6186 42.5191L21.3231 48.9868C25.2097 57.6102 33.9546 63 46.1004 63C59.2178 63 69.7846 56.5324 69.7846 44.5554C69.7846 22.3973 37.1125 28.9849 37.1125 18.0859Z" fill="#020022"/>
<path fill-rule="evenodd" clip-rule="evenodd" d="M138.6 24.5434L114.56 24.5439V0.969228H101.578L101.579 24.5439H77.5385V37.5254L101.579 37.525V62.0308H114.56V37.525H138.6V24.5434Z" fill="#020022"/>
</g>
<defs>
<clipPath id="clip0_672_866">
<rect width="138.6" height="63" fill="white"/>
</clipPath>
</defs>
</svg>
