<svg width="432" height="64" viewBox="0 0 432 64" fill="none" xmlns="http://www.w3.org/2000/svg">
<path d="M49.1114 27.4357C49.0983 25.5529 49.4591 23.6862 50.1729 21.9439H0V32.3909H49.9737C49.3795 30.8061 49.087 29.1242 49.1114 27.4319" fill="#FED71F"/>
<path d="M49.9698 32.3832H0V43.0678H67.9435C61.4553 41.1286 52.71 39.4501 49.9698 32.3794" fill="#FF0A5A"/>
<path d="M67.9435 43.0716H0V53.5492H47.6474C47.475 53.2158 47.3064 52.8709 47.1492 52.5222L55.6417 47.5938C57.2934 51.7825 61.1334 54.285 66.3722 54.285H67.1387C71.841 54.285 75.4664 52.7176 75.4664 48.801C75.4664 45.7351 72.1859 44.344 67.9435 43.0525" fill="#CC0243"/>
<path d="M47.6474 53.5492H0V64H66.9969C57.761 63.9578 50.9854 59.9837 47.6551 53.5645" fill="#F20D3A"/>
<path d="M50.1729 21.9439C52.5567 16.2223 58.7037 12.7463 66.1155 12.4627H0V21.9439H50.1729Z" fill="#FF4B00"/>
<path d="M59.5046 27.2403C59.5046 23.7145 62.8349 22.0474 66.6595 22.0474C70.6758 22.0474 74.1058 23.8141 75.8572 27.635L84.775 22.6529C81.3259 16.184 74.6806 12.4589 66.648 12.4589C56.6533 12.4589 48.7165 18.2419 48.7165 27.4549C48.7165 44.9916 75.0754 40.1016 75.0754 48.8163C75.0754 52.733 71.4461 54.3004 66.7439 54.3004C61.3556 54.3004 57.4351 51.6561 55.8677 47.2451L46.7544 52.5222C49.8892 59.5775 56.9446 63.9885 66.7439 63.9885C77.3288 63.9885 85.8519 58.6961 85.8519 48.8968C85.8519 30.7698 59.4931 36.1581 59.4931 27.2403" fill="#020022"/>
<path d="M101.043 0L90.4621 3.13485V48.2606C90.4621 60.9993 96.9311 65.5061 113.196 63.5478V54.036C105.148 54.4192 101.043 54.5265 101.043 48.253V21.944H113.196V12.4283H101.043V0Z" fill="#020022"/>
<path d="M145 12.4282C138.826 12.4282 132.848 15.2872 129.908 21.9478V12.4282H119.327V64H129.916V38.0206C129.916 27.0448 138.052 23.4041 145.008 23.8946L145 12.4282Z" fill="#020022"/>
<path d="M170.868 12.4436C155.485 12.4436 145 23.7145 145 38.2161C145 52.9131 155.485 63.9885 171.65 63.9885C181.254 63.9885 188.604 59.9684 193.111 53.3078L184.389 48.2108C182.04 51.6599 177.629 54.285 171.742 54.285C163.905 54.285 157.731 50.3684 156.064 42.7229H195.066C195.295 41.2644 195.423 39.7918 195.449 38.3157C195.449 24.205 185.454 12.4436 170.853 12.4436H170.868ZM155.976 34.1078C157.444 26.7574 162.832 22.0551 170.769 22.0551C177.138 22.0551 183.312 25.6805 184.784 34.1078H155.976Z" fill="#020022"/>
<path d="M250.681 37.8826C250.681 23.2738 239.237 12.4321 224.824 12.4321C210.51 12.4321 198.944 23.6072 198.944 38.216C198.944 52.7253 210.51 64 224.824 64C230.572 64 235.827 61.4055 240.092 57.6881V64H250.681V37.8826ZM224.824 53.7063C216.197 53.7063 209.533 47.1377 209.533 38.216C209.533 29.2944 216.197 22.7257 224.824 22.7257C233.451 22.7257 240.119 29.2944 240.119 38.216C240.119 47.1377 233.454 53.7063 224.824 53.7063Z" fill="#020022"/>
<path d="M305.598 12.4282C299.708 12.4282 294.484 15.3447 290.886 18.56C287.283 15.3485 282.098 12.4282 276.239 12.4282C264.197 12.4282 256.107 19.4951 256.107 30.0148V64H267.056V31.9425C267.056 28.2788 268.651 22.7641 276.254 22.7641C283.857 22.7641 285.452 28.2788 285.452 31.9425V64H296.443V31.9425C296.443 28.2788 298.037 22.7641 305.64 22.7641C313.244 22.7641 314.838 28.2788 314.838 31.9425V64H325.71V30.0148C325.71 19.4951 317.662 12.4282 305.652 12.4282" fill="#020022"/>
<path d="M345.872 53.5492L368.705 19.4874V12.4321H331.47V21.9439H354.399L331.47 56.9332V63.9885H369.682V53.5492H345.872Z" fill="#020022"/>
<path fill-rule="evenodd" clip-rule="evenodd" d="M431.399 32.3405L411.1 32.3409V12.4352H400.139L400.139 32.3409H379.84V43.3021L400.139 43.3017V63.9936H411.1V43.3017H431.399V32.3405Z" fill="#020022"/>
</svg>
