<svg width="73" height="63" viewBox="0 0 73 63" fill="none" xmlns="http://www.w3.org/2000/svg">
<path fill-rule="evenodd" clip-rule="evenodd" d="M26.8851 12.6008L0 12.6V25.1992L26.6274 25.2C25.9268 23.4888 25.5327 21.5162 25.5327 19.2251C25.5327 16.8119 26.0098 14.5945 26.8851 12.6008Z" fill="#FED71F"/>
<path fill-rule="evenodd" clip-rule="evenodd" d="M0 25.2017V37.8L50.271 37.7991C42.0297 35.5117 30.9252 33.5318 27.4438 25.2L0 25.2017Z" fill="#FF0A5A"/>
<path fill-rule="evenodd" clip-rule="evenodd" d="M48.6312 37.8002L0 37.8V50.4L21.9844 50.427H22.9578C22.7361 50.0486 22.4214 49.5991 22.2239 49.2059L33.6168 42.9457C35.714 47.6526 39.9848 51.1875 46.6375 51.1875C46.8324 51.1875 47.0216 51.1803 47.2136 51.1767C47.3469 51.1789 47.4761 51.187 47.611 51.1875C55.3448 51.2145 58.6245 48.531 58.6245 44.127C58.6245 40.6708 56.2266 39.2533 50.8352 37.827" fill="#CC0243"/>
<path fill-rule="evenodd" clip-rule="evenodd" d="M22.8563 50.4L0 50.4V63L47.4308 62.9998L47.421 62.9861C35.6911 62.9345 27.0838 58.1399 22.8563 50.4Z" fill="#F20D3A"/>
<path fill-rule="evenodd" clip-rule="evenodd" d="M26.0651 12.6C29.0927 4.99978 36.8965 1.18125 46.3093 0H0V12.5991L26.0651 12.6Z" fill="#FF4B00"/>
<path fill-rule="evenodd" clip-rule="evenodd" d="M38.3694 18.0859C38.3694 13.774 42.6145 11.7376 47.4841 11.7376C52.6031 11.7376 56.9732 13.8938 59.2205 18.5648L70.5826 12.4563C66.2127 4.55112 57.7223 0 47.4841 0C34.7486 0 24.635 7.06651 24.635 18.3251C24.635 39.7645 58.2219 33.7758 58.2219 44.4355C58.2219 49.2266 53.602 51.1425 47.6089 51.1425C40.7417 51.1425 35.7474 47.9088 33.7496 42.5191L22.1379 48.9868C26.1334 57.6102 35.1231 63 47.6089 63C61.0935 63 71.9561 56.5324 71.9561 44.5554C71.9561 22.3973 38.3694 28.9849 38.3694 18.0859Z" fill="white"/>
</svg>
