<svg width="477" height="100" viewBox="0 0 477 100" fill="none" xmlns="http://www.w3.org/2000/svg">
<path fill-rule="evenodd" clip-rule="evenodd" d="M351.07 63.9L365.57 27.2L379.87 63.9H351.07ZM374.82 6C373.02 1.98 370.02 0.0200005 365.67 0.0200005C361.33 0.0200005 358.2 2.12 356.6 6.12L323.02 87.97C322.72 88.82 322.27 90.12 322.27 91.87C322.27 96.43 326.2 100 331.21 100C335.01 100 337.51 98.18 339.08 94.26L344.78 79.84H386.06L391.77 94.52C393.76 99.05 397.12 100 399.6 100C404.74 100 408.93 96.12 408.93 91.34C408.93 89.94 408.52 88.41 408.13 87.44L374.82 5.99V6ZM467.12 0.0200005C462.62 0.0200005 460.7 2.6 459.29 5.39L459.28 5.41L436.63 45.71L412.56 4.73C410.08 0.51 407.25 0.0200005 405.33 0.0200005C400.31 0.0200005 396.27 4.61 396.27 8.42C396.27 10.22 396.82 12.1 397.83 13.71L427.77 64.18V91.08C427.77 96.58 431.14 100 436.57 100C441.99 100 445.37 96.58 445.37 91.07V64.15L445.45 64.01L473.83 14.91C474.99 12.92 476.06 10.76 476.06 8.41C476.06 4.18 471.63 0.00999832 467.13 0.00999832L467.12 0.0200005ZM303.7 83.43H277.2V8.63C277.2 3.15 274.02 0.00999832 268.46 0.00999832C262.9 0.00999832 259.71 3.15 259.71 8.63V99.86H303.7C309.08 99.86 312.17 96.87 312.17 91.66C312.17 86.44 309.08 83.44 303.7 83.44V83.43ZM217.1 46.75H197.86V69.76C197.86 76.83 192.11 82.57 185.06 82.57C177.99 82.57 172.24 76.83 172.24 69.77V17.37H217.1C225.2 17.37 231.8 23.95 231.8 32.05C231.8 40.15 225.2 46.75 217.1 46.75ZM217.1 0H154.9V69.76C154.9 77.7616 158.079 85.4354 163.737 91.0934C169.395 96.7514 177.068 99.93 185.07 99.93C193.072 99.93 200.745 96.7514 206.403 91.0934C212.061 85.4354 215.24 77.7616 215.24 69.76V64.11H217.12C221.329 64.11 225.497 63.281 229.385 61.6703C233.274 60.0597 236.807 57.6989 239.783 54.7228C242.759 51.7467 245.12 48.2135 246.73 44.325C248.341 40.4365 249.17 36.2689 249.17 32.06C249.17 27.8511 248.341 23.6835 246.73 19.795C245.12 15.9065 242.759 12.3733 239.783 9.39723C236.807 6.42111 233.274 4.06032 229.385 2.44966C225.497 0.838998 221.329 0.00999826 217.12 0.00999832L217.1 0Z" fill="#00F0C8"/>
<path fill-rule="evenodd" clip-rule="evenodd" d="M60.08 30.04V31.84C60.08 32.9871 59.6243 34.0871 58.8132 34.8982C58.0021 35.7093 56.9021 36.165 55.755 36.165C54.6079 36.165 53.5079 35.7093 52.6968 34.8982C51.8857 34.0871 51.43 32.9871 51.43 31.84V30.04C51.426 27.0939 50.8142 24.1803 49.633 21.4814C48.4518 18.7824 46.7266 16.3562 44.5651 14.3543C42.4037 12.3524 39.8525 10.8179 37.0711 9.84669C34.2896 8.87552 31.3378 8.48856 28.4 8.71C17.52 9.53 8.65 19.57 8.65 30.48V69.87C8.65256 72.8165 9.2633 75.7308 10.444 78.4305C11.6247 81.1301 13.3499 83.557 15.5117 85.5592C17.6735 87.5614 20.2253 89.0958 23.0073 90.0664C25.7894 91.037 28.7419 91.423 31.68 91.2C42.56 90.38 51.43 80.34 51.43 69.43V57.78H30.04V49.14H55.76C56.3273 49.14 56.8891 49.2517 57.4132 49.4688C57.9373 49.6859 58.4136 50.0041 58.8147 50.4053C59.2159 50.8064 59.5341 51.2827 59.7512 51.8068C59.9683 52.3309 60.08 52.8927 60.08 53.46V69.87C60.08 77.8371 56.9151 85.4779 51.2815 91.1115C45.6479 96.7451 38.0071 99.91 30.04 99.91C22.0729 99.91 14.4321 96.7451 8.79851 91.1115C3.16492 85.4779 0 77.8371 0 69.87V30.04C0 22.0729 3.16492 14.4321 8.79851 8.79851C14.4321 3.16492 22.0729 0 30.04 0C38.0071 0 45.6479 3.16492 51.2815 8.79851C56.9151 14.4321 60.08 22.0729 60.08 30.04ZM77.45 30.06C77.45 22.0929 80.6149 14.4521 86.2485 8.81851C91.8821 3.18492 99.5229 0.0200005 107.49 0.0200005C115.457 0.0200005 123.098 3.18492 128.731 8.81851C134.365 14.4521 137.53 22.0929 137.53 30.06V69.89C137.53 77.8571 134.365 85.4979 128.731 91.1315C123.098 96.7651 115.457 99.93 107.49 99.93C99.5229 99.93 91.8821 96.7651 86.2485 91.1315C80.6149 85.4979 77.45 77.8571 77.45 69.89V30.06ZM128.88 30.06C128.88 18.26 119.28 8.66 107.49 8.66C95.69 8.66 86.09 18.26 86.09 30.06V69.89C86.09 81.69 95.69 91.28 107.49 91.28C119.29 91.28 128.89 81.68 128.89 69.88V30.07L128.88 30.06Z" fill="white"/>
</svg>
