<svg width="314" height="100" viewBox="0 0 314 100" fill="none" xmlns="http://www.w3.org/2000/svg">
<path fill-rule="evenodd" clip-rule="evenodd" d="M136.157 52.6789L146.22 27.2083L156.138 52.6789H136.15H136.157ZM152.633 12.495C151.384 9.70506 149.302 8.34478 146.283 8.34478C143.277 8.34478 141.098 9.80916 139.995 12.5783L116.689 69.391C116.481 69.9809 116.169 70.8762 116.169 72.0977C116.169 75.2624 118.89 77.7401 122.367 77.7401C125.004 77.7401 126.739 76.477 127.829 73.7564L131.784 63.7486H160.441L164.397 73.9368C165.785 77.0808 168.117 77.7401 169.831 77.7401C173.405 77.7401 176.313 75.0403 176.313 71.7299C176.313 70.7582 176.021 69.6894 175.758 69.0232L152.633 12.495ZM216.698 8.34478C213.575 8.34478 212.236 10.1354 211.257 12.0717V12.0925L195.537 40.0616L178.832 11.6136C177.104 8.68485 175.14 8.35172 173.814 8.35172C170.33 8.35172 167.52 11.5373 167.52 14.1746C167.52 15.4238 167.908 16.7286 168.609 17.8529L189.381 52.8733V71.5425C189.381 75.3596 191.727 77.7401 195.489 77.7401C199.257 77.7401 201.596 75.3665 201.596 71.5425V52.8524L201.652 52.7553L221.348 18.6788C222.153 17.2907 222.896 15.7916 222.896 14.1676C222.896 11.225 219.828 8.33783 216.698 8.33783V8.34478ZM103.274 66.2332H84.8824V14.3064C84.8824 10.5101 82.6754 8.3309 78.8167 8.3309C74.9579 8.3309 72.7509 10.5101 72.7509 14.3064V77.629H103.274C107.015 77.629 109.159 75.547 109.159 71.9381C109.159 68.3083 107.008 66.2332 103.274 66.2332ZM43.1856 40.7695H29.8256V56.7459C29.8256 61.6457 25.8419 65.6294 20.9421 65.6294C16.0354 65.6294 12.0517 61.6457 12.0517 56.7459V20.3791H43.1856C45.8443 20.4485 48.3709 21.5534 50.2269 23.4585C52.0829 25.3635 53.1216 27.9181 53.1216 30.5778C53.1216 33.2375 52.0829 35.792 50.2269 37.6971C48.3709 39.6021 45.8443 40.7071 43.1856 40.7764V40.7695ZM43.1856 8.3309H0.00347037V56.7459C-0.0471724 59.5272 0.456903 62.2908 1.48625 64.8751C2.51561 67.4594 4.0496 69.8127 5.99863 71.7976C7.94766 73.7824 10.2727 75.359 12.8378 76.4352C15.403 77.5114 18.1569 78.0658 20.9387 78.0658C23.7204 78.0658 26.4743 77.5114 29.0395 76.4352C31.6047 75.359 33.9297 73.7824 35.8787 71.7976C37.8277 69.8127 39.3617 67.4594 40.3911 64.8751C41.4204 62.2908 41.9245 59.5272 41.8738 56.7459V52.8177H43.1856C46.1066 52.8177 48.999 52.2424 51.6977 51.1246C54.3964 50.0067 56.8485 48.3683 58.914 46.3028C60.9795 44.2373 62.618 41.7852 63.7358 39.0865C64.8536 36.3878 65.429 33.4954 65.429 30.5743C65.429 27.6533 64.8536 24.7608 63.7358 22.0621C62.618 19.3634 60.9795 16.9113 58.914 14.8458C56.8485 12.7803 54.3964 11.1419 51.6977 10.0241C48.999 8.90624 46.1066 8.3309 43.1856 8.3309Z" fill="white"/>
<path fill-rule="evenodd" clip-rule="evenodd" d="M235.138 65.2546L245.299 8.74036C246.326 2.98692 251.92 -0.851028 257.777 0.162245C263.635 1.17552 267.549 6.6583 266.515 12.4117L256.361 68.926C255.32 74.6725 249.741 78.5104 243.876 77.4972C238.018 76.4839 234.111 71.0011 235.145 65.2546H235.138ZM299.127 48.1331L291.375 91.2596C290.341 97.0131 284.754 100.851 278.896 99.8378C273.039 98.8245 269.125 93.3417 270.159 87.5883L277.911 44.4617C278.945 38.7152 284.532 34.8703 290.389 35.8905C291.77 36.1151 293.092 36.6108 294.279 37.3489C295.467 38.0871 296.497 39.0531 297.309 40.1913C298.121 41.3295 298.7 42.6173 299.012 43.9804C299.324 45.3435 299.363 46.7548 299.127 48.1331ZM299.682 62.194C300.021 60.4019 301.055 58.8164 302.557 57.7829C304.06 56.7494 305.911 56.3517 307.705 56.6765C308.594 56.8194 309.446 57.1373 310.211 57.6118C310.976 58.0863 311.639 58.708 312.162 59.4407C312.685 60.1734 313.057 61.0027 313.257 61.8804C313.457 62.758 313.481 63.6667 313.327 64.5536L311.987 71.9866C311.647 73.7774 310.613 75.3612 309.11 76.3933C307.608 77.4253 305.758 77.8221 303.964 77.4972C303.077 77.3525 302.228 77.0337 301.465 76.559C300.701 76.0843 300.04 75.4633 299.518 74.7316C298.996 73.9999 298.624 73.1722 298.423 72.2961C298.223 71.4199 298.198 70.5128 298.35 69.627L299.689 62.194H299.682ZM269.617 73.2983L271.491 62.888C271.61 62.1981 271.591 61.4915 271.436 60.8089C271.28 60.1264 270.99 59.4815 270.584 58.9116C270.177 58.3417 269.661 57.8581 269.067 57.4887C268.472 57.1194 267.81 56.8716 267.119 56.7598C265.722 56.506 264.282 56.8144 263.112 57.6178C261.942 58.4212 261.137 59.6544 260.873 61.0488L259.006 71.4592C258.888 72.1485 258.907 72.8545 259.064 73.5362C259.22 74.218 259.51 74.862 259.916 75.4311C260.323 76.0003 260.838 76.4832 261.432 76.8521C262.026 77.221 262.688 77.4686 263.378 77.5805C264.773 77.8322 266.212 77.5229 267.38 76.7197C268.549 75.9164 269.353 74.6843 269.617 73.2914V73.2983Z" fill="#F50A00"/>
</svg>
