<svg xmlns="http://www.w3.org/2000/svg" width="24" height="24" fill="none"><path fill="#291D18" d="M12.482 6.744a1.872 1.872 0 1 0 0-3.744 1.872 1.872 0 0 0 0 3.744M5.028 7.863a1 1 0 0 1 1.216-.722c1.882.478 4.78.802 6.238.802 1.457 0 4.356-.324 6.238-.802a1 1 0 0 1 .493 1.938c-.932.237-2.859.515-3.831.648a.67.67 0 0 0-.58.674c.018.945.059 2.826.129 4.24.113 2.297.27 4.736.382 6.28a1 1 0 1 1-1.995.143c-.09-1.247-.21-3.074-.313-4.943a.525.525 0 0 0-1.047 0c-.103 1.87-.223 3.696-.312 4.943a1 1 0 1 1-1.995-.143c.11-1.544.269-3.983.382-6.28.07-1.414.11-3.295.128-4.24a.67.67 0 0 0-.58-.674c-.972-.133-2.898-.411-3.83-.648a1 1 0 0 1-.723-1.216"/></svg>