<svg xmlns="http://www.w3.org/2000/svg" width="24" height="24" fill="none"><path fill="#291D18" d="M10.594 1.086a1 1 0 0 1 .812 0l9 4A1 1 0 0 1 21 6v4.537a7.6 7.6 0 0 0-2-.871V7.539l-7 3.11v.627a7.6 7.6 0 0 0-2 2.759V10.65L3 7.539v7.811l6.5 2.89a7.6 7.6 0 0 0 .944 2.607l-8.85-3.933A1 1 0 0 1 1 16V6a1 1 0 0 1 .594-.914zM8.962 4 15.5 6.906 17.538 6 11 3.094zm-4.5 2L11 8.906 13.038 8 6.5 5.094zM23 17a6 6 0 1 1-12 0 6 6 0 0 1 12 0m-5.434-3.566a.8.8 0 0 0-1.132 1.132L18.07 16.2H14a.8.8 0 0 0 0 1.6h4.069l-1.635 1.634a.8.8 0 0 0 1.132 1.132l3-3a.8.8 0 0 0 0-1.132z"/></svg>