<svg xmlns="http://www.w3.org/2000/svg" width="24" height="24" fill="none"><path fill="#291D18" d="m15.273 5.982.127.149L18.482 10H19a3 3 0 0 1 2.995 2.824L22 13v3a1 1 0 0 1-.884.993L21 17h-1.17a3.001 3.001 0 0 1-5.66 0H9.83a3.001 3.001 0 0 1-5.66 0H3a1 1 0 0 1-.994-.883L2 16v-4.615a3 3 0 0 1 .138-.899l.076-.215 1.354-3.385a3 3 0 0 1 2.593-1.88L6.354 5h6.699a3 3 0 0 1 2.22.982M19.83 15H20v-2a1 1 0 0 0-.883-.993L19 12H4v3h.17a3.001 3.001 0 0 1 5.66 0h4.34a3.001 3.001 0 0 1 5.66 0m-3.904-5-2.09-2.623a1 1 0 0 0-.653-.369L13.053 7H12v3zM10 7H6.354a1 1 0 0 0-.877.519l-.052.11L4.477 10H10zm-2 9a1 1 0 1 0-2 0 1 1 0 0 0 2 0m9-1a1 1 0 1 0 0 2 1 1 0 0 0 0-2"/></svg>