<svg xmlns="http://www.w3.org/2000/svg" width="24" height="24" fill="none"><path fill="#291D18" d="M15.797 10.75a.75.75 0 0 0-.75-.75h-1l-.102.007a.75.75 0 0 0 .102 1.493h1l.102-.007a.75.75 0 0 0 .648-.743m-5.75-.75a.75.75 0 0 1 .102 1.493l-.102.007h-1a.75.75 0 0 1-.102-1.493L9.047 10zm2 3a2.75 2.75 0 1 0 0 5.5 2.75 2.75 0 0 0 0-5.5m0 1.5a1.25 1.25 0 1 1 0 2.5 1.25 1.25 0 0 1 0-2.5"/><path fill="#291D18" d="M10.75 2a6.75 6.75 0 0 0-6.708 7.495l.667 6a6.75 6.75 0 0 0 6.708 6.005h1.26a6.75 6.75 0 0 0 6.709-6.005l.666-6a6.75 6.75 0 0 0-1.129-4.545c.218-1.02.605-1.45 1.124-1.45l.102-.007A.75.75 0 0 0 20.047 2c-1.067 0-1.82.585-2.276 1.655A6.72 6.72 0 0 0 13.343 2zm2.593 1.5c1.6 0 3.034.716 3.997 1.845q-.022.16-.04.329C17.249 6.654 16.903 7 16.048 7c-.384 0-.56-.088-.887-.4.011.01-.309-.304-.418-.404l-.157-.137C13.738 5.348 12.72 5 11.047 5c-1.828 0-3.428.343-4.788 1.031A5.24 5.24 0 0 1 10.751 3.5zm-7.81 5.83a5.3 5.3 0 0 1-.017-.995l.027-.022C6.91 7.108 8.733 6.5 11.047 6.5c1.408 0 2.084.256 2.683.804l.538.513c.527.465 1.027.683 1.779.683 1.094 0 1.895-.424 2.343-1.2a5.3 5.3 0 0 1 .171 2.03l-.666 6A5.25 5.25 0 0 1 12.677 20h-1.26A5.25 5.25 0 0 1 6.2 15.33z"/></svg>