<svg xmlns="http://www.w3.org/2000/svg" width="24" height="24" fill="none"><path fill="#291D18" d="M7 2.12a2 2 0 0 0-2 2v6.4h2v-6.4h2.929q.072 0 .143.003a1 1 0 0 1 .928.998v4a1 1 0 0 0 1 1h4c.327 0 .618.157.8.4h2.162a6 6 0 0 0-1.72-3.572l-3.07-3.071A6 6 0 0 0 10 2.121zm8.586 6H13V5.536zM2 14.12a2 2 0 0 1 2-2h16a2 2 0 0 1 2 2v6a2 2 0 0 1-2 2H4a2 2 0 0 1-2-2zm3.718 5.13h1.35l.846-1.343.816 1.343h1.374l-1.41-2.256 1.404-2.033H8.76l-.798 1.248-.852-1.248H5.724l1.398 2.07zm5.135 0H13.9v-1.044h-1.884v-3.245h-1.164zm5.631.12c1.062 0 1.716-.504 1.716-1.344 0-.87-.702-1.187-1.344-1.386l-.124-.037c-.398-.12-.734-.22-.734-.503 0-.21.192-.33.414-.33.372 0 .57.319.648.678l1.044-.401c-.216-.66-.792-1.207-1.77-1.207-.996 0-1.596.559-1.596 1.357 0 .852.69 1.158 1.398 1.38l.082.025c.373.115.722.223.722.508 0 .198-.18.3-.45.3-.444 0-.708-.3-.792-.732l-1.116.492c.204.666.816 1.2 1.902 1.2"/></svg>