<svg xmlns="http://www.w3.org/2000/svg" width="24" height="24" fill="none"><path fill="#291D18" d="m12 4 .015.003a.3.3 0 0 1 .066.032 1.2 1.2 0 0 1 .301.291c.26.33.539.87.79 1.626.43 1.29.732 3.05.809 5.048h-3.962c.076-1.997.378-3.757.808-5.048.252-.756.53-1.296.79-1.626.128-.162.232-.249.302-.291a.3.3 0 0 1 .08-.035zm1.981 9c-.076 1.997-.378 3.757-.808 5.048-.252.756-.53 1.296-.79 1.626a1.2 1.2 0 0 1-.302.29.3.3 0 0 1-.066.033L12 20l-.015-.003a.3.3 0 0 1-.066-.032 1.2 1.2 0 0 1-.301-.291c-.26-.33-.539-.87-.79-1.626-.43-1.29-.732-3.05-.809-5.048zm-5.963-2H4.062a8.01 8.01 0 0 1 5.183-6.513q-.171.399-.315.833c-.508 1.524-.835 3.506-.912 5.68m-3.956 2h3.956c.077 2.174.404 4.156.912 5.68q.144.435.315.833A8.01 8.01 0 0 1 4.062 13M2 12c0 5.523 4.477 10 10 10s10-4.477 10-10S17.523 2 12 2 2 6.477 2 12m17.938 1a8.01 8.01 0 0 1-5.183 6.513q.171-.398.315-.833c.508-1.524.835-3.506.912-5.68zm0-2h-3.956c-.077-2.174-.404-4.156-.912-5.68q-.144-.435-.315-.833A8.01 8.01 0 0 1 19.938 11"/></svg>