<svg xmlns="http://www.w3.org/2000/svg" width="24" height="24" fill="none"><path fill="#291D18" d="M7.895 12.25a2.49 2.49 0 0 1-2.477-2.5c0-1.38 1.109-2.5 2.477-2.5a2.49 2.49 0 0 1 2.478 2.5c0 1.38-1.11 2.5-2.478 2.5m0-1.5a.996.996 0 0 0 .991-1c0-.552-.443-1-.99-1a.996.996 0 0 0-.992 1c0 .552.444 1 .991 1"/><path fill="#291D18" d="M4.179 4a1.99 1.99 0 0 0-1.982 2v12c0 1.105.887 2 1.982 2h15.857a1.99 1.99 0 0 0 1.982-2V6c0-1.105-.888-2-1.982-2zm15.857 2v6.25c-3.834.023-7.943.65-11.178 1.46-1.647.412-3.09.876-4.164 1.343q-.27.117-.515.238V6zm0 7.75V18H4.179v-.99c.25-.172.618-.369 1.102-.579.976-.424 2.334-.865 3.935-1.266 3.14-.785 7.126-1.391 10.82-1.414"/></svg>