<svg xmlns="http://www.w3.org/2000/svg" width="24" height="24" fill="none"><path fill="#291D18" d="M19.121 3.707a3 3 0 0 0-4.242 0l-1.586 1.586L10 8.585 4.707 3.293a1 1 0 0 0-1.414 1.414L8.586 10 3.72 14.864a3 3 0 0 0-.82 1.533l-.882 4.407a1 1 0 0 0 1.177 1.176l4.406-.881a3 3 0 0 0 1.533-.82L14 15.414l5.293 5.293a1 1 0 0 0 1.414-1.414L15.414 14l3.293-3.293 1.586-1.586a3 3 0 0 0 0-4.243zM14 12.586 11.414 10 14 7.414 16.586 10zm-4-1.172L12.586 14 7.72 18.864a1 1 0 0 1-.51.274l-2.936.587.587-2.935a1 1 0 0 1 .273-.511zm6.293-6.293a1 1 0 0 1 1.414 0l1.172 1.172a1 1 0 0 1 0 1.414L18 8.585 15.414 6z"/></svg>