<svg xmlns="http://www.w3.org/2000/svg" width="24" height="24" fill="none"><path fill="#291D18" d="M9.519 11.75a2.7 2.7 0 0 0 0 .5H11a.75.75 0 0 1 0 1.5h-.838a2.66 2.66 0 0 0 2.01.914c.683 0 1.363-.26 1.883-.78a.75.75 0 0 1 1.061 1.06 4.15 4.15 0 0 1-2.944 1.22 4.15 4.15 0 0 1-2.945-1.22 4.2 4.2 0 0 1-.835-1.195H7.5a.75.75 0 0 1 0-1.5h.515a4 4 0 0 1 0-.5H7.5a.75.75 0 0 1 0-1.5h.892c.2-.432.478-.838.835-1.194a4.15 4.15 0 0 1 2.945-1.22c1.064 0 2.131.407 2.944 1.22a.75.75 0 1 1-1.06 1.06 2.65 2.65 0 0 0-1.884-.78 2.65 2.65 0 0 0-2.01.914H11a.75.75 0 0 1 0 1.5z"/><path fill="#291D18" d="M10.698 2.264a1.5 1.5 0 0 1 2.605 0L14.67 4.66l2.59-.956a1.5 1.5 0 0 1 1.995 1.675l-.492 2.715 2.598.932a1.5 1.5 0 0 1 .452 2.566l-2.122 1.764 1.39 2.384a1.5 1.5 0 0 1-1.302 2.256l-2.76-.013-.466 2.72a1.5 1.5 0 0 1-2.448.891L12 19.81l-2.106 1.784a1.5 1.5 0 0 1-2.448-.891l-.466-2.72-2.76.013a1.5 1.5 0 0 1-1.303-2.256l1.391-2.384-2.122-1.764a1.5 1.5 0 0 1 .452-2.566l2.598-.932-.492-2.715A1.5 1.5 0 0 1 6.74 3.704l2.589.956zM12 4.016 10.855 6.02a1.5 1.5 0 0 1-1.822.663l-2.165-.8.411 2.272a1.5 1.5 0 0 1-.97 1.679l-2.172.78 1.775 1.475a1.5 1.5 0 0 1 .337 1.91l-1.163 1.993 2.308-.011a1.5 1.5 0 0 1 1.485 1.246l.39 2.275 1.761-1.492a1.5 1.5 0 0 1 1.94 0l1.76 1.492.39-2.275a1.5 1.5 0 0 1 1.486-1.246l2.308.01-1.163-1.993a1.5 1.5 0 0 1 .337-1.91l1.774-1.475-2.172-.779a1.5 1.5 0 0 1-.97-1.68l.412-2.27-2.165.8a1.5 1.5 0 0 1-1.822-.664z"/></svg>