<svg xmlns="http://www.w3.org/2000/svg" width="24" height="24" fill="none"><path fill="#291D18" d="M10.649 2.064a1 1 0 0 1 .702 0l8 3A1 1 0 0 1 20 6v4.015a7.6 7.6 0 0 0-2-.55V6.694l-7-2.625-7 2.625V12c0 1.672.845 3.441 2.235 4.947a11.1 11.1 0 0 0 3.6 2.595c.32.899.802 1.72 1.413 2.427l-.005.001a1 1 0 0 1-.486 0c-2.211-.553-4.377-1.917-5.992-3.667C3.155 16.56 2 14.328 2 12V6a1 1 0 0 1 .649-.936z"/><path fill="#291D18" d="M23 17a6 6 0 1 1-12 0 6 6 0 0 1 12 0m-6-3.3a.8.8 0 0 0-.8.8v1.7h-1.7a.8.8 0 0 0 0 1.6h1.7v1.7a.8.8 0 0 0 1.6 0v-1.7h1.7a.8.8 0 0 0 0-1.6h-1.7v-1.7a.8.8 0 0 0-.8-.8"/></svg>