<svg xmlns="http://www.w3.org/2000/svg" width="24" height="24" fill="none"><path fill="#291D18" d="M9 7a3 3 0 1 1 6 0 3 3 0 0 1-6 0m3-5a5 5 0 1 0 0 10 5 5 0 0 0 0-10M7.353 14.29c.27-.04 1.876-.26 4.182-.287a7.6 7.6 0 0 0-.876 2.021 30 30 0 0 0-3.017.245l-.073.01h-.004a1.51 1.51 0 0 0-1.292 1.322l-.004.031c-.014.106-.136 1.05-.21 2.368h4.607a7.6 7.6 0 0 0 .87 2H6.044a1.98 1.98 0 0 1-1.984-2.085c.079-1.397.208-2.405.226-2.544l.003-.022a3.506 3.506 0 0 1 3.01-3.051zM24 18a6 6 0 1 1-12 0 6 6 0 0 1 12 0m-9.3 0a.8.8 0 0 0 .8.8h5a.8.8 0 0 0 0-1.6h-5a.8.8 0 0 0-.8.8"/></svg>