<svg xmlns="http://www.w3.org/2000/svg" width="24" height="24" fill="none"><path fill="#291D18" d="M12 2a5 5 0 1 0 0 10 5 5 0 0 0 0-10M9 7a3 3 0 1 1 6 0 3 3 0 0 1-6 0m3 7c-2.554 0-4.359.248-4.647.29l-.054.008a3.506 3.506 0 0 0-3.01 3.051l-.003.022a37 37 0 0 0-.226 2.544A1.98 1.98 0 0 0 6.044 22h11.911a1.98 1.98 0 0 0 1.984-2.085 37 37 0 0 0-.225-2.544l-.003-.022a3.51 3.51 0 0 0-3.01-3.051l-.055-.008C16.358 14.248 14.553 14 12 14m-4.358 2.27C7.865 16.236 9.57 16 12 16s4.134.237 4.357.27l.073.01h.005c.675.09 1.203.623 1.292 1.32l.004.032c.014.105.135 1.05.21 2.368H6.059a34 34 0 0 1 .21-2.368l.004-.031a1.51 1.51 0 0 1 1.292-1.321h.004z"/></svg>