<svg xmlns="http://www.w3.org/2000/svg" width="24" height="24" fill="none"><path fill="#291D18" d="M15 4a5 5 0 0 0-4.559 7.058 1 1 0 0 1-.204 1.119l-5.909 5.909a1.121 1.121 0 0 0 1.586 1.586l5.547-5.547A7.56 7.56 0 0 0 10.4 18v.014l-3.072 3.072a3.122 3.122 0 0 1-4.414-4.414l5.447-5.447a7 7 0 0 1 9.52-8.606 1 1 0 0 1 .296 1.618L15 7.414V8a1 1 0 0 0 1 1h.586l3.177-3.177a1 1 0 0 1 1.618.295A7 7 0 0 1 22 9c0 .81-.137 1.587-.39 2.31a7.6 7.6 0 0 0-1.872-.71 5 5 0 0 0 .232-2.155L18.014 10.4H18c-.965 0-1.889.18-2.738.508A3 3 0 0 1 13 8V7a1 1 0 0 1 .293-.707l2.262-2.263A5 5 0 0 0 15 4m4.606 10.493a.43.43 0 0 1-.239-.28l-.327-1.31a.4.4 0 0 0-.388-.302h-1.304a.4.4 0 0 0-.388.302l-.327 1.31a.43.43 0 0 1-.24.28 4 4 0 0 0-.626.362.43.43 0 0 1-.362.067l-1.299-.37a.4.4 0 0 0-.456.184l-.652 1.129a.4.4 0 0 0 .068.487l.97.938c.094.09.136.219.124.347a4 4 0 0 0 0 .726.43.43 0 0 1-.123.346l-.97.939a.4.4 0 0 0-.069.487l.652 1.13a.4.4 0 0 0 .457.184l1.297-.372a.43.43 0 0 1 .362.067q.296.21.628.363a.43.43 0 0 1 .239.28l.327 1.31a.4.4 0 0 0 .388.302h1.304a.4.4 0 0 0 .388-.303l.327-1.309a.43.43 0 0 1 .239-.28q.332-.152.627-.363a.43.43 0 0 1 .363-.067l1.297.372a.4.4 0 0 0 .457-.185l.652-1.129a.4.4 0 0 0-.069-.487l-.97-.94a.43.43 0 0 1-.123-.346 4 4 0 0 0 0-.725.43.43 0 0 1 .123-.346l.97-.939a.4.4 0 0 0 .07-.487l-.653-1.13a.4.4 0 0 0-.456-.184l-1.299.371a.43.43 0 0 1-.362-.067 4 4 0 0 0-.627-.362M19.5 18a1.5 1.5 0 1 1-3 0 1.5 1.5 0 0 1 3 0"/></svg>