<svg width="66" height="65" viewBox="0 0 66 65" fill="none" xmlns="http://www.w3.org/2000/svg">
<circle cx="35.5" cy="35" r="29" fill="#E5CFC7"/>
<path d="M45.304 5.45345C40.7676 2.56035 35.4985 1 30 1C14.2599 1 1.5 13.7599 1.5 29.5C1.5 45.2401 14.2599 58 30 58C45.7401 58 58.5 45.2401 58.5 29.5C58.5 22.0934 55.662 15.1312 50.6617 9.86975C50.4715 9.66958 50.155 9.66153 49.9548 9.85176C49.7547 10.042 49.7466 10.3585 49.9369 10.5586C54.7622 15.636 57.5 22.3524 57.5 29.5C57.5 44.6878 45.1878 57 30 57C14.8122 57 2.5 44.6878 2.5 29.5C2.5 14.3122 14.8122 2 30 2C35.3066 2 40.3893 3.50518 44.7663 6.29658C44.9992 6.44507 45.3083 6.37669 45.4568 6.14387C45.6052 5.91104 45.5369 5.60193 45.304 5.45345Z" fill="#291D18"/>
<path fill-rule="evenodd" clip-rule="evenodd" d="M28.7796 40.4147C28.8264 40.3832 28.8684 40.3434 28.9032 40.2958C28.9152 40.2796 28.926 40.2628 28.9357 40.2455L41.9305 18.2544C42.0709 18.0167 41.9921 17.7101 41.7544 17.5696C41.5166 17.4291 41.21 17.508 41.0695 17.7457L28.3804 39.2197L18.8345 30.6284C18.6292 30.4437 18.3131 30.4603 18.1284 30.6656C17.9436 30.8709 17.9603 31.187 18.1655 31.3717L28.1579 40.3648C28.1722 40.3783 28.1875 40.391 28.2037 40.4029C28.2512 40.4379 28.3033 40.4634 28.3575 40.4795C28.4293 40.5009 28.5039 40.5054 28.5758 40.4943C28.6477 40.4833 28.7175 40.4567 28.7796 40.4147Z" fill="#291D18"/>
</svg>
