<svg width="190" height="137" viewBox="0 0 190 137" fill="none" xmlns="http://www.w3.org/2000/svg">
<path d="M33.4926 39.7305H158.076C162.494 39.7305 166.076 43.3122 166.076 47.7305V123.52C166.076 127.939 162.494 131.52 158.076 131.52H33.4926" stroke="#392E2A" stroke-width="3"/>
<path d="M149.673 71.0734V47.7305C149.673 43.3122 146.092 39.7305 141.673 39.7305H30.5579C26.1396 39.7305 22.5579 43.3122 22.5579 47.7305V123.52C22.5579 127.939 26.1396 131.52 30.5579 131.52H141.673C146.092 131.52 149.673 127.939 149.673 123.52V100.178" stroke="#392E2A" stroke-width="3"/>
<path d="M130.671 85.6256C130.671 80.7793 134.6 76.8506 139.446 76.8506H165.942V94.4006H139.446C134.6 94.4006 130.671 90.4719 130.671 85.6256Z" stroke="#392E2A" stroke-width="3"/>
<ellipse cx="139.422" cy="85.6253" rx="2.05025" ry="2.055" fill="#392E2A"/>
<path d="M79.5116 77.3906C79.5116 82.9897 75.0208 87.5286 69.4811 87.5286C63.9415 87.5286 59.4507 82.9897 59.4507 77.3906" stroke="#E5E3E3" stroke-width="3"/>
<path d="M116.29 77.3906C116.29 82.9897 111.799 87.5286 106.26 87.5286C100.72 87.5286 96.2291 82.9897 96.2291 77.3906" stroke="#E5E3E3" stroke-width="3"/>
<path d="M76.4111 73.2803C76.4111 78.8793 71.9204 83.4183 66.3807 83.4183C60.841 83.4183 56.3502 78.8793 56.3502 73.2803" stroke="#749645" stroke-width="3"/>
<path d="M113.189 73.2803C113.189 78.8793 108.699 83.4183 103.159 83.4183C97.6193 83.4183 93.1285 78.8793 93.1285 73.2803" stroke="#749645" stroke-width="3"/>
<ellipse cx="86.7138" cy="98.2292" rx="5.01523" ry="5.069" fill="#E5E3E3"/>
<path d="M89.2851 95.2458C89.2851 97.7742 87.2586 99.8148 84.7699 99.8148C82.2812 99.8148 80.2546 97.7742 80.2546 95.2458C80.2546 92.7173 82.2812 90.6768 84.7699 90.6768C87.2586 90.6768 89.2851 92.7173 89.2851 95.2458Z" fill="#749645" stroke="#749645"/>
<path d="M76.8644 17.413V15.1689L83.6657 6.51047H77.0831V3.74023H88.0237V6.00631L81.0912 14.6647H88.308V17.413H76.8644Z" fill="#749645"/>
<path d="M88.1659 31.5099V29.5249L92.6483 24.2269H88.31V21.9199H96.1795V23.9184L91.6106 29.2164H96.3669V31.5099H88.1659Z" fill="#749645"/>
</svg>
