<svg width="111" height="138" viewBox="0 0 111 138" fill="none" xmlns="http://www.w3.org/2000/svg">
<path d="M86.2443 57.2417V129.575C86.2443 132.889 83.558 135.575 80.2443 135.575H7.81314C4.49943 135.575 1.81314 132.889 1.81314 129.575V29.041C1.81314 25.7273 4.49943 23.041 7.81314 23.041L53.3767 23.041" stroke="#291D18" stroke-width="3" stroke-linecap="round"/>
<path d="M23 116H65" stroke="#291D18" stroke-width="3" stroke-linecap="round"/>
<path d="M64.3677 58.3014C61.0051 55.0413 56.7209 52.821 52.0569 51.9216C47.3929 51.0221 42.5585 51.4837 38.1651 53.2481C33.7717 55.0125 30.0166 58.0004 27.3746 61.834C24.7326 65.6676 23.3225 70.1747 23.3225 74.7853C23.3225 79.3959 24.7327 83.9029 27.3746 87.7365C30.0166 91.5701 33.7717 94.558 38.1651 96.3224C42.5585 98.0868 47.3929 98.5485 52.0569 97.649C56.721 96.7495 61.0051 94.5293 64.3677 91.2691" stroke="#291D18" stroke-width="3" stroke-linecap="round"/>
<path d="M17.3115 71.8711H47.3661" stroke="#291D18" stroke-width="3" stroke-linecap="round" stroke-linejoin="round"/>
<path d="M17.3115 80.6133H38.3497" stroke="#291D18" stroke-width="3" stroke-linecap="round" stroke-linejoin="round"/>
<path fill-rule="evenodd" clip-rule="evenodd" d="M103.496 13.34C107.626 17.3995 110.186 23.0483 110.186 29.2955C110.186 41.6543 100.164 51.673 87.8008 51.673C75.4376 51.673 65.4153 41.6543 65.4153 29.2955C65.4153 16.9376 75.4376 6.91797 87.8008 6.91797C91.9963 6.91797 95.9227 8.07232 99.2784 10.0787" fill="#ADD1A6"/>
<path d="M99.1575 8.87997C103.303 12.9493 105.872 18.6119 105.872 24.8741C105.872 37.2629 95.813 47.3059 83.4049 47.3059C70.9968 47.3059 60.9381 37.2629 60.9381 24.8741C60.9381 12.4863 70.9968 2.44238 83.4049 2.44238C87.6157 2.44238 91.5563 3.59953 94.9242 5.61083" stroke="#291D18" stroke-width="3" stroke-linecap="round"/>
<path d="M72.2214 26.7973L80.8762 35.4377L93.803 14.0039" stroke="#291D18" stroke-width="3" stroke-linecap="round" stroke-linejoin="round"/>
</svg>
