<svg width="71" height="46" viewBox="0 0 71 46" fill="none" xmlns="http://www.w3.org/2000/svg">
<rect x="16.6504" y="6.93149" width="49.9513" height="33.0822" rx="9" fill="#E5CFC7"/>
<path fill-rule="evenodd" clip-rule="evenodd" d="M61.4181 24.5753H69.2721C70.0529 24.5753 70.6858 25.2101 70.6858 25.9932V42.3767C70.6858 43.1598 70.0529 43.7945 69.2721 43.7945H61.4181C60.6374 43.7945 60.0044 43.1598 60.0044 42.3767V25.9932C60.0044 25.2101 60.6374 24.5753 61.4181 24.5753ZM69.2721 25.2055H61.4181C60.9844 25.2055 60.6327 25.5581 60.6327 25.9932V42.3767C60.6327 42.8117 60.9844 43.1644 61.4181 43.1644H69.2721C69.7059 43.1644 70.0575 42.8117 70.0575 42.3767V25.9932C70.0575 25.5581 69.7059 25.2055 69.2721 25.2055Z" fill="#291D18"/>
<path d="M19.1637 0.315063C20.1811 0.315063 21.0102 1.1234 21.0474 2.1346L21.0487 2.20547V25.5205C21.0487 26.5409 20.2427 27.3724 19.2344 27.4097L19.1637 27.411H2.1991C1.18173 27.411 0.35261 26.6026 0.315448 25.5914L0.314148 25.5205V7.56164C0.314148 7.38763 0.454802 7.24657 0.628307 7.24657C0.789419 7.24657 0.922205 7.3682 0.940353 7.52489L0.942466 7.56164V25.5205C0.942466 26.1955 1.4715 26.7465 2.13638 26.7793L2.1991 26.7808H19.1637C19.8367 26.7808 20.3861 26.2503 20.4188 25.5834L20.4203 25.5205V2.20547C20.4203 1.53054 19.8913 0.979518 19.2264 0.946743L19.1637 0.9452H2.1991C1.52611 0.9452 0.976685 1.47577 0.944004 2.14257L0.942466 2.20547V5.04109C0.942466 5.2151 0.801813 5.35616 0.628307 5.35616C0.467195 5.35616 0.334409 5.23453 0.316262 5.07783L0.314148 5.04109V2.20547C0.314148 1.18516 1.12015 0.353637 2.12844 0.316367L2.1991 0.315063H19.1637Z" fill="#291D18"/>
<ellipse cx="65.5022" cy="41.4315" rx="0.7854" ry="0.78767" fill="#291D18"/>
<ellipse cx="10.8385" cy="24.4178" rx="0.785398" ry="0.787671" fill="#291D18"/>
<ellipse cx="39.1128" cy="33.8699" rx="0.785398" ry="0.787672" fill="#291D18"/>
<path d="M17.3245 37.4931C15.5932 37.4931 14.1848 36.1033 14.1384 34.3717L14.1372 34.2834V28.6712C14.1372 28.4972 14.2778 28.3561 14.4513 28.3561C14.6124 28.3561 14.7452 28.4778 14.7634 28.6345L14.7655 28.6712V34.2834C14.7655 35.682 15.8695 36.8201 17.2463 36.8618L17.3245 36.863L58.7478 36.863C58.9213 36.863 59.062 37.0041 59.062 37.1781C59.062 37.3396 58.9407 37.4728 58.7844 37.491L58.7478 37.4931L17.3245 37.4931Z" fill="#291D18"/>
<path fill-rule="evenodd" clip-rule="evenodd" d="M23.542 39.2248H54.0553C54.5758 39.2248 54.9978 39.648 54.9978 40.17C54.9978 40.2398 54.9901 40.3093 54.9748 40.3774L54.1938 43.8602C53.9681 44.8667 53.0769 45.5817 52.0483 45.5817H25.5491C24.5204 45.5817 23.6292 44.8667 23.4035 43.8602L22.6225 40.3774C22.5083 39.8681 22.8274 39.3624 23.3353 39.2478C23.4031 39.2325 23.4725 39.2248 23.542 39.2248ZM54.0553 39.8549H23.542C23.5189 39.8549 23.4957 39.8575 23.4731 39.8626C23.3038 39.9008 23.1975 40.0694 23.2355 40.2391L24.0166 43.7219C24.1778 44.4408 24.8143 44.9516 25.5491 44.9516H52.0483C52.783 44.9516 53.4196 44.4408 53.5808 43.7219L54.3618 40.2391C54.3669 40.2164 54.3695 40.1933 54.3695 40.17C54.3695 39.996 54.2288 39.8549 54.0553 39.8549Z" fill="#291D18"/>
<ellipse cx="51.0097" cy="42.403" rx="0.718296" ry="0.715853" fill="#291D18"/>
<path d="M63.7743 22.0548C63.6132 22.0548 63.4804 21.9331 63.4623 21.7765L63.4602 21.7397V7.6207C63.4602 6.22209 62.3562 5.08394 60.9793 5.04226L60.9011 5.04108L22.3053 5.04108C22.1318 5.04108 21.9911 4.90002 21.9911 4.72601C21.9911 4.56443 22.1124 4.43126 22.2686 4.41306L22.3053 4.41094L60.9011 4.41094C62.6324 4.41094 64.0408 5.80081 64.0873 7.53237L64.0885 7.6207V21.7397C64.0885 21.9137 63.9478 22.0548 63.7743 22.0548Z" fill="#291D18"/>
<path d="M13.1947 2.20547C13.3682 2.20547 13.5088 2.34654 13.5088 2.52054C13.5088 2.68212 13.3876 2.81529 13.2313 2.83349L13.1947 2.83561H8.48228C8.30878 2.83561 8.16812 2.69455 8.16812 2.52054C8.16812 2.35896 8.2894 2.22579 8.44564 2.20759L8.48228 2.20547H13.1947Z" fill="#291D18"/>
<path d="M67.2301 25.8356C67.4036 25.8356 67.5442 25.9767 67.5442 26.1507C67.5442 26.3122 67.423 26.4454 67.2667 26.4636L67.2301 26.4657H63.7743C63.6008 26.4657 63.4602 26.3247 63.4602 26.1507C63.4602 25.9891 63.5815 25.8559 63.7377 25.8377L63.7743 25.8356H67.2301Z" fill="#291D18"/>
<path d="M35.4466 42.0881C35.6201 42.0881 35.7608 42.2292 35.7608 42.4032C35.7608 42.5648 35.6395 42.6979 35.4833 42.7161L35.4466 42.7182H25.8693C25.6958 42.7182 25.5552 42.5772 25.5552 42.4032C25.5552 42.2416 25.6765 42.1084 25.8327 42.0902L25.8693 42.0881H35.4466Z" fill="#291D18"/>
</svg>
