<svg xmlns="http://www.w3.org/2000/svg" width="24" height="24" fill="none"><g fill="#291D18"><path d="M14.267 10.655v.366c0 .057-.077.044-.077.044a7 7 0 0 0-1.455-.022s-.068.019-.068-.049v-.363c0-.036.059-.048.059-.048a4.4 4.4 0 0 1 1.479.027s.062.011.062.045M11.6 10.8c0-.799-.8-.8-.8-.8s-.8.001-.8.8.8.8.8.8.8-.001.8-.8m-1.502 2.494c.293.255 1.21.972 2.302.973 1.091-.001 2.009-.717 2.302-.973 0 0 .098-.104.098-.202v-.326c0-.164-.111-.076-.111-.076-.297.209-1.164.74-2.289.74s-1.992-.531-2.289-.74c0 0-.111-.088-.111.076v.326c0 .098.098.202.098.202"/><path d="M10 6h4a4 4 0 0 1 4 4v4a4 4 0 0 1-4 4h-4a4 4 0 0 1-4-4v-4a4 4 0 0 1 4-4m4 2h-4a2 2 0 0 0-2 2v4a2 2 0 0 0 2 2h4a2 2 0 0 0 2-2v-4a2 2 0 0 0-2-2"/><path d="M6 2h12a4 4 0 0 1 4 4v12a4 4 0 0 1-4 4H6a4 4 0 0 1-4-4V6a4 4 0 0 1 4-4m12 2H6a2 2 0 0 0-2 2v12a2 2 0 0 0 2 2h12a2 2 0 0 0 2-2V6a2 2 0 0 0-2-2"/></g></svg>