<?xml version="1.0" encoding="UTF-8"?>
<svg width="58px" height="58px" viewBox="0 0 58 58" version="1.1" xmlns="http://www.w3.org/2000/svg" xmlns:xlink="http://www.w3.org/1999/xlink">
    <!-- Generator: Sketch 60 (88103) - https://sketch.com -->
    <title>Illustration / Flow / Mobile+Desktop / Add item / Light</title>
    <desc>Created with Sketch.</desc>
    <g id="Illustration-/-Flow-/-Mobile+Desktop-/-Add-item-/-Light" stroke="none" stroke-width="1" fill="none" fill-rule="evenodd">
        <g id="Illustration-/-Flow-/-Mobile+Desktop-/-Add-item" fill="#FFFFFF" fill-rule="nonzero">
            <path d="M29,0.5 C34.4985357,0.5 39.7675508,2.06034844 44.3040474,4.95344709 C44.536873,5.10192893 44.6052471,5.41103968 44.4567652,5.64386526 C44.3082834,5.87669085 43.9991727,5.94506496 43.7663471,5.79658311 C39.3893124,3.00517953 34.3065928,1.5 29,1.5 C13.8121694,1.5 1.5,13.8121694 1.5,29 C1.5,44.1878306 13.8121694,56.5 29,56.5 C44.1878306,56.5 56.5,44.1878306 56.5,29 C56.5,21.8523524 53.7622433,15.1359912 48.9368513,10.0586404 C48.7466189,9.85847496 48.7546712,9.5419949 48.9548367,9.35176243 C49.1550021,9.16152997 49.4714822,9.16958228 49.6617147,9.36974777 C54.6620326,14.6311582 57.5,21.5933599 57.5,29 C57.5,44.7401154 44.7401154,57.5 29,57.5 C13.2598846,57.5 0.5,44.7401154 0.5,29 C0.5,13.2598846 13.2598846,0.5 29,0.5 Z M28.4615385,9.11538462 C28.7376808,9.11538462 28.9615385,9.33924224 28.9615385,9.61538462 L28.9615385,9.61538462 L28.961,27.961 L48.3846154,27.9615385 C48.6300753,27.9615385 48.8342238,28.1384136 48.8765597,28.3716628 L48.8846154,28.4615385 C48.8846154,28.7376808 48.6607578,28.9615385 48.3846154,28.9615385 L48.3846154,28.9615385 L28.961,28.961 L28.9615385,48.3846154 C28.9615385,48.6300753 28.7846633,48.8342238 28.5514141,48.8765597 L28.4615385,48.8846154 C28.1853961,48.8846154 27.9615385,48.6607578 27.9615385,48.3846154 L27.9615385,48.3846154 L27.961,28.961 L9.61538462,28.9615385 C9.36992473,28.9615385 9.16577625,28.7846633 9.12344028,28.5514141 L9.11538462,28.4615385 C9.11538462,28.1853961 9.33924224,27.9615385 9.61538462,27.9615385 L9.61538462,27.9615385 L27.961,27.961 L27.9615385,9.61538462 C27.9615385,9.36992473 28.1384136,9.16577625 28.3716628,9.12344028 Z" id="Combined-Shape"></path>
        </g>
    </g>
</svg>