<svg width="40" height="40" viewBox="0 0 40 40" fill="none" xmlns="http://www.w3.org/2000/svg">
<path fill-rule="evenodd" clip-rule="evenodd" d="M39.2021 7.11097C38.8013 3.8103 36.2566 1.21108 32.9543 0.812818C32.9543 0.812818 27.7139 0 19.9999 0C12.2858 0 7.04496 0.812818 7.04496 0.812818C3.74333 1.21108 1.19838 3.8103 0.797784 7.11097C0.797491 7.11155 0 12.9995 0 19.9996C0 27.0003 0.797491 32.888 0.797784 32.8885C1.19838 36.1895 3.74333 38.7882 7.04496 39.1871C7.04496 39.1871 12.2858 40 19.9999 40C27.7139 40 32.9543 39.1871 32.9543 39.1871C36.2566 38.7882 38.8013 36.1895 39.2021 32.8885C39.2021 32.888 40 27.0003 40 19.9996C40 12.9995 39.2021 7.11155 39.2021 7.11097Z" fill="#FDD671"/>
<path fill-rule="evenodd" clip-rule="evenodd" d="M17.344 24.4021C17.6941 24.4021 18.03 24.5382 18.2776 24.7804L18.7609 25.2532L19.4045 25.8827C19.6624 26.135 20.0805 26.135 20.3383 25.8827L20.9818 25.2532L21.4651 24.7804C21.7127 24.5382 22.0485 24.4021 22.3987 24.4021H17.344Z" fill="#291D18"/>
<path fill-rule="evenodd" clip-rule="evenodd" d="M20.5166 26.9847C20.1447 27.345 19.5416 27.345 19.1697 26.9847L17.8898 25.7448C17.3586 25.2301 16.4512 25.4035 16.1729 26.0795C15.7689 27.0608 15.7689 28.2136 16.1729 29.1948C16.4512 29.8708 17.3586 30.0442 17.8898 29.5296L18.6805 28.7635L20.9246 26.5895L20.5166 26.9847Z" fill="#291D18"/>
<path fill-rule="evenodd" clip-rule="evenodd" d="M21.8036 25.7674L20.9202 26.6428L18.6467 28.8959L19.1423 28.4049C19.5191 28.0314 20.1301 28.0314 20.5069 28.4049L21.8036 29.6899C22.3418 30.2233 23.2611 30.0436 23.5431 29.3429C23.9524 28.326 23.9524 27.1313 23.5431 26.1143C23.3724 25.6905 22.9686 25.4573 22.557 25.4573C22.2882 25.4573 22.0162 25.5567 21.8036 25.7674Z" fill="#291D18"/>
<path fill-rule="evenodd" clip-rule="evenodd" d="M25.1719 20.8657C25.0637 21.7508 24.3749 22.4475 23.4815 22.5546C23.4815 22.5546 22.0637 22.7725 19.9767 22.7725C17.8895 22.7725 16.4717 22.5546 16.4717 22.5546C15.5785 22.4475 14.89 21.7508 14.7815 20.8657C14.7815 20.8657 14.5656 19.2867 14.5656 17.4097C14.5656 15.5326 14.7815 13.9539 14.7815 13.9539C14.89 13.0686 15.5785 12.3719 16.4717 12.2651C16.4717 12.2651 17.8895 12.047 19.9767 12.047C22.0637 12.047 23.4815 12.2651 23.4815 12.2651C24.3749 12.3719 25.0637 13.0686 25.1719 13.9537C25.1719 13.9537 25.3878 15.5326 25.3878 17.4097C25.3878 19.2867 25.1719 20.8655 25.1719 20.8657ZM27.155 12.6345C27.0052 11.4117 26.0538 10.4488 24.8194 10.3012C24.8194 10.3012 22.8604 10 19.9767 10C17.0928 10 15.1338 10.3012 15.1338 10.3012C13.8996 10.4488 12.9481 11.4117 12.7983 12.6345C12.7982 12.6347 12.5 14.8162 12.5 17.4097C12.5 20.0033 12.7982 22.1846 12.7983 22.1848C12.9481 23.4081 13.8996 24.3706 15.1338 24.5183C15.1338 24.5183 17.0928 24.8195 19.9767 24.8195C22.8604 24.8195 24.8194 24.5183 24.8194 24.5183C26.0538 24.3706 27.0052 23.4081 27.155 22.1848C27.155 22.1848 27.4534 20.0033 27.4534 17.4097C27.4534 14.8162 27.155 12.6347 27.155 12.6345Z" fill="#291D18"/>
<path fill-rule="evenodd" clip-rule="evenodd" d="M23.0306 15.9641V15.2465C23.0306 15.1807 22.9411 15.16 22.9411 15.16C22.5675 15.0684 22.1972 15.0173 21.8311 15.0099C21.4862 15.0043 21.1424 15.0362 20.7992 15.1061C20.7992 15.1061 20.7139 15.1307 20.7139 15.2012V15.911C20.7139 16.0429 20.8129 16.0069 20.8129 16.0069C21.1357 15.9639 21.4516 15.9453 21.8282 15.9517C22.1933 15.9592 22.5781 15.9919 22.919 16.0505C22.919 16.0505 23.0306 16.0755 23.0306 15.9641Z" fill="#291D18"/>
<path fill-rule="evenodd" clip-rule="evenodd" d="M19.2396 15.531C19.2396 14.5934 18.0813 14.592 18.0813 14.592C18.0813 14.592 16.9229 14.5934 16.9229 15.531C16.9229 16.4692 18.0813 16.4706 18.0813 16.4706C18.0813 16.4706 19.2396 16.4692 19.2396 15.531Z" fill="#291D18"/>
<path fill-rule="evenodd" clip-rule="evenodd" d="M19.9767 20.2276C18.4922 20.227 17.2437 19.3855 16.8451 19.0851C16.8451 19.0851 16.7122 18.9638 16.7122 18.8487V18.4654C16.7122 18.2735 16.8634 18.3769 16.8634 18.3769C17.2672 18.6218 18.4467 19.2461 19.9767 19.2461C21.5066 19.2461 22.6862 18.6218 23.0902 18.3769C23.0902 18.3769 23.2411 18.2735 23.2411 18.4654V18.8487C23.2411 18.9638 23.1082 19.0851 23.1082 19.0851C22.7089 19.3855 21.4612 20.227 19.9767 20.2276Z" fill="#291D18"/>
</svg>
