<svg xmlns="http://www.w3.org/2000/svg" width="90" height="40" viewBox="0 0 90 40">
  <path fill="#111" fill-rule="evenodd" d="M90,0 L90,40 L0,40 L0,0 L90,0 Z M86.5439532,3.47927076 L3.45604681,3.47927076 L3.45604681,36.5204934 L86.5439532,36.5204934 L86.5439532,3.47927076 Z M55.313485,10.0515541 C59.1551625,10.0515541 62.1822757,12.246835 62.1822757,15.6462838 C62.1822757,15.8856318 62.1670611,16.5674787 62.1670611,16.5674787 L62.1670611,16.5674787 L57.6174382,16.5674787 L57.6174382,15.8907017 C57.6174382,14.8125746 56.8792978,13.7135783 55.313485,13.7135783 C53.7094018,13.7135783 53.1141612,14.7919412 53.1141612,15.6152746 C53.1141612,16.9329855 54.0620286,17.5710896 55.4950065,17.8515866 C61.413355,19.0021076 62.5450845,20.538533 62.5450845,23.8388233 C62.5450845,27.3489853 59.3572822,29.7113381 55.313485,29.7113381 C50.3962549,29.7113381 48.0843433,27.3386096 48.1583095,23.9263091 C48.1610013,23.7771588 48.1535111,23.17478 48.1535111,23.17478 L48.1535111,23.17478 L53.0730819,23.17478 L53.0730819,23.9623882 C53.0730819,24.8629497 53.5714174,25.9386008 55.313485,25.9386008 C56.7822757,25.9386008 57.523225,25.0791882 57.523225,23.9313791 C57.523225,22.6084803 56.5675163,22.0733077 55.1345384,21.8419773 C49.8776723,20.9823289 48.4548765,18.8501275 48.4548765,15.7647787 C48.4548765,12.5428955 51.4792978,10.0515541 55.313485,10.0515541 Z M79.5472432,10.4711795 L79.5472432,14.2156195 L72.0883615,14.2156195 L72.0883615,17.8027737 L79.3530819,17.8027737 L79.3530819,21.2446685 L72.0883615,21.2446685 L72.0883615,25.5578842 L79.5472432,25.5578842 L79.5472432,29.273909 L67.3727828,29.273909 L67.3727828,10.4711795 L79.5472432,10.4711795 Z M36.1653706,10.0645237 C40.053394,10.0645237 43.3256957,12.3112113 43.3256957,17.8208133 L43.3256957,17.8208133 L43.3256957,29.273909 L38.5947854,29.273909 L38.5947854,22.8505402 L33.8513524,22.8505402 L33.8513524,29.273909 L29.0284525,29.273909 L29.0284525,17.8208133 C29.0284525,12.3112113 32.2725488,10.0645237 36.1653706,10.0645237 Z M18.3102601,10.4711795 C21.8835761,10.4711795 24.246515,12.8103049 24.246515,15.6592534 C24.246515,16.956095 23.0971131,18.6982653 22.0983355,19.2130403 L22.0983355,19.2130403 L22.0983355,19.2387437 C24.0854746,20.1085319 24.9056567,21.6719577 24.9056567,23.4372375 C24.9056567,26.9371417 22.1572042,29.273909 18.0393238,29.273909 L18.0393238,29.273909 L10.4526398,29.273909 L10.4526398,10.4711795 Z M17.8528869,21.1418549 L15.1427048,21.1418549 L15.1427048,25.8408572 L17.8528869,25.8408572 C19.4085176,25.8408572 20.3435111,24.8682554 20.3435111,23.4886442 C20.3435111,21.8880783 19.2296879,21.1418549 17.8528869,21.1418549 L17.8528869,21.1418549 Z M36.1653706,13.8758161 C34.9061899,13.8758161 33.8513524,14.59893 33.8513524,16.629497 L33.8513524,16.629497 L33.8513524,19.2464076 L38.5947854,19.2464076 L38.5947854,16.629497 C38.5947854,14.59893 37.4452666,13.8758161 36.1653706,13.8758161 Z M17.9881795,13.9375986 L15.1427048,13.9375986 L15.1427048,17.9006352 L17.9881795,17.9006352 C18.9102991,17.9006352 19.6896359,17.0359169 19.6896359,15.9164051 C19.6896359,14.7531503 18.9102991,13.9375986 17.9881795,13.9375986 L17.9881795,13.9375986 Z"/>
</svg>
