<svg xmlns="http://www.w3.org/2000/svg" width="200" height="102" viewBox="0 0 200 102">
  <g fill="none" fill-rule="evenodd">
    <path fill="#FFC300" d="M4,42 L36,42 C38.209139,42 40,43.790861 40,46 L40,102 L40,102 L0,102 L0,46 C-2.705415e-16,43.790861 1.790861,42 4,42 Z"/>
    <path fill="#FFB000" d="M44,32 L76,32 C78.209139,32 80,33.790861 80,36 L80,102 L80,102 L40,102 L40,36 C40,33.790861 41.790861,32 44,32 Z"/>
    <path fill="#FF9E00" d="M84,21 L116,21 C118.209139,21 120,22.790861 120,25 L120,102 L120,102 L80,102 L80,25 C80,22.790861 81.790861,21 84,21 Z"/>
    <path fill="#FF8B00" d="M124,10 L156,10 C158.209139,10 160,11.790861 160,14 L160,102 L160,102 L120,102 L120,14 C120,11.790861 121.790861,10 124,10 Z"/>
    <path fill="#FF7600" d="M164,0 L196,0 C198.209139,-4.05812251e-16 200,1.790861 200,4 L200,102 L200,102 L160,102 L160,4 C160,1.790861 161.790861,4.05812251e-16 164,0 Z"/>
    <path fill="#575756" fill-rule="nonzero" d="M15.4325008 82.835C15.5875008 82.835 15.7525008 82.71 15.7525008 82.5249999 15.7525008 82.3899999 15.6775008 82.2749999 15.5475008 82.2049999L12.5875003 80.6649996 15.5425008 79.1399994C15.6775008 79.0699994 15.7675008 78.9849993 15.7675008 78.8299993 15.7675008 78.6549993 15.6325008 78.5049993 15.4575008 78.5049993 15.3825008 78.5049993 15.3225008 78.5249993 15.2525007 78.5599993L11.7925002 80.3549996C11.6625002 80.4249996 11.5775001 80.5049993 11.5775001 80.6649996 11.5775001 80.8199996 11.6425001 80.8899997 11.7925002 80.9699997L15.2475007 82.78C15.3075007 82.81 15.3775008 82.835 15.4325008 82.835zM19.3725005 83.06C20.7975007 83.06 21.6675008 81.8599998 21.6675008 79.8199995 21.6675008 77.8099991 20.7825007 76.5099989 19.3725005 76.5099989 17.9675002 76.5099989 17.0825001 77.7999991 17.0825001 79.8199995 17.0825001 81.8599998 17.9525002 83.06 19.3725005 83.06zM19.3725005 82.4199999C18.3675003 82.4199999 17.7625002 81.4299997 17.7625002 79.8199995 17.7625002 78.2049992 18.3775003 77.149999 19.3725005 77.149999 20.4175006 77.149999 20.9825007 78.3149992 20.9825007 79.8199995 20.9825007 81.4299997 20.3675006 82.4199999 19.3725005 82.4199999zM23.1625002 83.06C23.3475002 83.06 23.4925002 82.925 23.4925002 82.73L23.4925002 82.3999999C23.4925002 82.2099999 23.3475002 82.0699998 23.1625002 82.0699998 22.9725001 82.0699998 22.8325001 82.2099999 22.8325001 82.3999999L22.8325001 82.73C22.8325001 82.925 22.9725001 83.06 23.1625002 83.06zM27.7775006 83C27.9675006 83 28.1075006 82.865 28.1075006 82.6699999L28.1075006 81.3849997 28.5225007 81.3849997C28.7125007 81.3849997 28.8525008 81.2599997 28.8525008 81.0699989 28.8525008 80.8799997 28.7125007 80.7499996 28.5225007 80.7499996L28.1075006 80.7499996 28.1075006 78.7049993C28.1075006 78.5099993 27.9675006 78.3749992 27.7775006 78.3749992 27.5875006 78.3749992 27.4475005 78.5099993 27.4475005 78.7049993L27.4475005 80.7499996 25.2875002 80.7499996C26.0825003 79.1399994 27.3475005 77.7349991 27.9225006 77.139999 28.0025006 77.054999 28.0375006 76.974999 28.0375006 76.874999 28.0375006 76.709999 27.8925006 76.5699989 27.7125006 76.5699989 27.6225006 76.5699989 27.5275005 76.594999 27.4575 76.669999 26.7975004 77.4199991 25.4375002 78.9999993 24.5375001 80.8099996 24.4825 80.9249997 24.4575 81.0049997 24.4575 81.0699989 24.4575 81.2149997 24.5575001 81.3849997 24.8225001 81.3849997L27.4475005 81.3849997 27.4475005 82.6699999C27.4475005 82.865 27.5875006 83 27.7775006 83zM15.3125009 95C15.5075009 95 15.717501 94.915 15.847501 94.6449999 16.1975011 93.9199998 17.0675012 89.7149991 17.1875012 89.029999 17.2075012 88.914999 17.2125012 88.894999 17.2125012 88.859999 17.2125012 88.684999 17.0725012 88.5699989 16.8875012 88.5699989 16.7075011 88.5699989 16.5975011 88.649999 16.5475011 88.849999 16.4925011 89.064999 15.742501 92.9599997 15.3575009 94.0699989 15.3425009 94.1099999 15.3275009 94.1349999 15.3125009 94.1499999 15.2975009 94.1299999 15.2775009 94.1049999 15.2625009 94.0649998 14.8925008 93.0749997 14.2075007 89.9949992 14.0075007 89.059999 13.9675007 88.874999 13.8125007 88.739999 13.5825006 88.739999 13.3625006 88.739999 13.2075006 88.864999 13.1625006 89.059999 12.9425005 89.9949992 12.2575004 93.0049997 11.8675003 94.0749998 11.8475003 94.1249999 11.8325003 94.1499999 11.8125003 94.1799999 11.7975003 94.1549999 11.7775003 94.1199999 11.7625003 94.0749998 11.3775003 92.9149997 10.6375001 89.094999 10.5875001 88.844999 10.5475001 88.639999 10.4375001 88.5699989 10.2525001 88.5699989 10.0675001 88.5699989 9.92750003 88.684999 9.92750003 88.859999 9.92750003 88.894999 9.92750003 88.924999 9.94750004 89.029999 10.0725001 89.7199991 10.9425002 93.9249998 11.2925003 94.6549999 11.4225003 94.925 11.6225003 95 11.8225003 95 12.0825004 95 12.2325004 94.895 12.3425004 94.6649999 12.4825005 94.372826 12.7744098 93.3396311 13.0558481 92.2386167L13.1753501 91.7645639C13.3129165 91.2112376 13.4420658 90.6649993 13.5425006 90.2099992 13.5525006 90.1549992 13.5625006 90.0999992 13.5775006 90.0599992 13.5875006 90.0999992 13.5975006 90.1549992 13.6075006 90.2099992L13.6516291 90.4156036 13.6516291 90.4156036 13.7498372 90.8568743C14.0793396 92.3072929 14.5688644 94.195909 14.7675008 94.6449999 14.8925008 94.925 15.1425009 95 15.3125009 95zM18.1275001 95.9150001C18.2825001 95.9150001 18.3925002 95.8100001 18.4525002 95.6500001L20.9075006 89.104999C20.9375006 89.029999 20.9575006 88.959999 20.9575006 88.924999 20.9575006 88.779999 20.8475006 88.619999 20.6475005 88.619999 20.4625005 88.619999 20.3725005 88.724999 20.3125005 88.879999L17.8625001 95.3900001C17.8275001 95.4900001 17.8025001 95.5650001 17.8025001 95.6000001 17.8025001 95.7650001 17.9175001 95.9150001 18.1275001 95.9150001zM25.0625006 95C25.2525006 95 25.3925007 94.85 25.3925007 94.6799999 25.3925007 94.6049999 25.3675007 94.5299999 25.3175006 94.4649999 24.4775005 93.3399997 23.7375004 92.7049996 23.3225003 92.3999996L24.8425006 90.9549993C24.9275006 90.8749993 24.9575006 90.7899993 24.9575006 90.6999993 24.9575006 90.5349993 24.8025006 90.3749992 24.6275005 90.3749992 24.5425005 90.3749992 24.4525005 90.4049992 24.3725005 90.4849993L22.7075002 92.0899995 22.7075002 88.4499989C22.7075002 88.2549989 22.5625002 88.1199989 22.3775002 88.1199989 22.1875001 88.1199989 22.0475001 88.2549989 22.0475001 88.4499989L22.0475001 94.6699999C22.0475001 94.865 22.1875001 95 22.3775002 95 22.5625002 95 22.7075002 94.865 22.7075002 94.6699999L22.7075002 92.7699996 22.7475002 92.7749996C23.0425003 92.9849997 23.8925004 93.6599998 24.7575006 94.8 24.8675006 94.945 24.9475006 95 25.0625006 95zM27.3475003 97.0150003C28.4225005 97.0150003 29.5725007 96.5050002 29.5725007 94.95L29.5725007 91.0599994C29.5725007 90.8749993 29.4475006 90.7449993 29.3375006 90.6699993 29.1175006 90.5199993 28.5625005 90.3149992 27.9525004 90.3149992 26.6525002 90.3149992 25.7925 91.2999994 25.7925 92.6749996 25.7925 94.1199999 26.6325002 95.06 27.8625004 95.06 28.2425005 95.06 28.5825005 94.93 28.9125006 94.72L28.9125006 94.995C28.9125006 96.1250002 28.0275004 96.3750002 27.3475003 96.3750002 26.9375002 96.3750002 26.6475002 96.2650002 26.5075002 96.2050002 26.3925001 96.1550002 26.3125001 96.1050002 26.1975001 96.1050002 26.0275001 96.1050002 25.8875001 96.2400002 25.8875001 96.4100002 25.8875001 96.5750003 26.0025001 96.6700003 26.1375001 96.7450003 26.3025001 96.8350003 26.7575002 97.0150003 27.3475003 97.0150003zM27.8625004 94.4199999C27.0175003 94.4199999 26.4775002 93.7349998 26.4775002 92.6749996 26.4775002 91.6799995 27.0475003 90.9549993 27.9525004 90.9549993 28.3975005 90.9549993 28.7075005 91.0749994 28.9125006 91.1799994L28.9125006 94.0599998C28.6925005 94.2299999 28.2675005 94.4199999 27.8625004 94.4199999zM51.9125002 70.835C51.9675002 70.835 52.0375002 70.81 52.0975002 70.78L55.5525008 68.9699997C55.7025008 68.8899997 55.7675008 68.8199996 55.7675008 68.6649996 55.7675008 68.5049993 55.6825008 68.4249996 55.5525008 68.3549996L52.0925002 66.5599993C52.0225002 66.5249993 51.9625002 66.5049993 51.8875002 66.5049993 51.7125002 66.5049993 51.5775001 66.6549993 51.5775001 66.8299993 51.5775001 66.9849993 51.6675002 67.0699994 51.8025002 67.1399994L54.7575007 68.6649996 51.7975002 70.2049999C51.6675002 70.2749999 51.5925001 70.3899999 51.5925001 70.5249999 51.5925001 70.71 51.7575002 70.835 51.9125002 70.835zM59.3725005 71.06C60.7975007 71.06 61.6675008 69.8599998 61.6675008 67.8199995 61.6675008 65.8099991 60.7825007 64.5099989 59.3725005 64.5099989 57.9675002 64.5099989 57.0825001 65.7999991 57.0825001 67.8199995 57.0825001 69.8599998 57.9525002 71.06 59.3725005 71.06zM59.3725005 70.4199999C58.3675003 70.4199999 57.7625002 69.4299997 57.7625002 67.8199995 57.7625002 66.2049992 58.3775003 65.149999 59.3725005 65.149999 60.4175006 65.149999 60.9825007 66.3149992 60.9825007 67.8199995 60.9825007 69.4299997 60.3675006 70.4199999 59.3725005 70.4199999zM63.1625002 71.06C63.3475002 71.06 63.4925002 70.925 63.4925002 70.73L63.4925002 70.3999999C63.4925002 70.2099999 63.3475002 70.0699998 63.1625002 70.0699998 62.9725001 70.0699998 62.8325001 70.2099999 62.8325001 70.3999999L62.8325001 70.73C62.8325001 70.925 62.9725001 71.06 63.1625002 71.06zM67.7775006 71C67.9675006 71 68.1075006 70.865 68.1075006 70.6699999L68.1075006 69.3849997 68.5225007 69.3849997C68.7125007 69.3849997 68.8525008 69.2599997 68.8525008 69.0699989 68.8525008 68.8799997 68.7125007 68.7499996 68.5225007 68.7499996L68.1075006 68.7499996 68.1075006 66.7049993C68.1075006 66.5099993 67.9675006 66.3749992 67.7775006 66.3749992 67.5875006 66.3749992 67.4475005 66.5099993 67.4475005 66.7049993L67.4475005 68.7499996 65.2875002 68.7499996C66.0825003 67.1399994 67.3475005 65.7349991 67.9225006 65.139999 68.0025006 65.054999 68.0375006 64.974999 68.0375006 64.874999 68.0375006 64.709999 67.8925006 64.5699989 67.7125006 64.5699989 67.6225006 64.5699989 67.5275005 64.594999 67.4575 64.669999 66.7975004 65.4199991 65.4375002 66.9999993 64.5375001 68.8099996 64.4825 68.9249997 64.4575 69.0049997 64.4575 69.0699989 64.4575 69.2149997 64.5575001 69.3849997 64.8225001 69.3849997L67.4475005 69.3849997 67.4475005 70.6699999C67.4475005 70.865 67.5875006 71 67.7775006 71zM55.4050008 82.835C55.5600008 82.835 55.7250008 82.71 55.7250008 82.5249999 55.7250008 82.3899999 55.6500008 82.2749999 55.5200008 82.2049999L52.5600003 80.6649996 55.5150008 79.1399994C55.6500008 79.0699994 55.7400008 78.9849993 55.7400008 78.8299993 55.7400008 78.6549993 55.6050008 78.5049993 55.4300008 78.5049993 55.3550008 78.5049993 55.2950008 78.5249993 55.2250007 78.5599993L51.7650002 80.3549996C51.6350002 80.4249996 51.5500001 80.5049993 51.5500001 80.6649996 51.5500001 80.8199996 51.6150001 80.8899997 51.7650002 80.9699997L55.2200007 82.78C55.2800007 82.81 55.3500008 82.835 55.4050008 82.835zM59.3450005 83.06C60.7700007 83.06 61.6400008 81.8599998 61.6400008 79.8199995 61.6400008 77.8099991 60.7550007 76.5099989 59.3450005 76.5099989 57.9400002 76.5099989 57.0550001 77.7999991 57.0550001 79.8199995 57.0550001 81.8599998 57.9250002 83.06 59.3450005 83.06zM59.3450005 82.4199999C58.3400003 82.4199999 57.7350002 81.4299997 57.7350002 79.8199995 57.7350002 78.2049992 58.3500003 77.149999 59.3450005 77.149999 60.3900006 77.149999 60.9550007 78.3149992 60.9550007 79.8199995 60.9550007 81.4299997 60.3400006 82.4199999 59.3450005 82.4199999zM63.1350002 83.06C63.3200002 83.06 63.4650002 82.925 63.4650002 82.73L63.4650002 82.3999999C63.4650002 82.2099999 63.3200002 82.0699998 63.1350002 82.0699998 62.9450001 82.0699998 62.8050001 82.2099999 62.8050001 82.3999999L62.8050001 82.73C62.8050001 82.925 62.9450001 83.06 63.1350002 83.06zM66.7150004 83.06C68.0750006 83.06 68.8350008 82.3999999 68.8350008 81.2049997 68.8350008 80.4349996 68.3350007 79.9549995 67.8500006 79.7449995 68.2350007 79.4849994 68.6800007 78.9099993 68.6800007 78.2699992 68.6800007 77.049999 67.6800006 76.5099989 66.7150004 76.5099989 66.0150003 76.5099989 64.7900001 76.874999 64.7900001 78.2699992 64.7900001 78.9599993 65.1150001 79.3899994 65.5300002 79.6049994 65.1000002 79.8349995 64.6150001 80.3999996 64.6150001 81.2049997 64.6150001 82.3499999 65.4650002 83.06 66.7150004 83.06zM67.1500005 79.4799994C66.1600003 79.3949994 65.4700002 79.1299994 65.4700002 78.2699992 65.4700002 77.3999991 66.2550003 77.149999 66.7150004 77.149999 67.2050005 77.149999 68.0000006 77.3999991 68.0000006 78.2699992 68.0000006 78.8749993 67.5450006 79.4399994 67.1500005 79.4799994zM66.7150004 82.4199999C66.0450003 82.4199999 65.2950002 82.0899999 65.2950002 81.2049997 65.2950002 80.4599996 65.7600003 79.9949995 66.2050003 79.9699995 66.3650004 79.9899995 66.4650004 80.0049995 66.5950004 80.0249995 67.1950005 80.1099995 68.1550007 80.2849996 68.1550007 81.2049997 68.1550007 82.1899999 67.3850005 82.4199999 66.7150004 82.4199999zM55.3125009 95C55.5075009 95 55.717501 94.915 55.847501 94.6449999 56.1975011 93.9199998 57.0675012 89.7149991 57.1875012 89.029999 57.2075012 88.914999 57.2125012 88.894999 57.2125012 88.859999 57.2125012 88.684999 57.0725012 88.5699989 56.8875012 88.5699989 56.7075011 88.5699989 56.5975011 88.649999 56.5475011 88.849999 56.4925011 89.064999 55.742501 92.9599997 55.3575009 94.0699989 55.3425009 94.1099999 55.3275009 94.1349999 55.3125009 94.1499999 55.2975009 94.1299999 55.2775009 94.1049999 55.2625009 94.0649998 54.8925008 93.0749997 54.2075007 89.9949992 54.0075007 89.059999 53.9675007 88.874999 53.8125007 88.739999 53.5825006 88.739999 53.3625006 88.739999 53.2075006 88.864999 53.1625006 89.059999 52.9425005 89.9949992 52.2575004 93.0049997 51.8675003 94.0749998 51.8475003 94.1249999 51.8325003 94.1499999 51.8125003 94.1799999 51.7975003 94.1549999 51.7775003 94.1199999 51.7625003 94.0749998 51.3775003 92.9149997 50.6375001 89.094999 50.5875001 88.844999 50.5475001 88.639999 50.4375001 88.5699989 50.2525001 88.5699989 50.0675001 88.5699989 49.9275 88.684999 49.9275 88.859999 49.9275 88.894999 49.9275 88.924999 49.9475 89.029999 50.0725001 89.7199991 50.9425002 93.9249998 51.2925003 94.6549999 51.4225003 94.925 51.6225003 95 51.8225003 95 52.0825004 95 52.2325004 94.895 52.3425004 94.6649999 52.4825005 94.372826 52.7744098 93.3396311 53.0558481 92.2386167L53.1753501 91.7645639C53.3129165 91.2112376 53.4420658 90.6649993 53.5425006 90.2099992 53.5525006 90.1549992 53.5625006 90.0999992 53.5775006 90.0599992 53.5875006 90.0999992 53.5975006 90.1549992 53.6075006 90.2099992L53.6516291 90.4156036 53.6516291 90.4156036 53.7498372 90.8568743C54.0793396 92.3072929 54.5688644 94.195909 54.7675008 94.6449999 54.8925008 94.925 55.1425009 95 55.3125009 95zM58.1275001 95.9150001C58.2825001 95.9150001 58.3925002 95.8100001 58.4525002 95.6500001L60.9075006 89.104999C60.9375006 89.029999 60.9575006 88.959999 60.9575006 88.924999 60.9575006 88.779999 60.8475006 88.619999 60.6475005 88.619999 60.4625005 88.619999 60.3725005 88.724999 60.3125005 88.879999L57.8625001 95.3900001C57.8275001 95.4900001 57.8025001 95.5650001 57.8025001 95.6000001 57.8025001 95.7650001 57.9175001 95.9150001 58.1275001 95.9150001zM65.0625006 95C65.2525006 95 65.3925007 94.85 65.3925007 94.6799999 65.3925007 94.6049999 65.3675007 94.5299999 65.3175006 94.4649999 64.4775005 93.3399997 63.7375004 92.7049996 63.3225003 92.3999996L64.8425006 90.9549993C64.9275006 90.8749993 64.9575006 90.7899993 64.9575006 90.6999993 64.9575006 90.5349993 64.8025006 90.3749992 64.6275005 90.3749992 64.5425005 90.3749992 64.4525005 90.4049992 64.3725005 90.4849993L62.7075002 92.0899995 62.7075002 88.4499989C62.7075002 88.2549989 62.5625002 88.1199989 62.3775002 88.1199989 62.1875001 88.1199989 62.0475001 88.2549989 62.0475001 88.4499989L62.0475001 94.6699999C62.0475001 94.865 62.1875001 95 62.3775002 95 62.5625002 95 62.7075002 94.865 62.7075002 94.6699999L62.7075002 92.7699996 62.7475002 92.7749996C63.0425003 92.9849997 63.8925004 93.6599998 64.7575006 94.8 64.8675006 94.945 64.9475006 95 65.0625006 95zM67.3475003 97.0150003C68.4225005 97.0150003 69.5725007 96.5050002 69.5725007 94.95L69.5725007 91.0599994C69.5725007 90.8749993 69.4475006 90.7449993 69.3375006 90.6699993 69.1175006 90.5199993 68.5625005 90.3149992 67.9525004 90.3149992 66.6525002 90.3149992 65.7925 91.2999994 65.7925 92.6749996 65.7925 94.1199999 66.6325002 95.06 67.8625004 95.06 68.2425005 95.06 68.5825005 94.93 68.9125006 94.72L68.9125006 94.995C68.9125006 96.1250002 68.0275004 96.3750002 67.3475003 96.3750002 66.9375002 96.3750002 66.6475002 96.2650002 66.5075002 96.2050002 66.3925001 96.1550002 66.3125001 96.1050002 66.1975001 96.1050002 66.0275001 96.1050002 65.8875001 96.2400002 65.8875001 96.4100002 65.8875001 96.5750003 66.0025001 96.6700003 66.1375001 96.7450003 66.3025001 96.8350003 66.7575002 97.0150003 67.3475003 97.0150003zM67.8625004 94.4199999C67.0175003 94.4199999 66.4775002 93.7349998 66.4775002 92.6749996 66.4775002 91.6799995 67.0475003 90.9549993 67.9525004 90.9549993 68.3975005 90.9549993 68.7075005 91.0749994 68.9125006 91.1799994L68.9125006 94.0599998C68.6925005 94.2299999 68.2675005 94.4199999 67.8625004 94.4199999zM91.8850002 70.835C91.9400002 70.835 92.0100002 70.81 92.0700002 70.78L95.5250008 68.9699997C95.6750008 68.8899997 95.7400008 68.8199996 95.7400008 68.6649996 95.7400008 68.5049993 95.6550008 68.4249996 95.5250008 68.3549996L92.0650002 66.5599993C91.9950002 66.5249993 91.9350002 66.5049993 91.8600002 66.5049993 91.6850002 66.5049993 91.5500001 66.6549993 91.5500001 66.8299993 91.5500001 66.9849993 91.6400002 67.0699994 91.7750002 67.1399994L94.7300007 68.6649996 91.7700002 70.2049999C91.6400002 70.2749999 91.5650001 70.3899999 91.5650001 70.5249999 91.5650001 70.71 91.7300002 70.835 91.8850002 70.835zM99.3450005 71.06C100.770001 71.06 101.640001 69.8599998 101.640001 67.8199995 101.640001 65.8099991 100.755001 64.5099989 99.3450005 64.5099989 97.9400002 64.5099989 97.0550001 65.7999991 97.0550001 67.8199995 97.0550001 69.8599998 97.9250002 71.06 99.3450005 71.06zM99.3450005 70.4199999C98.3400003 70.4199999 97.7350002 69.4299997 97.7350002 67.8199995 97.7350002 66.2049992 98.3500003 65.149999 99.3450005 65.149999 100.390001 65.149999 100.955001 66.3149992 100.955001 67.8199995 100.955001 69.4299997 100.340001 70.4199999 99.3450005 70.4199999zM103.135 71.06C103.32 71.06 103.465 70.925 103.465 70.73L103.465 70.3999999C103.465 70.2099999 103.32 70.0699998 103.135 70.0699998 102.945 70.0699998 102.805 70.2099999 102.805 70.3999999L102.805 70.73C102.805 70.925 102.945 71.06 103.135 71.06zM106.715 71.06C108.075001 71.06 108.835001 70.3999999 108.835001 69.2049997 108.835001 68.4349996 108.335001 67.9549995 107.850001 67.7449995 108.235001 67.4849994 108.680001 66.9099993 108.680001 66.2699992 108.680001 65.049999 107.680001 64.5099989 106.715 64.5099989 106.015 64.5099989 104.79 64.874999 104.79 66.2699992 104.79 66.9599993 105.115 67.3899994 105.53 67.6049994 105.1 67.8349995 104.615 68.3999996 104.615 69.2049997 104.615 70.3499999 105.465 71.06 106.715 71.06zM107.15 67.4799994C106.16 67.3949994 105.47 67.1299994 105.47 66.2699992 105.47 65.3999991 106.255 65.149999 106.715 65.149999 107.205 65.149999 108.000001 65.3999991 108.000001 66.2699992 108.000001 66.8749993 107.545001 67.4399994 107.15 67.4799994zM106.715 70.4199999C106.045 70.4199999 105.295 70.0899999 105.295 69.2049997 105.295 68.4599996 105.76 67.9949995 106.205 67.9699995 106.365 67.9899995 106.465 68.0049995 106.595 68.0249995 107.195 68.1099995 108.155001 68.2849996 108.155001 69.2049997 108.155001 70.1899999 107.385001 70.4199999 106.715 70.4199999zM96.8625008 82.835C97.0175008 82.835 97.1825008 82.71 97.1825008 82.5249999 97.1825008 82.3899999 97.1075008 82.2749999 96.9775008 82.2049999L94.0175003 80.6649996 96.9725008 79.1399994C97.1075008 79.0699994 97.1975008 78.9849993 97.1975008 78.8299993 97.1975008 78.6549993 97.0625008 78.5049993 96.8875008 78.5049993 96.8125008 78.5049993 96.7525008 78.5249993 96.6825007 78.5599993L93.2225002 80.3549996C93.0925002 80.4249996 93.0075001 80.5049993 93.0075001 80.6649996 93.0075001 80.8199996 93.0725001 80.8899997 93.2225002 80.9699997L96.6775007 82.78C96.7375007 82.81 96.8075008 82.835 96.8625008 82.835zM100.0225 83C100.2075 83 100.3525 82.865 100.3525 82.6699999L100.3525 76.904999C100.3525 76.709999 100.2125 76.5699989 100.0225 76.5699989 99.9475003 76.5699989 99.8775003 76.5899989 99.8175003 76.629999L98.6775001 77.3799991C98.5675001 77.4549991 98.5175001 77.5599991 98.5175001 77.6749991 98.5175001 77.8599992 98.6625001 77.9999992 98.8525001 77.9999992 98.9325001 77.9999992 98.9925002 77.9749992 99.0675002 77.9199992L99.6925003 77.4799991 99.6925003 82.6699999C99.6925003 82.865 99.8375003 83 100.0225 83zM102.1475 83.06C102.3325 83.06 102.4775 82.925 102.4775 82.73L102.4775 82.3999999C102.4775 82.2099999 102.3325 82.0699998 102.1475 82.0699998 101.9575 82.0699998 101.8175 82.2099999 101.8175 82.3999999L101.8175 82.73C101.8175 82.925 101.9575 83.06 102.1475 83.06zM107.032501 83C107.222501 83 107.367501 82.87 107.367501 82.6749999 107.367501 82.4849999 107.222501 82.3599999 107.032501 82.3599999L104.3875 82.3599999C104.5625 81.9349998 105.0225 81.4699997 105.5075 80.9849997 106.342501 80.1449995 107.347501 79.2199994 107.347501 78.2899992 107.347501 76.669999 106.0475 76.5099989 105.4975 76.5099989 104.7275 76.5099989 104.2225 76.824999 103.9825 76.979999 103.8525 77.064999 103.8075 77.174999 103.8075 77.2799991 103.8075 77.4549991 103.9475 77.6049991 104.1375 77.6049991 104.2125 77.6049991 104.2875 77.5649991 104.3475 77.5249991 104.4925 77.4349991 104.9475 77.149999 105.4975 77.149999 105.9425 77.149999 106.667501 77.3099991 106.667501 78.2899992 106.667501 79.5849994 103.6425 81.2599997 103.6425 82.6599999 103.6425 82.86 103.7825 83 104.0025 83L107.032501 83zM95.3125009 95C95.5075009 95 95.717501 94.915 95.847501 94.6449999 96.1975011 93.9199998 97.0675012 89.7149991 97.1875012 89.029999 97.2075012 88.914999 97.2125012 88.894999 97.2125012 88.859999 97.2125012 88.684999 97.0725012 88.5699989 96.8875012 88.5699989 96.7075011 88.5699989 96.5975011 88.649999 96.5475011 88.849999 96.4925011 89.064999 95.742501 92.9599997 95.3575009 94.0699989 95.3425009 94.1099999 95.3275009 94.1349999 95.3125009 94.1499999 95.2975009 94.1299999 95.2775009 94.1049999 95.2625009 94.0649998 94.8925008 93.0749997 94.2075007 89.9949992 94.0075007 89.059999 93.9675007 88.874999 93.8125007 88.739999 93.5825006 88.739999 93.3625006 88.739999 93.2075006 88.864999 93.1625006 89.059999 92.9425005 89.9949992 92.2575004 93.0049997 91.8675003 94.0749998 91.8475003 94.1249999 91.8325003 94.1499999 91.8125003 94.1799999 91.7975003 94.1549999 91.7775003 94.1199999 91.7625003 94.0749998 91.3775003 92.9149997 90.6375001 89.094999 90.5875001 88.844999 90.5475001 88.639999 90.4375001 88.5699989 90.2525001 88.5699989 90.0675001 88.5699989 89.9275 88.684999 89.9275 88.859999 89.9275 88.894999 89.9275 88.924999 89.9475 89.029999 90.0725001 89.7199991 90.9425002 93.9249998 91.2925003 94.6549999 91.4225003 94.925 91.6225003 95 91.8225003 95 92.0825004 95 92.2325004 94.895 92.3425004 94.6649999 92.4825005 94.372826 92.7744098 93.3396311 93.0558481 92.2386167L93.1753501 91.7645639C93.3129165 91.2112376 93.4420658 90.6649993 93.5425006 90.2099992 93.5525006 90.1549992 93.5625006 90.0999992 93.5775006 90.0599992 93.5875006 90.0999992 93.5975006 90.1549992 93.6075006 90.2099992L93.6516291 90.4156036 93.6516291 90.4156036 93.7498372 90.8568743C94.0793396 92.3072929 94.5688644 94.195909 94.7675008 94.6449999 94.8925008 94.925 95.1425009 95 95.3125009 95zM98.1275001 95.9150001C98.2825001 95.9150001 98.3925002 95.8100001 98.4525002 95.6500001L100.907501 89.104999C100.937501 89.029999 100.957501 88.959999 100.957501 88.924999 100.957501 88.779999 100.847501 88.619999 100.647501 88.619999 100.462501 88.619999 100.3725 88.724999 100.3125 88.879999L97.8625001 95.3900001C97.8275001 95.4900001 97.8025001 95.5650001 97.8025001 95.6000001 97.8025001 95.7650001 97.9175001 95.9150001 98.1275001 95.9150001zM105.062501 95C105.252501 95 105.392501 94.85 105.392501 94.6799999 105.392501 94.6049999 105.367501 94.5299999 105.317501 94.4649999 104.477501 93.3399997 103.7375 92.7049996 103.3225 92.3999996L104.842501 90.9549993C104.927501 90.8749993 104.957501 90.7899993 104.957501 90.6999993 104.957501 90.5349993 104.802501 90.3749992 104.627501 90.3749992 104.542501 90.3749992 104.452501 90.4049992 104.3725 90.4849993L102.7075 92.0899995 102.7075 88.4499989C102.7075 88.2549989 102.5625 88.1199989 102.3775 88.1199989 102.1875 88.1199989 102.0475 88.2549989 102.0475 88.4499989L102.0475 94.6699999C102.0475 94.865 102.1875 95 102.3775 95 102.5625 95 102.7075 94.865 102.7075 94.6699999L102.7075 92.7699996 102.7475 92.7749996C103.0425 92.9849997 103.8925 93.6599998 104.757501 94.8 104.867501 94.945 104.947501 95 105.062501 95zM107.3475 97.0150003C108.4225 97.0150003 109.572501 96.5050002 109.572501 94.95L109.572501 91.0599994C109.572501 90.8749993 109.447501 90.7449993 109.337501 90.6699993 109.117501 90.5199993 108.562501 90.3149992 107.9525 90.3149992 106.6525 90.3149992 105.7925 91.2999994 105.7925 92.6749996 105.7925 94.1199999 106.6325 95.06 107.8625 95.06 108.2425 95.06 108.582501 94.93 108.912501 94.72L108.912501 94.995C108.912501 96.1250002 108.0275 96.3750002 107.3475 96.3750002 106.9375 96.3750002 106.6475 96.2650002 106.5075 96.2050002 106.3925 96.1550002 106.3125 96.1050002 106.1975 96.1050002 106.0275 96.1050002 105.8875 96.2400002 105.8875 96.4100002 105.8875 96.5750003 106.0025 96.6700003 106.1375 96.7450003 106.3025 96.8350003 106.7575 97.0150003 107.3475 97.0150003zM107.8625 94.4199999C107.0175 94.4199999 106.4775 93.7349998 106.4775 92.6749996 106.4775 91.6799995 107.0475 90.9549993 107.9525 90.9549993 108.3975 90.9549993 108.707501 91.0749994 108.912501 91.1799994L108.912501 94.0599998C108.692501 94.2299999 108.2675 94.4199999 107.8625 94.4199999zM133.3425 70.835C133.3975 70.835 133.4675 70.81 133.5275 70.78L136.982501 68.9699997C137.132501 68.8899997 137.197501 68.8199996 137.197501 68.6649996 137.197501 68.5049993 137.112501 68.4249996 136.982501 68.3549996L133.5225 66.5599993C133.4525 66.5249993 133.3925 66.5049993 133.3175 66.5049993 133.1425 66.5049993 133.0075 66.6549993 133.0075 66.8299993 133.0075 66.9849993 133.0975 67.0699994 133.2325 67.1399994L136.187501 68.6649996 133.2275 70.2049999C133.0975 70.2749999 133.0225 70.3899999 133.0225 70.5249999 133.0225 70.71 133.1875 70.835 133.3425 70.835zM140.0225 71C140.2075 71 140.3525 70.865 140.3525 70.6699999L140.3525 64.904999C140.3525 64.709999 140.2125 64.5699989 140.0225 64.5699989 139.9475 64.5699989 139.8775 64.5899989 139.8175 64.629999L138.6775 65.3799991C138.5675 65.4549991 138.5175 65.5599991 138.5175 65.6749991 138.5175 65.8599992 138.6625 65.9999992 138.8525 65.9999992 138.9325 65.9999992 138.9925 65.9749992 139.0675 65.9199992L139.6925 65.4799991 139.6925 70.6699999C139.6925 70.865 139.8375 71 140.0225 71zM142.1475 71.06C142.3325 71.06 142.4775 70.925 142.4775 70.73L142.4775 70.3999999C142.4775 70.2099999 142.3325 70.0699998 142.1475 70.0699998 141.9575 70.0699998 141.8175 70.2099999 141.8175 70.3999999L141.8175 70.73C141.8175 70.925 141.9575 71.06 142.1475 71.06zM147.032501 71C147.222501 71 147.367501 70.87 147.367501 70.6749999 147.367501 70.4849999 147.222501 70.3599999 147.032501 70.3599999L144.3875 70.3599999C144.5625 69.9349998 145.0225 69.4699997 145.5075 68.9849997 146.342501 68.1449995 147.347501 67.2199994 147.347501 66.2899992 147.347501 64.669999 146.0475 64.5099989 145.4975 64.5099989 144.7275 64.5099989 144.2225 64.824999 143.9825 64.979999 143.8525 65.064999 143.8075 65.174999 143.8075 65.2799991 143.8075 65.4549991 143.9475 65.6049991 144.1375 65.6049991 144.2125 65.6049991 144.2875 65.5649991 144.3475 65.5249991 144.4925 65.4349991 144.9475 65.149999 145.4975 65.149999 145.9425 65.149999 146.667501 65.3099991 146.667501 66.2899992 146.667501 67.5849994 143.6425 69.2599997 143.6425 70.6599999 143.6425 70.86 143.7825 71 144.0025 71L147.032501 71zM136.660001 82.835C136.815001 82.835 136.980001 82.71 136.980001 82.5249999 136.980001 82.3899999 136.905001 82.2749999 136.775001 82.2049999L133.815 80.6649996 136.770001 79.1399994C136.905001 79.0699994 136.995001 78.9849993 136.995001 78.8299993 136.995001 78.6549993 136.860001 78.5049993 136.685001 78.5049993 136.610001 78.5049993 136.550001 78.5249993 136.480001 78.5599993L133.02 80.3549996C132.89 80.4249996 132.805 80.5049993 132.805 80.6649996 132.805 80.8199996 132.87 80.8899997 133.02 80.9699997L136.475001 82.78C136.535001 82.81 136.605001 82.835 136.660001 82.835zM139.82 83C140.005 83 140.15 82.865 140.15 82.6699999L140.15 76.904999C140.15 76.709999 140.01 76.5699989 139.82 76.5699989 139.745 76.5699989 139.675 76.5899989 139.615 76.629999L138.475 77.3799991C138.365 77.4549991 138.315 77.5599991 138.315 77.6749991 138.315 77.8599992 138.46 77.9999992 138.65 77.9999992 138.73 77.9999992 138.79 77.9749992 138.865 77.9199992L139.49 77.4799991 139.49 82.6699999C139.49 82.865 139.635 83 139.82 83zM141.945 83.06C142.13 83.06 142.275 82.925 142.275 82.73L142.275 82.3999999C142.275 82.2099999 142.13 82.0699998 141.945 82.0699998 141.755 82.0699998 141.615 82.2099999 141.615 82.3999999L141.615 82.73C141.615 82.925 141.755 83.06 141.945 83.06zM145.565 83.06C147.130001 83.06 147.570001 81.6949998 147.570001 80.8549996 147.570001 80.0649995 147.130001 78.8049993 145.62 78.8049993 144.915 78.8049993 144.385 79.1549994 144.11 79.6549995L144.11 79.6199994C144.205 77.6049991 144.935 77.149999 145.735 77.149999 146.260001 77.149999 146.535001 77.3249991 146.685001 77.4299991 146.805001 77.5149991 146.900001 77.5849991 147.030001 77.5849991 147.215001 77.5849991 147.335001 77.4349991 147.335001 77.2699991 147.335001 77.164999 147.300001 77.084999 147.200001 76.994999 147.110001 76.914999 146.685001 76.5099989 145.735 76.5099989 144.155 76.5099989 143.44 77.6049991 143.44 80.0899995 143.44 80.9149997 143.58 81.5799998 143.86 82.0599998 144.235 82.7 144.795 83.06 145.565 83.06zM145.565 82.4199999C144.545 82.4199999 144.24 81.4899998 144.24 80.8549996 144.24 80.2999996 144.565 79.4449994 145.565 79.4449994 146.585001 79.4449994 146.890001 80.2999996 146.890001 80.8549996 146.890001 81.4899998 146.585001 82.4199999 145.565 82.4199999zM135.312501 95C135.507501 95 135.717501 94.915 135.847501 94.6449999 136.197501 93.9199998 137.067501 89.7149991 137.187501 89.029999 137.207501 88.914999 137.212501 88.894999 137.212501 88.859999 137.212501 88.684999 137.072501 88.5699989 136.887501 88.5699989 136.707501 88.5699989 136.597501 88.649999 136.547501 88.849999 136.492501 89.064999 135.742501 92.9599997 135.357501 94.0699989 135.342501 94.1099999 135.327501 94.1349999 135.312501 94.1499999 135.297501 94.1299999 135.277501 94.1049999 135.262501 94.0649998 134.892501 93.0749997 134.207501 89.9949992 134.007501 89.059999 133.967501 88.874999 133.812501 88.739999 133.582501 88.739999 133.362501 88.739999 133.207501 88.864999 133.162501 89.059999 132.942501 89.9949992 132.2575 93.0049997 131.8675 94.0749998 131.8475 94.1249999 131.8325 94.1499999 131.8125 94.1799999 131.7975 94.1549999 131.7775 94.1199999 131.7625 94.0749998 131.3775 92.9149997 130.6375 89.094999 130.5875 88.844999 130.5475 88.639999 130.4375 88.5699989 130.2525 88.5699989 130.0675 88.5699989 129.9275 88.684999 129.9275 88.859999 129.9275 88.894999 129.9275 88.924999 129.9475 89.029999 130.0725 89.7199991 130.9425 93.9249998 131.2925 94.6549999 131.4225 94.925 131.6225 95 131.8225 95 132.0825 95 132.2325 94.895 132.3425 94.6649999 132.4825 94.372826 132.77441 93.3396311 133.055848 92.2386167L133.17535 91.7645639C133.312916 91.2112376 133.442066 90.6649993 133.542501 90.2099992 133.552501 90.1549992 133.562501 90.0999992 133.577501 90.0599992 133.587501 90.0999992 133.597501 90.1549992 133.607501 90.2099992L133.651629 90.4156036 133.651629 90.4156036 133.749837 90.8568743C134.07934 92.3072929 134.568864 94.195909 134.767501 94.6449999 134.892501 94.925 135.142501 95 135.312501 95zM138.1275 95.9150001C138.2825 95.9150001 138.3925 95.8100001 138.4525 95.6500001L140.907501 89.104999C140.937501 89.029999 140.957501 88.959999 140.957501 88.924999 140.957501 88.779999 140.847501 88.619999 140.647501 88.619999 140.462501 88.619999 140.3725 88.724999 140.3125 88.879999L137.8625 95.3900001C137.8275 95.4900001 137.8025 95.5650001 137.8025 95.6000001 137.8025 95.7650001 137.9175 95.9150001 138.1275 95.9150001zM145.062501 95C145.252501 95 145.392501 94.85 145.392501 94.6799999 145.392501 94.6049999 145.367501 94.5299999 145.317501 94.4649999 144.477501 93.3399997 143.7375 92.7049996 143.3225 92.3999996L144.842501 90.9549993C144.927501 90.8749993 144.957501 90.7899993 144.957501 90.6999993 144.957501 90.5349993 144.802501 90.3749992 144.627501 90.3749992 144.542501 90.3749992 144.452501 90.4049992 144.3725 90.4849993L142.7075 92.0899995 142.7075 88.4499989C142.7075 88.2549989 142.5625 88.1199989 142.3775 88.1199989 142.1875 88.1199989 142.0475 88.2549989 142.0475 88.4499989L142.0475 94.6699999C142.0475 94.865 142.1875 95 142.3775 95 142.5625 95 142.7075 94.865 142.7075 94.6699999L142.7075 92.7699996 142.7475 92.7749996C143.0425 92.9849997 143.8925 93.6599998 144.757501 94.8 144.867501 94.945 144.947501 95 145.062501 95zM147.3475 97.0150003C148.4225 97.0150003 149.572501 96.5050002 149.572501 94.95L149.572501 91.0599994C149.572501 90.8749993 149.447501 90.7449993 149.337501 90.6699993 149.117501 90.5199993 148.562501 90.3149992 147.9525 90.3149992 146.6525 90.3149992 145.7925 91.2999994 145.7925 92.6749996 145.7925 94.1199999 146.6325 95.06 147.8625 95.06 148.2425 95.06 148.582501 94.93 148.912501 94.72L148.912501 94.995C148.912501 96.1250002 148.0275 96.3750002 147.3475 96.3750002 146.9375 96.3750002 146.6475 96.2650002 146.5075 96.2050002 146.3925 96.1550002 146.3125 96.1050002 146.1975 96.1050002 146.0275 96.1050002 145.8875 96.2400002 145.8875 96.4100002 145.8875 96.5750003 146.0025 96.6700003 146.1375 96.7450003 146.3025 96.8350003 146.7575 97.0150003 147.3475 97.0150003zM147.8625 94.4199999C147.0175 94.4199999 146.4775 93.7349998 146.4775 92.6749996 146.4775 91.6799995 147.0475 90.9549993 147.9525 90.9549993 148.3975 90.9549993 148.707501 91.0749994 148.912501 91.1799994L148.912501 94.0599998C148.692501 94.2299999 148.2675 94.4199999 147.8625 94.4199999zM173.14 70.835C173.195 70.835 173.265 70.81 173.325 70.78L176.780001 68.9699997C176.930001 68.8899997 176.995001 68.8199996 176.995001 68.6649996 176.995001 68.5049993 176.910001 68.4249996 176.780001 68.3549996L173.32 66.5599993C173.25 66.5249993 173.19 66.5049993 173.115 66.5049993 172.94 66.5049993 172.805 66.6549993 172.805 66.8299993 172.805 66.9849993 172.895 67.0699994 173.03 67.1399994L175.985001 68.6649996 173.025 70.2049999C172.895 70.2749999 172.82 70.3899999 172.82 70.5249999 172.82 70.71 172.985 70.835 173.14 70.835zM179.82 71C180.005 71 180.15 70.865 180.15 70.6699999L180.15 64.904999C180.15 64.709999 180.01 64.5699989 179.82 64.5699989 179.745 64.5699989 179.675 64.5899989 179.615 64.629999L178.475 65.3799991C178.365 65.4549991 178.315 65.5599991 178.315 65.6749991 178.315 65.8599992 178.46 65.9999992 178.65 65.9999992 178.73 65.9999992 178.79 65.9749992 178.865 65.9199992L179.49 65.4799991 179.49 70.6699999C179.49 70.865 179.635 71 179.82 71zM181.945 71.06C182.13 71.06 182.275 70.925 182.275 70.73L182.275 70.3999999C182.275 70.2099999 182.13 70.0699998 181.945 70.0699998 181.755 70.0699998 181.615 70.2099999 181.615 70.3999999L181.615 70.73C181.615 70.925 181.755 71.06 181.945 71.06zM185.565 71.06C187.130001 71.06 187.570001 69.6949998 187.570001 68.8549996 187.570001 68.0649995 187.130001 66.8049993 185.62 66.8049993 184.915 66.8049993 184.385 67.1549994 184.11 67.6549995L184.11 67.6199994C184.205 65.6049991 184.935 65.149999 185.735 65.149999 186.260001 65.149999 186.535001 65.3249991 186.685001 65.4299991 186.805001 65.5149991 186.900001 65.5849991 187.030001 65.5849991 187.215001 65.5849991 187.335001 65.4349991 187.335001 65.2699991 187.335001 65.164999 187.300001 65.084999 187.200001 64.994999 187.110001 64.914999 186.685001 64.5099989 185.735 64.5099989 184.155 64.5099989 183.44 65.6049991 183.44 68.0899995 183.44 68.9149997 183.58 69.5799998 183.86 70.0599998 184.235 70.7 184.795 71.06 185.565 71.06zM185.565 70.4199999C184.545 70.4199999 184.24 69.4899998 184.24 68.8549996 184.24 68.2999996 184.565 67.4449994 185.565 67.4449994 186.585001 67.4449994 186.890001 68.2999996 186.890001 68.8549996 186.890001 69.4899998 186.585001 70.4199999 185.565 70.4199999zM179.427501 82.835C179.582501 82.835 179.747501 82.71 179.747501 82.5249999 179.747501 82.3899999 179.672501 82.2749999 179.542501 82.2049999L176.5825 80.6649996 179.537501 79.1399994C179.672501 79.0699994 179.762501 78.9849993 179.762501 78.8299993 179.762501 78.6549993 179.627501 78.5049993 179.452501 78.5049993 179.377501 78.5049993 179.317501 78.5249993 179.247501 78.5599993L175.7875 80.3549996C175.6575 80.4249996 175.5725 80.5049993 175.5725 80.6649996 175.5725 80.8199996 175.6375 80.8899997 175.7875 80.9699997L179.242501 82.78C179.302501 82.81 179.372501 82.835 179.427501 82.835zM184.467501 83C184.657501 83 184.802501 82.87 184.802501 82.6749999 184.802501 82.4849999 184.657501 82.3599999 184.467501 82.3599999L181.8225 82.3599999C181.9975 81.9349998 182.4575 81.4699997 182.9425 80.9849997 183.777501 80.1449995 184.782501 79.2199994 184.782501 78.2899992 184.782501 76.669999 183.4825 76.5099989 182.9325 76.5099989 182.1625 76.5099989 181.6575 76.824999 181.4175 76.979999 181.2875 77.064999 181.2425 77.174999 181.2425 77.2799991 181.2425 77.4549991 181.3825 77.6049991 181.5725 77.6049991 181.6475 77.6049991 181.7225 77.5649991 181.7825 77.5249991 181.9275 77.4349991 182.3825 77.149999 182.9325 77.149999 183.3775 77.149999 184.102501 77.3099991 184.102501 78.2899992 184.102501 79.5849994 181.0775 81.2599997 181.0775 82.6599999 181.0775 82.86 181.2175 83 181.4375 83L184.467501 83zM175.312501 95C175.507501 95 175.717501 94.915 175.847501 94.6449999 176.197501 93.9199998 177.067501 89.7149991 177.187501 89.029999 177.207501 88.914999 177.212501 88.894999 177.212501 88.859999 177.212501 88.684999 177.072501 88.5699989 176.887501 88.5699989 176.707501 88.5699989 176.597501 88.649999 176.547501 88.849999 176.492501 89.064999 175.742501 92.9599997 175.357501 94.0699989 175.342501 94.1099999 175.327501 94.1349999 175.312501 94.1499999 175.297501 94.1299999 175.277501 94.1049999 175.262501 94.0649998 174.892501 93.0749997 174.207501 89.9949992 174.007501 89.059999 173.967501 88.874999 173.812501 88.739999 173.582501 88.739999 173.362501 88.739999 173.207501 88.864999 173.162501 89.059999 172.942501 89.9949992 172.2575 93.0049997 171.8675 94.0749998 171.8475 94.1249999 171.8325 94.1499999 171.8125 94.1799999 171.7975 94.1549999 171.7775 94.1199999 171.7625 94.0749998 171.3775 92.9149997 170.6375 89.094999 170.5875 88.844999 170.5475 88.639999 170.4375 88.5699989 170.2525 88.5699989 170.0675 88.5699989 169.9275 88.684999 169.9275 88.859999 169.9275 88.894999 169.9275 88.924999 169.9475 89.029999 170.0725 89.7199991 170.9425 93.9249998 171.2925 94.6549999 171.4225 94.925 171.6225 95 171.8225 95 172.0825 95 172.2325 94.895 172.3425 94.6649999 172.4825 94.372826 172.77441 93.3396311 173.055848 92.2386167L173.17535 91.7645639C173.312916 91.2112376 173.442066 90.6649993 173.542501 90.2099992 173.552501 90.1549992 173.562501 90.0999992 173.577501 90.0599992 173.587501 90.0999992 173.597501 90.1549992 173.607501 90.2099992L173.651629 90.4156036 173.651629 90.4156036 173.749837 90.8568743C174.07934 92.3072929 174.568864 94.195909 174.767501 94.6449999 174.892501 94.925 175.142501 95 175.312501 95zM178.1275 95.9150001C178.2825 95.9150001 178.3925 95.8100001 178.4525 95.6500001L180.907501 89.104999C180.937501 89.029999 180.957501 88.959999 180.957501 88.924999 180.957501 88.779999 180.847501 88.619999 180.647501 88.619999 180.462501 88.619999 180.3725 88.724999 180.3125 88.879999L177.8625 95.3900001C177.8275 95.4900001 177.8025 95.5650001 177.8025 95.6000001 177.8025 95.7650001 177.9175 95.9150001 178.1275 95.9150001zM185.062501 95C185.252501 95 185.392501 94.85 185.392501 94.6799999 185.392501 94.6049999 185.367501 94.5299999 185.317501 94.4649999 184.477501 93.3399997 183.7375 92.7049996 183.3225 92.3999996L184.842501 90.9549993C184.927501 90.8749993 184.957501 90.7899993 184.957501 90.6999993 184.957501 90.5349993 184.802501 90.3749992 184.627501 90.3749992 184.542501 90.3749992 184.452501 90.4049992 184.3725 90.4849993L182.7075 92.0899995 182.7075 88.4499989C182.7075 88.2549989 182.5625 88.1199989 182.3775 88.1199989 182.1875 88.1199989 182.0475 88.2549989 182.0475 88.4499989L182.0475 94.6699999C182.0475 94.865 182.1875 95 182.3775 95 182.5625 95 182.7075 94.865 182.7075 94.6699999L182.7075 92.7699996 182.7475 92.7749996C183.0425 92.9849997 183.8925 93.6599998 184.757501 94.8 184.867501 94.945 184.947501 95 185.062501 95zM187.3475 97.0150003C188.4225 97.0150003 189.572501 96.5050002 189.572501 94.95L189.572501 91.0599994C189.572501 90.8749993 189.447501 90.7449993 189.337501 90.6699993 189.117501 90.5199993 188.562501 90.3149992 187.9525 90.3149992 186.6525 90.3149992 185.7925 91.2999994 185.7925 92.6749996 185.7925 94.1199999 186.6325 95.06 187.8625 95.06 188.2425 95.06 188.582501 94.93 188.912501 94.72L188.912501 94.995C188.912501 96.1250002 188.0275 96.3750002 187.3475 96.3750002 186.9375 96.3750002 186.6475 96.2650002 186.5075 96.2050002 186.3925 96.1550002 186.3125 96.1050002 186.1975 96.1050002 186.0275 96.1050002 185.8875 96.2400002 185.8875 96.4100002 185.8875 96.5750003 186.0025 96.6700003 186.1375 96.7450003 186.3025 96.8350003 186.7575 97.0150003 187.3475 97.0150003zM187.8625 94.4199999C187.0175 94.4199999 186.4775 93.7349998 186.4775 92.6749996 186.4775 91.6799995 187.0475 90.9549993 187.9525 90.9549993 188.3975 90.9549993 188.707501 91.0749994 188.912501 91.1799994L188.912501 94.0599998C188.692501 94.2299999 188.2675 94.4199999 187.8625 94.4199999zM22.080001 55C22.440001 55 22.6440011 54.796 22.6440011 54.5079999 22.6440011 54.4599999 22.6320011 54.3879999 22.6200011 54.3519999 22.464001 53.8359998 20.8920008 49.089999 20.2080007 47.6319988 20.0940006 47.3919988 19.8840006 47.2599987 19.5000005 47.2599987 19.1160005 47.2599987 18.9420005 47.3559987 18.8040004 47.6079988 17.9640003 49.155999 16.4640001 54.0519998 16.38 54.3519999 16.368 54.3879999 16.356 54.4599999 16.356 54.5079999 16.356 54.796 16.5240001 55 16.8840001 55 17.1600002 55 17.3280002 54.88 17.4120002 54.6519999 17.5680002 54.2439999 17.7480003 53.5359998 17.9880003 52.7799996L20.9880008 52.7799996C21.2280008 53.5359998 21.4560009 54.2439999 21.6120009 54.6519999 21.6960009 54.88 21.8040009 55 22.080001 55zM20.6520007 51.7359995L18.3600004 51.7359995 18.5280004 51.2259994C18.8160004 50.3439992 19.0680005 49.6239991 19.3680005 48.861999 19.4100005 48.753999 19.4520005 48.645999 19.5000005 48.5319989L19.6320006 48.855999 19.6320006 48.855999C19.9440006 49.6479991 20.1960007 50.3379992 20.5020007 51.2739994L20.6520007 51.7359995zM62.658001 52.7679996C62.658001 51.9519995 62.2560009 51.2379994 61.5300008 50.9079993 62.0700009 50.5299993 62.3340009 49.9239992 62.3340009 49.3479991 62.3340009 47.9979989 61.4880008 47.2599987 59.7660005 47.2599987L58.3500003 47.2599987C58.0380002 47.2599987 57.8220002 47.4639988 57.8220002 47.7759988L57.8220002 54.4599999C57.8220002 54.772 58.0620002 55 58.3740003 55L59.7660005 55C60.5100006 55 62.658001 54.952 62.658001 52.7679996zM59.9580005 50.5599993L58.9020003 50.5599993 58.9020003 48.3039989 59.7300005 48.3039989C60.1980006 48.3039989 61.2180007 48.3519989 61.2180007 49.4319991 61.2180007 50.2119992 60.7260006 50.5599993 59.9580005 50.5599993zM59.8348236 53.9555333L58.9020003 53.9559998 58.9020003 51.6039994 60.0660005 51.6039994C61.0380007 51.6039994 61.5420008 51.9999995 61.5420008 52.7679996 61.5420008 53.8447271 60.3502072 53.9483387 59.8348236 53.9555333zM100.420001 55.072C101.224001 55.072 101.932001 54.844 102.700001 54.4479999 102.874001 54.3579999 102.928001 54.2079999 102.928001 54.0159998 102.928001 53.7399998 102.688001 53.4639997 102.388001 53.4639997 102.304001 53.4639997 102.172001 53.5119998 102.100001 53.5479998 101.578001 53.8359998 101.008001 54.0279998 100.420001 54.0279998 99.0880004 54.0279998 98.1160003 52.7799996 98.1160003 51.1359994 98.1160003 49.5039991 99.1480004 48.2319989 100.528001 48.2319989 101.488001 48.2319989 101.992001 48.5799989 102.148001 48.699999 102.244001 48.771999 102.352001 48.807999 102.472001 48.807999 102.724001 48.807999 103 48.5799989 103 48.2799989 103 48.0999989 102.904001 47.9319988 102.772001 47.8239988 102.508001 47.6079988 101.764001 47.1879987 100.528001 47.1879987 98.5360003 47.1879987 97.0000001 48.879999 97.0000001 51.1359994 97.0000001 53.3919997 98.4640003 55.072 100.420001 55.072zM139.796001 55C141.836001 55 143.252001 53.3919997 143.252001 51.1599994 143.252001 48.891999 141.836001 47.2599987 139.796001 47.2599987L137.756 47.2599987C137.444 47.2599987 137.228 47.4759988 137.228 47.7879988L137.228 54.4599999C137.228 54.772 137.444 55 137.756 55L139.796001 55zM139.796001 53.9559998L138.308 53.9559998 138.308 48.3039989 139.796001 48.3039989C141.236001 48.3039989 142.136001 49.5039991 142.136001 51.1599994 142.136001 52.7919996 141.236001 53.9559998 139.796001 53.9559998zM181.842001 55C182.154001 55 182.370001 54.784 182.370001 54.4719999 182.370001 54.1599999 182.154001 53.9559998 181.842001 53.9559998L179.13 53.9559998 179.13 51.4599994 181.422001 51.4599994C181.734001 51.4599994 181.950001 51.2439994 181.950001 50.9319993 181.950001 50.6199993 181.734001 50.4159992 181.422001 50.4159992L179.13 50.4159992 179.13 48.3039989 181.614001 48.3039989C181.926001 48.3039989 182.142001 48.0879989 182.142001 47.7759988 182.142001 47.4639988 181.926001 47.2599987 181.614001 47.2599987L178.578 47.2599987C178.266 47.2599987 178.05 47.4639988 178.05 47.7759988L178.05 54.4719999C178.05 54.784 178.266 55 178.578 55L181.842001 55z"/>
  </g>
</svg>
