<?xml version="1.0" encoding="UTF-8"?>
<svg width="64px" height="62px" viewBox="0 0 64 62" version="1.1" xmlns="http://www.w3.org/2000/svg" xmlns:xlink="http://www.w3.org/1999/xlink">
    <title>Group 3</title>
    <defs>
        <filter x="-52.5%" y="-52.5%" width="205.0%" height="205.0%" filterUnits="objectBoundingBox" id="filter-1">
            <feGaussianBlur stdDeviation="0.7" in="SourceGraphic"></feGaussianBlur>
        </filter>
    </defs>
    <g id="Page-1" stroke="none" stroke-width="1" fill="none" fill-rule="evenodd">
        <g id="Group-3" transform="translate(0.000000, 3.000000)">
            <g id="Group-7" transform="translate(15.187500, 11.000000)" stroke="#575756" stroke-width="1.5">
                <path d="M0,12.5000002 L0,16.3029034 C-5.26408973e-16,16.7707162 0.379237182,17.1499533 0.847049953,17.1499533 L1.58159991,17.1499533 C1.64373194,17.1499533 1.69409991,17.2003213 1.69409991,17.2624533 L1.69409991,34.5000001 C1.69409991,35.3284273 2.36567279,36.0000002 3.19409993,36.0000002 L31.4307462,36.0000002 C32.2591734,36.0000002 32.9307463,35.3284273 32.9307463,34.5000001 L32.9307463,17.2624533 C32.9307463,17.2003213 32.9811142,17.1499533 33.0432463,17.1499533 L33.7153731,17.1499533 C34.1487106,17.1499533 34.5,16.7986639 34.5,16.3653265 L34.5,12.5000002 C34.5,11.671573 33.8284271,11.0000002 33,11.0000002 L1.50000002,11.0000002 C0.671572885,11.0000002 -5.45542274e-16,11.671573 0,12.5000002 Z M0.776945566,17.1500003 L33.2060542,17.1500003 M12.2500002,11.0000002 L12.2500002,36.0000002 M23.0000003,11.0000002 L23.0000003,36.0000002" id="Combined-Shape"></path>
                <path d="M17.3784326,11 C18.4411827,4.36276898 20.3650651,0.741406664 23.1500797,0.135913056 C27.3276015,-0.772327356 29.296805,3.04813797 27.6942623,6.33599318 C26.6259006,8.52789666 23.1444799,9.98252368 17.2500003,10.6998743" id="Path-6"></path>
                <path d="M6.37843242,11 C7.44118256,4.36276898 9.36506491,0.741406664 12.1500795,0.135913056 C16.3276013,-0.772327356 18.2968048,3.04813797 16.6942622,6.33599318 C15.6259004,8.52789666 12.1444797,9.98252368 6.25000009,10.6998743" id="Path-6" transform="translate(11.750000, 5.500000) scale(-1, 1) translate(-11.750000, -5.500000) "></path>
            </g>
            <circle id="Oval-Copy-6" fill="#F5B0A3" cx="60" cy="27" r="4"></circle>
            <circle id="Oval-Copy-26" fill="#F5B0A3" fill-rule="nonzero" cx="3" cy="41" r="3"></circle>
            <circle id="Oval-Copy-8" fill="#FDC400" fill-rule="nonzero" filter="url(#filter-1)" cx="41" cy="2" r="2"></circle>
            <circle id="Oval-Copy-9" fill="#239A98" cx="22" cy="57" r="2"></circle>
        </g>
    </g>
</svg>