<?xml version="1.0" encoding="UTF-8"?>
<svg width="46px" height="47px" viewBox="0 0 46 47" version="1.1" xmlns="http://www.w3.org/2000/svg" xmlns:xlink="http://www.w3.org/1999/xlink">
    <title>Illustrations/Easyswitch/Card/Light</title>
    <g id="Symbols" stroke="none" stroke-width="1" fill="none" fill-rule="evenodd">
        <g id="easyswitch/card/Iwillfixitmyself/desktop/active" transform="translate(-56.000000, -33.000000)" fill="#FFFFFF" fill-rule="nonzero">
            <g id="Illustration-/-Flow-/-Mobile+Desktop-/-Add-item" transform="translate(56.000000, 33.370787)">
                <path d="M23,0.401007361 C27.3609076,0.401007361 31.5397816,1.65242978 35.1376928,3.97273749 C35.3223475,4.09182212 35.3765753,4.33973349 35.2588138,4.52646303 C35.1410524,4.71319258 34.8958956,4.76802963 34.7112408,4.648945 C31.2397995,2.41019823 27.2086771,1.20302208 23,1.20302208 C10.9544792,1.20302208 1.18965517,11.0775632 1.18965517,23.258427 C1.18965517,35.4392907 10.9544792,45.3138318 23,45.3138318 C35.0455208,45.3138318 44.8103448,35.4392907 44.8103448,23.258427 C44.8103448,17.5259084 42.6390205,12.1392878 38.8119855,8.06717773 C38.6611115,7.90664207 38.6674978,7.65282039 38.8262498,7.50025116 C38.9850017,7.34768192 39.2360031,7.35413999 39.3868772,7.51467566 C43.3526465,11.7344043 45.6034483,17.3181926 45.6034483,23.258427 C45.6034483,35.8822312 35.4835398,46.1158466 23,46.1158466 C10.5164602,46.1158466 0.396551724,35.8822312 0.396551724,23.258427 C0.396551724,10.6346227 10.5164602,0.401007361 23,0.401007361 Z M33.288685,11.6762948 C33.4435481,11.5196917 33.6946308,11.5196917 33.8494983,11.6762903 C34.0043569,11.8328979 34.0043569,12.0868017 33.8494938,12.2434049 L33.8494938,12.2434049 L22.9555517,23.2580074 L33.8494938,34.2734491 C33.984999,34.4104768 34.0019372,34.6220004 33.9003113,34.7776551 L33.8494983,34.8405636 C33.6946308,34.9971622 33.4435481,34.9971622 33.288685,34.8405591 L33.288685,34.8405591 L22.3955517,23.8250074 L12.107367,34.2298252 C11.9718618,34.366853 11.7626885,34.3839814 11.6087633,34.2812136 L11.5465537,34.2298297 C11.3916951,34.0732221 11.3916951,33.8193183 11.5465582,33.6627152 L11.5465582,33.6627152 L21.8355517,23.2580074 L11.5465582,12.8541388 C11.411053,12.717111 11.3941149,12.5055875 11.4957407,12.3499328 L11.5465537,12.2870242 C11.7014213,12.1304256 11.9525039,12.1304256 12.107367,12.2870287 L12.107367,12.2870287 L22.3955517,22.6910074 Z" id="Combined-Shape"></path>
            </g>
        </g>
    </g>
</svg>