<svg width="21" height="22" viewBox="0 0 21 22" fill="none" xmlns="http://www.w3.org/2000/svg">
<path fill-rule="evenodd" clip-rule="evenodd" d="M14.7599 2.99026C13.1757 2.67515 11.5337 2.83687 10.0414 3.45499C8.54913 4.0731 7.27368 5.11985 6.37631 6.46285C5.92033 7.14527 5.57238 7.88861 5.34041 8.66667H13.1666C13.811 8.66667 14.3333 9.189 14.3333 9.83333C14.3333 10.4777 13.811 11 13.1666 11L4.99998 11C4.99998 11.392 5.02819 11.7818 5.08374 12.1667H9.66665C10.311 12.1667 10.8333 12.689 10.8333 13.3333C10.8333 13.9777 10.311 14.5 9.66665 14.5H5.78799C5.95787 14.8581 6.15428 15.2049 6.37631 15.5372C7.27368 16.8802 8.54913 17.9269 10.0414 18.545C11.5337 19.1631 13.1757 19.3249 14.7599 19.0098C16.3441 18.6946 17.7992 17.9168 18.9414 16.7747C19.397 16.3191 20.1357 16.3191 20.5913 16.7747C21.0469 17.2303 21.0469 17.969 20.5913 18.4246C19.1228 19.8931 17.2519 20.8931 15.2151 21.2983C13.1783 21.7034 11.0671 21.4955 9.14847 20.7007C7.22985 19.906 5.58997 18.5602 4.43622 16.8335C3.9484 16.1034 3.55675 15.3191 3.26715 14.5H1.49998C0.855647 14.5 0.333313 13.9777 0.333313 13.3333C0.333313 12.689 0.855647 12.1667 1.49998 12.1667H2.73165C2.68849 11.7806 2.66665 11.3911 2.66665 11L1.49998 11C0.855647 11 0.333313 10.4777 0.333313 9.83333C0.333313 9.189 0.855647 8.66667 1.49998 8.66667H2.92919C3.21239 7.42414 3.72092 6.23703 4.43621 5.16652C5.58997 3.4398 7.22984 2.09399 9.14847 1.29927C11.0671 0.50455 13.1783 0.296614 15.2151 0.701759C17.2519 1.1069 19.1228 2.10693 20.5913 3.57538C21.0469 4.03099 21.0469 4.76969 20.5913 5.2253C20.1357 5.68091 19.397 5.68091 18.9414 5.2253C17.7992 4.08317 16.3441 3.30537 14.7599 2.99026Z" fill="#291D18"/>
</svg>
