<?xml version="1.0" encoding="UTF-8"?>
<svg width="271px" height="270px" viewBox="0 0 271 270" version="1.1" xmlns="http://www.w3.org/2000/svg" xmlns:xlink="http://www.w3.org/1999/xlink">
    <title>Illustration / CMP / Desktop / Password for profile</title>
    <defs>
        <path d="M38.0156658,76.0424028 C59.0111383,76.0424028 76.0313316,59.0197311 76.0313316,38.0212014 C76.0313316,32.3495963 74.789683,26.9680359 72.5634211,22.133593 C70.762755,18.2233535 68.31795,14.6710409 65.3650137,11.6126827 C58.4518342,4.45269792 48.753666,0 38.0156658,0 C17.0201933,0 0,17.0226717 0,38.0212014 C0,59.0197311 17.0201933,76.0424028 38.0156658,76.0424028 Z" id="path-1"></path>
        <path d="M7.60313316,0.950530035 C9.96512381,0.950530035 11.8798956,2.8655806 11.8798956,5.22791519 C11.8798956,6.84333517 10.9845203,8.2495986 9.6630431,8.97736382 C11.525651,9.77590114 12.8302872,11.6269141 12.8302872,13.7826855 C12.8302872,14.0451671 12.6175348,14.2579505 12.3550914,14.2579505 C12.092648,14.2579505 11.8798956,14.0451671 11.8798956,13.7826855 C11.8798956,11.4203509 9.96512381,9.50530035 7.60313316,9.50530035 C5.24114251,9.50530035 3.32637076,11.4203509 3.32637076,13.7826855 C3.32637076,14.0451671 3.11361834,14.2579505 2.85117493,14.2579505 C2.58873153,14.2579505 2.37597911,14.0451671 2.37597911,13.7826855 C2.37597911,11.6269141 3.68061536,9.77590114 5.54330623,8.97633705 C4.22174602,8.2495986 3.32637076,6.84333517 3.32637076,5.22791519 C3.32637076,2.8655806 5.24114251,0.950530035 7.60313316,0.950530035 Z M7.60313316,1.90106007 C5.76602932,1.90106007 4.2767624,3.39054384 4.2767624,5.22791519 C4.2767624,7.06528654 5.76602932,8.55477032 7.60313316,8.55477032 C9.440237,8.55477032 10.9295039,7.06528654 10.9295039,5.22791519 C10.9295039,3.39054384 9.440237,1.90106007 7.60313316,1.90106007 Z" id="path-3"></path>
        <path d="M13.305483,1.90106007 C14.3552567,1.90106007 15.2062663,2.75219366 15.2062663,3.80212014 L15.2062663,11.4063604 C15.2062663,12.4562869 14.3552567,13.3074205 13.305483,13.3074205 L1.90078329,13.3074205 C0.851009666,13.3074205 -5.90882144e-14,12.4562869 -5.90882144e-14,11.4063604 L-5.90882144e-14,3.80212014 C-5.90882144e-14,2.75219366 0.851009666,1.90106007 1.90078329,1.90106007 L13.305483,1.90106007 Z M0.950391645,3.80212014 L0.950391645,11.4063604 C0.950391645,11.9313237 1.37589648,12.3568905 1.90078329,12.3568905 L13.305483,12.3568905 C13.8303698,12.3568905 14.2558747,11.9313237 14.2558747,11.4063604 L14.2558747,3.80212014 C14.2558747,3.70236984 14.2405117,3.60620828 14.2120231,3.51587315 L7.9123865,8.91561842 C7.73443055,9.06817431 7.47183577,9.06817431 7.29387982,8.91561842 L0.994555623,3.51488431 C0.965866955,3.60550642 0.950391645,3.70200579 0.950391645,3.80212014 Z M13.305483,2.85159011 L1.90078329,2.85159011 C1.83385847,2.85159011 1.76854931,2.85850859 1.70553182,2.87166946 L7.60313316,7.92880932 L13.5007345,2.87166946 C13.437717,2.85850859 13.3724078,2.85159011 13.305483,2.85159011 Z" id="path-5"></path>
    </defs>
    <g id="🤓-Case-study" stroke="none" stroke-width="1" fill="none" fill-rule="evenodd">
        <g id="11.0-Complete-profile---contract-holder-" transform="translate(-287.000000, -283.000000)">
            <g id="Illustration-/-CMP-/-Desktop-/-Password-for-profile" transform="translate(287.000000, 284.000000)">
                <ellipse id="Oval-Copy-112" fill="#D8D8D8" cx="142.558747" cy="261.39576" rx="7.60313316" ry="7.60424028"></ellipse>
                <ellipse id="Oval-Copy-109" fill="#D8D8D8" cx="263.258486" cy="87.4487633" rx="7.60313316" ry="7.60424028"></ellipse>
                <ellipse id="Oval-Copy-113" fill="#D8D8D8" cx="63.6762402" cy="63.6855124" rx="3.80156658" ry="3.80212014"></ellipse>
                <ellipse id="Oval-Copy-114" fill="#D8D8D8" cx="266.396867" cy="199.611307" rx="3.80156658" ry="3.80212014"></ellipse>
                <ellipse id="Oval-Copy-110" fill="#D8D8D8" cx="237.597911" cy="19.9611307" rx="3.80156658" ry="3.80212014"></ellipse>
                <ellipse id="Oval-Copy-111" fill="#D8D8D8" cx="3.80156658" cy="192.957597" rx="3.80156658" ry="3.80212014"></ellipse>
                <g id="Group-3-Copy-2" transform="translate(95.039164, 0.000000)">
                    <line x1="3.70758254" y1="54.2802678" x2="18.0074206" y2="54.2802678" id="Line-17" stroke="#C5C6C6" stroke-linecap="round"></line>
                    <line x1="58.023911" y1="54.2802678" x2="72.3178873" y2="54.2802678" id="Line-17-Copy" stroke="#C5C6C6" stroke-linecap="round"></line>
                    <path d="M57.7453128,5.51488006 C51.9937348,2.01546984 45.2400352,0 38.0156658,0 C17.0201933,0 0,17.0226717 0,38.0212014 C0,59.0197311 17.0201933,76.0424028 38.0156658,76.0424028 L38.0156658,76.0424028 C59.0111383,76.0424028 76.0313316,59.0197311 76.0313316,38.0212014 C76.0313316,28.1748572 72.2890476,19.2026976 66.1494094,12.449848" id="Path" stroke="#8C8D8E" stroke-width="0.933333333" stroke-linecap="round"></path>
                    <g id="Path">
                        <mask id="mask-2" fill="white">
                            <use xlink:href="#path-1"></use>
                        </mask>
                        <use id="Mask" stroke="#8C8D8E" stroke-width="2" xlink:href="#path-1"></use>
                        <path d="M26.5109248,81.0451925 L59.5245293,81.0451925 L59.5245293,67.0373814 C59.5245293,55.1566344 49.8946831,45.5253859 38.0156658,45.5253859 C26.1366485,45.5253859 16.5068023,55.1566344 16.5068023,67.0373814 L16.5068023,81.0451925 L22.0090697,81.0451925" stroke="#8C8D8E" stroke-linecap="round" mask="url(#mask-2)"></path>
                    </g>
                    <path d="M26.9044569,40.6046071 C29.6496342,43.6274234 33.6110358,45.5253859 38.0156658,45.5253859 L38.0156658,45.5253859 C46.3033523,45.5253859 53.0218497,38.8059102 53.0218497,30.5170169 C53.0218497,22.2281236 46.3033523,15.5086479 38.0156658,15.5086479 C29.7279793,15.5086479 23.0094819,22.2281236 23.0094819,30.5170169 C23.0094819,33.0612972 23.6424896,35.4577091 24.7595845,37.5573106" id="Path" stroke="#8C8D8E" stroke-linecap="round"></path>
                </g>
                <path d="M222.391645,91.2508834 L235.697128,91.2508834 C238.321562,91.2508834 240.449086,93.3787174 240.449086,96.0035336 L240.449086,116.915194 C240.449086,119.540011 238.321562,121.667845 235.697128,121.667845 L34.2140992,121.667845 C31.5896652,121.667845 29.462141,119.540011 29.462141,116.915194 L29.462141,96.0035336 C29.462141,93.3787174 31.5896652,91.2508834 34.2140992,91.2508834 L34.2140992,91.2508834 L203.383812,91.2508834" id="Path" stroke="#979797" stroke-linecap="round"></path>
                <path d="M90.2872063,159.689046 L34.2140992,159.689046 C31.5896652,159.689046 29.462141,157.561212 29.462141,154.936396 L29.462141,134.024735 C29.462141,131.399919 31.5896652,129.272085 34.2140992,129.272085 L34.2140992,129.272085 L235.697128,129.272085 C238.321562,129.272085 240.449086,131.399919 240.449086,134.024735 L240.449086,154.936396 C240.449086,157.561212 238.321562,159.689046 235.697128,159.689046 L99.7911227,159.689046" id="Path" stroke="#979797" stroke-linecap="round"></path>
                <rect id="Rectangle-Copy-117" stroke="#979797" x="29.462141" y="167.293286" width="210.986945" height="30.4169611" rx="5"></rect>
                <path d="M179.624021,235.731449 L34.2140992,235.731449 C31.5896652,235.731449 29.462141,233.603615 29.462141,230.978799 L29.462141,210.067138 C29.462141,207.442322 31.5896652,205.314488 34.2140992,205.314488 L34.2140992,205.314488 L235.697128,205.314488 C238.321562,205.314488 240.449086,207.442322 240.449086,210.067138 L240.449086,230.978799 C240.449086,233.603615 238.321562,235.731449 235.697128,235.731449 L193.879896,235.731449" id="Path" stroke="#979797" stroke-linecap="round"></path>
                <line x1="59.8746736" y1="106.459364" x2="167.26893" y2="106.459364" id="Line-20-Copy-6" stroke="#979797" stroke-width="2" stroke-linecap="round"></line>
                <line x1="59.8746736" y1="144.480565" x2="132.104439" y2="144.480565" id="Line-20-Copy-7" stroke="#979797" stroke-width="2" stroke-linecap="round"></line>
                <path d="M44.6684073,182.526502 L197.681462,182.526502 M210.036554,182.526502 L219.234191,182.526502" id="Shape" stroke="#C5C6C6" stroke-width="2" stroke-linecap="round"></path>
                <line x1="44.6684073" y1="220.522968" x2="153.052036" y2="220.522968" id="Line-20-Copy-9" stroke="#979797" stroke-width="2" stroke-linecap="round"></line>
                <g id="Icon-/-Small-/-Email-Copy-2" transform="translate(37.065274, 98.855124)">
                    <mask id="mask-4" fill="white">
                        <use xlink:href="#path-3"></use>
                    </mask>
                    <use id="Combined-Shape" fill="#8C8D8E" fill-rule="nonzero" xlink:href="#path-3"></use>
                </g>
                <g id="Icon-/-Small-/-Email-Copy-3" transform="translate(37.065274, 136.876325)">
                    <mask id="mask-6" fill="white">
                        <use xlink:href="#path-5"></use>
                    </mask>
                    <use id="Combined-Shape" fill="#8C8D8E" fill-rule="nonzero" xlink:href="#path-5"></use>
                </g>
            </g>
        </g>
    </g>
</svg>