<?xml version="1.0" encoding="UTF-8"?>
<svg width="24px" height="24px" viewBox="0 0 24 24" version="1.1" xmlns="http://www.w3.org/2000/svg" xmlns:xlink="http://www.w3.org/1999/xlink">
    <!-- Generator: Sketch 56.3 (81716) - https://sketch.com -->
    <title>Icons / Products / Internet / Large / ICO-WiFiScan-24px</title>
    <desc>Created with Sketch.</desc>
    <g id="Icons-/-Products-/-Internet-/-Large-/-ICO-WiFiScan-24px" stroke="none" stroke-width="1" fill="none" fill-rule="evenodd">
        <g id="Network" transform="translate(1.000000, 1.000000)" fill="#65B5C9">
            <path d="M19.2416,3.66015 C18.9126,3.26415 18.3266,3.21015 17.9326,3.54165 C17.7416,3.70265 17.6246,3.92865 17.6026,4.17865 C17.5801,4.42865 17.6561,4.67165 17.8151,4.86415 C19.1681,6.49815 19.9131,8.57265 19.9131,10.70465 C19.9131,15.72965 15.8631,19.81815 10.8856,19.81815 C5.9081,19.81815 1.8591,15.72965 1.8591,10.70465 C1.8591,8.57115 2.6051,6.49665 3.9571,4.86415 C4.2851,4.46665 4.2321,3.87365 3.8401,3.54165 C3.4456,3.21065 2.8596,3.26365 2.5296,3.66015 C0.8981,5.63065 0.0001,8.13265 0.0001,10.70465 C0.0001,13.64015 1.1321,16.40015 3.1876,18.47565 C5.2451,20.55165 7.9786,21.69465 10.8856,21.69465 C13.7936,21.69465 16.5271,20.55165 18.5841,18.47565 C20.6391,16.40015 21.7716,13.64015 21.7716,10.70465 C21.7716,8.13265 20.8736,5.63065 19.2416,3.66015" id="Fill-1" fill-opacity="0.3"></path>
            <path d="M12.75575,7.0974 C12.64325,7.4639 12.29325,7.7199 11.90175,7.7199 C11.81475,7.7199 11.72925,7.7079 11.64825,7.6839 C11.14475,7.5389 10.61125,7.5389 10.10575,7.6839 C10.02125,7.7084 9.93725,7.7199 9.85375,7.7199 C9.46975,7.7199 9.11425,7.4749 8.99875,7.0974 C8.93225,6.8774 8.95525,6.6449 9.06575,6.4419 C9.17825,6.2329 9.36875,6.0809 9.59975,6.0139 C10.43475,5.7734 11.31875,5.7734 12.15375,6.0139 C12.38625,6.0809 12.57625,6.2329 12.68925,6.4419 C12.79975,6.6449 12.82275,6.8774 12.75575,7.0974 Z M5.83535,3.1489 C5.61085,3.0979 5.41935,2.9614 5.29635,2.7634 C5.04435,2.3589 5.16435,1.8209 5.56385,1.5644 C7.16535,0.5409 9.01585,-0.0001 10.91485,-0.0001 C12.81535,-0.0001 14.66585,0.5409 16.26635,1.5644 C16.66585,1.8204 16.78585,2.3584 16.53485,2.7634 C16.37585,3.0179 16.10435,3.1699 15.80735,3.1699 C15.64535,3.1699 15.48835,3.1234 15.35035,3.0354 C14.02335,2.1874 12.49035,1.7394 10.91485,1.7394 C9.34035,1.7394 7.80685,2.1874 6.48085,3.0354 C6.34235,3.1244 6.18485,3.1699 6.02385,3.1704 C5.96135,3.1704 5.89785,3.1629 5.83535,3.1489 Z M13.8163,5.4045 C13.6738,5.4045 13.5368,5.37 13.4103,5.3015 C12.6283,4.8805 11.7443,4.658 10.8533,4.658 C9.9623,4.658 9.0778,4.8805 8.2963,5.3015 C8.1693,5.37 8.0313,5.4045 7.8913,5.4045 C7.8073,5.4045 7.7223,5.3925 7.6393,5.367 C7.4168,5.299 7.2348,5.147 7.1263,4.939 C6.9028,4.513 7.0638,3.982 7.4843,3.756 C8.5158,3.2005 9.6808,2.9065 10.8533,2.9065 C12.0253,2.9065 13.1908,3.2005 14.2223,3.756 C14.6428,3.982 14.8043,4.513 14.5803,4.939 C14.4293,5.226 14.1363,5.4045 13.8163,5.4045 Z" id="Combined-Shape"></path>
            <path d="M11.08385,8.91355 C10.98685,8.82655 10.82985,8.82655 10.73535,8.91455 L9.98385,9.60705 C9.90235,9.68205 9.83935,9.82555 9.83935,9.93505 L9.83935,11.15305 C9.83935,11.28705 9.94835,11.39605 10.08335,11.39605 L11.74785,11.39605 C11.88185,11.39605 11.99085,11.28705 11.99085,11.15305 L11.99085,9.93505 C11.99085,9.82255 11.92885,9.68205 11.84635,9.60755 L11.08385,8.91355 Z" id="Fill-8"></path>
            <path d="M10.86465,18.20725 C6.72815,18.20725 3.36265,14.84825 3.36265,10.71975 C3.36265,9.14475 3.84815,7.63625 4.76715,6.35875 C5.05565,5.95625 5.62165,5.86175 6.02615,6.15225 C6.22215,6.29275 6.35065,6.50075 6.39015,6.73825 C6.42915,6.97575 6.37315,7.21375 6.23315,7.40875 C5.53565,8.37675 5.16715,9.52175 5.16715,10.71975 C5.16715,13.85525 7.72315,16.40625 10.86465,16.40625 C14.00665,16.40625 16.56265,13.85525 16.56265,10.71975 C16.56265,9.52325 16.19465,8.37825 15.49765,7.40925 C15.35765,7.21425 15.30165,6.97625 15.34015,6.73875 C15.37915,6.50075 15.50865,6.29275 15.70465,6.15225 C16.10715,5.86325 16.67215,5.95425 16.96365,6.35875 C17.88165,7.63675 18.36715,9.14475 18.36715,10.71975 C18.36715,14.84825 15.00165,18.20725 10.86465,18.20725 Z M6.85975,8.67135 C6.95525,8.45485 7.13075,8.28985 7.35125,8.20635 C7.57175,8.12235 7.81025,8.13085 8.02475,8.22785 C8.46725,8.42785 8.66575,8.95285 8.46625,9.39835 C8.31025,9.74585 8.23075,10.11635 8.23075,10.50035 C8.23075,11.98185 9.42975,13.18635 10.90275,13.18635 C12.37525,13.18635 13.57425,11.98185 13.57425,10.50035 C13.57425,10.11735 13.49525,9.74635 13.33975,9.39835 C13.13975,8.95335 13.33675,8.42785 13.78075,8.22735 C13.99525,8.13085 14.23175,8.12235 14.45375,8.20635 C14.67425,8.28935 14.84925,8.45485 14.94625,8.67135 C15.20575,9.25135 15.33775,9.86685 15.33775,10.50035 C15.33775,12.95785 13.34775,14.95735 10.90275,14.95735 C8.45725,14.95735 6.46875,12.95785 6.46875,10.50035 C6.46875,9.86435 6.60025,9.24885 6.85975,8.67135 Z" id="Combined-Shape" fill-opacity="0.6"></path>
        </g>
    </g>
</svg>