<svg xmlns="http://www.w3.org/2000/svg" width="24" height="24" fill="none"><path fill="#111" d="M9 12a1 1 0 1 0 0-2 1 1 0 0 0 0 2m6 0a1 1 0 1 0 0-2 1 1 0 0 0 0 2m-6.53 3.53a.75.75 0 1 1 1.06-1.06c.344.344.99.78 2.47.78s2.126-.436 2.47-.78a.75.75 0 1 1 1.06 1.06c-.656.656-1.697 1.22-3.53 1.22s-2.874-.564-3.53-1.22"/><path fill="#111" d="M6.29 4.665c-1.237 1.427-1.918 3.39-2.025 5.708A2.25 2.25 0 0 0 2.75 12.5v3a2.25 2.25 0 0 0 1.746 2.193c.134.167.303.291.46.379.328.183.763.306 1.267.397q.127.023.264.045.173.307.37.594C7.986 20.738 9.714 21.75 12 21.75c2.292 0 4.038-1.038 5.183-2.682q.425-.612.737-1.318H19a2.25 2.25 0 0 0 2.25-2.25v-3a2.25 2.25 0 0 0-1.515-2.127c-.107-2.318-.788-4.28-2.025-5.708C16.346 3.09 14.377 2.25 12 2.25s-4.346.84-5.71 2.415m1.134.982C8.464 4.446 9.996 3.75 12 3.75s3.535.696 4.576 1.897c.645.744 1.128 1.713 1.405 2.893a7 7 0 0 0-.817-1.384C15.999 5.627 14.25 4.75 12 4.75c-2.259 0-3.989.905-5.13 2.458a7.4 7.4 0 0 0-.94 1.751c.256-1.371.774-2.482 1.494-3.312M8.43 18.694q.489.025 1.049.039c.268.165.627.267 1.021.267.828 0 1.5-.448 1.5-1s-.672-1-1.5-1c-.367 0-.703.088-.963.233a30 30 0 0 1-2.061-.11c-.478-1.128-.726-2.51-.726-4.04 0-2.09.464-3.81 1.329-4.987C8.92 6.95 10.19 6.25 12 6.25c1.819 0 3.111.687 3.97 1.815.882 1.156 1.363 2.851 1.363 4.935s-.482 3.92-1.381 5.211c-.88 1.263-2.176 2.039-3.952 2.039-1.56 0-2.729-.582-3.57-1.556m10.348-6.944H19a.75.75 0 0 1 .75.75v3a.75.75 0 0 1-.75.75h-.56a13 13 0 0 0 .393-3.25q0-.639-.055-1.25m-13.165 4.5H5a.75.75 0 0 1-.75-.75v-3a.75.75 0 0 1 .75-.75h.31q-.06.652-.06 1.333c0 1.103.117 2.174.363 3.167"/></svg>