<svg xmlns="http://www.w3.org/2000/svg" width="24" height="24" fill="none"><path fill="#111" d="M13 14a1 1 0 1 1-2 0 1 1 0 0 1 2 0m-.948-5.93c-.421.043-.854.2-1.105.324l-.894-1.788a5.5 5.5 0 0 1 1.795-.526c.69-.07 1.647 0 2.36.713.447.447.643.992.628 1.546-.014.512-.206.966-.405 1.315-.366.643-.92 1.193-1.176 1.447l-.048.048a1.5 1.5 0 0 0-.203.232 1 1 0 0 0-.007.132v.202l.001.023L13 12h-2c0-.06 0-.135-.002-.212 0-.11-.002-.223 0-.3.001-.166.011-.37.064-.587.118-.485.399-.834.73-1.166l.023-.023c.272-.272.652-.651.879-1.05.114-.199.14-.323.142-.378v-.005c.002-.012.003-.025-.043-.072-.088-.088-.298-.183-.74-.137m.945 3.324.005-.01z"/><path fill="#111" d="M3 3h18v15h-6.723L8 21.766V18H3zm2 2v11h5v2.234L13.723 16H19V5z"/></svg>