<svg xmlns="http://www.w3.org/2000/svg" width="24" height="24" fill="none"><path fill="#111" d="M14.25 5.5c0 .526-.18 1.01-.483 1.393.601.504.983 1.261.983 2.107v1.75h-5.5V9c0-.846.382-1.603.983-2.107A2.25 2.25 0 1 1 14.25 5.5M12 4.75a.75.75 0 1 0 0 1.5.75.75 0 0 0 0-1.5M10.75 9v.25h2.5V9a1.25 1.25 0 1 0-2.5 0m10.017 6.893a2.25 2.25 0 1 0-3.534 0A2.74 2.74 0 0 0 16.25 18v1.75h5.5V18c0-.846-.382-1.603-.983-2.107M19 13.75a.75.75 0 1 1 0 1.5.75.75 0 0 1 0-1.5m0 3c.69 0 1.25.56 1.25 1.25v.25h-2.5V18c0-.69.56-1.25 1.25-1.25M7.25 14.5c0 .526-.18 1.01-.483 1.393.601.504.983 1.261.983 2.107v1.75h-5.5V18c0-.846.382-1.603.983-2.107A2.25 2.25 0 1 1 7.25 14.5m-3 0a.75.75 0 1 0 1.5 0 .75.75 0 0 0-1.5 0m-.5 3.5v.25h2.5V18a1.25 1.25 0 1 0-2.5 0m5.57.096a.75.75 0 1 0-.64 1.356 7.7 7.7 0 0 0 3.31.74 7.7 7.7 0 0 0 3.312-.74.75.75 0 1 0-.642-1.356 6.2 6.2 0 0 1-2.67.597 6.2 6.2 0 0 1-2.67-.597M8.697 6.723a.75.75 0 0 1-.42.974c-1.451.576-2.446 1.867-2.528 3.344a.75.75 0 1 1-1.498-.082C4.37 8.835 5.79 7.07 7.723 6.303a.75.75 0 0 1 .974.42m7.026.974a.75.75 0 1 1 .554-1.394c1.934.768 3.354 2.532 3.472 4.656a.75.75 0 1 1-1.498.082c-.082-1.477-1.077-2.768-2.528-3.344"/></svg>