<svg xmlns="http://www.w3.org/2000/svg" width="24" height="24" fill="none"><path fill="#291D18" d="M8.886 12.8a.77.77 0 0 1 .214 1.52l-.103.015-2.048.148a.77.77 0 0 1-.215-1.52l.104-.014zm5.238.147a.77.77 0 0 1-.004 1.535h-.105l-2.048-.145a.77.77 0 0 1 .004-1.535h.105zm-2.475 4.207c.342-.229.859-.2 1.154.067.294.265.256.666-.087.895-1.764 1.179-3.674 1.179-5.432-.001-.342-.23-.38-.63-.084-.895.296-.266.812-.295 1.154-.065 1.144.767 2.144.767 3.295-.001"/><path fill="#291D18" d="m9.546 2.01.328-.007c5.175-.11 7.953 2.506 8.119 7.58q1.81.75 3.617 1.858c.37.227.5.735.291 1.136s-.678.541-1.048.315a25 25 0 0 0-2.894-1.531c-.281 5.086-1.753 8.42-4.554 9.948q-1.381.595-2.723.67c-2.015.112-3.885-.224-5.086-1.186-2.317-1.859-3.476-5.155-3.537-9.785l-.02-.276a.9.9 0 0 1-.024-.42c-.232-5.398 2.299-8.267 7.38-8.297h.145zm6.865 6.984c-.315-3.79-2.415-5.534-6.482-5.453v.02l-.266-.006C5.644 3.49 3.664 5.3 3.553 9.27c4.276-1.597 8.569-1.687 12.858-.276M3.607 11.019c.07 4.223 1.077 7.065 2.962 8.577.83.665 2.36.94 4.027.848a6.4 6.4 0 0 0 2.128-.515c2.26-1.236 3.529-4.266 3.714-9.178-4.293-1.531-8.562-1.44-12.831.268"/></svg>