<svg xmlns="http://www.w3.org/2000/svg" width="24" height="24" fill="none"><path fill="#291D18" d="M9.587 14a2.493 2.493 0 0 1-2.485-2.5c0-1.38 1.112-2.5 2.485-2.5 1.112 0 2.054.736 2.37 1.75h.228A2.49 2.49 0 0 1 14.557 9a2.493 2.493 0 0 1 2.485 2.5c0 1.38-1.113 2.5-2.485 2.5a2.49 2.49 0 0 1-2.372-1.75h-.227A2.49 2.49 0 0 1 9.587 14m0-1.5a.997.997 0 0 0 .994-1c0-.552-.445-1-.994-1a.997.997 0 0 0-.994 1c0 .552.445 1 .994 1m5.964-1c0-.552-.445-1-.994-1a.997.997 0 0 0-.994 1c0 .552.445 1 .994 1a.997.997 0 0 0 .994-1M9.97 16.357a.743.743 0 0 0-1.023.257.753.753 0 0 0 .256 1.03 5.55 5.55 0 0 0 5.737 0 .753.753 0 0 0 .256-1.03.743.743 0 0 0-1.023-.257c-1.293.78-2.91.78-4.203 0"/><path fill="#291D18" d="M5.326 5.281c-.5.937-.732 2.017-.846 3.14-.112 1.115-.112 2.33-.112 3.555V12c0 2.6.649 5.017 1.945 6.806 1.312 1.81 3.27 2.944 5.759 2.944 2.718 0 4.692-1.119 5.956-2.96 1.237-1.8 1.747-4.222 1.747-6.79v-.024c0-1.225 0-2.44-.112-3.555-.114-1.123-.346-2.203-.846-3.14-1.052-1.97-3.125-3.031-6.745-3.031S6.379 3.31 5.326 5.281M5.86 12c0-.994 0-1.92.053-2.776a.7.7 0 0 0 .195.026c2.398 0 4.5-1.38 5.544-3.413A5.28 5.28 0 0 0 16.08 8.25h1.957a1 1 0 0 0 .106-.007q.02.162.037.33c.105 1.031.105 2.175.105 3.427 0 2.402-.483 4.481-1.483 5.938-.972 1.416-2.477 2.312-4.73 2.312-1.983 0-3.505-.88-4.553-2.328-1.066-1.469-1.66-3.552-1.66-5.922m11.964-5.25H16.08a3.8 3.8 0 0 1-3.706-2.997c3.122.056 4.464.99 5.13 2.238q.187.35.32.76M6.64 5.991c.591-1.107 1.714-1.967 4.14-2.187-.406 2.258-2.366 3.946-4.673 3.946h-.032c.119-.674.299-1.26.565-1.759"/></svg>