<svg xmlns="http://www.w3.org/2000/svg" width="24" height="24" fill="none"><path fill="#291D18" d="M18.2 2.65a2 2 0 0 0-2.4 0l-3 2.25a2 2 0 0 0-.8 1.6V10a2 2 0 0 0 2 2h6a2 2 0 0 0 2-2V6.5a2 2 0 0 0-.8-1.6zM14 6.5l3-2.25 3 2.25V10h-6zm-8.2 6.15-3 2.25a2 2 0 0 0-.8 1.6V20a2 2 0 0 0 2 2h6a2 2 0 0 0 2-2v-3.5a2 2 0 0 0-.8-1.6l-3-2.25a2 2 0 0 0-2.4 0M4 16.5l3-2.25 3 2.25V20H4zm17-2.3a.8.8 0 0 1 .8.8v2a2.8 2.8 0 0 1-2.8 2.8h-1v1.4a.4.4 0 0 1-.64.32l-2.933-2.2a.4.4 0 0 1 0-.64l2.933-2.2a.4.4 0 0 1 .64.32v1.4h1a1.2 1.2 0 0 0 1.2-1.2v-2a.8.8 0 0 1 .8-.8M3 9.8a.8.8 0 0 1-.8-.8V7A2.8 2.8 0 0 1 5 4.2h1V2.8a.4.4 0 0 1 .64-.32l2.933 2.2a.4.4 0 0 1 0 .64L6.64 7.52A.4.4 0 0 1 6 7.2V5.8H5A1.2 1.2 0 0 0 3.8 7v2a.8.8 0 0 1-.8.8"/></svg>