<svg xmlns="http://www.w3.org/2000/svg" width="24" height="24" fill="none"><path fill="#291D18" d="M11.997 4a3 3 0 1 0 0 6 3 3 0 0 0 0-6m-5 3a5 5 0 1 1 10 0 5 5 0 0 1-10 0m7.686 7.092c-.18.261-.283.576-.283.908v1.077A37 37 0 0 0 12 16c-2.43 0-4.135.237-4.358.27l-.073.01h-.004a1.51 1.51 0 0 0-1.292 1.32l-.004.032c-.014.106-.136 1.05-.21 2.368h8.63a6.2 6.2 0 0 0 1.041 2H6.044a1.98 1.98 0 0 1-1.984-2.085c.079-1.397.208-2.405.226-2.544l.003-.022a3.506 3.506 0 0 1 3.01-3.051l.054-.008C7.641 14.248 9.446 14 12 14c1.034 0 1.945.04 2.683.092M16 15v3c0 4 4 5 4 5s4-1 4-5v-3l-4-1.5z"/></svg>