<svg xmlns="http://www.w3.org/2000/svg" width="24" height="24" fill="none"><path fill="#291D18" d="M12 2a1 1 0 0 1 .747.336l1.753 1.97 2.576-.564a1 1 0 0 1 1.21.879l.258 2.624 2.416 1.058a1 1 0 0 1 .462 1.421L20.09 12l1.333 2.276a1 1 0 0 1-.462 1.421l-2.416 1.058-.259 2.624a1 1 0 0 1-1.21.879l-2.575-.565-1.753 1.971a1 1 0 0 1-1.494 0L9.5 19.694l-2.576.564a1 1 0 0 1-1.21-.879l-.258-2.624-2.416-1.058a1 1 0 0 1-.462-1.421L3.91 12 2.578 9.724a1 1 0 0 1 .462-1.421l2.416-1.058.259-2.624a1 1 0 0 1 1.21-.879l2.575.565 1.753-1.971A1 1 0 0 1 12 2m3.707 6.293a1 1 0 0 0-1.414 0l-6 6a1 1 0 1 0 1.414 1.414l6-6a1 1 0 0 0 0-1.414M11 9.5a1.5 1.5 0 1 0-3 0 1.5 1.5 0 0 0 3 0m3.5 6.5a1.5 1.5 0 1 0 0-3 1.5 1.5 0 0 0 0 3"/></svg>