<svg xmlns="http://www.w3.org/2000/svg" width="24" height="24" fill="none"><path fill="#291D18" d="M10.658 3.553a3 3 0 0 1 2.684 0l7.105 3.553a1 1 0 0 1 0 1.789l-7.105 3.553a3 3 0 0 1-2.684 0L3.553 8.895a1 1 0 0 1 0-1.79zm1.79 1.789a1 1 0 0 0-.895 0L6.236 8l5.317 2.659a1 1 0 0 0 .894 0L17.764 8z"/><path fill="#291D18" d="M3.106 11.554a1 1 0 0 1 1.341-.448l7.106 3.553a1 1 0 0 0 .894 0l7.106-3.553a1 1 0 1 1 .894 1.79l-7.105 3.552a3 3 0 0 1-2.684 0l-7.105-3.553a1 1 0 0 1-.447-1.341"/><path fill="#291D18" d="M4.447 15.106a1 1 0 1 0-.894 1.79l7.105 3.552a3 3 0 0 0 2.684 0l7.105-3.553a1 1 0 1 0-.894-1.789l-7.106 3.553a1 1 0 0 1-.894 0z"/></svg>