<svg xmlns="http://www.w3.org/2000/svg" width="24" height="24" fill="none"><path fill="#291D18" d="m11.684 5.051-8.999 3c-.912.304-.912 1.594 0 1.898l3.298 1.1v4.92l.01.139a1 1 0 0 0 .218.497C7.53 18.207 9.487 19 11.997 19c2.512 0 4.463-.794 5.764-2.401a1 1 0 0 0 .222-.63v-4.91l1.517-.505v2.93a2.25 2.25 0 0 0-1.25 2.016c0 1.379.974 3.25 2.25 3.25s2.25-1.871 2.25-3.25a2.25 2.25 0 0 0-1.25-2.016V9.868c.723-.406.661-1.535-.184-1.817l-9-3a1 1 0 0 0-.633 0m4.3 6.675-.001 3.865-.074.08c-.888.88-2.17 1.329-3.911 1.329l-.303-.005c-1.59-.05-2.785-.496-3.636-1.33l-.075-.078v-3.872l3.7 1.234a1 1 0 0 0 .633 0zM12 7.054 17.838 9 12 10.945 6.162 9zm8.5 7.696a.75.75 0 0 1 .75.75c0 .66-.568 1.75-.75 1.75s-.75-1.09-.75-1.75a.75.75 0 0 1 .75-.75"/></svg>