<svg xmlns="http://www.w3.org/2000/svg" width="24" height="24" fill="none"><path fill="#291D18" d="M3.18 5h17.64c.652 0 1.18.533 1.18 1.19v4.564h-.77a1.747 1.747 0 1 0 0 3.491H22v4.565c0 .657-.528 1.19-1.18 1.19H3.18C2.527 20 2 19.467 2 18.81v-4.564h.769a1.812 1.812 0 1 0 0-3.621h-.77V6.19C2 5.533 2.529 5 3.18 5M17 18.448h3.461v-2.743l-.133-.033a3.3 3.3 0 0 1-2.379-2.985l-.005-.187a3.3 3.3 0 0 1 2.384-3.172l.133-.034V6.552h-3.46v4.64c0 .446-.449.808-1.001.808-.506 0-.925-.304-.991-.698l-.01-.11v-4.64H3.54v2.61l.15.04a3.36 3.36 0 0 1 2.426 3.042l.005.191A3.36 3.36 0 0 1 3.69 15.67l-.15.038v2.741H15v-3.63c0-.453.449-.819 1-.819.506 0 .925.308.991.707l.01.111z"/></svg>