<svg xmlns="http://www.w3.org/2000/svg" width="24" height="24" fill="none"><path fill="#291D18" d="M15 4a5 5 0 0 0-4.559 7.058 1 1 0 0 1-.204 1.119l-5.909 5.909a1.121 1.121 0 0 0 1.586 1.586l5.91-5.91a1 1 0 0 1 1.118-.203 5 5 0 0 0 7.027-5.114l-2.262 2.262A1 1 0 0 1 17 11h-1a3 3 0 0 1-3-3V7a1 1 0 0 1 .293-.707l2.262-2.263A5 5 0 0 0 15 4M8 9a7 7 0 0 1 9.882-6.38 1 1 0 0 1 .295 1.617L15 7.414V8a1 1 0 0 0 1 1h.586l3.177-3.177a1 1 0 0 1 1.618.295 7 7 0 0 1-8.606 9.52l-5.447 5.448a3.122 3.122 0 0 1-4.414-4.414l5.447-5.447A7 7 0 0 1 8 9"/></svg>