<svg xmlns="http://www.w3.org/2000/svg" width="24" height="24" fill="none"><path fill="#291D18" d="M7.997 11a4 4 0 1 1 8 0 4 4 0 0 1-8 0m4-2a2 2 0 1 0 0 4 2 2 0 0 0 0-4"/><path fill="#291D18" d="M1.997 12c0-5.523 4.477-10 10-10s10 4.477 10 10-4.477 10-10 10-10-4.477-10-10m10-8a8 8 0 0 0-5.515 13.795c.401-.802 1.137-1.416 2.087-1.554l.02-.003c.2-.033 1.526-.238 3.408-.238s3.209.205 3.409.238l.019.003c.95.138 1.686.752 2.087 1.554A8 8 0 0 0 11.997 4m3.835 15.022c-.082-.493-.41-.76-.695-.802l-.054-.008c-.128-.021-1.342-.212-3.086-.212s-2.958.19-3.086.212l-.054.008c-.284.041-.613.31-.695.802a7.96 7.96 0 0 0 3.835.978c1.39 0 2.697-.354 3.835-.978"/></svg>