<?xml version="1.0" encoding="UTF-8"?>
<svg width="100px" height="88px" viewBox="0 0 100 88" version="1.1" xmlns="http://www.w3.org/2000/svg" xmlns:xlink="http://www.w3.org/1999/xlink">
    <!-- Generator: Sketch 60 (88103) - https://sketch.com -->
    <title>Illustration / Flow / Mobile / Existing Fixd Line</title>
    <desc>Created with Sketch.</desc>
    <g id="Illustration-/-Flow-/-Mobile-/-Existing-Fixd-Line" stroke="none" stroke-width="1" fill="none" fill-rule="evenodd">
        <g id="Illustration-/-Flow-/-Mobile-/-Switch-vatse-lijn">
            <g id="Group-2-Copy-2" transform="translate(17.848000, 8.592000)" fill-rule="nonzero">
                <path d="M64.984,75.408 C65.8057997,75.408 66.472,76.0742003 66.472,76.896 C66.472,77.7177997 65.8057997,78.384 64.984,78.384 C64.1622003,78.384 63.496,77.7177997 63.496,76.896 C63.496,76.0742003 64.1622003,75.408 64.984,75.408 Z M17.6928424,12.5860351 C17.9689848,12.5860351 18.1928424,12.8098927 18.1928424,13.0860351 C18.1928424,13.3621775 17.9689848,13.5860351 17.6928424,13.5860351 C15.4618019,13.5860351 13.6394323,15.3495719 13.5283937,17.6160965 L13.5230372,17.8300183 L10.4838,45.9177544 C10.4838,48.1623755 12.2385623,49.9939312 14.4427862,50.1028734 L14.6507091,50.108 L18.1508909,50.108 C18.4270333,50.108 18.6508909,50.3318576 18.6508909,50.608 C18.6508909,50.8534599 18.4740157,51.0576084 18.2407665,51.0999443 L18.1508909,51.108 L14.6507091,51.108 C11.8697279,51.108 9.60275823,48.9013583 9.49101077,46.0874036 L9.48669612,45.8640167 L12.5259333,17.7762807 C12.5259333,14.910344 14.8386775,12.5860351 17.6928424,12.5860351 Z M44.5479015,7.46940351 C44.5858893,7.46940351 44.6228877,7.47363989 44.6584499,7.48166598 C46.3597772,7.61984643 47.7968831,8.90518884 48.2103846,10.6820831 L48.2103846,10.6820831 L48.5449877,12.1199361 C48.5856269,12.2945707 48.5293483,12.4691269 48.4112515,12.5872144 L53.6107576,12.5860351 C56.3917388,12.5860351 58.6587084,14.7926768 58.7704559,17.5072133 L58.7747705,17.7225431 L61.8198,45.9177544 C61.8198,48.7102056 59.6241376,50.9884486 56.8713443,51.1034456 L56.6528909,51.108 L22.8178,51.108 C22.5416576,51.108 22.3178,50.8841424 22.3178,50.608 C22.3178,50.3625401 22.4946752,50.1583916 22.7279244,50.1160557 L22.8178,50.108 L56.6528909,50.108 C58.8839314,50.108 60.706301,48.3444631 60.8173397,46.1759364 L60.8226961,45.971492 L57.7776667,17.7762807 C57.7776667,15.5316596 56.0229044,13.7001039 53.8186805,13.5911617 L53.6107576,13.5860351 L20.7349758,13.5860351 C20.4588334,13.5860351 20.2349758,13.3621775 20.2349758,13.0860351 C20.2349758,12.8405752 20.4118509,12.6364267 20.6451001,12.5940908 L20.7349758,12.5860351 L22.4645485,12.5872144 C22.3464517,12.4691269 22.2901731,12.2945707 22.3308123,12.1199361 L22.3308123,12.1199361 L22.6654154,10.6820831 C23.1033931,8.80001007 24.689741,7.46940351 26.5215655,7.46940351 C26.7977079,7.46940351 27.0215655,7.69326113 27.0215655,7.96940351 C27.0215655,8.24554588 26.7977079,8.46940351 26.5215655,8.46940351 C25.1662302,8.46940351 23.9744129,9.46908324 23.6393908,10.9087371 L23.6393908,10.9087371 L23.3047877,12.3465902 C23.2827295,12.4413784 23.2350621,12.5235395 23.1708028,12.5874606 L32.0151432,12.5874606 C31.9508839,12.5235395 31.9032165,12.4413784 31.8811583,12.3465902 L31.8811583,12.3465902 L31.5465552,10.9087371 C31.211533,9.46908324 30.0197158,8.46940351 28.6643805,8.46940351 C28.3882381,8.46940351 28.1643805,8.24554588 28.1643805,7.96940351 C28.1643805,7.69326113 28.3882381,7.46940351 28.6643805,7.46940351 C30.496205,7.46940351 32.0825529,8.80001007 32.5205305,10.6820831 L32.5205305,10.6820831 L32.8551336,12.1199361 C32.8957729,12.2945707 32.8394942,12.4691269 32.7213974,12.5872144 L37.472235,12.5872144 C37.3541382,12.4691269 37.2978596,12.2945707 37.3384988,12.1199361 L37.3384988,12.1199361 L37.6731019,10.6820831 C38.1110796,8.80001007 39.6974275,7.46940351 41.529252,7.46940351 L41.529252,7.46940351 Z M35.4379,15.9971228 C39.0279235,15.9971228 42.4281563,17.2375281 45.1408706,19.4677777 C45.3541779,19.6431476 45.3849322,19.9582327 45.2095623,20.17154 C45.0341924,20.3848473 44.7191073,20.4156016 44.5058,20.2402317 C41.9704857,18.155831 38.7942031,16.9971228 35.4379,16.9971228 C27.5624466,16.9971228 21.1788,23.3596692 21.1788,31.2074386 C21.1788,39.055208 27.5624466,45.4177544 35.4379,45.4177544 C43.3133534,45.4177544 49.697,39.055208 49.697,31.2074386 C49.697,30.9312962 49.9208576,30.7074386 50.197,30.7074386 C50.4731424,30.7074386 50.697,30.9312962 50.697,31.2074386 C50.697,39.6082353 43.8648983,46.4177544 35.4379,46.4177544 C27.0109017,46.4177544 20.1788,39.6082353 20.1788,31.2074386 C20.1788,22.8066419 27.0109017,15.9971228 35.4379,15.9971228 Z M61.7043879,1.5 C65.419357,1.5 68.4269333,4.56690618 68.4229902,8.28262625 L68.4229902,8.28262625 L69.948,20.3850896 C69.948,24.1634798 66.9404237,27.230386 63.2254545,27.230386 C62.9493122,27.230386 62.7254545,27.0065283 62.7254545,26.730386 C62.7254545,26.4542436 62.9493122,26.230386 63.2254545,26.230386 C66.3837193,26.230386 68.948,23.6155202 68.9519431,20.4477597 L68.9519431,20.4477597 L67.4269333,8.3452964 C67.4269333,5.11486575 64.8626526,2.5 61.7043879,2.5 L61.7043879,2.5 L9.50414545,2.5 C6.34588069,2.5 3.7816,5.11486575 3.77285677,8.43839197 L3.77285677,8.43839197 L1.5,20.3850896 C1.5,23.6155202 4.06428069,26.230386 7.22254545,26.230386 L7.22254545,26.230386 L10.0289511,26.230386 C10.3050934,26.230386 10.5289511,26.4542436 10.5289511,26.730386 C10.5289511,27.0065283 10.3050934,27.230386 10.0289511,27.230386 L10.0289511,27.230386 L7.22254545,27.230386 C3.5075763,27.230386 0.5,24.1634798 0.508724215,20.291994 L0.508724215,20.291994 L2.7816,8.3452964 C2.7816,4.56690618 5.7891763,1.5 9.50414545,1.5 L9.50414545,1.5 Z M44.3542345,8.46940351 L41.529252,8.46940351 C40.1739167,8.46940351 38.9820994,9.46908324 38.6470773,10.9087371 L38.6470773,10.9087371 L38.3124742,12.3465902 C38.290416,12.4413784 38.2427485,12.5235395 38.1784892,12.5874606 L47.7049972,12.5874606 C47.6407379,12.5235395 47.5930705,12.4413784 47.5710123,12.3465902 L47.5710123,12.3465902 L47.2364092,10.9087371 C46.9013871,9.46908324 45.7095698,8.46940351 44.3542345,8.46940351 L44.3542345,8.46940351 Z" id="Combined-Shape" fill="#C5C6C6"></path>
                <path d="M35.5591835,18.8351942 C42.3401346,18.8351942 47.8375835,24.314472 47.8375835,31.0740013 C47.8375835,37.8335305 42.3401346,43.3128083 35.5591835,43.3128083 C28.7782324,43.3128083 23.2807835,37.8335305 23.2807835,31.0740013 C23.2807835,24.314472 28.7782324,18.8351942 35.5591835,18.8351942 Z M35.5591835,19.4351942 C29.1091593,19.4351942 23.8807835,24.6462884 23.8807835,31.0740013 C23.8807835,37.5017141 29.1091593,42.7128083 35.5591835,42.7128083 C42.0092077,42.7128083 47.2375835,37.5017141 47.2375835,31.0740013 C47.2375835,24.6462884 42.0092077,19.4351942 35.5591835,19.4351942 Z M40.545803,25.8407274 C40.6558046,25.8984696 40.7038193,26.0163266 40.6686277,26.122292 L40.6439998,26.1739503 L34.6531505,35.6060231 C34.576275,35.7270569 34.408145,35.7612437 34.283937,35.6940497 L34.2261189,35.6519369 L29.8416671,31.450677 C29.7396712,31.3529428 29.7441396,31.1985464 29.8516475,31.1058231 C29.9412374,31.0285537 30.074111,31.0184964 30.1749389,31.0738495 L30.2309876,31.1148962 L34.3681036,35.0791545 L40.1792571,25.929997 C40.2533597,25.8133289 40.4174679,25.7733616 40.545803,25.8407274 Z M79.864,0.016 C80.6857997,0.016 81.352,0.682200292 81.352,1.504 C81.352,2.32579971 80.6857997,2.992 79.864,2.992 C79.0422003,2.992 78.376,2.32579971 78.376,1.504 C78.376,0.682200292 79.0422003,0.016 79.864,0.016 Z" id="Combined-Shape" fill="#239A98"></path>
            </g>
            <circle id="Combined-Shape" fill="#F2F2F2" cx="6.448" cy="7.12" r="6.448"></circle>
            <circle id="Oval-Copy-3" fill="#239A98" cx="20.336" cy="57.712" r="1.488"></circle>
        </g>
    </g>
</svg>