<?xml version="1.0" encoding="UTF-8"?>
<svg width="125px" height="129px" viewBox="0 0 125 129" version="1.1" xmlns="http://www.w3.org/2000/svg" xmlns:xlink="http://www.w3.org/1999/xlink">
    <!-- Generator: Sketch 60 (88103) - https://sketch.com -->
    <title>Illustration / Flow / Mobile / Switch Fixed line</title>
    <desc>Created with Sketch.</desc>
    <g id="Illustration-/-Flow-/-Mobile-/-Switch-Fixed-line" stroke="none" stroke-width="1" fill="none" fill-rule="evenodd">
        <g id="Illustration-/-Flow-/-Mobile-/-Switch-vatse-lijn">
            <g id="Group-2-Copy" transform="translate(67.448000, 13.888000)"></g>
            <g id="Group-2-Copy-2" transform="translate(17.848000, 0.592000)" fill-rule="nonzero">
                <path d="M64.984,124.408 C65.8057997,124.408 66.472,125.0742 66.472,125.896 C66.472,126.7178 65.8057997,127.384 64.984,127.384 C64.1622003,127.384 63.496,126.7178 63.496,125.896 C63.496,125.0742 64.1622003,124.408 64.984,124.408 Z M17.6928424,61.5860351 C17.9689848,61.5860351 18.1928424,61.8098927 18.1928424,62.0860351 C18.1928424,62.3621775 17.9689848,62.5860351 17.6928424,62.5860351 C15.4618019,62.5860351 13.6394323,64.3495719 13.5283937,66.6160965 L13.5230372,66.8300183 L10.4838,94.9177544 C10.4838,97.1623755 12.2385623,98.9939312 14.4427862,99.1028734 L14.6507091,99.108 L18.1508909,99.108 C18.4270333,99.108 18.6508909,99.3318576 18.6508909,99.608 C18.6508909,99.8534599 18.4740157,100.057608 18.2407665,100.099944 L18.1508909,100.108 L14.6507091,100.108 C11.8697279,100.108 9.60275823,97.9013583 9.49101077,95.0874036 L9.48669612,94.8640167 L12.5259333,66.7762807 C12.5259333,63.910344 14.8386775,61.5860351 17.6928424,61.5860351 Z M44.5479015,56.4694035 C44.5858893,56.4694035 44.6228877,56.4736399 44.6584499,56.481666 C46.3597772,56.6198464 47.7968831,57.9051888 48.2103846,59.6820831 L48.2103846,59.6820831 L48.5449877,61.1199361 C48.5856269,61.2945707 48.5293483,61.4691269 48.4112515,61.5872144 L53.6107576,61.5860351 C56.3917388,61.5860351 58.6587084,63.7926768 58.7704559,66.5072133 L58.7747705,66.7225431 L61.8198,94.9177544 C61.8198,97.7102056 59.6241376,99.9884486 56.8713443,100.103446 L56.6528909,100.108 L22.8178,100.108 C22.5416576,100.108 22.3178,99.8841424 22.3178,99.608 C22.3178,99.3625401 22.4946752,99.1583916 22.7279244,99.1160557 L22.8178,99.108 L56.6528909,99.108 C58.8839314,99.108 60.706301,97.3444631 60.8173397,95.1759364 L60.8226961,94.971492 L57.7776667,66.7762807 C57.7776667,64.5316596 56.0229044,62.7001039 53.8186805,62.5911617 L53.6107576,62.5860351 L20.7349758,62.5860351 C20.4588334,62.5860351 20.2349758,62.3621775 20.2349758,62.0860351 C20.2349758,61.8405752 20.4118509,61.6364267 20.6451001,61.5940908 L20.7349758,61.5860351 L22.4645485,61.5872144 C22.3464517,61.4691269 22.2901731,61.2945707 22.3308123,61.1199361 L22.3308123,61.1199361 L22.6654154,59.6820831 C23.1033931,57.8000101 24.689741,56.4694035 26.5215655,56.4694035 C26.7977079,56.4694035 27.0215655,56.6932611 27.0215655,56.9694035 C27.0215655,57.2455459 26.7977079,57.4694035 26.5215655,57.4694035 C25.1662302,57.4694035 23.9744129,58.4690832 23.6393908,59.9087371 L23.6393908,59.9087371 L23.3047877,61.3465902 C23.2827295,61.4413784 23.2350621,61.5235395 23.1708028,61.5874606 L32.0151432,61.5874606 C31.9508839,61.5235395 31.9032165,61.4413784 31.8811583,61.3465902 L31.8811583,61.3465902 L31.5465552,59.9087371 C31.211533,58.4690832 30.0197158,57.4694035 28.6643805,57.4694035 C28.3882381,57.4694035 28.1643805,57.2455459 28.1643805,56.9694035 C28.1643805,56.6932611 28.3882381,56.4694035 28.6643805,56.4694035 C30.496205,56.4694035 32.0825529,57.8000101 32.5205305,59.6820831 L32.5205305,59.6820831 L32.8551336,61.1199361 C32.8957729,61.2945707 32.8394942,61.4691269 32.7213974,61.5872144 L37.472235,61.5872144 C37.3541382,61.4691269 37.2978596,61.2945707 37.3384988,61.1199361 L37.3384988,61.1199361 L37.6731019,59.6820831 C38.1110796,57.8000101 39.6974275,56.4694035 41.529252,56.4694035 L41.529252,56.4694035 Z M35.4379,64.9971228 C39.0279235,64.9971228 42.4281563,66.2375281 45.1408706,68.4677777 C45.3541779,68.6431476 45.3849322,68.9582327 45.2095623,69.17154 C45.0341924,69.3848473 44.7191073,69.4156016 44.5058,69.2402317 C41.9704857,67.155831 38.7942031,65.9971228 35.4379,65.9971228 C27.5624466,65.9971228 21.1788,72.3596692 21.1788,80.2074386 C21.1788,88.055208 27.5624466,94.4177544 35.4379,94.4177544 C43.3133534,94.4177544 49.697,88.055208 49.697,80.2074386 C49.697,79.9312962 49.9208576,79.7074386 50.197,79.7074386 C50.4731424,79.7074386 50.697,79.9312962 50.697,80.2074386 C50.697,88.6082353 43.8648983,95.4177544 35.4379,95.4177544 C27.0109017,95.4177544 20.1788,88.6082353 20.1788,80.2074386 C20.1788,71.8066419 27.0109017,64.9971228 35.4379,64.9971228 Z M61.7043879,50.5 C65.419357,50.5 68.4269333,53.5669062 68.4229902,57.2826263 L68.4229902,57.2826263 L69.948,69.3850896 C69.948,73.1634798 66.9404237,76.230386 63.2254545,76.230386 C62.9493122,76.230386 62.7254545,76.0065283 62.7254545,75.730386 C62.7254545,75.4542436 62.9493122,75.230386 63.2254545,75.230386 C66.3837193,75.230386 68.948,72.6155202 68.9519431,69.4477597 L68.9519431,69.4477597 L67.4269333,57.3452964 C67.4269333,54.1148658 64.8626526,51.5 61.7043879,51.5 L61.7043879,51.5 L9.50414545,51.5 C6.34588069,51.5 3.7816,54.1148658 3.77285677,57.438392 L3.77285677,57.438392 L1.5,69.3850896 C1.5,72.6155202 4.06428069,75.230386 7.22254545,75.230386 L7.22254545,75.230386 L10.0289511,75.230386 C10.3050934,75.230386 10.5289511,75.4542436 10.5289511,75.730386 C10.5289511,76.0065283 10.3050934,76.230386 10.0289511,76.230386 L10.0289511,76.230386 L7.22254545,76.230386 C3.5075763,76.230386 0.5,73.1634798 0.508724215,69.291994 L0.508724215,69.291994 L2.7816,57.3452964 C2.7816,53.5669062 5.7891763,50.5 9.50414545,50.5 L9.50414545,50.5 Z M44.3542345,57.4694035 L41.529252,57.4694035 C40.1739167,57.4694035 38.9820994,58.4690832 38.6470773,59.9087371 L38.6470773,59.9087371 L38.3124742,61.3465902 C38.290416,61.4413784 38.2427485,61.5235395 38.1784892,61.5874606 L47.7049972,61.5874606 C47.6407379,61.5235395 47.5930705,61.4413784 47.5710123,61.3465902 L47.5710123,61.3465902 L47.2364092,59.9087371 C46.9013871,58.4690832 45.7095698,57.4694035 44.3542345,57.4694035 L44.3542345,57.4694035 Z M104.664,25.208 C105.4858,25.208 106.152,25.8742003 106.152,26.696 C106.152,27.5177997 105.4858,28.184 104.664,28.184 C103.8422,28.184 103.176,27.5177997 103.176,26.696 C103.176,25.8742003 103.8422,25.208 104.664,25.208 Z" id="Combined-Shape" fill="#C5C6C6"></path>
                <path d="M35.5591835,67.8351942 C42.3401346,67.8351942 47.8375835,73.314472 47.8375835,80.0740013 C47.8375835,86.8335305 42.3401346,92.3128083 35.5591835,92.3128083 C28.7782324,92.3128083 23.2807835,86.8335305 23.2807835,80.0740013 C23.2807835,73.314472 28.7782324,67.8351942 35.5591835,67.8351942 Z M35.5591835,68.4351942 C29.1091593,68.4351942 23.8807835,73.6462884 23.8807835,80.0740013 C23.8807835,86.5017141 29.1091593,91.7128083 35.5591835,91.7128083 C42.0092077,91.7128083 47.2375835,86.5017141 47.2375835,80.0740013 C47.2375835,73.6462884 42.0092077,68.4351942 35.5591835,68.4351942 Z M89.1695184,44.9647195 C89.5800654,47.3951328 89.788,49.8695156 89.788,52.3701414 C89.788,65.862278 83.6961361,78.3466038 73.4084988,86.6593979 L72.9774242,87.0033418 L67.923,90.324 L75.1766272,89.823067 L75.245559,90.8206883 L65.2018374,91.5146705 L69.8243431,82.5709355 L70.7127051,83.0300791 L67.374,89.489 L72.3933618,86.1927728 C82.5237768,78.2095976 88.6147953,66.0874389 88.7843636,52.9344624 L88.788,52.3701414 C88.788,50.1970243 88.6274053,48.0445198 88.3098998,45.92467 L88.1834872,45.1312805 L89.1695184,44.9647195 Z M40.545803,74.8407274 C40.6558046,74.8984696 40.7038193,75.0163266 40.6686277,75.122292 L40.6439998,75.1739503 L34.6531505,84.6060231 C34.576275,84.7270569 34.408145,84.7612437 34.283937,84.6940497 L34.2261189,84.6519369 L29.8416671,80.450677 C29.7396712,80.3529428 29.7441396,80.1985464 29.8516475,80.1058231 C29.9412374,80.0285537 30.074111,80.0184964 30.1749389,80.0738495 L30.2309876,80.1148962 L34.3681036,84.0791545 L40.1792571,74.929997 C40.2533597,74.8133289 40.4174679,74.7733616 40.545803,74.8407274 Z M79.864,49.016 C80.6857997,49.016 81.352,49.6822003 81.352,50.504 C81.352,51.3257997 80.6857997,51.992 79.864,51.992 C79.0422003,51.992 78.376,51.3257997 78.376,50.504 C78.376,49.6822003 79.0422003,49.016 79.864,49.016 Z M51.096,0.408 C53.0135327,0.408 54.568,1.96246735 54.568,3.88 C54.568,5.79753265 53.0135327,7.352 51.096,7.352 C49.1784673,7.352 47.624,5.79753265 47.624,3.88 C47.624,1.96246735 49.1784673,0.408 51.096,0.408 Z" id="Combined-Shape" fill="#239A98"></path>
            </g>
            <path d="M95.232,106.152 C101.258531,106.152 106.144,111.037469 106.144,117.064 C106.144,123.090531 101.258531,127.976 95.232,127.976 C89.2054688,127.976 84.32,123.090531 84.32,117.064 C84.32,111.037469 89.2054688,106.152 95.232,106.152 Z M6.448,41.672 C10.0091321,41.672 12.896,44.5588679 12.896,48.12 C12.896,51.6811321 10.0091321,54.568 6.448,54.568 C2.88686793,54.568 -2.27373675e-13,51.6811321 -2.27373675e-13,48.12 C-2.27373675e-13,44.5588679 2.88686793,41.672 6.448,41.672 Z M77.8347248,20.45625 C78.1108672,20.45625 78.3347248,20.6801076 78.3347248,20.95625 C78.3347248,21.2323924 78.1108672,21.45625 77.8347248,21.45625 C76.7034145,21.45625 75.7803878,22.3140724 75.6996079,23.44488 L75.6938725,23.6007182 L73.97744,39.0825313 C73.97744,40.1843393 74.8512792,41.0900663 75.9623394,41.1667424 L76.1152582,41.172 L78.0936218,41.172 C78.3697642,41.172 78.5936218,41.3958576 78.5936218,41.672 C78.5936218,41.9174599 78.4167467,42.1216084 78.1834975,42.1639443 L78.0936218,42.172 L76.1152582,42.172 C74.4440251,42.172 73.0748527,40.8844961 72.9851452,39.2085436 L72.9804741,39.0275318 L74.6969067,23.5457187 C74.6969067,21.8373607 76.1038049,20.45625 77.8347248,20.45625 Z M98.1361552,20.45625 C99.8073882,20.45625 101.176561,21.7437539 101.266268,23.3206988 L101.270939,23.4907193 L102.99344,39.0825313 C102.99344,40.7319804 101.681896,42.0763619 100.033482,42.1671165 L99.8556218,42.172 L80.73144,42.172 C80.4552976,42.172 80.23144,41.9481424 80.23144,41.672 C80.23144,41.4265401 80.4083152,41.2223916 80.6415644,41.1800557 L80.73144,41.172 L99.8556218,41.172 C100.986932,41.172 101.909959,40.3141776 101.990739,39.279636 L101.996474,39.1375307 L100.273973,23.5457187 C100.273973,22.4439107 99.4001341,21.5381837 98.2890739,21.4615076 L98.1361552,21.45625 L79.5541915,21.45625 C79.2780491,21.45625 79.0541915,21.2323924 79.0541915,20.95625 C79.0541915,20.7107901 79.2310667,20.5066416 79.4643159,20.4643057 L79.5541915,20.45625 L98.1361552,20.45625 Z M87.98544,22.49765 C90.0115838,22.49765 91.9309427,23.1815785 93.4627199,24.4116903 C93.5919053,24.5154342 93.6125297,24.7042607 93.5087859,24.8334461 C93.405042,24.9626315 93.2162155,24.9832559 93.0870301,24.8795121 C91.6611282,23.7344247 89.8741006,23.09765 87.98544,23.09765 C83.5554925,23.09765 79.96752,26.5907482 79.96752,30.895625 C79.96752,35.2005018 83.5554925,38.6936 87.98544,38.6936 C92.4153875,38.6936 96.00336,35.2005018 96.00336,30.895625 C96.00336,30.7299396 96.1376746,30.595625 96.30336,30.595625 C96.4690454,30.595625 96.60336,30.7299396 96.60336,30.895625 C96.60336,35.5355244 92.7432132,39.2936 87.98544,39.2936 C83.2276668,39.2936 79.36752,35.5355244 79.36752,30.895625 C79.36752,26.2557256 83.2276668,22.49765 87.98544,22.49765 Z M87.792,24.632 C91.2796361,24.632 94.1101333,27.3876523 94.1101333,30.791 C94.1101333,34.1943477 91.2796361,36.95 87.792,36.95 C84.3043639,36.95 81.4738667,34.1943477 81.4738667,30.791 C81.4738667,27.3876523 84.3043639,24.632 87.792,24.632 Z M87.792,25.232 C84.6321896,25.232 82.0738667,27.722675 82.0738667,30.791 C82.0738667,33.859325 84.6321896,36.35 87.792,36.35 C90.9518104,36.35 93.5101333,33.859325 93.5101333,30.791 C93.5101333,27.722675 90.9518104,25.232 87.792,25.232 Z M102.759176,14.388 C104.909351,14.388 106.666809,16.0620003 106.767529,18.1094778 L106.772079,18.3024833 L107.636,24.9683434 C107.636,27.16714 105.836278,28.9474 103.618909,28.9474 C103.342767,28.9474 103.118909,28.7235424 103.118909,28.4474 C103.118909,28.1712576 103.342767,27.9474 103.618909,27.9474 C105.226858,27.9474 106.539195,26.7060605 106.634637,25.2011625 L106.640187,25.0329167 L105.776267,18.3670566 C105.776267,16.7817099 104.521356,15.4837509 102.936573,15.3930617 L102.759176,15.388 L73.2546909,15.388 C71.6467416,15.388 70.3344046,16.6293395 70.2343998,18.2780932 L70.2283237,18.4629223 L68.948,24.9683434 C68.948,26.5536901 70.2029102,27.8516491 71.7876934,27.9423383 L71.9650909,27.9474 L73.5513202,27.9474 C73.8274625,27.9474 74.0513202,28.1712576 74.0513202,28.4474 C74.0513202,28.6928599 73.874445,28.8970084 73.6411958,28.9393443 L73.5513202,28.9474 L71.9650909,28.9474 C69.8149155,28.9474 68.0574576,27.2733997 67.9613452,25.079631 L67.9572406,24.8724777 L69.2376,18.3670566 C69.2376,16.2348902 70.929901,14.4962789 73.054301,14.3928664 L73.2546909,14.388 L102.759176,14.388 Z" id="Combined-Shape" fill="#F2F2F2"></path>
            <circle id="Oval-Copy-3" fill="#239A98" cx="20.336" cy="98.712" r="1.488"></circle>
        </g>
    </g>
</svg>