<?xml version="1.0" encoding="UTF-8"?>
<svg width="315px" height="357px" viewBox="0 0 315 357" version="1.1" xmlns="http://www.w3.org/2000/svg" xmlns:xlink="http://www.w3.org/1999/xlink">
    <!-- Generator: Sketch 60 (88103) - https://sketch.com -->
    <title>Illustrations / Flow / Desktop / Check Internet</title>
    <desc>Created with Sketch.</desc>
    <g id="Illustrations-/-Flow-/-Desktop-/-Check-Internet" stroke="none" stroke-width="1" fill="none" fill-rule="evenodd">
        <g id="Illustrations-/-Flows-/-InternetCheck-1D" fill-rule="nonzero">
            <path d="M91,327 C99.2842712,327 106,333.715729 106,342 C106,350.284271 99.2842712,357 91,357 C82.7157288,357 76,350.284271 76,342 C76,333.715729 82.7157288,327 91,327 Z M252,279 C254.761424,279 257,281.238576 257,284 C257,286.761424 254.761424,289 252,289 C249.238576,289 247,286.761424 247,284 C247,281.238576 249.238576,279 252,279 Z M198.74133,162.464042 C209.519042,175.706397 215.5,192.214383 215.5,209.636152 C215.5,250.982519 181.921152,284.5 140.5,284.5 C99.0788483,284.5 65.5,250.982519 65.5,209.636152 C65.5,193.557265 70.5911478,178.243677 79.8901511,165.53242 C80.053194,165.309549 80.3660393,165.261048 80.5889106,165.424091 C80.8117819,165.587134 80.8602823,165.899979 80.6972394,166.122851 C71.522532,178.664202 66.5,193.771401 66.5,209.636152 C66.5,250.429824 99.630724,283.5 140.5,283.5 C181.369276,283.5 214.5,250.429824 214.5,209.636152 C214.5,192.446501 208.599615,176.160904 197.965741,163.09528 C197.791429,162.881107 197.823743,162.566178 198.037916,162.391866 C198.252089,162.217555 198.567018,162.249869 198.74133,162.464042 Z M20,259 C22.7614237,259 25,261.238576 25,264 C25,266.761424 22.7614237,269 20,269 C17.2385763,269 15,266.761424 15,264 C15,261.238576 17.2385763,259 20,259 Z M183.816907,180.839774 C189.448725,189.077948 192.5,198.750334 192.5,208.863858 C192.5,236.832475 169.215848,259.5 140.5,259.5 C111.784152,259.5 88.5,236.832475 88.5,208.863858 C88.5,199.406723 91.167065,190.330479 96.1319275,182.441735 C96.2790147,182.208026 96.5877112,182.137805 96.8214203,182.284892 C97.0551294,182.431979 97.1253503,182.740676 96.9782631,182.974385 C92.1128998,190.705034 89.5,199.596949 89.5,208.863858 C89.5,236.274094 112.330519,258.5 140.5,258.5 C168.669481,258.5 191.5,236.274094 191.5,208.863858 C191.5,198.953771 188.510645,189.477669 182.991374,181.404128 C182.835532,181.176164 182.893999,180.865027 183.121963,180.709185 C183.349928,180.553343 183.661064,180.611809 183.816907,180.839774 Z M310,238 C312.761424,238 315,240.238576 315,243 C315,245.761424 312.761424,248 310,248 C307.238576,248 305,245.761424 305,243 C305,240.238576 307.238576,238 310,238 Z M143.059984,188.533966 L155.794453,199.499912 C156.401114,200.022322 156.75,200.78317 156.75,201.583764 L156.75,224 C156.75,225.518783 155.518783,226.75 154,226.75 L128,226.75 C126.481217,226.75 125.25,225.518783 125.25,224 L125.25,201.606978 C125.25,200.788025 125.615002,200.011683 126.245667,199.48924 L139.511197,188.50008 C140.544099,187.644424 142.043609,187.658742 143.059984,188.533966 Z M140.468106,189.65521 L127.202576,200.64437 C126.91591,200.881844 126.75,201.234727 126.75,201.606978 L126.75,224 C126.75,224.690356 127.309644,225.25 128,225.25 L154,225.25 C154.690356,225.25 155.25,224.690356 155.25,224 L155.25,201.583764 C155.25,201.219857 155.091416,200.874017 154.81566,200.636558 L142.081191,189.670612 C141.619203,189.272784 140.937607,189.266275 140.468106,189.65521 Z M141.820786,155.5 C148.871395,155.5 155.726904,157.219291 162.083693,160.513154 C162.328875,160.640199 162.424645,160.941948 162.2976,161.18713 C162.170555,161.432313 161.868806,161.528082 161.623624,161.401037 C155.407025,158.179816 148.708921,156.5 141.820786,156.5 C134.885063,156.5 128.142185,158.203131 121.889956,161.467611 C121.645172,161.595421 121.343125,161.500594 121.215315,161.25581 C121.087506,161.011025 121.182333,160.708978 121.427117,160.581169 C127.820208,157.24314 134.721487,155.5 141.820786,155.5 Z M140.116567,134.5 C154.415174,134.5 168.117287,138.954389 179.930651,147.217399 C180.156933,147.375675 180.212063,147.68742 180.053787,147.913702 C179.895511,148.139984 179.583766,148.195114 179.357484,148.036838 C167.709612,139.889583 154.206849,135.5 140.116567,135.5 C126.336118,135.5 113.115452,139.698141 101.637284,147.511277 C101.409008,147.666663 101.097989,147.607575 100.942603,147.379299 C100.787216,147.151023 100.846305,146.840004 101.074581,146.684618 C112.716251,138.760186 126.132309,134.5 140.116567,134.5 Z M19,108 C29.4934102,108 38,116.50659 38,127 C38,137.49341 29.4934102,146 19,146 C8.50658975,146 0,137.49341 0,127 C0,116.50659 8.50658975,108 19,108 Z M276,62 C280.970563,62 285,66.0294373 285,71 C285,75.9705627 280.970563,80 276,80 C271.029437,80 267,75.9705627 267,71 C267,66.0294373 271.029437,62 276,62 Z M174,0 C175.656854,0 177,1.34314575 177,3 C177,4.65685425 175.656854,6 174,6 C172.343146,6 171,4.65685425 171,3 C171,1.34314575 172.343146,0 174,0 Z" id="Combined-Shape" fill="#239A98"></path>
            <path d="M69.8318095,144.409125 C70.0218626,144.208789 70.3383353,144.200454 70.5386711,144.390507 C70.7390068,144.58056 70.7473426,144.897033 70.5572894,145.097368 C53.9198113,162.635001 44.5,185.698003 44.5,210.219455 C44.5,262.840021 87.7031156,305.5 141,305.5 C194.296884,305.5 237.5,262.840021 237.5,210.219455 C237.5,185.891269 228.228896,162.99591 211.825652,145.503377 C211.636763,145.301944 211.646931,144.985525 211.848364,144.796635 C212.049798,144.607746 212.366217,144.617914 212.555106,144.819347 C229.13022,162.495164 238.5,185.634206 238.5,210.219455 C238.5,263.395158 194.846357,306.5 141,306.5 C87.153643,306.5 43.5,263.395158 43.5,210.219455 C43.5,185.438895 53.0200539,162.130464 69.8318095,144.409125 Z M139.091617,111.5 C159.554349,111.5 179.07592,117.753892 195.455682,129.226831 C195.68186,129.385254 195.736787,129.697035 195.578364,129.923214 C195.419941,130.149393 195.108159,130.204319 194.881981,130.045896 C178.669076,118.689829 159.347477,112.5 139.091617,112.5 C119.378389,112.5 100.545487,118.361553 84.5919071,129.15728 C84.3632069,129.312041 84.0523505,129.252101 83.89759,129.023401 C83.7428294,128.794701 83.8027693,128.483844 84.0314695,128.329084 C100.149289,117.422216 119.177098,111.5 139.091617,111.5 Z" id="Shape" fill="#C5C6C6"></path>
        </g>
    </g>
</svg>