<?xml version="1.0" encoding="UTF-8"?>
<svg width="79px" height="86px" viewBox="0 0 79 86" version="1.1" xmlns="http://www.w3.org/2000/svg" xmlns:xlink="http://www.w3.org/1999/xlink">
    <!-- Generator: Sketch 60 (88103) - https://sketch.com -->
    <title>Illustration / Flow / Mobile / Mobile Number / Light</title>
    <desc>Created with Sketch.</desc>
    <g id="Illustration-/-Flow-/-Mobile-/-Mobile-Number-/-Light" stroke="none" stroke-width="1" fill="none" fill-rule="evenodd">
        <path d="M58.6287257,1 C60.9680571,1 62.8842553,2.78507242 62.9949492,5.03546907 L63,5.24129574 L63,79.7587043 C63,82.0360905 61.1526056,83.8881449 58.8401881,83.9951192 L58.6287257,84 L22.3712743,84 C20.0319429,84 18.1157447,82.2149276 18.0050508,79.9645309 L18,79.7587043 L18,15.3130065 C18,14.813357 18.4110848,14.4083111 18.9181836,14.4083111 C19.3890611,14.4083111 19.777151,14.7575599 19.83019,15.2074999 L19.8363673,15.3130065 L19.8363673,79.7587043 C19.8363673,81.044249 20.8786495,82.1027915 22.2041646,82.185418 L22.3712743,82.1906093 L58.6287257,82.1906093 C59.9765258,82.1906093 61.07272,81.1834885 61.1582591,79.9181609 L61.1636327,79.7587043 L61.1636327,5.24129574 C61.1636327,3.95575102 60.1213505,2.8972085 58.7958354,2.81458197 L58.6287257,2.80939072 L22.3712743,2.80939072 C21.0234742,2.80939072 19.92728,3.81651146 19.8417409,5.08183913 L19.8363673,5.24129574 L19.8363673,11.6364465 C19.8363673,12.1360959 19.4252825,12.5411418 18.9181836,12.5411418 C18.4473062,12.5411418 18.0592163,12.1918931 18.0061773,11.7419531 L18,11.6364465 L18,5.24129574 C18,2.96390951 19.8473944,1.11185515 22.1598119,1.00488083 L22.3712743,1 L58.6287257,1 Z M30.4783252,78.0905003 C30.7345164,78.0905003 30.9422005,78.2940987 30.9422005,78.5452501 C30.9422005,78.7605228 30.7896163,78.9408585 30.5846875,78.9879897 L30.4783252,79 L23.4638753,79 C23.207684,79 23,78.7964015 23,78.5452501 C23,78.3299775 23.1525842,78.1496417 23.3575129,78.1025105 L23.4638753,78.0905003 L30.4783252,78.0905003 Z M58.5361247,78.0905003 C58.792316,78.0905003 59,78.2940987 59,78.5452501 C59,78.7605228 58.8474158,78.9408585 58.6424871,78.9879897 L58.5361247,79 L51.5216748,79 C51.2654836,79 51.0577995,78.7964015 51.0577995,78.5452501 C51.0577995,78.3299775 51.2103837,78.1496417 51.4153125,78.1025105 L51.5216748,78.0905003 L58.5361247,78.0905003 Z M39.830925,78.0905003 C40.0871163,78.0905003 40.2948003,78.2940987 40.2948003,78.5452501 C40.2948003,78.7605228 40.1422161,78.9408585 39.9372874,78.9879897 L39.830925,79 L32.8164751,79 C32.5602839,79 32.3525998,78.7964015 32.3525998,78.5452501 C32.3525998,78.3299775 32.505184,78.1496417 32.7101128,78.1025105 L32.8164751,78.0905003 L39.830925,78.0905003 Z M49.1835249,78.0905003 C49.4397161,78.0905003 49.6474002,78.2940987 49.6474002,78.5452501 C49.6474002,78.7605228 49.494816,78.9408585 49.2898872,78.9879897 L49.1835249,79 L42.169075,79 C41.9128837,79 41.7051997,78.7964015 41.7051997,78.5452501 C41.7051997,78.3299775 41.8577839,78.1496417 42.0627126,78.1025105 L42.169075,78.0905003 L49.1835249,78.0905003 Z M72,71 C73.6568542,71 75,72.3431458 75,74 C75,75.6568542 73.6568542,77 72,77 C70.3431458,77 69,75.6568542 69,74 C69,72.3431458 70.3431458,71 72,71 Z M41,62.6671376 C41.6589331,62.6671376 42.2981254,62.8082179 42.8800542,63.0763166 C43.1586059,63.2046474 43.2777404,63.5288948 43.1461486,63.8005435 C43.0145568,64.0721922 42.6820698,64.1883744 42.4035181,64.0600436 C41.9699388,63.8602906 41.4934095,63.7551127 41,63.7551127 C39.2137672,63.7551127 37.7701042,65.1357866 37.7701042,66.8335688 C37.7701042,68.531351 39.2137672,69.9120249 41,69.9120249 C42.7862328,69.9120249 44.2298958,68.531351 44.2298958,66.8335688 C44.2298958,66.2017591 44.0303652,65.5995957 43.6626272,65.0904623 C43.4852203,64.8448424 43.5455776,64.5054753 43.7974391,64.3324648 C44.0493006,64.1594543 44.3972914,64.2183159 44.5746984,64.4639359 C45.0736319,65.1547095 45.3455177,65.9752339 45.3455177,66.8335688 C45.3455177,69.1370274 43.3975526,71 41,71 C38.6024474,71 36.6544823,69.1370274 36.6544823,66.8335688 C36.6544823,64.5301102 38.6024474,62.6671376 41,62.6671376 Z M52.6907498,54.1794887 C53.3517334,54.1794887 53.9929149,54.3215715 54.5766545,54.5915752 C54.856073,54.7208177 54.9755783,55.0473691 54.843577,55.320948 C54.7115757,55.5945269 54.378054,55.7115346 54.0986355,55.582292 C53.663707,55.3811196 53.1856947,55.2751944 52.6907498,55.2751944 C50.8989585,55.2751944 49.450803,56.6656786 49.450803,58.3755243 C49.450803,60.08537 50.8989585,61.4758542 52.6907498,61.4758542 C54.4825411,61.4758542 55.9306967,60.08537 55.9306967,58.3755243 C55.9306967,57.7392253 55.7305452,57.1327833 55.3616628,56.6200323 C55.1837038,56.3726671 55.244249,56.0308887 55.4968943,55.8566489 C55.7495395,55.682409 56.0986133,55.7416889 56.2765723,55.9890541 C56.7770584,56.6847359 57.0497903,57.5110905 57.0497903,58.3755243 C57.0497903,60.6953499 55.0957633,62.5715598 52.6907498,62.5715598 C50.2857363,62.5715598 48.3317093,60.6953499 48.3317093,58.3755243 C48.3317093,56.0556986 50.2857363,54.1794887 52.6907498,54.1794887 Z M29.3092502,54.1794887 C31.7142637,54.1794887 33.6682907,56.0556986 33.6682907,58.3755243 C33.6682907,60.6953499 31.7142637,62.5715598 29.3092502,62.5715598 C26.9042367,62.5715598 24.9502097,60.6953499 24.9502097,58.3755243 C24.9502097,56.0556986 26.9042367,54.1794887 29.3092502,54.1794887 Z M41,53.7503532 C43.3975526,53.7503532 45.3455177,55.6133258 45.3455177,57.9167844 C45.3455177,60.220243 43.3975526,62.0832156 41,62.0832156 C38.6024474,62.0832156 36.6544823,60.220243 36.6544823,57.9167844 C36.6544823,55.6133258 38.6024474,53.7503532 41,53.7503532 Z M29.3092502,55.2751944 C27.5174589,55.2751944 26.0693033,56.6656786 26.0693033,58.3755243 C26.0693033,60.08537 27.5174589,61.4758542 29.3092502,61.4758542 C31.1010415,61.4758542 32.549197,60.08537 32.549197,58.3755243 C32.549197,56.6656786 31.1010415,55.2751944 29.3092502,55.2751944 Z M41,54.8383283 C39.2137672,54.8383283 37.7701042,56.2190022 37.7701042,57.9167844 C37.7701042,59.6145666 39.2137672,60.9952405 41,60.9952405 C42.7862328,60.9952405 44.2298958,59.6145666 44.2298958,57.9167844 C44.2298958,56.2190022 42.7862328,54.8383283 41,54.8383283 Z M53.1423685,56.5493863 C53.3200448,56.5493863 53.468285,56.6772547 53.5025689,56.8472387 L53.5100386,56.9224175 L53.5104592,57.4813863 L54.1492002,57.4819643 C54.3256998,57.4819643 54.4729583,57.6106852 54.5070152,57.7818024 L54.5144355,57.8574824 C54.5144355,58.0389512 54.3892394,58.1903557 54.2228079,58.2253713 L54.1492002,58.2330005 L53.5104592,58.2323863 L53.5104592,58.6933863 L54.155224,58.6943158 C54.3317236,58.6943158 54.4789821,58.8230366 54.5130389,58.9941539 L54.5204592,59.0698339 C54.5204592,59.2513027 54.3952631,59.4027071 54.2288316,59.4377228 L54.155224,59.445352 L53.5104592,59.4443863 L53.5100386,59.7886128 C53.5100386,59.9688798 53.3840079,60.1192816 53.2164669,60.1540653 L53.1423685,60.161644 C52.9646922,60.161644 52.816452,60.0337756 52.7821682,59.8637916 L52.7746984,59.7886128 L52.7754592,59.4443863 L52.4144592,59.4443863 L52.414333,59.7886128 C52.414333,59.9688798 52.2883023,60.1192816 52.1207612,60.1540653 L52.0466629,60.161644 C51.8689866,60.161644 51.7207464,60.0337756 51.6864625,59.8637916 L51.6789928,59.7886128 L51.6794592,59.4443863 L51.0507247,59.445352 C50.8742251,59.445352 50.7269666,59.3166312 50.6929098,59.1455139 L50.6854895,59.0698339 C50.6854895,58.8883651 50.8106855,58.7369607 50.9771171,58.701945 L51.0507247,58.6943158 L51.6794592,58.6933863 L51.6794592,58.2323863 L51.044701,58.2330005 C50.8429871,58.2330005 50.6794658,58.0648753 50.6794658,57.8574824 C50.6794658,57.6760136 50.8046618,57.5246092 50.9710933,57.4895935 L51.044701,57.4819643 L51.6794592,57.4813863 L51.6789928,56.9224175 C51.6789928,56.7421505 51.8050235,56.5917487 51.9725645,56.5569649 L52.0466629,56.5493863 C52.2243392,56.5493863 52.3725794,56.6772547 52.4068633,56.8472387 L52.414333,56.9224175 L52.4144592,57.4813863 L52.7754592,57.4813863 L52.7746984,56.9224175 C52.7746984,56.7421505 52.9007291,56.5917487 53.0682702,56.5569649 L53.1423685,56.5493863 Z M29.1937934,56.5850764 C29.3752622,56.5850764 29.5266666,56.7102724 29.5616823,56.876704 L29.5693115,56.9503116 L29.5684462,57.4580764 L29.9377922,57.0961313 C30.0612701,56.9751067 30.2512176,56.9618904 30.3944457,57.0537987 L30.4616425,57.1085008 C30.5861318,57.2353977 30.6046263,57.425787 30.5166515,57.5665103 L30.4637894,57.6322092 L30.0994462,57.9890764 L30.5964483,57.9896634 C30.7729479,57.9896634 30.9202064,58.1183843 30.9542633,58.2895015 L30.9616835,58.3651815 C30.9616835,58.5466503 30.8364875,58.6980548 30.670056,58.7330704 L30.5964483,58.7406996 L30.1464462,58.7400764 L30.4926628,59.0799306 C30.6161407,59.2009552 30.63307,59.3905056 30.5439255,59.5354233 L30.4905159,59.6036389 C30.3660051,59.7305143 30.17591,59.7527122 30.0334197,59.6675491 L29.9666657,59.6160084 L29.5684462,59.2250764 L29.5693115,59.756606 C29.5693115,59.9331056 29.4405906,60.0803641 29.2694734,60.1144209 L29.1937934,60.1218412 C29.0123246,60.1218412 28.8609201,59.9966452 28.8259045,59.8302136 L28.8182753,59.756606 L28.8174462,59.2450764 L28.4397779,59.6160084 C28.3163,59.737033 28.1263525,59.7502494 27.9831244,59.6583411 L27.9159276,59.6036389 C27.7914383,59.476742 27.7729438,59.2863527 27.8609186,59.1456295 L27.9137807,59.0799306 L28.2594462,58.7400764 L27.7348424,58.7406996 C27.5583428,58.7406996 27.4110843,58.6119788 27.3770275,58.4408615 L27.3696072,58.3651815 C27.3696072,58.1837127 27.4948032,58.0323083 27.6612348,57.9972926 L27.7348424,57.9896634 L28.3064462,57.9890764 L27.9426542,57.6322092 C27.8191763,57.5111846 27.802247,57.3216342 27.8913915,57.1767164 L27.9448011,57.1085008 C28.0693119,56.9816255 28.259407,56.9594276 28.4018973,57.0445906 L28.4686513,57.0961313 L28.8174462,57.4380764 L28.8182753,56.9503116 C28.8182753,56.773812 28.9469961,56.6265535 29.1181134,56.5924967 L29.1937934,56.5850764 Z M52.7754592,58.2323863 L52.4144592,58.2323863 L52.4144592,58.6933863 L52.7754592,58.6933863 L52.7754592,58.2323863 Z M41,44.8335688 C41.6589331,44.8335688 42.2981254,44.9746491 42.8800542,45.2427478 C43.1586059,45.3710786 43.2777404,45.695326 43.1461486,45.9669747 C43.0145568,46.2386234 42.6820698,46.3548056 42.4035181,46.2264748 C41.9699388,46.0267218 41.4934095,45.9215439 41,45.9215439 C39.2137672,45.9215439 37.7701042,47.3022178 37.7701042,49 C37.7701042,50.6977822 39.2137672,52.0784561 41,52.0784561 C42.7862328,52.0784561 44.2298958,50.6977822 44.2298958,49 C44.2298958,48.3681903 44.0303652,47.7660269 43.6626272,47.2568935 C43.4852203,47.0112736 43.5455776,46.6719065 43.7974391,46.498896 C44.0493006,46.3258855 44.3972914,46.3847471 44.5746984,46.6303671 C45.0736319,47.3211407 45.3455177,48.1416651 45.3455177,49 C45.3455177,51.3034586 43.3975526,53.1664312 41,53.1664312 C38.6024474,53.1664312 36.6544823,51.3034586 36.6544823,49 C36.6544823,46.6965414 38.6024474,44.8335688 41,44.8335688 Z M52.6544823,44.8335688 C55.0520349,44.8335688 57,46.6965414 57,49 C57,51.3034586 55.0520349,53.1664312 52.6544823,53.1664312 C50.2569297,53.1664312 48.3089645,51.3034586 48.3089645,49 C48.3089645,46.6965414 50.2569297,44.8335688 52.6544823,44.8335688 Z M29.3455177,44.8335688 C31.7430703,44.8335688 33.6910355,46.6965414 33.6910355,49 C33.6910355,51.3034586 31.7430703,53.1664312 29.3455177,53.1664312 C26.9479651,53.1664312 25,51.3034586 25,49 C25,46.6965414 26.9479651,44.8335688 29.3455177,44.8335688 Z M29.3455177,45.9215439 C27.559285,45.9215439 26.115622,47.3022178 26.115622,49 C26.115622,50.6977822 27.559285,52.0784561 29.3455177,52.0784561 C31.1317505,52.0784561 32.5754135,50.6977822 32.5754135,49 C32.5754135,47.3022178 31.1317505,45.9215439 29.3455177,45.9215439 Z M52.6544823,45.9215439 C50.8682495,45.9215439 49.4245865,47.3022178 49.4245865,49 C49.4245865,50.6977822 50.8682495,52.0784561 52.6544823,52.0784561 C54.440715,52.0784561 55.884378,50.6977822 55.884378,49 C55.884378,47.3022178 54.440715,45.9215439 52.6544823,45.9215439 Z M52.6544823,35.9167844 C55.0520349,35.9167844 57,37.779757 57,40.0832156 C57,42.3866742 55.0520349,44.2496468 52.6544823,44.2496468 C50.2569297,44.2496468 48.3089645,42.3866742 48.3089645,40.0832156 C48.3089645,37.779757 50.2569297,35.9167844 52.6544823,35.9167844 Z M29.3455177,35.9167844 C30.0044508,35.9167844 30.6436432,36.0578647 31.2255719,36.3259634 C31.5041236,36.4542942 31.6232581,36.7785416 31.4916663,37.0501903 C31.3600745,37.321839 31.0275875,37.4380212 30.7490359,37.3096904 C30.3154566,37.1099374 29.8389272,37.0047595 29.3455177,37.0047595 C27.559285,37.0047595 26.115622,38.3854334 26.115622,40.0832156 C26.115622,41.7809978 27.559285,43.1616717 29.3455177,43.1616717 C31.1317505,43.1616717 32.5754135,41.7809978 32.5754135,40.0832156 C32.5754135,39.4514059 32.3758829,38.8492425 32.0081449,38.3401091 C31.830738,38.0944892 31.8910954,37.7551221 32.1429569,37.5821116 C32.3948183,37.4091011 32.7428092,37.4679627 32.9202161,37.7135827 C33.4191496,38.4043563 33.6910355,39.2248807 33.6910355,40.0832156 C33.6910355,42.3866742 31.7430703,44.2496468 29.3455177,44.2496468 C26.9479651,44.2496468 25,42.3866742 25,40.0832156 C25,37.779757 26.9479651,35.9167844 29.3455177,35.9167844 Z M41,35.9167844 C43.3975526,35.9167844 45.3455177,37.779757 45.3455177,40.0832156 C45.3455177,42.3866742 43.3975526,44.2496468 41,44.2496468 C38.6024474,44.2496468 36.6544823,42.3866742 36.6544823,40.0832156 C36.6544823,39.4124517 36.8203802,38.7634194 37.1337737,38.1793761 C37.8734664,36.8008775 39.355608,35.9167844 41,35.9167844 Z M41,37.0047595 C39.7727577,37.0047595 38.6703511,37.6623417 38.1222356,38.6838152 C37.8918046,39.1132488 37.7701042,39.5893697 37.7701042,40.0832156 C37.7701042,41.7809978 39.2137672,43.1616717 41,43.1616717 C42.7862328,43.1616717 44.2298958,41.7809978 44.2298958,40.0832156 C44.2298958,38.3854334 42.7862328,37.0047595 41,37.0047595 Z M52.6544823,37.0047595 C50.8682495,37.0047595 49.4245865,38.3854334 49.4245865,40.0832156 C49.4245865,41.7809978 50.8682495,43.1616717 52.6544823,43.1616717 C54.440715,43.1616717 55.884378,41.7809978 55.884378,40.0832156 C55.884378,38.3854334 54.440715,37.0047595 52.6544823,37.0047595 Z M3,39 C3.55228475,39 4,39.4477153 4,40 C4,40.5522847 3.55228475,41 3,41 C2.44771525,41 2,40.5522847 2,40 C2,39.4477153 2.44771525,39 3,39 Z M52.6544823,27 C53.3134154,27 53.9526077,27.1410803 54.5345365,27.409179 C54.8130881,27.5375098 54.9322226,27.8617572 54.8006309,28.1334059 C54.6690391,28.4050546 54.3365521,28.5212368 54.0580004,28.392906 C53.6244211,28.193153 53.1478918,28.0879751 52.6544823,28.0879751 C50.8682495,28.0879751 49.4245865,29.468649 49.4245865,31.1664312 C49.4245865,32.8642134 50.8682495,34.2448873 52.6544823,34.2448873 C54.440715,34.2448873 55.884378,32.8642134 55.884378,31.1664312 C55.884378,30.5346215 55.6848475,29.9324581 55.3171095,29.4233247 C55.1397025,29.1777048 55.2000599,28.8383377 55.4519214,28.6653272 C55.7037829,28.4923167 56.0517737,28.5511783 56.2291806,28.7967983 C56.7281141,29.4875719 57,30.3080963 57,31.1664312 C57,33.4698898 55.0520349,35.3328624 52.6544823,35.3328624 C50.2569297,35.3328624 48.3089645,33.4698898 48.3089645,31.1664312 C48.3089645,28.8629726 50.2569297,27 52.6544823,27 Z M29.3455177,27 C31.7430703,27 33.6910355,28.8629726 33.6910355,31.1664312 C33.6910355,33.4698898 31.7430703,35.3328624 29.3455177,35.3328624 C26.9479651,35.3328624 25,33.4698898 25,31.1664312 C25,28.8629726 26.9479651,27 29.3455177,27 Z M41,27 C43.3975526,27 45.3455177,28.8629726 45.3455177,31.1664312 C45.3455177,33.4698898 43.3975526,35.3328624 41,35.3328624 C38.6024474,35.3328624 36.6544823,33.4698898 36.6544823,31.1664312 C36.6544823,28.8629726 38.6024474,27 41,27 Z M29.3455177,28.0879751 C27.559285,28.0879751 26.115622,29.468649 26.115622,31.1664312 C26.115622,32.8642134 27.559285,34.2448873 29.3455177,34.2448873 C31.1317505,34.2448873 32.5754135,32.8642134 32.5754135,31.1664312 C32.5754135,29.468649 31.1317505,28.0879751 29.3455177,28.0879751 Z M41,28.0879751 C39.2137672,28.0879751 37.7701042,29.468649 37.7701042,31.1664312 C37.7701042,32.8642134 39.2137672,34.2448873 41,34.2448873 C42.7862328,34.2448873 44.2298958,32.8642134 44.2298958,31.1664312 C44.2298958,29.468649 42.7862328,28.0879751 41,28.0879751 Z M77,24 C77.5522847,24 78,24.4477153 78,25 C78,25.5522847 77.5522847,26 77,26 C76.4477153,26 76,25.5522847 76,25 C76,24.4477153 76.4477153,24 77,24 Z M52.0541737,4 C52.4743338,4 52.8149409,4.32922303 52.8149409,4.73534022 C52.8149409,5.14145741 52.4743338,5.47068044 52.0541737,5.47068044 C51.6340136,5.47068044 51.2934065,5.14145741 51.2934065,4.73534022 C51.2934065,4.32922303 51.6340136,4 52.0541737,4 Z M49.4033776,4.18383505 C49.7079655,4.18383505 49.9548827,4.43075233 49.9548827,4.73534022 C49.9548827,5.03992811 49.7079655,5.28684538 49.4033776,5.28684538 L29.4630383,5.28684538 C29.1584504,5.28684538 28.9115331,5.03992811 28.9115331,4.73534022 C28.9115331,4.43075233 29.1584504,4.18383505 29.4630383,4.18383505 L49.4033776,4.18383505 Z" id="Combined-Shape" fill="#FFFFFF" fill-rule="nonzero"></path>
    </g>
</svg>