<svg width="439" height="284" viewBox="0 0 439 284" fill="none" xmlns="http://www.w3.org/2000/svg">
<path d="M20.6615 60.0989C21.0308 58.7327 25.5008 47.1564 37.2115 44.6455C48.9221 42.1347 57.7453 50.8609 58.6422 51.9556C59.6449 53.1796 66.1333 60.6457 61.36 73.8959C57.2022 85.4372 56.0158 89.7504 56.5199 94.1268C56.6463 95.2241 55.9753 96.2863 54.8953 96.5178L42.348 99.2081C41.268 99.4396 40.2205 98.7459 39.8859 97.6932C38.5515 93.4948 35.7012 90.0472 27.1773 81.2248C17.3915 71.0962 20.2487 61.6263 20.6615 60.0989Z" fill="#E5CFC7"/>
<path d="M28.6987 32.9639L29.6361 37.3358" stroke="#291D18" stroke-linecap="round"/>
<path d="M54.5116 38.263L52.0351 42.0273" stroke="#291D18" stroke-linecap="round"/>
<path d="M15.3383 94.5068L17.8139 90.7426" stroke="#291D18" stroke-linecap="round"/>
<path d="M68.8487 60.0381L64.4102 60.9897" stroke="#291D18" stroke-linecap="round"/>
<path d="M1 72.7314L5.43853 71.7798" stroke="#291D18" stroke-linecap="round"/>
<path d="M63.3145 85.5291L59.5125 83.1108" stroke="#291D18" stroke-linecap="round"/>
<path d="M6.53516 47.2417L10.3363 49.6601" stroke="#291D18" stroke-linecap="round"/>
<path d="M42.2834 33.1037L41.434 37.5038" stroke="#291D18" stroke-linecap="round"/>
<path d="M63.9542 47.8392L60.2025 50.3771" stroke="#291D18" stroke-linecap="round"/>
<path d="M5.89271 84.9313L9.64436 82.3934" stroke="#291D18" stroke-linecap="round"/>
<path d="M68.6208 73.4379L64.1638 72.6274" stroke="#291D18" stroke-linecap="round"/>
<path d="M1.22754 59.3325L5.68358 60.1431" stroke="#291D18" stroke-linecap="round"/>
<path d="M16.2998 37.8667L18.8498 41.5514" stroke="#291D18" stroke-linecap="round"/>
<path d="M51.8301 105.851L36.6467 109.106" stroke="#291D18" stroke-width="2" stroke-linecap="round"/>
<path d="M52.8589 109.679L37.6755 112.934" stroke="#291D18" stroke-width="2" stroke-linecap="round"/>
<path d="M41.9711 114.875C41.5951 114.956 41.3821 115.354 41.5296 115.703C42.3257 117.591 44.3964 118.706 46.5032 118.254C48.6099 117.803 50.0415 115.937 49.9936 113.888C49.985 113.509 49.6276 113.234 49.2517 113.314L41.9711 114.875Z" fill="#291D18"/>
<path d="M36.9639 104.8L49.1553 102.186C51.2667 101.734 52.6962 99.727 52.4094 97.617C51.4737 90.7363 53.3589 85.8451 55.3549 80.6667C57.5325 75.02 59.7829 69.1803 58.0073 60.8988C55.6683 49.9894 45.7691 42.3095 34.469 42.6381C31.7662 42.7176 29.0023 43.2759 26.4756 44.2536C15.6686 48.436 9.566 59.5887 11.9635 70.7709C13.739 79.0516 18.1849 83.4545 22.4849 87.7129L22.486 87.714C26.4295 91.6189 30.1534 95.3075 32.1216 101.967C32.7249 104.008 34.8516 105.253 36.9639 104.8Z" stroke="#291D18" stroke-width="2"/>
<path d="M25.5353 82.0851C14.8058 72.615 18.6719 60.7396 18.8415 60.2386" stroke="#291D18" stroke-linecap="round"/>
<path d="M169.416 142.339H87.3977C85.7129 142.339 84.3472 143.698 84.3472 145.374V269.756C84.3472 271.432 85.7129 272.791 87.3977 272.791H169.416C171.101 272.791 172.467 271.432 172.467 269.756V145.374C172.467 143.698 171.101 142.339 169.416 142.339Z" stroke="#291D18" stroke-width="2"/>
<path d="M93.0116 153.774C94.5566 153.774 95.809 152.525 95.809 150.984C95.809 149.443 94.5566 148.193 93.0116 148.193C91.4666 148.193 90.2141 149.443 90.2141 150.984C90.2141 152.525 91.4666 153.774 93.0116 153.774Z" stroke="#291D18"/>
<path d="M93.0116 266.936C94.5566 266.936 95.809 265.687 95.809 264.146C95.809 262.605 94.5566 261.355 93.0116 261.355C91.4666 261.355 90.2141 262.605 90.2141 264.146C90.2141 265.687 91.4666 266.936 93.0116 266.936Z" stroke="#291D18"/>
<path d="M163.803 153.774C165.348 153.774 166.6 152.525 166.6 150.984C166.6 149.443 165.348 148.193 163.803 148.193C162.258 148.193 161.005 149.443 161.005 150.984C161.005 152.525 162.258 153.774 163.803 153.774Z" stroke="#291D18"/>
<path d="M163.803 266.936C165.348 266.936 166.6 265.687 166.6 264.146C166.6 262.605 165.348 261.355 163.803 261.355C162.258 261.355 161.005 262.605 161.005 264.146C161.005 265.687 162.258 266.936 163.803 266.936Z" stroke="#291D18"/>
<path d="M128.407 197.746C140.575 197.746 150.439 187.932 150.439 175.827C150.439 163.722 140.575 153.909 128.407 153.909C116.239 153.909 106.375 163.722 106.375 175.827C106.375 187.932 116.239 197.746 128.407 197.746Z" stroke="#291D18" stroke-width="2"/>
<path d="M128.569 179.224C130.715 179.224 132.455 177.484 132.455 175.338C132.455 173.192 130.715 171.452 128.569 171.452C126.423 171.452 124.683 173.192 124.683 175.338C124.683 177.484 126.423 179.224 128.569 179.224Z" fill="#291D18"/>
<path d="M132.529 262.781C147.592 262.781 159.804 250.6 159.804 235.574C159.804 220.548 147.592 208.368 132.529 208.368C117.465 208.368 105.254 220.548 105.254 235.574C105.254 250.6 117.465 262.781 132.529 262.781Z" fill="#E5CFC7"/>
<path d="M128.407 261.218C144.079 261.218 156.784 248.579 156.784 232.987C156.784 217.396 144.079 204.756 128.407 204.756C112.735 204.756 100.03 217.396 100.03 232.987C100.03 248.579 112.735 261.218 128.407 261.218Z" stroke="#291D18" stroke-width="2"/>
<path d="M128.569 238.483C131.788 238.483 134.398 235.874 134.398 232.654C134.398 229.435 131.788 226.826 128.569 226.826C125.35 226.826 122.74 229.435 122.74 232.654C122.74 235.874 125.35 238.483 128.569 238.483Z" fill="#291D18"/>
<path d="M217.346 79.1623L218.044 78.4468L217.753 78.1623H217.346V79.1623ZM231.439 86.7787L231.304 87.7696H231.304L231.439 86.7787ZM232.433 85.518L233.386 85.2135H233.386L232.433 85.518ZM230.812 79.1623V78.1623H229.624L229.827 79.3329L230.812 79.1623ZM172.693 41.5606C172.693 36.59 176.723 32.5605 181.693 32.5605V30.5605C175.618 30.5605 170.693 35.4854 170.693 41.5606H172.693ZM172.693 69.1623V41.5606H170.693V69.1623H172.693ZM181.693 78.1623C176.723 78.1623 172.693 74.1328 172.693 69.1623H170.693C170.693 75.2374 175.618 80.1623 181.693 80.1623V78.1623ZM217.346 78.1623H181.693V80.1623H217.346V78.1623ZM231.573 85.7877C226.046 85.0377 220.796 81.133 218.044 78.4468L216.647 79.8778C219.512 82.675 225.145 86.9337 231.304 87.7696L231.573 85.7877ZM231.481 85.8226C231.485 85.8352 231.479 85.8327 231.487 85.8231C231.491 85.8177 231.502 85.8063 231.523 85.7973C231.534 85.7928 231.545 85.7898 231.555 85.7884C231.565 85.7869 231.572 85.7876 231.573 85.7877L231.304 87.7696C232.826 87.9761 233.793 86.4885 233.386 85.2135L231.481 85.8226ZM229.827 79.3329C230.184 81.3945 230.82 83.7576 231.481 85.8226L233.386 85.2135C232.742 83.2008 232.133 80.9321 231.797 78.9916L229.827 79.3329ZM235.525 78.1623H230.812V80.1623H235.525V78.1623ZM244.525 69.1623C244.525 74.1328 240.495 78.1623 235.525 78.1623V80.1623C241.6 80.1623 246.525 75.2374 246.525 69.1623H244.525ZM244.525 41.5605V69.1623H246.525V41.5605H244.525ZM235.525 32.5605C240.495 32.5605 244.525 36.59 244.525 41.5605H246.525C246.525 35.4854 241.6 30.5605 235.525 30.5605V32.5605ZM181.693 32.5605H235.525V30.5605H181.693V32.5605Z" fill="#291D18"/>
<rect x="185.227" y="44.6787" width="52.8559" height="5.75994" rx="2" fill="#E5CFC7"/>
<rect x="185.227" y="55.1821" width="40.6584" height="5.75994" rx="2" fill="#E5CFC7"/>
<rect x="185.227" y="65.686" width="46.0795" height="5.75994" rx="2" fill="#E5CFC7"/>
<path d="M182.13 47.1035H234.986" stroke="#291D18" stroke-linecap="round"/>
<path d="M182.13 57.2812H222.788" stroke="#291D18" stroke-linecap="round"/>
<path d="M182.13 67.7842H228.209" stroke="#291D18" stroke-linecap="round"/>
<path d="M261.101 122.878L262.088 123.043L262.282 121.878H261.101V122.878ZM259.441 130.034L260.402 130.309H260.402L259.441 130.034ZM260.446 131.255L260.301 130.266H260.301L260.446 131.255ZM274.57 122.878V121.878H274.14L273.844 122.19L274.57 122.878ZM247.496 85.2764C247.496 80.3058 251.526 76.2764 256.496 76.2764V74.2764C250.421 74.2764 245.496 79.2012 245.496 85.2764H247.496ZM247.496 112.878V85.2764H245.496V112.878H247.496ZM256.496 121.878C251.526 121.878 247.496 117.849 247.496 112.878H245.496C245.496 118.953 250.421 123.878 256.496 123.878V121.878ZM261.101 121.878H256.496V123.878H261.101V121.878ZM260.115 122.714C259.74 124.964 259.121 127.516 258.479 129.759L260.402 130.309C261.057 128.018 261.696 125.389 262.088 123.043L260.115 122.714ZM258.479 129.759C258.117 131.026 259.095 132.465 260.592 132.245L260.301 130.266C260.308 130.265 260.33 130.265 260.354 130.275C260.377 130.284 260.389 130.296 260.394 130.303C260.404 130.315 260.399 130.32 260.402 130.309L258.479 129.759ZM260.592 132.245C266.664 131.352 272.227 126.804 275.296 123.566L273.844 122.19C270.864 125.335 265.692 129.473 260.301 130.266L260.592 132.245ZM310.327 121.878H274.57V123.878H310.327V121.878ZM319.327 112.878C319.327 117.849 315.298 121.878 310.327 121.878V123.878C316.403 123.878 321.327 118.953 321.327 112.878H319.327ZM319.327 85.2764V112.878H321.327V85.2764H319.327ZM310.327 76.2764C315.298 76.2764 319.327 80.3058 319.327 85.2764H321.327C321.327 79.2012 316.403 74.2764 310.327 74.2764V76.2764ZM256.496 76.2764H310.327V74.2764H256.496V76.2764Z" fill="#291D18"/>
<circle cx="269.3" cy="101.952" r="5.54758" fill="#E5CFC7"/>
<circle cx="266.773" cy="99.7131" r="5.54758" stroke="#291D18"/>
<circle cx="285.69" cy="101.952" r="5.54758" fill="#E5CFC7"/>
<circle cx="283.164" cy="99.7131" r="5.54758" stroke="#291D18"/>
<circle cx="302.081" cy="101.952" r="5.54758" fill="#E5CFC7"/>
<circle cx="299.554" cy="99.7131" r="5.54758" stroke="#291D18"/>
<circle cx="5.10465" cy="5.10465" r="5.10465" transform="matrix(0.969197 0.246287 0.271894 -0.962327 104.227 45.521)" fill="#291D18" fill-opacity="0.12"/>
<circle cx="7.94057" cy="7.94057" r="7.94057" transform="matrix(-0.969197 -0.246287 0.271894 -0.962327 141.026 19.3955)" fill="#291D18" fill-opacity="0.12"/>
<circle cx="10.2093" cy="10.2093" r="10.2093" transform="matrix(-0.969197 -0.246287 0.271894 -0.962327 35.1921 201.66)" fill="#291D18" fill-opacity="0.12"/>
<circle cx="377.042" cy="88.8517" r="5.10465" fill="#291D18" fill-opacity="0.12"/>
<circle cx="133.692" cy="110.404" r="5.10465" fill="#291D18" fill-opacity="0.12"/>
<circle cx="401.203" cy="112.736" r="10.2093" fill="#291D18" fill-opacity="0.12"/>
<circle cx="7.94057" cy="7.94057" r="7.94057" transform="matrix(-1 0 0 1 239.217 183.571)" fill="#291D18" fill-opacity="0.12"/>
<path d="M283.943 243.77C285.037 245.017 286.418 245.889 287.922 246.345C289.693 246.883 291.635 246.843 293.481 246.161C299.624 243.871 307.255 239.442 314.586 234.997L314.62 234.976C314.823 234.856 315.026 234.735 315.234 234.607C319.658 231.661 323.962 231.164 328.416 233.099L372.05 246.339C376.805 247.202 380.114 250.008 382.162 254.922C385.921 263.006 389.934 271.229 393.823 276.612C395.924 279.515 399.642 280.844 403.076 279.922C412.354 277.451 417.792 268.467 419.702 252.454C421.345 238.7 420.138 221.587 418.589 205.144C418.488 204.032 418.382 202.924 418.276 201.832L418.271 201.782L415.16 198.467L415.261 195.058C415.296 193.594 414.703 192.201 413.633 191.233C408.766 186.806 403.533 183.133 398.08 180.316C396.99 179.758 395.737 179.621 394.554 179.93L389.509 181.247C387.924 181.663 386.262 181.633 384.702 181.16L354.111 171.876C352.546 171.401 351.148 170.503 350.066 169.278L346.599 165.377C345.783 164.463 344.668 163.88 343.46 163.741C343.339 163.725 343.22 163.714 343.1 163.702L343.057 163.698L342.985 163.691C337.037 163.057 330.802 163.218 324.456 164.171C323.019 164.382 321.753 165.212 320.981 166.448L319.256 169.203L319.167 169.337L314.737 170.364L314.705 170.403C314.354 170.832 314.001 171.266 313.647 171.703C313.344 172.076 313.04 172.45 312.735 172.824C310.03 176.15 307.84 178.879 305.842 181.413C299.824 189.055 291.181 200.457 285.642 211.196L285.374 211.718C284.245 213.934 283.324 215.96 282.553 217.923L282.542 217.95C282.507 218.036 282.473 218.118 282.444 218.197C278.092 229.314 278.583 237.679 283.943 243.77Z" stroke="#291D18" stroke-width="2"/>
<path d="M334.539 227.787C328.015 225.807 324.325 218.867 326.313 212.316C328.301 205.765 335.226 202.046 341.75 204.026C348.274 206.006 351.965 212.946 349.977 219.497C347.988 226.049 341.063 229.767 334.539 227.787Z" stroke="#291D18"/>
<path d="M373.022 230.497C375.04 231.109 377.174 229.963 377.788 227.937C378.403 225.911 377.266 223.773 375.248 223.16C373.231 222.548 371.097 223.694 370.482 225.72C369.867 227.746 371.004 229.884 373.022 230.497Z" fill="#291D18"/>
<path d="M325.462 196.932C321.131 195.617 318.682 191.01 320.001 186.662C321.321 182.314 325.918 179.845 330.248 181.159C334.579 182.473 337.029 187.08 335.709 191.429C334.389 195.778 329.792 198.246 325.462 196.932Z" stroke="#291D18"/>
<path d="M326.742 192.713C328.759 193.325 330.893 192.179 331.508 190.153C332.123 188.128 330.986 185.989 328.968 185.377C326.951 184.764 324.817 185.91 324.202 187.936C323.587 189.962 324.724 192.101 326.742 192.713Z" fill="#291D18"/>
<path d="M400.221 208.556C402.568 209.269 405.05 207.936 405.765 205.579C406.48 203.223 405.158 200.735 402.811 200.023C400.464 199.311 397.982 200.644 397.267 203C396.552 205.357 397.874 207.844 400.221 208.556Z" fill="#E5CFC7"/>
<path d="M340.278 218.799L339.799 218.653L339.654 219.132L338.649 222.444C338.597 222.615 338.418 222.709 338.253 222.659L334.773 221.603C334.607 221.552 334.511 221.375 334.563 221.204L335.568 217.892L335.713 217.413L335.235 217.268L331.936 216.267C331.77 216.217 331.674 216.04 331.726 215.869L332.787 212.371C332.839 212.2 333.018 212.106 333.183 212.157L336.482 213.158L336.96 213.303L337.106 212.825L338.111 209.512C338.163 209.341 338.342 209.248 338.507 209.298L341.987 210.354C342.152 210.404 342.249 210.581 342.197 210.752L341.192 214.065L341.046 214.543L341.525 214.688L344.824 215.689C344.989 215.74 345.086 215.917 345.034 216.088L343.973 219.585C343.921 219.756 343.742 219.85 343.577 219.8L340.278 218.799Z" stroke="#291D18"/>
<path d="M406.292 219.975C408.639 220.687 411.121 219.354 411.836 216.998C412.551 214.641 411.228 212.154 408.882 211.441C406.535 210.729 404.053 212.062 403.338 214.419C402.622 216.775 403.945 219.263 406.292 219.975Z" fill="#E5CFC7"/>
<path d="M388.828 214.675C391.174 215.387 393.657 214.054 394.372 211.698C395.087 209.341 393.764 206.854 391.417 206.142C389.07 205.429 386.588 206.762 385.873 209.119C385.158 211.475 386.481 213.963 388.828 214.675Z" fill="#E5CFC7"/>
<path d="M394.899 226.093C397.246 226.805 399.728 225.472 400.444 223.116C401.159 220.759 399.836 218.272 397.489 217.56C395.142 216.847 392.66 218.18 391.945 220.537C391.23 222.893 392.553 225.381 394.899 226.093Z" fill="#E5CFC7"/>
<path d="M392.891 225.19C390.125 224.351 388.556 221.405 389.4 218.621C390.245 215.838 393.187 214.261 395.953 215.1C398.72 215.94 400.289 218.886 399.445 221.669C398.6 224.453 395.658 226.03 392.891 225.19Z" stroke="#291D18"/>
<path d="M398.213 207.654C395.446 206.814 393.878 203.868 394.722 201.085C395.567 198.301 398.508 196.724 401.275 197.564C404.042 198.403 405.611 201.349 404.766 204.133C403.922 206.916 400.98 208.493 398.213 207.654Z" stroke="#291D18"/>
<path d="M404.285 219.071C401.518 218.232 399.949 215.286 400.794 212.503C401.638 209.719 404.58 208.142 407.346 208.982C410.113 209.822 411.682 212.768 410.837 215.55C409.993 218.333 407.051 219.911 404.285 219.071Z" stroke="#291D18"/>
<path d="M386.82 213.771C384.053 212.932 382.484 209.986 383.329 207.202C384.173 204.419 387.115 202.842 389.882 203.682C392.649 204.522 394.218 207.468 393.373 210.25C392.529 213.033 389.587 214.611 386.82 213.771Z" stroke="#291D18"/>
<path d="M357.153 203.04C357.969 201.634 357.495 199.833 356.096 199.018C354.696 198.203 352.901 198.683 352.085 200.089C351.27 201.495 351.743 203.295 353.143 204.11C354.542 204.925 356.338 204.446 357.153 203.04Z" fill="#291D18"/>
<path d="M369.152 208.152C370.581 207.384 371.123 205.601 370.361 204.168C369.599 202.736 367.823 202.197 366.393 202.964C364.964 203.732 364.423 205.515 365.184 206.948C365.946 208.38 367.722 208.919 369.152 208.152Z" fill="#291D18"/>
<path d="M371.742 234.715C367.412 233.401 364.962 228.794 366.282 224.445C367.601 220.096 372.198 217.628 376.529 218.942C380.859 220.256 383.309 224.863 381.989 229.212C380.67 233.56 376.073 236.029 371.742 234.715Z" stroke="#291D18"/>
</svg>
