<?xml version="1.0" encoding="UTF-8"?>
<svg width="58px" height="58px" viewBox="0 0 58 58" version="1.1" xmlns="http://www.w3.org/2000/svg" xmlns:xlink="http://www.w3.org/1999/xlink">
    <title>Group 3</title>
    <defs>
        <path d="M28,56 C43.463973,56 56,43.463973 56,28 C56,23.8232529 55.0854781,19.8601038 53.4457505,16.299869 C52.1194907,13.4202466 50.3187978,10.8042127 48.1438466,8.55194216 C43.0520241,3.27910579 35.9089501,0 28,0 C12.536027,0 0,12.536027 0,28 C0,43.463973 12.536027,56 28,56 Z" id="path-1"></path>
    </defs>
    <g id="Page-1" stroke="none" stroke-width="1" fill="none" fill-rule="evenodd">
        <g id="Group-3">
            <g id="Path" transform="translate(1.000000, 1.000000)">
                <mask id="mask-2" fill="white">
                    <use xlink:href="#path-1"></use>
                </mask>
                <g id="Mask"></g>
                <path d="M28,10.9210526 C34.3803422,10.9210526 39.5526316,16.093342 39.5526316,22.4736842 C39.5526316,27.5772144 36.2433309,31.9078159 31.6535315,33.4366868 C38.8209997,35.0732591 44.1935643,41.4221697 44.3390764,49.0505929 L44.3421053,49.3684211 L44.3421053,60.1842105 L19.5263158,60.1842105 C19.2501734,60.1842105 19.0263158,59.9603529 19.0263158,59.6842105 C19.0263158,59.4387506 19.203191,59.2346022 19.4364402,59.1922662 L19.5263158,59.1842105 L43.342,59.184 L43.3421053,49.3684211 C43.3421053,41.0011254 36.6438599,34.1982888 28.3169831,34.0295253 L28,34.0263158 C19.6327044,34.0263158 12.8298678,40.7245612 12.6611042,49.051438 L12.6578947,49.3684211 L12.657,59.184 L16.2105263,59.1842105 C16.4559862,59.1842105 16.6601347,59.3610857 16.7024706,59.5943349 L16.7105263,59.6842105 C16.7105263,59.9296704 16.5336512,60.1338189 16.3004019,60.1761549 L16.2105263,60.1842105 L11.6578947,60.1842105 L11.6578947,49.3684211 C11.6578947,41.5982915 17.0807036,35.0947269 24.3481739,33.4358746 C22.476746,32.8143305 20.7894869,31.7177677 19.4460487,30.2386735 C19.2603855,30.0342627 19.2755835,29.7180452 19.4799943,29.532382 C19.6844052,29.3467188 20.0006226,29.3619168 20.1862858,29.5663277 C22.174504,31.7553096 24.9844319,33.0263158 28,33.0263158 C33.8280575,33.0263158 38.5526316,28.3017417 38.5526316,22.4736842 C38.5526316,16.6456267 33.8280575,11.9210526 28,11.9210526 C22.1719425,11.9210526 17.4473684,16.6456267 17.4473684,22.4736842 C17.4473684,24.2243848 17.8737421,25.9125053 18.6777834,27.4234964 C18.807504,27.6672733 18.7150431,27.9700528 18.4712662,28.0997734 C18.2274893,28.229494 17.9247098,28.1370331 17.7949892,27.8932563 C16.9144509,26.2385086 16.4473684,24.3892117 16.4473684,22.4736842 C16.4473684,16.093342 21.6196578,10.9210526 28,10.9210526 Z" id="Combined-Shape" fill="#239A98" fill-rule="nonzero" mask="url(#mask-2)"></path>
            </g>
            <path d="M29,0.5 C34.290164,0.5 39.3694132,1.94403787 43.7915057,4.63416268 C44.0274236,4.77768042 44.1023288,5.0852738 43.9588111,5.32119173 C43.8152933,5.55710967 43.5076999,5.63201483 43.271782,5.4884971 C39.0052171,2.89298556 34.1055389,1.5 29,1.5 C13.8121694,1.5 1.5,13.8121694 1.5,29 C1.5,33.0952622 2.39517207,36.9814458 4.00051727,40.4735518 L14.2631579,40.4736842 C14.5393003,40.4736842 14.7631579,40.6975418 14.7631579,40.9736842 C14.7631579,41.2191441 14.5862827,41.4232926 14.3530335,41.4656285 L14.2631579,41.4736842 L4.48538046,41.4742081 C9.03244479,50.3924163 18.3029711,56.5 29,56.5 C39.6970289,56.5 48.9675552,50.3924163 53.5146195,41.4742081 L43.7368421,41.4736842 C43.4606997,41.4736842 43.2368421,41.2498266 43.2368421,40.9736842 C43.2368421,40.7282243 43.4137173,40.5240758 43.6469665,40.4817399 L43.7368421,40.4736842 L53.9994827,40.4735518 C55.6048279,36.9814458 56.5,33.0952622 56.5,29 C56.5,22.0645547 53.9232631,15.5323147 49.3516572,10.5048406 C49.1658776,10.3005355 49.1808955,9.98430946 49.3852005,9.79852986 C49.5895056,9.61275026 49.9057316,9.6277681 50.0915112,9.83207314 C54.8289174,15.0418806 57.5,21.8132949 57.5,29 C57.5,44.7401154 44.7401154,57.5 29,57.5 C13.2598846,57.5 0.5,44.7401154 0.5,29 C0.5,13.2598846 13.2598846,0.5 29,0.5 Z" id="Combined-Shape" fill="#8C8D8E" fill-rule="nonzero"></path>
        </g>
    </g>
</svg>