<svg width="217" height="164" viewBox="0 0 217 164" fill="none" xmlns="http://www.w3.org/2000/svg">
<rect x="11" y="11" width="206" height="128" rx="7" fill="#E5CFC7"/>
<circle cx="105" cy="115" r="4" fill="#291D18"/>
<path fill-rule="evenodd" clip-rule="evenodd" d="M40.4963 138H169.504C171.16 138 172.504 139.343 172.504 141C172.504 141.22 172.479 141.44 172.431 141.654L168.661 158.527C167.946 161.726 165.107 164 161.829 164H48.1707C44.8929 164 42.0541 161.726 41.3392 158.527L37.5685 141.654C37.2071 140.037 38.225 138.434 39.8419 138.072C40.0567 138.024 40.2762 138 40.4963 138ZM169.504 140H40.4963C40.4229 140 40.3497 140.008 40.2781 140.024C39.7392 140.145 39.3999 140.679 39.5203 141.218L43.2911 158.091C43.8017 160.375 45.8294 162 48.1707 162H161.829C164.17 162 166.198 160.375 166.709 158.091L170.48 141.218C170.496 141.147 170.504 141.073 170.504 141C170.504 140.448 170.056 140 169.504 140Z" fill="#291D18"/>
<path d="M91 150C91.5523 150 92 150.448 92 151C92 151.513 91.614 151.936 91.1166 151.993L91 152H51C50.4477 152 50 151.552 50 151C50 150.487 50.386 150.064 50.8834 150.007L51 150H91Z" fill="#291D18"/>
<circle cx="156" cy="151" r="3" fill="#291D18"/>
<path fill-rule="evenodd" clip-rule="evenodd" d="M208 15C208 8.37258 202.627 3 196 3H14C7.37258 3 2 8.37258 2 15V119C2 125.627 7.37258 131 14 131H196C202.627 131 208 125.627 208 119V15ZM14 5H196L196.28 5.00384C201.673 5.15207 206 9.57076 206 15V119L205.996 119.28C205.848 124.673 201.429 129 196 129H14L13.7201 128.996C8.32667 128.848 4 124.429 4 119V15L4.00384 14.7201C4.15207 9.32667 8.57076 5 14 5Z" fill="#291D18"/>
</svg>
