<svg width="75" height="95" viewBox="0 0 75 95" fill="none" xmlns="http://www.w3.org/2000/svg">
<path d="M12.6037 75.7547V64.9245H16.6226V62.2642H5.66034V64.9245H9.66034V75.7547H12.6037Z" fill="#291D18"/>
<path fill-rule="evenodd" clip-rule="evenodd" d="M26.4151 73.6227C25.9434 74.7736 24.6037 76.0755 22.2641 76.0755C19.6792 76.0755 17.4528 74.5095 17.4528 71.2264C17.4528 68.0378 19.5094 66.283 22.3018 66.283C25.0754 66.283 26.6415 68.0189 26.6415 71.0189V71.9811H20.3585C20.4339 73.0566 21.283 73.7736 22.3773 73.7736C23.4339 73.7736 23.9811 73.1132 24.1886 72.4906L26.4151 73.6227ZM20.4528 70.132H23.717C23.6793 68.9622 23.1887 68.3018 22.1321 68.3018C21.0944 68.3018 20.5094 69.0188 20.4528 70.132Z" fill="#291D18"/>
<path d="M30.8679 75.7547V62.2642H28.0566V75.7547H30.8679Z" fill="#291D18"/>
<path fill-rule="evenodd" clip-rule="evenodd" d="M41.1132 73.6227C40.6415 74.7736 39.3018 76.0755 36.9622 76.0755C34.3773 76.0755 32.1509 74.5095 32.1509 71.2264C32.1509 68.0378 34.2075 66.283 37 66.283C39.7735 66.283 41.3396 68.0189 41.3396 71.0189V71.9811H35.0566C35.132 73.0566 35.9811 73.7736 37.0754 73.7736C38.132 73.7736 38.6792 73.1132 38.8867 72.4906L41.1132 73.6227ZM35.151 70.132H38.4151C38.3774 68.9622 37.8868 68.3018 36.8302 68.3018C35.7925 68.3018 35.2076 69.0188 35.151 70.132Z" fill="#291D18"/>
<path d="M45.5661 75.7548V70.9058C45.5661 69.302 46.3208 68.6605 47.2642 68.6605C48.1132 68.6605 48.5472 69.2642 48.5472 70.0944V75.7548H51.3585V69.3963C51.3585 67.2076 49.868 66.3586 48.3019 66.3586C47.0378 66.3586 46.0566 66.9812 45.5849 67.7737H45.5661V66.6227H42.7547V75.7548H45.5661Z" fill="#291D18"/>
<path fill-rule="evenodd" clip-rule="evenodd" d="M61.6037 73.6227C61.132 74.7736 59.7924 76.0755 57.4528 76.0755C54.8679 76.0755 52.6415 74.5095 52.6415 71.2264C52.6415 68.0378 54.6981 66.283 57.4905 66.283C60.2641 66.283 61.8302 68.0189 61.8302 71.0189V71.9811H55.5471C55.6226 73.0566 56.4717 73.7736 57.566 73.7736C58.6226 73.7736 59.1698 73.1132 59.3773 72.4906L61.6037 73.6227ZM55.6415 70.132H58.9056C58.8679 68.9622 58.3773 68.3018 57.3207 68.3018C56.283 68.3018 55.6981 69.0188 55.6415 70.132Z" fill="#291D18"/>
<path d="M67.3773 76.019C68.0943 76.019 68.7736 75.8869 69.3773 75.5661L68.8113 73.5095C68.5283 73.6605 68.1887 73.7171 67.9811 73.7171C67.4339 73.7171 67.2264 73.4718 67.2264 73.0567V68.868H69.3962V66.6227H67.2264V63.5284L64.4151 64.1322V65.9246C64.4151 66.3963 64.1887 66.6227 63.717 66.6227H62.6981V68.868H64.4151V73.7171C64.4151 74.9812 65.3585 76.019 67.3773 76.019Z" fill="#291D18"/>
<path fill-rule="evenodd" clip-rule="evenodd" d="M6.74526 94.6224C9.74526 94.6224 11.5566 93.2073 11.5566 90.8677C11.5566 89.396 10.8585 88.0941 9.10375 87.4337V87.3771C10.3679 86.8299 11.066 85.7922 11.066 84.4337C11.066 82.4149 9.51884 81.1318 6.76412 81.1318H0.70752V94.6224H6.74526ZM6.44337 86.5281H3.66978V83.5092H6.46224C7.33016 83.5092 7.97167 83.9998 7.97167 85.0186C7.97167 85.9998 7.33016 86.5281 6.44337 86.5281ZM3.66978 92.1696H6.85846C7.80186 92.1696 8.46224 91.5281 8.46224 90.4903C8.46224 89.4337 7.78299 88.7356 6.80186 88.7356H3.66978V92.1696Z" fill="#291D18"/>
<path d="M15.9906 94.8866C17.1981 94.8866 18.0849 94.3583 18.6509 93.5093H18.6698V94.6225H21.5V85.4904H18.6698V90.3961C18.6698 91.9621 17.8962 92.5848 16.9717 92.5848C16.1415 92.5848 15.6887 92.0187 15.6887 91.1885V85.4904H12.8774V91.8489C12.8774 94.0376 14.4623 94.8866 15.9906 94.8866Z" fill="#291D18"/>
<path d="M26.9905 94.9431C29.8585 94.9431 30.9905 93.5092 30.9905 91.8488C30.9905 89.9243 29.3679 89.3582 27.8773 88.9998C26.7453 88.7356 25.8962 88.6224 25.8962 87.9243C25.8962 87.4526 26.2736 87.1318 26.8773 87.1318C27.8207 87.1318 28.4245 87.8488 28.6887 88.396L30.9905 87.6035C30.632 86.5092 29.4622 85.1507 26.8585 85.1507C24.5 85.1507 22.9905 86.2639 22.9905 88.1696C22.9905 89.9631 24.3276 90.5199 25.7748 90.8781L25.9108 90.9111C25.9562 90.9219 26.0016 90.9326 26.0471 90.9431C27.1981 91.2073 28.1037 91.3771 28.1037 92.1318C28.1037 92.6413 27.6698 92.9243 26.9905 92.9243C25.8207 92.9243 25.2736 92.1318 25.1037 91.4903L22.6887 92.245C22.9717 93.5281 24.1792 94.9431 26.9905 94.9431Z" fill="#291D18"/>
<path d="M33.7641 84.5093C34.8207 84.5093 35.5754 83.7734 35.5754 82.8489C35.5754 81.9432 34.8207 81.2074 33.7641 81.2074C32.7453 81.2074 31.9528 81.8866 31.9528 82.8489C31.9528 83.8111 32.7264 84.5093 33.7641 84.5093Z" fill="#291D18"/>
<path d="M35.1604 94.6225V85.4904H32.3491V94.6225H35.1604Z" fill="#291D18"/>
<path d="M39.6887 94.6225V89.7734C39.6887 88.1697 40.4435 87.5281 41.3868 87.5281C42.2359 87.5281 42.6699 88.1319 42.6699 88.9621V94.6225H45.4812V88.264C45.4812 86.0753 43.9906 85.2263 42.4246 85.2263C41.1604 85.2263 40.1793 85.8489 39.7076 86.6413H39.6887V85.4904H36.8774V94.6225H39.6887Z" fill="#291D18"/>
<path fill-rule="evenodd" clip-rule="evenodd" d="M55.7264 92.4903C55.2547 93.6413 53.9151 94.9431 51.5754 94.9431C48.9905 94.9431 46.7641 93.3771 46.7641 90.0941C46.7641 86.9054 48.8207 85.1507 51.6132 85.1507C54.3868 85.1507 55.9528 86.8865 55.9528 89.8865V90.8488H49.6698C49.7452 91.9243 50.5943 92.6413 51.6886 92.6413C52.7452 92.6413 53.2924 91.9809 53.5 91.3582L55.7264 92.4903ZM49.7641 88.9996H53.0283C52.9905 87.8298 52.5 87.1695 51.4434 87.1695C50.4056 87.1695 49.8207 87.8864 49.7641 88.9996Z" fill="#291D18"/>
<path d="M61.066 94.9431C63.9339 94.9431 65.066 93.5092 65.066 91.8488C65.066 89.9243 63.4434 89.3582 61.9528 88.9998C60.8207 88.7356 59.9717 88.6224 59.9717 87.9243C59.9717 87.4526 60.349 87.1318 60.9528 87.1318C61.8962 87.1318 62.5 87.8488 62.7641 88.396L65.066 87.6035C64.7075 86.5092 63.5377 85.1507 60.9339 85.1507C58.5754 85.1507 57.066 86.2639 57.066 88.1696C57.066 89.9631 58.4031 90.5199 59.8503 90.8781L59.9862 90.9111C60.0316 90.9219 60.0771 90.9326 60.1226 90.9431C61.2736 91.2073 62.1792 91.3771 62.1792 92.1318C62.1792 92.6413 61.7453 92.9243 61.066 92.9243C59.8962 92.9243 59.349 92.1318 59.1792 91.4903L56.7641 92.245C57.0471 93.5281 58.2547 94.9431 61.066 94.9431Z" fill="#291D18"/>
<path d="M70.1226 94.9431C72.9905 94.9431 74.1226 93.5092 74.1226 91.8488C74.1226 89.9243 72.5 89.3582 71.0094 88.9998C69.8773 88.7356 69.0283 88.6224 69.0283 87.9243C69.0283 87.4526 69.4056 87.1318 70.0094 87.1318C70.9528 87.1318 71.5566 87.8488 71.8207 88.396L74.1226 87.6035C73.7641 86.5092 72.5943 85.1507 69.9905 85.1507C67.632 85.1507 66.1226 86.2639 66.1226 88.1696C66.1226 89.9631 67.4597 90.5199 68.9069 90.8781L69.0428 90.9111C69.0882 90.9219 69.1337 90.9326 69.1792 90.9431C70.3302 91.2073 71.2358 91.3771 71.2358 92.1318C71.2358 92.6413 70.8019 92.9243 70.1226 92.9243C68.9528 92.9243 68.4056 92.1318 68.2358 91.4903L65.8207 92.245C66.1037 93.5281 67.3113 94.9431 70.1226 94.9431Z" fill="#291D18"/>
<path fill-rule="evenodd" clip-rule="evenodd" d="M49.4043 35.0605C49.4043 35.0605 49.9087 34.5832 49.9087 34.1305V32.6232C49.9087 31.8685 49.3358 32.2747 49.3358 32.2747C47.8029 33.2382 43.3265 35.693 37.5202 35.693C31.7136 35.693 27.2381 33.2382 25.7047 32.2747C25.7047 32.2747 25.1314 31.8685 25.1314 32.6232V34.1305C25.1314 34.5832 25.6362 35.0605 25.6362 35.0605C27.1491 36.2418 31.886 39.551 37.5202 39.5538C43.1539 39.551 47.8886 36.2418 49.4043 35.0605ZM30.2336 17.3876C30.2336 17.3876 25.8193 17.3929 25.8193 21.0944C25.8193 24.7983 30.2336 24.8036 30.2336 24.8036C30.2336 24.8036 34.6478 24.7983 34.6478 21.0944C34.6478 17.3929 30.2336 17.3876 30.2336 17.3876ZM48.9954 19.8884C48.9954 19.6187 48.653 19.5343 48.653 19.5343C47.224 19.1591 45.8078 18.9493 44.4073 18.9192C43.0878 18.896 41.7731 19.0266 40.4603 19.313C40.4603 19.313 40.1334 19.4142 40.1334 19.7026V22.6117C40.1334 23.1516 40.5131 23.0044 40.5131 23.0044C41.7477 22.8285 42.9552 22.752 44.397 22.7787C45.7926 22.8085 47.2646 22.9432 48.5689 23.1831C48.5689 23.1831 48.9954 23.2849 48.9954 22.8294V19.8884ZM50.7676 47.9527C50.7676 47.9527 45.3998 48.7848 37.4999 48.7848C29.5991 48.7848 24.2319 47.9527 24.2319 47.9527C20.8507 47.544 18.2444 44.8825 17.8337 41.5013C17.8337 41.5013 17.0169 35.471 17.0169 28.3013C17.0169 21.1315 17.8337 15.1013 17.8337 15.1013C18.2444 11.7207 20.8507 9.05945 24.2319 8.65155C24.2319 8.65155 29.5991 7.81849 37.4999 7.81849C45.3998 7.81849 50.7676 8.65155 50.7676 8.65155C54.149 9.05945 56.7557 11.7207 57.1658 15.1013C57.1658 15.1013 57.9838 21.1315 57.9838 28.3013C57.9838 35.471 57.1658 41.5013 57.1658 41.5013C56.7557 44.8825 54.149 47.544 50.7676 47.9527ZM55.8315 1.15035C55.8315 1.15035 48.4158 0 37.4999 0C26.5836 0 19.1674 1.15035 19.1674 1.15035C14.4953 1.71378 10.8939 5.39206 10.327 10.0628C10.327 10.0628 9.19809 18.3955 9.19809 28.3014C9.19809 38.208 10.327 46.5404 10.327 46.5404C10.8939 51.2114 14.4953 54.889 19.1674 55.4533C19.1674 55.4533 26.5836 56.6038 37.4999 56.6038C48.4158 56.6038 55.8315 55.4533 55.8315 55.4533C60.5046 54.889 64.1056 51.2114 64.6728 46.5404C64.6728 46.5404 65.8019 38.208 65.8019 28.3014C65.8019 18.3955 64.6728 10.0628 64.6728 10.0628C64.1056 5.39206 60.5046 1.71378 55.8315 1.15035Z" fill="#FFC421"/>
</svg>
