<svg><defs><font id="BloomSpeakBody-Regular" horiz-adv-x="739"><font-face font-family="BloomSpeak Body" font-weight="400" units-per-em="2000" panose-1="2 15 5 6 2 2 3 2 2 3" ascent="1460" descent="-540" x-height="906" cap-height="1282" bbox="-698 -496 1919 1776" underline-thickness="100" underline-position="-150" unicode-range="U+000D-U+FEFF"/><glyph glyph-name="uniFB00" unicode="ff" horiz-adv-x="1196" d="M229 0q-17 0-28.5 11T189 40v788H77q-18 0-30 11t-12 29q0 16 12 27t30 11h112v100q0 82 17.5 146.5t45.5 104 66 65.5 76 36 79 10q58 0 111-12 67-14 67-50 0-16-11-26t-27-10q-19 0-65 12-32 8-75 8-88 0-146-67t-58-217V906h480v100q0 82 17.5 146.5t45.5 104 66 65.5 76 36 79 10q69 0 120-15 58-18 58-47 0-16-11-26t-27-10q-6 0-59 11-40 9-81 9-88 0-146-67t-58-217V906h270q18 0 30-11t12-27q0-18-12-29t-30-11H829V40q0-18-11.5-29T789 0t-28.5 11T749 40v788H269V40q0-18-11.5-29T229 0z"/><glyph glyph-name="uniFB03" unicode="ffi" horiz-adv-x="1514" d="M229 0q-17 0-28.5 11T189 40v788H77q-18 0-30 11t-12 29q0 16 12 27t30 11h112v100q0 82 17.5 146.5t45.5 104 66 65.5 76 36 79 10q62 0 114-13 64-16 64-49 0-16-11-26t-27-10-62 11q-38 9-78 9-88 0-146-67t-58-217V906h480v100q0 83 18 146.5t47.5 103.5 72 66 88 36 98.5 10q158 0 270-84 16-12 16-38v-66q0-16-11.5-27t-28.5-11-28.5 11-11.5 27v52q-87 58-206 58-116 0-180-66t-64-218V906h230q18 0 30-11t12-27q0-18-12-29t-30-11H829V40q0-18-11.5-29T789 0t-28.5 11T749 40v788H269V40q0-18-11.5-29T229 0zm1090 0q-17 0-28.5 11T1279 40v826q0 16 11.5 28t28.5 12 28.5-12 11.5-28V40q0-18-11.5-29T1319 0z"/><glyph glyph-name="f_i" unicode="fi" horiz-adv-x="944" d="M229 0q-17 0-28.5 11T189 40v788H77q-18 0-30 11t-12 29q0 16 12 27t30 11h112v100q0 83 18 146.5t47.5 103.5 72 66 88 36 98.5 10q158 0 270-84 16-12 16-38v-66q0-16-11.5-27t-28.5-11q-18 0-29 10.5t-11 27.5v52q-87 58-206 58-116 0-180-66t-64-218V906h270q18 0 30-11t12-27q0-18-12-29t-30-11H269V40q0-18-11.5-29T229 0zm530 0q-17 0-28.5 11T719 40v826q0 16 11.5 28t28.5 12 28.5-12 11.5-28V40q0-18-11.5-29T759 0z"/><glyph glyph-name="f_j" unicode="fj" horiz-adv-x="954" d="M229 0q-17 0-28.5 11T189 40v788H77q-18 0-30 11t-12 29q0 16 12 27t30 11h112v100q0 83 18 146.5t47.5 103.5 72 66 88 36 98.5 10q158 0 270-84 16-12 16-38v-66q0-16-11.5-27t-28.5-11-28.5 11-11.5 27v52q-87 58-206 58-116 0-180-66t-64-218V906h230q18 0 30-11t12-27q0-18-12-29t-30-11H269V40q0-18-11.5-29T229 0zm294-420q-47 0-84 10-46 13-46 44 0 16 10 26t25 10q9 0 41-6t54-6q38 0 70 10.5t62 34.5 47 70.5T719-116v982q0 18 11.5 29t28.5 11 28.5-11 11.5-29v-982q0-86-25-148.5t-68-95-88-46.5-95-14z"/><glyph glyph-name="f_l" unicode="fl" horiz-adv-x="1000" d="M229 0q-17 0-28.5 11T189 40v788H77q-18 0-30 11t-12 29q0 16 12 27t30 11h112v100q0 83 18 146.5t47.5 103.5 72 66 88 36 98.5 10q158 0 268-82 18-14 18-40V324q0-151 25-198.5T931 78q20 0 31-10.5T973 40q0-40-56-40-51 0-87 15t-57.5 40-33.5 66-16 83.5-4 103.5v924q-87 58-206 58-116 0-180-66t-64-218V906h230q18 0 30-11t12-27q0-18-12-29t-30-11H269V40q0-18-11.5-29T229 0z"/><glyph glyph-name=".notdef" horiz-adv-x="1074" d="M95 0v1282h884V0H95zm80 78h724v1126H175V78z"/><glyph glyph-name=".null" horiz-adv-x="0"/><glyph glyph-name="nonmarkingreturn" horiz-adv-x="666"/><glyph glyph-name="NULL" horiz-adv-x="10"/><glyph glyph-name="NULL" horiz-adv-x="10"/><glyph glyph-name="CR" horiz-adv-x="400"/><glyph glyph-name="space" horiz-adv-x="350"/><glyph glyph-name="exclam" unicode="!" horiz-adv-x="448" d="M224 286q-17 0-28.5 11T184 326v916q0 18 11.5 29t28.5 11 28.5-11 11.5-29V326q0-18-11.5-29T224 286zm0-298q-17 0-28.5 11T184 28v68q0 18 11.5 29t28.5 11 28.5-11T264 96V28q0-18-11.5-29T224-12z"/><glyph glyph-name="quotedbl" unicode="&quot;" horiz-adv-x="618" d="M195 860q-17 0-28.5 11T155 900v342q0 18 11.5 29t28.5 11 28.5-11 11.5-29V900q0-18-11.5-29T195 860zm228 0q-17 0-28.5 11T383 900v342q0 18 11.5 29t28.5 11 28.5-11 11.5-29V900q0-18-11.5-29T423 860z"/><glyph glyph-name="numbersign" unicode="#" horiz-adv-x="1170" d="M357 0q-38 0-38 42 0 9 8 68l28 196H237q-17 0-28.5 11T197 346q0 16 11.5 27t28.5 11h130l34 242H281q-17 0-28.5 11T241 666q0 16 11.5 27t28.5 11h130l38 264q7 48 42 48 38 0 38-42 0-9-8-68l-28-202h216l38 264q7 48 42 48 38 0 38-42 0-18-8-68l-30-202h144q17 0 28.5-10.5T973 666q0-18-11.5-29T933 626H777l-34-242h146q17 0 28.5-10.5T929 346q0-18-11.5-29T889 306H733L697 48q-7-48-42-48-38 0-38 42 0 9 8 68l28 196H435L399 48q-7-48-42-48zm88 384h218l36 242H481z"/><glyph glyph-name="dollar" unicode="$" horiz-adv-x="964" d="M515-124q-17 0-28.5 11T475-84v72h-14q-55 0-105 11t-92 32-69.5 39-61.5 44q-18 15-18 36 0 16 11 26t27 10q14 0 30-12 40-30 68.5-48T340 87t121-21q142 0 224 73t82 197q0 66-34 118t-88 86-119.5 64.5l-131 64-119.5 73-88 102L153 986q0 129 94.5 213t227.5 93v70q0 18 11.5 29t28.5 11 28.5-11 11.5-29v-72q121-13 248-104 18-14 18-34 0-17-12-28.5t-28-11.5q-12 0-24 8-136 96-252 96-108 0-189-65.5T235 986q0-66 34-117.5t88-85.5 119.5-64.5l131-63.5L727 582l88-102.5L849 336q0-134-79-225T555-4v-80q0-18-11.5-29T515-124z"/><glyph glyph-name="percent" unicode="%" horiz-adv-x="1468" d="M313 0q-17 0-26.5 10T277 36q0 12 18 38l828 1198q16 22 34 22 17 0 26.5-10t9.5-26q0-12-18-38L347 22Q331 0 313 0zm42 602q-112 0-176 90t-64 250q0 158 65.5 252t174.5 94 174.5-95T595 942q0-160-63.5-250T355 602zm0 70q78 0 123 72t45 198q0 118-43.5 197T355 1218q-77 0-122.5-75T187 942t45-198 123-72zM1113-6q-112 0-176 90t-64 250q0 158 65.5 252t174.5 94 174.5-95 65.5-251q0-160-63.5-250T1113-6zm0 70q78 0 123 72t45 198q0 118-43.5 197T1113 610q-77 0-122.5-75T945 334t45-198 123-72z"/><glyph glyph-name="ampersand" unicode="&amp;" horiz-adv-x="1478" d="M567-12Q408-12 301.5 91.5T195 350q0 68 21.5 122.5T281 568t84.5 68T469 694Q303 860 303 988q0 126 82 210t208 84q118 0 202-84.5T879 994q0-67-21.5-119T792 784.5 705 721t-110-55l338-386q86 123 86 220 0 18 11.5 29t28.5 11 28.5-11 11.5-29q0-59-30-136t-82-144q146-142 256-142 18 0 30-11t12-27q0-18-12-29t-30-11q-20 0-45.5 5t-66 19.5-93 49.5T933 160Q860 84 766 36T567-12zm-24 738l79 38 67 40 58.5 50 34.5 60.5 15 79.5q0 87-58 148.5T593 1204q-96 0-153-61t-57-155q0-98 137-239zm24-660q166 0 314 152L523 634q-47-22-77.5-38.5t-66-43-56-53.5-34.5-65.5-14-83.5q0-130 88.5-207T567 66z"/><glyph glyph-name="quotesingle" unicode="'" horiz-adv-x="390" d="M195 860q-17 0-28.5 11T155 900v342q0 18 11.5 29t28.5 11 28.5-11 11.5-29V900q0-18-11.5-29T195 860z"/><glyph glyph-name="parenleft" unicode="(" horiz-adv-x="796" d="M562-244q-18 0-44 16-16 10-34.5 24t-52 47-63 72.5-63 103-57 135.5-39 172T194 538q0 522 314 802 32 28 54 28 16 0 27-11t11-27q0-9-6-19t-11.5-15.5-18.5-16-16-13.5q-272-250-272-728 0-137 25.5-254.5T359 95t77.5-130 69.5-80.5 48-38.5q2-2 10-7t11-7.5l9-7.5 8.5-8.5 5-9L600-204q0-17-11-28.5T562-244z"/><glyph glyph-name="parenright" unicode=")" horiz-adv-x="796" d="M235-244q-16 0-27 11.5T197-204q0 5 2.5 10.5t5 9 8.5 8.5l9 7.5 11 7.5 10 7q24 17 48 38.5T360.5-35 438 95t57.5 188.5T521 538q0 478-272 728-3 3-16 13.5t-18.5 16T203 1311t-6 19q0 16 10.5 27t27.5 11q22 0 54-28 314-280 314-802 0-112-15.5-212t-39-172-57-135.5-63-103-63-72.5-52-47-34.5-24q-26-16-44-16z"/><glyph glyph-name="asterisk" unicode="*" horiz-adv-x="712" d="M233 979q-12 0-20.5 7t-8.5 18q0 10 12 26l99 130-143 52q-25 7-25 27 0 28 26 28 6 0 22-6l133-49v154q0 12 8 20.5t20 8.5 20.5-8 8.5-21v-154l132 49q16 6 23 6 26 0 26-28 0-19-25-27l-143-52 99-130q11-15 11-26t-8.5-18-19.5-7q-14 0-25 15l-99 133-99-133q-11-15-24-15z"/><glyph glyph-name="plus" unicode="+" horiz-adv-x="1190" d="M595 52q-17 0-28.5 11T555 92v330H229q-18 0-30 11t-12 29q0 16 12 27t30 11h326v330q0 16 11.5 28t28.5 12 28.5-12 11.5-28V500h326q18 0 30-11t12-27q0-18-12-29t-30-11H635V92q0-18-11.5-29T595 52z"/><glyph glyph-name="comma" unicode="," horiz-adv-x="424" d="M135-216q-18 0-29 10.5T95-178q0 18 12 30 70 73 70 244 0 18 11.5 29t28.5 11 28.5-11T257 96v-8q0-200-92-292-12-12-30-12z"/><glyph glyph-name="hyphen" unicode="-" horiz-adv-x="934" d="M237 422q-18 0-30 11t-12 29q0 16 12 27t30 11h462q18 0 30-11t12-27q0-18-12-29t-30-11H237z"/><glyph glyph-name="period" unicode="." horiz-adv-x="390" d="M195-12q-17 0-28.5 11T155 28v68q0 18 11.5 29t28.5 11 28.5-11T235 96V28q0-18-11.5-29T195-12z"/><glyph glyph-name="slash" unicode="/" horiz-adv-x="788" d="M133-190q-17 0-27.5 10T95-154q0 7 10 34l504 1342q10 26 20.5 38t27.5 12 27.5-10 10.5-26q0-7-10-34L181-140q-10-26-20.5-38T133-190z"/><glyph glyph-name="zero" unicode="0" horiz-adv-x="1112" d="M556-12q-209 0-327.5 171T110 634q0 302 121 481t325 179q202 0 324-180.5T1002 634q0-304-118.5-475T556-12zm0 78q170 0 267 151.5T920 634q0 159-38.5 288t-123 211.5T556 1216q-168 0-266-158t-98-424 96.5-417T556 66z"/><glyph glyph-name="one" unicode="1" horiz-adv-x="592" d="M382 0q-17 0-28.5 11T342 40v1132l-190-128q-27-18-38-18-16 0-28 12t-12 28q0 22 24 38l254 168q17 10 30 10 17 0 28.5-12t11.5-30V40q0-18-11.5-29T382 0z"/><glyph glyph-name="two" unicode="2" horiz-adv-x="938" d="M164 0q-26 0-40 13t-14 33q0 55 34.5 120.5t90.5 129 123 131l134 135 123 132L705.5 826 740 952q0 66-19 115.5t-47 77-67 44.5-71.5 22-67.5 5q-131 0-249-77-23-15-37-15-16 0-27 11.5t-11 26.5q0 23 22 38 149 94 302 94 40 0 78.5-5.5t91-26.5 91-55.5 66-100.5T822 952q0-59-25.5-121T717 699.5t-99-119T496 454Q342 299 292 239q-75-92-98-161h592q18 0 30-11t12-27q0-18-12-29T786 0H164z"/><glyph glyph-name="three" unicode="3" horiz-adv-x="966" d="M468-12q-63 0-121 10t-95 23-67.5 29-42 24.5T126 88q-16 16-16 32t11 27 27 11q14 0 34-14 108-78 286-78 127 0 216.5 78.5T774 334q0 61-21 109t-55 78.5-80 50.5-92 28-94 8h-52q-18 0-29 10.5T340 646q0 40 40 40h52q56 0 110.5 15t103 45.5T724 831t30 123q0 68-22.5 118.5t-54 77T603 1192t-75 20-66 4q-122 0-236-76-24-16-36-16-15 0-26.5 12t-11.5 28q0 19 16 32 127 98 294 98 76 0 140.5-18.5t117-57 82.5-104T832 962q0-246-236-312 120-21 189-104.5T854 338q0-150-113-250T468-12z"/><glyph glyph-name="four" unicode="4" horiz-adv-x="1022" d="M726 0q-17 0-28.5 11T686 40v294H126q-28 0-41 11t-13 27q0 15 20 58 61 129 142 260t147 220 140.5 177 105 120l57.5 59q16 16 35 16 16 0 27.5-10.5T758 1246t-14-32q-2-2-43-46l-81-89-103.5-124L397 798 278.5 616.5 168 412h518v524q0 18 11.5 29t28.5 11 28.5-11 11.5-29V412h120q18 0 30-11t12-27q0-18-12-29t-30-11H766V40q0-18-11.5-29T726 0z"/><glyph glyph-name="five" unicode="5" horiz-adv-x="948" d="M430-12q-168 0-291 84-32 22-32 46 0 17 11.5 27.5T144 156q17 0 46-20 103-70 240-70 49 0 94.5 11.5t88.5 38 74 65.5 50 99.5T756 416q0 134-92.5 223T430 728q-21 0-42.5-3t-36-5.5-36.5-10l-29-10-30-11.5-22-10q-33-14-46-14-20 0-33 13.5T142 718v510q0 26 14 40t40 14h532q18 0 30-11t12-27q0-18-12-29t-30-11H222V756q93 50 208 50 176 0 292-111t116-279q0-91-25-165.5t-65-122-94-80T544 2 430-12z"/><glyph glyph-name="six" unicode="6" horiz-adv-x="1018" d="M522-12q-195 0-305 153-107 149-107 437 0 371 108.5 543.5T558 1294q53 0 101.5-9t78-20 55-26 34.5-22.5 15-13.5q20-20 20-39 0-15-11-25.5t-27-10.5q-14 0-55 28-85 60-211 60-64 0-116-17t-99-59-80-109-53.5-172.5T186 615v-15q38 97 126 157.5T522 818q87 0 156.5-27.5t111-70 69.5-98 38.5-106T908 418q0-52-10.5-106T859 198.5t-69.5-105-111-75.5T522-12zm0 78q69 0 123.5 24.5t87.5 62 55 86 30 92.5 8 87q0 39-8 79.5t-30 85-55 79-87.5 56.5T522 740q-66 0-120.5-22t-88-56.5T257 583t-32-85-9-80q0-42 8.5-86.5t30.5-93 55-86 88-62T522 66z"/><glyph glyph-name="seven" unicode="7" horiz-adv-x="908" d="M312 0q-17 0-28.5 11T272 40q0 77 25 169t77.5 202.5T467 597l109 197 89.5 160.5 64.5 130 42 119.5H92q-18 0-30 11t-12 29q0 16 12 27t30 11h706q60 0 60-54 0-58-56.5-176T644 756q-86-151-139.5-254t-103-238.5T352 40q0-18-11.5-29T312 0z"/><glyph glyph-name="eight" unicode="8" horiz-adv-x="1010" d="M502-12q-184 0-295 96.5T96 344q0 132 68 223t142 109q-74 31-124 100.5T132 956q0 64 17.5 117.5t48 89.5 68 62.5 80.5 41 81 21 75 6.5q72 0 138-20.5t120.5-60 87-106.5T880 956q0-106-64.5-197.5T688 644q27-7 54-20t58.5-38 55.5-57 40-80 16-105q0-172-106-264T502-12zm88 690q75 3 141.5 87.5T798 956q0 58-20.5 105t-51.5 75-71.5 47-78.5 26-74 7q-35 0-71-7t-76-26-70.5-47-50.5-75-20-105q0-63 21.5-110t53.5-75 85-48 100.5-28.5T590 678zM502 66q50 0 93 6.5T682.5 98t76 48.5T810 227t20 117q0 183-200 244-48 14-164 32l-64 10q-87-2-155.5-81T178 344q0-74 28.5-130t76.5-87 103-46 116-15z"/><glyph glyph-name="nine" unicode="9" horiz-adv-x="1018" d="M462-12q-53 0-101.5 9t-78 20-55 26T193 65.5 178 79q-20 20-20 39 0 15 11 25.5t27 10.5q7 0 15.5-3.5T225 144t17.5-12 18.5-13q78-53 201-53 57 0 103.5 13.5t96 52.5 84 103T804 408.5 833 664q0 6 .5 18t.5 18q-38-98-126.5-161T498 476q-87 0-156.5 29t-111 73T161 679t-38.5 107-10.5 96q0 50 10.5 101.5T161 1092t69.5 101 111 72.5T498 1294q209 0 316-164 96-146 96-408 0-378-108.5-556T462-12zm36 566q66 0 120.5 23.5t88 59.5 56.5 81.5 32 86.5 9 77q0 40-8.5 82.5T765 1053t-55 81.5-88 58.5-124 23-123.5-23-87.5-58.5-55-81.5-30-88-8-83q0-37 8-77.5t30-86 55-81.5 87.5-59.5T498 554z"/><glyph glyph-name="colon" unicode=":" horiz-adv-x="390" d="M195 766q-17 0-28.5 11T155 806v68q0 18 11.5 29t28.5 11 28.5-11 11.5-29v-68q0-18-11.5-29T195 766zm0-778q-17 0-28.5 11T155 28v68q0 18 11.5 29t28.5 11 28.5-11T235 96V28q0-18-11.5-29T195-12z"/><glyph glyph-name="uni003B" unicode=";" horiz-adv-x="460" d="M267 766q-17 0-28.5 11T227 806v68q0 18 11.5 29t28.5 11 28.5-11 11.5-29v-68q0-18-11.5-29T267 766zm-82-982q-18 0-29 10.5T145-178q0 18 12 30 70 72 70 244 0 18 11.5 29t28.5 11 28.5-11T307 96v-8q0-200-92-292-12-12-30-12z"/><glyph glyph-name="less" unicode="&lt;" horiz-adv-x="1190" d="M961 34q-12 0-32 10L223 412q-32 16-32 44t32 44l706 368q20 10 32 10 16 0 27-10.5t11-25.5q0-25-34-44L305 456l660-342q34-19 34-44 0-15-11-25.5T961 34z"/><glyph glyph-name="equal" unicode="=" horiz-adv-x="1190" d="M229 544q-18 0-30 11t-12 29q0 16 12 27t30 11h732q18 0 30-11t12-27q0-18-12-29t-30-11H229zm0-238q-18 0-30 11t-12 29q0 16 12 27t30 11h732q18 0 30-11t12-27q0-18-12-29t-30-11H229z"/><glyph glyph-name="greater" unicode="&gt;" horiz-adv-x="1190" d="M229 34q-16 0-27 10.5T191 70q0 25 34 44l660 342-660 342q-34 19-34 44 0 15 11 25.5t27 10.5q12 0 32-10l706-368q32-16 32-44t-32-44L261 44q-20-10-32-10z"/><glyph glyph-name="question" unicode="?" horiz-adv-x="986" d="M422 278q-17 0-28.5 11T382 318q0 57 13.5 108t30 84.5 50.5 72 53.5 56L590 691l22 18q62 51 95 101t33 118q0 120-75.5 198T472 1204t-238-78q-21-14-34-14-17 0-27.5 11.5T162 1152t18 32q8 7 18 14t40 23.5 61 28.5 78 22 95 10q154 0 252-98t98-256q0-60-20-109.5T750.5 734t-70-67l-77-65.5-70-71-51.5-92L462 318q0-16-12-28t-28-12zm0-290q-17 0-28.5 11T382 28v68q0 18 11.5 29t28.5 11 28.5-11T462 96V28q0-18-11.5-29T422-12z"/><glyph glyph-name="at" unicode="@" horiz-adv-x="1494" d="M761-12q-131 0-250.5 51t-206 137-138 205.5T115 632t51.5 251.5 138 207.5 206 139 250.5 52q285 0 451.5-149.5T1379 728q0-79-31-151t-79.5-121-108-77.5T1045 350q-53 0-96 28-41 27-44 72-45-45-103-73.5T685 348q-102 0-158 58t-56 160q0 53 15 110t45 110.5 70.5 96 98 68T821 976q47 0 100-17t84-41q26-20 26-38 0-10-8-58l-25-150.5-17.5-98L972 523l-3-35q0-34 18-49 16-13 46-13 97 0 180.5 87t83.5 215q0 217-145 346.5T761 1204q-152 0-283-78T271 916.5 195 632q0-152 76.5-282.5t207-207T761 66q160 0 300 88 27 18 42 18t26.5-11 11.5-27q0-22-24-38-75-50-168.5-79T761-12zm-68 438q103 0 202 104l56 330q-60 38-144 38-58 0-108-33t-81-84-48-108-17-109q0-138 140-138z"/><glyph glyph-name="A" unicode="A" horiz-adv-x="1124" d="M1059 76q8-28 8-40 0-15-11.5-25.5T1029 0q-29 0-40 32-11 31-58 178l-60 186H251l-61.5-190L133 32Q122 0 93 0 78 0 66.5 10.5T55 36q0 12 8 40 46 163 191 578.5T479 1230q26 52 82 52t82-52q80-160 225-575.5T1059 76zM549 1198q-86-172-234-614l-37-110h566l-29 86q-158 470-242 638-5 10-12 10t-12-10z"/><glyph glyph-name="B" unicode="B" horiz-adv-x="1060" d="M703 660q120-26 181-112t61-204Q945 0 485 0H249q-54 0-54 54v1174q0 54 54 54h238q35 0 59.5-1t69.5-7.5 77.5-18.5 71.5-37 63.5-59.5T870 1070t17-122q0-60-20.5-113.5t-51.5-88-59.5-56T703 660zm-220 544H275V686h246q64 0 115 17.5t82 44.5 51.5 63 28 69.5T805 948q0 52-13.5 94t-33 68-51 45-57.5 28-62.5 14.5-56 6-48.5.5zm4-1126q376 0 376 266 0 264-322 264H275V78h212z"/><glyph glyph-name="C" unicode="C" horiz-adv-x="1192" d="M669-12q-158 0-284.5 84t-198 233T115 640q0 183 75 333t206.5 235.5T689 1294q206 0 356-96 32-20 32-44 0-16-10.5-27t-27.5-11q-15 0-36 14-129 86-314 86-138 0-251-75.5T261 933t-64-293q0-248 133.5-411T669 66q170 0 322 82 22 12 34 12 15 0 26.5-11t11.5-27q0-24-36-44-171-90-358-90z"/><glyph glyph-name="D" unicode="D" horiz-adv-x="1276" d="M249 0q-54 0-54 54v1174q0 54 54 54h336q175 0 307-83.5T1093.5 969t69.5-333q0-283-156-459.5T585 0H249zm26 78h310q154 0 267 71.5t171 197 58 289.5q0 252-133 410t-363 158H275V78z"/><glyph glyph-name="E" unicode="E" horiz-adv-x="982" d="M249 0q-54 0-54 54v1174q0 54 54 54h530q18 0 30-11t12-27q0-18-12-29t-30-11H275V714h468q18 0 30-11t12-27q0-18-12-29t-30-11H275V78h542q18 0 30-11t12-27q0-18-12-29T817 0H249z"/><glyph glyph-name="F" unicode="F" horiz-adv-x="924" d="M235 0q-17 0-28.5 11T195 40v1188q0 54 54 54h530q18 0 30-11t12-27q0-18-12-29t-30-11H275V714h468q18 0 30-11t12-27q0-18-12-29t-30-11H275V40q0-18-11.5-29T235 0z"/><glyph glyph-name="G" unicode="G" horiz-adv-x="1238" d="M669-12q-158 0-284.5 83.5t-198 232T115 638q0 183 75 333.5T396.5 1208t292.5 86q187 0 334-88 26-15 26-40 0-16-11.5-27t-26.5-11q-12 0-32 10-43 23-74 36.5t-91 27.5-125 14q-138 0-251-76T261 931.5 197 638q0-248 133.5-410T669 66q184 0 334 78v302q0 66-17 82t-87 16H743q-18 0-30 11t-12 29q0 16 12 27t30 11h156q115 0 149.5-33.5T1083 444V138q0-44-44-66-168-84-370-84z"/><glyph glyph-name="H" unicode="H" horiz-adv-x="1226" d="M235 0q-17 0-28.5 11T195 40v1202q0 18 11.5 29t28.5 11 28.5-11 11.5-29V714h676v528q0 18 11.5 29t28.5 11 28.5-11 11.5-29V40q0-18-11.5-29T991 0t-28.5 11T951 40v596H275V40q0-18-11.5-29T235 0z"/><glyph glyph-name="I" unicode="I" horiz-adv-x="470" d="M235 0q-17 0-28.5 11T195 40v1202q0 18 11.5 29t28.5 11 28.5-11 11.5-29V40q0-18-11.5-29T235 0z"/><glyph glyph-name="J" unicode="J" horiz-adv-x="502" d="M31-296q-40 0-74 8-28 6-41 16t-13 29q0 18 10 27.5t26 9.5q7 0 35-6 32-6 57-6 38 0 70 10.5t62 34.5 47 70.5T227 8v1234q0 18 11.5 29t28.5 11 28.5-11 11.5-29V8q0-86-25-148.5t-68-95-88-46.5-95-14z"/><glyph glyph-name="K" unicode="K" horiz-adv-x="1130" d="M235 0q-17 0-28.5 11T195 40v1202q0 18 11.5 29t28.5 11 28.5-11 11.5-29V710l550 556q16 16 34 16 16 0 27-11.5t11-26.5q0-18-18-36L353 678q97-68 252.5-216.5T947 78q20-26 20-40 0-16-11.5-27T927 0q-19 0-36 22-169 213-333 371.5T300 620l-25 18V40q0-18-11.5-29T235 0z"/><glyph glyph-name="L" unicode="L" horiz-adv-x="914" d="M249 0q-54 0-54 54v1188q0 18 11.5 29t28.5 11 28.5-11 11.5-29V78h544q18 0 30-11t12-27q0-18-12-29T819 0H249z"/><glyph glyph-name="M" unicode="M" horiz-adv-x="1616" d="M194 0q-16 0-27 11.5T156 40q0 12 4 44l128 1138q7 60 61 60h1q50 0 76-44 66-107 180-457t201-653h2q85 297 200 649.5t181 460.5q26 44 76 44h1q54 0 61-60L1456 84q4-32 4-44 0-17-11-28.5T1422 0q-38 0-42 42l-124 1156q-21-22-64-131-117-296-322-983-14-48-61-48h-2q-47 0-61 48-225 751-335 1015-33 79-51 99L236 42q-5-42-42-42z"/><glyph glyph-name="N" unicode="N" horiz-adv-x="1218" d="M983 1282q17 0 28.5-11t11.5-29V62q0-29-17-45.5T962 0q-45 0-81 36-49 49-137 225-63 126-197 420-142 311-207 421-39 65-65 94V40q0-18-11.5-29T235 0t-28.5 11T195 40v1180q0 29 17 45.5t45 16.5h1q39 0 69-27t65-82q70-111 243-493 118-260 172-367 87-174 136-227v1156q0 18 11.5 29t28.5 11z"/><glyph glyph-name="O" unicode="O" horiz-adv-x="1306" d="M653-12q-112 0-212 50T269.5 174t-113 207T115 638q0 183 70.5 333.5t194 236.5 273.5 86q154 0 277-84.5T1122 975t69-337q0-186-69-334.5t-192-232T653-12zm0 78q199 0 327.5 162T1109 638q0 164-58 296t-162.5 207-235.5 75q-128 0-232.5-76t-164-208.5T197 638q0-160 59.5-291t164-206T653 66z"/><glyph glyph-name="P" unicode="P" horiz-adv-x="958" d="M235 0q-17 0-28.5 11T195 40v1188q0 54 54 54h296q153 0 256.5-95T905 950q0-97-32-170t-85.5-114T673 605.5 545 586H275V40q0-18-11.5-29T235 0zm40 664h270q51 0 98 15.5t88.5 47.5 66.5 89.5T823 950q0 108-79 181t-199 73H275V664z"/><glyph glyph-name="Q" unicode="Q" horiz-adv-x="1302" d="M1045-244Q706-244 581-8 379 21 247 202.5T115 638q0 183 70 333.5T378.5 1208t274.5 86q154 0 277.5-84.5t193-234.5 69.5-337q0-250-119.5-419T758 6q-37-9-77-12 45-85 140-123.5t216-38.5q44 0 105 7 20 3 31 3 19 0 29.5-10t10.5-26q0-36-54-44-39-6-114-6zM653 66q199 0 328.5 162T1111 638q0 164-58.5 296T889 1141t-236 75q-129 0-233.5-76T256 931.5 197 638q0-160 59-291t163.5-206T653 66z"/><glyph glyph-name="R" unicode="R" horiz-adv-x="1062" d="M235 0q-17 0-28.5 11T195 40v1188q0 54 54 54h316q156 0 258-91t102-231q0-88-28-154.5T823.5 703t-92-54-94.5-21q39-14 80.5-58.5t71.5-91T856 357t53.5-114L953 138q32-75 32-98 0-18-11.5-29T945 0q-27 0-40 32-52 132-89 215t-78.5 159T658 522t-83.5 63-99.5 23H275V40q0-18-11.5-29T235 0zm40 686h290q27 0 54.5 3.5T690 709t74.5 43.5 55 81.5T843 960q0 107-78.5 175.5T565 1204H275V686z"/><glyph glyph-name="S" unicode="S" horiz-adv-x="964" d="M461-12q-72 0-139.5 21.5T217.5 54 136 112q-21 17-21 38 0 16 11 26t26 10 34-14q28-21 48-34t57-32.5T371.5 76 461 66q142 0 224 73t82 197q0 66-34 118t-88 86-119.5 64.5l-131 64-119.5 73-88 102L153 986q0 136 105 222t247 86q147 0 296-106 20-15 20-36 0-17-12-28.5t-28-11.5q-12 0-28 11-133 93-248 93-108 0-189-65.5T235 986q0-66 34-117.5t88-85.5 119.5-64.5l131-63.5L727 582l88-102.5L849 336q0-157-106-252.5T461-12z"/><glyph glyph-name="T" unicode="T" horiz-adv-x="954" d="M473 0q-17 0-28.5 11T433 40v1164H77q-18 0-30 11t-12 29q0 16 12 27t30 11h800q18 0 30-11t12-27q0-18-12-29t-30-11H513V40q0-18-11.5-29T473 0z"/><glyph glyph-name="U" unicode="U" horiz-adv-x="1198" d="M599-12q-135 0-231.5 59.5T226 201t-45 209v832q0 18 11.5 29t28.5 11 28.5-11 11.5-29V414q0-156 90.5-252T599 66t247.5 96T937 414v828q0 18 11.5 29t28.5 11 28.5-11 11.5-29V410q0-115-45-209T830.5 47.5 599-12z"/><glyph glyph-name="V" unicode="V" horiz-adv-x="1122" d="M561 0q-56 0-82 52-80 160-225 575.5T63 1206q-8 28-8 40 0 16 11.5 26t28.5 10q30 0 39-33 34-122 179-547Q468 245 549 84q5-10 12-10t12 10q77 155 237 620 143 417 177 541 11 37 42 37 17 0 27.5-10t10.5-26q0-12-8-40-46-163-191-578.5T643 52Q617 0 561 0z"/><glyph glyph-name="W" unicode="W" horiz-adv-x="1574" d="M419 0q-37 0-57 18t-37 60q-43 107-126.5 480T63 1196q-8 37-8 48 0 17 11 27.5t28 10.5q34 0 42-41Q341 216 407 84q5-10 12-10t12 10q32 65 105 339.5t116.5 457L727 1200q10 46 60 46t60-46l74.5-319.5 116.5-457L1143 84q5-10 12-10t12 10q74 147 270 1154 9 44 44 44 17 0 27.5-10.5t10.5-27.5q0-5-8-48-52-265-135.5-638T1249 78q-17-42-37-60t-57-18q-35 0-56 18t-38 60q-36 85-130 446.5T792 1113l-5 27-5-27q-42-221-137-584T513 78q-17-42-38-60T419 0z"/><glyph glyph-name="X" unicode="X" horiz-adv-x="972" d="M905 72q12-24 12-36 0-16-12-26T877 0q-24 0-38 28-150 291-344 586L135 30Q117 0 93 0 77 0 66 10T55 36q0 15 16 40l376 612Q256 996 97 1214q-12 17-12 32t11.5 25.5T123 1282q23 0 38-20 91-121 336-500l312 496q15 24 38 24 16 0 27-11t11-25-20-46L545 686Q761 361 905 72z"/><glyph glyph-name="Y" unicode="Y" horiz-adv-x="962" d="M481 0q-17 0-28.5 11T441 40v474q-18 13-38 38-132 171-334 658-10 25-10 34 0 15 11 26.5t27 11.5q26 0 38-26l92.5-210 128-264.5L469 594q8-8 12-8t12 8q36 35 113.5 187.5t128 264.5l92.5 210q12 26 38 26 16 0 27-11.5t11-26.5q0-9-10-34-202-487-334-658-20-25-38-38V40q0-18-11.5-29T481 0z"/><glyph glyph-name="Z" unicode="Z" horiz-adv-x="922" d="M115 0Q55 0 55 57v1q0 24 16 56 44 89 270 452.5L703 1135l46 69H99q-18 0-30 11t-12 29q0 16 12 27t30 11h680q60 0 60-54v-1q0-35-44-101-58-86-277.5-434.5L195 169q-39-65-52-91h684q18 0 30-11t12-27q0-18-12-29T827 0H115z"/><glyph glyph-name="bracketleft" unicode="[" horiz-adv-x="716" d="M249-184q-54 0-54 54v1358q0 54 54 54h230q18 0 30-11t12-27q0-18-12-29t-30-11H275V-106h204q18 0 30-11t12-27q0-18-12-29t-30-11H249z"/><glyph glyph-name="backslash" unicode="\" horiz-adv-x="808" d="M677-134q-29 0-42 36L107 1304q-12 33-12 42 0 15 11 25.5t27 10.5q29 0 42-36L703-56q12-30 12-40 0-16-10.5-27T677-134z"/><glyph glyph-name="bracketright" unicode="]" horiz-adv-x="716" d="M237-184q-18 0-30 11t-12 29q0 16 12 27t30 11h204v1310H237q-18 0-30 11t-12 29q0 16 12 27t30 11h230q54 0 54-54V-130q0-54-54-54H237z"/><glyph glyph-name="asciicircum" unicode="^" horiz-adv-x="1020" d="M164 484q-17 0-28.5 11T124 522q0 13 18 52l322 668q19 40 46 40t46-40l322-668q18-39 18-52 0-16-11.5-27T856 484q-27 0-42 34l-304 636-304-636q-15-34-42-34z"/><glyph glyph-name="underscore" unicode="_" horiz-adv-x="1012" d="M117-166q-18 0-30 11t-12 29q0 16 12 27t30 11h778q18 0 30-11t12-27q0-18-12-29t-30-11H117z"/><glyph glyph-name="a" unicode="a" horiz-adv-x="896" d="M405-12q-140 0-225 73T95 254q0 142 109 220t362 78h95v88q0 34-12 67t-36 64-69 50-103 19q-111 0-204-40-8-3-19-8t-16-7-12-4-13-2q-15 0-25 11t-10 27q0 21 22 34 41 25 114 46t163 21q135 0 217.5-76.5T741 640V172q0-48 11.5-68T789 77q32-10 32-39 0-38-42-38-73 0-106 78-102-90-268-90zm0 78q85 0 153.5 26T661 160v316h-94q-111 0-189-16t-121-47-61.5-69.5T177 254q0-88 60.5-138T405 66z"/><glyph glyph-name="b" unicode="b" horiz-adv-x="978" d="M473-12q-155 0-290 76-28 16-28 52v1220q0 18 11.5 29t28.5 11 28.5-11 11.5-29V854q110 64 244 64 184 0 294-126.5T883 456q0-210-113.5-339T473-12zm0 78q66 0 121.5 22t93 59.5 63.5 88 38 106T801 456q0 177-87.5 280.5T479 840q-134 0-244-70V124q113-58 238-58z"/><glyph glyph-name="c" unicode="c" horiz-adv-x="918" d="M503-12q-183 0-295.5 129T95 456q0 195 130.5 328.5T545 918q54 0 114.5-16T763 861q28-16 38-27t10-28q0-14-10.5-25.5T775 769q-16 0-42 15-92 56-188 56-157 0-262.5-110T177 456q0-74 19.5-142t58-124.5 102.5-90T503 66q108 0 230 54 46 21 55 21 15 0 25.5-11.5T824 102q0-24-38-44-60-31-138-50.5T503-12z"/><glyph glyph-name="d" unicode="d" horiz-adv-x="980" d="M505-12q-183 0-296.5 128T95 454q0 200 123 332t313 132q112 0 212-64v482q0 18 11.5 29t28.5 11 28.5-11 11.5-29V172q0-48 11.5-68T871 77q32-10 32-39 0-38-42-38-78 0-106 78-138-90-250-90zm0 78q60 0 124.5 26.5T743 154v616q-103 70-212 70-155 0-255.5-109T175 454q0-74 20-142t59-123.5 104-89T505 66z"/><glyph glyph-name="e" unicode="e" horiz-adv-x="918" d="M485-12q-174 0-282 127.5T95 450q0 214 109.5 341T497 918q144 0 232-79.5T817 666q0-53-19.5-94.5t-59-70.5-92-49-127-31.5-155-16.5-183.5-6q6-140 89-236t215-96q115 0 268 68 23 10 34 10 15 0 25.5-11.5T823 106q0-23-30-40-24-13-62-28T621 5.5 485-12zM177 472q302 1 430 46.5T735 666q0 63-65 118.5T497 840q-141 0-228.5-96T177 472z"/><glyph glyph-name="f" unicode="f" horiz-adv-x="634" d="M229 0q-17 0-28.5 11T189 40v788H77q-18 0-30 11t-12 29q0 16 12 27t30 11h112v100q0 82 17.5 146.5t45.5 104 66 65.5 76 36 79 10q75 0 130-18 25-8 36.5-17.5T651 1306q0-16-11-26t-27-10q-14 0-36 5-68 15-104 15-88 0-146-67t-58-217V906h270q18 0 30-11t12-27q0-18-12-29t-30-11H269V40q0-18-11.5-29T229 0z"/><glyph glyph-name="g" unicode="g" horiz-adv-x="964" d="M367-420q-60 0-117.5 13.5t-84 25.5-40.5 21q-22 15-22 36 0 15 10.5 26.5T139-286q12 0 42-14 84-42 186-42 44 0 86 6t94.5 26.5 90.5 54 64.5 95.5T729-16v88Q601-12 483-12q-180 0-290 128T83 456q0 203 119 332.5T511 918q157 0 248-63 50-34 50-71V-10q0-98-30-173.5t-75.5-119-107-71-116.5-37-113-9.5zM483 66q70 0 139.5 28.5T729 164v614q-112 62-218 62-154 0-250-107.5T165 456q0-178 86-284T483 66z"/><glyph glyph-name="h" unicode="h" horiz-adv-x="976" d="M195 0q-17 0-28.5 11T155 40v1296q0 18 11.5 29t28.5 11 28.5-11 11.5-29V846q123 72 260 72 97 0 159.5-20t100-67 52-115T821 542V40q0-18-11.5-29T781 0t-28.5 11T741 40v528q0 159-54 215.5T481 840q-69 0-137-22t-109-48V40q0-18-11.5-29T195 0z"/><glyph glyph-name="i" unicode="i" horiz-adv-x="390" d="M195 1138q-17 0-28.5 11t-11.5 29v72q0 18 11.5 29t28.5 11 28.5-11 11.5-29v-72q0-18-11.5-29t-28.5-11zM195 0q-17 0-28.5 11T155 40v826q0 18 11.5 29t28.5 11 28.5-11 11.5-29V40q0-18-11.5-29T195 0z"/><glyph glyph-name="j" unicode="j" horiz-adv-x="396" d="M201 1138q-17 0-28.5 11t-11.5 29v72q0 18 11.5 29t28.5 11 28.5-11 11.5-29v-72q0-18-11.5-29t-28.5-11zM-35-420q-47 0-84 10-46 13-46 44 0 16 10 26t25 10q13 0 38-5 31-7 57-7 38 0 70 10.5T97-297t47 70.5T161-116v982q0 18 11.5 29t28.5 11 28.5-11 11.5-29v-982q0-86-25-148.5t-68-95T60-406t-95-14z"/><glyph glyph-name="k" unicode="k" horiz-adv-x="812" d="M195 0q-17 0-28.5 11T155 40v1296q0 18 11.5 29t28.5 11 28.5-11 11.5-29V538l376 350q18 18 34 18 17 0 28.5-11t11.5-27q0-18-16-34L315 510l76.5-62.5 95-83 133.5-131L761 72q16-19 16-34 0-16-11.5-27T737 0q-11 0-21 8.5T685 42Q500 268 252 455q-9 6-12 9l-5 4V40q0-18-11.5-29T195 0z"/><glyph glyph-name="l" unicode="l" horiz-adv-x="444" d="M353 0q-50 0-86 15t-57.5 39.5-34 64.5-16.5 82.5-4 101.5v1033q0 18 11.5 29t28.5 11 28.5-11 11.5-29V324q0-111 12-162.5T293 92q25-14 74-14 20 0 31-10.5T409 40q0-40-56-40z"/><glyph glyph-name="m" unicode="m" horiz-adv-x="1514" d="M195 0q-17 0-28.5 11T155 40v826q0 17 11 28.5t27 11.5q17 0 27.5-11.5T231 866v-24q125 76 252 76 176 0 248-84 59 38 142.5 61t163.5 23q171 0 246.5-77.5T1359 578V40q0-18-11.5-29T1319 0t-28.5 11-11.5 29v530q0 154-57.5 212T1023 840q-68 0-139-19t-121-47q36-72 36-196V40q0-18-11.5-29T759 0t-28.5 11T719 40v530q0 156-54.5 213T469 840q-69 0-131.5-21.5T235 770V40q0-18-11.5-29T195 0z"/><glyph glyph-name="n" unicode="n" horiz-adv-x="976" d="M195 0q-17 0-28.5 11T155 40v826q0 17 11 28.5t27 11.5q17 0 27.5-11.5T231 866v-24q127 76 264 76 178 0 252-77t74-263V40q0-18-11.5-29T781 0t-28.5 11T741 40v530q0 156-56 213t-204 57q-69 0-137-22t-109-48V40q0-18-11.5-29T195 0z"/><glyph glyph-name="o" unicode="o" horiz-adv-x="970" d="M485-12q-174 0-282 127.5T95 450q0 211 107.5 339.5T485 918t283.5-128.5T877 450q0-213-106-337.5T485-12zm0 78q145 0 227.5 102T795 450t-83.5 285T485 840q-140 0-224-106t-84-284q0-174 83.5-279T485 66z"/><glyph glyph-name="p" unicode="p" horiz-adv-x="978" d="M195-470q-17 0-28.5 11T155-430V866q0 17 11 28.5t27 11.5q17 0 27.5-11.5T231 866v-20q114 72 244 72 183 0 295.5-126T883 458q0-202-124-336T447-12q-57 0-117.5 21.5T235 52v-482q0-18-11.5-29T195-470zM447 66q154 0 254 113t100 279q0 174-89 278T475 840q-67 0-131.5-20.5T235 770V136q38-25 96-47.5T447 66z"/><glyph glyph-name="q" unicode="q" horiz-adv-x="978" d="M783-470q-17 0-28.5 11T743-430V48Q694 21 626 4.5T499-12q-184 0-294 127T95 454q0 208 112.5 336T503 918q130 0 244-72v20q0 17 10.5 28.5T785 906q16 0 27-11.5t11-28.5V-430q0-18-11.5-29T783-470zM499 66q59 0 133 21t111 45v638q-44 29-108.5 49.5T503 840q-148 0-237-106t-89-280q0-177 87.5-282.5T499 66z"/><glyph glyph-name="r" unicode="r" horiz-adv-x="678" d="M195 0q-17 0-28.5 11T155 40v826q0 18 11.5 29t28.5 11 28.5-11 11.5-29V710q26 99 102.5 153.5T511 918q48 0 91-10 39-10 39-41 0-17-11.5-28.5T601 827q-12 0-32 5-32 8-54 8-32 0-63-7t-72-34-71.5-70.5-52-125.5T235 412V40q0-18-11.5-29T195 0z"/><glyph glyph-name="s" unicode="s" horiz-adv-x="800" d="M403-12q-146 0-280 78-28 18-28 42 0 16 10.5 27t26.5 11q11 0 49-20 109-60 222-60 96 0 158 48.5T623 242q0 40-27 72.5t-69.5 56-94.5 46T328 464t-94.5 54-69.5 72-27 96q0 76 44.5 130.5t108.5 78T429 918q120 0 212-48 34-17 34-42 0-17-10-27.5T640 790q-13 0-46 14-82 36-165 36-87 0-148.5-40T219 686q0-37 27-68.5t69.5-55T410 516t104-48.5 94.5-55.5 69.5-73.5 27-96.5q0-112-86-183T403-12z"/><glyph glyph-name="t" unicode="t" horiz-adv-x="680" d="M471-12q-47 0-85 6.5t-79.5 28T237 80t-46 99.5T173 328v500H61q-18 0-30 11t-12 29q0 16 12 27t30 11h112v244q0 18 11.5 29t28.5 11 28.5-11 11.5-29V906h272q18 0 30-11t12-27q0-18-12-29t-30-11H253V328q0-67 13.5-116t34-76.5 51-44 57.5-21 60-4.5q49 0 88 14 44 16 52 16 16 0 26-10.5T645 60q0-25-32-42-53-30-142-30z"/><glyph glyph-name="u" unicode="u" horiz-adv-x="974" d="M481-12q-182 0-254 73.5T155 322v544q0 18 11.5 29t28.5 11 28.5-11 11.5-29V330q0-157 53-210.5T495 66q131 0 246 104v696q0 18 11.5 29t28.5 11 28.5-11 11.5-29V40q0-18-10.5-29T783 0t-28.5 11T743 40v50Q630-12 481-12z"/><glyph glyph-name="v" unicode="v" horiz-adv-x="852" d="M426 0q-46 0-72 48-55 103-154.5 364.5T47 826q-9 24-10 32-1 6-1 12 0 15 10 25.5T74 906q30 0 40-30 40-121 132.5-368T411 111l15-31q2 3 5 9.5t6 12 5 10.5q71 150 162 394t134 370q10 30 40 30 17 0 27.5-10.5T816 868q0-5-2-15-2-5-12-37Q592 224 498 48 472 0 426 0z"/><glyph glyph-name="w" unicode="w" horiz-adv-x="1292" d="M342 0q-29 0-47 18t-35 60q-54 135-126.5 393.5T38 842q-4 20-4 28 0 16 11 26t29 10q31 0 40-36Q273 261 339 97q1-3 7-17 1 3 3.5 8.5T353 97q39 94 123 370.5T592 866q10 40 54 40t54-40q32-122 116.5-400T940 94l6-14 6 14q76 188 226 776 9 36 41 36 17 0 28-9.5t11-25.5q0-9-4-29-23-112-95.5-370.5T1032 78q-17-42-35-60T950 0q-47 0-74 48-28 50-99 282T655 753l-9 33-9-33q-51-191-122-423T416 48Q389 0 342 0z"/><glyph glyph-name="x" unicode="x" horiz-adv-x="772" d="M75 0Q58 0 46.5 11T35 38q0 14 14 34l296 416Q175 709 69 826q-24 27-24 42 0 16 11.5 27T83 906q18 0 34-16 25-25 105-123l171-217 234 328q20 28 42 28 17 0 28.5-11t11.5-27q0-15-20-42L443 488Q594 291 723 74q14-23 14-36 0-16-12-27T697 0q-23 0-40 30-91 161-264 390L117 30Q96 0 75 0z"/><glyph glyph-name="y" unicode="y" horiz-adv-x="852" d="M120-420q-52 0-91 13-26 8-37 18.5T-19-362t11 27.5T17-323q8 0 34-8 33-11 66-11 37 0 67 10.5t69 43 81 105T419 0q-11 8-30 36-54 78-139.5 284t-131 332.5T53 840q-6 18-6 28 0 17 11 27.5T87 906q27 0 38-32l66-184 118-302.5L433 118q12-20 20-28l286 784q12 32 38 32 18 0 29-10.5t11-27.5q0-8-12-42L521 44q-43-119-89-206.5t-85-136-82-77-75.5-36.5-69.5-8z"/><glyph glyph-name="z" unicode="z" horiz-adv-x="890" d="M147 0Q98 0 98 47q0 7 1.5 15t3 14 5.5 14.5 7 13.5l9.5 15.5L134 135l12 17.5 12 17.5q56 83 242 324l265 334H139q-18 0-30 11t-12 29q0 16 12 27t30 11h571q49 0 49-47 0-30-13-54t-48-67L510 502Q233 148 191 78h562q18 0 30-11t12-27q0-18-12-29T753 0H147z"/><glyph glyph-name="braceleft" unicode="{" horiz-adv-x="716" d="M485-188q-51 0-90.5 10T317-143t-59 77-21 128v336q0 34-10 57.5t-18 31-25 20.5q-25 20-25 43 0 7 1.5 12.5t3 9 6.5 8.5l6.5 6.5 9 7 8.5 6.5q43 33 43 102v338q0 76 21 128t59 77 77.5 35 90.5 10q30 0 48-6 26-9 26-34 0-17-11-27.5t-29-10.5h-24q-93 0-135.5-34T317 1040V698q0-101-56-148 56-47 56-148V62q0-104 42.5-138T495-110h24q18 0 29-10.5t11-27.5q0-24-23-33-17-7-51-7z"/><glyph glyph-name="bar" unicode="|" horiz-adv-x="476" d="M239-134q-17 0-28.5 11T199-94v1390q0 18 11.5 29t28.5 11 28.5-11 11.5-29V-94q0-18-11.5-29T239-134z"/><glyph glyph-name="braceright" unicode="}" horiz-adv-x="716" d="M232-187q-34 0-51 7-23 10-23 33 0 17 11 27.5t29 10.5h24q93 0 135.5 34T400 63v340q0 101 56 148-56 47-56 148v342q0 104-42.5 138T222 1213h-24q-18 0-29 10.5t-11 27.5q0 25 26 34 18 6 48 6 51 0 90.5-10t77.5-35 59-77 21-128V703q0-69 43-102 2-2 7.5-6l7.5-5.5 6-5.5 6-6.5 4-7 3-9 1-10.5q0-23-25-43-2-1-7-5t-7-6-7-6.5-7.5-7.5-6.5-8.5-6-10.5-4.5-12.5-4-15-2.5-17-1-20.5V63q0-76-21-128t-59-77-77.5-35-90.5-10z"/><glyph glyph-name="asciitilde" unicode="~" horiz-adv-x="756" d="M501 838q-54 0-125 23-67 21-119 21-27 0-59-17-38-21-45-21-38 0-38 36 0 23 41 49 46 29 101 29 51 0 123-22 70-22 121-22 32 0 62 19 32 19 42 19 38 0 38-36 0-26-46-52-47-26-96-26z"/><glyph glyph-name="uni00A0" horiz-adv-x="400"/><glyph glyph-name="exclamdown" unicode="¡" horiz-adv-x="448" d="M224 786q-17 0-28.5 11T184 826v68q0 18 11.5 29t28.5 11 28.5-11 11.5-29v-68q0-18-11.5-29T224 786zm0-1146q-17 0-28.5 11T184-320v916q0 18 11.5 29t28.5 11 28.5-11 11.5-29v-916q0-18-11.5-29T224-360z"/><glyph glyph-name="cent" unicode="¢" horiz-adv-x="1238" d="M677-124q-17 0-28.5 11T637-84v73Q464-1 359.5 126.5T255 456q0 176 108.5 304T637 913v83q0 18 11.5 29t28.5 11 28.5-11 11.5-29v-78q9 0 17-1 111-10 189-56 28-16 38-27t10-28q0-14-10.5-25.5T935 769q-16 0-42 15-92 56-188 56-157 0-262.5-110T337 456q0-74 19.5-142t58-124.5 102.5-90T663 66q108 0 230 54 46 21 55 21 15 0 25.5-11.5T984 102q0-24-38-44Q843 4 717-9v-75q0-18-11.5-29T677-124z"/><glyph glyph-name="sterling" unicode="£" horiz-adv-x="1320" d="M371 0q-18 0-29 11t-11 29q0 15 18 42 39 62 53.5 119.5T417 340q0 117-8 224H303q-18 0-30 11t-12 29q0 16 12 27t30 11h100q-8 76-8 162 0 458 360 458 77 0 138-21 46-15 46-47 0-17-10-27.5t-28-10.5q-4 0-54 13-60 15-92 15-64 0-112-17.5t-87.5-58.5-60-117.5T475 804q0-86 8-162h330q18 0 30-11t12-27q0-18-12-29t-30-11H489q8-107 8-224 0-146-60-262h586q18 0 30-11t12-27q0-18-12-29t-30-11H371z"/><glyph glyph-name="currency" unicode="¤" horiz-adv-x="1132" d="M567 184q-132 0-230 82l-48-44q-22-20-38-20t-27 12-11 28 24 40l40 40q-82 98-82 232t82 232l-40 40q-24 24-24 40t11 28 27 12 38-20l48-44q101 82 230 82 134 0 232-82l46 44q20 20 38 20 16 0 27-12t11-28-24-40l-42-40q84-100 84-232 0-129-84-232l42-40q24-24 24-40t-11-28-27-12q-18 0-38 20l-46 44q-98-82-232-82zm0 78q120 0 205 86t85 206-85 206-205 86-205-86-85-206 85-206 205-86z"/><glyph glyph-name="yen" unicode="¥" horiz-adv-x="1330" d="M667 0q-17 0-28.5 11T627 40v262H301q-18 0-30 11t-12 29q0 16 12 27t30 11h326v128H301q-18 0-30 11t-12 29q0 16 12 27t30 11h264q-78 113-167.5 302T255 1210q-10 25-10 34 0 15 11 26.5t27 11.5q27 0 38-26 12-29 70-159.5t143-300T655 594q8-8 12-8t12 8q36 33 121 202.5t143 300 70 159.5q10 26 38 26 18 0 28-10.5t10-25.5q0-11-10-36-185-443-310-624h264q18 0 30-11t12-27q0-18-12-29t-30-11H707V380h326q18 0 30-11t12-27q0-18-12-29t-30-11H707V40q0-18-11.5-29T667 0z"/><glyph glyph-name="brokenbar" unicode="¦" horiz-adv-x="470" d="M235 762q-17 0-28.5 11T195 802v494q0 18 11.5 29t28.5 11 28.5-11 11.5-29V802q0-18-11.5-29T235 762zm0-896q-17 0-28.5 11T195-94v494q0 18 11.5 29t28.5 11 28.5-11 11.5-29V-94q0-18-11.5-29T235-134z"/><glyph glyph-name="section" unicode="§" horiz-adv-x="1240" d="M609-186q-161 0-284 76-28 17-28 42 0 16 11.5 27T335-30q8 0 49-22 107-56 225-56 96 0 158 51.5T829 76q0 38-9.5 68.5T797 195t-37.5 39-43 29L667 289q-9 5-14 7l-136 70-53 28-48 27.5-49.5 35-35 37.5-28.5 49-8 55q0 90 66 169t170 107q-21 9-29.5 13T471 902.5 438 923l-29.5 24-28.5 31.5-20.5 37.5-15.5 47-5 55q0 76 45.5 130.5t111 78T637 1350q127 0 230-60 32-18 32-44 0-15-10-24.5t-24-9.5q-15 0-60 20-87 40-168 40-85 0-150.5-40.5T421 1118q0-26 4.5-47.5t18-39L466 1003l33.5-25.5L533 958l40-20 120-60 50-25 47.5-27 49-33.5 40-38.5 36-49 20.5-57 9-70q0-42-16.5-80.5t-40-65-53.5-49-51-33.5-39-18q166-80 166-256 0-114-85.5-188T609-186zm64 562q21 8 46 22t61 39 59.5 62.5T863 578q0 46-16.5 83t-50 65.5-67.5 48-84 41.5l-32 14q-107-19-172.5-83T375 598q0-23 13-44.5t29.5-37.5 52-37 58.5-32.5l71-34.5z"/><glyph glyph-name="copyright" unicode="©" horiz-adv-x="1692" d="M845 172q-132 0-252 51.5t-207.5 138-139 207T195 822q0 132 51.5 252.5t138.5 208T592.5 1422t252.5 52q133 0 253.5-52t208-139.5 139-208T1497 822q0-177-87.5-326.5T1172 259t-327-87zm0 60q159 0 295 79.5T1355.5 527t79.5 295q0 158-79.5 294.5t-215.5 217-295 80.5q-158 0-294-80.5t-215-217T257 822q0-159 79.5-295t215-215.5T845 232zm-4 248q-131 0-216.5 100.5T539 834t89.5 254.5T853 1190q99 0 180-46 32-18 32-40 0-12-8-19t-20-7q-15 0-28 8-76 42-156 42-108 0-179-84t-71-210 67.5-210T841 540q84 0 164 44 13 8 28 8 12 0 20-7t8-19q0-22-32-40-81-46-188-46z"/><glyph glyph-name="ordfeminine" unicode="ª" horiz-adv-x="1044" d="M487 592q-61 0-114.5 21.5T282 684t-37 116q0 200 284 200h132v80q0 66-42 105t-110 39q-70 0-136-26-49-20-59-20-15 0-25 10t-10 26q0 20 13 30.5t41 21.5q82 34 176 34 106 0 168-61t62-159V730q0-13 5.5-24.5T756 688t14.5-13 10.5-9q14-14 14-30 0-13-10.5-22.5T757 604q-5 0-13 1.5t-20 6.5-24 17.5-19 30.5q-81-68-194-68zm0 78q115 0 174 68v194H529q-202 0-202-132 0-63 47.5-96.5T487 670z"/><glyph glyph-name="guillemotleft" unicode="«" horiz-adv-x="838" d="M381 96q-24 0-42 26L153 400q-16 22-16 40t16 40l186 278q18 26 42 26 15 0 26.5-11t11.5-27q0-15-16-38L219 440l184-268q16-23 16-38 0-16-11.5-27T381 96zm282 0q-24 0-42 26L435 400q-16 22-16 40t16 40l186 278q18 26 42 26 15 0 26.5-11t11.5-27q0-15-16-38L501 440l184-268q16-23 16-38 0-16-11.5-27T663 96z"/><glyph glyph-name="logicalnot" unicode="¬" horiz-adv-x="1190" d="M987 162q-17 0-28.5 11T947 202v222H205q-18 0-30 11t-12 29q0 16 12 27t30 11h768q54 0 54-56V202q0-18-11.5-29T987 162z"/><glyph glyph-name="uni00AD" unicode="­" horiz-adv-x="934" d="M237 422q-18 0-30 11t-12 29q0 16 12 27t30 11h462q18 0 30-11t12-27q0-18-12-29t-30-11H237z"/><glyph glyph-name="registered" unicode="®" horiz-adv-x="1692" d="M847 172q-177 0-327 87T282.5 495.5 195 822q0 132 51.5 252.5t139 208 208 139.5 253.5 52q132 0 252.5-52t207.5-139.5 138.5-208T1497 822q0-133-51.5-253.5t-139-207-207.5-138T847 172zm0 60q158 0 293.5 79.5t215 215.5 79.5 295q0 158-79 294.5t-215 217-294 80.5q-159 0-295-80.5t-215.5-217T257 822q0-159 79.5-295T552 311.5 847 232zM679 488q-13 0-22.5 9t-9.5 23v626q0 19 12 30.5t30 11.5h156q87 0 143.5-52t56.5-130q0-85-42-128.5T911 826q87-66 160-278 6-19 6-32 0-28-28-28-23 0-32 27-54 149-105 222t-107 73h-96V520q0-14-8.5-23t-21.5-9zm30 382h136q13 0 26.5 2t34.5 10 36.5 21.5 27 40T981 1006q0 52-38.5 86t-97.5 34H709V870z"/><glyph glyph-name="degree" unicode="°" horiz-adv-x="884" d="M441 532q-134 0-210 89.5T155 870q0 156 77.5 250t208.5 94q129 0 208.5-95.5T729 870q0-158-77-248t-211-90zm0 78q97 0 152.5 69T649 870q0 68-21 127t-70 100-117 41q-55 0-96.5-24t-64.5-64.5-34-85.5-11-94q0-122 54.5-191T441 610z"/><glyph glyph-name="plusminus" unicode="±" horiz-adv-x="1190" d="M595 198q-17 0-28.5 11T555 238v330H229q-18 0-30 11t-12 29q0 16 12 27t30 11h326v330q0 16 11.5 28t28.5 12 28.5-12 11.5-28V646h326q18 0 30-11t12-27q0-18-12-29t-30-11H635V238q0-18-11.5-29T595 198zM229 0q-18 0-30 11t-12 29q0 16 12 27t30 11h732q18 0 30-11t12-27q0-18-12-29T961 0H229z"/><glyph glyph-name="uni00B2" unicode="²" horiz-adv-x="744" d="M211 608q-16 0-27 9t-11 25q0 37 27 83t54 75.5 81 83.5l78 79.5 50 66.5 26 72q0 66-36.5 91t-83.5 25q-13 0-26.5-2t-21.5-4-20.5-7-16.5-7l-16-8-13-7q-22-11-32-11-13 0-22.5 10.5T191 1208q0 20 20 34 63 46 158 46 22 0 43-3t49.5-14.5 49-30.5 35.5-54.5 15-83.5q0-62-44-123T391 838q-54-52-87-89t-49-71h274q17 0 26.5-10t9.5-26q0-15-10-24.5t-26-9.5H211z"/><glyph glyph-name="uni00B3" unicode="³" horiz-adv-x="744" d="M361 602q-114 0-176 48-20 17-20 34 0 14 10 23t24 9q12 0 34-14 47-30 128-30 57 0 97.5 34.5T499 792q0 63-47.5 92.5T343 914h-28q-34 0-34 34t34 34h28q55 0 99.5 31t44.5 89q0 30-10 52.5t-23.5 34.5-32.5 19-33 8.5-29 1.5q-47 0-106-32-22-12-34-12-14 0-23 9t-9 25q0 18 22 34 69 46 150 46 87 0 143.5-44t56.5-138q0-108-86-154 44-21 71-63.5t27-94.5q0-83-61.5-137.5T361 602z"/><glyph glyph-name="uni00B5" unicode="µ" horiz-adv-x="976" d="M195-470q-17 0-28.5 12T155-430V866q0 18 11.5 29t28.5 11 28.5-11 11.5-29V304q0-134 60.5-186T495 66q75 0 143.5 29T741 160v706q0 18 11.5 29t28.5 11 28.5-11 11.5-29V40q0-16-11.5-28T781 0q-16 0-27 11.5T743 40v34q-42-36-108-61T495-12q-116 0-182.5 32.5T235 106v-536q0-16-11.5-28T195-470z"/><glyph glyph-name="paragraph" unicode="¶" horiz-adv-x="1192" d="M687-174q-17 0-28.5 11T647-134v718H513q-66 0-126.5 20t-114 61T187 779.5 155 950q0 142 102.5 237t255.5 95h486q17 0 27.5-11t10.5-29q0-16-10.5-27t-27.5-11h-68V-134q0-18-11.5-29T891-174t-28.5 11-11.5 29v1338H727V-134q0-18-11.5-29T687-174z"/><glyph glyph-name="periodcentered" unicode="·" horiz-adv-x="428" d="M214 466q-26 0-43 17t-17 43 17 43 43 17 43-17 17-43-17-43-43-17z"/><glyph glyph-name="uni00B9" unicode="¹" horiz-adv-x="584" d="M291 608q-15 0-25.5 10T255 646v532l-60-40q-19-12-30-12-15 0-25.5 10t-10.5 24q0 21 22 36l108 74q19 12 34 12t25.5-10 10.5-28V646q0-18-10.5-28T291 608z"/><glyph glyph-name="ordmasculine" unicode="º" horiz-adv-x="1090" d="M545 592q-132 0-216 97t-84 253q0 160 83.5 259t216.5 99 216.5-99T845 942q0-162-81-256t-219-94zm0 78q102 0 160 72.5T763 942t-59.5 203.5T545 1222t-158.5-77T327 942q0-123 59.5-197.5T545 670z"/><glyph glyph-name="guillemotright" unicode="»" horiz-adv-x="838" d="M175 96q-15 0-26.5 11T137 134q0 15 16 38l184 268-184 268q-16 23-16 38 0 16 11.5 27t26.5 11q24 0 42-26l186-278q16-22 16-40t-16-40L217 122q-18-26-42-26zm282 0q-15 0-26.5 11T419 134q0 15 16 38l184 268-184 268q-16 23-16 38 0 16 11.5 27t26.5 11q24 0 42-26l186-278q16-22 16-40t-16-40L499 122q-18-26-42-26z"/><glyph glyph-name="onequarter" unicode="¼" horiz-adv-x="1414" d="M205 0q-17 0-26.5 10T169 36q0 12 18 38l828 1198q16 22 34 22 17 0 26.5-10t9.5-26q0-12-18-38L239 22Q223 0 205 0zm86 608q-15 0-25.5 10T255 646v532l-60-40q-19-12-30-12-15 0-25.5 10t-10.5 24q0 21 22 36l108 74q19 12 34 12t25.5-10 10.5-28V646q0-18-10.5-28T291 608zM1155 0q-15 0-25.5 9.5T1119 34v134H845q-18 0-27 10t-9 24q0 10 7 24 31 66 74 135.5T969.5 480t75 95.5T1100 640l25 26 26 8q13 0 23.5-10t10.5-22q0-18-10-28l-21-21-48-53-69.5-83.5-71.5-101L897 238h222v174q0 16 10.5 26t25.5 10 25.5-10 10.5-26V238h44q38 0 38-36 0-15-10-24.5t-28-9.5h-44V34q0-15-10.5-24.5T1155 0z"/><glyph glyph-name="onehalf" unicode="½" horiz-adv-x="1414" d="M205 0q-17 0-26.5 10T169 36q0 12 18 38l828 1198q16 22 34 22 17 0 26.5-10t9.5-26q0-12-18-38L239 22Q223 0 205 0zm86 608q-15 0-25.5 10T255 646v532l-60-40q-19-12-30-12-15 0-25.5 10t-10.5 24q0 21 22 36l108 74q19 12 34 12t25.5-10 10.5-28V646q0-18-10.5-28T291 608zM881 0q-16 0-27 9t-11 25q0 37 27 83t54 75.5 81 83.5l78 79.5 50 66.5 26 72q0 66-36.5 91t-83.5 25q-13 0-26.5-2t-21.5-4-20.5-7-16.5-7l-16-8-13-7q-22-11-32-11-13 0-22.5 10.5T861 600q0 20 20 34 63 46 158 46 22 0 43-3t49.5-14.5 49-30.5 35.5-54.5 15-83.5q0-62-44-123t-126-141q-54-52-87-89t-49-71h274q17 0 26.5-10t9.5-26q0-15-10-24.5T1199 0H881z"/><glyph glyph-name="threequarters" unicode="¾" horiz-adv-x="1574" d="M365 0q-17 0-26.5 10T329 36q0 12 18 38l828 1198q16 22 34 22 17 0 26.5-10t9.5-26q0-12-18-38L399 22Q383 0 365 0zm-4 602q-114 0-176 48-20 17-20 34 0 14 10 23t24 9q12 0 34-14 47-30 128-30 57 0 97.5 34.5T499 792q0 63-47.5 92.5T343 914h-28q-34 0-34 34t34 34h28q55 0 99.5 31t44.5 89q0 30-10 52.5t-23.5 34.5-32.5 19-33 8.5-29 1.5q-47 0-106-32-22-12-34-12-14 0-23 9t-9 25q0 18 22 34 69 46 150 46 87 0 143.5-44t56.5-138q0-108-86-154 44-21 71-63.5t27-94.5q0-83-61.5-137.5T361 602zM1315 0q-15 0-25.5 9.5T1279 34v134h-274q-18 0-27 10t-9 24q0 10 7 24 31 66 74 135.5t79.5 118.5 75 95.5T1260 640l25 26 26 8q13 0 23.5-10t10.5-22q0-18-10-28l-21-21-48-53-69.5-83.5-71.5-101-68-117.5h222v174q0 16 10.5 26t25.5 10 25.5-10 10.5-26V238h44q38 0 38-36 0-15-10-24.5t-28-9.5h-44V34q0-15-10.5-24.5T1315 0z"/><glyph glyph-name="questiondown" unicode="¿" horiz-adv-x="984" d="M562 792q-17 0-28.5 11T522 832v68q0 18 11.5 29t28.5 11 28.5-11 11.5-29v-68q0-18-11.5-29T562 792zM512-354q-154 0-252 98T162 0q0 60 20 109.5t51.5 84.5 70 67l77 65.5 70 71 51.5 92L522 610q0 16 12 28t28 12q17 0 28.5-11t11.5-29q0-57-13-108t-30.5-85.5T509 345t-54.5-57-60.5-51l-22-18q-62-51-95-101T244 0q0-120 75.5-198T512-276t238 78q21 14 34 14 17 0 27.5-11.5T822-224t-18-32q-8-7-18-14t-40-23.5-61-28.5-78-22-95-10z"/><glyph glyph-name="Agrave" unicode="À" horiz-adv-x="1124" d="M667 1476q-12 0-46 14l-286 122q-23 10-32.5 19t-9.5 25q0 17 11 27.5t25 10.5q12 0 46-14l286-122q23-10 32.5-19t9.5-25q0-17-11-27.5t-25-10.5zM1059 76q8-28 8-40 0-15-11.5-25.5T1029 0q-29 0-40 32-11 31-58 178l-60 186H251l-61.5-190L133 32Q122 0 93 0 78 0 66.5 10.5T55 36q0 12 8 40 46 163 191 578.5T479 1230q26 52 82 52t82-52q80-160 225-575.5T1059 76zM549 1198q-86-172-234-614l-37-110h566l-29 86q-158 470-242 638-5 10-12 10t-12-10z"/><glyph glyph-name="Aacute" unicode="Á" horiz-adv-x="1124" d="M449 1476q-14 0-25 10.5t-11 27.5q0 16 9.5 25t32.5 19l286 122q34 14 46 14 14 0 25-10.5t11-27.5q0-16-9.5-25t-32.5-19l-286-122q-34-14-46-14zM1059 76q8-28 8-40 0-15-11.5-25.5T1029 0q-29 0-40 32-11 31-58 178l-60 186H251l-61.5-190L133 32Q122 0 93 0 78 0 66.5 10.5T55 36q0 12 8 40 46 163 191 578.5T479 1230q26 52 82 52t82-52q80-160 225-575.5T1059 76zM549 1198q-86-172-234-614l-37-110h566l-29 86q-158 470-242 638-5 10-12 10t-12-10z"/><glyph glyph-name="Acircumflex" unicode="Â" horiz-adv-x="1124" d="M306 1476q-15 0-25.5 10.5T270 1512q0 24 26 38l228 120q21 12 38 12 14 0 38-12l226-120q26-14 26-38 0-15-10.5-25.5T816 1476q-12 0-28 8l-226 118-228-118q-16-8-28-8zM1059 76q8-28 8-40 0-15-11.5-25.5T1029 0q-29 0-40 32-11 31-58 178l-60 186H251l-61.5-190L133 32Q122 0 93 0 78 0 66.5 10.5T55 36q0 12 8 40 46 163 191 578.5T479 1230q26 52 82 52t82-52q80-160 225-575.5T1059 76zM549 1198q-86-172-234-614l-37-110h566l-29 86q-158 470-242 638-5 10-12 10t-12-10z"/><glyph glyph-name="Atilde" unicode="Ã" horiz-adv-x="1124" d="M685 1476q-13 0-25 .5t-23.5 2.5-19 3.5-19 5l-16.5 5-17.5 6-15.5 5.5q-52 18-106 18-36 0-70-21-24-15-34-15-38 0-38 34 0 19 19 38 46 46 123 46 55 0 128-25 61-21 114-21 34 0 66 18 30 18 38 18 38 0 38-34 0-27-33-50-48-34-109-34zM1059 76q8-28 8-40 0-15-11.5-25.5T1029 0q-29 0-40 32-11 31-58 178l-60 186H251l-61.5-190L133 32Q122 0 93 0 78 0 66.5 10.5T55 36q0 12 8 40 46 163 191 578.5T479 1230q26 52 82 52t82-52q80-160 225-575.5T1059 76zM549 1198q-86-172-234-614l-37-110h566l-29 86q-158 470-242 638-5 10-12 10t-12-10z"/><glyph glyph-name="Adieresis" unicode="Ä" horiz-adv-x="1124" d="M431 1476q-17 0-28.5 11t-11.5 29v72q0 18 11.5 29t28.5 11 28.5-11 11.5-29v-72q0-18-11.5-29t-28.5-11zm256 0q-17 0-28.5 11t-11.5 29v72q0 18 11.5 29t28.5 11 28.5-11 11.5-29v-72q0-18-11.5-29t-28.5-11zM1059 76q8-28 8-40 0-15-11.5-25.5T1029 0q-29 0-40 32-11 31-58 178l-60 186H251l-61.5-190L133 32Q122 0 93 0 78 0 66.5 10.5T55 36q0 12 8 40 46 163 191 578.5T479 1230q26 52 82 52t82-52q80-160 225-575.5T1059 76zM549 1198q-86-172-234-614l-37-110h566l-29 86q-158 470-242 638-5 10-12 10t-12-10z"/><glyph glyph-name="Aring" unicode="Å" horiz-adv-x="1124" d="M567 1476q-63 0-106.5 43.5T417 1626t43.5 106.5T567 1776t107.5-43.5T719 1626t-44.5-106.5T567 1476zm0 62q36 0 63 26t27 62-27 63-63 27-62-27-26-63 26-62 62-26zM1059 76q8-28 8-40 0-15-11.5-25.5T1029 0q-29 0-40 32-11 31-58 178l-60 186H251l-61.5-190L133 32Q122 0 93 0 78 0 66.5 10.5T55 36q0 12 8 40 46 163 191 578.5T479 1230q26 52 82 52t82-52q80-160 225-575.5T1059 76zM549 1198q-86-172-234-614l-37-110h566l-29 86q-158 470-242 638-5 10-12 10t-12-10z"/><glyph glyph-name="AE" unicode="Æ" horiz-adv-x="1575" d="M1420 78q18 0 30-11t12-27q0-18-12-29t-30-11h-371Q915 0 856.5 60.5T798 252v144H304Q206 209 123 30 109 0 81 0 64 0 53.5 10T43 36q0 11 12 38 91 208 287 570t364 597q16 23 33.5 32t51.5 9h591q18 0 30-11t12-27q0-18-12-29t-30-11H878V714h468q18 0 30-11t12-27q0-18-12-29t-30-11H878V252q0-95 38.5-134.5T1049 78h371zM346 474h452v730q-25-2-42-29-203-312-410-701z"/><glyph glyph-name="Ccedilla" unicode="Ç" horiz-adv-x="1192" d="M659-426q-50 0-74 12t-24 32q0 13 7.5 20.5T587-354q3 0 12.5-3t26-6 37.5-3q40 0 76 29t36 77q0 47-27.5 72.5T681-162q-33 0-63-13t-37-13q-30 0-30 26 0 11 6 38L585-5Q377 27 246 206T115 640q0 183 75 333t206.5 235.5T689 1294q206 0 356-96 32-20 32-44 0-16-10.5-27t-27.5-11q-15 0-36 14-129 86-314 86-138 0-251-75.5T261 933t-64-293q0-248 133.5-411T669 66q170 0 322 82 22 12 34 12 15 0 26.5-11t11.5-27q0-26-36-44-176-90-358-90-24 0-36 1l-26-111q41 18 80 18 62 0 106-41.5T837-260q0-78-55-122t-123-44z"/><glyph glyph-name="Egrave" unicode="È" horiz-adv-x="982" d="M649 1476q-12 0-46 14l-286 122q-23 10-32.5 19t-9.5 25q0 17 11 27.5t25 10.5q12 0 46-14l286-122q23-10 32.5-19t9.5-25q0-17-11-27.5t-25-10.5zM249 0q-54 0-54 54v1174q0 54 54 54h530q18 0 30-11t12-27q0-18-12-29t-30-11H275V714h468q18 0 30-11t12-27q0-18-12-29t-30-11H275V78h542q18 0 30-11t12-27q0-18-12-29T817 0H249z"/><glyph glyph-name="Eacute" unicode="É" horiz-adv-x="982" d="M335 1476q-14 0-25 10.5t-11 27.5q0 16 9.5 25t32.5 19l286 122q34 14 46 14 14 0 25-10.5t11-27.5q0-16-9.5-25t-32.5-19l-286-122q-34-14-46-14zM249 0q-54 0-54 54v1174q0 54 54 54h530q18 0 30-11t12-27q0-18-12-29t-30-11H275V714h468q18 0 30-11t12-27q0-18-12-29t-30-11H275V78h542q18 0 30-11t12-27q0-18-12-29T817 0H249z"/><glyph glyph-name="Ecircumflex" unicode="Ê" horiz-adv-x="982" d="M248 1476q-15 0-25.5 10.5T212 1512q0 24 26 38l228 120q21 12 38 12 14 0 38-12l226-120q26-14 26-38 0-15-10.5-25.5T758 1476q-12 0-28 8l-226 118-228-118q-16-8-28-8zM249 0q-54 0-54 54v1174q0 54 54 54h530q18 0 30-11t12-27q0-18-12-29t-30-11H275V714h468q18 0 30-11t12-27q0-18-12-29t-30-11H275V78h542q18 0 30-11t12-27q0-18-12-29T817 0H249z"/><glyph glyph-name="Edieresis" unicode="Ë" horiz-adv-x="982" d="M375 1476q-17 0-28.5 11t-11.5 29v72q0 18 11.5 29t28.5 11 28.5-11 11.5-29v-72q0-18-11.5-29t-28.5-11zm256 0q-17 0-28.5 11t-11.5 29v72q0 18 11.5 29t28.5 11 28.5-11 11.5-29v-72q0-18-11.5-29t-28.5-11zM249 0q-54 0-54 54v1174q0 54 54 54h530q18 0 30-11t12-27q0-18-12-29t-30-11H275V714h468q18 0 30-11t12-27q0-18-12-29t-30-11H275V78h542q18 0 30-11t12-27q0-18-12-29T817 0H249z"/><glyph glyph-name="Igrave" unicode="Ì" horiz-adv-x="470" d="M345 1476q-12 0-46 14L13 1612q-23 10-32.5 19t-9.5 25q0 17 11 27.5T7 1694q12 0 46-14l286-122q23-10 32.5-19t9.5-25q0-17-11-27.5t-25-10.5zM235 0q-17 0-28.5 11T195 40v1202q0 18 11.5 29t28.5 11 28.5-11 11.5-29V40q0-18-11.5-29T235 0z"/><glyph glyph-name="Iacute" unicode="Í" horiz-adv-x="470" d="M123 1476q-14 0-25 10.5T87 1514q0 16 9.5 25t32.5 19l286 122q34 14 46 14 14 0 25-10.5t11-27.5q0-16-9.5-25t-32.5-19l-286-122q-34-14-46-14zM235 0q-17 0-28.5 11T195 40v1202q0 18 11.5 29t28.5 11 28.5-11 11.5-29V40q0-18-11.5-29T235 0z"/><glyph glyph-name="Icircumflex" unicode="Î" horiz-adv-x="470" d="M-20 1476q-15 0-25.5 10.5T-56 1512q0 24 26 38l228 120q21 12 38 12 14 0 38-12l226-120q26-14 26-38 0-15-10.5-25.5T490 1476q-12 0-28 8l-226 118L8 1484q-16-8-28-8zM235 0q-17 0-28.5 11T195 40v1202q0 18 11.5 29t28.5 11 28.5-11 11.5-29V40q0-18-11.5-29T235 0z"/><glyph glyph-name="Idieresis" unicode="Ï" horiz-adv-x="470" d="M107 1476q-17 0-28.5 11T67 1516v72q0 18 11.5 29t28.5 11 28.5-11 11.5-29v-72q0-18-11.5-29t-28.5-11zm256 0q-17 0-28.5 11t-11.5 29v72q0 18 11.5 29t28.5 11 28.5-11 11.5-29v-72q0-18-11.5-29t-28.5-11zM235 0q-17 0-28.5 11T195 40v1202q0 18 11.5 29t28.5 11 28.5-11 11.5-29V40q0-18-11.5-29T235 0z"/><glyph glyph-name="Eth" unicode="Ð" horiz-adv-x="1316" d="M289 0q-54 0-54 54v572H101q-18 0-30 11t-12 29q0 16 12 27t30 11h134v524q0 54 54 54h336q175 0 307-83.5T1133.5 969t69.5-333q0-283-156-459.5T625 0H289zm26 78h310q154 0 267 71.5t171 197 58 289.5q0 252-133 410t-363 158H315V704h354q18 0 30-11t12-27q0-18-12-29t-30-11H315V78z"/><glyph glyph-name="Ntilde" unicode="Ñ" horiz-adv-x="1218" d="M727 1476q-13 0-25 .5t-23.5 2.5-19 3.5-19 5l-16.5 5-17.5 6-15.5 5.5q-52 18-106 18-36 0-70-21-24-15-34-15-38 0-38 34 0 19 19 38 46 46 123 46 55 0 128-25 61-21 114-21 34 0 66 18 30 18 38 18 38 0 38-34 0-27-33-50-48-34-109-34zm256-194q17 0 28.5-11t11.5-29V62q0-29-17-45.5T962 0q-45 0-81 36-49 49-137 225-63 126-197 420-142 311-207 421-39 65-65 94V40q0-18-11.5-29T235 0t-28.5 11T195 40v1180q0 29 17 45.5t45 16.5h1q39 0 69-27t65-82q70-111 243-493 118-260 172-367 87-174 136-227v1156q0 18 11.5 29t28.5 11z"/><glyph glyph-name="Ograve" unicode="Ò" horiz-adv-x="1306" d="M759 1476q-12 0-46 14l-286 122q-23 10-32.5 19t-9.5 25q0 17 11 27.5t25 10.5q12 0 46-14l286-122q23-10 32.5-19t9.5-25q0-17-11-27.5t-25-10.5zM653-12q-112 0-212 50T269.5 174t-113 207T115 638q0 183 70.5 333.5t194 236.5 273.5 86q154 0 277-84.5T1122 975t69-337q0-186-69-334.5t-192-232T653-12zm0 78q199 0 327.5 162T1109 638q0 164-58 296t-162.5 207-235.5 75q-128 0-232.5-76t-164-208.5T197 638q0-160 59.5-291t164-206T653 66z"/><glyph glyph-name="Oacute" unicode="Ó" horiz-adv-x="1306" d="M541 1476q-14 0-25 10.5t-11 27.5q0 16 9.5 25t32.5 19l286 122q34 14 46 14 14 0 25-10.5t11-27.5q0-16-9.5-25t-32.5-19l-286-122q-34-14-46-14zM653-12q-112 0-212 50T269.5 174t-113 207T115 638q0 183 70.5 333.5t194 236.5 273.5 86q154 0 277-84.5T1122 975t69-337q0-186-69-334.5t-192-232T653-12zm0 78q199 0 327.5 162T1109 638q0 164-58 296t-162.5 207-235.5 75q-128 0-232.5-76t-164-208.5T197 638q0-160 59.5-291t164-206T653 66z"/><glyph glyph-name="Ocircumflex" unicode="Ô" horiz-adv-x="1306" d="M400 1476q-15 0-25.5 10.5T364 1512q0 24 26 38l228 120q21 12 38 12 14 0 38-12l226-120q26-14 26-38 0-15-10.5-25.5T910 1476q-12 0-28 8l-226 118-228-118q-16-8-28-8zM653-12q-112 0-212 50T269.5 174t-113 207T115 638q0 183 70.5 333.5t194 236.5 273.5 86q154 0 277-84.5T1122 975t69-337q0-186-69-334.5t-192-232T653-12zm0 78q199 0 327.5 162T1109 638q0 164-58 296t-162.5 207-235.5 75q-128 0-232.5-76t-164-208.5T197 638q0-160 59.5-291t164-206T653 66z"/><glyph glyph-name="Otilde" unicode="Õ" horiz-adv-x="1306" d="M771 1476q-13 0-25 .5t-23.5 2.5-19 3.5-19 5l-16.5 5-17.5 6-15.5 5.5q-52 18-106 18-36 0-70-21-24-15-34-15-38 0-38 34 0 19 19 38 46 46 123 46 55 0 128-25 61-21 114-21 34 0 66 18 30 18 38 18 38 0 38-34 0-27-33-50-48-34-109-34zM653-12q-112 0-212 50T269.5 174t-113 207T115 638q0 183 70.5 333.5t194 236.5 273.5 86q154 0 277-84.5T1122 975t69-337q0-186-69-334.5t-192-232T653-12zm0 78q199 0 327.5 162T1109 638q0 164-58 296t-162.5 207-235.5 75q-128 0-232.5-76t-164-208.5T197 638q0-160 59.5-291t164-206T653 66z"/><glyph glyph-name="Odieresis" unicode="Ö" horiz-adv-x="1306" d="M517 1476q-17 0-28.5 11t-11.5 29v72q0 18 11.5 29t28.5 11 28.5-11 11.5-29v-72q0-18-11.5-29t-28.5-11zm256 0q-17 0-28.5 11t-11.5 29v72q0 18 11.5 29t28.5 11 28.5-11 11.5-29v-72q0-18-11.5-29t-28.5-11zM653-12q-112 0-212 50T269.5 174t-113 207T115 638q0 183 70.5 333.5t194 236.5 273.5 86q154 0 277-84.5T1122 975t69-337q0-186-69-334.5t-192-232T653-12zm0 78q199 0 327.5 162T1109 638q0 164-58 296t-162.5 207-235.5 75q-128 0-232.5-76t-164-208.5T197 638q0-160 59.5-291t164-206T653 66z"/><glyph glyph-name="multiply" unicode="×" horiz-adv-x="1190" d="M249 84q-16 0-27 11.5T211 122q0 18 22 40l306 304-306 306q-22 22-22 40 0 15 11 26.5t27 11.5q18 0 38-20l308-308 308 308q20 20 38 20 16 0 27-11.5t11-26.5q0-18-22-40L651 466l306-304q22-22 22-40 0-15-11-26.5T941 84q-18 0-38 20L595 410 287 104q-20-20-38-20z"/><glyph glyph-name="Oslash" unicode="Ø" horiz-adv-x="1310" d="M1011 1140q87-88 134.5-216.5T1193 640q0-186-68.5-335t-191-233T657-12Q489-12 359 90l-38-62Q305 0 281 0q-16 0-28 11.5T241 38q0 11 10 28l50 76q-87 88-135.5 218T117 640q0 183 70.5 333T382 1208.5t275 85.5q168 0 296-100l38 60q10 15 18 21.5t22 6.5q16 0 28-11.5t12-26.5q0-11-10-28zm-354 76q-129 0-234.5-75.5T258 933t-59-293q0-126 38-237.5T343 213l570 911q-108 92-256 92zm0-1150q131 0 235 74.5T1053.5 346t57.5 294q0 130-37.5 240T969 1066L399 161q109-95 258-95z"/><glyph glyph-name="Ugrave" unicode="Ù" horiz-adv-x="1198" d="M705 1476q-12 0-46 14l-286 122q-23 10-32.5 19t-9.5 25q0 17 11 27.5t25 10.5q12 0 46-14l286-122q23-10 32.5-19t9.5-25q0-17-11-27.5t-25-10.5zM599-12q-135 0-231.5 59.5T226 201t-45 209v832q0 18 11.5 29t28.5 11 28.5-11 11.5-29V414q0-156 90.5-252T599 66t247.5 96T937 414v828q0 18 11.5 29t28.5 11 28.5-11 11.5-29V410q0-115-45-209T830.5 47.5 599-12z"/><glyph glyph-name="Uacute" unicode="Ú" horiz-adv-x="1198" d="M471 1476q-14 0-25 10.5t-11 27.5q0 16 9.5 25t32.5 19l286 122q34 14 46 14 14 0 25-10.5t11-27.5q0-16-9.5-25t-32.5-19l-286-122q-34-14-46-14zM599-12q-135 0-231.5 59.5T226 201t-45 209v832q0 18 11.5 29t28.5 11 28.5-11 11.5-29V414q0-156 90.5-252T599 66t247.5 96T937 414v828q0 18 11.5 29t28.5 11 28.5-11 11.5-29V410q0-115-45-209T830.5 47.5 599-12z"/><glyph glyph-name="Ucircumflex" unicode="Û" horiz-adv-x="1198" d="M348 1476q-15 0-25.5 10.5T312 1512q0 24 26 38l228 120q21 12 38 12 14 0 38-12l226-120q26-14 26-38 0-15-10.5-25.5T858 1476q-12 0-28 8l-226 118-228-118q-16-8-28-8zM599-12q-135 0-231.5 59.5T226 201t-45 209v832q0 18 11.5 29t28.5 11 28.5-11 11.5-29V414q0-156 90.5-252T599 66t247.5 96T937 414v828q0 18 11.5 29t28.5 11 28.5-11 11.5-29V410q0-115-45-209T830.5 47.5 599-12z"/><glyph glyph-name="Udieresis" unicode="Ü" horiz-adv-x="1198" d="M463 1474q-17 0-28.5 11t-11.5 29v72q0 18 11.5 29t28.5 11 28.5-11 11.5-29v-72q0-18-11.5-29t-28.5-11zm256 0q-17 0-28.5 11t-11.5 29v72q0 18 11.5 29t28.5 11 28.5-11 11.5-29v-72q0-18-11.5-29t-28.5-11zM599-12q-135 0-231.5 59.5T226 201t-45 209v832q0 18 11.5 29t28.5 11 28.5-11 11.5-29V414q0-156 90.5-252T599 66t247.5 96T937 414v828q0 18 11.5 29t28.5 11 28.5-11 11.5-29V410q0-115-45-209T830.5 47.5 599-12z"/><glyph glyph-name="Yacute" unicode="Ý" horiz-adv-x="962" d="M341 1476q-14 0-25 10.5t-11 27.5q0 16 9.5 25t32.5 19l286 122q34 14 46 14 14 0 25-10.5t11-27.5q0-16-9.5-25t-32.5-19l-286-122q-34-14-46-14zM481 0q-17 0-28.5 11T441 40v474q-18 13-38 38-132 171-334 658-10 25-10 34 0 15 11 26.5t27 11.5q26 0 38-26l92.5-210 128-264.5L469 594q8-8 12-8t12 8q36 35 113.5 187.5t128 264.5l92.5 210q12 26 38 26 16 0 27-11.5t11-26.5q0-9-10-34-202-487-334-658-20-25-38-38V40q0-18-11.5-29T481 0z"/><glyph glyph-name="Thorn" unicode="Þ" horiz-adv-x="1006" d="M235 0q-17 0-28.5 11T195 40v1156q0 18 11.5 29t28.5 11 28.5-11 11.5-29v-186h240q173 0 285.5-105.5T913 636q0-162-112-265T515 268H275V40q0-18-11.5-29T235 0zm40 346h240q139 0 227.5 81T831 636q0 129-89 213.5T515 934H275V346z"/><glyph glyph-name="germandbls" unicode="ß" horiz-adv-x="984" d="M549-34q-120 0-184 50-24 19-24 42 0 15 10 26t26 11q7 0 13-2t10-4 12-7 14-8q52-28 123-28 122 0 192 55t70 153q0 56-23.5 104T729 436.5t-76 61-76 54-58.5 55.5-23.5 67q0 39 21.5 74.5t52 64.5l61 60 52 74.5L703 1042q0 60-21.5 106t-57.5 71.5-77 38-86 12.5q-41 0-79.5-15t-72-46.5-54-88.5T235 988V40q0-18-11.5-29T195 0t-28.5 11T155 40v948q0 95 27.5 167.5t73.5 113 97.5 60T461 1348q62 0 118.5-18.5t103-54.5 74.5-96.5 28-136.5q0-57-21.5-108T711 847t-62-66.5-52.5-58T575 674q0-20 33-46.5t79.5-58.5 93-72T860 393t33-139q0-134-93.5-211T549-34z"/><glyph glyph-name="agrave" unicode="à" horiz-adv-x="980" d="M685 1090q-12 0-46 14l-286 122q-23 10-32.5 19t-9.5 25q0 17 11 27.5t25 10.5q12 0 46-14l286-122q23-10 32.5-19t9.5-25q0-17-11-27.5t-25-10.5zM405-12q-140 0-225 73T95 254q0 142 109 220t362 78h95v88q0 34-12 67t-36 64-69 50-103 19q-111 0-204-40-8-3-19-8t-16-7-12-4-13-2q-15 0-25 11t-10 27q0 21 22 34 41 25 114 46t163 21q135 0 217.5-76.5T741 640V172q0-48 11.5-68T789 77q32-10 32-39 0-38-42-38-73 0-106 78-102-90-268-90zm0 78q85 0 153.5 26T661 160v316h-94q-111 0-189-16t-121-47-61.5-69.5T177 254q0-88 60.5-138T405 66z"/><glyph glyph-name="aacute" unicode="á" horiz-adv-x="980" d="M368 1090q-14 0-25 10.5t-11 27.5q0 16 9.5 25t32.5 19l286 122q34 14 46 14 14 0 25-10.5t11-27.5q0-16-9.5-25t-32.5-19l-286-122q-34-14-46-14zM405-12q-140 0-225 73T95 254q0 142 109 220t362 78h95v88q0 34-12 67t-36 64-69 50-103 19q-111 0-204-40-8-3-19-8t-16-7-12-4-13-2q-15 0-25 11t-10 27q0 21 22 34 41 25 114 46t163 21q135 0 217.5-76.5T741 640V172q0-48 11.5-68T789 77q32-10 32-39 0-38-42-38-73 0-106 78-102-90-268-90zm0 78q85 0 153.5 26T661 160v316h-94q-111 0-189-16t-121-47-61.5-69.5T177 254q0-88 60.5-138T405 66z"/><glyph glyph-name="acircumflex" unicode="â" horiz-adv-x="980" d="M275 1090q-15 0-25.5 10.5T239 1126q0 24 26 38l228 120q21 12 38 12 14 0 38-12l226-120q26-14 26-38 0-15-10.5-25.5T785 1090q-12 0-28 8l-226 118-228-118q-16-8-28-8zM405-12q-140 0-225 73T95 254q0 142 109 220t362 78h95v88q0 34-12 67t-36 64-69 50-103 19q-111 0-204-40-8-3-19-8t-16-7-12-4-13-2q-15 0-25 11t-10 27q0 21 22 34 41 25 114 46t163 21q135 0 217.5-76.5T741 640V172q0-48 11.5-68T789 77q32-10 32-39 0-38-42-38-73 0-106 78-102-90-268-90zm0 78q85 0 153.5 26T661 160v316h-94q-111 0-189-16t-121-47-61.5-69.5T177 254q0-88 60.5-138T405 66z"/><glyph glyph-name="atilde" unicode="ã" horiz-adv-x="980" d="M633 1090q-58 0-135 27-55 19-107 19-37 0-69-20-26-16-35-16-38 0-38 34 0 30 38 54 48 30 104 30 54 0 127-25 61-21 115-21 33 0 63 16 5 3 14 9t15 8.5 12 2.5q38 0 38-34 0-32-46-58-45-26-96-26zM405-12q-140 0-225 73T95 254q0 142 109 220t362 78h95v88q0 34-12 67t-36 64-69 50-103 19q-111 0-204-40-8-3-19-8t-16-7-12-4-13-2q-15 0-25 11t-10 27q0 21 22 34 41 25 114 46t163 21q135 0 217.5-76.5T741 640V172q0-48 11.5-68T789 77q32-10 32-39 0-38-42-38-73 0-106 78-102-90-268-90zm0 78q85 0 153.5 26T661 160v316h-94q-111 0-189-16t-121-47-61.5-69.5T177 254q0-88 60.5-138T405 66z"/><glyph glyph-name="adieresis" unicode="ä" horiz-adv-x="980" d="M399 1050q-17 0-28.5 11t-11.5 29v72q0 18 11.5 29t28.5 11 28.5-11 11.5-29v-72q0-18-11.5-29t-28.5-11zm256 0q-17 0-28.5 11t-11.5 29v72q0 18 11.5 29t28.5 11 28.5-11 11.5-29v-72q0-18-11.5-29t-28.5-11zM405-12q-140 0-225 73T95 254q0 142 109 220t362 78h95v88q0 34-12 67t-36 64-69 50-103 19q-111 0-204-40-8-3-19-8t-16-7-12-4-13-2q-15 0-25 11t-10 27q0 21 22 34 41 25 114 46t163 21q135 0 217.5-76.5T741 640V172q0-48 11.5-68T789 77q32-10 32-39 0-38-42-38-73 0-106 78-102-90-268-90zm0 78q85 0 153.5 26T661 160v316h-94q-111 0-189-16t-121-47-61.5-69.5T177 254q0-88 60.5-138T405 66z"/><glyph glyph-name="aring" unicode="å" horiz-adv-x="980" d="M541 1090q-63 0-107.5 44T389 1240t44.5 106 107.5 44 107.5-44 44.5-106-44.5-106-107.5-44zm0 62q36 0 62 26t26 62-26 62-62 26-62-26-26-62 26-62 62-26zM405-12q-140 0-225 73T95 254q0 142 109 220t362 78h95v88q0 34-12 67t-36 64-69 50-103 19q-111 0-204-40-8-3-19-8t-16-7-12-4-13-2q-15 0-25 11t-10 27q0 21 22 34 41 25 114 46t163 21q135 0 217.5-76.5T741 640V172q0-48 11.5-68T789 77q32-10 32-39 0-38-42-38-73 0-106 78-102-90-268-90zm0 78q85 0 153.5 26T661 160v316h-94q-111 0-189-16t-121-47-61.5-69.5T177 254q0-88 60.5-138T405 66z"/><glyph glyph-name="ae" unicode="æ" horiz-adv-x="1434" d="M409-12q-127 0-220.5 71.5T95 256q0 266 374 266h192v122q0 30-12.5 63T611 770.5t-69.5 50T441 840q-111 0-204-40-8-3-19-8t-16-7-12-4-13-2q-15 0-25 11t-10 27q0 21 22 34 41 25 114 46t163 21q65 0 117.5-18t82.5-46.5 46.5-54T711 750q43 77 128.5 122.5T1021 918q71 0 131.5-23.5t99-60.5 60-81 21.5-87q0-37-8.5-66.5t-28-51.5-44-38.5-64.5-28-81.5-18.5-103-10.5-121-5T741 446V192q81-126 260-126 115 0 268 68 23 10 32 10 16 0 27-11.5t11-26.5q0-23-30-40-24-13-62-28T1137 5.5 1001-12q-200 0-306 138Q571-12 409-12zm332 534q101 0 165 1.5t128 6.5 99.5 14.5 65 25.5 41 39.5T1251 666q0 64-63 119t-165 55q-64 0-128.5-28.5t-109-82.5T741 610v-88zM409 66q67 0 134 34t118 94v252H469q-294 0-294-190 0-91 70.5-140.5T409 66z"/><glyph glyph-name="ccedilla" unicode="ç" horiz-adv-x="918" d="M519-426q-98 0-98 44 0 13 7.5 20.5T447-354q4 0 24-6t52-6q40 0 76 29t36 77q0 47-27.5 72.5T541-162q-33 0-63-13t-37-13q-30 0-30 26 0 11 6 38L444-8Q285 13 190 138.5T95 456q0 195 130.5 328.5T545 918q54 0 114.5-16T763 861q28-16 38-27t10-28q0-14-10.5-25.5T775 769q-16 0-42 15-92 56-188 56-157 0-262.5-110T177 456q0-74 19.5-142t58-124.5 102.5-90T503 66q108 0 230 54 46 21 55 21 15 0 25.5-11.5T824 102q0-24-38-44-60-31-138-50.5T503-12h-11l-25-110q40 18 80 18 62 0 106-41.5T697-260q0-78-55-122t-123-44z"/><glyph glyph-name="egrave" unicode="è" horiz-adv-x="918" d="M689 1090q-12 0-46 14l-286 122q-23 10-32.5 19t-9.5 25q0 17 11 27.5t25 10.5q12 0 46-14l286-122q23-10 32.5-19t9.5-25q0-17-11-27.5t-25-10.5zM485-12q-174 0-282 127.5T95 450q0 214 109.5 341T497 918q144 0 232-79.5T817 666q0-53-19.5-94.5t-59-70.5-92-49-127-31.5-155-16.5-183.5-6q6-140 89-236t215-96q115 0 268 68 23 10 34 10 15 0 25.5-11.5T823 106q0-23-30-40-24-13-62-28T621 5.5 485-12zM177 472q302 1 430 46.5T735 666q0 63-65 118.5T497 840q-141 0-228.5-96T177 472z"/><glyph glyph-name="eacute" unicode="é" horiz-adv-x="918" d="M360 1090q-14 0-25 10.5t-11 27.5q0 16 9.5 25t32.5 19l286 122q34 14 46 14 14 0 25-10.5t11-27.5q0-16-9.5-25t-32.5-19l-286-122q-34-14-46-14zM485-12q-174 0-282 127.5T95 450q0 214 109.5 341T497 918q144 0 232-79.5T817 666q0-53-19.5-94.5t-59-70.5-92-49-127-31.5-155-16.5-183.5-6q6-140 89-236t215-96q115 0 268 68 23 10 34 10 15 0 25.5-11.5T823 106q0-23-30-40-24-13-62-28T621 5.5 485-12zM177 472q302 1 430 46.5T735 666q0 63-65 118.5T497 840q-141 0-228.5-96T177 472z"/><glyph glyph-name="ecircumflex" unicode="ê" horiz-adv-x="918" d="M265 1090q-15 0-25.5 10.5T229 1126q0 24 26 38l228 120q21 12 38 12 14 0 38-12l226-120q26-14 26-38 0-15-10.5-25.5T775 1090q-12 0-28 8l-226 118-228-118q-16-8-28-8zM485-12q-174 0-282 127.5T95 450q0 214 109.5 341T497 918q144 0 232-79.5T817 666q0-53-19.5-94.5t-59-70.5-92-49-127-31.5-155-16.5-183.5-6q6-140 89-236t215-96q115 0 268 68 23 10 34 10 15 0 25.5-11.5T823 106q0-23-30-40-24-13-62-28T621 5.5 485-12zM177 472q302 1 430 46.5T735 666q0 63-65 118.5T497 840q-141 0-228.5-96T177 472z"/><glyph glyph-name="edieresis" unicode="ë" horiz-adv-x="918" d="M383 1050q-17 0-28.5 11t-11.5 29v72q0 18 11.5 29t28.5 11 28.5-11 11.5-29v-72q0-18-11.5-29t-28.5-11zm256 0q-17 0-28.5 11t-11.5 29v72q0 18 11.5 29t28.5 11 28.5-11 11.5-29v-72q0-18-11.5-29t-28.5-11zM485-12q-174 0-282 127.5T95 450q0 214 109.5 341T497 918q144 0 232-79.5T817 666q0-53-19.5-94.5t-59-70.5-92-49-127-31.5-155-16.5-183.5-6q6-140 89-236t215-96q115 0 268 68 23 10 34 10 15 0 25.5-11.5T823 106q0-23-30-40-24-13-62-28T621 5.5 485-12zM177 472q302 1 430 46.5T735 666q0 63-65 118.5T497 840q-141 0-228.5-96T177 472z"/><glyph glyph-name="igrave" unicode="ì" horiz-adv-x="390" d="M371 1080q-12 0-46 14L39 1216q-23 10-32.5 19t-9.5 25q0 17 11 27.5t25 10.5q12 0 46-14l286-122q23-10 32.5-19t9.5-25q0-17-11-27.5t-25-10.5zM195 0q-17 0-28.5 11T155 40v826q0 18 11.5 29t28.5 11 28.5-11 11.5-29V40q0-18-11.5-29T195 0z"/><glyph glyph-name="iacute" unicode="í" horiz-adv-x="390" d="M28 1090q-14 0-25 10.5T-8 1128q0 16 9.5 25t32.5 19l286 122q34 14 46 14 14 0 25-10.5t11-27.5q0-16-9.5-25t-32.5-19L74 1104q-34-14-46-14zM195 0q-17 0-28.5 11T155 40v826q0 18 11.5 29t28.5 11 28.5-11 11.5-29V40q0-18-11.5-29T195 0z"/><glyph glyph-name="icircumflex" unicode="î" horiz-adv-x="390" d="M-63 1090q-15 0-25.5 10.5T-99 1126q0 24 26 38l228 120q21 12 38 12 14 0 38-12l226-120q26-14 26-38 0-15-10.5-25.5T447 1090q-12 0-28 8l-226 118-228-118q-16-8-28-8zM195 0q-17 0-28.5 11T155 40v826q0 18 11.5 29t28.5 11 28.5-11 11.5-29V40q0-18-11.5-29T195 0z"/><glyph glyph-name="idieresis" unicode="ï" horiz-adv-x="390" d="M61 1050q-17 0-28.5 11T21 1090v72q0 18 11.5 29t28.5 11 28.5-11 11.5-29v-72q0-18-11.5-29T61 1050zm256 0q-17 0-28.5 11t-11.5 29v72q0 18 11.5 29t28.5 11 28.5-11 11.5-29v-72q0-18-11.5-29t-28.5-11zM195 0q-17 0-28.5 11T155 40v826q0 18 11.5 29t28.5 11 28.5-11 11.5-29V40q0-18-11.5-29T195 0z"/><glyph glyph-name="eth" unicode="ð" horiz-adv-x="952" d="M471-12q-93 0-163.5 35.5t-110 87.5T134 235t-31.5 132.5T95 492q0 61 12.5 119T149 725.5t72 98.5 109 68 147 26q147 0 296-138-7 139-56 244.5T595 1196l-184-90q-28-14-40-14-15 0-25.5 10.5T335 1128q0 25 30 40l160 76q-25 19-59 33-99 41-255 41h-30q-18 0-29 10.5t-11 27.5q0 38 56 38h11q250-2 397-106l116 58q28 14 40 14 15 0 26.5-12t11.5-28q0-25-34-42l-98-50q190-190 190-542 0-337-100-517.5T471-12zm0 78q149 0 227.5 159T779 684Q614 840 477 840q-80 0-140.5-30.5t-94.5-82T191.5 617 175 492q0-63 7-119t27-114 52-99.5T347 92t124-26z"/><glyph glyph-name="ntilde" unicode="ñ" horiz-adv-x="976" d="M595 1090q-58 0-135 27-55 19-107 19-37 0-69-20-26-16-35-16-38 0-38 34 0 30 38 54 48 30 104 30 54 0 127-25 61-21 115-21 33 0 63 16 5 3 14 9t15 8.5 12 2.5q38 0 38-34 0-32-46-58-45-26-96-26zM195 0q-17 0-28.5 11T155 40v826q0 17 11 28.5t27 11.5q17 0 27.5-11.5T231 866v-24q127 76 264 76 178 0 252-77t74-263V40q0-18-11.5-29T781 0t-28.5 11T741 40v530q0 156-56 213t-204 57q-69 0-137-22t-109-48V40q0-18-11.5-29T195 0z"/><glyph glyph-name="ograve" unicode="ò" horiz-adv-x="970" d="M661 1090q-12 0-46 14l-286 122q-23 10-32.5 19t-9.5 25q0 17 11 27.5t25 10.5q12 0 46-14l286-122q23-10 32.5-19t9.5-25q0-17-11-27.5t-25-10.5zM485-12q-174 0-282 127.5T95 450q0 211 107.5 339.5T485 918t283.5-128.5T877 450q0-213-106-337.5T485-12zm0 78q145 0 227.5 102T795 450t-83.5 285T485 840q-140 0-224-106t-84-284q0-174 83.5-279T485 66z"/><glyph glyph-name="oacute" unicode="ó" horiz-adv-x="970" d="M384 1090q-14 0-25 10.5t-11 27.5q0 16 9.5 25t32.5 19l286 122q34 14 46 14 14 0 25-10.5t11-27.5q0-16-9.5-25t-32.5-19l-286-122q-34-14-46-14zM485-12q-174 0-282 127.5T95 450q0 211 107.5 339.5T485 918t283.5-128.5T877 450q0-213-106-337.5T485-12zm0 78q145 0 227.5 102T795 450t-83.5 285T485 840q-140 0-224-106t-84-284q0-174 83.5-279T485 66z"/><glyph glyph-name="ocircumflex" unicode="ô" horiz-adv-x="970" d="M241 1090q-15 0-25.5 10.5T205 1126q0 24 26 38l228 120q21 12 38 12 14 0 38-12l226-120q26-14 26-38 0-15-10.5-25.5T751 1090q-12 0-28 8l-226 118-228-118q-16-8-28-8zM485-12q-174 0-282 127.5T95 450q0 211 107.5 339.5T485 918t283.5-128.5T877 450q0-213-106-337.5T485-12zm0 78q145 0 227.5 102T795 450t-83.5 285T485 840q-140 0-224-106t-84-284q0-174 83.5-279T485 66z"/><glyph glyph-name="otilde" unicode="õ" horiz-adv-x="970" d="M615 1090q-58 0-135 27-55 19-107 19-37 0-69-20-26-16-35-16-38 0-38 34 0 30 38 54 48 30 104 30 54 0 127-25 61-21 115-21 33 0 63 16 5 3 14 9t15 8.5 12 2.5q38 0 38-34 0-32-46-58-45-26-96-26zM485-12q-174 0-282 127.5T95 450q0 211 107.5 339.5T485 918t283.5-128.5T877 450q0-213-106-337.5T485-12zm0 78q145 0 227.5 102T795 450t-83.5 285T485 840q-140 0-224-106t-84-284q0-174 83.5-279T485 66z"/><glyph glyph-name="odieresis" unicode="ö" horiz-adv-x="970" d="M355 1050q-17 0-28.5 11t-11.5 29v72q0 18 11.5 29t28.5 11 28.5-11 11.5-29v-72q0-18-11.5-29t-28.5-11zm256 0q-17 0-28.5 11t-11.5 29v72q0 18 11.5 29t28.5 11 28.5-11 11.5-29v-72q0-18-11.5-29t-28.5-11zM485-12q-174 0-282 127.5T95 450q0 211 107.5 339.5T485 918t283.5-128.5T877 450q0-213-106-337.5T485-12zm0 78q145 0 227.5 102T795 450t-83.5 285T485 840q-140 0-224-106t-84-284q0-174 83.5-279T485 66z"/><glyph glyph-name="divide" unicode="÷" horiz-adv-x="1190" d="M595 776q-17 0-28.5 11T555 816v72q0 18 11.5 29t28.5 11 28.5-11 11.5-29v-72q0-18-11.5-29T595 776zM205 422q-18 0-30 11t-12 29q0 16 12 27t30 11h780q18 0 30-11t12-27q0-18-12-29t-30-11H205zM595 4q-17 0-28.5 11T555 44v72q0 18 11.5 29t28.5 11 28.5-11 11.5-29V44q0-18-11.5-29T595 4z"/><glyph glyph-name="oslash" unicode="ø" horiz-adv-x="972" d="M485-12q-115 0-205 59l-18-29Q251 0 229 0q-17 0-28.5 12T189 40q0 12 6 21l24 37Q95 228 95 450q0 211 107.5 339.5T485 918q122 0 215-65l22 35q11 18 33 18 17 0 28.5-12t11.5-28q0-12-6-21l-29-46q117-130 117-349 0-213-106-337.5T485-12zM263 168l395 619q-75 53-173 53-140 0-224-106t-84-284q0-177 86-282zM485 66q145 0 227.5 102T795 450q0 175-80 280L323 113q71-47 162-47z"/><glyph glyph-name="ugrave" unicode="ù" horiz-adv-x="974" d="M653 1090q-12 0-46 14l-286 122q-23 10-32.5 19t-9.5 25q0 17 11 27.5t25 10.5q12 0 46-14l286-122q23-10 32.5-19t9.5-25q0-17-11-27.5t-25-10.5zM481-12q-182 0-254 73.5T155 322v544q0 18 11.5 29t28.5 11 28.5-11 11.5-29V330q0-157 53-210.5T495 66q131 0 246 104v696q0 18 11.5 29t28.5 11 28.5-11 11.5-29V40q0-18-10.5-29T783 0t-28.5 11T743 40v50Q630-12 481-12z"/><glyph glyph-name="uacute" unicode="ú" horiz-adv-x="974" d="M340 1090q-14 0-25 10.5t-11 27.5q0 16 9.5 25t32.5 19l286 122q34 14 46 14 14 0 25-10.5t11-27.5q0-16-9.5-25t-32.5-19l-286-122q-34-14-46-14zM481-12q-182 0-254 73.5T155 322v544q0 18 11.5 29t28.5 11 28.5-11 11.5-29V330q0-157 53-210.5T495 66q131 0 246 104v696q0 18 11.5 29t28.5 11 28.5-11 11.5-29V40q0-18-10.5-29T783 0t-28.5 11T743 40v50Q630-12 481-12z"/><glyph glyph-name="ucircumflex" unicode="û" horiz-adv-x="974" d="M233 1090q-15 0-25.5 10.5T197 1126q0 24 26 38l228 120q21 12 38 12 14 0 38-12l226-120q26-14 26-38 0-15-10.5-25.5T743 1090q-12 0-28 8l-226 118-228-118q-16-8-28-8zM481-12q-182 0-254 73.5T155 322v544q0 18 11.5 29t28.5 11 28.5-11 11.5-29V330q0-157 53-210.5T495 66q131 0 246 104v696q0 18 11.5 29t28.5 11 28.5-11 11.5-29V40q0-18-10.5-29T783 0t-28.5 11T743 40v50Q630-12 481-12z"/><glyph glyph-name="udieresis" unicode="ü" horiz-adv-x="974" d="M347 1050q-17 0-28.5 11t-11.5 29v72q0 18 11.5 29t28.5 11 28.5-11 11.5-29v-72q0-18-11.5-29t-28.5-11zm256 0q-17 0-28.5 11t-11.5 29v72q0 18 11.5 29t28.5 11 28.5-11 11.5-29v-72q0-18-11.5-29t-28.5-11zM481-12q-182 0-254 73.5T155 322v544q0 18 11.5 29t28.5 11 28.5-11 11.5-29V330q0-157 53-210.5T495 66q131 0 246 104v696q0 18 11.5 29t28.5 11 28.5-11 11.5-29V40q0-18-10.5-29T783 0t-28.5 11T743 40v50Q630-12 481-12z"/><glyph glyph-name="yacute" unicode="ý" horiz-adv-x="851" d="M288 1076q-14 0-25 10.5t-11 27.5q0 16 9.5 25t32.5 19l286 122q34 14 46 14 14 0 25-10.5t11-27.5q0-16-9.5-25t-32.5-19l-286-122q-34-14-46-14zM120-420q-52 0-91 13-26 8-37 18.5T-19-362t11 27.5T17-323q8 0 34-8 33-11 66-11 37 0 67 10.5t69 43 81 105T419 0q-11 8-30 36-54 78-139.5 284t-131 332.5T53 840q-6 18-6 28 0 17 11 27.5T87 906q27 0 38-32l66-184 118-302.5L433 118q12-20 20-28l286 784q12 32 38 32 18 0 29-10.5t11-27.5q0-8-12-42L521 44q-43-119-89-206.5t-85-136-82-77-75.5-36.5-69.5-8z"/><glyph glyph-name="thorn" unicode="þ" horiz-adv-x="982" d="M195-470q-17 0-28.5 12T155-430v1732q0 18 11.5 29t28.5 11 28.5-11 11.5-29V860q104 58 240 58 184 0 298-126t114-332q0-199-131.5-335.5T435-12q-94 0-200 60v-478q0-16-11.5-28T195-470zM435 66q156 0 263 114.5T805 460q0 173-90.5 276.5T475 840q-140 0-240-62V136q108-70 200-70z"/><glyph glyph-name="ydieresis" unicode="ÿ" horiz-adv-x="851" d="M289 1082q-17 0-28.5 11t-11.5 29v72q0 18 11.5 29t28.5 11 28.5-11 11.5-29v-72q0-18-11.5-29t-28.5-11zm256 0q-17 0-28.5 11t-11.5 29v72q0 18 11.5 29t28.5 11 28.5-11 11.5-29v-72q0-18-11.5-29t-28.5-11zM120-420q-52 0-91 13-26 8-37 18.5T-19-362t11 27.5T17-323q8 0 34-8 33-11 66-11 37 0 67 10.5t69 43 81 105T419 0q-11 8-30 36-54 78-139.5 284t-131 332.5T53 840q-6 18-6 28 0 17 11 27.5T87 906q27 0 38-32l66-184 118-302.5L433 118q12-20 20-28l286 784q12 32 38 32 18 0 29-10.5t11-27.5q0-8-12-42L521 44q-43-119-89-206.5t-85-136-82-77-75.5-36.5-69.5-8z"/><glyph glyph-name="Abreve" unicode="Ă" horiz-adv-x="1124" d="M563 1452q-96 0-149.5 39t-75.5 90q-11 26-11 45 0 18 10 29t28 11q28 0 40-38 29-98 158-98 46 0 79 11t49.5 30.5 22.5 30 11 26.5q13 38 40 38 18 0 28-11t10-29q0-24-18-59-61-115-222-115zM1059 76q8-28 8-40 0-15-11.5-25.5T1029 0q-29 0-40 32-11 31-58 178l-60 186H251l-61.5-190L133 32Q122 0 93 0 78 0 66.5 10.5T55 36q0 12 8 40 46 163 191 578.5T479 1230q26 52 82 52t82-52q80-160 225-575.5T1059 76zM549 1198q-86-172-234-614l-37-110h566l-29 86q-158 470-242 638-5 10-12 10t-12-10z"/><glyph glyph-name="abreve" unicode="ă" horiz-adv-x="980" d="M527 1076q-130 0-194 79-22 26-32 53.5t-10 41.5q0 18 10 29t28 11q27 0 40-38 4-13 7-20t15-24 27.5-27 44-18.5 64.5-8.5q46 0 79 11t49.5 30.5 22.5 30 11 26.5q13 38 40 38 18 0 28-11t10-29q0-17-14.5-50.5T708 1138q-66-62-181-62zM405-12q-140 0-225 73T95 254q0 142 109 220t362 78h95v88q0 34-12 67t-36 64-69 50-103 19q-111 0-204-40-8-3-19-8t-16-7-12-4-13-2q-15 0-25 11t-10 27q0 21 22 34 41 25 114 46t163 21q135 0 217.5-76.5T741 640V172q0-48 11.5-68T789 77q32-10 32-39 0-38-42-38-73 0-106 78-102-90-268-90zm0 78q85 0 153.5 26T661 160v316h-94q-111 0-189-16t-121-47-61.5-69.5T177 254q0-88 60.5-138T405 66z"/><glyph glyph-name="Aogonek" unicode="Ą" horiz-adv-x="1124" d="M1061-232q13 0 20.5-8.5t7.5-21.5q0-17-18-30-60-42-156-42-76 0-120 46t-44 114q0 44 28 84.5T850-21t74.5 43.5T983 48L871 396H251l-61.5-190L133 32Q122 0 93 0 78 0 66.5 10.5T55 36q0 12 8 40 46 163 191 578.5T479 1230q26 52 82 52t82-52q80-160 225-575.5T1059 76q8-28 8-40 0-11-1.5-16T1053 8t-34-14q-24-7-54-21-60-28-105-67.5T815-180q0-41 26-66.5t74-25.5q66 0 125 32 14 8 21 8zM549 1198q-86-172-234-614l-37-110h566q-6 19-29 86-170 494-242 638-5 10-12 10t-12-10z"/><glyph glyph-name="aogonek" unicode="ą" horiz-adv-x="896" d="M673-334q-74 0-119 42t-45 110q0 72 61 130 47 45 134 83-21 21-31 47-102-90-268-90-140 0-225 73T95 254q0 142 109 220t362 78h95v88q0 34-12 67t-36 64-69 50-103 19q-111 0-204-40-8-3-19-8t-16-7-12-4-13-2q-15 0-25 11t-10 27q0 21 22 34 41 25 114 46t163 21q135 0 217.5-76.5T741 640V172q0-48 11.5-68T789 77q32-10 32-39 0-30-31-37-24-5-57.5-18.5t-71-35.5-63-56-25.5-71q0-41 26-66.5t74-25.5q58 0 110 26 25 12 35 12 13 0 21.5-9t8.5-22q0-19-21-33-18-12-61.5-24T673-334zM405 66q85 0 153.5 26T661 160v316h-94q-111 0-189-16t-121-47-61.5-69.5T177 254q0-88 60.5-138T405 66z"/><glyph glyph-name="Cacute" unicode="Ć" horiz-adv-x="1192" d="M537 1452q-14 0-25 10.5t-11 27.5q0 16 9.5 25t32.5 19l286 122q34 14 46 14 14 0 25-10.5t11-27.5q0-16-9.5-25t-32.5-19l-286-122q-34-14-46-14zM669-12q-158 0-284.5 84t-198 233T115 640q0 183 75 333t206.5 235.5T689 1294q206 0 356-96 32-20 32-44 0-16-10.5-27t-27.5-11q-15 0-36 14-129 86-314 86-138 0-251-75.5T261 933t-64-293q0-248 133.5-411T669 66q170 0 322 82 22 12 34 12 15 0 26.5-11t11.5-27q0-24-36-44-171-90-358-90z"/><glyph glyph-name="cacute" unicode="ć" horiz-adv-x="918" d="M380 1076q-14 0-25 10.5t-11 27.5q0 16 9.5 25t32.5 19l286 122q34 14 46 14 14 0 25-10.5t11-27.5q0-16-9.5-25t-32.5-19l-286-122q-34-14-46-14zM503-12q-183 0-295.5 129T95 456q0 195 130.5 328.5T545 918q54 0 114.5-16T763 861q28-16 38-27t10-28q0-14-10.5-25.5T775 769q-16 0-42 15-92 56-188 56-157 0-262.5-110T177 456q0-74 19.5-142t58-124.5 102.5-90T503 66q108 0 230 54 46 21 55 21 15 0 25.5-11.5T824 102q0-24-38-44-60-31-138-50.5T503-12z"/><glyph glyph-name="Ccaron" unicode="Č" horiz-adv-x="1192" d="M674 1452q-17 0-38 12l-228 120q-26 14-26 38 0 15 10.5 25.5T418 1658q12 0 28-8l228-118 226 118q16 8 28 8 15 0 25.5-10.5T964 1622q0-24-26-38l-226-120q-24-12-38-12zM669-12q-158 0-284.5 84t-198 233T115 640q0 183 75 333t206.5 235.5T689 1294q206 0 356-96 32-20 32-44 0-16-10.5-27t-27.5-11q-15 0-36 14-129 86-314 86-138 0-251-75.5T261 933t-64-293q0-248 133.5-411T669 66q170 0 322 82 22 12 34 12 15 0 26.5-11t11.5-27q0-24-36-44-171-90-358-90z"/><glyph glyph-name="ccaron" unicode="č" horiz-adv-x="918" d="M504 1076q-17 0-38 12l-228 120q-26 14-26 38 0 15 10.5 25.5T248 1282q12 0 28-8l228-118 226 118q16 8 28 8 15 0 25.5-10.5T794 1246q0-24-26-38l-226-120q-24-12-38-12zM503-12q-183 0-295.5 129T95 456q0 195 130.5 328.5T545 918q54 0 114.5-16T763 861q28-16 38-27t10-28q0-14-10.5-25.5T775 769q-16 0-42 15-92 56-188 56-157 0-262.5-110T177 456q0-74 19.5-142t58-124.5 102.5-90T503 66q108 0 230 54 46 21 55 21 15 0 25.5-11.5T824 102q0-24-38-44-60-31-138-50.5T503-12z"/><glyph glyph-name="Dcaron" unicode="Ď" horiz-adv-x="1276" d="M566 1452q-17 0-38 12l-228 120q-26 14-26 38 0 15 10.5 25.5T310 1658q12 0 28-8l228-118 226 118q16 8 28 8 15 0 25.5-10.5T856 1622q0-24-26-38l-226-120q-24-12-38-12zM249 0q-54 0-54 54v1174q0 54 54 54h336q175 0 307-83.5T1093.5 969t69.5-333q0-283-156-459.5T585 0H249zm26 78h310q154 0 267 71.5t171 197 58 289.5q0 252-133 410t-363 158H275V78z"/><glyph glyph-name="dcaron" unicode="ď" horiz-adv-x="1156" d="M1047 1030q-17 0-28.5 12t-11.5 28 12 28q68 68 68 240 0 18 11.5 29t28.5 11q18 0 29-9.5t11-28.5v-6q0-196-86-288-15-16-34-16zM505-12q-183 0-296.5 128T95 454q0 200 123 332t313 132q112 0 212-64v482q0 18 11.5 29t28.5 11 28.5-11 11.5-29V172q0-48 11.5-68T871 77q32-10 32-39 0-38-42-38-78 0-106 78-138-90-250-90zm0 78q60 0 124.5 26.5T743 154v616q-103 70-212 70-155 0-255.5-109T175 454q0-74 20-142t59-123.5 104-89T505 66z"/><glyph glyph-name="Dcroat" unicode="Đ" horiz-adv-x="1316" d="M289 0q-54 0-54 54v542H135q-18 0-30 11t-12 29q0 16 12 27t30 11h100v554q0 54 54 54h336q175 0 307-83.5T1133.5 969t69.5-333q0-283-156-459.5T625 0H289zm26 78h310q154 0 267 71.5t171 197 58 289.5q0 252-133 410t-363 158H315V674h282q18 0 30-11t12-27q0-18-12-29t-30-11H315V78z"/><glyph glyph-name="dcroat" unicode="đ" horiz-adv-x="980" d="M505-12q-183 0-296.5 128T95 454q0 200 123 332t313 132q112 0 212-64v260H461q-18 0-30 11t-12 29q0 16 12 27t30 11h282v144q0 18 11.5 29t28.5 11 28.5-11 11.5-29v-144h100q18 0 30-11t12-27q0-18-12-29t-30-11H823V172q0-48 11.5-68T871 77q32-10 32-39 0-38-42-38-78 0-106 78-138-90-250-90zm0 78q60 0 124.5 26.5T743 154v616q-103 70-212 70-155 0-255.5-109T175 454q0-74 20-142t59-123.5 104-89T505 66z"/><glyph glyph-name="Eogonek" unicode="Ę" horiz-adv-x="982" d="M688-334q-79 0-121.5 45.5T524-182q0 57 39.5 104T662 0H249q-54 0-54 54v1174q0 54 54 54h530q18 0 30-11t12-27q0-18-12-29t-30-11H275V714h468q18 0 30-11t12-27q0-18-12-29t-30-11H275V78h542q20 0 31-10.5T859 40q0-18-12-29T817 0h-5q-22-1-75-25-60-27-104.5-68.5T588-180q0-41 27.5-66.5T688-272q58 0 110 26 26 12 35 12 13 0 21.5-9t8.5-22q0-19-21-33-18-12-61.5-24T688-334z"/><glyph glyph-name="eogonek" unicode="ę" horiz-adv-x="918" d="M621-334q-76 0-120 46t-44 114q0 87 114 170-56-8-86-8-174 0-282 127.5T95 450q0 214 109.5 341T497 918q144 0 232-79.5T817 666q0-53-19.5-94.5t-59-70.5-92-49-127-31.5-155-16.5-183.5-6q6-140 89-236t215-96q115 0 268 68 23 10 34 10 15 0 25.5-11.5T823 106q0-25-30-40l-57-30Q521-82 521-180q0-41 26-66.5t74-25.5q58 0 110 26 25 12 35 12 13 0 21.5-9t8.5-22q0-19-21-33-18-12-61.5-24T621-334zM177 472q302 1 430 46.5T735 666q0 63-65 118.5T497 840q-141 0-228.5-96T177 472z"/><glyph glyph-name="Ecaron" unicode="Ě" horiz-adv-x="982" d="M490 1452q-17 0-38 12l-228 120q-26 14-26 38 0 15 10.5 25.5T234 1658q12 0 28-8l228-118 226 118q16 8 28 8 15 0 25.5-10.5T780 1622q0-24-26-38l-226-120q-24-12-38-12zM249 0q-54 0-54 54v1174q0 54 54 54h530q18 0 30-11t12-27q0-18-12-29t-30-11H275V714h468q18 0 30-11t12-27q0-18-12-29t-30-11H275V78h542q18 0 30-11t12-27q0-18-12-29T817 0H249z"/><glyph glyph-name="ecaron" unicode="ě" horiz-adv-x="918" d="M480 1076q-17 0-38 12l-228 120q-26 14-26 38 0 15 10.5 25.5T224 1282q12 0 28-8l228-118 226 118q16 8 28 8 15 0 25.5-10.5T770 1246q0-24-26-38l-226-120q-24-12-38-12zm5-1088q-174 0-282 127.5T95 450q0 214 109.5 341T497 918q144 0 232-79.5T817 666q0-53-19.5-94.5t-59-70.5-92-49-127-31.5-155-16.5-183.5-6q6-140 89-236t215-96q115 0 268 68 23 10 34 10 15 0 25.5-11.5T823 106q0-23-30-40-24-13-62-28T621 5.5 485-12zM177 472q302 1 430 46.5T735 666q0 63-65 118.5T497 840q-141 0-228.5-96T177 472z"/><glyph glyph-name="dotlessi" unicode="ı" horiz-adv-x="390" d="M195 0q-17 0-28.5 11T155 40v826q0 18 11.5 29t28.5 11 28.5-11 11.5-29V40q0-18-11.5-29T195 0z"/><glyph glyph-name="Lacute" unicode="Ĺ" horiz-adv-x="914" d="M259 1452q-14 0-25 10.5t-11 27.5q0 16 9.5 25t32.5 19l286 122q34 14 46 14 14 0 25-10.5t11-27.5q0-16-9.5-25t-32.5-19l-286-122q-34-14-46-14zM249 0q-54 0-54 54v1188q0 18 11.5 29t28.5 11 28.5-11 11.5-29V78h544q18 0 30-11t12-27q0-18-12-29T819 0H249z"/><glyph glyph-name="lacute" unicode="ĺ" horiz-adv-x="444" d="M179 1436q-14 0-25 10.5t-11 27.5q0 16 9.5 25t32.5 19l286 122q34 14 46 14 14 0 25-10.5t11-27.5q0-16-9.5-25t-32.5-19l-286-122q-34-14-46-14zM353 0q-50 0-86 15t-57.5 39.5-34 64.5-16.5 82.5-4 101.5v1033q0 18 11.5 29t28.5 11 28.5-11 11.5-29V324q0-111 12-162.5T293 92q25-14 74-14 20 0 31-10.5T409 40q0-40-56-40z"/><glyph glyph-name="Lcaron" unicode="Ľ" horiz-adv-x="914" d="M527 968q-17 0-28.5 12t-11.5 28 12 28q68 68 68 240 0 18 11.5 29t28.5 11q18 0 29-9.5t11-28.5v-6q0-196-86-288-15-16-34-16zM249 0q-54 0-54 54v1188q0 18 11.5 29t28.5 11 28.5-11 11.5-29V78h544q18 0 30-11t12-27q0-18-12-29T819 0H249z"/><glyph glyph-name="lcaron" unicode="ľ" horiz-adv-x="600" d="M443 1032q-17 0-28.5 12t-11.5 28 12 28q68 68 68 240 0 18 11.5 29t28.5 11q18 0 29-9.5t11-28.5v-6q0-196-86-288-15-16-34-16zM353 0q-50 0-86 15t-57.5 39.5-34 64.5-16.5 82.5-4 101.5v1033q0 18 11.5 29t28.5 11 28.5-11 11.5-29V324q0-111 12-162.5T293 92q25-14 74-14 20 0 31-10.5T409 40q0-40-56-40z"/><glyph glyph-name="Lslash" unicode="Ł" horiz-adv-x="954" d="M289 0q-54 0-54 54v486l-114-78q-23-16-38-16-17 0-27.5 11T45 484q0 22 28 42l162 112v604q0 18 11.5 29t28.5 11 28.5-11 11.5-29V692l172 120q23 16 36 16 17 0 27.5-11t10.5-27q0-24-28-44L315 594V78h544q18 0 30-11t12-27q0-18-12-29T859 0H289z"/><glyph glyph-name="lslash" unicode="ł" horiz-adv-x="444" d="M353 0q-64 0-108 25t-69 92q-21 58-21 191v346l-96-66q-20-14-36-14-17 0-27.5 11T-15 612q0 22 28 42l142 98v584q0 18 11.5 29t28.5 11 28.5-11 11.5-29V808l150 106q23 16 38 16t26.5-10.5T461 894q0-14-6-22.5T433 852L235 712V324q0-151 25-198.5T367 78q20 0 31-10.5T409 40q0-40-56-40z"/><glyph glyph-name="Nacute" unicode="Ń" horiz-adv-x="1218" d="M471 1452q-14 0-25 10.5t-11 27.5q0 16 9.5 25t32.5 19l286 122q34 14 46 14 14 0 25-10.5t11-27.5q0-16-9.5-25t-32.5-19l-286-122q-34-14-46-14zm512-170q17 0 28.5-11t11.5-29V62q0-29-17-45.5T962 0q-45 0-81 36-49 49-137 225-63 126-197 420-142 311-207 421-39 65-65 94V40q0-18-11.5-29T235 0t-28.5 11T195 40v1180q0 29 17 45.5t45 16.5h1q39 0 69-27t65-82q70-111 243-493 118-260 172-367 87-174 136-227v1156q0 18 11.5 29t28.5 11z"/><glyph glyph-name="nacute" unicode="ń" horiz-adv-x="976" d="M390 1076q-14 0-25 10.5t-11 27.5q0 16 9.5 25t32.5 19l286 122q34 14 46 14 14 0 25-10.5t11-27.5q0-16-9.5-25t-32.5-19l-286-122q-34-14-46-14zM195 0q-17 0-28.5 11T155 40v826q0 17 11 28.5t27 11.5q17 0 27.5-11.5T231 866v-24q127 76 264 76 178 0 252-77t74-263V40q0-18-11.5-29T781 0t-28.5 11T741 40v530q0 156-56 213t-204 57q-69 0-137-22t-109-48V40q0-18-11.5-29T195 0z"/><glyph glyph-name="Ncaron" unicode="Ň" horiz-adv-x="1218" d="M608 1452q-17 0-38 12l-228 120q-26 14-26 38 0 15 10.5 25.5T352 1658q12 0 28-8l228-118 226 118q16 8 28 8 15 0 25.5-10.5T898 1622q0-24-26-38l-226-120q-24-12-38-12zm375-170q17 0 28.5-11t11.5-29V62q0-29-17-45.5T962 0q-45 0-81 36-49 49-137 225-63 126-197 420-142 311-207 421-39 65-65 94V40q0-18-11.5-29T235 0t-28.5 11T195 40v1180q0 29 17 45.5t45 16.5h1q39 0 69-27t65-82q70-111 243-493 118-260 172-367 87-174 136-227v1156q0 18 11.5 29t28.5 11z"/><glyph glyph-name="ncaron" unicode="ň" horiz-adv-x="976" d="M490 1076q-17 0-38 12l-228 120q-26 14-26 38 0 15 10.5 25.5T234 1282q12 0 28-8l228-118 226 118q16 8 28 8 15 0 25.5-10.5T780 1246q0-24-26-38l-226-120q-24-12-38-12zM195 0q-17 0-28.5 11T155 40v826q0 17 11 28.5t27 11.5q17 0 27.5-11.5T231 866v-24q127 76 264 76 178 0 252-77t74-263V40q0-18-11.5-29T781 0t-28.5 11T741 40v530q0 156-56 213t-204 57q-69 0-137-22t-109-48V40q0-18-11.5-29T195 0z"/><glyph glyph-name="Ohungarumlaut" unicode="Ő" horiz-adv-x="1306" d="M533 1452q-16 0-27 10.5t-11 25.5q0 11 10 36l52 132q13 34 40 34 16 0 27-10.5t11-25.5q0-11-10-36l-52-132q-13-34-40-34zm232 0q-16 0-27 10.5t-11 25.5q0 11 10 36l52 132q13 34 40 34 16 0 27-10.5t11-25.5q0-11-10-36l-52-132q-13-34-40-34zM653-12q-112 0-212 50T269.5 174t-113 207T115 638q0 183 70.5 333.5t194 236.5 273.5 86q154 0 277-84.5T1122 975t69-337q0-186-69-334.5t-192-232T653-12zm0 78q199 0 327.5 162T1109 638q0 164-58 296t-162.5 207-235.5 75q-128 0-232.5-76t-164-208.5T197 638q0-160 59.5-291t164-206T653 66z"/><glyph glyph-name="ohungarumlaut" unicode="ő" horiz-adv-x="970" d="M381 1076q-16 0-27 10.5t-11 25.5q0 11 10 36l52 132q13 34 40 34 16 0 27-10.5t11-25.5q0-11-10-36l-52-132q-13-34-40-34zm232 0q-16 0-27 10.5t-11 25.5q0 11 10 36l52 132q13 34 40 34 16 0 27-10.5t11-25.5q0-11-10-36l-52-132q-13-34-40-34zM485-12q-174 0-282 127.5T95 450q0 211 107.5 339.5T485 918t283.5-128.5T877 450q0-213-106-337.5T485-12zm0 78q145 0 227.5 102T795 450t-83.5 285T485 840q-140 0-224-106t-84-284q0-174 83.5-279T485 66z"/><glyph glyph-name="OE" unicode="Œ" horiz-adv-x="1662" d="M1497 78q18 0 30-11t12-27q0-18-12-29t-30-11H655Q494 0 371 81T181.5 306.5 115 636q0 186 67.5 333t191 230 281.5 83h804q18 0 30-11t12-27q0-18-12-29t-30-11H955V714h468q18 0 30-11t12-27q0-18-12-29t-30-11H955V78h542zm-622 0v1126H655q-206 0-332-159T197 636q0-249 124.5-403.5T655 78h220z"/><glyph glyph-name="oe" unicode="œ" horiz-adv-x="1618" d="M485-12q-174 0-282 127.5T95 450q0 211 107.5 339.5T485 918q75 0 138.5-24.5t105-64 68-82.5 38.5-87q28 114 130 186t228 72q147 0 236.5-79.5T1519 664q0-78-43-131t-131-82-198-40.5T879 398q8-141 91-236.5T1185 66q115 0 268 68 23 10 34 10 15 0 25.5-11.5T1523 106q0-23-30-40-24-13-62-28T1321 5.5 1185-12q-126 0-219 66.5T837 238Q808 134 718.5 61T485-12zm0 78q145 0 228.5 103.5T797 453q0 178-85.5 282.5T485 840q-140 0-224-106t-84-284q0-174 83.5-279T485 66zm392 406q68 0 128 3 230 10 331 54.5T1437 664q0 63-65 119.5T1199 840q-146 0-232-97t-90-271z"/><glyph glyph-name="Racute" unicode="Ŕ" horiz-adv-x="1080" d="M353 1452q-14 0-25 10.5t-11 27.5q0 16 9.5 25t32.5 19l286 122q34 14 46 14 14 0 25-10.5t11-27.5q0-16-9.5-25t-32.5-19l-286-122q-34-14-46-14zM235 0q-17 0-28.5 11T195 40v1188q0 54 54 54h316q156 0 258-91t102-231q0-88-28-154.5T823.5 703t-92-54-94.5-21q39-14 80.5-58.5t71.5-91T856 357t53.5-114L953 138q32-75 32-98 0-18-11.5-29T945 0q-27 0-40 32-52 132-89 215t-78.5 159T658 522t-83.5 63-99.5 23H275V40q0-18-11.5-29T235 0zm40 686h290q27 0 54.5 3.5T690 709t74.5 43.5 55 81.5T843 960q0 107-78.5 175.5T565 1204H275V686z"/><glyph glyph-name="racute" unicode="ŕ" horiz-adv-x="678" d="M230 1076q-14 0-25 10.5t-11 27.5q0 16 9.5 25t32.5 19l286 122q34 14 46 14 14 0 25-10.5t11-27.5q0-16-9.5-25t-32.5-19l-286-122q-34-14-46-14zM195 0q-17 0-28.5 11T155 40v826q0 18 11.5 29t28.5 11 28.5-11 11.5-29V710q26 99 102.5 153.5T511 918q48 0 91-10 39-10 39-41 0-17-11.5-28.5T601 827q-12 0-32 5-32 8-54 8-32 0-63-7t-72-34-71.5-70.5-52-125.5T235 412V40q0-18-11.5-29T195 0z"/><glyph glyph-name="Rcaron" unicode="Ř" horiz-adv-x="1080" d="M510 1452q-17 0-38 12l-228 120q-26 14-26 38 0 15 10.5 25.5T254 1658q12 0 28-8l228-118 226 118q16 8 28 8 15 0 25.5-10.5T800 1622q0-24-26-38l-226-120q-24-12-38-12zM235 0q-17 0-28.5 11T195 40v1188q0 54 54 54h316q156 0 258-91t102-231q0-88-28-154.5T823.5 703t-92-54-94.5-21q39-14 80.5-58.5t71.5-91T856 357t53.5-114L953 138q32-75 32-98 0-18-11.5-29T945 0q-27 0-40 32-52 132-89 215t-78.5 159T658 522t-83.5 63-99.5 23H275V40q0-18-11.5-29T235 0zm40 686h290q27 0 54.5 3.5T690 709t74.5 43.5 55 81.5T843 960q0 107-78.5 175.5T565 1204H275V686z"/><glyph glyph-name="rcaron" unicode="ř" horiz-adv-x="678" d="M340 1076q-17 0-38 12L74 1208q-26 14-26 38 0 15 10.5 25.5T84 1282q12 0 28-8l228-118 226 118q16 8 28 8 15 0 25.5-10.5T630 1246q0-24-26-38l-226-120q-24-12-38-12zM195 0q-17 0-28.5 11T155 40v826q0 18 11.5 29t28.5 11 28.5-11 11.5-29V710q26 99 102.5 153.5T511 918q48 0 91-10 39-10 39-41 0-17-11.5-28.5T601 827q-12 0-32 5-32 8-54 8-32 0-63-7t-72-34-71.5-70.5-52-125.5T235 412V40q0-18-11.5-29T195 0z"/><glyph glyph-name="Sacute" unicode="Ś" horiz-adv-x="964" d="M365 1452q-14 0-25 10.5t-11 27.5q0 16 9.5 25t32.5 19l286 122q34 14 46 14 14 0 25-10.5t11-27.5q0-16-9.5-25t-32.5-19l-286-122q-34-14-46-14zM461-12q-72 0-139.5 21.5T217.5 54 136 112q-21 17-21 38 0 16 11 26t26 10 34-14q28-21 48-34t57-32.5T371.5 76 461 66q142 0 224 73t82 197q0 66-34 118t-88 86-119.5 64.5l-131 64-119.5 73-88 102L153 986q0 136 105 222t247 86q147 0 296-106 20-15 20-36 0-17-12-28.5t-28-11.5q-12 0-28 11-133 93-248 93-108 0-189-65.5T235 986q0-66 34-117.5t88-85.5 119.5-64.5l131-63.5L727 582l88-102.5L849 336q0-157-106-252.5T461-12z"/><glyph glyph-name="sacute" unicode="ś" horiz-adv-x="800" d="M236 1076q-14 0-25 10.5t-11 27.5q0 16 9.5 25t32.5 19l286 122q34 14 46 14 14 0 25-10.5t11-27.5q0-16-9.5-25t-32.5-19l-286-122q-34-14-46-14zM403-12q-146 0-280 78-28 18-28 42 0 16 10.5 27t26.5 11q11 0 49-20 109-60 222-60 96 0 158 48.5T623 242q0 40-27 72.5t-69.5 56-94.5 46T328 464t-94.5 54-69.5 72-27 96q0 76 44.5 130.5t108.5 78T429 918q120 0 212-48 34-17 34-42 0-17-10-27.5T640 790q-13 0-46 14-82 36-165 36-87 0-148.5-40T219 686q0-37 27-68.5t69.5-55T410 516t104-48.5 94.5-55.5 69.5-73.5 27-96.5q0-112-86-183T403-12z"/><glyph glyph-name="Scedilla" unicode="Ş" horiz-adv-x="964" d="M486-426q-54 0-77 14-21 12-21 30 0 13 7.5 20.5T414-354q2 0 25-6t51-6q40 0 76 29t36 77q0 47-27.5 72.5T508-162q-34 0-64-13t-36-13q-30 0-30 26 0 11 6 38l27 114Q273 4 136 112q-21 17-21 38 0 16 11 26t26 10q16 0 34-14Q325 66 461 66q142 0 224 73t82 197q0 66-34 118t-88 86-119.5 64.5l-131 64-119.5 73-88 102L153 986q0 136 105 222t247 86q147 0 296-106 20-15 20-36 0-17-12-28.5t-28-11.5q-12 0-28 11-133 93-248 93-108 0-189-65.5T235 986q0-66 34-117.5t88-85.5 119.5-64.5l131-63.5L727 582l88-102.5L849 336q0-158-106.5-253T459-12l-25-110q40 18 80 18 62 0 106-41.5T664-260q0-78-55-122t-123-44z"/><glyph glyph-name="scedilla" unicode="ş" horiz-adv-x="800" d="M396-426q-98 0-98 44 0 13 7.5 20.5T324-354q4 0 25-6t51-6q40 0 76 29t36 77q0 47-27.5 72.5T418-162q-34 0-64-13t-36-13q-30 0-30 26 0 11 6 38L322-6q-48 8-94 24t-68.5 27.5T123 66q-28 19-28 42 0 16 10.5 27t26.5 11q11 0 49-20 109-60 222-60 96 0 158 48.5T623 242q0 40-27 72.5t-69.5 56-94.5 46T328 464t-94.5 54-69.5 72-27 96q0 76 44.5 130.5t108.5 78T429 918q120 0 212-48 34-17 34-42 0-17-10-27.5T640 790q-13 0-46 14-82 36-165 36-87 0-148.5-40T219 686q0-37 27-68.5t69.5-55T410 516t104-48.5 94.5-55.5 69.5-73.5 27-96.5q0-112-86-183T403-12q-23 0-33 1l-26-111q40 18 80 18 62 0 106-41.5T574-260q0-78-55-122t-123-44z"/><glyph glyph-name="Scaron" unicode="Š" horiz-adv-x="964" d="M502 1476q-17 0-38 12l-228 120q-26 14-26 38 0 15 10.5 25.5T246 1682q12 0 28-8l228-118 226 118q16 8 28 8 15 0 25.5-10.5T792 1646q0-24-26-38l-226-120q-24-12-38-12zM461-12q-72 0-139.5 21.5T217.5 54 136 112q-21 17-21 38 0 16 11 26t26 10 34-14q28-21 48-34t57-32.5T371.5 76 461 66q142 0 224 73t82 197q0 66-34 118t-88 86-119.5 64.5l-131 64-119.5 73-88 102L153 986q0 136 105 222t247 86q147 0 296-106 20-15 20-36 0-17-12-28.5t-28-11.5q-12 0-28 11-133 93-248 93-108 0-189-65.5T235 986q0-66 34-117.5t88-85.5 119.5-64.5l131-63.5L727 582l88-102.5L849 336q0-157-106-252.5T461-12z"/><glyph glyph-name="scaron" unicode="š" horiz-adv-x="800" d="M404 1076q-17 0-38 12l-228 120q-26 14-26 38 0 15 10.5 25.5T148 1282q12 0 28-8l228-118 226 118q16 8 28 8 15 0 25.5-10.5T694 1246q0-24-26-38l-226-120q-24-12-38-12zM403-12q-146 0-280 78-28 18-28 42 0 16 10.5 27t26.5 11q11 0 49-20 109-60 222-60 96 0 158 48.5T623 242q0 40-27 72.5t-69.5 56-94.5 46T328 464t-94.5 54-69.5 72-27 96q0 76 44.5 130.5t108.5 78T429 918q120 0 212-48 34-17 34-42 0-17-10-27.5T640 790q-13 0-46 14-82 36-165 36-87 0-148.5-40T219 686q0-37 27-68.5t69.5-55T410 516t104-48.5 94.5-55.5 69.5-73.5 27-96.5q0-112-86-183T403-12z"/><glyph glyph-name="uni0162" unicode="Ţ" horiz-adv-x="954" d="M515-426q-98 0-98 44 0 13 7.5 20.5T443-354q1 0 31-8 17-4 45-4 40 0 76 29t36 77q0 47-27.5 72.5T537-162q-33 0-63-13t-37-13q-30 0-30 26 0 11 6 38l32 134q-12 9-12 30v1164H77q-18 0-30 11t-12 29q0 16 12 27t30 11h800q18 0 30-11t12-27q0-18-12-29t-30-11H513V40q0-27-22-36l-28-126q40 18 80 18 62 0 106-41.5T693-260q0-78-55-122t-123-44z"/><glyph glyph-name="uni0163" unicode="ţ" horiz-adv-x="680" d="M397-426q-98 0-98 44 0 13 7.5 20.5T325-354q4 0 24-6t52-6q40 0 76 29t36 77q0 47-27.5 72.5T419-162q-33 0-63-13t-37-13q-30 0-30 26 0 11 6 38l32 136Q173 76 173 328v500H61q-18 0-30 11t-12 29q0 16 12 27t30 11h112v244q0 18 11.5 29t28.5 11 28.5-11 11.5-29V906h272q18 0 30-11t12-27q0-18-12-29t-30-11H253V328q0-67 13.5-116t34-76.5 51-44 57.5-21 60-4.5q49 0 88 14 46 16 52 16 16 0 26-10.5T645 60q0-25-32-42-53-30-142-30-58 0-98 10l-28-120q40 18 80 18 62 0 106-41.5T575-260q0-78-55-122t-123-44z"/><glyph glyph-name="Tcaron" unicode="Ť" horiz-adv-x="954" d="M468 1452q-17 0-38 12l-228 120q-26 14-26 38 0 15 10.5 25.5T212 1658q12 0 28-8l228-118 226 118q16 8 28 8 15 0 25.5-10.5T758 1622q0-24-26-38l-226-120q-24-12-38-12zM473 0q-17 0-28.5 11T433 40v1164H77q-18 0-30 11t-12 29q0 16 12 27t30 11h800q18 0 30-11t12-27q0-18-12-29t-30-11H513V40q0-18-11.5-29T473 0z"/><glyph glyph-name="tcaron" unicode="ť" horiz-adv-x="680" d="M483 1028q-17 0-28.5 12t-11.5 28 12 28q68 68 68 240 0 18 11.5 29t28.5 11q18 0 29-9.5t11-28.5v-6q0-196-86-288-15-16-34-16zM471-12q-47 0-85 6.5t-79.5 28T237 80t-46 99.5T173 328v500H61q-18 0-30 11t-12 29q0 16 12 27t30 11h112v244q0 18 11.5 29t28.5 11 28.5-11 11.5-29V906h272q18 0 30-11t12-27q0-18-12-29t-30-11H253V328q0-67 13.5-116t34-76.5 51-44 57.5-21 60-4.5q49 0 88 14 44 16 52 16 16 0 26-10.5T645 60q0-25-32-42-53-30-142-30z"/><glyph glyph-name="Uring" unicode="Ů" horiz-adv-x="1198" d="M593 1452q-63 0-106.5 43.5T443 1602t43.5 106.5T593 1752t107.5-43.5T745 1602t-44.5-106.5T593 1452zm0 62q36 0 63 26t27 62-27 63-63 27-62-27-26-63 26-62 62-26zm6-1526q-135 0-231.5 59.5T226 201t-45 209v832q0 18 11.5 29t28.5 11 28.5-11 11.5-29V414q0-156 90.5-252T599 66t247.5 96T937 414v828q0 18 11.5 29t28.5 11 28.5-11 11.5-29V410q0-115-45-209T830.5 47.5 599-12z"/><glyph glyph-name="uring" unicode="ů" horiz-adv-x="974" d="M489 1076q-63 0-107.5 44T337 1226t44.5 106 107.5 44 107.5-44 44.5-106-44.5-106-107.5-44zm0 62q36 0 62 26t26 62-26 62-62 26-62-26-26-62 26-62 62-26zM481-12q-182 0-254 73.5T155 322v544q0 18 11.5 29t28.5 11 28.5-11 11.5-29V330q0-157 53-210.5T495 66q131 0 246 104v696q0 18 11.5 29t28.5 11 28.5-11 11.5-29V40q0-18-10.5-29T783 0t-28.5 11T743 40v50Q630-12 481-12z"/><glyph glyph-name="Uhungarumlaut" unicode="Ű" horiz-adv-x="1198" d="M459 1452q-16 0-27 10.5t-11 25.5q0 11 10 36l52 132q13 34 40 34 16 0 27-10.5t11-25.5q0-11-10-36l-52-132q-13-34-40-34zm232 0q-16 0-27 10.5t-11 25.5q0 11 10 36l52 132q13 34 40 34 16 0 27-10.5t11-25.5q0-11-10-36l-52-132q-13-34-40-34zM599-12q-135 0-231.5 59.5T226 201t-45 209v832q0 18 11.5 29t28.5 11 28.5-11 11.5-29V414q0-156 90.5-252T599 66t247.5 96T937 414v828q0 18 11.5 29t28.5 11 28.5-11 11.5-29V410q0-115-45-209T830.5 47.5 599-12z"/><glyph glyph-name="uhungarumlaut" unicode="ű" horiz-adv-x="974" d="M369 1076q-16 0-27 10.5t-11 25.5q0 11 10 36l52 132q13 34 40 34 16 0 27-10.5t11-25.5q0-11-10-36l-52-132q-13-34-40-34zm232 0q-16 0-27 10.5t-11 25.5q0 11 10 36l52 132q13 34 40 34 16 0 27-10.5t11-25.5q0-11-10-36l-52-132q-13-34-40-34zM481-12q-182 0-254 73.5T155 322v544q0 18 11.5 29t28.5 11 28.5-11 11.5-29V330q0-157 53-210.5T495 66q131 0 246 104v696q0 18 11.5 29t28.5 11 28.5-11 11.5-29V40q0-18-10.5-29T783 0t-28.5 11T743 40v50Q630-12 481-12z"/><glyph glyph-name="Ydieresis" unicode="Ÿ" horiz-adv-x="962" d="M355 1476q-17 0-28.5 11t-11.5 29v72q0 18 11.5 29t28.5 11 28.5-11 11.5-29v-72q0-18-11.5-29t-28.5-11zm256 0q-17 0-28.5 11t-11.5 29v72q0 18 11.5 29t28.5 11 28.5-11 11.5-29v-72q0-18-11.5-29t-28.5-11zM481 0q-17 0-28.5 11T441 40v474q-18 13-38 38-132 171-334 658-10 25-10 34 0 15 11 26.5t27 11.5q26 0 38-26l92.5-210 128-264.5L469 594q8-8 12-8t12 8q36 35 113.5 187.5t128 264.5l92.5 210q12 26 38 26 16 0 27-11.5t11-26.5q0-9-10-34-202-487-334-658-20-25-38-38V40q0-18-11.5-29T481 0z"/><glyph glyph-name="Zacute" unicode="Ź" horiz-adv-x="922" d="M285 1452q-14 0-25 10.5t-11 27.5q0 16 9.5 25t32.5 19l286 122q34 14 46 14 14 0 25-10.5t11-27.5q0-16-9.5-25t-32.5-19l-286-122q-34-14-46-14zM115 0Q55 0 55 57v1q0 24 16 56 44 89 270 452.5L703 1135l46 69H99q-18 0-30 11t-12 29q0 16 12 27t30 11h680q60 0 60-54v-1q0-35-44-101-58-86-277.5-434.5L195 169q-39-65-52-91h684q18 0 30-11t12-27q0-18-12-29T827 0H115z"/><glyph glyph-name="zacute" unicode="ź" horiz-adv-x="890" d="M286 1076q-14 0-25 10.5t-11 27.5q0 16 9.5 25t32.5 19l286 122q34 14 46 14 14 0 25-10.5t11-27.5q0-16-9.5-25t-32.5-19l-286-122q-34-14-46-14zM147 0Q98 0 98 47q0 7 1.5 15t3 14 5.5 14.5 7 13.5l9.5 15.5L134 135l12 17.5 12 17.5q56 83 242 324l265 334H139q-18 0-30 11t-12 29q0 16 12 27t30 11h571q49 0 49-47 0-30-13-54t-48-67L510 502Q233 148 191 78h562q18 0 30-11t12-27q0-18-12-29T753 0H147z"/><glyph glyph-name="Zdotaccent" unicode="Ż" horiz-adv-x="922" d="M528 1452q-28 0-49 21t-21 49 21 49 49 21 49-21 21-49-21-49-49-21zM115 0Q55 0 55 57v1q0 24 16 56 44 89 270 452.5L703 1135l46 69H99q-18 0-30 11t-12 29q0 16 12 27t30 11h680q60 0 60-54v-1q0-35-44-101-58-86-277.5-434.5L195 169q-39-65-52-91h684q18 0 30-11t12-27q0-18-12-29T827 0H115z"/><glyph glyph-name="zdotaccent" unicode="ż" horiz-adv-x="890" d="M437 1076q-29 0-49.5 21t-20.5 49 20.5 49 49.5 21 49.5-21 20.5-49-20.5-49-49.5-21zM147 0Q98 0 98 47q0 7 1.5 15t3 14 5.5 14.5 7 13.5l9.5 15.5L134 135l12 17.5 12 17.5q56 83 242 324l265 334H139q-18 0-30 11t-12 29q0 16 12 27t30 11h571q49 0 49-47 0-30-13-54t-48-67L510 502Q233 148 191 78h562q18 0 30-11t12-27q0-18-12-29T753 0H147z"/><glyph glyph-name="Zcaron" unicode="Ž" horiz-adv-x="922" d="M464 1476q-17 0-38 12l-228 120q-26 14-26 38 0 15 10.5 25.5T208 1682q12 0 28-8l228-118 226 118q16 8 28 8 15 0 25.5-10.5T754 1646q0-24-26-38l-226-120q-24-12-38-12zM115 0Q55 0 55 57v1q0 24 16 56 44 89 270 452.5L703 1135l46 69H99q-18 0-30 11t-12 29q0 16 12 27t30 11h680q60 0 60-54v-1q0-35-44-101-58-86-277.5-434.5L195 169q-39-65-52-91h684q18 0 30-11t12-27q0-18-12-29T827 0H115z"/><glyph glyph-name="zcaron" unicode="ž" horiz-adv-x="890" d="M452 1076q-17 0-38 12l-228 120q-26 14-26 38 0 15 10.5 25.5T196 1282q12 0 28-8l228-118 226 118q16 8 28 8 15 0 25.5-10.5T742 1246q0-24-26-38l-226-120q-24-12-38-12zM147 0Q98 0 98 47q0 7 1.5 15t3 14 5.5 14.5 7 13.5l9.5 15.5L134 135l12 17.5 12 17.5q56 83 242 324l265 334H139q-18 0-30 11t-12 29q0 16 12 27t30 11h571q49 0 49-47 0-30-13-54t-48-67L510 502Q233 148 191 78h562q18 0 30-11t12-27q0-18-12-29T753 0H147z"/><glyph glyph-name="florin" unicode="ƒ" horiz-adv-x="1290" d="M303-248q-56 0-104 15t-65 26-25 19q-14 14-14 32t10.5 28 27.5 10q7 0 27-12 19-12 30-18t43-14 70-8q71 0 124.5 82T511 140l120 594H439q-17 0-28.5 10.5T399 772q0 16 11.5 28t28.5 12h208l52 258q39 197 108.5 284.5T989 1442q54 0 101-15t64-26 25-19q14-14 14-32t-10.5-28-27.5-10q-9 0-24 10-20 13-30 19t-42 14.5-70 8.5q-78 0-127.5-72.5T779 1054l-48-242h238q17 0 28.5-12t11.5-28q0-17-11.5-27.5T969 734H715L593 122q-18-91-47-160t-59-108-65.5-63-63-31.5T303-248z"/><glyph glyph-name="uni0218" unicode="Ș" horiz-adv-x="964" d="M461-12q-72 0-139.5 21.5T217.5 54 136 112q-21 17-21 38 0 16 11 26t26 10 34-14q28-21 48-34t57-32.5T371.5 76 461 66q142 0 224 73t82 197q0 66-34 118t-88 86-119.5 64.5l-131 64-119.5 73-88 102L153 986q0 136 105 222t247 86q147 0 296-106 20-15 20-36 0-17-12-28.5t-28-11.5q-12 0-28 11-133 93-248 93-108 0-189-65.5T235 986q0-66 34-117.5t88-85.5 119.5-64.5l131-63.5L727 582l88-102.5L849 336q0-157-106-252.5T461-12zm-89-332q-12 0-21 9t-9 21 9 21 21 9q100 0 100 80 0 30-26 56-2 2-7.5 6.5t-9 8-6.5 9.5-3 12q0 13 9 21.5t21 8.5q29 0 57.5-37t28.5-85q0-60-40-100t-124-40z"/><glyph glyph-name="uni0219" unicode="ș" horiz-adv-x="800" d="M403-12q-146 0-280 78-28 18-28 42 0 16 10.5 27t26.5 11q11 0 49-20 109-60 222-60 96 0 158 48.5T623 242q0 40-27 72.5t-69.5 56-94.5 46T328 464t-94.5 54-69.5 72-27 96q0 76 44.5 130.5t108.5 78T429 918q120 0 212-48 34-17 34-42 0-17-10-27.5T640 790q-13 0-46 14-82 36-165 36-87 0-148.5-40T219 686q0-37 27-68.5t69.5-55T410 516t104-48.5 94.5-55.5 69.5-73.5 27-96.5q0-112-86-183T403-12zM282-344q-12 0-21 9t-9 21 9 21 21 9q100 0 100 80 0 30-26 56-2 2-7.5 6.5t-9 8-6.5 9.5-3 12q0 13 9 21.5t21 8.5q29 0 57.5-37t28.5-85q0-60-40-100t-124-40z"/><glyph glyph-name="uni021A" unicode="Ț" horiz-adv-x="954" d="M473 0q-17 0-28.5 11T433 40v1164H77q-18 0-30 11t-12 29q0 16 12 27t30 11h800q18 0 30-11t12-27q0-18-12-29t-30-11H513V40q0-18-11.5-29T473 0zm-66-344q-12 0-21 9t-9 21 9 21 21 9q100 0 100 80 0 30-26 56-2 2-7.5 6.5t-9 8-6.5 9.5-3 12q0 13 9 21.5t21 8.5q29 0 57.5-37t28.5-85q0-60-40-100t-124-40z"/><glyph glyph-name="uni021B" unicode="ț" horiz-adv-x="680" d="M471-12q-47 0-85 6.5t-79.5 28T237 80t-46 99.5T173 328v500H61q-18 0-30 11t-12 29q0 16 12 27t30 11h112v244q0 18 11.5 29t28.5 11 28.5-11 11.5-29V906h272q18 0 30-11t12-27q0-18-12-29t-30-11H253V328q0-67 13.5-116t34-76.5 51-44 57.5-21 60-4.5q49 0 88 14 44 16 52 16 16 0 26-10.5T645 60q0-25-32-42-53-30-142-30zM344-344q-12 0-21 9t-9 21 9 21 21 9q100 0 100 80 0 30-26 56-2 2-7.5 6.5t-9 8-6.5 9.5-3 12q0 13 9 21.5t21 8.5q29 0 57.5-37t28.5-85q0-60-40-100t-124-40z"/><glyph glyph-name="gravecomb" unicode="̀" horiz-adv-x="0" d="M-153 1076q-12 0-46 14l-286 122q-23 10-32.5 19t-9.5 25q0 17 11 27.5t25 10.5q12 0 46-14l286-122q23-10 32.5-19t9.5-25q0-17-11-27.5t-25-10.5z"/><glyph glyph-name="acutecomb" unicode="́" horiz-adv-x="0" d="M-490 1076q-14 0-25 10.5t-11 27.5q0 16 9.5 25t32.5 19l286 122q34 14 46 14 14 0 25-10.5t11-27.5q0-16-9.5-25t-32.5-19l-286-122q-34-14-46-14z"/><glyph glyph-name="uni0302" unicode="̂" horiz-adv-x="0" d="M-661 1076q-15 0-25.5 10.5T-697 1112q0 24 26 38l228 120q21 12 38 12 14 0 38-12l226-120q26-14 26-38 0-15-10.5-25.5T-151 1076q-12 0-28 8l-226 118-228-118q-16-8-28-8z"/><glyph glyph-name="tildecomb" unicode="̃" horiz-adv-x="0" d="M-257 1076q-58 0-135 27-55 19-107 19-37 0-69-20-26-16-35-16-38 0-38 34 0 30 38 54 48 30 104 30 54 0 127-25 61-21 115-21 33 0 63 16 5 3 14 9t15 8.5 12 2.5q38 0 38-34 0-32-46-58-45-26-96-26z"/><glyph glyph-name="uni0304" unicode="̄" horiz-adv-x="0" d="M-617 1076q-18 0-30 11t-12 29q0 16 12 27t30 11h462q18 0 30-11t12-27q0-18-12-29t-30-11h-462z"/><glyph glyph-name="uni0306" unicode="̆" horiz-adv-x="0" d="M-355 1076q-130 0-194 79-22 26-32 53.5t-10 41.5q0 18 10 29t28 11q27 0 40-38 4-13 7-20t15-24 27.5-27 44-18.5 64.5-8.5q46 0 79 11t49.5 30.5 22.5 30 11 26.5q13 38 40 38 18 0 28-11t10-29q0-17-14.5-50.5T-174 1138q-66-62-181-62z"/><glyph glyph-name="uni0307" unicode="̇" horiz-adv-x="0" d="M-175 1076q-29 0-49.5 21t-20.5 49 20.5 49 49.5 21 49.5-21 20.5-49-20.5-49-49.5-21z"/><glyph glyph-name="uni0308" unicode="̈" horiz-adv-x="0" d="M-411 1076q-17 0-28.5 11t-11.5 29v72q0 18 11.5 29t28.5 11 28.5-11 11.5-29v-72q0-18-11.5-29t-28.5-11zm256 0q-17 0-28.5 11t-11.5 29v72q0 18 11.5 29t28.5 11 28.5-11 11.5-29v-72q0-18-11.5-29t-28.5-11z"/><glyph glyph-name="uni030A" unicode="̊" horiz-adv-x="0" d="M-263 1076q-63 0-107.5 44t-44.5 106 44.5 106 107.5 44 107.5-44 44.5-106-44.5-106-107.5-44zm0 62q36 0 62 26t26 62-26 62-62 26-62-26-26-62 26-62 62-26z"/><glyph glyph-name="uni030B" unicode="̋" horiz-adv-x="0" d="M-503 1076q-16 0-27 10.5t-11 25.5q0 11 10 36l52 132q13 34 40 34 16 0 27-10.5t11-25.5q0-11-10-36l-52-132q-13-34-40-34zm232 0q-16 0-27 10.5t-11 25.5q0 11 10 36l52 132q13 34 40 34 16 0 27-10.5t11-25.5q0-11-10-36l-52-132q-13-34-40-34z"/><glyph glyph-name="uni030C" unicode="̌" horiz-adv-x="0" d="M-406 1076q-17 0-38 12l-228 120q-26 14-26 38 0 15 10.5 25.5t25.5 10.5q12 0 28-8l228-118 226 118q16 8 28 8 15 0 25.5-10.5t10.5-25.5q0-24-26-38l-226-120q-24-12-38-12z"/><glyph glyph-name="uni0326" unicode="̦" horiz-adv-x="0" d="M-508-344q-12 0-21 9t-9 21 9 21 21 9q100 0 100 80 0 30-26 56-2 2-7.5 6.5t-9 8-6.5 9.5-3 12q0 13 9 21.5t21 8.5q29 0 57.5-37t28.5-85q0-60-40-100t-124-40z"/><glyph glyph-name="uni0327" unicode="̧" horiz-adv-x="0" d="M-291-426q-98 0-98 44 0 13 7.5 20.5t18.5 7.5q1 0 31-8 17-4 45-4 40 0 76 29t36 77q0 47-27.5 72.5T-269-162q-33 0-63-13t-37-13q-30 0-30 26 0 11 6 38l32 136q5 24 26 24 9 0 15.5-7t6.5-17q0-6-6-30l-24-104q41 18 80 18 62 0 106-41.5t44-114.5q0-78-55-122t-123-44z"/><glyph glyph-name="uni0328" unicode="̨" horiz-adv-x="0" d="M-311-334q-76 0-120 46t-44 114q0 45 19 85.5t50 68.5 53 43.5 43 26.5q20 10 31 10 13 0 20.5-8.5T-251 30q0-15-28-33-69-44-95-76-37-45-37-101 0-41 26-66.5t74-25.5q58 0 110 26 26 12 35 12 13 0 21.5-9t8.5-22q0-19-21-33-18-12-61.5-24t-92.5-12z"/><glyph glyph-name="uni0394" unicode="Δ" horiz-adv-x="1182" d="M191 0q-18 0-30 11.5T149 40q0 12 10 38l394 964q15 38 44 38t44-38l390-964q12-30 12-38 0-17-12-28.5T1001 0H191zm54 78h702L597 942z"/><glyph glyph-name="uni03A9" unicode="Ω" horiz-adv-x="1464" d="M209 0q-18 0-30 11t-12 29q0 16 12 27t30 11h254q-43 35-84.5 81.5t-85 114-70 157.5T197 618q0 184 69.5 331t193 230 277.5 83q153 0 276-83t192.5-230.5T1275 618q0-97-26.5-187T1179 273.5 1094.5 159 1009 78h254q18 0 30-11t12-27q0-18-12-29t-30-11H921q-52 0-52 42 0 8 2.5 14t9 12.5 12 11 19 14.5l21.5 16q26 20 50 42t65.5 72 70.5 102.5 51.5 130.5 22.5 161q0 245-128.5 405.5T737 1184t-328.5-160.5T279 618q0-83 22.5-161t52-131T424 224t66.5-72 50.5-42l21.5-16 19-14.5 12-10.5 9.5-13 2-14q0-42-52-42H209z"/><glyph glyph-name="uni03BC" unicode="μ" horiz-adv-x="966" d="M195-470q-17 0-28.5 12T155-430V866q0 18 11.5 29t28.5 11 28.5-11 11.5-29V304q0-134 60.5-186T495 66q75 0 143.5 29T741 160v706q0 18 11.5 29t28.5 11 28.5-11 11.5-29V40q0-16-11.5-28T781 0q-16 0-27 11.5T743 40v34q-42-36-108-61T495-12q-116 0-182.5 32.5T235 106v-536q0-16-11.5-28T195-470z"/><glyph glyph-name="pi" unicode="π" horiz-adv-x="1234" d="M973-12q-41 0-72 6.5T837 22t-54.5 56.5-35.5 99T733 328v500H339V40q0-18-11.5-29T299 0t-28.5 11T259 40v788h-82q-18 0-30 11t-12 29q0 16 12 27t30 11h760q18 0 30-11t12-27q0-18-12-29t-30-11H813V328q0-69 9.5-119t24-77 37-42.5T926 70t47-4q33 0 62 22 13 10 26 10 38 0 38-36 0-19-16-34-46-40-110-40z"/><glyph glyph-name="uni2007" horiz-adv-x="1010"/><glyph glyph-name="uni2008" horiz-adv-x="380"/><glyph glyph-name="uni200B" unicode="​" horiz-adv-x="10"/><glyph glyph-name="endash" unicode="–" horiz-adv-x="1026" d="M223 422q-18 0-30 11t-12 29q0 16 12 27t30 11h580q18 0 30-11t12-27q0-18-12-29t-30-11H223z"/><glyph glyph-name="emdash" unicode="—" horiz-adv-x="1256" d="M223 422q-18 0-30 11t-12 29q0 16 12 27t30 11h810q18 0 30-11t12-27q0-18-12-29t-30-11H223z"/><glyph glyph-name="quoteleft" unicode="‘" horiz-adv-x="430" d="M175 934q-18 0-29 9.5T135 972q0 197 86 294 15 16 34 16 17 0 28.5-12t11.5-28-12-28q-68-68-68-240 0-18-11.5-29T175 934z"/><glyph glyph-name="quoteright" unicode="’" horiz-adv-x="430" d="M175 934q-17 0-28.5 12T135 974t12 28q68 68 68 240 0 18 11.5 29t28.5 11q18 0 29-9.5t11-28.5v-6q0-196-86-288-15-16-34-16z"/><glyph glyph-name="quotesinglbase" unicode="‚" horiz-adv-x="430" d="M175-246q-17 0-28.5 12T135-206t12 28q68 68 68 240 0 18 11.5 29t28.5 11q18 0 29-9.5T295 64v-6q0-196-86-288-15-16-34-16z"/><glyph glyph-name="quotedblleft" unicode="“" horiz-adv-x="672" d="M175 934q-18 0-29 9.5T135 972q0 197 86 294 15 16 34 16 17 0 28.5-12t11.5-28-12-28q-68-68-68-240 0-18-11.5-29T175 934zm242 0q-18 0-29 9.5T377 972q0 202 86 294 15 16 34 16 17 0 28.5-12t11.5-28-12-28q-68-68-68-240 0-18-11.5-29T417 934z"/><glyph glyph-name="quotedblright" unicode="”" horiz-adv-x="672" d="M175 934q-17 0-28.5 12T135 974t12 28q68 68 68 240 0 18 11.5 29t28.5 11q18 0 29-9.5t11-28.5v-6q0-196-86-288-15-16-34-16zm242 0q-17 0-28.5 12T377 974t12 28q68 68 68 240 0 18 11.5 29t28.5 11q18 0 29-9.5t11-28.5v-6q0-196-86-288-15-16-34-16z"/><glyph glyph-name="quotedblbase" unicode="„" horiz-adv-x="672" d="M175-246q-17 0-28.5 12T135-206t12 28q68 68 68 240 0 18 11.5 29t28.5 11q18 0 29-9.5T295 64V50q0-194-90-284-12-12-30-12zm242 0q-17 0-28.5 12T377-206t12 28q68 68 68 240 0 18 11.5 29t28.5 11q18 0 29-9.5T537 64V50q0-194-90-284-12-12-30-12z"/><glyph glyph-name="dagger" unicode="†" horiz-adv-x="1084" d="M543-134q-17 0-28.5 11T503-94v922H175q-18 0-29 11t-11 29q0 17 11 27.5t29 10.5h328v378q0 18 11.5 29t28.5 11 28.5-11 11.5-29V906h328q17 0 27.5-10t10.5-28q0-17-11-28.5T911 828H583V-94q0-18-11.5-29T543-134z"/><glyph glyph-name="daggerdbl" unicode="‡" horiz-adv-x="1086" d="M543-134q-17 0-28.5 11T503-94v666H175q-18 0-29 11t-11 29q0 17 11 27.5t29 10.5h328v178H173q-17 0-27.5 11T135 866q0 18 10.5 29t27.5 11h330v378q0 18 11.5 29t28.5 11 28.5-11 11.5-29V906h328q17 0 27.5-11t10.5-29q0-16-10.5-27T911 828H583V650h328q18 0 29-10.5t11-27.5q0-18-11-29t-29-11H583V-94q0-18-11.5-29T543-134z"/><glyph glyph-name="bullet" unicode="•" horiz-adv-x="468" d="M234 420q-39 0-66.5 27.5T140 514t27.5 66.5T234 608t66.5-27.5T328 514t-27.5-66.5T234 420z"/><glyph glyph-name="ellipsis" unicode="…" horiz-adv-x="716" d="M181-12q-17 0-28.5 11T141 28v70q0 16 11.5 27t28.5 11 28.5-11T221 98V28q0-18-11.5-29T181-12zm178 0q-17 0-28.5 11T319 28v70q0 16 11.5 27t28.5 11 28.5-11T399 98V28q0-18-11.5-29T359-12zm176 0q-17 0-28.5 11T495 28v70q0 16 11.5 27t28.5 11 28.5-11T575 98V28q0-18-11.5-29T535-12z"/><glyph glyph-name="perthousand" unicode="‰" horiz-adv-x="2034" d="M313 0q-17 0-26.5 10T277 36q0 12 18 38l828 1198q16 22 34 22 17 0 26.5-10t9.5-26q0-12-18-38L347 22Q331 0 313 0zm42 602q-112 0-176 90t-64 250q0 158 65.5 252t174.5 94 174.5-95T595 942q0-160-63.5-250T355 602zm0 70q78 0 123 72t45 198q0 118-43.5 197T355 1218q-77 0-122.5-75T187 942t45-198 123-72zM1113-6q-112 0-176 90t-64 250q0 158 65.5 252t174.5 94 174.5-95 65.5-251q0-160-63.5-250T1113-6zm566 0q-112 0-176 90t-64 250q0 158 65.5 252t174.5 94 174.5-95 65.5-251q0-160-63.5-250T1679-6zm-566 70q78 0 123 72t45 198q0 118-43.5 197T1113 610q-77 0-122.5-75T945 334t45-198 123-72zm566 0q78 0 123 72t45 198q0 118-43.5 197T1679 610q-77 0-122.5-75T1511 334t45-198 123-72z"/><glyph glyph-name="guilsinglleft" unicode="‹" horiz-adv-x="552" d="M379 98q-20 0-32 18L141 428q-6 9-6 20 0 12 6 22l206 298q11 16 32 16 17 0 27.5-11t10.5-27q0-15-6-24L219 448l192-288q6-10 6-24 0-15-11-26.5T379 98z"/><glyph glyph-name="guilsinglright" unicode="›" horiz-adv-x="554" d="M173 98q-16 0-27 11.5T135 136q0 14 6 24l192 288-192 274q-6 9-6 24 0 16 10.5 27t27.5 11q21 0 32-16l206-298q6-10 6-22 0-11-6-20L205 116q-12-18-32-18z"/><glyph glyph-name="fraction" unicode="⁄" horiz-adv-x="186" d="M-329 0q-17 0-26.5 10t-9.5 26q0 12 18 38l828 1198q16 22 34 22 17 0 26.5-10t9.5-26q0-12-18-38L-295 22q-16-22-34-22z"/><glyph glyph-name="uni2070" unicode="⁰" horiz-adv-x="744" d="M371 602q-112 0-176 90t-64 250q0 158 65.5 252t174.5 94 174.5-95T611 942q0-160-63.5-250T371 602zm0 70q78 0 123 72t45 198q0 118-43.5 197T371 1218q-77 0-122.5-75T203 942t45-198 123-72z"/><glyph glyph-name="uni2074" unicode="⁴" horiz-adv-x="744" d="M485 608q-15 0-25.5 9.5T449 642v134H175q-18 0-27 10t-9 24q0 10 7 24 31 66 74 135.5t79.5 118.5 75 95.5T430 1248l25 26 26 8q13 0 23.5-10t10.5-22q0-18-10-28l-21-21-48-53-69.5-83.5-71.5-101L227 846h222v174q0 16 10.5 26t25.5 10 25.5-10 10.5-26V846h44q38 0 38-36 0-15-10-24.5t-28-9.5h-44V642q0-15-10.5-24.5T485 608z"/><glyph glyph-name="uni2075" unicode="⁵" horiz-adv-x="744" d="M349 602q-45 0-85.5 13.5t-55 23.5-19.5 15q-16 16-16 32 0 15 10 24.5t24 9.5q16 0 28-12 11-11 42-23.5t72-12.5q61 0 104.5 39T497 832q0 60-42.5 101T349 974q-31 0-60.5-10T247 944q-9-6-22-6-15 0-25.5 8.5T189 972v276q0 34 36 34h274q15 0 26.5-9.5T537 1248q0-16-11-26t-27-10H261v-182q51 14 88 14 96 0 158-60t62-152q0-60-19.5-106T497 654t-70.5-39-77.5-13z"/><glyph glyph-name="uni2076" unicode="⁶" horiz-adv-x="744" d="M377 602q-106 0-164 80.5T155 914q0 195 57.5 284.5T395 1288q45 0 83.5-12.5t52.5-22 22-17.5q12-12 12-28 0-13-10-23.5t-24-10.5q-15 0-30 12-40 32-106 32-30 0-54-8.5t-49-31-41.5-70.5T228 989q0-3-.5-10t-.5-11q21 35 64 58.5t86 23.5q58 0 101.5-22t65.5-56.5 32.5-69.5 10.5-68q0-35-10.5-72T544 687.5 478.5 626 377 602zm0 70q39 0 67.5 16.5t43 42.5 21 52 6.5 51q0 22-6.5 45t-21 47-43 39-67.5 15-67.5-15-43-39-21-47-6.5-45q0-25 6.5-51t21-52 43-42.5T377 672z"/><glyph glyph-name="uni2077" unicode="⁷" horiz-adv-x="744" d="M303 608q-18 0-28 9.5T265 642q0 40 12 85t43 109.5 45 91l56 102.5q81 148 92 182H191q-16 0-27 9t-11 25q0 15 11.5 25.5T191 1282h364q36 0 36-36 0-26-18.5-72.5t-36-79L483 996l-70-128-50-113.5L337 642q0-15-10-24.5t-24-9.5z"/><glyph glyph-name="uni2078" unicode="⁸" horiz-adv-x="744" d="M371 602q-99 0-159.5 53T151 796q0 63 25.5 106.5T239 966q-68 43-68 138 0 52 20.5 90t53 57.5 64 28 62.5 8.5q84 0 145-47t61-137q0-46-22.5-87T501 950q92-48 92-154 0-93-57-143.5T371 602zm48 376q31 3 58.5 40.5T505 1104q0 61-42 87.5t-92 26.5q-48 0-88-26.5t-40-87.5q0-34 13.5-58t41-37 54-19.5T419 978zm-48-306q39 0 70 9t55.5 38 24.5 77q0 29-13 51t-29.5 34.5-48.5 22-51.5 12.5-57.5 8q-38-2-68-37t-30-91q0-63 44.5-93.5T371 672z"/><glyph glyph-name="uni2079" unicode="⁹" horiz-adv-x="744" d="M347 602q-45 0-83.5 12.5t-52.5 22-22 17.5q-12 12-12 28 0 13 10 23.5t24 10.5q15 0 30-12 40-32 106-32 30 0 54 8.5t49 31 41.5 70.5T514 901q0 3 .5 10t.5 11q-21-35-64-58.5T365 840q-58 0-101.5 22T198 918.5 165.5 988t-10.5 68q0 35 10.5 72t32.5 74.5 65.5 61.5 101.5 24q106 0 164-80.5T587 976q0-195-57.5-284.5T347 602zm18 308q39 0 67.5 15t43 39 21 47 6.5 45q0 25-6.5 51t-21 52-43 42.5T365 1218t-67.5-16.5-43-42.5-21-52-6.5-51q0-22 6.5-45t21-47 43-39 67.5-15z"/><glyph glyph-name="uni2080" unicode="₀" d="M371-282q-112 0-176 90T131 58q0 158 65.5 252T371 404t174.5-95T611 58q0-160-63.5-250T371-282zm0 70q78 0 123 72t45 198q0 118-43.5 197T371 334q-77 0-122.5-75T203 58t45-198 123-72z"/><glyph glyph-name="uni2081" unicode="₁" horiz-adv-x="579" d="M291-276q-15 0-25.5 10T255-238v532l-60-40q-19-12-30-12-15 0-25.5 10T129 276q0 21 22 36l108 74q19 12 34 12t25.5-10 10.5-28v-598q0-18-10.5-28T291-276z"/><glyph glyph-name="uni2082" unicode="₂" d="M211-276q-16 0-27 9t-11 25q0 37 27 83t54 75.5T335 0l78 79.5 50 66.5 26 72q0 66-36.5 91T369 334q-13 0-26.5-2t-21.5-4-20.5-7-16.5-7l-16-8-13-7q-22-11-32-11-13 0-22.5 10.5T191 324q0 20 20 34 63 46 158 46 22 0 43-3t49.5-14.5 49-30.5 35.5-54.5 15-83.5q0-62-44-123T391-46q-54-52-87-89t-49-71h274q17 0 26.5-10t9.5-26q0-15-10-24.5t-26-9.5H211z"/><glyph glyph-name="uni2083" unicode="₃" d="M361-282q-114 0-176 48-20 17-20 34 0 14 10 23t24 9q12 0 34-14 47-30 128-30 57 0 97.5 34.5T499-92q0 63-47.5 92.5T343 30h-28q-34 0-34 34t34 34h28q55 0 99.5 31t44.5 89q0 30-10 52.5T453.5 305 421 324t-33 8.5-29 1.5q-47 0-106-32-22-12-34-12-14 0-23 9t-9 25q0 18 22 34 69 46 150 46 87 0 143.5-44T559 222q0-108-86-154 44-21 71-63.5T571-90q0-83-61.5-137.5T361-282z"/><glyph glyph-name="uni2084" unicode="₄" d="M485-276q-15 0-25.5 9.5T449-242v134H175q-18 0-27 10t-9 24q0 10 7 24 31 66 74 135.5T299.5 204t75 95.5T430 364l25 26 26 8q13 0 23.5-10t10.5-22q0-18-10-28l-21-21-48-53-69.5-83.5-71.5-101L227-38h222v174q0 16 10.5 26t25.5 10 25.5-10 10.5-26V-38h44q38 0 38-36 0-15-10-24.5t-28-9.5h-44v-134q0-15-10.5-24.5T485-276z"/><glyph glyph-name="uni2085" unicode="₅" d="M349-282q-45 0-85.5 13.5t-55 23.5-19.5 15q-16 16-16 32 0 15 10 24.5t24 9.5q16 0 28-12 11-11 42-23.5t72-12.5q61 0 104.5 39T497-52q0 60-42.5 101T349 90q-31 0-60.5-10T247 60q-9-6-22-6-15 0-25.5 8.5T189 88v276q0 34 36 34h274q15 0 26.5-9.5T537 364q0-16-11-26t-27-10H261V146q51 14 88 14 96 0 158-60t62-152q0-60-19.5-106T497-230t-70.5-39-77.5-13z"/><glyph glyph-name="uni2086" unicode="₆" d="M377-282q-106 0-164 80.5T155 30q0 195 57.5 284.5T395 404q45 0 83.5-12.5t52.5-22 22-17.5q12-12 12-28 0-13-10-23.5T531 290q-15 0-30 12-40 32-106 32-30 0-54-8.5t-49-31-41.5-70.5T228 105q0-3-.5-10t-.5-11q21 35 64 58.5t86 23.5q58 0 101.5-22T544 87.5 576.5 18 587-50q0-35-10.5-72T544-196.5 478.5-258 377-282zm0 70q39 0 67.5 16.5t43 42.5 21 52 6.5 51q0 22-6.5 45t-21 47-43 39T377 96t-67.5-15-43-39-21-47-6.5-45q0-25 6.5-51t21-52 43-42.5T377-212z"/><glyph glyph-name="uni2087" unicode="₇" d="M303-276q-18 0-28 9.5T265-242q0 40 12 85t43 109.5 45 91L421 146q81 148 92 182H191q-16 0-27 9t-11 25q0 15 11.5 25.5T191 398h364q36 0 36-36 0-26-18.5-72.5t-36-79L483 112 413-16l-50-113.5L337-242q0-15-10-24.5t-24-9.5z"/><glyph glyph-name="uni2088" unicode="₈" d="M371-282q-99 0-159.5 53T151-88q0 63 25.5 106.5T239 82q-68 43-68 138 0 52 20.5 90t53 57.5 64 28T371 404q84 0 145-47t61-137q0-46-22.5-87T501 66q92-48 92-154 0-93-57-143.5T371-282zm48 376q31 3 58.5 40.5T505 220q0 61-42 87.5T371 334q-48 0-88-26.5T243 220q0-34 13.5-58t41-37 54-19.5T419 94zm-48-306q39 0 70 9t55.5 38T521-88q0 29-13 51T478.5-2.5t-48.5 22T378.5 32 321 40q-38-2-68-37t-30-91q0-63 44.5-93.5T371-212z"/><glyph glyph-name="uni2089" unicode="₉" d="M347-282q-45 0-83.5 12.5t-52.5 22-22 17.5q-12 12-12 28 0 13 10 23.5t24 10.5q15 0 30-12 40-32 106-32 30 0 54 8.5t49 31 41.5 70.5T514 17q0 4 .5 10.5T515 38q-21-35-64-58.5T365-44q-58 0-101.5 22T198 34.5 165.5 104 155 172q0 35 10.5 72t32.5 74.5 65.5 61.5T365 404q106 0 164-80.5T587 92q0-195-57.5-284.5T347-282zm18 308q39 0 67.5 15t43 39 21 47 6.5 45q0 25-6.5 51t-21 52-43 42.5T365 334t-67.5-16.5-43-42.5-21-52-6.5-51q0-22 6.5-45t21-47 43-39T365 26z"/><glyph glyph-name="Euro" unicode="€" horiz-adv-x="1142" d="M930 160q16 0 27-11t11-27q0-21-16-33Q820-12 651-12q-189 0-336.5 137T127 488H54q-18 0-30 11t-12 29q0 16 12 27t30 11h64q-3 33-3 68 0 48 4 84H54q-18 0-30 11t-12 29q0 16 12 27t30 11h75q21 119 74 215t124 157 153.5 93.5T649 1294q155 0 266-62 22-12 22-36 0-18-12-28.5t-26-10.5q-10 0-36 13-93 48-213 48-66 0-133-26t-128.5-76T280 983t-68-187h537q18 0 30-11t12-27q0-18-12-29t-30-11H201q-4-36-4-84 0-35 3-68h549q18 0 30-11t12-27q0-18-12-29t-30-11H211q38-196 164.5-308.5T651 67q73 0 128 19t119 61q20 13 32 13z"/><glyph glyph-name="trademark" unicode="™" horiz-adv-x="1466" d="M373 798q-13 0-21.5 9t-8.5 23v584H169q-13 0-21.5 8t-8.5 22q0 28 30 28h410q30 0 30-28 0-14-8.5-22t-21.5-8H403V830q0-14-8.5-23t-21.5-9zm300 0q-13 0-21.5 9t-8.5 21q0 6 6 48l60 558q3 36 39 36h1q27 0 44-22 10-13 23-40t29-67.5l30-78.5 32-92.5 29.5-88.5 28.5-86.5 22-68.5q135 443 190 520 18 24 46 24h1q36 0 39-36l60-558q4-28 4-48 0-13-7.5-21.5T1299 798q-30 0-34 38l-58 536q-36-73-90-234.5T1027 854q-11-36-39-36h-2q-30 0-41 36-112 378-180 520l-58-538q-4-38-34-38z"/><glyph glyph-name="uni2126" unicode="Ω" horiz-adv-x="1474" d="M209 0q-18 0-30 11t-12 29q0 16 12 27t30 11h254q-43 35-84.5 81.5t-85 114-70 157.5T197 618q0 184 69.5 331t193 230 277.5 83q153 0 276-83t192.5-230.5T1275 618q0-97-26.5-187T1179 273.5 1094.5 159 1009 78h254q18 0 30-11t12-27q0-18-12-29t-30-11H921q-52 0-52 42 0 8 2.5 14t9 12.5 12 11 19 14.5l21.5 16q26 20 50 42t65.5 72 70.5 102.5 51.5 130.5 22.5 161q0 245-128.5 405.5T737 1184t-328.5-160.5T279 618q0-83 22.5-161t52-131T424 224t66.5-72 50.5-42l21.5-16 19-14.5 12-10.5 9.5-13 2-14q0-42-52-42H209z"/><glyph glyph-name="partialdiff" unicode="∂" horiz-adv-x="954" d="M469-12q-93 0-163 35.5T197 111t-63 124-31.5 132.5T95 492q0 61 12.5 119T149 725.5t72 98.5 109 68 147 26q140 0 294-138-7 99-32.5 184.5t-61 144-79 100.5-87 61.5T427 1290q-123 0-214-38-39-16-42-16-18 0-29 10.5t-11 27.5q0 25 20 36 108 58 276 58 55 0 113-24t115.5-78T758 1135t73-192.5T859 690q0-340-101-521T469-12zm0 78q149 0 228.5 157T777 678q-64 69-144 115.5T477 840q-80 0-140.5-30.5t-94-82T193 617t-16-125q0-64 7-119.5T210.5 259t51-99.5T346 92t123-26z"/><glyph glyph-name="uni2206" unicode="∆" horiz-adv-x="1192" d="M191 0q-18 0-30 11.5T149 40q0 12 10 38l394 964q15 38 44 38t44-38l390-964q12-30 12-38 0-17-12-28.5T1001 0H191zm54 78h702L597 942z"/><glyph glyph-name="product" unicode="∏" horiz-adv-x="1416" d="M325-496q-17 0-28.5 11T285-456v1660H177q-18 0-30 11t-12 29q0 16 12 27t30 11h1056q18 0 30-11t12-27q0-18-12-29t-30-11h-102V-456q0-18-11.5-29t-28.5-11-28.5 11-11.5 29v1660H365V-456q0-18-11.5-29T325-496z"/><glyph glyph-name="summation" unicode="∑" horiz-adv-x="978" d="M175-496q-40 0-40 38 0 10 6 22l410 826-410 802q-6 9-6 22 0 18 11 28t29 10h638q18 0 30-11t12-27q0-18-12-29t-30-11H245l386-760q6-12 6-22 0-12-6-24L241-418h572q18 0 30-11t12-27q0-18-12-29t-30-11H175z"/><glyph glyph-name="minus" unicode="−" horiz-adv-x="1190" d="M205 422q-18 0-30 11t-12 29q0 16 12 27t30 11h780q18 0 30-11t12-27q0-18-12-29t-30-11H205z"/><glyph glyph-name="uni2219" unicode="∙" horiz-adv-x="1190" d="M595 420q-39 0-66.5 27.5T501 514t27.5 66.5T595 608t66.5-27.5T689 514t-27.5-66.5T595 420z"/><glyph glyph-name="radical" unicode="√" horiz-adv-x="1352" d="M701 0q-30 0-44 34L373 792l-156-54q-36-12-44-12-18 0-28 10.5T135 764q0 28 32 40l178 62q40 14 50 14 29 0 42-36l264-692 436 1160q13 34 42 34 16 0 27-11.5t11-26.5q0-10-12-40L745 38Q731 0 701 0z"/><glyph glyph-name="infinity" unicode="∞" horiz-adv-x="1622" d="M453 262q-106 0-182 77t-76 185q0 112 75 189t183 77q165 0 366-208 202 202 342 202 112 0 189-75t77-185-76-184-190-74q-158 0-344 200-197-204-364-204zm0 78q136 0 312 184-179 188-312 188-76 0-126-53.5T277 524q0-75 51.5-129.5T453 340zm708 4q80 0 132 51.5t52 128.5q0 78-52.5 130T1161 706q-115 0-290-184 170-178 290-178z"/><glyph glyph-name="integral" unicode="∫" horiz-adv-x="1182" d="M343-236q-118 0-188 56-20 17-20 38 0 16 10.5 26t27.5 10q11 0 36-18 50-34 134-34 33 0 66.5 15t67 47 55 94.5T553 144v1040q0 86 20 155t50 110.5 70 68.5 76.5 37.5T841 1566q120 0 190-56 20-16 20-38 0-16-10.5-26t-27.5-10q-12 0-33 16-50 36-139 36-25 0-51.5-8.5t-55-30.5-50.5-55-36.5-87.5T633 1184V144q0-86-20-154.5T562.5-120t-71-68-77-37.5T343-236z"/><glyph glyph-name="approxequal" unicode="≈" horiz-adv-x="1190" d="M795 532q-63 0-134 27.5l-140 55L395 642q-50 0-93-35-33-27-47-27-17 0-27.5 9T217 614q0 23 26 46 64 60 152 60 63 0 134-27.5l140-55L795 610q48 0 89 33 35 29 49 29 17 0 27.5-9t10.5-25q0-23-26-46-64-60-150-60zm0-258q-63 0-134 27.5l-140 55L395 384q-49 0-95-37-31-25-45-25-17 0-27.5 9T217 356q0 23 26 46 64 60 152 60 63 0 134-27.5l140-55L795 352q45 0 80 26l15.5 12.5 15 12 13 8L933 414q17 0 27.5-9t10.5-25q0-23-26-46-64-60-150-60z"/><glyph glyph-name="notequal" unicode="≠" horiz-adv-x="1190" d="M377 68q-15 0-25.5 10.5T341 104q0 16 14 38l104 164H227q-18 0-29 11t-11 29q0 17 11.5 27.5T227 384h282l102 160H227q-18 0-29 10t-11 28q0 17 11.5 27.5T227 620h432l118 182q19 28 40 28 15 0 25.5-10.5T853 794q0-16-14-38l-86-136h210q17 0 28.5-10.5T1003 582q0-16-11.5-27T963 544H705L603 384h360q17 0 28.5-11t11.5-27-11.5-28-28.5-12H553L417 96q-19-28-40-28z"/><glyph glyph-name="lessequal" unicode="≤" horiz-adv-x="1190" d="M963 190q-12 0-32 10L225 568q-32 16-32 44t32 44l706 368q20 10 32 10 16 0 27-10.5t11-25.5q0-25-34-44L307 612l660-342q34-19 34-44 0-15-11-25.5T963 190zM229 0q-18 0-30 11t-12 29q0 16 12 27t30 11h732q18 0 30-11t12-27q0-18-12-29T961 0H229z"/><glyph glyph-name="greaterequal" unicode="≥" horiz-adv-x="1190" d="M223 190q-16 0-27 10.5T185 226q0 25 34 44l660 342-660 342q-34 19-34 44 0 15 11 25.5t27 10.5q12 0 32-10l706-368q32-16 32-44t-32-44L255 200q-20-10-32-10zm6-190q-18 0-30 11t-12 29q0 16 12 27t30 11h732q18 0 30-11t12-27q0-18-12-29T961 0H229z"/><glyph glyph-name="dotmath" unicode="⋅" horiz-adv-x="1190" d="M595 466q-25 0-42.5 17T535 526t17.5 43 42.5 17 42.5-17 17.5-43-17.5-43-42.5-17z"/><glyph glyph-name="lozenge" unicode="◊" horiz-adv-x="1238" d="M619 0q-13 0-20.5 5.5T579 28L213 584q-18 27-18 40t18 40l364 556q19 28 42 28 13 0 20.5-5.5T659 1220l366-556q18-27 18-40t-18-40L661 28Q642 0 619 0zm0 112l338 512-338 512-338-512z"/><glyph glyph-name="fi" unicode="ﬁ" horiz-adv-x="954" d="M229 0q-17 0-28.5 11T189 40v788H77q-18 0-30 11t-12 29q0 16 12 27t30 11h112v100q0 83 18 146.5t47.5 103.5 72 66 88 36 98.5 10q158 0 270-84 16-12 16-38v-66q0-16-11.5-27t-28.5-11q-18 0-29 10.5t-11 27.5v52q-87 58-206 58-116 0-180-66t-64-218V906h270q18 0 30-11t12-27q0-18-12-29t-30-11H269V40q0-18-11.5-29T229 0zm530 0q-17 0-28.5 11T719 40v826q0 16 11.5 28t28.5 12 28.5-12 11.5-28V40q0-18-11.5-29T759 0z"/><glyph glyph-name="fl" unicode="ﬂ" horiz-adv-x="1010" d="M229 0q-17 0-28.5 11T189 40v788H77q-18 0-30 11t-12 29q0 16 12 27t30 11h112v100q0 83 18 146.5t47.5 103.5 72 66 88 36 98.5 10q158 0 268-82 18-14 18-40V324q0-151 25-198.5T931 78q20 0 31-10.5T973 40q0-40-56-40-51 0-87 15t-57.5 40-33.5 66-16 83.5-4 103.5v924q-87 58-206 58-116 0-180-66t-64-218V906h230q18 0 30-11t12-27q0-18-12-29t-30-11H269V40q0-18-11.5-29T229 0z"/><glyph glyph-name="uniFEFF" horiz-adv-x="10"/><glyph glyph-name="J.ss01" horiz-adv-x="762" d="M257-12q-58 0-107.5 13t-69 23.5T52 43Q35 57 35 75q0 17 11.5 28T74 114q5 0 11.5-2t11.5-4.5l15-7.5 17-8q54-26 128-26 28 0 57.5 8.5T376 105t56.5 54.5T473 246t16 122v874q0 18 11.5 29t28.5 11 28.5-11 11.5-29V368q0-86-21.5-154.5T493 104t-76-68-82.5-37.5T257-12z"/><glyph glyph-name="t_t" horiz-adv-x="1326" d="M471-12q-47 0-85 6.5t-79.5 28T237 80t-46 99.5T173 328v500H61q-18 0-30 11t-12 29q0 16 12 27t30 11h112v244q0 18 11.5 29t28.5 11 28.5-11 11.5-29V906h566v244q0 18 11.5 29t28.5 11 28.5-11 11.5-29V906h272q18 0 30-11t12-27q0-18-12-29t-30-11H899V328q0-67 13.5-116t34-76.5 51-44 57.5-21 60-4.5q42 0 88 14l19 7 18.5 6.5L1255 96q16 0 26-10.5t10-25.5q0-25-32-42-53-30-142-30-47 0-85 6.5t-79.5 28T883 80t-46 99.5T819 328v500H253V328q0-67 13.5-116t34-76.5 51-44 57.5-21 60-4.5q42 0 88 14l19 7 18.5 6.5L609 96q16 0 26-10.5T645 60q0-25-32-42-53-30-142-30z"/><glyph glyph-name="zero.tf" horiz-adv-x="1020" d="M510-12q-209 0-327.5 171T64 634q0 302 121 481t325 179q202 0 324-180.5T956 634q0-304-118.5-475T510-12zm0 78q170 0 267 151.5T874 634q0 159-38.5 288t-123 211.5T510 1216q-168 0-266-158t-98-424 96.5-417T510 66z"/><glyph glyph-name="one.tf" horiz-adv-x="1020" d="M200 0q-18 0-30 11t-12 29q0 16 12 27t30 11h296v1094L228 992q-27-18-38-18-16 0-28 12t-12 28q0 22 24 38l332 220q17 10 30 10 17 0 28.5-12t11.5-30V78h288q18 0 30-11t12-27q0-18-12-29T864 0H200z"/><glyph glyph-name="two.tf" horiz-adv-x="1020" d="M188 0q-26 0-40 13t-14 33q0 55 34.5 120.5t90.5 129 123 131l134 135 123 132L729.5 826 764 952q0 66-19 115.5t-47 77-67 44.5-71.5 22-67.5 5q-131 0-249-77-23-15-37-15-16 0-27 11.5t-11 26.5q0 23 22 38 149 94 302 94 40 0 78.5-5.5t91-26.5 91-55.5 66-100.5T846 952q0-59-25.5-121T741 699.5t-99-119T520 454Q366 299 316 239q-75-92-98-161h592q18 0 30-11t12-27q0-18-12-29T810 0H188z"/><glyph glyph-name="three.tf" horiz-adv-x="1020" d="M481-12q-63 0-121 10t-95 23-67.5 29-42 24.5T139 88q-16 16-16 32t10.5 27 27.5 11q14 0 34-14 108-78 286-78 127 0 216.5 78.5T787 334q0 61-21 109t-55 78.5-80 50.5-92 28-94 8h-52q-18 0-29 10.5T353 646q0 40 40 40h52q56 0 110.5 15t103 45.5T737 831t30 123q0 68-22.5 118.5t-54 77T616 1192t-75 20-66 4q-122 0-236-76-24-16-36-16-15 0-26.5 12t-11.5 28q0 19 16 32 127 98 294 98 76 0 140.5-18.5t117-57 82.5-104T845 962q0-246-236-312 120-21 189-104.5T867 338q0-150-113-250T481-12z"/><glyph glyph-name="four.tf" horiz-adv-x="1020" d="M731 0q-17 0-28.5 11T691 40v294H131q-28 0-41 11t-13 27q0 15 20 58 61 129 142 260t147 220 140.5 177 105 120l57.5 59q16 16 35 16 16 0 27.5-10.5T763 1246t-14-32q-2-2-43-46l-81-89-103.5-124L402 798 283.5 616.5 173 412h518v524q0 18 11.5 29t28.5 11 28.5-11 11.5-29V412h120q18 0 30-11t12-27q0-18-12-29t-30-11H771V40q0-18-11.5-29T731 0z"/><glyph glyph-name="five.tf" horiz-adv-x="1020" d="M459-12q-168 0-291 84-32 22-32 46 0 17 11.5 27.5T173 156q17 0 46-20 103-70 240-70 49 0 94.5 11.5t88.5 38 74 65.5 50 99.5T785 416q0 134-92.5 223T459 728q-21 0-42.5-3t-36-5.5-36.5-10l-29-10-29-11.5-23-10q-33-14-46-14-20 0-33 13.5T171 718v510q0 26 14.5 40t39.5 14h532q18 0 30-11t12-27q0-18-12-29t-30-11H251V756q93 50 208 50 176 0 292-111t116-279q0-91-25-165.5t-65-122-94-80T573 2 459-12z"/><glyph glyph-name="six.tf" horiz-adv-x="1020" d="M519-12q-195 0-305 153-107 149-107 437 0 371 108.5 543.5T555 1294q53 0 101.5-9t78-20 55-26 34.5-22.5 15-13.5q20-20 20-39 0-15-11-25.5t-27-10.5q-14 0-55 28-85 60-211 60-64 0-116-17t-99-59-80-109-53.5-172.5T183 615v-15q38 97 126 157.5T519 818q87 0 156.5-27.5t111-70 69.5-98 38.5-106T905 418q0-52-10.5-106T856 198.5t-69.5-105-111-75.5T519-12zm0 78q69 0 123.5 24.5t87.5 62 55 86 30 92.5 8 87q0 39-8 79.5t-30 85-55 79-87.5 56.5T519 740q-66 0-120.5-22t-88-56.5T254 583t-32-85-9-80q0-42 8.5-86.5t30.5-93 55-86 88-62T519 66z"/><glyph glyph-name="seven.tf" horiz-adv-x="1020" d="M363 0q-17 0-28.5 11T323 40q0 77 25 169t77.5 202.5T518 597l109 197 89.5 160.5 64.5 130 42 119.5H143q-18 0-30 11t-12 29q0 16 12 27t30 11h706q60 0 60-54 0-58-56.5-176T695 756q-86-151-139.5-254t-103-238.5T403 40q0-18-11.5-29T363 0z"/><glyph glyph-name="eight.tf" horiz-adv-x="1020" d="M508-12q-184 0-295 96.5T102 344q0 132 68 223t142 109q-74 31-124 100.5T138 956q0 64 17.5 117.5t48 89.5 68 62.5 80.5 41 81 21 75 6.5q72 0 138-20.5t120.5-60 87-106.5T886 956q0-106-64.5-197.5T694 644q27-7 54-20t58.5-38 55.5-57 40-80 16-105q0-172-106-264T508-12zm88 690q75 3 141.5 87.5T804 956q0 58-20.5 105t-51.5 75-71.5 47-78.5 26-74 7q-35 0-71-7t-76-26-70.5-47-50.5-75-20-105q0-63 21.5-110t53.5-75 85-48 100.5-28.5T596 678zM508 66q50 0 93 6.5T688.5 98t76 48.5T816 227t20 117q0 183-200 244-48 14-164 32l-64 10q-87-2-155.5-81T184 344q0-74 28.5-130t76.5-87 103-46 116-15z"/><glyph glyph-name="nine.tf" horiz-adv-x="1020" d="M439-12q-53 0-101.5 9t-78 20-55 26T170 65.5 155 79q-20 20-20 39 0 15 11 25.5t27 10.5q7 0 15.5-3.5T202 144t17.5-12 18.5-13q78-53 201-53 57 0 103.5 13.5t96 52.5 84 103T781 408.5 810 664q0 6 .5 18t.5 18q-38-98-126.5-161T475 476q-87 0-156.5 29t-111 73T138 679 99.5 786 89 882q0 50 10.5 101.5T138 1092t69.5 101 111 72.5T475 1294q209 0 316-164 96-146 96-408 0-378-108.5-556T439-12zm36 566q66 0 120.5 23.5t88 59.5 56.5 81.5 32 86.5 9 77q0 40-8.5 82.5T742 1053t-55 81.5-88 58.5-124 23-123.5-23-87.5-58.5-55-81.5-30-88-8-83q0-37 8-77.5t30-86 55-81.5 87.5-59.5T475 554z"/><glyph glyph-name="uni2070.001" horiz-adv-x="360" d="M185 837q-69 0-115.5 59.5T23 1060q0 102 47.5 163.5T185 1285t114.5-61.5T347 1060q0-104-46.5-163.5T185 837zm0 59q45 0 70.5 42t25.5 122q0 79-26 122.5t-70 43.5-70-43.5T89 1060q0-80 25.5-122t70.5-42z"/><glyph glyph-name="uni00B9.001" horiz-adv-x="223" d="M174 837q-14 0-23.5 9t-9.5 25v330l-50-32q-28-18-39-18-10 0-18.5 7.5T25 1177q0 20 24 36l91 63q17 12 33 12 35 0 35-36V871q0-16-10-25t-24-9z"/><glyph glyph-name="uni00B2.001" horiz-adv-x="320" d="M67 842q-15 0-25 8.5T32 873q0 91 107 172 51 38 71 62t20 53q0 36-20 52.5t-52 16.5q-27 0-55-15-26-13-33-13-27 0-27 26 0 17 22 33 38 28 93 28 61 0 99.5-32t38.5-96q0-47-24-79t-83-74q-28-20-53.5-49T102 902h164q15 0 23.5-9t8.5-22q0-12-8.5-20.5T266 842H67z"/><glyph glyph-name="uni00B3.001" horiz-adv-x="320" d="M158 837q-66 0-107 28-22 15-22 35 0 12 8 18.5t18 6.5q8 0 34-14 34-18 69-18 33 0 55 21t22 56q0 33-19 51.5t-51 18.5h-24q-14 0-22.5 8t-8.5 21 8.5 21.5 22.5 8.5h24q29 0 46 16t17 48q0 31-18 48.5t-50 17.5q-30 0-58-14-26-14-35-14-27 0-27 26 0 18 19 31 43 30 103 30 61 0 96.5-34t35.5-87q0-69-65-94 34-7 53-35.5t19-65.5q0-62-42-98.5T158 837z"/><glyph glyph-name="uni2074.001" horiz-adv-x="355" d="M234 837q-13 0-23 9t-10 23v75H39q-36 0-36 29 0 11 6 27 60 158 170 266 25 25 43 25 14 0 23.5-9t9.5-23q0-17-18-33-54-49-91.5-98.5T78 1004h123v114q0 16 9.5 25t23.5 9 24-9 10-25v-114h42q15 0 23.5-9t8.5-22q0-12-8.5-20.5T310 944h-42v-75q0-14-10-23t-24-9z"/><glyph glyph-name="uni2075.001" horiz-adv-x="320" d="M159 837q-63 0-104 28-22 15-22 35 0 11 7.5 18t18.5 7q9 0 34-14 34-18 66-18 36 0 58 24.5t22 63.5q0 36-19 57t-49 21q-26 0-65-23-13-9-27-9-30 0-30 34v187q0 34 36 34h175q15 0 23.5-9t8.5-22q0-12-8.5-20.5T260 1222H114v-123q30 16 66 16 57 0 91.5-35.5T306 983t-40.5-103.5T159 837z"/><glyph glyph-name="uni2076.001" horiz-adv-x="340" d="M192 1126q61 0 97.5-39T326 982q0-62-41.5-103.5T177 837q-73 0-112.5 52.5T25 1043q0 115 46 180t119 65q60 0 103-30 19-14 19-31 0-26-27-26-9 0-35 14-28 14-58 14-85 0-98-147 41 44 98 44zm-15-230q39 0 61 23.5t22 62.5-20 62-56 23q-41 0-63.5-26T98 982q0-37 21-61.5t58-24.5z"/><glyph glyph-name="uni2077.001" horiz-adv-x="332" d="M117 837q-15 0-24 9.5T84 871q0 112 88 226l40 53 22 34.5 15 37.5H67q-14 0-23 8.5t-9 22.5q0 13 9 21t23 8h220q30 0 30-29 0-21-5-40.5t-16.5-40.5-19.5-33.5-26.5-37T224 1067q-68-98-72-196-2-34-35-34z"/><glyph glyph-name="uni2078.001" horiz-adv-x="339" d="M174 837q-67 0-109.5 34T22 970q0 33 18 59t47 41q-52 34-52 93 0 57 41.5 91t97.5 34q59 0 100.5-33t41.5-92q0-58-54-93 65-29 65-100 0-64-44-98.5T174 837zm36 252q43 21 43 74 0 34-24 50t-55 16q-30 0-53-16t-23-50q0-39 27-53t85-21zm-36-194q39 0 65 17.5t26 57.5q0 21-9.5 35.5t-30.5 22-39 11-50 7.5q-21-7-36-27t-15-49q0-75 89-75z"/><glyph glyph-name="uni2079.001" horiz-adv-x="340" d="M174 1288q152 0 152-199 0-120-45.5-186T161 837q-60 0-103 30-19 14-19 31 0 26 27 26 9 0 35-14 28-14 58-14 85 0 98 144-41-44-98-44-61 0-97.5 39T25 1140q0 64 41.5 106t107.5 42zm-7-233q41 0 63.5 26t22.5 59q0 41-20.5 65t-58.5 24q-39 0-61-24t-22-65q0-39 20-62t56-23z"/><glyph glyph-name="zero.dnom" d="M371-6Q259-6 195 84t-64 250q0 158 65.5 252T371 680t174.5-95T611 334q0-160-63.5-250T371-6zm0 70q78 0 123 72t45 198q0 118-43.5 197T371 610q-77 0-122.5-75T203 334t45-198 123-72z"/><glyph glyph-name="one.dnom" horiz-adv-x="579" d="M291 0q-15 0-25.5 10T255 38v532l-60-40q-19-12-30-12-15 0-25.5 10T129 552q0 21 22 36l108 74q19 12 34 12t25.5-10 10.5-28V38q0-18-10.5-28T291 0z"/><glyph glyph-name="two.dnom" d="M211 0q-16 0-27 9t-11 25q0 37 27 83t54 75.5 81 83.5l78 79.5 50 66.5 26 72q0 66-36.5 91T369 610q-13 0-26.5-2t-21.5-4-20.5-7-16.5-7l-16-8-13-7q-22-11-32-11-13 0-22.5 10.5T191 600q0 20 20 34 63 46 158 46 22 0 43-3t49.5-14.5 49-30.5 35.5-54.5 15-83.5q0-62-44-123T391 230q-54-52-87-89t-49-71h274q17 0 26.5-10t9.5-26q0-15-10-24.5T529 0H211z"/><glyph glyph-name="three.dnom" d="M361-6Q247-6 185 42q-20 17-20 34 0 14 10 23t24 9q12 0 34-14 47-30 128-30 57 0 97.5 34.5T499 184q0 63-47.5 92.5T343 306h-28q-34 0-34 34t34 34h28q55 0 99.5 31t44.5 89q0 30-10 52.5T453.5 581 421 600t-33 8.5-29 1.5q-47 0-106-32-22-12-34-12-14 0-23 9t-9 25q0 18 22 34 69 46 150 46 87 0 143.5-44T559 498q0-108-86-154 44-21 71-63.5t27-94.5q0-83-61.5-137.5T361-6z"/><glyph glyph-name="four.dnom" d="M485 0q-15 0-25.5 9.5T449 34v134H175q-18 0-27 10t-9 24q0 10 7 24 31 66 74 135.5T299.5 480t75 95.5T430 640l25 26 26 8q13 0 23.5-10t10.5-22q0-18-10-28l-21-21-48-53-69.5-83.5-71.5-101L227 238h222v174q0 16 10.5 26t25.5 10 25.5-10 10.5-26V238h44q38 0 38-36 0-15-10-24.5t-28-9.5h-44V34q0-15-10.5-24.5T485 0z"/><glyph glyph-name="five.dnom" d="M349-6q-45 0-85.5 13.5t-55 23.5T189 46q-16 16-16 32 0 15 10 24.5t24 9.5q16 0 28-12 11-11 42-23.5T349 64q61 0 104.5 39T497 224q0 60-42.5 101T349 366q-31 0-60.5-10T247 336q-9-6-22-6-15 0-25.5 8.5T189 364v276q0 34 36 34h274q15 0 26.5-9.5T537 640q0-16-11-26t-27-10H261V422q51 14 88 14 96 0 158-60t62-152q0-60-19.5-106T497 46 426.5 7 349-6z"/><glyph glyph-name="six.dnom" d="M377-6Q271-6 213 74.5T155 306q0 195 57.5 284.5T395 680q45 0 83.5-12.5t52.5-22 22-17.5q12-12 12-28 0-13-10-23.5T531 566q-15 0-30 12-40 32-106 32-30 0-54-8.5t-49-31-41.5-70.5T228 381q0-3-.5-10t-.5-11q21 35 64 58.5t86 23.5q58 0 101.5-22t65.5-56.5 32.5-69.5 10.5-68q0-35-10.5-72T544 79.5 478.5 18 377-6zm0 70q39 0 67.5 16.5t43 42.5 21 52 6.5 51q0 22-6.5 45t-21 47-43 39-67.5 15-67.5-15-43-39-21-47-6.5-45q0-25 6.5-51t21-52 43-42.5T377 64z"/><glyph glyph-name="seven.dnom" d="M303 0q-18 0-28 9.5T265 34q0 40 12 85t43 109.5 45 91L421 422q81 148 92 182H191q-16 0-27 9t-11 25q0 15 11.5 25.5T191 674h364q36 0 36-36 0-26-18.5-72.5t-36-79L483 388l-70-128-50-113.5L337 34q0-15-10-24.5T303 0z"/><glyph glyph-name="eight.dnom" d="M371-6q-99 0-159.5 53T151 188q0 63 25.5 106.5T239 358q-68 43-68 138 0 52 20.5 90t53 57.5 64 28T371 680q84 0 145-47t61-137q0-46-22.5-87T501 342q92-48 92-154 0-93-57-143.5T371-6zm48 376q31 3 58.5 40.5T505 496q0 61-42 87.5T371 610q-48 0-88-26.5T243 496q0-34 13.5-58t41-37 54-19.5T419 370zM371 64q39 0 70 9t55.5 38 24.5 77q0 29-13 51t-29.5 34.5-48.5 22-51.5 12.5-57.5 8q-38-2-68-37t-30-91q0-63 44.5-93.5T371 64z"/><glyph glyph-name="nine.dnom" d="M347-6q-45 0-83.5 12.5t-52.5 22T189 46q-12 12-12 28 0 13 10 23.5t24 10.5q15 0 30-12 40-32 106-32 30 0 54 8.5t49 31 41.5 70.5T514 293q0 3 .5 10t.5 11q-21-35-64-58.5T365 232q-58 0-101.5 22T198 310.5 165.5 380 155 448q0 35 10.5 72t32.5 74.5 65.5 61.5T365 680q106 0 164-80.5T587 368q0-195-57.5-284.5T347-6zm18 308q39 0 67.5 15t43 39 21 47 6.5 45q0 25-6.5 51t-21 52-43 42.5T365 610t-67.5-16.5-43-42.5-21-52-6.5-51q0-22 6.5-45t21-47 43-39 67.5-15z"/><glyph glyph-name="zero.numr" d="M371 602q-112 0-176 90t-64 250q0 158 65.5 252t174.5 94 174.5-95T611 942q0-160-63.5-250T371 602zm0 70q78 0 123 72t45 198q0 118-43.5 197T371 1218q-77 0-122.5-75T203 942t45-198 123-72z"/><glyph glyph-name="one.numr" horiz-adv-x="579" d="M291 608q-15 0-25.5 10T255 646v532l-60-40q-19-12-30-12-15 0-25.5 10t-10.5 24q0 21 22 36l108 74q19 12 34 12t25.5-10 10.5-28V646q0-18-10.5-28T291 608z"/><glyph glyph-name="two.numr" d="M211 608q-16 0-27 9t-11 25q0 37 27 83t54 75.5 81 83.5l78 79.5 50 66.5 26 72q0 66-36.5 91t-83.5 25q-13 0-26.5-2t-21.5-4-20.5-7-16.5-7l-16-8-13-7q-22-11-32-11-13 0-22.5 10.5T191 1208q0 20 20 34 63 46 158 46 22 0 43-3t49.5-14.5 49-30.5 35.5-54.5 15-83.5q0-62-44-123T391 838q-54-52-87-89t-49-71h274q17 0 26.5-10t9.5-26q0-15-10-24.5t-26-9.5H211z"/><glyph glyph-name="three.numr" d="M361 602q-114 0-176 48-20 17-20 34 0 14 10 23t24 9q12 0 34-14 47-30 128-30 57 0 97.5 34.5T499 792q0 63-47.5 92.5T343 914h-28q-34 0-34 34t34 34h28q55 0 99.5 31t44.5 89q0 30-10 52.5t-23.5 34.5-32.5 19-33 8.5-29 1.5q-47 0-106-32-22-12-34-12-14 0-23 9t-9 25q0 18 22 34 69 46 150 46 87 0 143.5-44t56.5-138q0-108-86-154 44-21 71-63.5t27-94.5q0-83-61.5-137.5T361 602z"/><glyph glyph-name="four.numr" d="M485 608q-15 0-25.5 9.5T449 642v134H175q-18 0-27 10t-9 24q0 10 7 24 31 66 74 135.5t79.5 118.5 75 95.5T430 1248l25 26 26 8q13 0 23.5-10t10.5-22q0-18-10-28l-21-21-48-53-69.5-83.5-71.5-101L227 846h222v174q0 16 10.5 26t25.5 10 25.5-10 10.5-26V846h44q38 0 38-36 0-15-10-24.5t-28-9.5h-44V642q0-15-10.5-24.5T485 608z"/><glyph glyph-name="five.numr" d="M349 602q-45 0-85.5 13.5t-55 23.5-19.5 15q-16 16-16 32 0 15 10 24.5t24 9.5q16 0 28-12 11-11 42-23.5t72-12.5q61 0 104.5 39T497 832q0 60-42.5 101T349 974q-31 0-60.5-10T247 944q-9-6-22-6-15 0-25.5 8.5T189 972v276q0 34 36 34h274q15 0 26.5-9.5T537 1248q0-16-11-26t-27-10H261v-182q51 14 88 14 96 0 158-60t62-152q0-60-19.5-106T497 654t-70.5-39-77.5-13z"/><glyph glyph-name="six.numr" d="M377 602q-106 0-164 80.5T155 914q0 195 57.5 284.5T395 1288q45 0 83.5-12.5t52.5-22 22-17.5q12-12 12-28 0-13-10-23.5t-24-10.5q-15 0-30 12-40 32-106 32-30 0-54-8.5t-49-31-41.5-70.5T228 989q0-3-.5-10t-.5-11q21 35 64 58.5t86 23.5q58 0 101.5-22t65.5-56.5 32.5-69.5 10.5-68q0-35-10.5-72T544 687.5 478.5 626 377 602zm0 70q39 0 67.5 16.5t43 42.5 21 52 6.5 51q0 22-6.5 45t-21 47-43 39-67.5 15-67.5-15-43-39-21-47-6.5-45q0-25 6.5-51t21-52 43-42.5T377 672z"/><glyph glyph-name="seven.numr" d="M303 608q-18 0-28 9.5T265 642q0 40 12 85t43 109.5 45 91l56 102.5q81 148 92 182H191q-16 0-27 9t-11 25q0 15 11.5 25.5T191 1282h364q36 0 36-36 0-26-18.5-72.5t-36-79L483 996l-70-128-50-113.5L337 642q0-15-10-24.5t-24-9.5z"/><glyph glyph-name="eight.numr" d="M371 602q-99 0-159.5 53T151 796q0 63 25.5 106.5T239 966q-68 43-68 138 0 52 20.5 90t53 57.5 64 28 62.5 8.5q84 0 145-47t61-137q0-46-22.5-87T501 950q92-48 92-154 0-93-57-143.5T371 602zm48 376q31 3 58.5 40.5T505 1104q0 61-42 87.5t-92 26.5q-48 0-88-26.5t-40-87.5q0-34 13.5-58t41-37 54-19.5T419 978zm-48-306q39 0 70 9t55.5 38 24.5 77q0 29-13 51t-29.5 34.5-48.5 22-51.5 12.5-57.5 8q-38-2-68-37t-30-91q0-63 44.5-93.5T371 672z"/><glyph glyph-name="nine.numr" d="M347 602q-45 0-83.5 12.5t-52.5 22-22 17.5q-12 12-12 28 0 13 10 23.5t24 10.5q15 0 30-12 40-32 106-32 30 0 54 8.5t49 31 41.5 70.5T514 901q0 3 .5 10t.5 11q-21-35-64-58.5T365 840q-58 0-101.5 22T198 918.5 165.5 988t-10.5 68q0 35 10.5 72t32.5 74.5 65.5 61.5 101.5 24q106 0 164-80.5T587 976q0-195-57.5-284.5T347 602zm18 308q39 0 67.5 15t43 39 21 47 6.5 45q0 25-6.5 51t-21 52-43 42.5T365 1218t-67.5-16.5-43-42.5-21-52-6.5-51q0-22 6.5-45t21-47 43-39 67.5-15z"/><glyph glyph-name="braceleft.case" horiz-adv-x="716" d="M485-98q-51 0-90.5 10T317-53t-59 77-21 128v336q0 34-10 57.5t-18 31-25 20.5q-25 20-25 43 0 7 1.5 12.5t3 9 6.5 8.5l6.5 6.5 9 7 8.5 6.5q43 33 43 102v338q0 76 21 128t59 77 77.5 35 90.5 10q30 0 48-6 26-9 26-34 0-17-11-27.5t-29-10.5h-24q-93 0-135.5-34T317 1130V788q0-101-56-148 56-47 56-148V152q0-104 42.5-138T495-20h24q18 0 29-10.5T559-58q0-24-23-33-17-7-51-7z"/><glyph glyph-name="braceright.case" horiz-adv-x="716" d="M232-97q-34 0-51 7-23 10-23 33 0 17 11 27.5T198-19h24q93 0 135.5 34T400 153v340q0 101 56 148-56 47-56 148v342q0 104-42.5 138T222 1303h-24q-18 0-29 10.5t-11 27.5q0 25 26 34 18 6 48 6 51 0 90.5-10t77.5-35 59-77 21-128V793q0-69 43-102 2-2 7.5-6l7.5-5.5 6-5.5 6-6.5 4-7 3-9 1-10.5q0-23-25-43-2-1-7-5t-7-6-7-6.5-7.5-7.5-6.5-8.5-6-10.5-4.5-12.5-4-15-2.5-17-1-20.5V153q0-76-21-128t-59-77-77.5-35T232-97z"/><glyph glyph-name="bracketleft.case" horiz-adv-x="716" d="M249-92q-54 0-54 54v1358q0 54 54 54h230q18 0 30-11t12-27q0-18-12-29t-30-11H275V-14h204q18 0 30-11t12-27q0-18-12-29t-30-11H249z"/><glyph glyph-name="bracketright.case" horiz-adv-x="716" d="M237-92q-18 0-30 11t-12 29q0 16 12 27t30 11h204v1310H237q-18 0-30 11t-12 29q0 16 12 27t30 11h230q54 0 54-54V-38q0-54-54-54H237z"/><glyph glyph-name="parenleft.case" horiz-adv-x="796" d="M562-165q-18 0-44 16-16 10-34.5 24t-52 47-63 72.5-63 103-57 135.5-39 172T194 617q0 522 314 802 32 28 54 28 16 0 27-10.5t11-27.5q0-9-6-19t-11.5-15.5-18.5-16-16-13.5q-272-250-272-728 0-137 25.5-254.5T359 174t77.5-130T506-36.5 554-75q2-2 10-7t11-7.5l9-7.5 8.5-8.5 5-9L600-125q0-17-11-28.5T562-165z"/><glyph glyph-name="parenright.case" horiz-adv-x="796" d="M235-165q-16 0-27 11.5T197-125q0 5 2.5 10.5t5 9T213-97l9 7.5 11 7.5 10 7q24 17 48 38.5T360.5 44 438 174t57.5 188.5T521 617q0 478-272 728-3 3-16 13.5t-18.5 16T203 1390t-6 19q0 17 10.5 27.5T235 1447q22 0 54-28 314-280 314-802 0-112-15.5-212t-39-172-57-135.5-63-103-63-72.5-52-47-34.5-24q-26-16-44-16z"/><glyph glyph-name="emdash.case" horiz-adv-x="1256" d="M223 602q-18 0-30 11t-12 29q0 16 12 27t30 11h810q18 0 30-11t12-27q0-18-12-29t-30-11H223z"/><glyph glyph-name="endash.case" horiz-adv-x="1026" d="M223 602q-18 0-30 11t-12 29q0 16 12 27t30 11h580q18 0 30-11t12-27q0-18-12-29t-30-11H223z"/><glyph glyph-name="hyphen.case" horiz-adv-x="934" d="M237 602q-18 0-30 11t-12 29q0 16 12 27t30 11h462q18 0 30-11t12-27q0-18-12-29t-30-11H237z"/><glyph glyph-name="uni00AD.case" horiz-adv-x="934" d="M237 602q-18 0-30 11t-12 29q0 16 12 27t30 11h462q18 0 30-11t12-27q0-18-12-29t-30-11H237z"/><glyph glyph-name="guillemotleft.case" horiz-adv-x="838" d="M381 297q-24 0-42 26L153 601q-16 22-16 40t16 40l186 278q18 26 42 26 15 0 26.5-11t11.5-27q0-15-16-38L219 641l184-268q16-23 16-38 0-16-11.5-27T381 297zm282 0q-24 0-42 26L435 601q-16 22-16 40t16 40l186 278q18 26 42 26 15 0 26.5-11t11.5-27q0-15-16-38L501 641l184-268q16-23 16-38 0-16-11.5-27T663 297z"/><glyph glyph-name="guillemotright.case" horiz-adv-x="838" d="M175 297q-15 0-26.5 11T137 335q0 15 16 38l184 268-184 268q-16 23-16 38 0 16 11.5 27t26.5 11q24 0 42-26l186-278q16-22 16-40t-16-40L217 323q-18-26-42-26zm282 0q-15 0-26.5 11T419 335q0 15 16 38l184 268-184 268q-16 23-16 38 0 16 11.5 27t26.5 11q24 0 42-26l186-278q16-22 16-40t-16-40L499 323q-18-26-42-26z"/><glyph glyph-name="guilsinglleft.case" horiz-adv-x="552" d="M379 298q-20 0-32 18L141 628q-6 9-6 20 0 12 6 22l206 298q11 16 32 16 17 0 27.5-11t10.5-27q0-15-6-24L219 648l192-288q6-10 6-24 0-15-11-26.5T379 298z"/><glyph glyph-name="guilsinglright.case" horiz-adv-x="554" d="M173 298q-16 0-27 11.5T135 336q0 14 6 24l192 288-192 274q-6 9-6 24 0 16 10.5 27t27.5 11q21 0 32-16l206-298q6-10 6-22 0-11-6-20L205 316q-12-18-32-18z"/><glyph glyph-name="space.frac" horiz-adv-x="140"/><glyph glyph-name="uni2007.tf" horiz-adv-x="1010"/><glyph glyph-name="Euro.001" horiz-adv-x="755" d="M649 125q16 0 26-9.5T685 91q0-18-17-31-97-72-235-72-122 0-206.5 61T109 213H50q-18 0-29 10.5T10 251q0 15 11 25.5T50 287h43q-3 26-3 52 0 17 2 47H50q-18 0-29 10.5T10 424q0 15 11 25.5T50 460h56q31 108 116 170t211 62q120 0 210-58 23-15 23-37 0-14-10-23t-24-9-41 15q-80 41-157 41-94 0-158-41.5T186 460h321q18 0 29-10.5t11-25.5q0-17-11-27.5T507 386H169q-2-30-2-47 0-27 3-52h337q18 0 29-10.5t11-25.5q0-17-11-27.5T507 213H188q28-74 91-114t154-40q100 0 181 51 24 15 35 15z"/><glyph glyph-name="Euro.ss02" horiz-adv-x="1142" d="M693-12q-171 0-290 138.5T253 488h-76q-18 0-30 11t-12 29q0 16 12 27t30 11h66q-2 22-2 68 0 40 4 84h-68q-18 0-30 11t-12 29q0 16 12 27t30 11h78q35 217 160.5 357.5T711 1294q137 0 241-66 22-14 22-36 0-18-12-28.5t-26-10.5-36 13q-90 52-189 52-141 0-244-118.5T333 796h478q18 0 30-11t12-27q0-18-12-29t-30-11H323q-4-44-4-84 0-32 4-68h488q18 0 30-11t12-27q0-18-12-29t-30-11H333q26-188 124-306T693 64q73 0 127.5 20T940 147q20 13 32 13 16 0 27-11t11-27q0-20-16-32Q852-12 693-12z"/><glyph glyph-name="cent.tf" horiz-adv-x="1020" d="M554-124q-17 0-28.5 11T514-84v73Q341-1 236.5 126.5T132 456q0 176 108.5 304T514 913v83q0 18 11.5 29t28.5 11 28.5-11 11.5-29v-78q9 0 17-1 111-10 189-56 28-16 38-27t10-28q0-14-10.5-25.5T812 769q-16 0-42 15-92 56-188 56-157 0-262.5-110T214 456q0-74 19.5-142t58-124.5 102.5-90T540 66q108 0 230 54 46 21 55 21 15 0 25.5-11.5T861 102q0-24-38-44Q720 4 594-9v-75q0-18-11.5-29T554-124z"/><glyph glyph-name="dollar.tf" horiz-adv-x="1020" d="M565-124q-17 0-28.5 11T525-84v72h-14q-55 0-105 11t-92 32-69.5 39-61.5 44q-18 15-18 36 0 16 11 26t27 10q14 0 30-12 40-30 68.5-48T390 87t121-21q142 0 224 73t82 197q0 66-34 118t-88 86-119.5 64.5l-131 64-119.5 73-88 102L203 986q0 129 94.5 213t227.5 93v70q0 18 11.5 29t28.5 11 28.5-11 11.5-29v-72q121-13 248-104 18-14 18-34 0-17-12-28.5t-28-11.5q-12 0-24 8-136 96-252 96-108 0-189-65.5T285 986q0-66 34-117.5t88-85.5 119.5-64.5l131-63.5L777 582l88-102.5L899 336q0-134-79-225T605-4v-80q0-18-11.5-29T565-124z"/><glyph glyph-name="Euro.tf" horiz-adv-x="1142" d="M930 160q16 0 27-11t11-27q0-21-16-33Q820-12 651-12q-189 0-336.5 137T127 488H54q-18 0-30 11t-12 29q0 16 12 27t30 11h64q-3 33-3 68 0 48 4 84H54q-18 0-30 11t-12 29q0 16 12 27t30 11h75q21 119 74 215t124 157 153.5 93.5T649 1294q155 0 266-62 22-12 22-36 0-18-12-28.5t-26-10.5q-10 0-36 13-93 48-213 48-66 0-133-26t-128.5-76T280 983t-68-187h537q18 0 30-11t12-27q0-18-12-29t-30-11H201q-4-36-4-84 0-35 3-68h549q18 0 30-11t12-27q0-18-12-29t-30-11H211q38-196 164.5-308.5T651 67q73 0 128 19t119 61q20 13 32 13z"/><glyph glyph-name="sterling.tf" horiz-adv-x="1020" d="M244 0q-18 0-29 11t-11 29q0 15 18 42 39 62 53.5 119.5T290 340q0 117-8 224H176q-18 0-30 11t-12 29q0 16 12 27t30 11h100q-8 76-8 162 0 458 360 458 77 0 138-21 46-15 46-47 0-17-10-27.5t-28-10.5q-4 0-54 13-60 15-92 15-64 0-112-17.5t-87.5-58.5-60-117.5T348 804q0-86 8-162h330q18 0 30-11t12-27q0-18-12-29t-30-11H362q8-107 8-224 0-146-60-262h586q18 0 30-11t12-27q0-18-12-29T896 0H244z"/><glyph glyph-name="yen.tf" horiz-adv-x="1020" d="M535 0q-17 0-28.5 11T495 40v262H169q-18 0-30 11t-12 29q0 16 12 27t30 11h326v128H169q-18 0-30 11t-12 29q0 16 12 27t30 11h264q-78 113-167.5 302T123 1210q-10 25-10 34 0 15 11 26.5t27 11.5q27 0 38-26 12-29 70-159.5t143-300T523 594q8-8 12-8t12 8q36 33 121 202.5t143 300 70 159.5q10 26 38 26 18 0 28-10.5t10-25.5q0-11-10-36-185-443-310-624h264q18 0 30-11t12-27q0-18-12-29t-30-11H575V380h326q18 0 30-11t12-27q0-18-12-29t-30-11H575V40q0-18-11.5-29T535 0z"/><glyph glyph-name="percent.tf" horiz-adv-x="1260" d="M334-12q-15 0-25.5 8.5T298 20q0 12 14 40l578 1202q15 32 38 32 15 0 25.5-8.5T964 1262q0-12-14-40L372 20q-15-32-38-32zm-16 628q-111 0-169.5 87.5T90 952t58.5 248.5T318 1288t169.5-87.5T546 952t-58.5-248.5T318 616zm0 72q148 0 148 264t-148 264-148-264 148-264zM942-12q-111 0-169.5 87.5T714 324t58.5 248.5T942 660t169.5-87.5T1170 324t-58.5-248.5T942-12zm0 72q148 0 148 264T942 588 794 324 942 60z"/><glyph glyph-name="perthousand.tf" horiz-adv-x="1260" d="M140-12q-15 0-25.5 8.5T104 20q0 12 14 40l578 1202q15 32 38 32 15 0 25.5-8.5T770 1262q0-12-14-40L178 20q-15-32-38-32zm122 840q-77 0-117.5 60T104 1060q0 113 40 173.5t118 60.5q76 0 117-60.5t41-173.5q0-111-41-171.5T262 828zm0 58q50 0 69 45.5t19 128.5-19 129.5-69 46.5-69-46.5-19-129.5 19-128.5 69-45.5zM598-12q-77 0-117.5 60T440 220q0 113 40 173.5T598 454q76 0 117-60.5T756 220q0-111-41-171.5T598-12zm400 0q-77 0-117.5 60T840 220q0 113 40 173.5T998 454q76 0 117-60.5t41-173.5q0-111-41-171.5T998-12zM598 46q50 0 69 45.5T686 220t-19 129.5-69 46.5-69-46.5T510 220t19-128.5T598 46zm400 0q50 0 69 45.5t19 128.5-19 129.5-69 46.5-69-46.5T910 220t19-128.5T998 46z"/><glyph glyph-name="section.tf" horiz-adv-x="1020" d="M527-186q-161 0-284 76-28 17-28 42 0 16 11.5 27T253-30q8 0 49-22 103-56 225-56 96 0 158 51.5T747 76q0 38-9.5 68.5T715 195t-37.5 39-43 29L585 289q-9 5-14 7l-136 70-53 28-48 27.5-49.5 35-35 37.5-28.5 49-8 55q0 90 66 169t170 107q-21 9-29.5 13T389 902.5 356 923l-29.5 24-28.5 31.5-20.5 37.5-15.5 47-5 55q0 76 45.5 130.5t111 78T555 1350q127 0 230-60 32-18 32-44 0-15-10-24.5t-24-9.5q-15 0-60 20-92 40-168 40-85 0-150.5-40.5T339 1118q0-26 4.5-47.5t18-39L384 1003l33.5-25.5L451 958l40-20 120-60 50-25 47.5-27 49-33.5 40-38.5 36-49 20.5-57 9-70q0-42-16.5-80.5t-40-65-53.5-49-51-33.5-39-18q166-80 166-256 0-114-85.5-188T527-186zm64 562q21 8 46 22t61 39 59.5 62.5T781 578q0 46-16.5 83t-50 65.5-67.5 48-84 41.5l-32 14q-107-19-172.5-83T293 598q0-23 13-44.5t29.5-37.5 52-37 58.5-32.5l71-34.5z"/><glyph glyph-name="uni0308.case" horiz-adv-x="0" d="M-411 1476q-17 0-28.5 11t-11.5 29v72q0 18 11.5 29t28.5 11 28.5-11 11.5-29v-72q0-18-11.5-29t-28.5-11zm256 0q-17 0-28.5 11t-11.5 29v72q0 18 11.5 29t28.5 11 28.5-11 11.5-29v-72q0-18-11.5-29t-28.5-11z"/><glyph glyph-name="uni0307.case" horiz-adv-x="0" d="M-175 1476q-29 0-49.5 21t-20.5 49 20.5 49 49.5 21 49.5-21 20.5-49-20.5-49-49.5-21z"/><glyph glyph-name="gravecomb.case" horiz-adv-x="0" d="M-153 1476q-12 0-46 14l-286 122q-23 10-32.5 19t-9.5 25q0 17 11 27.5t25 10.5q12 0 46-14l286-122q23-10 32.5-19t9.5-25q0-17-11-27.5t-25-10.5z"/><glyph glyph-name="acutecomb.case" horiz-adv-x="0" d="M-491 1476q-14 0-25 10.5t-11 27.5q0 16 9.5 25t32.5 19l286 122q34 14 46 14 14 0 25-10.5t11-27.5q0-16-9.5-25t-32.5-19l-286-122q-34-14-46-14z"/><glyph glyph-name="uni030B.case" horiz-adv-x="0" d="M-503 1476q-16 0-27 10.5t-11 25.5q0 11 10 36l52 132q13 34 40 34 16 0 27-10.5t11-25.5q0-11-10-36l-52-132q-13-34-40-34zm232 0q-16 0-27 10.5t-11 25.5q0 11 10 36l52 132q13 34 40 34 16 0 27-10.5t11-25.5q0-11-10-36l-52-132q-13-34-40-34z"/><glyph glyph-name="uni0302.case" horiz-adv-x="0" d="M-661 1476q-15 0-25.5 10.5T-697 1512q0 24 26 38l228 120q21 12 38 12 14 0 38-12l226-120q26-14 26-38 0-15-10.5-25.5T-151 1476q-12 0-28 8l-226 118-228-118q-16-8-28-8z"/><glyph glyph-name="uni030C.case" horiz-adv-x="0" d="M-405 1476q-17 0-38 12l-228 120q-26 14-26 38 0 15 10.5 25.5t25.5 10.5q12 0 28-8l228-118 226 118q16 8 28 8 15 0 25.5-10.5t10.5-25.5q0-24-26-38l-226-120q-24-12-38-12z"/><glyph glyph-name="uni0306.case" horiz-adv-x="0" d="M-355 1476q-96 0-149.5 39t-75.5 90q-11 26-11 45 0 18 10 29t28 11q28 0 40-38 29-98 158-98 46 0 79 11t49.5 30.5 22.5 30 11 26.5q13 38 40 38 18 0 28-11t10-29q0-24-18-59-61-115-222-115z"/><glyph glyph-name="uni030A.case" horiz-adv-x="0" d="M-263 1476q-63 0-106.5 43.5T-413 1626t43.5 106.5T-263 1776t107.5-43.5T-111 1626t-44.5-106.5T-263 1476zm0 62q36 0 63 26t27 62-27 63-63 27-62-27-26-63 26-62 62-26z"/><glyph glyph-name="tildecomb.case" horiz-adv-x="0" d="M-257 1476q-13 0-25 .5t-23.5 2.5-19 3.5-19 5l-16.5 5-17.5 6-15.5 5.5q-52 18-106 18-36 0-70-21-24-15-34-15-38 0-38 34 0 19 19 38 46 46 123 46 55 0 128-25 61-21 114-21 34 0 66 18 30 18 38 18 38 0 38-34 0-27-33-50-48-34-109-34z"/><glyph glyph-name="uni0304.case" horiz-adv-x="0" d="M-617 1476q-18 0-30 11t-12 29q0 16 12 27t30 11h462q18 0 30-11t12-27q0-18-12-29t-30-11h-462z"/><glyph glyph-name="zeroone.euro" horiz-adv-x="787" d="M604 837q-14 0-23.5 9t-9.5 25v330l-50-32q-28-18-39-18-10 0-18.5 7.5T455 1177q0 20 24 36l91 63q16 12 33 12 35 0 35-36V871q0-16-10-25t-24-9zm-372 0q-69 0-115.5 59.5T70 1060q0 102 47.5 163.5T232 1285t114.5-61.5T394 1060q0-104-46.5-163.5T232 837zm0 59q45 0 70.5 42t25.5 122q0 79-26 122.5t-70 43.5-70-43.5-26-122.5q0-80 25.5-122t70.5-42zm417-771q16 0 26-9.5T685 91q0-18-17-31-97-72-235-72-122 0-206.5 61T109 213H50q-18 0-29 10.5T10 251q0 15 11 25.5T50 287h43q-3 26-3 52 0 17 2 47H50q-18 0-29 10.5T10 424q0 15 11 25.5T50 460h56q31 108 116 170t211 62q120 0 210-58 23-15 23-37 0-14-10-23t-24-9-41 15q-80 41-157 41-94 0-158-41.5T186 460h321q18 0 29-10.5t11-25.5q0-17-11-27.5T507 386H169q-2-30-2-47 0-27 3-52h337q18 0 29-10.5t11-25.5q0-17-11-27.5T507 213H188q28-74 91-114t154-40q100 0 181 51 24 15 35 15z"/><glyph glyph-name="zerotwo.euro" horiz-adv-x="814" d="M480 842q-15 0-25 8.5T445 873q0 91 107 172 51 38 71 62t20 53q0 36-20 52.5t-52 16.5q-27 0-55-15-26-13-33-13-27 0-27 26 0 17 22 33 38 28 93 28 61 0 99.5-32t38.5-96q0-47-24-79t-83-74q-28-20-53.5-49T515 902h164q15 0 23.5-9t8.5-22q0-12-8.5-20.5T679 842H480zm-248-5q-69 0-115.5 59.5T70 1060q0 102 47.5 163.5T232 1285t114.5-61.5T394 1060q0-104-46.5-163.5T232 837zm0 59q45 0 70.5 42t25.5 122q0 79-26 122.5t-70 43.5-70-43.5-26-122.5q0-80 25.5-122t70.5-42zm417-771q16 0 26-9.5T685 91q0-18-17-31-97-72-235-72-122 0-206.5 61T109 213H50q-18 0-29 10.5T10 251q0 15 11 25.5T50 287h43q-3 26-3 52 0 17 2 47H50q-18 0-29 10.5T10 424q0 15 11 25.5T50 460h56q31 108 116 170t211 62q120 0 210-58 23-15 23-37 0-14-10-23t-24-9-41 15q-80 41-157 41-94 0-158-41.5T186 460h321q18 0 29-10.5t11-25.5q0-17-11-27.5T507 386H169q-2-30-2-47 0-27 3-52h337q18 0 29-10.5t11-25.5q0-17-11-27.5T507 213H188q28-74 91-114t154-40q100 0 181 51 24 15 35 15z"/><glyph glyph-name="zerothree.euro" horiz-adv-x="830" d="M584 837q-66 0-107 28-22 15-22 35 0 12 8 18.5t18 6.5q8 0 34-14 34-18 69-18 33 0 55 21t22 56q0 33-19 51.5t-51 18.5h-24q-14 0-22.5 8t-8.5 21 8.5 21.5 22.5 8.5h24q29 0 46 16t17 48q0 31-18 48.5t-50 17.5q-30 0-58-14-26-14-35-14-27 0-27 26 0 18 19 31 43 30 103 30 61 0 96.5-34t35.5-87q0-69-65-94 34-7 53-35.5t19-65.5q0-62-42-98.5T584 837zm-352 0q-69 0-115.5 59.5T70 1060q0 102 47.5 163.5T232 1285t114.5-61.5T394 1060q0-104-46.5-163.5T232 837zm0 59q45 0 70.5 42t25.5 122q0 79-26 122.5t-70 43.5-70-43.5-26-122.5q0-80 25.5-122t70.5-42zm417-771q16 0 26-9.5T685 91q0-18-17-31-97-72-235-72-122 0-206.5 61T109 213H50q-18 0-29 10.5T10 251q0 15 11 25.5T50 287h43q-3 26-3 52 0 17 2 47H50q-18 0-29 10.5T10 424q0 15 11 25.5T50 460h56q31 108 116 170t211 62q120 0 210-58 23-15 23-37 0-14-10-23t-24-9-41 15q-80 41-157 41-94 0-158-41.5T186 460h321q18 0 29-10.5t11-25.5q0-17-11-27.5T507 386H169q-2-30-2-47 0-27 3-52h337q18 0 29-10.5t11-25.5q0-17-11-27.5T507 213H188q28-74 91-114t154-40q100 0 181 51 24 15 35 15z"/><glyph glyph-name="zerofour.euro" horiz-adv-x="838" d="M626 837q-13 0-23 9t-10 23v75H431q-36 0-36 29 0 11 6 27 60 158 170 266 25 25 43 25 14 0 23.5-9t9.5-23q0-17-18-33-54-49-91.5-98.5T470 1004h123v114q0 16 9.5 25t23.5 9 24-9 10-25v-114h42q15 0 23.5-9t8.5-22q0-12-8.5-20.5T702 944h-42v-75q0-14-10-23t-24-9zm-394 0q-69 0-115.5 59.5T70 1060q0 102 47.5 163.5T232 1285t114.5-61.5T394 1060q0-104-46.5-163.5T232 837zm0 59q45 0 70.5 42t25.5 122q0 79-26 122.5t-70 43.5-70-43.5-26-122.5q0-80 25.5-122t70.5-42zm417-771q16 0 26-9.5T685 91q0-18-17-31-97-72-235-72-122 0-206.5 61T109 213H50q-18 0-29 10.5T10 251q0 15 11 25.5T50 287h43q-3 26-3 52 0 17 2 47H50q-18 0-29 10.5T10 424q0 15 11 25.5T50 460h56q31 108 116 170t211 62q120 0 210-58 23-15 23-37 0-14-10-23t-24-9-41 15q-80 41-157 41-94 0-158-41.5T186 460h321q18 0 29-10.5t11-25.5q0-17-11-27.5T507 386H169q-2-30-2-47 0-27 3-52h337q18 0 29-10.5t11-25.5q0-17-11-27.5T507 213H188q28-74 91-114t154-40q100 0 181 51 24 15 35 15z"/><glyph glyph-name="zerofive.euro" horiz-adv-x="829" d="M232 837q-69 0-115.5 59.5T70 1060q0 102 47.5 163.5T232 1285t114.5-61.5T394 1060q0-104-46.5-163.5T232 837zm349 0q-63 0-104 28-22 15-22 35 0 11 7.5 18t18.5 7q9 0 34-14 34-18 66-18 36 0 58 24.5t22 63.5q0 36-19 57t-49 21q-26 0-65-23-14-9-27-9-30 0-30 34v187q0 34 36 34h175q15 0 23.5-9t8.5-22q0-12-8.5-20.5T682 1222H536v-123q30 16 66 16 57 0 91.5-35.5T728 983t-40.5-103.5T581 837zm-349 59q45 0 70.5 42t25.5 122q0 79-26 122.5t-70 43.5-70-43.5-26-122.5q0-80 25.5-122t70.5-42zm417-771q16 0 26-9.5T685 91q0-18-17-31-97-72-235-72-122 0-206.5 61T109 213H50q-18 0-29 10.5T10 251q0 15 11 25.5T50 287h43q-3 26-3 52 0 17 2 47H50q-18 0-29 10.5T10 424q0 15 11 25.5T50 460h56q31 108 116 170t211 62q120 0 210-58 23-15 23-37 0-14-10-23t-24-9-41 15q-80 41-157 41-94 0-158-41.5T186 460h321q18 0 29-10.5t11-25.5q0-17-11-27.5T507 386H169q-2-30-2-47 0-27 3-52h337q18 0 29-10.5t11-25.5q0-17-11-27.5T507 213H188q28-74 91-114t154-40q100 0 181 51 24 15 35 15z"/><glyph glyph-name="zerosix.euro" horiz-adv-x="837" d="M602 1126q61 0 97.5-39T736 982q0-62-41.5-103.5T587 837q-73 0-112.5 52.5T435 1043q0 115 46 180t119 65q60 0 103-30 19-14 19-31 0-26-27-26-9 0-35 14-28 14-58 14-85 0-98-147 41 44 98 44zM232 837q-69 0-115.5 59.5T70 1060q0 102 47.5 163.5T232 1285t114.5-61.5T394 1060q0-104-46.5-163.5T232 837zm0 59q45 0 70.5 42t25.5 122q0 79-26 122.5t-70 43.5-70-43.5-26-122.5q0-80 25.5-122t70.5-42zm355 0q39 0 61 23.5t22 62.5-20 62-56 23q-41 0-63.5-26T508 982q0-37 21-61.5t58-24.5zm62-771q16 0 26-9.5T685 91q0-18-17-31-97-72-235-72-122 0-206.5 61T109 213H50q-18 0-29 10.5T10 251q0 15 11 25.5T50 287h43q-3 26-3 52 0 17 2 47H50q-18 0-29 10.5T10 424q0 15 11 25.5T50 460h56q31 108 116 170t211 62q120 0 210-58 23-15 23-37 0-14-10-23t-24-9-41 15q-80 41-157 41-94 0-158-41.5T186 460h321q18 0 29-10.5t11-25.5q0-17-11-27.5T507 386H169q-2-30-2-47 0-27 3-52h337q18 0 29-10.5t11-25.5q0-17-11-27.5T507 213H188q28-74 91-114t154-40q100 0 181 51 24 15 35 15z"/><glyph glyph-name="zeroseven.euro" horiz-adv-x="849" d="M232 837q-69 0-115.5 59.5T70 1060q0 102 47.5 163.5T232 1285t114.5-61.5T394 1060q0-104-46.5-163.5T232 837zm315 0q-15 0-24 9.5t-9 24.5q0 112 88 226l40 53 22 34.5 15 37.5H497q-14 0-23 8.5t-9 22.5q0 13 9 21t23 8h220q30 0 30-29 0-21-5-40.5t-16.5-40.5-19.5-33.5-26.5-37T654 1067q-68-98-72-196-2-34-35-34zm-315 59q45 0 70.5 42t25.5 122q0 79-26 122.5t-70 43.5-70-43.5-26-122.5q0-80 25.5-122t70.5-42zm417-771q16 0 26-9.5T685 91q0-18-17-31-97-72-235-72-122 0-206.5 61T109 213H50q-18 0-29 10.5T10 251q0 15 11 25.5T50 287h43q-3 26-3 52 0 17 2 47H50q-18 0-29 10.5T10 424q0 15 11 25.5T50 460h56q31 108 116 170t211 62q120 0 210-58 23-15 23-37 0-14-10-23t-24-9-41 15q-80 41-157 41-94 0-158-41.5T186 460h321q18 0 29-10.5t11-25.5q0-17-11-27.5T507 386H169q-2-30-2-47 0-27 3-52h337q18 0 29-10.5t11-25.5q0-17-11-27.5T507 213H188q28-74 91-114t154-40q100 0 181 51 24 15 35 15z"/><glyph glyph-name="zeroeight.euro" horiz-adv-x="849" d="M597 837q-67 0-109.5 34T445 970q0 33 17.5 59t47.5 41q-52 34-52 93 0 57 41.5 91t97.5 34q59 0 100.5-33t41.5-92q0-58-54-93 65-29 65-100 0-64-44-98.5T597 837zm-365 0q-69 0-115.5 59.5T70 1060q0 102 47.5 163.5T232 1285t114.5-61.5T394 1060q0-104-46.5-163.5T232 837zm401 252q43 21 43 74 0 34-24 50t-55 16q-30 0-53-16t-23-50q0-39 27-53t85-21zM232 896q45 0 70.5 42t25.5 122q0 79-26 122.5t-70 43.5-70-43.5-26-122.5q0-80 25.5-122t70.5-42zm365-1q39 0 65 17.5t26 57.5q0 21-9.5 35.5t-30.5 22-39 11-50 7.5q-21-7-36-27t-15-49q0-75 89-75zm52-770q16 0 26-9.5T685 91q0-18-17-31-97-72-235-72-122 0-206.5 61T109 213H50q-18 0-29 10.5T10 251q0 15 11 25.5T50 287h43q-3 26-3 52 0 17 2 47H50q-18 0-29 10.5T10 424q0 15 11 25.5T50 460h56q31 108 116 170t211 62q120 0 210-58 23-15 23-37 0-14-10-23t-24-9-41 15q-80 41-157 41-94 0-158-41.5T186 460h321q18 0 29-10.5t11-25.5q0-17-11-27.5T507 386H169q-2-30-2-47 0-27 3-52h337q18 0 29-10.5t11-25.5q0-17-11-27.5T507 213H188q28-74 91-114t154-40q100 0 181 51 24 15 35 15z"/><glyph glyph-name="zeronine.euro" horiz-adv-x="867" d="M614 1288q152 0 152-199 0-120-45.5-186T601 837q-60 0-103 30-19 14-19 31 0 26 27 26 9 0 35-14 28-14 58-14 85 0 98 144-41-44-98-44-61 0-97.5 39T465 1140q0 64 41.5 106t107.5 42zM232 837q-69 0-115.5 59.5T70 1060q0 102 47.5 163.5T232 1285t114.5-61.5T394 1060q0-104-46.5-163.5T232 837zm375 218q41 0 63.5 26t22.5 59q0 41-20.5 65t-58.5 24q-39 0-61-24t-22-65q0-39 20-62t56-23zM232 896q45 0 70.5 42t25.5 122q0 79-26 122.5t-70 43.5-70-43.5-26-122.5q0-80 25.5-122t70.5-42zm417-771q16 0 26-9.5T685 91q0-18-17-31-97-72-235-72-122 0-206.5 61T109 213H50q-18 0-29 10.5T10 251q0 15 11 25.5T50 287h43q-3 26-3 52 0 17 2 47H50q-18 0-29 10.5T10 424q0 15 11 25.5T50 460h56q31 108 116 170t211 62q120 0 210-58 23-15 23-37 0-14-10-23t-24-9-41 15q-80 41-157 41-94 0-158-41.5T186 460h321q18 0 29-10.5t11-25.5q0-17-11-27.5T507 386H169q-2-30-2-47 0-27 3-52h337q18 0 29-10.5t11-25.5q0-17-11-27.5T507 213H188q28-74 91-114t154-40q100 0 181 51 24 15 35 15z"/><glyph glyph-name="onezero.euro" horiz-adv-x="839" d="M249 837q-14 0-23.5 9t-9.5 25v330l-50-32q-28-18-39-18-10 0-18.5 7.5T100 1177q0 20 24 36l91 63q17 12 33 12 35 0 35-36V871q0-16-10-25t-24-9zm328 0q-69 0-115.5 59.5T415 1060q0 102 47.5 163.5T577 1285t114.5-61.5T739 1060q0-104-46.5-163.5T577 837zm0 59q45 0 70.5 42t25.5 122q0 79-26 122.5t-70 43.5-70-43.5-26-122.5q0-80 25.5-122t70.5-42zm72-771q16 0 26-9.5T685 91q0-18-17-31-97-72-235-72-122 0-206.5 61T109 213H50q-18 0-29 10.5T10 251q0 15 11 25.5T50 287h43q-3 26-3 52 0 17 2 47H50q-18 0-29 10.5T10 424q0 15 11 25.5T50 460h56q31 108 116 170t211 62q120 0 210-58 23-15 23-37 0-14-10-23t-24-9-41 15q-80 41-157 41-94 0-158-41.5T186 460h321q18 0 29-10.5t11-25.5q0-17-11-27.5T507 386H169q-2-30-2-47 0-27 3-52h337q18 0 29-10.5t11-25.5q0-17-11-27.5T507 213H188q28-74 91-114t154-40q100 0 181 51 24 15 35 15z"/><glyph glyph-name="oneone.euro" horiz-adv-x="787" d="M249 837q-14 0-23.5 9t-9.5 25v330l-50-32q-28-18-39-18-10 0-18.5 7.5T100 1177q0 20 24 36l91 63q17 12 33 12 35 0 35-36V871q0-16-10-25t-24-9zm315 0q-14 0-23.5 9t-9.5 25v330l-50-32q-28-18-39-18-10 0-18.5 7.5T415 1177q0 20 24 36l91 63q17 12 33 12 35 0 35-36V871q0-16-10-25t-24-9zm85-712q16 0 26-9.5T685 91q0-18-17-31-97-72-235-72-122 0-206.5 61T109 213H50q-18 0-29 10.5T10 251q0 15 11 25.5T50 287h43q-3 26-3 52 0 17 2 47H50q-18 0-29 10.5T10 424q0 15 11 25.5T50 460h56q31 108 116 170t211 62q120 0 210-58 23-15 23-37 0-14-10-23t-24-9-41 15q-80 41-157 41-94 0-158-41.5T186 460h321q18 0 29-10.5t11-25.5q0-17-11-27.5T507 386H169q-2-30-2-47 0-27 3-52h337q18 0 29-10.5t11-25.5q0-17-11-27.5T507 213H188q28-74 91-114t154-40q100 0 181 51 24 15 35 15z"/><glyph glyph-name="onetwo.euro" horiz-adv-x="788" d="M249 837q-14 0-23.5 9t-9.5 25v330l-50-32q-28-18-39-18-10 0-18.5 7.5T100 1177q0 20 24 36l91 63q17 12 33 12 35 0 35-36V871q0-16-10-25t-24-9zm201 5q-15 0-25 8.5T415 873q0 91 107 172 51 38 71 62t20 53q0 36-20 52.5t-52 16.5q-27 0-55-15-26-13-33-13-27 0-27 26 0 17 22 33 38 28 93 28 61 0 99.5-32t38.5-96q0-47-24-79t-83-74q-28-20-53.5-49T485 902h164q15 0 23.5-9t8.5-22q0-12-8.5-20.5T649 842H450zm199-717q16 0 26-9.5T685 91q0-18-17-31-97-72-235-72-122 0-206.5 61T109 213H50q-18 0-29 10.5T10 251q0 15 11 25.5T50 287h43q-3 26-3 52 0 17 2 47H50q-18 0-29 10.5T10 424q0 15 11 25.5T50 460h56q31 108 116 170t211 62q120 0 210-58 23-15 23-37 0-14-10-23t-24-9-41 15q-80 41-157 41-94 0-158-41.5T186 460h321q18 0 29-10.5t11-25.5q0-17-11-27.5T507 386H169q-2-30-2-47 0-27 3-52h337q18 0 29-10.5t11-25.5q0-17-11-27.5T507 213H188q28-74 91-114t154-40q100 0 181 51 24 15 35 15z"/><glyph glyph-name="onethree.euro" horiz-adv-x="800" d="M249 837q-14 0-23.5 9t-9.5 25v330l-50-32q-28-18-39-18-10 0-18.5 7.5T100 1177q0 20 24 36l91 63q17 12 33 12 35 0 35-36V871q0-16-10-25t-24-9zm305 0q-66 0-107 28-22 15-22 35 0 12 8 18.5t18 6.5q8 0 34-14 34-18 69-18 33 0 55 21t22 56q0 33-19 51.5t-51 18.5h-24q-14 0-22.5 8t-8.5 21 8.5 21.5 22.5 8.5h24q29 0 46 16t17 48q0 31-18 48.5t-50 17.5q-30 0-58-14-26-14-35-14-27 0-27 26 0 18 19 31 43 30 103 30 61 0 96.5-34t35.5-87q0-69-65-94 34-7 53-35.5t19-65.5q0-62-42-98.5T554 837zm95-712q16 0 26-9.5T685 91q0-18-17-31-97-72-235-72-122 0-206.5 61T109 213H50q-18 0-29 10.5T10 251q0 15 11 25.5T50 287h43q-3 26-3 52 0 17 2 47H50q-18 0-29 10.5T10 424q0 15 11 25.5T50 460h56q31 108 116 170t211 62q120 0 210-58 23-15 23-37 0-14-10-23t-24-9-41 15q-80 41-157 41-94 0-158-41.5T186 460h321q18 0 29-10.5t11-25.5q0-17-11-27.5T507 386H169q-2-30-2-47 0-27 3-52h337q18 0 29-10.5t11-25.5q0-17-11-27.5T507 213H188q28-74 91-114t154-40q100 0 181 51 24 15 35 15z"/><glyph glyph-name="onefour.euro" horiz-adv-x="818" d="M606 837q-13 0-23 9t-10 23v75H411q-36 0-36 29 0 11 6 27 60 158 170 266 25 25 43 25 14 0 23.5-9t9.5-23q0-17-18-33-54-49-91.5-98.5T450 1004h123v114q0 16 9.5 25t23.5 9 24-9 10-25v-114h42q15 0 23.5-9t8.5-22q0-12-8.5-20.5T682 944h-42v-75q0-14-10-23t-24-9zm-357 0q-14 0-23.5 9t-9.5 25v330l-50-32q-28-18-39-18-10 0-18.5 7.5T100 1177q0 20 24 36l91 63q17 12 33 12 35 0 35-36V871q0-16-10-25t-24-9zm400-712q16 0 26-9.5T685 91q0-18-17-31-97-72-235-72-122 0-206.5 61T109 213H50q-18 0-29 10.5T10 251q0 15 11 25.5T50 287h43q-3 26-3 52 0 17 2 47H50q-18 0-29 10.5T10 424q0 15 11 25.5T50 460h56q31 108 116 170t211 62q120 0 210-58 23-15 23-37 0-14-10-23t-24-9-41 15q-80 41-157 41-94 0-158-41.5T186 460h321q18 0 29-10.5t11-25.5q0-17-11-27.5T507 386H169q-2-30-2-47 0-27 3-52h337q18 0 29-10.5t11-25.5q0-17-11-27.5T507 213H188q28-74 91-114t154-40q100 0 181 51 24 15 35 15z"/><glyph glyph-name="onefive.euro" horiz-adv-x="809" d="M249 837q-14 0-23.5 9t-9.5 25v330l-50-32q-28-18-39-18-10 0-18.5 7.5T100 1177q0 20 24 36l91 63q17 12 33 12 35 0 35-36V871q0-16-10-25t-24-9zm312 0q-63 0-104 28-22 15-22 35 0 11 7.5 18t18.5 7q9 0 34-14 34-18 66-18 36 0 58 24.5t22 63.5q0 36-19 57t-49 21q-26 0-65-23-13-9-27-9-30 0-30 34v187q0 34 36 34h175q15 0 23.5-9t8.5-22q0-12-8.5-20.5T662 1222H516v-123q30 16 66 16 57 0 91.5-35.5T708 983t-40.5-103.5T561 837zm88-712q16 0 26-9.5T685 91q0-18-17-31-97-72-235-72-122 0-206.5 61T109 213H50q-18 0-29 10.5T10 251q0 15 11 25.5T50 287h43q-3 26-3 52 0 17 2 47H50q-18 0-29 10.5T10 424q0 15 11 25.5T50 460h56q31 108 116 170t211 62q120 0 210-58 23-15 23-37 0-14-10-23t-24-9-41 15q-80 41-157 41-94 0-158-41.5T186 460h321q18 0 29-10.5t11-25.5q0-17-11-27.5T507 386H169q-2-30-2-47 0-27 3-52h337q18 0 29-10.5t11-25.5q0-17-11-27.5T507 213H188q28-74 91-114t154-40q100 0 181 51 24 15 35 15z"/><glyph glyph-name="onesix.euro" horiz-adv-x="797" d="M249 837q-14 0-23.5 9t-9.5 25v330l-50-32q-28-18-39-18-10 0-18.5 7.5T100 1177q0 20 24 36l91 63q17 12 33 12 35 0 35-36V871q0-16-10-25t-24-9zm313 289q61 0 97.5-39T696 982q0-62-41.5-103.5T547 837q-73 0-112.5 52.5T395 1043q0 115 46 180t119 65q60 0 103-30 19-14 19-31 0-26-27-26-9 0-35 14-28 14-58 14-85 0-98-147 41 44 98 44zm-15-230q39 0 61 23.5t22 62.5-20 62-56 23q-41 0-63.5-26T468 982q0-37 21-61.5t58-24.5zm102-771q16 0 26-9.5T685 91q0-18-17-31-97-72-235-72-122 0-206.5 61T109 213H50q-18 0-29 10.5T10 251q0 15 11 25.5T50 287h43q-3 26-3 52 0 17 2 47H50q-18 0-29 10.5T10 424q0 15 11 25.5T50 460h56q31 108 116 170t211 62q120 0 210-58 23-15 23-37 0-14-10-23t-24-9-41 15q-80 41-157 41-94 0-158-41.5T186 460h321q18 0 29-10.5t11-25.5q0-17-11-27.5T507 386H169q-2-30-2-47 0-27 3-52h337q18 0 29-10.5t11-25.5q0-17-11-27.5T507 213H188q28-74 91-114t154-40q100 0 181 51 24 15 35 15z"/><glyph glyph-name="oneseven.euro" horiz-adv-x="799" d="M249 837q-14 0-23.5 9t-9.5 25v330l-50-32q-28-18-39-18-10 0-18.5 7.5T100 1177q0 20 24 36l91 63q17 12 33 12 35 0 35-36V871q0-16-10-25t-24-9zm248 0q-15 0-24 9.5t-9 24.5q0 112 88 226l40 53 22 34.5 15 37.5H447q-14 0-23 8.5t-9 22.5q0 13 9 21t23 8h220q30 0 30-29 0-21-5-40.5t-16.5-40.5-19.5-33.5-26.5-37T604 1067q-68-98-72-196-2-34-35-34zm152-712q16 0 26-9.5T685 91q0-18-17-31-97-72-235-72-122 0-206.5 61T109 213H50q-18 0-29 10.5T10 251q0 15 11 25.5T50 287h43q-3 26-3 52 0 17 2 47H50q-18 0-29 10.5T10 424q0 15 11 25.5T50 460h56q31 108 116 170t211 62q120 0 210-58 23-15 23-37 0-14-10-23t-24-9-41 15q-80 41-157 41-94 0-158-41.5T186 460h321q18 0 29-10.5t11-25.5q0-17-11-27.5T507 386H169q-2-30-2-47 0-27 3-52h337q18 0 29-10.5t11-25.5q0-17-11-27.5T507 213H188q28-74 91-114t154-40q100 0 181 51 24 15 35 15z"/><glyph glyph-name="oneeight.euro" horiz-adv-x="809" d="M249 837q-14 0-23.5 9t-9.5 25v330l-50-32q-28-18-39-18-10 0-18.5 7.5T100 1177q0 20 24 36l91 63q17 12 33 12 35 0 35-36V871q0-16-10-25t-24-9zm308 0q-67 0-109.5 34T405 970q0 33 17.5 59t47.5 41q-52 34-52 93 0 57 41.5 91t97.5 34q59 0 100.5-33t41.5-92q0-58-54-93 65-29 65-100 0-64-44-98.5T557 837zm36 252q43 21 43 74 0 34-24 50t-55 16q-30 0-53-16t-23-50q0-39 27-53t85-21zm-36-194q39 0 65 17.5t26 57.5q0 21-9.5 35.5t-30.5 22-39 11-50 7.5q-21-7-36-27t-15-49q0-75 89-75zm92-770q16 0 26-9.5T685 91q0-18-17-31-97-72-235-72-122 0-206.5 61T109 213H50q-18 0-29 10.5T10 251q0 15 11 25.5T50 287h43q-3 26-3 52 0 17 2 47H50q-18 0-29 10.5T10 424q0 15 11 25.5T50 460h56q31 108 116 170t211 62q120 0 210-58 23-15 23-37 0-14-10-23t-24-9-41 15q-80 41-157 41-94 0-158-41.5T186 460h321q18 0 29-10.5t11-25.5q0-17-11-27.5T507 386H169q-2-30-2-47 0-27 3-52h337q18 0 29-10.5t11-25.5q0-17-11-27.5T507 213H188q28-74 91-114t154-40q100 0 181 51 24 15 35 15z"/><glyph glyph-name="onenine.euro" horiz-adv-x="822" d="M249 837q-14 0-23.5 9t-9.5 25v330l-50-32q-28-18-39-18-10 0-18.5 7.5T100 1177q0 20 24 36l91 63q17 12 33 12 35 0 35-36V871q0-16-10-25t-24-9zm320 451q152 0 152-199 0-120-45.5-186T556 837q-60 0-103 30-19 14-19 31 0 26 27 26 9 0 35-14 28-14 58-14 85 0 98 144-41-44-98-44-61 0-97.5 39T420 1140q0 64 41.5 106t107.5 42zm-7-233q41 0 63.5 26t22.5 59q0 41-20.5 65t-58.5 24q-39 0-61-24t-22-65q0-39 20-62t56-23zm87-930q16 0 26-9.5T685 91q0-18-17-31-97-72-235-72-122 0-206.5 61T109 213H50q-18 0-29 10.5T10 251q0 15 11 25.5T50 287h43q-3 26-3 52 0 17 2 47H50q-18 0-29 10.5T10 424q0 15 11 25.5T50 460h56q31 108 116 170t211 62q120 0 210-58 23-15 23-37 0-14-10-23t-24-9-41 15q-80 41-157 41-94 0-158-41.5T186 460h321q18 0 29-10.5t11-25.5q0-17-11-27.5T507 386H169q-2-30-2-47 0-27 3-52h337q18 0 29-10.5t11-25.5q0-17-11-27.5T507 213H188q28-74 91-114t154-40q100 0 181 51 24 15 35 15z"/><glyph glyph-name="twozero.euro" horiz-adv-x="849" d="M135 842q-15 0-25 8.5T100 873q0 91 107 172 51 38 71 62t20 53q0 36-20 52.5t-52 16.5q-27 0-55-15-26-13-33-13-27 0-27 26 0 17 22 33 39 28 93 28 61 0 99.5-32t38.5-96q0-47-24-79t-83-74q-28-20-53.5-49T170 902h164q15 0 23.5-9t8.5-22q0-12-8.5-20.5T334 842H135zm452-5q-69 0-115.5 59.5T425 1060q0 102 47.5 163.5T587 1285t114.5-61.5T749 1060q0-104-46.5-163.5T587 837zm0 59q45 0 70.5 42t25.5 122q0 79-26 122.5t-70 43.5-70-43.5-26-122.5q0-80 25.5-122t70.5-42zm62-771q16 0 26-9.5T685 91q0-18-17-31-97-72-235-72-122 0-206.5 61T109 213H50q-18 0-29 10.5T10 251q0 15 11 25.5T50 287h43q-3 26-3 52 0 17 2 47H50q-18 0-29 10.5T10 424q0 15 11 25.5T50 460h56q31 108 116 170t211 62q120 0 210-58 23-15 23-37 0-14-10-23t-24-9-41 15q-80 41-157 41-94 0-158-41.5T186 460h321q18 0 29-10.5t11-25.5q0-17-11-27.5T507 386H169q-2-30-2-47 0-27 3-52h337q18 0 29-10.5t11-25.5q0-17-11-27.5T507 213H188q28-74 91-114t154-40q100 0 181 51 24 15 35 15z"/><glyph glyph-name="twoone.euro" horiz-adv-x="787" d="M135 842q-15 0-25 8.5T100 873q0 91 107 172 51 38 71 62t20 53q0 36-20 52.5t-52 16.5q-27 0-55-15-26-13-33-13-27 0-27 26 0 17 22 33 39 28 93 28 61 0 99.5-32t38.5-96q0-47-24-79t-83-74q-28-20-53.5-49T170 902h164q15 0 23.5-9t8.5-22q0-12-8.5-20.5T334 842H135zm459-5q-14 0-23.5 9t-9.5 25v330l-50-32q-28-18-39-18-10 0-18.5 7.5T445 1177q0 20 24 36l91 63q16 12 33 12 35 0 35-36V871q0-16-10-25t-24-9zm55-712q16 0 26-9.5T685 91q0-18-17-31-97-72-235-72-122 0-206.5 61T109 213H50q-18 0-29 10.5T10 251q0 15 11 25.5T50 287h43q-3 26-3 52 0 17 2 47H50q-18 0-29 10.5T10 424q0 15 11 25.5T50 460h56q31 108 116 170t211 62q120 0 210-58 23-15 23-37 0-14-10-23t-24-9-41 15q-80 41-157 41-94 0-158-41.5T186 460h321q18 0 29-10.5t11-25.5q0-17-11-27.5T507 386H169q-2-30-2-47 0-27 3-52h337q18 0 29-10.5t11-25.5q0-17-11-27.5T507 213H188q28-74 91-114t154-40q100 0 181 51 24 15 35 15z"/><glyph glyph-name="twotwo.euro" horiz-adv-x="804" d="M135 842q-15 0-25 8.5T100 873q0 91 107 172 51 38 71 62t20 53q0 36-20 52.5t-52 16.5q-27 0-55-15-26-13-33-13-27 0-27 26 0 17 22 33 39 28 93 28 61 0 99.5-32t38.5-96q0-47-24-79t-83-74q-28-20-53.5-49T170 902h164q15 0 23.5-9t8.5-22q0-12-8.5-20.5T334 842H135zm335 0q-15 0-25 8.5T435 873q0 91 107 172 51 38 71 62t20 53q0 36-20 52.5t-52 16.5q-27 0-55-15-26-13-33-13-27 0-27 26 0 17 22 33 38 28 93 28 61 0 99.5-32t38.5-96q0-47-24-79t-83-74q-28-20-53.5-49T505 902h164q15 0 23.5-9t8.5-22q0-12-8.5-20.5T669 842H470zm179-717q16 0 26-9.5T685 91q0-18-17-31-97-72-235-72-122 0-206.5 61T109 213H50q-18 0-29 10.5T10 251q0 15 11 25.5T50 287h43q-3 26-3 52 0 17 2 47H50q-18 0-29 10.5T10 424q0 15 11 25.5T50 460h56q31 108 116 170t211 62q120 0 210-58 23-15 23-37 0-14-10-23t-24-9-41 15q-80 41-157 41-94 0-158-41.5T186 460h321q18 0 29-10.5t11-25.5q0-17-11-27.5T507 386H169q-2-30-2-47 0-27 3-52h337q18 0 29-10.5t11-25.5q0-17-11-27.5T507 213H188q28-74 91-114t154-40q100 0 181 51 24 15 35 15z"/><glyph glyph-name="twothree.euro" horiz-adv-x="810" d="M135 842q-15 0-25 8.5T100 873q0 91 107 172 51 38 71 62t20 53q0 36-20 52.5t-52 16.5q-27 0-55-15-26-13-33-13-27 0-27 26 0 17 22 33 39 28 93 28 61 0 99.5-32t38.5-96q0-47-24-79t-83-74q-28-20-53.5-49T170 902h164q15 0 23.5-9t8.5-22q0-12-8.5-20.5T334 842H135zm429-5q-66 0-107 28-22 15-22 35 0 12 8 18.5t18 6.5q8 0 34-14 34-18 69-18 33 0 55 21t22 56q0 33-19 51.5t-51 18.5h-24q-14 0-22.5 8t-8.5 21 8.5 21.5 22.5 8.5h24q29 0 46 16t17 48q0 31-18 48.5t-50 17.5q-30 0-58-14-26-14-35-14-27 0-27 26 0 18 19 31 43 30 103 30 61 0 96.5-34t35.5-87q0-69-65-94 34-7 53-35.5t19-65.5q0-62-42-98.5T564 837zm85-712q16 0 26-9.5T685 91q0-18-17-31-97-72-235-72-122 0-206.5 61T109 213H50q-18 0-29 10.5T10 251q0 15 11 25.5T50 287h43q-3 26-3 52 0 17 2 47H50q-18 0-29 10.5T10 424q0 15 11 25.5T50 460h56q31 108 116 170t211 62q120 0 210-58 23-15 23-37 0-14-10-23t-24-9-41 15q-80 41-157 41-94 0-158-41.5T186 460h321q18 0 29-10.5t11-25.5q0-17-11-27.5T507 386H169q-2-30-2-47 0-27 3-52h337q18 0 29-10.5t11-25.5q0-17-11-27.5T507 213H188q28-74 91-114t154-40q100 0 181 51 24 15 35 15z"/><glyph glyph-name="twofour.euro" horiz-adv-x="838" d="M626 837q-13 0-23 9t-10 23v75H431q-36 0-36 29 0 11 6 27 60 158 170 266 25 25 43 25 14 0 23.5-9t9.5-23q0-17-18-33-54-49-91.5-98.5T470 1004h123v114q0 16 9.5 25t23.5 9 24-9 10-25v-114h42q15 0 23.5-9t8.5-22q0-12-8.5-20.5T702 944h-42v-75q0-14-10-23t-24-9zm-491 5q-15 0-25 8.5T100 873q0 91 107 172 51 38 71 62t20 53q0 36-20 52.5t-52 16.5q-27 0-55-15-26-13-33-13-27 0-27 26 0 17 22 33 39 28 93 28 61 0 99.5-32t38.5-96q0-47-24-79t-83-74q-28-20-53.5-49T170 902h164q15 0 23.5-9t8.5-22q0-12-8.5-20.5T334 842H135zm514-717q16 0 26-9.5T685 91q0-18-17-31-97-72-235-72-122 0-206.5 61T109 213H50q-18 0-29 10.5T10 251q0 15 11 25.5T50 287h43q-3 26-3 52 0 17 2 47H50q-18 0-29 10.5T10 424q0 15 11 25.5T50 460h56q31 108 116 170t211 62q120 0 210-58 23-15 23-37 0-14-10-23t-24-9-41 15q-80 41-157 41-94 0-158-41.5T186 460h321q18 0 29-10.5t11-25.5q0-17-11-27.5T507 386H169q-2-30-2-47 0-27 3-52h337q18 0 29-10.5t11-25.5q0-17-11-27.5T507 213H188q28-74 91-114t154-40q100 0 181 51 24 15 35 15z"/><glyph glyph-name="twofive.euro" horiz-adv-x="819" d="M135 842q-15 0-25 8.5T100 873q0 91 107 172 51 38 71 62t20 53q0 36-20 52.5t-52 16.5q-27 0-55-15-26-13-33-13-27 0-27 26 0 17 22 33 39 28 93 28 61 0 99.5-32t38.5-96q0-47-24-79t-83-74q-28-20-53.5-49T170 902h164q15 0 23.5-9t8.5-22q0-12-8.5-20.5T334 842H135zm436-5q-63 0-104 28-22 15-22 35 0 11 7.5 18t18.5 7q9 0 34-14 34-18 66-18 36 0 58 24.5t22 63.5q0 36-19 57t-49 21q-26 0-65-23-13-9-27-9-30 0-30 34v187q0 34 36 34h175q15 0 23.5-9t8.5-22q0-12-8.5-20.5T672 1222H526v-123q30 16 66 16 57 0 91.5-35.5T718 983t-40.5-103.5T571 837zm78-712q16 0 26-9.5T685 91q0-18-17-31-97-72-235-72-122 0-206.5 61T109 213H50q-18 0-29 10.5T10 251q0 15 11 25.5T50 287h43q-3 26-3 52 0 17 2 47H50q-18 0-29 10.5T10 424q0 15 11 25.5T50 460h56q31 108 116 170t211 62q120 0 210-58 23-15 23-37 0-14-10-23t-24-9-41 15q-80 41-157 41-94 0-158-41.5T186 460h321q18 0 29-10.5t11-25.5q0-17-11-27.5T507 386H169q-2-30-2-47 0-27 3-52h337q18 0 29-10.5t11-25.5q0-17-11-27.5T507 213H188q28-74 91-114t154-40q100 0 181 51 24 15 35 15z"/><glyph glyph-name="twosix.euro" horiz-adv-x="827" d="M135 842q-15 0-25 8.5T100 873q0 91 107 172 51 38 71 62t20 53q0 36-20 52.5t-52 16.5q-27 0-55-15-26-13-33-13-27 0-27 26 0 17 22 33 39 28 93 28 61 0 99.5-32t38.5-96q0-47-24-79t-83-74q-28-20-53.5-49T170 902h164q15 0 23.5-9t8.5-22q0-12-8.5-20.5T334 842H135zm457 284q61 0 97.5-39T726 982q0-62-41.5-103.5T577 837q-73 0-112.5 52.5T425 1043q0 115 46 180t119 65q60 0 103-30 19-14 19-31 0-26-27-26-9 0-35 14-28 14-58 14-85 0-98-147 41 44 98 44zm-15-230q39 0 61 23.5t22 62.5-20 62-56 23q-41 0-63.5-26T498 982q0-37 21-61.5t58-24.5zm72-771q16 0 26-9.5T685 91q0-18-17-31-97-72-235-72-122 0-206.5 61T109 213H50q-18 0-29 10.5T10 251q0 15 11 25.5T50 287h43q-3 26-3 52 0 17 2 47H50q-18 0-29 10.5T10 424q0 15 11 25.5T50 460h56q31 108 116 170t211 62q120 0 210-58 23-15 23-37 0-14-10-23t-24-9-41 15q-80 41-157 41-94 0-158-41.5T186 460h321q18 0 29-10.5t11-25.5q0-17-11-27.5T507 386H169q-2-30-2-47 0-27 3-52h337q18 0 29-10.5t11-25.5q0-17-11-27.5T507 213H188q28-74 91-114t154-40q100 0 181 51 24 15 35 15z"/><glyph glyph-name="twoseven.euro" horiz-adv-x="819" d="M135 842q-15 0-25 8.5T100 873q0 91 107 172 51 38 71 62t20 53q0 36-20 52.5t-52 16.5q-27 0-55-15-26-13-33-13-27 0-27 26 0 17 22 33 39 28 93 28 61 0 99.5-32t38.5-96q0-47-24-79t-83-74q-28-20-53.5-49T170 902h164q15 0 23.5-9t8.5-22q0-12-8.5-20.5T334 842H135zm382-5q-15 0-24 9.5t-9 24.5q0 112 88 226l40 53 22 34.5 15 37.5H467q-14 0-23 8.5t-9 22.5q0 13 9 21t23 8h220q30 0 30-29 0-21-5-40.5t-16.5-40.5-19.5-33.5-26.5-37T624 1067q-68-98-72-196-2-34-35-34zm132-712q16 0 26-9.5T685 91q0-18-17-31-97-72-235-72-122 0-206.5 61T109 213H50q-18 0-29 10.5T10 251q0 15 11 25.5T50 287h43q-3 26-3 52 0 17 2 47H50q-18 0-29 10.5T10 424q0 15 11 25.5T50 460h56q31 108 116 170t211 62q120 0 210-58 23-15 23-37 0-14-10-23t-24-9-41 15q-80 41-157 41-94 0-158-41.5T186 460h321q18 0 29-10.5t11-25.5q0-17-11-27.5T507 386H169q-2-30-2-47 0-27 3-52h337q18 0 29-10.5t11-25.5q0-17-11-27.5T507 213H188q28-74 91-114t154-40q100 0 181 51 24 15 35 15z"/><glyph glyph-name="twoeight.euro" horiz-adv-x="839" d="M135 842q-15 0-25 8.5T100 873q0 91 107 172 51 38 71 62t20 53q0 36-20 52.5t-52 16.5q-27 0-55-15-26-13-33-13-27 0-27 26 0 17 22 33 39 28 93 28 61 0 99.5-32t38.5-96q0-47-24-79t-83-74q-28-20-53.5-49T170 902h164q15 0 23.5-9t8.5-22q0-12-8.5-20.5T334 842H135zm452-5q-67 0-109.5 34T435 970q0 33 17.5 59t47.5 41q-52 34-52 93 0 57 41.5 91t97.5 34q59 0 100.5-33t41.5-92q0-58-54-93 65-29 65-100 0-64-44-98.5T587 837zm36 252q43 21 43 74 0 34-24 50t-55 16q-30 0-53-16t-23-50q0-39 27-53t85-21zm-36-194q39 0 65 17.5t26 57.5q0 21-9.5 35.5t-30.5 22-39 11-50 7.5q-21-7-36-27t-15-49q0-75 89-75zm62-770q16 0 26-9.5T685 91q0-18-17-31-97-72-235-72-122 0-206.5 61T109 213H50q-18 0-29 10.5T10 251q0 15 11 25.5T50 287h43q-3 26-3 52 0 17 2 47H50q-18 0-29 10.5T10 424q0 15 11 25.5T50 460h56q31 108 116 170t211 62q120 0 210-58 23-15 23-37 0-14-10-23t-24-9-41 15q-80 41-157 41-94 0-158-41.5T186 460h321q18 0 29-10.5t11-25.5q0-17-11-27.5T507 386H169q-2-30-2-47 0-27 3-52h337q18 0 29-10.5t11-25.5q0-17-11-27.5T507 213H188q28-74 91-114t154-40q100 0 181 51 24 15 35 15z"/><glyph glyph-name="twonine.euro" horiz-adv-x="837" d="M135 842q-15 0-25 8.5T100 873q0 91 107 172 51 38 71 62t20 53q0 36-20 52.5t-52 16.5q-27 0-55-15-26-13-33-13-27 0-27 26 0 17 22 33 39 28 93 28 61 0 99.5-32t38.5-96q0-47-24-79t-83-74q-28-20-53.5-49T170 902h164q15 0 23.5-9t8.5-22q0-12-8.5-20.5T334 842H135zm449 446q152 0 152-199 0-120-45.5-186T571 837q-60 0-103 30-19 14-19 31 0 26 27 26 9 0 35-14 28-14 58-14 85 0 98 144-41-44-98-44-61 0-97.5 39T435 1140q0 64 41.5 106t107.5 42zm-7-233q41 0 63.5 26t22.5 59q0 41-20.5 65t-58.5 24q-39 0-61-24t-22-65q0-39 20-62t56-23zm72-930q16 0 26-9.5T685 91q0-18-17-31-97-72-235-72-122 0-206.5 61T109 213H50q-18 0-29 10.5T10 251q0 15 11 25.5T50 287h43q-3 26-3 52 0 17 2 47H50q-18 0-29 10.5T10 424q0 15 11 25.5T50 460h56q31 108 116 170t211 62q120 0 210-58 23-15 23-37 0-14-10-23t-24-9-41 15q-80 41-157 41-94 0-158-41.5T186 460h321q18 0 29-10.5t11-25.5q0-17-11-27.5T507 386H169q-2-30-2-47 0-27 3-52h337q18 0 29-10.5t11-25.5q0-17-11-27.5T507 213H188q28-74 91-114t154-40q100 0 181 51 24 15 35 15z"/><glyph glyph-name="threezero.euro" horiz-adv-x="839" d="M219 837q-66 0-107 28-22 15-22 35 0 12 8 18.5t18 6.5q8 0 34-14 34-18 69-18 33 0 55 21t22 56q0 33-19 51.5t-51 18.5h-24q-14 0-22.5 8t-8.5 21 8.5 21.5 22.5 8.5h24q29 0 46 16t17 48q0 31-18 48.5t-50 17.5q-30 0-58-14-26-14-35-14-27 0-27 26 0 18 19 31 43 30 103 30 61 0 96.5-34t35.5-87q0-69-65-94 34-7 53-35.5t19-65.5q0-62-42-98.5T219 837zm358 0q-69 0-115.5 59.5T415 1060q0 102 47.5 163.5T577 1285t114.5-61.5T739 1060q0-104-46.5-163.5T577 837zm0 59q45 0 70.5 42t25.5 122q0 79-26 122.5t-70 43.5-70-43.5-26-122.5q0-80 25.5-122t70.5-42zm72-771q16 0 26-9.5T685 91q0-18-17-31-97-72-235-72-122 0-206.5 61T109 213H50q-18 0-29 10.5T10 251q0 15 11 25.5T50 287h43q-3 26-3 52 0 17 2 47H50q-18 0-29 10.5T10 424q0 15 11 25.5T50 460h56q31 108 116 170t211 62q120 0 210-58 23-15 23-37 0-14-10-23t-24-9-41 15q-80 41-157 41-94 0-158-41.5T186 460h321q18 0 29-10.5t11-25.5q0-17-11-27.5T507 386H169q-2-30-2-47 0-27 3-52h337q18 0 29-10.5t11-25.5q0-17-11-27.5T507 213H188q28-74 91-114t154-40q100 0 181 51 24 15 35 15z"/><glyph glyph-name="threeone.euro" horiz-adv-x="787" d="M219 837q-66 0-107 28-22 15-22 35 0 12 8 18.5t18 6.5q8 0 34-14 34-18 69-18 33 0 55 21t22 56q0 33-19 51.5t-51 18.5h-24q-14 0-22.5 8t-8.5 21 8.5 21.5 22.5 8.5h24q29 0 46 16t17 48q0 31-18 48.5t-50 17.5q-30 0-58-14-26-14-35-14-27 0-27 26 0 18 19 31 43 30 103 30 61 0 96.5-34t35.5-87q0-69-65-94 34-7 53-35.5t19-65.5q0-62-42-98.5T219 837zm365 0q-14 0-23.5 9t-9.5 25v330l-50-32q-28-18-39-18-10 0-18.5 7.5T435 1177q0 20 24 36l91 63q16 12 33 12 35 0 35-36V871q0-16-10-25t-24-9zm65-712q16 0 26-9.5T685 91q0-18-17-31-97-72-235-72-122 0-206.5 61T109 213H50q-18 0-29 10.5T10 251q0 15 11 25.5T50 287h43q-3 26-3 52 0 17 2 47H50q-18 0-29 10.5T10 424q0 15 11 25.5T50 460h56q31 108 116 170t211 62q120 0 210-58 23-15 23-37 0-14-10-23t-24-9-41 15q-80 41-157 41-94 0-158-41.5T186 460h321q18 0 29-10.5t11-25.5q0-17-11-27.5T507 386H169q-2-30-2-47 0-27 3-52h337q18 0 29-10.5t11-25.5q0-17-11-27.5T507 213H188q28-74 91-114t154-40q100 0 181 51 24 15 35 15z"/><glyph glyph-name="threetwo.euro" horiz-adv-x="794" d="M219 837q-66 0-107 28-22 15-22 35 0 12 8 18.5t18 6.5q8 0 34-14 34-18 69-18 33 0 55 21t22 56q0 33-19 51.5t-51 18.5h-24q-14 0-22.5 8t-8.5 21 8.5 21.5 22.5 8.5h24q29 0 46 16t17 48q0 31-18 48.5t-50 17.5q-30 0-58-14-26-14-35-14-27 0-27 26 0 18 19 31 43 30 103 30 61 0 96.5-34t35.5-87q0-69-65-94 34-7 53-35.5t19-65.5q0-62-42-98.5T219 837zm241 5q-15 0-25 8.5T425 873q0 91 107 172 51 38 71 62t20 53q0 36-20 52.5t-52 16.5q-27 0-55-15-26-13-33-13-27 0-27 26 0 17 22 33 39 28 93 28 61 0 99.5-32t38.5-96q0-47-24-79t-83-74q-28-20-53.5-49T495 902h164q15 0 23.5-9t8.5-22q0-12-8.5-20.5T659 842H460zm189-717q16 0 26-9.5T685 91q0-18-17-31-97-72-235-72-122 0-206.5 61T109 213H50q-18 0-29 10.5T10 251q0 15 11 25.5T50 287h43q-3 26-3 52 0 17 2 47H50q-18 0-29 10.5T10 424q0 15 11 25.5T50 460h56q31 108 116 170t211 62q120 0 210-58 23-15 23-37 0-14-10-23t-24-9-41 15q-80 41-157 41-94 0-158-41.5T186 460h321q18 0 29-10.5t11-25.5q0-17-11-27.5T507 386H169q-2-30-2-47 0-27 3-52h337q18 0 29-10.5t11-25.5q0-17-11-27.5T507 213H188q28-74 91-114t154-40q100 0 181 51 24 15 35 15z"/><glyph glyph-name="threethree.euro" horiz-adv-x="800" d="M219 837q-66 0-107 28-22 15-22 35 0 12 8 18.5t18 6.5q8 0 34-14 34-18 69-18 33 0 55 21t22 56q0 33-19 51.5t-51 18.5h-24q-14 0-22.5 8t-8.5 21 8.5 21.5 22.5 8.5h24q29 0 46 16t17 48q0 31-18 48.5t-50 17.5q-30 0-58-14-26-14-35-14-27 0-27 26 0 18 19 31 43 30 103 30 61 0 96.5-34t35.5-87q0-69-65-94 34-7 53-35.5t19-65.5q0-62-42-98.5T219 837zm335 0q-66 0-107 28-22 15-22 35 0 12 8 18.5t18 6.5q8 0 34-14 34-18 69-18 33 0 55 21t22 56q0 33-19 51.5t-51 18.5h-24q-14 0-22.5 8t-8.5 21 8.5 21.5 22.5 8.5h24q29 0 46 16t17 48q0 31-18 48.5t-50 17.5q-30 0-58-14-26-14-35-14-27 0-27 26 0 18 19 31 43 30 103 30 61 0 96.5-34t35.5-87q0-69-65-94 34-7 53-35.5t19-65.5q0-62-42-98.5T554 837zm95-712q16 0 26-9.5T685 91q0-18-17-31-97-72-235-72-122 0-206.5 61T109 213H50q-18 0-29 10.5T10 251q0 15 11 25.5T50 287h43q-3 26-3 52 0 17 2 47H50q-18 0-29 10.5T10 424q0 15 11 25.5T50 460h56q31 108 116 170t211 62q120 0 210-58 23-15 23-37 0-14-10-23t-24-9-41 15q-80 41-157 41-94 0-158-41.5T186 460h321q18 0 29-10.5t11-25.5q0-17-11-27.5T507 386H169q-2-30-2-47 0-27 3-52h337q18 0 29-10.5t11-25.5q0-17-11-27.5T507 213H188q28-74 91-114t154-40q100 0 181 51 24 15 35 15z"/><glyph glyph-name="threefour.euro" horiz-adv-x="838" d="M626 837q-13 0-23 9t-10 23v75H431q-36 0-36 29 0 11 6 27 60 158 170 266 25 25 43 25 14 0 23.5-9t9.5-23q0-17-18-33-54-49-91.5-98.5T470 1004h123v114q0 16 9.5 25t23.5 9 24-9 10-25v-114h42q15 0 23.5-9t8.5-22q0-12-8.5-20.5T702 944h-42v-75q0-14-10-23t-24-9zm-407 0q-66 0-107 28-22 15-22 35 0 12 8 18.5t18 6.5q8 0 34-14 34-18 69-18 33 0 55 21t22 56q0 33-19 51.5t-51 18.5h-24q-14 0-22.5 8t-8.5 21 8.5 21.5 22.5 8.5h24q29 0 46 16t17 48q0 31-18 48.5t-50 17.5q-30 0-58-14-26-14-35-14-27 0-27 26 0 18 19 31 43 30 103 30 61 0 96.5-34t35.5-87q0-69-65-94 34-7 53-35.5t19-65.5q0-62-42-98.5T219 837zm430-712q16 0 26-9.5T685 91q0-18-17-31-97-72-235-72-122 0-206.5 61T109 213H50q-18 0-29 10.5T10 251q0 15 11 25.5T50 287h43q-3 26-3 52 0 17 2 47H50q-18 0-29 10.5T10 424q0 15 11 25.5T50 460h56q31 108 116 170t211 62q120 0 210-58 23-15 23-37 0-14-10-23t-24-9-41 15q-80 41-157 41-94 0-158-41.5T186 460h321q18 0 29-10.5t11-25.5q0-17-11-27.5T507 386H169q-2-30-2-47 0-27 3-52h337q18 0 29-10.5t11-25.5q0-17-11-27.5T507 213H188q28-74 91-114t154-40q100 0 181 51 24 15 35 15z"/><glyph glyph-name="threefive.euro" horiz-adv-x="819" d="M219 837q-66 0-107 28-22 15-22 35 0 12 8 18.5t18 6.5q8 0 34-14 34-18 69-18 33 0 55 21t22 56q0 33-19 51.5t-51 18.5h-24q-14 0-22.5 8t-8.5 21 8.5 21.5 22.5 8.5h24q29 0 46 16t17 48q0 31-18 48.5t-50 17.5q-30 0-58-14-26-14-35-14-27 0-27 26 0 18 19 31 43 30 103 30 61 0 96.5-34t35.5-87q0-69-65-94 34-7 53-35.5t19-65.5q0-62-42-98.5T219 837zm352 0q-63 0-104 28-22 15-22 35 0 11 7.5 18t18.5 7q9 0 34-14 34-18 66-18 36 0 58 24.5t22 63.5q0 36-19 57t-49 21q-26 0-65-23-13-9-27-9-30 0-30 34v187q0 34 36 34h175q15 0 23.5-9t8.5-22q0-12-8.5-20.5T672 1222H526v-123q30 16 66 16 57 0 91.5-35.5T718 983t-40.5-103.5T571 837zm78-712q16 0 26-9.5T685 91q0-18-17-31-97-72-235-72-122 0-206.5 61T109 213H50q-18 0-29 10.5T10 251q0 15 11 25.5T50 287h43q-3 26-3 52 0 17 2 47H50q-18 0-29 10.5T10 424q0 15 11 25.5T50 460h56q31 108 116 170t211 62q120 0 210-58 23-15 23-37 0-14-10-23t-24-9-41 15q-80 41-157 41-94 0-158-41.5T186 460h321q18 0 29-10.5t11-25.5q0-17-11-27.5T507 386H169q-2-30-2-47 0-27 3-52h337q18 0 29-10.5t11-25.5q0-17-11-27.5T507 213H188q28-74 91-114t154-40q100 0 181 51 24 15 35 15z"/><glyph glyph-name="threesix.euro" horiz-adv-x="817" d="M219 837q-66 0-107 28-22 15-22 35 0 12 8 18.5t18 6.5q8 0 34-14 34-18 69-18 33 0 55 21t22 56q0 33-19 51.5t-51 18.5h-24q-14 0-22.5 8t-8.5 21 8.5 21.5 22.5 8.5h24q29 0 46 16t17 48q0 31-18 48.5t-50 17.5q-30 0-58-14-26-14-35-14-27 0-27 26 0 18 19 31 43 30 103 30 61 0 96.5-34t35.5-87q0-69-65-94 34-7 53-35.5t19-65.5q0-62-42-98.5T219 837zm363 289q61 0 97.5-39T716 982q0-62-41.5-103.5T567 837q-73 0-112.5 52.5T415 1043q0 115 46 180t119 65q60 0 103-30 19-14 19-31 0-26-27-26-9 0-35 14-28 14-58 14-85 0-98-147 41 44 98 44zm-15-230q39 0 61 23.5t22 62.5-20 62-56 23q-41 0-63.5-26T488 982q0-37 21-61.5t58-24.5zm82-771q16 0 26-9.5T685 91q0-18-17-31-97-72-235-72-122 0-206.5 61T109 213H50q-18 0-29 10.5T10 251q0 15 11 25.5T50 287h43q-3 26-3 52 0 17 2 47H50q-18 0-29 10.5T10 424q0 15 11 25.5T50 460h56q31 108 116 170t211 62q120 0 210-58 23-15 23-37 0-14-10-23t-24-9-41 15q-80 41-157 41-94 0-158-41.5T186 460h321q18 0 29-10.5t11-25.5q0-17-11-27.5T507 386H169q-2-30-2-47 0-27 3-52h337q18 0 29-10.5t11-25.5q0-17-11-27.5T507 213H188q28-74 91-114t154-40q100 0 181 51 24 15 35 15z"/><glyph glyph-name="threeseven.euro" horiz-adv-x="819" d="M219 837q-66 0-107 28-22 15-22 35 0 12 8 18.5t18 6.5q8 0 34-14 34-18 69-18 33 0 55 21t22 56q0 33-19 51.5t-51 18.5h-24q-14 0-22.5 8t-8.5 21 8.5 21.5 22.5 8.5h24q29 0 46 16t17 48q0 31-18 48.5t-50 17.5q-30 0-58-14-26-14-35-14-27 0-27 26 0 18 19 31 43 30 103 30 61 0 96.5-34t35.5-87q0-69-65-94 34-7 53-35.5t19-65.5q0-62-42-98.5T219 837zm298 0q-15 0-24 9.5t-9 24.5q0 112 88 226l40 53 22 34.5 15 37.5H467q-14 0-23 8.5t-9 22.5q0 13 9 21t23 8h220q30 0 30-29 0-21-5-40.5t-16.5-40.5-19.5-33.5-26.5-37T624 1067q-68-98-72-196-2-34-35-34zm132-712q16 0 26-9.5T685 91q0-18-17-31-97-72-235-72-122 0-206.5 61T109 213H50q-18 0-29 10.5T10 251q0 15 11 25.5T50 287h43q-3 26-3 52 0 17 2 47H50q-18 0-29 10.5T10 424q0 15 11 25.5T50 460h56q31 108 116 170t211 62q120 0 210-58 23-15 23-37 0-14-10-23t-24-9-41 15q-80 41-157 41-94 0-158-41.5T186 460h321q18 0 29-10.5t11-25.5q0-17-11-27.5T507 386H169q-2-30-2-47 0-27 3-52h337q18 0 29-10.5t11-25.5q0-17-11-27.5T507 213H188q28-74 91-114t154-40q100 0 181 51 24 15 35 15z"/><glyph glyph-name="threeeight.euro" horiz-adv-x="829" d="M219 837q-66 0-107 28-22 15-22 35 0 12 8 18.5t18 6.5q8 0 34-14 34-18 69-18 33 0 55 21t22 56q0 33-19 51.5t-51 18.5h-24q-14 0-22.5 8t-8.5 21 8.5 21.5 22.5 8.5h24q29 0 46 16t17 48q0 31-18 48.5t-50 17.5q-30 0-58-14-26-14-35-14-27 0-27 26 0 18 19 31 43 30 103 30 61 0 96.5-34t35.5-87q0-69-65-94 34-7 53-35.5t19-65.5q0-62-42-98.5T219 837zm358 0q-67 0-109.5 34T425 970q0 33 17.5 59t47.5 41q-52 34-52 93 0 57 41.5 91t97.5 34q59 0 100.5-33t41.5-92q0-58-54-93 65-29 65-100 0-64-44-98.5T577 837zm36 252q43 21 43 74 0 34-24 50t-55 16q-30 0-53-16t-23-50q0-39 27-53t85-21zm-36-194q39 0 65 17.5t26 57.5q0 21-9.5 35.5t-30.5 22-39 11-50 7.5q-21-7-36-27t-15-49q0-75 89-75zm72-770q16 0 26-9.5T685 91q0-18-17-31-97-72-235-72-122 0-206.5 61T109 213H50q-18 0-29 10.5T10 251q0 15 11 25.5T50 287h43q-3 26-3 52 0 17 2 47H50q-18 0-29 10.5T10 424q0 15 11 25.5T50 460h56q31 108 116 170t211 62q120 0 210-58 23-15 23-37 0-14-10-23t-24-9-41 15q-80 41-157 41-94 0-158-41.5T186 460h321q18 0 29-10.5t11-25.5q0-17-11-27.5T507 386H169q-2-30-2-47 0-27 3-52h337q18 0 29-10.5t11-25.5q0-17-11-27.5T507 213H188q28-74 91-114t154-40q100 0 181 51 24 15 35 15z"/><glyph glyph-name="threenine.euro" horiz-adv-x="827" d="M219 837q-66 0-107 28-22 15-22 35 0 12 8 18.5t18 6.5q8 0 34-14 34-18 69-18 33 0 55 21t22 56q0 33-19 51.5t-51 18.5h-24q-14 0-22.5 8t-8.5 21 8.5 21.5 22.5 8.5h24q29 0 46 16t17 48q0 31-18 48.5t-50 17.5q-30 0-58-14-26-14-35-14-27 0-27 26 0 18 19 31 43 30 103 30 61 0 96.5-34t35.5-87q0-69-65-94 34-7 53-35.5t19-65.5q0-62-42-98.5T219 837zm355 451q152 0 152-199 0-120-45.5-186T561 837q-60 0-103 30-19 14-19 31 0 26 27 26 9 0 35-14 28-14 58-14 85 0 98 144-41-44-98-44-61 0-97.5 39T425 1140q0 64 41.5 106t107.5 42zm-7-233q41 0 63.5 26t22.5 59q0 41-20.5 65t-58.5 24q-39 0-61-24t-22-65q0-39 20-62t56-23zm82-930q16 0 26-9.5T685 91q0-18-17-31-97-72-235-72-122 0-206.5 61T109 213H50q-18 0-29 10.5T10 251q0 15 11 25.5T50 287h43q-3 26-3 52 0 17 2 47H50q-18 0-29 10.5T10 424q0 15 11 25.5T50 460h56q31 108 116 170t211 62q120 0 210-58 23-15 23-37 0-14-10-23t-24-9-41 15q-80 41-157 41-94 0-158-41.5T186 460h321q18 0 29-10.5t11-25.5q0-17-11-27.5T507 386H169q-2-30-2-47 0-27 3-52h337q18 0 29-10.5t11-25.5q0-17-11-27.5T507 213H188q28-74 91-114t154-40q100 0 181 51 24 15 35 15z"/><glyph glyph-name="fourzero.euro" horiz-adv-x="839" d="M281 837q-13 0-23 9t-10 23v75H86q-36 0-36 29 0 11 6 27 60 158 170 266 25 25 43 25 14 0 23.5-9t9.5-23q0-17-18-33-54-49-91.5-98.5T125 1004h123v114q0 16 9.5 25t23.5 9 24-9 10-25v-114h42q15 0 23.5-9t8.5-22q0-12-8.5-20.5T357 944h-42v-75q0-14-10-23t-24-9zm296 0q-69 0-115.5 59.5T415 1060q0 102 47.5 163.5T577 1285t114.5-61.5T739 1060q0-104-46.5-163.5T577 837zm0 59q45 0 70.5 42t25.5 122q0 79-26 122.5t-70 43.5-70-43.5-26-122.5q0-80 25.5-122t70.5-42zm72-771q16 0 26-9.5T685 91q0-18-17-31-97-72-235-72-122 0-206.5 61T109 213H50q-18 0-29 10.5T10 251q0 15 11 25.5T50 287h43q-3 26-3 52 0 17 2 47H50q-18 0-29 10.5T10 424q0 15 11 25.5T50 460h56q31 108 116 170t211 62q120 0 210-58 23-15 23-37 0-14-10-23t-24-9-41 15q-80 41-157 41-94 0-158-41.5T186 460h321q18 0 29-10.5t11-25.5q0-17-11-27.5T507 386H169q-2-30-2-47 0-27 3-52h337q18 0 29-10.5t11-25.5q0-17-11-27.5T507 213H188q28-74 91-114t154-40q100 0 181 51 24 15 35 15z"/><glyph glyph-name="fourone.euro" horiz-adv-x="787" d="M281 837q-13 0-23 9t-10 23v75H86q-36 0-36 29 0 11 6 27 60 158 170 266 25 25 43 25 14 0 23.5-9t9.5-23q0-17-18-33-54-49-91.5-98.5T125 1004h123v114q0 16 9.5 25t23.5 9 24-9 10-25v-114h42q15 0 23.5-9t8.5-22q0-12-8.5-20.5T357 944h-42v-75q0-14-10-23t-24-9zm313 0q-14 0-23.5 9t-9.5 25v330l-50-32q-28-18-39-18-10 0-18.5 7.5T445 1177q0 20 24 36l91 63q16 12 33 12 35 0 35-36V871q0-16-10-25t-24-9zm55-712q16 0 26-9.5T685 91q0-18-17-31-97-72-235-72-122 0-206.5 61T109 213H50q-18 0-29 10.5T10 251q0 15 11 25.5T50 287h43q-3 26-3 52 0 17 2 47H50q-18 0-29 10.5T10 424q0 15 11 25.5T50 460h56q31 108 116 170t211 62q120 0 210-58 23-15 23-37 0-14-10-23t-24-9-41 15q-80 41-157 41-94 0-158-41.5T186 460h321q18 0 29-10.5t11-25.5q0-17-11-27.5T507 386H169q-2-30-2-47 0-27 3-52h337q18 0 29-10.5t11-25.5q0-17-11-27.5T507 213H188q28-74 91-114t154-40q100 0 181 51 24 15 35 15z"/><glyph glyph-name="fourtwo.euro" horiz-adv-x="814" d="M281 837q-13 0-23 9t-10 23v75H86q-36 0-36 29 0 11 6 27 60 158 170 266 25 25 43 25 14 0 23.5-9t9.5-23q0-17-18-33-54-49-91.5-98.5T125 1004h123v114q0 16 9.5 25t23.5 9 24-9 10-25v-114h42q15 0 23.5-9t8.5-22q0-12-8.5-20.5T357 944h-42v-75q0-14-10-23t-24-9zm199 5q-15 0-25 8.5T445 873q0 91 107 172 51 38 71 62t20 53q0 36-20 52.5t-52 16.5q-27 0-55-15-26-13-33-13-27 0-27 26 0 17 22 33 38 28 93 28 61 0 99.5-32t38.5-96q0-47-24-79t-83-74q-28-20-53.5-49T515 902h164q15 0 23.5-9t8.5-22q0-12-8.5-20.5T679 842H480zm169-717q16 0 26-9.5T685 91q0-18-17-31-97-72-235-72-122 0-206.5 61T109 213H50q-18 0-29 10.5T10 251q0 15 11 25.5T50 287h43q-3 26-3 52 0 17 2 47H50q-18 0-29 10.5T10 424q0 15 11 25.5T50 460h56q31 108 116 170t211 62q120 0 210-58 23-15 23-37 0-14-10-23t-24-9-41 15q-80 41-157 41-94 0-158-41.5T186 460h321q18 0 29-10.5t11-25.5q0-17-11-27.5T507 386H169q-2-30-2-47 0-27 3-52h337q18 0 29-10.5t11-25.5q0-17-11-27.5T507 213H188q28-74 91-114t154-40q100 0 181 51 24 15 35 15z"/><glyph glyph-name="fourthree.euro" horiz-adv-x="810" d="M281 837q-13 0-23 9t-10 23v75H86q-36 0-36 29 0 11 6 27 60 158 170 266 25 25 43 25 14 0 23.5-9t9.5-23q0-17-18-33-54-49-91.5-98.5T125 1004h123v114q0 16 9.5 25t23.5 9 24-9 10-25v-114h42q15 0 23.5-9t8.5-22q0-12-8.5-20.5T357 944h-42v-75q0-14-10-23t-24-9zm283 0q-66 0-107 28-22 15-22 35 0 12 8 18.5t18 6.5q8 0 34-14 34-18 69-18 33 0 55 21t22 56q0 33-19 51.5t-51 18.5h-24q-14 0-22.5 8t-8.5 21 8.5 21.5 22.5 8.5h24q29 0 46 16t17 48q0 31-18 48.5t-50 17.5q-30 0-58-14-26-14-35-14-27 0-27 26 0 18 19 31 43 30 103 30 61 0 96.5-34t35.5-87q0-69-65-94 34-7 53-35.5t19-65.5q0-62-42-98.5T564 837zm85-712q16 0 26-9.5T685 91q0-18-17-31-97-72-235-72-122 0-206.5 61T109 213H50q-18 0-29 10.5T10 251q0 15 11 25.5T50 287h43q-3 26-3 52 0 17 2 47H50q-18 0-29 10.5T10 424q0 15 11 25.5T50 460h56q31 108 116 170t211 62q120 0 210-58 23-15 23-37 0-14-10-23t-24-9-41 15q-80 41-157 41-94 0-158-41.5T186 460h321q18 0 29-10.5t11-25.5q0-17-11-27.5T507 386H169q-2-30-2-47 0-27 3-52h337q18 0 29-10.5t11-25.5q0-17-11-27.5T507 213H188q28-74 91-114t154-40q100 0 181 51 24 15 35 15z"/><glyph glyph-name="fourfour.euro" horiz-adv-x="858" d="M281 837q-13 0-23 9t-10 23v75H86q-36 0-36 29 0 11 6 27 60 158 170 266 25 25 43 25 14 0 23.5-9t9.5-23q0-17-18-33-54-49-91.5-98.5T125 1004h123v114q0 16 9.5 25t23.5 9 24-9 10-25v-114h42q15 0 23.5-9t8.5-22q0-12-8.5-20.5T357 944h-42v-75q0-14-10-23t-24-9zm365 0q-13 0-23 9t-10 23v75H451q-36 0-36 29 0 11 6 27 60 158 170 266 25 25 43 25 14 0 23.5-9t9.5-23q0-17-18-33-54-49-91.5-98.5T490 1004h123v114q0 16 9.5 25t23.5 9 24-9 10-25v-114h42q15 0 23.5-9t8.5-22q0-12-8.5-20.5T722 944h-42v-75q0-14-10-23t-24-9zm3-712q16 0 26-9.5T685 91q0-18-17-31-97-72-235-72-122 0-206.5 61T109 213H50q-18 0-29 10.5T10 251q0 15 11 25.5T50 287h43q-3 26-3 52 0 17 2 47H50q-18 0-29 10.5T10 424q0 15 11 25.5T50 460h56q31 108 116 170t211 62q120 0 210-58 23-15 23-37 0-14-10-23t-24-9-41 15q-80 41-157 41-94 0-158-41.5T186 460h321q18 0 29-10.5t11-25.5q0-17-11-27.5T507 386H169q-2-30-2-47 0-27 3-52h337q18 0 29-10.5t11-25.5q0-17-11-27.5T507 213H188q28-74 91-114t154-40q100 0 181 51 24 15 35 15z"/><glyph glyph-name="fourfive.euro" horiz-adv-x="819" d="M281 837q-13 0-23 9t-10 23v75H86q-36 0-36 29 0 11 6 27 60 158 170 266 25 25 43 25 14 0 23.5-9t9.5-23q0-17-18-33-54-49-91.5-98.5T125 1004h123v114q0 16 9.5 25t23.5 9 24-9 10-25v-114h42q15 0 23.5-9t8.5-22q0-12-8.5-20.5T357 944h-42v-75q0-14-10-23t-24-9zm290 0q-63 0-104 28-22 15-22 35 0 11 7.5 18t18.5 7q9 0 34-14 34-18 66-18 36 0 58 24.5t22 63.5q0 36-19 57t-49 21q-26 0-65-23-13-9-27-9-30 0-30 34v187q0 34 36 34h175q15 0 23.5-9t8.5-22q0-12-8.5-20.5T672 1222H526v-123q30 16 66 16 57 0 91.5-35.5T718 983t-40.5-103.5T571 837zm78-712q16 0 26-9.5T685 91q0-18-17-31-97-72-235-72-122 0-206.5 61T109 213H50q-18 0-29 10.5T10 251q0 15 11 25.5T50 287h43q-3 26-3 52 0 17 2 47H50q-18 0-29 10.5T10 424q0 15 11 25.5T50 460h56q31 108 116 170t211 62q120 0 210-58 23-15 23-37 0-14-10-23t-24-9-41 15q-80 41-157 41-94 0-158-41.5T186 460h321q18 0 29-10.5t11-25.5q0-17-11-27.5T507 386H169q-2-30-2-47 0-27 3-52h337q18 0 29-10.5t11-25.5q0-17-11-27.5T507 213H188q28-74 91-114t154-40q100 0 181 51 24 15 35 15z"/><glyph glyph-name="foursix.euro" horiz-adv-x="817" d="M281 837q-13 0-23 9t-10 23v75H86q-36 0-36 29 0 11 6 27 60 158 170 266 25 25 43 25 14 0 23.5-9t9.5-23q0-17-18-33-54-49-91.5-98.5T125 1004h123v114q0 16 9.5 25t23.5 9 24-9 10-25v-114h42q15 0 23.5-9t8.5-22q0-12-8.5-20.5T357 944h-42v-75q0-14-10-23t-24-9zm301 289q61 0 97.5-39T716 982q0-62-41.5-103.5T567 837q-73 0-112.5 52.5T415 1043q0 115 46 180t119 65q60 0 103-30 19-14 19-31 0-26-27-26-9 0-35 14-28 14-58 14-85 0-98-147 41 44 98 44zm-15-230q39 0 61 23.5t22 62.5-20 62-56 23q-41 0-63.5-26T488 982q0-37 21-61.5t58-24.5zm82-771q16 0 26-9.5T685 91q0-18-17-31-97-72-235-72-122 0-206.5 61T109 213H50q-18 0-29 10.5T10 251q0 15 11 25.5T50 287h43q-3 26-3 52 0 17 2 47H50q-18 0-29 10.5T10 424q0 15 11 25.5T50 460h56q31 108 116 170t211 62q120 0 210-58 23-15 23-37 0-14-10-23t-24-9-41 15q-80 41-157 41-94 0-158-41.5T186 460h321q18 0 29-10.5t11-25.5q0-17-11-27.5T507 386H169q-2-30-2-47 0-27 3-52h337q18 0 29-10.5t11-25.5q0-17-11-27.5T507 213H188q28-74 91-114t154-40q100 0 181 51 24 15 35 15z"/></font>
</defs>
</svg>
