<svg><defs><font id="BloomSpeakBody-Heavy" horiz-adv-x="0"><font-face font-family="BloomSpeak Body Heavy" font-weight="900" units-per-em="2000" panose-1="2 15 10 6 2 2 3 2 2 3" ascent="1460" descent="-540" x-height="942" cap-height="1290" bbox="-741 -496 2139 1828" underline-thickness="100" underline-position="-150" unicode-range="U+000D-U+FEFF"/><glyph glyph-name="uniFB00" unicode="ff" horiz-adv-x="1322" d="M249 0q-39 0-64.5 25.5T159 90v678H97q-40 0-65 24T7 855t25 63 65 24h62v64q0 68 10.5 122.5t27.5 92 42.5 65.5 52 44 59 26 60.5 13 60 3q97 0 163-34 55-28 55-84 0-35-22.5-57.5T604 1174q-26 0-66 12t-67 12q-21 0-41.5-8t-42-27-35-59.5T339 1006v-64h496v64q0 68 10.5 122.5t27.5 92 42.5 65.5 52 44 59 26 60.5 13 60 3q97 0 163-34 55-28 55-84 0-35-22.5-57.5T1280 1174q-24 0-60 10-46 14-73 14-21 0-41.5-8t-42-27-35-59.5-13.5-97.5v-64h196q40 0 65-24t25-63-25-63-65-24h-196V90q0-39-25.5-64.5T925 0t-64.5 25.5T835 90v678H339V90q0-39-25.5-64.5T249 0z"/><glyph glyph-name="uniFB03" unicode="ffi" horiz-adv-x="1788" d="M249 0q-39 0-64.5 25.5T159 90v678H97q-40 0-65 24T7 855t25 63 65 24h62v64q0 68 10.5 122.5t27.5 92 42.5 65.5 52 44 59 26 60.5 13 60 3q97 0 163-34 55-28 55-84 0-35-22.5-57.5T604 1174q-21 0-63 11-46 13-70 13-21 0-41.5-8t-42-27-35-59.5T339 1006v-64h496v50q0 91 29.5 161t73.5 110.5 104 66 112 34 105 8.5q95 0 194-24t162-68q38-27 38-68v-68q0-39-25.5-64.5T1563 1054t-64.5 25.5-25.5 64.5v20q-32 13-99.5 23.5T1259 1198q-246 0-246-206v-50h202q39 0 64.5-23.5T1305 856t-25.5-63.5T1215 768h-200V90q0-39-25.5-64.5T925 0t-64.5 25.5T835 90v678H339V90q0-39-25.5-64.5T249 0zm1314 0q-39 0-64.5 25.5T1473 90v762q0 39 25.5 64.5T1563 942t64.5-25.5T1653 852V90q0-39-25.5-64.5T1563 0z"/><glyph glyph-name="f_i" unicode="fi" horiz-adv-x="1102" d="M249 0q-39 0-64.5 25.5T159 90v678H97q-40 0-65 23T7 852q0 39 25.5 64.5T97 942h62v50q0 91 29.5 161t73.5 110.5 104 66 112 34 105 8.5q95 0 196.5-24.5T939 1280q38-28 38-68v-68q0-39-25.5-64.5T887 1054t-64.5 25.5T797 1144v20q-32 13-99.5 23.5T583 1198q-246 0-246-206v-50h202q39 0 64.5-23.5T629 856t-25.5-63.5T539 768H339V90q0-39-25.5-64.5T249 0zm638 0q-39 0-64.5 25.5T797 90v762q0 39 25.5 64.5T887 942t64.5-25.5T977 852V90q0-39-25.5-64.5T887 0z"/><glyph glyph-name="f_j" unicode="fj" horiz-adv-x="1112" d="M249 0q-39 0-64.5 25.5T159 90v678H97q-40 0-65 23T7 852q0 39 25.5 64.5T97 942h62v50q0 91 29.5 161t73.5 110.5 104 66 112 34 105 8.5q95 0 195-24.5t161-67.5q38-28 38-68v-68q0-39-25.5-64.5T887 1054t-64.5 25.5T797 1144v20q-32 13-99.5 23.5T583 1198q-246 0-246-206v-50h202q39 0 64.5-23.5T629 856t-25.5-63.5T539 768H339V90q0-39-25.5-64.5T249 0zm382-390q-82 0-125 23-47 25-47 74 0 37 21.5 62t55.5 25q17 0 47-5t48-5q26 0 52.5 12t53 37T780-94.5 797 16v836q0 39 25.5 64.5T887 942t64.5-25.5T977 852V16q0-92-24-165t-60.5-117-84.5-73-91.5-40-85.5-11z"/><glyph glyph-name="f_l" unicode="fl" horiz-adv-x="1144" d="M249 0q-39 0-64.5 25.5T159 90v678H97q-39 0-64.5 24.5T7 856t25.5 62.5T97 942h62v50q0 96 33 168.5t79.5 111.5 109.5 63 109.5 30.5 92.5 6.5q90 0 192-25t162-67q40-27 40-72V354q0-103 14-139.5t56-36.5q39 0 64.5-24.5T1137 90t-25.5-64.5T1047 0Q902 0 849.5 74T797 354v810q-32 13-99.5 23.5T585 1198q-246 0-246-206v-50h200q39 0 64.5-23.5T629 856t-25.5-63.5T539 768H339V90q0-39-25.5-64.5T249 0z"/><glyph glyph-name=".notdef" horiz-adv-x="1114" d="M75 0v1290h964V0H75zm180 180h604v930H255V180z"/><glyph glyph-name=".null"/><glyph glyph-name="nonmarkingreturn" horiz-adv-x="666"/><glyph glyph-name="NULL" horiz-adv-x="10"/><glyph glyph-name="NULL" horiz-adv-x="10"/><glyph glyph-name="CR" horiz-adv-x="400"/><glyph glyph-name="space" horiz-adv-x="350"/><glyph glyph-name="exclam" unicode="!" horiz-adv-x="508" d="M254 391q-39 0-64.5 25.5T164 481v719q0 39 25.5 64.5T254 1290t64.5-25.5T344 1200V481q0-39-25.5-64.5T254 391zm0-403q-39 0-64.5 25.5T164 78v64q0 39 25.5 64.5T254 232t64.5-25.5T344 142V78q0-39-25.5-64.5T254-12z"/><glyph glyph-name="quotedbl" unicode="&quot;" horiz-adv-x="710" d="M225 794q-39 0-64.5 25.5T135 884v316q0 39 25.5 64.5T225 1290t64.5-25.5T315 1200V884q0-39-25.5-64.5T225 794zm260 0q-39 0-64.5 25.5T395 884v316q0 39 25.5 64.5T485 1290t64.5-25.5T575 1200V884q0-39-25.5-64.5T485 794z"/><glyph glyph-name="numbersign" unicode="#" horiz-adv-x="1176" d="M379 0q-38 0-63 21.5T291 83q0 11 3 31l23 170h-52q-38 0-64 24t-26 62q0 39 25.5 63.5T265 458h76l16 124h-52q-38 0-64 24t-26 62 26 63 64 25h76l30 216q5 32 29 53t59 21q40 0 66.5-20t27.5-57q0-11-1-17l-27-196h92l32 218q5 33 27 52.5t57 19.5q39 0 66-21.5t27-62.5q0-12-1-18l-26-188h72q38 0 64-25t26-63q0-39-24.5-62.5T911 582h-98l-16-124h74q39 0 64.5-24.5T961 370t-25.5-62.5T871 284h-98L742 79q-6-41-27-60T653 0t-65.5 21T563 83q0 12 3 30l25 171h-94L469 74Q458 0 379 0zm142 458h94l16 124h-92z"/><glyph glyph-name="dollar" unicode="$" horiz-adv-x="978" d="M517-118q-40 0-65 27t-25 65v16q-35 3-68 12-81 21-160 66.5T101 166q-6 15-6 28 0 36 26 60t62 24q16 0 26-4 13-5 42-25.5l56.5-38.5 72-33 89.5-15q104 0 166 56t62 146q0 49-31.5 89T584 522.5 473 581t-122 63.5T240 720t-81.5 103.5T127 964q0 131 85.5 219T427 1290v20q0 40 24.5 65t65.5 25q39 0 63.5-25t24.5-65v-22q116-23 186-75 60-46 60-95 0-37-25.5-63.5T765 1028q-36 0-56 18-96 82-200 82-79 0-137.5-47.5T313 964q0-50 31.5-90t81.5-68.5T537 749t122-61.5T770 613t81.5-105T883 364q0-136-74-231.5T605 4v-30q0-38-25-65t-63-27z"/><glyph glyph-name="percent" unicode="%" horiz-adv-x="1594" d="M357 594q-118 0-190 93T95 942q0 159 73 256.5t189 97.5q117 0 190.5-98T621 942q0-162-72-255t-192-93zM408 0q-29 0-50 20.5T337 70q0 27 22 60l782 1128q22 32 61 32 29 0 50-20.5t21-49.5q0-27-22-60L469 32Q447 0 408 0zm-51 718q59 0 93.5 60.5T485 942q0 98-32.5 164t-95.5 66q-56 0-91-63.5T231 942t34.5-163.5T357 718zM1235-6q-118 0-190 93t-72 255q0 159 73 256.5t189 97.5q117 0 190.5-98t73.5-256q0-162-72-255T1235-6zm0 124q59 0 93.5 60.5T1363 342q0 98-32.5 164t-95.5 66q-56 0-91-63.5T1109 342t34.5-163.5T1235 118z"/><glyph glyph-name="ampersand" unicode="&amp;" horiz-adv-x="1468" d="M577-12Q406-12 290.5 99.5T175 376q0 62 18.5 114.5T246 584t70.5 70 84.5 58q-33 42-54 73.5t-41.5 83T285 966q0 139 93.5 231.5T611 1290q134 0 228-93t94-225q0-64-18.5-115.5t-54.5-90-75-65-94-53.5l212-256q40 69 40 124 0 40 23.5 65t64.5 25q39 0 65.5-25.5T1123 516q0-51-25-122.5T1029 252q98-78 172-78 39 0 65.5-20.5T1293 90q0-41-23.5-65.5T1199 0q-23 0-57 5.5T1039.5 40 911 118Q756-12 577-12zm-6 802q44 22 69.5 37t53.5 37.5 40.5 49T747 972q0 65-32.5 104.5T611 1116q-140 0-140-150 0-56 72-142zm6-628q108 0 210 84L521 574q-78-40-119-84.5T361 376q0-95 66-154.5T577 162z"/><glyph glyph-name="quotesingle" unicode="'" horiz-adv-x="450" d="M225 794q-39 0-64.5 25.5T135 884v316q0 39 25.5 64.5T225 1290t64.5-25.5T315 1200V884q0-39-25.5-64.5T225 794z"/><glyph glyph-name="parenleft" unicode="(" horiz-adv-x="838" d="M569-232q-23 0-40 8-18 8-36.5 18.5t-56 40-69 65-69 96.5-63 132.5-43 174T175 522q0 113 17 217.5T234.5 921t62 146.5 68 114T432 1265t54 55 35 28q22 16 50 16 39 0 65.5-26.5T663 1272q0-43-50-84-23-20-30-25.5t-40-40.5-50.5-64-46.5-86.5T401.5 854t-28-147.5T361 522q0-90 11.5-168.5t28-133T443 118t47-75.5T540.5-11t43-35T618-67q43-26 43-77 0-41-26-64.5T569-232z"/><glyph glyph-name="parenright" unicode=")" horiz-adv-x="838" d="M269-232q-40 0-66 23.5T177-144q0 51 43 77 21 12 34.5 21t43 35T348 42.5t47 75.5 42.5 102.5 28 133T477 522q0 97-12.5 184.5t-28 147.5T392 971.5t-46.5 86.5-50.5 64-40 40.5-30 25.5q-50 41-50 84 0 39 26.5 65.5T267 1364q28 0 50-16 17-12 35-28t54-55 67.5-83.5 68-114 62-146.5T646 739.5 663 522q0-117-17.5-219.5t-43-174T539.5-4t-69-96.5-69-65-56-40T309-224q-17-8-40-8z"/><glyph glyph-name="asterisk" unicode="*" horiz-adv-x="679" d="M224 953q-22 0-38 16t-17 39q0 22 12 34l71 94-106 39q-15 5-25.5 19.5T110 1226q0 22 17 39.5t38 17.5q11 0 20-4l97-37v102q0 24 16 40t40 16q25 0 40.5-16t15.5-40v-104l75 31q27 12 45 12 21 0 37.5-17.5T568 1226q0-15-10.5-30t-25.5-21l-107-40 70-94q13-17 13-33 0-22-17-38.5T451 953q-20 0-30.5 8T395 989l-58 81-69-94q-18-23-44-23z"/><glyph glyph-name="plus" unicode="+" horiz-adv-x="1190" d="M595 48q-39 0-64.5 25.5T505 138v256H255q-39 0-64.5 24.5T165 482t25.5 62.5T255 568h250v252q0 39 25.5 64.5T595 910t64.5-25.5T685 820V568h250q39 0 64.5-23.5T1025 482t-25.5-63.5T935 394H685V138q0-39-25.5-64.5T595 48z"/><glyph glyph-name="comma" unicode="," horiz-adv-x="554" d="M215-200q-40 0-65 24t-25 64q0 32 26 64 29 35 38.5 70t9.5 120q0 39 25.5 64.5T289 232t64.5-25.5T379 142v-12q0-26-3-55.5T364.5-2 334-95t-55-79q-26-26-64-26z"/><glyph glyph-name="hyphen" unicode="-" horiz-adv-x="960" d="M265 394q-39 0-64.5 23.5T175 480t25.5 63.5T265 568h430q39 0 64.5-24.5T785 480t-25.5-62.5T695 394H265z"/><glyph glyph-name="period" unicode="." horiz-adv-x="450" d="M225-12q-39 0-64.5 25.5T135 78v64q0 39 25.5 64.5T225 232t64.5-25.5T315 142V78q0-39-25.5-64.5T225-12z"/><glyph glyph-name="slash" unicode="/" horiz-adv-x="810" d="M165-176q-43 0-66.5 26T75-88q0 10 14 48l478 1266q20 54 84 54 39 0 61.5-26.5T735 1196q0-11-10-39L247-120q-9-25-31.5-40.5T165-176z"/><glyph glyph-name="zero" unicode="0" horiz-adv-x="1120" d="M560-12q-219 0-344.5 172T90 638q0 305 126.5 484.5T560 1302q218 0 344-179t126-485-125-478T560-12zm0 174q131 0 207.5 128.5T844 638q0 222-77 356t-207 134q-131 0-207.5-134T276 638q0-220 76-348t208-128z"/><glyph glyph-name="one" unicode="1" horiz-adv-x="636" d="M396 0q-39 0-64.5 25.5T306 90v952l-66-52q-17-14-48-14-39 0-65.5 25.5T100 1064q0 52 40 78l204 134q21 14 52 14 39 0 64.5-25.5T486 1200V90q0-39-26-64.5T396 0z"/><glyph glyph-name="two" unicode="2" horiz-adv-x="950" d="M180 0q-39 0-64.5 24.5T90 88q0 79 60 173.5t145.5 182l171 172L612 784l60 148q0 59-19.5 100t-52 60.5-63 27.5-63.5 8q-97 0-212-74-27-16-48-16-39 0-65.5 26t-26.5 64q0 49 48 80 39 26 71.5 42.5t97 34T474 1302q29 0 57.5-2.5t68-12T673 1263t69.5-43.5 60-66 40-94.5T858 932q0-43-12-86.5t-39.5-89-52.5-82-71-86l-74-78-82-81-75-73.5Q340 244 300 174h470q39 0 64.5-23.5T860 88t-25.5-63.5T770 0H180z"/><glyph glyph-name="three" unicode="3" horiz-adv-x="982" d="M476-12q-75 0-141.5 13.5T225.5 35t-65 33.5T128 92q-38 35-38 74 0 38 28 64t64 26q13 0 24.5-4t18-8 20-15 20.5-16q71-51 211-51 95 0 162.5 60T706 362q0 54-24 95t-64 63.5-84.5 33T442 564h-46q-42 0-66 23.5T306 650t25.5 63.5T396 738h46q59 0 113 19t93.5 65T688 934q0 48-16.5 85t-40 57-55.5 32.5-57 16-49 3.5q-94 0-200-74-23-16-50-16-39 0-64.5 26t-25.5 64q0 39 36 72 35 32 118.5 67t185.5 35q177 0 290.5-95.5T874 934q0-55-16-103t-37-76.5-47.5-51-42-31.5-25.5-12q11-3 27.5-9.5t46.5-29 53-52.5 41-85 18-122q0-155-124.5-264.5T476-12z"/><glyph glyph-name="four" unicode="4" horiz-adv-x="1032" d="M724 0q-39 0-64.5 25.5T634 90v222H142q-45 0-68.5 26.5T50 398q0 21 14 47 215 404 576 821 21 24 66 24 37 0 62.5-25t25.5-59q0-42-30-72-140-142-267.5-312T282 486h352v302q0 39 25.5 64.5T724 878t64.5-25.5T814 788V486h48q39 0 64.5-24.5T952 398t-25.5-62.5T862 312h-48V90q0-39-25.5-64.5T724 0z"/><glyph glyph-name="five" unicode="5" horiz-adv-x="962" d="M440-12Q253-12 124 90q-34 26-34 72 0 36 27.5 64t60.5 28q38 0 62-22 14-12 33.5-24.5t68-29T440 162q46 0 88.5 15.5t78.5 47 57.5 86.5T686 438q0 101-70 169.5T440 676q-97 0-178-54-22-16-54-16-34 0-59 21.5T120 692v512q0 39 25.5 62.5T210 1290h504q39 0 64.5-23.5T804 1204t-25.5-63.5T714 1116H300V826q72 24 140 24 185 0 308.5-117T872 438q0-95-26.5-172.5t-69.5-128-100-85T560 3 440-12z"/><glyph glyph-name="six" unicode="6" horiz-adv-x="1032" d="M528-12q-131 0-226 62T154 231Q90 374 90 586q0 373 113 544.5T560 1302q196 0 302-102 32-31 32-70 0-36-22.5-62t-59.5-26q-33 0-82 34-75 52-170 52-40 0-73.5-8.5t-70-34-63-67.5T307 903.5 279 733v-1q99 126 270 126 86 0 156-27.5t113-71T890 659t40.5-111.5T942 439q0-57-11.5-115t-42-120T813 95 694 18 528-12zm0 174q61 0 107 25.5t71.5 67 37.5 88 12 96.5q0 41-12.5 82T706 599.5t-71 61T528 684t-107.5-23.5-71.5-61-37-78-12-82.5q0-50 12-96.5t37.5-88 71.5-67T528 162z"/><glyph glyph-name="seven" unicode="7" horiz-adv-x="914" d="M326 0q-39 0-64.5 25.5T236 90q0 72 25 162.5t74.5 197 88 180L524 814q125 223 156 302H120q-39 0-64.5 24.5T30 1204t25.5 62.5T120 1290h674q40 0 65-24t25-66q0-109-206-474Q416 262 416 90q0-39-25.5-64.5T326 0z"/><glyph glyph-name="eight" unicode="8" horiz-adv-x="1050" d="M524-12Q330-12 210 92T90 372q0 93 43.5 173T248 682q-124 77-124 254 0 83 28 149t71 105.5 98.5 65.5 105.5 36 97 10q61 0 118.5-13.5t110-42.5 91.5-71 62.5-103.5T930 936q0-145-142-278 83-45 127.5-121.5T960 372q0-184-113.5-284T524-12zm86 740q48 9 91 73t43 135q0 52-22 91.5t-57 60.5-70.5 30.5-70.5 9.5q-33 0-67.5-9.5t-69-30.5-56-60.5T310 936q0-190 300-208zm-86-566q47 0 88.5 10t79.5 32.5 60 65.5 22 102q0 50-24.5 87.5t-67 59.5-83.5 34.5-89 18.5l-90 12q-57-6-100.5-64.5T276 372q0-71 39-120.5t93-69.5 116-20z"/><glyph glyph-name="nine" unicode="9" horiz-adv-x="1032" d="M472-12q-56 0-106.5 10t-82 22.5T224 50t-37.5 25T170 90q-32 30-32 70 0 36 22.5 62t59.5 26q33 0 82-34 75-52 170-52 62 0 109.5 23t76.5 58 49 90 29.5 106T752 558q-99-126-269-126-103 0-182.5 40T177 576.5t-65.5 134T90 851q0 57 12.5 115.5T146 1086t77 108.5 118.5 77.5 162.5 30q243 0 355-205 83-152 83-393 0-373-113-544.5T472-12zm32 618q61 0 107.5 23.5t71.5 61 37 78 12 82.5q0 50-12 96.5t-37.5 88-71.5 67-107 25.5-107-25.5-71.5-67.5-37.5-88.5-12-96.5q0-41 12.5-81.5t37.5-78 71-61T504 606z"/><glyph glyph-name="colon" unicode=":" horiz-adv-x="450" d="M225 710q-39 0-64.5 25.5T135 800v64q0 39 25.5 64.5T225 954t64.5-25.5T315 864v-64q0-39-25.5-64.5T225 710zm0-722q-39 0-64.5 25.5T135 78v64q0 39 25.5 64.5T225 232t64.5-25.5T315 142V78q0-39-25.5-64.5T225-12z"/><glyph glyph-name="uni003B" unicode=";" horiz-adv-x="516" d="M291 710q-39 0-64.5 25.5T201 800v64q0 39 25.5 64.5T291 954t64.5-25.5T381 864v-64q0-39-25.5-64.5T291 710zm-76-936q-39 0-64.5 24.5T125-138q0 38 26 64 30 30 40 71t10 119q0 39 24.5 64.5T289 206t65.5-25.5T381 116v-12q0-37-5-80T346.5-88 279-200q-26-26-64-26z"/><glyph glyph-name="less" unicode="&lt;" horiz-adv-x="1190" d="M935 32q-18 0-42 12L215 400q-30 16-41 31.5T163 478q0 30 13 47t39 31l680 350q24 12 48 12 36 0 60-27t24-65q0-51-54-78L445 478l530-278q22-11 35-33.5t13-48.5q0-37-28.5-61.5T935 32z"/><glyph glyph-name="equal" unicode="=" horiz-adv-x="1190" d="M253 540q-39 0-64.5 23.5T163 626t25.5 63.5T253 714h684q39 0 64.5-23.5T1027 628t-25.5-63.5T937 540H253zm0-278q-39 0-64.5 24.5T163 350t25.5 62.5T253 436h684q39 0 64.5-23.5T1027 350t-25.5-63.5T937 262H253z"/><glyph glyph-name="greater" unicode="&gt;" horiz-adv-x="1190" d="M255 32q-31 0-59.5 24.5T167 118q0 26 13 48.5t35 33.5l530 278-528 270q-54 27-54 78 0 38 24 65t60 27q24 0 48-12l680-350q26-14 39-31t13-47q0-31-11-46.5T975 400L297 44q-24-12-42-12z"/><glyph glyph-name="question" unicode="?" horiz-adv-x="1006" d="M437 391q-39 0-64.5 25.5T347 481q0 112 49 183.5T529 787l49 30q53 33 75.5 61.5T676 956q0 75-53.5 117.5T482 1116q-91 0-190-68-27-18-60-18-38 0-63 26t-25 64 34 66q128 104 304 104 167 0 273.5-87.5T862 956q0-66-18.5-115.5t-48-78.5-65.5-51.5-71.5-42-65-42-48-59T527 481q0-39-25.5-64.5T437 391zm-1-403q-39 0-64.5 25.5T346 78v64q0 39 25.5 64.5T436 232t64.5-25.5T526 142V78q0-39-25.5-64.5T436-12z"/><glyph glyph-name="at" unicode="@" horiz-adv-x="1470" d="M747-12q-176 0-326 86T183 309.5 95 636q0 133 52 254t139.5 208.5 208 139.5 252.5 52q290 0 459-151t169-413q0-98-49.5-191T1187 382t-192-60q-46 0-82 19-37 18-54 51-74-70-182-70-118 0-185 69t-67 185q0 75 27.5 151t75 139 120 102.5T803 1008q49 0 111.5-20.5T1015 938q38-30 38-72 0-4-7-46-5-28-20.5-108t-25-134.5T991 510q0-16 12-16 22 0 58 18 56 27 93 84.5t37 129.5q0 175-120.5 282.5T747 1116q-125 0-233.5-66T342 873.5 279 636q0-125 63-234.5T513.5 227 747 162q136 0 274 96 16 12 44 12 37 0 62.5-27t25.5-65q0-48-44-78Q947-12 747-12zm-70 506q79 0 144 62l46 260q-37 20-64 20-82 0-138-82.5T609 576q0-32 19-57t49-25z"/><glyph glyph-name="A" unicode="A" horiz-adv-x="1118" d="M1079 108q4-12 4-26 0-37-25-59.5T989 0q-33 0-50 14t-28 44q-29 76-104 312H307l-48-161-48-151Q190 0 123 0 80 0 57.5 22T35 82q0 14 4 26 41 147 178.5 554T443 1232q17 32 43 45t73 13q89 0 118-62 73-156 217-570t185-550zm-542 915q-67-169-140-394l-28-85h382l-25 77q-67 205-145 403l-22 54q-8-19-22-55z"/><glyph glyph-name="B" unicode="B" horiz-adv-x="1076" d="M793 682q89-41 138.5-123.5T981 372q0-75-21-135t-52-98-78.5-66-88-41.5-93.5-21-82.5-9T499 0H267q-39 0-65.5 25.5T175 90v1114q0 39 24.5 62.5T263 1290h236q213 0 320.5-89T927 942q0-75-34.5-144.5T793 682zm-300 434H355V740h176q99 0 154.5 46.5T741 928q0 188-248 188zm6-942q32 0 61.5 2t75.5 13.5 78.5 31 56.5 59 24 92.5q0 194-246 194H355V174h144z"/><glyph glyph-name="C" unicode="C" horiz-adv-x="1190" d="M665-12q-161 0-291.5 85T169 308.5 95 644t77.5 336 212 236.5T683 1302q136 0 231.5-33.5T1057 1196q38-31 38-76 0-36-27.5-62t-60.5-26q-30 0-54 18-101 78-270 78-172 0-287-139.5T281 644q0-206 109-344t275-138q135 0 280 80 28 14 48 14 37 0 63.5-28.5T1083 164q0-52-38-72Q843-12 665-12z"/><glyph glyph-name="D" unicode="D" horiz-adv-x="1274" d="M263 0q-39 0-63.5 25.5T175 90v1112q0 39 24.5 63.5T263 1290h340q168 0 299.5-83.5t204-231.5 72.5-335q0-184-72.5-330t-204-228T603 0H263zm92 174h248q178 0 284 129.5T993 640q0 210-106 343t-284 133H355V174z"/><glyph glyph-name="E" unicode="E" horiz-adv-x="1000" d="M263 0q-39 0-63.5 24.5T175 88v1116q0 39 24.5 62.5T263 1290h506q39 0 63.5-23.5T857 1204t-24.5-63.5T769 1116H355V764h382q39 0 63.5-23.5T825 678t-24.5-63.5T737 590H355V174h452q39 0 63.5-23.5T895 88t-24.5-63.5T807 0H263z"/><glyph glyph-name="F" unicode="F" horiz-adv-x="942" d="M263 0q-39 0-63.5 25.5T175 90v1114q0 39 24.5 62.5T263 1290h506q39 0 63.5-23.5T857 1204t-24.5-63.5T769 1116H355V764h382q39 0 63.5-23.5T825 678t-24.5-63.5T737 590H355V90q0-39-26.5-64.5T263 0z"/><glyph glyph-name="G" unicode="G" horiz-adv-x="1236" d="M665-12q-161 0-291.5 84.5T169 307 95 642t77.5 336.5 212 237.5 298.5 86q78 0 146.5-15t105.5-31 90-44q46-24 46-82 0-37-28.5-63.5T979 1040q-19 0-36 10-64 38-121.5 58T683 1128q-113 0-205.5-64.5T333 887.5 281 642q0-206 109-343t275-137q132 0 256 54v254q0 26-7 32t-37 6H729q-39 0-63.5 22.5T641 592t24.5 64.5T729 682h148q141 0 182.5-40.5T1101 464V164q0-24-13.5-48T1053 82Q862-12 665-12z"/><glyph glyph-name="H" unicode="H" horiz-adv-x="1230" d="M265 0q-39 0-64.5 25.5T175 90v1112q0 39 25.5 63.5T265 1290t64.5-24.5T355 1202V764h520v438q0 39 25.5 63.5T965 1290t64.5-24.5 25.5-63.5V90q0-39-25.5-64.5T965 0t-64.5 25.5T875 90v500H355V90q0-39-25.5-64.5T265 0z"/><glyph glyph-name="I" unicode="I" horiz-adv-x="530" d="M265 0q-39 0-64.5 25.5T175 90v1112q0 39 25.5 63.5T265 1290t64.5-24.5T355 1202V90q0-39-25.5-64.5T265 0z"/><glyph glyph-name="J" unicode="J" horiz-adv-x="546" d="M25-298q-82 0-125 23-47 25-47 74 0 36 26 61.5t61 25.5q10 0 40-6 24-4 45-4 26 0 52.5 12t53 37T174-2.5 191 108v1092q0 39 25.5 64.5T281 1290t64.5-25.5T371 1200V108q0-92-24-165t-60.5-117-84.5-73-91.5-40T25-298z"/><glyph glyph-name="K" unicode="K" horiz-adv-x="1150" d="M265 0q-39 0-64.5 25.5T175 90v1112q0 38 26 63t64 25q39 0 64.5-24.5T355 1202V777l480 483q30 30 68 30t62-26 24-62q0-38-26-64L509 684q293-224 530-548 16-22 16-48 0-39-25.5-63.5T965 0q-47 0-74 38-224 304-474 496l-62 48V90q0-39-25.5-64.5T265 0z"/><glyph glyph-name="L" unicode="L" horiz-adv-x="932" d="M265 0q-39 0-64.5 24.5T175 88v1114q0 39 25.5 63.5T265 1290t64.5-24.5T355 1202V174h450q40 0 66-24t26-62q0-39-26.5-63.5T805 0H265z"/><glyph glyph-name="M" unicode="M" horiz-adv-x="1582" d="M219 0q-38 0-60.5 23T136 89q0 13 3 36l120 1089q3 32 27 54t63 22h20q67 0 106-56 80-112 315-864h2q216 700 309 856 38 64 110 64h22q35 0 60.5-21t29.5-55l123-1104q2-20 2-23 0-37-23.5-62T1361 0q-83 0-92 80l-94 896-40-114-96.5-288-96-302.5L893 112q-12-37-39.5-58.5T793 32h-5q-32 0-60 22t-39 58q-1 4-38 129.5L584 466l-71.5 226.5L443 888l-36 88-94-896q-4-36-29-58T219 0z"/><glyph glyph-name="N" unicode="N" horiz-adv-x="1222" d="M265 0q-39 0-64.5 25.5T175 90v1110q0 39 25.5 64.5T265 1290h24q112 0 219-208 30-59 103.5-227T699 658l67.5-148.5L827 378q28-56 40-74v896q0 39 25.5 64.5T957 1290t64.5-25.5 25.5-64.5V90q0-39-25.5-64.5T957 0h-20q-62 0-98 36-65 65-192 312-46 89-134 286L387 922q-24 53-32 64V90q0-39-25.5-64.5T265 0z"/><glyph glyph-name="O" unicode="O" horiz-adv-x="1294" d="M647-12q-154 0-280.5 85.5t-199 236T95 642q0 185 72.5 336.5t199 237.5 280.5 86q158 0 284-85t197-235.5 71-339.5q0-186-71-335.5t-197-234T647-12zm0 174q161 0 263.5 136.5T1013 642q0 210-102.5 348T647 1128q-103 0-187-64.5t-131.5-176T281 642q0-133 47.5-242.5T460 226t187-64z"/><glyph glyph-name="P" unicode="P" horiz-adv-x="976" d="M265 0q-39 0-64.5 25.5T175 90v1110q0 39 25.5 64.5T265 1290h286q166 0 278-103t112-257q0-103-34.5-180.5T814 629t-124-64-139-21H355V90q0-39-25.5-64.5T265 0zm90 718h196q38 0 72.5 11.5t65 35.5 48.5 66.5 18 98.5q0 79-58 132.5T551 1116H355V718z"/><glyph glyph-name="Q" unicode="Q" horiz-adv-x="1292" d="M1011-226Q677-226 549-2 351 36 223 216T95 642q0 185 73 336.5T368 1216t281 86q158 0 285.5-84.5t200-236T1207 642q0-219-98.5-380T846 31q-37-15-67-23 48-60 198-60 29 0 99 10 32 4 47 4 47 0 73.5-25t26.5-65q0-84-128-94-48-4-84-4zM649 162q161 0 266.5 137T1021 642q0 209-105.5 347.5T649 1128q-103 0-187.5-64.5T329 887.5 281 642q0-132 48-242t132.5-174T649 162z"/><glyph glyph-name="R" unicode="R" horiz-adv-x="1092" d="M265 0q-39 0-64.5 25.5T175 90v1110q0 39 25.5 64.5T265 1290h306q169 0 279.5-100.5T961 934q0-112-53.5-194T752 616q35-29 63.5-69.5t56.5-103 42.5-101L958 221q38-108 38-142 0-31-24-55T905 0q-30 0-53.5 18T819 66q-31 104-55.5 172.5t-56 135.5T644 479t-74.5 61.5T477 564H355V90q0-39-25.5-64.5T265 0zm90 738h216q20 0 40.5 2.5T663 755t54.5 32 40.5 60 17 93q0 76-57.5 126T571 1116H355V738z"/><glyph glyph-name="S" unicode="S" horiz-adv-x="976" d="M467-12q-102 0-175 32t-159 96q-38 29-38 78 0 36 26 60t60 24q33 0 62-22 32-26 56.5-42t72-34 95.5-18q104 0 166 56t62 146q0 49-31.5 89.5t-81.5 70T471 582t-122 63-111 75-81.5 103.5T125 964q0 102 55.5 180.5t141.5 118 185 39.5q157 0 306-108 36-27 36-76 0-37-26-62.5t-60-25.5q-33 0-54 18-94 80-202 80-79 0-137.5-47.5T311 964q0-43 24.5-79t64.5-61 91.5-51.5 104.5-50T700.5 665t91.5-73 64.5-98T881 364q0-169-114.5-272.5T467-12z"/><glyph glyph-name="T" unicode="T" horiz-adv-x="952" d="M473 0q-39 0-64.5 25.5T383 90v1026H103q-39 0-63.5 24.5T15 1204t24.5 62.5T103 1290h746q39 0 63.5-23.5T937 1204t-24.5-63.5T849 1116H563V90q0-39-25.5-64.5T473 0z"/><glyph glyph-name="U" unicode="U" horiz-adv-x="1228" d="M613-12q-78 0-143.5 17.5t-110 46-78.5 68-53.5 79.5-32 85-16.5 80-4 68v770q0 39 26.5 63.5T267 1290q38 0 63-24.5t25-63.5V436q0-33 6-66t23.5-71.5 44.5-68 75.5-49T615 162t110 19.5 75 49 44.5 68 23 71.5 5.5 66v766q0 39 25.5 63.5T963 1290t64.5-24.5 25.5-63.5V432q0-33-4-68t-17-80-32.5-85-54-79.5-79-68-110-46T613-12z"/><glyph glyph-name="V" unicode="V" horiz-adv-x="1114" d="M555 0q-40 0-72 16.5T437 60q-76 145-209.5 538T43 1168q-8 27-8 46 0 32 24 54t66 22q72 0 92-70 9-45 144-464 107-331 179-505 5-13 15-35l16 35q60 132 181 507l147 466q21 66 86 66 35 0 64.5-17.5t29.5-62.5q0-19-4-30Q803 332 675 64q-10-20-27-34t-36.5-20T579 2t-24-2z"/><glyph glyph-name="W" unicode="W" horiz-adv-x="1522" d="M429 0q-84 0-118 60-48 84-155 560.5T37 1192q-2 14-2 22 0 34 26 55t64 21q74 0 90-68 1-2 15-74l36-180 47-230 53.5-249L417 277q6-20 8-29l9 30q91 307 225 898 8 37 37.5 59.5T765 1258q42 0 71-23t37-59q140-656 211-894 1-4 3.5-12t3.5-12l6 23q22 85 51.5 212l56 249 50 230.5L1292 1152l15 70q16 68 90 68 38 0 64-21t26-55q0-8-2-22-17-114-122.5-580T1211 64q-37-64-120-64-11 0-24.5 2t-33 8-37 20T969 64q-52 109-198 750-1 5-3.5 16.5T763 848q-2-6-4.5-17.5T755 814Q586 135 541 56 509 0 429 0z"/><glyph glyph-name="X" unicode="X" horiz-adv-x="970" d="M926 140q14-28 14-52 0-38-26-63T850 0q-55 0-88 63-123 235-263 451L203 51Q171 0 123 0 81 0 58 24T35 82q0 28 21 62l335 536-45 72-47.5 76-41.5 65.5-46 70.5-40.5 61-45.5 66.5-43 58.5q-18 23-18 54 0 36 28 61t64 25q49 0 85-50 45-64 256-386l241 393q27 43 79 43 38 0 64-24t26-60q0-26-14-48L605 686q217-332 321-546z"/><glyph glyph-name="Y" unicode="Y" horiz-adv-x="962" d="M481 0q-39 0-64.5 25.5T391 90v414q-10 10-38 50-75 108-183.5 333T41 1176q-6 21-6 30 0 37 25.5 60.5T129 1290q59 0 82-60 20-53 109-244.5T468 696l13-20q4 6 12 20 64 106 150 291t108 243q23 60 82 60 43 0 68.5-23.5T927 1206q0-9-6-30-20-65-128.5-291.5T609 550q-19-27-38-46V90q0-39-25.5-64.5T481 0z"/><glyph glyph-name="Z" unicode="Z" horiz-adv-x="928" d="M125 0Q86 0 60.5 24.5T35 88v22q0 30 20 70 105 203 516 843l60 93H125q-39 0-63.5 24.5T37 1204t24.5 62.5T125 1290h650q39 0 64.5-23.5T865 1204v-22q0-17-2-30.5t-10.5-30-13-24-22-33L793 1029Q539 648 290 232l-35-58h548q39 0 64.5-23.5T893 88t-25.5-63.5T803 0H125z"/><glyph glyph-name="bracketleft" unicode="[" horiz-adv-x="758" d="M265-254q-39 0-64.5 23.5T175-168v1374q0 38 25 61t65 23h230q39 0 63.5-22.5T583 1206t-24.5-64.5T495 1116H357V-80h138q39 0 63.5-24.5T583-168t-24.5-62.5T495-254H265z"/><glyph glyph-name="backslash" unicode="\" horiz-adv-x="830" d="M665-124q-29 0-52.5 15T579-68L81 1270q-6 15-6 28 0 40 28.5 62t67.5 22q25 0 46.5-15t31.5-41L749-8q6-18 6-28 0-37-27.5-62.5T665-124z"/><glyph glyph-name="bracketright" unicode="]" horiz-adv-x="760" d="M265-254q-38 0-64 24t-26 62q0 39 25.5 63.5T265-80h136v1196H265q-39 0-64.5 25.5T175 1206q0 38 25 61t65 23h230q39 0 64.5-23t25.5-61V-168q0-39-25.5-62.5T495-254H265z"/><glyph glyph-name="asciicircum" unicode="^" horiz-adv-x="1030" d="M195 448q-36 0-63 25t-27 61q0 27 8 44l322 662q12 25 30 37.5t52 12.5q56 0 80-50l318-660q10-20 10-46 0-35-26.5-60.5T833 448q-29 0-51.5 14.5T749 498L517 992 277 496q-10-20-33.5-34T195 448z"/><glyph glyph-name="underscore" unicode="_" horiz-adv-x="1014" d="M145-214q-39 0-64.5 23.5T55-128t25.5 63.5T145-40h724q39 0 64.5-24.5T959-128t-25.5-62.5T869-214H145z"/><glyph glyph-name="a" unicode="a" horiz-adv-x="912" d="M419-12q-64 0-123.5 18.5T186 60.5 105.5 157 75 296q0 145 111.5 226T502 603h101v53q0 45-38.5 84.5T451 780q-101 0-196-50-18-10-48-10-37 0-59.5 25.5T125 806q0 45 34 70 40 30 124 54t168 24q85 0 151.5-28T707 852.5t57-95.5 19-101V178q25 0 47-22 27-27 27-68t-24.5-64.5T769 0q-75 0-120 56-116-68-230-68zm0 174q83 0 184 46v225H497q-236 0-236-137 0-63 47.5-98.5T419 162z"/><glyph glyph-name="b" unicode="b" horiz-adv-x="992" d="M483-12q-82 0-181.5 28T159 92q-24 27-24 56v1140q0 39 25.5 63.5T225 1376t64.5-24.5T315 1288V916q76 38 172 38 196 0 313-131.5T917 476q0-218-121-353T483-12zm0 174q81 0 139 48t83.5 117T731 476q0 139-66.5 221.5T487 780q-80 0-172-46V194q79-32 168-32z"/><glyph glyph-name="c" unicode="c" horiz-adv-x="936" d="M509-12q-193 0-313.5 135T75 476q0 202 137 340t335 138q142 0 258-76 17-11 28.5-32.5T845 802q0-38-26.5-64T755 712q-29 0-50 16-70 52-158 52-122 0-204-88t-82-216q0-80 25-149t83-117 140-48q99 0 216 64 21 12 46 12 36 0 63-25.5t27-64.5q0-49-48-76-152-84-304-84z"/><glyph glyph-name="d" unicode="d" horiz-adv-x="986" d="M509-12q-193 0-314.5 134.5T73 474q0 216 117.5 348T503 954q96 0 172-38v372q0 39 25.5 63.5T765 1376t64.5-24.5T855 1288V178q22 0 40-13 36-26 36-75 0-39-25.5-64.5T841 0q-24 0-58 13t-62 43Q605-12 509-12zm0 174q68 0 166 46v526q-101 46-172 46-111 0-177.5-82.5T259 476q0-80 25-149t83.5-117T509 162z"/><glyph glyph-name="e" unicode="e" horiz-adv-x="934" d="M491-12q-185 0-300.5 134T75 470q0 219 115.5 351.5T501 954q80 0 149-27t112.5-69 68-91.5T855 670q0-69-27.5-120t-75-84-123-54-161-30T269 370q21-92 78-150t144-58q26 0 56.5 5.5t59 15 49.5 18l43.5 18.5 25.5 11q24 10 46 10 37 0 62.5-26.5T859 152q0-47-46-76-12-8-51.5-26T642 10 491-12zM263 536q213 4 308.5 37t95.5 97q0 39-44.5 74.5T501 780q-99 0-161-64.5T263 536z"/><glyph glyph-name="f" unicode="f" horiz-adv-x="646" d="M249 0q-39 0-64.5 25.5T159 90v678H97q-40 0-65 24T7 855t25 63 65 24h62v64q0 68 10.5 122.5t27.5 92 42.5 65.5 52 44 59 26 60.5 13 60 3q97 0 163-34 55-28 55-84 0-35-22.5-57.5T604 1174q-25 0-56 9-51 15-77 15-21 0-41.5-8t-42-27-35-59.5T339 1006v-64h196q40 0 65-24t25-63-25-63-65-24H339V90q0-39-25.5-64.5T249 0z"/><glyph glyph-name="g" unicode="g" horiz-adv-x="972" d="M391-388q-142 0-242 50-76 38-76 94 0 35 25 59t61 24q9 0 16.5-1t16.5-4 14-5 16.5-7.5T239-186q67-28 152-28 120 0 193 55.5T657 16v26q-85-54-176-54-190 0-308 133.5T55 474q0 211 119 345.5T489 954q90 0 175-26.5T793 876q15-9 29.5-30.5T837 792V28q0-203-123.5-309.5T391-388zm90 550q69 0 176 48v542q-67 28-168 28-116 0-182-85.5T241 474q0-141 65.5-226.5T481 162z"/><glyph glyph-name="h" unicode="h" horiz-adv-x="992" d="M225 0q-39 0-64.5 25.5T135 90v1196q0 39 25.5 64.5T225 1376t64.5-25.5T315 1286V898q87 56 214 56 169 0 248.5-83T857 612V90q0-39-25.5-64.5T767 0t-64.5 25.5T677 90v494q0 115-40 155.5T489 780q-90 0-174-42V90q0-39-25.5-64.5T225 0z"/><glyph glyph-name="i" unicode="i" horiz-adv-x="450" d="M225 1052q-39 0-64.5 25.5T135 1142v66q0 39 25.5 64.5T225 1298t64.5-25.5T315 1208v-66q0-39-25.5-64.5T225 1052zM225 0q-39 0-64.5 25.5T135 90v762q0 39 25.5 64.5T225 942t64.5-25.5T315 852V90q0-39-25.5-64.5T225 0z"/><glyph glyph-name="j" unicode="j" horiz-adv-x="434" d="M209 1052q-38 0-64 26.5t-26 63.5v68q0 39 25.5 63.5T209 1298t64.5-24.5T299 1210v-68q0-39-25.5-64.5T209 1052zM-47-390q-82 0-125 23-47 25-47 74 0 36 26 61.5t61 25.5q10 0 40-6 24-4 45-4 26 0 52.5 12t53 37T102-94.5 119 16v836q0 39 25.5 64.5T209 942t64.5-25.5T299 852V16q0-92-24-165t-60.5-117-84.5-73-91.5-40-85.5-11z"/><glyph glyph-name="k" unicode="k" horiz-adv-x="864" d="M225 0q-39 0-64.5 25.5T135 90v1196q0 39 25.5 64.5T225 1376t64.5-25.5T315 1286V622l294 294q26 26 66 26 35 0 62.5-28t27.5-62q0-38-28-66L479 530q178-125 356-390 14-20 14-52 0-35-26-61.5T759 0q-44 0-70 38-99 143-198.5 243T327 426h-12V90q0-39-25.5-64.5T225 0z"/><glyph glyph-name="l" unicode="l" horiz-adv-x="492" d="M387 0Q241 0 188 74.5T135 354v932q0 39 25.5 64.5T225 1376t64.5-25.5T315 1286V354q0-114 20-151 16-29 52-29 39 0 64.5-23.5T477 88t-25.5-63.5T387 0z"/><glyph glyph-name="m" unicode="m" horiz-adv-x="1490" d="M225 0q-39 0-64.5 25.5T135 90v764q0 39 22.5 63.5T219 942q55 0 81-50l1-2q88 64 218 64 163 0 240-86 68 44 133 65t147 21q161 0 238.5-83.5T1355 612V90q0-39-26.5-64.5T1263 0t-63.5 25.5T1175 90v494q0 115-38.5 155.5T997 780q-100 0-174-42 12-57 12-126V90q0-39-25.5-64.5T745 0t-64.5 25.5T655 90v494q0 114-38.5 155T485 780q-105 0-170-42V90q0-39-25.5-64.5T225 0z"/><glyph glyph-name="n" unicode="n" horiz-adv-x="992" d="M225 0q-39 0-64.5 25.5T135 90v764q0 39 22.5 63.5T219 942q56 0 82-52 104 64 228 64 169 0 248.5-83T857 612V90q0-39-25.5-64.5T767 0t-64.5 25.5T677 90v494q0 115-40 155.5T489 780q-84 0-174-42V90q0-39-25.5-64.5T225 0z"/><glyph glyph-name="o" unicode="o" horiz-adv-x="980" d="M491-12q-185 0-300.5 134T75 470q0 217 115.5 350.5T491 954q184 0 299-133.5T905 470q0-222-111-352T491-12zm0 174q107 0 167.5 83T719 470q0 141-61.5 225.5T491 780q-106 0-168-84t-62-226q0-138 62.5-223T491 162z"/><glyph glyph-name="p" unicode="p" horiz-adv-x="992" d="M225-428q-39 0-64.5 25.5T135-338V854q0 39 26.5 63.5T227 942q29 0 51-14t23-38q79 64 186 64 191 0 310.5-132T917 476q0-216-118-352T487-12q-70 0-172 34v-360q0-39-25.5-64.5T225-428zm262 590q114 0 179 89.5T731 476q0 139-66 221.5T487 780q-84 0-172-46V208q26-16 74.5-31t97.5-15z"/><glyph glyph-name="q" unicode="q" horiz-adv-x="992" d="M767-428q-39 0-64.5 25.5T677-338V22q-82-34-172-34-195 0-312.5 134.5T75 474q0 216 117.5 348T505 954q106 0 186-64 26 52 81 52 38 0 61.5-25.5T857 854V-338q0-39-25.5-64.5T767-428zM505 162q80 0 172 46v526q-101 46-172 46-111 0-177.5-82.5T261 474t66.5-226.5T505 162z"/><glyph glyph-name="r" unicode="r" horiz-adv-x="708" d="M225 0q-39 0-64.5 25.5T135 90v764q0 39 25.5 63.5T225 942t62.5-24.5T311 854v-22q29 45 82.5 83.5T523 954q113 0 152-48 18-21 18-50 0-38-24.5-64T607 766q-8 0-28 4-48 10-56 10-24 0-47.5-6t-54-27.5-53-56.5-38-100T315 438V90q0-39-25.5-64.5T225 0z"/><glyph glyph-name="s" unicode="s" horiz-adv-x="826" d="M413-12q-88 0-169 25.5T114 76q-39 31-39 76 0 36 25.5 61.5T162 239q23 0 64-22 102-55 187-55 152 0 152 92 0 38-25 66t-65 47-88.5 36.5-97 40T201 496t-65 79.5T111 690q0 88 49.5 149.5t121.5 88T439 954q63 0 126.5-15T670 902q49-26 49-80 0-36-25.5-61.5T632 735q-20 0-50 12-81 33-143 33-65 0-103.5-19T297 690q0-30 25-54t65-41 88.5-35 97-42.5 88.5-56 65-83.5 25-118q0-119-91.5-195.5T413-12z"/><glyph glyph-name="t" unicode="t" horiz-adv-x="716" d="M469-12q-47 0-86 7t-82.5 30-73 62-49 107.5T159 356v412H97q-40 0-65 24T7 855t25 63 65 24h62v174q0 39 25.5 64.5T249 1206t64.5-25.5T339 1116V942h196q40 0 65-24t25-63-25-63-65-24H339V356q0-59 13.5-100.5t36.5-60 44-26 45-7.5q43 0 82 15 4 1 13.5 5.5T588 189t14 4 19 2q34 0 57-25.5t23-61.5q0-50-51-81-64-39-181-39z"/><glyph glyph-name="u" unicode="u" horiz-adv-x="992" d="M463-12q-169 0-248.5 83T135 330v522q0 39 25.5 64.5T225 942t64.5-25.5T315 852V358q0-115 40-155.5T503 162q90 0 174 56v634q0 39 25.5 64.5T767 942t64.5-25.5T857 852V88q0-39-22.5-63.5T773 0q-54 0-81 50l-1 2Q587-12 463-12z"/><glyph glyph-name="v" unicode="v" horiz-adv-x="862" d="M431 0q-41 0-69 16.5T323 56Q245 208 42 764q-19 51-19 52-8 27-8 44 0 35 27 58.5t65 23.5q61 0 84-64 126-360 220-592 14-34 20-42 6 8 20 42 89 220 220 594 22 62 82 62 38 0 66-24.5t28-59.5q0-20-8-42l-21-55Q610 207 539 68q-13-26-40.5-47T431 0z"/><glyph glyph-name="w" unicode="w" horiz-adv-x="1262" d="M357 0q-78 0-110 54-35 61-118 350T21 812q-6 30-6 40 0 40 24 65t66 25q72 0 88-68 87-385 155-583l9-25q2 4 4.5 13t3.5 13q24 74 166 572 10 34 36 56t66 22q80 0 102-76l47-170 62.5-223L901 294q1-4 3.5-11.5T909 272q1 2 3.5 10t3.5 13q29 95 67 238.5l61 235.5 25 103q6 30 29.5 50t60.5 20q42 0 65-25.5t23-66.5q0-8-6-38-25-123-106-410.5T1019 54Q988 0 909 0q-69 0-100 58-20 36-68.5 183T646 552q-2 8-6.5 24t-6.5 24l-15-50Q488 114 457 58 426 0 357 0z"/><glyph glyph-name="x" unicode="x" horiz-adv-x="786" d="M105 0Q68 0 41.5 26.5T15 88q0 31 20 60l247 355Q162 654 42 790q-26 30-26 64 0 37 28.5 62.5T108 942q33 0 67-34 61-61 216-253l186 249q29 38 74 38 37 0 64.5-26.5T743 852q0-31-16-52L505 509q175-232 245-367 15-29 15-54 0-34-27.5-61T675 0q-55 0-85 53-99 167-197 304L177 38Q152 0 105 0z"/><glyph glyph-name="y" unicode="y" horiz-adv-x="834" d="M118-392q-90 0-143 25-58 28-58 80 0 36 25 61.5T2-200q14 0 56-11 28-7 60-7 66 0 118.5 61.5T344 57l-17 32Q194 344 27 824q-7 21-7 36 0 39 26 60.5t63 21.5q31 0 54.5-20t33.5-50q114-347 213-557 6-12 16-34l218 598q10 27 33 45t52 18q39 0 64.5-25t25.5-60q0-15-6-31L525 27q-83-230-177.5-324.5T118-392z"/><glyph glyph-name="z" unicode="z" horiz-adv-x="904" d="M163 0q-39 0-63.5 24.5T75 88q0 30 38 96 52 90 200 284 111 145 250 300H167q-39 0-64.5 23.5T77 854t25.5 63.5T167 942h538q39 0 64.5-23.5T795 854q0-54-33-103T581 524Q371 272 323 199q-12-18-16-25h432q39 0 64.5-23.5T829 88t-25.5-63.5T739 0H163z"/><glyph glyph-name="braceleft" unicode="{" horiz-adv-x="752" d="M515-254q-58 0-108 10t-96.5 33.5-74 70T209-30v420q0 16-5.5 28.5t-8.5 16-17 12.5-15 10q-28 21-28 67 0 38 36 72 14 12 19.5 17.5t12 19T209 662v410q0 110 76.5 170t215.5 60q41 0 72-16 44-23 44-74 0-56-46-76-18-8-40-8-63 0-102.5-16t-39.5-48V662q0-78-40-138 40-64 40-134V-18q0-62 134-62 33 0 58-17 34-24 34-65 0-51-39-75-26-17-61-17z"/><glyph glyph-name="bar" unicode="|" horiz-adv-x="550" d="M275-124q-39 0-64.5 25.5T185-34v1284q0 39 25 64.5t65 25.5q39 0 64.5-25.5T365 1250V-34q0-39-25.5-64.5T275-124z"/><glyph glyph-name="braceright" unicode="}" horiz-adv-x="752" d="M237-254q-35 0-61 17-39 24-39 75 0 41 34 65 25 17 58 17 134 0 134 62v408q0 70 40 134-40 60-40 138v402q0 32-39.5 48T221 1128q-22 0-40 8-46 20-46 76 0 51 44 74 31 16 72 16 139 0 215.5-60t76.5-170V662q0-16 6.5-29.5t12-19T581 596q36-34 36-72 0-46-28-67-4-3-10.5-7t-10.5-7-9.5-8-8.5-10.5-5-14.5-2-20V-30q0-64-27.5-110.5t-74-70T345-244t-108-10z"/><glyph glyph-name="asciitilde" unicode="~" horiz-adv-x="786" d="M505 778q-31 0-126 25-66 17-98 17-20 0-51-23-21-15-41-15-38 0-66 24.5T95 870q0 17 12.5 39.5T145 951q51 39 136 39 15 0 32.5-3t29-5.5 33-9T406 964q64-16 99-16 21 0 51 20 28 18 47 18 34 0 61-24.5t27-59.5q0-59-69-95-55-29-117-29z"/><glyph glyph-name="uni00A0" horiz-adv-x="400"/><glyph glyph-name="exclamdown" unicode="¡" horiz-adv-x="508" d="M254 726q-39 0-64.5 25.5T164 816v64q0 39 25.5 64.5T254 970t64.5-25.5T344 880v-64q0-39-25.5-64.5T254 726zm0-1052q-39 0-64.5 25.5T164-236v814q0 39 25.5 64.5T254 668t64.5-25.5T344 578v-814q0-39-25.5-64.5T254-326z"/><glyph glyph-name="cent" unicode="¢" horiz-adv-x="1254" d="M681-118q-38 0-64 27t-26 65v22Q427 20 331 150.5T235 476q0 170 100 298t256 166v36q0 38 25.5 64t64.5 26 65.5-25.5T773 976v-24l12-3q113-26 180-71 40-27 40-76 0-35-25.5-62.5T917 712q-25 0-89 33-67 35-123 35-121 0-202.5-88T421 476q0-80 25-149t83-117 140-48q104 0 214 64 20 12 46 12 37 0 63.5-26t26.5-64q0-47-44-74-95-58-202-76v-24q0-38-26.5-65T681-118z"/><glyph glyph-name="sterling" unicode="£" horiz-adv-x="1326" d="M388 0q-43 0-64 20.5T303 72q0 13 4 27t9 23.5l14.5 27.5 13.5 27q45 90 45 225 0 43-7 122h-51q-39 0-64.5 23.5T241 610t25.5 63.5T331 698h38q-2 54-2 84 0 250 104 371t282 121q93 0 151-24 71-30 71-86 0-39-21-65.5t-55-26.5q-23 0-60 11-59 19-86 19-100 0-153-82.5T547 782q0-30 2-84h256q39 0 64.5-24.5T895 610t-25.5-62.5T805 524H562q7-80 7-122 0-114-42-228h474q39 0 64.5-23.5T1091 88t-25.5-63.5T1001 0H388z"/><glyph glyph-name="currency" unicode="¤" horiz-adv-x="1148" d="M573 170q-130 0-210 56l-1-1q-39-39-77-39-36 0-64 26t-28 64q0 36 30 66l12 12q-60 106-60 212 0 120 60 210l-25 26q-17 19-17 52t29.5 61.5T285 944q39 0 66-24l18-16q98 56 204 56 126 0 210-56l27 22q22 18 53 18 37 0 64.5-26t27.5-64q0-36-36-72l-6-6q60-102 60-210 0-112-62-208l12-12q32-32 32-70 0-37-27-64.5T863 184t-76 38l-4 4q-99-56-210-56zm0 174q88 0 152 66.5T789 566q0 88-64 154t-152 66q-86 0-150-66t-64-154q0-89 63.5-155.5T573 344z"/><glyph glyph-name="yen" unicode="¥" horiz-adv-x="1364" d="M683 0q-39 0-64.5 25.5T593 90v136H325q-38 0-64 24t-26 62 26 63 64 25h268v100H325q-37 0-63.5 25T235 588t26 62 64 24h152q-66 118-136.5 274T243 1176q-6 18-6 36 0 33 25.5 55.5T331 1290q55 0 82-62 3-8 24-55.5l32.5-73L503 1024l38.5-85 37-76.5L617 787l34-59 32-52q6 9 17 29t13 23q106 184 240 500 21 40 38.5 51t55.5 11q39 0 60.5-26t21.5-52q0-22-6-36-129-307-238-502h124q38 0 64-24t26-62-26.5-63-63.5-25H773V400h236q38 0 64-25t26-63-26-62-64-24H773V90q0-39-25.5-64.5T683 0z"/><glyph glyph-name="brokenbar" unicode="¦" horiz-adv-x="550" d="M275 704q-39 0-64.5 25.5T185 794v456q0 39 25.5 64.5T275 1340t64.5-25.5T365 1250V794q0-39-25.5-64.5T275 704zm0-828q-39 0-64.5 25.5T185-34v436q0 39 25.5 64.5T275 492t64.5-25.5T365 402V-34q0-39-25.5-64.5T275-124z"/><glyph glyph-name="section" unicode="§" horiz-adv-x="1262" d="M621-172q-57 0-112.5 11.5t-96 29-60.5 28T321-86q-16 11-28 32.5T281-10q0 38 25.5 65T369 82q29 0 50-14Q523 2 621 2q65 0 107.5 35t42.5 87q0 27-13 52t-29 42-48.5 37.5-51 30.5-56.5 29l-54 27-59 31-54 31.5-52.5 39-39.5 44-30 55-9 63.5q0 72 42.5 138T447 858q-61 34-95.5 95.5T317 1086q0 67 28.5 119.5t76 83.5 105 47 120.5 16q130 0 254-72 16-10 29-33t13-43q0-42-25.5-65t-66.5-23q-24 0-48 12-3 2-17 9.5l-26 13.5-30 12.5-39 10.5-44 4q-56 0-101-25t-45-67q0-40 39-69.5T697 927l26-13 43.5-22.5L810 868l45.5-29.5L895 805l38-42 27.5-48.5 20.5-60 6-68.5q0-133-150-226 118-86 118-236 0-128-95-212t-239-84zm66 628q43 20 79.5 56t36.5 74q0 56-37 93t-103 67l-44 20q-160-51-160-160 0-6 2.5-12.5t8.5-13 12-12 16-12l18-11.5 21-12 21-11 22-11.5 21-10.5z"/><glyph glyph-name="copyright" unicode="©" horiz-adv-x="1656" d="M827 162q-177 0-327 87T262.5 486 175 814q0 132 51.5 253t139 209T574 1416t253 52q107 0 207-33.5t180-94 140.5-141 93.5-180 33-205.5q0-178-87.5-328t-238-237T827 162zm0 124q141 0 262 71.5t191.5 193T1351 814q0 140-70.5 260.5t-191.5 192-262 71.5q-140 0-260.5-71.5t-191-192T305 814q0-142 70.5-263.5t191-193T827 286zm-4 168q-140 0-231 105t-91 265q0 161 95 267.5T835 1198q133 0 212-60 30-22 30-56 0-24-20-43t-46-19q-21 0-34 8-59 34-100 41-20 3-42 3-87 0-144.5-71.5T633 824q0-104 54-175t136-71q79 0 150 44 13 8 34 8 30 0 49-17.5t19-44.5q0-34-24-52-88-62-228-62z"/><glyph glyph-name="ordfeminine" unicode="ª" horiz-adv-x="1150" d="M545 548q-71 0-132.5 25T308 655t-43 137q0 117 80 171.5t238 54.5h68v44q0 32-23.5 51t-62.5 19q-52 0-122-29-34-15-54-15-37 0-63.5 26t-26.5 62q0 18 8 34 20 43 85.5 70.5T565 1308q69 0 121.5-25t79-57.5T808 1154t19.5-60.5 3.5-31.5V732q27-7 42-33 12-21 12-53 0-41-26.5-64.5T789 558q-44 0-84 34-96-44-160-44zm0 170q73 0 106 30v116h-68q-134 0-134-72 0-36 28.5-55t67.5-19z"/><glyph glyph-name="guillemotleft" unicode="«" horiz-adv-x="902" d="M393 92q-47 0-72 38L127 422q-12 20-12 44 0 33 14 52l192 276q26 38 74 38 39 0 64.5-26t25.5-64q0-26-18-52L309 466l162-234q16-23 16-50 0-37-27.5-63.5T393 92zm300 0q-47 0-72 38L427 422q-12 20-12 44 0 33 14 52l192 276q26 38 74 38 39 0 64.5-26t25.5-64q0-26-18-52L609 466l162-234q16-23 16-50 0-37-27.5-63.5T693 92z"/><glyph glyph-name="logicalnot" unicode="¬" horiz-adv-x="1190" d="M957 152q-38 0-64 25.5T867 242v154H231q-39 0-64.5 24.5T141 484q0 41 25 64.5t65 23.5h726q40 0 65-23.5t25-64.5V242q0-39-25.5-64.5T957 152z"/><glyph glyph-name="uni00AD" unicode="­" horiz-adv-x="960" d="M265 394q-39 0-64.5 23.5T175 480t25.5 63.5T265 568h430q39 0 64.5-24.5T785 480t-25.5-62.5T695 394H265z"/><glyph glyph-name="registered" unicode="®" horiz-adv-x="1656" d="M829 162q-177 0-327.5 87T263 486t-88 328q0 132 52 253t139.5 209 209 140 253.5 52q178 0 328-88.5t237-239 87-326.5q0-178-87-328t-237-237-328-87zm0 124q141 0 262 71.5t191.5 193T1353 814q0 140-70.5 260.5t-191.5 192-262 71.5q-140 0-260.5-71.5t-191-192T307 814q0-142 70.5-263.5t191-193T829 286zM671 460q-29 0-46.5 18.5T607 526v604q0 30 18.5 48t45.5 18h156q99 0 163.5-59t64.5-149q0-43-11.5-77.5t-30.5-55-32.5-31T953 808q71-71 130-264 2-6 2-22 0-27-17.5-44.5T1023 460q-21 0-38 13t-24 35q-38 122-83 192t-87 70h-56V526q0-29-17.5-47.5T671 460zm64 434h92q13 0 25.5 3t30 11.5 28 29T921 988q0 35-26.5 58.5T827 1070h-92V894z"/><glyph glyph-name="degree" unicode="°" horiz-adv-x="916" d="M455 492q-149 0-234.5 96.5T135 858q0 165 87 267.5T455 1228q144 0 235-103.5T781 858q0-173-87.5-269.5T455 492zm0 174q64 0 103 52.5T597 858q0 78-36.5 137T455 1054q-47 0-79-31.5t-44.5-74T319 858q0-87 36.5-139.5T455 666z"/><glyph glyph-name="plusminus" unicode="±" horiz-adv-x="1190" d="M595 224q-39 0-64.5 25.5T505 314v250H255q-39 0-64.5 24.5T165 652t25.5 62.5T255 738h250v258q0 39 25.5 64.5T595 1086t64.5-25.5T685 996V738h250q39 0 64.5-23.5T1025 652t-25.5-63.5T935 564H685V314q0-39-25.5-64.5T595 224zM255 0q-39 0-64.5 24.5T165 88t25.5 62.5T255 174h680q39 0 64.5-23.5T1025 88t-25.5-63.5T935 0H255z"/><glyph glyph-name="uni00B2" unicode="²" horiz-adv-x="788" d="M213 600q-23 0-42.5 17T151 662q0 59 42 117.5T311 912q44 43 68.5 69t46 58 21.5 53q0 44-25 62t-55 18q-50 0-98-32-18-12-40-12-25 0-42.5 19t-17.5 45q0 34 30 54 71 50 168 50 23 0 46.5-3.5t56-16 56-33 40.5-60 17-91.5q0-36-13.5-70T525 950t-52-59.5L407 826q-69-66-96-102h204q29 0 46.5-17t17.5-45q0-29-17.5-45.5T515 600H213z"/><glyph glyph-name="uni00B3" unicode="³" horiz-adv-x="802" d="M369 594q-58 0-107 15t-65.5 25.5T173 652q-18 18-18 48 0 27 19 44.5t43 17.5q21 0 50-20 36-24 102-24 42 0 70 24.5t28 59.5q0 44-34 65t-82 21h-26q-29 0-45.5 16T263 950q0 28 16.5 45t45.5 17h26q42 0 73 20.5t31 59.5q0 33-18 52.5t-35 23.5-35 4q-45 0-94-32-20-12-36-12-24 0-43 17.5t-19 46.5q0 24 28 50 18 17 62.5 35.5T367 1296q98 0 161-48t63-152q0-45-22-87.5T511 952q38-18 65-62.5t27-85.5q0-91-68-150.5T369 594z"/><glyph glyph-name="uni00B5" unicode="µ" horiz-adv-x="992" d="M225-428q-39 0-64.5 25.5T135-338V856q0 39 25.5 63.5T225 944t64.5-24.5T315 856V358q0-113 39-154.5T503 162q38 0 81 15.5t63 27 30 19.5v632q0 39 25.5 63.5T767 944t64.5-24.5T857 856V90q0-39-24.5-64.5T767 0q-36 0-63 27-3 3-9 11-104-50-192-50-129 0-188 50v-376q0-39-25.5-64.5T225-428z"/><glyph glyph-name="paragraph" unicode="¶" horiz-adv-x="1268" d="M681-162q-39 0-64.5 25.5T591-72v612h-72q-55 0-107.5 13T308 595.5 219 669t-61 111-23 150q0 154 110 257t274 103h524q39 0 64.5-24.5t25.5-63.5-25.5-63.5-64.5-24.5h-10V-72q0-39-25.5-64.5T943-162t-64.5 25.5T853-72v1186h-82V-72q0-39-25.5-64.5T681-162z"/><glyph glyph-name="periodcentered" unicode="·" horiz-adv-x="486" d="M243 432q-47 0-77.5 30T135 538q0 48 30.5 79t77.5 31 77.5-31 30.5-79q0-46-30.5-76T243 432z"/><glyph glyph-name="uni00B9" unicode="¹" horiz-adv-x="580" d="M289 600q-29 0-46.5 18T225 666v444l-16-10q-12-8-28-8-24 0-42 17.5t-18 46.5q0 33 30 54l102 68q16 12 38 12 26 0 45-18t19-48V666q0-30-18.5-48T289 600z"/><glyph glyph-name="ordmasculine" unicode="º" horiz-adv-x="1196" d="M599 548q-146 0-240 105t-94 271q0 170 94 277t240 107q145 0 238.5-107T931 924q0-175-89.5-275.5T599 548zm0 174q67 0 107.5 55T747 924q0 95-40.5 152.5T599 1134t-108.5-58.5T449 924q0-89 41.5-145.5T599 722z"/><glyph glyph-name="guillemotright" unicode="»" horiz-adv-x="902" d="M209 92q-39 0-66.5 26.5T115 182q0 27 16 50l162 234-158 224q-18 26-18 52 0 38 25.5 64t64.5 26q48 0 74-38l192-276q14-19 14-52 0-24-12-44L281 130q-25-38-72-38zm300 0q-39 0-66.5 26.5T415 182q0 27 16 50l162 234-158 224q-18 26-18 52 0 38 25.5 64t64.5 26q48 0 74-38l192-276q14-19 14-52 0-24-12-44L581 130q-25-38-72-38z"/><glyph glyph-name="onequarter" unicode="¼" horiz-adv-x="1502" d="M289 600q-29 0-46.5 18T225 666v444l-16-10q-12-8-28-8-24 0-42 17.5t-18 46.5q0 33 30 54l102 68q16 12 38 12 26 0 45-18t19-48V666q0-30-18.5-48T289 600zM282 0q-29 0-50 20.5T211 70q0 27 22 60l782 1128q22 32 61 32 29 0 50-20.5t21-49.5q0-27-22-60L343 32Q321 0 282 0zm963 0q-26 0-45 18.5T1181 66v90H955q-32 0-48 18.5T891 218q0 13 8 30 28 63 68.5 129.5t75 114T1114 583t53 61.5 24 25.5q20 20 50 20 26 0 44-19t18-41q0-30-20-50-145-145-232-300h130v74q0 30 18.5 48t45.5 18 46.5-18 19.5-48v-74h8q32 0 50-16t18-46q0-27-18.5-44.5T1319 156h-8V66q0-29-19.5-47.5T1245 0z"/><glyph glyph-name="onehalf" unicode="½" horiz-adv-x="1566" d="M289 600q-29 0-46.5 18T225 666v444l-16-10q-12-8-28-8-24 0-42 17.5t-18 46.5q0 33 30 54l102 68q16 12 38 12 26 0 45-18t19-48V666q0-30-18.5-48T289 600zM282 0q-29 0-50 20.5T211 70q0 27 22 60l782 1128q22 32 61 32 29 0 50-20.5t21-49.5q0-27-22-60L343 32Q321 0 282 0zm709 0q-23 0-42.5 17T929 62q0 59 42 117.5T1089 312q44 43 68.5 69t46 58 21.5 53q0 44-25 62t-55 18q-50 0-98-32-18-12-40-12-25 0-42.5 19T947 592q0 34 30 54 71 50 168 50 23 0 46.5-3.5t56-16 56-33 40.5-60 17-91.5q0-36-13.5-70t-44.5-72-52-59.5l-66-64.5q-69-66-96-102h204q29 0 46.5-17t17.5-45q0-29-17.5-45.5T1293 0H991z"/><glyph glyph-name="threequarters" unicode="¾" horiz-adv-x="1724" d="M369 594q-58 0-107 15t-65.5 25.5T173 652q-18 18-18 48 0 27 19 44.5t43 17.5q21 0 50-20 36-24 102-24 42 0 70 24.5t28 59.5q0 44-34 65t-82 21h-26q-29 0-45.5 16T263 950q0 28 16.5 45t45.5 17h26q42 0 73 20.5t31 59.5q0 33-18 52.5t-35 23.5-35 4q-45 0-94-32-20-12-36-12-24 0-43 17.5t-19 46.5q0 24 28 50 18 17 62.5 35.5T367 1296q98 0 161-48t63-152q0-45-22-87.5T511 952q38-18 65-62.5t27-85.5q0-91-68-150.5T369 594zM504 0q-29 0-50 20.5T433 70q0 27 22 60l782 1128q22 32 61 32 29 0 50-20.5t21-49.5q0-27-22-60L565 32Q543 0 504 0zm963 0q-26 0-45 18.5T1403 66v90h-226q-32 0-48 18.5t-16 43.5q0 13 8 30 28 63 68.5 129.5t75 114T1336 583t53 61.5 24 25.5q20 20 50 20 26 0 44-19t18-41q0-30-20-50-145-145-232-300h130v74q0 30 18.5 48t45.5 18 46.5-18 19.5-48v-74h8q32 0 50-16t18-46q0-27-18.5-44.5T1541 156h-8V66q0-29-19.5-47.5T1467 0z"/><glyph glyph-name="questiondown" unicode="¿" horiz-adv-x="998" d="M564 726q-39 0-64.5 25.5T474 816v64q0 39 25.5 64.5T564 970t64.5-25.5T654 880v-64q0-39-25.5-64.5T564 726zM516-328q-162 0-271 110T136 60q0 62 18.5 111.5t48.5 82 66 60.5l72 54 66 53.5 48.5 67.5 18.5 89q0 39 25.5 64.5T564 668t64.5-25.5T654 578q0-102-40-169.5T494 277l-39-31q-74-59-95-85-38-46-38-101 0-93 54.5-153.5T516-154q88 0 190 70 27 18 60 18 38 0 63-26t25-64q0-41-34-66-27-20-44.5-31T717-285t-92-32-109-11z"/><glyph glyph-name="Agrave" unicode="À" horiz-adv-x="1118" d="M657 1454q-16 0-32 6l-316 130q-56 24-56 80 0 36 24 60.5t60 24.5q16 0 32-6l316-130q56-24 56-80 0-36-24-60.5t-60-24.5zm422-1346q4-12 4-26 0-37-25-59.5T989 0q-33 0-50 14t-28 44q-29 76-104 312H307l-48-161-48-151Q190 0 123 0 80 0 57.5 22T35 82q0 14 4 26 41 147 178.5 554T443 1232q17 32 43 45t73 13q89 0 118-62 73-156 217-570t185-550zm-542 915q-67-169-140-394l-28-85h382l-25 77q-67 205-145 403l-22 54q-8-19-22-55z"/><glyph glyph-name="Aacute" unicode="Á" horiz-adv-x="1118" d="M459 1454q-36 0-60 24.5t-24 60.5q0 56 56 80l316 130q16 6 32 6 36 0 60-24.5t24-60.5q0-56-56-80l-316-130q-16-6-32-6zm620-1346q4-12 4-26 0-37-25-59.5T989 0q-33 0-50 14t-28 44q-29 76-104 312H307l-48-161-48-151Q190 0 123 0 80 0 57.5 22T35 82q0 14 4 26 41 147 178.5 554T443 1232q17 32 43 45t73 13q89 0 118-62 73-156 217-570t185-550zm-542 915q-67-169-140-394l-28-85h382l-25 77q-67 205-145 403l-22 54q-8-19-22-55z"/><glyph glyph-name="Acircumflex" unicode="Â" horiz-adv-x="1118" d="M325 1454q-39 0-64.5 24t-25.5 60q0 52 46 76l234 126q21 12 44 12 18 0 42-12l238-128q21-11 31.5-33t10.5-43q0-38-26.5-60t-65.5-22q-20 0-44 12l-186 100-192-100q-24-12-42-12zm754-1346q4-12 4-26 0-37-25-59.5T989 0q-33 0-50 14t-28 44q-29 76-104 312H307l-48-161-48-151Q190 0 123 0 80 0 57.5 22T35 82q0 14 4 26 41 147 178.5 554T443 1232q17 32 43 45t73 13q89 0 118-62 73-156 217-570t185-550zm-542 915q-67-169-140-394l-28-85h382l-25 77q-67 205-145 403l-22 54q-8-19-22-55z"/><glyph glyph-name="Atilde" unicode="Ã" horiz-adv-x="1118" d="M669 1454q-19 0-38.5 3t-30.5 6-31 9.5l-29 9.5q-46 14-93 14-17 0-49-18-26-14-45-14-36 0-63 25t-27 61q0 53 60 87 57 33 124 33 42 0 119-25 53-17 103-17 19 0 45 17t51 17q36 0 64-25t28-61q0-57-80-97-50-25-108-25zm410-1346q4-12 4-26 0-37-25-59.5T989 0q-33 0-50 14t-28 44q-29 76-104 312H307l-48-161-48-151Q190 0 123 0 80 0 57.5 22T35 82q0 14 4 26 41 147 178.5 554T443 1232q17 32 43 45t73 13q89 0 118-62 73-156 217-570t185-550zm-542 915q-67-169-140-394l-28-85h382l-25 77q-67 205-145 403l-22 54q-8-19-22-55z"/><glyph glyph-name="Adieresis" unicode="Ä" horiz-adv-x="1118" d="M433 1454q-39 0-64.5 25.5T343 1544v64q0 39 25.5 64.5T433 1698t64.5-25.5T523 1608v-64q0-39-25.5-64.5T433 1454zm252 0q-39 0-64.5 25.5T595 1544v64q0 39 25.5 64.5T685 1698t64.5-25.5T775 1608v-64q0-39-25.5-64.5T685 1454zm394-1346q4-12 4-26 0-37-25-59.5T989 0q-33 0-50 14t-28 44q-29 76-104 312H307l-48-161-48-151Q190 0 123 0 80 0 57.5 22T35 82q0 14 4 26 41 147 178.5 554T443 1232q17 32 43 45t73 13q89 0 118-62 73-156 217-570t185-550zm-542 915q-67-169-140-394l-28-85h382l-25 77q-67 205-145 403l-22 54q-8-19-22-55z"/><glyph glyph-name="Aring" unicode="Å" horiz-adv-x="1118" d="M564 1454q-80 0-135 54t-55 134q0 78 55 132t135 54q79 0 131.5-53.5T748 1642q0-81-52.5-134.5T564 1454zm2 124q24 0 44 20t20 46q0 24-20 43t-44 19q-27 0-46.5-19t-19.5-43q0-27 19.5-46.5T566 1578zm513-1470q4-12 4-26 0-37-25-59.5T989 0q-33 0-50 14t-28 44q-29 76-104 312H307l-48-161-48-151Q190 0 123 0 80 0 57.5 22T35 82q0 14 4 26 41 147 178.5 554T443 1232q17 32 43 45t73 13q89 0 118-62 73-156 217-570t185-550zm-542 915q-67-169-140-394l-28-85h382l-25 77q-67 205-145 403l-22 54q-8-19-22-55z"/><glyph glyph-name="AE" unicode="Æ" horiz-adv-x="1546" d="M1363 174q39 0 63.5-23.5T1451 88t-24.5-63.5T1363 0h-342Q731 0 731 281v89H344L195 48q-10-21-33-34.5T113 0Q73 0 49 25.5T25 86q0 21 8 40 73 176 263 556.5T599 1238q14 22 42.5 37t61.5 15h622q39 0 63.5-23.5t24.5-62.5-24.5-63.5-63.5-24.5H911V764h382q39 0 63.5-23.5T1381 678t-24.5-63.5T1293 590H911V281q0-107 112-107h340zM428 544h303v560q-8 0-12-7-86-132-291-553z"/><glyph glyph-name="Ccedilla" unicode="Ç" horiz-adv-x="1190" d="M673-436q-62 0-95 27-27 21-27 49 0 58 60 58 3 0 27-4t45-4q26 0 48 19.5t22 48.5-14.5 45.5T699-180q-37 0-66-13t-38-13q-56 0-56 50 0 10 4 30L569-4Q360 33 227.5 212.5T95 644q0 185 77.5 336t212 236.5T683 1302q136 0 231.5-33.5T1057 1196q38-31 38-76 0-36-27.5-62t-60.5-26q-30 0-54 18-101 78-270 78-172 0-287-139.5T281 644q0-206 109-344t275-138q134 0 280 80 28 14 48 14 37 0 63.5-28.5T1083 164q0-52-38-72Q840-12 665-12h-9l-17-60q36 12 74 12 72 0 120-50.5T881-242q0-91-61.5-142.5T673-436z"/><glyph glyph-name="Egrave" unicode="È" horiz-adv-x="1000" d="M649 1454q-16 0-32 6l-316 130q-56 24-56 80 0 36 24 60.5t60 24.5q16 0 32-6l316-130q56-24 56-80 0-36-24-60.5t-60-24.5zM263 0q-39 0-63.5 24.5T175 88v1116q0 39 24.5 62.5T263 1290h506q39 0 63.5-23.5T857 1204t-24.5-63.5T769 1116H355V764h382q39 0 63.5-23.5T825 678t-24.5-63.5T737 590H355V174h452q39 0 63.5-23.5T895 88t-24.5-63.5T807 0H263z"/><glyph glyph-name="Eacute" unicode="É" horiz-adv-x="1000" d="M369 1454q-36 0-60 24.5t-24 60.5q0 56 56 80l316 130q16 6 32 6 36 0 60-24.5t24-60.5q0-56-56-80l-316-130q-16-6-32-6zM263 0q-39 0-63.5 24.5T175 88v1116q0 39 24.5 62.5T263 1290h506q39 0 63.5-23.5T857 1204t-24.5-63.5T769 1116H355V764h382q39 0 63.5-23.5T825 678t-24.5-63.5T737 590H355V174h452q39 0 63.5-23.5T895 88t-24.5-63.5T807 0H263z"/><glyph glyph-name="Ecircumflex" unicode="Ê" horiz-adv-x="1000" d="M271 1454q-39 0-64.5 24t-25.5 60q0 52 46 76l234 126q21 12 44 12 18 0 42-12l238-128q21-11 31.5-33t10.5-43q0-38-26.5-60t-65.5-22q-20 0-44 12l-186 100-192-100q-24-12-42-12zM263 0q-39 0-63.5 24.5T175 88v1116q0 39 24.5 62.5T263 1290h506q39 0 63.5-23.5T857 1204t-24.5-63.5T769 1116H355V764h382q39 0 63.5-23.5T825 678t-24.5-63.5T737 590H355V174h452q39 0 63.5-23.5T895 88t-24.5-63.5T807 0H263z"/><glyph glyph-name="Edieresis" unicode="Ë" horiz-adv-x="1000" d="M389 1454q-39 0-64.5 25.5T299 1544v64q0 39 25.5 64.5T389 1698t64.5-25.5T479 1608v-64q0-39-25.5-64.5T389 1454zm252 0q-39 0-64.5 25.5T551 1544v64q0 39 25.5 64.5T641 1698t64.5-25.5T731 1608v-64q0-39-25.5-64.5T641 1454zM263 0q-39 0-63.5 24.5T175 88v1116q0 39 24.5 62.5T263 1290h506q39 0 63.5-23.5T857 1204t-24.5-63.5T769 1116H355V764h382q39 0 63.5-23.5T825 678t-24.5-63.5T737 590H355V174h452q39 0 63.5-23.5T895 88t-24.5-63.5T807 0H263z"/><glyph glyph-name="Igrave" unicode="Ì" horiz-adv-x="530" d="M363 1454q-16 0-32 6L15 1590q-56 24-56 80 0 36 24 60.5t60 24.5q16 0 32-6l316-130q56-24 56-80 0-36-24-60.5t-60-24.5zM265 0q-39 0-64.5 25.5T175 90v1112q0 39 25.5 63.5T265 1290t64.5-24.5T355 1202V90q0-39-25.5-64.5T265 0z"/><glyph glyph-name="Iacute" unicode="Í" horiz-adv-x="530" d="M159 1454q-36 0-60 24.5T75 1539q0 56 56 80l316 130q16 6 32 6 36 0 60-24.5t24-60.5q0-56-56-80l-316-130q-16-6-32-6zM265 0q-39 0-64.5 25.5T175 90v1112q0 39 25.5 63.5T265 1290t64.5-24.5T355 1202V90q0-39-25.5-64.5T265 0z"/><glyph glyph-name="Icircumflex" unicode="Î" horiz-adv-x="530" d="M31 1454q-39 0-64.5 24t-25.5 60q0 52 46 76l234 126q21 12 44 12 18 0 42-12l238-128q21-11 31.5-33t10.5-43q0-38-26.5-60t-65.5-22q-20 0-44 12l-186 100-192-100q-24-12-42-12zM265 0q-39 0-64.5 25.5T175 90v1112q0 39 25.5 63.5T265 1290t64.5-24.5T355 1202V90q0-39-25.5-64.5T265 0z"/><glyph glyph-name="Idieresis" unicode="Ï" horiz-adv-x="530" d="M141 1454q-39 0-64.5 25.5T51 1544v64q0 39 25.5 64.5T141 1698t64.5-25.5T231 1608v-64q0-39-25.5-64.5T141 1454zm252 0q-39 0-64.5 25.5T303 1544v64q0 39 25.5 64.5T393 1698t64.5-25.5T483 1608v-64q0-39-25.5-64.5T393 1454zM265 0q-39 0-64.5 25.5T175 90v1112q0 39 25.5 63.5T265 1290t64.5-24.5T355 1202V90q0-39-25.5-64.5T265 0z"/><glyph glyph-name="Eth" unicode="Ð" horiz-adv-x="1324" d="M313 0q-39 0-63.5 25.5T225 90v492h-74q-39 0-64.5 24.5T61 670t25.5 62.5T151 756h74v444q0 39 24.5 64.5T313 1290h338q254 0 416-183t162-467q0-184-72-330T952.5 82 651 0H313zm92 174h246q178 0 285 130t107 336q0 209-108.5 342.5T651 1116H405V756h276q39 0 64.5-23.5T771 670t-25.5-63.5T681 582H405V174z"/><glyph glyph-name="Ntilde" unicode="Ñ" horiz-adv-x="1222" d="M731 1454q-19 0-38.5 3t-30.5 6-31 9.5l-29 9.5q-46 14-93 14-17 0-49-18-26-14-45-14-36 0-63 25t-27 61q0 53 60 87 57 33 124 33 42 0 119-25 53-17 103-17 19 0 45 17t51 17q36 0 64-25t28-61q0-57-80-97-50-25-108-25zM265 0q-39 0-64.5 25.5T175 90v1110q0 39 25.5 64.5T265 1290h24q112 0 219-208 30-59 103.5-227T699 658l67.5-148.5L827 378q28-56 40-74v896q0 39 25.5 64.5T957 1290t64.5-25.5 25.5-64.5V90q0-39-25.5-64.5T957 0h-20q-62 0-98 36-65 65-192 312-46 89-134 286L387 922q-24 53-32 64V90q0-39-25.5-64.5T265 0z"/><glyph glyph-name="Ograve" unicode="Ò" horiz-adv-x="1294" d="M741 1454q-16 0-32 6l-316 130q-56 24-56 80 0 36 24 60.5t60 24.5q16 0 32-6l316-130q56-24 56-80 0-36-24-60.5t-60-24.5zM647-12q-154 0-280.5 85.5t-199 236T95 642q0 185 72.5 336.5t199 237.5 280.5 86q158 0 284-85t197-235.5 71-339.5q0-186-71-335.5t-197-234T647-12zm0 174q161 0 263.5 136.5T1013 642q0 210-102.5 348T647 1128q-103 0-187-64.5t-131.5-176T281 642q0-133 47.5-242.5T460 226t187-64z"/><glyph glyph-name="Oacute" unicode="Ó" horiz-adv-x="1294" d="M547 1454q-36 0-60 24.5t-24 60.5q0 56 56 80l316 130q16 6 32 6 36 0 60-24.5t24-60.5q0-56-56-80l-316-130q-16-6-32-6zM647-12q-154 0-280.5 85.5t-199 236T95 642q0 185 72.5 336.5t199 237.5 280.5 86q158 0 284-85t197-235.5 71-339.5q0-186-71-335.5t-197-234T647-12zm0 174q161 0 263.5 136.5T1013 642q0 210-102.5 348T647 1128q-103 0-187-64.5t-131.5-176T281 642q0-133 47.5-242.5T460 226t187-64z"/><glyph glyph-name="Ocircumflex" unicode="Ô" horiz-adv-x="1294" d="M417 1454q-39 0-64.5 24t-25.5 60q0 52 46 76l234 126q21 12 44 12 18 0 42-12l238-128q21-11 31.5-33t10.5-43q0-38-26.5-60t-65.5-22q-20 0-44 12l-186 100-192-100q-24-12-42-12zM647-12q-154 0-280.5 85.5t-199 236T95 642q0 185 72.5 336.5t199 237.5 280.5 86q158 0 284-85t197-235.5 71-339.5q0-186-71-335.5t-197-234T647-12zm0 174q161 0 263.5 136.5T1013 642q0 210-102.5 348T647 1128q-103 0-187-64.5t-131.5-176T281 642q0-133 47.5-242.5T460 226t187-64z"/><glyph glyph-name="Otilde" unicode="Õ" horiz-adv-x="1294" d="M759 1454q-19 0-38.5 3t-30.5 6-31 9.5l-29 9.5q-45 14-93 14-17 0-49-18-26-14-45-14-36 0-63 25t-27 61q0 53 60 87 57 33 124 33 42 0 119-25 53-17 103-17 19 0 45 17t51 17q36 0 64-25t28-61q0-57-80-97-50-25-108-25zM647-12q-154 0-280.5 85.5t-199 236T95 642q0 185 72.5 336.5t199 237.5 280.5 86q158 0 284-85t197-235.5 71-339.5q0-186-71-335.5t-197-234T647-12zm0 174q161 0 263.5 136.5T1013 642q0 210-102.5 348T647 1128q-103 0-187-64.5t-131.5-176T281 642q0-133 47.5-242.5T460 226t187-64z"/><glyph glyph-name="Odieresis" unicode="Ö" horiz-adv-x="1294" d="M523 1454q-39 0-64.5 25.5T433 1544v64q0 39 25.5 64.5T523 1698t64.5-25.5T613 1608v-64q0-39-25.5-64.5T523 1454zm252 0q-39 0-64.5 25.5T685 1544v64q0 39 25.5 64.5T775 1698t64.5-25.5T865 1608v-64q0-39-25.5-64.5T775 1454zM647-12q-154 0-280.5 85.5t-199 236T95 642q0 185 72.5 336.5t199 237.5 280.5 86q158 0 284-85t197-235.5 71-339.5q0-186-71-335.5t-197-234T647-12zm0 174q161 0 263.5 136.5T1013 642q0 210-102.5 348T647 1128q-103 0-187-64.5t-131.5-176T281 642q0-133 47.5-242.5T460 226t187-64z"/><glyph glyph-name="multiply" unicode="×" horiz-adv-x="1190" d="M275 76q-37 0-63.5 27T185 168q0 36 26 62l254 254-256 254q-24 24-24 64 0 34 28.5 62t63.5 28q38 0 66-28l250-250 250 250q28 28 68 28 37 0 63.5-27.5T1001 802q0-40-22-62L721 484l250-250q32-32 32-70 0-32-29-60t-63-28q-38 0-66 28L593 356 339 104q-28-28-64-28z"/><glyph glyph-name="Oslash" unicode="Ø" horiz-adv-x="1304" d="M1045 1114q164-173 164-470 0-185-72.5-335.5T936.5 73 651-12q-136 0-258 74l-12-20Q356 0 303 0q-35 0-63.5 28T211 92q0 26 14 48l28 44Q95 378 95 644q0 185 73.5 336t201 236.5T651 1302q134 0 258-74l14 24q23 40 74 40 38 0 66-23t28-63q0-28-14-48zM281 644q0-166 76-296l458 728q-30 22-76 37t-88 15q-157 0-263.5-140T281 644zm369-482q163 0 268 137.5T1023 644q0 177-78 302L487 214q76-52 163-52z"/><glyph glyph-name="Ugrave" unicode="Ù" horiz-adv-x="1228" d="M707 1454q-16 0-32 6l-316 130q-56 24-56 80 0 36 24 60.5t60 24.5q16 0 32-6l316-130q56-24 56-80 0-36-24-60.5t-60-24.5zM613-12q-78 0-143.5 17.5t-110 46-78.5 68-53.5 79.5-32 85-16.5 80-4 68v770q0 39 26.5 63.5T267 1290q38 0 63-24.5t25-63.5V436q0-33 6-66t23.5-71.5 44.5-68 75.5-49T615 162t110 19.5 75 49 44.5 68 23 71.5 5.5 66v766q0 39 25.5 63.5T963 1290t64.5-24.5 25.5-63.5V432q0-33-4-68t-17-80-32.5-85-54-79.5-79-68-110-46T613-12z"/><glyph glyph-name="Uacute" unicode="Ú" horiz-adv-x="1228" d="M507 1454q-36 0-60 24.5t-24 60.5q0 56 56 80l316 130q16 6 32 6 36 0 60-24.5t24-60.5q0-56-56-80l-316-130q-16-6-32-6zM613-12q-78 0-143.5 17.5t-110 46-78.5 68-53.5 79.5-32 85-16.5 80-4 68v770q0 39 26.5 63.5T267 1290q38 0 63-24.5t25-63.5V436q0-33 6-66t23.5-71.5 44.5-68 75.5-49T615 162t110 19.5 75 49 44.5 68 23 71.5 5.5 66v766q0 39 25.5 63.5T963 1290t64.5-24.5 25.5-63.5V432q0-33-4-68t-17-80-32.5-85-54-79.5-79-68-110-46T613-12z"/><glyph glyph-name="Ucircumflex" unicode="Û" horiz-adv-x="1228" d="M385 1454q-39 0-64.5 24t-25.5 60q0 52 46 76l234 126q21 12 44 12 18 0 42-12l238-128q21-11 31.5-33t10.5-43q0-38-26.5-60t-65.5-22q-20 0-44 12l-186 100-192-100q-24-12-42-12zM613-12q-78 0-143.5 17.5t-110 46-78.5 68-53.5 79.5-32 85-16.5 80-4 68v770q0 39 26.5 63.5T267 1290q38 0 63-24.5t25-63.5V436q0-33 6-66t23.5-71.5 44.5-68 75.5-49T615 162t110 19.5 75 49 44.5 68 23 71.5 5.5 66v766q0 39 25.5 63.5T963 1290t64.5-24.5 25.5-63.5V432q0-33-4-68t-17-80-32.5-85-54-79.5-79-68-110-46T613-12z"/><glyph glyph-name="Udieresis" unicode="Ü" horiz-adv-x="1228" d="M483 1454q-39 0-64.5 25.5T393 1544v64q0 39 25.5 64.5T483 1698t64.5-25.5T573 1608v-64q0-39-25.5-64.5T483 1454zm252 0q-39 0-64.5 25.5T645 1544v64q0 39 25.5 64.5T735 1698t64.5-25.5T825 1608v-64q0-39-25.5-64.5T735 1454zM613-12q-78 0-143.5 17.5t-110 46-78.5 68-53.5 79.5-32 85-16.5 80-4 68v770q0 39 26.5 63.5T267 1290q38 0 63-24.5t25-63.5V436q0-33 6-66t23.5-71.5 44.5-68 75.5-49T615 162t110 19.5 75 49 44.5 68 23 71.5 5.5 66v766q0 39 25.5 63.5T963 1290t64.5-24.5 25.5-63.5V432q0-33-4-68t-17-80-32.5-85-54-79.5-79-68-110-46T613-12z"/><glyph glyph-name="Yacute" unicode="Ý" horiz-adv-x="962" d="M329 1454q-36 0-60 24.5t-24 60.5q0 56 56 80l316 130q16 6 32 6 36 0 60-24.5t24-60.5q0-56-56-80l-316-130q-16-6-32-6zM481 0q-39 0-64.5 25.5T391 90v414q-10 10-38 50-75 108-183.5 333T41 1176q-6 21-6 30 0 37 25.5 60.5T129 1290q59 0 82-60 20-53 109-244.5T468 696l13-20q4 6 12 20 64 106 150 291t108 243q23 60 82 60 43 0 68.5-23.5T927 1206q0-9-6-30-20-65-128.5-291.5T609 550q-19-27-38-46V90q0-39-25.5-64.5T481 0z"/><glyph glyph-name="Thorn" unicode="Þ" horiz-adv-x="1024" d="M265 0q-39 0-64.5 25.5T175 90v1110q0 39 25.5 64.5T265 1290t64.5-25.5T355 1200v-140h170q183 0 303.5-112.5T949 660q0-171-120.5-281.5T525 268H355V90q0-39-25.5-64.5T265 0zm90 442h170q105 0 171.5 61.5T763 660q0 98-67.5 162T525 886H355V442z"/><glyph glyph-name="germandbls" unicode="ß" horiz-adv-x="992" d="M551-30q-41 0-70 6-92 21-92 94 0 33 20.5 61.5T467 160q17 0 32-4 30-8 52-8 87 0 138.5 38T741 288q0 55-30 98t-72.5 72.5l-85 58.5-72.5 69-30 90q0 40 20 77.5t48 66.5l56 58 48 64.5 20 73.5q0 81-51.5 120.5T471 1176q-63 0-109.5-51.5T315 966V90q0-39-25.5-64.5T225 0t-64.5 25.5T135 90v876q0 82 20.5 149t54 110 78 72.5 90 42T471 1352q68 0 130.5-20t114-59.5 82.5-106 31-150.5q0-54-20.5-106.5t-50-91-59-69-50-49.5-20.5-24q0-4 30.5-22.5T734 604t88-73 74.5-106.5T927 288q0-149-101.5-233.5T551-30z"/><glyph glyph-name="agrave" unicode="à" horiz-adv-x="986" d="M725 1094q-16 0-32 6l-316 130q-56 24-56 80 0 36 24 60.5t60 24.5q16 0 32-6l316-130q56-24 56-80 0-36-24-60.5t-60-24.5zM419-12q-64 0-123.5 18.5T186 60.5 105.5 157 75 296q0 145 111.5 226T502 603h101v53q0 45-38.5 84.5T451 780q-101 0-196-50-18-10-48-10-37 0-59.5 25.5T125 806q0 45 34 70 40 30 124 54t168 24q85 0 151.5-28T707 852.5t57-95.5 19-101V178q25 0 47-22 27-27 27-68t-24.5-64.5T769 0q-75 0-120 56-116-68-230-68zm0 174q83 0 184 46v225H497q-236 0-236-137 0-63 47.5-98.5T419 162z"/><glyph glyph-name="aacute" unicode="á" horiz-adv-x="986" d="M405 1094q-36 0-60 24.5t-24 60.5q0 56 56 80l316 130q16 6 32 6 36 0 60-24.5t24-60.5q0-56-56-80l-316-130q-16-6-32-6zM419-12q-64 0-123.5 18.5T186 60.5 105.5 157 75 296q0 145 111.5 226T502 603h101v53q0 45-38.5 84.5T451 780q-101 0-196-50-18-10-48-10-37 0-59.5 25.5T125 806q0 45 34 70 40 30 124 54t168 24q85 0 151.5-28T707 852.5t57-95.5 19-101V178q25 0 47-22 27-27 27-68t-24.5-64.5T769 0q-75 0-120 56-116-68-230-68zm0 174q83 0 184 46v225H497q-236 0-236-137 0-63 47.5-98.5T419 162z"/><glyph glyph-name="acircumflex" unicode="â" horiz-adv-x="986" d="M291 1094q-39 0-64.5 24t-25.5 60q0 52 46 76l234 126q21 12 44 12 18 0 42-12l238-128q21-11 31.5-33t10.5-43q0-38-26.5-60t-65.5-22q-20 0-44 12l-186 100-192-100q-24-12-42-12zM419-12q-64 0-123.5 18.5T186 60.5 105.5 157 75 296q0 145 111.5 226T502 603h101v53q0 45-38.5 84.5T451 780q-101 0-196-50-18-10-48-10-37 0-59.5 25.5T125 806q0 45 34 70 40 30 124 54t168 24q85 0 151.5-28T707 852.5t57-95.5 19-101V178q25 0 47-22 27-27 27-68t-24.5-64.5T769 0q-75 0-120 56-116-68-230-68zm0 174q83 0 184 46v225H497q-236 0-236-137 0-63 47.5-98.5T419 162z"/><glyph glyph-name="atilde" unicode="ã" horiz-adv-x="986" d="M645 1094q-15 0-28 1.5t-27.5 4.5-21.5 5-24.5 8-21.5 7q-48 16-99 16-16 0-48-17-26-15-46-15-37 0-63.5 19.5T239 1178q0 58 56 95 55 37 128 37 43 0 120-25 53-17 102-17 17 0 45 18 26 16 51 16 36 0 64-25t28-61q0-68-85-104-41-18-103-18zM419-12q-64 0-123.5 18.5T186 60.5 105.5 157 75 296q0 145 111.5 226T502 603h101v53q0 45-38.5 84.5T451 780q-101 0-196-50-18-10-48-10-37 0-59.5 25.5T125 806q0 45 34 70 40 30 124 54t168 24q85 0 151.5-28T707 852.5t57-95.5 19-101V178q25 0 47-22 27-27 27-68t-24.5-64.5T769 0q-75 0-120 56-116-68-230-68zm0 174q83 0 184 46v225H497q-236 0-236-137 0-63 47.5-98.5T419 162z"/><glyph glyph-name="adieresis" unicode="ä" horiz-adv-x="986" d="M421 1054q-39 0-64.5 24.5T331 1142v68q0 39 25.5 63.5T421 1298t64.5-24.5T511 1210v-68q0-39-25.5-63.5T421 1054zm252 0q-39 0-64.5 24.5T583 1142v68q0 39 25.5 63.5T673 1298t64.5-24.5T763 1210v-68q0-39-25.5-63.5T673 1054zM419-12q-64 0-123.5 18.5T186 60.5 105.5 157 75 296q0 145 111.5 226T502 603h101v53q0 45-38.5 84.5T451 780q-101 0-196-50-18-10-48-10-37 0-59.5 25.5T125 806q0 45 34 70 40 30 124 54t168 24q85 0 151.5-28T707 852.5t57-95.5 19-101V178q25 0 47-22 27-27 27-68t-24.5-64.5T769 0q-75 0-120 56-116-68-230-68zm0 174q83 0 184 46v225H497q-236 0-236-137 0-63 47.5-98.5T419 162z"/><glyph glyph-name="aring" unicode="å" horiz-adv-x="986" d="M553 1094q-80 0-135 54t-55 134q0 78 55 132t135 54q79 0 131.5-53.5T737 1282q0-81-52.5-134.5T553 1094zm2 124q25 0 44.5 20t19.5 46q0 24-20 43t-44 19q-27 0-46.5-19t-19.5-43q0-27 19.5-46.5T555 1218zM419-12q-64 0-123.5 18.5T186 60.5 105.5 157 75 296q0 145 111.5 226T502 603h101v53q0 45-38.5 84.5T451 780q-101 0-196-50-18-10-48-10-37 0-59.5 25.5T125 806q0 45 34 70 40 30 124 54t168 24q85 0 151.5-28T707 852.5t57-95.5 19-101V178q25 0 47-22 27-27 27-68t-24.5-64.5T769 0q-75 0-120 56-116-68-230-68zm0 174q83 0 184 46v225H497q-236 0-236-137 0-63 47.5-98.5T419 162z"/><glyph glyph-name="ae" unicode="æ" horiz-adv-x="1404" d="M421-12q-64 0-124 18.5t-111 54-82 95T73 290q0 146 103.5 219T477 582h122v72q0 59-43.5 92.5T449 780q-99 0-204-54-12-6-36-6-39 0-63.5 25.5T121 806q0 45 38 70 44 30 125 54t165 24q60 0 110-14.5t80-36.5 46.5-39.5T709 832q11 15 29.5 31t52.5 39 86 37.5T989 954q80 0 147-26.5t108.5-69 64-91.5 22.5-97q0-57-16-99.5t-51.5-70.5-78.5-45.5-111-26.5-133.5-12-161.5-4V246q57-84 188-84 87 0 180 60 24 16 58 16 36 0 63-25t27-61q0-51-40-76-139-88-288-88-67 0-122 12.5t-89 32T704 68t-29 32Q568-12 421-12zm358 594q201 0 283.5 19t82.5 69q0 40-40 75t-116 35q-69 0-124.5-39T779 634v-52zM421 162q42 0 90.5 23.5T599 246v166H477q-218 0-218-122 0-58 50-93t112-35z"/><glyph glyph-name="ccedilla" unicode="ç" horiz-adv-x="936" d="M537-436q-54 0-88 21.5T415-360q0 58 60 58 3 0 27-4t45-4q26 0 48 19.5t22 48.5-14.5 45.5T563-180q-37 0-66-13t-38-13q-56 0-56 50 0 10 4 30L433-5Q271 21 173 151T75 476q0 202 137 340t335 138q142 0 258-76 17-11 28.5-32.5T845 802q0-38-26.5-64T755 712q-29 0-50 16-70 52-158 52-122 0-204-88t-82-216q0-80 25-149t83-117 140-48q99 0 216 64 21 12 46 12 36 0 63-25.5t27-64.5q0-49-48-76-67-37-147-60.5T521-12h-2l-16-60q36 12 74 12 72 0 120-50.5T745-242q0-91-61.5-142.5T537-436z"/><glyph glyph-name="egrave" unicode="è" horiz-adv-x="934" d="M693 1094q-16 0-32 6l-316 130q-56 24-56 80 0 36 24 60.5t60 24.5q16 0 32-6l316-130q56-24 56-80 0-36-24-60.5t-60-24.5zM491-12q-185 0-300.5 134T75 470q0 219 115.5 351.5T501 954q80 0 149-27t112.5-69 68-91.5T855 670q0-69-27.5-120t-75-84-123-54-161-30T269 370q21-92 78-150t144-58q26 0 56.5 5.5t59 15 49.5 18l43.5 18.5 25.5 11q24 10 46 10 37 0 62.5-26.5T859 152q0-47-46-76-12-8-51.5-26T642 10 491-12zM263 536q213 4 308.5 37t95.5 97q0 39-44.5 74.5T501 780q-99 0-161-64.5T263 536z"/><glyph glyph-name="eacute" unicode="é" horiz-adv-x="934" d="M393 1094q-36 0-60 24.5t-24 60.5q0 56 56 80l316 130q16 6 32 6 36 0 60-24.5t24-60.5q0-56-56-80l-316-130q-16-6-32-6zM491-12q-185 0-300.5 134T75 470q0 219 115.5 351.5T501 954q80 0 149-27t112.5-69 68-91.5T855 670q0-69-27.5-120t-75-84-123-54-161-30T269 370q21-92 78-150t144-58q26 0 56.5 5.5t59 15 49.5 18l43.5 18.5 25.5 11q24 10 46 10 37 0 62.5-26.5T859 152q0-47-46-76-12-8-51.5-26T642 10 491-12zM263 536q213 4 308.5 37t95.5 97q0 39-44.5 74.5T501 780q-99 0-161-64.5T263 536z"/><glyph glyph-name="ecircumflex" unicode="ê" horiz-adv-x="934" d="M279 1094q-39 0-64.5 24t-25.5 60q0 52 46 76l234 126q21 12 44 12 18 0 42-12l238-128q21-11 31.5-33t10.5-43q0-38-26.5-60t-65.5-22q-20 0-44 12l-186 100-192-100q-24-12-42-12zM491-12q-185 0-300.5 134T75 470q0 219 115.5 351.5T501 954q80 0 149-27t112.5-69 68-91.5T855 670q0-69-27.5-120t-75-84-123-54-161-30T269 370q21-92 78-150t144-58q26 0 56.5 5.5t59 15 49.5 18l43.5 18.5 25.5 11q24 10 46 10 37 0 62.5-26.5T859 152q0-47-46-76-12-8-51.5-26T642 10 491-12zM263 536q213 4 308.5 37t95.5 97q0 39-44.5 74.5T501 780q-99 0-161-64.5T263 536z"/><glyph glyph-name="edieresis" unicode="ë" horiz-adv-x="934" d="M389 1054q-39 0-64.5 24.5T299 1142v68q0 39 25.5 63.5T389 1298t64.5-24.5T479 1210v-68q0-39-25.5-63.5T389 1054zm252 0q-39 0-64.5 24.5T551 1142v68q0 39 25.5 63.5T641 1298t64.5-24.5T731 1210v-68q0-39-25.5-63.5T641 1054zM491-12q-185 0-300.5 134T75 470q0 219 115.5 351.5T501 954q80 0 149-27t112.5-69 68-91.5T855 670q0-69-27.5-120t-75-84-123-54-161-30T269 370q21-92 78-150t144-58q26 0 56.5 5.5t59 15 49.5 18l43.5 18.5 25.5 11q24 10 46 10 37 0 62.5-26.5T859 152q0-47-46-76-12-8-51.5-26T642 10 491-12zM263 536q213 4 308.5 37t95.5 97q0 39-44.5 74.5T501 780q-99 0-161-64.5T263 536z"/><glyph glyph-name="igrave" unicode="ì" horiz-adv-x="450" d="M399 1054q-16 0-32 6L51 1190q-56 24-56 80 0 36 24 60.5t60 24.5q16 0 32-6l316-130q56-24 56-80 0-36-24-60.5t-60-24.5zM225 0q-39 0-64.5 24.5T135 88v764q0 39 25.5 64.5T225 942t64.5-25.5T315 852V88q0-39-25.5-63.5T225 0z"/><glyph glyph-name="iacute" unicode="í" horiz-adv-x="450" d="M65 1094q-36 0-60 24.5t-24 60.5q0 56 56 80l316 130q16 6 32 6 36 0 60-24.5t24-60.5q0-56-56-80L97 1100q-16-6-32-6zM225 0q-39 0-64.5 24.5T135 88v764q0 39 25.5 64.5T225 942t64.5-25.5T315 852V88q0-39-25.5-63.5T225 0z"/><glyph glyph-name="icircumflex" unicode="î" horiz-adv-x="450" d="M-1 1094q-39 0-64.5 24t-25.5 60q0 52 46 76l234 126q21 12 44 12 18 0 42-12l238-128q21-11 31.5-33t10.5-43q0-38-26.5-60t-65.5-22q-20 0-44 12l-186 100-192-100q-24-12-42-12zM225 0q-39 0-64.5 24.5T135 88v764q0 39 25.5 64.5T225 942t64.5-25.5T315 852V88q0-39-25.5-63.5T225 0z"/><glyph glyph-name="idieresis" unicode="ï" horiz-adv-x="450" d="M101 1054q-39 0-64.5 24.5T11 1142v68q0 39 25.5 63.5T101 1298t64.5-24.5T191 1210v-68q0-39-25.5-63.5T101 1054zm252 0q-39 0-64.5 24.5T263 1142v68q0 39 25.5 63.5T353 1298t64.5-24.5T443 1210v-68q0-39-25.5-63.5T353 1054zM225 0q-39 0-64.5 24.5T135 88v764q0 39 25.5 64.5T225 942t64.5-25.5T315 852V88q0-39-25.5-63.5T225 0z"/><glyph glyph-name="eth" unicode="ð" horiz-adv-x="966" d="M481-12q-99 0-174.5 36.5t-118 91-69.5 128T83.5 380 75 508q0 63 14 124t46 120 78.5 103.5 117 71.5T487 954q115 0 210-80-7 65-38.5 124.5T589 1098l-158-76q-20-10-42-10-37 0-61.5 24t-24.5 60q0 24 13.5 46.5T353 1174l80 32q-23 8-46 10-76 7-161 9l-23 1q-38 1-63 24t-25 54q0 40 22 65t68 25h16q115 0 211-17t179-71l98 50q16 8 40 8 37 0 62.5-26.5T837 1272q0-55-44-78l-42-22q61-85 99-207t41-265v-14q0-337-106-517.5T481-12zm0 174q111 0 170 128t62 374Q584 780 487 780q-60 0-105.5-24.5t-71-65T273 604t-12-96q0-65 9.5-121t32-109.5 68-84.5T481 162z"/><glyph glyph-name="ntilde" unicode="ñ" horiz-adv-x="992" d="M607 1094q-15 0-28 1.5t-27.5 4.5-21.5 5-24.5 8-21.5 7q-48 16-99 16-16 0-48-17-26-15-46-15-37 0-63.5 19.5T201 1178q0 58 56 95 55 37 128 37 43 0 120-25 53-17 102-17 17 0 45 18 26 16 51 16 36 0 64-25t28-61q0-68-85-104-41-18-103-18zM225 0q-39 0-64.5 25.5T135 90v764q0 39 22.5 63.5T219 942q56 0 82-52 104 64 228 64 169 0 248.5-83T857 612V90q0-39-25.5-64.5T767 0t-64.5 25.5T677 90v494q0 115-40 155.5T489 780q-84 0-174-42V90q0-39-25.5-64.5T225 0z"/><glyph glyph-name="ograve" unicode="ò" horiz-adv-x="980" d="M677 1094q-16 0-32 6l-316 130q-56 24-56 80 0 36 24 60.5t60 24.5q16 0 32-6l316-130q56-24 56-80 0-36-24-60.5t-60-24.5zM491-12q-185 0-300.5 134T75 470q0 217 115.5 350.5T491 954q184 0 299-133.5T905 470q0-222-111-352T491-12zm0 174q107 0 167.5 83T719 470q0 141-61.5 225.5T491 780q-106 0-168-84t-62-226q0-138 62.5-223T491 162z"/><glyph glyph-name="oacute" unicode="ó" horiz-adv-x="980" d="M357 1094q-36 0-60 24.5t-24 60.5q0 56 56 80l316 130q16 6 32 6 36 0 60-24.5t24-60.5q0-56-56-80l-316-130q-16-6-32-6zM491-12q-185 0-300.5 134T75 470q0 217 115.5 350.5T491 954q184 0 299-133.5T905 470q0-222-111-352T491-12zm0 174q107 0 167.5 83T719 470q0 141-61.5 225.5T491 780q-106 0-168-84t-62-226q0-138 62.5-223T491 162z"/><glyph glyph-name="ocircumflex" unicode="ô" horiz-adv-x="980" d="M281 1094q-39 0-64.5 24t-25.5 60q0 52 46 76l234 126q21 12 44 12 18 0 42-12l238-128q21-11 31.5-33t10.5-43q0-38-26.5-60t-65.5-22q-20 0-44 12l-186 100-192-100q-24-12-42-12zM491-12q-185 0-300.5 134T75 470q0 217 115.5 350.5T491 954q184 0 299-133.5T905 470q0-222-111-352T491-12zm0 174q107 0 167.5 83T719 470q0 141-61.5 225.5T491 780q-106 0-168-84t-62-226q0-138 62.5-223T491 162z"/><glyph glyph-name="otilde" unicode="õ" horiz-adv-x="980" d="M623 1094q-15 0-28 1.5t-27.5 4.5-21.5 5-24.5 8-21.5 7q-48 16-99 16-16 0-48-17-26-15-46-15-37 0-63.5 19.5T217 1178q0 58 56 95 55 37 128 37 43 0 120-25 53-17 102-17 17 0 45 18 26 16 51 16 36 0 64-25t28-61q0-68-85-104-41-18-103-18zM491-12q-185 0-300.5 134T75 470q0 217 115.5 350.5T491 954q184 0 299-133.5T905 470q0-222-111-352T491-12zm0 174q107 0 167.5 83T719 470q0 141-61.5 225.5T491 780q-106 0-168-84t-62-226q0-138 62.5-223T491 162z"/><glyph glyph-name="odieresis" unicode="ö" horiz-adv-x="980" d="M373 1054q-39 0-64.5 24.5T283 1142v68q0 39 25.5 63.5T373 1298t64.5-24.5T463 1210v-68q0-39-25.5-63.5T373 1054zm252 0q-39 0-64.5 24.5T535 1142v68q0 39 25.5 63.5T625 1298t64.5-24.5T715 1210v-68q0-39-25.5-63.5T625 1054zM491-12q-185 0-300.5 134T75 470q0 217 115.5 350.5T491 954q184 0 299-133.5T905 470q0-222-111-352T491-12zm0 174q107 0 167.5 83T719 470q0 141-61.5 225.5T491 780q-106 0-168-84t-62-226q0-138 62.5-223T491 162z"/><glyph glyph-name="divide" unicode="÷" horiz-adv-x="1190" d="M589 720q-39 0-63.5 25.5T501 810v64q0 39 25.5 64.5T591 964t64.5-25.5T681 874v-64q0-39-26.5-64.5T589 720zM231 394q-39 0-64.5 23.5T141 480t25.5 63.5T231 568h728q39 0 64.5-24.5T1049 480t-25.5-62.5T959 394H231zM591 4q-39 0-64.5 24.5T501 92v66q0 39 25.5 64.5T591 248t64.5-25.5T681 158V92q0-39-25.5-63.5T591 4z"/><glyph glyph-name="oslash" unicode="ø" horiz-adv-x="990" d="M495-12q-77 0-172 40l-1-1Q295 0 263 0q-39 0-64.5 27T173 90q0 10 4 22l8 20Q75 272 75 470q0 216 117 350t303 134q98 0 181-40l1 1q25 25 66 25 37 0 61.5-24.5T829 852q0-28-12-52l-4-6q102-138 102-324 0-222-114-352T495-12zM291 306l288 454q-40 20-84 20-106 0-170-84.5T261 470q0-98 30-164zm204-144q58 0 104.5 27t74 72 41.5 98.5T729 470q0 81-24 150L421 180q36-18 74-18z"/><glyph glyph-name="ugrave" unicode="ù" horiz-adv-x="992" d="M671 1094q-16 0-32 6l-316 130q-56 24-56 80 0 36 24 60.5t60 24.5q16 0 32-6l316-130q56-24 56-80 0-36-24-60.5t-60-24.5zM463-12q-169 0-248.5 83T135 330v522q0 39 25.5 64.5T225 942t64.5-25.5T315 852V358q0-115 40-155.5T503 162q90 0 174 56v634q0 39 25.5 64.5T767 942t64.5-25.5T857 852V88q0-39-22.5-63.5T773 0q-54 0-81 50l-1 2Q587-12 463-12z"/><glyph glyph-name="uacute" unicode="ú" horiz-adv-x="992" d="M351 1094q-36 0-60 24.5t-24 60.5q0 56 56 80l316 130q16 6 32 6 36 0 60-24.5t24-60.5q0-56-56-80l-316-130q-16-6-32-6zM463-12q-169 0-248.5 83T135 330v522q0 39 25.5 64.5T225 942t64.5-25.5T315 852V358q0-115 40-155.5T503 162q90 0 174 56v634q0 39 25.5 64.5T767 942t64.5-25.5T857 852V88q0-39-22.5-63.5T773 0q-54 0-81 50l-1 2Q587-12 463-12z"/><glyph glyph-name="ucircumflex" unicode="û" horiz-adv-x="992" d="M271 1094q-39 0-64.5 24t-25.5 60q0 52 46 76l234 126q21 12 44 12 18 0 42-12l238-128q21-11 31.5-33t10.5-43q0-38-26.5-60t-65.5-22q-20 0-44 12l-186 100-192-100q-24-12-42-12zM463-12q-169 0-248.5 83T135 330v522q0 39 25.5 64.5T225 942t64.5-25.5T315 852V358q0-115 40-155.5T503 162q90 0 174 56v634q0 39 25.5 64.5T767 942t64.5-25.5T857 852V88q0-39-22.5-63.5T773 0q-54 0-81 50l-1 2Q587-12 463-12z"/><glyph glyph-name="udieresis" unicode="ü" horiz-adv-x="992" d="M387 1054q-39 0-64.5 24.5T297 1142v68q0 39 25.5 63.5T387 1298t64.5-24.5T477 1210v-68q0-39-25.5-63.5T387 1054zm252 0q-39 0-64.5 24.5T549 1142v68q0 39 25.5 63.5T639 1298t64.5-24.5T729 1210v-68q0-39-25.5-63.5T639 1054zM463-12q-169 0-248.5 83T135 330v522q0 39 25.5 64.5T225 942t64.5-25.5T315 852V358q0-115 40-155.5T503 162q90 0 174 56v634q0 39 25.5 64.5T767 942t64.5-25.5T857 852V88q0-39-22.5-63.5T773 0q-54 0-81 50l-1 2Q587-12 463-12z"/><glyph glyph-name="yacute" unicode="ý" horiz-adv-x="834" d="M267 1054q-36 0-60 24.5t-24 60.5q0 56 56 80l316 130q16 6 32 6 36 0 60-24.5t24-60.5q0-56-56-80l-316-130q-16-6-32-6zM118-392q-90 0-143 25-58 28-58 80 0 36 25 61.5T2-200q14 0 56-11 28-7 60-7 66 0 118.5 61.5T344 57l-17 32Q194 344 27 824q-7 21-7 36 0 39 26 60.5t63 21.5q31 0 54.5-20t33.5-50q114-347 213-557 6-12 16-34l218 598q10 27 33 45t52 18q39 0 64.5-25t25.5-60q0-15-6-31L525 27q-83-230-177.5-324.5T118-392z"/><glyph glyph-name="thorn" unicode="þ" horiz-adv-x="996" d="M225-428q-39 0-64.5 25.5T135-338v1596q0 39 25.5 63.5T225 1346t64.5-24.5T315 1258V928q78 26 170 26 193 0 314.5-131.5T921 478q0-206-138.5-348T447-12q-72 0-132 24v-350q0-39-25.5-64.5T225-428zm222 590q121 0 204.5 93T735 478q0 138-68 220t-182 82q-94 0-170-38V206q76-44 132-44z"/><glyph glyph-name="ydieresis" unicode="ÿ" horiz-adv-x="834" d="M301 1074q-39 0-64.5 24.5T211 1162v68q0 39 25.5 63.5T301 1318t64.5-24.5T391 1230v-68q0-39-25.5-63.5T301 1074zm252 0q-39 0-64.5 24.5T463 1162v68q0 39 25.5 63.5T553 1318t64.5-24.5T643 1230v-68q0-39-25.5-63.5T553 1074zM118-392q-90 0-143 25-58 28-58 80 0 36 25 61.5T2-200q14 0 56-11 28-7 60-7 66 0 118.5 61.5T344 57l-17 32Q194 344 27 824q-7 21-7 36 0 39 26 60.5t63 21.5q31 0 54.5-20t33.5-50q114-347 213-557 6-12 16-34l218 598q10 27 33 45t52 18q39 0 64.5-25t25.5-60q0-15-6-31L525 27q-83-230-177.5-324.5T118-392z"/><glyph glyph-name="Abreve" unicode="Ă" horiz-adv-x="1118" d="M556 1454q-93 0-158 38.5T305 1595q-19 44-19 81 0 33 20.5 54.5T364 1752q64 0 89-66 14-37 36-48.5t67-11.5 67 11.5 36 48.5q25 66 89 66 37 0 57.5-21.5T826 1676q0-37-19-81-28-64-93-102.5T556 1454zm523-1346q4-12 4-26 0-37-25-59.5T989 0q-33 0-50 14t-28 44q-29 76-104 312H307l-48-161-48-151Q190 0 123 0 80 0 57.5 22T35 82q0 14 4 26 41 147 178.5 554T443 1232q17 32 43 45t73 13q89 0 118-62 73-156 217-570t185-550zm-542 915q-67-169-140-394l-28-85h382l-25 77q-67 205-145 403l-22 54q-8-19-22-55z"/><glyph glyph-name="abreve" unicode="ă" horiz-adv-x="986" d="M532 1054q-138 0-211 78-23 25-38 57.5t-18 49-3 23.5q0 40 25 65t65 25q39 0 63.5-23t24.5-65q0-5 4.5-12.5t27-16.5 60.5-9 61.5 10 28 17 4.5 11q0 41 27.5 64.5T718 1352q45 0 67.5-24t22.5-66q0-6-3-20.5t-16-44-33-53.5q-77-90-224-90zM419-12q-64 0-123.5 18.5T186 60.5 105.5 157 75 296q0 145 111.5 226T502 603h101v53q0 45-38.5 84.5T451 780q-101 0-196-50-18-10-48-10-37 0-59.5 25.5T125 806q0 45 34 70 40 30 124 54t168 24q85 0 151.5-28T707 852.5t57-95.5 19-101V178q25 0 47-22 27-27 27-68t-24.5-64.5T769 0q-75 0-120 56-116-68-230-68zm0 174q83 0 184 46v225H497q-236 0-236-137 0-63 47.5-98.5T419 162z"/><glyph glyph-name="Aogonek" unicode="Ą" horiz-adv-x="1118" d="M1038-165q28 0 46-18.5t18-44.5q0-37-40-58-81-42-174-42-90 0-142.5 43T693-148q0 138 207 235-27 76-93 283H307l-48-161-48-151Q190 0 123 0 80 0 57.5 22T35 82q0 14 4 26 41 147 178.5 554T443 1232q17 32 43 45t73 13q89 0 118-62 73-156 217-570t185-550q4-12 4-26 0-57-53-77-63-23-76-29-65-29-99-57.5T821-148q0-54 67-54 43 0 107 26 29 11 43 11zM537 1023q-67-169-140-394l-28-85h382q-4 13-12.5 38.5T726 621q-67 205-145 403l-22 54q-8-19-22-55z"/><glyph glyph-name="aogonek" unicode="ą" horiz-adv-x="912" d="M694-328q-77 0-128.5 39.5T514-169q0 64 53 123 38 42 105 78-14 12-23 24-116-68-230-68-64 0-123.5 18T186 59.5 105.5 154 75 288q0 146 102 220t300 74h126v74q0 45-38.5 84.5T451 780q-101 0-196-50-18-10-48-10-37 0-59.5 25.5T125 806q0 46 34 70 41 29 124.5 53.5T451 954q85 0 151.5-28T707 852.5t57-95.5 19-101V178q23 0 42-17 32-29 32-73 0-49-42-77-56-36-77-50.5t-49.5-38-37.5-41-9-39.5q0-44 49-44 41 0 110 27 23 10 40 10 28 0 46-18.5t18-44.5q0-37-40-58-81-42-171-42zM419 162q83 0 184 46v204H477q-216 0-216-124 0-58 48-92t110-34z"/><glyph glyph-name="Cacute" unicode="Ć" horiz-adv-x="1190" d="M553 1454q-36 0-60 24.5t-24 60.5q0 56 56 80l316 130q16 6 32 6 36 0 60-24.5t24-60.5q0-56-56-80l-316-130q-16-6-32-6zM665-12q-161 0-291.5 85T169 308.5 95 644t77.5 336 212 236.5T683 1302q136 0 231.5-33.5T1057 1196q38-31 38-76 0-36-27.5-62t-60.5-26q-30 0-54 18-101 78-270 78-172 0-287-139.5T281 644q0-206 109-344t275-138q135 0 280 80 28 14 48 14 37 0 63.5-28.5T1083 164q0-52-38-72Q843-12 665-12z"/><glyph glyph-name="cacute" unicode="ć" horiz-adv-x="936" d="M379 1054q-36 0-60 24.5t-24 60.5q0 56 56 80l316 130q16 6 32 6 36 0 60-24.5t24-60.5q0-56-56-80l-316-130q-16-6-32-6zM509-12q-193 0-313.5 135T75 476q0 202 137 340t335 138q142 0 258-76 17-11 28.5-32.5T845 802q0-38-26.5-64T755 712q-29 0-50 16-70 52-158 52-122 0-204-88t-82-216q0-80 25-149t83-117 140-48q99 0 216 64 21 12 46 12 36 0 63-25.5t27-64.5q0-49-48-76-152-84-304-84z"/><glyph glyph-name="Ccaron" unicode="Č" horiz-adv-x="1190" d="M676 1454q-20 0-44 12l-234 126q-46 24-46 72 0 37 26 64.5t64 27.5q18 0 42-12l192-98 186 98q24 12 44 12 38 0 65-26t27-64q0-50-42-72l-238-128q-24-12-42-12zM665-12q-161 0-291.5 85T169 308.5 95 644t77.5 336 212 236.5T683 1302q136 0 231.5-33.5T1057 1196q38-31 38-76 0-36-27.5-62t-60.5-26q-30 0-54 18-101 78-270 78-172 0-287-139.5T281 644q0-206 109-344t275-138q135 0 280 80 28 14 48 14 37 0 63.5-28.5T1083 164q0-52-38-72Q843-12 665-12z"/><glyph glyph-name="ccaron" unicode="č" horiz-adv-x="936" d="M509 1054q-20 0-44 12l-234 126q-46 24-46 72 0 37 26 64.5t64 27.5q18 0 42-12l192-98 186 98q24 12 44 12 38 0 65-26t27-64q0-50-42-72l-238-128q-24-12-42-12zm0-1066q-193 0-313.5 135T75 476q0 202 137 340t335 138q142 0 258-76 17-11 28.5-32.5T845 802q0-38-26.5-64T755 712q-29 0-50 16-70 52-158 52-122 0-204-88t-82-216q0-80 25-149t83-117 140-48q99 0 216 64 21 12 46 12 36 0 63-25.5t27-64.5q0-49-48-76-152-84-304-84z"/><glyph glyph-name="Dcaron" unicode="Ď" horiz-adv-x="1274" d="M577 1454q-20 0-44 12l-234 126q-46 24-46 72 0 37 26 64.5t64 27.5q18 0 42-12l192-98 186 98q24 12 44 12 38 0 65-26t27-64q0-50-42-72l-238-128q-24-12-42-12zM263 0q-39 0-63.5 25.5T175 90v1112q0 39 24.5 63.5T263 1290h340q168 0 299.5-83.5t204-231.5 72.5-335q0-184-72.5-330t-204-228T603 0H263zm92 174h248q178 0 284 129.5T993 640q0 210-106 343t-284 133H355V174z"/><glyph glyph-name="dcaron" unicode="ď" horiz-adv-x="1206" d="M1098 955q-35 0-62.5 27t-27.5 65q0 28 26 64 40 54 40 186 0 39 24.5 63.5t63.5 24.5 64.5-23.5 25.5-62.5v-14q0-28-3-68.5t-20.5-109.5-46.5-107q-35-45-84-45zM509-12q-193 0-314.5 134.5T73 474q0 216 117.5 348T503 954q96 0 172-38v372q0 39 25.5 63.5T765 1376t64.5-24.5T855 1288V178q22 0 40-13 36-26 36-75 0-39-25.5-64.5T841 0q-24 0-58 13t-62 43Q605-12 509-12zm0 174q68 0 166 46v526q-101 46-172 46-111 0-177.5-82.5T259 476q0-80 25-149t83.5-117T509 162z"/><glyph glyph-name="Dcroat" unicode="Đ" horiz-adv-x="1324" d="M313 0q-39 0-63.5 25.5T225 90v492h-74q-39 0-64.5 24.5T61 670t25.5 62.5T151 756h74v444q0 39 24.5 64.5T313 1290h338q254 0 416-183t162-467q0-184-72-330T952.5 82 651 0H313zm92 174h246q178 0 285 130t107 336q0 209-108.5 342.5T651 1116H405V756h276q39 0 64.5-23.5T771 670t-25.5-63.5T681 582H405V174z"/><glyph glyph-name="dcroat" unicode="đ" horiz-adv-x="986" d="M509-12q-193 0-314.5 134.5T73 474q0 216 117.5 348T503 954q96 0 172-38v133H491q-39 0-64.5 23.5T401 1135t25.5 63.5T491 1223h184v65q0 39 25.5 63.5T765 1376t64.5-24.5T855 1288v-65h34q39 0 64.5-24.5T979 1135t-25.5-62.5T889 1049h-34V178q17 0 35-10 41-24 41-78 0-39-25.5-64.5T841 0q-24 0-58 13t-62 43Q605-12 509-12zm0 174q68 0 166 46v526q-101 46-172 46-111 0-177.5-82.5T259 476q0-80 25-149t83.5-117T509 162z"/><glyph glyph-name="Eogonek" unicode="Ę" horiz-adv-x="1000" d="M697-328q-90 0-142.5 43T502-148q0 81 72 148H263q-39 0-63.5 24.5T175 88v1116q0 39 24.5 62.5T263 1290h506q39 0 63.5-23.5T857 1204t-24.5-63.5T769 1116H355V764h382q39 0 63.5-23.5T825 678t-24.5-63.5T737 590H355V174h452q39 0 63.5-23.5T895 88q0-61-57-83L808-6q-57-21-91-39-87-44-87-103 0-54 67-54 46 0 105 25 29 12 45 12 28 0 46-18.5t18-44.5q0-37-40-58-81-42-174-42z"/><glyph glyph-name="eogonek" unicode="ę" horiz-adv-x="934" d="M643-328q-90 0-142.5 43T448-148q0 67 68 137-9-1-25-1-185 0-300.5 134T75 470q0 219 115.5 351.5T501 954q80 0 149-27t112.5-69 68-91.5T855 670q0-69-27.5-120t-75-84-123-54-161-30T269 370q21-92 78-150t144-58q26 0 56.5 5.5t59 15 49.5 18l43.5 18.5 25.5 11q24 10 46 10 37 0 62.5-26.5T859 152q0-33-18-53.5T787 59l-13-7Q576-48 576-148q0-54 67-54 35 0 87 18 53 19 63 19 28 0 46-18.5t18-44.5q0-37-40-58-81-42-174-42zM263 536q213 4 308.5 37t95.5 97q0 39-44.5 74.5T501 780q-99 0-161-64.5T263 536z"/><glyph glyph-name="Ecaron" unicode="Ě" horiz-adv-x="1000" d="M512 1454q-20 0-44 12l-234 126q-46 24-46 72 0 37 26 64.5t64 27.5q18 0 42-12l192-98 186 98q24 12 44 12 38 0 65-26t27-64q0-50-42-72l-238-128q-24-12-42-12zM263 0q-39 0-63.5 24.5T175 88v1116q0 39 24.5 62.5T263 1290h506q39 0 63.5-23.5T857 1204t-24.5-63.5T769 1116H355V764h382q39 0 63.5-23.5T825 678t-24.5-63.5T737 590H355V174h452q39 0 63.5-23.5T895 88t-24.5-63.5T807 0H263z"/><glyph glyph-name="ecaron" unicode="ě" horiz-adv-x="934" d="M488 1054q-20 0-44 12l-234 126q-46 24-46 72 0 37 26 64.5t64 27.5q18 0 42-12l192-98 186 98q24 12 44 12 38 0 65-26t27-64q0-50-42-72l-238-128q-24-12-42-12zm3-1066q-185 0-300.5 134T75 470q0 219 115.5 351.5T501 954q80 0 149-27t112.5-69 68-91.5T855 670q0-69-27.5-120t-75-84-123-54-161-30T269 370q21-92 78-150t144-58q26 0 56.5 5.5t59 15 49.5 18l43.5 18.5 25.5 11q24 10 46 10 37 0 62.5-26.5T859 152q0-47-46-76-12-8-51.5-26T642 10 491-12zM263 536q213 4 308.5 37t95.5 97q0 39-44.5 74.5T501 780q-99 0-161-64.5T263 536z"/><glyph glyph-name="dotlessi" unicode="ı" horiz-adv-x="450" d="M225 0q-39 0-64.5 24.5T135 88v764q0 39 25.5 64.5T225 942t64.5-25.5T315 852V88q0-39-25.5-63.5T225 0z"/><glyph glyph-name="Lacute" unicode="Ĺ" horiz-adv-x="932" d="M283 1427q-36 0-60 24.5t-24 60.5q0 56 56 80l316 130q16 6 32 6 36 0 60-24.5t24-60.5q0-56-56-80l-316-130q-16-6-32-6zM265 0q-39 0-64.5 24.5T175 88v1114q0 39 25.5 63.5T265 1290t64.5-24.5T355 1202V174h450q40 0 66-24t26-62q0-39-26.5-63.5T805 0H265z"/><glyph glyph-name="lacute" unicode="ĺ" horiz-adv-x="492" d="M215 1414q-36 0-60 24.5t-24 60.5q0 56 56 80l316 130q16 6 32 6 36 0 60-24.5t24-60.5q0-56-56-80l-316-130q-16-6-32-6zM387 0Q241 0 188 74.5T135 354v932q0 39 25.5 64.5T225 1376t64.5-25.5T315 1286V354q0-114 20-151 16-29 52-29 39 0 64.5-23.5T477 88t-25.5-63.5T387 0z"/><glyph glyph-name="Lcaron" unicode="Ľ" horiz-adv-x="932" d="M602 890q-35 0-62.5 27T512 982q0 28 26 64 40 54 40 186 0 39 24.5 63.5T666 1320t64.5-23.5T756 1234v-14q0-28-3-68.5T732.5 1042 686 935q-35-45-84-45zM265 0q-39 0-64.5 24.5T175 88v1114q0 39 25.5 63.5T265 1290t64.5-24.5T355 1202V174h450q40 0 66-24t26-62q0-39-26.5-63.5T805 0H265z"/><glyph glyph-name="lcaron" unicode="ľ" horiz-adv-x="666" d="M558 955q-35 0-62.5 27t-27.5 65q0 28 26 64 40 54 40 186 0 39 24.5 63.5T622 1385t64.5-23.5T712 1299v-14q0-28-3-68.5T688.5 1107 642 1000q-35-45-84-45zM387 0Q241 0 188 74.5T135 354v932q0 39 25.5 64.5T225 1376t64.5-25.5T315 1286V354q0-114 20-151 16-29 52-29 39 0 64.5-23.5T477 88t-25.5-63.5T387 0z"/><glyph glyph-name="Lslash" unicode="Ł" horiz-adv-x="978" d="M315 0q-40 0-65 24.5T225 88v364l-38-26q-20-14-50-14-37 0-62.5 25.5T49 498q0 52 36 76l140 96v530q0 39 25.5 64.5T315 1290t64.5-25.5T405 1200V798l86 60q22 16 54 16 34 0 60-27t26-65q0-48-34-72L405 574V174h448q39 0 64.5-23.5T943 88t-25.5-63.5T853 0H315z"/><glyph glyph-name="lslash" unicode="ł" horiz-adv-x="492" d="M387 0q-91 0-143 26.5T166 115q-31 76-31 239v170l-22-16q-17-12-50-12-38 0-65 21.5T-29 578q0 50 40 78l124 88v542q0 39 25.5 64.5T225 1376t64.5-25.5T315 1286V870l64 46q27 18 52 18 36 0 63-25t27-67q0-43-40-72L315 652V354q0-103 15-141.5t57-38.5q39 0 64.5-23.5T477 88t-25.5-63.5T387 0z"/><glyph glyph-name="Nacute" unicode="Ń" horiz-adv-x="1222" d="M489 1426q-36 0-60 24.5t-24 60.5q0 56 56 80l316 130q16 6 32 6 36 0 60-24.5t24-60.5q0-56-56-80l-316-130q-16-6-32-6zM265 0q-39 0-64.5 25.5T175 90v1110q0 39 25.5 64.5T265 1290h24q112 0 219-208 30-59 103.5-227T699 658l67.5-148.5L827 378q28-56 40-74v896q0 39 25.5 64.5T957 1290t64.5-25.5 25.5-64.5V90q0-39-25.5-64.5T957 0h-20q-62 0-98 36-65 65-192 312-46 89-134 286L387 922q-24 53-32 64V90q0-39-25.5-64.5T265 0z"/><glyph glyph-name="nacute" unicode="ń" horiz-adv-x="992" d="M393 1054q-36 0-60 24.5t-24 60.5q0 56 56 80l316 130q16 6 32 6 36 0 60-24.5t24-60.5q0-56-56-80l-316-130q-16-6-32-6zM225 0q-39 0-64.5 25.5T135 90v764q0 39 22.5 63.5T219 942q56 0 82-52 104 64 228 64 169 0 248.5-83T857 612V90q0-39-25.5-64.5T767 0t-64.5 25.5T677 90v494q0 115-40 155.5T489 780q-84 0-174-42V90q0-39-25.5-64.5T225 0z"/><glyph glyph-name="Ncaron" unicode="Ň" horiz-adv-x="1222" d="M609 1424q-20 0-44 12l-234 126q-46 24-46 72 0 37 26 64.5t64 27.5q18 0 42-12l192-98 186 98q24 12 44 12 38 0 65-26t27-64q0-50-42-72l-238-128q-24-12-42-12zM265 0q-39 0-64.5 25.5T175 90v1110q0 39 25.5 64.5T265 1290h24q112 0 219-208 30-59 103.5-227T699 658l67.5-148.5L827 378q28-56 40-74v896q0 39 25.5 64.5T957 1290t64.5-25.5 25.5-64.5V90q0-39-25.5-64.5T957 0h-20q-62 0-98 36-65 65-192 312-46 89-134 286L387 922q-24 53-32 64V90q0-39-25.5-64.5T265 0z"/><glyph glyph-name="ncaron" unicode="ň" horiz-adv-x="992" d="M494 1054q-20 0-44 12l-234 126q-46 24-46 72 0 37 26 64.5t64 27.5q18 0 42-12l192-98 186 98q24 12 44 12 38 0 65-26t27-64q0-50-42-72l-238-128q-24-12-42-12zM225 0q-39 0-64.5 25.5T135 90v764q0 39 22.5 63.5T219 942q56 0 82-52 104 64 228 64 169 0 248.5-83T857 612V90q0-39-25.5-64.5T767 0t-64.5 25.5T677 90v494q0 115-40 155.5T489 780q-84 0-174-42V90q0-39-25.5-64.5T225 0z"/><glyph glyph-name="Ohungarumlaut" unicode="Ő" horiz-adv-x="1294" d="M525 1424q-39 0-63.5 25t-24.5 61q0 19 6 34l58 151q20 52 82 52 41 0 65-23t24-59q0-16-5-30l-60-155q-9-24-33-40t-49-16zm260 0q-39 0-63.5 25t-24.5 61q0 19 6 34l58 151q20 52 82 52 39 0 64-22.5t25-57.5q0-18-5-32l-60-155q-10-26-33.5-41t-48.5-15zM647-12q-154 0-280.5 85.5t-199 236T95 642q0 185 72.5 336.5t199 237.5 280.5 86q158 0 284-85t197-235.5 71-339.5q0-186-71-335.5t-197-234T647-12zm0 174q161 0 263.5 136.5T1013 642q0 210-102.5 348T647 1128q-103 0-187-64.5t-131.5-176T281 642q0-133 47.5-242.5T460 226t187-64z"/><glyph glyph-name="ohungarumlaut" unicode="ő" horiz-adv-x="980" d="M366 1054q-38 0-63 25t-25 61q0 19 6 34l58 151q20 52 82 52 41 0 65-23t24-59q0-16-5-30l-60-155q-9-24-33.5-40t-48.5-16zm260 0q-38 0-63 25t-25 61q0 19 6 34l58 151q20 52 82 52 39 0 64-22.5t25-57.5q0-18-5-32l-60-155q-10-26-33.5-41t-48.5-15zM491-12q-185 0-300.5 134T75 470q0 217 115.5 350.5T491 954q184 0 299-133.5T905 470q0-222-111-352T491-12zm0 174q107 0 167.5 83T719 470q0 141-61.5 225.5T491 780q-106 0-168-84t-62-226q0-138 62.5-223T491 162z"/><glyph glyph-name="OE" unicode="Œ" horiz-adv-x="1634" d="M1429 174q39 0 64.5-23.5T1519 88t-25.5-63.5T1429 0H670Q412 0 253.5 179.5T95 645t158.5 465.5T670 1290h725q39 0 64.5-23.5t25.5-62.5-25.5-63.5-64.5-24.5H977V764h384q39 0 64.5-25.5T1451 674q0-38-25-61t-65-23H977V174h452zm-630 0v942H670q-179 0-284-130.5T281 645t105-340.5T670 174h129z"/><glyph glyph-name="oe" unicode="œ" horiz-adv-x="1582" d="M493-12q-184 0-301 134T75 470q0 216 117 350t301 134q117 0 201.5-49T819 776q47 78 133.5 128t200.5 50q79 0 158-34t135.5-102.5T1503 664q0-67-28-117t-76-82-124-52.5-161.5-30T915 370q16-92 75.5-150t150.5-58q106 0 204 46 7 4 22.5 11.5l22.5 11 16.5 6.5 15.5 3q37 0 61-26t24-64q0-46-44-74-43-26-136-57t-186-31q-101 0-185 42.5T821 156Q774 78 688.5 33T493-12zm0 174q110 0 173 83t63 225q0 141-64.5 225.5T493 780q-105 0-168.5-84.5T261 470q0-137 64-222.5T493 162zm418 378q44 0 112 4 152 9 223 38t71 82q0 39-44.5 77.5T1153 780q-95 0-158.5-64.5T911 540z"/><glyph glyph-name="Racute" unicode="Ŕ" horiz-adv-x="1092" d="M364 1424q-36 0-60 24.5t-24 60.5q0 56 56 80l316 130q16 6 32 6 36 0 60-24.5t24-60.5q0-56-56-80l-316-130q-16-6-32-6zM265 0q-39 0-64.5 25.5T175 90v1110q0 39 25.5 64.5T265 1290h306q169 0 279.5-100.5T961 934q0-112-53.5-194T752 616q35-29 63.5-69.5t56.5-103 42.5-101L958 221q38-108 38-142 0-31-24-55T905 0q-30 0-53.5 18T819 66q-31 104-55.5 172.5t-56 135.5T644 479t-74.5 61.5T477 564H355V90q0-39-25.5-64.5T265 0zm90 738h216q20 0 40.5 2.5T663 755t54.5 32 40.5 60 17 93q0 76-57.5 126T571 1116H355V738z"/><glyph glyph-name="racute" unicode="ŕ" horiz-adv-x="708" d="M255 1054q-36 0-60 24.5t-24 60.5q0 56 56 80l316 130q16 6 32 6 36 0 60-24.5t24-60.5q0-56-56-80l-316-130q-16-6-32-6zM225 0q-39 0-64.5 25.5T135 90v764q0 39 25.5 63.5T225 942t62.5-24.5T311 854v-22q29 45 82.5 83.5T523 954q113 0 152-48 18-21 18-50 0-38-24.5-64T607 766q-8 0-28 4-48 10-56 10-24 0-47.5-6t-54-27.5-53-56.5-38-100T315 438V90q0-39-25.5-64.5T225 0z"/><glyph glyph-name="Rcaron" unicode="Ř" horiz-adv-x="1092" d="M504 1424q-20 0-44 12l-234 126q-46 24-46 72 0 37 26 64.5t64 27.5q18 0 42-12l192-98 186 98q24 12 44 12 38 0 65-26t27-64q0-50-42-72l-238-128q-24-12-42-12zM265 0q-39 0-64.5 25.5T175 90v1110q0 39 25.5 64.5T265 1290h306q169 0 279.5-100.5T961 934q0-112-53.5-194T752 616q35-29 63.5-69.5t56.5-103 42.5-101L958 221q38-108 38-142 0-31-24-55T905 0q-30 0-53.5 18T819 66q-31 104-55.5 172.5t-56 135.5T644 479t-74.5 61.5T477 564H355V90q0-39-25.5-64.5T265 0zm90 738h216q20 0 40.5 2.5T663 755t54.5 32 40.5 60 17 93q0 76-57.5 126T571 1116H355V738z"/><glyph glyph-name="rcaron" unicode="ř" horiz-adv-x="708" d="M355 1054q-20 0-44 12L77 1192q-46 24-46 72 0 37 26 64.5t64 27.5q18 0 42-12l192-98 186 98q24 12 44 12 38 0 65-26t27-64q0-50-42-72l-238-128q-24-12-42-12zM225 0q-39 0-64.5 25.5T135 90v764q0 39 25.5 63.5T225 942t62.5-24.5T311 854v-22q29 45 82.5 83.5T523 954q113 0 152-48 18-21 18-50 0-38-24.5-64T607 766q-8 0-28 4-48 10-56 10-24 0-47.5-6t-54-27.5-53-56.5-38-100T315 438V90q0-39-25.5-64.5T225 0z"/><glyph glyph-name="Sacute" unicode="Ś" horiz-adv-x="976" d="M367 1424q-36 0-60 24.5t-24 60.5q0 56 56 80l316 130q16 6 32 6 36 0 60-24.5t24-60.5q0-56-56-80l-316-130q-16-6-32-6zM467-12q-102 0-175 32t-159 96q-38 29-38 78 0 36 26 60t60 24q33 0 62-22 32-26 56.5-42t72-34 95.5-18q104 0 166 56t62 146q0 49-31.5 89.5t-81.5 70T471 582t-122 63-111 75-81.5 103.5T125 964q0 102 55.5 180.5t141.5 118 185 39.5q157 0 306-108 36-27 36-76 0-37-26-62.5t-60-25.5q-33 0-54 18-94 80-202 80-79 0-137.5-47.5T311 964q0-43 24.5-79t64.5-61 91.5-51.5 104.5-50T700.5 665t91.5-73 64.5-98T881 364q0-169-114.5-272.5T467-12z"/><glyph glyph-name="sacute" unicode="ś" horiz-adv-x="826" d="M254 1054q-36 0-60 24.5t-24 60.5q0 56 56 80l316 130q16 6 32 6 36 0 60-24.5t24-60.5q0-56-56-80l-316-130q-16-6-32-6zM413-12q-88 0-169 25.5T114 76q-39 31-39 76 0 36 25.5 61.5T162 239q23 0 64-22 102-55 187-55 152 0 152 92 0 38-25 66t-65 47-88.5 36.5-97 40T201 496t-65 79.5T111 690q0 88 49.5 149.5t121.5 88T439 954q63 0 126.5-15T670 902q49-26 49-80 0-36-25.5-61.5T632 735q-20 0-50 12-81 33-143 33-65 0-103.5-19T297 690q0-30 25-54t65-41 88.5-35 97-42.5 88.5-56 65-83.5 25-118q0-119-91.5-195.5T413-12z"/><glyph glyph-name="Scedilla" unicode="Ş" horiz-adv-x="976" d="M495-436q-66 0-101 32-21 18-21 44 0 58 60 58 3 0 27-4t45-4q26 0 48 19.5t22 48.5-14.5 45.5T521-180q-37 0-66-13t-38-13q-56 0-56 50 0 10 4 30L390-6Q318 4 261 34t-128 82q-38 29-38 78 0 36 26 60t60 24q33 0 62-22 32-26 56.5-42t72-34 95.5-18q104 0 166 56t62 146q0 49-31.5 89.5t-81.5 70T471 582t-122 63-111 75-81.5 103.5T125 964q0 102 55.5 180.5t141.5 118 185 39.5q155 0 306-108 36-26 36-76 0-37-26-62.5t-60-25.5q-33 0-54 18-94 80-202 80-79 0-137.5-47.5T311 964q0-43 24.5-79t64.5-61 91.5-51.5 104.5-50T700.5 665t91.5-73 64.5-98T881 364q0-167-111-269.5T478-11l-17-61q36 12 74 12 72 0 120-50.5T703-242q0-91-61.5-142.5T495-436z"/><glyph glyph-name="scedilla" unicode="ş" horiz-adv-x="826" d="M419-436q-54 0-88 21.5T297-360q0 58 60 58 3 0 27-4t45-4q26 0 48 19.5t22 48.5-14.5 45.5T445-180q-37 0-66-13t-38-13q-56 0-56 50 0 10 6 40L315-3Q192 17 114 76q-39 31-39 76 0 36 25.5 61.5T162 239q23 0 64-22 102-55 187-55 152 0 152 92 0 38-25 66t-65 47-88.5 36.5-97 40T201 496t-65 79.5T111 690q0 88 49.5 149.5t121.5 88T439 954q63 0 126.5-15T670 902q49-26 49-80 0-36-25.5-61.5T632 735q-20 0-50 12-81 33-143 33-65 0-103.5-19T297 690q0-30 25-54t65-41 88.5-35 97-42.5 88.5-56 65-83.5 25-118q0-119-91.5-195.5T413-12h-11l-17-60q36 12 74 12 72 0 120-50.5T627-242q0-91-61.5-142.5T419-436z"/><glyph glyph-name="Scaron" unicode="Š" horiz-adv-x="976" d="M522 1454q-20 0-44 12l-234 126q-46 24-46 72 0 37 26 64.5t64 27.5q18 0 42-12l192-98 186 98q24 12 44 12 38 0 65-26t27-64q0-50-42-72l-238-128q-24-12-42-12zM467-12q-102 0-175 32t-159 96q-38 29-38 78 0 36 26 60t60 24q33 0 62-22 32-26 56.5-42t72-34 95.5-18q104 0 166 56t62 146q0 49-31.5 89.5t-81.5 70T471 582t-122 63-111 75-81.5 103.5T125 964q0 102 55.5 180.5t141.5 118 185 39.5q157 0 306-108 36-27 36-76 0-37-26-62.5t-60-25.5q-33 0-54 18-94 80-202 80-79 0-137.5-47.5T311 964q0-43 24.5-79t64.5-61 91.5-51.5 104.5-50T700.5 665t91.5-73 64.5-98T881 364q0-169-114.5-272.5T467-12z"/><glyph glyph-name="scaron" unicode="š" horiz-adv-x="826" d="M413 1054q-20 0-44 12l-234 126q-46 24-46 72 0 37 26 64.5t64 27.5q18 0 42-12l192-98 186 98q24 12 44 12 38 0 65-26t27-64q0-50-42-72l-238-128q-24-12-42-12zm0-1066q-88 0-169 25.5T114 76q-39 31-39 76 0 36 25.5 61.5T162 239q23 0 64-22 102-55 187-55 152 0 152 92 0 38-25 66t-65 47-88.5 36.5-97 40T201 496t-65 79.5T111 690q0 88 49.5 149.5t121.5 88T439 954q63 0 126.5-15T670 902q49-26 49-80 0-36-25.5-61.5T632 735q-20 0-50 12-81 33-143 33-65 0-103.5-19T297 690q0-30 25-54t65-41 88.5-35 97-42.5 88.5-56 65-83.5 25-118q0-119-91.5-195.5T413-12z"/><glyph glyph-name="uni0162" unicode="Ţ" horiz-adv-x="952" d="M521-436q-56 0-89 22t-33 54q0 58 60 58 3 0 27-4t45-4q26 0 48 19.5t22 48.5-14.5 45.5T547-180q-37 0-66-13t-38-13q-56 0-56 50 0 10 4 30l30 141q-38 25-38 75v1026H103q-39 0-63.5 24.5T15 1204t24.5 62.5T103 1290h746q39 0 63.5-23.5T937 1204t-24.5-63.5T849 1116H563V90q0-29-15-51.5T508 6l-21-78q36 12 74 12 72 0 120-50.5T729-242q0-91-61.5-142.5T521-436z"/><glyph glyph-name="uni0163" unicode="ţ" horiz-adv-x="716" d="M418-436q-54 0-88 21.5T296-360q0 58 60 58 3 0 27-4t45-4q26 0 48 19.5t22 48.5-14.5 45.5T444-180q-36 0-65-13t-39-13q-56 0-56 50 0 10 4 30l30 142Q159 88 159 356v412H97q-40 0-65 24T7 855t25 63 65 24h62v174q0 39 25.5 64.5T249 1206t64.5-25.5T339 1116V942h196q40 0 65-24t25-63-25-63-65-24H339V356q0-59 13.5-100.5t36.5-60 44-26 45-7.5q50 0 90 19 28 14 53 14 34 0 57-25.5t23-61.5q0-50-51-81-64-39-181-39-30 0-67 5l-18-65q36 12 74 12 72 0 120-50.5T626-242q0-91-61.5-142.5T418-436z"/><glyph glyph-name="Tcaron" unicode="Ť" horiz-adv-x="952" d="M479 1416q-20 0-44 12l-234 126q-46 24-46 72 0 37 26 64.5t64 27.5q18 0 42-12l192-98 186 98q24 12 44 12 38 0 65-26t27-64q0-50-42-72l-238-128q-24-12-42-12zM473 0q-39 0-64.5 25.5T383 90v1026H103q-39 0-63.5 24.5T15 1204t24.5 62.5T103 1290h746q39 0 63.5-23.5T937 1204t-24.5-63.5T849 1116H563V90q0-39-25.5-64.5T473 0z"/><glyph glyph-name="tcaron" unicode="ť" horiz-adv-x="716" d="M567 998q-35 0-62.5 27t-27.5 65q0 28 26 64 40 54 40 186 0 39 24.5 63.5T631 1428t64.5-23.5T721 1342v-14q0-28-3-68.5T697.5 1150 651 1043q-35-45-84-45zM469-12q-47 0-86 7t-82.5 30-73 62-49 107.5T159 356v412H97q-40 0-65 24T7 855t25 63 65 24h62v174q0 39 25.5 64.5T249 1206t64.5-25.5T339 1116V942h196q40 0 65-24t25-63-25-63-65-24H339V356q0-59 13.5-100.5t36.5-60 44-26 45-7.5q43 0 82 15 4 1 13.5 5.5T588 189t14 4 19 2q34 0 57-25.5t23-61.5q0-50-51-81-64-39-181-39z"/><glyph glyph-name="Uring" unicode="Ů" horiz-adv-x="1228" d="M608 1414q-80 0-135 54t-55 134q0 78 55 132t135 54q79 0 131.5-53.5T792 1602q0-81-52.5-134.5T608 1414zm2 124q24 0 44 20t20 46q0 24-20 43t-44 19q-27 0-46.5-19t-19.5-43q0-27 19.5-46.5T610 1538zm3-1550q-78 0-143.5 17.5t-110 46-78.5 68-53.5 79.5-32 85-16.5 80-4 68v770q0 39 26.5 63.5T267 1290q38 0 63-24.5t25-63.5V436q0-33 6-66t23.5-71.5 44.5-68 75.5-49T615 162t110 19.5 75 49 44.5 68 23 71.5 5.5 66v766q0 39 25.5 63.5T963 1290t64.5-24.5 25.5-63.5V432q0-33-4-68t-17-80-32.5-85-54-79.5-79-68-110-46T613-12z"/><glyph glyph-name="uring" unicode="ů" horiz-adv-x="992" d="M497 1054q-80 0-135 54t-55 134q0 78 55 132t135 54q79 0 131.5-53.5T681 1242q0-81-52.5-134.5T497 1054zm2 124q25 0 44.5 20t19.5 46q0 24-20 43t-44 19q-27 0-46.5-19t-19.5-43q0-27 19.5-46.5T499 1178zM463-12q-169 0-248.5 83T135 330v522q0 39 25.5 64.5T225 942t64.5-25.5T315 852V358q0-115 40-155.5T503 162q90 0 174 56v634q0 39 25.5 64.5T767 942t64.5-25.5T857 852V88q0-39-22.5-63.5T773 0q-54 0-81 50l-1 2Q587-12 463-12z"/><glyph glyph-name="Uhungarumlaut" unicode="Ű" horiz-adv-x="1228" d="M465 1416q-39 0-63.5 25t-24.5 61q0 19 6 34l58 151q20 52 82 52 41 0 65-23t24-59q0-16-5-30l-60-155q-9-24-33-40t-49-16zm260 0q-39 0-63.5 25t-24.5 61q0 19 6 34l58 151q20 52 82 52 39 0 64-22.5t25-57.5q0-18-5-32l-60-155q-10-26-33.5-41t-48.5-15zM613-12q-78 0-143.5 17.5t-110 46-78.5 68-53.5 79.5-32 85-16.5 80-4 68v770q0 39 26.5 63.5T267 1290q38 0 63-24.5t25-63.5V436q0-33 6-66t23.5-71.5 44.5-68 75.5-49T615 162t110 19.5 75 49 44.5 68 23 71.5 5.5 66v766q0 39 25.5 63.5T963 1290t64.5-24.5 25.5-63.5V432q0-33-4-68t-17-80-32.5-85-54-79.5-79-68-110-46T613-12z"/><glyph glyph-name="uhungarumlaut" unicode="ű" horiz-adv-x="992" d="M375 1054q-39 0-63.5 25t-24.5 61q0 19 6 34l58 151q20 52 82 52 41 0 65-23t24-59q0-16-5-30l-60-155q-9-24-33-40t-49-16zm260 0q-39 0-63.5 25t-24.5 61q0 19 6 34l58 151q20 52 82 52 39 0 64-22.5t25-57.5q0-18-5-32l-60-155q-10-26-33.5-41t-48.5-15zM463-12q-169 0-248.5 83T135 330v522q0 39 25.5 64.5T225 942t64.5-25.5T315 852V358q0-115 40-155.5T503 162q90 0 174 56v634q0 39 25.5 64.5T767 942t64.5-25.5T857 852V88q0-39-22.5-63.5T773 0q-54 0-81 50l-1 2Q587-12 463-12z"/><glyph glyph-name="Ydieresis" unicode="Ÿ" horiz-adv-x="962" d="M369 1454q-39 0-64.5 25.5T279 1544v64q0 39 25.5 64.5T369 1698t64.5-25.5T459 1608v-64q0-39-25.5-64.5T369 1454zm252 0q-39 0-64.5 25.5T531 1544v64q0 39 25.5 64.5T621 1698t64.5-25.5T711 1608v-64q0-39-25.5-64.5T621 1454zM481 0q-39 0-64.5 25.5T391 90v414q-10 10-38 50-75 108-183.5 333T41 1176q-6 21-6 30 0 37 25.5 60.5T129 1290q59 0 82-60 20-53 109-244.5T468 696l13-20q4 6 12 20 64 106 150 291t108 243q23 60 82 60 43 0 68.5-23.5T927 1206q0-9-6-30-20-65-128.5-291.5T609 550q-19-27-38-46V90q0-39-25.5-64.5T481 0z"/><glyph glyph-name="Zacute" unicode="Ź" horiz-adv-x="928" d="M297 1416q-36 0-60 24.5t-24 60.5q0 56 56 80l316 130q16 6 32 6 36 0 60-24.5t24-60.5q0-56-56-80l-316-130q-16-6-32-6zM125 0Q86 0 60.5 24.5T35 88v22q0 30 20 70 105 203 516 843l60 93H125q-39 0-63.5 24.5T37 1204t24.5 62.5T125 1290h650q39 0 64.5-23.5T865 1204v-22q0-17-2-30.5t-10.5-30-13-24-22-33L793 1029Q539 648 290 232l-35-58h548q39 0 64.5-23.5T893 88t-25.5-63.5T803 0H125z"/><glyph glyph-name="zacute" unicode="ź" horiz-adv-x="904" d="M292 1054q-36 0-60 24.5t-24 60.5q0 56 56 80l316 130q16 6 32 6 36 0 60-24.5t24-60.5q0-56-56-80l-316-130q-16-6-32-6zM163 0q-39 0-63.5 24.5T75 88q0 30 38 96 52 90 200 284 111 145 250 300H167q-39 0-64.5 23.5T77 854t25.5 63.5T167 942h538q39 0 64.5-23.5T795 854q0-54-33-103T581 524Q371 272 323 199q-12-18-16-25h432q39 0 64.5-23.5T829 88t-25.5-63.5T739 0H163z"/><glyph glyph-name="Zdotaccent" unicode="Ż" horiz-adv-x="928" d="M469 1418q-47 0-77.5 31t-30.5 77q0 45 31 76.5t77 31.5q45 0 76.5-31.5T577 1526q0-46-31.5-77t-76.5-31zM125 0Q86 0 60.5 24.5T35 88v22q0 30 20 70 105 203 516 843l60 93H125q-39 0-63.5 24.5T37 1204t24.5 62.5T125 1290h650q39 0 64.5-23.5T865 1204v-22q0-17-2-30.5t-10.5-30-13-24-22-33L793 1029Q539 648 290 232l-35-58h548q39 0 64.5-23.5T893 88t-25.5-63.5T803 0H125z"/><glyph glyph-name="zdotaccent" unicode="ż" horiz-adv-x="904" d="M457 1054q-47 0-77.5 31t-30.5 77q0 45 31 76.5t77 31.5q45 0 76.5-31.5T565 1162q0-46-31.5-77t-76.5-31zM163 0q-39 0-63.5 24.5T75 88q0 30 38 96 52 90 200 284 111 145 250 300H167q-39 0-64.5 23.5T77 854t25.5 63.5T167 942h538q39 0 64.5-23.5T795 854q0-54-33-103T581 524Q371 272 323 199q-12-18-16-25h432q39 0 64.5-23.5T829 88t-25.5-63.5T739 0H163z"/><glyph glyph-name="Zcaron" unicode="Ž" horiz-adv-x="928" d="M484 1454q-20 0-44 12l-234 126q-46 24-46 72 0 37 26 64.5t64 27.5q18 0 42-12l192-98 186 98q24 12 44 12 38 0 65-26t27-64q0-50-42-72l-238-128q-24-12-42-12zM125 0Q86 0 60.5 24.5T35 88v22q0 30 20 70 105 203 516 843l60 93H125q-39 0-63.5 24.5T37 1204t24.5 62.5T125 1290h650q39 0 64.5-23.5T865 1204v-22q0-17-2-30.5t-10.5-30-13-24-22-33L793 1029Q539 648 290 232l-35-58h548q39 0 64.5-23.5T893 88t-25.5-63.5T803 0H125z"/><glyph glyph-name="zcaron" unicode="ž" horiz-adv-x="904" d="M463 1054q-20 0-44 12l-234 126q-46 24-46 72 0 37 26 64.5t64 27.5q18 0 42-12l192-98 186 98q24 12 44 12 38 0 65-26t27-64q0-50-42-72l-238-128q-24-12-42-12zM163 0q-39 0-63.5 24.5T75 88q0 30 38 96 52 90 200 284 111 145 250 300H167q-39 0-64.5 23.5T77 854t25.5 63.5T167 942h538q39 0 64.5-23.5T795 854q0-54-33-103T581 524Q371 272 323 199q-12-18-16-25h432q39 0 64.5-23.5T829 88t-25.5-63.5T739 0H163z"/><glyph glyph-name="florin" unicode="ƒ" horiz-adv-x="1272" d="M321-228q-77 0-134.5 22.5T109-164q-34 32-34 72t24 66 60 26q31 0 54-20 41-34 108-34 42 0 79 68t59 180l98 486H447q-39 0-64.5 24.5T357 768t25.5 63.5T447 856h148l40 198q40 195 118.5 289.5T955 1438q54 0 103.5-15t70-27 32.5-22q36-28 36-72 0-37-27-63.5t-63-26.5q-21 0-36 10-1 1-9 6.5t-10.5 7.5-10.5 7-13 7l-14 5.5-17 4.5-19 2.5-23 1.5q-47 0-81-60.5T813 1016l-34-160h158q39 0 64.5-24.5T1027 768t-25.5-63.5T937 680H745L641 156Q622 63 591-8.5t-64-112-72.5-66-71-33.5-62.5-8z"/><glyph glyph-name="uni0218" unicode="Ș" horiz-adv-x="976" d="M467-12q-102 0-175 32t-159 96q-38 29-38 78 0 36 26 60t60 24q33 0 62-22 32-26 56.5-42t72-34 95.5-18q104 0 166 56t62 146q0 49-31.5 89.5t-81.5 70T471 582t-122 63-111 75-81.5 103.5T125 964q0 102 55.5 180.5t141.5 118 185 39.5q157 0 306-108 36-27 36-76 0-37-26-62.5t-60-25.5q-33 0-54 18-94 80-202 80-79 0-137.5-47.5T311 964q0-43 24.5-79t64.5-61 91.5-51.5 104.5-50T700.5 665t91.5-73 64.5-98T881 364q0-169-114.5-272.5T467-12zm-43-380q-39 0-62 21t-23 55q0 32 20.5 52.5T414-237q23 4 33 9.5t10 17.5q0 13-17 29-28 26-28 63 0 36 23 57t57 21q52 0 93.5-49T627-208q0-82-50.5-133T424-392z"/><glyph glyph-name="uni0219" unicode="ș" horiz-adv-x="826" d="M413-12q-88 0-169 25.5T114 76q-39 31-39 76 0 36 25.5 61.5T162 239q23 0 64-22 102-55 187-55 152 0 152 92 0 38-25 66t-65 47-88.5 36.5-97 40T201 496t-65 79.5T111 690q0 88 49.5 149.5t121.5 88T439 954q63 0 126.5-15T670 902q49-26 49-80 0-36-25.5-61.5T632 735q-20 0-50 12-81 33-143 33-65 0-103.5-19T297 690q0-30 25-54t65-41 88.5-35 97-42.5 88.5-56 65-83.5 25-118q0-119-91.5-195.5T413-12zm-69-380q-39 0-62 21t-23 55q0 32 20.5 52.5T334-237q23 4 33 9.5t10 17.5q0 13-17 29-28 26-28 63 0 36 23 57t57 21q52 0 93.5-49T547-208q0-82-50.5-133T344-392z"/><glyph glyph-name="uni021A" unicode="Ț" horiz-adv-x="952" d="M473 0q-39 0-64.5 25.5T383 90v1026H103q-39 0-63.5 24.5T15 1204t24.5 62.5T103 1290h746q39 0 63.5-23.5T937 1204t-24.5-63.5T849 1116H563V90q0-39-25.5-64.5T473 0zm-64-392q-39 0-62 21t-23 55q0 32 20.5 52.5T399-237q23 4 33 9.5t10 17.5q0 13-17 29-28 26-28 63 0 36 23 57t57 21q52 0 93.5-49T612-208q0-82-50.5-133T409-392z"/><glyph glyph-name="uni021B" unicode="ț" horiz-adv-x="716" d="M469-12q-47 0-86 7t-82.5 30-73 62-49 107.5T159 356v412H97q-40 0-65 24T7 855t25 63 65 24h62v174q0 39 25.5 64.5T249 1206t64.5-25.5T339 1116V942h196q40 0 65-24t25-63-25-63-65-24H339V356q0-59 13.5-100.5t36.5-60 44-26 45-7.5q43 0 82 15 4 1 13.5 5.5T588 189t14 4 19 2q34 0 57-25.5t23-61.5q0-50-51-81-64-39-181-39zM339-392q-39 0-62 21t-23 55q0 32 20.5 52.5T329-237q23 4 33 9.5t10 17.5q0 13-17 29-28 26-28 63 0 36 23 57t57 21q52 0 93.5-49T542-208q0-82-50.5-133T339-392z"/><glyph glyph-name="gravecomb" unicode="̀" d="M-179 1054q-16 0-32 6l-316 130q-56 24-56 80 0 36 24 60.5t60 24.5q16 0 32-6l316-130q56-24 56-80 0-36-24-60.5t-60-24.5z"/><glyph glyph-name="acutecomb" unicode="́" d="M-499 1054q-36 0-60 24.5t-24 60.5q0 56 56 80l316 130q16 6 32 6 36 0 60-24.5t24-60.5q0-56-56-80l-316-130q-16-6-32-6z"/><glyph glyph-name="uni0302" unicode="̂" d="M-651 1054q-39 0-64.5 24t-25.5 60q0 52 46 76l234 126q21 12 44 12 18 0 42-12l238-128q21-11 31.5-33t10.5-43q0-38-26.5-60t-65.5-22q-20 0-44 12l-186 100-192-100q-24-12-42-12z"/><glyph glyph-name="tildecomb" unicode="̃" d="M-283 1054q-15 0-28 1.5t-27.5 4.5-21.5 5-24.5 8-21.5 7q-48 16-99 16-16 0-48-17-26-15-46-15-37 0-63.5 19.5T-689 1138q0 58 56 95 55 37 128 37 43 0 120-25 53-17 102-17 17 0 45 18 26 16 51 16 36 0 64-25t28-61q0-68-85-104-41-18-103-18z"/><glyph glyph-name="uni0304" unicode="̄" d="M-615 1054q-39 0-64.5 24.5T-705 1142t25.5 62.5 64.5 23.5h430q39 0 64.5-23.5T-95 1142t-25.5-63.5-64.5-24.5h-430z"/><glyph glyph-name="uni0306" unicode="̆" d="M-371 1054q-138 0-211 78-23 25-38 57.5t-18 49-3 23.5q0 40 24.5 65t65.5 25q39 0 63.5-23t24.5-65q0-5 4.5-12.5t27-16.5 60.5-9 61.5 10 28 17 4.5 11q0 41 27.5 64.5t64.5 23.5q45 0 67.5-24t22.5-66q0-6-3-20.5t-16-44-33-53.5q-77-90-224-90z"/><glyph glyph-name="uni0307" unicode="̇" d="M-198 1054q-46 0-77 31t-31 77q0 45 31 76.5t77 31.5q45 0 76.5-31.5T-90 1162q0-46-31.5-77t-76.5-31z"/><glyph glyph-name="uni0308" unicode="̈" d="M-437 1054q-39 0-64.5 24.5T-527 1142v68q0 39 25.5 63.5t64.5 24.5 64.5-24.5 25.5-63.5v-68q0-39-25.5-63.5T-437 1054zm252 0q-39 0-64.5 24.5T-275 1142v68q0 39 25.5 63.5t64.5 24.5 64.5-24.5T-95 1210v-68q0-39-25.5-63.5T-185 1054z"/><glyph glyph-name="uni030A" unicode="̊" d="M-279 1054q-80 0-135 54t-55 134q0 78 55 132t135 54q79 0 131.5-53.5T-95 1242q0-81-52.5-134.5T-279 1054zm2 124q25 0 44.5 20t19.5 46q0 24-20 43t-44 19q-27 0-46.5-19t-19.5-43q0-27 19.5-46.5t46.5-19.5z"/><glyph glyph-name="uni030B" unicode="̋" d="M-553 1054q-39 0-63.5 25t-24.5 61q0 19 6 34l58 151q20 52 82 52 41 0 65-23t24-59q0-16-5-30l-60-155q-9-24-33-40t-49-16zm260 0q-39 0-63.5 25t-24.5 61q0 19 6 34l58 151q20 52 82 52 39 0 64-22.5t25-57.5q0-18-5-32l-60-155q-10-26-33.5-41t-48.5-15z"/><glyph glyph-name="uni030C" unicode="̌" d="M-417 1054q-20 0-44 12l-234 126q-46 24-46 72 0 37 26 64.5t64 27.5q18 0 42-12l192-98 186 98q24 12 44 12 38 0 65-26t27-64q0-50-42-72l-238-128q-24-12-42-12z"/><glyph glyph-name="uni0326" unicode="̦" d="M-491-392q-39 0-62 21t-23 55q0 32 20.5 52.5T-501-237q23 4 33 9.5t10 17.5q0 13-17 29-28 26-28 63 0 36 23 57t57 21q52 0 93.5-49t41.5-119q0-82-50.5-133T-491-392z"/><glyph glyph-name="uni0327" unicode="̧" d="M-303-436q-58 0-93 25-29 20-29 51 0 58 60 58 3 0 27-4t45-4q26 0 48 19.5t22 48.5-14.5 45.5T-277-180q-37 0-66-13t-38-13q-56 0-56 50 0 10 4 30l34 158q6 25 17 34.5t31 9.5q40 0 40-42 0-12-7-36l-19-70q36 12 74 12 72 0 120-50.5T-95-242q0-91-61.5-142.5T-303-436z"/><glyph glyph-name="uni0328" unicode="̨" d="M-311-328q-90 0-142.5 43T-506-148q0 45 23.5 86t55 68.5 76 53 74 37.5 60.5 23q15 5 30 5 28 0 45.5-18.5T-124 64q0-44-45-59-51-18-83.5-32t-64-33-46.5-40.5-15-47.5q0-54 67-54 44 0 103 24 32 13 47 13 28 0 46-18.5t18-44.5q0-37-40-58-81-42-174-42z"/><glyph glyph-name="uni0394" unicode="Δ" horiz-adv-x="1156" d="M205 0q-35 0-62.5 25T115 88q0 17 8 36l380 934q22 54 82 54 62 0 80-46l380-948q6-15 6-30 0-38-27-63T961 0H205zm132 176h494L583 780z"/><glyph glyph-name="uni03A9" unicode="Ω" horiz-adv-x="1340" d="M187 0q-39 0-65.5 24.5T95 88q0 38 26 62t66 24h102q-70 95-120 214.5T119 626q0 183 72 331.5T390.5 1190t284.5 84 284-84 198.5-232.5T1229 626q0-252-164-452h98q40 0 66-24t26-62q0-39-26.5-63.5T1163 0H809q-38 0-63 24t-25 64 21.5 63 62.5 23q10 0 35.5 18.5T901 250t66.5 90 53.5 127.5 22 158.5q0 203-104 338.5T675 1100q-161 0-265.5-135T305 626q0-81 22-157t54-127.5 66-91 59-58 33-18.5q42 0 66-23.5T629 88q0-40-24.5-64T539 0H187z"/><glyph glyph-name="uni03BC" unicode="μ" horiz-adv-x="982" d="M225-428q-39 0-64.5 25.5T135-338V856q0 39 25.5 63.5T225 944t64.5-24.5T315 856V358q0-113 39-154.5T503 162q38 0 81 15.5t63 27 30 19.5v632q0 39 25.5 63.5T767 944t64.5-24.5T857 856V90q0-39-24.5-64.5T767 0q-36 0-63 27-3 3-9 11-104-50-192-50-129 0-188 50v-376q0-39-25.5-64.5T225-428z"/><glyph glyph-name="pi" unicode="π" horiz-adv-x="1228" d="M943-12q-46 0-82 7t-73.5 30-62 62T685 194.5 669 356v412H409V90q0-39-25.5-64.5T319 0t-64.5 25.5T229 90v678h-26q-39 0-63.5 24.5T115 856t24.5 62.5T203 942h708q39 0 64.5-23.5T1001 856t-25.5-63.5T911 768h-62V356q0-62 8-102.5t22.5-59.5 29-25.5T943 162q16 0 24 6 35 26 58 26 37 0 62.5-20t25.5-60q0-56-54-91-53-35-116-35z"/><glyph glyph-name="uni2007" horiz-adv-x="1010"/><glyph glyph-name="uni2008" horiz-adv-x="440"/><glyph glyph-name="uni200B" unicode="​" horiz-adv-x="10"/><glyph glyph-name="endash" unicode="–" horiz-adv-x="990" d="M225 398q-40 0-65 23t-25 61q0 39 25.5 62.5T225 568h540q39 0 64.5-23.5T855 482q0-38-25-61t-65-23H225z"/><glyph glyph-name="emdash" unicode="—" horiz-adv-x="1202" d="M225 392q-39 0-64.5 23.5T135 478t25.5 64.5T225 568h752q39 0 64.5-25.5T1067 478t-25.5-62.5T977 392H225z"/><glyph glyph-name="quoteleft" unicode="‘" horiz-adv-x="484" d="M205 860q-40 0-65 25.5T115 960q0 30 3 70t19.5 107.5T182 1242q35 48 87 48 35 0 62.5-27t27.5-65q0-28-26-64-40-54-40-186 0-39-24.5-63.5T205 860z"/><glyph glyph-name="quoteright" unicode="’" horiz-adv-x="484" d="M215 860q-35 0-62.5 27T125 952q0 28 26 64 40 54 40 186 0 39 24.5 63.5T279 1290t64.5-23.5T369 1204v-14q0-28-3-68.5T345.5 1012 299 905q-35-45-84-45z"/><glyph glyph-name="quotesinglbase" unicode="‚" horiz-adv-x="486" d="M213-224q-35 0-62.5 27T123-132q0 28 26 64 40 54 40 186 0 39 24.5 63.5T277 206t64.5-23.5T367 120v-14q0-28-3-68.5T343.5-72 297-179q-35-45-84-45z"/><glyph glyph-name="quotedblleft" unicode="“" horiz-adv-x="754" d="M205 860q-40 0-65 25.5T115 960q0 30 3 70t19.5 107.5T182 1242q35 48 87 48 35 0 62.5-27t27.5-65q0-28-26-64-40-54-40-186 0-39-24.5-63.5T205 860zm270 0q-40 0-65 25.5T385 960q0 26 3 65t20.5 107 46.5 107q38 51 94 51 35 0 62.5-27t27.5-65-26-64q-50-50-50-186 0-39-24.5-63.5T475 860z"/><glyph glyph-name="quotedblright" unicode="”" horiz-adv-x="754" d="M205 860q-35 0-62.5 27T115 952t26 64q50 50 50 186 0 39 24.5 63.5T279 1290t64.5-23.5T369 1204v-14q0-16-2.5-45t-10-78.5-27-97.5-47.5-76q-33-33-77-33zm280 0q-35 0-62.5 27T395 952q0 28 26 64 40 54 40 186 0 39 24.5 63.5T549 1290t64.5-23.5T639 1204v-14q0-28-3-68.5T615.5 1012 569 905q-35-45-84-45z"/><glyph glyph-name="quotedblbase" unicode="„" horiz-adv-x="754" d="M205-224q-35 0-62.5 27T115-132t26 64q50 50 50 186 0 39 24.5 63.5T279 206t64.5-23.5T369 120v-14q0-16-2.5-45t-10-78.5-27-97.5-47.5-76q-33-33-77-33zm280 0q-35 0-62.5 27T395-132q0 28 26 64 40 54 40 186 0 39 24.5 63.5T549 206t64.5-23.5T639 120v-14q0-28-3-68.5T615.5-72 569-179q-35-45-84-45z"/><glyph glyph-name="dagger" unicode="†" horiz-adv-x="1090" d="M545-124q-39 0-64.5 25.5T455-34v802H205q-39 0-64.5 24.5T115 856t25.5 62.5T205 942h250v298q0 39 25.5 64.5T545 1330t64.5-25.5T635 1240V942h250q39 0 64.5-23.5T975 856t-25.5-63.5T885 768H635V-34q0-39-25.5-64.5T545-124z"/><glyph glyph-name="daggerdbl" unicode="‡" horiz-adv-x="1090" d="M545-124q-39 0-64.5 25.5T455-34v522H205q-39 0-64.5 24.5T115 576t25.5 62.5T205 662h250v106H203q-39 0-63.5 24.5T115 856t24.5 62.5T203 942h252v298q0 39 25.5 64.5T545 1330t64.5-25.5T635 1240V942h250q39 0 63.5-23.5T973 856t-24.5-63.5T885 768H635V662h250q39 0 64.5-23.5T975 576t-25.5-63.5T885 488H635V-34q0-39-25.5-64.5T545-124z"/><glyph glyph-name="bullet" unicode="•" horiz-adv-x="548" d="M275 390q-59 0-99.5 40T135 528t40.5 99 99.5 41q58 0 98-40.5t40-99.5q0-58-39.5-98T275 390z"/><glyph glyph-name="ellipsis" unicode="…" horiz-adv-x="870" d="M225-12q-39 0-64.5 25.5T135 78v64q0 39 25.5 64.5T225 232t62.5-25.5T311 142V78q0-39-23.5-64.5T225-12zm212 0q-39 0-65.5 25.5T345 78v64q0 39 26.5 64.5T437 232t63.5-25.5T525 142V78q0-39-24.5-64.5T437-12zm208 0q-39 0-64.5 25.5T555 78v64q0 39 25.5 64.5T645 232t63.5-25.5T733 142V78q0-39-24.5-64.5T645-12z"/><glyph glyph-name="perthousand" unicode="‰" horiz-adv-x="2234" d="M357 594q-118 0-190 93T95 942q0 159 73 256.5t189 97.5q117 0 190.5-98T621 942q0-162-72-255t-192-93zM408 0q-29 0-50 20.5T337 70q0 27 22 60l782 1128q22 32 61 32 29 0 50-20.5t21-49.5q0-27-22-60L469 32Q447 0 408 0zm-51 718q59 0 93.5 60.5T485 942q0 98-32.5 164t-95.5 66q-56 0-91-63.5T231 942t34.5-163.5T357 718zM1235-6q-118 0-190 93t-72 255q0 159 73 256.5t189 97.5q117 0 190.5-98t73.5-256q0-162-72-255T1235-6zm640 0q-118 0-190 93t-72 255q0 159 73 256.5t189 97.5q117 0 190.5-98t73.5-256q0-162-72-255T1875-6zm-640 124q59 0 93.5 60.5T1363 342q0 98-32.5 164t-95.5 66q-56 0-91-63.5T1109 342t34.5-163.5T1235 118zm640 0q59 0 93.5 60.5T2003 342q0 98-32.5 164t-95.5 66q-56 0-91-63.5T1749 342t34.5-163.5T1875 118z"/><glyph glyph-name="guilsinglleft" unicode="‹" horiz-adv-x="600" d="M393 92q-47 0-72 38L127 422q-12 20-12 46 0 31 14 50l192 276q25 38 74 38 39 0 64.5-26t25.5-64q0-26-18-52L309 466l162-234q14-20 14-50 0-38-26.5-64T393 92z"/><glyph glyph-name="guilsinglright" unicode="›" horiz-adv-x="600" d="M207 92q-38 0-65 26.5T115 182q0 30 14 50l162 234-158 224q-18 26-18 52 0 37 26 63.5t64 26.5q49 0 74-38l192-276q14-19 14-50 0-26-12-46L279 130q-25-38-72-38z"/><glyph glyph-name="fraction" unicode="⁄" horiz-adv-x="198" d="M-298 0q-29 0-50 20.5T-369 70q0 27 22 60l782 1128q22 32 61 32 29 0 50-20.5t21-49.5q0-27-22-60L-237 32q-22-32-61-32z"/><glyph glyph-name="uni2070" unicode="⁰" horiz-adv-x="724" d="M361 594q-118 0-190 93T99 942q0 159 73 256.5t189 97.5q117 0 190.5-98T625 942q0-162-72-255t-192-93zm0 124q59 0 93.5 60.5T489 942q0 98-32.5 164t-95.5 66q-56 0-91-63.5T235 942t34.5-163.5T361 718z"/><glyph glyph-name="uni2074" unicode="⁴" horiz-adv-x="724" d="M467 600q-26 0-45 18.5T403 666v90H177q-32 0-48 18.5T113 818q0 13 8 30 28 63 68.5 129.5t75 114T336 1183t53 61.5 24 25.5q20 20 50 20 26 0 44-19t18-41q0-30-20-50-145-145-232-300h130v74q0 30 18.5 48t45.5 18 46.5-18 19.5-48v-74h8q32 0 50-16t18-46q0-27-18.5-44.5T541 756h-8v-90q0-29-19.5-47.5T467 600z"/><glyph glyph-name="uni2075" unicode="⁵" horiz-adv-x="724" d="M337 594q-48 0-91.5 14.5T187 633t-22 17q-24 24-24 54 0 27 19 45.5t43 18.5q25 0 50-22 31-28 84-28 44 0 76 30.5t32 91.5q0 43-31.5 73.5T337 944q-33 0-78-26-19-10-38-10-27 0-46.5 14.5T155 968v260q0 31 19 46.5t47 15.5h256q26 0 45-18t19-44q0-29-18.5-45.5T477 1166H285v-104q27 6 52 6 105 0 174.5-65T581 840q0-64-22.5-113.5t-59-77.5-77.5-41.5-85-13.5z"/><glyph glyph-name="uni2076" unicode="⁶" horiz-adv-x="724" d="M365 594q-113 0-178.5 84T121 914q0 199 63.5 290.5T383 1296q49 0 90.5-13.5t56-23.5 23.5-19q20-20 20-50 0-24-17-43t-43-19q-27 0-54 20-30 24-76 24-41 0-71.5-26.5T267 1044l-2-11q48 41 117 41 58 0 103-24t69-61 35.5-74.5T601 842q0-30-7-61.5T570 715t-43-60.5-68-43.5-94-17zm0 124q53 0 76.5 39t23.5 85q0 38-23.5 73T365 950t-76.5-35-23.5-73q0-46 23.5-85t76.5-39z"/><glyph glyph-name="uni2077" unicode="⁷" horiz-adv-x="724" d="M297 600q-66 0-66 62 0 118 148 376 31 54 68 128H193q-28 0-47 16.5t-19 45.5q0 24 19.5 43t46.5 19h338q27 0 46.5-17.5T597 1228q0-30-19-78.5t-34.5-78.5L491 974Q361 739 361 662q0-28-19-45t-45-17z"/><glyph glyph-name="uni2078" unicode="⁸" horiz-adv-x="724" d="M361 594q-111 0-177.5 57.5T117 804q0 53 25.5 100t60.5 62q-30 10-49 46.5t-19 79.5q0 57 23 99t59 63.5 72.5 31.5 71.5 10q97 0 163.5-51.5T591 1092q0-42-20.5-81.5T519 958q36-14 62-57t26-97q0-100-63.5-155T361 594zm46 408q18 5 33 31t15 59q0 43-29.5 61.5T361 1172q-33 0-61.5-18.5T271 1092q0-44 35.5-62.5T407 1002zm-46-284q44 0 77 20t33 66q0 25-13.5 43t-40 28-50 15-58.5 10q-22-5-39-32t-17-64q0-43 32.5-64.5T361 718z"/><glyph glyph-name="uni2079" unicode="⁹" horiz-adv-x="724" d="M339 594q-49 0-90.5 13.5t-56 23.5-23.5 19q-20 20-20 50 0 24 17 43t43 19q27 0 54-20 30-24 76-24 50 0 78 34t40 105q-48-41-117-41-58 0-103 24t-69 61-35.5 74.5T121 1048q0 30 7 61.5t24 65.5 43 60.5 68 43.5 94 17q113 0 178.5-84T601 976q0-199-63.5-290.5T339 594zm18 346q53 0 76.5 35t23.5 73q0 46-23.5 85t-76.5 39-76.5-39-23.5-85q0-38 23.5-73t76.5-35z"/><glyph glyph-name="uni2080" unicode="₀" horiz-adv-x="719" d="M361-272q-118 0-190 93T99 76q0 159 73 256.5T361 430q117 0 190.5-98T625 76q0-162-72-255t-192-93zm0 124q59 0 93.5 60.5T489 76q0 98-32.5 164T361 306q-56 0-91-63.5T235 76t34.5-163.5T361-148z"/><glyph glyph-name="uni2081" unicode="₁" horiz-adv-x="575" d="M289-266q-29 0-46.5 18T225-200v444l-16-10q-12-8-28-8-24 0-42 17.5T121 290q0 33 30 54l102 68q16 12 38 12 26 0 45-18t19-48v-558q0-30-18.5-48T289-266z"/><glyph glyph-name="uni2082" unicode="₂" horiz-adv-x="783" d="M213-266q-23 0-42.5 17T151-204q0 59 42 117.5T311 46q44 43 68.5 69t46 58 21.5 53q0 44-25 62t-55 18q-50 0-98-32-18-12-40-12-25 0-42.5 19T169 326q0 34 30 54 71 50 168 50 23 0 46.5-3.5t56-16 56-33 40.5-60 17-91.5q0-36-13.5-70T525 84t-52-59.5L407-40q-69-66-96-102h204q29 0 46.5-17t17.5-45q0-29-17.5-45.5T515-266H213z"/><glyph glyph-name="uni2083" unicode="₃" horiz-adv-x="797" d="M369-272q-58 0-107 15t-65.5 25.5T173-214q-18 18-18 48 0 27 19 44.5t43 17.5q21 0 50-20 36-24 102-24 42 0 70 24.5T467-64q0 44-34 65t-82 21h-26q-29 0-45.5 16T263 84q0 28 16.5 45t45.5 17h26q42 0 73 20.5t31 59.5q0 33-18 52.5T402 302t-35 4q-45 0-94-32-20-12-36-12-24 0-43 17.5T175 326q0 24 28 50 18 17 62.5 35.5T367 430q98 0 161-48t63-152q0-45-22-87.5T511 86q38-18 65-62.5T603-62q0-91-68-150.5T369-272z"/><glyph glyph-name="uni2084" unicode="₄" horiz-adv-x="719" d="M467-266q-26 0-45 18.5T403-200v90H177q-32 0-48 18.5T113-48q0 13 8 30 28 63 68.5 129.5t75 114T336 317t53 61.5 24 25.5q20 20 50 20 26 0 44-19t18-41q0-30-20-50Q360 169 273 14h130v74q0 30 18.5 48t45.5 18 46.5-18T533 88V14h8q32 0 50-16t18-46q0-27-18.5-44.5T541-110h-8v-90q0-29-19.5-47.5T467-266z"/><glyph glyph-name="uni2085" unicode="₅" horiz-adv-x="719" d="M337-272q-48 0-91.5 14.5T187-233t-22 17q-24 24-24 54 0 27 19 45.5T203-98q25 0 50-22 31-28 84-28 44 0 76 30.5T445-26q0 43-31.5 73.5T337 78q-33 0-78-26-19-10-38-10-27 0-46.5 14.5T155 102v260q0 31 19 46.5t47 15.5h256q26 0 45-18t19-44q0-29-18.5-45.5T477 300H285V196q27 6 52 6 105 0 174.5-65T581-26q0-64-22.5-113.5t-59-77.5-77.5-41.5-85-13.5z"/><glyph glyph-name="uni2086" unicode="₆" horiz-adv-x="719" d="M365-272q-113 0-178.5 84T121 48q0 199 63.5 290.5T383 430q49 0 90.5-13.5t56-23.5 23.5-19q20-20 20-50 0-24-17-43t-43-19q-27 0-54 20-30 24-76 24-41 0-71.5-26.5T267 178l-2-11q48 41 117 41 58 0 103-24t69-61 35.5-74.5T601-24q0-30-7-61.5T570-151t-43-60.5-68-43.5-94-17zm0 124q53 0 76.5 39T465-24q0 38-23.5 73T365 84t-76.5-35T265-24q0-46 23.5-85t76.5-39z"/><glyph glyph-name="uni2087" unicode="₇" horiz-adv-x="719" d="M297-266q-66 0-66 62 0 118 148 376 31 54 68 128H193q-28 0-47 16.5T127 362q0 24 19.5 43t46.5 19h338q27 0 46.5-17.5T597 362q0-30-19-78.5T543.5 205L491 108Q361-127 361-204q0-28-19-45t-45-17z"/><glyph glyph-name="uni2088" unicode="₈" horiz-adv-x="719" d="M361-272q-111 0-177.5 57.5T117-62q0 53 25.5 100t60.5 62q-30 10-49 46.5T135 226q0 57 23 99t59 63.5 72.5 31.5 71.5 10q97 0 163.5-51.5T591 226q0-42-20.5-81.5T519 92q36-14 62-57t26-97q0-100-63.5-155T361-272zm46 408q18 5 33 31t15 59q0 43-29.5 61.5T361 306q-33 0-61.5-18.5T271 226q0-44 35.5-62.5T407 136zm-46-284q44 0 77 20t33 66q0 25-13.5 43t-40 28-50 15T309 34q-22-5-39-32t-17-64q0-43 32.5-64.5T361-148z"/><glyph glyph-name="uni2089" unicode="₉" horiz-adv-x="719" d="M339-272q-49 0-90.5 13.5t-56 23.5-23.5 19q-20 20-20 50 0 24 17 43t43 19q27 0 54-20 30-24 76-24 50 0 78 34T457-9q-48-41-117-41-58 0-103 24t-69 61-35.5 74.5T121 182q0 30 7 61.5t24 65.5 43 60.5 68 43.5 94 17q113 0 178.5-84T601 110q0-199-63.5-290.5T339-272zm18 346q53 0 76.5 35t23.5 73q0 46-23.5 85T357 306t-76.5-39-23.5-85q0-38 23.5-73T357 74z"/><glyph glyph-name="Euro" unicode="€" horiz-adv-x="1280" d="M1075 254q42 0 66-26.5t24-65.5q0-41-32-66-67-53-163-80.5T769-12Q602-12 457 99.5T252 404h-47q-39 0-64.5 21.5T115 488q0 39 25.5 62.5T205 574h15q-3 33-3 67 0 30 1 45h-13q-39 0-64.5 21.5T115 770q0 39 25.5 62.5T205 856h39q54 202 196 324t330 122q205 0 310-76 45-31 45-79 0-39-28.5-63.5T1033 1059q-28 0-57 16-52 29-92.5 41T770 1128q-107 0-198-72.5T437 856h449q40 0 65-23t25-61q0-39-25.5-62.5T886 686H403q-1-15-1-45 0-34 3-67h481q40 0 65-23t25-61q0-39-25.5-62.5T886 404H448q50-115 139.5-179.5T769 160q74 0 130.5 18.5T1017 236q28 18 58 18z"/><glyph glyph-name="trademark" unicode="™" horiz-adv-x="1478" d="M377 746q-29 0-47.5 19T311 812v532H181q-28 0-47 17.5t-19 46.5 19 46.5 47 17.5h398q28 0 47-17.5t19-46.5-19-46.5-47-17.5H443V812q0-28-18.5-47T377 746zm312 0q-28 0-46 17.5T625 814q0 9 3 32t4 30l63 538q3 24 23 41t41 17h38q46 0 60-48l136-470 142 470q6 21 23 34.5t39 13.5h36q25 0 43-17.5t21-42.5l60-545q1-6 2.5-16.5t2.5-19.5 1-17q0-29-17.5-48.5T1301 746q-26 0-46.5 15.5T1231 804l-40 410q-10-32-52-179t-72-243q-15-46-60-46h-28q-49 0-62 46l-120 426-40-414q-3-27-22.5-42.5T689 746z"/><glyph glyph-name="uni2126" unicode="Ω" horiz-adv-x="1350" d="M187 0q-39 0-65.5 24.5T95 88q0 38 26 62t66 24h102q-70 95-120 214.5T119 626q0 183 72 331.5T390.5 1190t284.5 84 284-84 198.5-232.5T1229 626q0-252-164-452h98q40 0 66-24t26-62q0-39-26.5-63.5T1163 0H809q-38 0-63 24t-25 64 21.5 63 62.5 23q10 0 35.5 18.5T901 250t66.5 90 53.5 127.5 22 158.5q0 203-104 338.5T675 1100q-161 0-265.5-135T305 626q0-81 22-157t54-127.5 66-91 59-58 33-18.5q42 0 66-23.5T629 88q0-40-24.5-64T539 0H187z"/><glyph glyph-name="partialdiff" unicode="∂" horiz-adv-x="970" d="M479-12q-72 0-131.5 19T247 57.5 174.5 133t-50 90-30 99T79 419t-4 89q0 63 14 124t45.5 120 78 103.5T330 927t157 27q50 0 106-21.5T695 874q-28 140-107.5 232T439 1198q-118 0-186-36-24-12-48-12-39 0-65.5 25.5T113 1238q0 62 40 82 101 52 286 52 57 0 118-24.5t122-79 108.5-131 77.5-191T895 698q0-345-108-527.5T479-12zm0 174q110 0 168.5 127T709 660Q589 780 487 780q-62 0-107.5-24T309 691t-36.5-86.5T261 508t5-96 20-92.5 38.5-81 63-55T479 162z"/><glyph glyph-name="uni2206" unicode="∆" horiz-adv-x="1166" d="M205 0q-35 0-62.5 25T115 88q0 17 8 36l380 934q22 54 82 54 62 0 80-46l380-948q6-15 6-30 0-38-27-63T961 0H205zm132 176h494L583 780z"/><glyph glyph-name="product" unicode="∏" horiz-adv-x="1394" d="M343-496q-39 0-64.5 25.5T253-406v1510h-48q-39 0-64.5 23.5T115 1190t25.5 63.5T205 1278h980q39 0 64.5-24.5t25.5-63.5-25.5-62.5-64.5-23.5h-44V-406q0-39-24.5-64.5T1053-496t-64.5 25.5T963-406v1510H431V-406q0-39-24.5-64.5T343-496z"/><glyph glyph-name="summation" unicode="∑" horiz-adv-x="998" d="M205-496q-43 0-66.5 24T115-408q0 20 14 50l370 752-368 732q-14 30-14 52 0 39 24.5 62.5T205 1264h596q40 0 66-24t26-62q0-39-26.5-63.5T801 1090H361l316-646q12-24 12-48 0-20-12-46L355-322h446q40 0 66-24t26-62q0-41-26-64.5T801-496H205z"/><glyph glyph-name="minus" unicode="−" horiz-adv-x="1190" d="M231 396q-39 0-64.5 23.5T141 482t25.5 63.5T231 570h728q39 0 64.5-24.5T1049 482t-25.5-62.5T959 396H231z"/><glyph glyph-name="uni2219" unicode="∙" horiz-adv-x="1190" d="M596 390q-59 0-99.5 40T456 528t41 99 99 41 98-40.5 40-99.5q0-58-40-98t-98-40z"/><glyph glyph-name="radical" unicode="√" horiz-adv-x="1336" d="M691 0q-63 0-84 62L383 732l-152-54q-12-4-26-4-40 0-65 25.5T115 766q0 28 17.5 50.5T177 848l236 78q11 4 26 4 26 0 49.5-16t30.5-38l176-520 354 944q9 24 32.5 39t49.5 15q42 0 66-26t24-62q0-12-6-30L773 60q-10-26-34-43T691 0z"/><glyph glyph-name="infinity" unicode="∞" horiz-adv-x="1602" d="M471 242q-122 0-209 86.5T175 538q0 126 86 211t210 85q89 0 178-49.5T809 668q186 166 316 166 126 0 214-86t88-210q0-125-87.5-210.5T1125 242q-151 0-320 164-178-164-334-164zm0 174q89 0 216 122-127 122-216 122-48 0-79-35t-31-87q0-47 33-84.5t77-37.5zm654 0q50 0 83 36.5t33 85.5-33.5 85.5T1125 660q-67 0-196-124 130-120 196-120z"/><glyph glyph-name="integral" unicode="∫" horiz-adv-x="1180" d="M361-218q-128 0-210 64-36 29-36 76 0 37 26 63.5T201 12q28 0 52-20 45-36 108-36 50 0 95 56t45 174v962q0 92 22 165t56 117 78 73 84.5 40 79.5 11q125 0 210-66 34-28 34-74 0-38-23-63t-63-25q-33 0-56 20l-5 4-9 6.5-14 8-19 7.5-24.5 5.5-30.5 2.5q-50 0-95-56.5T681 1148V186q0-91-22-163.5T603-94t-78-73-84.5-40-79.5-11z"/><glyph glyph-name="approxequal" unicode="≈" horiz-adv-x="1190" d="M773 530q-64 0-130 25l-126 50-110 25q-34 0-66-28-30-28-60-28-39 0-64.5 23.5T191 660q0 38 26 64 12 12 32 27t66 34 92 19q64 0 130-25l126-50 110-25q33 0 62 27l10.5 10 12.5 11 11.5 7.5 16.5 7 17 1.5q36 0 65-27t29-65q0-32-28-60-13-13-34-29t-68.5-36.5T773 530zm0-280q-64 0-130 25l-126 50-110 25q-7 0-13.5-.5t-13-3-10-3.5-9.5-5.5-7.5-5.5-7.5-6l-7-6q-30-26-58-26-38 0-64 24t-26 62 26 64q12 12 32 27t66 34 92 19q64 0 130-25l126-50 110-25q36 0 65 31 29 33 65 33t65-27 29-65q0-32-28-60-13-13-34-29t-68.5-36.5T773 250z"/><glyph glyph-name="notequal" unicode="≠" horiz-adv-x="1190" d="M397 86q-38 0-64 22t-26 60q0 29 16 56l24 42h-94q-40 0-65 23t-25 61q0 39 25.5 62.5T253 436h206l66 104H253q-39 0-64.5 23.5T163 626t25.5 63.5T253 714h384l92 144q27 42 74 42 33 0 62.5-25t29.5-59q0-27-18-54l-32-48h92q39 0 64.5-24.5T1027 626t-25.5-62.5T937 540H735l-66-104h268q39 0 64.5-23.5T1027 350q0-38-25-61t-65-23H557l-86-138q-27-42-74-42z"/><glyph glyph-name="lessequal" unicode="≤" horiz-adv-x="1190" d="M935 212q-18 0-42 12L215 580q-29 15-40.5 32T163 658q0 51 52 78l680 350q24 12 48 12 36 0 60-27t24-65q0-51-54-78L445 658l530-278q21-11 34.5-34t13.5-48q0-37-28.5-61.5T935 212zM253 0q-39 0-64.5 24.5T163 88t25.5 62.5T253 174h682q39 0 64.5-23.5T1025 88t-25.5-63.5T935 0H253z"/><glyph glyph-name="greaterequal" unicode="≥" horiz-adv-x="1190" d="M255 212q-31 0-59.5 24.5T167 298q0 25 13.5 48t34.5 34l530 278-528 270q-54 27-54 78 0 38 24 65t60 27q24 0 48-12l680-350q27-14 39.5-31t12.5-47q0-31-11-46.5T975 580L297 224q-24-12-42-12zm0-212q-39 0-64.5 24.5T165 88t25.5 62.5T255 174h682q39 0 64.5-23.5T1027 88t-25.5-63.5T937 0H255z"/><glyph glyph-name="dotmath" unicode="⋅" horiz-adv-x="1190" d="M595 432q-47 0-77.5 30T487 538q0 48 30.5 79t77.5 31 77.5-31 30.5-79q0-46-30.5-76T595 432z"/><glyph glyph-name="lozenge" unicode="◊" horiz-adv-x="1242" d="M611 0q-48 0-74 42L183 604q-8 13-8 36 0 30 14 50l350 532q11 17 31.5 27.5T611 1260q54 0 80-38l364-532q12-19 12-52 0-28-14-50L691 38Q665 0 611 0zm4 254l250 380-252 372-240-372z"/><glyph glyph-name="fi" unicode="ﬁ" horiz-adv-x="1112" d="M249 0q-39 0-64.5 25.5T159 90v678H97q-40 0-65 23T7 852q0 39 25.5 64.5T97 942h62v50q0 91 29.5 161t73.5 110.5 104 66 112 34 105 8.5q95 0 196.5-24.5T939 1280q38-28 38-68v-68q0-39-25.5-64.5T887 1054t-64.5 25.5T797 1144v20q-32 13-99.5 23.5T583 1198q-246 0-246-206v-50h202q39 0 64.5-23.5T629 856t-25.5-63.5T539 768H339V90q0-39-25.5-64.5T249 0zm638 0q-39 0-64.5 25.5T797 90v762q0 39 25.5 64.5T887 942t64.5-25.5T977 852V90q0-39-25.5-64.5T887 0z"/><glyph glyph-name="fl" unicode="ﬂ" horiz-adv-x="1154" d="M249 0q-39 0-64.5 25.5T159 90v678H97q-39 0-64.5 24.5T7 856t25.5 62.5T97 942h62v50q0 96 33 168.5t79.5 111.5 109.5 63 109.5 30.5 92.5 6.5q90 0 192-25t162-67q40-27 40-72V354q0-103 14-139.5t56-36.5q39 0 64.5-24.5T1137 90t-25.5-64.5T1047 0Q902 0 849.5 74T797 354v810q-32 13-99.5 23.5T585 1198q-246 0-246-206v-50h200q39 0 64.5-23.5T629 856t-25.5-63.5T539 768H339V90q0-39-25.5-64.5T249 0z"/><glyph glyph-name="uniFEFF" horiz-adv-x="10"/><glyph glyph-name="J.ss01" horiz-adv-x="788" d="M273-12q-57 0-109.5 14T88 28.5 51 52q-36 28-36 78 0 35 24.5 61.5T97 218q23 0 56-20 2-1 9-6t12-8 15.5-7.5T211 169t27-5 35-2q25 0 51.5 12t51.5 37.5 41 73T433 394v808q0 39 25.5 63.5T523 1290t64.5-24.5T613 1202V394q0-91-23.5-164T530 113t-83-73.5T357-1t-84-11z"/><glyph glyph-name="t_t" horiz-adv-x="1442" d="M469-12q-47 0-86 7t-82.5 30-73 62-49 107.5T159 356v412H97q-40 0-65 24T7 855t25 63 65 24h62v174q0 39 25.5 64.5T249 1206t64.5-25.5T339 1116V942h546v174q0 39 25.5 64.5T975 1206t64.5-25.5 25.5-64.5V942h196q40 0 65-24t25-63-25-63-65-24h-196V356q0-59 13.5-100.5t36.5-60 44-26 45-7.5q20 0 37 3t24 5 21.5 8 16.5 7q24 10 44 10 34 0 57-25.5t23-61.5q0-50-51-81-64-39-181-39-47 0-86 7t-82.5 30-73 62-49 107.5T885 356v412H339V356q0-59 13.5-100.5t36.5-60 44-26 45-7.5q46 0 86 18 33 15 57 15 34 0 57-25.5t23-61.5q0-50-51-81-64-39-181-39z"/><glyph glyph-name="zero.tf" horiz-adv-x="1020" d="M500-12q-219 0-344.5 172T30 638q0 305 126.5 484.5T500 1302q218 0 344-179t126-485-125-478T500-12zm0 174q131 0 207.5 128.5T784 638q0 222-77 356t-207 134q-131 0-207.5-134T216 638q0-220 76-348t208-128z"/><glyph glyph-name="one.tf" horiz-adv-x="1020" d="M282 0q-39 0-64.5 23.5T192 86t25.5 63.5T282 174h210v868L340 938q-20-14-48-14-39 0-65.5 25.5T200 1012q0 53 40 78l290 186q21 14 52 14 39 0 64.5-25.5T672 1200V174h184q39 0 64.5-24.5T946 86t-25.5-62.5T856 0H282z"/><glyph glyph-name="two.tf" horiz-adv-x="1020" d="M188 0q-39 0-64.5 24.5T98 88q0 79 60 173.5t145.5 182l171 172L620 784l60 148q0 59-19.5 100t-52 60.5-63 27.5-63.5 8q-97 0-212-74-27-16-48-16-39 0-65.5 26t-26.5 64q0 49 48 80 39 26 71.5 42.5t97 34T482 1302q29 0 57.5-2.5t68-12T681 1263t69.5-43.5 60-66 40-94.5T866 932q0-43-12-86.5t-39.5-89-52.5-82-71-86l-74-78-82-81-75-73.5Q348 244 308 174h470q39 0 64.5-23.5T868 88t-25.5-63.5T778 0H188z"/><glyph glyph-name="three.tf" horiz-adv-x="1020" d="M472-12q-75 0-141.5 13.5T221.5 35t-65 33.5T124 92q-38 35-38 74 0 38 28 64t64 26q13 0 24.5-4t18-8 20-15 20.5-16q71-51 211-51 95 0 162.5 60T702 362q0 54-24 95t-64 63.5-84.5 33T438 564h-46q-42 0-66 23.5T302 650t25.5 63.5T392 738h46q59 0 113 19t93.5 65T684 934q0 48-16.5 85t-40 57-55.5 32.5-57 16-49 3.5q-94 0-200-74-23-16-50-16-39 0-64.5 26t-25.5 64q0 39 36 72 35 32 118.5 67t185.5 35q177 0 290.5-95.5T870 934q0-55-16-103t-37-76.5-47.5-51-42-31.5-25.5-12q11-3 27.5-9.5t46.5-29 53-52.5 41-85 18-122q0-155-124.5-264.5T472-12z"/><glyph glyph-name="four.tf" horiz-adv-x="1020" d="M694 0q-39 0-64.5 25.5T604 90v222H112q-45 0-68.5 26.5T20 398q0 21 14 47 215 404 576 821 21 24 66 24 37 0 62.5-25t25.5-59q0-42-30-72-140-142-267.5-312T252 486h352v302q0 39 25.5 64.5T694 878t64.5-25.5T784 788V486h48q39 0 64.5-24.5T922 398t-25.5-62.5T832 312h-48V90q0-39-25.5-64.5T694 0z"/><glyph glyph-name="five.tf" horiz-adv-x="1020" d="M450-12Q263-12 134 90q-34 26-34 72 0 36 27.5 64t60.5 28q38 0 62-22 14-12 33.5-24.5t68-29T450 162q46 0 88.5 15.5t78.5 47 57.5 86.5T696 438q0 101-70 169.5T450 676q-97 0-178-54-22-16-54-16-34 0-59 21.5T130 692v512q0 39 25.5 62.5T220 1290h504q39 0 64.5-23.5T814 1204t-25.5-63.5T724 1116H310V826q72 24 140 24 185 0 308.5-117T882 438q0-95-26.5-172.5t-69.5-128-100-85T570 3 450-12z"/><glyph glyph-name="six.tf" horiz-adv-x="1020" d="M524-12q-131 0-226 62T150 231Q86 374 86 586q0 373 113 544.5T556 1302q196 0 302-102 32-31 32-70 0-36-22.5-62t-59.5-26q-33 0-82 34-75 52-170 52-40 0-73.5-8.5t-70-34-63-67.5T303 903.5 275 733v-1q99 126 270 126 86 0 156-27.5t113-71T886 659t40.5-111.5T938 439q0-57-11.5-115t-42-120T809 95 690 18 524-12zm0 174q61 0 107 25.5t71.5 67 37.5 88 12 96.5q0 41-12.5 82T702 599.5t-71 61T524 684t-107.5-23.5-71.5-61-37-78-12-82.5q0-50 12-96.5t37.5-88 71.5-67T524 162z"/><glyph glyph-name="seven.tf" horiz-adv-x="1020" d="M358 0q-39 0-64.5 25.5T268 90q0 72 25 162.5t74.5 197 88 180L556 814q125 223 156 302H152q-39 0-64.5 24.5T62 1204t25.5 62.5T152 1290h674q40 0 65-24t25-66q0-109-206-474Q448 262 448 90q0-39-25.5-64.5T358 0z"/><glyph glyph-name="eight.tf" horiz-adv-x="1020" d="M502-12Q308-12 188 92T68 372q0 93 43.5 173T226 682q-124 77-124 254 0 83 28 149t71 105.5 98.5 65.5 105.5 36 97 10q61 0 118.5-13.5t110-42.5 91.5-71 62.5-103.5T908 936q0-145-142-278 83-45 127.5-121.5T938 372q0-184-113.5-284T502-12zm86 740q48 9 91 73t43 135q0 52-22 91.5t-57 60.5-70.5 30.5-70.5 9.5q-33 0-67.5-9.5t-69-30.5-56-60.5T288 936q0-190 300-208zm-86-566q47 0 88.5 10t79.5 32.5 60 65.5 22 102q0 50-24.5 87.5t-67 59.5-83.5 34.5-89 18.5l-90 12q-57-6-100.5-64.5T254 372q0-71 39-120.5t93-69.5 116-20z"/><glyph glyph-name="nine.tf" horiz-adv-x="1020" d="M454-12q-56 0-106.5 10t-82 22.5T206 50t-37.5 25T152 90q-32 30-32 70 0 36 22.5 62t59.5 26q33 0 82-34 75-52 170-52 62 0 109.5 23t76.5 58 49 90 29.5 106T734 558q-99-126-269-126-103 0-182.5 40T159 576.5t-65.5 134T72 851q0 57 12.5 115.5T128 1086t77 108.5 118.5 77.5 162.5 30q243 0 355-205 83-152 83-393 0-373-113-544.5T454-12zm32 618q61 0 107.5 23.5t71.5 61 37 78 12 82.5q0 50-12 96.5t-37.5 88-71.5 67-107 25.5-107-25.5-71.5-67.5-37.5-88.5-12-96.5q0-41 12.5-81.5t37.5-78 71-61T486 606z"/><glyph glyph-name="uni2070.001" horiz-adv-x="381" d="M185 835q-77 0-126 62.5T10 1066t49.5 168 125.5 62 126-62.5 50-167.5q0-106-49.5-168.5T185 835zm0 105q29 0 41 31t12 95q0 63-12 94t-41 31q-52 0-52-125 0-126 52-126z"/><glyph glyph-name="uni00B9.001" horiz-adv-x="249" d="M176 835q-27 0-42.5 15.5T118 894v246l-29-19q-18-12-36-12-22 0-36 14.5T3 1160q0 33 32 54l105 70q19 12 38 12 24 0 40.5-15.5T235 1240V894q0-28-16-43.5T176 835z"/><glyph glyph-name="uni00B2.001" horiz-adv-x="340" d="M72 842q-22 0-36.5 15.5T21 899q0 96 98 174 57 46 64 57 7 10 7 21 0 38-38 38-19 0-40-9-37-16-47-16-23 0-36.5 14T15 1214q0 27 34 51 43 31 106 31 75 0 117-39t42-106q0-43-26.5-75t-72.5-64q-65-44-74-60h120q26 0 42.5-15.5T320 897q0-25-16.5-40T261 842H72z"/><glyph glyph-name="uni00B3.001" horiz-adv-x="340" d="M154 835q-68 0-114 40-23 21-23 47 0 21 14.5 35.5T70 972q7 0 14-2t10.5-3.5 11-6T116 955q24-13 42-13 42 0 42 36 0 41-42 41h-12q-28 0-44 14.5T86 1072q0 53 60 53h12q30 0 30 33 0 31-34 31-15 0-33-8-37-17-47-17-22 0-36 14t-14 36q0 29 34 52 45 30 103 30 69 0 110-33t41-93q0-63-63-96 38-13 56.5-40t18.5-59q0-68-47.5-104T154 835z"/><glyph glyph-name="uni2074.001" horiz-adv-x="363" d="M222 835q-26 0-42 15.5T164 894v29H52q-30 0-46 14.5T-10 975q0 17 6 42 16 67 50.5 134.5T116 1262q27 34 62 34 27 0 43-16t16-41q0-23-33-63-68-80-86-143h46v22q0 28 16.5 44.5T222 1116t42-16.5 17-44.5v-22h12q63 0 63-55 0-26-17-40.5T293 923h-12v-29q0-27-17-43t-42-16z"/><glyph glyph-name="uni2075.001" horiz-adv-x="340" d="M158 835q-78 0-122 40-23 21-23 47 0 23 16 36.5T66 972q17 0 46-17 24-13 42-13 20 0 33 12.5t13 35.5q0 21-13 31.5t-32 10.5q-14 0-38-9-25-10-43-10-23 0-40 13t-17 39v163q0 31 19 46.5t47 15.5h167q26 0 42.5-15t16.5-40q0-24-16.5-39.5T250 1180H134v-60q30 15 58 15 58 0 94-36.5t36-98.5q0-72-48-118.5T158 835z"/><glyph glyph-name="uni2076.001" horiz-adv-x="360" d="M214 1136q59 0 93.5-40T342 992q0-65-46.5-111T180 835q-79 0-123.5 54T12 1039q0 119 51 188t134 69q56 0 101-30 34-23 34-52 0-24-15-37t-35-13q-15 0-45 16-20 11-35 11-27 0-41.5-19t-20.5-65q27 29 74 29zm-34-191q38 0 38 47t-38 47-38-47 38-47z"/><glyph glyph-name="uni2077.001" horiz-adv-x="350" d="M120 835q-26 0-41 14.5T64 891q0 85 75 199 10 16 33 46.5t32 43.5H69q-26 0-42.5 15T10 1235q0 24 16.5 39.5T69 1290h205q26 0 41.5-15t15.5-40q0-9-1.5-16.5t-3.5-14-9-18l-12.5-20.5-19-30.5L261 1095q-46-76-75-204-13-56-66-56z"/><glyph glyph-name="uni2078.001" horiz-adv-x="353" d="M169 835q-71 0-118.5 36T3 972q0 71 64 108-52 24-52 83 0 64 46 98.5t111 34.5q68 0 112.5-34t44.5-99q0-25-15.5-49t-40.5-39q35-17 50.5-41t15.5-62q0-67-48.5-102T169 835zm21 281q22 20 22 44 0 31-40 31-17 0-28-8.5t-11-22.5q0-25 57-44zm-21-176q22 0 37.5 11.5T222 982q0 14-17 23.5t-60 23.5q-24-15-24-46 0-19 13-31t35-12z"/><glyph glyph-name="uni2079.001" horiz-adv-x="360" d="M174 1296q80 0 124-50t44-144q0-123-51.5-195T157 835q-56 0-101 30-34 23-34 52 0 24 15 37t35 13q15 0 45-16 20-11 35-11 27 0 41.5 18.5T215 1024q-31-29-75-29-59 0-93.5 40T12 1139q0 65 46.5 111t115.5 46zm0-204q38 0 38 47t-38 47-38-47 38-47z"/><glyph glyph-name="zero.dnom" horiz-adv-x="719" d="M361-6Q243-6 171 87T99 342q0 159 73 256.5T361 696q117 0 190.5-98T625 342q0-162-72-255T361-6zm0 124q59 0 93.5 60.5T489 342q0 98-32.5 164T361 572q-56 0-91-63.5T235 342t34.5-163.5T361 118z"/><glyph glyph-name="one.dnom" horiz-adv-x="575" d="M289 0q-29 0-46.5 18T225 66v444l-16-10q-12-8-28-8-24 0-42 17.5T121 556q0 33 30 54l102 68q16 12 38 12 26 0 45-18t19-48V66q0-30-18.5-48T289 0z"/><glyph glyph-name="two.dnom" horiz-adv-x="783" d="M213 0q-23 0-42.5 17T151 62q0 59 42 117.5T311 312q44 43 68.5 69t46 58 21.5 53q0 44-25 62t-55 18q-50 0-98-32-18-12-40-12-25 0-42.5 19T169 592q0 34 30 54 71 50 168 50 23 0 46.5-3.5t56-16 56-33 40.5-60 17-91.5q0-36-13.5-70T525 350t-52-59.5L407 226q-69-66-96-102h204q29 0 46.5-17T579 62q0-29-17.5-45.5T515 0H213z"/><glyph glyph-name="three.dnom" horiz-adv-x="797" d="M369-6Q311-6 262 9t-65.5 25.5T173 52q-18 18-18 48 0 27 19 44.5t43 17.5q21 0 50-20 36-24 102-24 42 0 70 24.5t28 59.5q0 44-34 65t-82 21h-26q-29 0-45.5 16T263 350q0 28 16.5 45t45.5 17h26q42 0 73 20.5t31 59.5q0 33-18 52.5T402 568t-35 4q-45 0-94-32-20-12-36-12-24 0-43 17.5T175 592q0 24 28 50 18 17 62.5 35.5T367 696q98 0 161-48t63-152q0-45-22-87.5T511 352q38-18 65-62.5t27-85.5q0-91-68-150.5T369-6z"/><glyph glyph-name="four.dnom" horiz-adv-x="719" d="M467 0q-26 0-45 18.5T403 66v90H177q-32 0-48 18.5T113 218q0 13 8 30 28 63 68.5 129.5t75 114T336 583t53 61.5 24 25.5q20 20 50 20 26 0 44-19t18-41q0-30-20-50-145-145-232-300h130v74q0 30 18.5 48t45.5 18 46.5-18 19.5-48v-74h8q32 0 50-16t18-46q0-27-18.5-44.5T541 156h-8V66q0-29-19.5-47.5T467 0z"/><glyph glyph-name="five.dnom" horiz-adv-x="719" d="M337-6q-48 0-91.5 14.5T187 33t-22 17q-24 24-24 54 0 27 19 45.5t43 18.5q25 0 50-22 31-28 84-28 44 0 76 30.5t32 91.5q0 43-31.5 73.5T337 344q-33 0-78-26-19-10-38-10-27 0-46.5 14.5T155 368v260q0 31 19 46.5t47 15.5h256q26 0 45-18t19-44q0-29-18.5-45.5T477 566H285V462q27 6 52 6 105 0 174.5-65T581 240q0-64-22.5-113.5t-59-77.5T422 7.5 337-6z"/><glyph glyph-name="six.dnom" horiz-adv-x="719" d="M365-6Q252-6 186.5 78T121 314q0 199 63.5 290.5T383 696q49 0 90.5-13.5t56-23.5 23.5-19q20-20 20-50 0-24-17-43t-43-19q-27 0-54 20-30 24-76 24-41 0-71.5-26.5T267 444l-2-11q48 41 117 41 58 0 103-24t69-61 35.5-74.5T601 242q0-30-7-61.5T570 115t-43-60.5T459 11 365-6zm0 124q53 0 76.5 39t23.5 85q0 38-23.5 73T365 350t-76.5-35-23.5-73q0-46 23.5-85t76.5-39z"/><glyph glyph-name="seven.dnom" horiz-adv-x="719" d="M297 0q-66 0-66 62 0 118 148 376 31 54 68 128H193q-28 0-47 16.5T127 628q0 24 19.5 43t46.5 19h338q27 0 46.5-17.5T597 628q0-30-19-78.5T543.5 471L491 374Q361 139 361 62q0-29-19-45.5T297 0z"/><glyph glyph-name="eight.dnom" horiz-adv-x="719" d="M361-6Q250-6 183.5 51.5T117 204q0 53 25.5 100t60.5 62q-30 10-49 46.5T135 492q0 57 23 99t59 63.5 72.5 31.5 71.5 10q97 0 163.5-51.5T591 492q0-42-20.5-81.5T519 358q36-14 62-57t26-97q0-100-63.5-155T361-6zm46 408q18 5 33 31t15 59q0 43-29.5 61.5T361 572q-33 0-61.5-18.5T271 492q0-44 35.5-62.5T407 402zm-46-284q44 0 77 20t33 66q0 25-13.5 43t-40 28-50 15-58.5 10q-22-5-39-32t-17-64q0-43 32.5-64.5T361 118z"/><glyph glyph-name="nine.dnom" horiz-adv-x="719" d="M339-6q-49 0-90.5 13.5t-56 23.5T169 50q-20 20-20 50 0 24 17 43t43 19q27 0 54-20 30-24 76-24 50 0 78 34t40 105q-48-41-117-41-58 0-103 24t-69 61-35.5 74.5T121 448q0 30 7 61.5t24 65.5 43 60.5 68 43.5 94 17q113 0 178.5-84T601 376q0-199-63.5-290.5T339-6zm18 346q53 0 76.5 35.5T457 448q0 46-23.5 85T357 572t-76.5-39-23.5-85q0-37 23.5-72.5T357 340z"/><glyph glyph-name="zero.numr" horiz-adv-x="719" d="M361 594q-118 0-190 93T99 942q0 159 73 256.5t189 97.5q117 0 190.5-98T625 942q0-162-72-255t-192-93zm0 124q59 0 93.5 60.5T489 942q0 98-32.5 164t-95.5 66q-56 0-91-63.5T235 942t34.5-163.5T361 718z"/><glyph glyph-name="one.numr" horiz-adv-x="575" d="M289 600q-29 0-46.5 18T225 666v444l-16-10q-12-8-28-8-24 0-42 17.5t-18 46.5q0 33 30 54l102 68q16 12 38 12 26 0 45-18t19-48V666q0-30-18.5-48T289 600z"/><glyph glyph-name="two.numr" horiz-adv-x="783" d="M213 600q-23 0-42.5 17T151 662q0 59 42 117.5T311 912q44 43 68.5 69t46 58 21.5 53q0 44-25 62t-55 18q-50 0-98-32-18-12-40-12-25 0-42.5 19t-17.5 45q0 34 30 54 71 50 168 50 23 0 46.5-3.5t56-16 56-33 40.5-60 17-91.5q0-36-13.5-70T525 950t-52-59.5L407 826q-69-66-96-102h204q29 0 46.5-17t17.5-45q0-29-17.5-45.5T515 600H213z"/><glyph glyph-name="three.numr" horiz-adv-x="797" d="M369 594q-58 0-107 15t-65.5 25.5T173 652q-18 18-18 48 0 27 19 44.5t43 17.5q21 0 50-20 36-24 102-24 42 0 70 24.5t28 59.5q0 44-34 65t-82 21h-26q-29 0-45.5 16T263 950q0 28 16.5 45t45.5 17h26q42 0 73 20.5t31 59.5q0 33-18 52.5t-35 23.5-35 4q-45 0-94-32-20-12-36-12-24 0-43 17.5t-19 46.5q0 24 28 50 18 17 62.5 35.5T367 1296q98 0 161-48t63-152q0-45-22-87.5T511 952q38-18 65-62.5t27-85.5q0-91-68-150.5T369 594z"/><glyph glyph-name="four.numr" horiz-adv-x="719" d="M467 600q-26 0-45 18.5T403 666v90H177q-32 0-48 18.5T113 818q0 13 8 30 28 63 68.5 129.5t75 114T336 1183t53 61.5 24 25.5q20 20 50 20 26 0 44-19t18-41q0-30-20-50-145-145-232-300h130v74q0 30 18.5 48t45.5 18 46.5-18 19.5-48v-74h8q32 0 50-16t18-46q0-27-18.5-44.5T541 756h-8v-90q0-29-19.5-47.5T467 600z"/><glyph glyph-name="five.numr" horiz-adv-x="719" d="M337 594q-48 0-91.5 14.5T187 633t-22 17q-24 24-24 54 0 27 19 45.5t43 18.5q25 0 50-22 31-28 84-28 44 0 76 30.5t32 91.5q0 43-31.5 73.5T337 944q-33 0-78-26-19-10-38-10-27 0-46.5 14.5T155 968v260q0 31 19 46.5t47 15.5h256q26 0 45-18t19-44q0-29-18.5-45.5T477 1166H285v-104q27 6 52 6 105 0 174.5-65T581 840q0-64-22.5-113.5t-59-77.5-77.5-41.5-85-13.5z"/><glyph glyph-name="six.numr" horiz-adv-x="719" d="M365 594q-113 0-178.5 84T121 914q0 199 63.5 290.5T383 1296q49 0 90.5-13.5t56-23.5 23.5-19q20-20 20-50 0-24-17-43t-43-19q-27 0-54 20-30 24-76 24-41 0-71.5-26.5T267 1044l-2-11q48 41 117 41 58 0 103-24t69-61 35.5-74.5T601 842q0-30-7-61.5T570 715t-43-60.5-68-43.5-94-17zm0 124q53 0 76.5 39t23.5 85q0 38-23.5 73T365 950t-76.5-35-23.5-73q0-46 23.5-85t76.5-39z"/><glyph glyph-name="seven.numr" horiz-adv-x="719" d="M297 600q-66 0-66 62 0 118 148 376 31 54 68 128H193q-28 0-47 16.5t-19 45.5q0 24 19.5 43t46.5 19h338q27 0 46.5-17.5T597 1228q0-30-19-78.5t-34.5-78.5L491 974Q361 739 361 662q0-28-19-45t-45-17z"/><glyph glyph-name="eight.numr" horiz-adv-x="719" d="M361 594q-111 0-177.5 57.5T117 804q0 53 25.5 100t60.5 62q-30 10-49 46.5t-19 79.5q0 57 23 99t59 63.5 72.5 31.5 71.5 10q97 0 163.5-51.5T591 1092q0-42-20.5-81.5T519 958q36-14 62-57t26-97q0-100-63.5-155T361 594zm46 408q18 5 33 31t15 59q0 43-29.5 61.5T361 1172q-33 0-61.5-18.5T271 1092q0-44 35.5-62.5T407 1002zm-46-284q44 0 77 20t33 66q0 25-13.5 43t-40 28-50 15-58.5 10q-22-5-39-32t-17-64q0-43 32.5-64.5T361 718z"/><glyph glyph-name="nine.numr" horiz-adv-x="719" d="M339 594q-49 0-90.5 13.5t-56 23.5-23.5 19q-20 20-20 50 0 24 17 43t43 19q27 0 54-20 30-24 76-24 50 0 78 34t40 105q-48-41-117-41-58 0-103 24t-69 61-35.5 74.5T121 1048q0 30 7 61.5t24 65.5 43 60.5 68 43.5 94 17q113 0 178.5-84T601 976q0-199-63.5-290.5T339 594zm18 346q53 0 76.5 35t23.5 73q0 46-23.5 85t-76.5 39-76.5-39-23.5-85q0-38 23.5-73t76.5-35z"/><glyph glyph-name="braceleft.case" horiz-adv-x="752" d="M515-134q-58 0-108 10t-96.5 33.5-74 70T209 90v420q0 16-5.5 28.5t-8.5 16-17 12.5-15 10q-28 21-28 67 0 38 36 72 14 12 19.5 17.5t12 19T209 782v410q0 110 76.5 170t215.5 60q41 0 72-16 44-23 44-74 0-56-46-76-18-8-40-8-63 0-102.5-16t-39.5-48V782q0-78-40-138 40-64 40-134V102q0-62 134-62 33 0 58-17 34-24 34-65 0-51-39-75-26-17-61-17z"/><glyph glyph-name="braceright.case" horiz-adv-x="752" d="M237-134q-35 0-61 17-39 24-39 75 0 41 34 65 25 17 58 17 134 0 134 62v408q0 70 40 134-40 60-40 138v402q0 32-39.5 48T221 1248q-22 0-40 8-46 20-46 76 0 51 44 74 31 16 72 16 139 0 215.5-60t76.5-170V782q0-16 6.5-29.5t12-19T581 716q36-34 36-72 0-46-28-67-4-3-10.5-7t-10.5-7-9.5-8-8.5-10.5-5-14.5-2-20V90q0-64-27.5-110.5t-74-70T345-124t-108-10z"/><glyph glyph-name="bracketleft.case" horiz-adv-x="758" d="M265-128q-39 0-64.5 23.5T175-42v1374q0 38 25 61t65 23h230q39 0 63.5-22.5T583 1332t-24.5-64.5T495 1242H357V46h138q39 0 63.5-24.5T583-42t-24.5-62.5T495-128H265z"/><glyph glyph-name="bracketright.case" horiz-adv-x="760" d="M265-128q-38 0-64 24t-26 62q0 39 25.5 63.5T265 46h136v1196H265q-39 0-64.5 25.5T175 1332q0 38 25 61t65 23h230q39 0 64.5-23t25.5-61V-42q0-39-25.5-62.5T495-128H265z"/><glyph glyph-name="parenleft.case" horiz-adv-x="838" d="M569-154q-23 0-40 8-18 8-36.5 18.5t-56 40-69 65-69 96.5-63 132.5-43 174T175 600q0 113 17 217.5T234.5 999t62 146.5 68 114T432 1343t54 55 35 28q22 16 50 16 39 0 65.5-26.5T663 1350q0-43-50-84-23-20-30-25.5t-40-40.5-50.5-64-46.5-86.5T401.5 932t-28-147.5T361 600q0-90 11.5-168.5t28-133T443 196t47-75.5T540.5 67t43-35T618 11q43-26 43-77 0-41-26-64.5T569-154z"/><glyph glyph-name="parenright.case" horiz-adv-x="838" d="M269-154q-40 0-66 23.5T177-66q0 51 43 77 21 12 34.5 21t43 35 50.5 53.5 47 75.5 42.5 102.5 28 133T477 600q0 97-12.5 184.5t-28 147.5-44.5 117.5-46.5 86.5-50.5 64-40 40.5-30 25.5q-50 41-50 84 0 39 26.5 65.5T267 1442q28 0 50-16 17-12 35-28t54-55 67.5-83.5 68-114 62-146.5T646 817.5 663 600q0-117-17.5-219.5t-43-174-63-132.5-69-96.5-69-65-56-40T309-146q-17-8-40-8z"/><glyph glyph-name="emdash.case" horiz-adv-x="1202" d="M225 556q-39 0-64.5 23.5T135 642t25.5 64.5T225 732h752q39 0 64.5-25.5T1067 642t-25.5-62.5T977 556H225z"/><glyph glyph-name="endash.case" horiz-adv-x="990" d="M225 558q-40 0-65 23t-25 61q0 39 25.5 62.5T225 728h540q39 0 64.5-23.5T855 642q0-38-25-61t-65-23H225z"/><glyph glyph-name="hyphen.case" horiz-adv-x="960" d="M265 556q-39 0-64.5 23.5T175 642t25.5 63.5T265 730h430q39 0 64.5-24.5T785 642t-25.5-62.5T695 556H265z"/><glyph glyph-name="uni00AD.case" horiz-adv-x="960" d="M265 556q-39 0-64.5 23.5T175 642t25.5 63.5T265 730h430q39 0 64.5-24.5T785 642t-25.5-62.5T695 556H265z"/><glyph glyph-name="guillemotleft.case" horiz-adv-x="902" d="M393 274q-47 0-72 38L127 604q-12 20-12 44 0 33 14 52l192 276q26 38 74 38 39 0 64.5-26t25.5-64q0-26-18-52L309 648l162-234q16-23 16-50 0-37-27.5-63.5T393 274zm300 0q-47 0-72 38L427 604q-12 20-12 44 0 33 14 52l192 276q26 38 74 38 39 0 64.5-26t25.5-64q0-26-18-52L609 648l162-234q16-23 16-50 0-37-27.5-63.5T693 274z"/><glyph glyph-name="guillemotright.case" horiz-adv-x="902" d="M209 274q-39 0-66.5 26.5T115 364q0 27 16 50l162 234-158 224q-18 26-18 52 0 38 25.5 64t64.5 26q48 0 74-38l192-276q14-19 14-52 0-24-12-44L281 312q-25-38-72-38zm300 0q-39 0-66.5 26.5T415 364q0 27 16 50l162 234-158 224q-18 26-18 52 0 38 25.5 64t64.5 26q48 0 74-38l192-276q14-19 14-52 0-24-12-44L581 312q-25-38-72-38z"/><glyph glyph-name="guilsinglleft.case" horiz-adv-x="600" d="M393 274q-47 0-72 38L127 604q-12 20-12 46 0 31 14 50l192 276q25 38 74 38 39 0 64.5-26t25.5-64q0-26-18-52L309 648l162-234q14-20 14-50 0-38-26.5-64T393 274z"/><glyph glyph-name="guilsinglright.case" horiz-adv-x="600" d="M207 274q-38 0-65 26.5T115 364q0 30 14 50l162 234-158 224q-18 26-18 52 0 37 26 63.5t64 26.5q49 0 74-38l192-276q14-19 14-50 0-26-12-46L279 312q-25-38-72-38z"/><glyph glyph-name="space.frac" horiz-adv-x="140"/><glyph glyph-name="uni2007.tf" horiz-adv-x="1010"/><glyph glyph-name="Euro.001" horiz-adv-x="715" d="M612 152q23 0 38-14.5T665 98q0-30-28-55-35-31-98.5-51.5T404-29q-126 0-217.5 52.5T60 191H28q-58 0-58 57 0 27 16.5 42T28 305h14q-1 10-1 30 0 22 1 32H28q-58 0-58 57 0 27 16.5 42T28 481h34q38 113 130.5 165.5T404 699q64 0 127.5-18T633 634q29-21 29-51 0-26-16.5-41.5T606 526q-15 0-45 15-70 38-157 38-158 0-209-98h289q25 0 41.5-14.5T542 425q0-28-16.5-43T484 367H167q-1-10-1-32 0-20 1-30h317q25 0 41.5-14.5T542 249q0-28-16.5-43T484 191H194Q245 91 404 91q53 0 88 9.5t75 35.5q25 16 45 16z"/><glyph glyph-name="Euro.ss02" horiz-adv-x="1144" d="M691-12q-172 0-293.5 115T229 404h-24q-39 0-64.5 24.5T115 492q0 38 25.5 59t65.5 23h1q-2 30-2 56 0 32 2 56h-2q-39 0-64.5 21.5T115 770q0 39 25.5 62.5T205 856h24q48 190 179 318t301 128q143 0 248-70 38-26 38-76 0-39-28.5-64.5T903 1066q-28 0-48 14-24 19-64 34.5t-82 15.5q-107 0-186-77T409 856h382q40 0 65-23t25-61q0-39-25.5-62.5T791 686H387q0-2-.5-8.5t-1-19-.5-28.5.5-28.5 1-19 .5-8.5h404q40 0 65-22t25-60q0-39-25.5-63.5T791 404H415q35-107 107-175.5T691 160q37 0 66 7t43.5 15 42 25.5T887 234q25 14 52 14 42 0 66-26.5t24-65.5q0-42-32-66-69-50-140-76T691-12z"/><glyph glyph-name="cent.tf" horiz-adv-x="1020" d="M564-118q-38 0-64 27t-26 65v22Q310 20 214 150.5T118 476q0 170 100 298t256 166v36q0 38 25.5 64t64.5 26 65.5-25.5T656 976v-24l12-3q113-26 180-71 40-27 40-76 0-35-25.5-62.5T800 712q-25 0-89 33-67 35-123 35-121 0-202.5-88T304 476q0-80 25-149t83-117 140-48q104 0 214 64 20 12 46 12 37 0 63.5-26t26.5-64q0-47-44-74-95-58-202-76v-24q0-38-26.5-65T564-118z"/><glyph glyph-name="dollar.tf" horiz-adv-x="1020" d="M538-118q-40 0-65 27t-25 65v16q-35 3-68 12-81 21-160 66.5T122 166q-6 15-6 28 0 36 26 60t62 24q16 0 26-4 13-5 42-25.5l56.5-38.5 71.5-33 90-15q104 0 166 56t62 146q0 49-31.5 89T605 522.5 494 581t-122 63.5T261 720t-81.5 103.5T148 964q0 131 85.5 219T448 1290v20q0 40 25 65t65 25q39 0 63.5-25t24.5-65v-22q116-23 186-75 60-46 60-95 0-37-25.5-63.5T786 1028q-36 0-56 18-96 82-200 82-79 0-137.5-47.5T334 964q0-50 31.5-90t81.5-68.5T558 749t122-61.5T791 613t81.5-105T904 364q0-136-74-231.5T626 4v-30q0-38-25-65t-63-27z"/><glyph glyph-name="Euro.tf" horiz-adv-x="1280" d="M1075 254q42 0 66-26.5t24-65.5q0-41-32-66-67-53-163-80.5T769-12Q602-12 457 99.5T252 404h-47q-39 0-64.5 21.5T115 488q0 39 25.5 62.5T205 574h15q-3 33-3 67 0 30 1 45h-13q-39 0-64.5 21.5T115 770q0 39 25.5 62.5T205 856h39q54 202 196 324t330 122q205 0 310-76 45-31 45-79 0-39-28.5-63.5T1033 1059q-28 0-57 16-52 29-92.5 41T770 1128q-107 0-198-72.5T437 856h449q40 0 65-23t25-61q0-39-25.5-62.5T886 686H403q-1-15-1-45 0-34 3-67h481q40 0 65-23t25-61q0-39-25.5-62.5T886 404H448q50-115 139.5-179.5T769 160q74 0 130.5 18.5T1017 236q28 18 58 18z"/><glyph glyph-name="sterling.tf" horiz-adv-x="1020" d="M235 0q-43 0-64 20.5T150 72q0 13 4 27t9 23.5l14.5 27.5 13.5 27q45 90 45 225 0 43-7 122h-51q-39 0-64.5 23.5T88 610t25.5 63.5T178 698h38q-2 54-2 84 0 250 104 371t282 121q93 0 151-24 71-30 71-86 0-39-21-65.5t-55-26.5q-23 0-60 11-59 19-86 19-100 0-153-82.5T394 782q0-30 2-84h256q39 0 64.5-24.5T742 610t-25.5-62.5T652 524H409q7-81 7-122 0-114-42-228h474q39 0 64.5-23.5T938 88t-25.5-63.5T848 0H235z"/><glyph glyph-name="yen.tf" horiz-adv-x="1020" d="M511 0q-39 0-64.5 25.5T421 90v136H153q-38 0-64 24t-26 62 26 63 64 25h268v100H153q-37 0-63.5 25T63 588t26 62 64 24h152q-66 118-136.5 274T71 1176q-6 18-6 36 0 33 25.5 55.5T159 1290q55 0 82-62 3-8 24-55.5l32.5-73L331 1024l38.5-85 37-76.5L445 787l34-59 32-52q6 9 17 29t13 23q106 184 240 500 21 40 38.5 51t55.5 11q39 0 60.5-26t21.5-52q0-22-6-36-129-307-238-502h124q38 0 64-24t26-62-26.5-63-63.5-25H601V400h236q38 0 64-25t26-63-26-62-64-24H601V90q0-39-25.5-64.5T511 0z"/><glyph glyph-name="percent.tf" horiz-adv-x="1260" d="M328 614q-115 0-175.5 89T92 954q0 163 60.5 252.5T328 1296t175.5-89.5T564 954q0-162-60.5-251T328 614zM348 0q-22 0-40 13.5T290 46q0 16 6 28l570 1186q16 32 46 32 24 0 41-13.5t17-34.5q0-16-6-28L394 34Q377 0 348 0zm-20 724q53 0 80.5 59T436 954q0 230-108 230T220 954q0-112 27.5-171t80.5-59zM932-6Q817-6 756.5 83T696 334q0 163 60.5 252.5T932 676t175.5-89.5T1168 334q0-162-60.5-251T932-6zm0 110q53 0 80.5 59t27.5 171q0 230-108 230T824 334q0-112 27.5-171t80.5-59z"/><glyph glyph-name="perthousand.tf" horiz-adv-x="1260" d="M278 774q-89 0-135.5 67.5T96 1036q0 126 46.5 193t135.5 67q88 0 135-67.5t47-192.5q0-126-47-194t-135-68zM152 0q-21 0-35.5 11.5T102 44q0 16 6 28l570 1186q16 32 46 32 24 0 39-11.5t15-32.5q0-14-8-30L198 34Q181 0 152 0zm126 868q74 0 74 168t-74 168q-72 0-72-168t72-168zM594-6q-89 0-135.5 67.5T412 256q0 126 46.5 193T594 516q88 0 135-67.5T776 256q0-126-47-194T594-6zm388 0q-89 0-135.5 67.5T800 256q0 126 46.5 193T982 516q88 0 135-67.5t47-192.5q0-126-47-194T982-6zM594 88q74 0 74 168t-74 168q-72 0-72-168t72-168zm388 0q74 0 74 168t-74 168q-72 0-72-168t72-168z"/><glyph glyph-name="section.tf" horiz-adv-x="1020" d="M500-172q-57 0-112.5 11.5t-96 29-60.5 28T200-86q-16 11-28 32.5T160-10q0 38 25.5 65T248 82q29 0 50-14Q402 2 500 2q65 0 107.5 35t42.5 87q0 27-13 52t-29 42-48.5 37.5-51 30.5-56.5 29l-54 27-59 31-54 31.5-52.5 39-39.5 44-30 55-9 63.5q0 72 42.5 138T326 858q-61 34-95.5 95.5T196 1086q0 67 28.5 119.5t76 83.5 105 47 120.5 16q130 0 254-72 16-10 29-33t13-43q0-42-25.5-65t-66.5-23q-24 0-48 12-3 2-17 9.5l-26 13.5-30 12.5-39 10.5-44 4q-56 0-101-25t-45-67q0-40 39-69.5T576 927l26-13 43.5-22.5L689 868l45.5-29.5L774 805l38-42 27.5-48.5 20.5-60 6-68.5q0-133-150-226 118-86 118-236 0-128-95-212t-239-84zm66 628q43 20 79.5 56t36.5 74q0 56-37 93t-103 67l-44 20q-160-51-160-160 0-6 2.5-12.5t8.5-13 12-12 16-12l18-11.5 21-12 21-11 22-11.5 21-10.5z"/><glyph glyph-name="uni0308.case" d="M-437 1454q-39 0-64.5 25.5T-527 1544v64q0 39 25.5 64.5t64.5 25.5 64.5-25.5 25.5-64.5v-64q0-39-25.5-64.5T-437 1454zm252 0q-39 0-64.5 25.5T-275 1544v64q0 39 25.5 64.5t64.5 25.5 64.5-25.5T-95 1608v-64q0-39-25.5-64.5T-185 1454z"/><glyph glyph-name="uni0307.case" d="M-198 1454q-46 0-77 31t-31 77q0 45 31 76.5t77 31.5q45 0 76.5-31.5T-90 1562q0-46-31.5-77t-76.5-31z"/><glyph glyph-name="gravecomb.case" d="M-179 1454q-16 0-32 6l-316 130q-56 24-56 80 0 36 24 60.5t60 24.5q16 0 32-6l316-130q56-24 56-80 0-36-24-60.5t-60-24.5z"/><glyph glyph-name="acutecomb.case" d="M-499 1454q-36 0-60 24.5t-24 60.5q0 56 56 80l316 130q16 6 32 6 36 0 60-24.5t24-60.5q0-56-56-80l-316-130q-16-6-32-6z"/><glyph glyph-name="uni030B.case" d="M-553 1454q-39 0-63.5 25t-24.5 61q0 19 6 34l58 151q20 52 82 52 41 0 65-23t24-59q0-16-5-30l-60-155q-9-24-33-40t-49-16zm260 0q-39 0-63.5 25t-24.5 61q0 19 6 34l58 151q20 52 82 52 39 0 64-22.5t25-57.5q0-18-5-32l-60-155q-10-26-33.5-41t-48.5-15z"/><glyph glyph-name="uni0302.case" d="M-651 1454q-39 0-64.5 24t-25.5 60q0 52 46 76l234 126q21 12 44 12 18 0 42-12l238-128q21-11 31.5-33t10.5-43q0-38-26.5-60t-65.5-22q-20 0-44 12l-186 100-192-100q-24-12-42-12z"/><glyph glyph-name="uni030C.case" d="M-417 1454q-20 0-44 12l-234 126q-46 24-46 72 0 37 26 64.5t64 27.5q18 0 42-12l192-98 186 98q24 12 44 12 38 0 65-26t27-64q0-50-42-72l-238-128q-24-12-42-12z"/><glyph glyph-name="uni0306.case" d="M-371 1454q-93 0-158 38.5t-93 102.5q-19 44-19 81 0 33 20.5 54.5t57.5 21.5q64 0 89-66 14-37 36-48.5t67-11.5 67 11.5 36 48.5q25 66 89 66 37 0 57.5-21.5t20.5-54.5q0-37-19-81-28-64-93-102.5t-158-38.5z"/><glyph glyph-name="uni030A.case" d="M-279 1454q-80 0-135 54t-55 134q0 78 55 132t135 54q79 0 131.5-53.5T-95 1642q0-81-52.5-134.5T-279 1454zm2 124q25 0 44.5 20t19.5 46q0 24-20 43t-44 19q-27 0-46.5-19t-19.5-43q0-27 19.5-46.5t46.5-19.5z"/><glyph glyph-name="tildecomb.case" d="M-283 1454q-19 0-38.5 3t-30.5 6-31 9.5l-29 9.5q-46 14-93 14-17 0-49-18-26-14-45-14-36 0-63 25t-27 61q0 53 60 87 57 33 124 33 42 0 119-25 53-17 103-17 19 0 45 17t51 17q36 0 64-25t28-61q0-57-80-97-50-25-108-25z"/><glyph glyph-name="uni0304.case" d="M-615 1454q-39 0-64.5 24.5T-705 1542t25.5 62.5 64.5 23.5h430q39 0 64.5-23.5T-95 1542t-25.5-63.5-64.5-24.5h-430z"/><glyph glyph-name="zeroone.euro" horiz-adv-x="758" d="M195 835q-77 0-126 62.5T20 1066t49.5 168 125.5 62 126-62.5 50-167.5q0-106-49.5-168.5T195 835zm393 0q-27 0-42.5 15.5T530 894v246l-29-19q-18-12-36-12-22 0-36 14.5t-14 36.5q0 33 32 54l105 70q19 12 38 12 24 0 40.5-15.5T647 1240V894q0-28-16-43.5T588 835zM195 940q29 0 41 31t12 95q0 63-12 94t-41 31q-52 0-52-125 0-126 52-126zm417-788q23 0 38-14.5T665 98q0-30-28-55-35-31-98.5-51.5T404-29q-126 0-217.5 52.5T60 191H28q-58 0-58 57 0 27 16.5 42T28 305h14q-1 10-1 30 0 22 1 32H28q-58 0-58 57 0 27 16.5 42T28 481h34q38 113 130.5 165.5T404 699q64 0 127.5-18T633 634q29-21 29-51 0-26-16.5-41.5T606 526q-15 0-45 15-70 38-157 38-158 0-209-98h289q25 0 41.5-14.5T542 425q0-28-16.5-43T484 367H167q-1-10-1-32 0-20 1-30h317q25 0 41.5-14.5T542 249q0-28-16.5-43T484 191H194Q245 91 404 91q53 0 88 9.5t75 35.5q25 16 45 16z"/><glyph glyph-name="zerotwo.euro" horiz-adv-x="819" d="M195 835q-77 0-126 62.5T20 1066t49.5 168 125.5 62 126-62.5 50-167.5q0-106-49.5-168.5T195 835zm277 7q-22 0-36.5 15.5T421 899q0 96 98 174 57 46 64 57 7 10 7 21 0 38-38 38-19 0-40-9-37-16-47-16-23 0-36.5 14t-13.5 36q0 27 34 51 43 31 106 31 75 0 117-39t42-106q0-43-26.5-75t-72.5-64q-65-44-74-60h120q26 0 42.5-15.5T720 897q0-25-16.5-40T661 842H472zm-277 98q29 0 41 31t12 95q0 63-12 94t-41 31q-52 0-52-125 0-126 52-126zm417-788q23 0 38-14.5T665 98q0-30-28-55-35-31-98.5-51.5T404-29q-126 0-217.5 52.5T60 191H28q-58 0-58 57 0 27 16.5 42T28 305h14q-1 10-1 30 0 22 1 32H28q-58 0-58 57 0 27 16.5 42T28 481h34q38 113 130.5 165.5T404 699q64 0 127.5-18T633 634q29-21 29-51 0-26-16.5-41.5T606 526q-15 0-45 15-70 38-157 38-158 0-209-98h289q25 0 41.5-14.5T542 425q0-28-16.5-43T484 367H167q-1-10-1-32 0-20 1-30h317q25 0 41.5-14.5T542 249q0-28-16.5-43T484 191H194Q245 91 404 91q53 0 88 9.5t75 35.5q25 16 45 16z"/><glyph glyph-name="zerothree.euro" horiz-adv-x="807" d="M195 835q-77 0-126 62.5T20 1066t49.5 168 125.5 62 126-62.5 50-167.5q0-106-49.5-168.5T195 835zm347 0q-68 0-114 40-23 21-23 47 0 21 14.5 35.5T458 972q7 0 14-2t10.5-3.5 11-6T504 955q24-13 42-13 42 0 42 36 0 41-42 41h-12q-28 0-44 14.5t-16 38.5q0 53 60 53h12q30 0 30 33 0 31-34 31-15 0-33-8-37-17-47-17-22 0-36 14t-14 36q0 29 34 52 45 30 103 30 69 0 110-33t41-93q0-63-63-96 38-13 56.5-40t18.5-59q0-68-47.5-104T542 835zM195 940q29 0 41 31t12 95q0 63-12 94t-41 31q-52 0-52-125 0-126 52-126zm417-788q23 0 38-14.5T665 98q0-30-28-55-35-31-98.5-51.5T404-29q-126 0-217.5 52.5T60 191H28q-58 0-58 57 0 27 16.5 42T28 305h14q-1 10-1 30 0 22 1 32H28q-58 0-58 57 0 27 16.5 42T28 481h34q38 113 130.5 165.5T404 699q64 0 127.5-18T633 634q29-21 29-51 0-26-16.5-41.5T606 526q-15 0-45 15-70 38-157 38-158 0-209-98h289q25 0 41.5-14.5T542 425q0-28-16.5-43T484 367H167q-1-10-1-32 0-20 1-30h317q25 0 41.5-14.5T542 249q0-28-16.5-43T484 191H194Q245 91 404 91q53 0 88 9.5t75 35.5q25 16 45 16z"/><glyph glyph-name="zerofour.euro" horiz-adv-x="858" d="M195 835q-77 0-126 62.5T20 1066t49.5 168 125.5 62 126-62.5 50-167.5q0-106-49.5-168.5T195 835zm442 0q-26 0-42 15.5T579 894v29H467q-30 0-46 14.5T405 975q0 17 6 42 16 67 50.5 134.5T531 1262q27 34 62 34 27 0 43-16t16-41q0-23-33-63-68-80-86-143h46v22q0 28 16.5 44.5T637 1116t42-16.5 17-44.5v-22h12q63 0 63-55 0-26-17-40.5T708 923h-12v-29q0-27-17-43t-42-16zM195 940q29 0 41 31t12 95q0 63-12 94t-41 31q-52 0-52-125 0-126 52-126zm417-788q23 0 38-14.5T665 98q0-30-28-55-35-31-98.5-51.5T404-29q-126 0-217.5 52.5T60 191H28q-58 0-58 57 0 27 16.5 42T28 305h14q-1 10-1 30 0 22 1 32H28q-58 0-58 57 0 27 16.5 42T28 481h34q38 113 130.5 165.5T404 699q64 0 127.5-18T633 634q29-21 29-51 0-26-16.5-41.5T606 526q-15 0-45 15-70 38-157 38-158 0-209-98h289q25 0 41.5-14.5T542 425q0-28-16.5-43T484 367H167q-1-10-1-32 0-20 1-30h317q25 0 41.5-14.5T542 249q0-28-16.5-43T484 191H194Q245 91 404 91q53 0 88 9.5t75 35.5q25 16 45 16z"/><glyph glyph-name="zerofive.euro" horiz-adv-x="821" d="M195 835q-77 0-126 62.5T20 1066t49.5 168 125.5 62 126-62.5 50-167.5q0-106-49.5-168.5T195 835zm365 0q-78 0-122 40-23 21-23 47 0 23 16 36.5t37 13.5q17 0 46-17 24-13 42-13 20 0 33 12.5t13 35.5q0 21-13 31.5t-32 10.5q-14 0-38-9-25-10-43-10-23 0-40 13t-17 39v163q0 31 19 46.5t47 15.5h167q26 0 42.5-15t16.5-40q0-24-16.5-39.5T652 1180H536v-60q30 15 58 15 58 0 94-36.5t36-98.5q0-72-48-118.5T560 835zM195 940q29 0 41 31t12 95q0 63-12 94t-41 31q-52 0-52-125 0-126 52-126zm417-788q23 0 38-14.5T665 98q0-30-28-55-35-31-98.5-51.5T404-29q-126 0-217.5 52.5T60 191H28q-58 0-58 57 0 27 16.5 42T28 305h14q-1 10-1 30 0 22 1 32H28q-58 0-58 57 0 27 16.5 42T28 481h34q38 113 130.5 165.5T404 699q64 0 127.5-18T633 634q29-21 29-51 0-26-16.5-41.5T606 526q-15 0-45 15-70 38-157 38-158 0-209-98h289q25 0 41.5-14.5T542 425q0-28-16.5-43T484 367H167q-1-10-1-32 0-20 1-30h317q25 0 41.5-14.5T542 249q0-28-16.5-43T484 191H194Q245 91 404 91q53 0 88 9.5t75 35.5q25 16 45 16z"/><glyph glyph-name="zerosix.euro" horiz-adv-x="836" d="M195 835q-77 0-126 62.5T20 1066t49.5 168 125.5 62 126-62.5 50-167.5q0-106-49.5-168.5T195 835zm416 301q59 0 93.5-40T739 992q0-65-46.5-111T577 835q-79 0-123.5 54T409 1039q0 119 51 188t134 69q56 0 101-30 34-23 34-52 0-24-15-37t-35-13q-15 0-45 16-20 11-35 11-27 0-41.5-19t-20.5-65q27 29 74 29zM195 940q29 0 41 31t12 95q0 63-12 94t-41 31q-52 0-52-125 0-126 52-126zm382 5q38 0 38 47t-38 47-38-47 38-47zm35-793q23 0 38-14.5T665 98q0-30-28-55-35-31-98.5-51.5T404-29q-126 0-217.5 52.5T60 191H28q-58 0-58 57 0 27 16.5 42T28 305h14q-1 10-1 30 0 22 1 32H28q-58 0-58 57 0 27 16.5 42T28 481h34q38 113 130.5 165.5T404 699q64 0 127.5-18T633 634q29-21 29-51 0-26-16.5-41.5T606 526q-15 0-45 15-70 38-157 38-158 0-209-98h289q25 0 41.5-14.5T542 425q0-28-16.5-43T484 367H167q-1-10-1-32 0-20 1-30h317q25 0 41.5-14.5T542 249q0-28-16.5-43T484 191H194Q245 91 404 91q53 0 88 9.5t75 35.5q25 16 45 16z"/><glyph glyph-name="zeroseven.euro" horiz-adv-x="824" d="M195 835q-77 0-126 62.5T20 1066t49.5 168 125.5 62 126-62.5 50-167.5q0-106-49.5-168.5T195 835zm320 0q-26 0-41 14.5T459 891q0 85 75 199 10 16 33 46.5t32 43.5H464q-26 0-42.5 15t-16.5 40q0 24 16.5 39.5T464 1290h205q26 0 41.5-15t15.5-40q0-9-1.5-16.5t-3.5-14-9-18l-12.5-20.5-19-30.5L656 1095q-46-76-75-204-13-56-66-56zM195 940q29 0 41 31t12 95q0 63-12 94t-41 31q-52 0-52-125 0-126 52-126zm417-788q23 0 38-14.5T665 98q0-30-28-55-35-31-98.5-51.5T404-29q-126 0-217.5 52.5T60 191H28q-58 0-58 57 0 27 16.5 42T28 305h14q-1 10-1 30 0 22 1 32H28q-58 0-58 57 0 27 16.5 42T28 481h34q38 113 130.5 165.5T404 699q64 0 127.5-18T633 634q29-21 29-51 0-26-16.5-41.5T606 526q-15 0-45 15-70 38-157 38-158 0-209-98h289q25 0 41.5-14.5T542 425q0-28-16.5-43T484 367H167q-1-10-1-32 0-20 1-30h317q25 0 41.5-14.5T542 249q0-28-16.5-43T484 191H194Q245 91 404 91q53 0 88 9.5t75 35.5q25 16 45 16z"/><glyph glyph-name="zeroeight.euro" horiz-adv-x="834" d="M195 835q-77 0-126 62.5T20 1066t49.5 168 125.5 62 126-62.5 50-167.5q0-106-49.5-168.5T195 835zm376 0q-71 0-118.5 36T405 972q0 71 64 108-52 24-52 83 0 64 46 98.5t111 34.5q68 0 112.5-34t44.5-99q0-25-15.5-49t-40.5-39q35-17 50.5-41t15.5-62q0-67-48.5-102T571 835zM195 940q29 0 41 31t12 95q0 63-12 94t-41 31q-52 0-52-125 0-126 52-126zm397 176q22 20 22 44 0 31-40 31-17 0-28-8.5t-11-22.5q0-25 57-44zm-21-176q22 0 37.5 11.5T624 982q0 14-17 23.5t-60 23.5q-24-15-24-46 0-19 13-31t35-12zm41-788q23 0 38-14.5T665 98q0-30-28-55-35-31-98.5-51.5T404-29q-126 0-217.5 52.5T60 191H28q-58 0-58 57 0 27 16.5 42T28 305h14q-1 10-1 30 0 22 1 32H28q-58 0-58 57 0 27 16.5 42T28 481h34q38 113 130.5 165.5T404 699q64 0 127.5-18T633 634q29-21 29-51 0-26-16.5-41.5T606 526q-15 0-45 15-70 38-157 38-158 0-209-98h289q25 0 41.5-14.5T542 425q0-28-16.5-43T484 367H167q-1-10-1-32 0-20 1-30h317q25 0 41.5-14.5T542 249q0-28-16.5-43T484 191H194Q245 91 404 91q53 0 88 9.5t75 35.5q25 16 45 16z"/><glyph glyph-name="zeronine.euro" horiz-adv-x="837" d="M195 835q-77 0-126 62.5T20 1066t49.5 168 125.5 62 126-62.5 50-167.5q0-106-49.5-168.5T195 835zm377 461q80 0 124-50t44-144q0-123-51.5-195T555 835q-56 0-101 30-34 23-34 52 0 24 15 37t35 13q15 0 45-16 20-11 35-11 27 0 41.5 18.5T613 1024q-31-29-75-29-59 0-93.5 40T410 1139q0 65 46.5 111t115.5 46zM195 940q29 0 41 31t12 95q0 63-12 94t-41 31q-52 0-52-125 0-126 52-126zm377 152q38 0 38 47t-38 47-38-47 38-47zm40-940q23 0 38-14.5T665 98q0-30-28-55-35-31-98.5-51.5T404-29q-126 0-217.5 52.5T60 191H28q-58 0-58 57 0 27 16.5 42T28 305h14q-1 10-1 30 0 22 1 32H28q-58 0-58 57 0 27 16.5 42T28 481h34q38 113 130.5 165.5T404 699q64 0 127.5-18T633 634q29-21 29-51 0-26-16.5-41.5T606 526q-15 0-45 15-70 38-157 38-158 0-209-98h289q25 0 41.5-14.5T542 425q0-28-16.5-43T484 367H167q-1-10-1-32 0-20 1-30h317q25 0 41.5-14.5T542 249q0-28-16.5-43T484 191H194Q245 91 404 91q53 0 88 9.5t75 35.5q25 16 45 16z"/><glyph glyph-name="onezero.euro" horiz-adv-x="825" d="M213 835q-27 0-42.5 15.5T155 894v246l-29-19q-18-12-36-12-22 0-36 14.5T40 1160q0 33 32 54l105 70q19 12 38 12 24 0 40.5-15.5T272 1240V894q0-28-16-43.5T213 835zm337 0q-77 0-126 62.5T375 1066t49.5 168 125.5 62 126-62.5 50-167.5q0-106-49.5-168.5T550 835zm0 105q29 0 41 31t12 95q0 63-12 94t-41 31q-52 0-52-125 0-126 52-126zm62-788q23 0 38-14.5T665 98q0-30-28-55-35-31-98.5-51.5T404-29q-126 0-217.5 52.5T60 191H28q-58 0-58 57 0 27 16.5 42T28 305h14q-1 10-1 30 0 22 1 32H28q-58 0-58 57 0 27 16.5 42T28 481h34q38 113 130.5 165.5T404 699q64 0 127.5-18T633 634q29-21 29-51 0-26-16.5-41.5T606 526q-15 0-45 15-70 38-157 38-158 0-209-98h289q25 0 41.5-14.5T542 425q0-28-16.5-43T484 367H167q-1-10-1-32 0-20 1-30h317q25 0 41.5-14.5T542 249q0-28-16.5-43T484 191H194Q245 91 404 91q53 0 88 9.5t75 35.5q25 16 45 16z"/><glyph glyph-name="oneone.euro" horiz-adv-x="758" d="M213 835q-27 0-42.5 15.5T155 894v246l-29-19q-18-12-36-12-22 0-36 14.5T40 1160q0 33 32 54l105 70q19 12 38 12 24 0 40.5-15.5T272 1240V894q0-28-16-43.5T213 835zm335 0q-27 0-42.5 15.5T490 894v246l-29-19q-18-12-36-12-22 0-36 14.5t-14 36.5q0 33 32 54l105 70q19 12 38 12 24 0 40.5-15.5T607 1240V894q0-28-16-43.5T548 835zm64-683q23 0 38-14.5T665 98q0-30-28-55-35-31-98.5-51.5T404-29q-126 0-217.5 52.5T60 191H28q-58 0-58 57 0 27 16.5 42T28 305h14q-1 10-1 30 0 22 1 32H28q-58 0-58 57 0 27 16.5 42T28 481h34q38 113 130.5 165.5T404 699q64 0 127.5-18T633 634q29-21 29-51 0-26-16.5-41.5T606 526q-15 0-45 15-70 38-157 38-158 0-209-98h289q25 0 41.5-14.5T542 425q0-28-16.5-43T484 367H167q-1-10-1-32 0-20 1-30h317q25 0 41.5-14.5T542 249q0-28-16.5-43T484 191H194Q245 91 404 91q53 0 88 9.5t75 35.5q25 16 45 16z"/><glyph glyph-name="onetwo.euro" horiz-adv-x="779" d="M213 835q-27 0-42.5 15.5T155 894v246l-29-19q-18-12-36-12-22 0-36 14.5T40 1160q0 33 32 54l105 70q19 12 38 12 24 0 40.5-15.5T272 1240V894q0-28-16-43.5T213 835zm219 7q-22 0-36.5 15.5T381 899q0 96 98 174 57 46 64 57 7 10 7 21 0 38-38 38-19 0-40-9-37-16-47-16-23 0-36.5 14t-13.5 36q0 27 34 51 43 31 106 31 75 0 117-39t42-106q0-43-26.5-75t-72.5-64q-65-44-74-60h120q26 0 42.5-15.5T680 897q0-25-16.5-40T621 842H432zm180-690q23 0 38-14.5T665 98q0-30-28-55-35-31-98.5-51.5T404-29q-126 0-217.5 52.5T60 191H28q-58 0-58 57 0 27 16.5 42T28 305h14q-1 10-1 30 0 22 1 32H28q-58 0-58 57 0 27 16.5 42T28 481h34q38 113 130.5 165.5T404 699q64 0 127.5-18T633 634q29-21 29-51 0-26-16.5-41.5T606 526q-15 0-45 15-70 38-157 38-158 0-209-98h289q25 0 41.5-14.5T542 425q0-28-16.5-43T484 367H167q-1-10-1-32 0-20 1-30h317q25 0 41.5-14.5T542 249q0-28-16.5-43T484 191H194Q245 91 404 91q53 0 88 9.5t75 35.5q25 16 45 16z"/><glyph glyph-name="onethree.euro" horiz-adv-x="767" d="M213 835q-27 0-42.5 15.5T155 894v246l-29-19q-18-12-36-12-22 0-36 14.5T40 1160q0 33 32 54l105 70q19 12 38 12 24 0 40.5-15.5T272 1240V894q0-28-16-43.5T213 835zm289 0q-68 0-114 40-23 21-23 47 0 21 14.5 35.5T418 972q7 0 14-2t10.5-3.5 11-6T464 955q24-13 42-13 42 0 42 36 0 41-42 41h-12q-28 0-44 14.5t-16 38.5q0 53 60 53h12q30 0 30 33 0 31-34 31-15 0-33-8-37-17-47-17-22 0-36 14t-14 36q0 29 34 52 45 30 103 30 69 0 110-33t41-93q0-63-63-96 38-13 56.5-40t18.5-59q0-68-47.5-104T502 835zm110-683q23 0 38-14.5T665 98q0-30-28-55-35-31-98.5-51.5T404-29q-126 0-217.5 52.5T60 191H28q-58 0-58 57 0 27 16.5 42T28 305h14q-1 10-1 30 0 22 1 32H28q-58 0-58 57 0 27 16.5 42T28 481h34q38 113 130.5 165.5T404 699q64 0 127.5-18T633 634q29-21 29-51 0-26-16.5-41.5T606 526q-15 0-45 15-70 38-157 38-158 0-209-98h289q25 0 41.5-14.5T542 425q0-28-16.5-43T484 367H167q-1-10-1-32 0-20 1-30h317q25 0 41.5-14.5T542 249q0-28-16.5-43T484 191H194Q245 91 404 91q53 0 88 9.5t75 35.5q25 16 45 16z"/><glyph glyph-name="onefour.euro" horiz-adv-x="808" d="M213 835q-27 0-42.5 15.5T155 894v246l-29-19q-18-12-36-12-22 0-36 14.5T40 1160q0 33 32 54l105 70q19 12 38 12 24 0 40.5-15.5T272 1240V894q0-28-16-43.5T213 835zm374 0q-26 0-42 15.5T529 894v29H417q-30 0-46 14.5T355 975q0 17 6 42 16 67 50.5 134.5T481 1262q27 34 62 34 27 0 43-16t16-41q0-23-33-63-68-80-86-143h46v22q0 28 16.5 44.5T587 1116t42-16.5 17-44.5v-22h12q63 0 63-55 0-26-17-40.5T658 923h-12v-29q0-27-17-43t-42-16zm25-683q23 0 38-14.5T665 98q0-30-28-55-35-31-98.5-51.5T404-29q-126 0-217.5 52.5T60 191H28q-58 0-58 57 0 27 16.5 42T28 305h14q-1 10-1 30 0 22 1 32H28q-58 0-58 57 0 27 16.5 42T28 481h34q38 113 130.5 165.5T404 699q64 0 127.5-18T633 634q29-21 29-51 0-26-16.5-41.5T606 526q-15 0-45 15-70 38-157 38-158 0-209-98h289q25 0 41.5-14.5T542 425q0-28-16.5-43T484 367H167q-1-10-1-32 0-20 1-30h317q25 0 41.5-14.5T542 249q0-28-16.5-43T484 191H194Q245 91 404 91q53 0 88 9.5t75 35.5q25 16 45 16z"/><glyph glyph-name="onefive.euro" horiz-adv-x="781" d="M213 835q-27 0-42.5 15.5T155 894v246l-29-19q-18-12-36-12-22 0-36 14.5T40 1160q0 33 32 54l105 70q19 12 38 12 24 0 40.5-15.5T272 1240V894q0-28-16-43.5T213 835zm307 0q-78 0-122 40-23 21-23 47 0 23 16 36.5t37 13.5q17 0 46-17 24-13 42-13 20 0 33 12.5t13 35.5q0 21-13 31.5t-32 10.5q-14 0-38-9-25-10-43-10-23 0-40 13t-17 39v163q0 31 19 46.5t47 15.5h167q26 0 42.5-15t16.5-40q0-24-16.5-39.5T612 1180H496v-60q30 15 58 15 58 0 94-36.5t36-98.5q0-72-48-118.5T520 835zm92-683q23 0 38-14.5T665 98q0-30-28-55-35-31-98.5-51.5T404-29q-126 0-217.5 52.5T60 191H28q-58 0-58 57 0 27 16.5 42T28 305h14q-1 10-1 30 0 22 1 32H28q-58 0-58 57 0 27 16.5 42T28 481h34q38 113 130.5 165.5T404 699q64 0 127.5-18T633 634q29-21 29-51 0-26-16.5-41.5T606 526q-15 0-45 15-70 38-157 38-158 0-209-98h289q25 0 41.5-14.5T542 425q0-28-16.5-43T484 367H167q-1-10-1-32 0-20 1-30h317q25 0 41.5-14.5T542 249q0-28-16.5-43T484 191H194Q245 91 404 91q53 0 88 9.5t75 35.5q25 16 45 16z"/><glyph glyph-name="onesix.euro" horiz-adv-x="782" d="M213 835q-27 0-42.5 15.5T155 894v246l-29-19q-18-12-36-12-22 0-36 14.5T40 1160q0 33 32 54l105 70q19 12 38 12 24 0 40.5-15.5T272 1240V894q0-28-16-43.5T213 835zm344 301q59 0 93.5-40T685 992q0-65-46.5-111T523 835q-79 0-123.5 54T355 1039q0 119 51 188t134 69q56 0 101-30 34-23 34-52 0-24-15-37t-35-13q-15 0-45 16-20 11-35 11-27 0-41.5-19t-20.5-65q27 29 74 29zm-34-191q38 0 38 47t-38 47-38-47 38-47zm89-793q23 0 38-14.5T665 98q0-30-28-55-35-31-98.5-51.5T404-29q-126 0-217.5 52.5T60 191H28q-58 0-58 57 0 27 16.5 42T28 305h14q-1 10-1 30 0 22 1 32H28q-58 0-58 57 0 27 16.5 42T28 481h34q38 113 130.5 165.5T404 699q64 0 127.5-18T633 634q29-21 29-51 0-26-16.5-41.5T606 526q-15 0-45 15-70 38-157 38-158 0-209-98h289q25 0 41.5-14.5T542 425q0-28-16.5-43T484 367H167q-1-10-1-32 0-20 1-30h317q25 0 41.5-14.5T542 249q0-28-16.5-43T484 191H194Q245 91 404 91q53 0 88 9.5t75 35.5q25 16 45 16z"/><glyph glyph-name="oneseven.euro" horiz-adv-x="784" d="M213 835q-27 0-42.5 15.5T155 894v246l-29-19q-18-12-36-12-22 0-36 14.5T40 1160q0 33 32 54l105 70q19 12 38 12 24 0 40.5-15.5T272 1240V894q0-28-16-43.5T213 835zm262 0q-26 0-41 14.5T419 891q0 85 75 199 10 16 33 46.5t32 43.5H424q-26 0-42.5 15t-16.5 40q0 24 16.5 39.5T424 1290h205q26 0 41.5-15t15.5-40q0-9-1.5-16.5t-3.5-14-9-18l-12.5-20.5-19-30.5L616 1095q-46-76-75-204-13-56-66-56zm137-683q23 0 38-14.5T665 98q0-30-28-55-35-31-98.5-51.5T404-29q-126 0-217.5 52.5T60 191H28q-58 0-58 57 0 27 16.5 42T28 305h14q-1 10-1 30 0 22 1 32H28q-58 0-58 57 0 27 16.5 42T28 481h34q38 113 130.5 165.5T404 699q64 0 127.5-18T633 634q29-21 29-51 0-26-16.5-41.5T606 526q-15 0-45 15-70 38-157 38-158 0-209-98h289q25 0 41.5-14.5T542 425q0-28-16.5-43T484 367H167q-1-10-1-32 0-20 1-30h317q25 0 41.5-14.5T542 249q0-28-16.5-43T484 191H194Q245 91 404 91q53 0 88 9.5t75 35.5q25 16 45 16z"/><glyph glyph-name="oneeight.euro" horiz-adv-x="784" d="M213 835q-27 0-42.5 15.5T155 894v246l-29-19q-18-12-36-12-22 0-36 14.5T40 1160q0 33 32 54l105 70q19 12 38 12 24 0 40.5-15.5T272 1240V894q0-28-16-43.5T213 835zm308 0q-71 0-118.5 36T355 972q0 71 64 108-52 24-52 83 0 64 46 98.5t111 34.5q68 0 112.5-34t44.5-99q0-25-15.5-49t-40.5-39q35-17 50.5-41t15.5-62q0-67-48.5-102T521 835zm21 281q22 20 22 44 0 31-40 31-17 0-28-8.5t-11-22.5q0-25 57-44zm-21-176q22 0 37.5 11.5T574 982q0 14-17 23.5t-60 23.5q-24-15-24-46 0-19 13-31t35-12zm91-788q23 0 38-14.5T665 98q0-30-28-55-35-31-98.5-51.5T404-29q-126 0-217.5 52.5T60 191H28q-58 0-58 57 0 27 16.5 42T28 305h14q-1 10-1 30 0 22 1 32H28q-58 0-58 57 0 27 16.5 42T28 481h34q38 113 130.5 165.5T404 699q64 0 127.5-18T633 634q29-21 29-51 0-26-16.5-41.5T606 526q-15 0-45 15-70 38-157 38-158 0-209-98h289q25 0 41.5-14.5T542 425q0-28-16.5-43T484 367H167q-1-10-1-32 0-20 1-30h317q25 0 41.5-14.5T542 249q0-28-16.5-43T484 191H194Q245 91 404 91q53 0 88 9.5t75 35.5q25 16 45 16z"/><glyph glyph-name="onenine.euro" horiz-adv-x="782" d="M213 835q-27 0-42.5 15.5T155 894v246l-29-19q-18-12-36-12-22 0-36 14.5T40 1160q0 33 32 54l105 70q19 12 38 12 24 0 40.5-15.5T272 1240V894q0-28-16-43.5T213 835zm304 461q80 0 124-50t44-144q0-123-51.5-195T500 835q-56 0-101 30-34 23-34 52 0 24 15 37t35 13q15 0 45-16 20-11 35-11 27 0 41.5 18.5T558 1024q-31-29-75-29-59 0-93.5 40T355 1139q0 65 46.5 111t115.5 46zm0-204q38 0 38 47t-38 47-38-47 38-47zm95-940q23 0 38-14.5T665 98q0-30-28-55-35-31-98.5-51.5T404-29q-126 0-217.5 52.5T60 191H28q-58 0-58 57 0 27 16.5 42T28 305h14q-1 10-1 30 0 22 1 32H28q-58 0-58 57 0 27 16.5 42T28 481h34q38 113 130.5 165.5T404 699q64 0 127.5-18T633 634q29-21 29-51 0-26-16.5-41.5T606 526q-15 0-45 15-70 38-157 38-158 0-209-98h289q25 0 41.5-14.5T542 425q0-28-16.5-43T484 367H167q-1-10-1-32 0-20 1-30h317q25 0 41.5-14.5T542 249q0-28-16.5-43T484 191H194Q245 91 404 91q53 0 88 9.5t75 35.5q25 16 45 16z"/><glyph glyph-name="twozero.euro" horiz-adv-x="845" d="M97 842q-22 0-36.5 15.5T46 899q0 96 98 174 57 46 64 57 7 10 7 21 0 38-38 38-19 0-40-9-37-16-47-16-23 0-36.5 14T40 1214q0 27 34 51 43 31 106 31 75 0 117-39t42-106q0-43-26.5-75t-72.5-64q-65-44-74-60h120q26 0 42.5-15.5T345 897q0-25-16.5-40T286 842H97zm473-7q-77 0-126 62.5T395 1066t49.5 168 125.5 62 126-62.5 50-167.5q0-106-49.5-168.5T570 835zm0 105q29 0 41 31t12 95q0 63-12 94t-41 31q-52 0-52-125 0-126 52-126zm42-788q23 0 38-14.5T665 98q0-30-28-55-35-31-98.5-51.5T404-29q-126 0-217.5 52.5T60 191H28q-58 0-58 57 0 27 16.5 42T28 305h14q-1 10-1 30 0 22 1 32H28q-58 0-58 57 0 27 16.5 42T28 481h34q38 113 130.5 165.5T404 699q64 0 127.5-18T633 634q29-21 29-51 0-26-16.5-41.5T606 526q-15 0-45 15-70 38-157 38-158 0-209-98h289q25 0 41.5-14.5T542 425q0-28-16.5-43T484 367H167q-1-10-1-32 0-20 1-30h317q25 0 41.5-14.5T542 249q0-28-16.5-43T484 191H194Q245 91 404 91q53 0 88 9.5t75 35.5q25 16 45 16z"/><glyph glyph-name="twoone.euro" horiz-adv-x="758" d="M97 842q-22 0-36.5 15.5T46 899q0 96 98 174 57 46 64 57 7 10 7 21 0 38-38 38-19 0-40-9-37-16-47-16-23 0-36.5 14T40 1214q0 27 34 51 43 31 106 31 75 0 117-39t42-106q0-43-26.5-75t-72.5-64q-65-44-74-60h120q26 0 42.5-15.5T345 897q0-25-16.5-40T286 842H97zm471-7q-27 0-42.5 15.5T510 894v246l-29-19q-18-12-36-12-22 0-36 14.5t-14 36.5q0 33 32 54l105 70q19 12 38 12 24 0 40.5-15.5T627 1240V894q0-28-16-43.5T568 835zm44-683q23 0 38-14.5T665 98q0-30-28-55-35-31-98.5-51.5T404-29q-126 0-217.5 52.5T60 191H28q-58 0-58 57 0 27 16.5 42T28 305h14q-1 10-1 30 0 22 1 32H28q-58 0-58 57 0 27 16.5 42T28 481h34q38 113 130.5 165.5T404 699q64 0 127.5-18T633 634q29-21 29-51 0-26-16.5-41.5T606 526q-15 0-45 15-70 38-157 38-158 0-209-98h289q25 0 41.5-14.5T542 425q0-28-16.5-43T484 367H167q-1-10-1-32 0-20 1-30h317q25 0 41.5-14.5T542 249q0-28-16.5-43T484 191H194Q245 91 404 91q53 0 88 9.5t75 35.5q25 16 45 16z"/><glyph glyph-name="twotwo.euro" horiz-adv-x="809" d="M97 842q-22 0-36.5 15.5T46 899q0 96 98 174 57 46 64 57 7 10 7 21 0 38-38 38-19 0-40-9-37-16-47-16-23 0-36.5 14T40 1214q0 27 34 51 43 31 106 31 75 0 117-39t42-106q0-43-26.5-75t-72.5-64q-65-44-74-60h120q26 0 42.5-15.5T345 897q0-25-16.5-40T286 842H97zm365 0q-22 0-36.5 15.5T411 899q0 96 98 174 57 46 64 57 7 10 7 21 0 38-38 38-19 0-40-9-37-16-47-16-23 0-36.5 14t-13.5 36q0 27 34 51 43 31 106 31 75 0 117-39t42-106q0-43-26.5-75t-72.5-64q-65-44-74-60h120q26 0 42.5-15.5T710 897q0-25-16.5-40T651 842H462zm150-690q23 0 38-14.5T665 98q0-30-28-55-35-31-98.5-51.5T404-29q-126 0-217.5 52.5T60 191H28q-58 0-58 57 0 27 16.5 42T28 305h14q-1 10-1 30 0 22 1 32H28q-58 0-58 57 0 27 16.5 42T28 481h34q38 113 130.5 165.5T404 699q64 0 127.5-18T633 634q29-21 29-51 0-26-16.5-41.5T606 526q-15 0-45 15-70 38-157 38-158 0-209-98h289q25 0 41.5-14.5T542 425q0-28-16.5-43T484 367H167q-1-10-1-32 0-20 1-30h317q25 0 41.5-14.5T542 249q0-28-16.5-43T484 191H194Q245 91 404 91q53 0 88 9.5t75 35.5q25 16 45 16z"/><glyph glyph-name="twothree.euro" horiz-adv-x="797" d="M97 842q-22 0-36.5 15.5T46 899q0 96 98 174 57 46 64 57 7 10 7 21 0 38-38 38-19 0-40-9-37-16-47-16-23 0-36.5 14T40 1214q0 27 34 51 43 31 106 31 75 0 117-39t42-106q0-43-26.5-75t-72.5-64q-65-44-74-60h120q26 0 42.5-15.5T345 897q0-25-16.5-40T286 842H97zm435-7q-68 0-114 40-23 21-23 47 0 21 14.5 35.5T448 972q7 0 14-2t10.5-3.5 11-6T494 955q24-13 42-13 42 0 42 36 0 41-42 41h-12q-28 0-44 14.5t-16 38.5q0 53 60 53h12q30 0 30 33 0 31-34 31-15 0-33-8-37-17-47-17-22 0-36 14t-14 36q0 29 34 52 45 30 103 30 69 0 110-33t41-93q0-63-63-96 38-13 56.5-40t18.5-59q0-68-47.5-104T532 835zm80-683q23 0 38-14.5T665 98q0-30-28-55-35-31-98.5-51.5T404-29q-126 0-217.5 52.5T60 191H28q-58 0-58 57 0 27 16.5 42T28 305h14q-1 10-1 30 0 22 1 32H28q-58 0-58 57 0 27 16.5 42T28 481h34q38 113 130.5 165.5T404 699q64 0 127.5-18T633 634q29-21 29-51 0-26-16.5-41.5T606 526q-15 0-45 15-70 38-157 38-158 0-209-98h289q25 0 41.5-14.5T542 425q0-28-16.5-43T484 367H167q-1-10-1-32 0-20 1-30h317q25 0 41.5-14.5T542 249q0-28-16.5-43T484 191H194Q245 91 404 91q53 0 88 9.5t75 35.5q25 16 45 16z"/><glyph glyph-name="twofour.euro" horiz-adv-x="828" d="M97 842q-22 0-36.5 15.5T46 899q0 96 98 174 57 46 64 57 7 10 7 21 0 38-38 38-19 0-40-9-37-16-47-16-23 0-36.5 14T40 1214q0 27 34 51 43 31 106 31 75 0 117-39t42-106q0-43-26.5-75t-72.5-64q-65-44-74-60h120q26 0 42.5-15.5T345 897q0-25-16.5-40T286 842H97zm510-7q-26 0-42 15.5T549 894v29H437q-30 0-46 14.5T375 975q0 17 6 42 16 67 50.5 134.5T501 1262q27 34 62 34 27 0 43-16t16-41q0-23-33-63-68-80-86-143h46v22q0 28 16.5 44.5T607 1116t42-16.5 17-44.5v-22h12q63 0 63-55 0-26-17-40.5T678 923h-12v-29q0-27-17-43t-42-16zm5-683q23 0 38-14.5T665 98q0-30-28-55-35-31-98.5-51.5T404-29q-126 0-217.5 52.5T60 191H28q-58 0-58 57 0 27 16.5 42T28 305h14q-1 10-1 30 0 22 1 32H28q-58 0-58 57 0 27 16.5 42T28 481h34q38 113 130.5 165.5T404 699q64 0 127.5-18T633 634q29-21 29-51 0-26-16.5-41.5T606 526q-15 0-45 15-70 38-157 38-158 0-209-98h289q25 0 41.5-14.5T542 425q0-28-16.5-43T484 367H167q-1-10-1-32 0-20 1-30h317q25 0 41.5-14.5T542 249q0-28-16.5-43T484 191H194Q245 91 404 91q53 0 88 9.5t75 35.5q25 16 45 16z"/><glyph glyph-name="twofive.euro" horiz-adv-x="811" d="M97 842q-22 0-36.5 15.5T46 899q0 96 98 174 57 46 64 57 7 10 7 21 0 38-38 38-19 0-40-9-37-16-47-16-23 0-36.5 14T40 1214q0 27 34 51 43 31 106 31 75 0 117-39t42-106q0-43-26.5-75t-72.5-64q-65-44-74-60h120q26 0 42.5-15.5T345 897q0-25-16.5-40T286 842H97zm453-7q-78 0-122 40-23 21-23 47 0 23 16 36.5t37 13.5q17 0 46-17 24-13 42-13 20 0 33 12.5t13 35.5q0 21-13 31.5t-32 10.5q-14 0-38-9-25-10-43-10-23 0-40 13t-17 39v163q0 31 19 46.5t47 15.5h167q26 0 42.5-15t16.5-40q0-24-16.5-39.5T642 1180H526v-60q30 15 58 15 58 0 94-36.5t36-98.5q0-72-48-118.5T550 835zm62-683q23 0 38-14.5T665 98q0-30-28-55-35-31-98.5-51.5T404-29q-126 0-217.5 52.5T60 191H28q-58 0-58 57 0 27 16.5 42T28 305h14q-1 10-1 30 0 22 1 32H28q-58 0-58 57 0 27 16.5 42T28 481h34q38 113 130.5 165.5T404 699q64 0 127.5-18T633 634q29-21 29-51 0-26-16.5-41.5T606 526q-15 0-45 15-70 38-157 38-158 0-209-98h289q25 0 41.5-14.5T542 425q0-28-16.5-43T484 367H167q-1-10-1-32 0-20 1-30h317q25 0 41.5-14.5T542 249q0-28-16.5-43T484 191H194Q245 91 404 91q53 0 88 9.5t75 35.5q25 16 45 16z"/><glyph glyph-name="twosix.euro" horiz-adv-x="822" d="M97 842q-22 0-36.5 15.5T46 899q0 96 98 174 57 46 64 57 7 10 7 21 0 38-38 38-19 0-40-9-37-16-47-16-23 0-36.5 14T40 1214q0 27 34 51 43 31 106 31 75 0 117-39t42-106q0-43-26.5-75t-72.5-64q-65-44-74-60h120q26 0 42.5-15.5T345 897q0-25-16.5-40T286 842H97zm500 294q59 0 93.5-40T725 992q0-65-46.5-111T563 835q-79 0-123.5 54T395 1039q0 119 51 188t134 69q56 0 101-30 34-23 34-52 0-24-15-37t-35-13q-15 0-45 16-20 11-35 11-27 0-41.5-19t-20.5-65q27 29 74 29zm-34-191q38 0 38 47t-38 47-38-47 38-47zm49-793q23 0 38-14.5T665 98q0-30-28-55-35-31-98.5-51.5T404-29q-126 0-217.5 52.5T60 191H28q-58 0-58 57 0 27 16.5 42T28 305h14q-1 10-1 30 0 22 1 32H28q-58 0-58 57 0 27 16.5 42T28 481h34q38 113 130.5 165.5T404 699q64 0 127.5-18T633 634q29-21 29-51 0-26-16.5-41.5T606 526q-15 0-45 15-70 38-157 38-158 0-209-98h289q25 0 41.5-14.5T542 425q0-28-16.5-43T484 367H167q-1-10-1-32 0-20 1-30h317q25 0 41.5-14.5T542 249q0-28-16.5-43T484 191H194Q245 91 404 91q53 0 88 9.5t75 35.5q25 16 45 16z"/><glyph glyph-name="twoseven.euro" horiz-adv-x="804" d="M97 842q-22 0-36.5 15.5T46 899q0 96 98 174 57 46 64 57 7 10 7 21 0 38-38 38-19 0-40-9-37-16-47-16-23 0-36.5 14T40 1214q0 27 34 51 43 31 106 31 75 0 117-39t42-106q0-43-26.5-75t-72.5-64q-65-44-74-60h120q26 0 42.5-15.5T345 897q0-25-16.5-40T286 842H97zm398-7q-26 0-41 14.5T439 891q0 85 75 199 10 16 33 46.5t32 43.5H444q-26 0-42.5 15t-16.5 40q0 24 16.5 39.5T444 1290h205q26 0 41.5-15t15.5-40q0-9-1.5-16.5t-3.5-14-9-18l-12.5-20.5-19-30.5L636 1095q-46-76-75-204-13-56-66-56zm117-683q23 0 38-14.5T665 98q0-30-28-55-35-31-98.5-51.5T404-29q-126 0-217.5 52.5T60 191H28q-58 0-58 57 0 27 16.5 42T28 305h14q-1 10-1 30 0 22 1 32H28q-58 0-58 57 0 27 16.5 42T28 481h34q38 113 130.5 165.5T404 699q64 0 127.5-18T633 634q29-21 29-51 0-26-16.5-41.5T606 526q-15 0-45 15-70 38-157 38-158 0-209-98h289q25 0 41.5-14.5T542 425q0-28-16.5-43T484 367H167q-1-10-1-32 0-20 1-30h317q25 0 41.5-14.5T542 249q0-28-16.5-43T484 191H194Q245 91 404 91q53 0 88 9.5t75 35.5q25 16 45 16z"/><glyph glyph-name="twoeight.euro" horiz-adv-x="814" d="M97 842q-22 0-36.5 15.5T46 899q0 96 98 174 57 46 64 57 7 10 7 21 0 38-38 38-19 0-40-9-37-16-47-16-23 0-36.5 14T40 1214q0 27 34 51 43 31 106 31 75 0 117-39t42-106q0-43-26.5-75t-72.5-64q-65-44-74-60h120q26 0 42.5-15.5T345 897q0-25-16.5-40T286 842H97zm454-7q-71 0-118.5 36T385 972q0 71 64 108-52 24-52 83 0 64 46 98.5t111 34.5q68 0 112.5-34t44.5-99q0-25-15.5-49t-40.5-39q35-17 50.5-41t15.5-62q0-67-48.5-102T551 835zm21 281q22 20 22 44 0 31-40 31-17 0-28-8.5t-11-22.5q0-25 57-44zm-21-176q22 0 37.5 11.5T604 982q0 14-17 23.5t-60 23.5q-24-15-24-46 0-19 13-31t35-12zm61-788q23 0 38-14.5T665 98q0-30-28-55-35-31-98.5-51.5T404-29q-126 0-217.5 52.5T60 191H28q-58 0-58 57 0 27 16.5 42T28 305h14q-1 10-1 30 0 22 1 32H28q-58 0-58 57 0 27 16.5 42T28 481h34q38 113 130.5 165.5T404 699q64 0 127.5-18T633 634q29-21 29-51 0-26-16.5-41.5T606 526q-15 0-45 15-70 38-157 38-158 0-209-98h289q25 0 41.5-14.5T542 425q0-28-16.5-43T484 367H167q-1-10-1-32 0-20 1-30h317q25 0 41.5-14.5T542 249q0-28-16.5-43T484 191H194Q245 91 404 91q53 0 88 9.5t75 35.5q25 16 45 16z"/><glyph glyph-name="twonine.euro" horiz-adv-x="822" d="M97 842q-22 0-36.5 15.5T46 899q0 96 98 174 57 46 64 57 7 10 7 21 0 38-38 38-19 0-40-9-37-16-47-16-23 0-36.5 14T40 1214q0 27 34 51 43 31 106 31 75 0 117-39t42-106q0-43-26.5-75t-72.5-64q-65-44-74-60h120q26 0 42.5-15.5T345 897q0-25-16.5-40T286 842H97zm460 454q80 0 124-50t44-144q0-123-51.5-195T540 835q-56 0-101 30-34 23-34 52 0 24 15 37t35 13q15 0 45-16 20-11 35-11 27 0 41.5 18.5T598 1024q-31-29-75-29-59 0-93.5 40T395 1139q0 65 46.5 111t115.5 46zm0-204q38 0 38 47t-38 47-38-47 38-47zm55-940q23 0 38-14.5T665 98q0-30-28-55-35-31-98.5-51.5T404-29q-126 0-217.5 52.5T60 191H28q-58 0-58 57 0 27 16.5 42T28 305h14q-1 10-1 30 0 22 1 32H28q-58 0-58 57 0 27 16.5 42T28 481h34q38 113 130.5 165.5T404 699q64 0 127.5-18T633 634q29-21 29-51 0-26-16.5-41.5T606 526q-15 0-45 15-70 38-157 38-158 0-209-98h289q25 0 41.5-14.5T542 425q0-28-16.5-43T484 367H167q-1-10-1-32 0-20 1-30h317q25 0 41.5-14.5T542 249q0-28-16.5-43T484 191H194Q245 91 404 91q53 0 88 9.5t75 35.5q25 16 45 16z"/><glyph glyph-name="threezero.euro" horiz-adv-x="825" d="M157 835q-68 0-114 40-23 21-23 47 0 21 14.5 35.5T73 972q7 0 14-2t10.5-3.5 11-6T119 955q24-13 42-13 42 0 42 36 0 41-42 41h-12q-28 0-44 14.5T89 1072q0 53 60 53h12q30 0 30 33 0 31-34 31-15 0-33-8-37-17-47-17-22 0-36 14t-14 36q0 29 34 52 45 30 103 30 69 0 110-33t41-93q0-63-63-96 38-13 56.5-40t18.5-59q0-68-47.5-104T157 835zm393 0q-77 0-126 62.5T375 1066t49.5 168 125.5 62 126-62.5 50-167.5q0-106-49.5-168.5T550 835zm0 105q29 0 41 31t12 95q0 63-12 94t-41 31q-52 0-52-125 0-126 52-126zm62-788q23 0 38-14.5T665 98q0-30-28-55-35-31-98.5-51.5T404-29q-126 0-217.5 52.5T60 191H28q-58 0-58 57 0 27 16.5 42T28 305h14q-1 10-1 30 0 22 1 32H28q-58 0-58 57 0 27 16.5 42T28 481h34q38 113 130.5 165.5T404 699q64 0 127.5-18T633 634q29-21 29-51 0-26-16.5-41.5T606 526q-15 0-45 15-70 38-157 38-158 0-209-98h289q25 0 41.5-14.5T542 425q0-28-16.5-43T484 367H167q-1-10-1-32 0-20 1-30h317q25 0 41.5-14.5T542 249q0-28-16.5-43T484 191H194Q245 91 404 91q53 0 88 9.5t75 35.5q25 16 45 16z"/><glyph glyph-name="threeone.euro" horiz-adv-x="758" d="M157 835q-68 0-114 40-23 21-23 47 0 21 14.5 35.5T73 972q7 0 14-2t10.5-3.5 11-6T119 955q24-13 42-13 42 0 42 36 0 41-42 41h-12q-28 0-44 14.5T89 1072q0 53 60 53h12q30 0 30 33 0 31-34 31-15 0-33-8-37-17-47-17-22 0-36 14t-14 36q0 29 34 52 45 30 103 30 69 0 110-33t41-93q0-63-63-96 38-13 56.5-40t18.5-59q0-68-47.5-104T157 835zm411 0q-27 0-42.5 15.5T510 894v246l-29-19q-18-12-36-12-22 0-36 14.5t-14 36.5q0 33 32 54l105 70q19 12 38 12 24 0 40.5-15.5T627 1240V894q0-28-16-43.5T568 835zm44-683q23 0 38-14.5T665 98q0-30-28-55-35-31-98.5-51.5T404-29q-126 0-217.5 52.5T60 191H28q-58 0-58 57 0 27 16.5 42T28 305h14q-1 10-1 30 0 22 1 32H28q-58 0-58 57 0 27 16.5 42T28 481h34q38 113 130.5 165.5T404 699q64 0 127.5-18T633 634q29-21 29-51 0-26-16.5-41.5T606 526q-15 0-45 15-70 38-157 38-158 0-209-98h289q25 0 41.5-14.5T542 425q0-28-16.5-43T484 367H167q-1-10-1-32 0-20 1-30h317q25 0 41.5-14.5T542 249q0-28-16.5-43T484 191H194Q245 91 404 91q53 0 88 9.5t75 35.5q25 16 45 16z"/><glyph glyph-name="threetwo.euro" horiz-adv-x="789" d="M157 835q-68 0-114 40-23 21-23 47 0 21 14.5 35.5T73 972q7 0 14-2t10.5-3.5 11-6T119 955q24-13 42-13 42 0 42 36 0 41-42 41h-12q-28 0-44 14.5T89 1072q0 53 60 53h12q30 0 30 33 0 31-34 31-15 0-33-8-37-17-47-17-22 0-36 14t-14 36q0 29 34 52 45 30 103 30 69 0 110-33t41-93q0-63-63-96 38-13 56.5-40t18.5-59q0-68-47.5-104T157 835zm285 7q-22 0-36.5 15.5T391 899q0 96 98 174 57 46 64 57 7 10 7 21 0 38-38 38-19 0-40-9-37-16-47-16-23 0-36.5 14t-13.5 36q0 27 34 51 43 31 106 31 75 0 117-39t42-106q0-43-26.5-75t-72.5-64q-65-44-74-60h120q26 0 42.5-15.5T690 897q0-25-16.5-40T631 842H442zm170-690q23 0 38-14.5T665 98q0-30-28-55-35-31-98.5-51.5T404-29q-126 0-217.5 52.5T60 191H28q-58 0-58 57 0 27 16.5 42T28 305h14q-1 10-1 30 0 22 1 32H28q-58 0-58 57 0 27 16.5 42T28 481h34q38 113 130.5 165.5T404 699q64 0 127.5-18T633 634q29-21 29-51 0-26-16.5-41.5T606 526q-15 0-45 15-70 38-157 38-158 0-209-98h289q25 0 41.5-14.5T542 425q0-28-16.5-43T484 367H167q-1-10-1-32 0-20 1-30h317q25 0 41.5-14.5T542 249q0-28-16.5-43T484 191H194Q245 91 404 91q53 0 88 9.5t75 35.5q25 16 45 16z"/><glyph glyph-name="threethree.euro" horiz-adv-x="777" d="M157 835q-68 0-114 40-23 21-23 47 0 21 14.5 35.5T73 972q7 0 14-2t10.5-3.5 11-6T119 955q24-13 42-13 42 0 42 36 0 41-42 41h-12q-28 0-44 14.5T89 1072q0 53 60 53h12q30 0 30 33 0 31-34 31-15 0-33-8-37-17-47-17-22 0-36 14t-14 36q0 29 34 52 45 30 103 30 69 0 110-33t41-93q0-63-63-96 38-13 56.5-40t18.5-59q0-68-47.5-104T157 835zm355 0q-68 0-114 40-23 21-23 47 0 21 14.5 35.5T428 972q7 0 14-2t10.5-3.5 11-6T474 955q24-13 42-13 42 0 42 36 0 41-42 41h-12q-28 0-44 14.5t-16 38.5q0 53 60 53h12q30 0 30 33 0 31-34 31-15 0-33-8-37-17-47-17-22 0-36 14t-14 36q0 29 34 52 45 30 103 30 69 0 110-33t41-93q0-63-63-96 38-13 56.5-40t18.5-59q0-68-47.5-104T512 835zm100-683q23 0 38-14.5T665 98q0-30-28-55-35-31-98.5-51.5T404-29q-126 0-217.5 52.5T60 191H28q-58 0-58 57 0 27 16.5 42T28 305h14q-1 10-1 30 0 22 1 32H28q-58 0-58 57 0 27 16.5 42T28 481h34q38 113 130.5 165.5T404 699q64 0 127.5-18T633 634q29-21 29-51 0-26-16.5-41.5T606 526q-15 0-45 15-70 38-157 38-158 0-209-98h289q25 0 41.5-14.5T542 425q0-28-16.5-43T484 367H167q-1-10-1-32 0-20 1-30h317q25 0 41.5-14.5T542 249q0-28-16.5-43T484 191H194Q245 91 404 91q53 0 88 9.5t75 35.5q25 16 45 16z"/><glyph glyph-name="threefour.euro" horiz-adv-x="818" d="M157 835q-68 0-114 40-23 21-23 47 0 21 14.5 35.5T73 972q7 0 14-2t10.5-3.5 11-6T119 955q24-13 42-13 42 0 42 36 0 41-42 41h-12q-28 0-44 14.5T89 1072q0 53 60 53h12q30 0 30 33 0 31-34 31-15 0-33-8-37-17-47-17-22 0-36 14t-14 36q0 29 34 52 45 30 103 30 69 0 110-33t41-93q0-63-63-96 38-13 56.5-40t18.5-59q0-68-47.5-104T157 835zm440 0q-26 0-42 15.5T539 894v29H427q-30 0-46 14.5T365 975q0 17 6 42 16 67 50.5 134.5T491 1262q27 34 62 34 27 0 43-16t16-41q0-23-33-63-68-80-86-143h46v22q0 28 16.5 44.5T597 1116t42-16.5 17-44.5v-22h12q63 0 63-55 0-26-17-40.5T668 923h-12v-29q0-27-17-43t-42-16zm15-683q23 0 38-14.5T665 98q0-30-28-55-35-31-98.5-51.5T404-29q-126 0-217.5 52.5T60 191H28q-58 0-58 57 0 27 16.5 42T28 305h14q-1 10-1 30 0 22 1 32H28q-58 0-58 57 0 27 16.5 42T28 481h34q38 113 130.5 165.5T404 699q64 0 127.5-18T633 634q29-21 29-51 0-26-16.5-41.5T606 526q-15 0-45 15-70 38-157 38-158 0-209-98h289q25 0 41.5-14.5T542 425q0-28-16.5-43T484 367H167q-1-10-1-32 0-20 1-30h317q25 0 41.5-14.5T542 249q0-28-16.5-43T484 191H194Q245 91 404 91q53 0 88 9.5t75 35.5q25 16 45 16z"/><glyph glyph-name="threefive.euro" horiz-adv-x="781" d="M157 835q-68 0-114 40-23 21-23 47 0 21 14.5 35.5T73 972q7 0 14-2t10.5-3.5 11-6T119 955q24-13 42-13 42 0 42 36 0 41-42 41h-12q-28 0-44 14.5T89 1072q0 53 60 53h12q30 0 30 33 0 31-34 31-15 0-33-8-37-17-47-17-22 0-36 14t-14 36q0 29 34 52 45 30 103 30 69 0 110-33t41-93q0-63-63-96 38-13 56.5-40t18.5-59q0-68-47.5-104T157 835zm363 0q-78 0-122 40-23 21-23 47 0 23 16 36.5t37 13.5q17 0 46-17 24-13 42-13 20 0 33 12.5t13 35.5q0 21-13 31.5t-32 10.5q-14 0-38-9-25-10-43-10-23 0-40 13t-17 39v163q0 31 19 46.5t47 15.5h167q26 0 42.5-15t16.5-40q0-24-16.5-39.5T612 1180H496v-60q30 15 58 15 58 0 94-36.5t36-98.5q0-72-48-118.5T520 835zm92-683q23 0 38-14.5T665 98q0-30-28-55-35-31-98.5-51.5T404-29q-126 0-217.5 52.5T60 191H28q-58 0-58 57 0 27 16.5 42T28 305h14q-1 10-1 30 0 22 1 32H28q-58 0-58 57 0 27 16.5 42T28 481h34q38 113 130.5 165.5T404 699q64 0 127.5-18T633 634q29-21 29-51 0-26-16.5-41.5T606 526q-15 0-45 15-70 38-157 38-158 0-209-98h289q25 0 41.5-14.5T542 425q0-28-16.5-43T484 367H167q-1-10-1-32 0-20 1-30h317q25 0 41.5-14.5T542 249q0-28-16.5-43T484 191H194Q245 91 404 91q53 0 88 9.5t75 35.5q25 16 45 16z"/><glyph glyph-name="threesix.euro" horiz-adv-x="797" d="M157 835q-68 0-114 40-23 21-23 47 0 21 14.5 35.5T73 972q7 0 14-2t10.5-3.5 11-6T119 955q24-13 42-13 42 0 42 36 0 41-42 41h-12q-28 0-44 14.5T89 1072q0 53 60 53h12q30 0 30 33 0 31-34 31-15 0-33-8-37-17-47-17-22 0-36 14t-14 36q0 29 34 52 45 30 103 30 69 0 110-33t41-93q0-63-63-96 38-13 56.5-40t18.5-59q0-68-47.5-104T157 835zm415 301q59 0 93.5-40T700 992q0-65-46.5-111T538 835q-79 0-123.5 54T370 1039q0 119 51 188t134 69q56 0 101-30 34-23 34-52 0-24-15-37t-35-13q-15 0-45 16-20 11-35 11-27 0-41.5-19t-20.5-65q27 29 74 29zm-34-191q38 0 38 47t-38 47-38-47 38-47zm74-793q23 0 38-14.5T665 98q0-30-28-55-35-31-98.5-51.5T404-29q-126 0-217.5 52.5T60 191H28q-58 0-58 57 0 27 16.5 42T28 305h14q-1 10-1 30 0 22 1 32H28q-58 0-58 57 0 27 16.5 42T28 481h34q38 113 130.5 165.5T404 699q64 0 127.5-18T633 634q29-21 29-51 0-26-16.5-41.5T606 526q-15 0-45 15-70 38-157 38-158 0-209-98h289q25 0 41.5-14.5T542 425q0-28-16.5-43T484 367H167q-1-10-1-32 0-20 1-30h317q25 0 41.5-14.5T542 249q0-28-16.5-43T484 191H194Q245 91 404 91q53 0 88 9.5t75 35.5q25 16 45 16z"/><glyph glyph-name="threeseven.euro" horiz-adv-x="794" d="M157 835q-68 0-114 40-23 21-23 47 0 21 14.5 35.5T73 972q7 0 14-2t10.5-3.5 11-6T119 955q24-13 42-13 42 0 42 36 0 41-42 41h-12q-28 0-44 14.5T89 1072q0 53 60 53h12q30 0 30 33 0 31-34 31-15 0-33-8-37-17-47-17-22 0-36 14t-14 36q0 29 34 52 45 30 103 30 69 0 110-33t41-93q0-63-63-96 38-13 56.5-40t18.5-59q0-68-47.5-104T157 835zm328 0q-26 0-41 14.5T429 891q0 85 75 199 10 16 33 46.5t32 43.5H434q-26 0-42.5 15t-16.5 40q0 24 16.5 39.5T434 1290h205q26 0 41.5-15t15.5-40q0-9-1.5-16.5t-3.5-14-9-18l-12.5-20.5-19-30.5L626 1095q-46-76-75-204-13-56-66-56zm127-683q23 0 38-14.5T665 98q0-30-28-55-35-31-98.5-51.5T404-29q-126 0-217.5 52.5T60 191H28q-58 0-58 57 0 27 16.5 42T28 305h14q-1 10-1 30 0 22 1 32H28q-58 0-58 57 0 27 16.5 42T28 481h34q38 113 130.5 165.5T404 699q64 0 127.5-18T633 634q29-21 29-51 0-26-16.5-41.5T606 526q-15 0-45 15-70 38-157 38-158 0-209-98h289q25 0 41.5-14.5T542 425q0-28-16.5-43T484 367H167q-1-10-1-32 0-20 1-30h317q25 0 41.5-14.5T542 249q0-28-16.5-43T484 191H194Q245 91 404 91q53 0 88 9.5t75 35.5q25 16 45 16z"/><glyph glyph-name="threeeight.euro" horiz-adv-x="804" d="M157 835q-68 0-114 40-23 21-23 47 0 21 14.5 35.5T73 972q7 0 14-2t10.5-3.5 11-6T119 955q24-13 42-13 42 0 42 36 0 41-42 41h-12q-28 0-44 14.5T89 1072q0 53 60 53h12q30 0 30 33 0 31-34 31-15 0-33-8-37-17-47-17-22 0-36 14t-14 36q0 29 34 52 45 30 103 30 69 0 110-33t41-93q0-63-63-96 38-13 56.5-40t18.5-59q0-68-47.5-104T157 835zm384 0q-71 0-118.5 36T375 972q0 71 64 108-52 24-52 83 0 64 46 98.5t111 34.5q68 0 112.5-34t44.5-99q0-25-15.5-49t-40.5-39q35-17 50.5-41t15.5-62q0-67-48.5-102T541 835zm21 281q22 20 22 44 0 31-40 31-17 0-28-8.5t-11-22.5q0-25 57-44zm-21-176q22 0 37.5 11.5T594 982q0 14-17 23.5t-60 23.5q-24-15-24-46 0-19 13-31t35-12zm71-788q23 0 38-14.5T665 98q0-30-28-55-35-31-98.5-51.5T404-29q-126 0-217.5 52.5T60 191H28q-58 0-58 57 0 27 16.5 42T28 305h14q-1 10-1 30 0 22 1 32H28q-58 0-58 57 0 27 16.5 42T28 481h34q38 113 130.5 165.5T404 699q64 0 127.5-18T633 634q29-21 29-51 0-26-16.5-41.5T606 526q-15 0-45 15-70 38-157 38-158 0-209-98h289q25 0 41.5-14.5T542 425q0-28-16.5-43T484 367H167q-1-10-1-32 0-20 1-30h317q25 0 41.5-14.5T542 249q0-28-16.5-43T484 191H194Q245 91 404 91q53 0 88 9.5t75 35.5q25 16 45 16z"/><glyph glyph-name="threenine.euro" horiz-adv-x="802" d="M157 835q-68 0-114 40-23 21-23 47 0 21 14.5 35.5T73 972q7 0 14-2t10.5-3.5 11-6T119 955q24-13 42-13 42 0 42 36 0 41-42 41h-12q-28 0-44 14.5T89 1072q0 53 60 53h12q30 0 30 33 0 31-34 31-15 0-33-8-37-17-47-17-22 0-36 14t-14 36q0 29 34 52 45 30 103 30 69 0 110-33t41-93q0-63-63-96 38-13 56.5-40t18.5-59q0-68-47.5-104T157 835zm380 461q80 0 124-50t44-144q0-123-51.5-195T520 835q-56 0-101 30-34 23-34 52 0 24 15 37t35 13q15 0 45-16 20-11 35-11 27 0 41.5 18.5T578 1024q-31-29-75-29-59 0-93.5 40T375 1139q0 65 46.5 111t115.5 46zm0-204q38 0 38 47t-38 47-38-47 38-47zm75-940q23 0 38-14.5T665 98q0-30-28-55-35-31-98.5-51.5T404-29q-126 0-217.5 52.5T60 191H28q-58 0-58 57 0 27 16.5 42T28 305h14q-1 10-1 30 0 22 1 32H28q-58 0-58 57 0 27 16.5 42T28 481h34q38 113 130.5 165.5T404 699q64 0 127.5-18T633 634q29-21 29-51 0-26-16.5-41.5T606 526q-15 0-45 15-70 38-157 38-158 0-209-98h289q25 0 41.5-14.5T542 425q0-28-16.5-43T484 367H167q-1-10-1-32 0-20 1-30h317q25 0 41.5-14.5T542 249q0-28-16.5-43T484 191H194Q245 91 404 91q53 0 88 9.5t75 35.5q25 16 45 16z"/><glyph glyph-name="fourzero.euro" horiz-adv-x="825" d="M222 835q-26 0-42 15.5T164 894v29H52q-30 0-46 14.5T-10 975q0 17 6 42 16 67 50.5 134.5T116 1262q27 34 62 34 27 0 43-16t16-41q0-23-33-63-68-80-86-143h46v22q0 28 16.5 44.5T222 1116t42-16.5 17-44.5v-22h12q63 0 63-55 0-26-17-40.5T293 923h-12v-29q0-27-17-43t-42-16zm328 0q-77 0-126 62.5T375 1066t49.5 168 125.5 62 126-62.5 50-167.5q0-106-49.5-168.5T550 835zm0 105q29 0 41 31t12 95q0 63-12 94t-41 31q-52 0-52-125 0-126 52-126zm62-788q23 0 38-14.5T665 98q0-30-28-55-35-31-98.5-51.5T404-29q-126 0-217.5 52.5T60 191H28q-58 0-58 57 0 27 16.5 42T28 305h14q-1 10-1 30 0 22 1 32H28q-58 0-58 57 0 27 16.5 42T28 481h34q38 113 130.5 165.5T404 699q64 0 127.5-18T633 634q29-21 29-51 0-26-16.5-41.5T606 526q-15 0-45 15-70 38-157 38-158 0-209-98h289q25 0 41.5-14.5T542 425q0-28-16.5-43T484 367H167q-1-10-1-32 0-20 1-30h317q25 0 41.5-14.5T542 249q0-28-16.5-43T484 191H194Q245 91 404 91q53 0 88 9.5t75 35.5q25 16 45 16z"/><glyph glyph-name="fourone.euro" horiz-adv-x="758" d="M222 835q-26 0-42 15.5T164 894v29H52q-30 0-46 14.5T-10 975q0 17 6 42 16 67 50.5 134.5T116 1262q27 34 62 34 27 0 43-16t16-41q0-23-33-63-68-80-86-143h46v22q0 28 16.5 44.5T222 1116t42-16.5 17-44.5v-22h12q63 0 63-55 0-26-17-40.5T293 923h-12v-29q0-27-17-43t-42-16zm296 0q-27 0-42.5 15.5T460 894v246l-29-19q-18-12-36-12-22 0-36 14.5t-14 36.5q0 33 32 54l105 70q19 12 38 12 24 0 40.5-15.5T577 1240V894q0-28-16-43.5T518 835zm94-683q23 0 38-14.5T665 98q0-30-28-55-35-31-98.5-51.5T404-29q-126 0-217.5 52.5T60 191H28q-58 0-58 57 0 27 16.5 42T28 305h14q-1 10-1 30 0 22 1 32H28q-58 0-58 57 0 27 16.5 42T28 481h34q38 113 130.5 165.5T404 699q64 0 127.5-18T633 634q29-21 29-51 0-26-16.5-41.5T606 526q-15 0-45 15-70 38-157 38-158 0-209-98h289q25 0 41.5-14.5T542 425q0-28-16.5-43T484 367H167q-1-10-1-32 0-20 1-30h317q25 0 41.5-14.5T542 249q0-28-16.5-43T484 191H194Q245 91 404 91q53 0 88 9.5t75 35.5q25 16 45 16z"/><glyph glyph-name="fourtwo.euro" horiz-adv-x="779" d="M222 835q-26 0-42 15.5T164 894v29H52q-30 0-46 14.5T-10 975q0 17 6 42 16 67 50.5 134.5T116 1262q27 34 62 34 27 0 43-16t16-41q0-23-33-63-68-80-86-143h46v22q0 28 16.5 44.5T222 1116t42-16.5 17-44.5v-22h12q63 0 63-55 0-26-17-40.5T293 923h-12v-29q0-27-17-43t-42-16zm210 7q-22 0-36.5 15.5T381 899q0 96 98 174 57 46 64 57 7 10 7 21 0 38-38 38-19 0-40-9-37-16-47-16-23 0-36.5 14t-13.5 36q0 27 34 51 43 31 106 31 75 0 117-39t42-106q0-43-26.5-75t-72.5-64q-65-44-74-60h120q26 0 42.5-15.5T680 897q0-25-16.5-40T621 842H432zm180-690q23 0 38-14.5T665 98q0-30-28-55-35-31-98.5-51.5T404-29q-126 0-217.5 52.5T60 191H28q-58 0-58 57 0 27 16.5 42T28 305h14q-1 10-1 30 0 22 1 32H28q-58 0-58 57 0 27 16.5 42T28 481h34q38 113 130.5 165.5T404 699q64 0 127.5-18T633 634q29-21 29-51 0-26-16.5-41.5T606 526q-15 0-45 15-70 38-157 38-158 0-209-98h289q25 0 41.5-14.5T542 425q0-28-16.5-43T484 367H167q-1-10-1-32 0-20 1-30h317q25 0 41.5-14.5T542 249q0-28-16.5-43T484 191H194Q245 91 404 91q53 0 88 9.5t75 35.5q25 16 45 16z"/><glyph glyph-name="fourthree.euro" horiz-adv-x="767" d="M222 835q-26 0-42 15.5T164 894v29H52q-30 0-46 14.5T-10 975q0 17 6 42 16 67 50.5 134.5T116 1262q27 34 62 34 27 0 43-16t16-41q0-23-33-63-68-80-86-143h46v22q0 28 16.5 44.5T222 1116t42-16.5 17-44.5v-22h12q63 0 63-55 0-26-17-40.5T293 923h-12v-29q0-27-17-43t-42-16zm280 0q-68 0-114 40-23 21-23 47 0 21 14.5 35.5T418 972q7 0 14-2t10.5-3.5 11-6T464 955q24-13 42-13 42 0 42 36 0 41-42 41h-12q-28 0-44 14.5t-16 38.5q0 53 60 53h12q30 0 30 33 0 31-34 31-15 0-33-8-37-17-47-17-22 0-36 14t-14 36q0 29 34 52 45 30 103 30 69 0 110-33t41-93q0-63-63-96 38-13 56.5-40t18.5-59q0-68-47.5-104T502 835zm110-683q23 0 38-14.5T665 98q0-30-28-55-35-31-98.5-51.5T404-29q-126 0-217.5 52.5T60 191H28q-58 0-58 57 0 27 16.5 42T28 305h14q-1 10-1 30 0 22 1 32H28q-58 0-58 57 0 27 16.5 42T28 481h34q38 113 130.5 165.5T404 699q64 0 127.5-18T633 634q29-21 29-51 0-26-16.5-41.5T606 526q-15 0-45 15-70 38-157 38-158 0-209-98h289q25 0 41.5-14.5T542 425q0-28-16.5-43T484 367H167q-1-10-1-32 0-20 1-30h317q25 0 41.5-14.5T542 249q0-28-16.5-43T484 191H194Q245 91 404 91q53 0 88 9.5t75 35.5q25 16 45 16z"/></font>
</defs>
</svg>
