<svg width="122" height="115" xmlns="http://www.w3.org/2000/svg"><defs><filter x="-27.5%" y="-27.7%" width="155.1%" height="155.3%" filterUnits="objectBoundingBox" id="a"><feGaussianBlur stdDeviation=".7" in="SourceGraphic"/></filter></defs><g transform="translate(0 3)" fill="none" fill-rule="evenodd"><g stroke="#575756" stroke-width="2"><path d="M28.951 43.263v8.674a1.5 1.5 0 001.5 1.5h1.617c.062 0 .113.05.113.113v34.17a1.5 1.5 0 001.5 1.5h56.544a1.5 1.5 0 001.5-1.5V53.55c0-.062.05-.113.113-.113h1.383c.826 0 1.496-.67 1.496-1.495v-8.68a1.5 1.5 0 00-1.5-1.5H30.45a1.5 1.5 0 00-1.5 1.5zm1.481 10.174H92.25M52.303 41.763V89.22m20.492-47.457V89.22"/><path d="M62.079 41.763c2.026-12.6 5.693-19.474 11.002-20.624 7.963-1.724 11.717 5.529 8.662 11.77-2.036 4.16-8.673 6.922-19.909 8.284m-.244.57c-2.027-12.6-5.694-19.474-11.003-20.624-7.963-1.724-11.717 5.529-8.662 11.77 2.036 4.16 8.673 6.922 19.909 8.284"/></g><ellipse fill="#F5B0A3" cx="114.375" cy="51.254" rx="7.625" ry="7.593"/><ellipse fill="#F5B0A3" fill-rule="nonzero" cx="5.719" cy="77.831" rx="5.719" ry="5.695"/><ellipse fill="#FDC400" fill-rule="nonzero" filter="url(#a)" cx="78.156" cy="3.797" rx="3.813" ry="3.797"/><ellipse fill="#239A98" cx="41.938" cy="108.203" rx="3.813" ry="3.797"/></g></svg>
