<svg xmlns="http://www.w3.org/2000/svg" width="280" height="112"><g fill="none" fill-rule="evenodd"><path fill="#009793" d="M0 84h20v12H0z"/><path fill="#F2F2F2" d="M9 0h24v14H9zm242 94h29v18h-29z"/><path fill="#009793" fill-opacity=".4" d="M251 19h17v10h-17z"/><g fill="#1A1919"><path d="M148.294 84.159c-1.068 1.125-2.826 1.672-5.374 1.672h-3.628c-2.38 0-4.156-.605-5.279-1.8-1.186-1.26-1.787-3.276-1.787-5.992 0-2.892.574-4.97 1.706-6.18 1.074-1.146 2.827-1.703 5.36-1.703h3.628c3.034 0 7.067.817 7.067 7.883 0 2.877-.57 4.935-1.693 6.12zm-5.374-17.003h-3.628c-6.71 0-10.066 3.446-10.066 10.883 0 7.074 3.582 10.792 10.066 10.792h3.628c6.711 0 10.067-3.356 10.067-10.792 0-7.074-3.582-10.883-10.067-10.883z"/><path d="M140.036 78.642h2.14c.114-.444.198-.66.26-.82.132-.339.17-.481.17-1.492v-4.088h-3v4.088c0 1.011.038 1.153.17 1.492.063.16.147.376.26.82m1.07 1.453a1.827 1.827 0 00-1.824 1.825c0 1.006.818 1.825 1.824 1.825a1.827 1.827 0 001.825-1.825 1.827 1.827 0 00-1.825-1.825"/></g><path fill="#111" fill-rule="nonzero" d="M231 0v32H49V0h182zm-3 3H52v26h176V3z"/><path fill="#009793" fill-rule="nonzero" d="M180 15.5v2H64v-2z"/><path fill="#F2F2F2" fill-rule="nonzero" d="M185.5 47v2H50v57h180V49h-28.854v-2H232v61H48V47z"/></g></svg>
