<svg xmlns="http://www.w3.org/2000/svg" width="284" height="118"><g fill="none" fill-rule="evenodd" transform="translate(2 1)"><circle cx="270" cy="105" r="10" fill="#F2F2F2" fill-rule="nonzero"/><circle cx="262" cy="26" r="4" fill="#D9415C" fill-rule="nonzero" filter="url(#no-results-(mobile)-a)"/><circle cx="4" cy="90" r="4" fill="#D9415C"/><circle cx="21.5" cy="9.5" r="8.5" fill="#F2F2F2"/><path fill="#F2F2F2" fill-rule="nonzero" d="M185.5 48v2H55.74c-3.06 0-5.626 2.966-5.736 6.747L50 57v43c0 3.816 2.5 6.865 5.537 6.996l.204.004h168.518c3.061 0 5.627-2.966 5.737-6.747L230 100V57c0-3.816-2.5-6.865-5.537-6.996l-.204-.004H208.25v-2h16.01c4.237 0 7.615 3.917 7.737 8.732L232 57v43c0 4.847-3.3 8.852-7.506 8.996l-.235.004H55.741c-4.238 0-7.616-3.917-7.738-8.732L48 100V57c0-4.847 3.3-8.852 7.506-8.996l.235-.004H185.5z"/><path fill="#D9415C" fill-rule="nonzero" d="M213 8a7 7 0 100 14 7 7 0 000-14zm0 2a5 5 0 110 10 5 5 0 010-10z"/><path fill="#D9415C" fill-rule="nonzero" d="M216.293 18.293a1 1 0 011.32-.083l.094.083 6 6a1 1 0 01-1.32 1.497l-.094-.083-6-6a1 1 0 010-1.414zm-76.66 46.21l-15.5 27A1 1 0 00125 93h31a1 1 0 00.867-1.498l-15.5-27a1 1 0 00-1.735 0zm.866 2.504L154.273 91h-27.547l13.773-23.993z"/><path fill="#D9415C" fill-rule="nonzero" d="M139 74h2v10h-2z"/><path fill="#D9415C" d="M139 88h2v-2h-2z"/><path fill="#D9415C" fill-rule="nonzero" d="M223 0H57a9 9 0 00-9 9v16a9 9 0 009 9h166a9 9 0 009-9V9a9 9 0 00-9-9zM57 2h166a7 7 0 017 7v16a7 7 0 01-7 7H57a7 7 0 01-7-7V9a7 7 0 017-7z"/><path fill="#D9415C" fill-rule="nonzero" d="M180 16v2H64v-2z"/><path fill="#D9415C" fill-rule="nonzero" d="M180 16.5v2H64v-2z"/></g></svg>
