<svg xmlns="http://www.w3.org/2000/svg" width="390" height="145"><g fill="none" fill-rule="evenodd" transform="translate(2 2)"><path fill="#F2F2F2" fill-rule="nonzero" d="M248 81v2H94a7 7 0 00-6.996 6.76L87 90v43a7 7 0 006.76 6.996L94 140h200a7 7 0 006.996-6.76L301 133V90a7 7 0 00-6.76-6.996L294 83h-19v-2h19a9 9 0 018.996 8.735L303 90v43a9 9 0 01-8.735 8.996L294 142H94a9 9 0 01-8.996-8.735L85 133V90a9 9 0 018.735-8.996L94 81h154z"/><path fill="#D9415C" fill-rule="nonzero" d="M278.818 41a6.818 6.818 0 100 13.636 6.818 6.818 0 000-13.636zm0 2a4.818 4.818 0 110 9.636 4.818 4.818 0 010-9.636z"/><path fill="#D9415C" fill-rule="nonzero" d="M282.255 51.255a1 1 0 011.32-.083l.094.083 5.62 5.62a1 1 0 01-1.32 1.498l-.093-.083-5.621-5.621a1 1 0 010-1.414z"/><circle cx="123" cy="9" r="4" fill="#D9415C" fill-rule="nonzero" filter="url(#no-results-(desktop)-a)" opacity=".5"/><circle cx="382" cy="41" r="4" fill="#D9415C" fill-rule="nonzero" filter="url(#no-results-(desktop)-b)"/><path fill="#D9415C" fill-rule="nonzero" d="M192.632 97.502l-15.5 27A1 1 0 00178 126h31a1 1 0 00.867-1.498l-15.5-27a1 1 0 00-1.735 0zm.867 2.505L207.273 124h-27.547l13.773-23.993z"/><path fill="#D9415C" fill-rule="nonzero" d="M192 107h2v10h-2z"/><path fill="#D9415C" d="M192 121h2v-2h-2z"/><path fill="#D9415C" fill-rule="nonzero" d="M293 33H94a9 9 0 00-9 9v16a9 9 0 009 9h199a9 9 0 009-9V42a9 9 0 00-9-9zM94 35h199a7 7 0 017 7v16a7 7 0 01-7 7H94a7 7 0 01-7-7V42a7 7 0 017-7z"/><path fill="#D9415C" fill-rule="nonzero" d="M217 49v2H101v-2z"/><ellipse cx="4.5" cy="45.67" fill="#D9415C" rx="4.5" ry="4.485"/><circle cx="50.5" cy="98.5" r="14.5" fill="#F2F2F2" fill-rule="nonzero"/><circle cx="343" cy="92" r="7" fill="#D9415C"/><circle cx="301.5" cy="8.5" r="8.5" fill="#F2F2F2"/></g></svg>
