<svg width="76" height="64" xmlns="http://www.w3.org/2000/svg"><defs><filter x="-52.5%" y="-52.5%" width="205%" height="205%" filterUnits="objectBoundingBox" id="a"><feGaussianBlur stdDeviation=".7" in="SourceGraphic"/></filter></defs><g fill="none" fill-rule="evenodd"><g transform="translate(12 5)"><circle fill="#F5B0A3" cx="60" cy="27" r="4"/><circle fill="#F5B0A3" fill-rule="nonzero" cx="3" cy="49" r="3"/><circle fill="#FDC400" fill-rule="nonzero" filter="url(#a)" cx="41" cy="2" r="2"/><circle fill="#239A98" cx="22" cy="57" r="2"/></g><g stroke="#575756" stroke-width="1.5"><g transform="translate(29 31)"><path d="M10.5 0v21M21.25 0v21"/><rect x=".062" width="31" height="21" rx="2"/></g><path d="M12.781 38.905l3.293 1.902a.847.847 0 001.158-.31l.423-.734 15.618-27.051.393-.68a.785.785 0 00-.287-1.072L30.03 9.028a1.5 1.5 0 00-2.049.549l-15.75 27.28a1.5 1.5 0 00.55 2.048zm4.416 1.653L33.41 12.473M17.607 27.547l5.196 3m.18-12.31l5.195 3"/><path d="M20.171 23.105c-5.216-4.239-7.39-7.716-6.522-10.43 1.302-4.072 5.595-3.867 7.641-.835 1.364 2.02.883 5.763-1.443 11.226"/><path d="M20.043 23.328c-6.28-2.399-10.378-2.543-12.295-.434-2.875 3.164-.55 6.78 3.098 7.035 2.432.171 5.433-2.116 9.001-6.863"/></g></g></svg>
