<?xml version="1.0" encoding="UTF-8"?>
<svg width="266px" height="214px" viewBox="0 0 266 214" version="1.1" xmlns="http://www.w3.org/2000/svg" xmlns:xlink="http://www.w3.org/1999/xlink">
    <title>Group Copy 6</title>
    <g id="Voucher-Activation-(ALMOST-APPROVED)" stroke="none" stroke-width="1" fill="none" fill-rule="evenodd">
        <g id="Activate-Voucher-locked--10.0" transform="translate(-591.000000, -341.000000)">
            <g id="Group-Copy-6" transform="translate(592.000000, 342.000000)">
                <g id="Group-2" transform="translate(0.000000, 30.000000)" stroke="#C5C6C6">
                    <g id="Group-3" transform="translate(0.000000, 0.005482)">
                        <g id="Group-4" transform="translate(0.354491, 0.000000)">
                            <path d="M151.667494,18.1629383 L170.417489,18.1629383 C173.559768,18.1629383 176.107089,20.7098517 176.107089,23.8516285 L176.107089,34.3620505 M98.0000792,111.572336 C81.515233,111.572336 56.7879638,111.572336 23.8182715,111.572336 C20.6759919,111.572336 18.128671,109.025422 18.128671,105.883645 L18.128671,23.8516285 C18.128671,20.7098517 20.6759919,18.1629383 23.8182715,18.1629383 L124.842202,18.1629383" id="Shape" stroke-width="2"></path>
                            <path d="M59.9834809,1.11022302e-16 C92.6324154,1.11022302e-16 114.672196,1.11022302e-16 126.102822,1.11022302e-16 M151.384908,1.11022302e-16 C157.123005,1.11022302e-16 167.954168,1.11022302e-16 183.878398,1.11022302e-16 M98.4836814,129.735274 C79.7350192,129.735274 49.0653005,129.735274 6.47452534,129.735274 C2.89874373,129.735274 0,126.831051 0,123.24851 C0,117.576294 0,113.322132 0,110.486024 M0,90.1218061 C0,78.2040741 0,56.987709 0,26.4727107 M0,17.6845663 C0,14.0688415 0,10.3362406 0,6.48676369 C0,2.90422303 2.89874373,0 6.47452534,0 L30.7657521,0" id="Shape" stroke-width="1.5" stroke-linecap="round"></path>
                            <path d="M98.0169121,96.0041027 L98.0169121,96.0041027 L51.4822328,96.0041027 C50.225321,96.0041027 49.2063926,94.9853373 49.2063926,93.7286266 L49.2063926,73.6298767 C49.2063926,72.373166 50.225321,71.3544006 51.4822328,71.3544006 L98.1068232,71.3544006 L98.1068232,71.3544006" id="Path" stroke-width="1.5" stroke-linecap="round"></path>
                            <path d="M27.1930064,53.1914623 C20.7565995,53.1914623 15.5388608,58.4190637 15.5388608,64.8676369 C15.5388608,71.3162101 20.7565995,76.5438116 27.1930064,76.5438116" id="Path-Copy-5" stroke-width="2" fill="#FFFFFF" stroke-linecap="round" transform="translate(21.365934, 64.867637) scale(-1, -1) translate(-21.365934, -64.867637) "></path>
                            <line x1="49.2063926" y1="33.7311712" x2="88.0535446" y2="33.7311712" id="Line-2" stroke-width="1.5" stroke-linecap="round"></line>
                        </g>
                    </g>
                </g>
                <g id="Group-9" transform="translate(104.000000, 0.000000)" stroke="#D73754">
                    <path d="M32.5607459,193 L14.5311628,193 C6.56519177,193 0.107496334,186.59933 0.107496334,178.703704 L0.107496334,82.2037037 C0.107496334,74.3080773 6.56519177,67.9074074 14.5311628,67.9074074 L111.890911,67.9074074 C119.856882,67.9074074 126.314578,74.3080773 126.314578,82.2037037 L126.314578,178.703704 C126.314578,186.59933 119.856882,193 111.890911,193 L43.1962631,193" id="Path" stroke-width="2" stroke-linecap="round"></path>
                    <path d="M99.2702032,62.5462963 L99.2702032,35.7407407 C99.2702032,16.0016747 83.1259646,0 63.2110371,0 C43.2961095,0 27.1518709,16.0016747 27.1518709,35.7407407 C27.1518709,38.9176955 27.1518709,41.3004115 27.1518709,42.8888889 C27.1518709,44.8959199 27.1518709,47.5369187 27.1518709,50.8118851 C27.1518709,52.0845647 27.1518709,55.996035 27.1518709,62.5462963" id="Path" stroke-width="2"></path>
                    <path d="M84.8465368,62.5462963 L84.8465368,35.7407407 C84.8465368,23.8973011 75.1599936,14.2962963 63.2110371,14.2962963 C51.2620806,14.2962963 41.5755374,23.8973011 41.5755374,35.7407407 L41.5755374,62.5462963" id="Shape" stroke-width="2"></path>
                    <path d="M19.9400377,66.1203704 L19.9400377,66.1203704 C19.9400377,64.1464638 21.5544616,62.5462963 23.5459543,62.5462963 L23.5459543,62.5462963 L45.181454,62.5462963 C47.1729468,62.5462963 48.7873706,64.1464638 48.7873706,66.1203704 L48.7873706,66.1203704" id="Path"></path>
                    <path d="M77.6347035,66.1203704 L77.6347035,66.1203704 C77.6347035,64.1464638 79.2491274,62.5462963 81.2406202,62.5462963 L81.2406202,62.5462963 L102.87612,62.5462963 C104.867613,62.5462963 106.482036,64.1464638 106.482036,66.1203704 L106.482036,66.1203704" id="Path-Copy-38"></path>
                    <path d="M87.0671657,88.3849524 C80.0174048,84.4490614 71.8787728,82.2037037 63.2110371,82.2037037 C36.3258849,82.2037037 14.5311628,103.805965 14.5311628,130.453704 C14.5311628,157.101443 36.3258849,178.703704 63.2110371,178.703704 L63.2110371,178.703704 C90.0961893,178.703704 111.890911,157.101443 111.890911,130.453704 C111.890911,120.506507 108.854001,111.262356 103.649038,103.582435" id="Path" stroke-linecap="round"></path>
                    <path d="M63.2110371,107.222222 C71.1770081,107.222222 77.6347035,113.622892 77.6347035,121.518519 C77.6347035,127.170909 74.3251557,132.057139 69.5219559,134.377348 L69.5213912,149.685185 C69.5213912,151.894324 67.7305302,153.685185 65.5213912,153.685185 L60.900683,153.685185 C58.691544,153.685185 56.900683,151.894324 56.900683,149.685185 L56.9001183,134.377348 C52.0969185,132.057139 48.7873706,127.170909 48.7873706,121.518519 C48.7873706,113.622892 55.2450661,107.222222 63.2110371,107.222222 Z" id="Combined-Shape"></path>
                </g>
            </g>
        </g>
    </g>
</svg>