<svg width="74" height="84" viewBox="0 0 74 84" fill="none" xmlns="http://www.w3.org/2000/svg">
<path d="M56.5098 5.6773C50.7266 1.98915 44.0096 0 37 0C16.9344 0 0.667969 16.2664 0.667969 36.3321C0.667969 56.3977 16.9344 72.6641 37 72.6641C57.0657 72.6641 73.3321 56.3977 73.3321 36.3321C73.3321 26.89 69.7142 18.0145 63.3398 11.3072C63.0973 11.0521 62.6938 11.0418 62.4386 11.2843C62.1835 11.5268 62.1732 11.9303 62.4157 12.1854C68.5672 18.6581 72.0573 27.2202 72.0573 36.3321C72.0573 55.6936 56.3616 71.3893 37 71.3893C17.6384 71.3893 1.94278 55.6936 1.94278 36.3321C1.94278 16.9705 17.6384 1.27481 37 1.27481C43.7649 1.27481 50.2444 3.19363 55.8243 6.75213C56.1211 6.94142 56.5152 6.85426 56.7045 6.55745C56.8937 6.26064 56.8066 5.86658 56.5098 5.6773Z" fill="#291D18"/>
<path d="M31.2632 55.4539L42.7365 55.4539L42.7365 65.6523L31.2632 65.6523L31.2632 55.4539Z" stroke="#291D18"/>
<path d="M29.9883 13.3851L29.9883 24.8584L44.0112 24.8584L44.0112 13.3851" stroke="#291D18"/>
<path d="M25.0538 29.0159C24.9639 26.7465 26.7794 24.8577 29.0506 24.8577L44.9491 24.8577C47.2203 24.8577 49.0358 26.7465 48.9459 29.0159L48.0515 51.6113C47.9666 53.7572 46.2023 55.4531 44.0547 55.4531L29.945 55.4531C27.7974 55.4531 26.0331 53.7572 25.9482 51.6113L25.0538 29.0159Z" stroke="#291D18"/>
<ellipse cx="36.9997" cy="13.385" rx="7.01145" ry="3.82443" stroke="#291D18"/>
<line x1="37.1372" y1="24.3584" x2="37.1372" y2="13.8851" stroke="#291D18" stroke-linecap="round"/>
<line x1="37.1372" y1="83" x2="37.1372" y2="66.1527" stroke="#291D18" stroke-linecap="round"/>
</svg>
