<svg width="420" height="321" viewBox="0 0 420 321" fill="none" xmlns="http://www.w3.org/2000/svg">
<g id="Delivery-illustration">
<g id="Group">
<g id="Trees">
<path id="Combined Shape" fill-rule="evenodd" clip-rule="evenodd" d="M89.1367 306.75V251.871H142.791C142.791 251.871 149.933 253.069 149.933 259.014H166.887C166.887 259.014 184.039 260.56 184.039 276.166V301.326H185.887C185.887 301.326 187.75 301.46 187.75 303.189V306.952L175.406 306.927C175.718 307.895 175.887 308.928 175.887 310C175.887 315.523 171.41 320 165.887 320C160.364 320 155.887 315.523 155.887 310C155.887 308.913 156.06 307.867 156.38 306.888L119.368 306.812C119.704 307.813 119.887 308.885 119.887 310C119.887 315.523 115.41 320 109.887 320C104.364 320 99.8867 315.523 99.8867 310C99.8867 308.871 100.074 307.786 100.419 306.773L89.1367 306.75Z" fill="#E5CFC7"/>
<path id="Line 4 Copy 2" d="M397.75 284.917V313.224H396.25V284.917H397.75Z" fill="#291D18"/>
<path id="Oval Copy 36" fill-rule="evenodd" clip-rule="evenodd" d="M374 263.5C374 251.074 384.074 241 396.5 241C408.926 241 419 251.074 419 263.5C419 275.926 408.926 286 396.5 286C384.074 286 374 275.926 374 263.5ZM417 263.5C417 252.178 407.822 243 396.5 243C385.178 243 376 252.178 376 263.5C376 274.822 385.178 284 396.5 284C407.822 284 417 274.822 417 263.5Z" fill="#291D18"/>
</g>
<g id="Clouds">
<path id="Path Copy 17" d="M242.535 1C250.714 1 257.737 6.60958 259.711 14.4044L259.736 14.511L260.067 14.4836C260.21 14.474 260.354 14.4667 260.498 14.4618L260.931 14.4545C267.537 14.4545 272.964 19.5212 273.58 25.9974L273.599 26.227L281 26.2273C281.513 26.2273 281.936 26.6133 281.993 27.1107L282 27.2273C282 27.7401 281.614 28.1628 281.117 28.2205L281 28.2273H272.638C272.086 28.2273 271.638 27.7796 271.638 27.2273C271.638 21.2764 266.843 16.4545 260.931 16.4545C260.321 16.4545 259.718 16.5058 259.125 16.607C258.588 16.6986 258.077 16.344 257.975 15.8092C256.561 8.42031 250.103 3 242.535 3C234.406 3 227.635 9.23375 226.88 17.3199C226.828 17.874 226.334 18.2793 225.78 18.2215C225.238 18.1649 224.69 18.1364 224.138 18.1364C217.8 18.1364 212.157 21.9433 209.691 27.6994C209.517 28.1061 209.096 28.35 208.656 28.2989C208.246 28.2513 207.832 28.2273 207.414 28.2273C201.502 28.2273 196.707 33.0491 196.707 39C196.707 39.5128 196.321 39.9355 195.824 39.9933L195.707 40H184C183.448 40 183 39.5523 183 39C183 38.4872 183.386 38.0645 183.883 38.0067L184 38H194.745L194.765 37.7701C195.371 31.3951 200.639 26.386 207.105 26.231L207.414 26.2273C207.579 26.2273 207.743 26.2304 207.908 26.2368L208.151 26.25C211.018 20.2459 217.019 16.2799 223.769 16.1402L224.138 16.1364C224.293 16.1364 224.448 16.1384 224.603 16.1424L225.006 16.158L225.009 16.1428C226.283 7.62887 233.517 1.16539 242.2 1.00313L242.535 1Z" fill="#291D18"/>
<path id="Path Copy 18" d="M128.809 123.864C125.732 123.864 122.783 124.73 120.243 126.33C116.162 120.857 109.841 117.449 102.91 117.157C102.404 108.701 95.3961 102 86.8245 102C78.25 102 71.2402 108.706 70.7387 117.165C62.6213 117.648 56.122 124.149 55.6259 132.273H44C43.4477 132.273 43 132.72 43 133.273C43 133.825 43.4477 134.273 44 134.273H56.5955C57.1477 134.273 57.5955 133.825 57.5955 133.273C57.5955 125.465 63.9151 119.136 71.71 119.136C72.2622 119.136 72.71 118.689 72.71 118.136C72.71 110.329 79.0296 104 86.8245 104C94.6194 104 100.939 110.329 100.939 118.136C100.939 118.689 101.387 119.136 101.939 119.136C108.917 119.136 115.31 122.597 119.167 128.266C119.483 128.731 120.121 128.844 120.578 128.515C122.959 126.8 125.812 125.864 128.809 125.864C136.604 125.864 142.924 132.192 142.924 140C142.924 140.552 143.371 141 143.924 141H154C154.552 141 155 140.552 155 140C155 139.448 154.552 139 154 139H144.893C144.378 130.554 137.374 123.864 128.809 123.864Z" fill="#291D18"/>
</g>
<path id="Shape" fill-rule="evenodd" clip-rule="evenodd" d="M303.546 72C304.098 72 304.546 72.4477 304.546 73C304.546 73.5128 304.16 73.9355 303.663 73.9933L303.546 74H240.52L224.821 95.4466C224.494 95.8923 223.869 95.9891 223.423 95.6629C223.012 95.3617 222.898 94.8054 223.139 94.3711L223.207 94.2653L239.206 72.4093C239.371 72.1842 239.621 72.0397 239.894 72.007L240.013 72H303.546ZM218.614 103.912C218.856 103.477 218.742 102.921 218.33 102.62C217.885 102.294 217.259 102.39 216.933 102.836L212.193 109.311L212.125 109.418C212.043 109.565 212 109.731 212 109.901V176.625L212.007 176.742C212.064 177.239 212.487 177.625 213 177.625C213.552 177.625 214 177.177 214 176.625V110.228L218.547 104.017L218.614 103.912ZM343 105.021C343.513 105.021 343.936 105.408 343.993 105.905L344 106.021V183.704C344 184.257 343.552 184.704 343 184.704C342.487 184.704 342.064 184.318 342.007 183.821L342 183.704V106.021C342 105.469 342.448 105.021 343 105.021ZM213.993 184.115C213.936 183.617 213.513 183.231 213 183.231C212.448 183.231 212 183.679 212 184.231V248.848L212.007 248.964C212.064 249.462 212.487 249.848 213 249.848C213.552 249.848 214 249.4 214 248.848V184.231L213.993 184.115ZM343 191.091C343.513 191.091 343.936 191.477 343.993 191.974L344 192.091V313C344 313.552 343.552 314 343 314C342.487 314 342.064 313.614 342.007 313.117L342 313V192.091C342 191.539 342.448 191.091 343 191.091ZM213 256.698C213.513 256.698 213.936 257.084 213.993 257.582L214 257.698V313C214 313.552 213.552 314 213 314C212.487 314 212.064 313.614 212.007 313.117L212 313V257.698C212 257.146 212.448 256.698 213 256.698ZM343.993 72.8834C343.936 72.386 343.513 72 343 72H326.586L326.469 72.0067C325.972 72.0645 325.586 72.4872 325.586 73C325.586 73.5523 326.034 74 326.586 74H342V92.373L342.007 92.4897C342.064 92.987 342.487 93.373 343 93.373C343.552 93.373 344 92.9253 344 92.373V73L343.993 72.8834Z" fill="#291D18"/>
<path id="Line 3 Copy 3" d="M214.007 112L289.007 111.5L288.993 109.5L213.993 110L214.007 112Z" fill="#291D18"/>
<path id="Path Copy 6" d="M289.5 312V106H287.5V312H289.5Z" fill="#291D18"/>
<path id="Oval Copy 28" fill-rule="evenodd" clip-rule="evenodd" d="M334.75 148.5C334.75 159.131 326.132 167.75 315.5 167.75C304.869 167.75 296.25 159.131 296.25 148.5C296.25 137.869 304.869 129.25 315.5 129.25C326.132 129.25 334.75 137.869 334.75 148.5ZM297.75 148.5C297.75 158.303 305.697 166.25 315.5 166.25C325.303 166.25 333.25 158.303 333.25 148.5C333.25 138.697 325.303 130.75 315.5 130.75C305.697 130.75 297.75 138.697 297.75 148.5Z" fill="#291D18"/>
<path id="Line 5 Copy 2" d="M314.75 133V163C314.75 163.414 315.086 163.75 315.5 163.75C315.914 163.75 316.25 163.414 316.25 163V133C316.25 132.586 315.914 132.25 315.5 132.25C315.086 132.25 314.75 132.586 314.75 133Z" fill="#291D18"/>
<path id="Line Copy 2" d="M300 149.25H330C330.414 149.25 330.75 148.914 330.75 148.5C330.75 148.086 330.414 147.75 330 147.75H300C299.586 147.75 299.25 148.086 299.25 148.5C299.25 148.914 299.586 149.25 300 149.25Z" fill="#291D18"/>
<path id="Path Copy 7" d="M298.26 311.74V293H295.74V313C295.74 313.696 296.304 314.26 297 314.26H334C334.696 314.26 335.26 313.696 335.26 313V293H332.74V311.74H298.26Z" fill="#291D18"/>
<path id="Line 6 Copy 7" d="M296.652 307.25H333C333.414 307.25 333.75 306.914 333.75 306.5C333.75 306.086 333.414 305.75 333 305.75H296.652C296.238 305.75 295.902 306.086 295.902 306.5C295.902 306.914 296.238 307.25 296.652 307.25Z" fill="#291D18"/>
<path id="Line 6 Copy 8" d="M297 300.25H333.348C333.762 300.25 334.098 299.914 334.098 299.5C334.098 299.086 333.762 298.75 333.348 298.75H297C296.586 298.75 296.25 299.086 296.25 299.5C296.25 299.914 296.586 300.25 297 300.25Z" fill="#291D18"/>
<path id="Line 6 Copy 9" d="M296.652 294.25H333C333.414 294.25 333.75 293.914 333.75 293.5C333.75 293.086 333.414 292.75 333 292.75H296.652C296.238 292.75 295.902 293.086 295.902 293.5C295.902 293.914 296.238 294.25 296.652 294.25Z" fill="#291D18"/>
<path id="Path Copy 8" d="M335.26 294V260.452C335.26 249.565 326.412 240.74 315.5 240.74C304.588 240.74 295.74 249.565 295.74 260.452V294H298.26V260.452C298.26 250.958 305.978 243.26 315.5 243.26C325.022 243.26 332.74 250.958 332.74 260.452V294H335.26Z" fill="#291D18"/>
<path id="Line 7 Copy 2" d="M297 260.25H334C334.414 260.25 334.75 259.914 334.75 259.5C334.75 259.086 334.414 258.75 334 258.75H297C296.586 258.75 296.25 259.086 296.25 259.5C296.25 259.914 296.586 260.25 297 260.25Z" fill="#291D18"/>
<path id="Shape Copy 7" fill-rule="evenodd" clip-rule="evenodd" d="M306.596 294V260H305.096V294H306.596ZM326.904 294V260H325.404V294H326.904Z" fill="#291D18"/>
<path id="Oval Copy 29" fill-rule="evenodd" clip-rule="evenodd" d="M322.84 275.5C322.84 276.24 322.24 276.84 321.5 276.84C320.76 276.84 320.16 276.24 320.16 275.5C320.16 274.76 320.76 274.16 321.5 274.16C322.24 274.16 322.84 274.76 322.84 275.5ZM321.84 275.5C321.84 275.312 321.688 275.16 321.5 275.16C321.312 275.16 321.16 275.312 321.16 275.5C321.16 275.688 321.312 275.84 321.5 275.84C321.688 275.84 321.84 275.688 321.84 275.5Z" fill="#291D18"/>
<path id="Combined Shape Copy 7" fill-rule="evenodd" clip-rule="evenodd" d="M203 253.5C203 254.052 203.448 254.5 204 254.5H206.36V257C206.36 257.552 206.808 258 207.36 258H288C288.552 258 289 257.552 289 257V250C289 249.448 288.552 249 288 249H204C203.448 249 203 249.448 203 250V253.5ZM208.36 253.5C208.36 252.948 207.912 252.5 207.36 252.5H205V251H287V256H208.36V253.5Z" fill="#291D18"/>
<path id="Combined Shape Copy 8" fill-rule="evenodd" clip-rule="evenodd" d="M203 180.5C203 181.052 203.448 181.5 204 181.5H206.36V184C206.36 184.552 206.808 185 207.36 185H288C288.552 185 289 184.552 289 184V177C289 176.448 288.552 176 288 176H204C203.448 176 203 176.448 203 177V180.5ZM208.36 180.5C208.36 179.948 207.912 179.5 207.36 179.5H205V178H287V183H208.36V180.5Z" fill="#291D18"/>
<path id="Shape Copy 8" d="M283.7 102.5C283.7 101.948 283.252 101.5 282.7 101.5H282V100H315C315.552 100 316 99.5523 316 99C316 98.4477 315.552 98 315 98H281C280.448 98 280 98.4477 280 99V102.5C280 103.052 280.448 103.5 281 103.5H281.7V106C281.7 106.552 282.148 107 282.7 107H297.107C297.66 107 298.107 106.552 298.107 106C298.107 105.448 297.66 105 297.107 105H283.7V102.5Z" fill="#291D18"/>
<path id="Shape Copy 9" d="M345.298 102.5C345.298 101.948 345.746 101.5 346.298 101.5H347V100H313.955C313.403 100 312.955 99.5523 312.955 99C312.955 98.4477 313.403 98 313.955 98H348C348.552 98 349 98.4477 349 99V102.5C349 103.052 348.552 103.5 348 103.5H347.298V106C347.298 106.552 346.85 107 346.298 107H301C300.448 107 300 106.552 300 106C300 105.448 300.448 105 301 105H345.298V102.5Z" fill="#291D18"/>
<path id="Rectangle Copy 27" fill-rule="evenodd" clip-rule="evenodd" d="M222 191.25C221.586 191.25 221.25 191.586 221.25 192V242C221.25 242.414 221.586 242.75 222 242.75H246C246.414 242.75 246.75 242.414 246.75 242V192C246.75 191.586 246.414 191.25 246 191.25H222ZM222.75 241.25V192.75H245.25V241.25H222.75Z" fill="#291D18"/>
<path id="Rectangle Copy 28" fill-rule="evenodd" clip-rule="evenodd" d="M255 191.25C254.586 191.25 254.25 191.586 254.25 192V242C254.25 242.414 254.586 242.75 255 242.75H279C279.414 242.75 279.75 242.414 279.75 242V192C279.75 191.586 279.414 191.25 279 191.25H255ZM255.75 241.25V192.75H278.25V241.25H255.75Z" fill="#291D18"/>
<path id="Line 10 Copy 3" d="M228 137.34H274C274.464 137.34 274.84 136.964 274.84 136.5C274.84 136.036 274.464 135.66 274 135.66H228C227.536 135.66 227.16 136.036 227.16 136.5C227.16 136.964 227.536 137.34 228 137.34Z" fill="#291D18"/>
<path id="Line 8 Copy 14" d="M222 209.25H241.174C241.588 209.25 241.924 208.914 241.924 208.5C241.924 208.086 241.588 207.75 241.174 207.75H222C221.586 207.75 221.25 208.086 221.25 208.5C221.25 208.914 221.586 209.25 222 209.25Z" fill="#291D18"/>
<path id="Line 8 Copy 15" d="M255 209.25H273.333C273.748 209.25 274.083 208.914 274.083 208.5C274.083 208.086 273.748 207.75 273.333 207.75H255C254.586 207.75 254.25 208.086 254.25 208.5C254.25 208.914 254.586 209.25 255 209.25Z" fill="#291D18"/>
<path id="Rectangle Copy 30" fill-rule="evenodd" clip-rule="evenodd" d="M222 266.25C221.586 266.25 221.25 266.586 221.25 267V313C221.25 313.414 221.586 313.75 222 313.75H277C277.414 313.75 277.75 313.414 277.75 313V267C277.75 266.586 277.414 266.25 277 266.25H222ZM222.75 312.25V267.75H276.25V312.25H222.75Z" fill="#291D18"/>
<path id="Line 9 Copy 2" d="M246 306.75H254C254.414 306.75 254.75 306.414 254.75 306C254.75 305.586 254.414 305.25 254 305.25H246C245.586 305.25 245.25 305.586 245.25 306C245.25 306.414 245.586 306.75 246 306.75Z" fill="#291D18"/>
<path id="Rectangle Copy 31" fill-rule="evenodd" clip-rule="evenodd" d="M222 119.25C221.586 119.25 221.25 119.586 221.25 120V167C221.25 167.414 221.586 167.75 222 167.75H277C277.414 167.75 277.75 167.414 277.75 167V120C277.75 119.586 277.414 119.25 277 119.25H222ZM222.75 166.25V120.75H276.25V166.25H222.75Z" fill="#291D18"/>
<path id="Line 10 Copy 4" d="M222 137.25H272C272.414 137.25 272.75 136.914 272.75 136.5C272.75 136.086 272.414 135.75 272 135.75H222C221.586 135.75 221.25 136.086 221.25 136.5C221.25 136.914 221.586 137.25 222 137.25Z" fill="#291D18"/>
<path id="Path 2 Copy 3" fill-rule="evenodd" clip-rule="evenodd" d="M280.37 98.4447C279.892 98.9871 280.277 99.8402 281 99.8402H348C348.723 99.8402 349.108 98.9871 348.63 98.4447L315.13 60.4447C314.796 60.0653 314.204 60.0653 313.87 60.4447L280.37 98.4447ZM314.5 62.2705L346.14 98.1603H282.86L314.5 62.2705Z" fill="#291D18"/>
<path id="Combined Shape Copy 9" fill-rule="evenodd" clip-rule="evenodd" d="M315.25 60.3387L348.75 98.3387C349.319 98.9845 348.861 100 348 100H281C280.139 100 279.681 98.9845 280.25 98.3387L313.75 60.3387C314.148 59.8871 314.852 59.8871 315.25 60.3387ZM314.5 62.5117L283.215 97.9985L345.785 97.9995L314.5 62.5117ZM313.75 73.5565L296.714 92.8812L296.636 92.9805C296.357 93.3912 296.42 93.9555 296.802 94.2927L296.902 94.3698C297.312 94.6495 297.877 94.5862 298.214 94.2038L314.5 75.7304L330.646 94.045L330.735 94.1339C331.107 94.463 331.675 94.471 332.058 94.1338C332.472 93.7686 332.512 93.1367 332.146 92.7224L315.25 73.5565L315.16 73.4666C314.753 73.1072 314.12 73.1371 313.75 73.5565Z" fill="#291D18"/>
<path id="Line 11 Copy 4" d="M14 314.5H410C410.552 314.5 411 314.052 411 313.5C411 312.948 410.552 312.5 410 312.5H14C13.4477 312.5 13 312.948 13 313.5C13 314.052 13.4477 314.5 14 314.5Z" fill="#291D18"/>
<path id="Rectangle" fill-rule="evenodd" clip-rule="evenodd" d="M361 282.25H359C357.481 282.25 356.25 283.481 356.25 285V313C356.25 313.414 356.586 313.75 357 313.75H363C363.414 313.75 363.75 313.414 363.75 313V285C363.75 283.481 362.519 282.25 361 282.25ZM362.25 285V312.25H357.75V285C357.75 284.31 358.31 283.75 359 283.75H361C361.69 283.75 362.25 284.31 362.25 285Z" fill="#291D18"/>
<path id="Rectangle Copy 2" fill-rule="evenodd" clip-rule="evenodd" d="M362.75 283.75V198.25H357.25V283.75H362.75ZM358.75 282.25V199.75H361.25V282.25H358.75Z" fill="#291D18"/>
<path id="Path" d="M352.25 192C352.25 196.28 355.72 199.75 360 199.75C364.28 199.75 367.75 196.28 367.75 192H366.25C366.25 195.452 363.452 198.25 360 198.25C356.548 198.25 353.75 195.452 353.75 192H352.25Z" fill="#291D18"/>
<path id="Line 6" d="M350.5 193H369.379C369.931 193 370.379 192.552 370.379 192C370.379 191.448 369.931 191 369.379 191H350.5C349.948 191 349.5 191.448 349.5 192C349.5 192.552 349.948 193 350.5 193Z" fill="#291D18"/>
<path id="Van" fill-rule="evenodd" clip-rule="evenodd" d="M108.464 241.75H89C88.5858 241.75 88.25 241.414 88.25 241C88.25 240.586 88.5858 240.25 89 240.25H108.464C108.879 240.25 109.214 240.586 109.214 241C109.214 241.414 108.879 241.75 108.464 241.75ZM84 278.75V300H94.8321C96.3752 296.468 99.8994 294 104 294C108.101 294 111.625 296.468 113.168 300H143V254C143 250.134 139.866 247 136 247H84V267.25H87C87.4142 267.25 87.75 267.586 87.75 268V272.25V273.75V278C87.75 278.414 87.4142 278.75 87 278.75H84ZM86.25 272.25V268.75H84V272.25H86.25ZM84 273.75H86.25V277.25H84V273.75ZM113.8 302H143H144H150.2C150.069 302.646 150 303.315 150 304C150 309.523 154.477 314 160 314C165.523 314 170 309.523 170 304C170 303.315 169.931 302.646 169.8 302H178H179H182C182.552 302 183 301.552 183 301V297C183 295.343 181.657 294 180 294H179V289V270C179 260.059 170.941 252 161 252H144.777C143.868 247.992 140.283 245 136 245H83C82.4477 245 82 245.448 82 246V301C82 301.552 82.4477 302 83 302H94.2C94.0689 302.646 94 303.315 94 304C94 309.523 98.4772 314 104 314C109.523 314 114 309.523 114 304C114 303.315 113.931 302.646 113.8 302ZM177 296V300H169.168C167.625 296.468 164.101 294 160 294C155.899 294 152.375 296.468 150.832 300H145V254H161C169.837 254 177 261.163 177 270V288H175C174.448 288 174 288.448 174 289V295C174 295.552 174.448 296 175 296H177ZM181 297V300H179V296H180C180.552 296 181 296.448 181 297ZM177 290V294H176V290H177ZM152 304C152 308.418 155.582 312 160 312C164.418 312 168 308.418 168 304C168 299.582 164.418 296 160 296C155.582 296 152 299.582 152 304ZM160 290.25C163.605 290.25 166.99 291.786 169.545 294.484C169.829 294.785 169.816 295.26 169.516 295.545C169.215 295.829 168.74 295.816 168.455 295.516C166.177 293.109 163.182 291.75 160 291.75C159.586 291.75 159.25 291.414 159.25 291C159.25 290.586 159.586 290.25 160 290.25ZM113.545 294.484C110.99 291.786 107.605 290.25 104 290.25C103.586 290.25 103.25 290.586 103.25 291C103.25 291.414 103.586 291.75 104 291.75C107.182 291.75 110.177 293.109 112.455 295.516C112.74 295.816 113.215 295.829 113.516 295.545C113.816 295.26 113.829 294.785 113.545 294.484ZM104 312C99.5817 312 96 308.418 96 304C96 299.582 99.5817 296 104 296C108.418 296 112 299.582 112 304C112 308.418 108.418 312 104 312ZM107.75 304C107.75 306.071 106.071 307.75 104 307.75C101.929 307.75 100.25 306.071 100.25 304C100.25 301.929 101.929 300.25 104 300.25C106.071 300.25 107.75 301.929 107.75 304ZM101.75 304C101.75 305.243 102.757 306.25 104 306.25C105.243 306.25 106.25 305.243 106.25 304C106.25 302.757 105.243 301.75 104 301.75C102.757 301.75 101.75 302.757 101.75 304ZM160 307.75C162.071 307.75 163.75 306.071 163.75 304C163.75 301.929 162.071 300.25 160 300.25C157.929 300.25 156.25 301.929 156.25 304C156.25 306.071 157.929 307.75 160 307.75ZM160 306.25C158.757 306.25 157.75 305.243 157.75 304C157.75 302.757 158.757 301.75 160 301.75C161.243 301.75 162.25 302.757 162.25 304C162.25 305.243 161.243 306.25 160 306.25ZM95 265.75H126C126.414 265.75 126.75 265.414 126.75 265C126.75 264.586 126.414 264.25 126 264.25H95C94.5858 264.25 94.25 264.586 94.25 265C94.25 265.414 94.5858 265.75 95 265.75ZM131.25 283.75H138C138.414 283.75 138.75 283.414 138.75 283C138.75 282.586 138.414 282.25 138 282.25H131.25C130.836 282.25 130.5 282.586 130.5 283C130.5 283.414 130.836 283.75 131.25 283.75ZM157 284.25H152C151.586 284.25 151.25 283.914 151.25 283.5C151.25 283.086 151.586 282.75 152 282.75H157C157.414 282.75 157.75 283.086 157.75 283.5C157.75 283.914 157.414 284.25 157 284.25ZM147.25 282.5V294.575C147.25 294.989 147.586 295.325 148 295.325C148.414 295.325 148.75 294.989 148.75 294.575V282.5C148.75 282.086 148.414 281.75 148 281.75C147.586 281.75 147.25 282.086 147.25 282.5ZM163 256.25C169.489 256.25 174.75 261.511 174.75 268V279.75H147.25V256.25H163ZM148.75 257.75V278.25H173.25V268C173.25 262.339 168.661 257.75 163 257.75H148.75Z" fill="#291D18"/>
<path id="Combined Shape Copy 3" fill-rule="evenodd" clip-rule="evenodd" d="M13.3121 255.483C13.3161 254.948 13.3436 254.411 13.3948 253.874L13.4538 253.336C14.7232 243.137 24.1256 235.89 34.4504 237.14C44.7777 238.391 52.1272 247.672 50.8576 257.874C49.5882 268.073 40.1858 275.32 29.861 274.07C27.6836 273.806 25.6032 273.18 23.6875 272.229L23.423 272.093L23.3156 272.329C21.2525 276.705 16.5735 279.423 11.5816 278.946L11.2817 278.913C4.86663 278.136 0.299287 272.368 1.08856 266.027C1.84112 259.98 7.19055 255.604 13.2478 255.887L13.314 255.891L13.3121 255.483ZM48.8729 257.627C50.005 248.529 43.4439 240.244 34.2099 239.126L33.888 239.09C24.7789 238.158 16.5578 244.589 15.4385 253.583C15.2992 254.703 15.2749 255.82 15.3636 256.923L15.4651 258.184L14.0531 257.968L13.891 257.947C8.56673 257.302 3.72538 261.033 3.07323 266.273C2.42142 271.511 6.20041 276.283 11.5222 276.927C16.1758 277.491 20.5463 274.697 21.9507 270.353L22.3375 269.157L23.4161 269.803C25.4363 271.013 27.7012 271.793 30.1015 272.084C39.338 273.203 47.7403 266.726 48.8729 257.627Z" fill="#291D18"/>
<path id="Path Copy" d="M48.5 263C54.8513 263 60 268.149 60 274.5C60 280.851 54.8513 286 48.5 286C42.1488 286 37 280.851 37 274.5C37 273.954 37.0382 273.412 37.1138 272.877L37.1774 272.478L39.1466 272.827C39.0494 273.375 39 273.934 39 274.5C39 279.747 43.2533 284 48.5 284C53.7467 284 58 279.747 58 274.5C58 269.253 53.7467 265 48.5 265L48.1641 265.006L47.8299 265.023L47.6911 263.028C47.9595 263.009 48.2292 263 48.5 263Z" fill="#291D18"/>
<path id="Line 4 Copy 4" d="M31.75 262.884V313.382C31.75 313.796 32.0858 314.132 32.5 314.132C32.9142 314.132 33.25 313.796 33.25 313.382V262.884C33.25 262.47 32.9142 262.134 32.5 262.134C32.0858 262.134 31.75 262.47 31.75 262.884Z" fill="#291D18"/>
<path id="Path 3 Copy 2" d="M12.6368 272.604C12.4179 272.252 11.9553 272.144 11.6037 272.363C11.252 272.582 11.1444 273.045 11.3633 273.396L18.9887 285.646C19.106 285.835 19.3007 285.962 19.5204 285.993L31.895 287.743C32.3052 287.801 32.6847 287.515 32.7427 287.105C32.8007 286.695 32.5152 286.315 32.1051 286.257L20.0771 284.557L12.6368 272.604Z" fill="#291D18"/>
<path id="Path 6 Copy 2" d="M33.5304 294.53L47.5304 280.53C47.8233 280.237 47.8233 279.763 47.5304 279.47C47.2375 279.177 46.7626 279.177 46.4697 279.47L32.4697 293.47C32.1768 293.763 32.1768 294.237 32.4697 294.53C32.7626 294.823 33.2375 294.823 33.5304 294.53Z" fill="#291D18"/>
</g>
</g>
</svg>
