<svg width="419" height="341" viewBox="0 0 419 341" fill="none" xmlns="http://www.w3.org/2000/svg">
<path fill-rule="evenodd" clip-rule="evenodd" d="M210 321V175.446L239.013 135H340V321H210Z" fill="#E5CFC7"/>
<path fill-rule="evenodd" clip-rule="evenodd" d="M303.25 116.339L311.767 126H331C331.513 126 331.935 126.386 331.993 126.883L332 127V148.643C332 148.735 331.987 148.825 331.964 148.91L336.747 154.335C336.753 154.342 336.759 154.349 336.765 154.356C336.944 154.568 337.015 154.817 337 155.056V158.5C337 159.052 336.552 159.5 336 159.5H335.298V162C335.298 162.552 334.85 163 334.298 163H332V312.5H398C398.552 312.5 399 312.948 399 313.5C399 314.052 398.552 314.5 398 314.5H2C1.44772 314.5 1 314.052 1 313.5C1 312.948 1.44772 312.5 2 312.5H176.25V285C176.25 284.146 176.639 283.383 177.25 282.879V199.248C174.626 198.252 172.684 195.872 172.314 193H170.5C169.948 193 169.5 192.552 169.5 192C169.5 191.448 169.948 191 170.5 191H189.379C189.931 191 190.379 191.448 190.379 192C190.379 192.552 189.931 193 189.379 193H187.686C187.316 195.872 185.374 198.252 182.75 199.248V282.879C183.361 283.383 183.75 284.146 183.75 285V312.5H200V308.281C200 307.728 200.448 307.281 201 307.281C201.513 307.281 201.936 307.667 201.993 308.164L202 308.281V312H209.25V267C209.25 266.586 209.586 266.25 210 266.25H265C265.414 266.25 265.75 266.586 265.75 267V312H275.5V258H202V297.733C202 298.285 201.552 298.733 201 298.733C200.487 298.733 200.064 298.347 200.007 297.85L200 297.733V258H195.36C194.808 258 194.36 257.552 194.36 257V254.5H192C191.448 254.5 191 254.052 191 253.5V250C191 249.448 191.448 249 192 249H200V186H195.36C194.808 186 194.36 185.552 194.36 185V182.5H192C191.448 182.5 191 182.052 191 181.5V178C191 177.448 191.448 177 192 177H200V166.5V165.901C200 165.731 200.043 165.565 200.125 165.418L200.193 165.311L204.933 158.836C205.259 158.39 205.885 158.294 206.33 158.62C206.742 158.921 206.856 159.477 206.614 159.912L206.547 160.017L202.533 165.5H277C277.552 165.5 278 165.948 278 166.5C278 167.052 277.552 167.5 277 167.5H202V177H275.5V170.076C275.5 169.524 275.948 169.076 276.5 169.076C277.052 169.076 277.5 169.524 277.5 170.076V312H283.74V294V293V260.452C283.74 249.565 292.588 240.74 303.5 240.74C314.412 240.74 323.26 249.565 323.26 260.452V293V294V312H330V163H289C288.448 163 288 162.552 288 162C288 161.448 288.448 161 289 161H330.607C330.728 160.948 330.861 160.92 331 160.92C331.139 160.92 331.272 160.948 331.393 161H333.298V158.5C333.298 157.948 333.745 157.5 334.298 157.5H335V156H303H301.955H270V157.5H270.7C271.252 157.5 271.7 157.948 271.7 158.5V161H285.107C285.66 161 286.107 161.448 286.107 162C286.107 162.552 285.66 163 285.107 163H270.7C270.148 163 269.7 162.552 269.7 162V159.5H269C268.448 159.5 268 159.052 268 158.5V155.056C267.985 154.817 268.056 154.568 268.235 154.356L268.247 154.343L268.253 154.335L291.47 128H230.52L214.821 149.447C214.494 149.892 213.869 149.989 213.423 149.663C213.012 149.362 212.898 148.805 213.139 148.371L213.207 148.265L229.206 126.409C229.371 126.184 229.621 126.04 229.895 126.007L230.013 126H293.166C293.188 126 293.209 126.001 293.231 126.002L301.75 116.339C302.148 115.887 302.852 115.887 303.25 116.339ZM186.17 193H173.83C174.308 195.976 176.889 198.25 180 198.25C183.111 198.25 185.692 195.976 186.17 193ZM178.75 199.75H180H181.25V282.25H181H179H178.75V199.75ZM179 283.75C178.31 283.75 177.75 284.31 177.75 285V312.25H182.25V285C182.25 284.31 181.69 283.75 181 283.75H179ZM333.785 154L310.794 127.919C310.52 127.802 310.309 127.566 310.226 127.275L302.5 118.512L271.215 153.999L333.785 154ZM330 128H313.53L330 146.682V128ZM301.75 129.556L284.714 148.881L284.636 148.98C284.357 149.391 284.42 149.956 284.802 150.293C285.217 150.658 285.849 150.618 286.214 150.204L302.5 131.73L318.646 150.045L318.735 150.134C319.107 150.463 319.675 150.471 320.058 150.134C320.472 149.769 320.512 149.137 320.146 148.722L303.25 129.556L303.16 129.467C302.753 129.107 302.12 129.137 301.75 129.556ZM210.75 312H264.25V267.75H210.75V312ZM202 186V249H275.5V186H202ZM320.74 260.452V292.75H314.904V260.25H320.739C320.74 260.317 320.74 260.384 320.74 260.452ZM313.404 260.25V292.75H294.596V260.25H313.404ZM286.26 292.75H293.096V260.25H286.261C286.261 260.286 286.26 260.323 286.26 260.359L286.26 260.452V292.75ZM320.657 258.75C319.8 250.055 312.446 243.26 303.5 243.26C294.554 243.26 287.2 250.055 286.343 258.75H320.657ZM286.26 294.25V299.75H320.74V294.25H286.26ZM286.26 306.75V301.25H320.74V306.75H286.26ZM286.26 308.25V311.74H320.74V308.25H286.26ZM303.5 229.75C314.131 229.75 322.75 221.131 322.75 210.5C322.75 199.869 314.131 191.25 303.5 191.25C292.869 191.25 284.25 199.869 284.25 210.5C284.25 221.131 292.869 229.75 303.5 229.75ZM303.5 228.25C293.697 228.25 285.75 220.303 285.75 210.5C285.75 200.697 293.697 192.75 303.5 192.75C313.303 192.75 321.25 200.697 321.25 210.5C321.25 220.303 313.303 228.25 303.5 228.25ZM302.75 211.25V225C302.75 225.414 303.086 225.75 303.5 225.75C303.914 225.75 304.25 225.414 304.25 225V211.25H318C318.414 211.25 318.75 210.914 318.75 210.5C318.75 210.086 318.414 209.75 318 209.75H304.25V195C304.25 194.586 303.914 194.25 303.5 194.25C303.086 194.25 302.75 194.586 302.75 195V209.75H288C287.586 209.75 287.25 210.086 287.25 210.5C287.25 210.914 287.586 211.25 288 211.25H302.75ZM304.5 276.84C305.24 276.84 305.84 276.24 305.84 275.5C305.84 274.76 305.24 274.16 304.5 274.16C303.76 274.16 303.16 274.76 303.16 275.5C303.16 276.24 303.76 276.84 304.5 276.84ZM304.5 275.16C304.688 275.16 304.84 275.312 304.84 275.5C304.84 275.688 304.688 275.84 304.5 275.84C304.312 275.84 304.16 275.688 304.16 275.5C304.16 275.312 304.312 275.16 304.5 275.16ZM196.36 253.5C196.36 252.948 195.912 252.5 195.36 252.5H193V251H275V256H196.36V253.5ZM195.36 180.5C195.912 180.5 196.36 180.948 196.36 181.5V184H275V179H193V180.5H195.36ZM210 191.25C209.586 191.25 209.25 191.586 209.25 192V208.5V242C209.25 242.414 209.586 242.75 210 242.75H234C234.414 242.75 234.75 242.414 234.75 242V192C234.75 191.586 234.414 191.25 234 191.25H210ZM229.174 209.25H210.75V241.25H233.25V192.75H210.75V207.75H229.174C229.588 207.75 229.924 208.086 229.924 208.5C229.924 208.914 229.588 209.25 229.174 209.25ZM242.25 192C242.25 191.586 242.586 191.25 243 191.25H267C267.414 191.25 267.75 191.586 267.75 192V242C267.75 242.414 267.414 242.75 267 242.75H243C242.586 242.75 242.25 242.414 242.25 242V208.5V192ZM243.75 209.25H261.333C261.748 209.25 262.083 208.914 262.083 208.5C262.083 208.086 261.748 207.75 261.333 207.75H243.75V192.75H266.25V241.25H243.75V209.25ZM242 306.75H234C233.586 306.75 233.25 306.414 233.25 306C233.25 305.586 233.586 305.25 234 305.25H242C242.414 305.25 242.75 305.586 242.75 306C242.75 306.414 242.414 306.75 242 306.75Z" fill="#291D18"/>
<path d="M248.931 14.4545C248.531 14.4545 248.132 14.4732 247.737 14.5103C245.801 6.66039 238.751 1 230.534 1C221.699 1 214.291 7.52709 213.007 16.1574C212.718 16.1434 212.428 16.1364 212.138 16.1364C205.238 16.1364 199.07 20.1366 196.153 26.2485C195.907 26.2344 195.661 26.2273 195.414 26.2273C188.73 26.2273 183.253 31.4143 182.745 38H172C171.448 38 171 38.4477 171 39C171 39.5523 171.448 40 172 40H183.707C184.259 40 184.707 39.5523 184.707 39C184.707 33.0491 189.502 28.2273 195.414 28.2273C195.832 28.2273 196.246 28.2513 196.656 28.2989C197.096 28.35 197.517 28.1061 197.691 27.6994C200.157 21.9433 205.8 18.1364 212.138 18.1364C212.69 18.1364 213.238 18.1649 213.78 18.2215C214.334 18.2793 214.828 17.874 214.88 17.3199C215.635 9.23375 222.406 3 230.534 3C238.103 3 244.561 8.42031 245.975 15.8092C246.077 16.344 246.588 16.6986 247.125 16.607C247.717 16.5058 248.321 16.4545 248.931 16.4545C254.843 16.4545 259.638 21.2764 259.638 27.2273C259.638 27.7796 260.086 28.2273 260.638 28.2273H269C269.552 28.2273 270 27.7796 270 27.2273C270 26.675 269.552 26.2273 269 26.2273H261.6C261.092 19.6415 255.615 14.4545 248.931 14.4545Z" fill="#291D18"/>
<path d="M116.809 123.864C113.732 123.864 110.783 124.73 108.243 126.33C104.162 120.857 97.8406 117.449 90.9097 117.157C90.4041 108.701 83.3961 102 74.8244 102C66.25 102 59.2401 108.706 58.7386 117.165C50.6213 117.648 44.1219 124.149 43.6259 132.273H32C31.4477 132.273 31 132.72 31 133.273C31 133.825 31.4477 134.273 32 134.273H44.5954C45.1477 134.273 45.5954 133.825 45.5954 133.273C45.5954 125.465 51.915 119.136 59.7099 119.136C60.2622 119.136 60.7099 118.689 60.7099 118.136C60.7099 110.329 67.0295 104 74.8244 104C82.6193 104 88.9389 110.329 88.9389 118.136C88.9389 118.689 89.3866 119.136 89.9389 119.136C96.9171 119.136 103.309 122.597 107.167 128.266C107.483 128.731 108.121 128.844 108.578 128.515C110.959 126.8 113.812 125.864 116.809 125.864C124.604 125.864 130.924 132.192 130.924 140C130.924 140.552 131.371 141 131.924 141H142C142.552 141 143 140.552 143 140C143 139.448 142.552 139 142 139H132.893C132.378 130.554 125.374 123.864 116.809 123.864Z" fill="#291D18"/>
<path fill-rule="evenodd" clip-rule="evenodd" d="M104.312 254.483C104.316 253.948 104.344 253.411 104.395 252.874L104.454 252.336C105.723 242.137 115.126 234.89 125.45 236.14C135.778 237.391 143.127 246.672 141.858 256.874C140.588 267.073 131.186 274.32 120.861 273.07C118.684 272.806 116.603 272.18 114.687 271.229L114.423 271.093L114.316 271.329C112.252 275.705 107.574 278.423 102.582 277.946L102.282 277.913C95.8666 277.136 91.2993 271.368 92.0886 265.027C92.8411 258.98 98.1906 254.604 104.248 254.887L104.314 254.891L104.312 254.483ZM139.873 256.627C141.005 247.529 134.444 239.244 125.21 238.126L124.888 238.09C115.779 237.158 107.558 243.589 106.438 252.583C106.299 253.703 106.275 254.82 106.364 255.923L106.465 257.184L105.053 256.968L104.891 256.947C99.5667 256.302 94.7254 260.033 94.0732 265.273C93.4214 270.511 97.2004 275.283 102.522 275.927C107.176 276.491 111.546 273.697 112.951 269.353L113.337 268.157L114.416 268.803C116.436 270.013 118.701 270.793 121.101 271.084C130.338 272.203 138.74 265.726 139.873 256.627Z" fill="#291D18"/>
<path d="M139.5 262C145.851 262 151 267.149 151 273.5C151 279.851 145.851 285 139.5 285C133.149 285 128 279.851 128 273.5C128 272.954 128.038 272.412 128.114 271.877L128.177 271.478L130.147 271.827C130.049 272.375 130 272.934 130 273.5C130 278.747 134.253 283 139.5 283C144.747 283 149 278.747 149 273.5C149 268.253 144.747 264 139.5 264L139.164 264.006L138.83 264.023L138.691 262.028C138.959 262.009 139.229 262 139.5 262Z" fill="#291D18"/>
<path d="M122.75 261.884V312.382C122.75 312.796 123.086 313.132 123.5 313.132C123.914 313.132 124.25 312.796 124.25 312.382V261.884C124.25 261.47 123.914 261.134 123.5 261.134C123.086 261.134 122.75 261.47 122.75 261.884Z" fill="#291D18"/>
<path d="M103.637 271.604C103.418 271.252 102.955 271.144 102.604 271.363C102.252 271.582 102.144 272.045 102.363 272.396L109.989 284.646C110.106 284.835 110.301 284.962 110.52 284.993L122.895 286.743C123.305 286.801 123.685 286.515 123.743 286.105C123.801 285.695 123.515 285.315 123.105 285.257L111.077 283.557L103.637 271.604Z" fill="#291D18"/>
<path d="M124.53 293.53L138.53 279.53C138.823 279.237 138.823 278.763 138.53 278.47C138.237 278.177 137.763 278.177 137.47 278.47L123.47 292.47C123.177 292.763 123.177 293.237 123.47 293.53C123.763 293.823 124.237 293.823 124.53 293.53Z" fill="#291D18"/>
</svg>
