<?xml version="1.0" encoding="utf-8"?>
<!-- Generator: Adobe Illustrator 25.1.0, SVG Export Plug-In . SVG Version: 6.00 Build 0)  -->
<svg version="1.1" id="Layer_1" xmlns="http://www.w3.org/2000/svg" xmlns:xlink="http://www.w3.org/1999/xlink" x="0px" y="0px"
	 viewBox="0 0 328 328" style="enable-background:new 0 0 328 328;" xml:space="preserve">
<style type="text/css">
	.st0{fill-rule:evenodd;clip-rule:evenodd;fill:#FFC421;}
	.st1{fill:#291D18;}
</style>
<path id="logo-telenet" class="st0" d="M214.5,151.1c0,0,2.1-2,2.1-3.9v-6.4c0-3.2-2.4-1.5-2.4-1.5c-6.5,4.1-25.5,14.5-50.1,14.5
	s-43.6-10.4-50.1-14.5c0,0-2.4-1.7-2.4,1.5v6.4c0,1.9,2.1,3.9,2.1,3.9c6.4,5,26.5,19,50.4,19.1C188,170.1,208,156.1,214.5,151.1z
	 M133.2,76.1c0,0-18.7,0-18.7,15.7s18.7,15.7,18.7,15.7s18.7,0,18.7-15.7S133.2,76.1,133.2,76.1z M212.7,86.7c0-1.1-1.5-1.5-1.5-1.5
	c-6.1-1.6-12.1-2.5-18-2.6c-5.6-0.1-11.2,0.5-16.7,1.7c0,0-1.4,0.4-1.4,1.7v12.3c0,2.3,1.6,1.7,1.6,1.7c5.2-0.7,10.4-1.1,16.5-1
	c5.9,0.1,12.2,0.7,17.7,1.7c0,0,1.8,0.4,1.8-1.5L212.7,86.7L212.7,86.7z M220.3,205.7c0,0-22.8,3.5-56.3,3.5s-56.3-3.5-56.3-3.5
	c-14.3-1.7-25.4-13-27.1-27.4c0,0-3.5-25.6-3.5-56s3.5-56,3.5-56C82.3,52,93.4,40.7,107.7,39c0,0,22.8-3.5,56.3-3.5
	s56.3,3.5,56.3,3.5c14.3,1.7,25.4,13,27.1,27.3c0,0,3.5,25.6,3.5,56s-3.5,56-3.5,56C245.6,192.7,234.6,204,220.3,205.7z M241.7,7.3
	c0,0-31.4-4.9-77.7-4.9S86.3,7.3,86.3,7.3c-19.8,2.4-35.1,18-37.5,37.8c0,0-4.8,35.3-4.8,77.3s4.8,77.3,4.8,77.3
	c2.4,19.8,17.7,35.4,37.5,37.8c0,0,31.4,4.9,77.7,4.9s77.7-4.9,77.7-4.9c19.8-2.4,35.1-18,37.5-37.8c0,0,4.8-35.3,4.8-77.3
	s-4.8-77.3-4.8-77.3C276.8,25.3,261.5,9.7,241.7,7.3z"/>
<path id="business" class="st1" d="M33.6,323.6c12.7,0,20.4-6,20.4-15.9c0-6.2-3-11.8-10.4-14.6v-0.2c5.4-2.3,8.3-6.7,8.3-12.5
	c0-8.6-6.6-14-18.2-14H8v57.2H33.6z M32.3,289.3H20.6v-12.8h11.8c3.7,0,6.4,2.1,6.4,6.4C38.8,287,36.1,289.3,32.3,289.3z
	 M34.1,313.2H20.6v-14.6h13.3c4.2,0,7,3,7,7.4C40.9,310.5,38.1,313.2,34.1,313.2z M72.8,324.7c5.1,0,8.9-2.2,11.3-5.8h0.1v4.7h12
	v-38.7h-12v20.8c0,6.6-3.3,9.3-7.2,9.3c-3.5,0-5.4-2.4-5.4-5.9v-24.2h-12v27C59.6,321.1,66.3,324.7,72.8,324.7z M119.4,325
	c12.2,0,17-6.1,17-13.1c0-8.2-6.9-10.6-13.2-12.1c-4.8-1.1-8.4-1.6-8.4-4.6c0-2,1.6-3.4,4.2-3.4c4,0,6.6,3,7.7,5.4l9.8-3.4
	c-1.5-4.6-6.5-10.4-17.5-10.4c-10,0-16.4,4.7-16.4,12.8c0,7.6,5.7,10,11.8,11.5l0.6,0.1c0.2,0,0.4,0.1,0.6,0.1
	c4.9,1.1,8.7,1.8,8.7,5c0,2.2-1.8,3.4-4.7,3.4c-5,0-7.3-3.4-8-6.1l-10.2,3.2C102.4,319,107.5,325,119.4,325z M148.2,280.7
	c4.5,0,7.7-3.1,7.7-7c0-3.8-3.2-7-7.7-7c-4.3,0-7.7,2.9-7.7,7S143.8,280.7,148.2,280.7z M154.1,323.6v-38.7h-11.9v38.7H154.1z
	 M173.3,323.6V303c0-6.8,3.2-9.5,7.2-9.5c3.6,0,5.4,2.6,5.4,6.1v24h11.9v-27c0-9.3-6.3-12.9-13-12.9c-5.4,0-9.5,2.6-11.5,6h-0.1
	v-4.9h-11.9v38.7L173.3,323.6L173.3,323.6z M223.7,325c9.9,0,15.6-5.5,17.6-10.4l-9.4-4.8c-0.9,2.6-3.2,5.4-7.7,5.4
	c-4.6,0-8.2-3-8.6-7.6h26.6v-4.1c0-12.7-6.6-20.1-18.4-20.1c-11.8,0-20.6,7.4-20.6,21C203.3,318.3,212.7,325,223.7,325z
	 M229.8,299.8H216c0.2-4.7,2.7-7.8,7.1-7.8C227.6,292,229.7,294.8,229.8,299.8z M263.9,325c12.2,0,17-6.1,17-13.1
	c0-8.2-6.9-10.6-13.2-12.1c-4.8-1.1-8.4-1.6-8.4-4.6c0-2,1.6-3.4,4.2-3.4c4,0,6.6,3,7.7,5.4l9.8-3.4c-1.5-4.6-6.5-10.4-17.5-10.4
	c-10,0-16.4,4.7-16.4,12.8c0,7.6,5.7,10,11.8,11.5l0.6,0.1c0.2,0,0.4,0.1,0.6,0.1c4.9,1.1,8.7,1.8,8.7,5c0,2.2-1.8,3.4-4.7,3.4
	c-5,0-7.3-3.4-8-6.1l-10.2,3.2C246.9,319,252,325,263.9,325z M302.3,325c12.2,0,17-6.1,17-13.1c0-8.2-6.9-10.6-13.2-12.1
	c-4.8-1.1-8.4-1.6-8.4-4.6c0-2,1.6-3.4,4.2-3.4c4,0,6.6,3,7.7,5.4l9.8-3.4c-1.5-4.6-6.5-10.4-17.5-10.4c-10,0-16.4,4.7-16.4,12.8
	c0,7.6,5.7,10,11.8,11.5l0.6,0.1c0.2,0,0.4,0.1,0.6,0.1c4.9,1.1,8.7,1.8,8.7,5c0,2.2-1.8,3.4-4.7,3.4c-5,0-7.3-3.4-8-6.1l-10.2,3.2
	C285.3,319,290.4,325,302.3,325z"/>
</svg>
