<svg xmlns="http://www.w3.org/2000/svg" width="390" height="145" viewBox="0 0 390 145">
  <g fill="none" fill-rule="evenodd" transform="translate(2 2)">
    <path fill="#F2F2F2" fill-rule="nonzero" d="M248,81 L248,83 L94,83 C90.2145483,83 87.1309013,86.0047834 87.004059,89.7593502 L87,90 L87,133 C87,136.785452 90.0047834,139.869099 93.7593502,139.995941 L94,140 L294,140 C297.785452,140 300.869099,136.995217 300.995941,133.24065 L301,133 L301,90 C301,86.2145483 297.995217,83.1309013 294.24065,83.004059 L294,83 L275,83 L275,81 L294,81 C298.881803,81 302.855791,84.8868137 302.996163,89.7346377 L303,90 L303,133 C303,137.881803 299.113186,141.855791 294.265362,141.996163 L294,142 L94,142 C89.1181973,142 85.1442086,138.113186 85.0038371,133.265362 L85,133 L85,90 C85,85.1181973 88.8868137,81.1442086 93.7346377,81.0038371 L94,81 L248,81 Z"/>
    <path fill="#D9415C" fill-rule="nonzero" d="M278.818182,41 C275.052604,41 272,44.052604 272,47.8181818 C272,51.5837597 275.052604,54.6363636 278.818182,54.6363636 C282.58376,54.6363636 285.636364,51.5837597 285.636364,47.8181818 C285.636364,44.052604 282.58376,41 278.818182,41 Z M278.818182,43 C281.47919,43 283.636364,45.1571735 283.636364,47.8181818 C283.636364,50.4791902 281.47919,52.6363636 278.818182,52.6363636 C276.157173,52.6363636 274,50.4791902 274,47.8181818 C274,45.1571735 276.157173,43 278.818182,43 Z"/>
    <path fill="#D9415C" fill-rule="nonzero" d="M282.254791,51.2547906 C282.615275,50.8943066 283.182506,50.8665771 283.574797,51.171602 L283.669004,51.2547906 L289.289812,56.8755982 C289.680336,57.2661225 289.680336,57.8992875 289.289812,58.2898118 C288.929328,58.6502957 288.362097,58.6780253 287.969806,58.3730004 L287.875598,58.2898118 L282.254791,52.6690042 C281.864266,52.2784799 281.864266,51.6453149 282.254791,51.2547906 Z"/>
    <circle cx="123" cy="9" r="4" fill="#D9415C" fill-rule="nonzero" filter="url(#no-results-(desktop)-a)" opacity=".5"/>
    <circle cx="382" cy="41" r="4" fill="#D9415C" fill-rule="nonzero" filter="url(#no-results-(desktop)-b)"/>
    <path fill="#D9415C" fill-rule="nonzero" d="M192.632433,97.50214 L177.132743,124.50214 C176.750036,125.168804 177.231297,126 178,126 L209,126 C209.768711,126 210.249971,125.168789 209.867249,124.502125 L194.366939,97.502125 C193.982585,96.8326183 193.016776,96.8326267 192.632433,97.50214 Z M193.499,100.007 L207.273,124 L179.726,124 L193.499,100.007 Z"/>
    <polygon fill="#D9415C" fill-rule="nonzero" points="192 107 194 107 194 117 192 117"/>
    <polygon fill="#D9415C" points="192 121 194 121 194 119 192 119"/>
    <path fill="#D9415C" fill-rule="nonzero" d="M293,33 L94,33 C89.0294373,33 85,37.0294373 85,42 L85,58 C85,62.9705627 89.0294373,67 94,67 L293,67 C297.970563,67 302,62.9705627 302,58 L302,42 C302,37.0294373 297.970563,33 293,33 Z M94,35 L293,35 C296.865993,35 300,38.1340068 300,42 L300,58 C300,61.8659932 296.865993,65 293,65 L94,65 C90.1340068,65 87,61.8659932 87,58 L87,42 C87,38.1340068 90.1340068,35 94,35 Z"/>
    <polygon fill="#D9415C" fill-rule="nonzero" points="217 49 217 51 101 51 101 49"/>
    <ellipse cx="4.5" cy="45.67" fill="#D9415C" rx="4.5" ry="4.485"/>
    <circle cx="50.5" cy="98.5" r="14.5" fill="#F2F2F2" fill-rule="nonzero"/>
    <circle cx="343" cy="92" r="7" fill="#D9415C"/>
    <circle cx="301.5" cy="8.5" r="8.5" fill="#F2F2F2"/>
  </g>
</svg>
