<?xml version="1.0" encoding="UTF-8"?>
<svg width="90px" height="90px" viewBox="0 0 90 90" version="1.1" xmlns="http://www.w3.org/2000/svg" xmlns:xlink="http://www.w3.org/1999/xlink">
    <title>Artboard</title>
    <g id="Artboard" stroke="none" stroke-width="1" fill="none" fill-rule="evenodd">
        <g id="Group-4-Copy" transform="translate(1.000000, 5.000000)">
            <path d="M1.18820324,69.033074 C1.998358,68.8608865 2.79471564,69.3780489 2.96692602,70.1882047 C3.13911332,70.9983605 2.62195153,71.7947168 1.81179676,71.9669205 C1.001642,72.1391242 0.205284361,71.6219617 0.0330739842,70.811799 C-0.139113321,70.0016432 0.37804847,69.2052846 1.18820324,69.033074 Z" id="Clip-2-Copy-4" fill="#F2F2F2" fill-rule="nonzero" transform="translate(1.500000, 70.500000) scale(1, -1) translate(-1.500000, -70.500000) "></path>
            <path d="M86.1882032,20.033074 C86.998358,19.8608865 87.7947156,20.3780489 87.966926,21.1882047 C88.1391133,21.9983605 87.6219515,22.7947168 86.8117968,22.9669205 C86.001642,23.1391242 85.2052844,22.6219617 85.033074,21.811799 C84.8608867,21.0016432 85.3780485,20.2052846 86.1882032,20.033074 Z" id="Clip-2-Copy-5" fill="#C5C6C6" fill-rule="nonzero" transform="translate(86.500000, 21.500000) scale(1, -1) translate(-86.500000, -21.500000) "></path>
            <g id="Success-Copy-2" transform="translate(10.000000, 31.000000)">
                <path d="M47.4264706,0 L55.8757878,0 C59.1018908,0 61.7647059,2.61071429 61.7647059,5.88690476 L61.7647059,18.4285714" id="Stroke-3" stroke="#239A98" stroke-linecap="round"></path>
                <path d="M16.5441176,34.6233766 L8.08559035,34.6233766 C4.83627804,34.6233766 2.20588235,32.0169005 2.20588235,28.7971359 L2.20588235,16.2758291 L2.20588235,11.7272727" id="Stroke-5" stroke="#239A98" stroke-linecap="round"></path>
                <g id="Card" transform="translate(35.294118, 17.311688)">
                    <path d="M37.93772,25.1298701 L2.3218787,25.1298701 C1.36201914,25.1298701 0.553716362,24.3192292 0.553716362,23.356593 L0.553716362,1.77327713 C0.503197438,0.810640972 1.31150022,0 2.3218787,0 L37.93772,0 C38.8975796,0 39.7058824,0.810640972 39.7058824,1.77327713 L39.7058824,23.356593 C39.7058824,24.3192292 38.8975796,25.1298701 37.93772,25.1298701" id="Fill-7" fill="#FFFFFF"></path>
                    <path d="M37.9489536,25.6883117 L2.30839932,25.6883117 C1.35463801,25.6883117 0.551470588,24.8646384 0.551470588,23.8865263 L0.551470588,1.80178539 C0.551470588,0.772193738 1.35463801,0 2.30839932,0 L37.9489536,0 C38.9027149,0 39.7058824,0.823673321 39.7058824,1.80178539 L39.7058824,23.8865263 C39.7058824,24.916118 38.9027149,25.6883117 37.9489536,25.6883117 Z" id="Stroke-9" stroke="#575756"></path>
                    <line x1="29.3823529" y1="20.1709091" x2="34.4117647" y2="20.1709091" id="Stroke-21" stroke="#239A98" stroke-linecap="round"></line>
                    <path d="M27.8735294,20.1709091 C27.8735294,20.4764883 27.6723529,20.6802078 27.3705882,20.6802078 C27.0688235,20.6802078 26.8676471,20.4764883 26.8676471,20.1709091 C26.8676471,19.8653299 27.0688235,19.6616104 27.3705882,19.6616104 C27.6723529,19.6616104 27.8735294,19.9162597 27.8735294,20.1709091" id="Fill-23" fill="#239A98"></path>
                    <path d="M25.3588235,20.1709091 C25.3588235,20.4764883 25.1576471,20.6802078 24.8558824,20.6802078 C24.5541176,20.6802078 24.3529412,20.4764883 24.3529412,20.1709091 C24.3529412,19.8653299 24.5541176,19.6616104 24.8558824,19.6616104 C25.1073529,19.6616104 25.3588235,19.9162597 25.3588235,20.1709091" id="Fill-25" fill="#239A98"></path>
                    <line x1="0" y1="9.49350649" x2="39.1544118" y2="9.49350649" id="Stroke-13" stroke="#575756"></line>
                    <line x1="0" y1="5.02597403" x2="39.1544118" y2="5.02597403" id="Stroke-13-Copy" stroke="#575756"></line>
                </g>
                <path d="M4.41176471,26.2467532 C4.41176471,27.4877345 3.43137255,28.4805195 2.20588235,28.4805195 C0.980392157,28.4805195 0,27.4877345 0,26.2467532 C0,25.005772 0.980392157,24.012987 2.20588235,24.012987 C3.43137255,24.012987 4.41176471,25.005772 4.41176471,26.2467532" id="Fill-69" fill="#239A98"></path>
                <path d="M58.4558824,2.23376623 C58.4558824,0.992784993 59.4362745,0 60.6617647,0 C61.8872549,0 62.8676471,0.992784993 62.8676471,2.23376623 C62.8676471,3.47474747 61.8872549,4.46753247 60.6617647,4.46753247 C59.4362745,4.46753247 58.4558824,3.47474747 58.4558824,2.23376623" id="Fill-71" fill="#239A98"></path>
            </g>
            <g id="User-Copy-3" transform="translate(3.000000, 22.000000)">
                <path d="M10.5,0 C16.296,0 21,4.704 21,10.5 C21,16.296 16.296,21 10.5,21 C4.704,21 0,16.296 0,10.5 C0,4.704 4.704,0 10.5,0" id="Fill-27" fill="#FFFFFF"></path>
                <path d="M10.5,0 C16.296,0 21,4.704 21,10.5 C21,16.296 16.296,21 10.5,21 C4.704,21 0,16.296 0,10.5 C0,4.704 4.704,0 10.5,0 Z" id="Stroke-29" stroke="#239A98"></path>
            </g>
            <path d="M27.9379084,81 L57.0620916,81 C60.8779412,81 64,77.8170572 64,73.9267938 L64,7.07320623 C64,3.1829428 60.8779412,0 57.0620916,0 L27.9379084,0 C24.1214806,0 21,3.1829428 21,7.07320623 L21,73.9267938 C21,77.8170572 24.1214806,81 27.9379084,81" id="Fill-55-Copy" fill="#FFFFFF"></path>
            <path d="M57.0620916,0.5 C58.8314382,0.5 60.4391495,1.23925199 61.6050386,2.42787732 C62.7743987,3.62004138 63.5,5.26446243 63.5,7.07320623 L63.5,7.07320623 L63.5,73.9267938 C63.5,75.7355376 62.7743987,77.3799586 61.6050386,78.5721227 C60.4391495,79.760748 58.8314382,80.5 57.0620916,80.5 L57.0620916,80.5 L27.9379084,80.5 C26.1683623,80.5 24.5607003,79.7608159 23.3948875,78.5722683 C22.2255141,77.3800908 21.5,75.7356075 21.5,73.9267938 L21.5,73.9267938 L21.5,7.07320623 C21.5,5.2643925 22.2255141,3.61990922 23.3948875,2.42773165 C24.5607003,1.23918408 26.1683623,0.5 27.9379084,0.5 L27.9379084,0.5 Z" id="Stroke-57-Copy" stroke="#575756"></path>
            <path d="M44,67.5 C44,68.3285446 43.3284544,69 42.4997986,69 C41.6715456,69 41,68.3285446 41,67.5 C41,66.6714554 41.6715456,66 42.4997986,66 C43.3284544,66 44,66.6714554 44,67.5" id="Fill-59-Copy" fill="#575756"></path>
            <g id="Tick-Copy" transform="translate(28.000000, 26.000000)">
                <path d="M23.8161049,4.02325922 C26.3990541,6.56242176 28,10.0957063 28,14.0031891 C28,21.7334411 21.7320133,28 14,28 C6.26798669,28 0,21.7334411 0,14.0031891 C0,6.27349805 6.26798669,0.00637813212 14,0.00637813212 C16.6239128,0.00637813212 19.0794821,0.728406898 21.1781635,1.98340173" id="Fill-63" fill="#FFFFFF"></path>
                <path d="M23.6953325,3.96745945 C26.2465025,6.47538144 27.8277512,9.96519424 27.8277512,13.8246014 C27.8277512,21.4597443 21.6368826,27.6492027 14,27.6492027 C6.36311741,27.6492027 0.172248804,21.4597443 0.172248804,13.8246014 C0.172248804,6.1900125 6.36311741,0 14,0 C16.5916295,0 19.0169868,0.713145295 21.089847,1.95269932" id="Stroke-65" stroke="#575756" stroke-linecap="round"></path>
            </g>
            <polyline id="Stroke-67-Copy" stroke="#239A98" stroke-linecap="round" stroke-linejoin="round" points="35 40.7594278 41.0153968 46 50 33"></polyline>
            <line x1="29" y1="11" x2="55" y2="11" id="Stroke-61-Copy" stroke="#575756" stroke-linecap="round"></line>
            <g id="Icon-/-Medium-/-Identification-Copy-3" transform="translate(9.000000, 26.000000)" fill="#009A9A" fill-rule="nonzero">
                <path d="M4.5,0 C6.41721706,0 7.97142857,1.54617941 7.97142857,3.45348837 C7.97142857,4.74932461 7.25401719,5.87846638 6.19276621,6.46927251 C7.83940116,7.13285873 9,8.73973316 9,10.6162791 C9,10.8282023 8.82730983,11 8.61428571,11 C8.4012616,11 8.22857143,10.8282023 8.22857143,10.6162791 C8.22857143,8.56768796 6.55923314,6.90697674 4.5,6.90697674 C2.44076686,6.90697674 0.771428571,8.56768796 0.771428571,10.6162791 C0.771428571,10.8282023 0.598738404,11 0.385714286,11 C0.172690168,11 0,10.8282023 0,10.6162791 C0,8.73973316 1.16059884,7.13285873 2.80665824,6.467305 C1.74598281,5.87846638 1.02857143,4.74932461 1.02857143,3.45348837 C1.02857143,1.54617941 2.58278294,0 4.5,0 Z M4.5,0.76744186 C3.00883118,0.76744186 1.8,1.97002585 1.8,3.45348837 C1.8,4.9369509 3.00883118,6.13953488 4.5,6.13953488 C5.99116882,6.13953488 7.2,4.9369509 7.2,3.45348837 C7.2,1.97002585 5.99116882,0.76744186 4.5,0.76744186 Z" id="Combined-Shape"></path>
            </g>
        </g>
    </g>
</svg>