<?xml version="1.0" encoding="UTF-8"?>
<svg width="24px" height="24px" viewBox="0 0 24 24" version="1.1" xmlns="http://www.w3.org/2000/svg" xmlns:xlink="http://www.w3.org/1999/xlink">
    <title>Group 5</title>
    <g id="(B)-Process---CheckOut" stroke="none" stroke-width="1" fill="none" fill-rule="evenodd">
        <g id="01-D-Delivery-Overview" transform="translate(-862.000000, -482.000000)">
            <g id="Group-5-Copy" transform="translate(834.000000, 442.000000)">
                <g id="Group-5" transform="translate(28.000000, 40.000000)">
                    <path d="M12.7786577,2 C13.6041563,2 14.3981201,2.36028717 14.9965309,3.00643289 L14.9965309,3.00643289 L18.1648429,6.42747929 C18.8045071,7.11816915 19.1666667,8.07690528 19.1666667,9.07958299 L19.1666667,9.07958299 L19.1666667,19.804878 C19.1666667,21.0172104 18.3017622,22 17.2348485,22 L17.2348485,22 L6.93181818,22 C5.86490446,22 5,21.0172104 5,19.804878 L5,19.804878 L5,4.19512195 C5,2.98278957 5.86490446,2 6.93181818,2 L6.93181818,2 Z M12.7786577,4.43902439 L7.14646465,4.43902439 L7.14646465,19.5609756 L17.020202,19.5609756 L17.02,14.195 L15.449,14.195 L15.4493102,17.5172148 L13.0102858,17.5172148 L13.01,14.195 L11.156,14.195 L11.1563809,17.312423 L8.71735649,17.312423 L8.71735649,9.37050382 L11.1563809,9.37050382 L11.156,11.756 L17.02,11.756 L17.020202,9.07958299 C17.020202,8.79310364 16.9315099,8.5173855 16.7718957,8.29947094 L16.6862608,8.19554842 L13.5179488,4.77450202 C13.3184785,4.55912011 13.0538239,4.43902439 12.7786577,4.43902439 L12.7786577,4.43902439 Z" id="Combined-Shape" fill="#009793" fill-rule="nonzero"></path>
                    <rect id="Rectangle" x="0" y="0" width="24" height="24"></rect>
                </g>
            </g>
        </g>
    </g>
</svg>