<svg width="24" height="24" viewBox="0 0 24 24" fill="none" xmlns="http://www.w3.org/2000/svg">
<path fill-rule="evenodd" clip-rule="evenodd" d="M7.99973 10.8889H4.38889C3.62183 10.8889 3 11.5107 3 12.2778V20.6111C3 21.3782 3.62183 22 4.38889 22H9.38889C10.156 22 10.7778 21.3782 10.7778 20.6111V13.6667C10.7778 13.5193 10.7192 13.378 10.615 13.2738L8.39255 11.0516C8.28836 10.9474 8.14707 10.8889 7.99973 10.8889ZM7.76946 12L9.66668 13.8972V20.6111C9.66668 20.7645 9.54231 20.8889 9.3889 20.8889H4.3889C4.23549 20.8889 4.11112 20.7645 4.11112 20.6111V12.2778C4.11112 12.1244 4.23549 12 4.3889 12H7.76946ZM8.55558 15.3334H5.22224C4.91542 15.3334 4.66669 15.5821 4.66669 15.8889V19.7778C4.66669 20.0846 4.91542 20.3334 5.22224 20.3334H8.55558C8.8624 20.3334 9.11113 20.0846 9.11113 19.7778V15.8889C9.11113 15.5821 8.8624 15.3334 8.55558 15.3334ZM8.00001 16.4445V19.2223H5.77778V16.4445H8.00001Z" fill="#291D18"/>
<path fill-rule="evenodd" clip-rule="evenodd" d="M14.3889 2.10002C13.6771 2.10002 13.1 2.67708 13.1 3.38891V11.7222C13.1 12.4341 13.6771 13.0111 14.3889 13.0111H19.3889C20.1007 13.0111 20.6778 12.4341 20.6778 11.7222V4.7778C20.6778 4.65697 20.6298 4.54109 20.5444 4.45566L18.3219 2.23343C18.2364 2.14801 18.1206 2.10002 17.9998 2.10002H14.3889ZM12.9 3.38891C12.9 2.56662 13.5666 1.90002 14.3889 1.90002H17.9998C18.1736 1.90002 18.3403 1.96908 18.4633 2.092L20.6858 4.31423C20.8087 4.43717 20.8778 4.60392 20.8778 4.7778V11.7222C20.8778 12.5445 20.2112 13.2111 19.3889 13.2111H14.3889C13.5666 13.2111 12.9 12.5445 12.9 11.7222V3.38891ZM14.0111 3.38891C14.0111 3.18027 14.1803 3.01114 14.3889 3.01114H17.8109L19.7667 4.96694V11.7222C19.7667 11.9309 19.5976 12.1 19.3889 12.1H14.3889C14.1803 12.1 14.0111 11.9309 14.0111 11.7222V3.38891ZM14.3889 3.21114C14.2907 3.21114 14.2111 3.29073 14.2111 3.38891V11.7222C14.2111 11.8204 14.2907 11.9 14.3889 11.9H19.3889C19.4871 11.9 19.5667 11.8204 19.5667 11.7222V5.04978L17.7281 3.21114H14.3889ZM15.2223 6.54448C14.9707 6.54448 14.7667 6.74843 14.7667 7.00003V10.8889C14.7667 11.1405 14.9707 11.3445 15.2223 11.3445H18.5556C18.8072 11.3445 19.0112 11.1405 19.0112 10.8889V7.00003C19.0112 6.74843 18.8072 6.54448 18.5556 6.54448H15.2223ZM14.5667 7.00003C14.5667 6.63798 14.8602 6.34448 15.2223 6.34448H18.5556C18.9177 6.34448 19.2112 6.63798 19.2112 7.00003V10.8889C19.2112 11.251 18.9177 11.5445 18.5556 11.5445H15.2223C14.8602 11.5445 14.5667 11.251 14.5667 10.8889V7.00003ZM15.6778 7.45562H18.1V10.4334H15.6778V7.45562ZM15.8778 7.65562V10.2334H17.9V7.65562H15.8778Z" fill="#291D18"/>
<path fill-rule="evenodd" clip-rule="evenodd" d="M4.48889 10.9888C3.77706 10.9888 3.2 11.5659 3.2 12.2777V20.611C3.2 21.3229 3.77706 21.8999 4.48889 21.8999H9.48889C10.2007 21.8999 10.7778 21.3229 10.7778 20.611V13.6666C10.7778 13.5458 10.7298 13.4299 10.6443 13.3445L8.42184 11.1222C8.33641 11.0368 8.22055 10.9888 8.09973 10.9888H4.48889ZM3 12.2777C3 11.4554 3.6666 10.7888 4.48889 10.7888H8.09973C8.27358 10.7888 8.44032 10.8579 8.56325 10.9808L10.7857 13.203C10.9087 13.326 10.9778 13.4927 10.9778 13.6666V20.611C10.9778 21.4333 10.3112 22.0999 9.48889 22.0999H4.48889C3.6666 22.0999 3 21.4333 3 20.611V12.2777ZM4.11112 12.2777C4.11112 12.0691 4.28026 11.8999 4.4889 11.8999H7.91088L9.86668 13.8557V20.611C9.86668 20.8197 9.69754 20.9888 9.4889 20.9888H4.4889C4.28026 20.9888 4.11112 20.8197 4.11112 20.611V12.2777ZM4.4889 12.0999C4.39072 12.0999 4.31112 12.1795 4.31112 12.2777V20.611C4.31112 20.7092 4.39072 20.7888 4.4889 20.7888H9.4889C9.58709 20.7888 9.66668 20.7092 9.66668 20.611V13.9386L7.82804 12.0999H4.4889ZM5.32224 15.4333C5.07065 15.4333 4.86669 15.6372 4.86669 15.8888V19.7777C4.86669 20.0293 5.07065 20.2333 5.32224 20.2333H8.65558C8.90717 20.2333 9.11113 20.0293 9.11113 19.7777V15.8888C9.11113 15.6372 8.90717 15.4333 8.65558 15.4333H5.32224ZM4.66669 15.8888C4.66669 15.5268 4.96019 15.2333 5.32224 15.2333H8.65558C9.01763 15.2333 9.31113 15.5268 9.31113 15.8888V19.7777C9.31113 20.1398 9.01763 20.4333 8.65558 20.4333H5.32224C4.96019 20.4333 4.66669 20.1398 4.66669 19.7777V15.8888ZM5.77778 16.3444H8.20001V19.3222H5.77778V16.3444ZM5.97778 16.5444V19.1222H8.00001V16.5444H5.97778Z" fill="#291D18"/>
<path fill-rule="evenodd" clip-rule="evenodd" d="M18.0997 2H14.4889C13.7218 2 13.1 2.62183 13.1 3.38889V11.7222C13.1 12.4893 13.7218 13.1111 14.4889 13.1111H19.4889C20.2559 13.1111 20.8778 12.4893 20.8778 11.7222V4.77778C20.8778 4.63042 20.8192 4.48911 20.715 4.38492L18.4925 2.16269C18.3883 2.05852 18.247 2 18.0997 2ZM17.8694 3.11111L19.7667 5.00833V11.7222C19.7667 11.8756 19.6423 12 19.4889 12H14.4889C14.3355 12 14.2111 11.8756 14.2111 11.7222V3.38889C14.2111 3.23548 14.3355 3.11111 14.4889 3.11111H17.8694ZM18.6556 6.44445H15.3222C15.0154 6.44445 14.7667 6.69318 14.7667 7.00001V10.8889C14.7667 11.1957 15.0154 11.4445 15.3222 11.4445H18.6556C18.9624 11.4445 19.2111 11.1957 19.2111 10.8889V7.00001C19.2111 6.69318 18.9624 6.44445 18.6556 6.44445ZM18.1 7.55559V10.3334H15.8778V7.55559H18.1Z" fill="#291D18"/>
<path d="M11.0477 5.19018C11.0477 5.51897 10.7812 5.78551 10.4524 5.78551C8.30639 5.78551 6.43473 6.96016 5.4453 8.70158C5.27684 8.99808 4.90827 9.13477 4.6037 8.98139C4.32158 8.83933 4.19826 8.49935 4.34939 8.22198C5.5268 6.06113 7.81837 4.59485 10.4524 4.59485C10.7812 4.59485 11.0477 4.86139 11.0477 5.19018Z" fill="#291D18"/>
<path d="M8.40004 3.2574C8.23034 3.50346 8.2712 3.83223 8.48338 4.03021L8.55214 4.08547L10.8647 5.68029C11.1354 5.86696 11.5061 5.79886 11.6928 5.52819C11.8625 5.28213 11.8216 4.95336 11.6094 4.75538L11.5407 4.70012L9.22811 3.1053C8.95744 2.91863 8.5867 2.98673 8.40004 3.2574Z" fill="#291D18"/>
<path d="M8.68503 6.62234C8.43876 6.84018 8.41572 7.21642 8.63356 7.46269C8.8316 7.68657 9.16054 7.72597 9.40374 7.56761L9.47391 7.51416L11.597 5.6361C11.8433 5.41825 11.8664 5.04202 11.6485 4.79575C11.4505 4.57187 11.1215 4.53247 10.8783 4.69082L10.8082 4.74428L8.68503 6.62234Z" fill="#291D18"/>
<path d="M12.8503 19.074C12.8503 18.7452 13.1169 18.4787 13.4457 18.4787C15.5917 18.4787 17.4633 17.304 18.4528 15.5626C18.6212 15.2661 18.9898 15.1294 19.2944 15.2828C19.5765 15.4248 19.6998 15.7648 19.5487 16.0422C18.3713 18.203 16.0797 19.6693 13.4457 19.6693C13.1169 19.6693 12.8503 19.4028 12.8503 19.074Z" fill="#291D18"/>
<path d="M15.498 21.0068C15.6677 20.7607 15.6269 20.4319 15.4147 20.2339L15.3459 20.1787L13.0334 18.5839C12.7627 18.3972 12.392 18.4653 12.2053 18.736C12.0356 18.982 12.0765 19.3108 12.2887 19.5088L12.3574 19.564L14.67 21.1589C14.9406 21.3455 15.3114 21.2774 15.498 21.0068Z" fill="#291D18"/>
<path d="M15.213 17.6418C15.4593 17.424 15.4824 17.0477 15.2645 16.8015C15.0665 16.5776 14.7375 16.5382 14.4943 16.6965L14.4242 16.75L12.301 18.6281C12.0548 18.8459 12.0317 19.2221 12.2496 19.4684C12.4476 19.6923 12.7765 19.7317 13.0197 19.5733L13.0899 19.5199L15.213 17.6418Z" fill="#291D18"/>
</svg>
