<?xml version="1.0" encoding="UTF-8"?>
<svg width="371px" height="367px" viewBox="0 0 371 367" version="1.1" xmlns="http://www.w3.org/2000/svg" xmlns:xlink="http://www.w3.org/1999/xlink">
    <!-- Generator: Sketch 61 (89581) - https://sketch.com -->
    <title>Illustrations / Flows / Desktop / Wigo Proof Active</title>
    <desc>Created with Sketch.</desc>
    <defs>
        <polygon id="path-1" points="7.31813294e-06 0.00840637027 14.9943048 0.00840637027 14.9943048 15.9565362 7.31813294e-06 15.9565362"></polygon>
    </defs>
    <g id="Move-to-Wigo-desktop" stroke="none" stroke-width="1" fill="none" fill-rule="evenodd">
        <g id="1.01-Change-Bundle---Desktop---Start" transform="translate(-221.000000, -184.000000)">
            <g id="Illustration-/-Flow-/-Desktop-/-WIGO-check" transform="translate(221.000000, 184.000000)">
                <g id="Group-4" stroke-width="1" fill-rule="evenodd">
                    <path d="M116.013882,214.537092 C118.958035,214.537092 121.120588,217.86321 121.120588,221.802203 L121.120588,221.802203 L121.120588,359.734889 C121.120588,363.673882 118.958035,367 116.013882,367 L116.013882,367 L73.8508235,367 C70.9066708,367 68.7441176,363.673882 68.7441176,359.734889 L68.7441176,359.734889 L68.7441176,240.44507 C68.7441176,239.84362 69.232654,239.356049 69.8352941,239.356049 C70.4379342,239.356049 70.9264706,239.84362 70.9264706,240.44507 L70.9264706,240.44507 L70.9264706,359.734889 C70.9264706,362.617817 72.3595449,364.821958 73.8508235,364.821958 L73.8508235,364.821958 L116.013882,364.821958 C117.505161,364.821958 118.938235,362.617817 118.938235,359.734889 L118.938235,359.734889 L118.938235,221.802203 C118.938235,218.919275 117.505161,216.715134 116.013882,216.715134 L116.013882,216.715134 L73.8508235,216.715134 C72.3595449,216.715134 70.9264706,218.919275 70.9264706,221.802203 L70.9264706,221.802203 L70.9264706,233.63971 C70.9264706,234.241159 70.4379342,234.728731 69.8352941,234.728731 C69.232654,234.728731 68.7441176,234.241159 68.7441176,233.63971 L68.7441176,233.63971 L68.7441176,221.802203 C68.7441176,217.86321 70.9066708,214.537092 73.8508235,214.537092 L73.8508235,214.537092 Z M75.0511176,309.535 C75.5867978,309.535 76.0323218,309.920241 76.1247138,310.428268 L76.1422941,310.62402 L76.1422941,354.84623 C76.1422941,357.349492 77.1370092,359.273739 78.0745342,359.469357 L78.2300784,359.485757 L111.609167,359.485757 C112.588642,359.485757 113.696951,357.488563 113.696951,354.84623 C113.696951,354.24478 114.185487,353.757209 114.788127,353.757209 C115.390768,353.757209 115.879304,354.24478 115.879304,354.84623 C115.879304,358.389736 114.272213,361.422032 111.897734,361.650044 L111.609167,361.663798 L78.2300784,361.663798 C75.7955516,361.663798 74.0948252,358.76779 73.9676015,355.26885 L73.9599412,354.84623 L73.9599412,310.62402 C73.9599412,310.022571 74.4484775,309.535 75.0511176,309.535 Z M100.234611,342.478627 C102.607603,342.478627 104.531293,344.406125 104.531293,346.783814 C104.531293,349.161504 102.607603,351.089002 100.234611,351.089002 L89.6300947,351.089002 C87.2571027,351.089002 85.3334127,349.161504 85.3334127,346.783814 C85.3334127,344.406125 87.2571027,342.478627 89.6300947,342.478627 L100.234611,342.478627 Z M100.234611,343.788039 L89.6300947,343.788039 C87.9788422,343.788039 86.6402376,345.129293 86.6402376,346.783814 C86.6402376,348.438335 87.9788422,349.77959 89.6300947,349.77959 L100.234611,349.77959 C101.885864,349.77959 103.224468,348.438335 103.224468,346.783814 C103.224468,345.129293 101.885864,343.788039 100.234611,343.788039 Z M234.706699,263.543027 C234.789608,263.543027 234.870357,263.552255 234.947971,263.569739 C238.190854,263.841807 240.936946,266.254218 241.824068,269.610244 L241.891896,269.884399 L242.536956,272.681059 C242.622689,273.052757 242.506663,273.423812 242.260515,273.679966 L253.070623,273.679297 C258.544892,273.679297 263.005222,278.043123 263.243097,283.40522 L263.253071,283.867195 L269.189473,339.271856 C269.189473,344.800944 264.881206,349.318356 259.467491,349.565057 L259.000826,349.575668 L193.044168,349.575668 C192.441528,349.575668 191.952992,349.088096 191.952992,348.486647 C191.952992,347.952025 192.338996,347.507381 192.848028,347.415172 L193.044168,347.397626 L259.000826,347.397626 C263.276418,347.397626 266.77476,343.99387 267.001629,339.808786 L267.013318,339.38777 L261.076917,283.983109 C261.076917,279.636675 257.716497,276.092711 253.495499,275.868591 L253.070623,275.857339 L188.984001,275.857339 C188.381361,275.857339 187.892825,275.369767 187.892825,274.768318 C187.892825,274.233696 188.278829,273.789052 188.787861,273.696843 L188.984001,273.679297 L192.02772,273.679966 C191.812341,273.455831 191.696586,273.143725 191.728447,272.820192 L191.751279,272.681059 L192.396339,269.884399 C193.252466,266.172655 196.3598,263.543027 199.954894,263.543027 C200.557534,263.543027 201.046071,264.030598 201.046071,264.632047 C201.046071,265.233497 200.557534,265.721068 199.954894,265.721068 C197.482919,265.721068 195.293709,267.510328 194.585126,270.125444 L194.52307,270.373001 L193.878011,273.169661 C193.832168,273.368411 193.734526,273.541824 193.602587,273.678969 L210.438195,273.678969 C210.332644,273.569253 210.249043,273.436325 210.196354,273.285783 L210.162772,273.169661 L209.517712,270.373001 C208.883623,267.623904 206.635113,265.721068 204.085888,265.721068 C203.483248,265.721068 202.994712,265.233497 202.994712,264.632047 C202.994712,264.030598 203.483248,263.543027 204.085888,263.543027 C207.597376,263.543027 210.643526,266.051769 211.581084,269.627215 L211.644444,269.884399 L212.289504,272.681059 C212.375237,273.052757 212.25921,273.423812 212.013063,273.679966 L220.960066,273.679966 C220.744687,273.455831 220.628931,273.143725 220.660793,272.820192 L220.683625,272.681059 L221.328685,269.884399 C222.164902,266.258974 225.148836,263.66592 228.637233,263.547274 L228.88724,263.543027 L234.706699,263.543027 Z M183.053798,273.679297 C183.656439,273.679297 184.144975,274.166868 184.144975,274.768318 C184.144975,275.369767 183.656439,275.857339 183.053798,275.857339 C178.778207,275.857339 175.279864,279.261095 175.052996,283.656288 L175.041306,284.099023 L169.117302,339.271856 C169.117302,343.61829 172.477722,347.162253 176.69872,347.386373 L177.123596,347.397626 L183.946698,347.397626 C184.549338,347.397626 185.037875,347.885197 185.037875,348.486647 C185.037875,349.021269 184.651871,349.465913 184.142839,349.558122 L183.946698,349.575668 L177.123596,349.575668 C171.649327,349.575668 167.188998,345.211842 166.951122,339.636704 L166.941148,339.155942 L172.865152,283.983109 C172.865152,278.296047 177.423122,273.679297 183.053798,273.679297 Z M217.693469,280.967359 C224.75597,280.967359 231.444974,283.42463 236.780579,287.842059 C237.244401,288.226065 237.308489,288.912622 236.923724,289.375527 C236.538958,289.838433 235.851043,289.902394 235.387221,289.518389 C230.439498,285.422093 224.242051,283.145401 217.693469,283.145401 C202.325454,283.145401 189.864706,295.652102 189.864706,311.082972 C189.864706,326.513842 202.325454,339.020543 217.693469,339.020543 C233.061483,339.020543 245.522231,326.513842 245.522231,311.082972 C245.522231,310.481522 246.010768,309.993951 246.613408,309.993951 C247.216048,309.993951 247.704584,310.481522 247.704584,311.082972 C247.704584,327.71399 234.269537,341.198585 217.693469,341.198585 C201.117401,341.198585 187.682353,327.71399 187.682353,311.082972 C187.682353,294.451953 201.117401,280.967359 217.693469,280.967359 Z M94.9323529,328.824872 C97.7690661,328.824872 100.068676,331.119939 100.068676,333.951048 L100.068676,334.113694 C100.068676,336.944803 97.7690661,339.239871 94.9323529,339.239871 C92.0956398,339.239871 89.7960294,336.944803 89.7960294,334.113694 L89.7960294,333.951048 C89.7960294,331.119939 92.0956398,328.824872 94.9323529,328.824872 Z M94.9323529,330.131697 C92.8188079,330.131697 91.1054412,331.841679 91.1054412,333.951048 L91.1054412,334.113694 C91.1054412,336.223064 92.8188079,337.933046 94.9323529,337.933046 C97.0458979,337.933046 98.7592647,336.223064 98.7592647,334.113694 L98.7592647,333.951048 C98.7592647,331.841679 97.0458979,330.131697 94.9323529,330.131697 Z M342.629412,328.884273 C345.039972,328.884273 346.994118,330.834558 346.994118,333.240356 C346.994118,335.646154 345.039972,337.596439 342.629412,337.596439 C340.218851,337.596439 338.264706,335.646154 338.264706,333.240356 C338.264706,330.834558 340.218851,328.884273 342.629412,328.884273 Z M217.731848,286.496234 C231.265622,286.496234 242.234404,297.505467 242.234404,311.082972 C242.234404,324.660477 231.265622,335.66971 217.731848,335.66971 C204.198073,335.66971 193.229292,324.660477 193.229292,311.082972 C193.229292,297.505467 204.198073,286.496234 217.731848,286.496234 Z M217.731848,288.674275 C205.406127,288.674275 195.411645,298.705615 195.411645,311.082972 C195.411645,323.460329 205.406127,333.491669 217.731848,333.491669 C230.057569,333.491669 240.052051,323.460329 240.052051,311.082972 C240.052051,298.705615 230.057569,288.674275 217.731848,288.674275 Z M218.130807,320.10509 C220.42084,320.10509 222.277278,321.957861 222.277278,324.243369 C222.277278,326.528877 220.42084,328.381648 218.130807,328.381648 C215.840775,328.381648 213.984337,326.528877 213.984337,324.243369 C213.984337,321.957861 215.840775,320.10509 218.130807,320.10509 Z M218.130807,321.411915 C216.563943,321.411915 215.293749,322.6796 215.293749,324.243369 C215.293749,325.807138 216.563943,327.074823 218.130807,327.074823 C219.697672,327.074823 220.967866,325.807138 220.967866,324.243369 C220.967866,322.6796 219.697672,321.411915 218.130807,321.411915 Z M211.820711,317.30267 L212.039437,317.541744 C213.424958,319.177713 213.354552,321.638185 211.826527,323.184411 C210.21773,324.811955 207.60371,324.80937 205.991662,323.178612 C204.384048,321.551931 204.381446,318.920435 205.985876,317.296901 C207.594673,315.669357 210.208692,315.671941 211.820711,317.30267 Z M230.819132,317.296951 C232.423532,318.920456 232.42093,321.551952 230.813287,323.178662 C229.201268,324.809391 226.587249,324.811976 224.978423,323.184402 C223.374022,321.560897 223.376624,318.929401 224.984289,317.302771 L225.221199,317.080849 C226.842961,315.675413 229.286914,315.746884 230.819132,317.296951 Z M226.127515,318.025867 L225.913763,318.221394 L225.719765,318.438553 C224.81433,319.561672 224.877289,321.219182 225.909752,322.263874 C227.006956,323.373933 228.784404,323.372176 229.883777,322.259974 C230.98731,321.143422 230.989102,319.331822 229.887803,318.217479 C228.859178,317.176803 227.232689,317.113301 226.127515,318.025867 Z M206.917205,318.217429 C205.815877,319.331801 205.817668,321.143401 206.921173,322.259923 C208.020575,323.372155 209.798022,323.373912 210.895198,322.263882 C211.927688,321.219163 211.990649,319.561652 211.085214,318.438532 L210.891215,318.221373 L210.677463,318.025846 C209.57229,317.11328 207.945802,317.17678 206.917205,318.217429 Z M359.542647,312.598771 C360.287085,312.598771 360.890571,313.189423 360.890571,313.91803 C360.890571,314.646636 360.287085,315.237288 359.542647,315.237288 C358.798209,315.237288 358.194723,314.646636 358.194723,313.91803 C358.194723,313.189423 358.798209,312.598771 359.542647,312.598771 Z M205.254057,306.29811 C207.539565,306.29811 209.392336,308.154548 209.392336,310.44458 C209.392336,312.734613 207.539565,314.591051 205.254057,314.591051 C202.968548,314.591051 201.115778,312.734613 201.115778,310.44458 C201.115778,308.154548 202.968548,306.29811 205.254057,306.29811 Z M231.878763,306.29811 C234.164271,306.29811 236.017042,308.154548 236.017042,310.44458 C236.017042,312.734613 234.164271,314.591051 231.878763,314.591051 C229.593254,314.591051 227.740484,312.734613 227.740484,310.44458 C227.740484,308.154548 229.593254,306.29811 231.878763,306.29811 Z M205.254057,307.607522 C203.690288,307.607522 202.422603,308.877716 202.422603,310.44458 C202.422603,312.011445 203.690288,313.281639 205.254057,313.281639 C206.817826,313.281639 208.085511,312.011445 208.085511,310.44458 C208.085511,308.877716 206.817826,307.607522 205.254057,307.607522 Z M231.878763,307.607522 C230.314994,307.607522 229.047309,308.877716 229.047309,310.44458 C229.047309,312.011445 230.314994,313.281639 231.878763,313.281639 C233.442532,313.281639 234.710217,312.011445 234.710217,310.44458 C234.710217,308.877716 233.442532,307.607522 231.878763,307.607522 Z M230.813308,298.124687 C231.067451,298.381892 231.065458,298.79601 230.808806,299.049696 C230.552154,299.303382 230.138031,299.30057 229.883837,299.043416 C228.784427,297.931201 227.006985,297.929444 225.909812,299.039446 C224.808501,300.153827 224.810292,301.96542 225.913769,303.08194 C227.01318,304.194155 228.790621,304.195912 229.887786,303.085918 C230.444508,302.522569 230.734737,301.764267 230.711289,300.981028 C230.700479,300.619942 230.984417,300.31904 231.345483,300.308944 C231.706548,300.298848 232.008012,300.583382 232.018822,300.944468 C232.052841,302.080793 231.629857,303.185951 230.819123,304.006438 C229.210321,305.633951 226.596323,305.631366 224.984259,304.000629 C223.376676,302.373943 223.374074,299.742468 224.978483,298.118918 C226.587286,296.491405 229.201283,296.49399 230.813308,298.124687 Z M210.20016,297.281289 C211.804561,298.904794 211.801959,301.53629 210.194316,303.163001 C208.582297,304.793729 205.968277,304.796314 204.359451,303.16874 C202.755051,301.545236 202.757653,298.913739 204.365318,297.287109 L204.602228,297.065187 C206.22399,295.659751 208.667943,295.731222 210.20016,297.281289 Z M205.508544,298.010205 L205.294792,298.205732 L205.100793,298.422891 C204.195358,299.546011 204.258317,301.20352 205.29078,302.248212 C206.387985,303.358271 208.165432,303.356514 209.264805,302.244312 C210.368339,301.12776 210.37013,299.31616 209.268831,298.201818 C208.240207,297.161141 206.613717,297.097639 205.508544,298.010205 Z M268.645443,251.563798 C275.83832,251.563798 281.672349,257.499622 281.827291,264.738502 L281.830442,265.049524 L284.797059,288.960309 C284.797059,296.473602 278.899376,302.580233 271.603743,302.580233 C271.001103,302.580233 270.512567,302.092662 270.512567,301.491212 C270.512567,300.889762 271.001103,300.402191 271.603743,300.402191 C277.579383,300.402191 282.457629,295.449327 282.618915,289.388616 L282.623022,289.094507 L279.656405,265.183722 C279.656405,258.954637 274.8706,253.901946 268.929224,253.74557 L268.645443,253.74184 L167.121943,253.74184 C160.581393,253.74184 156.247993,257.757171 156.096572,265.034151 L156.092531,265.383136 L151.673529,288.960309 C151.673529,295.189394 156.459335,300.242085 162.40071,300.398461 L162.684492,300.402191 L168.14263,300.402191 C168.74527,300.402191 169.233806,300.889762 169.233806,301.491212 C169.233806,302.052565 168.808237,302.514717 168.261526,302.573843 L168.14263,302.580233 L162.684492,302.580233 C155.490187,302.580233 149.655271,296.642053 149.512228,289.081316 L149.509583,288.760895 L153.928627,265.183722 C153.928627,256.777612 159.146069,251.707964 166.792749,251.566825 L167.121943,251.563798 L268.645443,251.563798 Z M218.130807,293.382196 C220.42084,293.382196 222.277278,295.234966 222.277278,297.520475 C222.277278,299.805983 220.42084,301.658754 218.130807,301.658754 C215.840775,301.658754 213.984337,299.805983 213.984337,297.520475 C213.984337,295.234966 215.840775,293.382196 218.130807,293.382196 Z M218.130807,294.689021 C216.563943,294.689021 215.293749,295.956706 215.293749,297.520475 C215.293749,299.084244 216.563943,300.351929 218.130807,300.351929 C219.697672,300.351929 220.967866,299.084244 220.967866,297.520475 C220.967866,295.956706 219.697672,294.689021 218.130807,294.689021 Z M348.419779,192.756677 C351.210659,192.756677 353.494769,194.922173 353.610068,197.645942 L353.614635,197.862107 L353.614635,287.561921 C353.614635,290.313959 351.402085,292.550021 348.639028,292.662882 L348.419779,292.667351 L305.331146,292.667351 C302.540266,292.667351 300.256155,290.501855 300.140856,287.778086 L300.13629,287.561921 L300.13629,209.985859 C300.13629,209.384409 300.624826,208.896838 301.227466,208.896838 C301.78993,208.896838 302.252998,209.321567 302.31224,209.867198 L302.318643,209.985859 L302.318643,287.561921 C302.318643,289.116295 303.568383,290.394971 305.153668,290.484323 L305.331146,290.48931 L348.419779,290.48931 C350.028665,290.48931 351.335866,289.266147 351.427185,287.733448 L351.432282,287.561921 L351.432282,197.862107 C351.432282,196.307733 350.182542,195.029057 348.597256,194.939705 L348.419779,194.934718 L305.331146,194.934718 C303.722259,194.934718 302.415059,196.157881 302.323739,197.69058 L302.318643,197.862107 L302.318643,205.560225 C302.318643,206.161675 301.830106,206.649246 301.227466,206.649246 C300.665002,206.649246 300.201935,206.224517 300.142693,205.678886 L300.13629,205.560225 L300.13629,197.862107 C300.13629,195.110069 302.348839,192.874007 305.111896,192.761146 L305.331146,192.756677 L348.419779,192.756677 Z M94.9323529,285.105638 C96.2866555,285.105638 97.3797059,286.216363 97.3797059,287.580685 C97.3797059,288.945007 96.2866555,290.055732 94.9323529,290.055732 C93.5780504,290.055732 92.485,288.945007 92.485,287.580685 C92.485,286.216363 93.5780504,285.105638 94.9323529,285.105638 Z M94.9323529,286.412463 C94.3065522,286.412463 93.7944118,286.932885 93.7944118,287.580685 C93.7944118,288.228486 94.3065522,288.748907 94.9323529,288.748907 C95.5581537,288.748907 96.0702941,288.228486 96.0702941,287.580685 C96.0702941,286.932885 95.5581537,286.412463 94.9323529,286.412463 Z M336.450714,286.239107 C336.812298,286.239107 337.10542,286.53165 337.10542,286.892519 C337.10542,287.253389 336.812298,287.545932 336.450714,287.545932 L336.450714,287.545932 L328.243355,287.545932 C327.881771,287.545932 327.58865,287.253389 327.58865,286.892519 C327.58865,286.53165 327.881771,286.239107 328.243355,286.239107 L328.243355,286.239107 Z M314.564424,286.239107 C314.926008,286.239107 315.21913,286.53165 315.21913,286.892519 C315.21913,287.253389 314.926008,287.545932 314.564424,287.545932 L314.564424,287.545932 L306.357066,287.545932 C305.995481,287.545932 305.70236,287.253389 305.70236,286.892519 C305.70236,286.53165 305.995481,286.239107 306.357066,286.239107 L306.357066,286.239107 Z M347.393859,286.239107 C347.755443,286.239107 348.048565,286.53165 348.048565,286.892519 C348.048565,287.253389 347.755443,287.545932 347.393859,287.545932 L347.393859,287.545932 L339.1865,287.545932 C338.824916,287.545932 338.531795,287.253389 338.531795,286.892519 C338.531795,286.53165 338.824916,286.239107 339.1865,286.239107 L339.1865,286.239107 Z M325.507569,286.239107 C325.869153,286.239107 326.162275,286.53165 326.162275,286.892519 C326.162275,287.253389 325.869153,287.545932 325.507569,287.545932 L325.507569,287.545932 L317.30021,287.545932 C316.938626,287.545932 316.645505,287.253389 316.645505,286.892519 C316.645505,286.53165 316.938626,286.239107 317.30021,286.239107 L317.30021,286.239107 Z M94.9323529,277.819099 C96.289986,277.819099 97.3797059,278.951114 97.3797059,280.334737 C97.3797059,281.71836 96.289986,282.850375 94.9323529,282.850375 C93.5747199,282.850375 92.485,281.71836 92.485,280.334737 C92.485,278.951114 93.5747199,277.819099 94.9323529,277.819099 Z M94.9323529,279.125924 C94.3098827,279.125924 93.7944118,279.661402 93.7944118,280.334737 C93.7944118,281.008072 94.3098827,281.54355 94.9323529,281.54355 C95.5548232,281.54355 96.0702941,281.008072 96.0702941,280.334737 C96.0702941,279.661402 95.5548232,279.125924 94.9323529,279.125924 Z M326.875462,266.157059 C327.648856,266.157059 328.399079,266.326518 329.082092,266.648546 C329.40903,266.802691 329.548859,267.192162 329.394409,267.518453 C329.239959,267.844745 328.849717,267.984298 328.522779,267.830153 C328.013885,267.590219 327.45458,267.463884 326.875462,267.463884 C324.778951,267.463884 323.084516,269.122285 323.084516,271.161582 C323.084516,273.200879 324.778951,274.85928 326.875462,274.85928 C328.971974,274.85928 330.666409,273.200879 330.666409,271.161582 C330.666409,270.402682 330.432219,269.679391 330.000603,269.067844 C329.792379,268.772816 329.863221,268.365185 330.158832,268.157372 C330.454444,267.94956 330.862882,268.020262 331.071106,268.315289 C331.656707,269.145014 331.975821,270.13059 331.975821,271.161582 C331.975821,273.928389 329.689483,276.166105 326.875462,276.166105 C324.061441,276.166105 321.775104,273.928389 321.775104,271.161582 C321.775104,268.394775 324.061441,266.157059 326.875462,266.157059 Z M94.9323529,269.621743 C96.2866555,269.621743 97.3797059,270.732468 97.3797059,272.09679 C97.3797059,273.461112 96.2866555,274.571837 94.9323529,274.571837 C93.5780504,274.571837 92.485,273.461112 92.485,272.09679 C92.485,270.732468 93.5780504,269.621743 94.9323529,269.621743 Z M234.333341,265.721068 L228.88724,265.721068 C226.415265,265.721068 224.226055,267.510328 223.517472,270.125444 L223.455416,270.373001 L222.810357,273.169661 C222.764514,273.368411 222.666872,273.541824 222.534933,273.678969 L240.685648,273.678969 C240.580097,273.569253 240.496496,273.436325 240.443806,273.285783 L240.410225,273.169661 L239.765165,270.373001 C239.131076,267.623904 236.882565,265.721068 234.333341,265.721068 Z M94.9323529,270.928568 C94.3065522,270.928568 93.7944118,271.448989 93.7944118,272.09679 C93.7944118,272.74459 94.3065522,273.265012 94.9323529,273.265012 C95.5581537,273.265012 96.0702941,272.74459 96.0702941,272.09679 C96.0702941,271.448989 95.5581537,270.928568 94.9323529,270.928568 Z M94.9323529,262.335204 C96.2866555,262.335204 97.3797059,263.445929 97.3797059,264.810251 C97.3797059,266.174573 96.2866555,267.285298 94.9323529,267.285298 C93.5780504,267.285298 92.485,266.174573 92.485,264.810251 C92.485,263.445929 93.5780504,262.335204 94.9323529,262.335204 Z M94.9323529,263.642029 C94.3065522,263.642029 93.7944118,264.16245 93.7944118,264.810251 C93.7944118,265.458051 94.3065522,265.978473 94.9323529,265.978473 C95.5581537,265.978473 96.0702941,265.458051 96.0702941,264.810251 C96.0702941,264.16245 95.5581537,263.642029 94.9323529,263.642029 Z M313.196531,255.446634 C316.010552,255.446634 318.29689,257.684349 318.29689,260.451156 C318.29689,263.217963 316.010552,265.455679 313.196531,265.455679 C310.38251,265.455679 308.096173,263.217963 308.096173,260.451156 C308.096173,257.684349 310.38251,255.446634 313.196531,255.446634 Z M326.875462,255.446634 C329.689483,255.446634 331.975821,257.684349 331.975821,260.451156 C331.975821,263.217963 329.689483,265.455679 326.875462,265.455679 C324.061441,265.455679 321.775104,263.217963 321.775104,260.451156 C321.775104,257.684349 324.061441,255.446634 326.875462,255.446634 Z M340.554394,255.446634 C341.327787,255.446634 342.078011,255.616093 342.761024,255.93812 C343.087961,256.092265 343.22779,256.481736 343.07334,256.808028 C342.91889,257.13432 342.528648,257.273872 342.201711,257.119727 C341.692816,256.879793 341.133511,256.753458 340.554394,256.753458 C338.457882,256.753458 336.763447,258.41186 336.763447,260.451156 C336.763447,262.490453 338.457882,264.148854 340.554394,264.148854 C342.650905,264.148854 344.34534,262.490453 344.34534,260.451156 C344.34534,259.692256 344.11115,258.968965 343.679534,258.357418 C343.47131,258.062391 343.542152,257.654759 343.837763,257.446947 C344.133375,257.239135 344.541814,257.309837 344.750037,257.604864 C345.335638,258.434589 345.654752,259.420164 345.654752,260.451156 C345.654752,263.217963 343.368414,265.455679 340.554394,265.455679 C337.740373,265.455679 335.454035,263.217963 335.454035,260.451156 C335.454035,257.684349 337.740373,255.446634 340.554394,255.446634 Z M313.196531,256.753458 C311.10002,256.753458 309.405584,258.41186 309.405584,260.451156 C309.405584,262.490453 311.10002,264.148854 313.196531,264.148854 C315.293043,264.148854 316.987478,262.490453 316.987478,260.451156 C316.987478,258.41186 315.293043,256.753458 313.196531,256.753458 Z M326.875462,256.753458 C324.778951,256.753458 323.084516,258.41186 323.084516,260.451156 C323.084516,262.490453 324.778951,264.148854 326.875462,264.148854 C328.971974,264.148854 330.666409,262.490453 330.666409,260.451156 C330.666409,258.41186 328.971974,256.753458 326.875462,256.753458 Z M341.100478,258.311552 C341.314327,258.311552 341.492185,258.465954 341.529068,258.669566 L341.536087,258.748023 L341.536194,259.402552 L342.298401,259.402729 C342.51225,259.402729 342.690108,259.55713 342.726991,259.760743 L342.73401,259.839199 C342.73401,260.053471 342.579913,260.231681 342.376702,260.268638 L342.298401,260.27567 L341.536194,260.275552 L341.536194,260.820552 L342.305586,260.821258 C342.519434,260.821258 342.697292,260.97566 342.734176,261.179272 L342.741194,261.257729 C342.741194,261.472001 342.587097,261.65021 342.383887,261.687167 L342.305586,261.694199 L341.536194,261.693552 L341.536087,262.101656 C341.536087,262.315928 341.38199,262.494138 341.17878,262.531094 L341.100478,262.538127 C340.88663,262.538127 340.708772,262.383725 340.671888,262.180112 L340.66487,262.101656 L340.665194,261.693552 L340.230194,261.693552 L340.229262,262.101656 C340.229262,262.315928 340.075165,262.494138 339.871955,262.531094 L339.793653,262.538127 C339.579805,262.538127 339.401947,262.383725 339.365063,262.180112 L339.358045,262.101656 L339.358194,261.693552 L338.602915,261.694199 C338.389066,261.694199 338.211209,261.539797 338.174325,261.336185 L338.167307,261.257729 C338.167307,261.043456 338.321403,260.865247 338.524614,260.82829 L338.602915,260.821258 L339.358194,260.820552 L339.358194,260.275552 L338.595731,260.27567 C338.355151,260.27567 338.160122,260.080255 338.160122,259.839199 C338.160122,259.624927 338.314219,259.446717 338.517429,259.409761 L338.595731,259.402729 L339.358194,259.402552 L339.358045,258.748023 C339.358045,258.533751 339.512142,258.355541 339.715352,258.318584 L339.793653,258.311552 C340.007502,258.311552 340.18536,258.465954 340.222244,258.669566 L340.229262,258.748023 L340.230194,259.402552 L340.665194,259.402552 L340.66487,258.748023 C340.66487,258.533751 340.818967,258.355541 341.022177,258.318584 L341.100478,258.311552 Z M313.058529,258.315727 C313.272801,258.315727 313.451011,258.469824 313.487968,258.673034 L313.495,258.751335 L313.494627,259.389727 L313.952771,258.941635 C314.10307,258.794246 314.333227,258.778095 314.5015,258.891646 L314.569415,258.948247 C314.717088,259.098852 314.733694,259.329043 314.620465,259.497082 L314.563993,259.56488 L314.104627,260.014727 L314.729002,260.014982 C314.942851,260.014982 315.120708,260.169384 315.157592,260.372997 L315.16461,260.451453 C315.16461,260.665725 315.010514,260.843934 314.807303,260.880891 L314.729002,260.887923 L314.164627,260.887727 L314.593575,261.308281 C314.743874,261.45567 314.764516,261.685459 314.654265,261.855909 L314.598998,261.924914 C314.451298,262.075492 314.221467,262.096586 314.051243,261.986662 L313.982353,261.931526 L313.494627,261.452727 L313.495,262.098343 C313.495,262.312192 313.340598,262.49005 313.136986,262.526933 L313.058529,262.533952 C312.844257,262.533952 312.666048,262.379855 312.629091,262.176644 L312.622059,262.098343 L312.621627,261.467727 L312.150607,261.931526 C312.000308,262.078914 311.770151,262.095066 311.601878,261.981515 L311.533963,261.924914 C311.38629,261.774309 311.369684,261.544118 311.482913,261.376079 L311.539386,261.308281 L311.966627,260.887727 L311.316025,260.887923 C311.102176,260.887923 310.924319,260.733522 310.887435,260.529909 L310.880417,260.451453 C310.880417,260.237181 311.034513,260.058971 311.237724,260.022014 L311.316025,260.014982 L312.027627,260.014727 L311.568968,259.56488 C311.418669,259.417491 311.398027,259.187702 311.508278,259.017251 L311.563545,258.948247 C311.711245,258.797669 311.941076,258.776575 312.1113,258.886499 L312.18019,258.941635 L312.621627,259.374727 L312.622059,258.751335 C312.622059,258.537487 312.77646,258.359629 312.980073,258.322745 L313.058529,258.315727 Z M340.665194,260.275552 L340.230194,260.275552 L340.230194,260.820552 L340.665194,260.820552 L340.665194,260.275552 Z M94.9323529,255.048665 C96.2866555,255.048665 97.3797059,256.15939 97.3797059,257.523712 C97.3797059,258.888034 96.2866555,259.998759 94.9323529,259.998759 C93.5780504,259.998759 92.485,258.888034 92.485,257.523712 C92.485,256.15939 93.5780504,255.048665 94.9323529,255.048665 Z M94.9323529,256.35549 C94.3065522,256.35549 93.7944118,256.875912 93.7944118,257.523712 C93.7944118,258.171512 94.3065522,258.691934 94.9323529,258.691934 C95.5581537,258.691934 96.0702941,258.171512 96.0702941,257.523712 C96.0702941,256.875912 95.5581537,256.35549 94.9323529,256.35549 Z M313.196531,244.736208 C316.010552,244.736208 318.29689,246.973924 318.29689,249.740731 C318.29689,252.507538 316.010552,254.745254 313.196531,254.745254 C310.38251,254.745254 308.096173,252.507538 308.096173,249.740731 C308.096173,246.973924 310.38251,244.736208 313.196531,244.736208 Z M340.554394,244.736208 C343.368414,244.736208 345.654752,246.973924 345.654752,249.740731 C345.654752,252.507538 343.368414,254.745254 340.554394,254.745254 C337.740373,254.745254 335.454035,252.507538 335.454035,249.740731 C335.454035,246.973924 337.740373,244.736208 340.554394,244.736208 Z M326.875462,244.736208 C327.648856,244.736208 328.399079,244.905667 329.082092,245.227695 C329.40903,245.38184 329.548859,245.77131 329.394409,246.097602 C329.239959,246.423894 328.849717,246.563447 328.522779,246.409302 C328.013885,246.169368 327.45458,246.043033 326.875462,246.043033 C324.778951,246.043033 323.084516,247.701434 323.084516,249.740731 C323.084516,251.780028 324.778951,253.438429 326.875462,253.438429 C328.971974,253.438429 330.666409,251.780028 330.666409,249.740731 C330.666409,248.98183 330.432219,248.25854 330.000603,247.646993 C329.792379,247.351965 329.863221,246.944333 330.158832,246.736521 C330.454444,246.528709 330.862882,246.599411 331.071106,246.894438 C331.656707,247.724163 331.975821,248.709739 331.975821,249.740731 C331.975821,252.507538 329.689483,254.745254 326.875462,254.745254 C324.061441,254.745254 321.775104,252.507538 321.775104,249.740731 C321.775104,246.973924 324.061441,244.736208 326.875462,244.736208 Z M340.554394,246.043033 C338.457882,246.043033 336.763447,247.701434 336.763447,249.740731 C336.763447,251.780028 338.457882,253.438429 340.554394,253.438429 C342.650905,253.438429 344.34534,251.780028 344.34534,249.740731 C344.34534,247.701434 342.650905,246.043033 340.554394,246.043033 Z M313.196531,246.043033 C311.10002,246.043033 309.405584,247.701434 309.405584,249.740731 C309.405584,251.780028 311.10002,253.438429 313.196531,253.438429 C315.293043,253.438429 316.987478,251.780028 316.987478,249.740731 C316.987478,247.701434 315.293043,246.043033 313.196531,246.043033 Z M340.554394,234.025782 C343.368414,234.025782 345.654752,236.263498 345.654752,239.030305 C345.654752,241.797112 343.368414,244.034828 340.554394,244.034828 C337.740373,244.034828 335.454035,241.797112 335.454035,239.030305 C335.454035,236.263498 337.740373,234.025782 340.554394,234.025782 Z M326.875462,234.025782 C329.689483,234.025782 331.975821,236.263498 331.975821,239.030305 C331.975821,241.797112 329.689483,244.034828 326.875462,244.034828 C324.061441,244.034828 321.775104,241.797112 321.775104,239.030305 C321.775104,238.224615 321.969819,237.445028 322.337651,236.743502 C323.205832,235.087714 324.94543,234.025782 326.875462,234.025782 Z M313.196531,234.025782 C313.969925,234.025782 314.720148,234.195241 315.403161,234.517269 C315.730099,234.671414 315.869928,235.060885 315.715478,235.387177 C315.561028,235.713468 315.170786,235.853021 314.843848,235.698876 C314.334954,235.458942 313.775649,235.332607 313.196531,235.332607 C311.10002,235.332607 309.405584,236.991008 309.405584,239.030305 C309.405584,241.069602 311.10002,242.728003 313.196531,242.728003 C315.293043,242.728003 316.987478,241.069602 316.987478,239.030305 C316.987478,238.271405 316.753288,237.548114 316.321672,236.936567 C316.113448,236.64154 316.18429,236.233908 316.479901,236.026096 C316.775512,235.818284 317.183951,235.888985 317.392175,236.184013 C317.977776,237.013738 318.29689,237.999313 318.29689,239.030305 C318.29689,241.797112 316.010552,244.034828 313.196531,244.034828 C310.38251,244.034828 308.096173,241.797112 308.096173,239.030305 C308.096173,236.263498 310.38251,234.025782 313.196531,234.025782 Z M111.609167,220.091098 C114.651571,220.091098 115.66891,221.709508 115.848694,225.49113 L115.866324,225.955343 L115.879304,226.908666 L115.879304,242.027549 C115.879304,242.628999 115.390768,243.11657 114.788127,243.11657 C114.252447,243.11657 113.806923,242.731328 113.714531,242.223302 L113.696951,242.027549 L113.694818,226.458162 L113.676587,225.64138 C113.582188,223.100503 113.134215,222.34067 111.813832,222.274067 L111.609167,222.269139 L78.0214193,222.272913 C76.5432349,222.32938 76.1960681,223.043774 76.1484721,226.035162 L76.1422941,226.908666 L76.1422941,237.888383 C76.1422941,238.489832 75.6537578,238.977403 75.0511176,238.977403 C74.5154375,238.977403 74.0699135,238.592162 73.9775215,238.084135 L73.9599412,237.888383 L73.9599412,226.908666 L73.9698413,225.94941 C74.0618606,221.820887 74.8341,220.207182 77.8819793,220.097183 L78.2300784,220.091098 L111.609167,220.091098 Z M340.554394,235.332607 C338.457882,235.332607 336.763447,236.991008 336.763447,239.030305 C336.763447,241.069602 338.457882,242.728003 340.554394,242.728003 C342.650905,242.728003 344.34534,241.069602 344.34534,239.030305 C344.34534,236.991008 342.650905,235.332607 340.554394,235.332607 Z M326.875462,235.332607 C325.435041,235.332607 324.14114,236.122464 323.497814,237.349411 C323.227356,237.865226 323.084516,238.437121 323.084516,239.030305 C323.084516,241.069602 324.778951,242.728003 326.875462,242.728003 C328.971974,242.728003 330.666409,241.069602 330.666409,239.030305 C330.666409,236.991008 328.971974,235.332607 326.875462,235.332607 Z M280.6891,238.089525 C281.433538,238.089525 282.037024,238.680177 282.037024,239.408783 C282.037024,240.13739 281.433538,240.728042 280.6891,240.728042 C279.944663,240.728042 279.341176,240.13739 279.341176,239.408783 C279.341176,238.680177 279.944663,238.089525 280.6891,238.089525 Z M340.554394,223.315357 C341.327787,223.315357 342.078011,223.484816 342.761024,223.806844 C343.087961,223.960988 343.22779,224.350459 343.07334,224.676751 C342.91889,225.003043 342.528648,225.142595 342.201711,224.988451 C341.692816,224.748516 341.133511,224.622182 340.554394,224.622182 C338.457882,224.622182 336.763447,226.280583 336.763447,228.31988 C336.763447,230.359176 338.457882,232.017578 340.554394,232.017578 C342.650905,232.017578 344.34534,230.359176 344.34534,228.31988 C344.34534,227.560979 344.11115,226.837689 343.679534,226.226141 C343.47131,225.931114 343.542152,225.523482 343.837763,225.31567 C344.133375,225.107858 344.541814,225.17856 344.750037,225.473587 C345.335638,226.303312 345.654752,227.288888 345.654752,228.31988 C345.654752,231.086687 343.368414,233.324402 340.554394,233.324402 C337.740373,233.324402 335.454035,231.086687 335.454035,228.31988 C335.454035,225.553073 337.740373,223.315357 340.554394,223.315357 Z M313.196531,223.315357 C316.010552,223.315357 318.29689,225.553073 318.29689,228.31988 C318.29689,231.086687 316.010552,233.324402 313.196531,233.324402 C310.38251,233.324402 308.096173,231.086687 308.096173,228.31988 C308.096173,225.553073 310.38251,223.315357 313.196531,223.315357 Z M326.875462,223.315357 C329.689483,223.315357 331.975821,225.553073 331.975821,228.31988 C331.975821,231.086687 329.689483,233.324402 326.875462,233.324402 C324.061441,233.324402 321.775104,231.086687 321.775104,228.31988 C321.775104,225.553073 324.061441,223.315357 326.875462,223.315357 Z M313.196531,224.622182 C311.10002,224.622182 309.405584,226.280583 309.405584,228.31988 C309.405584,230.359176 311.10002,232.017578 313.196531,232.017578 C315.293043,232.017578 316.987478,230.359176 316.987478,228.31988 C316.987478,226.280583 315.293043,224.622182 313.196531,224.622182 Z M326.875462,224.622182 C324.778951,224.622182 323.084516,226.280583 323.084516,228.31988 C323.084516,230.359176 324.778951,232.017578 326.875462,232.017578 C328.971974,232.017578 330.666409,230.359176 330.666409,228.31988 C330.666409,226.280583 328.971974,224.622182 326.875462,224.622182 Z M369.652076,220.920278 C370.396514,220.920278 371,221.51093 371,222.239537 C371,222.968143 370.396514,223.558795 369.652076,223.558795 C368.907638,223.558795 368.304152,222.968143 368.304152,222.239537 C368.304152,221.51093 368.907638,220.920278 369.652076,220.920278 Z M339.809558,197.983976 C340.301173,197.983976 340.699705,198.374033 340.699705,198.855193 C340.699705,199.336353 340.301173,199.726409 339.809558,199.726409 C339.317944,199.726409 338.919412,199.336353 338.919412,198.855193 C338.919412,198.374033 339.317944,197.983976 339.809558,197.983976 Z M336.69984,198.20178 C337.06071,198.20178 337.353253,198.494323 337.353253,198.855193 C337.353253,199.216063 337.06071,199.508605 336.69984,199.508605 L313.384589,199.508605 C313.023719,199.508605 312.731176,199.216063 312.731176,198.855193 C312.731176,198.494323 313.023719,198.20178 313.384589,198.20178 L336.69984,198.20178 Z M208.862193,164.877745 C211.875393,164.877745 214.318075,167.315601 214.318075,170.322849 C214.318075,170.724125 214.273629,171.124172 214.185548,171.515701 L210.914257,186.056905 C209.4603,192.519886 203.710522,197.11276 197.073532,197.11276 L62.6264679,197.11276 C55.9894777,197.11276 50.2397001,192.519886 48.7857428,186.056905 L45.5144517,171.515701 C44.8543535,168.581501 46.7025858,165.668804 49.642594,165.01001 C50.0348982,164.922102 50.4357368,164.877745 50.8378075,164.877745 L208.862193,164.877745 Z M208.862193,167.055786 L50.8378075,167.055786 C50.5965651,167.055786 50.3560619,167.082401 50.1206794,167.135145 C48.3566745,167.530422 47.2477351,169.27804 47.643794,171.03856 L50.9150851,185.579765 C52.1453567,191.04844 57.0105531,194.934718 62.6264679,194.934718 L197.073532,194.934718 C202.689447,194.934718 207.554643,191.04844 208.784915,185.579765 L212.056206,171.03856 C212.109055,170.803643 212.135722,170.563614 212.135722,170.322849 C212.135722,168.5185 210.670113,167.055786 208.862193,167.055786 Z M111.533067,179.770104 C112.437027,179.770104 113.169832,180.501461 113.169832,181.403635 C113.169832,182.258327 112.512134,182.959708 111.674293,183.03117 L111.533067,183.037166 L61.1058824,183.037166 C60.2019222,183.037166 59.4691176,182.305809 59.4691176,181.403635 C59.4691176,180.548944 60.1268148,179.847562 60.964656,179.7761 L61.1058824,179.770104 L111.533067,179.770104 Z M193.153435,176.421365 C194.96975,176.421365 196.442165,177.884079 196.442165,179.688427 C196.442165,181.492776 194.96975,182.95549 193.153435,182.95549 C191.33712,182.95549 189.864706,181.492776 189.864706,179.688427 C189.864706,177.884079 191.33712,176.421365 193.153435,176.421365 Z M233.511765,0 C247.975128,0 259.7,11.701709 259.7,26.1364985 L259.7,134.167359 C259.7,148.602149 247.975128,160.303858 233.511765,160.303858 L26.1882353,160.303858 C11.7248723,160.303858 0,148.602149 0,134.167359 L0,26.1364985 C0,11.701709 11.7248723,0 26.1882353,0 L233.511765,0 Z M233.511765,2.17804154 L26.1882353,2.17804154 C12.9301526,2.17804154 2.18235294,12.9046081 2.18235294,26.1364985 L2.18235294,134.167359 C2.18235294,147.399249 12.9301526,158.125816 26.1882353,158.125816 L233.511765,158.125816 C246.769847,158.125816 257.517647,147.399249 257.517647,134.167359 L257.517647,26.1364985 C257.517647,12.9046081 246.769847,2.17804154 233.511765,2.17804154 Z M128.77909,135.038576 C131.200844,135.038576 133.164063,136.98886 133.164063,139.394659 C133.164063,141.800457 131.200844,143.750742 128.77909,143.750742 C126.357337,143.750742 124.394118,141.800457 124.394118,139.394659 C124.394118,136.98886 126.357337,135.038576 128.77909,135.038576 Z M340.447059,98.0118694 C345.26818,98.0118694 349.176471,101.912439 349.176471,106.724036 C349.176471,111.535632 345.26818,115.436202 340.447059,115.436202 C335.625938,115.436202 331.717647,111.535632 331.717647,106.724036 C331.717647,101.912439 335.625938,98.0118694 340.447059,98.0118694 Z" id="Combined-Shape" fill="#C5C6C6" fill-rule="nonzero"></path>
                    <g id="smilie" transform="translate(88.237838, 229.000000)">
                        <path d="M8.34755084,6.28147073 C8.6610685,6.24685333 8.96774615,6.23178809 9.33384414,6.23700926 C9.6882615,6.24291026 10.0620413,6.26939679 10.3932027,6.3166592 C10.3932027,6.3166592 10.5015203,6.33670086 10.5015203,6.24698929 L10.5015203,5.66801116 C10.5015203,5.61492933 10.4146698,5.59828687 10.4146698,5.59828687 C10.0517638,5.52442916 9.69208489,5.48314933 9.33643983,5.47722113 C9.00138493,5.47265261 8.66752266,5.49837772 8.33415145,5.55472278 C8.33415145,5.55472278 8.2511945,5.57468286 8.2511945,5.63146302 L8.2511945,6.20413224 C8.2511945,6.31043187 8.34755084,6.28147073 8.34755084,6.28147073" id="Fill-4" fill="#C5C6C6"></path>
                        <path d="M5.62581443,6.73492823 C5.62581443,6.73492823 6.75097732,6.7337365 6.75097732,5.89277995 C6.75097732,5.05241927 5.62581443,5.05119617 5.62581443,5.05119617 C5.62581443,5.05119617 4.50065154,5.05241927 4.50065154,5.89277995 C4.50065154,6.7337365 5.62581443,6.73492823 5.62581443,6.73492823" id="Fill-6" fill="#C5C6C6"></path>
                        <path d="M11.0955151,9.28539602 C10.6778696,9.50499531 9.45820292,10.0644132 7.87617784,10.0644132 C6.29407748,10.0644132 5.07463667,9.50499531 4.65684053,9.28539602 C4.65684053,9.28539602 4.50065154,9.192847 4.50065154,9.36481818 L4.50065154,9.7083513 C4.50065154,9.81147734 4.63817313,9.92026965 4.63817313,9.92026965 C5.05039915,10.1895117 6.34104709,10.9436603 7.87617784,10.9442584 C9.41115805,10.9436603 10.7012038,10.1895117 11.1141826,9.92026965 C11.1141826,9.92026965 11.2516289,9.81147734 11.2516289,9.7083513 L11.2516289,9.36481818 C11.2516289,9.192847 11.0955151,9.28539602 11.0955151,9.28539602" id="Fill-8" fill="#C5C6C6"></path>
                        <mask id="mask-2" fill="white">
                            <use xlink:href="#path-1"></use>
                        </mask>
                        <g id="Clip-2"></g>
                        <path d="M12.7066273,11.7014339 C12.5979896,12.654117 11.9074872,13.4039574 11.0117478,13.5191169 C11.0117478,13.5191169 9.58983463,13.7535612 7.49710484,13.7535612 C5.40422869,13.7535612 3.98246189,13.5191169 3.98246189,13.5191169 C3.08679565,13.4039574 2.39640302,12.654117 2.28754579,11.7014339 C2.28754579,11.7012004 2.0712218,10.0024131 2.0712218,7.98231559 C2.0712218,5.96221812 2.28754579,4.26346971 2.28754579,4.26319728 C2.39640302,3.31074774 3.08679565,2.5609073 3.98246189,2.44598132 C3.98246189,2.44598132 5.40422869,2.21130348 7.49710484,2.21130348 C9.58983463,2.21130348 11.0117478,2.44598132 11.0117478,2.44598132 C11.9074872,2.5609073 12.5979896,3.31074774 12.7066273,4.26319728 C12.7066273,4.26346971 12.9233172,5.96221812 12.9233172,7.98231559 C12.9233172,10.0024131 12.7066273,11.7012004 12.7066273,11.7014339 M14.6952201,2.8435715 C14.5449788,1.52758537 13.5910602,0.491266722 12.3531615,0.332479728 C12.3531615,0.332479728 10.3887552,0.00840637027 7.49710484,0.00840637027 C4.60541793,0.00840637027 2.64086524,0.332479728 2.64086524,0.332479728 C1.40322265,0.491266722 0.449230887,1.52758537 0.299062807,2.8435715 C0.298953035,2.84380501 7.31813259e-06,5.19136175 7.31813259e-06,7.98231559 C7.31813259e-06,10.773503 0.298953035,13.1209429 0.299062807,13.1211764 C0.449230887,14.4372793 1.40322265,15.4734034 2.64086524,15.6324239 C2.64086524,15.6324239 4.60541793,15.9565362 7.49710484,15.9565362 C10.3887552,15.9565362 12.3531615,15.6324239 12.3531615,15.6324239 C13.5910602,15.4734034 14.5449788,14.4372793 14.6952201,13.1211764 C14.6952201,13.1209429 14.9943121,10.773503 14.9943121,7.98231559 C14.9943121,5.19136175 14.6952201,2.84380501 14.6952201,2.8435715" id="Fill-1" fill="#C5C6C6" mask="url(#mask-2)"></path>
                    </g>
                </g>
                <path d="M67.8524949,232.092593 C72.28533,232.092593 75.3657748,230.97416 77.9202899,228.513609 C81.2261331,225.381998 85.1330386,212.631869 90.6928657,191.903589 L91.6476285,195.429877 C96.7531363,214.102252 100.780261,225.77426 103.540574,228.513609 C105.869691,230.825036 108.79987,232.092593 113.533237,232.092593 C120.144923,232.092593 124.728024,229.408355 126.906875,225.680247 C131.448994,217.952896 141.525842,171.982674 144.257993,158.397838 L144.789747,155.737759 C145.780127,150.913197 146.36627,149.014921 146.36627,146.793483 C146.36627,140.604823 141.182107,135.907407 133.969358,135.907407 C127.738833,135.907407 123.29612,138.81715 121.966817,143.944252 L121.872977,144.332931 C121.271915,147.166293 117.440142,167.372639 113.232705,185.789492 L110.63961,175.334243 C108.171599,165.32489 105.772297,155.379177 103.991371,147.315418 C102.563848,140.977634 97.2294192,138.06971 90.6928657,138.06971 C84.3065778,138.06971 79.0472819,140.977634 77.5446259,147.240856 L76.9338527,149.780992 C74.3492661,160.585743 71.277994,174.06114 68.0778933,186.833362 L66.6518149,180.250422 C65.5201288,174.956941 64.4729225,169.899557 63.5864911,165.547706 L60.9402774,152.311082 C60.6564424,150.902686 59.9034911,146.767478 59.5042386,145.181728 L59.4376214,144.929429 C57.7846998,138.442521 53.5021303,135.907407 47.266108,135.907407 C40.5041561,135.907407 35.0945946,140.082888 35.0945946,145.67505 C35.0945946,148.657537 35.9961882,152.311082 37.1231802,157.604996 L39.3316104,168.240894 C43.0354821,185.852087 50.1128063,217.967206 54.5539895,225.680247 C56.8831063,229.706604 61.9170038,232.092593 67.8524949,232.092593 Z M165.063559,232.092593 C171.980036,232.092593 177.376409,227.469739 177.376409,221.355642 L177.376409,146.495234 C177.376409,140.455699 172.056042,135.907407 165.063559,135.907407 C158.071077,135.907407 152.75071,140.455699 152.75071,146.495234 L152.75071,221.355642 C152.75071,227.469739 158.147082,232.092593 165.063559,232.092593 Z M230.21639,233 C239.742759,233 250.544312,230.535061 259.170551,226.202744 C263.371155,224.11128 265.846511,221.422256 265.846511,216.417683 L265.846511,196.175305 L265.838585,195.166451 C265.612906,181.103894 260.521608,176.754573 244.61846,176.754573 L234.567015,176.754573 C227.741034,176.754573 222.56529,181.385671 222.56529,187.585366 C222.56529,193.635671 227.666023,197.967988 234.567015,197.967988 L238.017511,197.967988 C240.717899,197.967988 241.468007,199.01372 241.468007,201.777439 L241.468007,209.993902 C238.167533,211.487805 234.11695,211.86128 230.21639,211.86128 C219.039783,211.86128 210.338533,200.059451 210.338533,184.224085 C210.338533,168.314024 219.71488,156.13872 231.491573,156.13872 C237.422783,156.13872 241.122039,157.180545 246.15399,160.268813 L246.718762,160.620427 C250.097372,162.767912 252.718192,162.994586 254.64724,163.009748 L254.894937,163.010666 C259.845648,163.010666 265.396446,158.454268 265.396446,151.955793 C265.396446,146.95122 261.645907,143.515244 257.370293,141.199695 L256.360765,140.675859 C251.261549,138.076803 243.710351,135 231.491573,135 C205.387821,135 185.584975,156.28811 185.584975,184.224085 C185.584975,212.160061 204.637713,233 230.21639,233 Z M314.641877,233 C339.707854,233 357.964865,212.309451 357.964865,184.224085 C357.964865,155.765244 339.782678,135 314.641877,135 C289.950018,135 271.318888,156.28811 271.318888,184.224085 C271.318888,211.786585 290.024839,233 314.641877,233 Z M314.641877,211.222222 C304.354613,211.222222 295.944587,199.202115 295.944587,183.768891 C295.944587,168.038874 304.354613,155.87037 314.641877,155.87037 C325.229498,155.87037 333.339166,167.593685 333.339166,183.768891 C333.339166,199.647304 325.304588,211.222222 314.641877,211.222222 Z" id="Path" fill="#239A98" fill-rule="nonzero"></path>
            </g>
        </g>
    </g>
</svg>