<?xml version="1.0" encoding="UTF-8"?>
<svg width="145px" height="118px" viewBox="0 0 145 118" version="1.1" xmlns="http://www.w3.org/2000/svg" xmlns:xlink="http://www.w3.org/1999/xlink">
    <title>Group Copy 6</title>
    <g id="Voucher-Activation-(ALMOST-APPROVED)" stroke="none" stroke-width="1" fill="none" fill-rule="evenodd">
        <g id="Activate-Voucher-locked--10.0-(M)" transform="translate(-90.000000, -353.000000)">
            <g id="Group-9-Copy" transform="translate(36.000000, 324.000000)">
                <g id="Group-Copy-6" transform="translate(55.000000, 30.000000)">
                    <g id="Group-2" transform="translate(0.000000, 16.000000)" stroke="#C5C6C6">
                        <g id="Group-3" transform="translate(0.000000, 0.003013)">
                            <g id="Group-4" transform="translate(0.195449, 0.000000)">
                                <path d="M83.6220778,9.98268367 L93.9599127,9.98268367 C95.6924128,9.98268367 97.0968817,11.3825139 97.0968817,13.109292 L97.0968817,18.8860125 M54.0324761,61.3221997 C44.9435339,61.3221997 31.3101206,61.3221997 13.1322362,61.3221997 C11.3997361,61.3221997 9.99526723,59.9223694 9.99526723,58.1955913 L9.99526723,13.109292 C9.99526723,11.3825139 11.3997361,9.98268367 13.1322362,9.98268367 L68.8319166,9.98268367" id="Shape" stroke-width="1.2"></path>
                                <path d="M33.0719733,2.22044605e-16 C51.0730074,2.22044605e-16 63.22467,2.22044605e-16 69.5269611,2.22044605e-16 M83.4662738,2.22044605e-16 C86.6299812,2.22044605e-16 92.6017577,2.22044605e-16 101.381603,2.22044605e-16 M54.2991108,71.3048834 C43.9620106,71.3048834 27.0522197,71.3048834 3.5697383,71.3048834 C1.59822627,71.3048834 0,69.7086692 0,67.7396392 C0,64.6220853 0,62.2839198 0,60.7251428 M0,49.5325957 C0,42.9823919 0,31.3214889 0,14.5498868 M0,9.71976162 C0,7.73249302 0,5.6809872 0,3.56524417 C0,1.59621418 1.59822627,0 3.5697383,0 L16.962739,0" id="Shape" stroke-linecap="round"></path>
                                <path d="M54.041757,52.7656137 L54.041757,52.7656137 L28.3847986,52.7656137 C27.6917986,52.7656137 27.1300111,52.2056816 27.1300111,51.5149703 L27.1300111,40.4683292 C27.1300111,39.7776179 27.6917986,39.2176858 28.3847986,39.2176858 L54.0913296,39.2176858 L54.0913296,39.2176858" id="Path" stroke-width="0.5" stroke-linecap="round"></path>
                                <path d="M14.9929008,29.2350022 C11.4441792,29.2350022 8.56737191,32.1081877 8.56737191,35.6524417 C8.56737191,39.1966956 11.4441792,42.0698812 14.9929008,42.0698812" id="Path-Copy-5" stroke-width="1.2" fill="#FFFFFF" stroke-linecap="round" transform="translate(11.780136, 35.652442) scale(-1, -1) translate(-11.780136, -35.652442) "></path>
                                <line x1="27.1300111" y1="18.5392697" x2="48.5484408" y2="18.5392697" id="Line-2" stroke-linecap="round"></line>
                            </g>
                        </g>
                    </g>
                    <g id="Group-9" transform="translate(57.000000, 0.000000)" stroke="#D73754">
                        <path d="M17.9468678,106 L8.00930233,106 C3.61860964,106 0.0592499476,102.484606 0.0592499476,98.1481481 L0.0592499476,45.1481481 C0.0592499476,40.8116901 3.61860964,37.2962963 8.00930233,37.2962963 L61.6721559,37.2962963 C66.0628486,37.2962963 69.6222083,40.8116901 69.6222083,45.1481481 L69.6222083,98.1481481 C69.6222083,102.484606 66.0628486,106 61.6721559,106 L23.8089639,106" id="Path" stroke-linecap="round"></path>
                        <path d="M54.71586,34.3518519 L54.71586,19.6296296 C54.71586,8.78848454 45.8174608,0 34.8407291,0 C23.8639974,0 14.9655982,8.78848454 14.9655982,19.6296296 C14.9655982,21.3744856 14.9655982,22.6831276 14.9655982,23.5555556 C14.9655982,24.6578627 14.9655982,26.1083595 14.9655982,27.9070457 C14.9655982,28.6060303 14.9655982,30.754299 14.9655982,34.3518519" id="Path"></path>
                        <path d="M46.7658077,34.3518519 L46.7658077,19.6296296 C46.7658077,13.1249426 41.4267681,7.85185185 34.8407291,7.85185185 C28.2546901,7.85185185 22.9156505,13.1249426 22.9156505,19.6296296 L22.9156505,34.3518519" id="Shape"></path>
                        <path d="M10.990572,36.3148148 L10.990572,36.3148148 C10.990572,35.2307003 11.8804119,34.3518519 12.9780851,34.3518519 L12.9780851,34.3518519 L24.9031636,34.3518519 C26.0008368,34.3518519 26.8906767,35.2307003 26.8906767,36.3148148 L26.8906767,36.3148148" id="Path" stroke-width="0.5"></path>
                        <path d="M42.7907815,36.3148148 L42.7907815,36.3148148 C42.7907815,35.2307003 43.6806214,34.3518519 44.7782946,34.3518519 L44.7782946,34.3518519 L56.7033731,34.3518519 C57.8010463,34.3518519 58.6908862,35.2307003 58.6908862,36.3148148 L58.6908862,36.3148148" id="Path-Copy-38" stroke-width="0.5"></path>
                        <path d="M47.9897764,48.5430309 C44.1040814,46.3813498 39.6182212,45.1481481 34.8407291,45.1481481 C20.0221413,45.1481481 8.00930233,57.0126023 8.00930233,71.6481481 C8.00930233,86.283694 20.0221413,98.1481481 34.8407291,98.1481481 L34.8407291,98.1481481 C49.6593169,98.1481481 61.6721559,86.283694 61.6721559,71.6481481 C61.6721559,66.1849211 59.9982682,61.1078223 57.1293913,56.8898346" id="Path" stroke-width="0.5" stroke-linecap="round"></path>
                        <path d="M34.8407291,58.8888889 C39.2314218,58.8888889 42.7907815,62.4042827 42.7907815,66.7407407 C42.7907815,69.8518382 40.9587674,72.5403312 38.3020976,73.8113044 C38.313538,73.9211063 38.318877,74.032337 38.318877,74.1448146 L38.318877,80.9292595 C38.318877,82.8501875 36.7616572,84.4074074 34.8407291,84.4074074 C32.919801,84.4074074 31.3625812,82.8501875 31.3625812,80.9292595 L31.3625812,74.1448146 C31.3625812,74.032337 31.3679202,73.9211063 31.3783586,73.8113623 C28.7226908,72.5403312 26.8906767,69.8518382 26.8906767,66.7407407 C26.8906767,62.4042827 30.4500364,58.8888889 34.8407291,58.8888889 Z" id="Combined-Shape" stroke-width="0.5"></path>
                    </g>
                </g>
            </g>
        </g>
    </g>
</svg>