<svg xmlns="http://www.w3.org/2000/svg" width="32" height="49" viewBox="0 0 32 49">
  <path fill="#D73754" d="M27.3252003,16.8533333 C29.333895,16.8533333 30.9733498,18.4392143 31.0738542,20.4325325 L31.0787369,20.6266667 L31.0787369,43.6666667 C31.0787369,45.6850449 29.5020537,47.3340002 27.5183981,47.4350888 L27.3252003,47.44 L11.1630263,47.44 C10.9642038,47.44 10.8030263,47.2788225 10.8030263,47.08 C10.8030263,46.9060303 10.9264278,46.7608826 11.0904738,46.7273139 L11.1630263,46.72 L27.3252003,46.72 C28.940288,46.72 30.2612884,45.4493115 30.3535855,43.8461197 L30.3587369,43.6666667 L30.3587369,20.6266667 C30.3587369,19.000132 29.0954181,17.671353 27.5033967,17.5785148 L27.3252003,17.5733333 L4.41882791,17.5733333 C2.80374021,17.5733333 1.48273974,18.8440219 1.39044262,20.4472136 L1.38529126,20.6266667 L1.38529126,43.6666667 C1.38529126,45.2932013 2.64861003,46.6219804 4.24063144,46.7148185 L4.41882791,46.72 L8.66074871,46.72 C8.85957122,46.72 9.02074871,46.8811775 9.02074871,47.08 C9.02074871,47.2539697 8.8973472,47.3991174 8.73330127,47.4326861 L8.66074871,47.44 L4.41882791,47.44 C2.4101332,47.44 0.770678321,45.854119 0.670174007,43.8608008 L0.665291263,43.6666667 L0.665291263,20.6266667 C0.665291263,18.6082884 2.24197443,16.9593331 4.22563003,16.8582445 L4.41882791,16.8533333 L27.3252003,16.8533333 Z M15.8720141,20.3766667 C17.9093239,20.3766667 19.8714247,20.9010797 21.6080146,21.8849645 C21.7281451,21.9530257 21.7703555,22.1055852 21.7022942,22.2257156 C21.6342329,22.3458461 21.4816735,22.3880565 21.361543,22.3199952 C19.6996104,21.3784083 17.8223347,20.8766667 15.8720141,20.8766667 C9.68499178,20.8766667 4.66882791,25.9220931 4.66882791,32.1466667 C4.66882791,38.3712403 9.68499178,43.4166667 15.8720141,43.4166667 C22.0590364,43.4166667 27.0752003,38.3712403 27.0752003,32.1466667 C27.0752003,29.8788301 26.4082579,27.71164 25.1781903,25.8698233 C25.1015077,25.7550041 25.1324235,25.5997613 25.2472426,25.5230787 C25.3620617,25.4463961 25.5173046,25.4773119 25.5939872,25.592131 C26.878562,27.515563 27.5752003,29.7792484 27.5752003,32.1466667 C27.5752003,38.6467337 22.3358319,43.9166667 15.8720141,43.9166667 C9.40819626,43.9166667 4.16882791,38.6467337 4.16882791,32.1466667 C4.16882791,25.6465996 9.40819626,20.3766667 15.8720141,20.3766667 Z M15.8720141,26.35 C17.8846104,26.35 19.5155507,27.9904547 19.5155507,30.0133333 C19.5155507,31.4301513 18.708175,32.7013226 17.4629012,33.3098793 L17.6052913,33.234 L17.6066864,36.2533333 C17.6066864,37.088446 17.0009562,37.7820828 16.2048812,37.9188583 L16.062506,37.93713 L15.9166864,37.9433333 L15.8273418,37.9433333 C14.8939806,37.9433333 14.1373418,37.1866946 14.1373418,36.2533333 L14.1373418,36.2533333 L14.137,33.234 L14.0971695,33.2134117 C13.0169242,32.607161 12.3062954,31.4853424 12.2344847,30.224667 L12.2344847,30.224667 L12.2284774,30.0133333 C12.2284774,27.9904547 13.8594178,26.35 15.8720141,26.35 Z M15.8720141,26.85 C14.1362133,26.85 12.7284774,28.2659481 12.7284774,30.0133333 C12.7284774,31.2374195 13.4254669,32.3349913 14.5001953,32.8604247 L14.5001953,32.8604247 L14.646816,32.9321074 L14.6373418,33.16 L14.6373418,36.2533333 C14.6373418,36.9105522 15.1701229,37.4433333 15.8273418,37.4433333 L15.8273418,37.4433333 L15.9166864,37.4433333 C16.5739052,37.4433333 17.1066864,36.9105522 17.1066864,36.2533333 L17.1066864,36.2533333 L17.1063335,33.1373295 L17.0832346,32.938908 L17.2433671,32.8606524 C18.3183474,32.335317 19.0155507,31.2376064 19.0155507,30.0133333 C19.0155507,28.2659481 17.6078149,26.85 15.8720141,26.85 Z M15.8720141,0.64 C20.6695748,0.64 24.5741658,4.48119844 24.7120856,9.27114026 L24.7158557,9.53333333 L24.7152913,15.683 L25.2042398,15.6833333 C25.7707241,15.6833333 26.2365857,16.1139267 26.2961829,16.6665029 L26.302624,16.7866667 L25.802624,16.7866667 C25.802624,16.486484 25.5853559,16.2379301 25.3012215,16.1912212 L25.2042398,16.1833333 L20.1139349,16.1833333 C19.8167982,16.1833333 19.5698164,16.4018689 19.5233914,16.688724 L19.5155507,16.7866667 L19.0155507,16.7866667 C19.0155507,16.2182389 19.4436468,15.7497504 19.9941969,15.6898116 L20.1139349,15.6833333 L20.6022913,15.683 L20.602319,9.53333333 C20.602319,6.90399068 18.4840191,4.77333333 15.8720141,4.77333333 C13.3325647,4.77333333 11.2597734,6.78726485 11.1465778,9.31541079 L11.1417091,9.53333333 L11.1412913,15.683 L11.6300933,15.6833333 C12.1965775,15.6833333 12.6624392,16.1139267 12.7220363,16.6665029 L12.7284774,16.7866667 L12.2284774,16.7866667 C12.2284774,16.486484 12.0112093,16.2379301 11.7270749,16.1912212 L11.6300933,16.1833333 L6.53978831,16.1833333 C6.24265162,16.1833333 5.9956698,16.4018689 5.9492448,16.688724 L5.94140415,16.7866667 L5.44140415,16.7866667 C5.44140415,16.2182389 5.86950018,15.7497504 6.42005036,15.6898116 L6.53978831,15.6833333 L7.02729126,15.683 L7.02817247,9.53333333 C7.02817247,4.62214821 10.987225,0.64 15.8720141,0.64 Z M15.8720141,1.36 C11.4688884,1.36 7.88319081,4.8846002 7.75189718,9.28342725 L7.74817247,9.53333333 L7.74729126,15.683 L10.4212913,15.683 L10.4217091,9.53333333 C10.4217091,6.50728015 12.8614235,4.05333333 15.8720141,4.05333333 C18.8091756,4.05333333 21.202969,6.38903524 21.3179921,9.31296312 L21.322319,9.53333333 L21.3222913,15.683 L23.9952913,15.683 L23.9958557,9.53333333 C23.9958557,5.01885873 20.3582176,1.36 15.8720141,1.36 Z"/>
</svg>
