<svg xmlns="http://www.w3.org/2000/svg" width="32" height="49" viewBox="0 0 32 49">
  <path fill="#D73754" d="M27.4651429,17.92 C29.4798762,17.92 31.1303717,19.4481967 31.2347588,21.3772308 L31.24,21.5714286 L31.24,43.7885714 C31.24,45.7430753 29.6544959,47.3343206 27.6653583,47.4349478 L27.4651429,47.44 L11.2014272,47.44 C11.0026047,47.44 10.8414272,47.2788225 10.8414272,47.08 C10.8414272,46.9060303 10.9648287,46.7608826 11.1288746,46.7273139 L11.2014272,46.72 L27.4651429,46.72 C29.0948397,46.72 30.4220993,45.4968133 30.5148249,43.9605137 L30.52,43.7885714 L30.52,21.5714286 C30.52,20.0131838 29.2509438,18.7343455 27.6449283,18.6449875 L27.4651429,18.64 L4.41485714,18.64 C2.78516031,18.64 1.45790066,19.8631867 1.3651751,21.3994863 L1.36,21.5714286 L1.36,43.7885714 C1.36,45.3468162 2.62905619,46.6256545 4.23507167,46.7150125 L4.41485714,46.72 L8.68342857,46.72 C8.88225108,46.72 9.04342857,46.8811775 9.04342857,47.08 C9.04342857,47.2539697 8.92002706,47.3991174 8.75598113,47.4326861 L8.68342857,47.44 L4.41485714,47.44 C2.40012385,47.44 0.749628326,45.9118033 0.645241241,43.9827692 L0.64,43.7885714 L0.64,21.5714286 C0.64,19.6169247 2.22550412,18.0256794 4.21464171,17.9250522 L4.41485714,17.92 L27.4651429,17.92 Z M15.94,21.3214286 C17.9881818,21.3214286 19.9609104,21.8266773 21.7073109,22.7748262 C21.8286523,22.8407044 21.873614,22.9924758 21.8077359,23.1138171 C21.7418577,23.2351584 21.5900863,23.2801202 21.468745,23.2142421 C19.7952711,22.3056862 17.9045016,21.8214286 15.94,21.8214286 C9.71089322,21.8214286 4.66485714,26.6850778 4.66485714,32.68 C4.66485714,38.6749222 9.71089322,43.5385714 15.94,43.5385714 C22.1691068,43.5385714 27.2151429,38.6749222 27.2151429,32.68 C27.2151429,30.4968331 26.545052,28.4102862 25.3087464,26.6363866 C25.2298004,26.5231118 25.2576293,26.3672861 25.3709041,26.2883401 C25.484179,26.2093941 25.6400047,26.2372231 25.7189507,26.3504979 C27.0130862,28.2073739 27.7151429,30.3934568 27.7151429,32.68 C27.7151429,38.955267 22.4412145,44.0385714 15.94,44.0385714 C9.43878551,44.0385714 4.16485714,38.955267 4.16485714,32.68 C4.16485714,26.404733 9.43878551,21.3214286 15.94,21.3214286 Z M15.94,27.0814286 C17.9620274,27.0814286 19.6048571,28.6648789 19.6048571,30.6228571 C19.6048571,31.9957687 18.7893647,33.2254771 17.5348417,33.8122345 L17.684,33.737 L17.684,36.5885714 C17.684,37.4728084 17.0049115,38.1984357 16.1398197,38.2723681 L16.1398197,38.2723681 L15.994,38.2785714 L15.886,38.2785714 C14.9526388,38.2785714 14.196,37.5219327 14.196,36.5885714 L14.196,36.5885714 L14.196,33.737 L14.1603197,33.7194612 C13.0716087,33.1346384 12.3537593,32.049265 12.281212,30.8276574 L12.281212,30.8276574 L12.2751429,30.6228571 C12.2751429,28.6648789 13.9179726,27.0814286 15.94,27.0814286 Z M15.94,27.5814286 C14.1900803,27.5814286 12.7751429,28.9452237 12.7751429,30.6228571 C12.7751429,31.7978649 13.475058,32.8532904 14.5569903,33.3593248 L14.5569903,33.3593248 L14.7077323,33.4298289 L14.696,33.7085714 L14.696,36.5885714 C14.696,37.2457903 15.2287811,37.7785714 15.886,37.7785714 L15.886,37.7785714 L15.994,37.7785714 C16.6512189,37.7785714 17.184,37.2457903 17.184,36.5885714 L17.184,36.5885714 L17.184,33.7085714 C17.184,33.6743746 17.1825637,33.6399624 17.1797827,33.6064623 L17.1797827,33.6064623 L17.1653866,33.4330472 L17.3230097,33.3593248 C18.404942,32.8532904 19.1048571,31.7978649 19.1048571,30.6228571 C19.1048571,28.9452237 17.6899197,27.5814286 15.94,27.5814286 Z M15.94,0.64 C20.7631576,0.64 24.6944805,4.34621213 24.8333469,8.97518367 L24.8371429,9.22857143 L24.8371429,14.1393973 C24.8371429,14.3382198 24.6759654,14.4993973 24.4771429,14.4993973 C24.3031732,14.4993973 24.1580254,14.3759958 24.1244568,14.2119499 L24.1171429,14.1393973 L24.1171429,9.22857143 C24.1171429,4.88590516 20.4590163,1.36 15.94,1.36 C11.5062482,1.36 7.90120613,4.75410735 7.76674522,8.98365062 L7.76285714,9.22857143 L7.762,16.795 L10.457,16.795 L10.4577143,9.22857143 C10.4577143,6.30001448 12.9151222,3.93142857 15.94,3.93142857 C18.8911003,3.93142857 21.3020746,6.18588274 21.4179275,9.01531237 L21.4222857,9.22857143 L21.422,15.039 L23.1965714,15.04 C23.3705411,15.04 23.5156889,15.1634015 23.5492575,15.3274474 L23.5565714,15.4 C23.5565714,15.5739697 23.4331699,15.7191174 23.269124,15.7526861 L23.1965714,15.76 L20.7022857,15.76 L20.7022857,9.22857143 C20.7022857,6.70371096 18.5730427,4.65142857 15.94,4.65142857 C13.3800973,4.65142857 11.2963943,6.59127883 11.1826083,9.01929418 L11.1777143,9.22857143 L11.177,16.795 L11.6714286,16.7957143 C12.2384727,16.7957143 12.7084922,17.2123086 12.7686413,17.7513057 L12.7751429,17.8685714 L12.2751429,17.8685714 C12.2751429,17.5857203 12.0578403,17.3479869 11.7698444,17.3032688 L11.6714286,17.2957143 L6.54914286,17.2957143 C6.24724728,17.2957143 5.99975517,17.5051625 5.9532757,17.7761616 L5.94542857,17.8685714 L5.44542857,17.8685714 C5.44542857,17.3135892 5.8776452,16.859996 6.42923249,16.8019835 L6.54914286,16.7957143 L7.042,16.795 L7.04285714,9.22857143 C7.04285714,4.48220867 11.0291486,0.64 15.94,0.64 Z M25.3308571,16.7957143 C25.8979012,16.7957143 26.3679208,17.2123086 26.4280699,17.7513057 L26.4345714,17.8685714 L25.9345714,17.8685714 C25.9345714,17.5857203 25.7172689,17.3479869 25.4292729,17.3032688 L25.3308571,17.2957143 L20.2085714,17.2957143 C19.9066759,17.2957143 19.6591837,17.5051625 19.6127043,17.7761616 L19.6048571,17.8685714 L19.1048571,17.8685714 C19.1048571,17.3135892 19.5370738,16.859996 20.0886611,16.8019835 L20.2085714,16.7957143 L25.3308571,16.7957143 Z"/>
</svg>
