<?xml version="1.0" encoding="UTF-8"?>
<svg width="24px" height="24px" viewBox="0 0 24 24" version="1.1" xmlns="http://www.w3.org/2000/svg" xmlns:xlink="http://www.w3.org/1999/xlink">
    <!-- Generator: Sketch 56.3 (81716) - https://sketch.com -->
    <title>Icons / Products / Hardware / Large / ICO-Mobile-24px</title>
    <desc>Created with Sketch.</desc>
    <g id="Icons-/-Products-/-Hardware-/-Large-/-ICO-Mobile-24px" stroke="none" stroke-width="1" fill="none" fill-rule="evenodd">
        <path d="M12.0011047,18.9992776 C11.44882,18.9992776 11.0011047,18.5515624 11.0011047,17.9992776 C11.0011047,17.4469929 11.44882,16.9992776 12.0011047,16.9992776 C12.5533895,16.9992776 13.0011047,17.4469929 13.0011047,17.9992776 C13.0011047,18.5515624 12.5533895,18.9992776 12.0011047,18.9992776 Z M9,6.75 C8.58578644,6.75 8.25,6.41421356 8.25,6 C8.25,5.58578644 8.58578644,5.25 9,5.25 L15,5.25 C15.4142136,5.25 15.75,5.58578644 15.75,6 C15.75,6.41421356 15.4142136,6.75 15,6.75 L9,6.75 Z M8,3.5 C7.72385763,3.5 7.5,3.72385763 7.5,4 L7.5,20 C7.5,20.2761424 7.72385763,20.5 8,20.5 L16,20.5 C16.2761424,20.5 16.5,20.2761424 16.5,20 L16.5,4 C16.5,3.72385763 16.2761424,3.5 16,3.5 L8,3.5 Z M8,2 L16,2 C17.1045695,2 18,2.8954305 18,4 L18,20 C18,21.1045695 17.1045695,22 16,22 L8,22 C6.8954305,22 6,21.1045695 6,20 L6,4 C6,2.8954305 6.8954305,2 8,2 Z" id="Combined-Shape" fill="#575756" fill-rule="nonzero"></path>
    </g>
</svg>