<?xml version="1.0" encoding="utf-8"?>
<svg version="1.1" id="Layer_1" xmlns="http://www.w3.org/2000/svg" xmlns:xlink="http://www.w3.org/1999/xlink" x="0px" y="0px"
	 viewBox="0 0 109 109" style="enable-background:new 0 0 109 109;" xml:space="preserve">
<style type="text/css">
	.st0{fill-rule:evenodd;clip-rule:evenodd;fill:#AEAEAE;}
</style>
<path class="st0" d="M105.9,20C104.8,11.2,98,4.2,89.2,3.2c0,0-14-2.2-34.7-2.2C33.9,1,19.8,3.2,19.8,3.2C11,4.2,4.2,11.2,3.1,20
	C3.1,20,1,35.8,1,54.5C1,73.2,3.1,89,3.1,89c1.1,8.8,7.9,15.8,16.7,16.8c0,0,14,2.2,34.7,2.2c20.6,0,34.7-2.2,34.7-2.2
	c8.8-1.1,15.6-8,16.7-16.8c0,0,2.1-15.8,2.1-34.5C108,35.8,105.9,20,105.9,20"/>
</svg>
