<?xml version="1.0" encoding="UTF-8"?>
<svg width="135px" height="90px" viewBox="0 0 135 90" version="1.1" xmlns="http://www.w3.org/2000/svg" xmlns:xlink="http://www.w3.org/1999/xlink">
    <title>Artboard Copy</title>
    <g id="Artboard-Copy" stroke="none" stroke-width="1" fill="none" fill-rule="evenodd">
        <g id="Group-Copy-2" transform="translate(8.000000, 5.000000)">
            <path d="M114.168542,29.0881974 C116.328955,28.6290307 118.452575,30.0081305 118.911803,32.1685459 C119.370969,34.3289613 117.991871,36.4525782 115.831458,36.911788 C113.671045,37.3709977 111.547425,35.9918979 111.088197,33.8314641 C110.629031,31.6710486 112.008129,29.5474256 114.168542,29.0881974 Z" id="Clip-2-Copy-3" fill="#F2F2F2" fill-rule="nonzero" transform="translate(115.000000, 33.000000) scale(1, -1) translate(-115.000000, -33.000000) "></path>
            <path d="M4.3567452,36.1212714 C7.32731268,35.4899172 10.2472907,37.3861794 10.8787287,40.3567506 C11.5100822,43.3273218 9.61382228,46.247295 6.6432548,46.8787084 C3.67268732,47.5101219 0.752709325,45.6138596 0.121271275,42.6432631 C-0.510082176,39.6726919 1.38617772,36.7527103 4.3567452,36.1212714 Z" id="Clip-2-Copy-4" fill-opacity="0.26324847" fill="#C5C6C6" transform="translate(5.500000, 41.500000) scale(1, -1) translate(-5.500000, -41.500000) "></path>
            <path d="M15.1882032,66.033074 C15.998358,65.8608865 16.7947156,66.3780489 16.966926,67.1882047 C17.1391133,67.9983605 16.6219515,68.7947168 15.8117968,68.9669205 C15.001642,69.1391242 14.2052844,68.6219617 14.033074,67.811799 C13.8608867,67.0016432 14.3780485,66.2052846 15.1882032,66.033074 Z" id="Clip-2-Copy-5" fill="#F2F2F2" fill-rule="nonzero" transform="translate(15.500000, 67.500000) scale(1, -1) translate(-15.500000, -67.500000) "></path>
            <path d="M99.1882032,17.033074 C99.998358,16.8608865 100.794716,17.3780489 100.966926,18.1882047 C101.139113,18.9983605 100.621952,19.7947168 99.8117968,19.9669205 C99.001642,20.1391242 98.2052844,19.6219617 98.033074,18.811799 C97.8608867,18.0016432 98.3780485,17.2052846 99.1882032,17.033074 Z" id="Clip-2-Copy-6" fill="#C5C6C6" fill-rule="nonzero" transform="translate(99.500000, 18.500000) scale(1, -1) translate(-99.500000, -18.500000) "></path>
            <path d="M113.188203,57.033074 C113.998358,56.8608865 114.794716,57.3780489 114.966926,58.1882047 C115.139113,58.9983605 114.621952,59.7947168 113.811797,59.9669205 C113.001642,60.1391242 112.205284,59.6219617 112.033074,58.811799 C111.860887,58.0016432 112.378048,57.2052846 113.188203,57.033074 Z" id="Clip-2-Copy-7" fill="#239A98" transform="translate(113.500000, 58.500000) scale(1, -1) translate(-113.500000, -58.500000) "></path>
            <g id="Group-Copy" transform="translate(28.000000, 0.000000)">
                <path d="M0,12.5 L0,4.46428571 C0,1.9987288 1.95875422,0 4.375,0 L51.625,0 C54.0412458,0 56,1.9987288 56,4.46428571 L56,70.5357143 C56,73.0012712 54.0412458,75 51.625,75 L4.375,75 C1.95875422,75 0,73.0012712 0,70.5357143 L0,19.6428571" id="Path-Copy-2" stroke="#575756" fill="#FFFFFF" stroke-linecap="round"></path>
                <rect id="Rectangle-Copy-10" fill="#F0F0F0" fill-rule="nonzero" x="4.93043803" y="30.1660624" width="45.5384615" height="2.5"></rect>
                <rect id="Rectangle-Copy-11" fill="#F0F0F0" fill-rule="nonzero" x="4.93043803" y="36.4160624" width="45.5384615" height="2.5"></rect>
                <rect id="Rectangle-Copy-12" fill="#F0F0F0" fill-rule="nonzero" x="4.93043803" y="42.6660624" width="45.5384615" height="2.5"></rect>
                <rect id="Rectangle-Copy-13" fill="#F0F0F0" fill-rule="nonzero" x="4.93043803" y="48.9160624" width="30.7692308" height="2.5"></rect>
                <path d="M6.94669948,16.7051373 L5.91796751,16.7051373 C5.71222112,16.7051373 5.57505686,16.5713401 5.57505686,16.3706442 C5.57505686,16.1699483 5.71222112,16.0361511 5.91796751,16.0361511 L6.94669948,16.0361511 C7.28961013,12.8919157 9.96431324,10.4166667 13.2562555,10.4166667 C14.2849875,10.4166667 15.3137195,10.6842612 16.2738693,11.1525515 C16.4796157,11.2194502 16.4796157,11.4870446 16.4110335,11.6208419 C16.3424514,11.8215378 16.136705,11.8884364 15.9309586,11.7546391 C15.1079731,11.3532474 14.2164054,11.0856529 13.2562555,11.0856529 C10.375806,11.0856529 7.97543144,13.2264089 7.63252079,16.0361511 L12.1589414,16.0361511 C12.3646878,16.0361511 12.5018521,16.1699483 12.5018521,16.3706442 C12.5018521,16.5713401 12.3646878,16.7051373 12.1589414,16.7051373 L7.63252079,16.7051373 C7.63252079,17.1734277 7.70110292,17.641718 7.83826718,18.1100084 L12.2275236,18.1100084 C12.43327,18.1100084 12.5704342,18.2438057 12.5704342,18.4445015 C12.5704342,18.6451974 12.43327,18.7789947 12.2275236,18.7789947 L8.04401357,18.7789947 C8.86699914,20.852852 10.9244631,22.3246217 13.2562555,22.3246217 C14.2164054,22.3246217 15.1079731,22.1239258 15.9309586,21.6556355 C16.0681229,21.5887369 16.3424514,21.6556355 16.4110335,21.7894327 C16.4796157,21.92323 16.4110335,22.1908245 16.2738693,22.2577231 C15.3823016,22.7260135 14.3535696,22.993608 13.2562555,22.993608 C10.5129703,22.993608 8.1125957,21.2542437 7.28961013,18.7789947 L5.84938538,18.7789947 C5.64363899,18.7789947 5.50647473,18.6451974 5.50647473,18.4445015 C5.50647473,18.2438057 5.64363899,18.1100084 5.84938538,18.1100084 L7.08386374,18.1100084 C7.01528161,17.7086167 6.94669948,17.1734277 6.94669948,16.7051373 Z" id="Fill-31-Copy-2" stroke="#239A98" stroke-width="0.2" fill="#239A98"></path>
            </g>
            <g id="Tick-Copy-2" transform="translate(69.597684, 59.390411)">
                <path d="M18.3323232,3.01334723 C20.3205349,4.91815303 21.5528547,7.56872019 21.5528547,10.5 C21.5528547,16.29901 16.7281045,21 10.7764274,21 C4.82475024,21 0,16.29901 0,10.5 C0,4.70141088 4.82475024,0 10.7764274,0 C12.7961706,0 14.6863324,0.541644956 16.3017814,1.48310554" id="Fill-63" fill="#FFFFFF"></path>
                <path d="M18.3323232,3.01334723 C20.3205349,4.91815303 21.5528547,7.56872019 21.5528547,10.5 C21.5528547,16.29901 16.7281045,21 10.7764274,21 C4.82475024,21 0,16.29901 0,10.5 C0,4.70141088 4.82475024,0 10.7764274,0 C12.7961706,0 14.6863324,0.541644956 16.3017814,1.48310554" id="Stroke-65" stroke="#575756" stroke-linecap="round"></path>
            </g>
            <polyline id="Stroke-67-Copy-2" stroke="#239A98" stroke-linecap="round" stroke-linejoin="round" points="74 69.5656697 78.411291 74 85 63"></polyline>
        </g>
    </g>
</svg>