<?xml version="1.0" encoding="UTF-8"?>
<svg width="370px" height="368px" viewBox="0 0 370 368" version="1.1" xmlns="http://www.w3.org/2000/svg" xmlns:xlink="http://www.w3.org/1999/xlink">
    <!-- Generator: Sketch 60 (88103) - https://sketch.com -->
    <title>Illustration / Flow / Desktop / WIGO Proof</title>
    <desc>Created with Sketch.</desc>
    <defs>
        <polygon id="path-1" points="7.76398428e-06 0.00893176841 15.9078207 0.00893176841 15.9078207 16.9538197 7.76398428e-06 16.9538197"></polygon>
    </defs>
    <g id="Illustration-/-Flow-/-Desktop-/-WIGO-Proof" stroke="none" stroke-width="1" fill="none" fill-rule="evenodd">
        <g id="Group-4">
            <path d="M182.512637,273.939867 C183.115106,273.939867 183.603504,274.42849 183.603504,275.031238 C183.603504,275.633985 183.115106,276.122608 182.512637,276.122608 C178.238261,276.122608 174.740912,279.533709 174.514108,283.938386 L174.502422,284.382076 L168.580101,339.673955 C168.580101,344.029768 171.939567,347.581378 176.159365,347.805982 L176.58412,347.817259 L183.405284,347.817259 C184.007752,347.817259 184.49615,348.305882 184.49615,348.908629 C184.49615,349.444405 184.110256,349.890008 183.601368,349.982417 L183.405284,350 L176.58412,350 C171.111407,350 166.652345,345.626758 166.414537,340.039591 L166.404566,339.557791 L172.326886,284.265912 C172.326886,278.566579 176.883561,273.939867 182.512637,273.939867 Z M234.15086,263.781726 C234.233745,263.781726 234.314471,263.790974 234.392063,263.808495 C237.721349,264.088251 240.527326,266.630831 241.334016,270.136781 L241.334016,270.136781 L241.978892,272.939475 C242.064544,273.311727 241.948762,273.683336 241.703021,273.940025 L252.509566,273.939867 C257.982279,273.939867 262.441341,278.313109 262.679149,283.686776 L262.68912,284.149748 L268.623835,339.673955 C268.623835,345.214974 264.316793,349.742133 258.904616,349.989366 L258.438084,350 L192.500168,350 C191.8977,350 191.409302,349.511377 191.409302,348.908629 C191.409302,348.372854 191.795196,347.927251 192.304084,347.834842 L192.500168,347.817259 L258.438084,347.817259 C262.71246,347.817259 266.209809,344.406158 266.436613,340.212044 L266.448299,339.79012 L260.513584,284.265912 C260.513584,279.910099 257.154119,276.358489 252.934321,276.133885 L252.509566,276.122608 L188.441155,276.122608 C187.838686,276.122608 187.350289,275.633985 187.350289,275.031238 C187.350289,274.495462 187.736183,274.049859 188.24507,273.957451 L188.441155,273.939867 L191.483518,273.940025 C191.237777,273.683336 191.121995,273.311727 191.207647,272.939475 L191.207647,272.939475 L191.852523,270.136781 C192.708407,266.417028 195.814858,263.781726 199.408931,263.781726 C200.0114,263.781726 200.499797,264.270349 200.499797,264.873096 C200.499797,265.475844 200.0114,265.964467 199.408931,265.964467 C196.860431,265.964467 194.612559,267.871409 193.97865,270.626437 L193.97865,270.626437 L193.333774,273.429131 C193.287944,273.62831 193.19033,273.802097 193.058429,273.939538 L209.889253,273.939538 C209.757351,273.802097 209.659737,273.62831 209.613908,273.429131 L209.613908,273.429131 L208.969031,270.626437 C208.335122,267.871409 206.087251,265.964467 203.538751,265.964467 C202.936282,265.964467 202.447884,265.475844 202.447884,264.873096 C202.447884,264.270349 202.936282,263.781726 203.538751,263.781726 C207.132824,263.781726 210.239274,266.417028 211.095158,270.136781 L211.095158,270.136781 L211.740035,272.939475 C211.825687,273.311727 211.709904,273.683336 211.464163,273.940025 L220.407642,273.940025 C220.161901,273.683336 220.046119,273.311727 220.131771,272.939475 L220.131771,272.939475 L220.776647,270.136781 C221.632531,266.417028 224.738982,263.781726 228.333055,263.781726 L228.333055,263.781726 Z M217.180833,286.784459 C230.710761,286.784459 241.676426,297.817447 241.676426,311.424248 C241.676426,325.03105 230.710761,336.064037 217.180833,336.064037 C203.650904,336.064037 192.68524,325.03105 192.68524,311.424248 C192.68524,297.817447 203.650904,286.784459 217.180833,286.784459 Z M217.180833,288.9672 C204.858614,288.9672 194.866972,299.020185 194.866972,311.424248 C194.866972,323.828312 204.858614,333.881296 217.180833,333.881296 C229.503051,333.881296 239.494693,323.828312 239.494693,311.424248 C239.494693,299.020185 229.503051,288.9672 217.180833,288.9672 Z M217.579679,320.465834 C219.86906,320.465834 221.724971,322.322602 221.724971,324.613042 C221.724971,326.903482 219.86906,328.76025 217.579679,328.76025 C215.290297,328.76025 213.434386,326.903482 213.434386,324.613042 C213.434386,322.322602 215.290297,320.465834 217.579679,320.465834 Z M217.579679,321.775478 C216.01326,321.775478 214.743426,323.045899 214.743426,324.613042 C214.743426,326.180185 216.01326,327.450605 217.579679,327.450605 C219.146098,327.450605 220.415931,326.180185 220.415931,324.613042 C220.415931,323.045899 219.146098,321.775478 217.579679,321.775478 Z M211.278521,317.657395 L211.49716,317.896426 C212.881981,319.532236 212.808506,321.995099 211.277161,323.544639 C209.66487,325.175672 207.048404,325.176276 205.436838,323.545959 C203.829704,321.919717 203.830312,319.285759 205.438227,317.658745 C207.050518,316.027712 209.666983,316.027107 211.278521,317.657395 Z M230.264369,317.658795 C231.872254,319.285779 231.872863,321.919738 230.2657,323.546009 C228.654162,325.176297 226.037697,325.175693 224.425377,323.54463 C222.817491,321.917646 222.816883,319.283687 224.424067,317.657496 L224.660928,317.435656 C226.282493,316.030883 228.728823,316.105405 230.264369,317.658795 Z M206.369304,318.578998 C205.265584,319.695759 205.265165,321.509053 206.36834,322.625275 C207.467414,323.737206 209.246525,323.736795 210.346083,322.624385 C211.380816,321.577427 211.44586,319.918286 210.540948,318.795219 L210.347033,318.578094 L210.133319,318.382645 C209.028225,317.470573 207.400136,317.536119 206.369304,318.578998 Z M225.569247,318.382666 L225.355534,318.578115 L225.161619,318.79524 C224.256707,319.918306 224.321748,321.577446 225.356454,322.624377 C226.456042,323.736816 228.235152,323.737227 229.334197,322.625325 C230.437401,321.509074 230.436982,319.69578 229.333291,318.579049 C228.302432,317.536142 226.674342,317.470594 225.569247,318.382666 Z M231.323727,306.639187 C233.614167,306.639187 235.470935,308.495098 235.470935,310.784479 C235.470935,313.073861 233.614167,314.929772 231.323727,314.929772 C229.033287,314.929772 227.176519,313.073861 227.176519,310.784479 C227.176519,308.495098 229.033287,306.639187 231.323727,306.639187 Z M204.706587,306.639187 C206.997027,306.639187 208.853795,308.495098 208.853795,310.784479 C208.853795,313.073861 206.997027,314.929772 204.706587,314.929772 C202.416147,314.929772 200.559379,313.073861 200.559379,310.784479 C200.559379,308.495098 202.416147,306.639187 204.706587,306.639187 Z M231.323727,307.948227 C229.756584,307.948227 228.486164,309.21806 228.486164,310.784479 C228.486164,312.350898 229.756584,313.620732 231.323727,313.620732 C232.89087,313.620732 234.161291,312.350898 234.161291,310.784479 C234.161291,309.21806 232.89087,307.948227 231.323727,307.948227 Z M204.706587,307.948227 C203.139444,307.948227 201.869024,309.21806 201.869024,310.784479 C201.869024,312.350898 203.139444,313.620732 204.706587,313.620732 C206.27373,313.620732 207.544151,312.350898 207.544151,310.784479 C207.544151,309.21806 206.27373,307.948227 204.706587,307.948227 Z M224.425437,298.439381 C226.037734,296.80838 228.654177,296.807775 230.265721,298.438032 C230.519788,298.695168 230.517288,299.109676 230.260085,299.363913 C230.002883,299.61815 229.588376,299.615841 229.334258,299.358756 C228.235175,298.246842 226.456071,298.247253 225.356514,299.359635 C224.252811,300.476404 224.252392,302.289692 225.35554,303.405911 C226.454622,304.517825 228.233727,304.517414 229.333275,303.405041 C229.891206,302.840484 230.182633,302.081117 230.160119,301.297174 C230.14974,300.935763 230.434311,300.634232 230.795727,300.623686 C231.157143,300.613139 231.458542,300.897571 231.468922,301.258983 C231.501585,302.39633 231.076856,303.50304 230.26436,304.325286 C228.652064,305.956288 226.03562,305.956892 224.424038,304.326595 C222.816934,302.700348 222.817543,300.066411 224.425437,298.439381 Z M209.651257,297.599945 C211.259142,299.22693 211.259751,301.860888 209.652588,303.487159 C208.04105,305.117447 205.424585,305.116843 203.812265,303.485781 C202.204379,301.858796 202.20377,299.224838 203.810955,297.598646 L204.047816,297.376806 C205.669381,295.972033 208.115711,296.046555 209.651257,297.599945 Z M204.956135,298.323816 L204.742422,298.519265 L204.548506,298.736391 C203.643595,299.859457 203.708636,301.518596 204.743342,302.565527 C205.84293,303.677966 207.62204,303.678377 208.721085,302.566475 C209.824289,301.450224 209.82387,299.63693 208.720179,298.520199 C207.68932,297.477292 206.06123,297.411745 204.956135,298.323816 Z M268.079959,251.77665 C275.373519,251.77665 281.269526,257.896457 281.261212,265.291474 L281.261212,265.291474 L284.226986,289.253851 C284.226986,296.783356 278.330979,302.903163 271.037419,302.903163 C270.434951,302.903163 269.946553,302.41454 269.946553,301.811792 C269.946553,301.209045 270.434951,300.720422 271.037419,300.720422 C277.107715,300.720422 282.045253,295.595465 282.053567,289.388339 L282.053567,289.388339 L279.087793,265.425962 C279.087793,259.084348 274.150255,253.959391 268.079959,253.959391 L268.079959,253.959391 L166.585309,253.959391 C159.94283,253.959391 155.577476,258.112146 155.559031,265.625806 L155.559031,265.625806 L151.141286,289.253851 C151.141286,295.595465 156.078824,300.720422 162.149119,300.720422 L162.149119,300.720422 L167.605706,300.720422 C168.208175,300.720422 168.696572,301.209045 168.696572,301.811792 C168.696572,302.41454 168.208175,302.903163 167.605706,302.903163 L167.605706,302.903163 L162.149119,302.903163 C154.85556,302.903163 148.959553,296.783356 148.977954,289.054007 L148.977954,289.054007 L153.395743,265.425962 C153.395743,256.881367 158.761794,251.77665 166.585309,251.77665 L166.585309,251.77665 Z M217.579679,293.685279 C219.86906,293.685279 221.724971,295.542048 221.724971,297.832487 C221.724971,300.122927 219.86906,301.979695 217.579679,301.979695 C215.290297,301.979695 213.434386,300.122927 213.434386,297.832487 C213.434386,295.542048 215.290297,293.685279 217.579679,293.685279 Z M217.579679,294.994924 C216.01326,294.994924 214.743426,296.265344 214.743426,297.832487 C214.743426,299.39963 216.01326,300.670051 217.579679,300.670051 C219.146098,300.670051 220.415931,299.39963 220.415931,297.832487 C220.415931,296.265344 219.146098,294.994924 217.579679,294.994924 Z M94.416233,285.390863 C95.7701506,285.390863 96.8628905,286.503985 96.8628905,287.871251 C96.8628905,289.238516 95.7701506,290.351638 94.416233,290.351638 C93.0623153,290.351638 91.9695755,289.238516 91.9695755,287.871251 C91.9695755,286.503985 93.0623153,285.390863 94.416233,285.390863 Z M94.416233,286.700508 C93.79061,286.700508 93.2786151,287.222052 93.2786151,287.871251 C93.2786151,288.520449 93.79061,289.041994 94.416233,289.041994 C95.0418559,289.041994 95.5538508,288.520449 95.5538508,287.871251 C95.5538508,287.222052 95.0418559,286.700508 94.416233,286.700508 Z M94.416233,278.088602 C95.7734802,278.088602 96.8628905,279.22306 96.8628905,280.609668 C96.8628905,281.996276 95.7734802,283.130734 94.416233,283.130734 C93.0589857,283.130734 91.9695755,281.996276 91.9695755,280.609668 C91.9695755,279.22306 93.0589857,278.088602 94.416233,278.088602 Z M94.416233,279.398246 C93.7939396,279.398246 93.2786151,279.93488 93.2786151,280.609668 C93.2786151,281.284456 93.7939396,281.821089 94.416233,281.821089 C95.0385263,281.821089 95.5538508,281.284456 95.5538508,280.609668 C95.5538508,279.93488 95.0385263,279.398246 94.416233,279.398246 Z M326.293432,266.401399 C327.066606,266.401399 327.816616,266.571223 328.499435,266.893946 C328.82628,267.048423 328.966069,267.438735 328.811663,267.76573 C328.657257,268.092726 328.267126,268.23258 327.940281,268.078102 C327.431531,267.837651 326.872385,267.711043 326.293432,267.711043 C324.197517,267.711043 322.503563,269.373023 322.503563,271.41672 C322.503563,273.460417 324.197517,275.122396 326.293432,275.122396 C328.389348,275.122396 330.083302,273.460417 330.083302,271.41672 C330.083302,270.656182 329.849178,269.931331 329.417685,269.318464 C329.20952,269.0228 329.280342,268.614289 329.575869,268.406028 C329.871396,268.197768 330.279719,268.268622 330.487883,268.564286 C331.073318,269.395801 331.392341,270.383503 331.392341,271.41672 C331.392341,274.189497 329.106653,276.432041 326.293432,276.432041 C323.480211,276.432041 321.194523,274.189497 321.194523,271.41672 C321.194523,268.643943 323.480211,266.401399 326.293432,266.401399 Z M94.416233,269.873558 C95.7701506,269.873558 96.8628905,270.98668 96.8628905,272.353946 C96.8628905,273.721211 95.7701506,274.834333 94.416233,274.834333 C93.0623153,274.834333 91.9695755,273.721211 91.9695755,272.353946 C91.9695755,270.98668 93.0623153,269.873558 94.416233,269.873558 Z M233.777608,265.964467 L228.333055,265.964467 C225.784555,265.964467 223.536683,267.871409 222.902774,270.626437 L222.902774,270.626437 L222.257898,273.429131 C222.212069,273.62831 222.114454,273.802097 221.982553,273.939538 L240.12811,273.939538 C239.996208,273.802097 239.898594,273.62831 239.852765,273.429131 L239.852765,273.429131 L239.207888,270.626437 C238.57398,267.871409 236.326108,265.964467 233.777608,265.964467 L233.777608,265.964467 Z M94.416233,271.183203 C93.79061,271.183203 93.2786151,271.704747 93.2786151,272.353946 C93.2786151,273.003144 93.79061,273.524689 94.416233,273.524689 C95.0418559,273.524689 95.5538508,273.003144 95.5538508,272.353946 C95.5538508,271.704747 95.0418559,271.183203 94.416233,271.183203 Z M94.416233,262.571297 C95.7701506,262.571297 96.8628905,263.684419 96.8628905,265.051684 C96.8628905,266.41895 95.7701506,267.532072 94.416233,267.532072 C93.0623153,267.532072 91.9695755,266.41895 91.9695755,265.051684 C91.9695755,263.684419 93.0623153,262.571297 94.416233,262.571297 Z M94.416233,263.880941 C93.79061,263.880941 93.2786151,264.402486 93.2786151,265.051684 C93.2786151,265.700882 93.79061,266.222427 94.416233,266.222427 C95.0418559,266.222427 95.5538508,265.700882 95.5538508,265.051684 C95.5538508,264.402486 95.0418559,263.880941 94.416233,263.880941 Z M326.293432,255.667863 C329.106653,255.667863 331.392341,257.910407 331.392341,260.683184 C331.392341,263.455961 329.106653,265.698505 326.293432,265.698505 C323.480211,265.698505 321.194523,263.455961 321.194523,260.683184 C321.194523,257.910407 323.480211,255.667863 326.293432,255.667863 Z M326.293432,256.977508 C324.197517,256.977508 322.503563,258.639487 322.503563,260.683184 C322.503563,262.726881 324.197517,264.388861 326.293432,264.388861 C328.389348,264.388861 330.083302,262.726881 330.083302,260.683184 C330.083302,258.639487 328.389348,256.977508 326.293432,256.977508 Z M94.416233,255.269036 C95.7701506,255.269036 96.8628905,256.382158 96.8628905,257.749423 C96.8628905,259.116689 95.7701506,260.229811 94.416233,260.229811 C93.0623153,260.229811 91.9695755,259.116689 91.9695755,257.749423 C91.9695755,256.382158 93.0623153,255.269036 94.416233,255.269036 Z M94.416233,256.57868 C93.79061,256.57868 93.2786151,257.100225 93.2786151,257.749423 C93.2786151,258.398621 93.79061,258.920166 94.416233,258.920166 C95.0418559,258.920166 95.5538508,258.398621 95.5538508,257.749423 C95.5538508,257.100225 95.0418559,256.57868 94.416233,256.57868 Z M312.618388,244.934328 C315.431609,244.934328 317.717297,247.176872 317.717297,249.949649 C317.717297,252.722426 315.431609,254.96497 312.618388,254.96497 C309.805167,254.96497 307.519479,252.722426 307.519479,249.949649 C307.519479,247.176872 309.805167,244.934328 312.618388,244.934328 Z M339.968476,244.934328 C342.781698,244.934328 345.067385,247.176872 345.067385,249.949649 C345.067385,252.722426 342.781698,254.96497 339.968476,254.96497 C337.155255,254.96497 334.869567,252.722426 334.869567,249.949649 C334.869567,247.176872 337.155255,244.934328 339.968476,244.934328 Z M326.293432,244.934328 C327.066606,244.934328 327.816616,245.104152 328.499435,245.426875 C328.82628,245.581352 328.966069,245.971663 328.811663,246.298659 C328.657257,246.625655 328.267126,246.765509 327.940281,246.611031 C327.431531,246.37058 326.872385,246.243972 326.293432,246.243972 C324.197517,246.243972 322.503563,247.905952 322.503563,249.949649 C322.503563,251.993346 324.197517,253.655325 326.293432,253.655325 C328.389348,253.655325 330.083302,251.993346 330.083302,249.949649 C330.083302,249.189111 329.849178,248.46426 329.417685,247.851393 C329.20952,247.555729 329.280342,247.147218 329.575869,246.938957 C329.871396,246.730696 330.279719,246.801551 330.487883,247.097215 C331.073318,247.92873 331.392341,248.916432 331.392341,249.949649 C331.392341,252.722426 329.106653,254.96497 326.293432,254.96497 C323.480211,254.96497 321.194523,252.722426 321.194523,249.949649 C321.194523,247.176872 323.480211,244.934328 326.293432,244.934328 Z M339.968476,246.243972 C337.872561,246.243972 336.178607,247.905952 336.178607,249.949649 C336.178607,251.993346 337.872561,253.655325 339.968476,253.655325 C342.064392,253.655325 343.758346,251.993346 343.758346,249.949649 C343.758346,247.905952 342.064392,246.243972 339.968476,246.243972 Z M312.618388,246.243972 C310.522472,246.243972 308.828519,247.905952 308.828519,249.949649 C308.828519,251.993346 310.522472,253.655325 312.618388,253.655325 C314.714304,253.655325 316.408258,251.993346 316.408258,249.949649 C316.408258,247.905952 314.714304,246.243972 312.618388,246.243972 Z M339.968476,234.200792 C342.781698,234.200792 345.067385,236.443336 345.067385,239.216113 C345.067385,241.98889 342.781698,244.231434 339.968476,244.231434 C337.155255,244.231434 334.869567,241.98889 334.869567,239.216113 C334.869567,236.443336 337.155255,234.200792 339.968476,234.200792 Z M312.618388,234.200792 C313.391562,234.200792 314.141572,234.370617 314.824391,234.693339 C315.151236,234.847817 315.291025,235.238128 315.136619,235.565124 C314.982213,235.89212 314.592082,236.031973 314.265237,235.877496 C313.756487,235.637044 313.197341,235.510437 312.618388,235.510437 C310.522472,235.510437 308.828519,237.172416 308.828519,239.216113 C308.828519,241.25981 310.522472,242.92179 312.618388,242.92179 C314.714304,242.92179 316.408258,241.25981 316.408258,239.216113 C316.408258,238.455575 316.174134,237.730724 315.74264,237.117857 C315.534476,236.822193 315.605298,236.413682 315.900825,236.205421 C316.196352,235.997161 316.604675,236.068015 316.812839,236.363679 C317.398274,237.195194 317.717297,238.182897 317.717297,239.216113 C317.717297,241.98889 315.431609,244.231434 312.618388,244.231434 C309.805167,244.231434 307.519479,241.98889 307.519479,239.216113 C307.519479,236.443336 309.805167,234.200792 312.618388,234.200792 Z M326.293432,234.200792 C329.106653,234.200792 331.392341,236.443336 331.392341,239.216113 C331.392341,241.98889 329.106653,244.231434 326.293432,244.231434 C323.480211,244.231434 321.194523,241.98889 321.194523,239.216113 C321.194523,238.408684 321.389183,237.627415 321.75691,236.924376 C322.624845,235.265015 324.363949,234.200792 326.293432,234.200792 Z M339.968476,235.510437 C337.872561,235.510437 336.178607,237.172416 336.178607,239.216113 C336.178607,241.25981 337.872561,242.92179 339.968476,242.92179 C342.064392,242.92179 343.758346,241.25981 343.758346,239.216113 C343.758346,237.172416 342.064392,235.510437 339.968476,235.510437 Z M326.293432,235.510437 C324.85342,235.510437 323.559887,236.301998 322.916744,237.531592 C322.646362,238.04852 322.503563,238.621649 322.503563,239.216113 C322.503563,241.25981 324.197517,242.92179 326.293432,242.92179 C328.389348,242.92179 330.083302,241.25981 330.083302,239.216113 C330.083302,237.172416 328.389348,235.510437 326.293432,235.510437 Z M326.293432,223.467256 C329.106653,223.467256 331.392341,225.709801 331.392341,228.482578 C331.392341,231.255355 329.106653,233.497899 326.293432,233.497899 C323.480211,233.497899 321.194523,231.255355 321.194523,228.482578 C321.194523,225.709801 323.480211,223.467256 326.293432,223.467256 Z M312.618388,223.467256 C315.431609,223.467256 317.717297,225.709801 317.717297,228.482578 C317.717297,231.255355 315.431609,233.497899 312.618388,233.497899 C309.805167,233.497899 307.519479,231.255355 307.519479,228.482578 C307.519479,225.709801 309.805167,223.467256 312.618388,223.467256 Z M339.968476,223.467256 C340.74165,223.467256 341.49166,223.637081 342.174479,223.959804 C342.501324,224.114281 342.641113,224.504592 342.486707,224.831588 C342.332301,225.158584 341.94217,225.298438 341.615325,225.14396 C341.106575,224.903509 340.547429,224.776901 339.968476,224.776901 C337.872561,224.776901 336.178607,226.438881 336.178607,228.482578 C336.178607,230.526275 337.872561,232.188254 339.968476,232.188254 C342.064392,232.188254 343.758346,230.526275 343.758346,228.482578 C343.758346,227.72204 343.524222,226.997189 343.092729,226.384322 C342.884564,226.088658 342.955386,225.680147 343.250913,225.471886 C343.54644,225.263625 343.954763,225.33448 344.162928,225.630144 C344.748362,226.461659 345.067385,227.449361 345.067385,228.482578 C345.067385,231.255355 342.781698,233.497899 339.968476,233.497899 C337.155255,233.497899 334.869567,231.255355 334.869567,228.482578 C334.869567,225.709801 337.155255,223.467256 339.968476,223.467256 Z M326.293432,224.776901 C324.197517,224.776901 322.503563,226.438881 322.503563,228.482578 C322.503563,230.526275 324.197517,232.188254 326.293432,232.188254 C328.389348,232.188254 330.083302,230.526275 330.083302,228.482578 C330.083302,226.438881 328.389348,224.776901 326.293432,224.776901 Z M312.618388,224.776901 C310.522472,224.776901 308.828519,226.438881 308.828519,228.482578 C308.828519,230.526275 310.522472,232.188254 312.618388,232.188254 C314.714304,232.188254 316.408258,230.526275 316.408258,228.482578 C316.408258,226.438881 314.714304,224.776901 312.618388,224.776901 Z M208.313698,164.903553 C211.326042,164.903553 213.76803,167.34667 213.76803,170.360406 C213.76803,170.762548 213.723597,171.163458 213.635541,171.555832 L210.365179,186.128412 C208.911635,192.605338 203.163491,197.208122 196.528387,197.208122 L62.1195281,197.208122 C55.4844239,197.208122 49.7362802,192.605338 48.2827361,186.128412 L45.0123746,171.555832 C44.352464,168.615301 46.2001711,165.696319 49.1393438,165.036103 C49.5315365,164.948007 49.9322612,164.903553 50.3342177,164.903553 L208.313698,164.903553 Z M208.313698,167.086294 L50.3342177,167.086294 C50.0930438,167.086294 49.852609,167.112966 49.6172934,167.165824 C47.8537897,167.561954 46.7451654,169.313343 47.1411118,171.077662 L50.4114733,185.650242 C51.6413953,191.130717 56.5052092,195.025381 62.1195281,195.025381 L196.528387,195.025381 C202.142706,195.025381 207.00652,191.130717 208.236442,185.650242 L211.506803,171.077662 C211.559637,170.842237 211.586297,170.601691 211.586297,170.360406 C211.586297,168.552164 210.121104,167.086294 208.313698,167.086294 Z M111.012229,179.828046 C111.915933,179.828046 112.648529,180.560981 112.648529,181.465102 C112.648529,182.369222 111.915933,183.102157 111.012229,183.102157 L111.012229,183.102157 L60.5993747,183.102157 C59.6956714,183.102157 58.9630751,182.369222 58.9630751,181.465102 C58.9630751,180.560981 59.6956714,179.828046 60.5993747,179.828046 L60.5993747,179.828046 Z M192.609404,176.472081 C194.425203,176.472081 195.897199,177.937951 195.897199,179.746193 C195.897199,181.554435 194.425203,183.020305 192.609404,183.020305 C190.793605,183.020305 189.321609,181.554435 189.321609,179.746193 C189.321609,177.937951 190.793605,176.472081 192.609404,176.472081 Z M128.253352,135 C130.674417,135 132.637079,136.954493 132.637079,139.365482 C132.637079,141.776471 130.674417,143.730964 128.253352,143.730964 C125.832287,143.730964 123.869626,141.776471 123.869626,139.365482 C123.869626,136.954493 125.832287,135 128.253352,135 Z" id="Combined-Shape" fill="#8C8D8E" fill-rule="nonzero"></path>
            <path d="M74.8886276,310.769231 C75.4227918,310.769231 75.867055,311.155226 75.9591856,311.664246 L75.9767162,311.860382 L75.9767162,356.169096 C75.9767162,358.677255 76.9686163,360.605265 77.9034881,360.801266 L78.0585922,360.817698 L111.34322,360.817698 C112.319924,360.817698 113.425097,358.816597 113.425097,356.169096 C113.425097,355.56647 113.91225,355.077945 114.513185,355.077945 C115.11412,355.077945 115.601274,355.56647 115.601274,356.169096 C115.601274,359.719533 113.998731,362.757761 111.630971,362.986219 L111.34322,363 L78.0585922,363 C75.6309549,363 73.9350414,360.098327 73.8081777,356.592542 L73.8005391,356.169096 L73.8005391,311.860382 C73.8005391,311.257756 74.2876929,310.769231 74.8886276,310.769231 Z M100.026231,343.797905 C102.403865,343.797905 104.331318,345.719949 104.331318,348.090909 C104.331318,350.46187 102.403865,352.383913 100.026231,352.383913 L89.4009706,352.383913 C87.0233368,352.383913 85.0958838,350.46187 85.0958838,348.090909 C85.0958838,345.719949 87.0233368,343.797905 89.4009706,343.797905 L100.026231,343.797905 Z M100.026231,345.103611 L89.4009706,345.103611 C87.7464881,345.103611 86.405265,346.44107 86.405265,348.090909 C86.405265,349.740748 87.7464881,351.078207 89.4009706,351.078207 L100.026231,351.078207 C101.680713,351.078207 103.021936,349.740748 103.021936,348.090909 C103.021936,346.44107 101.680713,345.103611 100.026231,345.103611 Z M94.7136007,330.096837 C97.5422862,330.096837 99.8353889,332.396393 99.8353889,335.23304 L99.8353889,335.396005 C99.8353889,338.232652 97.5422862,340.532208 94.7136007,340.532208 C91.8849152,340.532208 89.5918125,338.232652 89.5918125,335.396005 L89.5918125,335.23304 C89.5918125,332.396393 91.8849152,330.096837 94.7136007,330.096837 Z M94.7136007,331.406218 C92.6060369,331.406218 90.8975188,333.119545 90.8975188,335.23304 L90.8975188,335.396005 C90.8975188,337.5095 92.6060369,339.222827 94.7136007,339.222827 C96.8211646,339.222827 98.5296827,337.5095 98.5296827,335.396005 L98.5296827,335.23304 C98.5296827,333.119545 96.8211646,331.406218 94.7136007,331.406218 Z M324.636309,287.427769 C324.99687,287.427769 325.289162,287.720884 325.289162,288.082459 C325.289162,288.444035 324.99687,288.73715 324.636309,288.73715 L324.636309,288.73715 L316.452176,288.73715 C316.091615,288.73715 315.799323,288.444035 315.799323,288.082459 C315.799323,287.720884 316.091615,287.427769 316.452176,287.427769 L316.452176,287.427769 Z M346.460662,287.427769 C346.821223,287.427769 347.113516,287.720884 347.113516,288.082459 C347.113516,288.444035 346.821223,288.73715 346.460662,288.73715 L346.460662,288.73715 L338.27653,288.73715 C337.915969,288.73715 337.623677,288.444035 337.623677,288.082459 C337.623677,287.720884 337.915969,287.427769 338.27653,287.427769 L338.27653,287.427769 Z M335.548486,287.427769 C335.909046,287.427769 336.201339,287.720884 336.201339,288.082459 C336.201339,288.444035 335.909046,288.73715 335.548486,288.73715 L335.548486,288.73715 L327.364353,288.73715 C327.003792,288.73715 326.7115,288.444035 326.7115,288.082459 C326.7115,287.720884 327.003792,287.427769 327.364353,287.427769 L327.364353,287.427769 Z M313.724132,287.427769 C314.084693,287.427769 314.376985,287.720884 314.376985,288.082459 C314.376985,288.444035 314.084693,288.73715 313.724132,288.73715 L313.724132,288.73715 L305.54,288.73715 C305.179439,288.73715 304.887146,288.444035 304.887146,288.082459 C304.887146,287.720884 305.179439,287.427769 305.54,287.427769 L305.54,287.427769 Z M339.640552,256.575061 C340.411757,256.575061 341.159857,256.744852 341.840938,257.067509 C342.16695,257.221956 342.306383,257.612189 342.15237,257.939119 C341.998357,258.266049 341.60922,258.405874 341.283207,258.251428 C340.775753,258.011024 340.218031,257.884443 339.640552,257.884443 C337.549974,257.884443 335.860333,259.546088 335.860333,261.589374 C335.860333,263.63266 337.549974,265.294305 339.640552,265.294305 C341.73113,265.294305 343.420771,263.63266 343.420771,261.589374 C343.420771,260.828989 343.187243,260.104283 342.756849,259.49154 C342.549214,259.195935 342.619856,258.787506 342.91463,258.579288 C343.209405,258.371069 343.616688,258.441909 343.824322,258.737513 C344.408266,259.568861 344.726477,260.556365 344.726477,261.589374 C344.726477,264.361593 342.446609,266.603686 339.640552,266.603686 C336.834494,266.603686 334.554627,264.361593 334.554627,261.589374 C334.554627,258.817154 336.834494,256.575061 339.640552,256.575061 Z M312.36011,256.575061 C315.166167,256.575061 317.446035,258.817154 317.446035,261.589374 C317.446035,264.361593 315.166167,266.603686 312.36011,266.603686 C309.554053,266.603686 307.274185,264.361593 307.274185,261.589374 C307.274185,258.817154 309.554053,256.575061 312.36011,256.575061 Z M312.36011,257.884443 C310.269532,257.884443 308.579891,259.546088 308.579891,261.589374 C308.579891,263.63266 310.269532,265.294305 312.36011,265.294305 C314.450688,265.294305 316.140329,263.63266 316.140329,261.589374 C316.140329,259.546088 314.450688,257.884443 312.36011,257.884443 Z M312.223675,259.449767 C312.437918,259.449767 312.616104,259.604165 312.653056,259.807773 L312.660087,259.886228 L312.660083,260.528767 L313.120401,260.078669 C313.270992,259.930989 313.501375,259.914582 313.669683,260.028061 L313.7376,260.084642 C313.88525,260.23523 313.90163,260.465613 313.788122,260.633923 L313.731528,260.701842 L313.269083,261.154767 L313.897759,261.154918 C314.112026,261.154918 314.290232,261.309298 314.327187,261.512884 L314.334219,261.591329 C314.334219,261.805573 314.179821,261.983758 313.976213,262.02071 L313.897759,262.027741 L313.330083,262.026767 L313.761206,262.449993 C313.911796,262.597673 313.932697,262.827693 313.822524,262.998184 L313.767278,263.067193 C313.619602,263.217754 313.389583,263.238627 313.21909,263.128425 L313.150079,263.073166 L312.660083,262.593767 L312.660087,263.239783 C312.660087,263.45405 312.505706,263.632255 312.302121,263.669211 L312.223675,263.676243 C312.009432,263.676243 311.831246,263.521845 311.794295,263.318237 L311.787263,263.239783 L311.787083,262.607767 L311.313471,263.073166 C311.16288,263.220846 310.932497,263.237254 310.764189,263.123775 L310.696271,263.067193 C310.548621,262.916606 310.532241,262.686223 310.645749,262.517912 L310.702344,262.449993 L311.133083,262.026767 L310.478106,262.027741 C310.263839,262.027741 310.085633,261.87336 310.048677,261.669775 L310.041646,261.591329 C310.041646,261.377086 310.196044,261.198901 310.399652,261.161949 L310.478106,261.154918 L311.193083,261.154767 L310.732022,260.701842 C310.581432,260.554162 310.560531,260.324142 310.670704,260.153652 L310.72595,260.084642 C310.873626,259.934082 311.103645,259.913209 311.274138,260.023411 L311.343149,260.078669 L311.787083,260.513767 L311.787263,259.886228 C311.787263,259.67196 311.941644,259.493755 312.14523,259.456799 L312.223675,259.449767 Z M340.188202,259.455698 C340.402469,259.455698 340.580674,259.609663 340.61763,259.8127 L340.624662,259.890934 L340.625127,260.543698 L341.388468,260.543787 C341.602735,260.543787 341.78094,260.698168 341.817896,260.901753 L341.824928,260.980199 C341.824928,261.194442 341.67053,261.372627 341.466922,261.409579 L341.388468,261.41661 L340.625127,261.415698 L340.625127,261.957698 L341.395666,261.958302 C341.609933,261.958302 341.788139,262.112683 341.825095,262.316268 L341.832127,262.394714 C341.832127,262.608957 341.677728,262.787142 341.47412,262.824094 L341.395666,262.831125 L340.625127,262.830698 L340.624662,263.235077 C340.624662,263.448742 340.470264,263.626448 340.266656,263.6633 L340.188202,263.670312 C339.973934,263.670312 339.795729,263.516347 339.758773,263.313311 L339.751741,263.235077 L339.752127,262.830698 L339.316127,262.830698 L339.315281,263.235077 C339.315281,263.448742 339.160883,263.626448 338.957275,263.6633 L338.87882,263.670312 C338.664553,263.670312 338.486348,263.516347 338.449392,263.313311 L338.44236,263.235077 L338.443127,262.830698 L337.685753,262.831125 C337.471486,262.831125 337.29328,262.676745 337.256324,262.473159 L337.249292,262.394714 C337.249292,262.18047 337.40369,262.002285 337.607298,261.965333 L337.685753,261.958302 L338.443127,261.957698 L338.443127,261.415698 L337.678554,261.41661 C337.437504,261.41661 337.242094,261.221222 337.242094,260.980199 C337.242094,260.765955 337.396492,260.58777 337.6001,260.550818 L337.678554,260.543787 L338.443127,260.543698 L338.44236,259.890934 C338.44236,259.677268 338.596758,259.499563 338.800366,259.462711 L338.87882,259.455698 C339.093087,259.455698 339.271293,259.609663 339.308249,259.8127 L339.315281,259.890934 L339.316127,260.543698 L339.752127,260.543698 L339.751741,259.890934 C339.751741,259.677268 339.906139,259.499563 340.109747,259.462711 L340.188202,259.455698 Z M339.752127,261.415698 L339.316127,261.415698 L339.316127,261.957698 L339.752127,261.957698 L339.752127,261.415698 Z M111.34322,221.150366 C114.377015,221.150366 115.391475,222.771942 115.57075,226.560962 L115.58833,227.026083 L115.601274,227.98127 L115.601274,243.129727 C115.601274,243.732353 115.11412,244.220878 114.513185,244.220878 C113.979021,244.220878 113.534758,243.834883 113.442627,243.325863 L113.425097,243.129727 L113.42297,227.529885 L113.40479,226.711505 C113.310659,224.165658 112.863953,223.404339 111.547307,223.337605 L111.34322,223.332668 L77.8505236,223.336449 C76.3765223,223.393026 76.030338,224.108818 75.9828767,227.106058 L75.9767162,227.98127 L75.9767162,238.982464 C75.9767162,239.58509 75.4895623,240.073615 74.8886276,240.073615 C74.3544634,240.073615 73.9102002,239.68762 73.8180696,239.1786 L73.8005391,238.982464 L73.8005391,227.98127 L73.8104112,227.020137 C73.9021701,222.883539 74.6722241,221.266677 77.7114782,221.156463 L78.0585922,221.150366 L111.34322,221.150366 Z M279.944672,239.184 C280.687004,239.184 281.288782,239.775807 281.288782,240.505839 C281.288782,241.235871 280.687004,241.827678 279.944672,241.827678 C279.202341,241.827678 278.600563,241.235871 278.600563,240.505839 C278.600563,239.775807 279.202341,239.184 279.944672,239.184 Z M368.655891,221.981168 C369.398222,221.981168 370,222.572976 370,223.303007 C370,224.033039 369.398222,224.624847 368.655891,224.624847 C367.91356,224.624847 367.311781,224.033039 367.311781,223.303007 C367.311781,222.572976 367.91356,221.981168 368.655891,221.981168 Z M338.897825,199 C339.388048,199 339.785452,199.39082 339.785452,199.872921 C339.785452,200.355022 339.388048,200.745842 338.897825,200.745842 C338.407602,200.745842 338.010197,200.355022 338.010197,199.872921 C338.010197,199.39082 338.407602,199 338.897825,199 Z M335.793779,199.21823 C336.155355,199.21823 336.44847,199.511345 336.44847,199.872921 C336.44847,200.234496 336.155355,200.527611 335.793779,200.527611 L312.550763,200.527611 C312.189187,200.527611 311.896072,200.234496 311.896072,199.872921 C311.896072,199.511345 312.189187,199.21823 312.550763,199.21823 L335.793779,199.21823 Z" id="Combined-Shape" fill="#C5C6C6" fill-rule="nonzero"></path>
            <g id="smilie" transform="translate(87.762803, 229.000000)">
                <path d="M8.85611863,6.67406265 C9.1887371,6.63728166 9.51409884,6.62127485 9.90250105,6.62682234 C10.278511,6.63309215 10.6750631,6.66123409 11.0264002,6.7114504 C11.0264002,6.7114504 11.1413169,6.73274466 11.1413169,6.63742612 L11.1413169,6.02226186 C11.1413169,5.96586241 11.0491751,5.9481798 11.0491751,5.9481798 C10.6641594,5.86970598 10.2825673,5.82584616 9.90525488,5.81954745 C9.54978704,5.8146934 9.19558447,5.84202633 8.84190289,5.90189296 C8.84190289,5.90189296 8.75389185,5.92310054 8.75389185,5.98342945 L8.75389185,6.59189051 C8.75389185,6.70483387 8.85611863,6.67406265 8.85611863,6.67406265" id="Fill-4" fill="#C5C6C6"></path>
                <path d="M5.96856263,7.15586124 C5.96856263,7.15586124 7.16227515,7.15459503 7.16227515,6.26107869 C7.16227515,5.36819547 5.96856263,5.36689593 5.96856263,5.36689593 C5.96856263,5.36689593 4.7748501,5.36819547 4.7748501,6.26107869 C4.7748501,7.15459503 5.96856263,7.15586124 5.96856263,7.15586124" id="Fill-6" fill="#C5C6C6"></path>
                <path d="M11.7715004,9.86573327 C11.3284101,10.0990575 10.0344363,10.693439 8.35602761,10.693439 C6.67753907,10.693439 5.3838048,10.0990575 4.94055478,9.86573327 C4.94055478,9.86573327 4.7748501,9.76739994 4.7748501,9.95011932 L4.7748501,10.3151233 C4.7748501,10.4246947 4.92075007,10.5402865 4.92075007,10.5402865 C5.35809063,10.8263562 6.72737025,11.627639 8.35602761,11.6282745 C9.98452524,11.627639 11.353166,10.8263562 11.7913051,10.5402865 C11.7913051,10.5402865 11.9371253,10.4246947 11.9371253,10.3151233 L11.9371253,9.95011932 C11.9371253,9.76739994 11.7715004,9.86573327 11.7715004,9.86573327" id="Fill-8" fill="#C5C6C6"></path>
                <mask id="mask-2" fill="white">
                    <use xlink:href="#path-1"></use>
                </mask>
                <g id="Clip-2"></g>
                <path d="M13.4807683,12.4327735 C13.365512,13.4449993 12.6329413,14.2417047 11.6826296,14.3640617 C11.6826296,14.3640617 10.1740876,14.6131588 7.9538599,14.6131588 C5.73347696,14.6131588 4.22509017,14.3640617 4.22509017,14.3640617 C3.27485618,14.2417047 2.54240193,13.4449993 2.42691267,12.4327735 C2.42691267,12.4325254 2.19740931,10.6275639 2.19740931,8.48121032 C2.19740931,6.33485675 2.42691267,4.52993656 2.42691267,4.52964711 C2.54240193,3.51766948 3.27485618,2.72096401 4.22509017,2.59885515 C4.22509017,2.59885515 5.73347696,2.34950995 7.9538599,2.34950995 C10.1740876,2.34950995 11.6826296,2.59885515 11.6826296,2.59885515 C12.6329413,2.72096401 13.365512,3.51766948 13.4807683,4.52964711 C13.4807683,4.52993656 13.7106599,6.33485675 13.7106599,8.48121032 C13.7106599,10.6275639 13.4807683,12.4325254 13.4807683,12.4327735 M15.5905145,3.02129472 C15.4311199,1.62305945 14.4190846,0.521970892 13.1057679,0.353259711 C13.1057679,0.353259711 11.0216817,0.00893176841 7.9538599,0.00893176841 C4.8859993,0.00893176841 2.80175782,0.353259711 2.80175782,0.353259711 C1.48871286,0.521970892 0.476599916,1.62305945 0.317282966,3.02129472 C0.317166507,3.02154282 7.76398391e-06,5.51582185 7.76398391e-06,8.48121032 C7.76398391e-06,11.4468469 0.317166507,13.9410019 0.317282966,13.94125 C0.476599916,15.3396093 1.48871286,16.4404911 2.80175782,16.6094504 C2.80175782,16.6094504 4.8859993,16.9538197 7.9538599,16.9538197 C11.0216817,16.9538197 13.1057679,16.6094504 13.1057679,16.6094504 C14.4190846,16.4404911 15.4311199,15.3396093 15.5905145,13.94125 C15.5905145,13.9410019 15.9078285,11.4468469 15.9078285,8.48121032 C15.9078285,5.51582185 15.5905145,3.02154282 15.5905145,3.02129472" id="Fill-1" fill="#C5C6C6" mask="url(#mask-2)"></path>
            </g>
            <path d="M232.952967,0 C247.381719,0 259.078534,11.7335937 259.078534,26.2077151 L259.078534,134.532938 C259.078534,137.25253 258.66559,139.87537 257.899171,142.341805 C261.62533,144.638432 264.668767,147.884966 264.668767,152.410581 C264.668767,158.927553 259.129229,163.496919 254.18856,163.496919 L254.18856,163.496919 L253.941365,163.495998 C252.01623,163.480794 249.400727,163.253474 246.02897,161.099877 L246.02897,161.099877 L245.465345,160.747263 C244.368521,160.070819 243.335144,159.492279 242.328149,159.001145 C239.418287,160.125289 236.257265,160.740653 232.952967,160.740653 L219.658024,160.740273 C213.670283,165.623932 209.72254,174.407258 209.72254,184.770717 C209.72254,200.651154 218.40614,212.486575 229.560074,212.486575 C233.452722,212.486575 237.495088,212.112036 240.788867,210.613881 L240.788867,210.613881 L240.788867,202.374032 C240.788867,199.602446 240.040281,198.553738 237.345371,198.553738 L237.345371,198.553738 L233.901874,198.553738 C227.014881,198.553738 221.924495,194.20909 221.924495,188.141565 C221.924495,181.924224 227.08974,177.279945 233.901874,177.279945 L233.901874,177.279945 L243.932929,177.279945 C259.803817,177.279945 264.884788,181.641645 265.110008,195.744228 L265.110008,195.744228 L265.117919,196.755953 L265.117919,217.055946 C265.117919,222.074763 262.647584,224.771441 258.455501,226.868857 C249.84676,231.213505 239.067119,233.68546 229.560074,233.68546 C204.033285,233.68546 185.019195,212.786205 185.019195,184.770717 C185.019195,175.946047 186.980054,167.782858 190.480642,160.740013 L176.827,160.74 L176.82728,222.007959 C176.82728,228.045127 171.606285,232.632469 164.856891,232.772189 L164.539408,232.77547 C157.636961,232.77547 152.251535,228.139458 152.251535,222.007959 L152.251535,222.007959 L152.251,160.74 L143.397772,160.738918 C140.253748,176.109363 130.999911,218.031482 126.597756,226.100958 L126.460125,226.344873 C125.275568,228.381602 123.378947,230.107659 120.830874,231.257091 L120.830745,360.715093 C120.830745,364.664819 118.673367,368 115.736259,368 L115.736259,368 L73.6740974,368 C70.7369901,368 68.5796119,364.664819 68.5796119,360.715093 L68.5796119,360.715093 L68.5796119,241.100233 C68.5796119,240.497145 69.0669792,240.008245 69.6681772,240.008245 C70.2693752,240.008245 70.7567424,240.497145 70.7567424,241.100233 L70.7567424,241.100233 L70.7567424,360.715093 C70.7567424,363.605876 72.1863874,365.816024 73.6740974,365.816024 L73.6740974,365.816024 L115.736259,365.816024 C117.223969,365.816024 118.653614,363.605876 118.653614,360.715093 L118.653614,360.715093 L118.653958,232.048759 C117.009072,232.516909 115.158571,232.77547 113.113616,232.77547 C108.389851,232.77547 105.465616,231.504305 103.141224,229.1863 C101.661554,227.710695 99.817124,223.650499 97.6370774,217.306023 L83.1498137,217.306426 C81.0491459,223.574139 79.2349134,227.604201 77.5729109,229.1863 C75.6953493,231.003632 73.533092,232.090901 70.7566484,232.537721 L70.7567424,234.27633 C70.7567424,234.879419 70.2693752,235.368318 69.6681772,235.368318 C69.0669792,235.368318 68.5796119,234.879419 68.5796119,234.27633 L68.5796119,234.27633 L68.5803757,232.753013 C68.2374247,232.768025 67.885961,232.77547 67.5255386,232.77547 C61.6020878,232.77547 56.5784017,230.38269 54.2540096,226.344873 C49.8218354,218.609879 42.7588678,186.403353 39.0625095,168.742034 L39.0625095,168.742034 L37.409,160.74 L26.1255664,160.740653 C11.6968145,160.740653 0,149.007059 0,134.532938 L0,26.2077151 C0,11.7335937 11.6968145,0 26.1255664,0 L232.952967,0 Z M217.172525,281.732938 C224.218125,281.732938 230.891123,284.196904 236.21396,288.62637 C236.676672,289.011422 236.740606,289.699849 236.356762,290.164016 C235.972917,290.628183 235.286647,290.692319 234.823935,290.307267 C229.888053,286.19981 223.705436,283.916914 217.172525,283.916914 C201.841286,283.916914 189.410357,296.457694 189.410357,311.930609 C189.410357,327.403525 201.841286,339.944305 217.172525,339.944305 C232.503764,339.944305 244.934693,327.403525 244.934693,311.930609 C244.934693,311.327521 245.42206,310.838621 246.023258,310.838621 C246.624456,310.838621 247.111823,311.327521 247.111823,311.930609 C247.111823,328.606944 233.708926,342.128281 217.172525,342.128281 C200.636123,342.128281 187.233226,328.606944 187.233226,311.930609 C187.233226,295.254275 200.636123,281.732938 217.172525,281.732938 Z M341.809494,329.780415 C344.214286,329.780415 346.163755,331.736014 346.163755,334.148368 C346.163755,336.560722 344.214286,338.51632 341.809494,338.51632 C339.404702,338.51632 337.455233,336.560722 337.455233,334.148368 C337.455233,331.736014 339.404702,329.780415 341.809494,329.780415 Z M358.682256,313.450539 C359.424912,313.450539 360.026954,314.0428 360.026954,314.773392 C360.026954,315.503984 359.424912,316.096246 358.682256,316.096246 C357.9396,316.096246 357.337558,315.503984 357.337558,314.773392 C357.337558,314.0428 357.9396,313.450539 358.682256,313.450539 Z M313.814302,135.406528 C338.904104,135.406528 357.049408,156.230875 357.049408,184.770717 C357.049408,192.901704 355.530941,200.414646 352.768882,206.988746 L352.768429,288.345469 C352.768429,291.177625 350.443475,293.46481 347.586005,293.46481 L347.586005,293.46481 L304.600484,293.46481 C301.743014,293.46481 299.418059,291.177625 299.418059,288.345469 L299.418059,288.345469 L299.418031,231.078576 C282.313214,224.597138 270.579195,206.685007 270.579195,184.770717 C270.579195,156.755229 289.172531,135.406528 313.814302,135.406528 Z M350.592082,211.513425 C343.161454,225.11493 329.891243,233.68546 313.814302,233.68546 C309.540218,233.68546 305.444686,233.041553 301.594944,231.832235 L301.59519,288.345469 C301.59519,289.961804 302.936001,291.280834 304.600484,291.280834 L304.600484,291.280834 L347.586005,291.280834 C349.250487,291.280834 350.591299,289.961804 350.591299,288.345469 L350.591299,288.345469 Z M90.3195772,192.472078 C87.8785025,201.617406 85.7567093,209.214131 83.8648093,215.122173 L96.9028072,215.121595 C95.2095134,209.978754 93.3285925,203.565238 91.2724032,196.008403 L91.2724032,196.008403 Z M331.017786,195.466019 L304.600484,195.465875 C302.936001,195.465875 301.59519,196.784905 301.59519,198.401241 L301.59519,198.401241 L301.595583,205.194058 C304.874737,209.358888 309.151275,211.845697 313.814302,211.845697 C321.759821,211.845697 328.243033,205.373894 331.017786,195.466019 Z M313.814302,156.336301 C303.547906,156.336301 295.15494,168.539439 295.15494,184.314227 C295.15494,191.076698 296.757241,197.185715 299.418018,201.921286 L299.418059,198.401241 C299.418059,195.569084 301.743014,193.281899 304.600484,193.281899 L304.600484,193.281899 L331.556988,193.281212 C332.153774,190.503132 332.473663,187.494768 332.473663,184.314227 C332.473663,168.092983 324.380446,156.336301 313.814302,156.336301 Z M74.1159819,160.739836 L62.213,160.74 L63.2681885,166.04118 C64.0975322,170.132653 65.0678953,174.845988 66.1165401,179.793281 L66.3272942,180.785744 L67.7504798,187.387421 C69.9749155,178.4659 72.1369768,169.202263 74.1159819,160.739836 Z M118.263536,160.740297 L106.571984,160.739768 C107.722977,165.59874 108.96544,170.718799 110.225859,175.855572 L110.225859,175.855572 L112.813694,186.340579 C114.819355,177.518488 116.739477,168.286941 118.263536,160.740297 Z M232.952967,2.18397626 L26.1255664,2.18397626 C12.8992105,2.18397626 2.17713054,12.9397705 2.17713054,26.2077151 L2.17713054,134.532938 C2.17713054,147.800882 12.8992105,158.556677 26.1255664,158.556677 L36.957,158.556 L36.8585591,158.075863 C35.7726362,152.94995 34.8964088,149.357579 34.8372705,146.423814 L34.8340886,146.111962 C34.8340886,140.503884 40.2326767,136.316518 46.9809118,136.316518 C53.2042841,136.316518 57.4781664,138.858847 59.1277349,145.364218 L59.1277349,145.364218 L59.194217,145.617236 C59.5926596,147.207499 60.3440835,151.354477 60.6273427,152.766882 L60.6273427,152.766882 L61.779,158.556 L74.6270145,158.555436 C75.2129588,156.052264 75.7813631,153.630702 76.3289345,151.321943 L76.5884747,150.229591 L77.1980089,147.682224 C78.6976167,141.401176 83.946244,138.484975 90.3195772,138.484975 C96.8428711,138.484975 102.166479,141.401176 103.591106,147.756999 C104.321423,151.079916 105.155941,154.721502 106.056598,158.55524 L118.703165,158.555853 C120.138429,151.400012 121.151414,146.116173 121.436439,144.766023 L121.436439,144.766023 L121.530088,144.376238 C122.856695,139.234543 127.290396,136.316518 133.508282,136.316518 C140.706399,136.316518 145.880046,141.027304 145.880046,147.233578 C145.880046,149.461339 145.295092,151.365018 144.306721,156.203312 L144.306721,156.203312 L143.838,158.556 L152.251,158.556 L152.251535,146.93448 C152.251535,140.972392 157.396482,136.459422 164.213536,136.319847 L164.539408,136.316518 C171.517706,136.316518 176.82728,140.877756 176.82728,146.93448 L176.82728,146.93448 L176.827,158.556 L191.635361,158.556263 C199.419127,144.694815 213.412905,135.686046 230.053046,135.412918 L230.832671,135.406528 C243.026662,135.406528 250.562543,138.492089 255.651415,141.098543 L255.651415,141.098543 L255.951389,141.254623 C256.569836,139.121632 256.901403,136.866128 256.901403,134.532938 L256.901403,26.2077151 C256.901403,12.9397705 246.179323,2.18397626 232.952967,2.18397626 Z M230.832671,156.605414 C228.043288,156.605414 225.38884,157.29319 222.962401,158.555581 L232.952967,158.556677 C235.113393,158.556677 237.207003,158.269704 239.197982,157.731685 C236.688919,156.923788 234.100171,156.605414 230.832671,156.605414 Z M339.632364,98.2789318 C344.441948,98.2789318 348.340886,102.19013 348.340886,107.014837 C348.340886,111.839544 344.441948,115.750742 339.632364,115.750742 C334.82278,115.750742 330.923842,111.839544 330.923842,107.014837 C330.923842,102.19013 334.82278,98.2789318 339.632364,98.2789318 Z" id="Path" fill="#239A98" fill-rule="nonzero"></path>
        </g>
    </g>
</svg>