<?xml version="1.0" encoding="UTF-8"?>
<svg width="226px" height="79px" viewBox="0 0 226 79" version="1.1" xmlns="http://www.w3.org/2000/svg" xmlns:xlink="http://www.w3.org/1999/xlink">
    <!-- Generator: sketchtool 59.1 (101010) - https://sketch.com -->
    <title>385b5aa7-ccf3-4d30-8689-79005b7bfd8c@1.00x</title>
    <desc>Created with sketchtool.</desc>
    <defs>
        <polygon id="path-1" points="0 0.0322886598 106.09933 0.0322886598 106.09933 70.2872165 0 70.2872165"></polygon>
        <polygon id="path-3" points="0.367668863 0.175175258 129.352608 0.175175258 129.352608 71.6287918 0.367668863 71.6287918"></polygon>
    </defs>
    <g id="Branding" stroke="none" stroke-width="1" fill="none" fill-rule="evenodd">
        <g id="Branding-/-Logo-/-Product-/-YUGO-landscape-light">
            <g id="Group-7" transform="translate(0.000000, 3.000000)">
                <g id="Group-3" transform="translate(0.000000, 0.938227)">
                    <mask id="mask-2" fill="white">
                        <use xlink:href="#path-1"></use>
                    </mask>
                    <g id="Clip-2"></g>
                    <path d="M106.09933,32.9719175 L106.09933,8.90907216 C106.09933,3.84494845 101.563693,0.0322886598 95.7729545,0.0322886598 C89.9814718,0.0322886598 85.4462066,3.84494845 85.4462066,8.90907216 L85.4462066,44.363134 C85.4462066,50.2456082 83.0428623,53.2952165 78.6166876,53.2952165 C74.1368985,53.2952165 71.6784504,50.1910515 71.6784504,44.363134 L71.6784504,8.90907216 C71.6784504,3.89876289 67.1435575,0.0322886598 61.4611654,0.0322886598 C57.4955542,0.0322886598 54.0690666,1.84639175 52.3023944,4.59797938 C50.5774224,1.83971134 47.4216135,0.0322886598 43.7091819,0.0322886598 C39.4472016,0.0322886598 35.8959858,2.70074227 34.0380946,7.22078351 C31.5800188,13.1028866 30.050144,16.5882062 27.0447535,22.6339794 C23.8215542,16.2616082 20.4341605,8.85451546 19.1775707,6.02239175 C17.3744109,2.04680412 14.1508392,0.0322886598 9.61594629,0.0322886598 C4.37103361,0.0322886598 -3.72322899e-05,4.33484536 -3.72322899e-05,9.50771134 C-3.72322899e-05,11.9044948 1.63930049,15.5534845 3.00498089,18.4939794 C8.24989357,29.5496907 12.6756959,37.8285773 16.5545558,43.3287835 L16.5545558,61.3558763 C16.5545558,66.4207423 21.0898211,70.2872165 26.8809315,70.2872165 C32.6724142,70.2872165 37.2076794,66.4207423 37.2076794,61.3558763 L37.2076794,43.4917113 C42.1822857,35.9287423 47.0079628,27.0263505 51.0256992,17.9766186 L51.0256992,44.5813608 C51.0256992,57.3335258 57.9739891,66.5309691 69.2389908,69.7141856 L106.09933,32.9719175 Z" id="Fill-1" fill="#151616" mask="url(#mask-2)"></path>
                </g>
                <g id="Group-6" transform="translate(96.431631, 0.195959)">
                    <mask id="mask-4" fill="white">
                        <use xlink:href="#path-3"></use>
                    </mask>
                    <g id="Clip-5"></g>
                    <path d="M128.041659,26.3712247 C128.15075,28.4410392 127.932196,30.6737814 127.331267,32.7428536 C125.746661,38.1346887 122.359267,42.7642144 117.441998,45.4872247 C114.218427,47.2846268 110.612479,48.2647918 107.061264,48.2647918 C99.7399061,48.2647918 92.5276392,44.4525031 88.8126013,37.6993485 C87.9383871,36.1198021 88.3758666,34.1594722 89.905369,33.1789361 C91.4899753,32.1442144 93.5656755,32.8523381 94.4946211,34.3773278 C98.6475107,41.1850392 107.388908,43.7447505 114.054977,39.7142351 C117.49673,37.6451629 119.900819,34.7039258 120.829764,31.0007505 C121.75871,27.2972041 121.266499,23.4852866 119.40898,20.1083381 C118.535138,18.5287918 119.135695,16.5684619 120.720301,15.6424825 C121.375962,15.2609567 122.031623,15.1522144 122.57782,15.1522144 C116.076318,6.11176082 105.531761,0.175101031 93.5113163,0.175101031 C74.75071,0.175101031 59.3428715,14.5847505 57.8062949,32.9866887 C55.1929605,30.3074722 50.866196,29.2308124 44.1826277,29.2308124 L36.8612702,29.2308124 C31.0701598,29.2308124 26.6443575,33.0980289 26.6443575,38.2167093 C26.6443575,43.2273897 31.0701598,46.8756371 36.8612702,46.8756371 L39.3744498,46.8756371 C40.3037677,46.8756371 40.412486,46.9301938 40.412486,48.5642969 L40.412486,52.8122969 C38.6640577,53.4658639 36.5883575,53.7382763 33.69243,53.7382763 C26.4254316,53.7382763 20.6886804,45.4605031 20.6886804,35.7657402 C20.6886804,25.5268948 26.862911,17.4669773 34.6213756,17.4669773 C38.8286244,17.4669773 41.1228781,18.1743588 44.9473789,20.5711423 C47.7338435,22.3139876 50.1926639,22.4769155 51.6674349,22.4769155 C56.4756129,22.4769155 60.7915799,18.2296577 60.7915799,13.3277196 C60.7915799,9.8424 58.5520577,6.90190515 54.1809868,4.50512165 C51.7176985,3.16569897 48.1046771,1.49708041 42.911145,0.572956701 L0.367668863,42.9805856 C3.40805766,59.3101113 16.6661038,71.3289155 33.69243,71.3289155 C40.959056,71.3289155 49.1542554,69.4231423 55.4375766,66.2647918 C59.4258995,64.249534 61.1199687,61.8531216 61.1199687,58.1495753 L61.1199687,51.256132 C66.8734745,63.2953485 79.2208188,71.6287918 93.5113163,71.6287918 C113.289481,71.6287918 129.352608,55.6715134 129.352608,36.0110598 C129.352608,32.6341113 128.861142,29.3670186 128.041659,26.3712247" id="Fill-4" fill="#151616" mask="url(#mask-4)"></path>
                </g>
            </g>
        </g>
    </g>
</svg>