<svg xmlns="http://www.w3.org/2000/svg" width="24" height="24" fill="none"><path fill="#291D18" d="M13.045 7.051H10.87v3.951h2.174z"/><path fill="#291D18" d="M3.496 20.474c2.259 2.294 5.073 3.441 8.44 3.526 3.41-.085 6.266-1.232 8.526-3.526 2.26-2.25 3.453-5.055 3.538-8.453-.085-3.398-1.279-6.244-3.538-8.495C18.202 1.274 15.346.128 11.936 0c-3.367.128-6.181 1.274-8.44 3.526C1.194 5.777.043 8.623 0 12.02c.043 3.398 1.194 6.202 3.496 8.453m4.475-2.633v-2.846h2.9v1.911h2.173v-4.29l-.895.807h-2.6L7.97 11.979V6.117l1.535-1.53h4.902l1.577 1.53V17.84l-1.534 1.571H9.506z"/></svg>