<svg xmlns="http://www.w3.org/2000/svg" width="24" height="24" fill="none"><path fill="#291D18" d="M16.063 16.525h-2.092v-3.778h2.092z"/><path fill="#291D18" d="M11.986 0c3.316 0 6.143 1.169 8.508 3.506C22.83 5.844 24 8.698 24 11.986c0 3.316-1.17 6.143-3.506 8.508C18.129 22.83 15.303 24 11.986 24c-3.288 0-6.142-1.169-8.48-3.506C1.196 18.129 0 15.302 0 11.986c0-3.288 1.196-6.142 3.506-8.48C5.844 1.17 8.698 0 11.986 0m6.904 6.088-1.495-1.494h-4.783L11.17 6.115V17.45l1.468 1.494h4.756l1.495-1.467v-5.681l-1.522-1.495h-2.5l-.898.87V7.013h2.093V8.86h2.827zM6.768 4.783c-.842.136-1.658.354-2.473.626v1.44h1.794v12.095h2.827V4.594z"/></svg>