<svg xmlns="http://www.w3.org/2000/svg" width="24" height="24" fill="none"><path fill="#291D18" d="M20.494 3.506C18.129 1.168 15.302 0 11.987 0c-3.29 0-6.143 1.168-8.48 3.506S0 8.698 0 11.986c0 3.316 1.17 6.143 3.506 8.508C5.844 22.832 8.697 24 11.986 24c3.316 0 6.143-1.168 8.508-3.506C22.83 18.129 24 15.302 24 11.986c0-3.288-1.169-6.142-3.506-8.48M16.53 5.771l-.62 1.51c-.27.593-.432.97-.459 1.159-.026.243.027.432.189.566l.594.351c.62.378.997 1.025 1.105 2.022l.054.863.647-.188c.162-.081.27-.216.27-.459l-.323-2.589c-.027-1.186.484-1.752 1.563-1.725 1.106.053 1.43.728.999 2.022l-.675 1.537c-.296.593-.458.944-.486 1.106a.49.49 0 0 0 .216.431l.54.27c.566.297.836.782.836 1.456q0 1.415-1.133 3.236c-.674 1.078-1.43 1.969-2.265 2.616-.674.512-1.591.917-2.831 1.16.566-1.295.889-2.86.997-4.585.108-2.13-.27-3.533-1.16-4.234q-.565-.405-1.213-.242l-.405.08c-.107 0-.161-.054-.215-.188l-.97-2.481c-.594-.971-1.241-1.025-1.97-.162-.754.863-.62 1.672.405 2.373L12 12.701c0 .107-.054.216-.162.35l-.323.405c-.27.404-.216.97.08 1.645.486 1.051.594 2.238.324 3.64l-.728 2.643c-1.672-.081-3.102-.459-4.234-1.16-.755-.458-1.537-1.24-2.265-2.372-.836-1.295-1.267-2.482-1.267-3.614 0-1.24.296-2.023.863-2.454l.593-.323c.135-.108.242-.27.216-.432q0-.364-.486-1.214L3.91 8.36c-.485-1.186-.162-1.833.97-1.995 1.106-.162 1.646.377 1.592 1.59l-.189 1.538c-.108.593-.135.998-.108 1.213.027.189.189.216.512.135l.81-.162.026-1.51c.19-.647.594-1.16 1.214-1.456l.566-.324c.162-.107.216-.242.216-.431l-.405-1.052c-.27-.647-.458-1.16-.539-1.537-.35-1.321.08-1.968 1.322-1.968 1.159 0 1.671.62 1.51 1.833l-.648 2.616q0 .324.324.485l.674.27c.728.243 1.133.728 1.295 1.456l.782-.243c.242-.08.405-.188.43-.35.055-.216 0-.674-.161-1.348l-.377-1.699c-.189-1.403.377-1.996 1.699-1.807 1.159.19 1.537.89 1.105 2.158m-3.532 13.59c.405-.836.728-1.267.917-1.321.215-.054.27.324.215 1.133l-.162 2.076-2.022.162z"/></svg>