<svg xmlns="http://www.w3.org/2000/svg" width="24" height="24" fill="none"><path fill="#291D18" d="M10.955 16.949h2.174v-3.951h-2.174z"/><path fill="#291D18" d="M20.504 3.526C18.245 1.232 15.431.085 12.064 0c-3.41.085-6.266 1.232-8.526 3.526C1.278 5.776.085 8.58 0 11.979c.085 3.398 1.279 6.244 3.538 8.496 2.26 2.25 5.116 3.397 8.526 3.525 3.367-.128 6.181-1.274 8.44-3.526 2.302-2.251 3.453-5.097 3.496-8.495-.043-3.398-1.194-6.202-3.496-8.453M16.03 6.159v2.846h-2.9V7.094h-2.173v4.29l.895-.807h2.6l1.578 1.444v5.862l-1.535 1.53H9.592l-1.577-1.53V6.16l1.534-1.571h4.945z"/></svg>