<svg width="275" height="100" viewBox="0 0 275 100" fill="none" xmlns="http://www.w3.org/2000/svg">
<path d="M120 45.0833H128.467C136.4 45.0833 140.533 40.15 140.533 33.0833C140.533 26.65 137.033 21.25 128.467 21.25H120V45.0833ZM125.233 40.4167V25.9167H129.2C133.167 25.9167 135.133 28.7167 135.133 33.1833C135.133 37.3833 133.433 40.4167 129.233 40.4167H125.233Z" fill="white"/>
<path d="M150.543 45.65C154.51 45.65 156.943 43.6833 157.976 41.3167L154.043 39.3167C153.643 40.5167 152.61 41.5833 150.843 41.5833C148.91 41.5833 147.41 40.3167 147.276 38.4167H158.376V36.7167C158.376 31.4167 155.743 28.35 150.443 28.35C145.91 28.35 142.143 31.45 142.143 37.0833C142.143 43.1833 146.443 45.65 150.543 45.65ZM147.443 35.2167C147.543 33.1833 148.576 31.9167 150.41 31.9167C152.276 31.9167 153.143 33.0833 153.21 35.2167H147.443Z" fill="white"/>
<path d="M120 78.4167H125.133V61.95H125.167L134.9 78.4167H140.533V54.5833H135.433V71.0167H135.367L125.733 54.5833H120V78.4167Z" fill="white"/>
<path d="M151.715 78.9833C155.682 78.9833 158.115 77.0167 159.148 74.65L155.215 72.65C154.815 73.85 153.782 74.9167 152.015 74.9167C150.082 74.9167 148.582 73.65 148.448 71.75H159.548V70.05C159.548 64.75 156.915 61.6833 151.615 61.6833C147.081 61.6833 143.315 64.7833 143.315 70.4167C143.315 76.5167 147.615 78.9833 151.715 78.9833ZM148.615 68.55C148.715 66.5167 149.748 65.25 151.582 65.25C153.448 65.25 154.315 66.4167 154.382 68.55H148.615Z" fill="white"/>
<path d="M168.729 78.8833C170.096 78.8833 171.296 78.65 172.363 78.0833L171.363 74.45C170.863 74.7167 170.263 74.8167 169.896 74.8167C168.929 74.8167 168.563 74.3833 168.563 73.65V66.25H172.396V62.2833H168.563V56.8167L163.696 57.8833V61.05C163.696 61.8833 163.296 62.2833 162.463 62.2833H160.563V66.25H163.596V74.8167C163.596 77.05 165.296 78.8833 168.729 78.8833Z" fill="white"/>
<path d="M178.911 78.4167H183.277L186.144 68.7833L188.977 78.4167H193.311L198.677 62.2833H193.477L190.744 71.9167L187.977 62.2833H184.311L181.477 71.9167L178.844 62.2833H173.577L178.911 78.4167Z" fill="white"/>
<path d="M207.542 78.9833C211.508 78.9833 213.942 77.0167 214.975 74.65L211.042 72.65C210.642 73.85 209.608 74.9167 207.842 74.9167C205.908 74.9167 204.408 73.65 204.275 71.75H215.375V70.05C215.375 64.75 212.742 61.6833 207.442 61.6833C202.908 61.6833 199.142 64.7833 199.142 70.4167C199.142 76.5167 203.442 78.9833 207.542 78.9833ZM204.442 68.55C204.542 66.5167 205.575 65.25 207.408 65.25C209.275 65.25 210.142 66.4167 210.208 68.55H204.442Z" fill="white"/>
<path d="M224.556 78.8833C225.923 78.8833 227.123 78.65 228.19 78.0833L227.19 74.45C226.69 74.7167 226.09 74.8167 225.723 74.8167C224.756 74.8167 224.39 74.3833 224.39 73.65V66.25H228.223V62.2833H224.39V56.8167L219.523 57.8833V61.05C219.523 61.8833 219.123 62.2833 218.29 62.2833H216.39V66.25H219.423V74.8167C219.423 77.05 221.123 78.8833 224.556 78.8833Z" fill="white"/>
<path d="M238.01 78.9833C241.977 78.9833 244.41 77.0167 245.444 74.65L241.51 72.65C241.11 73.85 240.077 74.9167 238.31 74.9167C236.377 74.9167 234.877 73.65 234.744 71.75H245.844V70.05C245.844 64.75 243.21 61.6833 237.91 61.6833C233.377 61.6833 229.61 64.7833 229.61 70.4167C229.61 76.5167 233.91 78.9833 238.01 78.9833ZM234.91 68.55C235.01 66.5167 236.044 65.25 237.877 65.25C239.744 65.25 240.61 66.4167 240.677 68.55H234.91Z" fill="white"/>
<path d="M248.346 78.4167H253.312V71.55C253.312 68.4167 254.179 66.5167 256.479 66.5167C257.113 66.5167 257.946 66.65 258.612 66.9167L259.446 62.35C258.713 61.9167 257.912 61.7833 257.046 61.7833C255.446 61.7833 254.079 63.1167 253.346 64.4833H253.312V62.2833H248.346V78.4167Z" fill="white"/>
<path d="M267.378 78.9833C271.778 78.9833 274.478 76.9167 274.478 73.5167C274.478 70.85 272.778 69.35 268.944 68.55C265.778 67.8833 265.178 67.3833 265.178 66.4833C265.178 65.6833 265.878 65.1833 267.011 65.1833C268.644 65.1833 269.578 66.3167 269.911 67.4833L274.478 66.0167C273.511 63.25 270.844 61.6833 267.078 61.6833C262.844 61.6833 260.311 63.6167 260.311 66.8833C260.311 69.55 262.044 71.0833 265.644 71.8167C268.778 72.45 269.544 73.0167 269.544 74.0167C269.544 74.9833 268.811 75.45 267.544 75.45C265.678 75.45 264.878 74.3833 264.511 72.8167L259.778 74.2167C260.511 77.2167 263.278 78.9833 267.378 78.9833Z" fill="white"/>
<path fill-rule="evenodd" clip-rule="evenodd" d="M71.0309 61.9407C71.0309 61.9407 71.9221 61.0973 71.9221 60.2976V57.6347C71.9221 56.3014 70.9099 57.0191 70.9099 57.0191C68.2019 58.7212 60.2936 63.0581 50.0358 63.0581C39.7775 63.0581 31.8706 58.7212 29.1617 57.0191C29.1617 57.0191 28.1489 56.3014 28.1489 57.6347V60.2976C28.1489 61.0973 29.0406 61.9407 29.0406 61.9407C31.7135 64.0276 40.082 69.8738 50.0358 69.8787C59.9886 69.8738 68.3532 64.0276 71.0309 61.9407ZM37.1627 30.7178C37.1627 30.7178 29.3643 30.727 29.3643 37.2663C29.3643 43.81 37.1627 43.8193 37.1627 43.8193C37.1627 43.8193 44.9612 43.81 44.9612 37.2663C44.9612 30.727 37.1627 30.7178 37.1627 30.7178ZM70.3086 35.1359C70.3086 34.6594 69.7037 34.5103 69.7037 34.5103C67.1792 33.8475 64.6771 33.4768 62.2029 33.4236C59.8719 33.3826 57.5492 33.6134 55.23 34.1193C55.23 34.1193 54.6523 34.2982 54.6523 34.8077V39.947C54.6523 40.9009 55.3232 40.6408 55.3232 40.6408C57.5043 40.3301 59.6376 40.1949 62.1848 40.242C64.6503 40.2947 67.2509 40.5327 69.555 40.9566C69.555 40.9566 70.3086 41.1364 70.3086 40.3316V35.1359ZM73.4395 84.7164C73.4395 84.7164 63.9564 86.1865 49.9999 86.1865C36.0418 86.1865 26.5598 84.7164 26.5598 84.7164C20.5864 83.9943 15.9818 79.2924 15.2563 73.319C15.2563 73.319 13.8133 62.6654 13.8133 49.999C13.8133 37.3323 15.2563 26.6789 15.2563 26.6789C15.9818 20.7065 20.5864 16.005 26.5598 15.2844C26.5598 15.2844 36.0418 13.8127 49.9999 13.8127C63.9564 13.8127 73.4395 15.2844 73.4395 15.2844C79.4133 16.005 84.0184 20.7065 84.743 26.6789C84.743 26.6789 86.1881 37.3323 86.1881 49.999C86.1881 62.6654 84.743 73.319 84.743 73.319C84.0184 79.2924 79.4133 83.9943 73.4395 84.7164ZM82.3856 2.03228C82.3856 2.03228 69.2846 0 49.9999 0C30.7144 0 17.6124 2.03228 17.6124 2.03228C9.35832 3.02769 2.99596 9.52597 1.99446 17.7776C1.99446 17.7776 0 32.4987 0 49.9991C0 67.5008 1.99446 82.2214 1.99446 82.2214C2.99596 90.4735 9.35832 96.9706 17.6124 97.9675C17.6124 97.9675 30.7144 100 49.9999 100C69.2846 100 82.3856 97.9675 82.3856 97.9675C90.6414 96.9706 97.0033 90.4735 98.0053 82.2214C98.0053 82.2214 100 67.5008 100 49.9991C100 32.4987 98.0053 17.7776 98.0053 17.7776C97.0033 9.52597 90.6414 3.02769 82.3856 2.03228Z" fill="#FFC421"/>
</svg>
