<svg width="75" height="95" viewBox="0 0 75 95" fill="none" xmlns="http://www.w3.org/2000/svg">
<path fill-rule="evenodd" clip-rule="evenodd" d="M49.4039 35.061C49.4039 35.061 49.9084 34.5836 49.9084 34.131V32.6237C49.9084 31.869 49.3354 32.2752 49.3354 32.2752C47.8026 33.2387 43.3262 35.6935 37.5199 35.6935C31.7133 35.6935 27.2377 33.2387 25.7043 32.2752C25.7043 32.2752 25.1311 31.869 25.1311 32.6237V34.131C25.1311 34.5836 25.6358 35.061 25.6358 35.061C27.1488 36.2423 31.8857 39.5515 37.5199 39.5543C43.1535 39.5515 47.8882 36.2423 49.4039 35.061ZM30.2335 17.3876C30.2335 17.3876 25.8192 17.3929 25.8192 21.0944C25.8192 24.7983 30.2335 24.8036 30.2335 24.8036C30.2335 24.8036 34.6477 24.7983 34.6477 21.0944C34.6477 17.3929 30.2335 17.3876 30.2335 17.3876ZM48.9956 19.8889C48.9956 19.6191 48.6532 19.5347 48.6532 19.5347C47.2242 19.1595 45.8079 18.9497 44.4074 18.9196C43.088 18.8964 41.7733 19.0271 40.4605 19.3134C40.4605 19.3134 40.1335 19.4147 40.1335 19.7031V22.6121C40.1335 23.1521 40.5133 23.0048 40.5133 23.0048C41.7479 22.829 42.9554 22.7525 44.3972 22.7791C45.7927 22.809 47.2648 22.9436 48.569 23.1836C48.569 23.1836 48.9956 23.2854 48.9956 22.8298V19.8889ZM50.7675 47.9527C50.7675 47.9527 45.3998 48.7848 37.4998 48.7848C29.599 48.7848 24.2318 47.9527 24.2318 47.9527C20.8507 47.544 18.2443 44.8825 17.8336 41.5013C17.8336 41.5005 17.0169 35.471 17.0169 28.3013C17.0169 21.1315 17.8336 15.1021 17.8336 15.1013C18.2443 11.7207 20.8507 9.05945 24.2318 8.65155C24.2318 8.65155 29.599 7.81849 37.4998 7.81849C45.3998 7.81849 50.7675 8.65155 50.7675 8.65155C54.1489 9.05945 56.7556 11.7207 57.1657 15.1013C57.1657 15.1021 57.9837 21.1315 57.9837 28.3013C57.9837 35.471 57.1657 41.5005 57.1657 41.5013C56.7556 44.8825 54.1489 47.544 50.7675 47.9527ZM55.8314 1.15035C55.8314 1.15035 48.4157 0 37.4998 0C26.5835 0 19.1673 1.15035 19.1673 1.15035C14.4952 1.71378 10.8938 5.39206 10.3269 10.0628C10.3265 10.0635 9.198 18.3955 9.198 28.3014C9.198 38.208 10.3265 46.5395 10.3269 46.5404C10.8938 51.2114 14.4952 54.889 19.1673 55.4533C19.1673 55.4533 26.5835 56.6038 37.4998 56.6038C48.4157 56.6038 55.8314 55.4533 55.8314 55.4533C60.5045 54.889 64.1055 51.2114 64.6727 46.5404C64.6727 46.5395 65.8018 38.208 65.8018 28.3014C65.8018 18.3955 64.6727 10.0635 64.6727 10.0628C64.1055 5.39206 60.5045 1.71378 55.8314 1.15035Z" fill="#FFC421"/>
<path fill-rule="evenodd" clip-rule="evenodd" d="M6.74526 75.7542C9.74526 75.7542 11.5566 74.3391 11.5566 71.9995C11.5566 70.5278 10.8585 69.2259 9.10375 68.5656V68.509C10.3679 67.9618 11.066 66.924 11.066 65.5656C11.066 63.5467 9.51884 62.2637 6.76412 62.2637H0.70752V75.7542H6.74526ZM6.44351 67.6595H3.66992V64.6406H6.46237C7.3303 64.6406 7.97181 65.1312 7.97181 66.1501C7.97181 67.1312 7.3303 67.6595 6.44351 67.6595ZM3.66992 73.3011H6.8586C7.802 73.3011 8.46237 72.6596 8.46237 71.6219C8.46237 70.5653 7.78313 69.8672 6.802 69.8672H3.66992V73.3011Z" fill="white"/>
<path d="M15.9905 76.0185C17.1981 76.0185 18.0849 75.4902 18.6509 74.6412H18.6698V75.7544H21.5V66.6223H18.6698V71.5279C18.6698 73.094 17.8962 73.7166 16.9717 73.7166C16.1415 73.7166 15.6886 73.1506 15.6886 72.3204V66.6223H12.8773V72.9808C12.8773 75.1695 14.4622 76.0185 15.9905 76.0185Z" fill="white"/>
<path d="M26.9904 76.0747C29.8583 76.0747 30.9904 74.6407 30.9904 72.9803C30.9904 71.0558 29.3677 70.4898 27.8772 70.1313C26.7451 69.8671 25.896 69.7539 25.896 69.0558C25.896 68.5841 26.2734 68.2634 26.8772 68.2634C27.8206 68.2634 28.4243 68.9803 28.6885 69.5275L30.9904 68.7351C30.6319 67.6407 29.4621 66.2822 26.8583 66.2822C24.4998 66.2822 22.9904 67.3954 22.9904 69.3011C22.9904 71.0947 24.3274 71.6514 25.7746 72.0096L25.9106 72.0426C25.956 72.0535 26.0015 72.0641 26.047 72.0747C27.1979 72.3388 28.1036 72.5086 28.1036 73.2634C28.1036 73.7728 27.6696 74.0558 26.9904 74.0558C25.8206 74.0558 25.2734 73.2634 25.1036 72.6218L22.6885 73.3766C22.9715 74.6596 24.179 76.0747 26.9904 76.0747Z" fill="white"/>
<path d="M33.7644 65.6408C34.821 65.6408 35.5758 64.9049 35.5758 63.9804C35.5758 63.0747 34.821 62.3389 33.7644 62.3389C32.7456 62.3389 31.9531 63.0181 31.9531 63.9804C31.9531 64.9426 32.7267 65.6408 33.7644 65.6408Z" fill="white"/>
<path d="M35.1604 75.7544V66.6223H32.349V75.7544H35.1604Z" fill="white"/>
<path d="M39.6888 75.7546V70.9056C39.6888 69.3018 40.4435 68.6603 41.3869 68.6603C42.2359 68.6603 42.6699 69.2641 42.6699 70.0942V75.7546H45.4812V69.3961C45.4812 67.2075 43.9906 66.3584 42.4246 66.3584C41.1605 66.3584 40.1793 66.981 39.7076 67.7735H39.6888V66.6226H36.8774V75.7546H39.6888Z" fill="white"/>
<path fill-rule="evenodd" clip-rule="evenodd" d="M55.7264 73.6218C55.2547 74.7728 53.9151 76.0747 51.5755 76.0747C48.9906 76.0747 46.7642 74.5086 46.7642 71.2256C46.7642 68.0369 48.8208 66.2822 51.6132 66.2822C54.3868 66.2822 55.9528 68.0181 55.9528 71.0181V71.9803H49.6698C49.7453 73.0558 50.5943 73.7728 51.6887 73.7728C52.7453 73.7728 53.2925 73.1124 53.5 72.4898L55.7264 73.6218ZM49.7642 70.1312H53.0283C52.9906 68.9614 52.5 68.301 51.4434 68.301C50.4057 68.301 49.8208 69.018 49.7642 70.1312Z" fill="white"/>
<path d="M61.066 76.0747C63.934 76.0747 65.066 74.6407 65.066 72.9803C65.066 71.0558 63.4434 70.4898 61.9528 70.1313C60.8208 69.8671 59.9717 69.7539 59.9717 69.0558C59.9717 68.5841 60.3491 68.2634 60.9528 68.2634C61.8962 68.2634 62.5 68.9803 62.7642 69.5275L65.066 68.7351C64.7076 67.6407 63.5377 66.2822 60.934 66.2822C58.5755 66.2822 57.066 67.3954 57.066 69.3011C57.066 71.0947 58.4031 71.6514 59.8503 72.0096L59.9863 72.0426C60.0317 72.0535 60.0771 72.0641 60.1227 72.0747C61.2736 72.3388 62.1793 72.5086 62.1793 73.2634C62.1793 73.7728 61.7453 74.0558 61.066 74.0558C59.8962 74.0558 59.3491 73.2634 59.1793 72.6218L56.7642 73.3766C57.0472 74.6596 58.2547 76.0747 61.066 76.0747Z" fill="white"/>
<path d="M70.1227 76.0747C72.9906 76.0747 74.1227 74.6407 74.1227 72.9803C74.1227 71.0558 72.5 70.4898 71.0095 70.1313C69.8774 69.8671 69.0284 69.7539 69.0284 69.0558C69.0284 68.5841 69.4057 68.2634 70.0095 68.2634C70.9529 68.2634 71.5566 68.9803 71.8208 69.5275L74.1227 68.7351C73.7642 67.6407 72.5944 66.2822 69.9906 66.2822C67.6321 66.2822 66.1227 67.3954 66.1227 69.3011C66.1227 71.0947 67.4598 71.6514 68.907 72.0096L69.0429 72.0426C69.0883 72.0535 69.1338 72.0641 69.1793 72.0747C70.3302 72.3388 71.2359 72.5086 71.2359 73.2634C71.2359 73.7728 70.8019 74.0558 70.1227 74.0558C68.9529 74.0558 68.4057 73.2634 68.2359 72.6218L65.8208 73.3766C66.1038 74.6596 67.3114 76.0747 70.1227 76.0747Z" fill="white"/>
<path fill-rule="evenodd" clip-rule="evenodd" d="M9.44334 89.5281V94.6224H7.78296V81.1318H12.6509C15.632 81.1318 17.2169 82.9243 17.2169 85.2639C17.2169 87.5469 15.6886 89.5281 12.4622 89.5281H9.44334ZM9.44335 87.9996H12.7264C14.4622 87.9996 15.5188 87.0185 15.5188 85.2827C15.5188 83.6034 14.4433 82.6789 12.7075 82.6789H9.44335V87.9996Z" fill="white"/>
<path fill-rule="evenodd" clip-rule="evenodd" d="M24.9528 92.7356C24.5754 93.9243 23.5943 94.8866 21.8207 94.8866C20.066 94.8866 18.7641 93.9432 18.7641 92.2639C18.7641 89.8488 21.5188 89.396 23.3867 89.113C24.6886 88.9243 25.0094 88.8488 25.0094 88.2451C25.0094 87.2828 24.1603 86.6413 22.9905 86.6413C21.5188 86.6413 20.8207 87.6224 20.5754 88.3205L19.1981 87.5847C19.5754 86.5658 20.6886 85.3205 22.9905 85.3205C25.0471 85.3205 26.6131 86.3394 26.5377 88.7168L26.4245 92.6601C26.4056 93.2262 26.5943 93.6224 27.2358 93.5469V94.83C27.0849 94.8488 26.9339 94.8677 26.8773 94.8677C25.3301 94.8677 24.9716 94.1696 24.9716 92.7356H24.9528ZM20.3681 92.2069C20.3681 93.0937 20.9153 93.5654 21.9341 93.5654C23.8209 93.5654 24.953 92.0183 24.9907 90.6409L25.0096 89.7541C24.8021 89.9994 24.387 90.1692 23.8587 90.2636C23.8123 90.2724 23.7664 90.2812 23.7209 90.2899C21.5448 90.7065 20.3681 90.9317 20.3681 92.2069Z" fill="white"/>
<path d="M30.7452 94.6224V89.962C30.7452 87.679 31.6886 86.8677 32.6886 86.8677C33.0282 86.8677 33.4245 86.9431 33.7641 87.1318L34.066 85.6413C33.7264 85.4337 33.2924 85.3205 32.8962 85.3205C31.7452 85.3205 31.0848 86.2262 30.7452 87.0375V85.6035H29.1414V94.6224H30.7452Z" fill="white"/>
<path d="M39.1981 94.8675C39.8585 94.8675 40.3491 94.6977 40.8019 94.509L40.4623 93.2637C40.1227 93.4335 39.7264 93.4901 39.4623 93.4901C38.7642 93.4901 38.5 93.1317 38.5 92.5467V86.9241H40.6698V85.6033H38.5V82.8486L36.9151 83.1883V85.0373C36.9151 85.4524 36.7642 85.6033 36.3491 85.6033H35.1604V86.9241H36.9151V92.8298C36.9151 93.943 37.6698 94.8675 39.1981 94.8675Z" fill="white"/>
<path d="M44.2358 94.6224V89.8299C44.2358 87.8111 45.3867 86.7167 46.7452 86.7167C47.915 86.7167 48.5377 87.4903 48.5377 88.6601V94.6224H50.1414V88.3582C50.1414 86.2262 48.6886 85.3205 47.1226 85.3205C45.9339 85.3205 44.783 85.7922 44.2547 87.0563H44.2358V85.6035H42.632V94.6224H44.2358Z" fill="white"/>
<path fill-rule="evenodd" clip-rule="evenodd" d="M60.066 92.3205C59.5943 93.5281 58.4245 94.8866 56.2358 94.8866C53.8396 94.8866 51.9716 93.2828 51.9716 90.1696C51.9716 87.1319 53.7452 85.3205 56.3113 85.3205C58.6697 85.3205 60.1414 86.8488 60.1414 89.679V90.4337H53.5754C53.632 92.113 54.5943 93.5281 56.2735 93.5281C57.7264 93.5281 58.4999 92.5281 58.783 91.6979L60.066 92.3205ZM53.6318 89.2069H58.5374C58.4242 87.6974 57.7827 86.6408 56.1601 86.6408C54.5941 86.6408 53.8393 87.7541 53.6318 89.2069Z" fill="white"/>
<path d="M63.7264 94.6224V89.962C63.7264 87.679 64.6698 86.8677 65.6698 86.8677C66.0094 86.8677 66.4056 86.9431 66.7452 87.1318L67.0471 85.6413C66.7075 85.4337 66.2735 85.3205 65.8773 85.3205C64.7264 85.3205 64.066 86.2262 63.7264 87.0375V85.6035H62.1226V94.6224H63.7264Z" fill="white"/>
</svg>
