<svg width="250" height="100" viewBox="0 0 250 100" fill="none" xmlns="http://www.w3.org/2000/svg">
<path fill-rule="evenodd" clip-rule="evenodd" d="M71.0309 61.9407C71.0309 61.9407 71.9221 61.0973 71.9221 60.2976V57.6347C71.9221 56.3014 70.9099 57.0191 70.9099 57.0191C68.2019 58.7212 60.2936 63.0581 50.0358 63.0581C39.7775 63.0581 31.8706 58.7212 29.1617 57.0191C29.1617 57.0191 28.1489 56.3014 28.1489 57.6347V60.2976C28.1489 61.0973 29.0406 61.9407 29.0406 61.9407C31.7135 64.0276 40.082 69.8738 50.0358 69.8787C59.9886 69.8738 68.3532 64.0276 71.0309 61.9407ZM37.1627 30.7178C37.1627 30.7178 29.3643 30.727 29.3643 37.2663C29.3643 43.81 37.1627 43.8193 37.1627 43.8193C37.1627 43.8193 44.9612 43.81 44.9612 37.2663C44.9612 30.727 37.1627 30.7178 37.1627 30.7178ZM70.3086 35.1359C70.3086 34.6594 69.7037 34.5103 69.7037 34.5103C67.1792 33.8475 64.6771 33.4768 62.2029 33.4236C59.8719 33.3826 57.5492 33.6134 55.23 34.1193C55.23 34.1193 54.6523 34.2982 54.6523 34.8077V39.947C54.6523 40.9009 55.3232 40.6408 55.3232 40.6408C57.5043 40.3301 59.6376 40.1949 62.1848 40.242C64.6503 40.2947 67.2509 40.5327 69.555 40.9566C69.555 40.9566 70.3086 41.1364 70.3086 40.3316V35.1359ZM73.4396 84.7163C73.4396 84.7163 63.9566 86.1863 50 86.1863C36.042 86.1863 26.5599 84.7163 26.5599 84.7163C20.5865 83.9942 15.9819 79.2922 15.2564 73.3188C15.2564 73.3188 13.8135 62.6652 13.8135 49.9988C13.8135 37.3321 15.2564 26.6788 15.2564 26.6788C15.9819 20.7064 20.5865 16.0049 26.5599 15.2842C26.5599 15.2842 36.042 13.8125 50 13.8125C63.9566 13.8125 73.4396 15.2842 73.4396 15.2842C79.4135 16.0049 84.0186 20.7064 84.7431 26.6788C84.7431 26.6788 86.1883 37.3321 86.1883 49.9988C86.1883 62.6652 84.7431 73.3188 84.7431 73.3188C84.0186 79.2922 79.4135 83.9942 73.4396 84.7163ZM82.3856 2.03228C82.3856 2.03228 69.2846 0 49.9999 0C30.7144 0 17.6124 2.03228 17.6124 2.03228C9.35832 3.02769 2.99596 9.52597 1.99446 17.7776C1.99446 17.7776 0 32.4987 0 49.9991C0 67.5008 1.99446 82.2214 1.99446 82.2214C2.99596 90.4735 9.35832 96.9706 17.6124 97.9675C17.6124 97.9675 30.7144 100 49.9999 100C69.2846 100 82.3856 97.9675 82.3856 97.9675C90.6414 96.9706 97.0033 90.4735 98.0053 82.2214C98.0053 82.2214 100 67.5008 100 49.9991C100 32.4987 98.0053 17.7776 98.0053 17.7776C97.0033 9.52597 90.6414 3.02769 82.3856 2.03228Z" fill="#FFC421"/>
<path fill-rule="evenodd" clip-rule="evenodd" d="M130.667 61.7503C135.967 61.7503 139.167 59.2503 139.167 55.117C139.167 52.517 137.933 50.217 134.833 49.0503V48.9503C137.067 47.9837 138.3 46.1503 138.3 43.7503C138.3 40.1837 135.567 37.917 130.7 37.917H120V61.7503H130.667ZM130.133 47.4505H125.233V42.1172H130.167C131.7 42.1172 132.833 42.9839 132.833 44.7839C132.833 46.5172 131.7 47.4505 130.133 47.4505ZM125.233 57.4173H130.867C132.533 57.4173 133.7 56.2839 133.7 54.4506C133.7 52.5839 132.5 51.3506 130.767 51.3506H125.233V57.4173Z" fill="#291D18"/>
<path d="M147 62.217C149.133 62.217 150.7 61.2837 151.7 59.7837H151.733V61.7503H156.733V45.617H151.733V54.2837C151.733 57.0503 150.367 58.1503 148.733 58.1503C147.267 58.1503 146.467 57.1503 146.467 55.6837V45.617H141.5V56.8503C141.5 60.717 144.3 62.217 147 62.217Z" fill="#291D18"/>
<path d="M166.434 62.3166C171.5 62.3166 173.5 59.7833 173.5 56.8499C173.5 53.4499 170.633 52.4499 168 51.8166C166 51.3499 164.5 51.1499 164.5 49.9166C164.5 49.0833 165.167 48.5166 166.233 48.5166C167.9 48.5166 168.967 49.7833 169.434 50.7499L173.5 49.3499C172.867 47.4166 170.8 45.0166 166.2 45.0166C162.033 45.0166 159.367 46.9833 159.367 50.3499C159.367 53.5186 161.729 54.5022 164.286 55.135L164.526 55.1933C164.606 55.2125 164.686 55.2313 164.767 55.2499C166.8 55.7166 168.4 56.0166 168.4 57.3499C168.4 58.2499 167.633 58.7499 166.434 58.7499C164.367 58.7499 163.4 57.3499 163.1 56.2166L158.833 57.5499C159.333 59.8166 161.467 62.3166 166.434 62.3166Z" fill="#291D18"/>
<path d="M178.4 43.8841C180.267 43.8841 181.6 42.5841 181.6 40.9508C181.6 39.3508 180.267 38.0508 178.4 38.0508C176.6 38.0508 175.2 39.2508 175.2 40.9508C175.2 42.6508 176.567 43.8841 178.4 43.8841Z" fill="#291D18"/>
<path d="M180.867 61.7503V45.617H175.9V61.7503H180.867Z" fill="#291D18"/>
<path d="M188.867 61.7503V53.1837C188.867 50.3503 190.2 49.217 191.867 49.217C193.367 49.217 194.133 50.2837 194.133 51.7503V61.7503H199.1V50.517C199.1 46.6503 196.467 45.1503 193.7 45.1503C191.467 45.1503 189.733 46.2503 188.9 47.6503H188.867V45.617H183.9V61.7503H188.867Z" fill="#291D18"/>
<path fill-rule="evenodd" clip-rule="evenodd" d="M217.2 57.9833C216.367 60.0166 214 62.3166 209.867 62.3166C205.3 62.3166 201.367 59.5499 201.367 53.7499C201.367 48.1166 205 45.0166 209.933 45.0166C214.833 45.0166 217.6 48.0833 217.6 53.3833V55.0833H206.5C206.633 56.9833 208.133 58.2499 210.067 58.2499C211.933 58.2499 212.9 57.0833 213.267 55.9833L217.2 57.9833ZM206.667 51.8173H212.433C212.367 49.7507 211.5 48.584 209.633 48.584C207.8 48.584 206.767 49.8507 206.667 51.8173Z" fill="#291D18"/>
<path d="M226.633 62.3166C231.7 62.3166 233.7 59.7833 233.7 56.8499C233.7 53.4499 230.833 52.4499 228.2 51.8166C226.2 51.3499 224.7 51.1499 224.7 49.9166C224.7 49.0833 225.367 48.5166 226.433 48.5166C228.1 48.5166 229.167 49.7833 229.633 50.7499L233.7 49.3499C233.067 47.4166 231 45.0166 226.4 45.0166C222.233 45.0166 219.567 46.9833 219.567 50.3499C219.567 53.5186 221.929 54.5022 224.485 55.135L224.726 55.1933C224.806 55.2125 224.886 55.2313 224.967 55.2499C227 55.7166 228.6 56.0166 228.6 57.3499C228.6 58.2499 227.833 58.7499 226.633 58.7499C224.567 58.7499 223.6 57.3499 223.3 56.2166L219.033 57.5499C219.533 59.8166 221.667 62.3166 226.633 62.3166Z" fill="#291D18"/>
<path d="M242.633 62.3166C247.7 62.3166 249.7 59.7833 249.7 56.8499C249.7 53.4499 246.833 52.4499 244.2 51.8166C242.2 51.3499 240.7 51.1499 240.7 49.9166C240.7 49.0833 241.367 48.5166 242.433 48.5166C244.1 48.5166 245.167 49.7833 245.633 50.7499L249.7 49.3499C249.067 47.4166 247 45.0166 242.4 45.0166C238.233 45.0166 235.567 46.9833 235.567 50.3499C235.567 53.5186 237.929 54.5022 240.485 55.135L240.726 55.1933C240.806 55.2125 240.886 55.2313 240.967 55.2499C243 55.7166 244.6 56.0166 244.6 57.3499C244.6 58.2499 243.833 58.7499 242.633 58.7499C240.567 58.7499 239.6 57.3499 239.3 56.2166L235.033 57.5499C235.533 59.8166 237.667 62.3166 242.633 62.3166Z" fill="#291D18"/>
</svg>
