<svg width="251" height="100" viewBox="0 0 251 100" fill="none" xmlns="http://www.w3.org/2000/svg">
<path fill-rule="evenodd" clip-rule="evenodd" d="M132.267 25.95V45.0833H127.067V25.95H120V21.25H139.367V25.95H132.267ZM156.667 41.3167C155.833 43.35 153.467 45.65 149.333 45.65C144.767 45.65 140.833 42.8833 140.833 37.0833C140.833 31.45 144.467 28.35 149.4 28.35C154.3 28.35 157.067 31.4167 157.067 36.7167V38.4167H145.967C146.1 40.3167 147.6 41.5833 149.533 41.5833C151.4 41.5833 152.367 40.4167 152.733 39.3167L156.667 41.3167ZM151.9 35.1498H146.133C146.233 33.1832 147.267 31.9165 149.1 31.9165C150.967 31.9165 151.833 33.0832 151.9 35.1498ZM164.533 21.25V45.0833H159.567V21.25H164.533ZM175.3 45.65C179.433 45.65 181.8 43.35 182.633 41.3167L178.7 39.3167C178.333 40.4167 177.367 41.5833 175.5 41.5833C173.567 41.5833 172.067 40.3167 171.933 38.4167H183.033V36.7167C183.033 31.4167 180.267 28.35 175.367 28.35C170.433 28.35 166.8 31.45 166.8 37.0833C166.8 42.8833 170.733 45.65 175.3 45.65ZM172.1 35.1498H177.867C177.8 33.0832 176.933 31.9165 175.067 31.9165C173.233 31.9165 172.2 33.1832 172.1 35.1498ZM190.5 45.0835V36.5168C190.5 33.6835 191.833 32.5501 193.5 32.5501C195 32.5501 195.767 33.6168 195.767 35.0835V45.0835H200.733V33.8501C200.733 29.9835 198.1 28.4835 195.333 28.4835C193.1 28.4835 191.367 29.5835 190.533 30.9835H190.5V28.9501H185.533V45.0835H190.5ZM218.833 41.3167C218 43.35 215.633 45.65 211.5 45.65C206.933 45.65 203 42.8833 203 37.0833C203 31.45 206.633 28.35 211.567 28.35C216.467 28.35 219.233 31.4167 219.233 36.7167V38.4167H208.133C208.267 40.3167 209.767 41.5833 211.7 41.5833C213.567 41.5833 214.533 40.4167 214.9 39.3167L218.833 41.3167ZM214.067 35.1498H208.3C208.4 33.1832 209.433 31.9165 211.267 31.9165C213.133 31.9165 214 33.0832 214.067 35.1498ZM232.567 44.7501C231.5 45.3168 230.3 45.5501 229.033 45.5501C225.467 45.5501 223.8 43.7168 223.8 41.4835V32.9168H220.767V28.9501H222.567C223.4 28.9501 223.8 28.5501 223.8 27.7168V24.5501L228.767 23.4835V28.9501H232.6V32.9168H228.767V40.3168C228.767 41.0501 229.133 41.4835 230.1 41.4835C230.467 41.4835 231.067 41.3835 231.567 41.1168L232.567 44.7501ZM131.967 78.4167C137.267 78.4167 140.467 75.9167 140.467 71.7833C140.467 69.1833 139.233 66.8833 136.133 65.7167V65.6167C138.367 64.65 139.6 62.8167 139.6 60.4167C139.6 56.85 136.867 54.5833 132 54.5833H121.3V78.4167H131.967ZM126.533 64.1167H131.433C133 64.1167 134.133 63.1833 134.133 61.45C134.133 59.65 133 58.7833 131.467 58.7833H126.533V64.1167ZM132.167 74.0833H126.533V68.0167H132.067C133.8 68.0167 135 69.25 135 71.1167C135 72.95 133.833 74.0833 132.167 74.0833ZM153 76.4502C152 77.9502 150.433 78.8835 148.3 78.8835C145.6 78.8835 142.8 77.3835 142.8 73.5169V62.2835H147.767V72.3502C147.767 73.8169 148.567 74.8169 150.033 74.8169C151.667 74.8169 153.033 73.7169 153.033 70.9502V62.2835H158.033V78.4169H153.033V76.4502H153ZM167.733 78.9833C172.8 78.9833 174.8 76.45 174.8 73.5167C174.8 70.1167 171.933 69.1167 169.3 68.4833C169.099 68.4364 168.903 68.3923 168.713 68.3494L168.712 68.3491C167.013 67.966 165.8 67.6923 165.8 66.5833C165.8 65.75 166.467 65.1833 167.533 65.1833C169.2 65.1833 170.267 66.45 170.733 67.4167L174.8 66.0167C174.167 64.0833 172.1 61.6833 167.5 61.6833C163.333 61.6833 160.667 63.65 160.667 67.0167C160.667 70.1853 163.029 71.1689 165.586 71.8017L165.826 71.86L165.939 71.8868L166.067 71.9167L166.346 71.9805C168.245 72.4133 169.7 72.7451 169.7 74.0167C169.7 74.9167 168.933 75.4167 167.733 75.4167C165.667 75.4167 164.7 74.0167 164.4 72.8833L160.133 74.2167C160.633 76.4833 162.767 78.9833 167.733 78.9833ZM182.9 57.6168C182.9 59.2501 181.567 60.5501 179.7 60.5501C177.867 60.5501 176.5 59.3168 176.5 57.6168C176.5 55.9168 177.9 54.7168 179.7 54.7168C181.567 54.7168 182.9 56.0168 182.9 57.6168ZM182.167 78.4169V62.2835H177.2V78.4169H182.167ZM190.167 69.8501V78.4168H185.2V62.2835H190.167V64.3168H190.2C191.033 62.9168 192.767 61.8168 195 61.8168C197.767 61.8168 200.4 63.3168 200.4 67.1835V78.4168H195.433V68.4168C195.433 66.9501 194.667 65.8835 193.167 65.8835C191.5 65.8835 190.167 67.0168 190.167 69.8501ZM211.167 78.9833C215.3 78.9833 217.667 76.6833 218.5 74.65L214.567 72.65C214.2 73.75 213.233 74.9167 211.367 74.9167C209.433 74.9167 207.933 73.65 207.8 71.75H218.9V70.05C218.9 64.75 216.133 61.6833 211.233 61.6833C206.3 61.6833 202.667 64.7833 202.667 70.4167C202.667 76.2167 206.6 78.9833 211.167 78.9833ZM207.967 68.4832H213.733C213.667 66.4165 212.8 65.2498 210.933 65.2498C209.1 65.2498 208.067 66.5165 207.967 68.4832ZM227.933 78.9833C233 78.9833 235 76.45 235 73.5167C235 70.1167 232.133 69.1167 229.5 68.4833C229.298 68.4363 229.102 68.3919 228.911 68.3489C227.213 67.9658 226 67.6923 226 66.5833C226 65.75 226.667 65.1833 227.733 65.1833C229.4 65.1833 230.467 66.45 230.933 67.4167L235 66.0167C234.367 64.0833 232.3 61.6833 227.7 61.6833C223.533 61.6833 220.867 63.65 220.867 67.0167C220.867 70.1853 223.229 71.1689 225.786 71.8017L226.026 71.86C226.106 71.8792 226.186 71.898 226.267 71.9167L226.546 71.9805C228.445 72.4133 229.9 72.7451 229.9 74.0167C229.9 74.9167 229.133 75.4167 227.933 75.4167C225.867 75.4167 224.9 74.0167 224.6 72.8833L220.333 74.2167C220.833 76.4833 222.967 78.9833 227.933 78.9833ZM251 73.5167C251 76.45 249 78.9833 243.933 78.9833C238.967 78.9833 236.833 76.4833 236.333 74.2167L240.6 72.8833C240.9 74.0167 241.867 75.4167 243.933 75.4167C245.133 75.4167 245.9 74.9167 245.9 74.0167C245.9 72.7451 244.445 72.4133 242.546 71.9805C242.454 71.9595 242.361 71.9383 242.267 71.9167C242.186 71.898 242.106 71.8792 242.026 71.86L241.786 71.8017C239.229 71.1689 236.867 70.1853 236.867 67.0167C236.867 63.65 239.533 61.6833 243.7 61.6833C248.3 61.6833 250.367 64.0833 251 66.0167L246.933 67.4167C246.467 66.45 245.4 65.1833 243.733 65.1833C242.667 65.1833 242 65.75 242 66.5833C242 67.6923 243.213 67.9658 244.911 68.3489C245.102 68.3919 245.298 68.4363 245.5 68.4833C248.133 69.1167 251 70.1167 251 73.5167Z" fill="#291D18"/>
<path fill-rule="evenodd" clip-rule="evenodd" d="M71.0309 61.9403C71.0309 61.9403 71.9221 61.0969 71.9221 60.2972V57.6344C71.9221 56.301 70.9099 57.0187 70.9099 57.0187C68.2019 58.7208 60.2936 63.0577 50.0358 63.0577C39.7774 63.0577 31.8706 58.7208 29.1616 57.0187C29.1616 57.0187 28.1489 56.301 28.1489 57.6344V60.2972C28.1489 61.0969 29.0406 61.9403 29.0406 61.9403C31.7135 64.0272 40.082 69.8735 50.0358 69.8783C59.9885 69.8735 68.3532 64.0272 71.0309 61.9403ZM37.1627 30.7182C37.1627 30.7182 29.3642 30.7275 29.3642 37.2667C29.3642 43.8104 37.1627 43.8197 37.1627 43.8197C37.1627 43.8197 44.9612 43.8104 44.9612 37.2667C44.9612 30.7275 37.1627 30.7182 37.1627 30.7182ZM70.3086 35.1362C70.3086 34.6596 69.7036 34.5105 69.7036 34.5105C67.1791 33.8478 64.6771 33.4771 62.2029 33.4239C59.8719 33.3829 57.5492 33.6137 55.2299 34.1196C55.2299 34.1196 54.6523 34.2985 54.6523 34.808V39.9473C54.6523 40.9012 55.3232 40.6411 55.3232 40.6411C57.5043 40.3304 59.6376 40.1952 62.1848 40.2423C64.6502 40.295 67.2509 40.533 69.555 40.9568C69.555 40.9568 70.3086 41.1367 70.3086 40.3319V35.1362ZM73.4394 84.7164C73.4394 84.7164 63.9564 86.1865 49.9998 86.1865C36.0418 86.1865 26.5597 84.7164 26.5597 84.7164C20.5863 83.9943 15.9817 79.2924 15.2562 73.319C15.2562 73.319 13.8133 62.6654 13.8133 49.999C13.8133 37.3323 15.2562 26.6789 15.2562 26.6789C15.9817 20.7065 20.5863 16.005 26.5597 15.2844C26.5597 15.2844 36.0418 13.8127 49.9998 13.8127C63.9564 13.8127 73.4394 15.2844 73.4394 15.2844C79.4133 16.005 84.0184 20.7065 84.7429 26.6789C84.7429 26.6789 86.1881 37.3323 86.1881 49.999C86.1881 62.6654 84.7429 73.319 84.7429 73.319C84.0184 79.2924 79.4133 83.9943 73.4394 84.7164ZM82.3856 2.03228C82.3856 2.03228 69.2846 0 49.9999 0C30.7144 0 17.6124 2.03228 17.6124 2.03228C9.35832 3.02769 2.99596 9.52597 1.99446 17.7776C1.99446 17.7776 0 32.4987 0 49.9991C0 67.5008 1.99446 82.2214 1.99446 82.2214C2.99596 90.4735 9.35832 96.9706 17.6124 97.9675C17.6124 97.9675 30.7144 100 49.9999 100C69.2846 100 82.3856 97.9675 82.3856 97.9675C90.6414 96.9706 97.0033 90.4735 98.0053 82.2214C98.0053 82.2214 100 67.5008 100 49.9991C100 32.4987 98.0053 17.7776 98.0053 17.7776C97.0033 9.52597 90.6414 3.02769 82.3856 2.03228Z" fill="#FFC421"/>
</svg>
