<svg xmlns="http://www.w3.org/2000/svg" width="24" height="24" fill="none"><path fill="#291D18" d="M7.63 3.5c-.35 0-.685.147-.922.405l-1.63 1.778a1.25 1.25 0 0 0-.328.845V7.5h3.036c.635 0 1.25.22 1.741.622l.729.595c.223.183.503.283.791.283H13.6l.48-.72a1.75 1.75 0 0 1 1.456-.78h.05c.465 0 .91.184 1.238.513l.414.414a.25.25 0 0 0 .177.073H19a.25.25 0 0 0 .25-.25v-4A.25.25 0 0 0 19 4h-1.586a.25.25 0 0 0-.177.073l-.707.707a.75.75 0 0 1-.528.22h-.467a1.75 1.75 0 0 1-1.456-.78l-.48-.72zm6.358 7h-.178l.855 9.616A1.75 1.75 0 0 1 12.92 22h-1.84a1.75 1.75 0 0 1-1.745-1.884l.865-9.75a2.8 2.8 0 0 1-.894-.488l-.728-.595A1.25 1.25 0 0 0 7.786 9H3.25V6.528c0-.688.258-1.351.723-1.858l1.63-1.778A2.75 2.75 0 0 1 7.63 2h6.358a.75.75 0 0 1 .636.334l.703 1.055a.25.25 0 0 0 .208.111h.154l.488-.487a1.75 1.75 0 0 1 1.237-.513H19c.966 0 1.75.784 1.75 1.75v4A1.75 1.75 0 0 1 19 10h-1.586a1.75 1.75 0 0 1-1.237-.513l-.414-.414A.25.25 0 0 0 15.586 9h-.05a.25.25 0 0 0-.209.111l-.703 1.055a.75.75 0 0 1-.636.334m-1.682 0h-.611l-.864 9.73a.25.25 0 0 0 .249.27h1.84a.25.25 0 0 0 .25-.27z"/></svg>