<svg xmlns="http://www.w3.org/2000/svg" width="24" height="24" fill="none"><path fill="#291D18" d="M17.488 3.667c2.127 0 3.297 1.083 3.723 3.25l.531 2.708c.532 3.25.426 4.875-2.127 4.875h-2.127c-2.127 0-2.43.542-2.658 2.167l-.023.165C14.62 18.18 14.232 21 12.703 21c-1.63 0-1.634-1.648-1.636-2.992 0-.273-.001-.534-.015-.765-.069-1.119-.21-2.47-.476-3.285a11 11 0 0 0-.407-1.088 20 20 0 0 0-.348-.723C9.417 11.334 9 10.497 9 9.62V6.667a3 3 0 0 1 3-3zM2 12a2 2 0 0 0 2 2h1a2 2 0 0 0 2-2V4a2 2 0 0 0-2-2H4a2 2 0 0 0-2 2z"/></svg>