<svg xmlns="http://www.w3.org/2000/svg" width="24" height="24" fill="none"><path fill="#291D18" d="M19.086 4.906A9.92 9.92 0 0 0 12.042 2c-5.49 0-9.957 4.445-9.958 9.91a9.85 9.85 0 0 0 1.329 4.954L2 22l5.28-1.378a10 10 0 0 0 4.758 1.206h.004c5.488 0 9.956-4.446 9.958-9.91a9.83 9.83 0 0 0-2.914-7.011m-7.044 15.248h-.003a8.3 8.3 0 0 1-4.213-1.148l-.302-.178-3.133.817.836-3.04-.197-.311a8.2 8.2 0 0 1-1.265-4.384c.002-4.541 3.715-8.236 8.28-8.236a8.24 8.24 0 0 1 5.852 2.416 8.17 8.17 0 0 1 2.422 5.827c-.002 4.542-3.715 8.237-8.277 8.237m4.54-6.169c-.249-.124-1.472-.722-1.7-.805-.229-.083-.394-.124-.56.124s-.643.806-.788.97c-.145.166-.29.187-.539.063s-1.05-.386-2.001-1.23c-.74-.656-1.24-1.467-1.384-1.715-.145-.248-.016-.382.109-.505.111-.111.248-.29.373-.434s.166-.248.249-.413.041-.31-.02-.434c-.063-.124-.56-1.342-.768-1.838-.202-.483-.407-.417-.56-.425a10 10 0 0 0-.477-.009.92.92 0 0 0-.663.31c-.229.248-.871.847-.871 2.066s.891 2.396 1.016 2.561c.124.166 1.754 2.667 4.25 3.74.594.255 1.057.407 1.419.521.596.19 1.138.163 1.567.099.478-.072 1.472-.6 1.68-1.178s.207-1.074.144-1.177c-.062-.103-.228-.166-.477-.29"/></svg>