<svg width="167" height="358" viewBox="0 0 167 358" fill="none" xmlns="http://www.w3.org/2000/svg">
<path d="M1016.96 192.81C1005.95 103.291 937.086 33.0532 847.567 22.0354C847.567 22.0354 704.337 0 495 0C285.663 0 142.433 22.0354 142.433 22.0354C52.9139 33.0532 -15.9468 103.291 -26.9646 192.81C-26.9646 192.81 -49 353.944 -49 544C-49 734.056 -26.9646 895.19 -26.9646 895.19C-15.9468 984.709 52.9139 1054.95 142.433 1065.96C142.433 1065.96 285.663 1088 495 1088C704.337 1088 847.567 1065.96 847.567 1065.96C937.086 1054.95 1007.32 984.709 1016.96 895.19C1016.96 895.19 1039 734.056 1039 544C1039 353.944 1016.96 192.81 1016.96 192.81ZM873.734 798.785C865.471 863.514 815.891 914.471 751.162 922.734C751.162 922.734 647.871 939.261 495 939.261C342.129 939.261 238.838 922.734 238.838 922.734C174.109 914.471 123.152 864.891 116.266 798.785C116.266 798.785 99.7392 683.099 99.7392 544C99.7392 406.278 116.266 289.215 116.266 289.215C124.529 224.486 174.109 173.529 238.838 165.266C238.838 165.266 342.129 148.739 495 148.739C647.871 148.739 751.162 165.266 751.162 165.266C815.891 173.529 866.848 223.109 873.734 289.215C873.734 289.215 890.261 404.901 890.261 544C888.883 681.721 873.734 798.785 873.734 798.785Z" fill="url(#paint0_linear_644_29458)" fill-opacity="0.32"/>
<defs>
<linearGradient id="paint0_linear_644_29458" x1="-14" y1="-19" x2="171" y2="342" gradientUnits="userSpaceOnUse">
<stop stop-color="white"/>
<stop offset="1" stop-color="white" stop-opacity="0"/>
</linearGradient>
</defs>
</svg>
