<?xml version="1.0" encoding="UTF-8"?>
<svg width="314px" height="352px" viewBox="0 0 314 352" version="1.1" xmlns="http://www.w3.org/2000/svg" xmlns:xlink="http://www.w3.org/1999/xlink">
    <title>Illustrations/C5/EasySwitch</title>
    <g id="🟢-All-Journeys" stroke="none" stroke-width="1" fill="none" fill-rule="evenodd">
        <g id="Internet-and-DTV-Easy-Switch---10.00" transform="translate(-245.000000, -273.000000)">
            <g id="Illustrations/C5/EasySwitch" transform="translate(223.000000, 271.000000)">
                <g id="Group-62" transform="translate(68.447368, 44.289474)">
                    <path d="M1.64250942,107.189301 C1.0405217,107.189301 0.554579805,106.703022 0.554579805,106.100616 L0.554579805,9.49067694 C0.554579805,4.29401884 4.77574672,0.0699196462 9.96879742,0.0699196462 L106.53343,0.0699196462 C107.135418,0.0699196462 107.62136,0.556199106 107.62136,1.158605 C107.62136,1.7610109 107.135418,2.24729036 106.53343,2.24729036 L9.96879742,2.24729036 C5.97609573,2.24729036 2.73043904,5.49883063 2.73043904,9.49067694 L2.73043904,106.100616 C2.73043904,106.703022 2.24449714,107.189301 1.64250942,107.189301" id="Fill-1" fill="#575756"></path>
                    <path d="M115.476937,51.8017076 L34.8287144,51.8017076 C34.4298069,51.8017076 34.103428,51.475102 34.103428,51.0759174 C34.103428,50.6731038 34.4298069,50.3501271 34.8287144,50.3501271 L115.476937,50.3501271 C115.875844,50.3501271 116.202223,50.6731038 116.202223,51.0759174 C116.202223,51.475102 115.875844,51.8017076 115.476937,51.8017076" id="Fill-3" fill="#8C8D8E"></path>
                    <path d="M110.497483,69.6202208 L34.8283518,69.6202208 C34.4294443,69.6202208 34.1030654,69.2936152 34.1030654,68.8944306 C34.1030654,68.491617 34.4294443,68.1686404 34.8283518,68.1686404 L110.497483,68.1686404 C110.896391,68.1686404 111.222769,68.491617 111.222769,68.8944306 C111.222769,69.2936152 110.896391,69.6202208 110.497483,69.6202208" id="Fill-5" fill="#8C8D8E"></path>
                    <path d="M100.680731,87.439097 L34.8283518,87.439097 C34.4294443,87.439097 34.1030654,87.1124914 34.1030654,86.7133068 C34.1030654,86.3104932 34.4294443,85.9875165 34.8283518,85.9875165 L100.680731,85.9875165 C101.079639,85.9875165 101.406018,86.3104932 101.406018,86.7133068 C101.406018,87.1124914 101.079639,87.439097 100.680731,87.439097" id="Fill-7" fill="#8C8D8E"></path>
                    <path d="M82.2918198,105.257973 L34.8290771,105.257973 C34.4301696,105.257973 34.1037907,104.931368 34.1037907,104.532183 C34.1037907,104.129369 34.4301696,103.806393 34.8290771,103.806393 L82.2918198,103.806393 C82.6907274,103.806393 83.0171062,104.129369 83.0171062,104.532183 C83.0171062,104.931368 82.6907274,105.257973 82.2918198,105.257973" id="Fill-9" fill="#8C8D8E"></path>
                    <path d="M143.217521,75.5208376 L119.06762,75.5208376 C118.692968,75.5208376 118.392571,75.194706 118.392571,74.7961007 C118.392571,74.3938718 118.692968,74.0713639 119.06762,74.0713639 L143.217521,74.0713639 C143.588798,74.0713639 143.892571,74.3938718 143.892571,74.7961007 C143.892571,75.194706 143.588798,75.5208376 143.217521,75.5208376" id="Fill-11" fill="#8C8D8E"></path>
                    <path d="M143.167284,67.5118002 L120.944509,67.5118002 C120.545601,67.5118002 120.219222,67.1851946 120.219222,66.78601 C120.219222,66.3831964 120.545601,66.0602197 120.944509,66.0602197 L143.167284,66.0602197 C143.566192,66.0602197 143.892571,66.3831964 143.892571,66.78601 C143.892571,67.1851946 143.566192,67.5118002 143.167284,67.5118002" id="Fill-13" fill="#8C8D8E"></path>
                    <path d="M143.167284,59.499076 L123.301689,59.499076 C122.902782,59.499076 122.576403,59.1724704 122.576403,58.7732857 C122.576403,58.3704721 122.902782,58.0474955 123.301689,58.0474955 L143.167284,58.0474955 C143.566192,58.0474955 143.892571,58.3704721 143.892571,58.7732857 C143.892571,59.1724704 143.566192,59.499076 143.167284,59.499076" id="Fill-15" fill="#8C8D8E"></path>
                    <path d="M123.218719,99.7082181 L102.011344,99.7082181 C101.612436,99.7082181 101.286057,99.3816125 101.286057,98.9824278 C101.286057,98.5796143 101.612436,98.2566376 102.011344,98.2566376 L123.218719,98.2566376 C123.617626,98.2566376 123.944005,98.5796143 123.944005,98.9824278 C123.944005,99.3816125 123.617626,99.7082181 123.218719,99.7082181" id="Fill-17" fill="#8C8D8E"></path>
                    <path d="M143.127111,91.691807 L108.425015,91.691807 C108.000185,91.691807 107.655728,91.3656754 107.655728,90.9670701 C107.655728,90.5648412 108.000185,90.2423333 108.425015,90.2423333 L143.127111,90.2423333 C143.548114,90.2423333 143.892571,90.5648412 143.892571,90.9670701 C143.892571,91.3656754 143.548114,91.691807 143.127111,91.691807" id="Fill-19" fill="#8C8D8E"></path>
                    <path d="M143.167284,83.6827696 L114.503965,83.6827696 C114.101431,83.6827696 113.778679,83.356164 113.778679,82.9569794 C113.778679,82.5541658 114.101431,82.2311891 114.503965,82.2311891 L143.167284,82.2311891 C143.566192,82.2311891 143.892571,82.5541658 143.892571,82.9569794 C143.892571,83.356164 143.566192,83.6827696 143.167284,83.6827696" id="Fill-21" fill="#8C8D8E"></path>
                    <path d="M107.441675,158.892783 L35.2357863,158.892783 C34.8151202,158.892783 34.4706092,158.548033 34.4706092,158.127074 C34.4706092,157.706116 34.8151202,157.361366 35.2357863,157.361366 L107.441675,157.361366 C107.862341,157.361366 108.206852,157.706116 108.206852,158.127074 C108.206852,158.548033 107.862341,158.892783 107.441675,158.892783" id="Fill-23" fill="#8C8D8E"></path>
                    <path d="M107.757175,150.880059 L35.2357863,150.880059 C34.8151202,150.880059 34.4706092,150.535309 34.4706092,150.11435 C34.4706092,149.693392 34.8151202,149.348641 35.2357863,149.348641 L107.757175,149.348641 C108.177841,149.348641 108.522352,149.693392 108.522352,150.11435 C108.522352,150.535309 108.177841,150.880059 107.757175,150.880059" id="Fill-25" fill="#8C8D8E"></path>
                    <path d="M107.509127,142.864069 L35.2379622,142.864069 C34.8172961,142.864069 34.472785,142.519318 34.472785,142.09836 C34.472785,141.677402 34.8172961,141.332651 35.2379622,141.332651 L107.509127,141.332651 C107.929793,141.332651 108.274304,141.677402 108.274304,142.09836 C108.274304,142.519318 107.929793,142.864069 107.509127,142.864069" id="Fill-27" fill="#8C8D8E"></path>
                    <path d="M78.9208748,183.076477 L35.2368743,183.076477 C34.8162081,183.076477 34.4716971,182.731726 34.4716971,182.310768 C34.4716971,181.88981 34.8162081,181.545059 35.2368743,181.545059 L78.9208748,181.545059 C79.3415409,181.545059 79.686052,181.88981 79.686052,182.310768 C79.686052,182.731726 79.3415409,183.076477 78.9208748,183.076477" id="Fill-29" fill="#8C8D8E"></path>
                    <path d="M107.757175,175.063753 L35.2357863,175.063753 C34.8151202,175.063753 34.4706092,174.719002 34.4706092,174.298044 C34.4706092,173.877085 34.8151202,173.532335 35.2357863,173.532335 L107.757175,173.532335 C108.177841,173.532335 108.522352,173.877085 108.522352,174.298044 C108.522352,174.719002 108.177841,175.063753 107.757175,175.063753" id="Fill-31" fill="#8C8D8E"></path>
                    <path d="M107.509127,167.051028 L35.2379622,167.051028 C34.8172961,167.051028 34.472785,166.706278 34.472785,166.28532 C34.472785,165.864361 34.8172961,165.519611 35.2379622,165.519611 L107.509127,165.519611 C107.929793,165.519611 108.274304,165.864361 108.274304,166.28532 C108.274304,166.706278 107.929793,167.051028 107.509127,167.051028" id="Fill-33" fill="#8C8D8E"></path>
                    <path d="M203.613203,158.892783 L131.407314,158.892783 C130.986648,158.892783 130.642137,158.548033 130.642137,158.127074 C130.642137,157.706116 130.986648,157.361366 131.407314,157.361366 L203.613203,157.361366 C204.033869,157.361366 204.37838,157.706116 204.37838,158.127074 C204.37838,158.548033 204.033869,158.892783 203.613203,158.892783" id="Fill-35" fill="#8C8D8E"></path>
                    <path d="M203.928339,150.880059 L131.406951,150.880059 C130.986285,150.880059 130.641774,150.535309 130.641774,150.11435 C130.641774,149.693392 130.986285,149.348641 131.406951,149.348641 L203.928339,149.348641 C204.349006,149.348641 204.693517,149.693392 204.693517,150.11435 C204.693517,150.535309 204.349006,150.880059 203.928339,150.880059" id="Fill-37" fill="#8C8D8E"></path>
                    <path d="M203.680292,142.864069 L131.405501,142.864069 C130.984835,142.864069 130.640323,142.519318 130.640323,142.09836 C130.640323,141.677402 130.984835,141.332651 131.405501,141.332651 L203.680292,141.332651 C204.100958,141.332651 204.445469,141.677402 204.445469,142.09836 C204.445469,142.519318 204.100958,142.864069 203.680292,142.864069" id="Fill-39" fill="#8C8D8E"></path>
                    <path d="M163.625858,183.076477 L131.208871,183.076477 C130.896703,183.076477 130.641049,182.731726 130.641049,182.310768 C130.641049,181.88981 130.896703,181.545059 131.208871,181.545059 L163.625858,181.545059 C163.938026,181.545059 164.19368,181.88981 164.19368,182.310768 C164.19368,182.731726 163.938026,183.076477 163.625858,183.076477" id="Fill-41" fill="#8C8D8E"></path>
                    <path d="M203.928339,175.063753 L131.406951,175.063753 C130.986285,175.063753 130.641774,174.719002 130.641774,174.298044 C130.641774,173.877085 130.986285,173.532335 131.406951,173.532335 L203.928339,173.532335 C204.349006,173.532335 204.693517,173.877085 204.693517,174.298044 C204.693517,174.719002 204.349006,175.063753 203.928339,175.063753" id="Fill-43" fill="#8C8D8E"></path>
                    <path d="M203.680292,167.051028 L131.405501,167.051028 C130.984835,167.051028 130.640323,166.706278 130.640323,166.28532 C130.640323,165.864361 130.984835,165.519611 131.405501,165.519611 L203.680292,165.519611 C204.100958,165.519611 204.445469,165.864361 204.445469,166.28532 C204.445469,166.706278 204.100958,167.051028 203.680292,167.051028" id="Fill-45" fill="#8C8D8E"></path>
                    <path d="M35.2746972,235.295996 C34.8539898,235.295996 34.5097746,234.96939 34.5097746,234.570205 C34.5097746,234.167392 34.8539898,233.844415 35.2746972,233.844415 L202.850115,233.844415 C203.270823,233.844415 203.615038,234.167392 203.615038,234.570205 C203.615038,234.96939 203.270823,235.295996 202.850115,235.295996 L35.2746972,235.295996 Z" id="Fill-47" fill="#8C8D8E"></path>
                    <path d="M202.857194,227.283272 L35.2676184,227.283272 C34.8508043,227.283272 34.5097746,226.956666 34.5097746,226.557481 C34.5097746,226.154668 34.8508043,225.831691 35.2676184,225.831691 L202.857194,225.831691 C203.274008,225.831691 203.615038,226.154668 203.615038,226.557481 C203.615038,226.956666 203.274008,227.283272 202.857194,227.283272" id="Fill-49" fill="#8C8D8E"></path>
                    <path d="M202.862573,219.270184 L35.2660021,219.270184 C34.848384,219.270184 34.5097746,218.943579 34.5097746,218.544394 C34.5097746,218.141581 34.848384,217.818604 35.2660021,217.818604 L202.862573,217.818604 C203.276428,217.818604 203.615038,218.141581 203.615038,218.544394 C203.615038,218.943579 203.276428,219.270184 202.862573,219.270184" id="Fill-51" fill="#8C8D8E"></path>
                    <path d="M128.853218,259.482955 L35.2368743,259.482955 C34.8379667,259.482955 34.5115878,259.15635 34.5115878,258.757165 C34.5115878,258.354352 34.8379667,258.031375 35.2368743,258.031375 L128.853218,258.031375 C129.252125,258.031375 129.578504,258.354352 129.578504,258.757165 C129.578504,259.15635 129.252125,259.482955 128.853218,259.482955" id="Fill-53" fill="#8C8D8E"></path>
                    <path d="M202.839823,251.470231 L35.284989,251.470231 C34.8586211,251.470231 34.5097746,251.143626 34.5097746,250.744441 C34.5097746,250.341627 34.8586211,250.018651 35.284989,250.018651 L202.839823,250.018651 C203.266191,250.018651 203.615038,250.341627 203.615038,250.744441 C203.615038,251.143626 203.266191,251.470231 202.839823,251.470231" id="Fill-55" fill="#8C8D8E"></path>
                    <path d="M202.862573,243.457507 L35.2660021,243.457507 C34.848384,243.457507 34.5097746,243.130901 34.5097746,242.731717 C34.5097746,242.328903 34.848384,242.005926 35.2660021,242.005926 L202.862573,242.005926 C203.276428,242.005926 203.615038,242.328903 203.615038,242.731717 C203.615038,243.130901 203.276428,243.457507 202.862573,243.457507" id="Fill-57" fill="#8C8D8E"></path>
                </g>
                <path d="M106.352113,85.8947368 C106.876876,85.8947368 107.202001,85.5524999 107.202001,85.0847762 C107.202001,84.6170524 106.876876,84.2805195 106.352113,84.2805195 L104.424178,84.2805195 L104.424178,82.9172758 L105.992764,82.9172758 C106.517527,82.9172758 106.842652,82.569335 106.842652,82.1016112 C106.842652,81.6395914 106.517527,81.2973545 105.992764,81.2973545 L104.424178,81.2973545 L104.424178,80.1508609 L106.158178,80.1508609 C106.677238,80.1508609 107.008067,79.808624 107.008067,79.3351963 C107.008067,78.8731765 106.682942,78.5366435 106.158178,78.5366435 L103.488731,78.5366435 C102.963967,78.5366435 102.570395,78.8731765 102.570395,79.3351963 L102.570395,85.0847762 C102.570395,85.5524999 102.963967,85.8947368 103.488731,85.8947368 L106.352113,85.8947368 Z M113.086624,85.8947368 C113.582867,85.8947368 113.993552,85.4840526 113.993552,84.9706972 C113.993552,84.8452104 113.970736,84.7539472 113.9194,84.5942366 C113.850953,84.3432629 112.533341,80.356203 111.871683,79.0214791 C111.706268,78.6906501 111.369735,78.5366435 110.890604,78.5366435 C110.411472,78.5366435 110.052123,78.6849462 109.886709,79.0214791 C109.168011,80.475986 107.987294,84.1265129 107.838991,84.5942366 C107.787656,84.7539472 107.76484,84.8452104 107.76484,84.9706972 C107.76484,85.4840526 108.175524,85.8947368 108.671768,85.8947368 C109.105268,85.8947368 109.424689,85.6836908 109.590103,85.1931512 C109.664255,84.9764012 109.738406,84.7140195 109.823965,84.4231182 L111.934426,84.4231182 C112.019985,84.7140195 112.094137,84.9764012 112.168288,85.1931512 C112.333703,85.6836908 112.653124,85.8947368 113.086624,85.8947368 Z M111.386847,82.8089008 L110.36584,82.8089008 C110.525551,82.3183613 110.702373,81.7878941 110.879196,81.3030585 C111.056018,81.799302 111.227137,82.3183613 111.386847,82.8089008 Z M116.872194,85.9574803 C118.395148,85.9574803 119.46749,85.0163288 119.46749,83.6644931 C119.46749,81.2117953 116.529957,81.4399532 116.529957,80.5729531 C116.529957,80.2991636 116.763819,80.0881175 117.077536,80.0881175 C117.322806,80.0881175 117.533852,80.2021964 117.836161,80.4303544 C118.012983,80.5615452 118.246845,80.6356965 118.452187,80.6356965 C118.919911,80.6356965 119.296372,80.2592359 119.296372,79.7858082 C119.296372,79.5120187 119.170885,79.2781568 118.931319,79.0899265 C118.41226,78.6849462 117.73349,78.4739001 117.077536,78.4739001 C115.714292,78.4739001 114.647654,79.3808279 114.647654,80.5729531 C114.647654,82.9229798 117.585187,82.7803811 117.585187,83.6644931 C117.585187,84.0922892 117.322806,84.3432629 116.872194,84.3432629 C116.529957,84.3432629 116.290391,84.1493287 116.022305,83.9496905 C115.856891,83.8242036 115.623029,83.675901 115.354943,83.675901 C114.8587,83.675901 114.493647,84.0922892 114.493647,84.5371971 C114.493647,84.7824669 114.64195,85.0391446 114.875812,85.2273749 C115.457614,85.6950987 116.136384,85.9574803 116.872194,85.9574803 Z M122.427128,85.8947368 C122.946188,85.8947368 123.351168,85.541092 123.351168,85.0733683 L123.351168,83.0541706 C123.3968,83.0028351 123.436727,82.9572035 123.465247,82.9115719 C124.04705,82.0046441 124.6973,80.6414005 124.971089,80.0082622 C125.028129,79.8713674 125.1308,79.6089858 125.1308,79.4150516 C125.1308,78.9530318 124.777155,78.5366435 124.240984,78.5366435 C123.790372,78.5366435 123.516583,78.8674725 123.373984,79.2154134 C123.065971,79.9512227 122.889148,80.3504991 122.44424,81.2232032 C122.044964,80.4531702 121.582944,79.4435713 121.428937,79.0956305 C121.269227,78.7419857 121.012549,78.5366435 120.567641,78.5366435 C120.094214,78.5366435 119.717753,78.9530318 119.717753,79.4150516 C119.717753,79.694545 119.905983,80.0653017 120.020062,80.3105715 C120.139845,80.5615452 120.755872,81.9761244 121.38901,82.8887561 C121.434641,82.9572035 121.468865,83.0028351 121.503089,83.0427627 L121.503089,85.0733683 C121.503089,85.541092 121.908069,85.8947368 122.427128,85.8947368 Z M130.097518,85.9574803 C131.620472,85.9574803 132.692814,85.0163288 132.692814,83.6644931 C132.692814,81.2117953 129.755281,81.4399532 129.755281,80.5729531 C129.755281,80.2991636 129.989143,80.0881175 130.30286,80.0881175 C130.54813,80.0881175 130.759176,80.2021964 131.061485,80.4303544 C131.238307,80.5615452 131.472169,80.6356965 131.677511,80.6356965 C132.145235,80.6356965 132.521696,80.2592359 132.521696,79.7858082 C132.521696,79.5120187 132.396209,79.2781568 132.156643,79.0899265 C131.637584,78.6849462 130.958814,78.4739001 130.30286,78.4739001 C128.939616,78.4739001 127.872978,79.3808279 127.872978,80.5729531 C127.872978,82.9229798 130.810511,82.7803811 130.810511,83.6644931 C130.810511,84.0922892 130.54813,84.3432629 130.097518,84.3432629 C129.755281,84.3432629 129.515715,84.1493287 129.247629,83.9496905 C129.082215,83.8242036 128.848353,83.675901 128.580267,83.675901 C128.084024,83.675901 127.718971,84.0922892 127.718971,84.5371971 C127.718971,84.7824669 127.867274,85.0391446 128.101136,85.2273749 C128.682938,85.6950987 129.361708,85.9574803 130.097518,85.9574803 Z M139.012078,85.8947368 C139.514025,85.8947368 139.861966,85.6893947 140.027381,85.4041973 C140.38673,84.7881709 141.202394,80.9950452 141.367809,80.139453 C141.453368,79.7059529 141.504703,79.5519463 141.504703,79.36942 C141.504703,78.8959923 141.111131,78.5366435 140.563552,78.5366435 C140.078716,78.5366435 139.736479,78.7705054 139.645216,79.1811897 C139.626427,79.2704397 139.566052,79.5850253 139.479224,80.0226039 L139.398674,80.4254051 C139.283578,80.9962689 139.139578,81.6895848 138.989262,82.3525849 C138.738288,81.3372821 138.470203,80.2421241 138.287677,79.4093476 C138.179302,78.924512 137.774321,78.702058 137.278078,78.702058 C136.793242,78.702058 136.393966,78.924512 136.279887,79.4036437 C136.074545,80.2592359 135.823571,81.3772098 135.561189,82.4324402 C135.298808,81.2289071 135.07065,80.0538938 135.019314,79.7915122 C134.996498,79.6774332 134.933755,79.3294923 134.905235,79.2268213 C134.779748,78.7305778 134.454623,78.5366435 133.981196,78.5366435 C133.46784,78.5366435 133.057156,78.8560646 133.057156,79.2838608 C133.057156,79.5120187 133.125603,79.7915122 133.211163,80.1964925 C133.336649,80.801111 134.100978,84.6455722 134.534479,85.4041973 C134.711301,85.7122105 135.093465,85.8947368 135.544077,85.8947368 C135.88061,85.8947368 136.114472,85.8091776 136.308406,85.6209473 C136.55938,85.3813815 136.855986,84.4060063 137.278078,82.8203087 C137.70017,84.4060063 138.030999,85.3984933 138.253453,85.6209473 C138.430275,85.7977697 138.652729,85.8947368 139.012078,85.8947368 Z M143.083986,85.8947368 C143.603045,85.8947368 144.008025,85.541092 144.008025,85.0733683 L144.008025,79.3466042 C144.008025,78.8845844 143.608749,78.5366435 143.083986,78.5366435 C142.559222,78.5366435 142.159946,78.8845844 142.159946,79.3466042 L142.159946,85.0733683 C142.159946,85.541092 142.564926,85.8947368 143.083986,85.8947368 Z M148.0594,85.9574803 C148.772393,85.9574803 149.542426,85.7464342 150.186972,85.4099012 C150.483578,85.2558946 150.666104,84.9649933 150.666104,84.6398682 C150.666104,84.1721445 150.295347,83.8013878 149.827624,83.8013878 C149.57665,83.8013878 149.354196,83.9211707 149.251525,83.9896181 C148.800913,84.2348879 148.43586,84.3432629 148.0594,84.3432629 C147.209511,84.3432629 146.547853,83.4363351 146.547853,82.2213941 C146.547853,81.0121571 147.255143,80.0881175 148.150663,80.0881175 C148.760985,80.0881175 149.074703,80.2649399 149.245821,80.3847228 C149.416939,80.5045057 149.627986,80.6128807 149.896071,80.6128807 C150.380907,80.6128807 150.734551,80.2136043 150.734551,79.7686964 C150.734551,79.5120187 150.614769,79.3009726 150.369499,79.1013344 C150.152749,78.924512 149.3599,78.4739001 148.150663,78.4739001 C146.171393,78.4739001 144.665551,80.0938214 144.665551,82.2213941 C144.665551,84.3546708 146.114353,85.9574803 148.0594,85.9574803 Z M155.722514,85.8947368 C156.241573,85.8947368 156.646553,85.541092 156.646553,85.0733683 L156.646553,79.3466042 C156.646553,78.8845844 156.241573,78.5366435 155.722514,78.5366435 C155.19775,78.5366435 154.79277,78.8845844 154.79277,79.3466042 L154.79277,81.240315 L153.047362,81.240315 L153.047362,79.3466042 C153.047362,78.8845844 152.642382,78.5366435 152.117618,78.5366435 C151.598559,78.5366435 151.193579,78.8845844 151.193579,79.3466042 L151.193579,85.0733683 C151.193579,85.541092 151.598559,85.8947368 152.117618,85.8947368 C152.636678,85.8947368 153.047362,85.541092 153.047362,85.0733683 L153.047362,82.8602363 L154.79277,82.8602363 L154.79277,85.0733683 C154.79277,85.541092 155.203454,85.8947368 155.722514,85.8947368 Z M161.042876,82.3354731 C161.561935,82.3354731 161.966916,81.9818283 161.966916,81.5141045 L161.966916,81.1832755 C161.966916,80.7155518 161.561935,80.361907 161.042876,80.361907 C160.523817,80.361907 160.118836,80.7155518 160.118836,81.1832755 L160.118836,81.5141045 C160.118836,81.9818283 160.523817,82.3354731 161.042876,82.3354731 Z M161.042876,85.8947368 C161.561935,85.8947368 161.966916,85.541092 161.966916,85.0733683 L161.966916,84.7425393 C161.966916,84.2748155 161.561935,83.9211707 161.042876,83.9211707 C160.523817,83.9211707 160.118836,84.2748155 160.118836,84.7425393 L160.118836,85.0733683 C160.118836,85.541092 160.523817,85.8947368 161.042876,85.8947368 Z M167.498325,85.8947368 C168.01168,85.8947368 168.422364,85.5353881 168.422364,85.0733683 L168.422364,79.3580121 C168.422364,78.8902883 168.017384,78.5366435 167.498325,78.5366435 C167.310094,78.5366435 167.093344,78.593683 166.905114,78.707762 L165.422088,79.6146898 C165.142594,79.7858082 165.011403,80.0767096 165.011403,80.3790188 C165.011403,80.8353347 165.330824,81.1946834 165.849884,81.1946834 C165.975371,81.1946834 166.135081,81.1490519 166.289088,81.0691966 L166.574285,80.9208939 L166.574285,85.0733683 C166.574285,85.541092 166.979265,85.8947368 167.498325,85.8947368 Z M172.946026,85.8947368 C173.470789,85.8947368 173.875769,85.546796 173.875769,85.0790722 C173.875769,84.6170524 173.470789,84.2748155 172.946026,84.2748155 L171.251953,84.2748155 C171.383144,84.1265129 171.531446,83.9839142 171.748196,83.784276 C172.860466,82.7575653 173.864361,81.9932362 173.864361,80.7326636 C173.864361,79.3123805 172.940322,78.4681962 171.423071,78.4681962 C170.750005,78.4681962 170.151091,78.6279067 169.5864,78.9929594 C169.289795,79.1868936 169.141492,79.4549792 169.141492,79.7458806 C169.141492,80.2079004 169.478025,80.5900649 169.99138,80.5900649 C170.248058,80.5900649 170.430584,80.470282 170.556071,80.3961307 C170.818453,80.2364201 170.978163,80.0881175 171.423071,80.0881175 C171.771012,80.0881175 171.982058,80.3162754 171.982058,80.7326636 C171.982058,81.9190849 168.987485,83.3222562 168.987485,85.0733683 C168.987485,85.541092 169.386762,85.8947368 169.911525,85.8947368 L172.946026,85.8947368 Z M176.681401,85.9574803 C178.09598,85.9574803 179.288105,84.9250656 179.288105,83.670197 C179.288105,82.9857232 178.997204,82.3925126 178.443921,82.0959073 C178.980092,81.7650783 179.196842,81.3030585 179.196842,80.7269597 C179.196842,79.363716 178.175835,78.4739001 176.652881,78.4739001 C175.956999,78.4739001 175.24971,78.7533936 174.993032,78.924512 C174.679315,79.1298542 174.519604,79.3922358 174.519604,79.694545 C174.519604,80.1622688 174.873249,80.5501373 175.386605,80.5501373 C175.563427,80.5501373 175.768769,80.470282 175.888552,80.3847228 C176.048263,80.2706438 176.327756,80.0881175 176.652881,80.0881175 C177.103493,80.0881175 177.314539,80.2991636 177.314539,80.7269597 C177.314539,81.13194 177.006526,81.3772098 176.510282,81.3772098 L176.213677,81.3772098 C175.694618,81.3772098 175.346677,81.7251506 175.346677,82.1871704 C175.346677,82.6605982 175.677506,82.9914272 176.213677,82.9914272 L176.510282,82.9914272 C177.092085,82.9914272 177.405802,83.230993 177.405802,83.670197 C177.405802,84.0352497 177.080677,84.3432629 176.681401,84.3432629 C176.27642,84.3432629 176.071078,84.2919274 175.882848,84.1493287 C175.757361,84.0580655 175.563427,83.8584273 175.169855,83.8584273 C174.696427,83.8584273 174.319966,84.2519997 174.319966,84.7026116 C174.319966,85.0391446 174.519604,85.2730065 174.850433,85.5011644 C175.152743,85.7122105 175.888552,85.9574803 176.681401,85.9574803 Z M183.693124,85.8947368 C184.212183,85.8947368 184.622868,85.541092 184.622868,85.0733683 L184.622868,84.2919274 L184.645683,84.2919274 C185.170447,84.2919274 185.569723,83.9496905 185.569723,83.4876707 C185.569723,83.0199469 185.164743,82.6720061 184.645683,82.6720061 L184.622868,82.6720061 L184.622868,82.124427 C184.622868,81.6567033 184.212183,81.3030585 183.693124,81.3030585 C183.174065,81.3030585 182.769084,81.6567033 182.769084,82.124427 L182.769084,82.6720061 L181.964828,82.6720061 C182.655005,81.6224796 183.271032,80.9323018 184.143736,80.0367819 C184.349078,79.8314398 184.480269,79.6603213 184.480269,79.3523081 C184.480269,78.9016962 184.098104,78.5366435 183.601861,78.5366435 C183.305255,78.5366435 183.025762,78.6450185 182.672117,79.038591 C181.508512,80.3162754 180.470393,81.7878941 179.894294,82.9400916 C179.803031,83.122618 179.763104,83.3621838 179.763104,83.4876707 C179.763104,83.9439865 180.168084,84.2919274 180.698551,84.2919274 L182.769084,84.2919274 L182.769084,85.0733683 C182.769084,85.541092 183.174065,85.8947368 183.693124,85.8947368 Z" id="EASYSWICH:1234" fill="#55A2A3" fill-rule="nonzero"></path>
                <path d="M43.5506791,180.483851 C43.5506791,183.185034 41.3507969,185.379293 38.6345787,185.379293 C35.9183605,185.379293 33.7184783,183.185034 33.7184783,180.483851 C33.7184783,177.779046 35.9183605,175.584788 38.6345787,175.584788 C41.3507969,175.584788 43.5506791,177.779046 43.5506791,180.483851" id="Fill-63" fill-opacity="0.6" fill="#8C8D8E"></path>
                <path d="M63.6205134,192.877431 C63.6205134,194.593732 62.2242245,195.980533 60.5043166,195.980533 C58.7807726,195.980533 57.3881199,194.593732 57.3881199,192.877431 C57.3881199,191.161129 58.7807726,189.774328 60.5043166,189.774328 C62.2242245,189.774328 63.6205134,191.161129 63.6205134,192.877431" id="Fill-65" fill="#55A2A3"></path>
                <path d="M313.690758,294.538242 C313.690758,296.254544 312.294469,297.641344 310.578197,297.641344 C308.854653,297.641344 307.458364,296.254544 307.458364,294.538242 C307.458364,292.825561 308.854653,291.438761 310.578197,291.438761 C312.294469,291.438761 313.690758,292.825561 313.690758,294.538242" id="Fill-67" fill="#55A2A3"></path>
                <path d="M272.091167,119.283942 C272.091167,129.951082 263.407996,138.597766 252.699479,138.597766 C241.990961,138.597766 233.30779,129.951082 233.30779,119.283942 C233.30779,108.620423 241.990961,99.9737399 252.699479,99.9737399 C263.407996,99.9737399 272.091167,108.620423 272.091167,119.283942" id="Fill-69" fill-opacity="0.2" fill="#8C8D8E"></path>
                <g id="Group-73" transform="translate(315.676035, 229.458129)" fill="#EFEEEE">
                    <path d="M19.4979358,10.7913955 C19.4979358,16.1249654 15.1563501,20.4483072 9.80027334,20.4483072 C4.44419654,20.4483072 0.106247026,16.1249654 0.106247026,10.7913955 C0.106247026,5.45782557 4.44419654,1.13448377 9.80027334,1.13448377 C15.1563501,1.13448377 19.4979358,5.45782557 19.4979358,10.7913955" id="Fill-71"></path>
                </g>
                <path d="M53.7344973,248.757166 C53.7344973,257.259014 46.8112317,264.153188 38.2771433,264.153188 C29.7357825,264.153188 22.8161531,257.259014 22.8161531,248.757166 C22.8161531,240.255318 29.7357825,233.364766 38.2771433,233.364766 C46.8112317,233.364766 53.7344973,240.255318 53.7344973,248.757166" id="Fill-74" fill-opacity="0.1" fill="#8C8D8E"></path>
                <path d="M281.526299,33.9562383 C281.526299,36.8239826 279.191878,39.1485935 276.312032,39.1485935 C273.432187,39.1485935 271.101402,36.8239826 271.101402,33.9562383 C271.101402,31.088494 273.432187,28.7638831 276.312032,28.7638831 C279.191878,28.7638831 281.526299,31.088494 281.526299,33.9562383" id="Fill-76" fill-opacity="0.6" fill="#8C8D8E"></path>
                <path d="M251.140653,231.678156 C250.831579,231.678156 250.518868,231.562287 250.286153,231.323309 L166.47246,147.861811 C165.999758,147.391095 165.999758,146.627088 166.47246,146.156372 C166.941526,145.682036 167.71603,145.682036 168.185096,146.156372 L251.995153,229.621491 C252.467855,230.092206 252.467855,230.852593 251.995153,231.323309 C251.762438,231.562287 251.449727,231.678156 251.140653,231.678156" id="Fill-81" fill="#55A2A3"></path>
                <path d="M187.653978,57.7105263 L187.653978,57.7105263 L284.526316,57.7105263 C290.45611,57.7105263 295.263158,62.5175743 295.263158,68.4473684 L295.263158,342.236842 C295.263158,348.166636 290.45611,352.973684 284.526316,352.973684 L91.2631579,352.973684 C85.3333637,352.973684 80.5263158,348.166636 80.5263158,342.236842 L80.5263158,163.375778 L80.5263158,163.375778" id="Path" stroke="#575756" stroke-width="1.8"></path>
                <g id="Group-80" transform="translate(26.451958, 2.684211)" fill="#55A2A3">
                    <path d="M84.0056831,167.168347 C37.8008848,167.168347 0.210170563,129.735594 0.210170563,83.724954 C0.210170563,37.714314 37.8008848,0.285181541 84.0056831,0.285181541 C95.0269111,0.285181541 105.742701,2.38167643 115.85125,6.52397376 C116.407584,6.74846889 116.673025,7.38574541 116.443946,7.93974147 C116.211231,8.49735841 115.574902,8.75806244 115.018568,8.52994642 C105.175459,4.49989666 94.7396537,2.45771511 84.0056831,2.45771511 C39.0044567,2.45771511 2.39187191,38.9128283 2.39187191,83.724954 C2.39187191,128.53708 39.0044567,164.995814 84.0056831,164.995814 C129.00691,164.995814 165.615858,128.53708 165.615858,83.724954 C165.615858,58.1723384 153.903758,34.6184536 133.48667,19.0920804 C133.010332,18.7299915 132.915791,18.0456434 133.283044,17.5749278 C133.646661,17.0933495 134.337533,16.9992064 134.810235,17.3685371 C155.772749,33.3040708 167.793923,57.4916112 167.793923,83.724954 C167.793923,129.735594 130.210481,167.168347 84.0056831,167.168347" id="Fill-78"></path>
                </g>
            </g>
        </g>
    </g>
</svg>
