<svg width="151" height="24" viewBox="0 0 151 24" fill="none" xmlns="http://www.w3.org/2000/svg">
<mask id="mask0_5820_7517" style="mask-type:alpha" maskUnits="userSpaceOnUse" x="0" y="4" width="45" height="20">
<rect y="4.66483" width="44.0055" height="19.3101" fill="url(#paint0_linear_5820_7517)"/>
</mask>
<g mask="url(#mask0_5820_7517)">
<path fill-rule="evenodd" clip-rule="evenodd" d="M31.3789 10.2677C31.3789 9.51758 31.5182 8.82827 31.7738 8.2083L6.10352e-05 8.20801V12.125L31.6985 12.1253C31.4941 11.5931 31.3789 10.9802 31.3789 10.2677Z" fill="#FED71F"/>
<path fill-rule="evenodd" clip-rule="evenodd" d="M31.6977 12.1223L6.10352e-05 12.1229V16.1286L38.3639 16.1283C35.9572 15.401 32.7144 14.7713 31.6977 12.1223Z" fill="#FF0A5A"/>
<path fill-rule="evenodd" clip-rule="evenodd" d="M38.3638 16.1283H0V20.0558H30.5526H30.8369C30.772 19.9294 30.7098 19.8016 30.6522 19.6702L33.8012 17.8226C34.4135 19.3926 35.8387 20.3314 37.7816 20.3314C37.8387 20.3314 37.8937 20.3291 37.9498 20.3279C37.9889 20.3285 38.0266 20.3314 38.0659 20.3314C39.8105 20.3314 41.155 19.7439 41.155 18.2749C41.155 17.1219 39.9382 16.604 38.3638 16.1283Z" fill="#CC0243"/>
<path fill-rule="evenodd" clip-rule="evenodd" d="M30.8368 20.0555L-0.00012207 20.0558V23.9714H38.0134L38.0105 23.967C34.585 23.9509 32.0715 22.4611 30.8368 20.0555Z" fill="#F20D3A"/>
<path fill-rule="evenodd" clip-rule="evenodd" d="M31.7738 8.20843C32.658 6.06472 34.937 4.75514 37.6859 4.6545H0.00012207V8.20813L31.7738 8.20843Z" fill="#FF4B00"/>
</g>
<path fill-rule="evenodd" clip-rule="evenodd" d="M50.6638 0L46.7328 1.17348V5.13318V8.94597V17.7453C46.7328 22.5117 49.1352 24.198 55.1773 23.4647V19.9086C52.1925 20.0549 50.6638 20.0917 50.6638 17.7453V8.94597H55.1773V5.13289H50.6638V0Z" fill="white"/>
<path fill-rule="evenodd" clip-rule="evenodd" d="M35.2424 10.1987C35.2424 8.8786 36.4759 8.25536 37.891 8.25536C39.3786 8.25536 40.6482 8.9154 41.3014 10.3453L44.6029 8.47527C43.3332 6.05563 40.8662 4.66225 37.891 4.66225C34.1901 4.66225 31.2513 6.82547 31.2513 10.2717C31.2513 16.8347 41.011 15.0015 41.011 18.2646C41.011 19.7312 39.6687 20.3174 37.9271 20.3174C35.9317 20.3174 34.4805 19.3276 33.8999 17.6778L30.5259 19.6576C31.6869 22.2975 34.299 23.947 37.9271 23.947C41.8456 23.947 45.002 21.9675 45.002 18.3011C45.002 11.5185 35.2424 13.5351 35.2424 10.1987Z" fill="white"/>
<path fill-rule="evenodd" clip-rule="evenodd" d="M67.1359 4.8212C64.853 4.8212 62.6428 5.73964 61.5557 8.23829V5.15193H57.6425V23.5232H61.5557V14.2641C61.5557 10.1489 64.5632 8.93664 67.1359 9.12015V4.8212Z" fill="white"/>
<path fill-rule="evenodd" clip-rule="evenodd" d="M71.1557 12.7649C71.7011 10.0153 73.7008 8.25535 76.6461 8.25535C79.0093 8.25535 81.3001 9.61193 81.8455 12.7649H71.1557ZM76.6823 4.66225C70.9742 4.66225 67.0835 8.8786 67.0835 14.3046C67.0835 19.8043 70.9742 23.947 76.9731 23.947C80.5363 23.947 83.2632 22.4441 84.9358 19.9509L81.6997 18.0443C80.827 19.3276 79.1912 20.3174 77.0093 20.3174C74.1008 20.3174 71.8104 18.851 71.192 15.9912H85.6628C85.7355 15.4778 85.8082 14.8914 85.8082 14.3414C85.8082 9.06201 82.0997 4.66225 76.6823 4.66225Z" fill="white"/>
<path fill-rule="evenodd" clip-rule="evenodd" d="M141.76 19.7305L150.22 7.77858V5.13907H136.786V8.87842H144.919L136.422 20.8307V23.4702H150.584V19.7305H141.76Z" fill="white"/>
<path fill-rule="evenodd" clip-rule="evenodd" d="M127.092 4.2914C124.906 4.2914 122.974 5.38376 121.633 6.5879C120.296 5.38376 118.372 4.2914 116.198 4.2914C111.73 4.2914 108.729 6.94052 108.729 10.8833V23.5232H112.79V11.6064C112.79 10.2334 113.381 8.16544 116.198 8.16544C119.014 8.16544 119.606 10.2334 119.606 11.6064V23.5232H123.684V11.6064C123.684 10.2334 124.275 8.16544 127.092 8.16544C129.909 8.16544 130.5 10.2334 130.5 11.6064V23.5232H134.534V10.8833C134.534 6.94052 131.543 4.2914 127.092 4.2914Z" fill="white"/>
<path fill-rule="evenodd" clip-rule="evenodd" d="M97.0899 20.1398H97.0896C93.8884 20.1398 91.4149 17.6763 91.4149 14.331C91.4149 10.9856 93.8884 8.52247 97.0896 8.52247C100.291 8.52247 102.765 10.9856 102.764 14.331C102.764 17.6763 100.291 20.1398 97.0899 20.1398ZM106.683 14.2063C106.683 8.72825 102.437 4.66225 97.0896 4.66225C91.7788 4.66225 87.4865 8.85324 87.4865 14.331C87.4865 19.7721 91.7788 24 97.0896 24C99.2175 24 101.172 23.0261 102.755 21.6326V23.522H106.683V14.2063Z" fill="white"/>
<path fill-rule="evenodd" clip-rule="evenodd" d="M31.6301 8.20534C31.6257 8.21615 31.6203 8.22855 31.6301 8.20534V8.20534Z" fill="#FF4B00"/>
<path fill-rule="evenodd" clip-rule="evenodd" d="M31.6292 8.20731C31.6276 8.21144 31.6264 8.21399 31.6254 8.21653C31.6273 8.21176 31.6292 8.20731 31.6292 8.20731Z" fill="#FF4B00"/>
<defs>
<linearGradient id="paint0_linear_5820_7517" x1="1.8455" y1="33.9971" x2="33.8248" y2="1.44586" gradientUnits="userSpaceOnUse">
<stop stop-opacity="0.01"/>
<stop stop-opacity="0.01"/>
<stop offset="0.469709"/>
<stop offset="0.889226"/>
<stop offset="1"/>
</linearGradient>
</defs>
</svg>
