<svg width="196" height="80" viewBox="0 0 196 80" fill="none" xmlns="http://www.w3.org/2000/svg">
<path fill-rule="evenodd" clip-rule="evenodd" d="M86.1367 66.1908V11.3115H139.791C139.791 11.3115 146.933 12.5097 146.933 18.4542H163.887C163.887 18.4542 181.039 20.0006 181.039 35.6066V60.766H182.887C182.887 60.766 184.75 60.9007 184.75 62.6294V66.3923L172.406 66.3671C172.718 67.3354 172.887 68.3682 172.887 69.4404C172.887 74.9633 168.41 79.4404 162.887 79.4404C157.364 79.4404 152.887 74.9633 152.887 69.4404C152.887 68.3538 153.06 67.3077 153.38 66.3282L116.368 66.2526C116.704 67.2538 116.887 68.3258 116.887 69.4404C116.887 74.9633 112.41 79.4404 106.887 79.4404C101.364 79.4404 96.8867 74.9633 96.8867 69.4404C96.8867 68.3115 97.0738 67.2262 97.4186 66.2139L86.1367 66.1908Z" fill="#E5CFC7"/>
<path d="M195 70.1904H1" stroke="#291D18" stroke-width="2" stroke-linecap="round" stroke-linejoin="round"/>
<path d="M96.6906 68.3401C101.711 68.3401 105.781 64.2704 105.781 59.2502C105.781 54.2299 101.711 50.1602 96.6906 50.1602C91.6703 50.1602 87.6006 54.2299 87.6006 59.2502C87.6006 64.2704 91.6703 68.3401 96.6906 68.3401Z" stroke="#291D18" stroke-width="2" stroke-miterlimit="10" stroke-linecap="round"/>
<path d="M96.7003 62.3401C98.4069 62.3401 99.7903 60.9567 99.7903 59.2502C99.7903 57.5436 98.4069 56.1602 96.7003 56.1602C94.9938 56.1602 93.6104 57.5436 93.6104 59.2502C93.6104 60.9567 94.9938 62.3401 96.7003 62.3401Z" stroke="#291D18" stroke-width="2" stroke-miterlimit="10" stroke-linecap="round"/>
<path d="M152.79 68.3401C157.81 68.3401 161.88 64.2704 161.88 59.2502C161.88 54.2299 157.81 50.1602 152.79 50.1602C147.77 50.1602 143.7 54.2299 143.7 59.2502C143.7 64.2704 147.77 68.3401 152.79 68.3401Z" stroke="#291D18" stroke-width="2" stroke-miterlimit="10" stroke-linecap="round"/>
<path d="M152.79 62.3401C154.497 62.3401 155.88 60.9567 155.88 59.2502C155.88 57.5436 154.497 56.1602 152.79 56.1602C151.084 56.1602 149.7 57.5436 149.7 59.2502C149.7 60.9567 151.084 62.3401 152.79 62.3401Z" stroke="#291D18" stroke-width="2" stroke-miterlimit="10" stroke-linecap="round"/>
<path d="M88.07 56.32H76V1.23999L128.49 1C128.49 1 136.73 1.39 136.73 9.62V56.06L105.3 56.3" stroke="#291D18" stroke-width="2" stroke-linecap="round" stroke-linejoin="round"/>
<path d="M143.9 56.0597H136.74V8.22971L153.58 8.17969C153.58 8.17969 170.13 8.50968 170.74 25.2997V56.1797H161.3" stroke="#291D18" stroke-width="2" stroke-linecap="round" stroke-linejoin="round"/>
<path d="M143.98 38.6904H150.48" stroke="#291D18" stroke-width="2" stroke-linecap="round" stroke-linejoin="round"/>
<path d="M140.73 36.9404V49.7704" stroke="#291D18" stroke-width="2" stroke-linecap="round" stroke-linejoin="round"/>
<path d="M76.0098 22.6904H80.0198V33.9404H76.0098" stroke="#291D18" stroke-width="2" stroke-linecap="round" stroke-linejoin="round"/>
<path d="M170.76 44.1797H167.76V50.1797H171.76C172.205 50.1324 172.655 50.1853 173.076 50.3345C173.498 50.4836 173.881 50.7252 174.198 51.0416C174.514 51.358 174.756 51.7412 174.905 52.163C175.054 52.5849 175.107 53.0348 175.06 53.4797V56.2197H170.82" stroke="#291D18" stroke-width="2" stroke-linecap="round" stroke-linejoin="round"/>
<path d="M140.74 12.0898H154.61C157.887 12.0898 161.029 13.3907 163.347 15.7065C165.664 18.0223 166.968 21.1635 166.97 24.4398V33.9799H140.74V12.0898Z" stroke="#291D18" stroke-width="2" stroke-linecap="round" stroke-linejoin="round"/>
<path d="M79.99 28.3096H76" stroke="#291D18" stroke-width="2" stroke-linecap="round" stroke-linejoin="round"/>
<path d="M123.98 38.4404H130.83" stroke="#291D18" stroke-width="2" stroke-linecap="round" stroke-linejoin="round"/>
<path d="M86.9805 20.1904H119.48" stroke="#291D18" stroke-width="2" stroke-linecap="round" stroke-linejoin="round"/>
<path d="M39 28.1904H59.27" stroke="#291D18" stroke-width="2" stroke-linecap="round" stroke-linejoin="round"/>
<path d="M29 34.1904H49.27" stroke="#291D18" stroke-width="2" stroke-linecap="round" stroke-linejoin="round"/>
<path d="M152.51 46.23C154.276 46.1445 156.037 46.4744 157.652 47.1935C159.268 47.9125 160.692 49.0005 161.81 50.37" stroke="#291D18" stroke-width="2" stroke-linecap="round" stroke-linejoin="round"/>
<path d="M96.4102 46.23C98.1776 46.1445 99.9404 46.4744 101.557 47.1934C103.174 47.9123 104.6 49.0003 105.72 50.37" stroke="#291D18" stroke-width="2" stroke-linecap="round" stroke-linejoin="round"/>
</svg>
