<?xml version="1.0" encoding="UTF-8"?>
<svg width="203px" height="133px" viewBox="0 0 203 133" version="1.1" xmlns="http://www.w3.org/2000/svg" xmlns:xlink="http://www.w3.org/1999/xlink">
    <!-- Generator: Sketch 63.1 (92452) - https://sketch.com -->
    <title>Illustration / M / PID / Password Change</title>
    <desc>Created with Sketch.</desc>
    <defs>
        <path d="M22.8299372,4.36732222 C22.9952606,4.09080968 23.3534394,4.00067306 23.6299519,4.16599644 C23.9064645,4.33131981 23.9966011,4.68949859 23.8312777,4.96601112 L12.6707118,23.6326778 C12.475331,23.959463 12.0243396,24.0145168 11.7560846,23.744329 L4.25270973,16.1868913 C4.02572309,15.9582692 4.0270489,15.5889253 4.25567101,15.3619387 C4.48429311,15.1349521 4.85363697,15.1362779 5.0806236,15.3649 L12.0548044,22.3893307 L22.8299372,4.36732222 Z" id="path-1"></path>
    </defs>
    <g id="PID---Recover-Password" stroke="none" stroke-width="1" fill="none" fill-rule="evenodd">
        <g id="18---PID---RP---Profile-Complete-(M)" transform="translate(-53.000000, -131.000000)">
            <g id="Illustration-/-M-/-PID-/-Password-Change" transform="translate(28.000000, 116.000000)">
                <path d="M99.5142857,127 L89.2285714,127 C84.6840569,127 81,123.315943 81,118.771429 L81,63.2285714 C81,58.6840569 84.6840569,55 89.2285714,55 L144.771429,55 C149.315943,55 153,58.6840569 153,63.2285714 C153,65.3492063 153,66.9396825 153,68 M153,114.035156 C153,115.068578 153,116.647335 153,118.771429 C153,123.315943 149.315943,127 144.771429,127 L105.581752,127" id="Shape" stroke="#239A98" stroke-width="1.5" stroke-linecap="round"></path>
                <path d="M130.72172,66.5870459 C126.666794,64.3030055 121.985563,63 117,63 C101.536027,63 89,75.536027 89,91 C89,106.463973 101.536027,119 117,119 C127.141724,119 136.024103,113.608107 140.936892,105.534566" id="Path-Copy-55" stroke="#8C8D8E" stroke-width="1" stroke-linecap="round"></path>
                <path d="M117,79 C121.418278,79 125,82.581722 125,87 C125,89.9606507 123.391726,92.5456688 121.00116,93.9290715 L121,101 C121,103.209139 119.209139,105 117,105 C114.790861,105 113,103.209139 113,101 L112.99984,93.9296499 C110.608723,92.5463894 109,89.9610634 109,87 C109,82.581722 112.581722,79 117,79 Z" id="Combined-Shape" stroke="#8C8D8E" stroke-width="1.5"></path>
                <path d="M93,52 L93,47 L93,40 C93,26.745166 103.745166,16 117,16 C130.254834,16 141,26.745166 141,40 L141,47 L141,52 M131,52 L131,40 C131,32.2680135 124.731986,26 117,26 C109.268014,26 103,32.2680135 103,40 L103,47 L103,52" id="Shape" stroke="#239A98" stroke-width="1.5"></path>
                <path d="M89,55 L89,54 C89,52.8954305 89.8954305,52 91,52 L105,52 C106.104569,52 107,52.8954305 107,54 L107,55" id="Path" stroke="#239A98" stroke-width="1"></path>
                <path d="M127,55 L127,54 C127,52.8954305 127.895431,52 129,52 L143,52 C144.104569,52 145,52.8954305 145,54 L145,55" id="Path-Copy" stroke="#239A98" stroke-width="1"></path>
                <g id="Icon-/-Big-/-Yes" transform="translate(146.000000, 77.000000)">
                    <mask id="mask-2" fill="white">
                        <use xlink:href="#path-1"></use>
                    </mask>
                    <use id="Path-3" fill="#239A98" fill-rule="nonzero" xlink:href="#path-1"></use>
                </g>
                <path d="M146.254597,110.676467 C150.147902,113.401275 154.88725,115 160,115 L160,115 C173.254834,115 184,104.254834 184,91 C184,77.745166 173.254834,67 160,67 C146.745166,67 136,77.745166 136,91 C136,94.6380926 136.809491,98.0871185 138.258183,101.176788" id="Path-Copy" stroke="#239A98" stroke-width="2" stroke-linecap="round" transform="translate(160.000000, 91.000000) scale(-1, -1) translate(-160.000000, -91.000000) "></path>
                <circle id="Oval-Copy-114" fill="#D8D8D8" fill-rule="evenodd" cx="222" cy="80" r="6"></circle>
                <circle id="Oval-Copy-112" fill="#239A98" fill-rule="evenodd" cx="68" cy="144" r="4"></circle>
                <circle id="Oval-Copy-115" fill="#239A98" fill-rule="evenodd" cx="197" cy="34" r="4"></circle>
                <circle id="Oval-Copy-113" fill="#239A98" fill-rule="evenodd" cx="27" cy="76" r="2"></circle>
            </g>
        </g>
    </g>
</svg>