<?xml version="1.0" encoding="UTF-8"?>
<svg width="47px" height="36px" viewBox="0 0 47 36" version="1.1" xmlns="http://www.w3.org/2000/svg" xmlns:xlink="http://www.w3.org/1999/xlink">
    <title>Group 28</title>
    <g id="(T)-Process---CheckOut-" stroke="none" stroke-width="1" fill="none" fill-rule="evenodd" stroke-linejoin="round">
        <g id="Group-28" transform="translate(1.000000, 1.000000)" fill-rule="nonzero" stroke="#FFFFFF" stroke-width="1.5">
            <path d="M4.05923635,16 L4,16 C1.790861,16 1.59872116e-13,14.209139 1.59872116e-13,12 C1.59872116e-13,11.5953799 0.0613920271,11.1931018 0.182080088,10.8069 L2.68208009,2.80690003 C3.20392408,1.13699924 4.75046012,0 6.5,0 L38.6184727,0 C40.3680126,0 41.9145486,1.13699924 42.4363926,2.80690003 L44.9363926,10.8069 C45.5953235,12.915479 44.4201516,15.158989 42.3115727,15.8179199 C41.9253709,15.938608 41.5230928,16 41.1184727,16" id="Shape" stroke-linecap="round"></path>
            <path d="M27.5592363,4 C28.6638058,4 29.5592363,4.8954305 29.5592363,6 L29.5592363,8 L29.5592363,8 L25.5592363,8 L25.5592363,6 C25.5592363,4.8954305 26.4546668,4 27.5592363,4 Z" id="Rectangle"></path>
            <path d="M20.5592363,4 C21.6638058,4 22.5592363,4.8954305 22.5592363,6 L22.5592363,8 L22.5592363,8 L18.5592363,8 L18.5592363,6 C18.5592363,4.8954305 19.4546668,4 20.5592363,4 Z" id="Rectangle-Copy-2"></path>
            <path d="M16.7697627,8 L33.3447685,8 C35.3333258,8 37.0199279,9.46079466 37.3038016,11.4289856 L39.8999554,29.4289856 C40.215318,31.6154992 38.6984503,33.6436705 36.5119368,33.959033 C36.3228214,33.9863093 36.1319947,34 35.9409224,34 L9.1775503,34 C6.9684113,34 5.1775503,32.209139 5.1775503,30 C5.1775503,29.8089277 5.19124101,29.618101 5.21851727,29.4289856 L7.81467111,11.4289856 C8.09854481,9.46079466 9.7851469,8 11.7737041,8 L12.5592363,8" id="Path" stroke-linecap="round"></path>
            <path d="M22.5592363,13 C18.1409583,13 14.5592363,16.581722 14.5592363,21 C14.5592363,25.418278 18.1409583,29 22.5592363,29 C26.9775143,29 30.5592363,25.418278 30.5592363,21 C30.5592363,19.0590616 29.8680275,17.2795637 28.7183356,15.8942321" id="Path" stroke-linecap="round"></path>
            <circle id="Oval-Copy-2" stroke-linecap="round" cx="22.5592363" cy="21" r="4"></circle>
        </g>
    </g>
</svg>