<svg xmlns="http://www.w3.org/2000/svg" width="24" height="24" fill="none"><g fill="#291D18"><path d="M12 2a10 10 0 0 1 3.99.828 1 1 0 0 1-.8 1.833 8 8 0 0 0-10.286 11.04 1 1 0 0 1-1.771.926A9.96 9.96 0 0 1 2 12C2 6.477 6.477 2 12 2m0 16a1 1 0 1 0 0-2 1 1 0 0 0 0 2"/><path d="M10.5 7a3 3 0 0 0-3 3v9a3 3 0 0 0 3 3h3a3 3 0 0 0 3-3v-9a3 3 0 0 0-3-3zm3 2a1 1 0 0 1 1 1v9a1 1 0 0 1-1 1h-3a1 1 0 0 1-1-1v-9a1 1 0 0 1 1-1zM18 6a1 1 0 1 0 0-2 1 1 0 0 0 0 2m3 1a1 1 0 1 1-2 0 1 1 0 0 1 2 0m0 4a1 1 0 1 0 0-2 1 1 0 0 0 0 2m1 2a1 1 0 1 1-2 0 1 1 0 0 1 2 0m-2 4a1 1 0 1 0 0-2 1 1 0 0 0 0 2"/></g></svg>