<svg xmlns="http://www.w3.org/2000/svg" width="24" height="24" fill="none"><g fill="#291D18"><path d="M14.541 19.003a1 1 0 1 0 0-2 1 1 0 0 0 0 2"/><path d="M17.994 2a2 2 0 0 1 1.995 1.85l.005.15v2.337a1 1 0 0 1 0 .312v2.84a1 1 0 0 1 0 .218v2.774a1 1 0 0 1 0 .22V20a2 2 0 0 1-1.85 1.994l-.15.006h-7A2 2 0 0 1 9 20.15L8.994 20v-6.41H6a1 1 0 0 1-.117-1.992L6 11.59h11.994v-.993H5a1 1 0 0 1-.117-1.993L5 8.598h12.994V7.493h-7.88a1 1 0 0 1-.24 0H6.006A1 1 0 0 1 5.89 5.5l.116-.007h2.988V4a2 2 0 0 1 1.85-1.995l.15-.005zm0 11.59h-7V20h7zm0-9.59h-7v1.493h7z"/></g></svg>