<svg width="204" height="265" viewBox="0 0 204 265" fill="none" xmlns="http://www.w3.org/2000/svg">
  <circle cx="73.6343" cy="73.3193" r="62" fill="#E5CFC7"></circle>
  <path fill-rule="evenodd" clip-rule="evenodd" d="M33.858 112.186C33.4094 112.186 33.0474 111.823 33.0474 111.374V39.3905C33.0474 35.5185 36.1925 32.3711 40.0619 32.3711H112.012C112.461 32.3711 112.823 32.7334 112.823 33.1823C112.823 33.6311 112.461 33.9934 112.012 33.9934H40.0619C37.0869 33.9934 34.6686 36.4162 34.6686 39.3905V111.374C34.6686 111.823 34.3065 112.186 33.858 112.186Z" fill="#291D18"></path>
  <path fill-rule="evenodd" clip-rule="evenodd" d="M118.676 70.9162H58.5848C58.2876 70.9162 58.0444 70.6728 58.0444 70.3754C58.0444 70.0753 58.2876 69.8346 58.5848 69.8346H118.676C118.973 69.8346 119.216 70.0753 119.216 70.3754C119.216 70.6728 118.973 70.9162 118.676 70.9162Z" fill="#291D18"></path>
  <path fill-rule="evenodd" clip-rule="evenodd" d="M114.966 84.1926H58.5848C58.2876 84.1926 58.0444 83.9492 58.0444 83.6518C58.0444 83.3516 58.2876 83.111 58.5848 83.111H114.966C115.263 83.111 115.506 83.3516 115.506 83.6518C115.506 83.9492 115.263 84.1926 114.966 84.1926Z" fill="#291D18"></path>
  <path fill-rule="evenodd" clip-rule="evenodd" d="M107.651 97.4699H58.5848C58.2876 97.4699 58.0444 97.2265 58.0444 96.9291C58.0444 96.629 58.2876 96.3883 58.5848 96.3883H107.651C107.949 96.3883 108.192 96.629 108.192 96.9291C108.192 97.2265 107.949 97.4699 107.651 97.4699Z" fill="#291D18"></path>
  <path fill-rule="evenodd" clip-rule="evenodd" d="M93.9497 110.746H58.5853C58.2881 110.746 58.0449 110.503 58.0449 110.205C58.0449 109.905 58.2881 109.665 58.5853 109.665H93.9497C94.247 109.665 94.4901 109.905 94.4901 110.205C94.4901 110.503 94.247 110.746 93.9497 110.746Z" fill="#291D18"></path>
  <path fill-rule="evenodd" clip-rule="evenodd" d="M139.345 88.5892H121.351C121.072 88.5892 120.848 88.3462 120.848 88.0492C120.848 87.7495 121.072 87.5092 121.351 87.5092H139.345C139.622 87.5092 139.848 87.7495 139.848 88.0492C139.848 88.3462 139.622 88.5892 139.345 88.5892Z" fill="#291D18"></path>
  <path fill-rule="evenodd" clip-rule="evenodd" d="M139.308 82.6222H122.749C122.452 82.6222 122.209 82.3789 122.209 82.0815C122.209 81.7813 122.452 81.5407 122.749 81.5407H139.308C139.605 81.5407 139.848 81.7813 139.848 82.0815C139.848 82.3789 139.605 82.6222 139.308 82.6222Z" fill="#291D18"></path>
  <path fill-rule="evenodd" clip-rule="evenodd" d="M139.308 76.6515H124.506C124.209 76.6515 123.966 76.4082 123.966 76.1108C123.966 75.8106 124.209 75.57 124.506 75.57H139.308C139.605 75.57 139.848 75.8106 139.848 76.1108C139.848 76.4082 139.605 76.6515 139.308 76.6515Z" fill="#291D18"></path>
  <path fill-rule="evenodd" clip-rule="evenodd" d="M124.444 106.611H108.642C108.345 106.611 108.102 106.368 108.102 106.071C108.102 105.771 108.345 105.53 108.642 105.53H124.444C124.741 105.53 124.984 105.771 124.984 106.071C124.984 106.368 124.741 106.611 124.444 106.611Z" fill="#291D18"></path>
  <path fill-rule="evenodd" clip-rule="evenodd" d="M139.278 100.638H113.421C113.105 100.638 112.848 100.395 112.848 100.098C112.848 99.7983 113.105 99.558 113.421 99.558H139.278C139.591 99.558 139.848 99.7983 139.848 100.098C139.848 100.395 139.591 100.638 139.278 100.638Z" fill="#291D18"></path>
  <path fill-rule="evenodd" clip-rule="evenodd" d="M139.308 94.6711H117.951C117.651 94.6711 117.41 94.4277 117.41 94.1303C117.41 93.8301 117.651 93.5895 117.951 93.5895H139.308C139.605 93.5895 139.848 93.8301 139.848 94.1303C139.848 94.4277 139.605 94.6711 139.308 94.6711Z" fill="#291D18"></path>
  <path fill-rule="evenodd" clip-rule="evenodd" d="M112.689 150.71H58.8885C58.5751 150.71 58.3184 150.453 58.3184 150.139C58.3184 149.825 58.5751 149.569 58.8885 149.569H112.689C113.002 149.569 113.259 149.825 113.259 150.139C113.259 150.453 113.002 150.71 112.689 150.71Z" fill="#291D18"></path>
  <path fill-rule="evenodd" clip-rule="evenodd" d="M112.924 144.74H58.8885C58.5751 144.74 58.3184 144.483 58.3184 144.169C58.3184 143.856 58.5751 143.599 58.8885 143.599H112.924C113.237 143.599 113.494 143.856 113.494 144.169C113.494 144.483 113.237 144.74 112.924 144.74Z" fill="#291D18"></path>
  <path fill-rule="evenodd" clip-rule="evenodd" d="M112.739 138.767H58.89C58.5765 138.767 58.3198 138.51 58.3198 138.197C58.3198 137.883 58.5765 137.626 58.89 137.626H112.739C113.052 137.626 113.309 137.883 113.309 138.197C113.309 138.51 113.052 138.767 112.739 138.767Z" fill="#291D18"></path>
  <path fill-rule="evenodd" clip-rule="evenodd" d="M91.4378 168.729H58.889C58.5755 168.729 58.3188 168.472 58.3188 168.159C58.3188 167.845 58.5755 167.588 58.889 167.588H91.4378C91.7513 167.588 92.008 167.845 92.008 168.159C92.008 168.472 91.7513 168.729 91.4378 168.729Z" fill="#291D18"></path>
  <path fill-rule="evenodd" clip-rule="evenodd" d="M112.924 162.758H58.8885C58.5751 162.758 58.3184 162.502 58.3184 162.188C58.3184 161.874 58.5751 161.617 58.8885 161.617H112.924C113.237 161.617 113.494 161.874 113.494 162.188C113.494 162.502 113.237 162.758 112.924 162.758Z" fill="#291D18"></path>
  <path fill-rule="evenodd" clip-rule="evenodd" d="M112.739 156.789H58.89C58.5765 156.789 58.3198 156.532 58.3198 156.218C58.3198 155.905 58.5765 155.648 58.89 155.648H112.739C113.052 155.648 113.309 155.905 113.309 156.218C113.309 156.532 113.052 156.789 112.739 156.789Z" fill="#291D18"></path>
  <path fill-rule="evenodd" clip-rule="evenodd" d="M184.346 150.71H130.546C130.232 150.71 129.976 150.453 129.976 150.139C129.976 149.825 130.232 149.569 130.546 149.569H184.346C184.66 149.569 184.916 149.825 184.916 150.139C184.916 150.453 184.66 150.71 184.346 150.71Z" fill="#291D18"></path>
  <path fill-rule="evenodd" clip-rule="evenodd" d="M184.581 144.74H130.545C130.232 144.74 129.975 144.483 129.975 144.169C129.975 143.856 130.232 143.599 130.545 143.599H184.581C184.894 143.599 185.151 143.856 185.151 144.169C185.151 144.483 184.894 144.74 184.581 144.74Z" fill="#291D18"></path>
  <path fill-rule="evenodd" clip-rule="evenodd" d="M184.396 138.767H130.544C130.231 138.767 129.974 138.51 129.974 138.197C129.974 137.883 130.231 137.626 130.544 137.626H184.396C184.709 137.626 184.966 137.883 184.966 138.197C184.966 138.51 184.709 138.767 184.396 138.767Z" fill="#291D18"></path>
  <path fill-rule="evenodd" clip-rule="evenodd" d="M154.552 168.729H130.398C130.165 168.729 129.975 168.472 129.975 168.159C129.975 167.845 130.165 167.588 130.398 167.588H154.552C154.784 167.588 154.975 167.845 154.975 168.159C154.975 168.472 154.784 168.729 154.552 168.729Z" fill="#291D18"></path>
  <path fill-rule="evenodd" clip-rule="evenodd" d="M184.581 162.758H130.545C130.232 162.758 129.975 162.502 129.975 162.188C129.975 161.874 130.232 161.617 130.545 161.617H184.581C184.894 161.617 185.151 161.874 185.151 162.188C185.151 162.502 184.894 162.758 184.581 162.758Z" fill="#291D18"></path>
  <path fill-rule="evenodd" clip-rule="evenodd" d="M184.396 156.789H130.544C130.231 156.789 129.974 156.532 129.974 156.218C129.974 155.905 130.231 155.648 130.544 155.648H184.396C184.709 155.648 184.966 155.905 184.966 156.218C184.966 156.532 184.709 156.789 184.396 156.789Z" fill="#291D18"></path>
  <path fill-rule="evenodd" clip-rule="evenodd" d="M58.9171 207.637C58.6036 207.637 58.3472 207.394 58.3472 207.096C58.3472 206.796 58.6036 206.556 58.9171 206.556H183.777C184.091 206.556 184.347 206.796 184.347 207.096C184.347 207.394 184.091 207.637 183.777 207.637H58.9171Z" fill="#291D18"></path>
  <path fill-rule="evenodd" clip-rule="evenodd" d="M183.783 201.667H58.9118C58.6013 201.667 58.3472 201.424 58.3472 201.126C58.3472 200.826 58.6013 200.586 58.9118 200.586H183.783C184.093 200.586 184.347 200.826 184.347 201.126C184.347 201.424 184.093 201.667 183.783 201.667Z" fill="#291D18"></path>
  <path fill-rule="evenodd" clip-rule="evenodd" d="M183.787 195.696H58.9106C58.5995 195.696 58.3472 195.453 58.3472 195.156C58.3472 194.856 58.5995 194.615 58.9106 194.615H183.787C184.095 194.615 184.347 194.856 184.347 195.156C184.347 195.453 184.095 195.696 183.787 195.696Z" fill="#291D18"></path>
  <path fill-rule="evenodd" clip-rule="evenodd" d="M128.642 225.659H58.889C58.5918 225.659 58.3486 225.416 58.3486 225.119C58.3486 224.818 58.5918 224.578 58.889 224.578H128.642C128.94 224.578 129.183 224.818 129.183 225.119C129.183 225.416 128.94 225.659 128.642 225.659Z" fill="#291D18"></path>
  <path fill-rule="evenodd" clip-rule="evenodd" d="M183.77 219.689H58.9248C58.6071 219.689 58.3472 219.445 58.3472 219.148C58.3472 218.848 58.6071 218.607 58.9248 218.607H183.77C184.087 218.607 184.347 218.848 184.347 219.148C184.347 219.445 184.087 219.689 183.77 219.689Z" fill="#291D18"></path>
  <path fill-rule="evenodd" clip-rule="evenodd" d="M183.787 213.719H58.9106C58.5995 213.719 58.3472 213.476 58.3472 213.178C58.3472 212.878 58.5995 212.637 58.9106 212.637H183.787C184.095 212.637 184.347 212.878 184.347 213.178C184.347 213.476 184.095 213.719 183.787 213.719Z" fill="#291D18"></path>
  <path fill-rule="evenodd" clip-rule="evenodd" d="M111.189 62.7119C111.189 63.0604 110.887 63.3196 110.496 63.3196H108.235C107.844 63.3196 107.546 63.0561 107.546 62.7076C107.546 61.992 108.218 61.3543 108.824 60.7785C109.323 60.3045 109.778 59.8725 109.778 59.4734C109.778 59.1631 109.62 58.9931 109.361 58.9931C109.076 58.9931 108.948 59.0747 108.794 59.1732C108.769 59.1893 108.743 59.2059 108.715 59.2226L108.696 59.234C108.603 59.2893 108.473 59.3671 108.294 59.3671C107.912 59.3671 107.661 59.0824 107.661 58.7381C107.661 58.5214 107.772 58.3216 107.993 58.1771C108.413 57.9051 108.86 57.7861 109.361 57.7861C110.492 57.7861 111.18 58.4151 111.18 59.4734C111.18 60.3146 110.58 60.8592 109.859 61.5134L109.859 61.5137C109.775 61.5898 109.69 61.6674 109.603 61.7471C109.442 61.8959 109.331 62.0021 109.234 62.1126H110.496C110.887 62.1126 111.189 62.3676 111.189 62.7119ZM70.6491 61.6575C70.6491 62.6648 69.8501 63.366 68.7153 63.366C68.1671 63.366 67.6613 63.1705 67.2278 62.822C67.0536 62.6818 66.9431 62.4905 66.9431 62.3078C66.9431 61.9763 67.2151 61.666 67.5848 61.666C67.7846 61.666 67.9588 61.7765 68.0821 61.87L68.1146 61.8943C68.3015 62.0341 68.4742 62.1633 68.7153 62.1633C69.0511 62.1633 69.2466 61.9763 69.2466 61.6575C69.2466 61.4071 68.9302 61.2672 68.5381 61.0938C67.8987 60.8111 67.0578 60.4394 67.0578 59.354C67.0578 58.4658 67.8526 57.79 68.8683 57.79C69.3571 57.79 69.8628 57.9473 70.2496 58.249C70.4281 58.3893 70.5216 58.5635 70.5216 58.7675C70.5216 59.1203 70.2411 59.4008 69.8926 59.4008C69.7396 59.4008 69.5653 59.3455 69.4336 59.2478C69.2083 59.0778 69.0511 58.9928 68.8683 58.9928C68.6346 58.9928 68.4603 59.15 68.4603 59.354C68.4603 59.5949 68.7646 59.7223 69.1463 59.8822C69.7882 60.151 70.6491 60.5114 70.6491 61.6575ZM61.5101 62.7159C61.5101 63.0644 61.2678 63.3194 60.8768 63.3194H58.7433C58.3523 63.3194 58.0591 63.0644 58.0591 62.7159V58.4319C58.0591 58.0877 58.3523 57.8369 58.7433 57.8369H60.7323C61.1233 57.8369 61.3656 58.0877 61.3656 58.4319C61.3656 58.7847 61.1191 59.0397 60.7323 59.0397H59.4403V59.8939H60.6091C61.0001 59.8939 61.2423 60.1489 61.2423 60.4932C61.2423 60.8417 61.0001 61.1009 60.6091 61.1009H59.4403V62.1167H60.8768C61.2678 62.1167 61.5101 62.3674 61.5101 62.7159ZM66.5704 62.6309C66.5704 63.0134 66.2644 63.3194 65.8947 63.3194C65.5717 63.3194 65.3337 63.1622 65.2104 62.7967C65.1656 62.6654 65.1207 62.5118 65.0712 62.3425L65.0712 62.3425L65.0362 62.2229H63.4637L63.4287 62.3425L63.4287 62.3425L63.4287 62.3425L63.4286 62.3426C63.3792 62.5119 63.3343 62.6655 63.2894 62.7967C63.1662 63.1622 62.9282 63.3194 62.6052 63.3194C62.2354 63.3194 61.9294 63.0134 61.9294 62.6309C61.9294 62.5374 61.9464 62.4694 61.9847 62.3504C62.0952 62.0019 62.9749 59.2819 63.5104 58.1982C63.6337 57.9474 63.9014 57.8369 64.2584 57.8369C64.6154 57.8369 64.8662 57.9517 64.9894 58.1982C65.4824 59.1927 66.4642 62.1634 66.5152 62.3504C66.5534 62.4694 66.5704 62.5374 66.5704 62.6309ZM64.6282 61.0204H63.8675C63.9865 60.6549 64.1182 60.2596 64.25 59.8984C64.3817 60.2681 64.5092 60.6549 64.6282 61.0204ZM72.8543 63.3194C73.241 63.3194 73.5428 63.0559 73.5428 62.7074V61.2029C73.5768 61.1647 73.6065 61.1307 73.6278 61.0967C74.0613 60.4209 74.5458 59.4052 74.7498 58.9334C74.7923 58.8314 74.8688 58.6359 74.8688 58.4914C74.8688 58.1472 74.6053 57.8369 74.2058 57.8369C73.87 57.8369 73.666 58.0834 73.5598 58.3427C73.3303 58.8909 73.1985 59.1884 72.867 59.8387C72.5695 59.2649 72.2253 58.5127 72.1105 58.2534C71.9915 57.9899 71.8003 57.8369 71.4688 57.8369C71.116 57.8369 70.8355 58.1472 70.8355 58.4914C70.8355 58.6801 70.9507 58.9246 71.0355 59.1048L71.0355 59.1048L71.0608 59.1587C71.0724 59.183 71.0902 59.2219 71.1135 59.2727C71.2695 59.6132 71.6703 60.488 72.0808 61.0797C72.1148 61.1307 72.1403 61.1647 72.1658 61.1944V62.7074C72.1658 63.0559 72.4675 63.3194 72.8543 63.3194ZM80.5032 61.6575C80.5032 62.6648 79.7042 63.366 78.5695 63.366C78.0212 63.366 77.5155 63.1705 77.082 62.822C76.9077 62.6818 76.7972 62.4905 76.7972 62.3078C76.7972 61.9763 77.0692 61.666 77.439 61.666C77.6387 61.666 77.813 61.7765 77.9362 61.87L77.9688 61.8943C78.1557 62.0341 78.3284 62.1633 78.5695 62.1633C78.9052 62.1633 79.1007 61.9763 79.1007 61.6575C79.1007 61.4071 78.7844 61.2672 78.3922 61.0938C77.7529 60.8111 76.912 60.4394 76.912 59.354C76.912 58.4658 77.7067 57.79 78.7225 57.79C79.2112 57.79 79.717 57.9473 80.1037 58.249C80.2822 58.3893 80.3757 58.5635 80.3757 58.7675C80.3757 59.1203 80.0952 59.4008 79.7467 59.4008C79.5937 59.4008 79.4195 59.3455 79.2877 59.2478C79.0625 59.0778 78.9052 58.9928 78.7225 58.9928C78.4887 58.9928 78.3145 59.15 78.3145 59.354C78.3145 59.5949 78.6188 59.7223 79.0005 59.8822C79.6424 60.151 80.5032 60.5114 80.5032 61.6575ZM85.2117 63.3194C85.5857 63.3194 85.845 63.1664 85.9682 62.9539C86.236 62.4949 86.8437 59.6687 86.967 59.0312C86.9869 58.93 87.0044 58.8492 87.019 58.7818C87.0509 58.6342 87.069 58.5508 87.069 58.4574C87.069 58.1047 86.7757 57.8369 86.3677 57.8369C86.0065 57.8369 85.7515 58.0112 85.6835 58.3172C85.6762 58.3515 85.6607 58.4308 85.6385 58.5444L85.6384 58.5445C85.6177 58.6506 85.591 58.7867 85.5598 58.9441L85.4998 59.2442C85.414 59.6696 85.3067 60.1862 85.1947 60.6802C85.0077 59.9237 84.808 59.1077 84.672 58.4872C84.5912 58.1259 84.2895 57.9602 83.9197 57.9602C83.5585 57.9602 83.261 58.1259 83.176 58.4829C83.1188 58.7212 83.0568 58.9869 82.9915 59.2672L82.9914 59.2675L82.9914 59.2675C82.8819 59.7369 82.7629 60.2475 82.6405 60.7397C82.4546 59.887 82.2918 59.0536 82.2433 58.8056L82.2367 58.7719C82.2322 58.7494 82.2256 58.7146 82.218 58.6743L82.2179 58.6742L82.2179 58.6737L82.2178 58.6736C82.1966 58.5617 82.1673 58.4073 82.1517 58.3512C82.0582 57.9814 81.816 57.8369 81.4632 57.8369C81.0807 57.8369 80.7747 58.0749 80.7747 58.3937C80.7747 58.5388 80.8119 58.7117 80.8624 58.9469L80.8624 58.947L80.8895 59.0737L80.9178 59.2116L80.9178 59.2116C81.066 59.936 81.5764 62.4305 81.8755 62.9539C82.0072 63.1834 82.292 63.3194 82.6277 63.3194C82.8785 63.3194 83.0527 63.2557 83.1972 63.1154C83.3842 62.9369 83.6052 62.2102 83.9197 61.0287C84.2342 62.2102 84.4807 62.9497 84.6465 63.1154C84.7782 63.2472 84.944 63.3194 85.2117 63.3194ZM88.9342 62.7074C88.9342 63.0559 88.6324 63.3194 88.2457 63.3194C87.8589 63.3194 87.5572 63.0559 87.5572 62.7074V58.4404C87.5572 58.0962 87.8547 57.8369 88.2457 57.8369C88.6367 57.8369 88.9342 58.0962 88.9342 58.4404V62.7074ZM91.9529 63.366C92.4841 63.366 93.0579 63.2088 93.5381 62.958C93.7591 62.8433 93.8951 62.6265 93.8951 62.3843C93.8951 62.0358 93.6189 61.7595 93.2704 61.7595C93.0834 61.7595 92.9176 61.8488 92.8411 61.8998C92.5054 62.0825 92.2334 62.1633 91.9529 62.1633C91.3196 62.1633 90.8266 61.4875 90.8266 60.5823C90.8266 59.6813 91.3536 58.9928 92.0209 58.9928C92.4756 58.9928 92.7094 59.1245 92.8369 59.2138C92.9644 59.303 93.1216 59.3838 93.3214 59.3838C93.6826 59.3838 93.9461 59.0863 93.9461 58.7548C93.9461 58.5635 93.8569 58.4063 93.6741 58.2575C93.5126 58.1258 92.9219 57.79 92.0209 57.79C90.5461 57.79 89.4241 58.997 89.4241 60.5823C89.4241 62.1718 90.5036 63.366 91.9529 63.366ZM98.3511 62.7074C98.3511 63.0559 98.0494 63.3194 97.6626 63.3194C97.2759 63.3194 96.9699 63.0559 96.9699 62.7074V61.0584H95.6694V62.7074C95.6694 63.0559 95.3634 63.3194 94.9766 63.3194C94.5899 63.3194 94.2881 63.0559 94.2881 62.7074V58.4404C94.2881 58.0962 94.5899 57.8369 94.9766 57.8369C95.3676 57.8369 95.6694 58.0962 95.6694 58.4404V59.8514H96.9699V58.4404C96.9699 58.0962 97.2716 57.8369 97.6626 57.8369C98.0494 57.8369 98.3511 58.0962 98.3511 58.4404V62.7074ZM101.627 60.6678C102.014 60.6678 102.315 60.4043 102.315 60.0558V59.8093C102.315 59.4608 102.014 59.1973 101.627 59.1973C101.24 59.1973 100.938 59.4608 100.938 59.8093V60.0558C100.938 60.4043 101.24 60.6678 101.627 60.6678ZM102.315 62.7081C102.315 63.0566 102.014 63.3201 101.627 63.3201C101.24 63.3201 100.938 63.0566 100.938 62.7081V62.4616C100.938 62.1131 101.24 61.8496 101.627 61.8496C102.014 61.8496 102.315 62.1131 102.315 62.4616V62.7081ZM106.437 63.3194C106.819 63.3194 107.125 63.0517 107.125 62.7074V58.4489C107.125 58.1004 106.823 57.8369 106.437 57.8369C106.296 57.8369 106.135 57.8794 105.995 57.9644L104.89 58.6402C104.681 58.7677 104.584 58.9844 104.584 59.2097C104.584 59.5497 104.822 59.8174 105.208 59.8174C105.302 59.8174 105.421 59.7834 105.536 59.7239L105.748 59.6134V62.7074C105.748 63.0559 106.05 63.3194 106.437 63.3194ZM113.279 63.366C114.333 63.366 115.221 62.5968 115.221 61.6618C115.221 61.1518 115.005 60.7098 114.592 60.4888C114.992 60.2423 115.153 59.898 115.153 59.4688C115.153 58.453 114.393 57.79 113.258 57.79C112.739 57.79 112.212 57.9983 112.021 58.1258C111.787 58.2788 111.668 58.4743 111.668 58.6995C111.668 59.048 111.932 59.337 112.314 59.337C112.446 59.337 112.599 59.2775 112.688 59.2138C112.807 59.1288 113.016 58.9928 113.258 58.9928C113.594 58.9928 113.751 59.15 113.751 59.4688C113.751 59.7705 113.521 59.9533 113.152 59.9533H112.931C112.544 59.9533 112.285 60.2125 112.285 60.5568C112.285 60.9095 112.531 61.156 112.931 61.156H113.152C113.585 61.156 113.819 61.3345 113.819 61.6618C113.819 61.9338 113.577 62.1633 113.279 62.1633C112.977 62.1633 112.824 62.125 112.684 62.0188C112.672 62.0098 112.658 61.9993 112.644 61.9879C112.549 61.9139 112.407 61.802 112.153 61.802C111.8 61.802 111.52 62.0953 111.52 62.431C111.52 62.6818 111.668 62.856 111.915 63.026C112.14 63.1833 112.688 63.366 113.279 63.366ZM119.196 62.7074C119.196 63.0559 118.89 63.3194 118.503 63.3194C118.117 63.3194 117.815 63.0559 117.815 62.7074V62.1252H116.272C115.877 62.1252 115.575 61.8659 115.575 61.5259C115.575 61.4324 115.605 61.2539 115.673 61.1179C116.102 60.2594 116.876 59.1629 117.743 58.2109C118.006 57.9177 118.214 57.8369 118.435 57.8369C118.805 57.8369 119.09 58.1089 119.09 58.4447C119.09 58.6742 118.992 58.8017 118.839 58.9547C118.189 59.6219 117.73 60.1362 117.216 60.9182H117.815V60.5102C117.815 60.1617 118.117 59.8982 118.503 59.8982C118.89 59.8982 119.196 60.1617 119.196 60.5102V60.9182H119.213C119.6 60.9182 119.902 61.1774 119.902 61.5259C119.902 61.8702 119.604 62.1252 119.213 62.1252H119.196V62.7074Z" fill="#291D18"></path>
  <path fill-rule="evenodd" clip-rule="evenodd" d="M169.92 103.088C178.069 103.088 184.697 96.5917 184.865 88.5131L184.869 88.1976L184.865 87.8821C184.697 79.8058 178.069 73.3096 169.92 73.3096C161.665 73.3096 154.971 79.9756 154.971 88.1976C154.971 96.4218 161.665 103.088 169.92 103.088ZM169.92 74.3096C177.519 74.3096 183.7 80.3619 183.865 87.8875L183.869 88.1976L183.865 88.5077C183.7 96.0356 177.519 102.088 169.92 102.088C162.216 102.088 155.971 95.8686 155.971 88.1976C155.971 80.5288 162.217 74.3096 169.92 74.3096Z" fill="#291D18"></path>
  <path fill-rule="evenodd" clip-rule="evenodd" d="M168.758 171.942C168.528 171.942 168.295 171.856 168.122 171.678L105.672 109.491C105.32 109.14 105.32 108.571 105.672 108.22C106.022 107.867 106.599 107.867 106.948 108.22L169.395 170.41C169.747 170.761 169.747 171.327 169.395 171.678C169.222 171.856 168.989 171.942 168.758 171.942Z" fill="#291D18"></path>
  <path d="M193.634 41.4189C198.461 41.4189 202.391 45.2626 202.53 50.0565L202.534 50.3189V254.319C202.534 259.146 198.69 263.076 193.896 263.215L193.634 263.219H49.6339C44.8063 263.219 40.8765 259.375 40.7377 254.581L40.7339 254.319V121.05H42.5339V254.319C42.5339 258.16 45.5842 261.289 49.3948 261.415L49.6339 261.419H193.634C197.475 261.419 200.604 258.369 200.73 254.558L200.734 254.319V50.3189C200.734 46.4777 197.684 43.349 193.873 43.2229L193.634 43.2189H121.454V41.4189H193.634Z" fill="#291D18"></path>
  <path fill-rule="evenodd" clip-rule="evenodd" d="M63.9359 125.877C29.5088 125.877 1.5 97.9855 1.5 63.703C1.5 29.4206 29.5088 1.53223 63.9359 1.53223C72.1478 1.53223 80.1321 3.09432 87.6639 6.18074C88.0785 6.34801 88.2762 6.82284 88.1056 7.23562C87.9322 7.6511 87.458 7.84535 87.0435 7.67538C79.7094 4.6726 71.9337 3.15098 63.9359 3.15098C30.4055 3.15098 3.12558 30.3136 3.12558 63.703C3.12558 97.0925 30.4055 124.258 63.9359 124.258C97.4662 124.258 124.743 97.0925 124.743 63.703C124.743 44.6638 116.017 27.1139 100.804 15.5452C100.449 15.2754 100.379 14.7655 100.652 14.4148C100.923 14.056 101.438 13.9858 101.79 14.261C117.409 26.1345 126.366 44.1566 126.366 63.703C126.366 97.9855 98.363 125.877 63.9359 125.877Z" fill="#291D18"></path>
</svg>
