<?xml version="1.0" encoding="UTF-8"?>
<svg width="130px" height="137px" viewBox="0 0 130 137" version="1.1" xmlns="http://www.w3.org/2000/svg" xmlns:xlink="http://www.w3.org/1999/xlink">
    <!-- Generator: Sketch 60 (88103) - https://sketch.com -->
    <title>Illustration / Flow /  Mobile / 5 mobile numbers Activated</title>
    <desc>Created with Sketch.</desc>
    <g id="Illustration-/-Flow-/--Mobile-/-5-mobile-numbers-Activated" stroke="none" stroke-width="1" fill="none" fill-rule="evenodd">
        <g id="Group" transform="translate(0.984074, 0.602367)" fill-rule="nonzero">
            <path d="M75.6875591,69 C77.2707467,69 78.5588931,70.261667 78.5588931,71.8239533 L78.5588931,71.8239533 L78.5588931,121.439376 C78.5588931,123.001662 77.2707467,124.263329 75.6875591,124.263329 L75.6875591,124.263329 L51.871334,124.263329 C50.2881464,124.263329 49,123.001662 49,121.439376 L49,121.439376 L49,78.5299324 C49,78.1972541 49.2700269,77.9275652 49.603122,77.9275652 C49.9362172,77.9275652 50.2062441,78.1972541 50.2062441,78.5299324 L50.2062441,78.5299324 L50.2062441,121.439376 C50.2062441,122.330986 50.9491238,123.058595 51.871334,123.058595 L51.871334,123.058595 L75.6875591,123.058595 C76.6097693,123.058595 77.352649,122.330986 77.352649,121.439376 L77.352649,121.439376 L77.352649,71.8239533 C77.352649,70.9323433 76.6097693,70.2047344 75.6875591,70.2047344 L75.6875591,70.2047344 L51.871334,70.2047344 C50.9491238,70.2047344 50.2062441,70.9323433 50.2062441,71.8239533 L50.2062441,71.8239533 L50.2062441,76.0819933 C50.2062441,76.4146715 49.9362172,76.6843605 49.603122,76.6843605 C49.2700269,76.6843605 49,76.4146715 49,76.0819933 L49,76.0819933 L49,71.8239533 C49,70.261667 50.2881464,69 51.871334,69 L51.871334,69 Z M26.6875591,69 C28.2707467,69 29.5588931,70.261667 29.5588931,71.8239533 L29.5588931,71.8239533 L29.5588931,121.439376 C29.5588931,123.001662 28.2707467,124.263329 26.6875591,124.263329 L26.6875591,124.263329 L2.87133396,124.263329 C1.28814641,124.263329 -1.687539e-13,123.001662 -1.687539e-13,121.439376 L-1.687539e-13,121.439376 L-1.687539e-13,78.5299324 C-1.687539e-13,78.1972541 0.270026937,77.9275652 0.603122044,77.9275652 C0.93621715,77.9275652 1.20624409,78.1972541 1.20624409,78.5299324 L1.20624409,78.5299324 L1.20624409,121.439376 C1.20624409,122.330986 1.94912381,123.058595 2.87133396,123.058595 L2.87133396,123.058595 L26.6875591,123.058595 C27.6097693,123.058595 28.352649,122.330986 28.352649,121.439376 L28.352649,121.439376 L28.352649,71.8239533 C28.352649,70.9323433 27.6097693,70.2047344 26.6875591,70.2047344 L26.6875591,70.2047344 L2.87133396,70.2047344 C1.94912381,70.2047344 1.20624409,70.9323433 1.20624409,71.8239533 L1.20624409,71.8239533 L1.20624409,76.0819933 C1.20624409,76.4146715 0.93621715,76.6843605 0.603122044,76.6843605 C0.270026937,76.6843605 -1.687539e-13,76.4146715 -1.687539e-13,76.0819933 L-1.687539e-13,76.0819933 L-1.687539e-13,71.8239533 C-1.687539e-13,70.261667 1.28814641,69 2.87133396,69 L2.87133396,69 Z M125.687559,69 C127.270747,69 128.558893,70.261667 128.558893,71.8239533 L128.558893,71.8239533 L128.558893,121.439376 C128.558893,123.001662 127.270747,124.263329 125.687559,124.263329 L125.687559,124.263329 L101.871334,124.263329 C100.288146,124.263329 99,123.001662 99,121.439376 L99,121.439376 L99,78.5299324 C99,78.1972541 99.2700269,77.9275652 99.603122,77.9275652 C99.9362172,77.9275652 100.206244,78.1972541 100.206244,78.5299324 L100.206244,78.5299324 L100.206244,121.439376 C100.206244,122.330986 100.949124,123.058595 101.871334,123.058595 L101.871334,123.058595 L125.687559,123.058595 C126.609769,123.058595 127.352649,122.330986 127.352649,121.439376 L127.352649,121.439376 L127.352649,71.8239533 C127.352649,70.9323433 126.609769,70.2047344 125.687559,70.2047344 L125.687559,70.2047344 L101.871334,70.2047344 C100.949124,70.2047344 100.206244,70.9323433 100.206244,71.8239533 L100.206244,71.8239533 L100.206244,76.0819933 C100.206244,76.4146715 99.9362172,76.6843605 99.603122,76.6843605 C99.2700269,76.6843605 99,76.4146715 99,76.0819933 L99,76.0819933 L99,71.8239533 C99,70.261667 100.288146,69 101.871334,69 L101.871334,69 Z M102.687559,0 C104.270747,0 105.558893,1.261667 105.558893,2.82395328 L105.558893,2.82395328 L105.558893,52.4393758 C105.558893,54.001662 104.270747,55.263329 102.687559,55.263329 L102.687559,55.263329 L78.871334,55.263329 C77.2881464,55.263329 76,54.001662 76,52.4393758 L76,52.4393758 L76,9.52993236 C76,9.19725414 76.2700269,8.92756516 76.603122,8.92756516 C76.9362172,8.92756516 77.2062441,9.19725414 77.2062441,9.52993236 L77.2062441,9.52993236 L77.2062441,52.4393758 C77.2062441,53.3309857 77.9491238,54.0585946 78.871334,54.0585946 L78.871334,54.0585946 L102.687559,54.0585946 C103.609769,54.0585946 104.352649,53.3309857 104.352649,52.4393758 L104.352649,52.4393758 L104.352649,2.82395328 C104.352649,1.93234333 103.609769,1.20473439 102.687559,1.20473439 L102.687559,1.20473439 L78.871334,1.20473439 C77.9491238,1.20473439 77.2062441,1.93234333 77.2062441,2.82395328 L77.2062441,2.82395328 L77.2062441,7.08199327 C77.2062441,7.41467148 76.9362172,7.68436046 76.603122,7.68436046 C76.2700269,7.68436046 76,7.41467148 76,7.08199327 L76,7.08199327 L76,2.82395328 C76,1.261667 77.2881464,0 78.871334,0 L78.871334,0 Z M51.6875591,2.84217094e-14 C53.2707467,2.84217094e-14 54.5588931,1.261667 54.5588931,2.82395328 L54.5588931,2.82395328 L54.5588931,52.4393758 C54.5588931,54.001662 53.2707467,55.263329 51.6875591,55.263329 L51.6875591,55.263329 L27.871334,55.263329 C26.2881464,55.263329 25,54.001662 25,52.4393758 L25,52.4393758 L25,9.52993236 C25,9.19725414 25.2700269,8.92756516 25.603122,8.92756516 C25.9362172,8.92756516 26.2062441,9.19725414 26.2062441,9.52993236 L26.2062441,9.52993236 L26.2062441,52.4393758 C26.2062441,53.3309857 26.9491238,54.0585946 27.871334,54.0585946 L27.871334,54.0585946 L51.6875591,54.0585946 C52.6097693,54.0585946 53.352649,53.3309857 53.352649,52.4393758 L53.352649,52.4393758 L53.352649,2.82395328 C53.352649,1.93234333 52.6097693,1.20473439 51.6875591,1.20473439 L51.6875591,1.20473439 L27.871334,1.20473439 C26.9491238,1.20473439 26.2062441,1.93234333 26.2062441,2.82395328 L26.2062441,2.82395328 L26.2062441,7.08199327 C26.2062441,7.41467148 25.9362172,7.68436046 25.603122,7.68436046 C25.2700269,7.68436046 25,7.41467148 25,7.08199327 L25,7.08199327 L25,2.82395328 C25,1.261667 26.2881464,2.84217094e-14 27.871334,2.84217094e-14 L27.871334,2.84217094e-14 Z M123.611952,49.066507 C124.98352,49.066507 126.095396,50.1783826 126.095396,51.5499507 C126.095396,52.9215188 124.98352,54.0333944 123.611952,54.0333944 C122.240384,54.0333944 121.128508,52.9215188 121.128508,51.5499507 C121.128508,50.1783826 122.240384,49.066507 123.611952,49.066507 Z M106.724535,46.0863745 C106.998848,46.0863745 107.221224,46.3087496 107.221224,46.5830633 C107.221224,46.8573769 106.998848,47.079752 106.724535,47.079752 C106.450221,47.079752 106.227846,46.8573769 106.227846,46.5830633 C106.227846,46.3087496 106.450221,46.0863745 106.724535,46.0863745 Z M8.38016399,29.1989573 C10.3003593,29.1989573 11.8569852,30.7555832 11.8569852,32.6757785 C11.8569852,34.5959738 10.3003593,36.1525997 8.38016399,36.1525997 C6.45996866,36.1525997 4.90334279,34.5959738 4.90334279,32.6757785 C4.90334279,30.7555832 6.45996866,29.1989573 8.38016399,29.1989573 Z" id="Combined-Shape" fill="#239A98"></path>
            <path d="M15.0159256,132.397633 C16.1204951,132.397633 17.0159256,133.293063 17.0159256,134.397633 C17.0159256,135.502202 16.1204951,136.397633 15.0159256,136.397633 C13.9113561,136.397633 13.0159256,135.502202 13.0159256,134.397633 C13.0159256,133.293063 13.9113561,132.397633 15.0159256,132.397633 Z M18.5159256,130.397633 C18.792068,130.397633 19.0159256,130.62149 19.0159256,130.897633 C19.0159256,131.173775 18.792068,131.397633 18.5159256,131.397633 C18.2397832,131.397633 18.0159256,131.173775 18.0159256,130.897633 C18.0159256,130.62149 18.2397832,130.397633 18.5159256,130.397633 Z M113.779447,109.599761 C114.206922,109.599761 114.62159,109.693493 114.999109,109.871615 C115.179816,109.956877 115.257103,110.172304 115.171735,110.352785 C115.086366,110.533266 114.870669,110.610456 114.689962,110.525195 C114.408683,110.392481 114.09954,110.322601 113.779447,110.322601 C112.620649,110.322601 111.68409,111.239908 111.68409,112.367899 C111.68409,113.49589 112.620649,114.413197 113.779447,114.413197 C114.938244,114.413197 115.874803,113.49589 115.874803,112.367899 C115.874803,111.948131 115.74536,111.548059 115.506794,111.209795 C115.391704,111.046608 115.43086,110.821135 115.594252,110.706189 C115.757644,110.591242 115.983399,110.630349 116.098489,110.793537 C116.422167,111.252481 116.598549,111.797629 116.598549,112.367899 C116.598549,113.898296 115.33483,115.136038 113.779447,115.136038 C112.224063,115.136038 110.960344,113.898296 110.960344,112.367899 C110.960344,110.837503 112.224063,109.599761 113.779447,109.599761 Z M14.7794465,109.599761 C15.2069215,109.599761 15.6215899,109.693493 15.9991093,109.871615 C16.1798164,109.956877 16.2571035,110.172304 16.1717348,110.352785 C16.0863662,110.533266 15.8706693,110.610456 15.6899622,110.525195 C15.4086828,110.392481 15.0995401,110.322601 14.7794465,110.322601 C13.6206493,110.322601 12.6840902,111.239908 12.6840902,112.367899 C12.6840902,113.49589 13.6206493,114.413197 14.7794465,114.413197 C15.9382437,114.413197 16.8748029,113.49589 16.8748029,112.367899 C16.8748029,111.948131 16.7453598,111.548059 16.5067942,111.209795 C16.3917036,111.046608 16.4308597,110.821135 16.5942518,110.706189 C16.757644,110.591242 16.9833989,110.630349 17.0984895,110.793537 C17.4221666,111.252481 17.5985494,111.797629 17.5985494,112.367899 C17.5985494,113.898296 16.3348302,115.136038 14.7794465,115.136038 C13.2240629,115.136038 11.9603437,113.898296 11.9603437,112.367899 C11.9603437,110.837503 13.2240629,109.599761 14.7794465,109.599761 Z M63.7794465,109.599761 C64.2069215,109.599761 64.6215899,109.693493 64.9991093,109.871615 C65.1798164,109.956877 65.2571035,110.172304 65.1717348,110.352785 C65.0863662,110.533266 64.8706693,110.610456 64.6899622,110.525195 C64.4086828,110.392481 64.0995401,110.322601 63.7794465,110.322601 C62.6206493,110.322601 61.6840902,111.239908 61.6840902,112.367899 C61.6840902,113.49589 62.6206493,114.413197 63.7794465,114.413197 C64.9382437,114.413197 65.8748029,113.49589 65.8748029,112.367899 C65.8748029,111.948131 65.7453598,111.548059 65.5067942,111.209795 C65.3917036,111.046608 65.4308597,110.821135 65.5942518,110.706189 C65.757644,110.591242 65.9833989,110.630349 66.0984895,110.793537 C66.4221666,111.252481 66.5985494,111.797629 66.5985494,112.367899 C66.5985494,113.898296 65.3348302,115.136038 63.7794465,115.136038 C62.2240629,115.136038 60.9603437,113.898296 60.9603437,112.367899 C60.9603437,110.837503 62.2240629,109.599761 63.7794465,109.599761 Z M113.779447,103.675531 C115.33483,103.675531 116.598549,104.913273 116.598549,106.44367 C116.598549,107.974066 115.33483,109.211808 113.779447,109.211808 C112.224063,109.211808 110.960344,107.974066 110.960344,106.44367 C110.960344,104.913273 112.224063,103.675531 113.779447,103.675531 Z M14.7794465,103.675531 C16.3348302,103.675531 17.5985494,104.913273 17.5985494,106.44367 C17.5985494,107.974066 16.3348302,109.211808 14.7794465,109.211808 C13.2240629,109.211808 11.9603437,107.974066 11.9603437,106.44367 C11.9603437,104.913273 13.2240629,103.675531 14.7794465,103.675531 Z M63.7794465,103.675531 C65.3348302,103.675531 66.5985494,104.913273 66.5985494,106.44367 C66.5985494,107.974066 65.3348302,109.211808 63.7794465,109.211808 C62.2240629,109.211808 60.9603437,107.974066 60.9603437,106.44367 C60.9603437,104.913273 62.2240629,103.675531 63.7794465,103.675531 Z M113.779447,104.398372 C112.620649,104.398372 111.68409,105.315679 111.68409,106.44367 C111.68409,107.571661 112.620649,108.488968 113.779447,108.488968 C114.938244,108.488968 115.874803,107.571661 115.874803,106.44367 C115.874803,105.315679 114.938244,104.398372 113.779447,104.398372 Z M63.7794465,104.398372 C62.6206493,104.398372 61.6840902,105.315679 61.6840902,106.44367 C61.6840902,107.571661 62.6206493,108.488968 63.7794465,108.488968 C64.9382437,108.488968 65.8748029,107.571661 65.8748029,106.44367 C65.8748029,105.315679 64.9382437,104.398372 63.7794465,104.398372 Z M14.7794465,104.398372 C13.6206493,104.398372 12.6840902,105.315679 12.6840902,106.44367 C12.6840902,107.571661 13.6206493,108.488968 14.7794465,108.488968 C15.9382437,108.488968 16.8748029,107.571661 16.8748029,106.44367 C16.8748029,105.315679 15.9382437,104.398372 14.7794465,104.398372 Z M106.21874,97.7513016 C107.774124,97.7513016 109.037843,98.9890435 109.037843,100.51944 C109.037843,102.049837 107.774124,103.287579 106.21874,103.287579 C104.663356,103.287579 103.399637,102.049837 103.399637,100.51944 C103.399637,98.9890435 104.663356,97.7513016 106.21874,97.7513016 Z M113.779447,97.7513016 C114.206922,97.7513016 114.62159,97.845034 114.999109,98.0231564 C115.179816,98.1084181 115.257103,98.3238451 115.171735,98.504326 C115.086366,98.6848069 114.870669,98.7619973 114.689962,98.6767355 C114.408683,98.5440214 114.09954,98.4741422 113.779447,98.4741422 C112.620649,98.4741422 111.68409,99.3914493 111.68409,100.51944 C111.68409,101.647431 112.620649,102.564738 113.779447,102.564738 C114.938244,102.564738 115.874803,101.647431 115.874803,100.51944 C115.874803,100.099672 115.74536,99.6995998 115.506794,99.3613363 C115.391704,99.1981486 115.43086,98.9726763 115.594252,98.8577297 C115.757644,98.7427831 115.983399,98.7818902 116.098489,98.9450778 C116.422167,99.4040215 116.598549,99.9491703 116.598549,100.51944 C116.598549,102.049837 115.33483,103.287579 113.779447,103.287579 C112.224063,103.287579 110.960344,102.049837 110.960344,100.51944 C110.960344,98.9890435 112.224063,97.7513016 113.779447,97.7513016 Z M121.340153,97.7513016 C122.895537,97.7513016 124.159256,98.9890435 124.159256,100.51944 C124.159256,102.049837 122.895537,103.287579 121.340153,103.287579 C119.784769,103.287579 118.52105,102.049837 118.52105,100.51944 C118.52105,98.9890435 119.784769,97.7513016 121.340153,97.7513016 Z M56.2187401,97.7513016 C57.7741238,97.7513016 59.037843,98.9890435 59.037843,100.51944 C59.037843,102.049837 57.7741238,103.287579 56.2187401,103.287579 C54.6633565,103.287579 53.3996373,102.049837 53.3996373,100.51944 C53.3996373,98.9890435 54.6633565,97.7513016 56.2187401,97.7513016 Z M63.7794465,97.7513016 C64.2069215,97.7513016 64.6215899,97.845034 64.9991093,98.0231564 C65.1798164,98.1084181 65.2571035,98.3238451 65.1717348,98.504326 C65.0863662,98.6848069 64.8706693,98.7619973 64.6899622,98.6767355 C64.4086828,98.5440214 64.0995401,98.4741422 63.7794465,98.4741422 C62.6206493,98.4741422 61.6840902,99.3914493 61.6840902,100.51944 C61.6840902,101.647431 62.6206493,102.564738 63.7794465,102.564738 C64.9382437,102.564738 65.8748029,101.647431 65.8748029,100.51944 C65.8748029,100.099672 65.7453598,99.6995998 65.5067942,99.3613363 C65.3917036,99.1981486 65.4308597,98.9726763 65.5942518,98.8577297 C65.757644,98.7427831 65.9833989,98.7818902 66.0984895,98.9450778 C66.4221666,99.4040215 66.5985494,99.9491703 66.5985494,100.51944 C66.5985494,102.049837 65.3348302,103.287579 63.7794465,103.287579 C62.2240629,103.287579 60.9603437,102.049837 60.9603437,100.51944 C60.9603437,98.9890435 62.2240629,97.7513016 63.7794465,97.7513016 Z M71.3401529,97.7513016 C72.8955366,97.7513016 74.1592558,98.9890435 74.1592558,100.51944 C74.1592558,102.049837 72.8955366,103.287579 71.3401529,103.287579 C69.7847693,103.287579 68.5210501,102.049837 68.5210501,100.51944 C68.5210501,98.9890435 69.7847693,97.7513016 71.3401529,97.7513016 Z M7.21874015,97.7513016 C8.77412379,97.7513016 10.037843,98.9890435 10.037843,100.51944 C10.037843,102.049837 8.77412379,103.287579 7.21874015,103.287579 C5.6633565,103.287579 4.39963734,102.049837 4.39963734,100.51944 C4.39963734,98.9890435 5.6633565,97.7513016 7.21874015,97.7513016 Z M22.3401529,97.7513016 C23.8955366,97.7513016 25.1592558,98.9890435 25.1592558,100.51944 C25.1592558,102.049837 23.8955366,103.287579 22.3401529,103.287579 C20.7847693,103.287579 19.5210501,102.049837 19.5210501,100.51944 C19.5210501,98.9890435 20.7847693,97.7513016 22.3401529,97.7513016 Z M14.7794465,97.7513016 C15.2069215,97.7513016 15.6215899,97.845034 15.9991093,98.0231564 C16.1798164,98.1084181 16.2571035,98.3238451 16.1717348,98.504326 C16.0863662,98.6848069 15.8706693,98.7619973 15.6899622,98.6767355 C15.4086828,98.5440214 15.0995401,98.4741422 14.7794465,98.4741422 C13.6206493,98.4741422 12.6840902,99.3914493 12.6840902,100.51944 C12.6840902,101.647431 13.6206493,102.564738 14.7794465,102.564738 C15.9382437,102.564738 16.8748029,101.647431 16.8748029,100.51944 C16.8748029,100.099672 16.7453598,99.6995998 16.5067942,99.3613363 C16.3917036,99.1981486 16.4308597,98.9726763 16.5942518,98.8577297 C16.757644,98.7427831 16.9833989,98.7818902 17.0984895,98.9450778 C17.4221666,99.4040215 17.5985494,99.9491703 17.5985494,100.51944 C17.5985494,102.049837 16.3348302,103.287579 14.7794465,103.287579 C13.2240629,103.287579 11.9603437,102.049837 11.9603437,100.51944 C11.9603437,98.9890435 13.2240629,97.7513016 14.7794465,97.7513016 Z M121.340153,98.4741422 C120.181356,98.4741422 119.244797,99.3914493 119.244797,100.51944 C119.244797,101.647431 120.181356,102.564738 121.340153,102.564738 C122.49895,102.564738 123.435509,101.647431 123.435509,100.51944 C123.435509,99.3914493 122.49895,98.4741422 121.340153,98.4741422 Z M106.21874,98.4741422 C105.059943,98.4741422 104.123384,99.3914493 104.123384,100.51944 C104.123384,101.647431 105.059943,102.564738 106.21874,102.564738 C107.377537,102.564738 108.314096,101.647431 108.314096,100.51944 C108.314096,99.3914493 107.377537,98.4741422 106.21874,98.4741422 Z M71.3401529,98.4741422 C70.1813557,98.4741422 69.2447966,99.3914493 69.2447966,100.51944 C69.2447966,101.647431 70.1813557,102.564738 71.3401529,102.564738 C72.4989502,102.564738 73.4355093,101.647431 73.4355093,100.51944 C73.4355093,99.3914493 72.4989502,98.4741422 71.3401529,98.4741422 Z M56.2187401,98.4741422 C55.0599429,98.4741422 54.1233838,99.3914493 54.1233838,100.51944 C54.1233838,101.647431 55.0599429,102.564738 56.2187401,102.564738 C57.3775373,102.564738 58.3140965,101.647431 58.3140965,100.51944 C58.3140965,99.3914493 57.3775373,98.4741422 56.2187401,98.4741422 Z M7.21874015,98.4741422 C6.05994294,98.4741422 5.12338379,99.3914493 5.12338379,100.51944 C5.12338379,101.647431 6.05994294,102.564738 7.21874015,102.564738 C8.37753735,102.564738 9.3140965,101.647431 9.3140965,100.51944 C9.3140965,99.3914493 8.37753735,98.4741422 7.21874015,98.4741422 Z M22.3401529,98.4741422 C21.1813557,98.4741422 20.2447966,99.3914493 20.2447966,100.51944 C20.2447966,101.647431 21.1813557,102.564738 22.3401529,102.564738 C23.4989502,102.564738 24.4355093,101.647431 24.4355093,100.51944 C24.4355093,99.3914493 23.4989502,98.4741422 22.3401529,98.4741422 Z M71.3401529,91.827072 C72.8955366,91.827072 74.1592558,93.0648139 74.1592558,94.5952106 C74.1592558,96.1256073 72.8955366,97.3633492 71.3401529,97.3633492 C69.7847693,97.3633492 68.5210501,96.1256073 68.5210501,94.5952106 C68.5210501,93.0648139 69.7847693,91.827072 71.3401529,91.827072 Z M7.21874015,91.827072 C7.64621513,91.827072 8.06088354,91.9208045 8.43840288,92.0989268 C8.61910995,92.1841886 8.69639705,92.3996156 8.61102844,92.5800965 C8.52565984,92.7605774 8.30996288,92.8377678 8.1292558,92.752506 C7.8479764,92.6197919 7.53883368,92.5499127 7.21874015,92.5499127 C6.05994294,92.5499127 5.12338379,93.4672197 5.12338379,94.5952106 C5.12338379,95.7232015 6.05994294,96.6405085 7.21874015,96.6405085 C8.37753735,96.6405085 9.3140965,95.7232015 9.3140965,94.5952106 C9.3140965,94.175442 9.18465342,93.7753702 8.94608779,93.4371067 C8.83099716,93.2739191 8.87015328,93.0484467 9.03354542,92.9335001 C9.19693756,92.8185535 9.42269246,92.8576606 9.53778309,93.0208483 C9.86146024,93.4797919 10.037843,94.0249408 10.037843,94.5952106 C10.037843,96.1256073 8.77412379,97.3633492 7.21874015,97.3633492 C5.6633565,97.3633492 4.39963734,96.1256073 4.39963734,94.5952106 C4.39963734,93.0648139 5.6633565,91.827072 7.21874015,91.827072 Z M22.3401529,91.827072 C23.8955366,91.827072 25.1592558,93.0648139 25.1592558,94.5952106 C25.1592558,96.1256073 23.8955366,97.3633492 22.3401529,97.3633492 C20.7847693,97.3633492 19.5210501,96.1256073 19.5210501,94.5952106 C19.5210501,93.0648139 20.7847693,91.827072 22.3401529,91.827072 Z M14.7794465,91.827072 C16.3348302,91.827072 17.5985494,93.0648139 17.5985494,94.5952106 C17.5985494,96.1256073 16.3348302,97.3633492 14.7794465,97.3633492 C13.2240629,97.3633492 11.9603437,96.1256073 11.9603437,94.5952106 C11.9603437,94.1495612 12.067968,93.7183501 12.2712783,93.3303172 C12.7511451,92.4144554 13.7126669,91.827072 14.7794465,91.827072 Z M63.7794465,91.827072 C65.3348302,91.827072 66.5985494,93.0648139 66.5985494,94.5952106 C66.5985494,96.1256073 65.3348302,97.3633492 63.7794465,97.3633492 C62.2240629,97.3633492 60.9603437,96.1256073 60.9603437,94.5952106 C60.9603437,94.1495612 61.067968,93.7183501 61.2712783,93.3303172 C61.7511451,92.4144554 62.7126669,91.827072 63.7794465,91.827072 Z M56.2187401,91.827072 C56.6462151,91.827072 57.0608835,91.9208045 57.4384029,92.0989268 C57.61911,92.1841886 57.6963971,92.3996156 57.6110284,92.5800965 C57.5256598,92.7605774 57.3099629,92.8377678 57.1292558,92.752506 C56.8479764,92.6197919 56.5388337,92.5499127 56.2187401,92.5499127 C55.0599429,92.5499127 54.1233838,93.4672197 54.1233838,94.5952106 C54.1233838,95.7232015 55.0599429,96.6405085 56.2187401,96.6405085 C57.3775373,96.6405085 58.3140965,95.7232015 58.3140965,94.5952106 C58.3140965,94.175442 58.1846534,93.7753702 57.9460878,93.4371067 C57.8309972,93.2739191 57.8701533,93.0484467 58.0335454,92.9335001 C58.1969376,92.8185535 58.4226925,92.8576606 58.5377831,93.0208483 C58.8614602,93.4797919 59.037843,94.0249408 59.037843,94.5952106 C59.037843,96.1256073 57.7741238,97.3633492 56.2187401,97.3633492 C54.6633565,97.3633492 53.3996373,96.1256073 53.3996373,94.5952106 C53.3996373,93.0648139 54.6633565,91.827072 56.2187401,91.827072 Z M106.21874,91.827072 C106.646215,91.827072 107.060884,91.9208045 107.438403,92.0989268 C107.61911,92.1841886 107.696397,92.3996156 107.611028,92.5800965 C107.52566,92.7605774 107.309963,92.8377678 107.129256,92.752506 C106.847976,92.6197919 106.538834,92.5499127 106.21874,92.5499127 C105.059943,92.5499127 104.123384,93.4672197 104.123384,94.5952106 C104.123384,95.7232015 105.059943,96.6405085 106.21874,96.6405085 C107.377537,96.6405085 108.314096,95.7232015 108.314096,94.5952106 C108.314096,94.175442 108.184653,93.7753702 107.946088,93.4371067 C107.830997,93.2739191 107.870153,93.0484467 108.033545,92.9335001 C108.196938,92.8185535 108.422692,92.8576606 108.537783,93.0208483 C108.86146,93.4797919 109.037843,94.0249408 109.037843,94.5952106 C109.037843,96.1256073 107.774124,97.3633492 106.21874,97.3633492 C104.663356,97.3633492 103.399637,96.1256073 103.399637,94.5952106 C103.399637,93.0648139 104.663356,91.827072 106.21874,91.827072 Z M121.340153,91.827072 C122.895537,91.827072 124.159256,93.0648139 124.159256,94.5952106 C124.159256,96.1256073 122.895537,97.3633492 121.340153,97.3633492 C119.784769,97.3633492 118.52105,96.1256073 118.52105,94.5952106 C118.52105,93.0648139 119.784769,91.827072 121.340153,91.827072 Z M113.779447,91.827072 C115.33483,91.827072 116.598549,93.0648139 116.598549,94.5952106 C116.598549,96.1256073 115.33483,97.3633492 113.779447,97.3633492 C112.224063,97.3633492 110.960344,96.1256073 110.960344,94.5952106 C110.960344,94.1495612 111.067968,93.7183501 111.271278,93.3303172 C111.751145,92.4144554 112.712667,91.827072 113.779447,91.827072 Z M63.7794465,92.5499127 C62.9832877,92.5499127 62.2681146,92.9868043 61.9125312,93.6654619 C61.7630419,93.9507736 61.6840902,94.2671039 61.6840902,94.5952106 C61.6840902,95.7232015 62.6206493,96.6405085 63.7794465,96.6405085 C64.9382437,96.6405085 65.8748029,95.7232015 65.8748029,94.5952106 C65.8748029,93.4672197 64.9382437,92.5499127 63.7794465,92.5499127 Z M22.3401529,92.5499127 C21.1813557,92.5499127 20.2447966,93.4672197 20.2447966,94.5952106 C20.2447966,95.7232015 21.1813557,96.6405085 22.3401529,96.6405085 C23.4989502,96.6405085 24.4355093,95.7232015 24.4355093,94.5952106 C24.4355093,93.4672197 23.4989502,92.5499127 22.3401529,92.5499127 Z M14.7794465,92.5499127 C13.9832877,92.5499127 13.2681146,92.9868043 12.9125312,93.6654619 C12.7630419,93.9507736 12.6840902,94.2671039 12.6840902,94.5952106 C12.6840902,95.7232015 13.6206493,96.6405085 14.7794465,96.6405085 C15.9382437,96.6405085 16.8748029,95.7232015 16.8748029,94.5952106 C16.8748029,93.4672197 15.9382437,92.5499127 14.7794465,92.5499127 Z M121.340153,92.5499127 C120.181356,92.5499127 119.244797,93.4672197 119.244797,94.5952106 C119.244797,95.7232015 120.181356,96.6405085 121.340153,96.6405085 C122.49895,96.6405085 123.435509,95.7232015 123.435509,94.5952106 C123.435509,93.4672197 122.49895,92.5499127 121.340153,92.5499127 Z M113.779447,92.5499127 C112.983288,92.5499127 112.268115,92.9868043 111.912531,93.6654619 C111.763042,93.9507736 111.68409,94.2671039 111.68409,94.5952106 C111.68409,95.7232015 112.620649,96.6405085 113.779447,96.6405085 C114.938244,96.6405085 115.874803,95.7232015 115.874803,94.5952106 C115.874803,93.4672197 114.938244,92.5499127 113.779447,92.5499127 Z M71.3401529,92.5499127 C70.1813557,92.5499127 69.2447966,93.4672197 69.2447966,94.5952106 C69.2447966,95.7232015 70.1813557,96.6405085 71.3401529,96.6405085 C72.4989502,96.6405085 73.4355093,95.7232015 73.4355093,94.5952106 C73.4355093,93.4672197 72.4989502,92.5499127 71.3401529,92.5499127 Z M63.7794465,85.9028425 C65.3348302,85.9028425 66.5985494,87.1405844 66.5985494,88.6709811 C66.5985494,90.2013777 65.3348302,91.4391196 63.7794465,91.4391196 C62.2240629,91.4391196 60.9603437,90.2013777 60.9603437,88.6709811 C60.9603437,87.1405844 62.2240629,85.9028425 63.7794465,85.9028425 Z M22.3401529,85.9028425 C22.7676279,85.9028425 23.1822963,85.9965749 23.5598157,86.1746973 C23.7405228,86.259959 23.8178099,86.475386 23.7324412,86.6558669 C23.6470726,86.8363478 23.4313757,86.9135382 23.2506686,86.8282765 C22.9693892,86.6955623 22.6602465,86.6256831 22.3401529,86.6256831 C21.1813557,86.6256831 20.2447966,87.5429902 20.2447966,88.6709811 C20.2447966,89.798972 21.1813557,90.716279 22.3401529,90.716279 C23.4989502,90.716279 24.4355093,89.798972 24.4355093,88.6709811 C24.4355093,88.2512125 24.3060662,87.8511407 24.0675006,87.5128772 C23.95241,87.3496895 23.9915661,87.1242172 24.1549582,87.0092706 C24.3183504,86.894324 24.5441053,86.9334311 24.6591959,87.0966187 C24.982873,87.5555624 25.1592558,88.1007112 25.1592558,88.6709811 C25.1592558,90.2013777 23.8955366,91.4391196 22.3401529,91.4391196 C20.7847693,91.4391196 19.5210501,90.2013777 19.5210501,88.6709811 C19.5210501,87.1405844 20.7847693,85.9028425 22.3401529,85.9028425 Z M7.21874015,85.9028425 C8.77412379,85.9028425 10.037843,87.1405844 10.037843,88.6709811 C10.037843,90.2013777 8.77412379,91.4391196 7.21874015,91.4391196 C5.6633565,91.4391196 4.39963734,90.2013777 4.39963734,88.6709811 C4.39963734,87.1405844 5.6633565,85.9028425 7.21874015,85.9028425 Z M121.340153,85.9028425 C121.767628,85.9028425 122.182296,85.9965749 122.559816,86.1746973 C122.740523,86.259959 122.81781,86.475386 122.732441,86.6558669 C122.647073,86.8363478 122.431376,86.9135382 122.250669,86.8282765 C121.969389,86.6955623 121.660246,86.6256831 121.340153,86.6256831 C120.181356,86.6256831 119.244797,87.5429902 119.244797,88.6709811 C119.244797,89.798972 120.181356,90.716279 121.340153,90.716279 C122.49895,90.716279 123.435509,89.798972 123.435509,88.6709811 C123.435509,88.2512125 123.306066,87.8511407 123.067501,87.5128772 C122.95241,87.3496895 122.991566,87.1242172 123.154958,87.0092706 C123.31835,86.894324 123.544105,86.9334311 123.659196,87.0966187 C123.982873,87.5555624 124.159256,88.1007112 124.159256,88.6709811 C124.159256,90.2013777 122.895537,91.4391196 121.340153,91.4391196 C119.784769,91.4391196 118.52105,90.2013777 118.52105,88.6709811 C118.52105,87.1405844 119.784769,85.9028425 121.340153,85.9028425 Z M56.2187401,85.9028425 C57.7741238,85.9028425 59.037843,87.1405844 59.037843,88.6709811 C59.037843,90.2013777 57.7741238,91.4391196 56.2187401,91.4391196 C54.6633565,91.4391196 53.3996373,90.2013777 53.3996373,88.6709811 C53.3996373,87.1405844 54.6633565,85.9028425 56.2187401,85.9028425 Z M106.21874,85.9028425 C107.774124,85.9028425 109.037843,87.1405844 109.037843,88.6709811 C109.037843,90.2013777 107.774124,91.4391196 106.21874,91.4391196 C104.663356,91.4391196 103.399637,90.2013777 103.399637,88.6709811 C103.399637,87.1405844 104.663356,85.9028425 106.21874,85.9028425 Z M113.779447,85.9028425 C115.33483,85.9028425 116.598549,87.1405844 116.598549,88.6709811 C116.598549,90.2013777 115.33483,91.4391196 113.779447,91.4391196 C112.224063,91.4391196 110.960344,90.2013777 110.960344,88.6709811 C110.960344,87.1405844 112.224063,85.9028425 113.779447,85.9028425 Z M14.7794465,85.9028425 C16.3348302,85.9028425 17.5985494,87.1405844 17.5985494,88.6709811 C17.5985494,90.2013777 16.3348302,91.4391196 14.7794465,91.4391196 C13.2240629,91.4391196 11.9603437,90.2013777 11.9603437,88.6709811 C11.9603437,87.1405844 13.2240629,85.9028425 14.7794465,85.9028425 Z M71.3401529,85.9028425 C71.7676279,85.9028425 72.1822963,85.9965749 72.5598157,86.1746973 C72.7405228,86.259959 72.8178099,86.475386 72.7324412,86.6558669 C72.6470726,86.8363478 72.4313757,86.9135382 72.2506686,86.8282765 C71.9693892,86.6955623 71.6602465,86.6256831 71.3401529,86.6256831 C70.1813557,86.6256831 69.2447966,87.5429902 69.2447966,88.6709811 C69.2447966,89.798972 70.1813557,90.716279 71.3401529,90.716279 C72.4989502,90.716279 73.4355093,89.798972 73.4355093,88.6709811 C73.4355093,88.2512125 73.3060662,87.8511407 73.0675006,87.5128772 C72.95241,87.3496895 72.9915661,87.1242172 73.1549582,87.0092706 C73.3183504,86.894324 73.5441053,86.9334311 73.6591959,87.0966187 C73.982873,87.5555624 74.1592558,88.1007112 74.1592558,88.6709811 C74.1592558,90.2013777 72.8955366,91.4391196 71.3401529,91.4391196 C69.7847693,91.4391196 68.5210501,90.2013777 68.5210501,88.6709811 C68.5210501,87.1405844 69.7847693,85.9028425 71.3401529,85.9028425 Z M7.21874015,86.6256831 C6.05994294,86.6256831 5.12338379,87.5429902 5.12338379,88.6709811 C5.12338379,89.798972 6.05994294,90.716279 7.21874015,90.716279 C8.37753735,90.716279 9.3140965,89.798972 9.3140965,88.6709811 C9.3140965,87.5429902 8.37753735,86.6256831 7.21874015,86.6256831 Z M56.2187401,86.6256831 C55.0599429,86.6256831 54.1233838,87.5429902 54.1233838,88.6709811 C54.1233838,89.798972 55.0599429,90.716279 56.2187401,90.716279 C57.3775373,90.716279 58.3140965,89.798972 58.3140965,88.6709811 C58.3140965,87.5429902 57.3775373,86.6256831 56.2187401,86.6256831 Z M14.7794465,86.6256831 C13.6206493,86.6256831 12.6840902,87.5429902 12.6840902,88.6709811 C12.6840902,89.798972 13.6206493,90.716279 14.7794465,90.716279 C15.9382437,90.716279 16.8748029,89.798972 16.8748029,88.6709811 C16.8748029,87.5429902 15.9382437,86.6256831 14.7794465,86.6256831 Z M106.21874,86.6256831 C105.059943,86.6256831 104.123384,87.5429902 104.123384,88.6709811 C104.123384,89.798972 105.059943,90.716279 106.21874,90.716279 C107.377537,90.716279 108.314096,89.798972 108.314096,88.6709811 C108.314096,87.5429902 107.377537,86.6256831 106.21874,86.6256831 Z M113.779447,86.6256831 C112.620649,86.6256831 111.68409,87.5429902 111.68409,88.6709811 C111.68409,89.798972 112.620649,90.716279 113.779447,90.716279 C114.938244,90.716279 115.874803,89.798972 115.874803,88.6709811 C115.874803,87.5429902 114.938244,86.6256831 113.779447,86.6256831 Z M63.7794465,86.6256831 C62.6206493,86.6256831 61.6840902,87.5429902 61.6840902,88.6709811 C61.6840902,89.798972 62.6206493,90.716279 63.7794465,90.716279 C64.9382437,90.716279 65.8748029,89.798972 65.8748029,88.6709811 C65.8748029,87.5429902 64.9382437,86.6256831 63.7794465,86.6256831 Z M40.0159256,80.3976328 C41.1204951,80.3976328 42.0159256,81.2930633 42.0159256,82.3976328 C42.0159256,83.5022023 41.1204951,84.3976328 40.0159256,84.3976328 C38.9113561,84.3976328 38.0159256,83.5022023 38.0159256,82.3976328 C38.0159256,81.2930633 38.9113561,80.3976328 40.0159256,80.3976328 Z M90.7794465,40.5997607 C91.2069215,40.5997607 91.6215899,40.6934931 91.9991093,40.8716155 C92.1798164,40.9568772 92.2571035,41.1723042 92.1717348,41.3527851 C92.0863662,41.533266 91.8706693,41.6104564 91.6899622,41.5251946 C91.4086828,41.3924805 91.0995401,41.3226013 90.7794465,41.3226013 C89.6206493,41.3226013 88.6840902,42.2399084 88.6840902,43.3678993 C88.6840902,44.4958901 89.6206493,45.4131972 90.7794465,45.4131972 C91.9382437,45.4131972 92.8748029,44.4958901 92.8748029,43.3678993 C92.8748029,42.9481307 92.7453598,42.5480589 92.5067942,42.2097954 C92.3917036,42.0466077 92.4308597,41.8211354 92.5942518,41.7061888 C92.757644,41.5912422 92.9833989,41.6303493 93.0984895,41.7935369 C93.4221666,42.2524806 93.5985494,42.7976294 93.5985494,43.3678993 C93.5985494,44.8982959 92.3348302,46.1360378 90.7794465,46.1360378 C89.2240629,46.1360378 87.9603437,44.8982959 87.9603437,43.3678993 C87.9603437,41.8375026 89.2240629,40.5997607 90.7794465,40.5997607 Z M39.7794465,40.5997607 C40.2069215,40.5997607 40.6215899,40.6934931 40.9991093,40.8716155 C41.1798164,40.9568772 41.2571035,41.1723042 41.1717348,41.3527851 C41.0863662,41.533266 40.8706693,41.6104564 40.6899622,41.5251946 C40.4086828,41.3924805 40.0995401,41.3226013 39.7794465,41.3226013 C38.6206493,41.3226013 37.6840902,42.2399084 37.6840902,43.3678993 C37.6840902,44.4958901 38.6206493,45.4131972 39.7794465,45.4131972 C40.9382437,45.4131972 41.8748029,44.4958901 41.8748029,43.3678993 C41.8748029,42.9481307 41.7453598,42.5480589 41.5067942,42.2097954 C41.3917036,42.0466077 41.4308597,41.8211354 41.5942518,41.7061888 C41.757644,41.5912422 41.9833989,41.6303493 42.0984895,41.7935369 C42.4221666,42.2524806 42.5985494,42.7976294 42.5985494,43.3678993 C42.5985494,44.8982959 41.3348302,46.1360378 39.7794465,46.1360378 C38.2240629,46.1360378 36.9603437,44.8982959 36.9603437,43.3678993 C36.9603437,41.8375026 38.2240629,40.5997607 39.7794465,40.5997607 Z M90.7794465,34.6755311 C92.3348302,34.6755311 93.5985494,35.913273 93.5985494,37.4436697 C93.5985494,38.9740664 92.3348302,40.2118083 90.7794465,40.2118083 C89.2240629,40.2118083 87.9603437,38.9740664 87.9603437,37.4436697 C87.9603437,35.913273 89.2240629,34.6755311 90.7794465,34.6755311 Z M39.7794465,34.6755311 C41.3348302,34.6755311 42.5985494,35.913273 42.5985494,37.4436697 C42.5985494,38.9740664 41.3348302,40.2118083 39.7794465,40.2118083 C38.2240629,40.2118083 36.9603437,38.9740664 36.9603437,37.4436697 C36.9603437,35.913273 38.2240629,34.6755311 39.7794465,34.6755311 Z M90.7794465,35.3983718 C89.6206493,35.3983718 88.6840902,36.3156788 88.6840902,37.4436697 C88.6840902,38.5716606 89.6206493,39.4889676 90.7794465,39.4889676 C91.9382437,39.4889676 92.8748029,38.5716606 92.8748029,37.4436697 C92.8748029,36.3156788 91.9382437,35.3983718 90.7794465,35.3983718 Z M39.7794465,35.3983718 C38.6206493,35.3983718 37.6840902,36.3156788 37.6840902,37.4436697 C37.6840902,38.5716606 38.6206493,39.4889676 39.7794465,39.4889676 C40.9382437,39.4889676 41.8748029,38.5716606 41.8748029,37.4436697 C41.8748029,36.3156788 40.9382437,35.3983718 39.7794465,35.3983718 Z M39.7794465,28.7513016 C40.2069215,28.7513016 40.6215899,28.845034 40.9991093,29.0231564 C41.1798164,29.1084181 41.2571035,29.3238451 41.1717348,29.504326 C41.0863662,29.6848069 40.8706693,29.7619973 40.6899622,29.6767355 C40.4086828,29.5440214 40.0995401,29.4741422 39.7794465,29.4741422 C38.6206493,29.4741422 37.6840902,30.3914493 37.6840902,31.5194402 C37.6840902,32.647431 38.6206493,33.5647381 39.7794465,33.5647381 C40.9382437,33.5647381 41.8748029,32.647431 41.8748029,31.5194402 C41.8748029,31.0996716 41.7453598,30.6995998 41.5067942,30.3613363 C41.3917036,30.1981486 41.4308597,29.9726763 41.5942518,29.8577297 C41.757644,29.7427831 41.9833989,29.7818902 42.0984895,29.9450778 C42.4221666,30.4040215 42.5985494,30.9491703 42.5985494,31.5194402 C42.5985494,33.0498368 41.3348302,34.2875787 39.7794465,34.2875787 C38.2240629,34.2875787 36.9603437,33.0498368 36.9603437,31.5194402 C36.9603437,29.9890435 38.2240629,28.7513016 39.7794465,28.7513016 Z M47.3401529,28.7513016 C48.8955366,28.7513016 50.1592558,29.9890435 50.1592558,31.5194402 C50.1592558,33.0498368 48.8955366,34.2875787 47.3401529,34.2875787 C45.7847693,34.2875787 44.5210501,33.0498368 44.5210501,31.5194402 C44.5210501,29.9890435 45.7847693,28.7513016 47.3401529,28.7513016 Z M83.2187401,28.7513016 C84.7741238,28.7513016 86.037843,29.9890435 86.037843,31.5194402 C86.037843,33.0498368 84.7741238,34.2875787 83.2187401,34.2875787 C81.6633565,34.2875787 80.3996373,33.0498368 80.3996373,31.5194402 C80.3996373,29.9890435 81.6633565,28.7513016 83.2187401,28.7513016 Z M98.3401529,28.7513016 C99.8955366,28.7513016 101.159256,29.9890435 101.159256,31.5194402 C101.159256,33.0498368 99.8955366,34.2875787 98.3401529,34.2875787 C96.7847693,34.2875787 95.5210501,33.0498368 95.5210501,31.5194402 C95.5210501,29.9890435 96.7847693,28.7513016 98.3401529,28.7513016 Z M90.7794465,28.7513016 C91.2069215,28.7513016 91.6215899,28.845034 91.9991093,29.0231564 C92.1798164,29.1084181 92.2571035,29.3238451 92.1717348,29.504326 C92.0863662,29.6848069 91.8706693,29.7619973 91.6899622,29.6767355 C91.4086828,29.5440214 91.0995401,29.4741422 90.7794465,29.4741422 C89.6206493,29.4741422 88.6840902,30.3914493 88.6840902,31.5194402 C88.6840902,32.647431 89.6206493,33.5647381 90.7794465,33.5647381 C91.9382437,33.5647381 92.8748029,32.647431 92.8748029,31.5194402 C92.8748029,31.0996716 92.7453598,30.6995998 92.5067942,30.3613363 C92.3917036,30.1981486 92.4308597,29.9726763 92.5942518,29.8577297 C92.757644,29.7427831 92.9833989,29.7818902 93.0984895,29.9450778 C93.4221666,30.4040215 93.5985494,30.9491703 93.5985494,31.5194402 C93.5985494,33.0498368 92.3348302,34.2875787 90.7794465,34.2875787 C89.2240629,34.2875787 87.9603437,33.0498368 87.9603437,31.5194402 C87.9603437,29.9890435 89.2240629,28.7513016 90.7794465,28.7513016 Z M32.2187401,28.7513016 C33.7741238,28.7513016 35.037843,29.9890435 35.037843,31.5194402 C35.037843,33.0498368 33.7741238,34.2875787 32.2187401,34.2875787 C30.6633565,34.2875787 29.3996373,33.0498368 29.3996373,31.5194402 C29.3996373,29.9890435 30.6633565,28.7513016 32.2187401,28.7513016 Z M83.2187401,29.4741422 C82.0599429,29.4741422 81.1233838,30.3914493 81.1233838,31.5194402 C81.1233838,32.647431 82.0599429,33.5647381 83.2187401,33.5647381 C84.3775373,33.5647381 85.3140965,32.647431 85.3140965,31.5194402 C85.3140965,30.3914493 84.3775373,29.4741422 83.2187401,29.4741422 Z M98.3401529,29.4741422 C97.1813557,29.4741422 96.2447966,30.3914493 96.2447966,31.5194402 C96.2447966,32.647431 97.1813557,33.5647381 98.3401529,33.5647381 C99.4989502,33.5647381 100.435509,32.647431 100.435509,31.5194402 C100.435509,30.3914493 99.4989502,29.4741422 98.3401529,29.4741422 Z M47.3401529,29.4741422 C46.1813557,29.4741422 45.2447966,30.3914493 45.2447966,31.5194402 C45.2447966,32.647431 46.1813557,33.5647381 47.3401529,33.5647381 C48.4989502,33.5647381 49.4355093,32.647431 49.4355093,31.5194402 C49.4355093,30.3914493 48.4989502,29.4741422 47.3401529,29.4741422 Z M32.2187401,29.4741422 C31.0599429,29.4741422 30.1233838,30.3914493 30.1233838,31.5194402 C30.1233838,32.647431 31.0599429,33.5647381 32.2187401,33.5647381 C33.3775373,33.5647381 34.3140965,32.647431 34.3140965,31.5194402 C34.3140965,30.3914493 33.3775373,29.4741422 32.2187401,29.4741422 Z M90.7794465,22.827072 C92.3348302,22.827072 93.5985494,24.0648139 93.5985494,25.5952106 C93.5985494,27.1256073 92.3348302,28.3633492 90.7794465,28.3633492 C89.2240629,28.3633492 87.9603437,27.1256073 87.9603437,25.5952106 C87.9603437,25.1495612 88.067968,24.7183501 88.2712783,24.3303172 C88.7511451,23.4144554 89.7126669,22.827072 90.7794465,22.827072 Z M83.2187401,22.827072 C83.6462151,22.827072 84.0608835,22.9208045 84.4384029,23.0989268 C84.61911,23.1841886 84.6963971,23.3996156 84.6110284,23.5800965 C84.5256598,23.7605774 84.3099629,23.8377678 84.1292558,23.752506 C83.8479764,23.6197919 83.5388337,23.5499127 83.2187401,23.5499127 C82.0599429,23.5499127 81.1233838,24.4672197 81.1233838,25.5952106 C81.1233838,26.7232015 82.0599429,27.6405085 83.2187401,27.6405085 C84.3775373,27.6405085 85.3140965,26.7232015 85.3140965,25.5952106 C85.3140965,25.175442 85.1846534,24.7753702 84.9460878,24.4371067 C84.8309972,24.2739191 84.8701533,24.0484467 85.0335454,23.9335001 C85.1969376,23.8185535 85.4226925,23.8576606 85.5377831,24.0208483 C85.8614602,24.4797919 86.037843,25.0249408 86.037843,25.5952106 C86.037843,27.1256073 84.7741238,28.3633492 83.2187401,28.3633492 C81.6633565,28.3633492 80.3996373,27.1256073 80.3996373,25.5952106 C80.3996373,24.0648139 81.6633565,22.827072 83.2187401,22.827072 Z M98.3401529,22.827072 C99.8955366,22.827072 101.159256,24.0648139 101.159256,25.5952106 C101.159256,27.1256073 99.8955366,28.3633492 98.3401529,28.3633492 C96.7847693,28.3633492 95.5210501,27.1256073 95.5210501,25.5952106 C95.5210501,24.0648139 96.7847693,22.827072 98.3401529,22.827072 Z M39.7794465,22.827072 C41.3348302,22.827072 42.5985494,24.0648139 42.5985494,25.5952106 C42.5985494,27.1256073 41.3348302,28.3633492 39.7794465,28.3633492 C38.2240629,28.3633492 36.9603437,27.1256073 36.9603437,25.5952106 C36.9603437,25.1495612 37.067968,24.7183501 37.2712783,24.3303172 C37.7511451,23.4144554 38.7126669,22.827072 39.7794465,22.827072 Z M47.3401529,22.827072 C48.8955366,22.827072 50.1592558,24.0648139 50.1592558,25.5952106 C50.1592558,27.1256073 48.8955366,28.3633492 47.3401529,28.3633492 C45.7847693,28.3633492 44.5210501,27.1256073 44.5210501,25.5952106 C44.5210501,24.0648139 45.7847693,22.827072 47.3401529,22.827072 Z M32.2187401,22.827072 C32.6462151,22.827072 33.0608835,22.9208045 33.4384029,23.0989268 C33.61911,23.1841886 33.6963971,23.3996156 33.6110284,23.5800965 C33.5256598,23.7605774 33.3099629,23.8377678 33.1292558,23.752506 C32.8479764,23.6197919 32.5388337,23.5499127 32.2187401,23.5499127 C31.0599429,23.5499127 30.1233838,24.4672197 30.1233838,25.5952106 C30.1233838,26.7232015 31.0599429,27.6405085 32.2187401,27.6405085 C33.3775373,27.6405085 34.3140965,26.7232015 34.3140965,25.5952106 C34.3140965,25.175442 34.1846534,24.7753702 33.9460878,24.4371067 C33.8309972,24.2739191 33.8701533,24.0484467 34.0335454,23.9335001 C34.1969376,23.8185535 34.4226925,23.8576606 34.5377831,24.0208483 C34.8614602,24.4797919 35.037843,25.0249408 35.037843,25.5952106 C35.037843,27.1256073 33.7741238,28.3633492 32.2187401,28.3633492 C30.6633565,28.3633492 29.3996373,27.1256073 29.3996373,25.5952106 C29.3996373,24.0648139 30.6633565,22.827072 32.2187401,22.827072 Z M47.3401529,23.5499127 C46.1813557,23.5499127 45.2447966,24.4672197 45.2447966,25.5952106 C45.2447966,26.7232015 46.1813557,27.6405085 47.3401529,27.6405085 C48.4989502,27.6405085 49.4355093,26.7232015 49.4355093,25.5952106 C49.4355093,24.4672197 48.4989502,23.5499127 47.3401529,23.5499127 Z M39.7794465,23.5499127 C38.9832877,23.5499127 38.2681146,23.9868043 37.9125312,24.6654619 C37.7630419,24.9507736 37.6840902,25.2671039 37.6840902,25.5952106 C37.6840902,26.7232015 38.6206493,27.6405085 39.7794465,27.6405085 C40.9382437,27.6405085 41.8748029,26.7232015 41.8748029,25.5952106 C41.8748029,24.4672197 40.9382437,23.5499127 39.7794465,23.5499127 Z M90.7794465,23.5499127 C89.9832877,23.5499127 89.2681146,23.9868043 88.9125312,24.6654619 C88.7630419,24.9507736 88.6840902,25.2671039 88.6840902,25.5952106 C88.6840902,26.7232015 89.6206493,27.6405085 90.7794465,27.6405085 C91.9382437,27.6405085 92.8748029,26.7232015 92.8748029,25.5952106 C92.8748029,24.4672197 91.9382437,23.5499127 90.7794465,23.5499127 Z M98.3401529,23.5499127 C97.1813557,23.5499127 96.2447966,24.4672197 96.2447966,25.5952106 C96.2447966,26.7232015 97.1813557,27.6405085 98.3401529,27.6405085 C99.4989502,27.6405085 100.435509,26.7232015 100.435509,25.5952106 C100.435509,24.4672197 99.4989502,23.5499127 98.3401529,23.5499127 Z M65.2510249,25.0748391 C65.6624953,25.0748391 65.996058,25.401545 65.996058,25.8045572 C65.996058,26.2075693 65.6624953,26.5342752 65.2510249,26.5342752 C64.8395545,26.5342752 64.5059918,26.2075693 64.5059918,25.8045572 C64.5059918,25.401545 64.8395545,25.0748391 65.2510249,25.0748391 Z M47.3401529,16.9028425 C47.7676279,16.9028425 48.1822963,16.9965749 48.5598157,17.1746973 C48.7405228,17.259959 48.8178099,17.475386 48.7324412,17.6558669 C48.6470726,17.8363478 48.4313757,17.9135382 48.2506686,17.8282765 C47.9693892,17.6955623 47.6602465,17.6256831 47.3401529,17.6256831 C46.1813557,17.6256831 45.2447966,18.5429902 45.2447966,19.6709811 C45.2447966,20.798972 46.1813557,21.716279 47.3401529,21.716279 C48.4989502,21.716279 49.4355093,20.798972 49.4355093,19.6709811 C49.4355093,19.2512125 49.3060662,18.8511407 49.0675006,18.5128772 C48.95241,18.3496895 48.9915661,18.1242172 49.1549582,18.0092706 C49.3183504,17.894324 49.5441053,17.9334311 49.6591959,18.0966187 C49.982873,18.5555624 50.1592558,19.1007112 50.1592558,19.6709811 C50.1592558,21.2013777 48.8955366,22.4391196 47.3401529,22.4391196 C45.7847693,22.4391196 44.5210501,21.2013777 44.5210501,19.6709811 C44.5210501,18.1405844 45.7847693,16.9028425 47.3401529,16.9028425 Z M83.2187401,16.9028425 C84.7741238,16.9028425 86.037843,18.1405844 86.037843,19.6709811 C86.037843,21.2013777 84.7741238,22.4391196 83.2187401,22.4391196 C81.6633565,22.4391196 80.3996373,21.2013777 80.3996373,19.6709811 C80.3996373,18.1405844 81.6633565,16.9028425 83.2187401,16.9028425 Z M90.7794465,16.9028425 C92.3348302,16.9028425 93.5985494,18.1405844 93.5985494,19.6709811 C93.5985494,21.2013777 92.3348302,22.4391196 90.7794465,22.4391196 C89.2240629,22.4391196 87.9603437,21.2013777 87.9603437,19.6709811 C87.9603437,18.1405844 89.2240629,16.9028425 90.7794465,16.9028425 Z M98.3401529,16.9028425 C98.7676279,16.9028425 99.1822963,16.9965749 99.5598157,17.1746973 C99.7405228,17.259959 99.8178099,17.475386 99.7324412,17.6558669 C99.6470726,17.8363478 99.4313757,17.9135382 99.2506686,17.8282765 C98.9693892,17.6955623 98.6602465,17.6256831 98.3401529,17.6256831 C97.1813557,17.6256831 96.2447966,18.5429902 96.2447966,19.6709811 C96.2447966,20.798972 97.1813557,21.716279 98.3401529,21.716279 C99.4989502,21.716279 100.435509,20.798972 100.435509,19.6709811 C100.435509,19.2512125 100.306066,18.8511407 100.067501,18.5128772 C99.95241,18.3496895 99.9915661,18.1242172 100.154958,18.0092706 C100.31835,17.894324 100.544105,17.9334311 100.659196,18.0966187 C100.982873,18.5555624 101.159256,19.1007112 101.159256,19.6709811 C101.159256,21.2013777 99.8955366,22.4391196 98.3401529,22.4391196 C96.7847693,22.4391196 95.5210501,21.2013777 95.5210501,19.6709811 C95.5210501,18.1405844 96.7847693,16.9028425 98.3401529,16.9028425 Z M39.7794465,16.9028425 C41.3348302,16.9028425 42.5985494,18.1405844 42.5985494,19.6709811 C42.5985494,21.2013777 41.3348302,22.4391196 39.7794465,22.4391196 C38.2240629,22.4391196 36.9603437,21.2013777 36.9603437,19.6709811 C36.9603437,18.1405844 38.2240629,16.9028425 39.7794465,16.9028425 Z M32.2187401,16.9028425 C33.7741238,16.9028425 35.037843,18.1405844 35.037843,19.6709811 C35.037843,21.2013777 33.7741238,22.4391196 32.2187401,22.4391196 C30.6633565,22.4391196 29.3996373,21.2013777 29.3996373,19.6709811 C29.3996373,18.1405844 30.6633565,16.9028425 32.2187401,16.9028425 Z M39.7794465,17.6256831 C38.6206493,17.6256831 37.6840902,18.5429902 37.6840902,19.6709811 C37.6840902,20.798972 38.6206493,21.716279 39.7794465,21.716279 C40.9382437,21.716279 41.8748029,20.798972 41.8748029,19.6709811 C41.8748029,18.5429902 40.9382437,17.6256831 39.7794465,17.6256831 Z M83.2187401,17.6256831 C82.0599429,17.6256831 81.1233838,18.5429902 81.1233838,19.6709811 C81.1233838,20.798972 82.0599429,21.716279 83.2187401,21.716279 C84.3775373,21.716279 85.3140965,20.798972 85.3140965,19.6709811 C85.3140965,18.5429902 84.3775373,17.6256831 83.2187401,17.6256831 Z M90.7794465,17.6256831 C89.6206493,17.6256831 88.6840902,18.5429902 88.6840902,19.6709811 C88.6840902,20.798972 89.6206493,21.716279 90.7794465,21.716279 C91.9382437,21.716279 92.8748029,20.798972 92.8748029,19.6709811 C92.8748029,18.5429902 91.9382437,17.6256831 90.7794465,17.6256831 Z M32.2187401,17.6256831 C31.0599429,17.6256831 30.1233838,18.5429902 30.1233838,19.6709811 C30.1233838,20.798972 31.0599429,21.716279 32.2187401,21.716279 C33.3775373,21.716279 34.3140965,20.798972 34.3140965,19.6709811 C34.3140965,18.5429902 33.3775373,17.6256831 32.2187401,17.6256831 Z" id="Combined-Shape" fill="#8C8D8E"></path>
            <path d="M92.0159256,126.397633 C94.7773493,126.397633 97.0159256,128.636209 97.0159256,131.397633 C97.0159256,134.159057 94.7773493,136.397633 92.0159256,136.397633 C89.2545018,136.397633 87.0159256,134.159057 87.0159256,131.397633 C87.0159256,128.636209 89.2545018,126.397633 92.0159256,126.397633 Z M119.071941,120.769111 C119.237626,120.769111 119.371941,120.903426 119.371941,121.069111 C119.371941,121.211127 119.273261,121.330096 119.140728,121.361188 L119.071941,121.369111 L114.535517,121.369111 C114.369832,121.369111 114.235517,121.234797 114.235517,121.069111 C114.235517,120.927095 114.334197,120.808127 114.46673,120.777035 L114.535517,120.769111 L119.071941,120.769111 Z M113.023376,120.769111 C113.189061,120.769111 113.323376,120.903426 113.323376,121.069111 C113.323376,121.211127 113.224696,121.330096 113.092163,121.361188 L113.023376,121.369111 L108.486952,121.369111 C108.321267,121.369111 108.186952,121.234797 108.186952,121.069111 C108.186952,120.927095 108.285632,120.808127 108.418165,120.777035 L108.486952,120.769111 L113.023376,120.769111 Z M125.120506,120.769111 C125.286192,120.769111 125.420506,120.903426 125.420506,121.069111 C125.420506,121.211127 125.321826,121.330096 125.189293,121.361188 L125.120506,121.369111 L120.584082,121.369111 C120.418397,121.369111 120.284082,121.234797 120.284082,121.069111 C120.284082,120.927095 120.382762,120.808127 120.515295,120.777035 L120.584082,120.769111 L125.120506,120.769111 Z M20.071941,120.769111 C20.2376265,120.769111 20.371941,120.903426 20.371941,121.069111 C20.371941,121.211127 20.2732609,121.330096 20.1407283,121.361188 L20.071941,121.369111 L15.5355172,121.369111 C15.3698318,121.369111 15.2355172,121.234797 15.2355172,121.069111 C15.2355172,120.927095 15.3341973,120.808127 15.4667299,120.777035 L15.5355172,120.769111 L20.071941,120.769111 Z M14.0233759,120.769111 C14.1890613,120.769111 14.3233759,120.903426 14.3233759,121.069111 C14.3233759,121.211127 14.2246958,121.330096 14.0921632,121.361188 L14.0233759,121.369111 L9.48695207,121.369111 C9.32126664,121.369111 9.18695207,121.234797 9.18695207,121.069111 C9.18695207,120.927095 9.28563216,120.808127 9.41816482,120.777035 L9.48695207,120.769111 L14.0233759,120.769111 Z M26.1205061,120.769111 C26.2861916,120.769111 26.4205061,120.903426 26.4205061,121.069111 C26.4205061,121.211127 26.3218261,121.330096 26.1892934,121.361188 L26.1205061,121.369111 L21.5840823,121.369111 C21.4183969,121.369111 21.2840823,121.234797 21.2840823,121.069111 C21.2840823,120.927095 21.3827624,120.808127 21.5152951,120.777035 L21.5840823,120.769111 L26.1205061,120.769111 Z M7.97481079,120.769111 C8.14049621,120.769111 8.27481079,120.903426 8.27481079,121.069111 C8.27481079,121.211127 8.17613069,121.330096 8.04359803,121.361188 L7.97481079,121.369111 L3.43838694,121.369111 C3.27270152,121.369111 3.13838694,121.234797 3.13838694,121.069111 C3.13838694,120.927095 3.23706704,120.808127 3.3695997,120.777035 L3.43838694,120.769111 L7.97481079,120.769111 Z M69.071941,120.769111 C69.2376265,120.769111 69.371941,120.903426 69.371941,121.069111 C69.371941,121.211127 69.2732609,121.330096 69.1407283,121.361188 L69.071941,121.369111 L64.5355172,121.369111 C64.3698318,121.369111 64.2355172,121.234797 64.2355172,121.069111 C64.2355172,120.927095 64.3341973,120.808127 64.4667299,120.777035 L64.5355172,120.769111 L69.071941,120.769111 Z M63.0233759,120.769111 C63.1890613,120.769111 63.3233759,120.903426 63.3233759,121.069111 C63.3233759,121.211127 63.2246958,121.330096 63.0921632,121.361188 L63.0233759,121.369111 L58.4869521,121.369111 C58.3212666,121.369111 58.1869521,121.234797 58.1869521,121.069111 C58.1869521,120.927095 58.2856322,120.808127 58.4181648,120.777035 L58.4869521,120.769111 L63.0233759,120.769111 Z M75.1205061,120.769111 C75.2861916,120.769111 75.4205061,120.903426 75.4205061,121.069111 C75.4205061,121.211127 75.3218261,121.330096 75.1892934,121.361188 L75.1205061,121.369111 L70.5840823,121.369111 C70.4183969,121.369111 70.2840823,121.234797 70.2840823,121.069111 C70.2840823,120.927095 70.3827624,120.808127 70.5152951,120.777035 L70.5840823,120.769111 L75.1205061,120.769111 Z M56.9748108,120.769111 C57.1404962,120.769111 57.2748108,120.903426 57.2748108,121.069111 C57.2748108,121.211127 57.1761307,121.330096 57.043598,121.361188 L56.9748108,121.369111 L52.4383869,121.369111 C52.2727015,121.369111 52.1383869,121.234797 52.1383869,121.069111 C52.1383869,120.927095 52.237067,120.808127 52.3695997,120.777035 L52.4383869,120.769111 L56.9748108,120.769111 Z M106.974811,120.769111 C107.140496,120.769111 107.274811,120.903426 107.274811,121.069111 C107.274811,121.211127 107.176131,121.330096 107.043598,121.361188 L106.974811,121.369111 L102.438387,121.369111 C102.272702,121.369111 102.138387,121.234797 102.138387,121.069111 C102.138387,120.927095 102.237067,120.808127 102.3696,120.777035 L102.438387,120.769111 L106.974811,120.769111 Z M22.3401529,103.675531 C22.7676279,103.675531 23.1822963,103.769264 23.5598157,103.947386 C23.7405228,104.032648 23.8178099,104.248075 23.7324412,104.428556 C23.6470726,104.609036 23.4313757,104.686227 23.2506686,104.600965 C22.9693892,104.468251 22.6602465,104.398372 22.3401529,104.398372 C21.1813557,104.398372 20.2447966,105.315679 20.2447966,106.44367 C20.2447966,107.571661 21.1813557,108.488968 22.3401529,108.488968 C23.4989502,108.488968 24.4355093,107.571661 24.4355093,106.44367 C24.4355093,106.023901 24.3060662,105.623829 24.0675006,105.285566 C23.95241,105.122378 23.9915661,104.896906 24.1549582,104.781959 C24.3183504,104.667013 24.5441053,104.70612 24.6591959,104.869307 C24.982873,105.328251 25.1592558,105.8734 25.1592558,106.44367 C25.1592558,107.974066 23.8955366,109.211808 22.3401529,109.211808 C20.7847693,109.211808 19.5210501,107.974066 19.5210501,106.44367 C19.5210501,104.913273 20.7847693,103.675531 22.3401529,103.675531 Z M7.21874015,103.675531 C8.77412379,103.675531 10.037843,104.913273 10.037843,106.44367 C10.037843,107.974066 8.77412379,109.211808 7.21874015,109.211808 C5.6633565,109.211808 4.39963734,107.974066 4.39963734,106.44367 C4.39963734,104.913273 5.6633565,103.675531 7.21874015,103.675531 Z M106.21874,103.675531 C107.774124,103.675531 109.037843,104.913273 109.037843,106.44367 C109.037843,107.974066 107.774124,109.211808 106.21874,109.211808 C104.663356,109.211808 103.399637,107.974066 103.399637,106.44367 C103.399637,104.913273 104.663356,103.675531 106.21874,103.675531 Z M121.340153,103.675531 C121.767628,103.675531 122.182296,103.769264 122.559816,103.947386 C122.740523,104.032648 122.81781,104.248075 122.732441,104.428556 C122.647073,104.609036 122.431376,104.686227 122.250669,104.600965 C121.969389,104.468251 121.660246,104.398372 121.340153,104.398372 C120.181356,104.398372 119.244797,105.315679 119.244797,106.44367 C119.244797,107.571661 120.181356,108.488968 121.340153,108.488968 C122.49895,108.488968 123.435509,107.571661 123.435509,106.44367 C123.435509,106.023901 123.306066,105.623829 123.067501,105.285566 C122.95241,105.122378 122.991566,104.896906 123.154958,104.781959 C123.31835,104.667013 123.544105,104.70612 123.659196,104.869307 C123.982873,105.328251 124.159256,105.8734 124.159256,106.44367 C124.159256,107.974066 122.895537,109.211808 121.340153,109.211808 C119.784769,109.211808 118.52105,107.974066 118.52105,106.44367 C118.52105,104.913273 119.784769,103.675531 121.340153,103.675531 Z M56.2187401,103.675531 C57.7741238,103.675531 59.037843,104.913273 59.037843,106.44367 C59.037843,107.974066 57.7741238,109.211808 56.2187401,109.211808 C54.6633565,109.211808 53.3996373,107.974066 53.3996373,106.44367 C53.3996373,104.913273 54.6633565,103.675531 56.2187401,103.675531 Z M71.3401529,103.675531 C71.7676279,103.675531 72.1822963,103.769264 72.5598157,103.947386 C72.7405228,104.032648 72.8178099,104.248075 72.7324412,104.428556 C72.6470726,104.609036 72.4313757,104.686227 72.2506686,104.600965 C71.9693892,104.468251 71.6602465,104.398372 71.3401529,104.398372 C70.1813557,104.398372 69.2447966,105.315679 69.2447966,106.44367 C69.2447966,107.571661 70.1813557,108.488968 71.3401529,108.488968 C72.4989502,108.488968 73.4355093,107.571661 73.4355093,106.44367 C73.4355093,106.023901 73.3060662,105.623829 73.0675006,105.285566 C72.95241,105.122378 72.9915661,104.896906 73.1549582,104.781959 C73.3183504,104.667013 73.5441053,104.70612 73.6591959,104.869307 C73.982873,105.328251 74.1592558,105.8734 74.1592558,106.44367 C74.1592558,107.974066 72.8955366,109.211808 71.3401529,109.211808 C69.7847693,109.211808 68.5210501,107.974066 68.5210501,106.44367 C68.5210501,104.913273 69.7847693,103.675531 71.3401529,103.675531 Z M106.21874,104.398372 C105.059943,104.398372 104.123384,105.315679 104.123384,106.44367 C104.123384,107.571661 105.059943,108.488968 106.21874,108.488968 C107.377537,108.488968 108.314096,107.571661 108.314096,106.44367 C108.314096,105.315679 107.377537,104.398372 106.21874,104.398372 Z M7.21874015,104.398372 C6.05994294,104.398372 5.12338379,105.315679 5.12338379,106.44367 C5.12338379,107.571661 6.05994294,108.488968 7.21874015,108.488968 C8.37753735,108.488968 9.3140965,107.571661 9.3140965,106.44367 C9.3140965,105.315679 8.37753735,104.398372 7.21874015,104.398372 Z M56.2187401,104.398372 C55.0599429,104.398372 54.1233838,105.315679 54.1233838,106.44367 C54.1233838,107.571661 55.0599429,108.488968 56.2187401,108.488968 C57.3775373,108.488968 58.3140965,107.571661 58.3140965,106.44367 C58.3140965,105.315679 57.3775373,104.398372 56.2187401,104.398372 Z M121.639266,105.2624 C121.750898,105.2624 121.844916,105.337407 121.873154,105.439515 L121.881819,105.503649 L121.882397,105.8654 L122.303476,105.865522 C122.414369,105.865522 122.507764,105.94103 122.535816,106.043818 L122.544423,106.108379 C122.544423,106.220151 122.469509,106.314287 122.367529,106.342561 L122.303476,106.351236 L121.882397,106.3504 L121.882397,106.6494 L122.30745,106.649581 C122.418342,106.649581 122.511738,106.725088 122.53979,106.827877 L122.548397,106.892438 C122.548397,107.00421 122.473483,107.098346 122.371503,107.12662 L122.30745,107.135295 L121.882397,107.1344 L121.881819,107.35729 C121.881819,107.468322 121.806406,107.561835 121.703746,107.589922 L121.639266,107.598539 C121.527634,107.598539 121.433615,107.523532 121.405377,107.421424 L121.396712,107.35729 L121.397397,107.1344 L121.159397,107.1344 L121.158978,107.35729 C121.158978,107.468322 121.083565,107.561835 120.980905,107.589922 L120.916425,107.598539 C120.804793,107.598539 120.710775,107.523532 120.682536,107.421424 L120.673872,107.35729 L120.674397,107.1344 L120.259401,107.135295 C120.148508,107.135295 120.055113,107.059787 120.027061,106.956999 L120.018454,106.892438 C120.018454,106.780666 120.093368,106.68653 120.195348,106.658256 L120.259401,106.649581 L120.674397,106.6494 L120.674397,106.3504 L120.255427,106.351236 C120.122356,106.351236 120.01448,106.242505 120.01448,106.108379 C120.01448,105.996607 120.089394,105.902471 120.191374,105.874197 L120.255427,105.865522 L120.674397,105.8654 L120.673872,105.503649 C120.673872,105.392617 120.749285,105.299104 120.851945,105.271018 L120.916425,105.2624 C121.028057,105.2624 121.122075,105.337407 121.150314,105.439515 L121.158978,105.503649 L121.159397,105.8654 L121.397397,105.8654 L121.396712,105.503649 C121.396712,105.392617 121.472125,105.299104 121.574785,105.271018 L121.639266,105.2624 Z M71.6392655,105.2624 C71.7508976,105.2624 71.8449159,105.337407 71.8731545,105.439515 L71.8818187,105.503649 L71.8823965,105.8654 L72.3034758,105.865522 C72.4143685,105.865522 72.5077642,105.94103 72.5358158,106.043818 L72.5444226,106.108379 C72.5444226,106.220151 72.469509,106.314287 72.367529,106.342561 L72.3034758,106.351236 L71.8823965,106.3504 L71.8823965,106.6494 L72.3074496,106.649581 C72.4183424,106.649581 72.5117381,106.725088 72.5397897,106.827877 L72.5483965,106.892438 C72.5483965,107.00421 72.4734829,107.098346 72.3715029,107.12662 L72.3074496,107.135295 L71.8823965,107.1344 L71.8818187,107.35729 C71.8818187,107.468322 71.8064057,107.561835 71.7037458,107.589922 L71.6392655,107.598539 C71.5276335,107.598539 71.4336151,107.523532 71.4053766,107.421424 L71.3967123,107.35729 L71.3973965,107.1344 L71.1593965,107.1344 L71.1589781,107.35729 C71.1589781,107.468322 71.0835651,107.561835 70.9809051,107.589922 L70.9164249,107.598539 C70.8047929,107.598539 70.7107745,107.523532 70.6825359,107.421424 L70.6738717,107.35729 L70.6743965,107.1344 L70.2594012,107.135295 C70.1485084,107.135295 70.0551127,107.059787 70.0270611,106.956999 L70.0184543,106.892438 C70.0184543,106.780666 70.0933679,106.68653 70.1953479,106.658256 L70.2594012,106.649581 L70.6743965,106.6494 L70.6743965,106.3504 L70.2554273,106.351236 C70.122356,106.351236 70.0144804,106.242505 70.0144804,106.108379 C70.0144804,105.996607 70.089394,105.902471 70.1913741,105.874197 L70.2554273,105.865522 L70.6743965,105.8654 L70.6738717,105.503649 C70.6738717,105.392617 70.7492847,105.299104 70.8519446,105.271018 L70.9164249,105.2624 C71.0280569,105.2624 71.1220753,105.337407 71.1503139,105.439515 L71.1589781,105.503649 L71.1593965,105.8654 L71.3973965,105.8654 L71.3967123,105.503649 C71.3967123,105.392617 71.4721254,105.299104 71.5747853,105.271018 L71.6392655,105.2624 Z M22.6392655,105.2624 C22.7508976,105.2624 22.8449159,105.337407 22.8731545,105.439515 L22.8818187,105.503649 L22.8823965,105.8654 L23.3034758,105.865522 C23.4143685,105.865522 23.5077642,105.94103 23.5358158,106.043818 L23.5444226,106.108379 C23.5444226,106.220151 23.469509,106.314287 23.367529,106.342561 L23.3034758,106.351236 L22.8823965,106.3504 L22.8823965,106.6494 L23.3074496,106.649581 C23.4183424,106.649581 23.5117381,106.725088 23.5397897,106.827877 L23.5483965,106.892438 C23.5483965,107.00421 23.4734829,107.098346 23.3715029,107.12662 L23.3074496,107.135295 L22.8823965,107.1344 L22.8818187,107.35729 C22.8818187,107.468322 22.8064057,107.561835 22.7037458,107.589922 L22.6392655,107.598539 C22.5276335,107.598539 22.4336151,107.523532 22.4053766,107.421424 L22.3967123,107.35729 L22.3973965,107.1344 L22.1593965,107.1344 L22.1589781,107.35729 C22.1589781,107.468322 22.0835651,107.561835 21.9809051,107.589922 L21.9164249,107.598539 C21.8047929,107.598539 21.7107745,107.523532 21.6825359,107.421424 L21.6738717,107.35729 L21.6743965,107.1344 L21.2594012,107.135295 C21.1485084,107.135295 21.0551127,107.059787 21.0270611,106.956999 L21.0184543,106.892438 C21.0184543,106.780666 21.0933679,106.68653 21.1953479,106.658256 L21.2594012,106.649581 L21.6743965,106.6494 L21.6743965,106.3504 L21.2554273,106.351236 C21.122356,106.351236 21.0144804,106.242505 21.0144804,106.108379 C21.0144804,105.996607 21.089394,105.902471 21.1913741,105.874197 L21.2554273,105.865522 L21.6743965,105.8654 L21.6738717,105.503649 C21.6738717,105.392617 21.7492847,105.299104 21.8519446,105.271018 L21.9164249,105.2624 C22.0280569,105.2624 22.1220753,105.337407 22.1503139,105.439515 L22.1589781,105.503649 L22.1593965,105.8654 L22.3973965,105.8654 L22.3967123,105.503649 C22.3967123,105.392617 22.4721254,105.299104 22.5747853,105.271018 L22.6392655,105.2624 Z M7.14407127,105.262505 C7.25584318,105.262505 7.34997937,105.337419 7.37825332,105.439399 L7.38692841,105.503452 L7.38670364,105.851505 L7.63827016,105.606484 C7.71745068,105.528846 7.83701027,105.517364 7.92902001,105.571102 L7.98037644,105.611164 C8.05863528,105.690967 8.07106044,105.810622 8.01804184,105.902206 L7.97838054,105.953244 L7.72670364,106.198505 L8.0697727,106.199149 C8.18066543,106.199149 8.27406116,106.274657 8.30211272,106.377446 L8.31071957,106.442007 C8.31071957,106.553779 8.23580597,106.647915 8.13382592,106.676189 L8.0697727,106.684864 L7.76170364,106.684505 L7.99705374,106.915463 C8.07623425,106.993101 8.09004898,107.112396 8.03810802,107.205423 L7.99904964,107.257543 C7.920777,107.337333 7.80136872,107.352089 7.70875373,107.300876 L7.65694336,107.262224 L7.38670364,106.996505 L7.38692841,107.354774 C7.38692841,107.465667 7.31142088,107.559062 7.20863232,107.587114 L7.14407127,107.595721 C7.03229936,107.595721 6.93816317,107.520807 6.90988922,107.418827 L6.90121413,107.354774 L6.90070364,107.008505 L6.64339436,107.262224 C6.56421384,107.339862 6.44465425,107.351344 6.35264451,107.297605 L6.30128807,107.257543 C6.22302924,107.17774 6.21060408,107.058085 6.26362268,106.966502 L6.30328398,106.915463 L6.53770364,106.684505 L6.18196177,106.684864 C6.07106903,106.684864 5.97767331,106.609356 5.94962175,106.506568 L5.94101489,106.442007 C5.94101489,106.330235 6.0159285,106.236099 6.11790855,106.207825 L6.18196177,106.199149 L6.57270364,106.198505 L6.32195717,105.953244 C6.24277666,105.875606 6.22896193,105.756312 6.28090289,105.663285 L6.31996127,105.611164 C6.39823392,105.531375 6.5176422,105.516619 6.61025719,105.567832 L6.66206755,105.606484 L6.90070364,105.839505 L6.90121413,105.503452 C6.90121413,105.392559 6.97672166,105.299164 7.07951022,105.271112 L7.14407127,105.262505 Z M106.144071,105.262505 C106.255843,105.262505 106.349979,105.337419 106.378253,105.439399 L106.386928,105.503452 L106.386704,105.851505 L106.63827,105.606484 C106.717451,105.528846 106.83701,105.517364 106.92902,105.571102 L106.980376,105.611164 C107.058635,105.690967 107.07106,105.810622 107.018042,105.902206 L106.978381,105.953244 L106.726704,106.198505 L107.069773,106.199149 C107.180665,106.199149 107.274061,106.274657 107.302113,106.377446 L107.31072,106.442007 C107.31072,106.553779 107.235806,106.647915 107.133826,106.676189 L107.069773,106.684864 L106.761704,106.684505 L106.997054,106.915463 C107.076234,106.993101 107.090049,107.112396 107.038108,107.205423 L106.99905,107.257543 C106.920777,107.337333 106.801369,107.352089 106.708754,107.300876 L106.656943,107.262224 L106.386704,106.996505 L106.386928,107.354774 C106.386928,107.465667 106.311421,107.559062 106.208632,107.587114 L106.144071,107.595721 C106.032299,107.595721 105.938163,107.520807 105.909889,107.418827 L105.901214,107.354774 L105.900704,107.008505 L105.643394,107.262224 C105.564214,107.339862 105.444654,107.351344 105.352645,107.297605 L105.301288,107.257543 C105.223029,107.17774 105.210604,107.058085 105.263623,106.966502 L105.303284,106.915463 L105.537704,106.684505 L105.181962,106.684864 C105.071069,106.684864 104.977673,106.609356 104.949622,106.506568 L104.941015,106.442007 C104.941015,106.330235 105.015928,106.236099 105.117909,106.207825 L105.181962,106.199149 L105.572704,106.198505 L105.321957,105.953244 C105.242777,105.875606 105.228962,105.756312 105.280903,105.663285 L105.319961,105.611164 C105.398234,105.531375 105.517642,105.516619 105.610257,105.567832 L105.662068,105.606484 L105.900704,105.839505 L105.901214,105.503452 C105.901214,105.392559 105.976722,105.299164 106.07951,105.271112 L106.144071,105.262505 Z M56.1440713,105.262505 C56.2558432,105.262505 56.3499794,105.337419 56.3782533,105.439399 L56.3869284,105.503452 L56.3867036,105.851505 L56.6382702,105.606484 C56.7174507,105.528846 56.8370103,105.517364 56.92902,105.571102 L56.9803764,105.611164 C57.0586353,105.690967 57.0710604,105.810622 57.0180418,105.902206 L56.9783805,105.953244 L56.7267036,106.198505 L57.0697727,106.199149 C57.1806654,106.199149 57.2740612,106.274657 57.3021127,106.377446 L57.3107196,106.442007 C57.3107196,106.553779 57.235806,106.647915 57.1338259,106.676189 L57.0697727,106.684864 L56.7617036,106.684505 L56.9970537,106.915463 C57.0762343,106.993101 57.090049,107.112396 57.038108,107.205423 L56.9990496,107.257543 C56.920777,107.337333 56.8013687,107.352089 56.7087537,107.300876 L56.6569434,107.262224 L56.3867036,106.996505 L56.3869284,107.354774 C56.3869284,107.465667 56.3114209,107.559062 56.2086323,107.587114 L56.1440713,107.595721 C56.0322994,107.595721 55.9381632,107.520807 55.9098892,107.418827 L55.9012141,107.354774 L55.9007036,107.008505 L55.6433944,107.262224 C55.5642138,107.339862 55.4446542,107.351344 55.3526445,107.297605 L55.3012881,107.257543 C55.2230292,107.17774 55.2106041,107.058085 55.2636227,106.966502 L55.303284,106.915463 L55.5377036,106.684505 L55.1819618,106.684864 C55.071069,106.684864 54.9776733,106.609356 54.9496217,106.506568 L54.9410149,106.442007 C54.9410149,106.330235 55.0159285,106.236099 55.1179085,106.207825 L55.1819618,106.199149 L55.5727036,106.198505 L55.3219572,105.953244 C55.2427767,105.875606 55.2289619,105.756312 55.2809029,105.663285 L55.3199613,105.611164 C55.3982339,105.531375 55.5176422,105.516619 55.6102572,105.567832 L55.6620676,105.606484 L55.9007036,105.839505 L55.9012141,105.503452 C55.9012141,105.392559 55.9767217,105.299164 56.0795102,105.271112 L56.1440713,105.262505 Z M120.928463,71.8913625 C121.200191,71.8913625 121.420471,72.1085521 121.420471,72.3764689 C121.420471,72.6443858 121.200191,72.8615753 120.928463,72.8615753 C120.656735,72.8615753 120.436455,72.6443858 120.436455,72.3764689 C120.436455,72.1085521 120.656735,71.8913625 120.928463,71.8913625 Z M21.9284629,71.8913625 C22.2001912,71.8913625 22.4204705,72.1085521 22.4204705,72.3764689 C22.4204705,72.6443858 22.2001912,72.8615753 21.9284629,72.8615753 C21.6567347,72.8615753 21.4364554,72.6443858 21.4364554,72.3764689 C21.4364554,72.1085521 21.6567347,71.8913625 21.9284629,71.8913625 Z M70.9284629,71.8913625 C71.2001912,71.8913625 71.4204705,72.1085521 71.4204705,72.3764689 C71.4204705,72.6443858 71.2001912,72.8615753 70.9284629,72.8615753 C70.6567347,72.8615753 70.4364554,72.6443858 70.4364554,72.3764689 C70.4364554,72.1085521 70.6567347,71.8913625 70.9284629,71.8913625 Z M69.2069681,72.0126391 C69.4079057,72.0126391 69.5707979,72.1755313 69.5707979,72.3764689 C69.5707979,72.5774066 69.4079057,72.7402987 69.2069681,72.7402987 L56.3253561,72.7402987 C56.1244185,72.7402987 55.9615263,72.5774066 55.9615263,72.3764689 C55.9615263,72.1755313 56.1244185,72.0126391 56.3253561,72.0126391 L69.2069681,72.0126391 Z M20.2069681,72.0126391 C20.4079057,72.0126391 20.5707979,72.1755313 20.5707979,72.3764689 C20.5707979,72.5774066 20.4079057,72.7402987 20.2069681,72.7402987 L7.32535612,72.7402987 C7.12441848,72.7402987 6.96152633,72.5774066 6.96152633,72.3764689 C6.96152633,72.1755313 7.12441848,72.0126391 7.32535612,72.0126391 L20.2069681,72.0126391 Z M119.206968,72.0126391 C119.407906,72.0126391 119.570798,72.1755313 119.570798,72.3764689 C119.570798,72.5774066 119.407906,72.7402987 119.206968,72.7402987 L106.325356,72.7402987 C106.124418,72.7402987 105.961526,72.5774066 105.961526,72.3764689 C105.961526,72.1755313 106.124418,72.0126391 106.325356,72.0126391 L119.206968,72.0126391 Z M51.1205061,51.7691114 C51.2861916,51.7691114 51.4205061,51.903426 51.4205061,52.0691114 C51.4205061,52.2111275 51.3218261,52.3300956 51.1892934,52.3611882 L51.1205061,52.3691114 L46.5840823,52.3691114 C46.4183969,52.3691114 46.2840823,52.2347968 46.2840823,52.0691114 C46.2840823,51.9270953 46.3827624,51.8081272 46.5152951,51.7770346 L46.5840823,51.7691114 L51.1205061,51.7691114 Z M39.0233759,51.7691114 C39.1890613,51.7691114 39.3233759,51.903426 39.3233759,52.0691114 C39.3233759,52.2111275 39.2246958,52.3300956 39.0921632,52.3611882 L39.0233759,52.3691114 L34.4869521,52.3691114 C34.3212666,52.3691114 34.1869521,52.2347968 34.1869521,52.0691114 C34.1869521,51.9270953 34.2856322,51.8081272 34.4181648,51.7770346 L34.4869521,51.7691114 L39.0233759,51.7691114 Z M45.071941,51.7691114 C45.2376265,51.7691114 45.371941,51.903426 45.371941,52.0691114 C45.371941,52.2111275 45.2732609,52.3300956 45.1407283,52.3611882 L45.071941,52.3691114 L40.5355172,52.3691114 C40.3698318,52.3691114 40.2355172,52.2347968 40.2355172,52.0691114 C40.2355172,51.9270953 40.3341973,51.8081272 40.4667299,51.7770346 L40.5355172,51.7691114 L45.071941,51.7691114 Z M32.9748108,51.7691114 C33.1404962,51.7691114 33.2748108,51.903426 33.2748108,52.0691114 C33.2748108,52.2111275 33.1761307,52.3300956 33.043598,52.3611882 L32.9748108,52.3691114 L28.4383869,52.3691114 C28.2727015,52.3691114 28.1383869,52.2347968 28.1383869,52.0691114 C28.1383869,51.9270953 28.237067,51.8081272 28.3695997,51.7770346 L28.4383869,51.7691114 L32.9748108,51.7691114 Z M90.0233759,51.7691114 C90.1890613,51.7691114 90.3233759,51.903426 90.3233759,52.0691114 C90.3233759,52.2111275 90.2246958,52.3300956 90.0921632,52.3611882 L90.0233759,52.3691114 L85.4869521,52.3691114 C85.3212666,52.3691114 85.1869521,52.2347968 85.1869521,52.0691114 C85.1869521,51.9270953 85.2856322,51.8081272 85.4181648,51.7770346 L85.4869521,51.7691114 L90.0233759,51.7691114 Z M96.071941,51.7691114 C96.2376265,51.7691114 96.371941,51.903426 96.371941,52.0691114 C96.371941,52.2111275 96.2732609,52.3300956 96.1407283,52.3611882 L96.071941,52.3691114 L91.5355172,52.3691114 C91.3698318,52.3691114 91.2355172,52.2347968 91.2355172,52.0691114 C91.2355172,51.9270953 91.3341973,51.8081272 91.4667299,51.7770346 L91.5355172,51.7691114 L96.071941,51.7691114 Z M102.120506,51.7691114 C102.286192,51.7691114 102.420506,51.903426 102.420506,52.0691114 C102.420506,52.2111275 102.321826,52.3300956 102.189293,52.3611882 L102.120506,52.3691114 L97.5840823,52.3691114 C97.4183969,52.3691114 97.2840823,52.2347968 97.2840823,52.0691114 C97.2840823,51.9270953 97.3827624,51.8081272 97.5152951,51.7770346 L97.5840823,51.7691114 L102.120506,51.7691114 Z M83.9748108,51.7691114 C84.1404962,51.7691114 84.2748108,51.903426 84.2748108,52.0691114 C84.2748108,52.2111275 84.1761307,52.3300956 84.043598,52.3611882 L83.9748108,52.3691114 L79.4383869,52.3691114 C79.2727015,52.3691114 79.1383869,52.2347968 79.1383869,52.0691114 C79.1383869,51.9270953 79.237067,51.8081272 79.3695997,51.7770346 L79.4383869,51.7691114 L83.9748108,51.7691114 Z M83.2187401,34.6755311 C84.7741238,34.6755311 86.037843,35.913273 86.037843,37.4436697 C86.037843,38.9740664 84.7741238,40.2118083 83.2187401,40.2118083 C81.6633565,40.2118083 80.3996373,38.9740664 80.3996373,37.4436697 C80.3996373,35.913273 81.6633565,34.6755311 83.2187401,34.6755311 Z M98.3401529,34.6755311 C98.7676279,34.6755311 99.1822963,34.7692636 99.5598157,34.9473859 C99.7405228,35.0326477 99.8178099,35.2480747 99.7324412,35.4285556 C99.6470726,35.6090365 99.4313757,35.6862269 99.2506686,35.6009651 C98.9693892,35.468251 98.6602465,35.3983718 98.3401529,35.3983718 C97.1813557,35.3983718 96.2447966,36.3156788 96.2447966,37.4436697 C96.2447966,38.5716606 97.1813557,39.4889676 98.3401529,39.4889676 C99.4989502,39.4889676 100.435509,38.5716606 100.435509,37.4436697 C100.435509,37.0239011 100.306066,36.6238293 100.067501,36.2855658 C99.95241,36.1223782 99.9915661,35.8969058 100.154958,35.7819592 C100.31835,35.6670126 100.544105,35.7061197 100.659196,35.8693074 C100.982873,36.328251 101.159256,36.8733999 101.159256,37.4436697 C101.159256,38.9740664 99.8955366,40.2118083 98.3401529,40.2118083 C96.7847693,40.2118083 95.5210501,38.9740664 95.5210501,37.4436697 C95.5210501,35.913273 96.7847693,34.6755311 98.3401529,34.6755311 Z M47.3401529,34.6755311 C47.7676279,34.6755311 48.1822963,34.7692636 48.5598157,34.9473859 C48.7405228,35.0326477 48.8178099,35.2480747 48.7324412,35.4285556 C48.6470726,35.6090365 48.4313757,35.6862269 48.2506686,35.6009651 C47.9693892,35.468251 47.6602465,35.3983718 47.3401529,35.3983718 C46.1813557,35.3983718 45.2447966,36.3156788 45.2447966,37.4436697 C45.2447966,38.5716606 46.1813557,39.4889676 47.3401529,39.4889676 C48.4989502,39.4889676 49.4355093,38.5716606 49.4355093,37.4436697 C49.4355093,37.0239011 49.3060662,36.6238293 49.0675006,36.2855658 C48.95241,36.1223782 48.9915661,35.8969058 49.1549582,35.7819592 C49.3183504,35.6670126 49.5441053,35.7061197 49.6591959,35.8693074 C49.982873,36.328251 50.1592558,36.8733999 50.1592558,37.4436697 C50.1592558,38.9740664 48.8955366,40.2118083 47.3401529,40.2118083 C45.7847693,40.2118083 44.5210501,38.9740664 44.5210501,37.4436697 C44.5210501,35.913273 45.7847693,34.6755311 47.3401529,34.6755311 Z M32.2187401,34.6755311 C33.7741238,34.6755311 35.037843,35.913273 35.037843,37.4436697 C35.037843,38.9740664 33.7741238,40.2118083 32.2187401,40.2118083 C30.6633565,40.2118083 29.3996373,38.9740664 29.3996373,37.4436697 C29.3996373,35.913273 30.6633565,34.6755311 32.2187401,34.6755311 Z M83.2187401,35.3983718 C82.0599429,35.3983718 81.1233838,36.3156788 81.1233838,37.4436697 C81.1233838,38.5716606 82.0599429,39.4889676 83.2187401,39.4889676 C84.3775373,39.4889676 85.3140965,38.5716606 85.3140965,37.4436697 C85.3140965,36.3156788 84.3775373,35.3983718 83.2187401,35.3983718 Z M32.2187401,35.3983718 C31.0599429,35.3983718 30.1233838,36.3156788 30.1233838,37.4436697 C30.1233838,38.5716606 31.0599429,39.4889676 32.2187401,39.4889676 C33.3775373,39.4889676 34.3140965,38.5716606 34.3140965,37.4436697 C34.3140965,36.3156788 33.3775373,35.3983718 32.2187401,35.3983718 Z M47.6392655,36.2623999 C47.7508976,36.2623999 47.8449159,36.3374074 47.8731545,36.4395153 L47.8818187,36.5036488 L47.8823965,36.8653999 L48.3034758,36.865522 C48.4143685,36.865522 48.5077642,36.9410295 48.5358158,37.0438181 L48.5444226,37.1083791 C48.5444226,37.220151 48.469509,37.3142872 48.367529,37.3425612 L48.3034758,37.3512363 L47.8823965,37.3503999 L47.8823965,37.6493999 L48.3074496,37.6495806 C48.4183424,37.6495806 48.5117381,37.7250882 48.5397897,37.8278767 L48.5483965,37.8924378 C48.5483965,38.0042097 48.4734829,38.0983459 48.3715029,38.1266198 L48.3074496,38.1352949 L47.8823965,38.1343999 L47.8818187,38.3572905 C47.8818187,38.4683222 47.8064057,38.5618349 47.7037458,38.5899216 L47.6392655,38.5985393 C47.5276335,38.5985393 47.4336151,38.5235318 47.4053766,38.4214239 L47.3967123,38.3572905 L47.3973965,38.1343999 L47.1593965,38.1343999 L47.1589781,38.3572905 C47.1589781,38.4683222 47.0835651,38.5618349 46.9809051,38.5899216 L46.9164249,38.5985393 C46.8047929,38.5985393 46.7107745,38.5235318 46.6825359,38.4214239 L46.6738717,38.3572905 L46.6743965,38.1343999 L46.2594012,38.1352949 C46.1485084,38.1352949 46.0551127,38.0597874 46.0270611,37.9569988 L46.0184543,37.8924378 C46.0184543,37.7806659 46.0933679,37.6865297 46.1953479,37.6582557 L46.2594012,37.6495806 L46.6743965,37.6493999 L46.6743965,37.3503999 L46.2554273,37.3512363 C46.122356,37.3512363 46.0144804,37.2425054 46.0144804,37.1083791 C46.0144804,36.9966072 46.089394,36.902471 46.1913741,36.8741971 L46.2554273,36.865522 L46.6743965,36.8653999 L46.6738717,36.5036488 C46.6738717,36.3926171 46.7492847,36.2991043 46.8519446,36.2710176 L46.9164249,36.2623999 C47.0280569,36.2623999 47.1220753,36.3374074 47.1503139,36.4395153 L47.1589781,36.5036488 L47.1593965,36.8653999 L47.3973965,36.8653999 L47.3967123,36.5036488 C47.3967123,36.3926171 47.4721254,36.2991043 47.5747853,36.2710176 L47.6392655,36.2623999 Z M98.6392655,36.2623999 C98.7508976,36.2623999 98.8449159,36.3374074 98.8731545,36.4395153 L98.8818187,36.5036488 L98.8823965,36.8653999 L99.3034758,36.865522 C99.4143685,36.865522 99.5077642,36.9410295 99.5358158,37.0438181 L99.5444226,37.1083791 C99.5444226,37.220151 99.469509,37.3142872 99.367529,37.3425612 L99.3034758,37.3512363 L98.8823965,37.3503999 L98.8823965,37.6493999 L99.3074496,37.6495806 C99.4183424,37.6495806 99.5117381,37.7250882 99.5397897,37.8278767 L99.5483965,37.8924378 C99.5483965,38.0042097 99.4734829,38.0983459 99.3715029,38.1266198 L99.3074496,38.1352949 L98.8823965,38.1343999 L98.8818187,38.3572905 C98.8818187,38.4683222 98.8064057,38.5618349 98.7037458,38.5899216 L98.6392655,38.5985393 C98.5276335,38.5985393 98.4336151,38.5235318 98.4053766,38.4214239 L98.3967123,38.3572905 L98.3973965,38.1343999 L98.1593965,38.1343999 L98.1589781,38.3572905 C98.1589781,38.4683222 98.0835651,38.5618349 97.9809051,38.5899216 L97.9164249,38.5985393 C97.8047929,38.5985393 97.7107745,38.5235318 97.6825359,38.4214239 L97.6738717,38.3572905 L97.6743965,38.1343999 L97.2594012,38.1352949 C97.1485084,38.1352949 97.0551127,38.0597874 97.0270611,37.9569988 L97.0184543,37.8924378 C97.0184543,37.7806659 97.0933679,37.6865297 97.1953479,37.6582557 L97.2594012,37.6495806 L97.6743965,37.6493999 L97.6743965,37.3503999 L97.2554273,37.3512363 C97.122356,37.3512363 97.0144804,37.2425054 97.0144804,37.1083791 C97.0144804,36.9966072 97.089394,36.902471 97.1913741,36.8741971 L97.2554273,36.865522 L97.6743965,36.8653999 L97.6738717,36.5036488 C97.6738717,36.3926171 97.7492847,36.2991043 97.8519446,36.2710176 L97.9164249,36.2623999 C98.0280569,36.2623999 98.1220753,36.3374074 98.1503139,36.4395153 L98.1589781,36.5036488 L98.1593965,36.8653999 L98.3973965,36.8653999 L98.3967123,36.5036488 C98.3967123,36.3926171 98.4721254,36.2991043 98.5747853,36.2710176 L98.6392655,36.2623999 Z M32.1440713,36.2625053 C32.2558432,36.2625053 32.3499794,36.3374189 32.3782533,36.4393989 L32.3869284,36.5034522 L32.3867036,36.8515053 L32.6382702,36.6064836 C32.7174507,36.5288455 32.8370103,36.5173637 32.92902,36.5711022 L32.9803764,36.6111643 C33.0586353,36.6909673 33.0710604,36.8106224 33.0180418,36.902206 L32.9783805,36.9532442 L32.7267036,37.1985053 L33.0697727,37.1991495 C33.1806654,37.1991495 33.2740612,37.274657 33.3021127,37.3774456 L33.3107196,37.4420066 C33.3107196,37.5537785 33.235806,37.6479147 33.1338259,37.6761887 L33.0697727,37.6848638 L32.7617036,37.6845053 L32.9970537,37.9154634 C33.0762343,37.9931015 33.090049,38.1123958 33.038108,38.2054227 L32.9990496,38.2575434 C32.920777,38.3373325 32.8013687,38.3520886 32.7087537,38.3008756 L32.6569434,38.2622241 L32.3867036,37.9965053 L32.3869284,38.3547739 C32.3869284,38.4656666 32.3114209,38.5590624 32.2086323,38.5871139 L32.1440713,38.5957208 C32.0322994,38.5957208 31.9381632,38.5208072 31.9098892,38.4188271 L31.9012141,38.3547739 L31.9007036,38.0085053 L31.6433944,38.2622241 C31.5642138,38.3398621 31.4446542,38.3513439 31.3526445,38.2976054 L31.3012881,38.2575434 C31.2230292,38.1777404 31.2106041,38.0580852 31.2636227,37.9665016 L31.303284,37.9154634 L31.5377036,37.6845053 L31.1819618,37.6848638 C31.071069,37.6848638 30.9776733,37.6093562 30.9496217,37.5065677 L30.9410149,37.4420066 C30.9410149,37.3302347 31.0159285,37.2360985 31.1179085,37.2078246 L31.1819618,37.1991495 L31.5727036,37.1985053 L31.3219572,36.9532442 C31.2427767,36.8756062 31.2289619,36.7563119 31.2809029,36.663285 L31.3199613,36.6111643 C31.3982339,36.5313751 31.5176422,36.516619 31.6102572,36.567832 L31.6620676,36.6064836 L31.9007036,36.8395053 L31.9012141,36.5034522 C31.9012141,36.3925594 31.9767217,36.2991637 32.0795102,36.2711121 L32.1440713,36.2625053 Z M83.1440713,36.2625053 C83.2558432,36.2625053 83.3499794,36.3374189 83.3782533,36.4393989 L83.3869284,36.5034522 L83.3867036,36.8515053 L83.6382702,36.6064836 C83.7174507,36.5288455 83.8370103,36.5173637 83.92902,36.5711022 L83.9803764,36.6111643 C84.0586353,36.6909673 84.0710604,36.8106224 84.0180418,36.902206 L83.9783805,36.9532442 L83.7267036,37.1985053 L84.0697727,37.1991495 C84.1806654,37.1991495 84.2740612,37.274657 84.3021127,37.3774456 L84.3107196,37.4420066 C84.3107196,37.5537785 84.235806,37.6479147 84.1338259,37.6761887 L84.0697727,37.6848638 L83.7617036,37.6845053 L83.9970537,37.9154634 C84.0762343,37.9931015 84.090049,38.1123958 84.038108,38.2054227 L83.9990496,38.2575434 C83.920777,38.3373325 83.8013687,38.3520886 83.7087537,38.3008756 L83.6569434,38.2622241 L83.3867036,37.9965053 L83.3869284,38.3547739 C83.3869284,38.4656666 83.3114209,38.5590624 83.2086323,38.5871139 L83.1440713,38.5957208 C83.0322994,38.5957208 82.9381632,38.5208072 82.9098892,38.4188271 L82.9012141,38.3547739 L82.9007036,38.0085053 L82.6433944,38.2622241 C82.5642138,38.3398621 82.4446542,38.3513439 82.3526445,38.2976054 L82.3012881,38.2575434 C82.2230292,38.1777404 82.2106041,38.0580852 82.2636227,37.9665016 L82.303284,37.9154634 L82.5377036,37.6845053 L82.1819618,37.6848638 C82.071069,37.6848638 81.9776733,37.6093562 81.9496217,37.5065677 L81.9410149,37.4420066 C81.9410149,37.3302347 82.0159285,37.2360985 82.1179085,37.2078246 L82.1819618,37.1991495 L82.5727036,37.1985053 L82.3219572,36.9532442 C82.2427767,36.8756062 82.2289619,36.7563119 82.2809029,36.663285 L82.3199613,36.6111643 C82.3982339,36.5313751 82.5176422,36.516619 82.6102572,36.567832 L82.6620676,36.6064836 L82.9007036,36.8395053 L82.9012141,36.5034522 C82.9012141,36.3925594 82.9767217,36.2991637 83.0795102,36.2711121 L83.1440713,36.2625053 Z M114.42321,15.578059 C114.834681,15.578059 115.168243,15.9047649 115.168243,16.307777 C115.168243,16.7107892 114.834681,17.0374951 114.42321,17.0374951 C114.01174,17.0374951 113.678177,16.7107892 113.678177,16.307777 C113.678177,15.9047649 114.01174,15.578059 114.42321,15.578059 Z M97.9284629,2.89136255 C98.2001912,2.89136255 98.4204705,3.10855207 98.4204705,3.37646893 C98.4204705,3.64438579 98.2001912,3.86157531 97.9284629,3.86157531 C97.6567347,3.86157531 97.4364554,3.64438579 97.4364554,3.37646893 C97.4364554,3.10855207 97.6567347,2.89136255 97.9284629,2.89136255 Z M46.9284629,2.89136255 C47.2001912,2.89136255 47.4204705,3.10855207 47.4204705,3.37646893 C47.4204705,3.64438579 47.2001912,3.86157531 46.9284629,3.86157531 C46.6567347,3.86157531 46.4364554,3.64438579 46.4364554,3.37646893 C46.4364554,3.10855207 46.6567347,2.89136255 46.9284629,2.89136255 Z M96.2069681,3.01263914 C96.4079057,3.01263914 96.5707979,3.17553129 96.5707979,3.37646893 C96.5707979,3.57740657 96.4079057,3.74029872 96.2069681,3.74029872 L83.3253561,3.74029872 C83.1244185,3.74029872 82.9615263,3.57740657 82.9615263,3.37646893 C82.9615263,3.17553129 83.1244185,3.01263914 83.3253561,3.01263914 L96.2069681,3.01263914 Z M45.2069681,3.01263914 C45.4079057,3.01263914 45.5707979,3.17553129 45.5707979,3.37646893 C45.5707979,3.57740657 45.4079057,3.74029872 45.2069681,3.74029872 L32.3253561,3.74029872 C32.1244185,3.74029872 31.9615263,3.57740657 31.9615263,3.37646893 C31.9615263,3.17553129 32.1244185,3.01263914 32.3253561,3.01263914 L45.2069681,3.01263914 Z" id="Combined-Shape" fill="#C5C6C6"></path>
        </g>
    </g>
</svg>