<svg version="1.1" id="Layer_1" xmlns="http://www.w3.org/2000/svg" width="345" height="385" viewBox="0 0 345 385" xml:space="preserve">
  <g id="Illustration-_x2F_-Flow-_x2F_--Desktop-_x2F_-5-mobile-numbers-Activated">
    <path id="svg-mobile-line--5" class="svg-mobile-line svg-mobile-line--5" fill="#C5C6C6" d="M316.67 197.25a5.892 5.892 0 015.898 5.887v114.727a5.893 5.893 0 01-5.898 5.887h-54.062c-3.257 0-5.899-2.636-5.899-5.887v-99.221a.75.75 0 011.5 0v99.221a4.394 4.394 0 004.399 4.387h54.062a4.392 4.392 0 004.398-4.387V203.137a4.393 4.393 0 00-4.398-4.387h-54.062a4.393 4.393 0 00-4.399 4.387v9.846a.75.75 0 11-1.5 0v-9.846c0-3.252 2.643-5.887 5.899-5.887h54.062z"/>
    <path id="svg-mobile-line--3" class="svg-mobile-line svg-mobile-line--3" fill="#C5C6C6" d="M86.669 197.25a5.893 5.893 0 015.899 5.887v114.727c0 3.251-2.641 5.887-5.899 5.887H32.608c-3.257 0-5.899-2.636-5.899-5.887v-99.221a.75.75 0 011.5 0v99.221a4.393 4.393 0 004.399 4.387h54.061a4.393 4.393 0 004.399-4.387V203.137a4.393 4.393 0 00-4.399-4.387H32.608a4.393 4.393 0 00-4.399 4.387v9.846a.75.75 0 11-1.5 0v-9.846c0-3.252 2.642-5.887 5.899-5.887h54.061z"/>
    <path id="svg-mobile-line--4" class="svg-mobile-line svg-mobile-line--4" fill="#C5C6C6" d="M201.67 197.25a5.892 5.892 0 015.898 5.887v114.727a5.893 5.893 0 01-5.898 5.887h-54.062c-3.257 0-5.899-2.636-5.899-5.887v-99.221a.75.75 0 011.5 0v99.221a4.393 4.393 0 004.399 4.387h54.062a4.392 4.392 0 004.398-4.387V203.137a4.393 4.393 0 00-4.398-4.387h-54.062a4.393 4.393 0 00-4.399 4.387v9.846a.75.75 0 11-1.5 0v-9.846c0-3.252 2.642-5.887 5.899-5.887h54.062z"/>
    <path id="svg-mobile-line--2" class="svg-mobile-line svg-mobile-line--2" fill="#C5C6C6" d="M259.67 41.25a5.892 5.892 0 015.898 5.887v114.727a5.893 5.893 0 01-5.898 5.887h-54.062c-3.257 0-5.899-2.635-5.899-5.887v-99.22a.75.75 0 011.5 0v99.22a4.394 4.394 0 004.399 4.387h54.062a4.392 4.392 0 004.398-4.387V47.137a4.393 4.393 0 00-4.398-4.387h-54.062a4.393 4.393 0 00-4.399 4.387v9.846a.75.75 0 11-1.5 0v-9.846c0-3.251 2.643-5.887 5.899-5.887h54.062z"/>
    <path id="svg-mobile-line--1" class="svg-mobile-line svg-mobile-line--1" fill="#C5C6C6" d="M144.669 41.25a5.893 5.893 0 015.899 5.887v114.727c0 3.251-2.641 5.887-5.899 5.887H90.608c-3.257 0-5.899-2.635-5.899-5.887v-99.22a.75.75 0 011.5 0v99.22a4.393 4.393 0 004.399 4.387h54.061a4.393 4.393 0 004.399-4.387V47.137a4.393 4.393 0 00-4.399-4.387H90.608a4.393 4.393 0 00-4.399 4.387v9.846a.75.75 0 11-1.5 0v-9.846c0-3.251 2.642-5.887 5.899-5.887h54.061z"/>
    <path id="bubbles-green" fill="#239A98" d="M330.625 349.885a1.69 1.69 0 011.691 1.688c0 .933-.758 1.688-1.691 1.688s-1.691-.755-1.691-1.688a1.69 1.69 0 011.691-1.688zm-230 0a1.689 1.689 0 110 3.376 1.689 1.689 0 110-3.376zM311.765 154a6.762 6.762 0 016.765 6.757c0 3.731-3.029 6.757-6.765 6.757S305 164.488 305 160.757a6.761 6.761 0 016.765-6.757zM40.5 125c5.799 0 10.5 4.701 10.5 10.5S46.299 146 40.5 146 30 141.299 30 135.5 34.701 125 40.5 125z"/>
    <path id="bubbles-grey-light" fill="#F2F2F2" d="M244.5 348c10.217 0 18.5 8.282 18.5 18.5s-8.283 18.5-18.5 18.5-18.5-8.282-18.5-18.5 8.283-18.5 18.5-18.5zm-16.191-115.371c.934 0 1.691.755 1.691 1.687 0 .933-.758 1.688-1.691 1.688s-1.691-.755-1.691-1.688a1.688 1.688 0 011.691-1.687zm-115 0c.934 0 1.691.755 1.691 1.687 0 .933-.757 1.688-1.691 1.688a1.689 1.689 0 01-1.691-1.688c0-.932.757-1.687 1.691-1.687zm230 0c.934 0 1.691.755 1.691 1.687 0 .933-.758 1.688-1.691 1.688s-1.691-.755-1.691-1.688a1.688 1.688 0 011.691-1.687zm-69.684-86.744c.934 0 1.691.755 1.691 1.687a1.69 1.69 0 01-3.382 0 1.69 1.69 0 011.691-1.687zm-87.096-33.783c3.736 0 6.765 3.025 6.765 6.756 0 3.732-3.028 6.757-6.765 6.757s-6.765-3.025-6.765-6.757a6.76 6.76 0 016.765-6.756zm-11.838-13.514c.934 0 1.691.755 1.691 1.688a1.69 1.69 0 01-3.382-.001 1.69 1.69 0 011.691-1.687zm111.618-21.96l.146.006A1.69 1.69 0 01288 78.315a1.69 1.69 0 01-1.691 1.687 1.689 1.689 0 01-1.691-1.687 1.689 1.689 0 011.691-1.687zm-115 0c.934 0 1.691.755 1.691 1.688 0 .932-.757 1.687-1.691 1.687a1.689 1.689 0 01-1.691-1.687 1.69 1.69 0 011.691-1.688z"/>
    <path id="bubbles-grey" fill="#C5C6C6" d="M215.625 301.885c.934 0 1.691.756 1.691 1.688a1.69 1.69 0 01-3.382 0 1.69 1.69 0 011.691-1.688zm-98.934-47.297c.934 0 1.691.756 1.691 1.688s-.757 1.688-1.691 1.688-1.691-.756-1.691-1.688.757-1.688 1.691-1.688zm-115 0c.934 0 1.691.756 1.691 1.688s-.757 1.688-1.691 1.688S0 257.208 0 256.276s.757-1.688 1.691-1.688zm230 0c.934 0 1.691.756 1.691 1.688a1.69 1.69 0 01-3.382-.001 1.69 1.69 0 011.691-1.687zm41.934-108.703c.934 0 1.691.755 1.691 1.687a1.69 1.69 0 01-3.382 0 1.69 1.69 0 011.691-1.687zm-115 0c.934 0 1.691.755 1.691 1.687s-.757 1.688-1.691 1.688-1.691-.755-1.691-1.688a1.69 1.69 0 011.691-1.687zM59.691 98.588c.934 0 1.691.755 1.691 1.688 0 .932-.757 1.687-1.691 1.687A1.689 1.689 0 0158 100.276c0-.933.757-1.688 1.691-1.688zm115 0c.934 0 1.691.755 1.691 1.688a1.69 1.69 0 01-3.382-.001 1.69 1.69 0 011.691-1.687z"/>
    <path id="buttons-details" fill="#C5C6C6" d="M44.193 316.499a.509.509 0 01.091 1.008l-.091.008H33.896a.509.509 0 01-.091-1.008l.091-.008h10.297zm27.46 0a.508.508 0 01.09 1.008l-.091.008H61.355a.508.508 0 01-.09-1.008l.091-.008h10.297zm-13.73 0a.509.509 0 01.091 1.008l-.091.008H47.625a.509.509 0 01-.091-1.008l.091-.008h10.298zm27.459 0a.509.509 0 01.091 1.008l-.091.008H75.085a.508.508 0 01-.091-1.008l.091-.008h10.297zm188.811 0a.51.51 0 01.091 1.008l-.091.008h-10.298a.508.508 0 01-.091-1.008l.091-.008h10.298zm27.459 0a.508.508 0 01.092 1.008l-.092.008h-10.297a.508.508 0 01-.092-1.008l.092-.008h10.297zm-13.729 0a.508.508 0 01.091 1.008l-.091.008h-10.298a.51.51 0 01-.091-1.008l.091-.008h10.298zm27.46 0a.51.51 0 01.091 1.008l-.091.008h-10.298a.508.508 0 01-.091-1.008l.091-.008h10.298zm-115 0a.51.51 0 01.091 1.008l-.091.008h-10.298a.508.508 0 01-.091-1.008l.091-.008h10.298zm-27.46 0a.509.509 0 01.091 1.008l-.091.008h-10.297a.509.509 0 01-.091-1.008l.091-.008h10.297zm13.729 0a.508.508 0 01.092 1.008l-.092.008h-10.297a.508.508 0 01-.092-1.008l.092-.008h10.297zm-27.459 0a.509.509 0 01.091 1.008l-.091.008h-10.297a.509.509 0 01-.091-1.008l.091-.008h10.297zm113.284-39.376c3.356 0 6.078 2.715 6.078 6.065 0 3.35-2.722 6.065-6.078 6.065-3.355 0-6.078-2.716-6.078-6.065-.001-3.35 2.722-6.065 6.078-6.065zm34.324 0c.924 0 1.82.207 2.635.598a.5.5 0 01-.434.902 5.052 5.052 0 00-2.201-.5 5.07 5.07 0 00-5.077 5.065c0 2.797 2.272 5.065 5.077 5.065s5.078-2.269 5.078-5.065a5.024 5.024 0 00-.896-2.874.501.501 0 01.822-.57 6.036 6.036 0 011.074 3.444c0 3.35-2.721 6.065-6.078 6.065-3.355 0-6.077-2.716-6.077-6.065 0-3.35 2.721-6.065 6.077-6.065zm-149.324 0c3.356 0 6.078 2.715 6.078 6.065 0 3.35-2.721 6.065-6.078 6.065s-6.078-2.716-6.078-6.065c0-3.35 2.721-6.065 6.078-6.065zm34.324 0c.924 0 1.82.207 2.635.598a.5.5 0 01-.434.902 5.052 5.052 0 00-2.201-.5 5.07 5.07 0 00-5.077 5.065c0 2.797 2.272 5.065 5.077 5.065s5.078-2.269 5.078-5.065a5.024 5.024 0 00-.896-2.874.501.501 0 01.822-.57 6.036 6.036 0 011.074 3.444c0 3.35-2.721 6.065-6.078 6.065-3.355 0-6.077-2.716-6.077-6.065 0-3.35 2.721-6.065 6.077-6.065zm-115 0c.924 0 1.819.207 2.634.598a.5.5 0 01-.433.902 5.055 5.055 0 00-2.201-.5 5.071 5.071 0 00-5.078 5.065c0 2.797 2.273 5.065 5.078 5.065s5.078-2.269 5.078-5.065a5.024 5.024 0 00-.896-2.874.5.5 0 01.822-.57 6.036 6.036 0 011.074 3.444c0 3.35-2.721 6.065-6.078 6.065s-6.078-2.716-6.078-6.065a6.072 6.072 0 016.078-6.065zm-34.324 0c3.356 0 6.078 2.715 6.078 6.065 0 3.35-2.721 6.065-6.078 6.065s-6.078-2.716-6.078-6.065c0-3.35 2.721-6.065 6.078-6.065zm0 1a5.072 5.072 0 00-5.078 5.065 5.071 5.071 0 005.078 5.065 5.072 5.072 0 005.078-5.065 5.073 5.073 0 00-5.078-5.065zm115 0a5.072 5.072 0 00-5.078 5.065 5.071 5.071 0 005.078 5.065 5.072 5.072 0 005.078-5.065 5.073 5.073 0 00-5.078-5.065zm115 0a5.071 5.071 0 00-5.078 5.065c0 2.797 2.273 5.065 5.078 5.065s5.078-2.269 5.078-5.065a5.072 5.072 0 00-5.078-5.065zm35.183 2.425a.5.5 0 01.491.41l.009.09-.002.782h.783a.5.5 0 01.09.992l-.09.008h-.783v.716l.783.001a.5.5 0 01.09.991l-.09.009-.783-.001.002.782a.5.5 0 01-.992.09l-.008-.09-.002-.782h-.716l.001.782a.5.5 0 01-.992.09l-.008-.09-.001-.782-.782.001a.501.501 0 01-.09-.992l.09-.008.782-.001v-.716h-.782a.501.501 0 01-.09-.992l.09-.008h.782l.001-.782a.5.5 0 01.992-.09l.008.09-.001.782h.716l.002-.782c0-.277.223-.5.5-.5zm-230 0c.245 0 .449.177.492.41l.008.09-.001.782h.783a.5.5 0 01.09.992l-.09.008h-.783v.716l.783.001a.5.5 0 01.09.991l-.09.009-.783-.001.001.782a.5.5 0 01-.992.09l-.008-.09-.001-.782h-.716l.001.782a.5.5 0 01-.992.09l-.008-.09-.001-.782-.782.001a.5.5 0 01-.09-.992l.09-.008.782-.001v-.716h-.782a.5.5 0 01-.09-.992l.09-.008h.782l.001-.782a.5.5 0 01.992-.09l.008.09-.001.782h.716l.001-.782c0-.277.223-.5.5-.5zm194.817 0a.5.5 0 01.5.5v.935l.664-.662a.502.502 0 01.638-.057l.069.059a.498.498 0 01.057.637l-.058.07-.662.658.938.001c.245 0 .45.177.491.41l.009.09a.5.5 0 01-.41.491l-.09.009-.938-.001.662.66a.503.503 0 01.059.639l-.058.068a.501.501 0 01-.638.059l-.069-.058-.664-.663v.936a.5.5 0 01-.41.492l-.09.008a.5.5 0 01-.5-.5v-.936l-.664.663a.501.501 0 01-.637.058l-.07-.059a.501.501 0 01-.057-.638l.059-.069.661-.66-.937.001a.5.5 0 01-.492-.41l-.008-.09a.5.5 0 01.41-.492l.09-.008.937-.001-.661-.658a.503.503 0 01-.059-.639l.057-.068a.503.503 0 01.639-.059l.068.057.664.662v-.935a.5.5 0 01.41-.491l.09-.009zm-79.817 0a.5.5 0 01.491.41l.009.09-.002.782h.783a.5.5 0 01.09.992l-.09.008h-.783v.716l.783.001a.5.5 0 01.09.991l-.09.009-.783-.001.002.782a.5.5 0 01-.992.09l-.008-.09-.002-.782h-.716l.001.782a.5.5 0 01-.992.09l-.008-.09-.001-.782-.782.001a.501.501 0 01-.09-.992l.09-.008.782-.001v-.716h-.782a.501.501 0 01-.09-.992l.09-.008h.782l.001-.782a.5.5 0 01.992-.09l.008.09-.001.782h.716l.002-.782c0-.277.223-.5.5-.5zm-150.183 0a.5.5 0 01.5.5v.935l.665-.662a.502.502 0 01.638-.057l.069.059a.5.5 0 01.057.637l-.058.07-.662.658.938.001a.5.5 0 01.492.41l.008.09a.5.5 0 01-.41.491l-.09.009-.938-.001.662.66a.503.503 0 01.059.639l-.058.068a.501.501 0 01-.638.059l-.069-.058-.665-.663v.936a.5.5 0 01-.41.492l-.09.008a.5.5 0 01-.5-.5v-.936l-.663.663a.502.502 0 01-.638.058l-.069-.059a.501.501 0 01-.057-.638l.058-.069.662-.66-.937.001a.5.5 0 01-.492-.41l-.008-.09a.5.5 0 01.41-.492l.09-.008.937-.001-.662-.658a.504.504 0 01-.059-.639l.058-.068a.501.501 0 01.638-.059l.069.057.663.662v-.935c0-.245.177-.45.41-.491l.09-.009zm115 0a.5.5 0 01.492.41l.008.09v.935l.664-.662a.502.502 0 01.638-.057l.069.059a.5.5 0 01.057.637l-.058.07-.662.658.938.001a.5.5 0 01.492.41l.008.09a.5.5 0 01-.41.491l-.09.009-.937-.001.661.66a.503.503 0 01.059.639l-.058.068a.501.501 0 01-.638.059l-.069-.058-.664-.663v.936a.5.5 0 01-.41.492l-.09.008a.5.5 0 01-.492-.41l-.008-.09v-.936l-.664.663a.502.502 0 01-.638.058l-.069-.059a.501.501 0 01-.057-.638l.058-.069.661-.66-.936.001a.5.5 0 01-.492-.41l-.008-.09a.5.5 0 01.41-.492l.09-.008.937-.001-.662-.658a.504.504 0 01-.059-.639l.058-.068a.501.501 0 01.638-.059l.069.057.664.662v-.935c0-.245.177-.45.41-.491l.09-.009zm149.681 2.282h-.716v.716h.716v-.716zm-115 0h-.716v.716h.716v-.716zm-114.999 0h-.716v.716h.716v-.716zm-1.651-79.763a.423.423 0 11.001.845.423.423 0 01-.001-.845zm115 0a.423.423 0 11.001.847.423.423 0 01-.001-.847zm112.439 0a.423.423 0 010 .845h-30.049a.423.423 0 010-.845h30.049zm-115 0a.423.423 0 010 .845h-30.048a.422.422 0 010-.845h30.048zm-115 0a.422.422 0 010 .845H42.899a.422.422 0 010-.845h30.048zm232.561 0a.423.423 0 11.001.847.423.423 0 01-.001-.847zm-203.315-42.568a.509.509 0 01.091 1.008l-.091.008H91.896a.509.509 0 01-.091-1.008l.091-.008h10.297zm115 0a.51.51 0 01.091 1.008l-.091.008h-10.298a.509.509 0 01-.091-1.008l.091-.008h10.298zm27.459 0a.508.508 0 01.092 1.008l-.092.008h-10.297a.508.508 0 01-.092-1.008l.092-.008h10.297zm-128.729 0a.509.509 0 01.091 1.008l-.091.008h-10.297a.509.509 0 01-.091-1.008l.091-.008h10.297zm142.46 0a.51.51 0 01.091 1.008l-.091.008h-10.298a.508.508 0 01-.091-1.008l.091-.008h10.298zm-115.001 0a.509.509 0 01.091 1.008l-.091.008h-10.297a.508.508 0 01-.091-1.008l.091-.008h10.297zm87.541 0a.508.508 0 01.091 1.008l-.091.008h-10.298a.51.51 0 01-.091-1.008l.091-.008h10.298zm-101.27 0a.508.508 0 01.09 1.008l-.091.008h-10.298a.508.508 0 01-.09-1.008l.091-.008h10.298zm85.824-39.376c3.356 0 6.078 2.715 6.078 6.065 0 3.35-2.722 6.065-6.078 6.065s-6.078-2.715-6.078-6.065c-.001-3.35 2.721-6.065 6.078-6.065zm-80.676 0c.924 0 1.819.207 2.634.598a.5.5 0 11-.433.901 5.069 5.069 0 00-2.201-.5 5.071 5.071 0 00-5.078 5.065c0 2.797 2.273 5.065 5.078 5.065s5.078-2.268 5.078-5.065a5.03 5.03 0 00-.896-2.875.5.5 0 01.822-.57 6.033 6.033 0 011.074 3.444c0 3.35-2.721 6.065-6.078 6.065s-6.078-2.715-6.078-6.065c.001-3.348 2.722-6.063 6.078-6.063zm-34.324 0c3.356 0 6.078 2.715 6.078 6.065 0 3.35-2.721 6.065-6.078 6.065s-6.078-2.715-6.078-6.065c0-3.35 2.721-6.065 6.078-6.065zm149.324 0c.924 0 1.82.207 2.635.598a.5.5 0 11-.434.901 5.066 5.066 0 00-2.201-.5 5.07 5.07 0 00-5.077 5.065c0 2.797 2.272 5.065 5.077 5.065s5.078-2.268 5.078-5.065a5.03 5.03 0 00-.896-2.875.5.5 0 11.822-.57 6.033 6.033 0 011.074 3.444c0 3.35-2.721 6.065-6.078 6.065-3.355 0-6.077-2.715-6.077-6.065 0-3.348 2.721-6.063 6.077-6.063zm-34.324 1a5.071 5.071 0 00-5.078 5.065c0 2.797 2.273 5.065 5.078 5.065s5.078-2.268 5.078-5.065a5.072 5.072 0 00-5.078-5.065zm-115 0a5.072 5.072 0 00-5.078 5.065 5.071 5.071 0 005.078 5.065 5.071 5.071 0 005.078-5.065 5.073 5.073 0 00-5.078-5.065zm115 2.425a.5.5 0 01.492.41l.008.09v.934l.664-.661a.501.501 0 01.638-.057l.069.058a.5.5 0 01.057.638l-.058.069-.662.659h.938c.245 0 .45.177.491.41l.009.09a.501.501 0 01-.41.492l-.09.008h-.937l.661.66a.501.501 0 01.059.638l-.058.069a.502.502 0 01-.638.059l-.069-.058-.664-.663v.936a.5.5 0 01-.41.492l-.09.008a.501.501 0 01-.492-.41l-.008-.09v-.936l-.664.663a.501.501 0 01-.638.057l-.069-.058a.502.502 0 01-.057-.638l.058-.069.661-.66h-.936a.5.5 0 01-.492-.41l-.008-.09c0-.246.176-.45.41-.492l.09-.008h.937l-.662-.659a.502.502 0 01-.059-.638l.058-.069a.503.503 0 01.639-.059l.068.058.664.661v-.934c0-.245.178-.45.41-.492l.09-.008zm-79.817 0c.245 0 .449.177.492.41l.008.09-.001.782h.783a.5.5 0 01.09.992l-.09.008h-.783v.716h.783a.5.5 0 01.09.992l-.09.008h-.783l.001.783a.5.5 0 01-.992.09l-.008-.09-.001-.783h-.716l.001.783a.5.5 0 01-.992.09l-.008-.09-.001-.783h-.782a.5.5 0 01-.09-.992l.09-.008h.782v-.716h-.782a.5.5 0 01-.09-.992l.09-.008h.782l.001-.782a.5.5 0 01.992-.09l.008.09-.001.782h.716l.001-.782a.5.5 0 01.5-.5zm115 0a.5.5 0 01.491.41l.009.09-.002.782h.783a.5.5 0 01.09.992l-.09.008h-.783v.716h.783a.5.5 0 01.09.992l-.09.008h-.783l.002.783a.5.5 0 01-.992.09l-.008-.09-.002-.783h-.716l.001.783a.5.5 0 01-.992.09l-.008-.09-.001-.783h-.782a.5.5 0 01-.09-.992l.09-.008h.782v-.716h-.782a.5.5 0 01-.09-.992l.09-.008h.782l.001-.782a.5.5 0 01.992-.09l.008.09-.001.782h.716l.002-.782a.5.5 0 01.5-.5zm-150.183 0a.5.5 0 01.492.41l.008.09v.934l.664-.661a.501.501 0 01.638-.057l.069.058a.501.501 0 01.057.638l-.058.069-.662.659h.938a.5.5 0 01.492.41l.008.09a.501.501 0 01-.41.492l-.09.008h-.937l.661.66a.501.501 0 01.059.638l-.058.069a.502.502 0 01-.638.059l-.069-.058-.664-.663v.936a.5.5 0 01-.41.492l-.09.008a.5.5 0 01-.492-.41l-.008-.09v-.936l-.664.663a.501.501 0 01-.638.057l-.069-.058a.501.501 0 01-.057-.638l.058-.069.661-.66h-.936a.5.5 0 01-.492-.41l-.008-.09a.5.5 0 01.41-.492l.09-.008h.937l-.662-.659a.502.502 0 01-.059-.638l.058-.069a.501.501 0 01.638-.059l.069.058.664.661v-.934a.5.5 0 01.41-.492l.09-.008zm149.681 2.282h-.716v.716h.716v-.716zm-114.999 0h-.716v.716h.716v-.716zm-1.651-79.763a.422.422 0 11.001.845.422.422 0 01-.001-.845zm-2.561 0a.422.422 0 010 .844h-30.048a.422.422 0 010-.844h30.048zm115 0a.423.423 0 010 .844h-30.049a.423.423 0 010-.844h30.049z"/>
    <path id="buttons" fill="#8C8D8E" d="M59.639 290.822a6.06 6.06 0 012.634.598.5.5 0 11-.433.901 5.068 5.068 0 00-2.201-.499c-2.805 0-5.078 2.268-5.078 5.064s2.273 5.065 5.078 5.065 5.078-2.269 5.078-5.065a5.034 5.034 0 00-.896-2.874.5.5 0 11.822-.569 6.023 6.023 0 011.074 3.443c0 3.35-2.721 6.065-6.078 6.065s-6.078-2.716-6.078-6.065 2.722-6.064 6.078-6.064zm230 0c.924 0 1.82.206 2.635.598a.5.5 0 11-.434.901 5.065 5.065 0 00-2.201-.499c-2.805 0-5.078 2.268-5.078 5.064s2.273 5.065 5.078 5.065 5.078-2.269 5.078-5.065a5.034 5.034 0 00-.896-2.874.5.5 0 01.822-.569 6.03 6.03 0 011.074 3.443c0 3.35-2.721 6.065-6.078 6.065-3.355 0-6.078-2.716-6.078-6.065s2.722-6.064 6.078-6.064zm-115 0c.924 0 1.82.206 2.635.598a.5.5 0 11-.434.901 5.065 5.065 0 00-2.201-.499c-2.804 0-5.078 2.268-5.078 5.064s2.273 5.065 5.078 5.065a5.072 5.072 0 005.078-5.065 5.034 5.034 0 00-.896-2.874.5.5 0 11.822-.569 6.03 6.03 0 011.074 3.443c0 3.35-2.721 6.065-6.078 6.065-3.356 0-6.078-2.716-6.078-6.065s2.722-6.064 6.078-6.064zm0-13.699c3.357 0 6.078 2.715 6.078 6.065 0 3.35-2.721 6.065-6.078 6.065-3.356 0-6.078-2.716-6.078-6.065 0-3.35 2.722-6.065 6.078-6.065zm115 0c3.357 0 6.078 2.715 6.078 6.065 0 3.35-2.721 6.065-6.078 6.065-3.355 0-6.078-2.716-6.078-6.065 0-3.35 2.722-6.065 6.078-6.065zm-230 0c3.356 0 6.078 2.715 6.078 6.065 0 3.35-2.721 6.065-6.078 6.065s-6.078-2.716-6.078-6.065c0-3.35 2.722-6.065 6.078-6.065zm0 1a5.071 5.071 0 00-5.078 5.065c0 2.797 2.273 5.065 5.078 5.065s5.078-2.269 5.078-5.065a5.071 5.071 0 00-5.078-5.065zm115 0a5.072 5.072 0 00-5.078 5.065 5.071 5.071 0 005.078 5.065 5.072 5.072 0 005.078-5.065 5.072 5.072 0 00-5.078-5.065zm115 0a5.071 5.071 0 00-5.078 5.065c0 2.797 2.273 5.065 5.078 5.065s5.078-2.269 5.078-5.065a5.072 5.072 0 00-5.078-5.065zm0-14.698c.924 0 1.82.206 2.635.598a.5.5 0 01-.434.901 5.065 5.065 0 00-2.201-.499 5.071 5.071 0 00-5.078 5.065c0 2.797 2.273 5.064 5.078 5.064s5.078-2.268 5.078-5.064a5.035 5.035 0 00-.896-2.875.5.5 0 01.822-.569 6.033 6.033 0 011.074 3.444c0 3.35-2.721 6.064-6.078 6.064-3.355 0-6.078-2.715-6.078-6.064 0-3.35 2.722-6.065 6.078-6.065zm17.162 0c3.357 0 6.078 2.715 6.078 6.065 0 3.35-2.721 6.064-6.078 6.064-3.355 0-6.077-2.715-6.077-6.064 0-3.35 2.721-6.065 6.077-6.065zm-132.162 0c.924 0 1.82.206 2.635.598a.5.5 0 01-.434.901 5.065 5.065 0 00-2.201-.499 5.072 5.072 0 00-5.078 5.065 5.07 5.07 0 005.078 5.064 5.071 5.071 0 005.078-5.064 5.035 5.035 0 00-.896-2.875.498.498 0 01.127-.695.497.497 0 01.695.126 6.033 6.033 0 011.074 3.444c0 3.35-2.721 6.064-6.078 6.064-3.356 0-6.078-2.715-6.078-6.064 0-3.35 2.722-6.065 6.078-6.065zm17.162 0c3.357 0 6.078 2.715 6.078 6.065 0 3.35-2.721 6.064-6.078 6.064-3.355 0-6.077-2.715-6.077-6.064 0-3.35 2.721-6.065 6.077-6.065zm-34.324 0c3.356 0 6.078 2.715 6.078 6.065 0 3.35-2.721 6.064-6.078 6.064s-6.078-2.715-6.078-6.064c0-3.35 2.721-6.065 6.078-6.065zm-115 0c3.356 0 6.078 2.715 6.078 6.065 0 3.35-2.721 6.064-6.078 6.064s-6.078-2.715-6.078-6.064c0-3.35 2.721-6.065 6.078-6.065zm34.324 0c3.356 0 6.078 2.715 6.078 6.065 0 3.35-2.721 6.064-6.078 6.064s-6.078-2.715-6.078-6.064a6.072 6.072 0 016.078-6.065zm195.676 0c3.356 0 6.078 2.715 6.078 6.065 0 3.35-2.722 6.064-6.078 6.064-3.355 0-6.078-2.715-6.078-6.064-.001-3.35 2.722-6.065 6.078-6.065zm-212.838 0a6.06 6.06 0 012.634.598.5.5 0 11-.433.901 5.068 5.068 0 00-2.201-.499 5.071 5.071 0 00-5.078 5.065c0 2.797 2.273 5.064 5.078 5.064s5.078-2.268 5.078-5.064a5.035 5.035 0 00-.896-2.875.5.5 0 11.822-.569 6.026 6.026 0 011.074 3.444c0 3.35-2.721 6.064-6.078 6.064s-6.078-2.715-6.078-6.064c0-3.35 2.722-6.065 6.078-6.065zm132.162 1a5.07 5.07 0 00-5.077 5.065c0 2.797 2.272 5.064 5.077 5.064s5.078-2.268 5.078-5.064a5.071 5.071 0 00-5.078-5.065zm-34.324 0a5.072 5.072 0 00-5.078 5.065 5.07 5.07 0 005.078 5.064 5.071 5.071 0 005.078-5.064 5.072 5.072 0 00-5.078-5.065zm-115 0a5.072 5.072 0 00-5.078 5.065 5.07 5.07 0 005.078 5.064 5.071 5.071 0 005.078-5.064 5.072 5.072 0 00-5.078-5.065zm34.324 0a5.071 5.071 0 00-5.078 5.065c0 2.797 2.273 5.064 5.078 5.064s5.078-2.268 5.078-5.064a5.07 5.07 0 00-5.078-5.065zm195.676 0a5.071 5.071 0 00-5.078 5.065c0 2.797 2.273 5.064 5.078 5.064s5.078-2.268 5.078-5.064a5.071 5.071 0 00-5.078-5.065zm34.324 0a5.07 5.07 0 00-5.077 5.065c0 2.797 2.272 5.064 5.077 5.064s5.078-2.268 5.078-5.064a5.071 5.071 0 00-5.078-5.065zm-132.162-14.698c3.357 0 6.078 2.715 6.078 6.064s-2.721 6.065-6.078 6.065c-3.356 0-6.078-2.716-6.078-6.065 0-.975.231-1.917.668-2.766a6.077 6.077 0 015.41-3.298zm97.838 0c.924 0 1.819.205 2.635.598a.5.5 0 11-.434.9 5.078 5.078 0 00-2.201-.498c-2.805 0-5.078 2.268-5.078 5.064s2.273 5.065 5.078 5.065 5.078-2.269 5.078-5.065a5.04 5.04 0 00-.896-2.875.499.499 0 11.822-.568 6.03 6.03 0 011.074 3.443c0 3.35-2.722 6.065-6.078 6.065-3.355 0-6.078-2.716-6.078-6.065s2.722-6.064 6.078-6.064zm34.324 0c3.357 0 6.078 2.715 6.078 6.064s-2.721 6.065-6.078 6.065c-3.355 0-6.077-2.716-6.077-6.065s2.721-6.064 6.077-6.064zm-17.162 0c3.357 0 6.078 2.715 6.078 6.064s-2.721 6.065-6.078 6.065c-3.355 0-6.078-2.716-6.078-6.065 0-.975.232-1.917.668-2.766a6.078 6.078 0 015.41-3.298zm-97.838 0c3.357 0 6.078 2.715 6.078 6.064s-2.721 6.065-6.078 6.065c-3.355 0-6.077-2.716-6.077-6.065s2.721-6.064 6.077-6.064zm-34.324 0c.924 0 1.819.205 2.634.598a.5.5 0 11-.433.9 5.078 5.078 0 00-2.201-.498c-2.804 0-5.078 2.268-5.078 5.064s2.273 5.065 5.078 5.065a5.072 5.072 0 005.078-5.065 5.032 5.032 0 00-.896-2.875.5.5 0 11.822-.568 6.03 6.03 0 011.074 3.443c0 3.35-2.721 6.065-6.078 6.065s-6.078-2.716-6.078-6.065 2.721-6.064 6.078-6.064zm-115 0c.924 0 1.819.205 2.634.598a.5.5 0 11-.433.9 5.078 5.078 0 00-2.201-.498c-2.804 0-5.078 2.268-5.078 5.064s2.273 5.065 5.078 5.065a5.072 5.072 0 005.078-5.065 5.032 5.032 0 00-.896-2.875.5.5 0 11.822-.568 6.03 6.03 0 011.074 3.443c0 3.35-2.721 6.065-6.078 6.065s-6.078-2.716-6.078-6.065 2.721-6.064 6.078-6.064zm34.324 0c3.356 0 6.078 2.715 6.078 6.064s-2.721 6.065-6.078 6.065-6.078-2.716-6.078-6.065 2.722-6.064 6.078-6.064zm-17.162 0c3.356 0 6.078 2.715 6.078 6.064s-2.721 6.065-6.078 6.065-6.078-2.716-6.078-6.065c0-.975.231-1.917.668-2.766a6.077 6.077 0 015.41-3.298zm115 1a5.08 5.08 0 00-4.521 2.756 5.034 5.034 0 00-.557 2.309 5.071 5.071 0 005.078 5.065c2.805 0 5.078-2.269 5.078-5.065s-2.274-5.065-5.078-5.065zm132.162 0c-2.805 0-5.077 2.268-5.077 5.064s2.272 5.065 5.077 5.065 5.078-2.269 5.078-5.065-2.274-5.064-5.078-5.064zm-17.162 0a5.08 5.08 0 00-4.521 2.756 5.034 5.034 0 00-.558 2.309c0 2.797 2.273 5.065 5.078 5.065s5.078-2.269 5.078-5.065-2.273-5.065-5.077-5.065zm-212.838 0c-2.805 0-5.078 2.268-5.078 5.064s2.273 5.065 5.078 5.065 5.078-2.269 5.078-5.065-2.273-5.064-5.078-5.064zm-17.162 0a5.079 5.079 0 00-4.521 2.756 5.034 5.034 0 00-.557 2.309c0 2.797 2.273 5.065 5.078 5.065s5.078-2.269 5.078-5.065-2.273-5.065-5.078-5.065zm132.162 0c-2.805 0-5.077 2.268-5.077 5.064s2.272 5.065 5.077 5.065 5.078-2.269 5.078-5.065-2.274-5.064-5.078-5.064zm-17.162-14.7c3.357 0 6.078 2.715 6.078 6.064 0 3.351-2.721 6.066-6.078 6.066-3.356 0-6.078-2.716-6.078-6.066 0-3.349 2.722-6.064 6.078-6.064zm-115 0c3.356 0 6.078 2.715 6.078 6.064 0 3.351-2.721 6.066-6.078 6.066s-6.078-2.716-6.078-6.066c0-3.349 2.722-6.064 6.078-6.064zm-17.162 0c3.356 0 6.078 2.715 6.078 6.064 0 3.351-2.721 6.066-6.078 6.066s-6.078-2.716-6.078-6.066c0-3.349 2.721-6.064 6.078-6.064zm115 0c3.356 0 6.078 2.715 6.078 6.064 0 3.351-2.721 6.066-6.078 6.066s-6.078-2.716-6.078-6.066c0-3.349 2.721-6.064 6.078-6.064zm34.324 0c.924 0 1.82.206 2.635.598a.5.5 0 11-.434.901 5.065 5.065 0 00-2.201-.499 5.07 5.07 0 00-5.077 5.064c0 2.798 2.272 5.066 5.077 5.066s5.078-2.269 5.078-5.066a5.029 5.029 0 00-.896-2.874.5.5 0 01.822-.569 6.035 6.035 0 011.074 3.443c0 3.351-2.721 6.066-6.078 6.066-3.355 0-6.077-2.716-6.077-6.066 0-3.349 2.721-6.064 6.077-6.064zm115 0c.924 0 1.82.206 2.635.598a.5.5 0 11-.434.901 5.065 5.065 0 00-2.201-.499 5.07 5.07 0 00-5.077 5.064c0 2.798 2.272 5.066 5.077 5.066s5.078-2.269 5.078-5.066a5.029 5.029 0 00-.896-2.874.5.5 0 01.822-.569 6.035 6.035 0 011.074 3.443c0 3.351-2.721 6.066-6.078 6.066-3.355 0-6.077-2.716-6.077-6.066 0-3.349 2.721-6.064 6.077-6.064zm-34.324 0c3.356 0 6.078 2.715 6.078 6.064 0 3.351-2.722 6.066-6.078 6.066-3.355 0-6.078-2.716-6.078-6.066-.001-3.349 2.722-6.064 6.078-6.064zm17.162 0c3.357 0 6.078 2.715 6.078 6.064 0 3.351-2.721 6.066-6.078 6.066-3.355 0-6.078-2.716-6.078-6.066 0-3.349 2.722-6.064 6.078-6.064zm-212.838 0a6.06 6.06 0 012.634.598.5.5 0 11-.433.901 5.068 5.068 0 00-2.201-.499 5.071 5.071 0 00-5.078 5.064c0 2.798 2.273 5.066 5.078 5.066s5.078-2.269 5.078-5.066a5.029 5.029 0 00-.896-2.874.5.5 0 11.822-.569 6.035 6.035 0 011.074 3.443c0 3.351-2.721 6.066-6.078 6.066s-6.078-2.716-6.078-6.066c.001-3.349 2.722-6.064 6.078-6.064zm195.676 1a5.071 5.071 0 00-5.078 5.064c0 2.798 2.273 5.066 5.078 5.066s5.078-2.269 5.078-5.066c0-2.796-2.274-5.064-5.078-5.064zm17.162 0a5.071 5.071 0 00-5.078 5.064c0 2.798 2.273 5.066 5.078 5.066s5.078-2.269 5.078-5.066c0-2.796-2.274-5.064-5.078-5.064zm-230 0a5.071 5.071 0 00-5.078 5.064c0 2.798 2.273 5.066 5.078 5.066s5.078-2.269 5.078-5.066a5.071 5.071 0 00-5.078-5.064zm-17.162 0c-2.804 0-5.078 2.268-5.078 5.064a5.072 5.072 0 005.078 5.066 5.072 5.072 0 005.078-5.066 5.072 5.072 0 00-5.078-5.064zm115 0c-2.804 0-5.078 2.268-5.078 5.064a5.072 5.072 0 005.078 5.066 5.072 5.072 0 005.078-5.066 5.072 5.072 0 00-5.078-5.064zm17.162 0c-2.804 0-5.078 2.268-5.078 5.064a5.072 5.072 0 005.078 5.066 5.072 5.072 0 005.078-5.066c0-2.796-2.274-5.064-5.078-5.064zm58-102.205c.924 0 1.82.207 2.635.598a.5.5 0 11-.434.901 5.066 5.066 0 00-2.201-.5 5.071 5.071 0 00-5.078 5.065c0 2.797 2.273 5.065 5.078 5.065s5.078-2.268 5.078-5.065a5.032 5.032 0 00-.896-2.874.5.5 0 01.822-.57 6.03 6.03 0 011.074 3.443c0 3.35-2.721 6.065-6.078 6.065-3.355 0-6.078-2.715-6.078-6.065 0-3.348 2.722-6.063 6.078-6.063zm-115 0c.924 0 1.819.207 2.634.598a.5.5 0 11-.433.901 5.069 5.069 0 00-2.201-.5 5.071 5.071 0 00-5.078 5.065c0 2.797 2.273 5.065 5.078 5.065s5.078-2.268 5.078-5.065a5.032 5.032 0 00-.896-2.874.5.5 0 01.822-.57 6.023 6.023 0 011.074 3.443c0 3.35-2.721 6.065-6.078 6.065s-6.078-2.715-6.078-6.065c0-3.348 2.722-6.063 6.078-6.063zm115-13.699c3.357 0 6.078 2.715 6.078 6.065 0 3.35-2.721 6.065-6.078 6.065-3.355 0-6.078-2.715-6.078-6.065 0-3.35 2.722-6.065 6.078-6.065zm-115 0c3.356 0 6.078 2.715 6.078 6.065 0 3.35-2.721 6.065-6.078 6.065s-6.078-2.715-6.078-6.065c0-3.35 2.722-6.065 6.078-6.065zm0 1a5.071 5.071 0 00-5.078 5.065c0 2.797 2.273 5.065 5.078 5.065s5.078-2.268 5.078-5.065a5.071 5.071 0 00-5.078-5.065zm115 0a5.071 5.071 0 00-5.078 5.065c0 2.797 2.273 5.065 5.078 5.065s5.078-2.268 5.078-5.065a5.072 5.072 0 00-5.078-5.065zm17.162-14.698c3.357 0 6.078 2.715 6.078 6.065s-2.721 6.065-6.078 6.065c-3.355 0-6.077-2.715-6.077-6.065s2.721-6.065 6.077-6.065zm-34.324 0c3.356 0 6.078 2.715 6.078 6.065s-2.722 6.065-6.078 6.065-6.078-2.715-6.078-6.065 2.721-6.065 6.078-6.065zm17.162 0c.924 0 1.82.206 2.635.598a.5.5 0 11-.434.901 5.065 5.065 0 00-2.201-.499c-2.805 0-5.078 2.268-5.078 5.065s2.273 5.065 5.078 5.065 5.078-2.268 5.078-5.065a5.037 5.037 0 00-.896-2.875.5.5 0 01.822-.57 6.036 6.036 0 011.074 3.444c0 3.35-2.721 6.065-6.078 6.065-3.355 0-6.078-2.715-6.078-6.065s2.722-6.064 6.078-6.064zm-132.162 0c3.356 0 6.078 2.715 6.078 6.065s-2.721 6.065-6.078 6.065-6.078-2.715-6.078-6.065 2.721-6.065 6.078-6.065zm17.162 0a6.06 6.06 0 012.634.598.5.5 0 11-.433.901 5.068 5.068 0 00-2.201-.499c-2.805 0-5.078 2.268-5.078 5.065s2.273 5.065 5.078 5.065 5.078-2.268 5.078-5.065a5.037 5.037 0 00-.896-2.875.5.5 0 01.822-.57 6.028 6.028 0 011.074 3.444c0 3.35-2.721 6.065-6.078 6.065s-6.078-2.715-6.078-6.065 2.722-6.064 6.078-6.064zm17.162 0c3.356 0 6.078 2.715 6.078 6.065s-2.721 6.065-6.078 6.065-6.078-2.715-6.078-6.065 2.722-6.065 6.078-6.065zm0 1c-2.805 0-5.078 2.268-5.078 5.065s2.273 5.065 5.078 5.065 5.078-2.268 5.078-5.065-2.273-5.065-5.078-5.065zm-34.324 0c-2.804 0-5.078 2.268-5.078 5.065s2.273 5.065 5.078 5.065 5.078-2.268 5.078-5.065-2.274-5.065-5.078-5.065zm149.324 0c-2.805 0-5.077 2.268-5.077 5.065s2.272 5.065 5.077 5.065 5.078-2.268 5.078-5.065-2.274-5.065-5.078-5.065zm-34.324 0c-2.805 0-5.078 2.268-5.078 5.065s2.273 5.065 5.078 5.065 5.078-2.268 5.078-5.065-2.274-5.065-5.078-5.065zm-115-14.699a6.06 6.06 0 012.634.598.5.5 0 11-.433.901 5.065 5.065 0 00-2.201-.499 5.072 5.072 0 00-5.078 5.065 5.071 5.071 0 005.078 5.065 5.071 5.071 0 005.078-5.065 5.03 5.03 0 00-.896-2.875.5.5 0 01.822-.57 6.036 6.036 0 011.074 3.444c0 3.35-2.721 6.065-6.078 6.065s-6.078-2.715-6.078-6.065c0-3.349 2.721-6.064 6.078-6.064zm34.324 0c3.356 0 6.078 2.715 6.078 6.065 0 3.35-2.721 6.065-6.078 6.065s-6.078-2.715-6.078-6.065a6.072 6.072 0 016.078-6.065zm80.676 0c.924 0 1.819.206 2.635.598a.5.5 0 11-.434.901 5.065 5.065 0 00-2.201-.499 5.071 5.071 0 00-5.078 5.065c0 2.797 2.273 5.065 5.078 5.065s5.078-2.268 5.078-5.065a5.037 5.037 0 00-.896-2.875.5.5 0 01.822-.57 6.036 6.036 0 011.074 3.444c0 3.35-2.722 6.065-6.078 6.065s-6.078-2.715-6.078-6.065c-.001-3.349 2.721-6.064 6.078-6.064zm34.324 0c3.357 0 6.078 2.715 6.078 6.065 0 3.35-2.721 6.065-6.078 6.065-3.355 0-6.077-2.715-6.077-6.065 0-3.35 2.721-6.065 6.077-6.065zm-17.162 0c3.357 0 6.078 2.715 6.078 6.065 0 3.35-2.721 6.065-6.078 6.065-3.355 0-6.078-2.715-6.078-6.065 0-.975.232-1.917.668-2.766a6.08 6.08 0 015.41-3.299zm-115 0c3.356 0 6.078 2.715 6.078 6.065 0 3.35-2.721 6.065-6.078 6.065s-6.078-2.715-6.078-6.065c0-.975.231-1.917.668-2.766a6.078 6.078 0 015.41-3.299zm0 1a5.079 5.079 0 00-4.521 2.756 5.034 5.034 0 00-.557 2.309c0 2.797 2.273 5.065 5.078 5.065s5.078-2.268 5.078-5.065a5.071 5.071 0 00-5.078-5.065zm115 0a5.08 5.08 0 00-4.521 2.756 5.034 5.034 0 00-.558 2.309c0 2.797 2.273 5.065 5.078 5.065s5.078-2.268 5.078-5.065c.001-2.797-2.273-5.065-5.077-5.065zm17.162 0a5.07 5.07 0 00-5.077 5.065c0 2.797 2.272 5.065 5.077 5.065s5.078-2.268 5.078-5.065a5.072 5.072 0 00-5.078-5.065zm-115 0a5.071 5.071 0 00-5.078 5.065c0 2.797 2.273 5.065 5.078 5.065s5.078-2.268 5.078-5.065a5.071 5.071 0 00-5.078-5.065zm80.676-14.699c3.356 0 6.078 2.715 6.078 6.065 0 3.35-2.722 6.065-6.078 6.065s-6.078-2.715-6.078-6.065c-.001-3.349 2.721-6.065 6.078-6.065zm-97.838 0c3.356 0 6.078 2.715 6.078 6.065 0 3.35-2.721 6.065-6.078 6.065s-6.078-2.715-6.078-6.065c0-3.349 2.722-6.065 6.078-6.065zm-17.162 0c3.356 0 6.078 2.715 6.078 6.065 0 3.35-2.721 6.065-6.078 6.065s-6.078-2.715-6.078-6.065c0-3.349 2.721-6.065 6.078-6.065zm132.162 0c3.357 0 6.078 2.715 6.078 6.065 0 3.35-2.721 6.065-6.078 6.065-3.355 0-6.078-2.715-6.078-6.065 0-3.349 2.722-6.065 6.078-6.065zm-97.838 0a6.06 6.06 0 012.634.598.5.5 0 11-.433.901 5.068 5.068 0 00-2.201-.499 5.071 5.071 0 00-5.078 5.065c0 2.797 2.273 5.065 5.078 5.065s5.078-2.268 5.078-5.065a5.03 5.03 0 00-.896-2.875.5.5 0 11.822-.569 6.036 6.036 0 011.074 3.444c0 3.35-2.721 6.065-6.078 6.065s-6.078-2.715-6.078-6.065c.001-3.349 2.722-6.065 6.078-6.065zm115 0c.924 0 1.82.206 2.635.598a.5.5 0 11-.434.901 5.065 5.065 0 00-2.201-.499 5.07 5.07 0 00-5.077 5.065c0 2.797 2.272 5.065 5.077 5.065s5.078-2.268 5.078-5.065a5.03 5.03 0 00-.896-2.875.5.5 0 01.822-.569 6.036 6.036 0 011.074 3.444c0 3.35-2.721 6.065-6.078 6.065-3.355 0-6.077-2.715-6.077-6.065 0-3.349 2.721-6.065 6.077-6.065zm-34.324 1a5.071 5.071 0 00-5.078 5.065c0 2.797 2.273 5.065 5.078 5.065s5.078-2.268 5.078-5.065a5.072 5.072 0 00-5.078-5.065zm17.162 0a5.071 5.071 0 00-5.078 5.065c0 2.797 2.273 5.065 5.078 5.065s5.078-2.268 5.078-5.065a5.072 5.072 0 00-5.078-5.065zm-115 0a5.071 5.071 0 00-5.078 5.065c0 2.797 2.273 5.065 5.078 5.065s5.078-2.268 5.078-5.065a5.071 5.071 0 00-5.078-5.065zm-17.162 0a5.072 5.072 0 00-5.078 5.065 5.071 5.071 0 005.078 5.065 5.071 5.071 0 005.078-5.065 5.073 5.073 0 00-5.078-5.065zm148.031-33.96a.423.423 0 11.003.843.423.423 0 01-.003-.843z"/>
  </g>
</svg>
