<svg width="110" height="111" viewBox="0 0 110 111" fill="none" xmlns="http://www.w3.org/2000/svg">
<g id="Group 176">
<path id="Rectangle 12 (Stroke)" fill-rule="evenodd" clip-rule="evenodd" d="M0 0.308594H110V110.309H0V0.308594ZM4.23077 4.53936V106.078H105.769V4.53936H4.23077Z" fill="#60B0B2"/>
<path id="Ellipse 2 (Stroke)" fill-rule="evenodd" clip-rule="evenodd" d="M55 65.887C42.1488 65.887 31.7308 76.305 31.7308 89.1562H27.5C27.5 73.9684 39.8122 61.6562 55 61.6562C70.1878 61.6562 82.5 73.9684 82.5 89.1562H78.2692C78.2692 76.305 67.8512 65.887 55 65.887Z" fill="#004A47"/>
<path id="Ellipse 1 (Stroke)" fill-rule="evenodd" clip-rule="evenodd" d="M55.0002 27.8089C47.9905 27.8089 42.3079 33.4914 42.3079 40.5012C42.3079 47.511 47.9905 53.1935 55.0002 53.1935C62.01 53.1935 67.6925 47.511 67.6925 40.5012C67.6925 33.4914 62.01 27.8089 55.0002 27.8089ZM38.0771 40.5012C38.0771 31.1548 45.6539 23.5781 55.0002 23.5781C64.3466 23.5781 71.9233 31.1548 71.9233 40.5012C71.9233 49.8476 64.3466 57.4243 55.0002 57.4243C45.6539 57.4243 38.0771 49.8476 38.0771 40.5012Z" fill="#004A47"/>
</g>
</svg>
