<?xml version="1.0" encoding="UTF-8"?>
<svg width="86px" height="42px" viewBox="0 0 86 42" version="1.1" xmlns="http://www.w3.org/2000/svg" xmlns:xlink="http://www.w3.org/1999/xlink">
    <title>Illustrations/Easyswitch/Card/Dark</title>
    <g id="🟢-All-Journeys" stroke="none" stroke-width="1" fill="none" fill-rule="evenodd">
        <g id="Internet-and-DTV-Easy-Switch---10.00" transform="translate(-766.000000, -350.000000)" fill="#FFFFFF" fill-rule="nonzero">
            <g id="easyswitch/card/default" transform="translate(730.000000, 315.000000)">
                <g id="EASYSWITCH" transform="translate(36.000000, 35.000000)">
                    <path d="M18.3793103,19 L25.7980296,19 C27.1576355,19 28,18.1162791 28,16.9085271 C28,15.7007752 27.1576355,14.8317829 25.7980296,14.8317829 L20.8029557,14.8317829 L20.8029557,11.3116279 L24.8669951,11.3116279 C26.226601,11.3116279 27.0689655,10.4131783 27.0689655,9.20542485 C27.0689655,8.0124031 26.226601,7.12868217 24.8669951,7.12868217 L20.8029557,7.12868217 L20.8029557,4.16821705 L25.2955665,4.16821705 C26.6403941,4.16821705 27.4975369,3.28449612 27.4975369,2.0620155 C27.4975369,0.868992248 26.6551724,0 25.2955665,0 L18.3793103,0 C17.0197044,0 16,0.868992248 16,2.0620155 L16,16.9085271 C16,18.1162791 17.0197044,19 18.3793103,19 Z M31.3296703,19 C32.4432234,19 33.2637363,18.4550388 33.6886447,17.1883721 C33.8791209,16.6286822 34.0695971,15.9511628 34.2893773,15.2 L39.7106227,15.2 L40.021978,16.2659884 C40.1208791,16.5992248 40.2161172,16.9085271 40.3113553,17.1883721 C40.7362637,18.4550388 41.5567766,19 42.6703297,19 C43.9450549,19 45,17.9395349 45,16.6139535 C45,16.3825028 44.9700979,16.1961399 44.9049541,15.958248 L44.70155,15.2884062 C44.0812983,13.3254683 41.1074481,4.41124031 39.5494505,1.25193798 C39.1245421,0.397674419 38.2600733,0 37.029304,0 C35.7985348,0 34.8754579,0.382945736 34.4505495,1.25193798 C32.6043956,5.00775194 29.5714286,14.4341085 29.1904762,15.6418605 L29.0950459,15.958248 C29.0299021,16.1961399 29,16.3825028 29,16.6139535 C29,17.9395349 30.0549451,19 31.3296703,19 Z M35,11 C35.4692737,9.6969697 35.9888268,8.28787879 36.5083799,7 C37.027933,8.31818182 37.5307263,9.6969697 38,11 L35,11 Z M51.2167431,19 C55.1972477,19 58,16.6105183 58,13.1783537 C58,6.95121951 50.3222477,7.5304878 50.3222477,5.32926829 C50.3222477,4.63414634 50.9334862,4.09832317 51.7534404,4.09832317 C52.3944954,4.09832317 52.9461009,4.38795732 53.7362385,4.96722561 C54.1983945,5.30030488 54.809633,5.48856707 55.3463303,5.48856707 C56.5688073,5.48856707 57.5527523,4.53277439 57.5527523,3.33079268 C57.5527523,2.63567073 57.2247706,2.04192073 56.5986239,1.56402439 C55.2419725,0.535823171 53.4678899,0 51.7534404,0 C48.190367,0 45.4025229,2.30259146 45.4025229,5.32926829 C45.4025229,11.2957317 53.0802752,10.933689 53.0802752,13.1783537 C53.0802752,14.2644817 52.3944954,14.9016768 51.2167431,14.9016768 C50.4598624,14.9016768 49.8951129,14.5491458 49.314763,14.1336058 L48.9954128,13.902439 C48.5630734,13.5838415 47.9518349,13.2073171 47.2511468,13.2073171 C45.9541284,13.2073171 45,14.2644817 45,15.3940549 C45,16.0167683 45.3876147,16.6684451 45.9988532,17.1463415 C47.5194954,18.3338415 49.293578,19 51.2167431,19 Z M65.0073762,19 C66.3498419,19 67.3972603,18.0868217 67.3972603,16.8790698 L67.3972603,11.6651163 C67.5152792,11.5325581 67.6185458,11.4147287 67.6923077,11.2968992 C69.1970495,8.95503876 70.8788198,5.43488372 71.5869336,3.8 L71.6985579,3.52183197 C71.8393631,3.15412001 72,2.65770887 72,2.26821705 C72,1.0751938 71.085353,0 69.6986301,0 C68.5945316,0 67.9008841,0.766707466 67.5173397,1.61133801 L66.936847,2.97680367 C66.4060439,4.20557388 65.9315688,5.21395349 65.0516333,6.9372093 L64.6745202,6.19869291 C63.7436527,4.34776558 62.7762276,2.23404651 62.4257113,1.44341085 C62.0126449,0.530232558 61.3487882,0 60.1981033,0 C58.9736565,0 58,1.0751938 58,2.26821705 C58,2.79309373 58.2574959,3.44261644 58.5114451,4.00148749 L59.3825985,5.87781963 C60.0318383,7.26057554 61.0846076,9.39950298 62.1737362,11.0202982 L62.3224447,11.2379845 C62.4404636,11.4147287 62.5289779,11.5325581 62.6174921,11.6356589 L62.6174921,16.8790698 C62.6174921,18.0868217 63.6649104,19 65.0073762,19 Z M6.21674312,42 C10.1972477,42 13,39.6105183 13,36.1783537 C13,29.9512195 5.32224771,30.5304878 5.32224771,28.3292683 C5.32224771,27.6341463 5.93348624,27.0983232 6.75344037,27.0983232 C7.39449541,27.0983232 7.94610092,27.3879573 8.73623853,27.9672256 C9.1983945,28.3003049 9.80963303,28.4885671 10.3463303,28.4885671 C11.5688073,28.4885671 12.5527523,27.5327744 12.5527523,26.3307927 C12.5527523,25.6356707 12.2247706,25.0419207 11.5986239,24.5640244 C10.2419725,23.5358232 8.46788991,23 6.75344037,23 C3.19036697,23 0.402522936,25.3025915 0.402522936,28.3292683 C0.402522936,34.2957317 8.08027523,33.933689 8.08027523,36.1783537 C8.08027523,37.2644817 7.39449541,37.9016768 6.21674312,37.9016768 C5.45986239,37.9016768 4.89511291,37.5491458 4.31476304,37.1336058 L3.99541284,36.902439 C3.56307339,36.5838415 2.95183486,36.2073171 2.25114679,36.2073171 C0.95412844,36.2073171 0,37.2644817 0,38.3940549 C0,39.0167683 0.387614679,39.6684451 0.998853211,40.1463415 C2.51949541,41.3338415 4.29357798,42 6.21674312,42 Z M19.4767049,42 C20.3531398,42 20.9621877,41.7790698 21.4672519,41.2930233 C22.1208643,40.6744186 22.8933153,38.155814 23.9925726,34.0612403 L24.2779705,35.1090074 C25.241676,38.5925907 26.0045279,40.7692886 26.5327481,41.2930233 C26.9932478,41.7496124 27.5725861,42 28.5084402,42 C29.8156651,42 30.7218096,41.4697674 31.1525996,40.7333333 C31.951975,39.3746124 33.6183979,32.0303379 34.3559058,28.5403157 L34.7277539,26.7276134 C34.8995814,25.9120241 35,25.558863 35,25.1503876 C35,23.927907 33.9750169,23 32.5489534,23 C31.286293,23 30.3950034,23.603876 30.1573261,24.6643411 L29.3963803,28.4588562 C29.1190801,29.8089797 28.7903011,31.3609819 28.4490209,32.8534884 L27.7438497,30.0058716 C27.3251319,28.2982677 26.9274621,26.6358804 26.6218771,25.2534884 C26.3396354,24.0015504 25.2849426,23.4271318 23.9925726,23.4271318 C22.7299122,23.4271318 21.6900743,24.0015504 21.3929777,25.2387597 L21.156773,26.2246367 C20.6708512,28.2695618 20.1069741,30.7241417 19.5212694,33.0596899 L19.2620073,31.865272 C19.0931975,31.0779848 18.9335147,30.3152199 18.7893414,29.6162129 L18.1100608,26.2403101 C18.0506415,25.9457364 17.8872384,25.0472868 17.8129642,24.7821705 C17.486158,23.5007752 16.6394328,23 15.4064821,23 C14.0695476,23 13,23.8248062 13,24.9294574 C13,25.3043693 13.0721871,25.7329618 13.1821084,26.2645775 L14.0489782,30.3818964 C14.8157448,33.9602619 16.0477155,39.3457687 16.8474004,40.7333333 C17.3079001,41.5286822 18.3031735,42 19.4767049,42 Z M38.5,42 C39.904321,42 41,41.0868217 41,39.8790698 L41,25.0914729 C41,23.8984496 39.9197531,23 38.5,23 C37.0802469,23 36,23.8984496 36,25.0914729 L36,39.8790698 C36,41.0868217 37.095679,42 38.5,42 Z M48.4547284,42 C49.8279678,42 50.9144869,41.0868217 50.9144869,39.8790698 L50.9144869,27.1682171 L53.5855131,27.1682171 C54.9587525,27.1682171 56,26.2844961 56,25.0620155 C56,23.8689922 54.9587525,23 53.5855131,23 L43.4144869,23 C42.0412475,23 41,23.8689922 41,25.0620155 C41,26.2844961 42.0412475,27.1682171 43.4144869,27.1682171 L46.0100604,27.1682171 L46.0100604,39.8790698 C46.0100604,41.0868217 47.0814889,42 48.4547284,42 Z M63.9473684,42 C65.8270677,42 67.8571429,41.4641768 69.556391,40.6097561 C70.3383459,40.21875 70.8195489,39.4801829 70.8195489,38.6547256 C70.8195489,37.4672256 69.8421053,36.5259146 68.6090226,36.5259146 C67.9473684,36.5259146 67.3609023,36.8300305 67.0902256,37.003811 C65.9022556,37.6265244 64.9398496,37.9016768 63.9473684,37.9016768 C61.7067669,37.9016768 59.962406,35.5990854 59.962406,32.5144817 C59.962406,29.4443598 61.8270677,27.0983232 64.1879699,27.0983232 C65.6182122,27.0983232 66.4306136,27.4530356 66.9103314,27.7454509 L67.075188,27.851372 C67.5263158,28.1554878 68.0827068,28.4306394 68.7894737,28.4306394 C70.0676692,28.4306394 71,27.4169207 71,26.2873476 C71,25.6356707 70.6842105,25.0998476 70.0375915,24.5929878 L69.9031804,24.4944779 C69.1825898,23.9965989 67.1634085,23 64.1879699,23 C58.9699248,23 55,27.1128049 55,32.5144817 C55,37.9306402 58.8195489,42 63.9473684,42 Z M74.3723849,42 C73.039749,42 72,41.0868217 72,39.8790698 L72,25.0914729 C72,23.8984496 73.039749,23 74.3723849,23 C75.7196653,23 76.7594142,23.8984496 76.7594142,25.0914729 L76.7594142,29.9813953 L81.2405858,29.9813953 L81.2405858,25.0914729 C81.2405858,23.8984496 82.2803347,23 83.6276151,23 C84.960251,23 86,23.8984496 86,25.0914729 L86,39.8790698 C86,41.0868217 84.960251,42 83.6276151,42 C82.2949791,42 81.2405858,41.0868217 81.2405858,39.8790698 L81.2405858,34.1643411 L76.7594142,34.1643411 L76.7594142,39.8790698 C76.7594142,41.0868217 75.7050209,42 74.3723849,42 Z"></path>
                </g>
            </g>
        </g>
    </g>
</svg>