<svg width="24" height="24" viewBox="0 0 24 24" fill="none" xmlns="http://www.w3.org/2000/svg">
<path fill-rule="evenodd" clip-rule="evenodd" d="M15.032 5.30142C13.9304 4.96725 12.7634 4.90992 11.6344 5.1345C10.5053 5.35908 9.44911 5.85864 8.55925 6.58893C7.66939 7.31921 6.97337 8.25769 6.53285 9.32122C6.44067 9.54375 6.36027 9.77033 6.2918 10H13C13.5523 10 14 10.4477 14 11C14 11.5523 13.5523 12 13 12H6C6 12.2286 6.0112 12.4575 6.03371 12.6861C6.04405 12.7912 6.05676 12.8958 6.0718 13H10C10.5523 13 11 13.4477 11 14C11 14.5523 10.5523 15 10 15H6.67545C6.82119 15.3073 6.98958 15.6044 7.17972 15.889C7.81926 16.8461 8.685 17.6308 9.70022 18.1734C10.7155 18.7161 11.8488 19 13 19C13.5523 19 14 19.4477 14 20C14 20.5523 13.5523 21 13 21C11.5199 21 10.0627 20.635 8.75743 19.9373C7.45214 19.2396 6.33905 18.2308 5.51678 17.0001C5.0993 16.3753 4.76332 15.7032 4.51472 15H3C2.44772 15 2 14.5523 2 14C2 13.4477 2.44772 13 3 13H4.05573C4.05134 12.9608 4.04721 12.9215 4.04334 12.8822C4.01439 12.5883 4 12.2939 4 12H3C2.44772 12 2 11.5523 2 11C2 10.4477 2.44772 10 3 10H4.22504C4.33713 9.5082 4.49074 9.02504 4.68509 8.55585C5.25148 7.18845 6.14636 5.98185 7.29046 5.04291C8.43456 4.10397 9.79257 3.46168 11.2442 3.17293C12.6958 2.88419 14.1962 2.9579 15.6126 3.38754C17.0289 3.81718 18.3174 4.58948 19.364 5.63604C19.7545 6.02656 19.7545 6.65973 19.364 7.05025C18.9734 7.44078 18.3403 7.44078 17.9497 7.05025C17.1358 6.23626 16.1336 5.63558 15.032 5.30142Z" fill="#291D18"/>
<path fill-rule="evenodd" clip-rule="evenodd" d="M18 10C18.5523 10 19 10.4477 19 11V18.5858L20.2929 17.2929C20.6834 16.9024 21.3166 16.9024 21.7071 17.2929C22.0976 17.6834 22.0976 18.3166 21.7071 18.7071L18.7071 21.7071C18.3166 22.0976 17.6834 22.0976 17.2929 21.7071L14.2929 18.7071C13.9024 18.3166 13.9024 17.6834 14.2929 17.2929C14.6834 16.9024 15.3166 16.9024 15.7071 17.2929L17 18.5858V11C17 10.4477 17.4477 10 18 10Z" fill="#291D18"/>
</svg>
