<?xml version="1.0" encoding="UTF-8"?>
<svg width="398px" height="366px" viewBox="0 0 398 366" version="1.1" xmlns="http://www.w3.org/2000/svg" xmlns:xlink="http://www.w3.org/1999/xlink">
    <title>Illustrations/Flow/AddingMobileNumberssM/Small house/Inactive</title>
    <g id="Checkout-concept-BB" stroke="none" stroke-width="1" fill="none" fill-rule="evenodd">
        <g id="04.01-Connect-5---Personlijke-data-Copy" transform="translate(-198.000000, -250.000000)">
            <g id="Group" transform="translate(198.000000, 250.000000)">
                <path d="M302.250126,167.338705 L310.767,176.999 L330,177 C330.512836,177 330.935507,177.38604 330.993272,177.883379 L331,178 L331,199.642578 C331,199.734626 330.987563,199.823768 330.964279,199.908418 L335.750126,205.338705 L335.767586,205.359016 C335.777415,205.370774 335.78698,205.382762 335.79627,205.39497 L335.750126,205.338705 C335.78148,205.37427 335.809716,205.410957 335.834939,205.448534 C335.841172,205.458861 335.847948,205.469519 335.854525,205.48031 C335.960058,205.649473 336.005748,205.83485 336.001705,206.01622 L336,209.5 C336,210.052285 335.552285,210.5 335,210.5 L334.29777,210.5 L334.29777,213 C334.29777,213.552285 333.850055,214 333.29777,214 L331,214 L331,363.5 L397,363.5 C397.512836,363.5 397.935507,363.88604 397.993272,364.383379 L398,364.5 C398,365.052285 397.552285,365.5 397,365.5 L397,365.5 L1,365.5 C0.44771525,365.5 0,365.052285 0,364.5 C0,363.947715 0.44771525,363.5 1,363.5 L1,363.5 L175.25,363.5 L175.25,336 C175.25,335.146088 175.639197,334.383078 176.249879,333.878681 L176.250595,250.248155 C173.626739,249.252318 171.68412,246.872639 171.313965,244.000344 L169.5,244 C168.947715,244 168.5,243.552285 168.5,243 C168.5,242.447715 168.947715,242 169.5,242 L169.5,242 L188.378906,242 C188.931191,242 189.378906,242.447715 189.378906,243 C189.378906,243.552285 188.931191,244 188.378906,244 L188.378906,244 L186.686035,244.000344 C186.315927,246.872276 184.373753,249.251716 181.7504,250.247778 L181.75111,333.879498 C182.361223,334.383902 182.75,335.146549 182.75,336 L182.75,363.5 L198.999,363.5 L199,359.280762 C199,358.728477 199.447715,358.280762 200,358.280762 C200.512836,358.280762 200.935507,358.666802 200.993272,359.164141 L201,359.280762 L201,363 L208.25,362.999 L208.25,318 C208.25,317.585786 208.585786,317.25 209,317.25 L264,317.25 C264.414214,317.25 264.75,317.585786 264.75,318 L264.75,362.999 L274.5,362.999 L274.5,309 L200.999,309 L201,348.733657 L201,348.733657 C201,349.285942 200.552285,349.733657 200,349.733657 C199.487164,349.733657 199.064493,349.347617 199.006728,348.850278 L199,348.733657 L198.999,309 L194.36,309 C193.807715,309 193.36,308.552285 193.36,308 L193.36,305.5 L191,305.5 C190.447715,305.5 190,305.052285 190,304.5 L190,301 C190,300.447715 190.447715,300 191,300 L198.999,300 L198.999,237 L194.36,237 C193.807715,237 193.36,236.552285 193.36,236 L193.36,233.5 L191,233.5 C190.447715,233.5 190,233.052285 190,232.5 L190,229 C190,228.447715 190.447715,228 191,228 L198.999,228 L199,216.901405 C199,216.731482 199.043284,216.565089 199.124835,216.417578 L199.193094,216.310724 L203.932737,209.83608 C204.258961,209.390439 204.884681,209.293631 205.330323,209.619855 C205.741685,209.920984 205.855815,210.477307 205.614355,210.911622 L205.546548,211.017441 L201.532,216.5 L276,216.5 C276.512836,216.5 276.935507,216.88604 276.993272,217.383379 L277,217.5 C277,218.052285 276.552285,218.5 276,218.5 L276,218.5 L200.999,218.5 L200.999,228 L274.5,228 L274.5,221.076172 C274.5,220.563336 274.88604,220.140665 275.383379,220.0829 L275.5,220.076172 C276.052285,220.076172 276.5,220.523887 276.5,221.076172 L276.5,221.076172 L276.5,362.999 L282.74,362.999 L282.74,311.451613 C282.74,300.679052 291.402306,291.926006 302.156092,291.742925 L302.5,291.74 C313.412409,291.74 322.26,300.56445 322.26,311.451613 L322.26,311.451613 L322.26,362.999 L329,363 L329,214 L288,214 C287.447715,214 287,213.552285 287,213 C287,212.447715 287.447715,212 288,212 L329.60975,211.998933 C329.729656,211.948061 329.861542,211.919922 330,211.919922 C330.138458,211.919922 330.270344,211.948061 330.39025,211.998933 L332.29777,212 L332.29777,209.5 C332.29777,208.947715 332.745485,208.5 333.29777,208.5 L334,208.5 L334,207 L269,207 L269,208.5 L269.7,208.5 C270.252285,208.5 270.7,208.947715 270.7,209.5 L270.7,209.5 L270.7,212 L284.107251,212 C284.659536,212 285.107251,212.447715 285.107251,213 C285.107251,213.552285 284.659536,214 284.107251,214 L284.107251,214 L269.7,214 C269.147715,214 268.7,213.552285 268.7,213 L268.7,213 L268.7,210.5 L268,210.5 C267.447715,210.5 267,210.052285 267,209.5 L267,209.5 L266.999128,206.040365 C266.990309,205.851352 267.035296,205.656985 267.14453,205.480382 C267.152052,205.469519 267.158828,205.458861 267.165798,205.448343 C267.177086,205.430619 267.189796,205.412907 267.203202,205.395422 C267.21302,205.382762 267.222585,205.370774 267.232414,205.359016 C267.237901,205.352459 267.24383,205.345561 267.249874,205.338705 L290.469,178.999 L229.520258,179 L213.820644,200.44664 C213.49442,200.892281 212.8687,200.989089 212.423058,200.662865 C212.011696,200.361735 211.897567,199.805413 212.139026,199.371098 L212.206833,199.265279 L228.206081,177.40932 C228.370873,177.184204 228.620953,177.039655 228.894497,177.007036 L229.012987,177 L292.166016,177 L292.229,177.003 L300.749874,167.338705 C301.148001,166.887098 301.851999,166.887098 302.250126,167.338705 Z M180,334.75 L178,334.75 C177.309644,334.75 176.75,335.309644 176.75,336 L176.75,363.25 L181.25,363.25 L181.25,336 C181.25,335.309644 180.690356,334.75 180,334.75 Z M263.25,318.75 L209.75,318.75 L209.75,362.999 L263.25,362.999 L263.25,318.75 Z M319.74,359.25 L285.26,359.25 L285.26,362.74 L319.74,362.74 L319.74,359.25 Z M241,356.25 C241.414214,356.25 241.75,356.585786 241.75,357 C241.75,357.414214 241.414214,357.75 241,357.75 L241,357.75 L233,357.75 C232.585786,357.75 232.25,357.414214 232.25,357 C232.25,356.585786 232.585786,356.25 233,356.25 L233,356.25 Z M319.74,352.25 L285.26,352.25 L285.26,357.75 L319.74,357.75 L319.74,352.25 Z M319.74,345.25 L285.26,345.25 L285.26,350.75 L319.74,350.75 L319.74,345.25 Z M292.096,311.25 L285.262,311.25 L285.26,311.451613 L285.26,343.75 L292.096,343.75 L292.096,311.25 Z M319.738846,311.250652 L313.903,311.25 L313.903,343.75 L319.74,343.75 L319.74,311.451613 C319.74,311.384536 319.739615,311.317548 319.738846,311.250652 Z M312.403,311.25 L293.596,311.25 L293.596,343.75 L312.403,343.75 L312.403,311.25 Z M180.25,250.75 L177.75,250.75 L177.75,333.25 L180.25,333.25 L180.25,250.75 Z M303.5,325.16 C304.240062,325.16 304.84,325.759938 304.84,326.5 C304.84,327.240062 304.240062,327.84 303.5,327.84 C302.759938,327.84 302.16,327.240062 302.16,326.5 C302.16,325.759938 302.759938,325.16 303.5,325.16 Z M303.5,326.16 C303.312223,326.16 303.16,326.312223 303.16,326.5 C303.16,326.687777 303.312223,326.84 303.5,326.84 C303.687777,326.84 303.84,326.687777 303.84,326.5 C303.84,326.312223 303.687777,326.16 303.5,326.16 Z M302.5,294.26 C293.553599,294.26 286.199871,301.054993 285.343334,309.750553 L319.656666,309.750553 C318.800129,301.054993 311.446401,294.26 302.5,294.26 Z M274,302 L192,302 L192,303.5 L194.36,303.5 C194.912285,303.5 195.36,303.947715 195.36,304.5 L195.36,307 L274,307 L274,302 Z M274.5,237 L200.999,237 L200.999,300 L274.5,300 L274.5,237 Z M233,242.25 C233.414214,242.25 233.75,242.585786 233.75,243 L233.75,293 C233.75,293.414214 233.414214,293.75 233,293.75 L209,293.75 C208.585786,293.75 208.25,293.414214 208.25,293 L208.25,243 C208.25,242.585786 208.585786,242.25 209,242.25 L233,242.25 Z M266,242.25 C266.414214,242.25 266.75,242.585786 266.75,243 L266.75,293 C266.75,293.414214 266.414214,293.75 266,293.75 L242,293.75 C241.585786,293.75 241.25,293.414214 241.25,293 L241.25,243 C241.25,242.585786 241.585786,242.25 242,242.25 L266,242.25 Z M232.25,243.75 L209.75,243.75 L209.75,258.75 L228.173991,258.75 C228.553687,258.75 228.867482,259.032154 228.917144,259.398229 L228.923991,259.5 C228.923991,259.914214 228.588204,260.25 228.173991,260.25 L228.173991,260.25 L209.75,260.25 L209.75,292.25 L232.25,292.25 L232.25,243.75 Z M265.25,243.75 L242.75,243.75 L242.75,258.75 L260.333333,258.75 C260.713029,258.75 261.026824,259.032154 261.076487,259.398229 L261.083333,259.5 C261.083333,259.914214 260.747547,260.25 260.333333,260.25 L260.333333,260.25 L242.75,260.25 L242.75,292.25 L265.25,292.25 L265.25,243.75 Z M302.5,242.25 C313.131481,242.25 321.75,250.868519 321.75,261.5 C321.75,272.131481 313.131481,280.75 302.5,280.75 C291.868519,280.75 283.25,272.131481 283.25,261.5 C283.25,250.868519 291.868519,242.25 302.5,242.25 Z M302.5,243.75 C292.696946,243.75 284.75,251.696946 284.75,261.5 C284.75,271.303054 292.696946,279.25 302.5,279.25 C312.303054,279.25 320.25,271.303054 320.25,261.5 C320.25,251.696946 312.303054,243.75 302.5,243.75 Z M302.5,245.25 C302.914214,245.25 303.25,245.585786 303.25,246 L303.25,246 L303.25,260.75 L317,260.75 C317.379696,260.75 317.693491,261.032154 317.743153,261.398229 L317.75,261.5 C317.75,261.914214 317.414214,262.25 317,262.25 L317,262.25 L303.25,262.25 L303.25,276 C303.25,276.379696 302.967846,276.693491 302.601771,276.743153 L302.5,276.75 C302.085786,276.75 301.75,276.414214 301.75,276 L301.75,276 L301.75,262.25 L287,262.25 C286.620304,262.25 286.306509,261.967846 286.256847,261.601771 L286.25,261.5 C286.25,261.085786 286.585786,260.75 287,260.75 L287,260.75 L301.75,260.75 L301.75,246 C301.75,245.620304 302.032154,245.306509 302.398229,245.256847 Z M185.170305,244.000779 L172.829695,244.000779 C173.30866,246.976823 175.888866,249.25 179,249.25 C182.111134,249.25 184.69134,246.976823 185.170305,244.000779 Z M274,230 L192,230 L192,231.5 L194.36,231.5 C194.912285,231.5 195.36,231.947715 195.36,232.5 L195.36,235 L274,235 L274,230 Z M301.5,169.512184 L270.215,204.999 L332.785311,205 L309.789812,178.917798 C309.518875,178.800238 309.310187,178.56622 309.226911,178.278904 L301.5,169.512184 Z M302.160354,180.466236 L302.250126,180.556096 L319.146412,199.722032 C319.511635,200.136315 319.471864,200.76823 319.057581,201.133453 C318.675166,201.470582 318.107313,201.462628 317.734956,201.133564 L317.64616,201.044623 L301.5,182.729575 L285.213829,201.203441 C284.848606,201.617724 284.216691,201.657495 283.802408,201.292271 C283.419993,200.955142 283.356689,200.390773 283.636471,199.980097 L283.713578,199.880851 L300.749874,180.556096 C301.119563,180.136747 301.752988,180.106794 302.160354,180.466236 Z M329,179 L312.53,178.999 L329,197.681 L329,179 Z" id="Combined-Shape" fill="#979797" fill-rule="nonzero"></path>
                <circle id="Oval-Copy-31" fill="#239A98" cx="253.5" cy="101.5" r="3.5"></circle>
                <circle id="Oval-Copy-32" fill="#239A98" cx="44" cy="206" r="5"></circle>
                <circle id="Oval-Copy-33" fill="#239A98" cx="316" cy="2" r="2"></circle>
                <circle id="Oval-Copy-34" fill="#239A98" cx="162.5" cy="43.5" r="3.5"></circle>
                <circle id="Oval-Copy-35" fill="#239A98" cx="122.5" cy="149.5" r="3.5"></circle>
                <path d="" id="Path-5-Copy-3" stroke="#979797" stroke-width="1.68"></path>
                <path d="M247.931034,65.4545455 C247.530521,65.4545455 247.132223,65.4732026 246.737045,65.510258 C244.800773,57.6603922 237.750682,52 229.534483,52 C220.698824,52 213.290665,58.5270892 212.006643,67.1574128 C211.718004,67.1433953 211.428376,67.1363636 211.137931,67.1363636 C204.238162,67.1363636 198.070386,71.1365765 195.152641,77.2485338 C194.907314,77.2343782 194.660962,77.2272727 194.413793,77.2272727 C187.729621,77.2272727 182.25271,82.4142562 181.745271,89 L171,89 C170.447715,89 170,89.4477153 170,90 C170,90.5522847 170.447715,91 171,91 L182.706897,91 C183.259181,91 183.706897,90.5522847 183.706897,90 C183.706897,84.0491356 188.501797,79.2272727 194.413793,79.2272727 C194.83153,79.2272727 195.246101,79.251294 195.656218,79.2989282 C196.095724,79.349976 196.51653,79.1061289 196.690779,78.6994237 C199.156957,72.9432537 204.800098,69.1363636 211.137931,69.1363636 C211.689559,69.1363636 212.237528,69.1648992 212.780447,69.2215468 C213.333992,69.279303 213.828182,68.8740076 213.879896,68.3198658 C214.634521,60.233746 221.405605,54 229.534483,54 C237.103402,54 243.56072,59.4203093 244.97467,66.8091821 C245.077013,67.343997 245.588445,67.6986256 246.125193,67.6069586 C246.717498,67.5058034 247.320816,67.4545455 247.931034,67.4545455 C253.843031,67.4545455 258.637931,72.2764084 258.637931,78.2272727 C258.637931,78.7795575 259.085646,79.2272727 259.637931,79.2272727 L268,79.2272727 C268.552285,79.2272727 269,78.7795575 269,78.2272727 C269,77.674988 268.552285,77.2272727 268,77.2272727 L260.599556,77.2272727 C260.092118,70.641529 254.615207,65.4545455 247.931034,65.4545455 Z" id="Path-Copy-17" fill="#979797" fill-rule="nonzero"></path>
                <path d="M115.80916,174.863636 C112.731982,174.863636 109.782958,175.730272 107.242576,177.330195 C103.16228,171.856566 96.8405709,168.448862 89.9097256,168.156792 C89.404086,159.701342 82.3960531,153 73.8244275,153 C65.2499634,153 58.2401277,159.705781 57.7386291,168.165192 C49.6212531,168.648421 43.1219193,175.148506 42.62586,183.272727 L31,183.272727 C30.4477153,183.272727 30,183.720443 30,184.272727 C30,184.825012 30.4477153,185.272727 31,185.272727 L43.5954198,185.272727 C44.1477046,185.272727 44.5954198,184.825012 44.5954198,184.272727 C44.5954198,176.465106 50.9150222,170.136364 58.7099237,170.136364 C59.2622084,170.136364 59.7099237,169.688648 59.7099237,169.136364 C59.7099237,161.328742 66.0295261,155 73.8244275,155 C81.6193289,155 87.9389313,161.328742 87.9389313,169.136364 C87.9389313,169.688648 88.3866465,170.136364 88.9389313,170.136364 C95.9171179,170.136364 102.309469,173.597262 106.166692,179.266112 C106.48327,179.731379 107.121272,179.843895 107.577908,179.51499 C109.958644,177.800199 112.812228,176.863636 115.80916,176.863636 C123.604062,176.863636 129.923664,183.192379 129.923664,191 C129.923664,191.552285 130.371379,192 130.923664,192 L141,192 C141.552285,192 142,191.552285 142,191 C142,190.447715 141.552285,190 141,190 L131.893224,190 C131.377529,181.554188 124.373882,174.863636 115.80916,174.863636 Z" id="Path-Copy-18" fill="#979797" fill-rule="nonzero"></path>
                <path d="M104.446138,303.459593 C105.64708,293.810157 114.549432,286.948214 124.330125,288.132992 C134.110813,289.317818 141.066093,298.100705 139.865199,307.750146 C138.664257,317.399582 129.761905,324.261525 119.981212,323.076747 C117.390233,322.762878 114.99753,321.915806 112.902203,320.660673 C111.36945,325.40149 106.591775,328.548874 101.401925,327.920205 C95.5335123,327.209309 91.3603443,321.939577 92.0808807,316.149912 C92.8014457,310.360251 98.1428571,306.243085 104.011273,306.953952 C104.130511,306.968396 104.249049,306.984723 104.366861,307.002897 C104.273635,305.843942 104.296937,304.658455 104.446138,303.459593 Z" id="Combined-Shape-Copy-2" stroke="#979797" stroke-width="2" fill="#D8D8D8"></path>
                <circle id="Oval-Copy-37" stroke="#979797" stroke-width="2" fill="#D8D8D8" cx="138.5" cy="324.5" r="10.5"></circle>
                <path d="M121.75,312.883333 L121.75,363.381706 C121.75,363.795919 122.085786,364.131706 122.5,364.131706 C122.914214,364.131706 123.25,363.795919 123.25,363.381706 L123.25,312.883333 C123.25,312.46912 122.914214,312.133333 122.5,312.133333 C122.085786,312.133333 121.75,312.46912 121.75,312.883333 Z" id="Line-4-Copy-3" fill="#979797" fill-rule="nonzero"></path>
                <path d="M102.636718,322.603654 C102.417822,322.252004 101.955304,322.144386 101.603654,322.363282 C101.252004,322.582178 101.144386,323.044696 101.363282,323.396346 L108.988693,335.646346 C109.105969,335.834746 109.300659,335.961537 109.520392,335.992611 L121.894981,337.742611 C122.305114,337.800611 122.68461,337.515152 122.742611,337.105019 C122.800611,336.694886 122.515152,336.31539 122.105019,336.257389 L110.077103,334.556415 L102.636718,322.603654 Z" id="Path-3-Copy" fill="#979797" fill-rule="nonzero"></path>
                <path d="M123.53033,344.53033 L137.53033,330.53033 C137.823223,330.237437 137.823223,329.762563 137.53033,329.46967 C137.237437,329.176777 136.762563,329.176777 136.46967,329.46967 L122.46967,343.46967 C122.176777,343.762563 122.176777,344.237437 122.46967,344.53033 C122.762563,344.823223 123.237437,344.823223 123.53033,344.53033 Z" id="Path-6-Copy" fill="#979797" fill-rule="nonzero"></path>
            </g>
        </g>
    </g>
</svg>