<svg xmlns="http://www.w3.org/2000/svg" width="210" height="131" viewBox="0 0 210 131"><g fill="none" fill-rule="evenodd" stroke-width="2" transform="translate(1 1)"><path stroke="#979797" stroke-linecap="round" d="M48.2535724,129 L12,129 C5.372583,129 0,123.627417 0,117 L0,12 C0,5.372583 5.372583,0 12,0 L196,0 C202.627417,0 208,5.372583 208,12 L208,117 C208,123.627417 202.627417,129 196,129 L71.3011817,129 L71.3011817,129"/><path stroke="#239A98" stroke-linecap="round" d="M121.865418,74 L130,74 C133.313708,74 136,76.6862915 136,80 L136,88 C136,91.3137085 133.313708,94 130,94 L63,94 C59.6862915,94 57,91.3137085 57,88 L57,80 C57,76.6862915 59.6862915,74 63,74 L111.88805,74 L111.88805,74"/><rect width="53" height="70" x="142" y="45" stroke="#F2F2F2" opacity=".812" rx="6"/><rect width="33" height="26" x="29" y="32" stroke="#F2F2F2" opacity=".812" rx="4"/><path stroke="#F2F2F2" d="M10.7524454,44.2783017 L20.8190372,34.6230593 C21.2176202,34.2407635 21.8506475,34.253967 22.2329432,34.6525499 C22.411531,34.8387462 22.5112449,35.0867603 22.5112449,35.3447576 L22.5112449,54.6552424 C22.5112449,55.2075271 22.0635296,55.6552424 21.5112449,55.6552424 C21.2532475,55.6552424 21.0052334,55.5555284 20.8190372,55.3769407 L10.7524454,45.7216983 C10.3538624,45.3394026 10.340659,44.7063753 10.7229548,44.3077923 C10.7325789,44.2977581 10.7424112,44.2879258 10.7524454,44.2783017 Z" opacity=".812"/><line x1="1.096" x2="207" y1="21" y2="21" stroke="#979797"/></g></svg>