<svg width="207" height="113" viewBox="0 0 207 113" fill="none" xmlns="http://www.w3.org/2000/svg">
<path fill-rule="evenodd" clip-rule="evenodd" d="M113.612 11.3845C115.196 12.9878 116.357 15.0427 116.902 17.3496H121.25C121.802 17.3496 122.25 17.7973 122.25 18.3496V22.8496C122.25 23.4019 121.802 23.8496 121.25 23.8496H116.773C116.317 25.4813 115.551 26.9751 114.544 28.2569L116.592 31.2116C116.905 31.6625 116.796 32.2809 116.348 32.5977L112.219 35.5192C111.765 35.8404 111.136 35.7296 110.819 35.2726L108.763 32.3056C107.652 32.6593 106.472 32.8496 105.25 32.8496C104.038 32.8496 102.868 32.6625 101.765 32.3144L100.151 35.1391C99.8752 35.6216 99.2589 35.7867 98.7789 35.5067L94.414 32.9606C93.9399 32.684 93.7773 32.0771 94.0496 31.6006L95.9583 28.2604C94.9508 26.9778 94.1831 25.4828 93.7268 23.8496H89.25C88.6977 23.8496 88.25 23.4019 88.25 22.8496V18.3496C88.25 17.7973 88.6977 17.3496 89.25 17.3496H93.5978C94.0647 15.3753 94.982 13.5856 96.2296 12.1055L93.6464 7.58491C93.3741 7.10841 93.5367 6.50151 94.0108 6.22498L98.3757 3.67885C98.8557 3.39882 99.472 3.56394 99.7478 4.04648L102.16 8.26793C103.146 7.99505 104.182 7.84963 105.25 7.84963C105.969 7.84963 106.674 7.91555 107.358 8.04191L110.094 3.94451C110.403 3.48212 111.03 3.3604 111.489 3.67358L115.668 6.52226C116.121 6.83124 116.241 7.44769 115.937 7.90388L113.612 11.3845ZM104.75 24.8496C107.235 24.8496 109.25 22.8349 109.25 20.3496C109.25 17.8643 107.235 15.8496 104.75 15.8496C102.265 15.8496 100.25 17.8643 100.25 20.3496C100.25 22.8349 102.265 24.8496 104.75 24.8496Z" fill="#E5CFC7"/>
<path fill-rule="evenodd" clip-rule="evenodd" d="M100.224 53.3496C100.224 53.0735 100 52.8496 99.7241 52.8496H85.25L85.058 52.8548C83.2143 52.9545 81.75 54.481 81.75 56.3496V76.8496L81.7552 77.0416C81.8549 78.8853 83.3814 80.3496 85.25 80.3496H95V84.5996C95 85.6536 94.1777 86.5177 93.1339 86.5941L92.9833 86.5996H75.75V67.8496L75.7448 67.6576C75.6451 65.8139 74.1186 64.3496 72.25 64.3496H67.8667L67.7768 64.3577C67.5436 64.4 67.3667 64.6041 67.3667 64.8496C67.3667 65.1258 67.5906 65.3496 67.8667 65.3496H72.25L72.4144 65.3549C73.7185 65.4396 74.75 66.5241 74.75 67.8496V93.0996H34L33.9427 93.1062C33.8322 93.1321 33.75 93.2313 33.75 93.3496C33.75 93.4877 33.8619 93.5996 34 93.5996H74.75V96.3496L74.7447 96.514C74.66 97.8181 73.5755 98.8496 72.25 98.8496H55.5H54.5H40.5H39.5H22.75L22.5856 98.8443C21.2815 98.7596 20.25 97.6751 20.25 96.3496V93.5996H32L32.0573 93.593C32.1678 93.5671 32.25 93.468 32.25 93.3496C32.25 93.2115 32.1381 93.0996 32 93.0996H20.25V67.8496L20.2553 67.6852C20.34 66.3811 21.4245 65.3496 22.75 65.3496H62.5806L62.6704 65.3416C62.9037 65.2992 63.0806 65.0951 63.0806 64.8496C63.0806 64.5735 62.8567 64.3496 62.5806 64.3496H22.75L22.558 64.3548C20.7143 64.4545 19.25 65.981 19.25 67.8496V96.3496L19.2552 96.5416C19.3549 98.3853 20.8814 99.8496 22.75 99.8496H39.5V107.85H39.75C38.9216 107.85 38.25 108.521 38.25 109.35C38.25 109.623 38.323 109.879 38.4507 110.1H1V111.1H206V110.1H114.25V101.775C114.25 100.329 115.219 99.5899 117.272 99.5389L117.505 99.5361H123.225C124.564 99.5361 125.659 98.4975 125.745 97.1841L125.75 97.0186V75.8496H134.124L134.214 75.8416C134.447 75.7992 134.624 75.5951 134.624 75.3496C134.624 75.0735 134.4 74.8496 134.124 74.8496H120.019L119.93 74.8577C119.696 74.9 119.519 75.1041 119.519 75.3496C119.519 75.6258 119.743 75.8496 120.019 75.8496H125.25V97.0186C125.25 98.082 124.424 98.9535 123.376 99.0305L123.225 99.0361H117.505C115.13 99.0361 113.841 99.8933 113.755 101.59L113.75 101.775V110.1H56.5493C56.677 109.879 56.75 109.623 56.75 109.35C56.75 108.521 56.0784 107.85 55.25 107.85H55.5V99.8496H72.25L72.442 99.8444C74.2857 99.7447 75.75 98.2182 75.75 96.3496V87.0996H92.9833C94.3173 87.0996 95.4094 86.0685 95.4946 84.764L95.5 84.5996V80.3496H105.75L105.942 80.3444C107.786 80.2447 109.25 78.7182 109.25 76.8496V68.7903H112.25V72.5496L112.255 72.737C112.353 74.4734 113.806 75.8496 115.58 75.8496H117.791L117.881 75.8416C118.114 75.7992 118.291 75.5951 118.291 75.3496C118.291 75.0735 118.067 74.8496 117.791 74.8496H115.58L115.421 74.8443C114.207 74.7633 113.25 73.7658 113.25 72.5496V64.1496L113.255 63.9923C113.337 62.7964 114.346 61.8496 115.58 61.8496H134.92L135.079 61.8549C136.293 61.9359 137.25 62.9334 137.25 64.1496V72.5496L137.258 72.6395C137.3 72.8727 137.505 73.0496 137.75 73.0496C138.026 73.0496 138.25 72.8258 138.25 72.5496V64.1496L138.245 63.9622C138.147 62.2258 136.694 60.8496 134.92 60.8496H115.58L115.391 60.8548C113.641 60.9518 112.25 62.3888 112.25 64.1496V68.2903H109.25V56.3496L109.245 56.1576C109.145 54.3139 107.619 52.8496 105.75 52.8496H103.088L102.998 52.8577C102.765 52.9 102.588 53.1041 102.588 53.3496C102.588 53.6258 102.812 53.8496 103.088 53.8496H105.75L105.914 53.8549C107.218 53.9396 108.25 55.0241 108.25 56.3496V76.8496L108.245 77.014C108.16 78.3181 107.075 79.3496 105.75 79.3496H95.5H95H85.25L85.0856 79.3443C83.7815 79.2596 82.75 78.1751 82.75 76.8496V56.3496L82.7553 56.1852C82.84 54.8811 83.9245 53.8496 85.25 53.8496H99.7241L99.814 53.8416C100.047 53.7992 100.224 53.5951 100.224 53.3496ZM40.5 99.8496H54.5V107.85H40.5V99.8496ZM102.75 57.5996C103.668 57.5996 104.421 58.3067 104.494 59.2061L104.5 59.3496V73.8496C104.5 74.7678 103.793 75.5208 102.894 75.5938L102.75 75.5996H91.9592C91.8212 75.5996 91.7092 75.4877 91.7092 75.3496C91.7092 75.2313 91.7915 75.1321 91.9019 75.1062L91.9592 75.0996H102.75C103.397 75.0996 103.93 74.6077 103.994 73.9774L104 73.8496V59.3496C104 58.7024 103.508 58.1701 102.878 58.1061L102.75 58.0996H88.25C87.6028 58.0996 87.0705 58.5915 87.0065 59.2218L87 59.3496V73.8496C87 74.4968 87.4919 75.0291 88.1222 75.0932L88.25 75.0996H90.0217C90.1598 75.0996 90.2717 75.2115 90.2717 75.3496C90.2717 75.468 90.1895 75.5671 90.079 75.593L90.0217 75.5996H88.25C87.3318 75.5996 86.5788 74.8925 86.5058 73.9931L86.5 73.8496V59.3496C86.5 58.4314 87.2071 57.6784 88.1065 57.6054L88.25 57.5996H102.75ZM134 63.3496C134.414 63.3496 134.75 63.6854 134.75 64.0996C134.75 64.5138 134.414 64.8496 134 64.8496H116.5C116.086 64.8496 115.75 64.5138 115.75 64.0996C115.75 63.6854 116.086 63.3496 116.5 63.3496H134ZM134 63.8496H116.5C116.362 63.8496 116.25 63.9615 116.25 64.0996C116.25 64.218 116.332 64.3171 116.443 64.343L116.5 64.3496H134C134.138 64.3496 134.25 64.2377 134.25 64.0996C134.25 63.9813 134.168 63.8821 134.057 63.8562L134 63.8496ZM55.25 108.85H39.75C39.4739 108.85 39.25 109.073 39.25 109.35C39.25 109.595 39.4269 109.799 39.6601 109.842L39.75 109.85H55.25C55.5261 109.85 55.75 109.626 55.75 109.35C55.75 109.104 55.5731 108.9 55.3399 108.858L55.25 108.85Z" fill="#291D18"/>
<path fill-rule="evenodd" clip-rule="evenodd" d="M162.5 46.3496C158.496 46.3496 155.25 49.7075 155.25 53.8496C155.25 57.9917 158.496 61.3496 162.5 61.3496C166.504 61.3496 169.75 57.9917 169.75 53.8496C169.75 49.7075 166.504 46.3496 162.5 46.3496ZM162.5 47.3496C165.944 47.3496 168.75 50.2523 168.75 53.8496C168.75 57.4469 165.944 60.3496 162.5 60.3496C159.056 60.3496 156.25 57.4469 156.25 53.8496C156.25 50.2523 159.056 47.3496 162.5 47.3496ZM161.692 64.5126C161.685 64.5177 161.677 64.5225 161.67 64.5271C160.684 65.1423 159.775 66.2328 158.954 67.8074L158.845 68.0038C157.283 70.703 152.305 73.9743 149.032 74.2774L148.552 74.3217C144.193 74.72 142.82 74.6981 141.057 73.8828L140.75 73.7352C140.305 73.513 140.208 73.5631 140.114 74.0831C139.976 74.8444 140.116 76.2446 140.544 78.2448L140.55 78.444C140.565 78.53 140.791 78.6211 141.542 78.6211C141.591 78.6211 141.718 78.6298 141.885 78.6433L144.157 78.8456C147.583 79.1041 150.698 78.9738 153.769 78.185C157.847 77.1379 161.066 75.0323 163.172 71.6256C163.318 71.3908 163.626 71.3181 163.861 71.4633C164.095 71.6085 164.168 71.9167 164.023 72.1515C162.389 74.7943 160.132 76.7034 157.371 77.9756L157.336 78.9804C157.324 79.4208 157.312 79.9111 157.3 80.4568L157.251 83.4165L157.296 83.5231C158.279 85.6664 161.125 87.1248 165.892 87.8353C166.165 87.876 166.353 88.1304 166.313 88.4036C166.272 88.6767 166.018 88.8651 165.744 88.8244C160.523 88.046 157.349 86.3619 156.286 83.7035L156.276 83.6514L148.688 82.3423L148.471 82.3451C146.193 82.3984 144.962 83.2087 144.793 85.9629C144.656 88.172 144.846 92.3699 145.364 98.5399L145.641 101.697C145.606 102.364 146.724 102.74 148.547 102.85C149.364 102.898 151.191 102.519 151.237 102.06L151.234 89.7769H151.734L152.142 89.7814C154.664 89.8381 156.492 90.4279 158.213 91.4902L158.285 90.7826L158.303 90.694C158.369 90.4664 158.59 90.3114 158.834 90.3366C159.109 90.3649 159.309 90.6105 159.28 90.8852L157.716 106.044L157.72 106.257C157.79 108.283 158.838 109.243 161.025 109.243L161.304 109.239C163.472 109.182 168.224 108.493 175.528 107.175L178.202 106.685L178.172 106.55C177.809 105.006 176.269 101.981 175.58 102.049C171.595 102.446 166.679 102.565 166.3 102.039C166.07 101.72 166.048 101.314 166.163 100.533L166.225 100.144C166.228 100.13 166.245 100.039 166.272 99.8922L166.272 99.8921C166.38 99.3154 166.647 97.8926 166.791 97.0503L166.943 96.1009L167.043 95.4087C167.698 93.4526 168.016 91.3119 168.016 88.8926C168.016 88.8716 168.017 88.851 168.019 88.8307C167.971 88.735 167.953 88.6231 167.975 88.5096L171.619 69.7262C172.299 65.9153 170.457 62.8496 166.95 62.8496C164.783 62.8496 163.292 63.321 161.714 64.4969C161.707 64.5023 161.7 64.5075 161.692 64.5126ZM161.128 63.6864C159.978 64.4081 158.961 65.6304 158.067 67.3449C156.831 69.7145 152.202 72.8375 149.175 73.2544L148.84 73.2909L147.43 73.4165C143.864 73.7148 142.746 73.6131 141.196 72.8403C140.63 72.5578 140.135 72.5502 139.766 72.7864L139.636 72.7446L139.216 72.6348C136.54 71.9191 133.979 72.5397 133.528 74.2182C133.09 75.8467 134.87 77.6035 137.418 78.3612L137.977 78.519L138.71 78.7393C138.964 78.8109 139.122 78.8442 139.33 78.8725C139.431 78.8863 139.531 78.8954 139.631 78.8998C139.85 79.3661 140.471 79.5925 141.364 79.6185L141.542 79.6211C141.685 79.6211 143.022 79.7502 143.35 79.7819C143.393 79.786 143.419 79.7885 143.423 79.7888C147.209 80.123 150.623 80.0254 154.018 79.1536C154.829 78.9454 155.609 78.6968 156.356 78.4062L156.337 78.9479C156.309 79.9187 156.284 81.1279 156.262 82.6345L148.773 81.3496C145.807 81.3496 144.009 82.4165 143.794 85.9014L143.775 86.2863C143.659 89.0343 143.95 94.1906 144.644 101.712C144.606 102.323 144.835 102.768 145.287 103.09C145.174 103.894 144.533 104.795 143.927 104.946C143.747 104.991 143.184 105.171 142.83 105.283C142.691 105.327 142.585 105.361 142.547 105.373C141.615 105.651 140.723 105.812 139.654 105.844L139.244 105.85C137.15 105.85 136.722 107.308 137.864 109.66L138.101 110.129L140.738 110.183C145.916 110.277 149.157 110.261 150.484 110.134C152.416 109.949 152.369 107.682 150.74 103.527C151.55 103.283 152.084 102.899 152.212 102.259L152.234 102.11L152.235 90.7846L152.512 90.7948C154.773 90.9022 156.393 91.4907 157.966 92.518L158.098 92.6063L156.719 105.993C156.719 108.771 158.213 110.243 161.025 110.243L161.314 110.239C163.857 110.174 169.683 109.289 178.842 107.584C179.008 107.553 179.142 107.442 179.207 107.295C179.276 107.289 179.343 107.278 179.412 107.262L179.574 107.217C179.638 107.197 179.697 107.176 179.801 107.137C180.402 106.919 180.858 107.009 182.004 107.931L182.182 108.075C182.826 108.607 183.759 109.557 184.005 109.808L184.005 109.808L184.005 109.808C184.043 109.846 184.064 109.868 184.066 109.869C184.541 110.262 184.989 110.35 186.223 110.35C187.918 110.35 188.872 109.744 188.74 108.543L188.719 108.396L188.697 108.268L186.764 105.907C183.818 102.334 182.041 100.305 181.382 99.7697C180.371 98.948 178.894 99.7037 176.857 101.798C176.395 101.308 175.918 101.011 175.481 101.054C173.874 101.214 171.746 101.338 169.922 101.382L169.279 101.394C168.663 101.403 168.13 101.4 167.717 101.384L167.413 101.369C167.367 101.367 167.324 101.363 167.283 101.36L167.095 101.34L167.094 101.299C167.096 101.145 167.12 100.878 167.182 100.488L167.752 97.366L167.823 96.9478C167.898 96.4829 167.968 96.0181 168.011 95.6375C168.682 93.6651 169.016 91.4164 169.016 88.8926C169.016 88.8119 168.997 88.7356 168.963 88.6681L172.554 70.1606C173.468 65.6879 171.253 61.8496 166.95 61.8496C164.578 61.8496 162.878 62.385 161.128 63.6864ZM139.448 77.8793C139.245 77.8508 139.084 77.8102 138.696 77.6925L138.03 77.4937L137.918 77.4632C135.704 76.8713 134.228 75.4653 134.494 74.4779C134.75 73.5238 136.609 73.0425 138.73 73.5434L139.186 73.6621C139.164 73.739 139.146 73.8199 139.13 73.9047C138.978 74.7446 139.087 76.0598 139.448 77.8793ZM177.485 102.588C178.252 103.703 178.901 105.202 179.146 106.296C179.18 106.291 179.22 106.281 179.271 106.265L179.587 106.154C180.521 105.857 181.349 106.091 182.818 107.304C183.328 107.725 183.969 108.35 184.357 108.741L184.703 109.098C184.913 109.272 185.137 109.333 185.855 109.347L186.223 109.35L186.41 109.348C187.37 109.325 187.739 109.121 187.748 108.726L187.746 108.683L187.027 107.804C183.698 103.736 181.623 101.328 180.861 100.64L180.752 100.546C180.327 100.201 179.206 100.799 177.485 102.588ZM149.75 103.742C151.172 107.323 151.251 109.056 150.389 109.138L149.889 109.175C148.505 109.255 145.852 109.264 141.943 109.203L138.724 109.142L138.669 109.031C137.933 107.472 138.109 106.893 139.123 106.852L139.244 106.85C140.453 106.85 141.451 106.708 142.456 106.438L142.833 106.331C142.886 106.315 143.02 106.272 143.186 106.219C143.537 106.108 144.026 105.952 144.169 105.916C145.122 105.679 145.964 104.607 146.223 103.516C146.83 103.694 147.594 103.794 148.487 103.849C148.673 103.86 149.218 103.821 149.75 103.742Z" fill="#291D18"/>
<circle cx="47.5" cy="96.0996" r="1.25" fill="#291D18"/>
<path fill-rule="evenodd" clip-rule="evenodd" d="M109.635 1.17821C108.962 0.816235 108.112 1.01873 107.679 1.66714L105.121 5.49505L105.015 5.47792C104.434 5.39246 103.844 5.34927 103.25 5.34927L102.78 5.3583L102.313 5.3853C101.691 5.43324 101.078 5.52881 100.475 5.67075L100.404 5.68805L98.1819 1.79862L98.0974 1.66729C97.6504 1.04526 96.7972 0.854262 96.1237 1.24712L91.7588 3.79326L91.6382 3.87146L91.5276 3.9591C90.9994 4.41954 90.8519 5.20249 91.2123 5.83315L93.625 10.0551L93.5892 10.0991L93.3411 10.4233C92.3695 11.7352 91.6449 13.23 91.2129 14.8323L91.208 14.8501L87.2501 14.8493L87.1056 14.8561C86.3449 14.9288 85.75 15.5696 85.75 16.3493V20.8493L85.7569 20.9937L85.777 21.1343C85.9102 21.8264 86.519 22.3493 87.25 22.3493L91.354 22.3501L91.3694 22.4016L91.5226 22.8585C91.9526 24.0679 92.5542 25.2026 93.3057 26.2272L93.36 26.2991L91.6155 29.3527L91.5501 29.4807C91.2374 30.1728 91.4928 31.0021 92.162 31.3925L96.5269 33.9387L96.6657 34.0101L96.7981 34.0625C97.4664 34.2911 98.2224 34.0219 98.5851 33.3872L100.003 30.9051L100.055 30.9207C101.089 31.2042 102.16 31.3493 103.25 31.3493L103.72 31.3403L104.187 31.3133C104.963 31.2535 105.726 31.1194 106.471 30.9136L106.558 30.8871L108.408 33.5571L108.505 33.6829C109.004 34.2619 109.871 34.3774 110.507 33.9271L114.637 31.0055L114.75 30.9171L114.859 30.8134C115.339 30.3085 115.415 29.5205 115.003 28.9265L113.162 26.2691L113.197 26.2233L113.471 25.8343C114.184 24.7836 114.744 23.6274 115.131 22.4011L115.145 22.3501L119.25 22.3493L119.395 22.3424C120.155 22.2697 120.75 21.629 120.75 20.8493V16.3493L120.743 16.2048L120.723 16.0642C120.59 15.3721 119.981 14.8493 119.25 14.8493L115.291 14.8501L115.166 14.4099C114.585 12.5075 113.588 10.7729 112.258 9.3362L112.25 9.32805L114.352 6.18186L114.426 6.05875C114.786 5.39037 114.59 4.54563 113.95 4.10942L109.771 1.26074L109.635 1.17821ZM108.567 2.15211C108.732 1.98165 109 1.94793 109.204 2.08424L113.387 4.93559L113.456 4.99246C113.624 5.15759 113.656 5.42365 113.521 5.6264L111.197 9.10655L111.155 9.18332C111.073 9.36816 111.111 9.58786 111.257 9.73561C112.799 11.2973 113.899 13.279 114.416 15.465C114.469 15.6906 114.671 15.85 114.902 15.8499L119.25 15.8492L119.34 15.8572C119.573 15.8996 119.75 16.1037 119.75 16.3492V20.8492L119.742 20.939C119.7 21.1723 119.495 21.3492 119.25 21.3492L114.773 21.35L114.69 21.3568C114.502 21.3884 114.344 21.5264 114.291 21.7154C113.858 23.2647 113.129 24.7021 112.152 25.9471C112.016 26.1196 112.009 26.3602 112.134 26.5405L114.181 29.496L114.226 29.5739C114.324 29.7883 114.258 30.0483 114.059 30.1891L109.93 33.1107L109.852 33.156C109.664 33.2436 109.439 33.2049 109.289 33.0572L109.23 32.9873L107.174 30.0202L107.114 29.9493C106.984 29.8204 106.791 29.7715 106.611 29.8286C105.531 30.1724 104.402 30.3492 103.25 30.3492C102.107 30.3492 100.987 30.1754 99.9156 29.8371C99.6912 29.7663 99.4478 29.8615 99.331 30.0659L97.7168 32.891L97.6652 32.965C97.5127 33.1465 97.2471 33.1984 97.0289 33.0737L92.6659 30.5286L92.5927 30.4767C92.4135 30.3237 92.3627 30.0605 92.4837 29.8487L94.3924 26.5078L94.4285 26.4297C94.4864 26.2694 94.4592 26.0881 94.3514 25.9509C93.3727 24.7051 92.642 23.2663 92.2085 21.7154C92.1481 21.4994 91.9513 21.35 91.7271 21.35L87.2501 21.3492L87.1602 21.3411C86.9269 21.2988 86.75 21.0946 86.75 20.8492V16.3492L86.7581 16.2593C86.8004 16.026 87.0045 15.8492 87.25 15.8492L91.5976 15.8499L91.6828 15.8427C91.8775 15.8091 92.0376 15.6624 92.0842 15.465C92.5267 13.5933 93.3968 11.8688 94.6119 10.4273C94.7472 10.2669 94.7679 10.0391 94.6638 9.85694L92.0805 5.33688L92.0431 5.25537C91.9644 5.03326 92.052 4.77983 92.2627 4.65693L96.6276 2.1108L96.7093 2.07248C96.9321 1.99159 97.1881 2.07938 97.3148 2.29655L99.7253 6.51569L99.7732 6.58525C99.8969 6.73588 100.1 6.80292 100.293 6.74953C101.249 6.48467 102.241 6.34916 103.25 6.34916C103.932 6.34916 104.606 6.41108 105.268 6.5332C105.464 6.56947 105.663 6.48532 105.774 6.31919L108.51 2.22238L108.567 2.15211ZM102.75 13.3496C105.511 13.3496 107.75 15.5882 107.75 18.3496C107.75 21.111 105.511 23.3496 102.75 23.3496C99.9886 23.3496 97.75 21.111 97.75 18.3496C97.75 15.5882 99.9886 13.3496 102.75 13.3496ZM98.75 18.3496C98.75 16.1405 100.541 14.3496 102.75 14.3496C104.959 14.3496 106.75 16.1405 106.75 18.3496C106.75 20.5587 104.959 22.3496 102.75 22.3496C100.541 22.3496 98.75 20.5587 98.75 18.3496Z" fill="#291D18"/>
</svg>
