<svg width="179" height="175" viewBox="0 0 179 175" fill="none" xmlns="http://www.w3.org/2000/svg">
<rect x="56.5" y="12.8359" width="86" height="157" rx="12" fill="#E5CFC7"/>
<path fill-rule="evenodd" clip-rule="evenodd" d="M27.4933 82.4498C27.4355 81.9524 27.0128 81.5664 26.5 81.5664C25.9477 81.5664 25.5 82.0141 25.5 82.5664V92.2291L25.5067 92.3457C25.5645 92.843 25.9872 93.2291 26.5 93.2291C27.0523 93.2291 27.5 92.7814 27.5 92.2291V82.5664L27.4933 82.4498ZM27.4933 101.251C27.4355 100.753 27.0128 100.367 26.5 100.367C25.9477 100.367 25.5 100.815 25.5 101.367V107.014L25.5037 107.32C25.6665 114.049 31.1707 119.452 37.9388 119.452H46.2525L46.3691 119.446C46.8665 119.388 47.2525 118.965 47.2525 118.452C47.2525 117.9 46.8048 117.452 46.2525 117.452H37.9388L37.6562 117.449C32.0208 117.299 27.5 112.685 27.5 107.014V101.367L27.4933 101.251Z" fill="#291D18"/>
<path d="M26.4995 32.2119C34.9791 32.2119 42.7524 36.3835 47.4791 43.2123L47.725 43.5742L45.2296 45.2394C41.0804 39.0218 34.1146 35.2119 26.4995 35.2119C14.0733 35.2119 4 45.2856 4 57.7125C4 70.1384 14.0735 80.2119 26.4995 80.2119C34.2 80.2119 41.2293 76.3145 45.353 69.9978L45.5751 69.6509L48.1164 71.2451C43.4828 78.6315 35.3834 83.2119 26.4995 83.2119C12.4167 83.2119 1 71.7953 1 57.7125C1 43.6287 12.4165 32.2119 26.4995 32.2119Z" fill="#291D18"/>
<path fill-rule="evenodd" clip-rule="evenodd" d="M26.5 66.4619C23.3614 66.4619 20.5039 64.8648 17.9739 62.2315C17.1024 61.3245 16.3318 60.3552 15.6679 59.3856C15.4351 59.0456 15.232 58.7293 15.0593 58.4442C14.9983 58.3435 14.9452 58.2535 14.9003 58.1752L14.8732 58.1276L14.8583 58.1013C14.7194 57.8475 14.7194 57.5764 14.8419 57.3522C14.8812 57.2802 14.954 57.1534 15.0593 56.9796C15.232 56.6946 15.4351 56.3782 15.6679 56.0382C16.3318 55.0686 17.1024 54.0993 17.9739 53.1923C20.5039 50.559 23.3614 48.9619 26.5 48.9619C29.6385 48.9619 32.4961 50.559 35.0261 53.1923C35.8976 54.0993 36.6682 55.0686 37.3321 56.0382C37.5648 56.3782 37.768 56.6946 37.9407 56.9796C38.0017 57.0804 38.0547 57.1704 38.0997 57.2486L38.1268 57.2962L38.1416 57.3225C38.2806 57.5764 38.2806 57.8475 38.1581 58.0716C38.1188 58.1436 38.0459 58.2704 37.9407 58.4442C37.768 58.7293 37.5648 59.0456 37.3321 59.3856C36.6682 60.3552 35.8976 61.3245 35.0261 62.2315C32.4961 64.8648 29.6385 66.4619 26.5 66.4619ZM16.9056 58.5382C17.5255 59.4436 18.2456 60.3493 19.0555 61.1923C21.3294 63.559 23.8396 64.9619 26.5 64.9619C29.1604 64.9619 31.6705 63.559 33.9444 61.1923C34.7544 60.3493 35.4745 59.4436 36.0944 58.5382C36.2986 58.2399 36.4776 57.9622 36.6304 57.7119C36.4776 57.4616 36.2986 57.184 36.0944 56.8856C35.4745 55.9802 34.7544 55.0745 33.9444 54.2315C31.6705 51.8648 29.1604 50.4619 26.5 50.4619C23.8396 50.4619 21.3294 51.8648 19.0555 54.2315C18.2456 55.0745 17.5255 55.9802 16.9056 56.8856C16.7014 57.184 16.5223 57.4616 16.3696 57.7119C16.5223 57.9622 16.7014 58.2399 16.9056 58.5382ZM20.75 57.7119C20.75 60.8876 23.3244 63.4619 26.5 63.4619C29.6756 63.4619 32.25 60.8876 32.25 57.7119C32.25 54.5363 29.6756 51.9619 26.5 51.9619C23.3244 51.9619 20.75 54.5363 20.75 57.7119ZM26.5 61.9619C28.8472 61.9619 30.75 60.0591 30.75 57.7119C30.75 55.3647 28.8472 53.4619 26.5 53.4619C24.1528 53.4619 22.25 55.3647 22.25 57.7119C22.25 60.0591 24.1528 61.9619 26.5 61.9619ZM24.5 56.9619C24.0858 56.9619 23.75 57.2977 23.75 57.7119C23.75 59.2307 24.9812 60.4619 26.5 60.4619C28.0188 60.4619 29.25 59.2307 29.25 57.7119C29.25 56.1931 28.0188 54.9619 26.5 54.9619C26.0858 54.9619 25.75 55.2977 25.75 55.7119C25.75 56.1261 26.0858 56.4619 26.5 56.4619C27.1903 56.4619 27.75 57.0216 27.75 57.7119C27.75 58.4023 27.1903 58.9619 26.5 58.9619C25.8096 58.9619 25.25 58.4023 25.25 57.7119C25.25 57.2977 24.9142 56.9619 24.5 56.9619Z" fill="#291D18"/>
<circle cx="26.5" cy="96.7119" r="4" fill="white"/>
<path d="M23.793 94.0047C24.1535 93.6443 24.7207 93.6166 25.113 93.9217L25.2072 94.0049L28.9892 97.7875C29.3797 98.1781 29.3796 98.8113 28.9891 99.2017C28.6285 99.5622 28.0613 99.5899 27.669 99.2848L27.5748 99.2016L23.7928 95.419C23.4023 95.0284 23.4024 94.3952 23.793 94.0047Z" fill="#291D18"/>
<path d="M27.5748 94.0049C27.9653 93.6143 28.5985 93.6143 28.9891 94.0047C29.3496 94.3652 29.3773 94.9324 29.0724 95.3247L28.9892 95.419L25.2072 99.2016C24.8167 99.5922 24.1835 99.5922 23.793 99.2017C23.4324 98.8413 23.4047 98.2741 23.7097 97.8817L23.7928 97.7875L27.5748 94.0049Z" fill="#291D18"/>
<path d="M152.499 79.2119C166.583 79.2119 178 90.6286 178 104.712C178 118.795 166.583 130.212 152.499 130.212C143.604 130.212 135.502 125.619 130.876 118.234L130.648 117.862L133.217 116.313C137.264 123.024 144.519 127.212 152.499 127.212C164.926 127.212 175 117.139 175 104.712C175 92.2854 164.926 82.2119 152.499 82.2119C144.989 82.2119 138.112 85.9182 133.945 91.9814L133.716 92.3207L131.214 90.6662C135.904 83.5707 143.832 79.2119 152.499 79.2119Z" fill="#291D18"/>
<path fill-rule="evenodd" clip-rule="evenodd" d="M149.5 110.462C144.668 110.462 140.75 106.544 140.75 101.712C140.75 96.8794 144.668 92.9619 149.5 92.9619C154.332 92.9619 158.25 96.8794 158.25 101.712C158.25 103.858 157.477 105.824 156.195 107.346L163.53 114.682C163.823 114.974 163.823 115.449 163.53 115.742C163.237 116.035 162.763 116.035 162.47 115.742L155.134 108.407C153.612 109.689 151.646 110.462 149.5 110.462ZM149.5 108.962C153.504 108.962 156.75 105.716 156.75 101.712C156.75 97.7078 153.504 94.4619 149.5 94.4619C145.496 94.4619 142.25 97.7078 142.25 101.712C142.25 105.716 145.496 108.962 149.5 108.962Z" fill="#291D18"/>
<path fill-rule="evenodd" clip-rule="evenodd" d="M153.364 54.844C153.201 48.1154 147.697 42.7119 140.928 42.7119H131.89L131.774 42.7186C131.276 42.7764 130.89 43.1991 130.89 43.7119C130.89 44.2642 131.338 44.7119 131.89 44.7119H140.928L141.211 44.7157C146.847 44.8654 151.367 49.4795 151.367 55.1508V59.7398L151.374 59.8564C151.432 60.3537 151.854 60.7398 152.367 60.7398C152.92 60.7398 153.367 60.292 153.367 59.7398V55.1508L153.364 54.844ZM153.36 69.857C153.303 69.3597 152.88 68.9736 152.367 68.9736C151.815 68.9736 151.367 69.4213 151.367 69.9736V79.5977L151.374 79.7143C151.432 80.2117 151.854 80.5977 152.367 80.5977C152.919 80.5977 153.367 80.15 153.367 79.5977V69.9736L153.36 69.857Z" fill="#291D18"/>
<circle cx="152.5" cy="64.7119" r="4" fill="white"/>
<path d="M149.793 62.0047C150.153 61.6443 150.721 61.6166 151.113 61.9217L151.207 62.0049L154.989 65.7875C155.38 66.1781 155.38 66.8113 154.989 67.2017C154.629 67.5622 154.061 67.5899 153.669 67.2848L153.575 67.2016L149.793 63.419C149.402 63.0284 149.402 62.3952 149.793 62.0047Z" fill="#291D18"/>
<path d="M153.575 62.0049C153.965 61.6143 154.598 61.6143 154.989 62.0047C155.35 62.3652 155.377 62.9324 155.072 63.3247L154.989 63.419L151.207 67.2016C150.817 67.5922 150.184 67.5922 149.793 67.2017C149.432 66.8413 149.405 66.2741 149.71 65.8817L149.793 65.7875L153.575 62.0049Z" fill="#291D18"/>
<path fill-rule="evenodd" clip-rule="evenodd" d="M59.2044 104.08L87.2038 56.0801C87.7826 55.0879 89.2163 55.0879 89.7952 56.0801L117.796 104.08C118.379 105.08 117.658 106.336 116.5 106.336H60.5001C59.3424 106.336 58.6211 105.08 59.2044 104.08ZM113.888 103.335L88.4991 59.8135L63.1111 103.335H113.888Z" fill="#291D18"/>
<path d="M86.5 74.8359H89.5V90.8359H86.5V74.8359Z" fill="#291D18"/>
<path fill-rule="evenodd" clip-rule="evenodd" d="M86.5 97.8359H89.5V94.8359H86.5V97.8359Z" fill="#291D18"/>
<path fill-rule="evenodd" clip-rule="evenodd" d="M60.7181 1H118.34C126.718 1 133.567 7.84855 133.567 16.2266V145.965C133.567 154.344 126.719 161.192 118.34 161.192H60.7181C52.3389 161.192 45.4915 154.344 45.4915 145.965V16.2266C45.4915 7.84818 52.3392 1 60.7181 1ZM118.34 4H60.7181C53.9961 4 48.4915 9.50499 48.4915 16.2266V145.965C48.4915 152.687 53.9957 158.192 60.7181 158.192H118.34C125.062 158.192 130.567 152.687 130.567 145.965V16.2266C130.567 9.50541 125.061 4 118.34 4Z" fill="#291D18"/>
<path fill-rule="evenodd" clip-rule="evenodd" d="M93.788 139.189C93.788 141.542 91.8812 143.448 89.5282 143.448C87.1764 143.448 85.2695 141.542 85.2695 139.189C85.2695 136.836 87.1764 134.929 89.5282 134.929C91.8812 134.929 93.788 136.836 93.788 139.189" fill="#291D18"/>
<path d="M116.429 21.9531C117.257 21.9531 117.929 22.6247 117.929 23.4531C117.929 24.2328 117.334 24.8736 116.573 24.9463L116.429 24.9531H64.916C64.0876 24.9531 63.416 24.2816 63.416 23.4531C63.416 22.6734 64.0109 22.0327 64.7716 21.96L64.916 21.9531H116.429Z" fill="#291D18"/>
</svg>
