<svg width="100" height="82" viewBox="0 0 100 82" fill="none" xmlns="http://www.w3.org/2000/svg">
<path fill-rule="evenodd" clip-rule="evenodd" d="M0 0.21582H95.6522V63.6216H0V0.21582ZM2.89855 3.11437V60.7231H92.7536V3.11437H2.89855Z" fill="#004A47"/>
<path opacity="0.24" d="M7.2464 7.46216H100V67.9694H7.2464V7.46216Z" fill="#00807B"/>
<path fill-rule="evenodd" clip-rule="evenodd" d="M26.548 66.5203C26.5634 66.5203 26.5788 66.5203 26.5942 66.5203L69.1042 66.5203C69.47 66.5202 69.8262 66.5202 70.1279 66.5448C70.4592 66.5719 70.8501 66.6358 71.2435 66.8362C71.7889 67.1141 72.2323 67.5575 72.5102 68.1029C72.7106 68.4963 72.7745 68.8872 72.8016 69.2185C72.8262 69.5202 72.8262 69.8764 72.8261 70.2421V77.2912C72.8262 77.6569 72.8262 78.0131 72.8016 78.3148C72.7745 78.6461 72.7106 79.037 72.5102 79.4304C72.2323 79.9758 71.7889 80.4192 71.2435 80.6971C70.8501 80.8975 70.4592 80.9614 70.1279 80.9885C69.8262 81.0131 69.47 81.0131 69.1042 81.013H26.548C26.1822 81.0131 25.826 81.0131 25.5243 80.9885C25.193 80.9614 24.8021 80.8975 24.4088 80.6971C23.8634 80.4192 23.4199 79.9758 23.142 79.4304C22.9416 79.037 22.8777 78.6461 22.8507 78.3148C22.826 78.0131 22.8261 77.6569 22.8261 77.2911C22.8261 77.2757 22.8261 77.2603 22.8261 77.2449V70.2884C22.8261 70.273 22.8261 70.2576 22.8261 70.2422C22.8261 69.8764 22.826 69.5202 22.8507 69.2185C22.8777 68.8872 22.9416 68.4963 23.142 68.1029C23.4199 67.5575 23.8634 67.1141 24.4088 66.8362C24.8021 66.6358 25.193 66.5719 25.5243 66.5448C25.826 66.5202 26.1822 66.5202 26.548 66.5203ZM25.7413 69.4354C25.7407 69.4414 25.7402 69.4478 25.7396 69.4545C25.7258 69.6235 25.7247 69.8586 25.7247 70.2884V77.2449C25.7247 77.6747 25.7258 77.9098 25.7396 78.0788C25.7402 78.0855 25.7407 78.0919 25.7413 78.0979C25.7473 78.0984 25.7536 78.099 25.7604 78.0995C25.9293 78.1133 26.1645 78.1145 26.5942 78.1145H69.058C69.4878 78.1145 69.7229 78.1133 69.8919 78.0995C69.8986 78.099 69.905 78.0984 69.911 78.0979C69.9115 78.0919 69.9121 78.0855 69.9126 78.0788C69.9264 77.9098 69.9276 77.6747 69.9276 77.2449V70.2884C69.9276 69.8586 69.9264 69.6235 69.9126 69.4545C69.9121 69.4478 69.9115 69.4414 69.911 69.4354C69.905 69.4349 69.8986 69.4343 69.8919 69.4338C69.7229 69.4199 69.4878 69.4188 69.058 69.4188H26.5942C26.1645 69.4188 25.9293 69.4199 25.7604 69.4338C25.7536 69.4343 25.7473 69.4349 25.7413 69.4354Z" fill="#00807B"/>
<path fill-rule="evenodd" clip-rule="evenodd" d="M43.6594 73.7667C43.6594 74.5671 43.0106 75.2159 42.2101 75.2159L31.8841 75.2159C31.0836 75.2159 30.4348 74.5671 30.4348 73.7667C30.4348 72.9662 31.0836 72.3174 31.8841 72.3174L42.2101 72.3174C43.0106 72.3174 43.6594 72.9662 43.6594 73.7667Z" fill="#00807B" fill-opacity="0.27"/>
<path fill-rule="evenodd" clip-rule="evenodd" d="M47.9191 54.2034C49.1186 54.2549 50.0494 55.2689 49.998 56.4684C49.9466 57.668 48.9325 58.5987 47.733 58.5473C46.5334 58.4959 45.6027 57.4818 45.6541 56.2823C45.7055 55.0828 46.7196 54.152 47.9191 54.2034Z" fill="#00807B"/>
<path fill-rule="evenodd" clip-rule="evenodd" d="M62.7432 72.3187C63.5429 72.353 64.1634 73.0291 64.1291 73.8287C64.0949 74.6284 63.4188 75.2489 62.6191 75.2146C61.8195 75.1804 61.199 74.5043 61.2332 73.7046C61.2675 72.9049 61.9436 72.2845 62.7432 72.3187Z" fill="#00807B" fill-opacity="0.27"/>
</svg>
