<svg xmlns="http://www.w3.org/2000/svg" width="24" height="24" fill="none"><path fill="#291D18" d="M12 3.88C9.554 2.353 6.513 1.76 2.91 2.088A1 1 0 0 0 2 3.08v13.944l.007.118a1 1 0 0 0 1.118.87c2.01-.25 3.953.219 5.865 1.426a1.003 1.003 0 0 0 1.38-.308.994.994 0 0 0-.309-1.374l-.328-.201c-1.757-1.041-3.577-1.577-5.446-1.6L4 15.957V4.01l.3-.011c2.625-.073 4.816.446 6.594 1.543L11 5.61v1.22c0 .55.448.996 1 .996a1 1 0 0 0 1.002-.996V5.61l.104-.067C14.883 4.445 17.073 3.926 19.698 4l.302.01v13.014c0 .511.385.932.883.99l.117.006a1 1 0 0 0 .993-.88l.007-.116V3.08a1 1 0 0 0-.91-.992c-3.603-.327-6.644.265-9.09 1.793"/><path fill="#291D18" d="M9.5 14.035c0-2.751 2.239-4.981 5.002-4.981s5.002 2.23 5.002 4.98a4.95 4.95 0 0 1-1.266 3.312l.033.035 2.501 2.985a.993.993 0 0 1-.127 1.403c-.392.325-.96.302-1.323-.036l-.086-.091-2.501-2.985a1 1 0 0 1-.088-.122 5 5 0 0 1-2.145.48c-2.763 0-5.003-2.23-5.003-4.98m8.003 0a2.995 2.995 0 0 0-3.001-2.989 2.995 2.995 0 0 0-3.002 2.989 2.995 2.995 0 0 0 3.002 2.988 2.995 2.995 0 0 0 3-2.988"/></svg>