<svg xmlns="http://www.w3.org/2000/svg" width="24" height="24" fill="none"><path fill="#291D18" d="M12 4c-4.532 0-8 3.241-8 7 0 1.836.81 3.525 2.173 4.793l.47.439-.96 2.879 3.395-1.584.363.107A9 9 0 0 0 12 18c4.532 0 8-3.242 8-7s-3.468-7-8-7M2 11c0-5.078 4.591-9 10-9s10 3.922 10 9-4.591 9-10 9c-.953 0-1.877-.12-2.753-.345l-4.613 2.153c-.876.408-1.815-.429-1.51-1.345l1.223-3.667C2.894 15.242 2 13.223 2 11"/><path fill="#291D18" d="M14.73 6.452a.75.75 0 0 1 1.06.054c2.669 2.952 2.669 6.053 0 9.006a.75.75 0 1 1-1.113-1.007c2.153-2.38 2.153-4.612 0-6.993a.75.75 0 0 1 .053-1.06"/><path fill="#291D18" d="M13.16 8.414a.75.75 0 0 1 1.05.137c1.23 1.597 1.23 3.304.003 4.913a.75.75 0 1 1-1.192-.91c.817-1.07.817-2.03.002-3.088a.75.75 0 0 1 .136-1.052m-5.126-.002 1.858-1.31c.4-.283.909.056.909.605v6.586c0 .549-.508.887-.908.606L8.03 13.588H6.6c-.304 0-.555-.266-.595-.61L6 12.882V9.118c0-.39.269-.706.6-.706z"/></svg>