<svg xmlns="http://www.w3.org/2000/svg" width="24" height="24" fill="none"><path fill="#291D18" d="M15.5 10.375a.75.75 0 0 0-.75-.75h-1.625V8l-.007-.102A.75.75 0 0 0 11.625 8v1.625H10l-.102.007A.75.75 0 0 0 10 11.125h1.625v1.625l.007.102a.75.75 0 0 0 1.493-.102v-1.625h1.625l.102-.007a.75.75 0 0 0 .648-.743"/><path fill="#291D18" d="M19 3H5a3 3 0 0 0-3 3v8a3 3 0 0 0 3 3h14a3 3 0 0 0 3-3V6a3 3 0 0 0-3-3M5 5h14a1 1 0 0 1 1 1v8a1 1 0 0 1-1 1H5a1 1 0 0 1-1-1V6a1 1 0 0 1 1-1m15.024 14a1 1 0 0 0-1-1H5l-.117.007A1 1 0 0 0 5 20h14.024l.117-.007a1 1 0 0 0 .883-.993"/></svg>