<svg xmlns="http://www.w3.org/2000/svg" width="24" height="24" fill="none"><path fill="#111" d="M18.213 15.703c-.594.187-1.694.385-2.53.385-3.102 0-4.081-1.837-4.081-3.751 0-2.53 1.683-3.938 4.169-3.938.924 0 1.76.165 2.233.363l-.32 1.925a5 5 0 0 0-1.825-.319c-.924 0-1.76.396-1.76 1.881 0 1.364.726 1.903 1.672 1.903h.12v-.836h-.637l.11-1.903h2.849zm-7.229-2.211c0 1.584-1.276 2.618-3.421 2.618-.803 0-1.628-.143-2.123-.341l.22-1.848c.451.154 1.21.308 1.837.308.792 0 1.034-.242 1.034-.572 0-.649-.891-.704-1.914-.704-.451 0-.616.011-.88.033l-.011-.011c.063-.722.106-1.247.145-1.735.058-.71.11-1.341.207-2.39h4.411l-.099 1.958H7.904l-.033.407c.083-.017.148-.014.207-.012l.057.001c1.914.066 2.849.935 2.849 2.288"/><path fill="#111" d="M22 2H2v20h20zM4 20V4h16v16z"/></svg>