<svg xmlns="http://www.w3.org/2000/svg" width="24" height="24" fill="none"><path fill="#111" d="M18.496 15.676c-.648.204-1.848.42-2.76.42-1.944 0-3.124-.661-3.776-1.62h-1.152V16H8.3v-1.524H5v-1.812l2.592-4.5h3.216v4.32h.495a6 6 0 0 1-.02-.48c0-2.76 1.837-4.296 4.549-4.296 1.008 0 1.92.18 2.436.396l-.348 2.1a5.5 5.5 0 0 0-1.992-.348c-1.008 0-1.92.432-1.92 2.052 0 1.488.792 2.076 1.824 2.076h.132v-.912h-.696l.12-2.076h3.108zM7.292 12.448v.036H8.3v-2.16l-.012-.012-.48 1.032z"/><path fill="#111" d="M22 2H2v20h20zM4 20V4h16v16z"/></svg>