<svg xmlns="http://www.w3.org/2000/svg" width="24" height="24" fill="none"><path fill="#111" d="M22 2H2v20h20v-5h-2v3H4V4h16v3h2z"/><path fill="#111" d="M17 15.5c-.576.194-1.643.4-2.454.4-1.729 0-2.777-.63-3.357-1.545h-1.025v1.453h-2.23v-1.453H5v-1.728l2.305-4.292h2.86v4.12h.44a6 6 0 0 1-.018-.458c0-2.632 1.633-4.097 4.044-4.097.896 0 1.707.172 2.166.378l-.31 2.002a4.6 4.6 0 0 0-1.77-.331c-.897 0-1.708.412-1.708 1.957 0 1.419.705 1.98 1.622 1.98h.118v-.87h-.62l.107-1.98H16V11h2V9h2v2h2v2h-2v2h-2v-2h-1zm-9.962-3.08v.035h.896v-2.06l-.01-.011-.427.984z"/></svg>