<svg xmlns="http://www.w3.org/2000/svg" width="24" height="24" fill="none"><path fill="#111" d="M13 18a1 1 0 1 1-2 0 1 1 0 0 1 2 0m1.74-4.21c-.41.18-1.12.31-1.73.31-1.61 0-2.77-.73-3.22-2.2H9.1l.1-1.04h.44c-.01-.11-.01-.22-.01-.38H9.1l.1-1.05h.6c.36-1.29 1.56-2.21 3.18-2.21.57 0 1.28.1 1.77.29L14.5 9.2c-.37-.13-.84-.25-1.33-.25-.39 0-.83.06-1.12.48h1.86l-.1 1.05h-1.99c-.02.12-.01.25 0 .38h2.09l-.1 1.04h-1.77c.25.38.73.45 1.23.45.53 0 1-.12 1.27-.23z"/><path fill="#111" d="M5 5a3 3 0 0 1 3-3h8a3 3 0 0 1 3 3v14a3 3 0 0 1-3 3H8a3 3 0 0 1-3-3zm3-1a1 1 0 0 0-1 1v14a1 1 0 0 0 1 1h8a1 1 0 0 0 1-1V5a1 1 0 0 0-1-1z"/></svg>