<svg xmlns="http://www.w3.org/2000/svg" width="24" height="24" fill="none"><path fill="#111" d="M10 18a1 1 0 1 1-2 0 1 1 0 0 1 2 0"/><path fill="#111" d="M2 5a3 3 0 0 1 3-3h8a3 3 0 0 1 3 3 6 6 0 0 1 0 12v2a3 3 0 0 1-3 3H5a3 3 0 0 1-3-3zm12 11.659A6.003 6.003 0 0 1 14 5.34V5a1 1 0 0 0-1-1H5a1 1 0 0 0-1 1v14a1 1 0 0 0 1 1h8a1 1 0 0 0 1-1zm-.25-8.967A4 4 0 0 0 12.126 10h.934c.106-.874.35-1.664.69-2.308m4.5 0c.34.644.584 1.434.69 2.308h.934a4 4 0 0 0-1.624-2.308M16.92 10c-.103-.626-.295-1.142-.514-1.507-.187-.313-.334-.432-.406-.475-.072.043-.219.162-.406.475-.22.365-.411.881-.514 1.507zm-1.84 2c.103.626.295 1.142.514 1.507.188.313.334.432.406.475.072-.043.218-.162.406-.475.22-.365.411-.881.514-1.507zm-2.02 0h-.934a4 4 0 0 0 1.624 2.308c-.34-.644-.584-1.434-.69-2.308m5.19 2.308A4 4 0 0 0 19.874 12h-.934c-.106.874-.35 1.664-.69 2.308"/></svg>