<svg width="350" height="296" viewBox="0 0 350 296" fill="none" xmlns="http://www.w3.org/2000/svg">
  <path fill-rule="evenodd" clip-rule="evenodd"
        d="M312.5 98C300.902 98 291.5 107.402 291.5 119H292.5L291.5 119V119V119V119V119.001V119.001V119.001V119.002V119.002V119.003V119.004V119.004V119.005V119.006V119.007V119.008V119.009V119.01V119.011V119.012V119.013V119.014V119.016V119.017V119.019V119.02V119.022V119.023V119.025V119.027V119.028V119.03V119.032V119.034V119.036V119.038V119.04V119.042V119.045V119.047V119.049V119.052V119.054V119.057V119.059V119.062V119.064V119.067V119.07V119.073V119.075V119.078V119.081V119.084V119.087V119.09V119.094V119.097V119.1V119.103V119.107V119.11V119.114V119.117V119.121V119.124V119.128V119.132V119.136V119.139V119.143V119.147V119.151V119.155V119.159V119.163V119.167V119.172V119.176V119.18V119.184V119.189V119.193V119.198V119.202V119.207V119.211V119.216V119.221V119.225V119.23V119.235V119.24V119.245V119.25V119.255V119.26V119.265V119.27V119.275V119.281V119.286V119.291V119.297V119.302V119.307V119.313V119.318V119.324V119.33V119.335V119.341V119.347V119.352V119.358V119.364V119.37V119.376V119.382V119.388V119.394V119.4V119.406V119.412V119.419V119.425V119.431V119.438V119.444V119.45V119.457V119.463V119.47V119.476V119.483V119.489V119.496V119.503V119.51V119.516V119.523V119.53V119.537V119.544V119.551V119.558V119.565V119.572V119.579V119.586V119.593V119.6V119.608V119.615V119.622V119.63V119.637V119.644V119.652V119.659V119.667V119.674V119.682V119.689V119.697V119.705V119.712V119.72V119.728V119.736V119.743V119.751V119.759V119.767V119.775V119.783V119.791V119.799V119.807V119.815V119.823V119.831V119.839V119.848V119.856V119.864V119.872V119.881V119.889V119.897V119.906V119.914V119.922V119.931V119.939V119.948V119.957V119.965V119.974V119.982V119.991V120V120.008V120.017V120.026V120.035V120.043V120.052V120.061V120.07V120.079V120.088V120.097V120.106V120.114V120.123V120.133V120.142V120.151V120.16V120.169V120.178V120.187V120.196V120.205V120.215V120.224V120.233V120.242V120.252V120.261V120.27V120.28V120.289V120.299V120.308V120.317V120.327V120.336V120.346V120.355V120.365V120.374V120.384V120.394V120.403V120.413V120.422V120.432V120.442V120.451V120.461V120.471V120.48V120.49V120.5V120.51V120.52V120.529V120.539V120.549V120.559V120.569V120.579V120.588V120.598V120.608V120.618V120.628V120.638V120.648V120.658V120.668V120.678V120.688V120.698V120.708V120.718V120.728V120.738V120.748V120.759V120.769V120.779V120.789V120.799V120.809V120.819V120.83V120.84V120.85V120.86V120.87V120.88V120.891V120.901V120.911V120.921V120.932V120.942V120.952V120.962V120.973V120.983V120.993V121.004V121.014V121.024V121.035V121.045V121.055V121.066V121.076V121.086V121.097V121.107V121.117V121.128V121.138V121.148V121.159V121.169V121.18V121.19V121.2V121.211V121.221V121.232V121.242V121.252V121.263V121.273V121.284V121.294V121.304V121.315V121.325V121.336V121.346V121.356V121.367V121.377V121.388V121.398V121.409V121.419V121.429V121.44V121.45V121.461V121.471V121.481V121.492V121.502V121.513V121.523V121.533V121.544V121.554V121.565V121.575V121.585V121.596V121.606V121.617V121.627V121.637V121.648V121.658V121.668V121.679V121.689V121.699V121.71V121.72V121.73V121.741V121.751V121.761V121.771V121.782V121.792V121.802V121.812V121.823V121.833V121.843V121.853V121.864V121.874V121.884V121.894V121.904V121.915V121.925V121.935V121.945V121.955V121.965V121.975V121.986V121.996V122.006V122.016V122.026V122.036V122.046V122.056V122.066V122.076V122.086V122.096V122.106V122.116V122.126V122.136V122.146V122.156V122.165V122.175V122.185V122.195V122.205V122.215V122.224V122.234V122.244V122.254V122.263V122.273V122.283V122.293V122.302V122.312V122.322V122.331V122.341V122.35V122.36V122.37V122.379V122.389V122.398V122.408V122.417V122.426V122.436V122.445V122.455V122.464V122.473V122.483V122.492V122.501V122.511V122.52V122.529V122.538V122.548V122.557V122.566V122.575V122.584V122.593V122.602V122.611V122.62V122.629V122.638V122.647V122.656V122.665V122.674V122.683V122.692V122.7V122.709V122.718V122.727V122.735V122.744V122.753V122.761V122.77V122.779V122.787V122.796V122.804V122.813V122.821V122.829V122.838V122.846V122.855V122.863V122.871V122.879V122.888V122.896V122.904V122.912V122.92V122.928V122.937V122.945V122.953V122.961V122.969V122.976V122.984V122.992V123V123.007V123.013V123.02V123.026V123.033V123.04V123.046V123.053V123.06V123.066V123.073V123.08V123.086V123.093V123.1V123.106V123.113V123.12V123.126V123.133V123.14V123.147V123.154V123.16V123.167V123.174V123.181V123.187V123.194V123.201V123.208V123.215V123.222V123.228V123.235V123.242V123.249V123.256V123.263V123.27V123.277V123.284V123.29V123.297V123.304V123.311V123.318V123.325V123.332V123.339V123.346V123.353V123.36V123.367V123.374V123.381V123.388V123.395V123.402V123.409V123.417V123.424V123.431V123.438V123.445V123.452V123.459V123.466V123.473V123.481V123.488V123.495V123.502V123.509V123.516V123.524V123.531V123.538V123.545V123.552V123.56V123.567V123.574V123.581V123.589V123.596V123.603V123.611V123.618V123.625V123.632V123.64V123.647V123.654V123.662V123.669V123.677V123.684V123.691V123.699V123.706V123.713V123.721V123.728V123.736V123.743V123.751V123.758V123.766V123.773V123.78V123.788V123.795V123.803V123.81V123.818V123.826V123.833V123.841V123.848V123.856V123.863V123.871V123.878V123.886V123.894V123.901V123.909V123.916V123.924V123.932V123.939V123.947V123.955V123.962V123.97V123.978V123.985V123.993V124.001V124.009V124.016V124.024V124.032V124.04V124.047V124.055V124.063V124.071V124.078V124.086V124.094V124.102V124.11V124.118V124.125V124.133V124.141V124.149V124.157V124.165V124.173V124.181V124.188V124.196V124.204V124.212V124.22V124.228V124.236V124.244V124.252V124.26V124.268V124.276V124.284V124.292V124.3V124.308V124.316V124.324V124.332V124.34V124.348V124.356V124.364V124.373V124.381V124.389V124.397V124.405V124.413V124.421V124.429V124.438V124.446V124.454V124.462V124.47V124.479V124.487V124.495V124.503V124.511V124.52V124.528V124.536V124.544V124.553V124.561V124.569V124.578V124.586V124.594V124.603V124.611V124.619V124.628V124.636V124.644V124.653V124.661V124.669V124.678V124.686V124.695V124.703V124.711V124.72V124.728V124.737V124.745V124.754V124.762V124.771V124.779V124.788V124.796V124.805V124.813V124.822V124.83V124.839V124.847V124.856V124.865V124.873V124.882V124.89V124.899V124.908V124.916V124.925V124.933V124.942V124.951V124.959V124.968V124.977V124.985V124.994V125.003V125.012V125.02V125.029V125.038V125.046V125.055V125.064V125.073V125.082V125.09V125.099V125.108V125.117V125.126V125.134V125.143V125.152V125.161V125.17V125.179V125.187V125.196V125.205V125.214V125.223V125.232V125.241V125.25V125.259V125.268V125.277V125.286V125.295V125.304V125.313V125.322V125.331V125.34V125.349V125.358V125.367V125.376V125.385V125.394V125.403V125.412V125.421V125.43V125.439V125.448V125.458V125.467V125.476V125.485V125.494V125.503V125.512V125.522V125.531V125.54V125.549V125.558V125.568V125.577V125.586V125.595V125.604V125.614V125.623V125.632V125.642V125.651V125.66V125.669V125.679V125.688V125.697V125.707V125.716V125.725V125.735V125.744V125.754V125.763V125.772V125.782V125.791V125.801V125.81V125.819V125.829V125.838V125.848V125.857V125.867V125.876V125.886V125.895V125.905V125.914V125.924V125.933V125.943V125.952V125.962V125.972V125.981V125.991V126V126.01V126.019V126.029V126.039V126.048V126.058V126.068V126.077V126.087V126.097V126.106V126.116V126.126V126.135V126.145V126.155V126.165V126.174V126.184V126.194V126.203V126.213V126.223V126.233V126.243V126.252V126.262V126.272V126.282V126.292V126.302V126.311V126.321V126.331V126.341V126.351V126.361V126.371V126.381V126.39V126.4V126.41V126.42V126.43V126.44V126.45V126.46V126.47V126.48V126.49V126.5V126.51V126.52V126.53V126.54V126.55V126.56V126.57V126.58V126.59V126.601V126.611V126.621V126.631V126.641V126.651V126.661V126.671V126.682V126.692V126.702V126.712V126.722V126.732V126.743V126.753V126.763V126.773V126.783V126.794V126.804V126.814V126.824V126.835V126.845V126.855V126.866V126.876V126.886V126.897V126.907V126.917V126.928V126.938V126.948V126.959V126.969V126.979V126.99V127V127.011V127.021V127.031V127.042V127.052V127.063V127.073V127.084V127.094V127.105V127.115V127.126V127.136V127.147V127.157V127.168V127.178V127.189V127.199V127.21V127.22V127.231V127.242V127.252V127.263V127.273V127.284V127.295V127.305V127.316V127.327V127.337V127.348V127.359V127.369V127.38V127.391V127.401V127.412V127.423V127.434V127.44V127.446V127.453V127.459V127.466V127.473V127.48V127.487V127.494V127.501V127.508V127.516V127.523V127.531V127.539V127.546V127.554V127.562V127.57V127.578V127.587V127.595V127.603V127.612V127.621V127.629V127.638V127.647V127.656V127.665V127.674V127.683V127.693V127.702V127.712V127.721V127.731V127.741V127.75V127.76V127.77V127.78V127.791V127.801V127.811V127.822V127.832V127.843V127.853V127.864V127.875V127.886V127.897V127.908V127.919V127.93V127.941V127.953V127.964V127.976V127.987V127.999V128.011V128.022V128.034V128.046V128.058V128.07V128.083V128.095V128.107V128.119V128.132V128.144V128.157V128.17V128.182V128.195V128.208V128.221V128.234V128.247V128.26V128.273V128.286V128.3V128.313V128.327V128.34V128.354V128.367V128.381V128.395V128.408V128.422V128.436V128.45V128.464V128.478V128.493V128.507V128.521V128.535V128.55V128.564V128.579V128.593V128.608V128.622V128.637V128.652V128.667V128.682V128.696V128.711V128.726V128.741V128.757V128.772V128.787V128.802V128.817V128.833V128.848V128.864V128.879V128.895V128.91V128.926V128.942V128.957V128.973V128.989V129.005V129.021V129.036V129.052V129.068V129.084V129.101V129.117V129.133V129.149V129.165V129.182V129.198V129.214V129.231V129.247V129.264V129.28V129.297V129.313V129.33V129.346V129.363V129.38V129.396V129.413V129.43V129.447V129.464V129.48V129.497V129.514V129.531V129.548V129.565V129.582V129.599V129.616V129.634V129.651V129.668V129.685V129.702V129.72V129.737V129.754V129.771V129.789V129.806V129.823V129.841V129.858V129.876V129.893V129.911V129.928V129.946V129.963V129.981V129.998V130.016V130.033V130.051V130.069V130.086V130.104V130.122V130.139V130.157V130.175V130.192V130.21V130.228V130.245V130.263V130.281V130.299V130.316V130.334V130.352V130.37V130.388V130.405V130.423V130.441V130.459V130.477V130.495V130.512V130.53V130.548V130.566V130.584V130.602V130.619V130.637V130.655V130.673V130.691V130.709V130.726V130.744V130.762V130.78V130.798V130.816V130.833V130.851V130.869V130.887V130.905V130.922V130.94V130.958V130.976V130.993V131.011V131.029V131.047V131.064V131.082V131.1V131.117V131.135V131.153V131.17V131.188V131.206V131.223V131.241V131.258V131.276V131.293V131.311V131.328V131.346V131.363V131.381V131.398V131.416V131.433V131.45V131.468V131.485V131.502V131.52V131.537V131.554V131.571V131.589V131.606V131.623V131.64V131.657V131.674V131.691V131.708V131.725V131.742V131.759V131.776V131.793V131.81V131.827V131.843V131.86V131.877V131.894V131.91V131.927V131.943V131.96V131.977V131.993V132.009V132.026V132.042V132.059V132.075V132.091V132.107V132.124V132.14V132.156V132.172V132.188V132.204V132.22V132.236V132.252V132.268V132.283V132.299V132.315V132.331V132.346V132.362V132.377V132.393V132.408V132.424V132.439V132.454V132.469V132.485V132.5V132.515V132.53V132.545V132.56V132.575V132.59V132.604V132.619V132.634V132.649V132.663V132.678V132.692V132.707V132.721V132.735V132.75V132.764V132.778V132.792V132.806V132.82V132.834V132.848V132.862V132.875V132.889V132.903V132.916V132.93V132.943V132.956V132.97V132.983V132.996V133.009V133.022V133.035V133.048V133.061V133.074V133.086V133.099V133.112V133.124V133.137V133.149V133.161V133.174V133.186V133.198V133.21V133.222V133.234V133.245V133.257V133.269V133.28V133.292V133.303V133.315V133.326V133.337V133.348V133.359V133.37V133.381V133.392V133.403V133.413V133.424V133.434V133.445V133.455V133.465V133.475V133.486V133.496V133.5H290.5C289.119 133.5 288 134.619 288 136H287.5C281.425 136 276.5 140.925 276.5 147V197C276.5 203.075 281.425 208 287.5 208H337.5C343.575 208 348.5 203.075 348.5 197V147C348.5 140.925 343.575 136 337.5 136H337C337 134.619 335.881 133.5 334.5 133.5H333.5V119C333.5 107.402 324.098 98 312.5 98ZM336 136C336 135.172 335.328 134.5 334.5 134.5H333.5V135H332.5H324.5H323.5V134.5H322.5C321.672 134.5 321 135.172 321 136H336ZM320 136C320 134.619 321.119 133.5 322.5 133.5H323.5V119.067L323.492 119.014C323.481 118.936 323.462 118.818 323.433 118.665C323.377 118.36 323.285 117.917 323.142 117.383C322.856 116.313 322.371 114.896 321.583 113.489C320.016 110.694 317.3 108 312.5 108C307.7 108 304.984 110.694 303.417 113.489C302.629 114.896 302.144 116.313 301.858 117.383C301.715 117.917 301.623 118.36 301.567 118.665C301.538 118.818 301.519 118.936 301.508 119.014L301.5 119.067V133.5H302.5C303.881 133.5 305 134.619 305 136H320ZM304 136C304 135.172 303.328 134.5 302.5 134.5H301.5V135H300.5H292.5H291.5V134.5H290.5C289.672 134.5 289 135.172 289 136H304ZM292.5 119H293.5C293.5 108.507 302.007 100 312.5 100C322.993 100 331.5 108.507 331.5 119V133H325.5V119V118.94L325.493 118.88L324.5 119C325.493 118.88 325.493 118.879 325.493 118.879L325.492 118.878L325.492 118.874L325.491 118.864L325.486 118.832C325.483 118.804 325.477 118.766 325.47 118.717C325.455 118.619 325.433 118.479 325.4 118.304C325.336 117.953 325.232 117.458 325.074 116.867C324.759 115.687 324.22 114.104 323.327 112.511C321.531 109.306 318.247 106 312.5 106C306.753 106 303.469 109.306 301.673 112.511C300.78 114.104 300.241 115.687 299.926 116.867C299.768 117.458 299.664 117.953 299.6 118.304C299.567 118.479 299.545 118.619 299.53 118.717C299.523 118.766 299.517 118.804 299.514 118.832L299.509 118.864L299.508 118.874L299.508 118.878L299.507 118.879C299.507 118.879 299.507 118.88 300.5 119L299.507 118.88L299.5 118.94V119V133H293.5V132.996V132.983V132.97V132.956V132.943V132.93V132.916V132.903V132.889V132.875V132.862V132.848V132.834V132.82V132.806V132.792V132.778V132.764V132.75V132.735V132.721V132.707V132.692V132.678V132.663V132.649V132.634V132.619V132.604V132.59V132.575V132.56V132.545V132.53V132.515V132.5V132.485V132.469V132.454V132.439V132.424V132.408V132.393V132.377V132.362V132.346V132.331V132.315V132.299V132.283V132.268V132.252V132.236V132.22V132.204V132.188V132.172V132.156V132.14V132.124V132.107V132.091V132.075V132.059V132.042V132.026V132.009V131.993V131.977V131.96V131.943V131.927V131.91V131.894V131.877V131.86V131.843V131.827V131.81V131.793V131.776V131.759V131.742V131.725V131.708V131.691V131.674V131.657V131.64V131.623V131.606V131.589V131.571V131.554V131.537V131.52V131.502V131.485V131.468V131.45V131.433V131.416V131.398V131.381V131.363V131.346V131.328V131.311V131.293V131.276V131.258V131.241V131.223V131.206V131.188V131.17V131.153V131.135V131.117V131.1V131.082V131.064V131.047V131.029V131.011V130.993V130.976V130.958V130.94V130.922V130.905V130.887V130.869V130.851V130.833V130.816V130.798V130.78V130.762V130.744V130.726V130.709V130.691V130.673V130.655V130.637V130.619V130.602V130.584V130.566V130.548V130.53V130.512V130.495V130.477V130.459V130.441V130.423V130.405V130.388V130.37V130.352V130.334V130.316V130.299V130.281V130.263V130.245V130.228V130.21V130.192V130.175V130.157V130.139V130.122V130.104V130.086V130.069V130.051V130.033V130.016V129.998V129.981V129.963V129.946V129.928V129.911V129.893V129.876V129.858V129.841V129.823V129.806V129.789V129.771V129.754V129.737V129.72V129.702V129.685V129.668V129.651V129.634V129.616V129.599V129.582V129.565V129.548V129.531V129.514V129.497V129.48V129.464V129.447V129.43V129.413V129.396V129.38V129.363V129.346V129.33V129.313V129.297V129.28V129.264V129.247V129.231V129.214V129.198V129.182V129.165V129.149V129.133V129.117V129.101V129.084V129.068V129.052V129.036V129.021V129.005V128.989V128.973V128.957V128.942V128.926V128.91V128.895V128.879V128.864V128.848V128.833V128.817V128.802V128.787V128.772V128.757V128.741V128.726V128.711V128.696V128.682V128.667V128.652V128.637V128.622V128.608V128.593V128.579V128.564V128.55V128.535V128.521V128.507V128.493V128.478V128.464V128.45V128.436V128.422V128.408V128.395V128.381V128.367V128.354V128.34V128.327V128.313V128.3V128.286V128.273V128.26V128.247V128.234V128.221V128.208V128.195V128.182V128.17V128.157V128.144V128.132V128.119V128.107V128.095V128.083V128.07V128.058V128.046V128.034V128.022V128.011V127.999V127.987V127.976V127.964V127.953V127.941V127.93V127.919V127.908V127.897V127.886V127.875V127.864V127.853V127.843V127.832V127.822V127.811V127.801V127.791V127.78V127.77V127.76V127.75V127.741V127.731V127.721V127.712V127.702V127.693V127.683V127.674V127.665V127.656V127.647V127.638V127.629V127.621V127.612V127.603V127.595V127.587V127.578V127.57V127.562V127.554V127.546V127.539V127.531V127.523V127.516V127.508V127.501V127.494V127.487V127.48V127.473V127.466V127.459V127.453V127.446V127.44V127.434V127.423V127.412V127.401V127.391V127.38V127.369V127.359V127.348V127.337V127.327V127.316V127.305V127.295V127.284V127.273V127.263V127.252V127.242V127.231V127.22V127.21V127.199V127.189V127.178V127.168V127.157V127.147V127.136V127.126V127.115V127.105V127.094V127.084V127.073V127.063V127.052V127.042V127.031V127.021V127.011V127V126.99V126.979V126.969V126.959V126.948V126.938V126.928V126.917V126.907V126.897V126.886V126.876V126.866V126.855V126.845V126.835V126.824V126.814V126.804V126.794V126.783V126.773V126.763V126.753V126.743V126.732V126.722V126.712V126.702V126.692V126.682V126.671V126.661V126.651V126.641V126.631V126.621V126.611V126.601V126.59V126.58V126.57V126.56V126.55V126.54V126.53V126.52V126.51V126.5V126.49V126.48V126.47V126.46V126.45V126.44V126.43V126.42V126.41V126.4V126.39V126.381V126.371V126.361V126.351V126.341V126.331V126.321V126.311V126.302V126.292V126.282V126.272V126.262V126.252V126.243V126.233V126.223V126.213V126.203V126.194V126.184V126.174V126.165V126.155V126.145V126.135V126.126V126.116V126.106V126.097V126.087V126.077V126.068V126.058V126.048V126.039V126.029V126.019V126.01V126V125.991V125.981V125.972V125.962V125.952V125.943V125.933V125.924V125.914V125.905V125.895V125.886V125.876V125.867V125.857V125.848V125.838V125.829V125.819V125.81V125.801V125.791V125.782V125.772V125.763V125.754V125.744V125.735V125.725V125.716V125.707V125.697V125.688V125.679V125.669V125.66V125.651V125.642V125.632V125.623V125.614V125.604V125.595V125.586V125.577V125.568V125.558V125.549V125.54V125.531V125.522V125.512V125.503V125.494V125.485V125.476V125.467V125.458V125.448V125.439V125.43V125.421V125.412V125.403V125.394V125.385V125.376V125.367V125.358V125.349V125.34V125.331V125.322V125.313V125.304V125.295V125.286V125.277V125.268V125.259V125.25V125.241V125.232V125.223V125.214V125.205V125.196V125.187V125.179V125.17V125.161V125.152V125.143V125.134V125.126V125.117V125.108V125.099V125.09V125.082V125.073V125.064V125.055V125.046V125.038V125.029V125.02V125.012V125.003V124.994V124.985V124.977V124.968V124.959V124.951V124.942V124.933V124.925V124.916V124.908V124.899V124.89V124.882V124.873V124.865V124.856V124.847V124.839V124.83V124.822V124.813V124.805V124.796V124.788V124.779V124.771V124.762V124.754V124.745V124.737V124.728V124.72V124.711V124.703V124.695V124.686V124.678V124.669V124.661V124.653V124.644V124.636V124.628V124.619V124.611V124.603V124.594V124.586V124.578V124.569V124.561V124.553V124.544V124.536V124.528V124.52V124.511V124.503V124.495V124.487V124.479V124.47V124.462V124.454V124.446V124.438V124.429V124.421V124.413V124.405V124.397V124.389V124.381V124.373V124.364V124.356V124.348V124.34V124.332V124.324V124.316V124.308V124.3V124.292V124.284V124.276V124.268V124.26V124.252V124.244V124.236V124.228V124.22V124.212V124.204V124.196V124.188V124.181V124.173V124.165V124.157V124.149V124.141V124.133V124.125V124.118V124.11V124.102V124.094V124.086V124.078V124.071V124.063V124.055V124.047V124.04V124.032V124.024V124.016V124.009V124.001V123.993V123.985V123.978V123.97V123.962V123.955V123.947V123.939V123.932V123.924V123.916V123.909V123.901V123.894V123.886V123.878V123.871V123.863V123.856V123.848V123.841V123.833V123.826V123.818V123.81V123.803V123.795V123.788V123.78V123.773V123.766V123.758V123.751V123.743V123.736V123.728V123.721V123.713V123.706V123.699V123.691V123.684V123.677V123.669V123.662V123.654V123.647V123.64V123.632V123.625V123.618V123.611V123.603V123.596V123.589V123.581V123.574V123.567V123.56V123.552V123.545V123.538V123.531V123.524V123.516V123.509V123.502V123.495V123.488V123.481V123.473V123.466V123.459V123.452V123.445V123.438V123.431V123.424V123.417V123.409V123.402V123.395V123.388V123.381V123.374V123.367V123.36V123.353V123.346V123.339V123.332V123.325V123.318V123.311V123.304V123.297V123.29V123.284V123.277V123.27V123.263V123.256V123.249V123.242V123.235V123.228V123.222V123.215V123.208V123.201V123.194V123.187V123.181V123.174V123.167V123.16V123.154V123.147V123.14V123.133V123.126V123.12V123.113V123.106V123.1V123.093V123.086V123.08V123.073V123.066V123.06V123.053V123.046V123.04V123.033V123.026V123.02V123.013V123.007V123V122.992V122.984V122.976V122.969V122.961V122.953V122.945V122.937V122.928V122.92V122.912V122.904V122.896V122.888V122.879V122.871V122.863V122.855V122.846V122.838V122.829V122.821V122.813V122.804V122.796V122.787V122.779V122.77V122.761V122.753V122.744V122.735V122.727V122.718V122.709V122.7V122.692V122.683V122.674V122.665V122.656V122.647V122.638V122.629V122.62V122.611V122.602V122.593V122.584V122.575V122.566V122.557V122.548V122.538V122.529V122.52V122.511V122.501V122.492V122.483V122.473V122.464V122.455V122.445V122.436V122.426V122.417V122.408V122.398V122.389V122.379V122.37V122.36V122.35V122.341V122.331V122.322V122.312V122.302V122.293V122.283V122.273V122.263V122.254V122.244V122.234V122.224V122.215V122.205V122.195V122.185V122.175V122.165V122.156V122.146V122.136V122.126V122.116V122.106V122.096V122.086V122.076V122.066V122.056V122.046V122.036V122.026V122.016V122.006V121.996V121.986V121.975V121.965V121.955V121.945V121.935V121.925V121.915V121.904V121.894V121.884V121.874V121.864V121.853V121.843V121.833V121.823V121.812V121.802V121.792V121.782V121.771V121.761V121.751V121.741V121.73V121.72V121.71V121.699V121.689V121.679V121.668V121.658V121.648V121.637V121.627V121.617V121.606V121.596V121.585V121.575V121.565V121.554V121.544V121.533V121.523V121.513V121.502V121.492V121.481V121.471V121.461V121.45V121.44V121.429V121.419V121.409V121.398V121.388V121.377V121.367V121.356V121.346V121.336V121.325V121.315V121.304V121.294V121.284V121.273V121.263V121.252V121.242V121.232V121.221V121.211V121.2V121.19V121.18V121.169V121.159V121.148V121.138V121.128V121.117V121.107V121.097V121.086V121.076V121.066V121.055V121.045V121.035V121.024V121.014V121.004V120.993V120.983V120.973V120.962V120.952V120.942V120.932V120.921V120.911V120.901V120.891V120.88V120.87V120.86V120.85V120.84V120.83V120.819V120.809V120.799V120.789V120.779V120.769V120.759V120.748V120.738V120.728V120.718V120.708V120.698V120.688V120.678V120.668V120.658V120.648V120.638V120.628V120.618V120.608V120.598V120.588V120.579V120.569V120.559V120.549V120.539V120.529V120.52V120.51V120.5V120.49V120.48V120.471V120.461V120.451V120.442V120.432V120.422V120.413V120.403V120.394V120.384V120.374V120.365V120.355V120.346V120.336V120.327V120.317V120.308V120.299V120.289V120.28V120.27V120.261V120.252V120.242V120.233V120.224V120.215V120.205V120.196V120.187V120.178V120.169V120.16V120.151V120.142V120.133V120.123V120.114V120.106V120.097V120.088V120.079V120.07V120.061V120.052V120.043V120.035V120.026V120.017V120.008V120V119.991V119.982V119.974V119.965V119.957V119.948V119.939V119.931V119.922V119.914V119.906V119.897V119.889V119.881V119.872V119.864V119.856V119.848V119.839V119.831V119.823V119.815V119.807V119.799V119.791V119.783V119.775V119.767V119.759V119.751V119.743V119.736V119.728V119.72V119.712V119.705V119.697V119.689V119.682V119.674V119.667V119.659V119.652V119.644V119.637V119.63V119.622V119.615V119.608V119.6V119.593V119.586V119.579V119.572V119.565V119.558V119.551V119.544V119.537V119.53V119.523V119.516V119.51V119.503V119.496V119.489V119.483V119.476V119.47V119.463V119.457V119.45V119.444V119.438V119.431V119.425V119.419V119.412V119.406V119.4V119.394V119.388V119.382V119.376V119.37V119.364V119.358V119.352V119.347V119.341V119.335V119.33V119.324V119.318V119.313V119.307V119.302V119.297V119.291V119.286V119.281V119.275V119.27V119.265V119.26V119.255V119.25V119.245V119.24V119.235V119.23V119.225V119.221V119.216V119.211V119.207V119.202V119.198V119.193V119.189V119.184V119.18V119.176V119.172V119.167V119.163V119.159V119.155V119.151V119.147V119.143V119.139V119.136V119.132V119.128V119.124V119.121V119.117V119.114V119.11V119.107V119.103V119.1V119.097V119.094V119.09V119.087V119.084V119.081V119.078V119.075V119.073V119.07V119.067V119.064V119.062V119.059V119.057V119.054V119.052V119.049V119.047V119.045V119.042V119.04V119.038V119.036V119.034V119.032V119.03V119.028V119.027V119.025V119.023V119.022V119.02V119.019V119.017V119.016V119.014V119.013V119.012V119.011V119.01V119.009V119.008V119.007V119.006V119.005V119.004V119.004V119.003V119.002V119.002V119.001V119.001V119.001V119V119V119V119L292.5 119Z"
        fill="#E5CFC7" />
  <path fill-rule="evenodd" clip-rule="evenodd"
        d="M308 218.622V220.622H307V218.622H308ZM308 224.622V222.622H307V224.622H308ZM308 226.622V228.622H307V226.622H308ZM308 232.622V230.622H307V232.622H308ZM308 234.622V236.622H307V234.622H308ZM308 240.622V238.622H307V240.622H308ZM230.878 242.5H228.878V241.5H230.878V242.5ZM234.878 242.5H232.878V241.5H234.878V242.5ZM236.878 242.5H238.878V241.5H236.878V242.5ZM242.878 242.5H240.878V241.5H242.878V242.5ZM244.878 242.5H246.878V241.5H244.878V242.5ZM250.878 242.5H248.878V241.5H250.878V242.5ZM252.878 242.5H254.878V241.5H252.878V242.5ZM258.878 242.5H256.878V241.5H258.878V242.5ZM260.878 242.5H262.878V241.5H260.878V242.5ZM266.878 242.5H264.878V241.5H266.878V242.5ZM268.878 242.5H270.878V241.5H268.878V242.5ZM274.878 242.5H272.878V241.5H274.878V242.5ZM276.878 242.5H278.878V241.5H276.878V242.5ZM282.878 242.5H280.878V241.5H282.878V242.5ZM284.878 242.5H286.878V241.5H284.878V242.5ZM290.878 242.5H288.878V241.5H290.878V242.5ZM292.878 242.5H294.878V241.5H292.878V242.5ZM298.878 242.5H296.878V241.5H298.878V242.5ZM300.878 242.5H302.878V241.5H300.878V242.5ZM306.878 242.5H304.878V241.5H306.878V242.5Z"
        fill="#291D18" />
  <path fill-rule="evenodd" clip-rule="evenodd"
        d="M308 78.5V76.5H307V78.5H308ZM308 72.5V74.5H307V72.5H308ZM308 70.5V68.5H307V70.5H308ZM308 64.5V66.5H307V64.5H308ZM308 62.5V60.5H307V62.5H308ZM308 56.5V58.5H307V56.5H308ZM230.878 54.6221H228.878V55.6221H230.878V54.6221ZM234.878 54.6221H232.878V55.6221H234.878V54.6221ZM236.878 54.6221H238.878V55.6221H236.878V54.6221ZM242.878 54.6221H240.878V55.6221H242.878V54.6221ZM244.878 54.6221H246.878V55.6221H244.878V54.6221ZM250.878 54.6221H248.878V55.6221H250.878V54.6221ZM252.878 54.6221H254.878V55.6221H252.878V54.6221ZM258.878 54.6221H256.878V55.6221H258.878V54.6221ZM260.878 54.6221H262.878V55.6221H260.878V54.6221ZM266.878 54.6221H264.878V55.6221H266.878V54.6221ZM268.878 54.6221H270.878V55.6221H268.878V54.6221ZM274.878 54.6221H272.878V55.6221H274.878V54.6221ZM276.878 54.6221H278.878V55.6221H276.878V54.6221ZM282.878 54.6221H280.878V55.6221H282.878V54.6221ZM284.878 54.6221H286.878V55.6221H284.878V54.6221ZM290.878 54.6221H288.878V55.6221H290.878V54.6221ZM292.878 54.6221H294.878V55.6221H292.878V54.6221ZM298.878 54.6221H296.878V55.6221H298.878V54.6221ZM300.878 54.6221H302.878V55.6221H300.878V54.6221ZM306.878 54.6221H304.878V55.6221H306.878V54.6221Z"
        fill="#291D18" />
  <path
    d="M204.5 1C211.577 1 217.333 6.65519 217.496 13.6931L217.5 14V282C217.5 289.077 211.845 294.833 204.807 294.996L204.5 295H78.5C71.4229 295 65.6666 289.345 65.5036 282.307L65.5 282V50.2227C65.5 49.6704 65.9477 49.2227 66.5 49.2227C67.0128 49.2227 67.4355 49.6087 67.4933 50.106L67.5 50.2227V282C67.5 287.979 72.2698 292.843 78.2116 292.996L78.5 293H204.5C210.479 293 215.343 288.23 215.496 282.288L215.5 282V14C215.5 8.0213 210.73 3.15663 204.788 3.00371L204.5 3H78.5C72.5213 3 67.6566 7.76976 67.5037 13.7116L67.5 14V37C67.5 37.5523 67.0523 38 66.5 38C65.9872 38 65.5645 37.614 65.5067 37.1166L65.5 37V14C65.5 6.92287 71.1552 1.16657 78.1931 1.00355L78.5 1H204.5Z"
    fill="#291D18" />
  <circle cx="178.5" cy="11" r="1" fill="#291D18" />
  <path fill-rule="evenodd" clip-rule="evenodd"
        d="M129 40C129 33.0964 134.596 27.5 141.5 27.5C148.404 27.5 154 33.0964 154 40C154 46.9036 148.404 52.5 141.5 52.5C134.596 52.5 129 46.9036 129 40ZM153 40C153 33.6487 147.851 28.5 141.5 28.5C135.149 28.5 130 33.6487 130 40C130 46.3513 135.149 51.5 141.5 51.5C147.851 51.5 153 46.3513 153 40Z"
        fill="#291D18" />
  <rect x="101.5" y="10" width="72" height="2" rx="1" fill="#291D18" />
  <path
    d="M111.5 105.5C111.776 105.5 112 105.724 112 106C112 106.245 111.823 106.45 111.59 106.492L111.5 106.5H100.5C94.1487 106.5 89 111.649 89 118C89 124.254 93.9915 129.341 100.208 129.496L100.5 129.5H196.5C202.851 129.5 208 124.351 208 118C208 111.746 203.008 106.659 196.792 106.504L196.5 106.5H119.5C119.224 106.5 119 106.276 119 106C119 105.755 119.177 105.55 119.41 105.508L119.5 105.5H196.5C203.404 105.5 209 111.096 209 118C209 124.801 203.569 130.333 196.808 130.496L196.5 130.5H100.5C93.5964 130.5 88 124.904 88 118C88 111.199 93.4306 105.667 100.192 105.504L100.5 105.5H111.5Z"
    fill="#291D18" />
  <path fill-rule="evenodd" clip-rule="evenodd"
        d="M122.5 192.5H200.5C205.194 192.5 209 196.306 209 201C209 205.694 205.194 209.5 200.5 209.5H122.5C117.806 209.5 114 205.694 114 201C114 196.306 117.806 192.5 122.5 192.5ZM200.5 193.5H122.5C118.358 193.5 115 196.858 115 201C115 205.142 118.358 208.5 122.5 208.5H200.5C204.642 208.5 208 205.142 208 201C208 196.858 204.642 193.5 200.5 193.5Z"
        fill="#291D18" />
  <path
    d="M162.5 57.5C162.776 57.5 163 57.7239 163 58C163 58.2455 162.823 58.4496 162.59 58.4919L162.5 58.5H120.5C120.224 58.5 120 58.2761 120 58C120 57.7545 120.177 57.5504 120.41 57.5081L120.5 57.5H162.5Z"
    fill="#291D18" />
  <path
    d="M190.5 184C191.052 184 191.5 184.448 191.5 185C191.5 185.513 191.114 185.936 190.617 185.993L190.5 186H66.5C65.9477 186 65.5 185.552 65.5 185C65.5 184.487 65.886 184.064 66.3834 184.007L66.5 184H190.5Z"
    fill="#291D18" />
  <path
    d="M216 184C216.552 184 217 184.448 217 185C217 185.513 216.614 185.936 216.117 185.993L216 186H200C199.448 186 199 185.552 199 185C199 184.487 199.386 184.064 199.883 184.007L200 184H216Z"
    fill="#291D18" />
  <path
    d="M102.5 85.5C102.776 85.5 103 85.7239 103 86C103 86.2455 102.823 86.4496 102.59 86.4919L102.5 86.5H94.5C94.2239 86.5 94 86.2761 94 86C94 85.7545 94.1769 85.5504 94.4101 85.5081L94.5 85.5H102.5Z"
    fill="#291D18" />
  <path
    d="M118.5 85.5C118.776 85.5 119 85.7239 119 86C119 86.2455 118.823 86.4496 118.59 86.4919L118.5 86.5H110.5C110.224 86.5 110 86.2761 110 86C110 85.7545 110.177 85.5504 110.41 85.5081L110.5 85.5H118.5Z"
    fill="#291D18" />
  <path
    d="M134.5 85.5C134.776 85.5 135 85.7239 135 86C135 86.2455 134.823 86.4496 134.59 86.4919L134.5 86.5H126.5C126.224 86.5 126 86.2761 126 86C126 85.7545 126.177 85.5504 126.41 85.5081L126.5 85.5H134.5Z"
    fill="#291D18" />
  <path
    d="M150.5 85.5C150.776 85.5 151 85.7239 151 86C151 86.2455 150.823 86.4496 150.59 86.4919L150.5 86.5H142.5C142.224 86.5 142 86.2761 142 86C142 85.7545 142.177 85.5504 142.41 85.5081L142.5 85.5H150.5Z"
    fill="#291D18" />
  <path fill-rule="evenodd" clip-rule="evenodd"
        d="M170.5 86C170.5 79.3726 165.127 74 158.5 74H86.5C79.8726 74 74.5 79.3726 74.5 86C74.5 92.6274 79.8726 98 86.5 98H158.5C165.127 98 170.5 92.6274 170.5 86ZM86.5 75H158.5L158.788 75.0037C164.73 75.1566 169.5 80.0213 169.5 86C169.5 92.0751 164.575 97 158.5 97H86.5L86.2116 96.9963C80.2698 96.8434 75.5 91.9787 75.5 86C75.5 79.9249 80.4249 75 86.5 75Z"
        fill="#291D18" />
  <path fill-rule="evenodd" clip-rule="evenodd"
        d="M195 201C195 197.962 197.462 195.5 200.5 195.5C203.538 195.5 206 197.962 206 201C206 204.038 203.538 206.5 200.5 206.5C197.462 206.5 195 204.038 195 201ZM205 201C205 198.515 202.985 196.5 200.5 196.5C198.015 196.5 196 198.515 196 201C196 203.485 198.015 205.5 200.5 205.5C202.985 205.5 205 203.485 205 201Z"
        fill="#291D18" />
  <path fill-rule="evenodd" clip-rule="evenodd"
        d="M74 201C74 196.306 77.8056 192.5 82.5 192.5C87.1944 192.5 91 196.306 91 201C91 205.694 87.1944 209.5 82.5 209.5C77.8056 209.5 74 205.694 74 201ZM90 201C90 196.858 86.6421 193.5 82.5 193.5C78.3579 193.5 75 196.858 75 201C75 205.142 78.3579 208.5 82.5 208.5C86.6421 208.5 90 205.142 90 201Z"
        fill="#291D18" />
  <path fill-rule="evenodd" clip-rule="evenodd"
        d="M94 201C94 196.306 97.8056 192.5 102.5 192.5C107.194 192.5 111 196.306 111 201C111 205.694 107.194 209.5 102.5 209.5C97.8056 209.5 94 205.694 94 201ZM110 201C110 196.858 106.642 193.5 102.5 193.5C98.3579 193.5 95 196.858 95 201C95 205.142 98.3579 208.5 102.5 208.5C106.642 208.5 110 205.142 110 201Z"
        fill="#291D18" />
  <path fill-rule="evenodd" clip-rule="evenodd"
        d="M172.5 275C172.5 272.791 170.709 271 168.5 271H114.5C112.291 271 110.5 272.791 110.5 275V279C110.5 281.209 112.291 283 114.5 283H168.5C170.709 283 172.5 281.209 172.5 279V275ZM114.5 272H168.5L168.676 272.005C170.251 272.096 171.5 273.402 171.5 275V279L171.495 279.176C171.404 280.751 170.098 282 168.5 282H114.5L114.324 281.995C112.749 281.904 111.5 280.598 111.5 279V275L111.505 274.824C111.596 273.249 112.902 272 114.5 272Z"
        fill="#291D18" />
  <path fill-rule="evenodd" clip-rule="evenodd"
        d="M106.5 275C106.5 272.791 104.709 271 102.5 271H78.5C76.2909 271 74.5 272.791 74.5 275V279C74.5 281.209 76.2909 283 78.5 283H102.5C104.709 283 106.5 281.209 106.5 279V275ZM78.5 272H102.5L102.676 272.005C104.251 272.096 105.5 273.402 105.5 275V279L105.495 279.176C105.404 280.751 104.098 282 102.5 282H78.5L78.3237 281.995C76.7489 281.904 75.5 280.598 75.5 279V275L75.5051 274.824C75.5963 273.249 76.9023 272 78.5 272Z"
        fill="#291D18" />
  <path fill-rule="evenodd" clip-rule="evenodd"
        d="M208.5 275C208.5 272.791 206.709 271 204.5 271H180.5C178.291 271 176.5 272.791 176.5 275V279C176.5 281.209 178.291 283 180.5 283H204.5C206.709 283 208.5 281.209 208.5 279V275ZM180.5 272H204.5L204.676 272.005C206.251 272.096 207.5 273.402 207.5 275V279L207.495 279.176C207.404 280.751 206.098 282 204.5 282H180.5L180.324 281.995C178.749 281.904 177.5 280.598 177.5 279V275L177.505 274.824C177.596 273.249 178.902 272 180.5 272Z"
        fill="#291D18" />
  <path fill-rule="evenodd" clip-rule="evenodd"
        d="M85.5 221C85.5 218.791 83.7091 217 81.5 217H78.5C76.2909 217 74.5 218.791 74.5 221V227C74.5 229.209 76.2909 231 78.5 231H81.5C83.7091 231 85.5 229.209 85.5 227V221ZM78.5 218H81.5L81.6763 218.005C83.2511 218.096 84.5 219.402 84.5 221V227L84.4949 227.176C84.4037 228.751 83.0977 230 81.5 230H78.5L78.3237 229.995C76.7489 229.904 75.5 228.598 75.5 227V221L75.5051 220.824C75.5963 219.249 76.9023 218 78.5 218Z"
        fill="#291D18" />
  <path fill-rule="evenodd" clip-rule="evenodd"
        d="M100.5 221C100.5 218.791 98.7091 217 96.5 217H93.5C91.2909 217 89.5 218.791 89.5 221V227C89.5 229.209 91.2909 231 93.5 231H96.5C98.7091 231 100.5 229.209 100.5 227V221ZM93.5 218H96.5L96.6763 218.005C98.2511 218.096 99.5 219.402 99.5 221V227L99.4949 227.176C99.4037 228.751 98.0977 230 96.5 230H93.5L93.3237 229.995C91.7489 229.904 90.5 228.598 90.5 227V221L90.5051 220.824C90.5963 219.249 91.9023 218 93.5 218Z"
        fill="#291D18" />
  <path fill-rule="evenodd" clip-rule="evenodd"
        d="M115.5 221C115.5 218.791 113.709 217 111.5 217H108.5C106.291 217 104.5 218.791 104.5 221V227C104.5 229.209 106.291 231 108.5 231H111.5C113.709 231 115.5 229.209 115.5 227V221ZM108.5 218H111.5L111.676 218.005C113.251 218.096 114.5 219.402 114.5 221V227L114.495 227.176C114.404 228.751 113.098 230 111.5 230H108.5L108.324 229.995C106.749 229.904 105.5 228.598 105.5 227V221L105.505 220.824C105.596 219.249 106.902 218 108.5 218Z"
        fill="#291D18" />
  <path fill-rule="evenodd" clip-rule="evenodd"
        d="M94.5 239C94.5 236.791 92.7091 235 90.5 235H87.5C85.2909 235 83.5 236.791 83.5 239V245C83.5 247.209 85.2909 249 87.5 249H90.5C92.7091 249 94.5 247.209 94.5 245V239ZM87.5 236H90.5L90.6763 236.005C92.2511 236.096 93.5 237.402 93.5 239V245L93.4949 245.176C93.4037 246.751 92.0977 248 90.5 248H87.5L87.3237 247.995C85.7489 247.904 84.5 246.598 84.5 245V239L84.5051 238.824C84.5963 237.249 85.9023 236 87.5 236Z"
        fill="#291D18" />
  <path fill-rule="evenodd" clip-rule="evenodd"
        d="M109.5 239C109.5 236.791 107.709 235 105.5 235H102.5C100.291 235 98.5 236.791 98.5 239V245C98.5 247.209 100.291 249 102.5 249H105.5C107.709 249 109.5 247.209 109.5 245V239ZM102.5 236H105.5L105.676 236.005C107.251 236.096 108.5 237.402 108.5 239V245L108.495 245.176C108.404 246.751 107.098 248 105.5 248H102.5L102.324 247.995C100.749 247.904 99.5 246.598 99.5 245V239L99.5051 238.824C99.5963 237.249 100.902 236 102.5 236Z"
        fill="#291D18" />
  <path fill-rule="evenodd" clip-rule="evenodd"
        d="M124.5 239C124.5 236.791 122.709 235 120.5 235H117.5C115.291 235 113.5 236.791 113.5 239V245C113.5 247.209 115.291 249 117.5 249H120.5C122.709 249 124.5 247.209 124.5 245V239ZM117.5 236H120.5L120.676 236.005C122.251 236.096 123.5 237.402 123.5 239V245L123.495 245.176C123.404 246.751 122.098 248 120.5 248H117.5L117.324 247.995C115.749 247.904 114.5 246.598 114.5 245V239L114.505 238.824C114.596 237.249 115.902 236 117.5 236Z"
        fill="#291D18" />
  <path fill-rule="evenodd" clip-rule="evenodd"
        d="M109.5 257C109.5 254.791 107.709 253 105.5 253H102.5C100.291 253 98.5 254.791 98.5 257V263C98.5 265.209 100.291 267 102.5 267H105.5C107.709 267 109.5 265.209 109.5 263V257ZM102.5 254H105.5L105.676 254.005C107.251 254.096 108.5 255.402 108.5 257V263L108.495 263.176C108.404 264.751 107.098 266 105.5 266H102.5L102.324 265.995C100.749 265.904 99.5 264.598 99.5 263V257L99.5051 256.824C99.5963 255.249 100.902 254 102.5 254Z"
        fill="#291D18" />
  <path fill-rule="evenodd" clip-rule="evenodd"
        d="M124.5 257C124.5 254.791 122.709 253 120.5 253H117.5C115.291 253 113.5 254.791 113.5 257V263C113.5 265.209 115.291 267 117.5 267H120.5C122.709 267 124.5 265.209 124.5 263V257ZM117.5 254H120.5L120.676 254.005C122.251 254.096 123.5 255.402 123.5 257V263L123.495 263.176C123.404 264.751 122.098 266 120.5 266H117.5L117.324 265.995C115.749 265.904 114.5 264.598 114.5 263V257L114.505 256.824C114.596 255.249 115.902 254 117.5 254Z"
        fill="#291D18" />
  <path fill-rule="evenodd" clip-rule="evenodd"
        d="M130.5 221C130.5 218.791 128.709 217 126.5 217H123.5C121.291 217 119.5 218.791 119.5 221V227C119.5 229.209 121.291 231 123.5 231H126.5C128.709 231 130.5 229.209 130.5 227V221ZM123.5 218H126.5L126.676 218.005C128.251 218.096 129.5 219.402 129.5 221V227L129.495 227.176C129.404 228.751 128.098 230 126.5 230H123.5L123.324 229.995C121.749 229.904 120.5 228.598 120.5 227V221L120.505 220.824C120.596 219.249 121.902 218 123.5 218Z"
        fill="#291D18" />
  <path fill-rule="evenodd" clip-rule="evenodd"
        d="M139.5 239C139.5 236.791 137.709 235 135.5 235H132.5C130.291 235 128.5 236.791 128.5 239V245C128.5 247.209 130.291 249 132.5 249H135.5C137.709 249 139.5 247.209 139.5 245V239ZM132.5 236H135.5L135.676 236.005C137.251 236.096 138.5 237.402 138.5 239V245L138.495 245.176C138.404 246.751 137.098 248 135.5 248H132.5L132.324 247.995C130.749 247.904 129.5 246.598 129.5 245V239L129.505 238.824C129.596 237.249 130.902 236 132.5 236Z"
        fill="#291D18" />
  <path fill-rule="evenodd" clip-rule="evenodd"
        d="M139.5 257C139.5 254.791 137.709 253 135.5 253H132.5C130.291 253 128.5 254.791 128.5 257V263C128.5 265.209 130.291 267 132.5 267H135.5C137.709 267 139.5 265.209 139.5 263V257ZM132.5 254H135.5L135.676 254.005C137.251 254.096 138.5 255.402 138.5 257V263L138.495 263.176C138.404 264.751 137.098 266 135.5 266H132.5L132.324 265.995C130.749 265.904 129.5 264.598 129.5 263V257L129.505 256.824C129.596 255.249 130.902 254 132.5 254Z"
        fill="#291D18" />
  <path fill-rule="evenodd" clip-rule="evenodd"
        d="M145.5 221C145.5 218.791 143.709 217 141.5 217H138.5C136.291 217 134.5 218.791 134.5 221V227C134.5 229.209 136.291 231 138.5 231H141.5C143.709 231 145.5 229.209 145.5 227V221ZM138.5 218H141.5L141.676 218.005C143.251 218.096 144.5 219.402 144.5 221V227L144.495 227.176C144.404 228.751 143.098 230 141.5 230H138.5L138.324 229.995C136.749 229.904 135.5 228.598 135.5 227V221L135.505 220.824C135.596 219.249 136.902 218 138.5 218Z"
        fill="#291D18" />
  <path fill-rule="evenodd" clip-rule="evenodd"
        d="M154.5 239C154.5 236.791 152.709 235 150.5 235H147.5C145.291 235 143.5 236.791 143.5 239V245C143.5 247.209 145.291 249 147.5 249H150.5C152.709 249 154.5 247.209 154.5 245V239ZM147.5 236H150.5L150.676 236.005C152.251 236.096 153.5 237.402 153.5 239V245L153.495 245.176C153.404 246.751 152.098 248 150.5 248H147.5L147.324 247.995C145.749 247.904 144.5 246.598 144.5 245V239L144.505 238.824C144.596 237.249 145.902 236 147.5 236Z"
        fill="#291D18" />
  <path fill-rule="evenodd" clip-rule="evenodd"
        d="M154.5 257C154.5 254.791 152.709 253 150.5 253H147.5C145.291 253 143.5 254.791 143.5 257V263C143.5 265.209 145.291 267 147.5 267H150.5C152.709 267 154.5 265.209 154.5 263V257ZM147.5 254H150.5L150.676 254.005C152.251 254.096 153.5 255.402 153.5 257V263L153.495 263.176C153.404 264.751 152.098 266 150.5 266H147.5L147.324 265.995C145.749 265.904 144.5 264.598 144.5 263V257L144.505 256.824C144.596 255.249 145.902 254 147.5 254Z"
        fill="#291D18" />
  <path fill-rule="evenodd" clip-rule="evenodd"
        d="M160.5 221C160.5 218.791 158.709 217 156.5 217H153.5C151.291 217 149.5 218.791 149.5 221V227C149.5 229.209 151.291 231 153.5 231H156.5C158.709 231 160.5 229.209 160.5 227V221ZM153.5 218H156.5L156.676 218.005C158.251 218.096 159.5 219.402 159.5 221V227L159.495 227.176C159.404 228.751 158.098 230 156.5 230H153.5L153.324 229.995C151.749 229.904 150.5 228.598 150.5 227V221L150.505 220.824C150.596 219.249 151.902 218 153.5 218Z"
        fill="#291D18" />
  <path fill-rule="evenodd" clip-rule="evenodd"
        d="M169.5 239C169.5 236.791 167.709 235 165.5 235H162.5C160.291 235 158.5 236.791 158.5 239V245C158.5 247.209 160.291 249 162.5 249H165.5C167.709 249 169.5 247.209 169.5 245V239ZM162.5 236H165.5L165.676 236.005C167.251 236.096 168.5 237.402 168.5 239V245L168.495 245.176C168.404 246.751 167.098 248 165.5 248H162.5L162.324 247.995C160.749 247.904 159.5 246.598 159.5 245V239L159.505 238.824C159.596 237.249 160.902 236 162.5 236Z"
        fill="#291D18" />
  <path fill-rule="evenodd" clip-rule="evenodd"
        d="M169.5 257C169.5 254.791 167.709 253 165.5 253H162.5C160.291 253 158.5 254.791 158.5 257V263C158.5 265.209 160.291 267 162.5 267H165.5C167.709 267 169.5 265.209 169.5 263V257ZM162.5 254H165.5L165.676 254.005C167.251 254.096 168.5 255.402 168.5 257V263L168.495 263.176C168.404 264.751 167.098 266 165.5 266H162.5L162.324 265.995C160.749 265.904 159.5 264.598 159.5 263V257L159.505 256.824C159.596 255.249 160.902 254 162.5 254Z"
        fill="#291D18" />
  <path fill-rule="evenodd" clip-rule="evenodd"
        d="M175.5 221C175.5 218.791 173.709 217 171.5 217H168.5C166.291 217 164.5 218.791 164.5 221V227C164.5 229.209 166.291 231 168.5 231H171.5C173.709 231 175.5 229.209 175.5 227V221ZM168.5 218H171.5L171.676 218.005C173.251 218.096 174.5 219.402 174.5 221V227L174.495 227.176C174.404 228.751 173.098 230 171.5 230H168.5L168.324 229.995C166.749 229.904 165.5 228.598 165.5 227V221L165.505 220.824C165.596 219.249 166.902 218 168.5 218Z"
        fill="#291D18" />
  <path fill-rule="evenodd" clip-rule="evenodd"
        d="M184.5 239C184.5 236.791 182.709 235 180.5 235H177.5C175.291 235 173.5 236.791 173.5 239V245C173.5 247.209 175.291 249 177.5 249H180.5C182.709 249 184.5 247.209 184.5 245V239ZM177.5 236H180.5L180.676 236.005C182.251 236.096 183.5 237.402 183.5 239V245L183.495 245.176C183.404 246.751 182.098 248 180.5 248H177.5L177.324 247.995C175.749 247.904 174.5 246.598 174.5 245V239L174.505 238.824C174.596 237.249 175.902 236 177.5 236Z"
        fill="#291D18" />
  <path fill-rule="evenodd" clip-rule="evenodd"
        d="M184.5 257C184.5 254.791 182.709 253 180.5 253H177.5C175.291 253 173.5 254.791 173.5 257V263C173.5 265.209 175.291 267 177.5 267H180.5C182.709 267 184.5 265.209 184.5 263V257ZM177.5 254H180.5L180.676 254.005C182.251 254.096 183.5 255.402 183.5 257V263L183.495 263.176C183.404 264.751 182.098 266 180.5 266H177.5L177.324 265.995C175.749 265.904 174.5 264.598 174.5 263V257L174.505 256.824C174.596 255.249 175.902 254 177.5 254Z"
        fill="#291D18" />
  <path fill-rule="evenodd" clip-rule="evenodd"
        d="M208.5 257C208.5 254.791 206.709 253 204.5 253H192.5C190.291 253 188.5 254.791 188.5 257V263C188.5 265.209 190.291 267 192.5 267H204.5C206.709 267 208.5 265.209 208.5 263V257ZM192.5 254H204.5L204.676 254.005C206.251 254.096 207.5 255.402 207.5 257V263L207.495 263.176C207.404 264.751 206.098 266 204.5 266H192.5L192.324 265.995C190.749 265.904 189.5 264.598 189.5 263V257L189.505 256.824C189.596 255.249 190.902 254 192.5 254Z"
        fill="#291D18" />
  <path fill-rule="evenodd" clip-rule="evenodd"
        d="M94.5 257C94.5 254.791 92.7091 253 90.5 253H78.5C76.2909 253 74.5 254.791 74.5 257V263C74.5 265.209 76.2909 267 78.5 267H90.5C92.7091 267 94.5 265.209 94.5 263V257ZM78.5 254H90.5L90.6763 254.005C92.2511 254.096 93.5 255.402 93.5 257V263L93.4949 263.176C93.4037 264.751 92.0977 266 90.5 266H78.5L78.3237 265.995C76.7489 265.904 75.5 264.598 75.5 263V257L75.5051 256.824C75.5963 255.249 76.9023 254 78.5 254Z"
        fill="#291D18" />
  <path fill-rule="evenodd" clip-rule="evenodd"
        d="M190.5 221C190.5 218.791 188.709 217 186.5 217H183.5C181.291 217 179.5 218.791 179.5 221V227C179.5 229.209 181.291 231 183.5 231H186.5C188.709 231 190.5 229.209 190.5 227V221ZM183.5 218H186.5L186.676 218.005C188.251 218.096 189.5 219.402 189.5 221V227L189.495 227.176C189.404 228.751 188.098 230 186.5 230H183.5L183.324 229.995C181.749 229.904 180.5 228.598 180.5 227V221L180.505 220.824C180.596 219.249 181.902 218 183.5 218Z"
        fill="#291D18" />
  <path fill-rule="evenodd" clip-rule="evenodd"
        d="M199.5 239C199.5 236.791 197.709 235 195.5 235H192.5C190.291 235 188.5 236.791 188.5 239V245C188.5 247.209 190.291 249 192.5 249H195.5C197.709 249 199.5 247.209 199.5 245V239ZM192.5 236H195.5L195.676 236.005C197.251 236.096 198.5 237.402 198.5 239V245L198.495 245.176C198.404 246.751 197.098 248 195.5 248H192.5L192.324 247.995C190.749 247.904 189.5 246.598 189.5 245V239L189.505 238.824C189.596 237.249 190.902 236 192.5 236Z"
        fill="#291D18" />
  <path fill-rule="evenodd" clip-rule="evenodd"
        d="M205.5 221C205.5 218.791 203.709 217 201.5 217H198.5C196.291 217 194.5 218.791 194.5 221V227C194.5 229.209 196.291 231 198.5 231H201.5C203.709 231 205.5 229.209 205.5 227V221ZM198.5 218H201.5L201.676 218.005C203.251 218.096 204.5 219.402 204.5 221V227L204.495 227.176C204.404 228.751 203.098 230 201.5 230H198.5L198.324 229.995C196.749 229.904 195.5 228.598 195.5 227V221L195.505 220.824C195.596 219.249 196.902 218 198.5 218Z"
        fill="#291D18" />
  <path
    d="M334.5 131C339.382 131 343.356 134.887 343.496 139.735L343.5 140V194C343.5 198.882 339.613 202.856 334.765 202.996L334.5 203H296.399C295.847 203 295.399 202.552 295.399 202C295.399 201.487 295.785 201.064 296.282 201.007L296.399 201H334.5C338.285 201 341.369 197.995 341.496 194.241L341.5 194V140C341.5 136.215 338.495 133.131 334.741 133.004L334.5 133H280.5C276.715 133 273.631 136.005 273.504 139.759L273.5 140V194C273.5 197.785 276.505 200.869 280.259 200.996L280.5 201H290.5C291.052 201 291.5 201.448 291.5 202C291.5 202.513 291.114 202.936 290.617 202.993L290.5 203H280.5C275.618 203 271.644 199.113 271.504 194.265L271.5 194V140C271.5 135.118 275.387 131.144 280.235 131.004L280.5 131H334.5Z"
    fill="#291D18" />
  <path
    d="M307.5 93C318.981 93 328.31 102.213 328.497 113.649L328.5 114V129H326.5V114C326.5 103.507 317.993 95 307.5 95C297.119 95 288.683 103.325 288.503 113.662L288.5 114V129H286.5V114C286.5 102.402 295.902 93 307.5 93Z"
    fill="#291D18" />
  <path
    d="M307.5 101C314.577 101 320.333 106.655 320.496 113.693L320.5 114V129H318.5V114C318.5 107.925 313.575 103 307.5 103C301.521 103 296.657 107.77 296.504 113.712L296.5 114V129H294.5V114C294.5 106.82 300.32 101 307.5 101Z"
    fill="#291D18" />
  <path
    d="M297.5 128.5C298.825 128.5 299.91 129.532 299.995 130.836L300 131H299C299 130.22 298.405 129.58 297.644 129.507L297.5 129.5H285.5C284.72 129.5 284.08 130.095 284.007 130.856L284 131H283C283 129.675 284.032 128.59 285.336 128.505L285.5 128.5H297.5Z"
    fill="#291D18" />
  <path
    d="M329.5 128.5C330.825 128.5 331.91 129.532 331.995 130.836L332 131H331C331 130.22 330.405 129.58 329.644 129.507L329.5 129.5H317.5C316.72 129.5 316.08 130.095 316.007 130.856L316 131H315C315 129.675 316.032 128.59 317.336 128.505L317.5 128.5H329.5Z"
    fill="#291D18" />
  <path
    d="M307.5 139.5C312.287 139.5 316.897 140.725 320.977 143.023C321.218 143.159 321.303 143.464 321.167 143.704C321.032 143.945 320.727 144.03 320.486 143.895C316.555 141.68 312.114 140.5 307.5 140.5C292.864 140.5 281 152.364 281 167C281 181.636 292.864 193.5 307.5 193.5C322.136 193.5 334 181.636 334 167C334 161.668 332.423 156.573 329.514 152.242C329.36 152.013 329.421 151.702 329.65 151.548C329.879 151.394 330.19 151.455 330.344 151.684C333.363 156.179 335 161.468 335 167C335 182.188 322.688 194.5 307.5 194.5C292.312 194.5 280 182.188 280 167C280 151.812 292.312 139.5 307.5 139.5Z"
    fill="#291D18" />
  <path fill-rule="evenodd" clip-rule="evenodd"
        d="M299 162C299 157.306 302.806 153.5 307.5 153.5C312.194 153.5 316 157.306 316 162C316 165.091 314.335 167.883 311.722 169.379L311.5 169.5V176.5C311.5 178.709 309.709 180.5 307.5 180.5C305.291 180.5 303.5 178.709 303.5 176.5V169.501L303.277 169.379C300.749 167.931 299.108 165.27 299.005 162.298L299 162ZM315 162C315 157.858 311.642 154.5 307.5 154.5C303.358 154.5 300 157.858 300 162C300 164.904 301.665 167.508 304.231 168.753L304.54 168.902L304.511 169.244C304.504 169.329 304.5 169.414 304.5 169.5V176.5C304.5 178.157 305.843 179.5 307.5 179.5C309.157 179.5 310.5 178.157 310.5 176.5V169.5C310.5 169.412 310.496 169.33 310.489 169.252L310.454 168.905L310.768 168.753C313.335 167.508 315 164.904 315 162Z"
        fill="#291D18" />
  <circle cx="342.5" cy="222" r="4" fill="#F2F2F2" />
  <circle cx="3.5" cy="37" r="2" fill="#F2F2F2" />
</svg>
