<?xml version="1.0" encoding="UTF-8"?>
<svg width="40px" height="26px" viewBox="0 0 40 26" version="1.1" xmlns="http://www.w3.org/2000/svg" xmlns:xlink="http://www.w3.org/1999/xlink">
    <!-- Generator: Sketch 56.3 (81716) - https://sketch.com -->
    <title>Icons / Payment / Large / Bancontact</title>
    <desc>Created with Sketch.</desc>
    <g id="Icons-/-Payment-/-Large-/-Bancontact" stroke="none" stroke-width="1" fill="none" fill-rule="evenodd">
        <g id="Bancontact-logo">
            <rect id="Rectangle-2" fill="#FFFFFF" x="0" y="0" width="40" height="26" rx="2"></rect>
            <g id="BC_logo_ORGNL_cmyk" transform="translate(6.000000, 4.000000)">
                <g id="Group">
                    <g id="Group-2">
                        <path d="M24.9301818,2.98875159 L16.2713202,2.98875159 L12.5330435,7.1065414 L12.5330435,7.10664968 L11.6524269,8.0766242 L3.108,8.0766242 L5.25237945,5.64703185 L1.31533597,5.64703185 C0.596079051,5.64703185 0.0075256917,6.23748408 0.0075256917,6.95906369 L0.0075256917,9.72746497 C0.0075256917,10.4491529 0.596079051,11.0396051 1.31533597,11.0396051 L16.3880791,11.0396051 C17.107336,11.0396051 18.0898814,10.6010701 18.5715257,10.0650828 L24.9301818,2.98875159" id="Fill-2" fill="#004C81"></path>
                        <path d="M26.6699447,0.029343949 C27.3892016,0.029343949 27.9777549,0.619796178 27.9777549,1.34148408 L27.9777549,4.10977707 C27.9777549,4.83135669 27.3892016,5.4219172 26.6699447,5.4219172 L22.7457391,5.4219172 L23.6209328,4.44696178 C23.6209328,4.44696178 23.6209328,4.44696178 23.6210435,4.44696178 L24.9301818,2.98875159 L16.2714308,2.98875159 L11.6525375,8.08030573 L3.05509881,8.08030573 L9.45403953,1.00126752 C9.93734387,0.466687898 10.9212174,0.029343949 11.6404743,0.029343949 L26.6699447,0.029343949" id="Fill-3" fill="#FFDA1A"></path>
                    </g>
                    <path d="M2.95045305,16.7437241 C2.95045305,16.5615586 2.90680173,16.403842 2.81972065,16.2706833 C2.73252879,16.1375246 2.61786096,16.0359092 2.47560638,15.9658372 C2.61786096,15.8957651 2.72809718,15.7922943 2.80642583,15.6556429 C2.88464369,15.5189915 2.92375262,15.3648767 2.92375262,15.1931893 L2.92375262,15.0985593 C2.92375262,14.888234 2.88287105,14.7130539 2.8011079,14.5729098 C2.71923397,14.4327658 2.60445535,14.3205632 2.45688284,14.2365204 C2.30931033,14.1523685 2.13226764,14.0920105 1.92608713,14.055119 C1.71968504,14.0183366 1.49034938,14 1.23774779,14 C1.15243936,14 1.06347485,14.0017463 0.971075852,14.005239 C0.878455268,14.0087317 0.78871523,14.0130976 0.701634155,14.0183366 C0.61444229,14.0235756 0.534340996,14.029797 0.461551854,14.0367824 C0.388541131,14.0438769 0.328936019,14.0508623 0.282736517,14.0577385 C0.179590868,14.0754202 0.106690935,14.1068544 0.064036719,14.1523685 C0.0213825031,14.1979917 0,14.2803973 0,14.3994761 L0,17.5952849 C0,17.7143637 0.0221580343,17.7967693 0.0666956831,17.8422833 C0.111122542,17.8879066 0.186681439,17.9193408 0.293483164,17.9369133 C0.346773236,17.9473914 0.410809955,17.9561231 0.485482531,17.9632176 C0.560155106,17.970203 0.641031931,17.9763152 0.728223796,17.9815542 C0.815415661,17.9867933 0.9051557,17.9911591 0.997665493,17.994761 C1.09017529,17.9981445 1.18080165,18 1.26976615,18 C1.50098524,18 1.71879872,17.9824274 1.92342816,17.9473914 C2.12783603,17.9124645 2.30565426,17.8501419 2.45688284,17.7607509 C2.60811142,17.6714691 2.72809718,17.5505348 2.81706169,17.3981663 C2.9059154,17.2456887 2.95045305,17.0538092 2.95045305,16.8225278 L2.95045305,16.7437241 Z M2.04341392,15.2352107 C2.04341392,15.2913119 2.03455071,15.3447937 2.01671349,15.3955468 C1.99887627,15.4462999 1.96962767,15.4900677 1.92874609,15.5269592 C1.88775373,15.5637415 1.83269101,15.5935385 1.76333637,15.616241 C1.69398172,15.6390526 1.60590353,15.6504038 1.4992126,15.6504038 L0.901721204,15.6504038 L0.901721204,14.7411046 C0.919447632,14.7411046 0.947034385,14.7402314 0.984370672,14.738485 C1.02170696,14.7367387 1.06081589,14.7358655 1.10169746,14.7358655 L1.30710244,14.7358655 C1.58097574,14.7358655 1.77219958,14.7700284 1.88066316,14.8383541 C1.98912674,14.9066798 2.04341392,15.012661 2.04341392,15.1562978 L2.04341392,15.2352107 Z M2.06479642,16.8015717 C2.06479642,16.9487012 2.01228188,17.0626501 1.90736359,17.1432002 C1.8024453,17.2238594 1.6129941,17.2641345 1.3391208,17.2641345 L1.2511534,17.2641345 C1.21016104,17.2641345 1.16750683,17.2632613 1.12307997,17.261515 C1.07854232,17.2597686 1.0358881,17.2587863 0.995006529,17.2587863 L0.901721204,17.2587863 L0.901721204,16.2759223 L1.4992126,16.2759223 C1.71259447,16.2759223 1.86016698,16.3224187 1.94204091,16.4151932 C2.02380406,16.5080768 2.06479642,16.6175508 2.06479642,16.7437241 L2.06479642,16.8015717 Z M5.87420567,15.9710762 C5.87420567,15.7784327 5.84484628,15.6144947 5.78612749,15.4795896 C5.72751949,15.3447937 5.64475923,15.2343375 5.53806829,15.1484392 C5.43137736,15.0626501 5.30064496,14.9995634 5.14587109,14.9592884 C4.99120801,14.9190133 4.81782139,14.8988212 4.62571123,14.8988212 C4.44778222,14.8988212 4.2743956,14.9111548 4.10555138,14.9356036 C3.93648558,14.9601615 3.80220789,14.9847195 3.70271832,15.0091683 C3.63513631,15.0267409 3.60134531,15.0652696 3.60134531,15.1247544 L3.60134531,15.5505348 C3.60134531,15.58568 3.61020852,15.6102379 3.62804574,15.6240995 C3.64577217,15.6381794 3.66881652,15.6451648 3.69740039,15.6451648 L3.72399003,15.6451648 C3.76675504,15.6416721 3.82004511,15.6373063 3.88408183,15.6320672 C3.94811855,15.6268282 4.02013216,15.6224623 4.10023345,15.6188605 C4.18022395,15.615477 4.26375974,15.6128575 4.35095161,15.611002 C4.43803268,15.6092556 4.52433823,15.6083824 4.60975745,15.6083824 C4.73417481,15.6083824 4.83200253,15.6311941 4.90312982,15.6767081 C4.97425711,15.7223314 5.00982076,15.820454 5.00982076,15.9710762 L5.00982076,16.1603362 L4.72176631,16.1603362 C4.26287342,16.1603362 3.92939501,16.2312814 3.72133106,16.3731718 C3.51326712,16.5150622 3.40923515,16.7402314 3.40923515,17.0485702 L3.40923515,17.0959398 C3.40923515,17.2676272 3.43504926,17.4112639 3.48656669,17.52685 C3.53808412,17.6425453 3.60666324,17.7354289 3.69197167,17.805501 C3.77739089,17.875573 3.8742215,17.9255621 3.98279587,17.9552499 C4.09125945,17.9850469 4.20426542,18 4.32159221,18 C4.48168401,18 4.61950698,17.9789347 4.73506113,17.9369133 C4.85061528,17.8948919 4.95996518,17.8370443 5.06322162,17.7634796 L5.06322162,17.8475224 C5.06322162,17.875573 5.07385748,17.900131 5.09523998,17.9210871 C5.11662248,17.9421524 5.14143948,17.9526304 5.16991255,17.9526304 L5.76751474,17.9526304 C5.79587702,17.9526304 5.82080481,17.9421524 5.84218731,17.9210871 C5.86356982,17.900131 5.87420567,17.875573 5.87420567,17.8475224 L5.87420567,15.9710762 Z M5.02588533,17.2430692 C4.96184861,17.2746125 4.8932695,17.30179 4.82048035,17.3244925 C4.74746963,17.3474132 4.67013809,17.3586553 4.58837495,17.3586553 C4.47448265,17.3586553 4.39006054,17.3429382 4.33488703,17.3113949 C4.27971353,17.2798516 4.25223757,17.2080332 4.25223757,17.0959398 L4.25223757,17.0485702 C4.25223757,16.9854835 4.25932814,16.9294914 4.27362007,16.8803755 C4.28780121,16.8313687 4.312729,16.7909845 4.34829264,16.7594412 C4.3837455,16.728007 4.43182843,16.7043222 4.49231987,16.688496 C4.5528113,16.6727789 4.62925652,16.6649203 4.72176631,16.6649203 L5.02588533,16.6649203 L5.02588533,17.2430692 Z M9.1394136,17.8422833 L9.1394136,16.0919013 C9.1394136,15.9273084 9.12611878,15.7722113 9.09941835,15.6268282 C9.07271792,15.4814451 9.02474578,15.3552718 8.95539113,15.2483082 C8.88603648,15.1414538 8.7899814,15.0564287 8.66722589,14.9934512 C8.54458117,14.9303645 8.38714834,14.8988212 8.19503818,14.8988212 C8.02431053,14.8988212 7.87308195,14.9191225 7.74157401,14.959725 C7.60995529,15.0003274 7.47124599,15.0718184 7.32544613,15.1741978 L7.32544613,15.0468238 C7.32544613,15.018664 7.31469948,14.9938878 7.29342777,14.9727134 C7.27204527,14.951539 7.24711748,14.9408426 7.2186444,14.9408426 L6.62115301,14.9408426 C6.59256914,14.9408426 6.56775215,14.9513207 6.54648043,14.9723859 C6.52509793,14.9934512 6.51446207,15.0180092 6.51446207,15.0459507 L6.51446207,17.8422833 C6.51446207,17.870334 6.52587346,17.8957651 6.5491394,17.9184676 C6.57218375,17.9412792 6.59799786,17.9526304 6.62647094,17.9526304 L7.27204527,17.9526304 C7.30051834,17.9526304 7.32544613,17.9412792 7.34671784,17.9185767 C7.36810034,17.8958743 7.3787362,17.8705523 7.3787362,17.8425016 L7.3787362,15.7761406 C7.47124599,15.727243 7.55832707,15.6870771 7.64020101,15.6556429 C7.72196415,15.6240995 7.80195466,15.6083824 7.88028331,15.6083824 C7.96204645,15.6083824 8.02874214,15.616241 8.08037036,15.6320672 C8.13188779,15.6477843 8.17188304,15.6748527 8.20035611,15.7133814 C8.22882919,15.7518009 8.24843905,15.8024449 8.2590749,15.8653133 C8.26971076,15.9282908 8.27513948,16.005239 8.27513948,16.096158 L8.27513948,17.8425016 C8.27513948,17.8705523 8.28577533,17.8958743 8.30715784,17.9185767 C8.32842955,17.9412792 8.35324655,17.9526304 8.38183041,17.9526304 L9.02740474,17.9526304 C9.05576702,17.9526304 9.08158113,17.9412792 9.10473628,17.9184676 C9.12789143,17.8957651 9.1394136,17.870334 9.1394136,17.8422833 L9.1394136,17.8422833 Z M11.7644759,17.800262 L11.7644759,17.3324602 C11.7644759,17.3044095 11.7546156,17.2824711 11.7351165,17.266754 C11.7155067,17.2509277 11.6914652,17.2430692 11.6631029,17.2430692 L11.6523563,17.2430692 C11.5527559,17.2535473 11.4576979,17.2623881 11.3669608,17.2693735 C11.2762236,17.2763589 11.1543544,17.2798516 11.001464,17.2798516 C10.9409726,17.2798516 10.8841372,17.2702467 10.8307364,17.2509277 C10.7773355,17.231718 10.731136,17.1984283 10.6920271,17.1510587 C10.6528073,17.1037983 10.6217861,17.0407116 10.598631,16.9619079 C10.5754758,16.882995 10.5639536,16.7857455 10.5639536,16.6701594 L10.5639536,16.2286619 C10.5639536,16.1129666 10.5754758,16.0157171 10.598631,15.9369133 C10.6217861,15.8580004 10.6528073,15.7950229 10.6920271,15.7476534 C10.731136,15.7003929 10.7773355,15.6671033 10.8307364,15.6477843 C10.8841372,15.6285745 10.9409726,15.6188605 11.001464,15.6188605 C11.1543544,15.6188605 11.2762236,15.6224623 11.3669608,15.6294477 C11.4576979,15.6364331 11.5527559,15.6451648 11.6523563,15.6556429 L11.6631029,15.6556429 C11.6914652,15.6556429 11.7155067,15.6477843 11.7351165,15.6320672 C11.7546156,15.616241 11.7644759,15.5944117 11.7644759,15.5663611 L11.7644759,15.0985593 C11.7644759,15.0600306 11.7555019,15.0328531 11.7377755,15.0170269 C11.7199383,15.0013098 11.6914652,14.988103 11.6523563,14.977625 C11.5776837,14.9601615 11.4807423,14.9426981 11.3616429,14.9250164 C11.2424326,14.9075529 11.102837,14.8988212 10.9427452,14.8988212 C10.5657263,14.8988212 10.2642662,15.012661 10.0384758,15.2404497 C9.81257468,15.4682384 9.6996795,15.7976424 9.6996795,16.2286619 L9.6996795,16.6701594 C9.6996795,17.1011788 9.81257468,17.4305828 10.0384758,17.6582624 C10.2642662,17.8861602 10.5657263,18 10.9427452,18 C11.102837,18 11.2424326,17.9911591 11.3616429,17.9736957 C11.4807423,17.9561231 11.5776837,17.9386597 11.6523563,17.9210871 C11.6914652,17.910609 11.7199383,17.8975115 11.7377755,17.8816852 C11.7555019,17.8659681 11.7644759,17.8387907 11.7644759,17.800262 L11.7644759,17.800262 Z M14.7256756,16.2654442 C14.7256756,16.055119 14.6962054,15.8659681 14.6373759,15.6977734 C14.5785463,15.5295787 14.4930163,15.3868151 14.3807858,15.2693735 C14.2685554,15.152041 14.1295137,15.0609037 13.9638824,14.9960707 C13.7981403,14.9312377 13.6064733,14.8988212 13.389103,14.8988212 C13.1717327,14.8988212 12.9801765,14.9312377 12.8144344,14.9960707 C12.6486923,15.0609037 12.5087643,15.152041 12.3947612,15.2693735 C12.2806473,15.3868151 12.194231,15.5295787 12.1355122,15.6977734 C12.0765718,15.8659681 12.0472124,16.055119 12.0472124,16.2654442 L12.0472124,16.633377 C12.0472124,16.8435931 12.0765718,17.0328531 12.1355122,17.2010478 C12.194231,17.3692425 12.2806473,17.5120061 12.3947612,17.6294477 C12.5087643,17.7468893 12.6486923,17.8379175 12.8144344,17.9027505 C12.9801765,17.9674744 13.1717327,18 13.389103,18 C13.6064733,18 13.7981403,17.9674744 13.9638824,17.9027505 C14.1295137,17.8379175 14.2685554,17.7468893 14.3807858,17.6294477 C14.4930163,17.5120061 14.5785463,17.3692425 14.6373759,17.2010478 C14.6962054,17.0328531 14.7256756,16.8435931 14.7256756,16.633377 L14.7256756,16.2654442 Z M13.8612907,16.633377 C13.8612907,17.0643964 13.7038579,17.2798516 13.389103,17.2798516 C13.2334428,17.2798516 13.1150081,17.2256058 13.0336881,17.1168959 C12.9522573,17.0082951 12.9115974,16.8470858 12.9115974,16.633377 L12.9115974,16.2654442 C12.9115974,16.0517354 12.9522573,15.8913993 13.0336881,15.7844357 C13.1150081,15.6775813 13.2334428,15.6240995 13.389103,15.6240995 C13.7038579,15.6240995 13.8612907,15.8379175 13.8612907,16.2654442 L13.8612907,16.633377 Z M17.9001464,17.8422833 L17.9001464,16.0919013 C17.9001464,15.9273084 17.8867408,15.7722113 17.8601511,15.6268282 C17.8334507,15.4814451 17.7853678,15.3552718 17.7160131,15.2483082 C17.6466585,15.1414538 17.5506034,15.0564287 17.4279587,14.9934512 C17.3052032,14.9303645 17.1478811,14.8988212 16.955771,14.8988212 C16.7850433,14.8988212 16.6338147,14.9191225 16.502196,14.959725 C16.3705773,15.0003274 16.231868,15.0718184 16.0860681,15.1741978 L16.0860681,15.0468238 C16.0860681,15.018664 16.0754323,14.9938878 16.0540498,14.9727134 C16.0327781,14.951539 16.0078503,14.9408426 15.9793772,14.9408426 L15.381775,14.9408426 C15.3533019,14.9408426 15.3284849,14.9513207 15.3071024,14.9723859 C15.2858307,14.9934512 15.2750841,15.0180092 15.2750841,15.0459507 L15.2750841,17.8422833 C15.2750841,17.870334 15.2866063,17.8957651 15.3097614,17.9184676 C15.3329166,17.9412792 15.3586199,17.9526304 15.3872037,17.9526304 L16.0327781,17.9526304 C16.0611403,17.9526304 16.0860681,17.9412792 16.1074506,17.9185767 C16.1287224,17.8958743 16.139469,17.8705523 16.139469,17.8425016 L16.139469,15.7761406 C16.231868,15.727243 16.3190599,15.6870771 16.400823,15.6556429 C16.4826969,15.6240995 16.5626875,15.6083824 16.6410161,15.6083824 C16.7227793,15.6083824 16.7894749,15.616241 16.8409924,15.6320672 C16.8925098,15.6477843 16.9326158,15.6748527 16.9610889,15.7133814 C16.989562,15.7518009 17.0090611,15.8024449 17.0198077,15.8653133 C17.0304436,15.9282908 17.0357615,16.005239 17.0357615,16.096158 L17.0357615,17.8425016 C17.0357615,17.8705523 17.0465081,17.8958743 17.0677798,17.9185767 C17.0891623,17.9412792 17.1139793,17.9526304 17.1424524,17.9526304 L17.7880267,17.9526304 C17.8164998,17.9526304 17.8423139,17.9412792 17.8654691,17.9184676 C17.8885134,17.8957651 17.9001464,17.870334 17.9001464,17.8422833 L17.9001464,17.8422833 Z M20.2264076,17.8540712 L20.2264076,17.4472823 C20.2264076,17.388234 20.1890713,17.3586553 20.1143988,17.3586553 L19.852934,17.3586553 C19.77106,17.3586553 19.7213152,17.3438114 19.7035888,17.3140144 C19.6857516,17.2843266 19.6768884,17.2167649 19.6768884,17.1116568 L19.6768884,15.5820781 L20.1143988,15.5820781 C20.142761,15.5820781 20.1676888,15.5714909 20.1890713,15.5503165 C20.2104538,15.5291421 20.2210897,15.5043659 20.2210897,15.4760969 L20.2210897,15.0468238 C20.2210897,15.018664 20.2104538,14.9937787 20.1890713,14.9726042 C20.1676888,14.9514298 20.142761,14.9408426 20.1143988,14.9408426 L19.6768884,14.9408426 L19.6768884,14.3836499 C19.6768884,14.3557084 19.6680252,14.3337699 19.6504095,14.3179437 C19.6326831,14.3022266 19.6096387,14.294368 19.5813873,14.294368 L19.5655443,14.294368 L18.9186404,14.4047151 C18.8902782,14.4118096 18.8654612,14.4240341 18.8443002,14.4414975 C18.8231393,14.4590701 18.8125035,14.4817725 18.8125035,14.5098232 L18.8125035,14.9408426 L18.3857397,14.9408426 C18.3571559,14.9408426 18.3314525,14.952303 18.3082974,14.9750055 C18.2851422,14.9978171 18.2736201,15.0232482 18.2736201,15.0511897 L18.2736201,15.3981663 C18.2736201,15.426217 18.2851422,15.4499018 18.3082974,15.4691115 C18.3314525,15.4884305 18.3571559,15.5015281 18.3857397,15.5085134 L18.8125035,15.5768391 L18.8125035,17.1011788 C18.8125035,17.2869461 18.8320025,17.4384414 18.8707791,17.5557738 C18.9096664,17.6732155 18.9662802,17.7652259 19.0405096,17.8318053 C19.114739,17.8983846 19.2075812,17.9430255 19.3189253,17.9658372 C19.4302695,17.9885396 19.5584537,18 19.7035888,18 C19.7816959,18 19.8511613,17.9963982 19.9116528,17.9895219 C19.9720334,17.9825366 20.0431607,17.9721676 20.1250346,17.9581969 C20.1926166,17.9479371 20.2264076,17.9131194 20.2264076,17.8540712 L20.2264076,17.8540712 Z M23.0754877,15.9710762 C23.0754877,15.7784327 23.0461283,15.6144947 22.9874095,15.4795896 C22.9286907,15.3447937 22.8460412,15.2343375 22.7393503,15.1484392 C22.6326594,15.0626501 22.501927,14.9995634 22.3471531,14.9592884 C22.19249,14.9190133 22.0191034,14.8988212 21.8269932,14.8988212 C21.6490642,14.8988212 21.4756776,14.9111548 21.3068334,14.9356036 C21.1377676,14.9601615 21.0034899,14.9847195 20.9040003,15.0091683 C20.8363075,15.0267409 20.8026273,15.0652696 20.8026273,15.1247544 L20.8026273,15.5505348 C20.8026273,15.58568 20.8113797,15.6102379 20.829217,15.6240995 C20.8470542,15.6381794 20.8700985,15.6451648 20.8985716,15.6451648 L20.925272,15.6451648 C20.968037,15.6416721 21.0213271,15.6373063 21.0853638,15.6320672 C21.1494005,15.6268282 21.2214142,15.6224623 21.3014047,15.6188605 C21.381506,15.615477 21.4650417,15.6128575 21.5522336,15.611002 C21.6393147,15.6092556 21.7256202,15.6083824 21.8109287,15.6083824 C21.9354568,15.6083824 22.0332845,15.6311941 22.1044118,15.6767081 C22.1755391,15.7223314 22.2111028,15.820454 22.2111028,15.9710762 L22.2111028,16.1603362 L21.9230483,16.1603362 C21.4641554,16.1603362 21.130677,16.2312814 20.9226131,16.3731718 C20.7145491,16.5150622 20.6105172,16.7402314 20.6105172,17.0485702 L20.6105172,17.0959398 C20.6105172,17.2676272 20.6362205,17.4112639 20.6878487,17.52685 C20.7393661,17.6425453 20.8079452,17.7354289 20.8932537,17.805501 C20.9786729,17.875573 21.0755035,17.9255621 21.1840779,17.9552499 C21.2925414,17.9850469 21.4054366,18 21.5228742,18 C21.682966,18 21.8206782,17.9789347 21.9363431,17.9369133 C22.0518973,17.8948919 22.1612472,17.8370443 22.2645036,17.7634796 L22.2645036,17.8475224 C22.2645036,17.875573 22.2751395,17.900131 22.296522,17.9210871 C22.3177937,17.9421524 22.3427215,17.9526304 22.3711946,17.9526304 L22.9687967,17.9526304 C22.997159,17.9526304 23.0220868,17.9421524 23.0434693,17.9210871 C23.064741,17.900131 23.0754877,17.875573 23.0754877,17.8475224 L23.0754877,15.9710762 Z M22.2271673,17.2430692 C22.1631306,17.2746125 22.0945515,17.30179 22.0217624,17.3244925 C21.9487516,17.3474132 21.8714201,17.3586553 21.7896569,17.3586553 C21.6757647,17.3586553 21.5913425,17.3429382 21.536169,17.3113949 C21.4809955,17.2798516 21.4535196,17.2080332 21.4535196,17.0959398 L21.4535196,17.0485702 C21.4535196,16.9854835 21.4606101,16.9294914 21.4749021,16.8803755 C21.4889724,16.8313687 21.5139002,16.7909845 21.5495746,16.7594412 C21.5850275,16.728007 21.6331104,16.7043222 21.6936019,16.688496 C21.7540933,16.6727789 21.8305385,16.6649203 21.9230483,16.6649203 L22.2271673,16.6649203 L22.2271673,17.2430692 Z M25.7004392,17.800262 L25.7004392,17.3324602 C25.7004392,17.3044095 25.6905789,17.2824711 25.6710798,17.266754 C25.6514699,17.2509277 25.6275393,17.2430692 25.5990662,17.2430692 L25.5884303,17.2430692 C25.48883,17.2535473 25.3936612,17.2623881 25.3029241,17.2693735 C25.2122977,17.2763589 25.0904285,17.2798516 24.9375381,17.2798516 C24.8769359,17.2798516 24.8201005,17.2702467 24.7668104,17.2509277 C24.7134096,17.231718 24.6670993,17.1984283 24.6279903,17.1510587 C24.5888814,17.1037983 24.5577494,17.0407116 24.534705,16.9619079 C24.5114391,16.882995 24.5000277,16.7857455 24.5000277,16.6701594 L24.5000277,16.2286619 C24.5000277,16.1129666 24.5114391,16.0157171 24.534705,15.9369133 C24.5577494,15.8580004 24.5888814,15.7950229 24.6279903,15.7476534 C24.6670993,15.7003929 24.7134096,15.6671033 24.7668104,15.6477843 C24.8201005,15.6285745 24.8769359,15.6188605 24.9375381,15.6188605 C25.0904285,15.6188605 25.2122977,15.6224623 25.3029241,15.6294477 C25.3936612,15.6364331 25.48883,15.6451648 25.5884303,15.6556429 L25.5990662,15.6556429 C25.6275393,15.6556429 25.6514699,15.6477843 25.6710798,15.6320672 C25.6905789,15.616241 25.7004392,15.5944117 25.7004392,15.5663611 L25.7004392,15.0985593 C25.7004392,15.0600306 25.691576,15.0328531 25.6737388,15.0170269 C25.6559016,15.0013098 25.6275393,14.988103 25.5884303,14.977625 C25.5137578,14.9601615 25.4167056,14.9426981 25.2976061,14.9250164 C25.1783959,14.9075529 25.0389111,14.8988212 24.8788193,14.8988212 C24.5016896,14.8988212 24.2003403,15.012661 23.9744391,15.2404497 C23.748538,15.4682384 23.6356428,15.7976424 23.6356428,16.2286619 L23.6356428,16.6701594 C23.6356428,17.1011788 23.748538,17.4305828 23.9744391,17.6582624 C24.2003403,17.8861602 24.5016896,18 24.8788193,18 C25.0389111,18 25.1783959,17.9911591 25.2976061,17.9736957 C25.4167056,17.9561231 25.5137578,17.9386597 25.5884303,17.9210871 C25.6275393,17.910609 25.6559016,17.8975115 25.6737388,17.8816852 C25.691576,17.8659681 25.7004392,17.8387907 25.7004392,17.800262 L25.7004392,17.800262 Z M28,17.8540712 L28,17.4472823 C28,17.388234 27.9626637,17.3586553 27.8879911,17.3586553 L27.6265263,17.3586553 C27.5446524,17.3586553 27.4949076,17.3438114 27.4771812,17.3140144 C27.459344,17.2843266 27.4504808,17.2167649 27.4504808,17.1116568 L27.4504808,15.5820781 L27.8879911,15.5820781 C27.9163534,15.5820781 27.9412812,15.5714909 27.9626637,15.5503165 C27.9839354,15.5291421 27.9946821,15.5043659 27.9946821,15.4760969 L27.9946821,15.0468238 C27.9946821,15.018664 27.9839354,14.9937787 27.9626637,14.9726042 C27.9412812,14.9514298 27.9163534,14.9408426 27.8879911,14.9408426 L27.4504808,14.9408426 L27.4504808,14.3836499 C27.4504808,14.3557084 27.4416175,14.3337699 27.4238911,14.3179437 C27.4062755,14.3022266 27.3832311,14.294368 27.3549796,14.294368 L27.3390258,14.294368 L26.692122,14.4047151 C26.6637597,14.4118096 26.6390535,14.4240341 26.6178926,14.4414975 C26.5967317,14.4590701 26.5860958,14.4817725 26.5860958,14.5098232 L26.5860958,14.9408426 L26.1593321,14.9408426 C26.1307482,14.9408426 26.1050449,14.952303 26.0818898,14.9750055 C26.0587346,14.9978171 26.0472124,15.0232482 26.0472124,15.0511897 L26.0472124,15.3981663 C26.0472124,15.426217 26.0587346,15.4499018 26.0818898,15.4691115 C26.1050449,15.4884305 26.1307482,15.5015281 26.1593321,15.5085134 L26.5860958,15.5768391 L26.5860958,17.1011788 C26.5860958,17.2869461 26.6055949,17.4384414 26.6443715,17.5557738 C26.6832588,17.6732155 26.7398726,17.7652259 26.814102,17.8318053 C26.8883314,17.8983846 26.9810628,17.9430255 27.0925177,17.9658372 C27.2038618,17.9885396 27.3320461,18 27.4771812,18 C27.5552883,18 27.6246429,17.9963982 27.6852451,17.9895219 C27.7456258,17.9825366 27.8167531,17.9721676 27.898627,17.9581969 C27.9660982,17.9479371 28,17.9131194 28,17.8540712 L28,17.8540712 Z" id="Fill-4" fill="#004C81"></path>
                </g>
            </g>
        </g>
    </g>
</svg>