<svg xmlns="http://www.w3.org/2000/svg" width="90" height="90" viewBox="0 0 90 90">
  <g fill="none" fill-rule="evenodd">
    <path fill="#239A98" d="M12.819426,-5.17920154e-16 L77.180574,5.17920154e-16 C81.6381677,-3.00926524e-16 83.2545989,0.464128056 84.8842285,1.33566352 C86.5138581,2.20719898 87.792801,3.48614185 88.6643365,5.11577148 C89.5358719,6.74540111 90,8.3618323 90,12.819426 L90,77.180574 C90,81.6381677 89.5358719,83.2545989 88.6643365,84.8842285 C87.792801,86.5138581 86.5138581,87.792801 84.8842285,88.6643365 C83.2545989,89.5358719 81.6381677,90 77.180574,90 L12.819426,90 C8.3618323,90 6.74540111,89.5358719 5.11577148,88.6643365 C3.48614185,87.792801 2.20719898,86.5138581 1.33566352,84.8842285 C0.464128056,83.2545989 2.00617683e-16,81.6381677 -3.45280103e-16,77.180574 L3.45280103e-16,12.819426 C-2.00617683e-16,8.3618323 0.464128056,6.74540111 1.33566352,5.11577148 C2.20719898,3.48614185 3.48614185,2.20719898 5.11577148,1.33566352 C6.74540111,0.464128056 8.3618323,3.00926524e-16 12.819426,-5.17920154e-16 Z"/>
    <g transform="translate(21 21)">
      <rect width="48" height="48"/>
      <path fill="#FFF" fill-rule="nonzero" d="M31.2541154,23 C33.776693,23 35.8768281,24.8047018 35.9947765,27.1271047 L36,27.3333333 L36,40.6666667 C36,43.0184092 33.9719385,44.8903037 31.4755597,44.9953493 L31.2541154,45 L25.0046742,45 C24.4523895,45 24.0046742,44.5522847 24.0046742,44 C24.0046742,43.4871642 24.3907144,43.0644928 24.8880531,43.0067277 L25.0046742,43 L31.2541154,43 C32.7333015,43 33.9030575,42.0117256 33.9942713,40.8170231 L34,40.6666667 L34,27.3333333 C34,26.1227859 32.8894114,25.0860895 31.4373464,25.0050907 L31.2541154,25 L25,25 C24.4477153,25 24,24.5522847 24,24 C24,23.4871642 24.3860402,23.0644928 24.8833789,23.0067277 L25,23 L31.2541154,23 Z M18.6666667,14 C21.0599006,14 23,15.9400994 23,18.3333333 L23,18.3333333 L23,38.6666667 C23,41.0599006 21.0599006,43 18.6666667,43 L18.6666667,43 L7.33333333,43 C4.94009942,43 3,41.0599006 3,38.6666667 L3,38.6666667 L3,18.3333333 C3,15.9400994 4.94009942,14 7.33333333,14 L7.33333333,14 Z M18.6666667,16 L7.33333333,16 C6.04466892,16 5,17.0446689 5,18.3333333 L5,18.3333333 L5,38.6666667 C5,39.9553311 6.04466892,41 7.33333333,41 L7.33333333,41 L18.6666667,41 C19.9553311,41 21,39.9553311 21,38.6666667 L21,38.6666667 L21,18.3333333 C21,17.0446689 19.9553311,16 18.6666667,16 L18.6666667,16 Z M28,37 C29.1045695,37 30,37.8954305 30,39 C30,40.1045695 29.1045695,41 28,41 C26.8954305,41 26,40.1045695 26,39 C26,37.8954305 26.8954305,37 28,37 Z M13,35 C14.1045695,35 15,35.8954305 15,37 C15,38.1045695 14.1045695,39 13,39 C11.8954305,39 11,38.1045695 11,37 C11,35.8954305 11.8954305,35 13,35 Z M39.5294118,3 C42.4784807,3 44.8802534,5.34517212 44.9956587,8.27889472 L45,8.5 L45,26.5 C45,29.4620522 42.6701558,31.8794695 39.7495386,31.9956302 L39.5294118,32 L37.8056334,32 C37.2533487,32 36.8056334,31.5522847 36.8056334,31 C36.8056334,30.4871642 37.1916736,30.0644928 37.6890123,30.0067277 L37.8056334,30 L39.5294118,30 C41.3808488,30 42.8959128,28.5370891 42.9948599,26.6921719 L43,26.5 L43,8.5 C43,6.63002277 41.5466506,5.1047793 39.7196956,5.00517415 L39.5294118,5 L10.4705882,5 C8.61915116,5 7.1040872,6.4629109 7.00514009,8.30782813 L7,8.5 L7,11.9485122 C7,12.5007969 6.55228475,12.9485122 6,12.9485122 C5.48716416,12.9485122 5.06449284,12.562472 5.00672773,12.0651333 L5,11.9485122 L5,8.5 C5,5.53794776 7.32984419,3.12053047 10.2504614,3.00436975 L10.4705882,3 L39.5294118,3 Z M28.9023079,9.30786103 C29.2928322,8.91733674 29.9259971,8.91733674 30.3165214,9.30786103 L30.3165214,9.30786103 L37.6928627,16.6842023 L37.7705691,16.7714231 C38.0813945,17.1639408 38.0554924,17.7357862 37.6928627,18.0984159 C37.3023384,18.4889401 36.6691734,18.4889401 36.2786491,18.0984159 L36.2786491,18.0984159 L28.9023079,10.7220746 L28.8246015,10.6348538 C28.5137761,10.2423361 28.5396782,9.67049073 28.9023079,9.30786103 Z M34.1656074,7.66910191 C34.5561317,7.27857762 35.1892967,7.27857762 35.579821,7.66910191 L35.579821,7.66910191 L39.8274036,11.9166845 L39.90511,12.0039053 C40.2159354,12.396423 40.1900333,12.9682684 39.8274036,13.3308981 C39.4368793,13.7214224 38.8037143,13.7214224 38.4131901,13.3308981 L38.4131901,13.3308981 L34.1656074,9.08331548 L34.0879011,8.99609466 C33.7770756,8.60357701 33.8029777,8.03173161 34.1656074,7.66910191 Z"/>
    </g>
    <path fill="#239A98" d="M12.819426,-5.17920154e-16 L77.180574,5.17920154e-16 C81.6381677,-3.00926524e-16 83.2545989,0.464128056 84.8842285,1.33566352 C86.5138581,2.20719898 87.792801,3.48614185 88.6643365,5.11577148 C89.5358719,6.74540111 90,8.3618323 90,12.819426 L90,77.180574 C90,81.6381677 89.5358719,83.2545989 88.6643365,84.8842285 C87.792801,86.5138581 86.5138581,87.792801 84.8842285,88.6643365 C83.2545989,89.5358719 81.6381677,90 77.180574,90 L12.819426,90 C8.3618323,90 6.74540111,89.5358719 5.11577148,88.6643365 C3.48614185,87.792801 2.20719898,86.5138581 1.33566352,84.8842285 C0.464128056,83.2545989 2.00617683e-16,81.6381677 -3.45280103e-16,77.180574 L3.45280103e-16,12.819426 C-2.00617683e-16,8.3618323 0.464128056,6.74540111 1.33566352,5.11577148 C2.20719898,3.48614185 3.48614185,2.20719898 5.11577148,1.33566352 C6.74540111,0.464128056 8.3618323,3.00926524e-16 12.819426,-5.17920154e-16 Z"/>
    <g transform="translate(21 21)">
      <rect width="48" height="48"/>
      <path fill="#FFF" fill-rule="nonzero" d="M31.2541154,23 C33.776693,23 35.8768281,24.8047018 35.9947765,27.1271047 L36,27.3333333 L36,40.6666667 C36,43.0184092 33.9719385,44.8903037 31.4755597,44.9953493 L31.2541154,45 L25.0046742,45 C24.4523895,45 24.0046742,44.5522847 24.0046742,44 C24.0046742,43.4871642 24.3907144,43.0644928 24.8880531,43.0067277 L25.0046742,43 L31.2541154,43 C32.7333015,43 33.9030575,42.0117256 33.9942713,40.8170231 L34,40.6666667 L34,27.3333333 C34,26.1227859 32.8894114,25.0860895 31.4373464,25.0050907 L31.2541154,25 L25,25 C24.4477153,25 24,24.5522847 24,24 C24,23.4871642 24.3860402,23.0644928 24.8833789,23.0067277 L25,23 L31.2541154,23 Z M18.6666667,14 C21.0599006,14 23,15.9400994 23,18.3333333 L23,18.3333333 L23,38.6666667 C23,41.0599006 21.0599006,43 18.6666667,43 L18.6666667,43 L7.33333333,43 C4.94009942,43 3,41.0599006 3,38.6666667 L3,38.6666667 L3,18.3333333 C3,15.9400994 4.94009942,14 7.33333333,14 L7.33333333,14 Z M18.6666667,16 L7.33333333,16 C6.04466892,16 5,17.0446689 5,18.3333333 L5,18.3333333 L5,38.6666667 C5,39.9553311 6.04466892,41 7.33333333,41 L7.33333333,41 L18.6666667,41 C19.9553311,41 21,39.9553311 21,38.6666667 L21,38.6666667 L21,18.3333333 C21,17.0446689 19.9553311,16 18.6666667,16 L18.6666667,16 Z M28,37 C29.1045695,37 30,37.8954305 30,39 C30,40.1045695 29.1045695,41 28,41 C26.8954305,41 26,40.1045695 26,39 C26,37.8954305 26.8954305,37 28,37 Z M13,35 C14.1045695,35 15,35.8954305 15,37 C15,38.1045695 14.1045695,39 13,39 C11.8954305,39 11,38.1045695 11,37 C11,35.8954305 11.8954305,35 13,35 Z M39.5294118,3 C42.4784807,3 44.8802534,5.34517212 44.9956587,8.27889472 L45,8.5 L45,26.5 C45,29.4620522 42.6701558,31.8794695 39.7495386,31.9956302 L39.5294118,32 L37.8056334,32 C37.2533487,32 36.8056334,31.5522847 36.8056334,31 C36.8056334,30.4871642 37.1916736,30.0644928 37.6890123,30.0067277 L37.8056334,30 L39.5294118,30 C41.3808488,30 42.8959128,28.5370891 42.9948599,26.6921719 L43,26.5 L43,8.5 C43,6.63002277 41.5466506,5.1047793 39.7196956,5.00517415 L39.5294118,5 L10.4705882,5 C8.61915116,5 7.1040872,6.4629109 7.00514009,8.30782813 L7,8.5 L7,11.9485122 C7,12.5007969 6.55228475,12.9485122 6,12.9485122 C5.48716416,12.9485122 5.06449284,12.562472 5.00672773,12.0651333 L5,11.9485122 L5,8.5 C5,5.53794776 7.32984419,3.12053047 10.2504614,3.00436975 L10.4705882,3 L39.5294118,3 Z M28.9023079,9.30786103 C29.2928322,8.91733674 29.9259971,8.91733674 30.3165214,9.30786103 L30.3165214,9.30786103 L37.6928627,16.6842023 L37.7705691,16.7714231 C38.0813945,17.1639408 38.0554924,17.7357862 37.6928627,18.0984159 C37.3023384,18.4889401 36.6691734,18.4889401 36.2786491,18.0984159 L36.2786491,18.0984159 L28.9023079,10.7220746 L28.8246015,10.6348538 C28.5137761,10.2423361 28.5396782,9.67049073 28.9023079,9.30786103 Z M34.1656074,7.66910191 C34.5561317,7.27857762 35.1892967,7.27857762 35.579821,7.66910191 L35.579821,7.66910191 L39.8274036,11.9166845 L39.90511,12.0039053 C40.2159354,12.396423 40.1900333,12.9682684 39.8274036,13.3308981 C39.4368793,13.7214224 38.8037143,13.7214224 38.4131901,13.3308981 L38.4131901,13.3308981 L34.1656074,9.08331548 L34.0879011,8.99609466 C33.7770756,8.60357701 33.8029777,8.03173161 34.1656074,7.66910191 Z"/>
    </g>
  </g>
</svg>
