<svg xmlns="http://www.w3.org/2000/svg" width="200" height="102" viewBox="0 0 200 102">
  <g fill="none" fill-rule="evenodd">
    <rect width="40" height="60" y="42" fill="#66C0BD"/>
    <rect width="40" height="70" x="40" y="32" fill="#33ABA7"/>
    <rect width="40" height="81" x="80" y="21" fill="#009793"/>
    <rect width="40" height="92" x="120" y="10" fill="#007874"/>
    <rect width="40" height="102" x="160" fill="#005A57"/>
    <path fill="#FFF" fill-rule="nonzero" d="M15.755 82.75L15.755 82.14 12.175 80.26 12.175 80.24 15.755 78.36 15.755 77.74 11.485 80.03 11.485 80.46 15.755 82.75zM19.165 83.11C20.555 83.11 21.345 81.94 21.365 79.77 21.365 77.61 20.555 76.39 19.165 76.39 17.785 76.39 16.965 77.6 16.965 79.77 16.985 81.92 17.765 83.11 19.165 83.11zM19.165 82.55C18.075 82.55 17.675 81.46 17.675 79.78 17.675 78.04 18.145 76.95 19.165 76.95 20.195 76.95 20.655 78.04 20.655 79.78 20.655 81.46 20.255 82.55 19.165 82.55zM23.155 83.1C23.455 83.1 23.705 82.86 23.705 82.56 23.705 82.27 23.455 82.02 23.155 82.02 22.855 82.02 22.615 82.27 22.615 82.56 22.615 82.86 22.855 83.1 23.155 83.1zM27.975 83L27.975 81.19 28.835 81.19 28.875 80.63 27.975 80.63 27.975 76.47 27.225 76.47 24.235 80.7 24.235 81.19 27.315 81.19 27.315 83 27.975 83zM27.315 80.63L24.975 80.63 24.975 80.61 26.815 78.03 27.305 77.24 27.335 77.25 27.315 78.16 27.315 80.63zM11.74 95L13.2 89.1 13.22 89.1 14.68 95 15.44 95 17.13 88.17 16.42 88.17 15.57 91.81 15.06 94.12 15.03 94.12 14.51 91.81 13.6 88.17 12.84 88.17 11.93 91.81 11.4 94.12 11.37 94.12 10.86 91.81 10.01 88.17 9.29 88.17 10.97 95 11.74 95zM18.03 95.26L20.96 88.1 20.37 88.1 17.44 95.26 18.03 95.26zM22.59 95L22.59 92.91 23.18 92.59 24.92 95 25.75 95 23.68 92.23 25.54 90.12 24.71 90.12 23.14 92.03 22.59 92.34 22.59 87.69 21.91 87.73 21.91 95 22.59 95zM30.61 95.61C30.53 94.56 29.21 94.56 27.55 94.48 27.15 94.46 27.03 94.34 27 94.17 26.95 93.94 27.11 93.66 27.31 93.44 27.57 93.58 27.88 93.65 28.24 93.65 29.27 93.65 30.07 92.98 30.07 91.84 30.07 91.24 29.86 90.78 29.52 90.47 29.53 90.27 29.71 90.16 29.84 90.16L30.44 90.16 30.44 89.67 29.82 89.67C29.45 89.67 29.27 89.92 29.22 90.25 28.95 90.1 28.6 90.02 28.24 90.02 27.18 90.02 26.41 90.69 26.41 91.84 26.41 92.45 26.64 92.92 26.99 93.21L26.99 93.23C26.68 93.54 26.43 93.9 26.43 94.25 26.43 94.48 26.51 94.67 26.69 94.81L26.69 94.83C26.29 95.07 26.01 95.41 26 95.8 25.94 97.06 27.5 97.22 27.95 97.23 30.01 97.28 30.67 96.37 30.61 95.61zM28.24 93.14C27.4 93.14 27.07 92.6 27.07 91.84 27.07 91.08 27.4 90.54 28.24 90.54 29.08 90.54 29.41 91.08 29.41 91.84 29.41 92.6 29.08 93.14 28.24 93.14zM28.01 96.68C27.59 96.67 26.6 96.56 26.6 95.73 26.6 95.46 26.78 95.21 27.07 94.98 27.2 95.01 27.36 95.03 27.54 95.03 28.79 95.04 29.93 95.14 29.98 95.61 30.04 96.12 29.54 96.72 28.01 96.68zM51.485 70.75L55.755 68.47 55.755 68.03 51.485 65.74 51.485 66.36 55.065 68.24 55.065 68.26 51.485 70.14 51.485 70.75zM59.165 71.11C60.555 71.11 61.345 69.94 61.365 67.77 61.365 65.61 60.555 64.39 59.165 64.39 57.785 64.39 56.965 65.6 56.965 67.77 56.985 69.92 57.765 71.11 59.165 71.11zM59.165 70.55C58.075 70.55 57.675 69.46 57.675 67.78 57.675 66.04 58.145 64.95 59.165 64.95 60.195 64.95 60.655 66.04 60.655 67.78 60.655 69.46 60.255 70.55 59.165 70.55zM63.155 71.1C63.455 71.1 63.705 70.86 63.705 70.56 63.705 70.27 63.455 70.02 63.155 70.02 62.855 70.02 62.615 70.27 62.615 70.56 62.615 70.86 62.855 71.1 63.155 71.1zM67.975 71L67.975 69.19 68.835 69.19 68.875 68.63 67.975 68.63 67.975 64.47 67.225 64.47 64.235 68.7 64.235 69.19 67.315 69.19 67.315 71 67.975 71zM67.315 68.63L64.975 68.63 64.975 68.61 66.815 66.03 67.305 65.24 67.335 65.25 67.315 66.16 67.315 68.63zM55.685 82.75L55.685 82.14 52.105 80.26 52.105 80.24 55.685 78.36 55.685 77.74 51.415 80.03 51.415 80.46 55.685 82.75zM59.095 83.11C60.485 83.11 61.275 81.94 61.295 79.77 61.295 77.61 60.485 76.39 59.095 76.39 57.715 76.39 56.895 77.6 56.895 79.77 56.915 81.92 57.695 83.11 59.095 83.11zM59.095 82.55C58.005 82.55 57.605 81.46 57.605 79.78 57.605 78.04 58.075 76.95 59.095 76.95 60.125 76.95 60.585 78.04 60.585 79.78 60.585 81.46 60.185 82.55 59.095 82.55zM63.085 83.1C63.385 83.1 63.635 82.86 63.635 82.56 63.635 82.27 63.385 82.02 63.085 82.02 62.785 82.02 62.545 82.27 62.545 82.56 62.545 82.86 62.785 83.1 63.085 83.1zM66.595 83.1C67.805 83.1 68.775 82.39 68.775 81.25 68.775 80.47 68.255 79.9 67.415 79.55L67.415 79.53C68.235 79.16 68.555 78.59 68.555 77.99 68.555 77.11 67.835 76.4 66.685 76.4 65.575 76.4 64.695 77.05 64.695 78.09 64.695 78.67 65.055 79.23 65.815 79.57L65.815 79.59C64.975 79.94 64.475 80.53 64.475 81.36 64.475 82.37 65.325 83.1 66.595 83.1zM66.755 79.31C65.935 79.13 65.385 78.74 65.385 78.04 65.385 77.42 65.835 76.93 66.635 76.93 67.475 76.93 67.865 77.45 67.865 78.05 67.865 78.69 67.355 79.12 66.755 79.31zM66.615 82.57C65.665 82.57 65.185 81.98 65.185 81.26 65.185 80.58 65.705 80.07 66.495 79.82 67.425 80.06 68.065 80.48 68.065 81.32 68.065 82.06 67.495 82.57 66.615 82.57zM51.74 95L53.2 89.1 53.22 89.1 54.68 95 55.44 95 57.13 88.17 56.42 88.17 55.57 91.81 55.06 94.12 55.03 94.12 54.51 91.81 53.6 88.17 52.84 88.17 51.93 91.81 51.4 94.12 51.37 94.12 50.86 91.81 50.01 88.17 49.29 88.17 50.97 95 51.74 95zM58.03 95.26L60.96 88.1 60.37 88.1 57.44 95.26 58.03 95.26zM62.59 95L62.59 92.91 63.18 92.59 64.92 95 65.75 95 63.68 92.23 65.54 90.12 64.71 90.12 63.14 92.03 62.59 92.34 62.59 87.69 61.91 87.73 61.91 95 62.59 95zM70.61 95.61C70.53 94.56 69.21 94.56 67.55 94.48 67.15 94.46 67.03 94.34 67 94.17 66.95 93.94 67.11 93.66 67.31 93.44 67.57 93.58 67.88 93.65 68.24 93.65 69.27 93.65 70.07 92.98 70.07 91.84 70.07 91.24 69.86 90.78 69.52 90.47 69.53 90.27 69.71 90.16 69.84 90.16L70.44 90.16 70.44 89.67 69.82 89.67C69.45 89.67 69.27 89.92 69.22 90.25 68.95 90.1 68.6 90.02 68.24 90.02 67.18 90.02 66.41 90.69 66.41 91.84 66.41 92.45 66.64 92.92 66.99 93.21L66.99 93.23C66.68 93.54 66.43 93.9 66.43 94.25 66.43 94.48 66.51 94.67 66.69 94.81L66.69 94.83C66.29 95.07 66.01 95.41 66 95.8 65.94 97.06 67.5 97.22 67.95 97.23 70.01 97.28 70.67 96.37 70.61 95.61zM68.24 93.14C67.4 93.14 67.07 92.6 67.07 91.84 67.07 91.08 67.4 90.54 68.24 90.54 69.08 90.54 69.41 91.08 69.41 91.84 69.41 92.6 69.08 93.14 68.24 93.14zM68.01 96.68C67.59 96.67 66.6 96.56 66.6 95.73 66.6 95.46 66.78 95.21 67.07 94.98 67.2 95.01 67.36 95.03 67.54 95.03 68.79 95.04 69.93 95.14 69.98 95.61 70.04 96.12 69.54 96.72 68.01 96.68zM91.415 70.75L95.685 68.47 95.685 68.03 91.415 65.74 91.415 66.36 94.995 68.24 94.995 68.26 91.415 70.14 91.415 70.75zM99.095 71.11C100.485 71.11 101.275 69.94 101.295 67.77 101.295 65.61 100.485 64.39 99.095 64.39 97.715 64.39 96.895 65.6 96.895 67.77 96.915 69.92 97.695 71.11 99.095 71.11zM99.095 70.55C98.005 70.55 97.605 69.46 97.605 67.78 97.605 66.04 98.075 64.95 99.095 64.95 100.125 64.95 100.585 66.04 100.585 67.78 100.585 69.46 100.185 70.55 99.095 70.55zM103.085 71.1C103.385 71.1 103.635 70.86 103.635 70.56 103.635 70.27 103.385 70.02 103.085 70.02 102.785 70.02 102.545 70.27 102.545 70.56 102.545 70.86 102.785 71.1 103.085 71.1zM106.595 71.1C107.805 71.1 108.775 70.39 108.775 69.25 108.775 68.47 108.255 67.9 107.415 67.55L107.415 67.53C108.235 67.16 108.555 66.59 108.555 65.99 108.555 65.11 107.835 64.4 106.685 64.4 105.575 64.4 104.695 65.05 104.695 66.09 104.695 66.67 105.055 67.23 105.815 67.57L105.815 67.59C104.975 67.94 104.475 68.53 104.475 69.36 104.475 70.37 105.325 71.1 106.595 71.1zM106.755 67.31C105.935 67.13 105.385 66.74 105.385 66.04 105.385 65.42 105.835 64.93 106.635 64.93 107.475 64.93 107.865 65.45 107.865 66.05 107.865 66.69 107.355 67.12 106.755 67.31zM106.615 70.57C105.665 70.57 105.185 69.98 105.185 69.26 105.185 68.58 105.705 68.07 106.495 67.82 107.425 68.06 108.065 68.48 108.065 69.32 108.065 70.06 107.495 70.57 106.615 70.57zM96.255 82.75L96.255 82.14 92.675 80.26 92.675 80.24 96.255 78.36 96.255 77.74 91.985 80.03 91.985 80.46 96.255 82.75zM99.815 83L99.815 76.47 99.215 76.47 97.785 77.23 97.985 77.75 99.115 77.15 99.135 77.15 99.145 83 99.815 83zM102.725 83.1C103.025 83.1 103.275 82.86 103.275 82.56 103.275 82.27 103.025 82.02 102.725 82.02 102.425 82.02 102.185 82.27 102.185 82.56 102.185 82.86 102.425 83.1 102.725 83.1zM108.115 83L108.155 82.42 105.015 82.41C106.705 80.89 108.005 79.75 108.005 78.26 108.005 77.29 107.395 76.4 106.095 76.4 105.415 76.4 104.785 76.64 104.325 76.95L104.515 77.44C104.915 77.21 105.385 76.99 105.965 76.99 106.925 76.99 107.295 77.6 107.295 78.35 107.295 79.54 106.205 80.58 104.085 82.52L104.085 83 108.115 83zM91.74 95L93.2 89.1 93.22 89.1 94.68 95 95.44 95 97.13 88.17 96.42 88.17 95.57 91.81 95.06 94.12 95.03 94.12 94.51 91.81 93.6 88.17 92.84 88.17 91.93 91.81 91.4 94.12 91.37 94.12 90.86 91.81 90.01 88.17 89.29 88.17 90.97 95 91.74 95zM98.03 95.26L100.96 88.1 100.37 88.1 97.44 95.26 98.03 95.26zM102.59 95L102.59 92.91 103.18 92.59 104.92 95 105.75 95 103.68 92.23 105.54 90.12 104.71 90.12 103.14 92.03 102.59 92.34 102.59 87.69 101.91 87.73 101.91 95 102.59 95zM110.61 95.61C110.53 94.56 109.21 94.56 107.55 94.48 107.15 94.46 107.03 94.34 107 94.17 106.95 93.94 107.11 93.66 107.31 93.44 107.57 93.58 107.88 93.65 108.24 93.65 109.27 93.65 110.07 92.98 110.07 91.84 110.07 91.24 109.86 90.78 109.52 90.47 109.53 90.27 109.71 90.16 109.84 90.16L110.44 90.16 110.44 89.67 109.82 89.67C109.45 89.67 109.27 89.92 109.22 90.25 108.95 90.1 108.6 90.02 108.24 90.02 107.18 90.02 106.41 90.69 106.41 91.84 106.41 92.45 106.64 92.92 106.99 93.21L106.99 93.23C106.68 93.54 106.43 93.9 106.43 94.25 106.43 94.48 106.51 94.67 106.69 94.81L106.69 94.83C106.29 95.07 106.01 95.41 106 95.8 105.94 97.06 107.5 97.22 107.95 97.23 110.01 97.28 110.67 96.37 110.61 95.61zM108.24 93.14C107.4 93.14 107.07 92.6 107.07 91.84 107.07 91.08 107.4 90.54 108.24 90.54 109.08 90.54 109.41 91.08 109.41 91.84 109.41 92.6 109.08 93.14 108.24 93.14zM108.01 96.68C107.59 96.67 106.6 96.56 106.6 95.73 106.6 95.46 106.78 95.21 107.07 94.98 107.2 95.01 107.36 95.03 107.54 95.03 108.79 95.04 109.93 95.14 109.98 95.61 110.04 96.12 109.54 96.72 108.01 96.68zM131.985 70.75L136.255 68.47 136.255 68.03 131.985 65.74 131.985 66.36 135.565 68.24 135.565 68.26 131.985 70.14 131.985 70.75zM139.815 71L139.815 64.47 139.215 64.47 137.785 65.23 137.985 65.75 139.115 65.15 139.135 65.15 139.145 71 139.815 71zM142.725 71.1C143.025 71.1 143.275 70.86 143.275 70.56 143.275 70.27 143.025 70.02 142.725 70.02 142.425 70.02 142.185 70.27 142.185 70.56 142.185 70.86 142.425 71.1 142.725 71.1zM148.115 71L148.155 70.42 145.015 70.41C146.705 68.89 148.005 67.75 148.005 66.26 148.005 65.29 147.395 64.4 146.095 64.4 145.415 64.4 144.785 64.64 144.325 64.95L144.515 65.44C144.915 65.21 145.385 64.99 145.965 64.99 146.925 64.99 147.295 65.6 147.295 66.35 147.295 67.54 146.205 68.58 144.085 70.52L144.085 71 148.115 71zM136.17 82.75L136.17 82.14 132.59 80.26 132.59 80.24 136.17 78.36 136.17 77.74 131.9 80.03 131.9 80.46 136.17 82.75zM139.73 83L139.73 76.47 139.13 76.47 137.7 77.23 137.9 77.75 139.03 77.15 139.05 77.15 139.06 83 139.73 83zM142.64 83.1C142.94 83.1 143.19 82.86 143.19 82.56 143.19 82.27 142.94 82.02 142.64 82.02 142.34 82.02 142.1 82.27 142.1 82.56 142.1 82.86 142.34 83.1 142.64 83.1zM146.19 83.1C147.52 83.1 148.32 82.06 148.32 80.85 148.32 79.61 147.55 78.75 146.37 78.75 145.68 78.75 145.09 79.08 144.74 79.53L144.72 79.53C144.91 77.93 146.14 76.94 147.73 76.94L147.73 76.3599444C145.74 76.35 144.01 77.69 144.01 80.35 144.01 82.04 144.86 83.1 146.19 83.1zM146.24 82.55C145.2 82.55 144.67 81.65 144.69 80.36 144.85 79.8 145.56 79.31 146.19 79.31 147.07 79.31 147.62 79.92 147.62 80.89 147.62 81.89 147.05 82.55 146.24 82.55zM131.74 95L133.2 89.1 133.22 89.1 134.68 95 135.44 95 137.13 88.17 136.42 88.17 135.57 91.81 135.06 94.12 135.03 94.12 134.51 91.81 133.6 88.17 132.84 88.17 131.93 91.81 131.4 94.12 131.37 94.12 130.86 91.81 130.01 88.17 129.29 88.17 130.97 95 131.74 95zM138.03 95.26L140.96 88.1 140.37 88.1 137.44 95.26 138.03 95.26zM142.59 95L142.59 92.91 143.18 92.59 144.92 95 145.75 95 143.68 92.23 145.54 90.12 144.71 90.12 143.14 92.03 142.59 92.34 142.59 87.69 141.91 87.73 141.91 95 142.59 95zM150.61 95.61C150.53 94.56 149.21 94.56 147.55 94.48 147.15 94.46 147.03 94.34 147 94.17 146.95 93.94 147.11 93.66 147.31 93.44 147.57 93.58 147.88 93.65 148.24 93.65 149.27 93.65 150.07 92.98 150.07 91.84 150.07 91.24 149.86 90.78 149.52 90.47 149.53 90.27 149.71 90.16 149.84 90.16L150.44 90.16 150.44 89.67 149.82 89.67C149.45 89.67 149.27 89.92 149.22 90.25 148.95 90.1 148.6 90.02 148.24 90.02 147.18 90.02 146.41 90.69 146.41 91.84 146.41 92.45 146.64 92.92 146.99 93.21L146.99 93.23C146.68 93.54 146.43 93.9 146.43 94.25 146.43 94.48 146.51 94.67 146.69 94.81L146.69 94.83C146.29 95.07 146.01 95.41 146 95.8 145.94 97.06 147.5 97.22 147.95 97.23 150.01 97.28 150.67 96.37 150.61 95.61zM148.24 93.14C147.4 93.14 147.07 92.6 147.07 91.84 147.07 91.08 147.4 90.54 148.24 90.54 149.08 90.54 149.41 91.08 149.41 91.84 149.41 92.6 149.08 93.14 148.24 93.14zM148.01 96.68C147.59 96.67 146.6 96.56 146.6 95.73 146.6 95.46 146.78 95.21 147.07 94.98 147.2 95.01 147.36 95.03 147.54 95.03 148.79 95.04 149.93 95.14 149.98 95.61 150.04 96.12 149.54 96.72 148.01 96.68zM171.9 70.75L176.17 68.47 176.17 68.03 171.9 65.74 171.9 66.36 175.48 68.24 175.48 68.26 171.9 70.14 171.9 70.75zM179.73 71L179.73 64.47 179.13 64.47 177.7 65.23 177.9 65.75 179.03 65.15 179.05 65.15 179.06 71 179.73 71zM182.64 71.1C182.94 71.1 183.19 70.86 183.19 70.56 183.19 70.27 182.94 70.02 182.64 70.02 182.34 70.02 182.1 70.27 182.1 70.56 182.1 70.86 182.34 71.1 182.64 71.1zM186.19 71.1C187.52 71.1 188.32 70.06 188.32 68.85 188.32 67.61 187.55 66.75 186.37 66.75 185.68 66.75 185.09 67.08 184.74 67.53L184.72 67.53C184.91 65.93 186.14 64.94 187.73 64.94L187.73 64.3599444C185.74 64.35 184.01 65.69 184.01 68.35 184.01 70.04 184.86 71.1 186.19 71.1zM186.24 70.55C185.2 70.55 184.67 69.65 184.69 68.36 184.85 67.8 185.56 67.31 186.19 67.31 187.07 67.31 187.62 67.92 187.62 68.89 187.62 69.89 187.05 70.55 186.24 70.55zM179.575 82.75L179.575 82.14 175.995 80.26 175.995 80.24 179.575 78.36 179.575 77.74 175.305 80.03 175.305 80.46 179.575 82.75zM184.795 83L184.835 82.42 181.695 82.41C183.385 80.89 184.685 79.75 184.685 78.26 184.685 77.29 184.075 76.4 182.775 76.4 182.095 76.4 181.465 76.64 181.005 76.95L181.195 77.44C181.595 77.21 182.065 76.99 182.645 76.99 183.605 76.99 183.975 77.6 183.975 78.35 183.975 79.54 182.885 80.58 180.765 82.52L180.765 83 184.795 83zM171.74 95L173.2 89.1 173.22 89.1 174.68 95 175.44 95 177.13 88.17 176.42 88.17 175.57 91.81 175.06 94.12 175.03 94.12 174.51 91.81 173.6 88.17 172.84 88.17 171.93 91.81 171.4 94.12 171.37 94.12 170.86 91.81 170.01 88.17 169.29 88.17 170.97 95 171.74 95zM178.03 95.26L180.96 88.1 180.37 88.1 177.44 95.26 178.03 95.26zM182.59 95L182.59 92.91 183.18 92.59 184.92 95 185.75 95 183.68 92.23 185.54 90.12 184.71 90.12 183.14 92.03 182.59 92.34 182.59 87.69 181.91 87.73 181.91 95 182.59 95zM190.61 95.61C190.53 94.56 189.21 94.56 187.55 94.48 187.15 94.46 187.03 94.34 187 94.17 186.95 93.94 187.11 93.66 187.31 93.44 187.57 93.58 187.88 93.65 188.24 93.65 189.27 93.65 190.07 92.98 190.07 91.84 190.07 91.24 189.86 90.78 189.52 90.47 189.53 90.27 189.71 90.16 189.84 90.16L190.44 90.16 190.44 89.67 189.82 89.67C189.45 89.67 189.27 89.92 189.22 90.25 188.95 90.1 188.6 90.02 188.24 90.02 187.18 90.02 186.41 90.69 186.41 91.84 186.41 92.45 186.64 92.92 186.99 93.21L186.99 93.23C186.68 93.54 186.43 93.9 186.43 94.25 186.43 94.48 186.51 94.67 186.69 94.81L186.69 94.83C186.29 95.07 186.01 95.41 186 95.8 185.94 97.06 187.5 97.22 187.95 97.23 190.01 97.28 190.67 96.37 190.61 95.61zM188.24 93.14C187.4 93.14 187.07 92.6 187.07 91.84 187.07 91.08 187.4 90.54 188.24 90.54 189.08 90.54 189.41 91.08 189.41 91.84 189.41 92.6 189.08 93.14 188.24 93.14zM188.01 96.68C187.59 96.67 186.6 96.56 186.6 95.73 186.6 95.46 186.78 95.21 187.07 94.98 187.2 95.01 187.36 95.03 187.54 95.03 188.79 95.04 189.93 95.14 189.98 95.61 190.04 96.12 189.54 96.72 188.01 96.68zM17.652 55L18.24 52.9 20.64 52.9 21.252 55 23.004 55 20.52 46.792 18.42 46.792 15.936 55 17.652 55zM20.364 51.628L18.528 51.628 19.176 49.12 19.428 48.148 19.452 48.148 19.692 49.12 20.364 51.628zM59.07 55.048C61.674 55.048 63.054 54.484 63.054 52.672 63.054 51.628 62.31 50.908 61.434 50.668L61.434 50.644C62.286 50.32 62.778 49.624 62.778 48.844 62.778 47.26 61.458 46.768 59.634 46.768 58.758 46.768 57.858 46.816 57.258 46.876L57.258 54.988C57.714 55.012 58.314 55.048 59.07 55.048zM59.658 50.128L58.866 50.128 58.866 48.052C59.118 48.04 59.418 48.016 59.838 48.016 60.618 48.016 61.122 48.328 61.122 49.036 61.122 49.732 60.642 50.128 59.658 50.128zM59.61 53.788C59.322 53.788 59.082 53.788 58.866 53.776L58.866 51.364 59.814 51.364C60.69 51.364 61.338 51.748 61.338 52.576 61.338 53.488 60.63 53.788 59.61 53.788zM100.942 55.12C101.83 55.12 102.622 54.964 103.042 54.772L102.874 53.452C102.418 53.644 101.758 53.764 101.146 53.764 99.562 53.764 98.674 52.684 98.674 50.908 98.674 49.036 99.67 48.04 101.146 48.04 101.818 48.04 102.394 48.172 102.874 48.352L103.102 47.044C102.694 46.852 101.95 46.684 101.062 46.684 98.554 46.684 96.97 48.412 96.97 50.98 96.97 53.308 98.278 55.12 100.942 55.12zM138.806 55.048C141.914 55.048 143.546 53.68 143.546 50.788 143.546 48.304 142.154 46.768 139.274 46.768 138.398 46.768 137.522 46.804 136.79 46.876L136.79 54.988C137.318 55.012 137.978 55.048 138.806 55.048zM139.058 53.752C138.83 53.752 138.59 53.74 138.422 53.716L138.422 48.112C138.65 48.088 138.962 48.064 139.346 48.064 140.942 48.064 141.83 49.036 141.83 50.812 141.83 52.9 140.822 53.752 139.058 53.752z"/>
    <polygon fill="#FFF" fill-rule="nonzero" points="182.7 55 182.772 53.656 179.376 53.656 179.376 51.46 182.244 51.46 182.328 50.116 179.376 50.116 179.376 48.16 182.532 48.16 182.616 46.804 177.744 46.804 177.744 55"/>
  </g>
</svg>
