<?xml version="1.0" encoding="UTF-8"?>
<svg width="37px" height="48px" viewBox="0 0 37 48" version="1.1" xmlns="http://www.w3.org/2000/svg" xmlns:xlink="http://www.w3.org/1999/xlink">
    <title>TLN Smiley logo Copy 4</title>
    <defs>
        <polygon id="path-1" points="0 0 36.8 0 36.8 48 0 48"></polygon>
    </defs>
    <g id="Minisite-(UI-voorstel)" stroke="none" stroke-width="1" fill="none" fill-rule="evenodd">
        <g id="Telenet-2.0-/-MiniSite-/-SubNavigation-/-SecondTab-/-Desktop" transform="translate(-154.000000, -16.000000)">
            <g id="TLN-Smiley-logo-Copy-4" transform="translate(154.000000, 16.000000)">
                <mask id="mask-2" fill="white">
                    <use xlink:href="#path-1"></use>
                </mask>
                <g id="Clip-2"></g>
                <path d="M18.4131562,25.7152331 C22.0757793,25.713437 25.1539632,23.562022 26.1393736,22.7940252 C26.1393736,22.7940252 26.4673348,22.4836653 26.4673348,22.1893803 L26.4673348,21.2094479 C26.4673348,20.7187633 26.0948312,20.9828744 26.0948312,20.9828744 C25.0982852,21.6092517 22.1880332,23.205234 18.4131562,23.205234 C14.6380995,23.205234 11.7283863,21.6092517 10.7314811,20.9828744 C10.7314811,20.9828744 10.3587979,20.7187633 10.3587979,21.2094479 L10.3587979,22.1893803 C10.3587979,22.4836653 10.6869388,22.7940252 10.6869388,22.7940252 C11.6705531,23.562022 14.7501739,25.713437 18.4131562,25.7152331 M16.5456988,13.7141145 C16.5456988,11.3076584 13.6758583,11.3042459 13.6758583,11.3042459 C13.6758583,11.3042459 10.8060178,11.3076584 10.8060178,13.7141145 C10.8060178,16.122187 13.6758583,16.1255995 13.6758583,16.1255995 C13.6758583,16.1255995 16.5456988,16.122187 16.5456988,13.7141145 M25.8735561,14.8421323 L25.8735561,12.9301326 C25.8735561,12.754747 25.650934,12.6998773 25.650934,12.6998773 C24.72192,12.4559718 23.8011679,12.3195607 22.8906534,12.2999836 C22.0328533,12.2848967 21.1781066,12.3698505 20.3246171,12.5560125 C20.3246171,12.5560125 20.1120529,12.6218383 20.1120529,12.8093473 L20.1120529,14.7006025 C20.1120529,15.0516432 20.3589219,14.955913 20.3589219,14.955913 C21.1615828,14.8415935 21.9466423,14.7918426 22.884008,14.8091746 C23.7912896,14.8285721 24.7483222,14.9161302 25.5962439,15.0721183 C25.5962439,15.0721183 25.8735561,15.1383033 25.8735561,14.8421323 M31.1854148,26.9814581 C30.9187891,29.1796606 29.2241131,30.9099884 27.0257311,31.175716 C27.0257311,31.175716 23.5359791,31.7166905 18.3999551,31.7166905 C13.2633923,31.7166905 9.77399954,31.175716 9.77399954,31.175716 C7.57579706,30.9099884 5.88130068,29.1796606 5.6143158,26.9814581 C5.6143158,26.9809193 5.08330954,23.0609202 5.08330954,18.3996857 C5.08330954,13.7383613 5.6143158,9.81845212 5.6143158,9.8179133 C5.88130068,7.62007004 7.57579706,5.88992179 9.77399954,5.62473297 C9.77399954,5.62473297 13.2633923,5.08312993 18.3999551,5.08312993 C23.5359791,5.08312993 27.0257311,5.62473297 27.0257311,5.62473297 C29.2241131,5.88992179 30.9187891,7.62007004 31.1854148,9.8179133 C31.1854148,9.81845212 31.7172293,13.7383613 31.7172293,18.3996857 C31.7172293,23.0609202 31.1854148,26.9809193 31.1854148,26.9814581 M36.0659487,6.54216235 C35.6972168,3.5055573 33.3560477,1.11418817 30.317916,0.747880962 C30.317916,0.747880962 25.496742,0 18.3999551,0 C11.3028988,0 6.48136559,0.747880962 6.48136559,0.747880962 C3.44386251,1.11418817 1.10251376,3.5055573 0.733961468,6.54216235 C0.733692058,6.54261137 0,11.9595398 0,18.3996857 C0,24.8402806 0.733692058,30.2568498 0.733961468,30.2574784 C1.10251376,33.2942631 3.44386251,35.6851832 6.48136559,36.0520292 C6.48136559,36.0520292 11.3028988,36.8 18.3999551,36.8 C25.496742,36.8 30.317916,36.0520292 30.317916,36.0520292 C33.3560477,35.6851832 35.6972168,33.2942631 36.0659487,30.2574784 C36.0659487,30.2568498 36.8,24.8402806 36.8,18.3996857 C36.8,11.9595398 36.0659487,6.54261137 36.0659487,6.54216235" id="Fill-1" fill="#FFC421" mask="url(#mask-2)"></path>
                <path d="M1.82753977,47.941508 C3.44496133,47.941508 4.34895828,47.2639756 4.34895828,45.9966489 C4.34895828,45.4555979 4.05577008,44.8560548 3.54269073,44.5782178 C3.91406245,44.3052551 4.10952125,43.8811881 4.10952125,43.4912414 C4.10952125,42.3116527 3.27882135,41.6536177 1.82753977,41.6536177 L0.786721666,41.6536177 C0.337166428,41.6536177 0,41.9412034 0,42.3360244 L0,47.239604 C0,47.6392993 0.356712308,47.941508 0.801381076,47.941508 L1.82753977,47.941508 Z M1.9692474,44.0712871 L1.58810274,44.0712871 L1.58810274,43.0330541 L1.79822095,43.0330541 C2.31618677,43.0330541 2.49698616,43.1549124 2.49698616,43.5546078 C2.49698616,43.9348058 2.24777619,44.0712871 1.9692474,44.0712871 Z M1.82753977,46.5620716 L1.58810274,46.5620716 L1.58810274,45.4507235 L2.04743092,45.4507235 C2.56051027,45.4507235 2.73642319,45.6895659 2.73642319,45.9966489 C2.73642319,46.3963442 2.4578944,46.5620716 1.82753977,46.5620716 Z M8.59529987,47.941508 C9.03996864,47.941508 9.3722486,47.5661843 9.3722486,47.151866 C9.3722486,47.0105103 9.3233839,46.8204113 9.2256545,46.5620716 C8.94223924,45.7919269 8.72234809,45.2996192 8.35097637,44.9681645 C8.96667159,44.6415842 9.24031391,44.1687738 9.24031391,43.5253618 C9.24031391,42.448134 8.492684,41.6536177 7.11958594,41.6536177 L5.77092023,41.6536177 C5.32625146,41.6536177 4.97931209,41.9558264 4.97931209,42.3555217 L4.97931209,47.239604 C4.97931209,47.6392993 5.32625146,47.941508 5.77092023,47.941508 C6.21558899,47.941508 6.56741483,47.6392993 6.56741483,47.239604 L6.56741483,45.4604722 L6.70912246,45.4604722 C7.08049418,45.4604722 7.36390944,45.8845392 7.81835115,47.3955826 C7.92585349,47.751409 8.24347403,47.941508 8.59529987,47.941508 Z M7.11958594,44.0810358 L6.56741483,44.0810358 L6.56741483,43.0330541 L7.11958594,43.0330541 C7.43232002,43.0330541 7.62289235,43.2182788 7.62289235,43.5009901 C7.62289235,43.8958111 7.46163884,44.0810358 7.11958594,44.0810358 Z M12.1184439,48 C13.5355202,48 14.4541766,47.107997 14.4541766,45.7383092 L14.4541766,42.3506474 C14.4541766,41.950952 14.1121237,41.6536177 13.6625684,41.6536177 C13.2130132,41.6536177 12.8709603,41.950952 12.8709603,42.3506474 L12.8709603,45.7188119 C12.8709603,46.2939832 12.6070909,46.6156893 12.1282169,46.6156893 C11.6444563,46.6156893 11.3757005,46.2891089 11.3757005,45.7188119 L11.3757005,42.3506474 C11.3757005,41.9558264 11.0336476,41.6536177 10.5938653,41.6536177 C10.14431,41.6536177 9.79248421,41.9558264 9.79248421,42.3506474 L9.79248421,45.7383092 C9.79248421,47.107997 10.7013676,48 12.1184439,48 Z M16.8680919,47.9951257 C18.1727794,47.9951257 19.0914357,47.1908606 19.0914357,46.0356436 C19.0914357,43.9396801 16.5749037,44.1346535 16.5749037,43.3937548 C16.5749037,43.1597867 16.7752489,42.9794364 17.0440048,42.9794364 C17.254123,42.9794364 17.4349224,43.0769231 17.6939053,43.2718964 C17.8453859,43.3840061 18.0457311,43.4473724 18.2216441,43.4473724 C18.6223346,43.4473724 18.9448416,43.1256664 18.9448416,42.7210967 C18.9448416,42.4871287 18.8373393,42.287281 18.6321075,42.126428 C18.1874388,41.7803503 17.6059488,41.6 17.0440048,41.6 C15.8761385,41.6 14.9623686,42.375019 14.9623686,43.3937548 C14.9623686,45.4019802 17.4789006,45.2801219 17.4789006,46.0356436 C17.4789006,46.4012186 17.254123,46.6156893 16.8680919,46.6156893 C16.5749037,46.6156893 16.3696719,46.4499619 16.1400078,46.2793602 C15.9983002,46.1721249 15.7979549,46.0453922 15.5682909,46.0453922 C15.143168,46.0453922 14.8304339,46.4012186 14.8304339,46.7814166 C14.8304339,46.9910129 14.9574821,47.210358 15.1578274,47.371211 C15.6562473,47.7709063 16.2377372,47.9951257 16.8680919,47.9951257 Z M21.2561412,47.9951257 C22.5608287,47.9951257 23.479485,47.1908606 23.479485,46.0356436 C23.479485,43.9396801 20.962953,44.1346535 20.962953,43.3937548 C20.962953,43.1597867 21.1632983,42.9794364 21.4320541,42.9794364 C21.6421723,42.9794364 21.8229717,43.0769231 22.0819546,43.2718964 C22.2334352,43.3840061 22.4337805,43.4473724 22.6096934,43.4473724 C23.0103839,43.4473724 23.3328909,43.1256664 23.3328909,42.7210967 C23.3328909,42.4871287 23.2253886,42.287281 23.0201569,42.126428 C22.5754881,41.7803503 21.9939982,41.6 21.4320541,41.6 C20.2641878,41.6 19.3504179,42.375019 19.3504179,43.3937548 C19.3504179,45.4019802 21.8669499,45.2801219 21.8669499,46.0356436 C21.8669499,46.4012186 21.6421723,46.6156893 21.2561412,46.6156893 C20.962953,46.6156893 20.7577213,46.4499619 20.5280572,46.2793602 C20.3863495,46.1721249 20.1860043,46.0453922 19.9563402,46.0453922 C19.5312173,46.0453922 19.2184832,46.4012186 19.2184832,46.7814166 C19.2184832,46.9910129 19.3455314,47.210358 19.5458767,47.371211 C20.0442966,47.7709063 20.6257866,47.9951257 21.2561412,47.9951257 Z M27.2909309,47.941508 C27.7404861,47.941508 28.0190149,47.649048 28.0190149,47.2493526 C28.0190149,46.8496573 27.7404861,46.5620716 27.2909309,46.5620716 L25.639304,46.5620716 L25.639304,45.3971059 L26.9830833,45.3971059 C27.4326385,45.3971059 27.7111673,45.0997715 27.7111673,44.7000762 C27.7111673,44.3052551 27.4326385,44.0127951 26.9830833,44.0127951 L25.639304,44.0127951 L25.639304,43.0330541 L27.1247909,43.0330541 C27.5694597,43.0330541 27.8528749,42.7405941 27.8528749,42.3360244 C27.8528749,41.9412034 27.5743461,41.6536177 27.1247909,41.6536177 L24.8379229,41.6536177 C24.3883677,41.6536177 24.0512013,41.9412034 24.0512013,42.3360244 L24.0512013,47.2493526 C24.0512013,47.649048 24.3883677,47.941508 24.8379229,47.941508 L27.2909309,47.941508 Z M31.6398884,47.941508 C32.0894437,47.941508 32.4412695,47.6441736 32.4412695,47.2493526 C32.4412695,46.8545316 32.0894437,46.5620716 31.6398884,46.5620716 L30.0517857,46.5620716 L30.0517857,42.345773 C30.0517857,41.950952 29.7048463,41.6536177 29.2552911,41.6536177 C28.8106223,41.6536177 28.4636829,41.950952 28.4636829,42.345773 L28.4636829,47.2493526 C28.4636829,47.6441736 28.8106223,47.941508 29.2552911,47.941508 L31.6398884,47.941508 Z M34.5766562,47.9951257 C35.8813436,47.9951257 36.8,47.1908606 36.8,46.0356436 C36.8,43.9396801 34.283468,44.1346535 34.283468,43.3937548 C34.283468,43.1597867 34.4838132,42.9794364 34.7525691,42.9794364 C34.9626873,42.9794364 35.1434867,43.0769231 35.4024696,43.2718964 C35.5539502,43.3840061 35.7542954,43.4473724 35.9302083,43.4473724 C36.3308989,43.4473724 36.6534059,43.1256664 36.6534059,42.7210967 C36.6534059,42.4871287 36.5459036,42.287281 36.3406718,42.126428 C35.8960031,41.7803503 35.3145131,41.6 34.7525691,41.6 C33.5847028,41.6 32.6709329,42.375019 32.6709329,43.3937548 C32.6709329,45.4019802 35.1874649,45.2801219 35.1874649,46.0356436 C35.1874649,46.4012186 34.9626873,46.6156893 34.5766562,46.6156893 C34.283468,46.6156893 34.0782362,46.4499619 33.8485721,46.2793602 C33.7068645,46.1721249 33.5065192,46.0453922 33.2768551,46.0453922 C32.8517323,46.0453922 32.5389982,46.4012186 32.5389982,46.7814166 C32.5389982,46.9910129 32.6660464,47.210358 32.8663917,47.371211 C33.3648116,47.7709063 33.9463015,47.9951257 34.5766562,47.9951257 Z" id="BRUSSELS" fill="#FFC421" fill-rule="nonzero" mask="url(#mask-2)"></path>
            </g>
        </g>
    </g>
</svg>