<?xml version="1.0" encoding="UTF-8"?>
<svg width="66px" height="66px" viewBox="0 0 66 66" version="1.1" xmlns="http://www.w3.org/2000/svg" xmlns:xlink="http://www.w3.org/1999/xlink">
    <title>Group 21</title>
    <defs>
        <path d="M46.3092817,34.4582552 L46.3092817,23.492239 L46.3092817,23.492239 L14.5490219,9.23484088 L21.1146638,6.14448056 L52.2036537,19.7996887 L52.2036537,31.9115098 C52.2036537,32.3036484 51.9744565,32.6595979 51.6174688,32.8218707 L47.0161892,34.9134356 C46.7648,35.0277075 46.4683731,34.9165519 46.3541012,34.6651627 C46.324564,34.6001832 46.3092817,34.5296328 46.3092817,34.4582552 Z" id="path-1"></path>
    </defs>
    <g id="🟢-All-Journeys" stroke="none" stroke-width="1" fill="none" fill-rule="evenodd">
        <g id="Return-Rented-Devices---V1.1-(M)" transform="translate(-35.000000, -410.000000)">
            <g id="Group-21" transform="translate(36.000000, 411.000000)">
                <path d="M32.8090364,39.6230845 L32.8090364,30.7243931 C32.8090364,30.2631567 32.5546998,29.8444935 32.1585713,29.6536632 L1.5685543,14.9172762 C1.01069483,14.6485338 0.352939098,14.9100572 0.0994157478,15.5014049 C0.0338980239,15.6542262 0,15.8201437 0,15.988006 L0,47.589816 C0,48.0350792 0.237210165,48.4421654 0.612816571,48.6414959 C22.0769631,58.8300157 32.8090364,63.8633462 32.8090364,63.7414874 L32.8090364,52.3819224 L32.8090364,49.4502941" id="Path" stroke="#979797" stroke-width="2" stroke-linecap="round"></path>
                <path d="M8.01037713,28.0991515 L8.01037713,42.8711487 C8.01037713,43.2412002 8.21473367,43.5810005 8.5416078,43.7544693 L23.3298899,51.6024614 C23.8177344,51.8613555 24.4230857,51.6757546 24.6819798,51.1879101 C24.7585972,51.0435369 24.7986592,50.8825845 24.7986592,50.7191408 L24.7986592,35.2232354 C24.7986592,34.8391567 24.5786836,34.4890157 24.2326628,34.3223242 L9.44438067,27.1982403 C8.94682118,26.9585468 8.3491595,27.1675884 8.10946597,27.6651479 C8.04424588,27.8005328 8.01037713,27.948876 8.01037713,28.0991515 Z" id="Path-6" stroke="#979797" stroke-width="2"></path>
                <path d="M32.8090364,29.9670172 L62.5479908,14.8974188 C63.0406361,14.647781 63.6423755,14.8447775 63.8920133,15.3374229 C63.9630055,15.4775218 64,15.6323728 64,15.7894321 L64,46.7828941 C64,47.1547376 63.7936787,47.495875 63.464356,47.6685428 L32.8090364,63.7414874 L32.8090364,63.7414874" id="Path-8" stroke="#979797" stroke-width="2" stroke-linecap="round"></path>
                <path d="M1.08640582,14.9732376 L33.8690606,0.183992232 C34.1285632,0.0669227437 34.4256619,0.0660077624 34.6858807,0.181476652 L56.6120969,9.91096453 L56.6120969,9.91096453" id="Path-9" stroke="#979797" stroke-width="2" stroke-linecap="round"></path>
                <line x1="11.0917716" y1="34.8255884" x2="17.5293825" y2="37.9375048" id="Path-12" stroke="#979797" stroke-width="2" stroke-linecap="round"></line>
                <line x1="11.0917716" y1="39.5300424" x2="21.0426237" y2="44.4477341" id="Path-12-Copy" stroke="#979797" stroke-width="2" stroke-linecap="round"></line>
                <mask id="mask-2" fill="white">
                    <use xlink:href="#path-1"></use>
                </mask>
                <use id="Path-10" stroke="#979797" stroke-width="2" xlink:href="#path-1"></use>
            </g>
        </g>
    </g>
</svg>