<svg width="246" height="100" viewBox="0 0 246 100" fill="none" xmlns="http://www.w3.org/2000/svg">
<path fill-rule="evenodd" clip-rule="evenodd" d="M126.558 85.4127C123.911 83.1308 122.589 80.2381 122.589 76.7313V51.2326H113.56V39.4258H119.215C121.662 39.4258 122.886 38.2028 122.886 35.7548V26.3292L137.372 23.1542V39.4258H148.782V51.2326H137.372V73.2587C137.372 75.5746 138.694 76.7313 141.341 76.7313C142.861 76.7313 144.317 76.3683 145.706 75.6399L148.683 86.4545C145.706 88.042 142.1 88.8357 137.868 88.8357C132.972 88.8357 129.202 87.6947 126.558 85.4127Z" fill="#FFC421"/>
<path fill-rule="evenodd" clip-rule="evenodd" d="M153.792 39.4259H169.27L179.588 72.0682L189.212 39.4259H204.69L186.732 87.4468H171.651L153.792 39.4259Z" fill="#FFC421"/>
<path fill-rule="evenodd" clip-rule="evenodd" d="M77.4418 75.3841C76.7794 80.8426 72.571 85.1392 67.1123 85.7998C67.1123 85.7998 58.4462 87.1429 45.6919 87.1429C32.9363 87.1429 24.2715 85.7998 24.2715 85.7998C18.8131 85.1392 14.6055 80.8426 13.9423 75.3841C13.9423 75.3841 12.6232 65.6486 12.6232 54.0734C12.6232 42.498 13.9423 32.7627 13.9423 32.7627C14.6055 27.3048 18.8131 23.0082 24.2715 22.3494C24.2715 22.3494 32.9363 21.0053 45.6919 21.0053C58.4462 21.0053 67.1123 22.3494 67.1123 22.3494C72.571 23.0082 76.7794 27.3048 77.4418 32.7627C77.4418 32.7627 78.7624 42.498 78.7624 54.0734C78.7624 65.6486 77.4418 75.3841 77.4418 75.3841ZM89.5616 24.6281C88.6462 17.0874 82.8321 11.149 75.2875 10.2391C75.2875 10.2391 63.3154 8.3824 45.6919 8.3824C28.0679 8.3824 16.095 10.2391 16.095 10.2391C8.55196 11.149 2.73786 17.0874 1.82324 24.6281C1.82324 24.6281 0 38.0814 0 54.0735C0 70.0672 1.82324 83.5195 1.82324 83.5195C2.73786 91.0602 8.55196 96.997 16.095 97.909C16.095 97.909 28.0679 99.7662 45.6919 99.7662C63.3154 99.7662 75.2875 97.909 75.2875 97.909C82.8321 96.997 88.6462 91.0602 89.5616 83.5195C89.5616 83.5195 91.3838 70.0672 91.3838 54.0735C91.3838 38.0814 89.5616 24.6281 89.5616 24.6281Z" fill="#FFC421"/>
<path fill-rule="evenodd" clip-rule="evenodd" d="M50.5238 45.5218C52.5176 45.2377 54.4664 45.1142 56.7943 45.1571C59.0471 45.2059 61.4236 45.4228 63.5293 45.8103C63.5293 45.8103 64.2176 45.9748 64.2176 45.2393V40.491C64.2176 40.0555 63.6656 39.9192 63.6656 39.9192C61.358 39.3137 59.0719 38.9748 56.811 38.9262C54.6802 38.8889 52.5578 39.0999 50.4387 39.562C50.4387 39.562 49.9108 39.7257 49.9108 40.191V44.8873C49.9108 45.7594 50.5238 45.5218 50.5238 45.5218Z" fill="#FFC421"/>
<path fill-rule="evenodd" clip-rule="evenodd" d="M33.9281 48.4262C33.9281 48.4262 41.0545 48.4178 41.0545 42.4382C41.0545 36.4617 33.9281 36.4533 33.9281 36.4533C33.9281 36.4533 26.8015 36.4617 26.8015 42.4382C26.8015 48.4178 33.9281 48.4262 33.9281 48.4262Z" fill="#FFC421"/>
<path fill-rule="evenodd" clip-rule="evenodd" d="M64.7676 60.4881C62.2927 62.0437 55.0658 66.0069 45.6919 66.0069C36.3175 66.0069 29.0919 62.0437 26.6165 60.4881C26.6165 60.4881 25.6911 59.8322 25.6911 61.0508V63.4839C25.6911 64.2147 26.506 64.9858 26.506 64.9858C28.9483 66.8931 36.5956 72.2354 45.6919 72.2401C54.7867 72.2354 62.4313 66.8931 64.8781 64.9858C64.8781 64.9858 65.6922 64.2147 65.6922 63.4839V61.0508C65.6922 59.8322 64.7676 60.4881 64.7676 60.4881Z" fill="#FFC421"/>
<path d="M151.102 26.1097H156.548V8.41777H151.102V26.1097ZM150.334 3.33683C150.334 5.0914 151.76 6.51698 153.88 6.51698C155.89 6.51698 157.353 5.0914 157.353 3.33683C157.353 1.5457 155.89 0.120117 153.88 0.120117C151.76 0.120117 150.334 1.5457 150.334 3.33683Z" fill="white"/>
<path d="M168.291 26.7311C173.372 26.7311 176.259 23.8434 176.881 19.7494L171.654 19.1645C171.398 21.2115 170.045 22.1619 168.364 22.1619C166.646 22.1619 164.562 21.2115 164.562 17.3368C164.562 13.5353 166.573 12.2924 168.4 12.2924C170.301 12.2924 171.325 13.5353 171.654 15.3995L176.625 13.7911C175.711 10.2454 172.933 7.7598 168.437 7.7598C163.502 7.7598 158.969 10.7206 158.969 17.2637C158.969 23.4778 162.99 26.7311 168.291 26.7311Z" fill="white"/>
<path d="M187.85 26.7311C192.821 26.7311 197.171 23.3682 197.171 17.2637C197.171 10.9034 192.602 7.7598 187.813 7.7598C183.061 7.7598 178.638 10.94 178.638 17.3003C178.638 23.5875 183.025 26.7311 187.85 26.7311ZM184.195 17.2637C184.195 13.6815 185.986 12.2924 187.886 12.2924C189.751 12.2924 191.615 13.4987 191.615 17.2637C191.615 20.8094 189.897 22.1619 187.886 22.1619C185.913 22.1619 184.195 20.7729 184.195 17.2637Z" fill="white"/>
<path d="M199.792 26.1097H205.239V16.7154C205.239 13.6084 206.701 12.3655 208.529 12.3655C210.174 12.3655 211.014 13.5353 211.014 15.1436V26.1097H216.461V13.7911C216.461 9.55093 213.573 7.90602 210.539 7.90602C208.09 7.90602 206.189 9.11228 205.275 10.6475H205.239V8.41777H199.792V26.1097Z" fill="white"/>
<path d="M219.783 26.1097H225.229V8.41777H219.783V26.1097ZM219.015 3.33683C219.015 5.0914 220.44 6.51698 222.561 6.51698C224.571 6.51698 226.033 5.0914 226.033 3.33683C226.033 1.5457 224.571 0.120117 222.561 0.120117C220.44 0.120117 219.015 1.5457 219.015 3.33683Z" fill="white"/>
<path d="M236.971 26.7311C242.052 26.7311 244.94 23.8434 245.561 19.7494L240.334 19.1645C240.078 21.2115 238.726 22.1619 237.044 22.1619C235.326 22.1619 233.243 21.2115 233.243 17.3368C233.243 13.5353 235.253 12.2924 237.081 12.2924C238.982 12.2924 240.005 13.5353 240.334 15.3995L245.305 13.7911C244.392 10.2454 241.614 7.7598 237.117 7.7598C232.183 7.7598 227.65 10.7206 227.65 17.2637C227.65 23.4778 231.671 26.7311 236.971 26.7311Z" fill="white"/>
</svg>
