<svg xmlns="http://www.w3.org/2000/svg" width="24" height="24" fill="none"><path fill="#291D18" d="M17.309 5a2.75 2.75 0 0 1 2.544 1.706l.064.174 1.544 4.633a1 1 0 0 1 .035.157l.004.08v3a2.75 2.75 0 0 1-2.082 2.668 2.751 2.751 0 0 1-5.314.082H9.396a2.751 2.751 0 0 1-5.314-.082 2.75 2.75 0 0 1-2.077-2.5L2 14.75v-7a2.75 2.75 0 0 1 2.582-2.745L4.75 5zm-3.206 11a2.751 2.751 0 0 1 5.246-.152 1.25 1.25 0 0 0 .645-.97L20 14.75V12.5h-4.25a.75.75 0 0 1-.743-.648L15 11.75V6.5h-1.5v5.25a.75.75 0 0 1-.75.75h-7a.75.75 0 0 1-.75-.75V6.5h-.25a1.25 1.25 0 0 0-1.244 1.122L3.5 7.75v7c0 .473.263.886.651 1.098A2.751 2.751 0 0 1 9.396 16zM16.5 6.5V11h3.21l-1.216-3.645a1.25 1.25 0 0 0-1.052-.848l-.134-.007zm-6 0V11H12V6.5zM9 6.5H6.5V11H9zM8 16.75a1.25 1.25 0 1 0-2.5 0 1.25 1.25 0 0 0 2.5 0m8.75-1.25a1.25 1.25 0 1 0 0 2.5 1.25 1.25 0 0 0 0-2.5"/></svg>