<svg xmlns="http://www.w3.org/2000/svg" width="24" height="24" fill="none"><path fill="#291D18" d="M3.293 4.707a1 1 0 0 1 1.414-1.414l2.706 2.706A11 11 0 0 1 12 5c4.512 0 8.388 2.717 10.084 6.6a1 1 0 0 1 0 .8 11.04 11.04 0 0 1-3.706 4.563l2.33 2.33a1 1 0 0 1-1.415 1.414l-2.706-2.706A11 11 0 0 1 12 19a11 11 0 0 1-10.084-6.6 1 1 0 0 1 0-.8 11.04 11.04 0 0 1 3.706-4.563zM7.06 8.475A9.04 9.04 0 0 0 3.935 12 9 9 0 0 0 12 17a9 9 0 0 0 3.054-.532l-1.76-1.76a3 3 0 0 1-4.001-4.001zm7.647 4.818 2.231 2.232A9.04 9.04 0 0 0 20.065 12 9 9 0 0 0 12 7a9 9 0 0 0-3.054.532l1.76 1.76a3 3 0 0 1 4.001 4.001"/></svg>