<svg xmlns="http://www.w3.org/2000/svg" width="24" height="24" fill="none"><path fill="#291D18" d="M14.419 15.493a.75.75 0 0 1 1.41.514c-.53 1.45-2.097 2.493-3.706 2.493-1.61 0-3.178-1.041-3.705-2.494a.75.75 0 0 1 1.41-.512C10.135 16.34 11.13 17 12.123 17c.934 0 1.87-.587 2.234-1.36zm1.454-3.743a.75.75 0 0 0-.75-.75h-1l-.101.007a.75.75 0 0 0 .101 1.493h1l.102-.007a.75.75 0 0 0 .648-.743m-5.75-.75a.75.75 0 0 1 .102 1.493l-.102.007h-1a.75.75 0 0 1-.101-1.493L9.123 11z"/><path fill="#291D18" d="M10.827 2h2.593a6.75 6.75 0 0 1 6.708 7.495l-.666 6a6.75 6.75 0 0 1-6.709 6.005h-1.26a6.75 6.75 0 0 1-6.708-6.005l-.592-5.33-.112-1.169A6.75 6.75 0 0 1 10.827 2M5.71 10.24l.566 5.09A5.25 5.25 0 0 0 11.494 20h1.26a5.25 5.25 0 0 0 5.217-4.67l.667-6a5.25 5.25 0 0 0-.917-3.59c-.17.741-.513 1.218-1.179 1.642-1.416.903-4.987 1.836-10.832 2.858m10.653-5.838A5.23 5.23 0 0 0 13.42 3.5h-2.593a5.25 5.25 0 0 0-5.25 5.24c5.554-.977 8.979-1.87 10.159-2.622.437-.28.59-.68.627-1.716"/></svg>