<svg xmlns="http://www.w3.org/2000/svg" width="24" height="24" fill="none"><path fill="#291D18" d="M11.56 2.002 11.75 2c5.385 0 9.75 4.365 9.75 9.75s-4.365 9.75-9.75 9.75S2 17.135 2 11.75c0-5.273 4.186-9.568 9.416-9.744a1 1 0 0 1 .145-.004m-.467 1.524A8.2 8.2 0 0 0 6.6 5.306c.521 3.361.484 5.227-.307 5.944-.783.71-1.825.671-2.784.132a8.4 8.4 0 0 0 .117 1.81c3.066.787 4.99 1.817 5.776 3.184.722 1.257.838 2.413.287 3.364A8.25 8.25 0 0 0 19.714 9.585c-.095.087-.13.231-.144.516l-.01.31c-.026 1.325-.375 2.029-1.64 2.085l-.466.01-.124.005-.143.012.147.487.08.289q.035.133.053.23c.444 1.435-.123 2.638-1.302 3.177-1.033.473-2.32.318-2.986-.473a3 3 0 0 1-.476-.777l-.081-.2-.18-.553c-.08-.228-.136-.225-.584-.207l-.078.003C9.52 14.59 8 13.632 8 11.75c0-2.132 3.023-2.854 5.123-1.65.422.241 1.876-.528 1.876-1.348 0-.59-.652-.779-1.8-.371l-.176.066C9.917 9.66 8 9.24 8 6.75c0-1.265.66-1.741 1.963-1.99l.567-.1c.388-.075.5-.126.514-.162.136-.382.15-.695.049-.972m8.087 4.632a8.26 8.26 0 0 0-6.545-4.611c.062.46.002.95-.179 1.456-.264.74-.72.964-1.749 1.15l-.306.052c-.783.131-.901.206-.901.545 0 .97.605 1.168 2.541.464l.436-.164c2.08-.814 4.022-.336 4.022 1.702 0 1.95-2.577 3.367-4.002 2.71l-.12-.061c-1.255-.72-2.877-.332-2.877.349 0 .823.643 1.267 2.01 1.255l.21-.005c1.309-.052 1.875.382 2.197 1.39.17.532.224.656.41.877.187.222.746.289 1.214.075.505-.23.71-.668.476-1.437a5 5 0 0 0-.074-.304l-.258-.872c-.085-.35-.095-.636.033-.932.26-.598.8-.775 1.82-.795l.367-.002c.12-.006.142-.049.15-.297l.01-.518c.031-1.002.307-1.677 1.115-2.027M8.1 17.124c-.473-.824-1.802-1.593-3.984-2.24a8.28 8.28 0 0 0 4.11 4.328c.434-.491.424-1.131-.126-2.088M5.27 6.644A8.2 8.2 0 0 0 3.752 9.72c.608.542 1.231.692 1.532.419.207-.188.242-1.423-.014-3.495"/></svg>