<svg xmlns="http://www.w3.org/2000/svg" width="24" height="24" fill="none"><path fill="#291D18" d="M10.128 18.86a7 7 0 0 1-1.027-.225A27 27 0 0 0 9 21a1 1 0 1 1-2 0q.002-1.731.184-3.287c-1.722-1.2-2.586-2.995-2.852-4.043A7.5 7.5 0 0 1 4 11.46c0-2.568.817-4.517 2.18-5.95 1.34-1.409 3.134-2.24 4.97-2.737 3.11-.843 6.621-.792 8.842-.76q.566.01 1.008.011a1 1 0 0 1 1 1c0 .656-.288 1.155-.532 1.527-.09.138-.176.26-.26.38-.168.243-.33.474-.512.8-.492.88-1.049 2.342-1.049 5.236 0 2.599-.96 4.635-2.497 6.013-1.52 1.362-3.534 2.02-5.562 2.02q-.748-.001-1.46-.14m8.823-14.105c.153-.273.317-.528.465-.747-2.203-.026-5.132-.013-7.743.695-1.634.443-3.046 1.137-4.044 2.186C6.654 7.914 6 9.354 6 11.459a5.5 5.5 0 0 0 .266 1.702c.14.57.549 1.47 1.295 2.248.784-3.665 2.325-6.492 4.198-8.559a1 1 0 0 1 1.482 1.343 14.6 14.6 0 0 0-2.268 3.369l3.764-1.027a1 1 0 0 1 .526 1.93l-5.23 1.426a20 20 0 0 0-.669 2.72 5 5 0 0 0 1.125.282q.532.106 1.1.107c1.61 0 3.125-.523 4.226-1.51 1.083-.97 1.832-2.45 1.832-4.523 0-3.18.62-4.989 1.304-6.212"/></svg>