<svg xmlns="http://www.w3.org/2000/svg" width="24" height="24" fill="none"><path fill="#291D18" d="M20.4 7.08a.8.8 0 0 1 .293 1.093l-.308.532H21a.8.8 0 1 1 0 1.6h-.614l.307.532a.8.8 0 0 1-1.386.8L19 11.105l-.307.532a.8.8 0 0 1-1.386-.8l.307-.532H17a.8.8 0 0 1 0-1.6h.614l-.307-.532a.8.8 0 0 1 1.386-.8l.307.532.307-.532A.8.8 0 0 1 20.4 7.08M6.693 8.173a.8.8 0 1 0-1.386-.8L5 7.906l-.307-.533a.8.8 0 0 0-1.386.8l.307.533H3a.8.8 0 1 0 0 1.6h.614l-.307.531a.8.8 0 0 0 1.386.8L5 11.105l.307.533a.8.8 0 0 0 1.386-.8l-.307-.532H7a.8.8 0 0 0 0-1.6h-.615zM21 17.946a1 1 0 1 0 0-2H3a1 1 0 1 0 0 2zm-7.307-9.773a.8.8 0 0 0-1.386-.8L12 7.906l-.307-.533a.8.8 0 0 0-1.386.8l.307.533H10a.8.8 0 1 0 0 1.6h.614l-.307.531a.8.8 0 0 0 1.386.8l.307-.532.307.533a.8.8 0 0 0 1.386-.8l-.307-.532H14a.8.8 0 1 0 0-1.6h-.615z"/></svg>