<svg xmlns="http://www.w3.org/2000/svg" width="24" height="24" fill="none"><path fill="#291D18" d="M10.649 2.064a1 1 0 0 1 .702 0l8 3A1 1 0 0 1 20 6v1.27a5.57 5.57 0 0 0-2.768-.865L11 4.068 4 6.693V12c0 1.672.845 3.441 2.235 4.947C7.557 18.379 9.29 19.48 11 19.965c.987-.28 1.981-.765 2.9-1.4v2.348a11.2 11.2 0 0 1-2.658 1.057 1 1 0 0 1-.485 0c-2.211-.553-4.377-1.917-5.992-3.667C3.155 16.56 2 14.328 2 12V6a1 1 0 0 1 .649-.936z"/><path fill="#291D18" d="M21 12a4 4 0 0 1-2.712 3.788L19 16.5 17.5 18l1.5 1.5-2.5 2.5-1-1v-5.29A4.001 4.001 0 1 1 21 12m-4 0a1 1 0 1 0 0-2 1 1 0 0 0 0 2"/></svg>