<svg xmlns="http://www.w3.org/2000/svg" width="24" height="24" fill="none"><path fill="#291D18" d="M5.998 15a1 1 0 1 1-2 0 1 1 0 0 1 2 0"/><path fill="#291D18" d="M17.994 2a2 2 0 0 1 2 2v3a2 2 0 0 1-2 2H9.997v11a2 2 0 0 1-2 2H4a2 2 0 0 1-2-2V4q0-.103.01-.204A2 2 0 0 1 4 2zm0 5.5a.5.5 0 0 0 .5-.5V4a.5.5 0 0 0-.5-.5h-2.25v4zm-3.749 0v-4h-2.499v4zm-3.998 0v-4h-2.5v4zm-4 0v-4H4a.5.5 0 0 0-.5.5v3.5zM8.498 20V9H3.499v11a.5.5 0 0 0 .5.5h3.998a.5.5 0 0 0 .5-.5"/><path fill="#291D18" d="M16.495 12.25a.75.75 0 0 1 .75.75v2.19l.78.78a.75.75 0 0 1-1.061 1.06l-1.22-1.22V13a.75.75 0 0 1 .75-.75"/><path fill="#291D18" d="M16.495 21a5.5 5.5 0 0 0 5.498-5.5 5.5 5.5 0 1 0-5.498 5.5m0-1.5a4 4 0 1 1 0-7.999 4 4 0 0 1 0 7.999"/></svg>