<svg xmlns="http://www.w3.org/2000/svg" width="24" height="24" fill="none"><path fill="#291D18" d="M5.05 19a2.5 2.5 0 0 0 4.9 0h5.1a2.5 2.5 0 0 0 4.9 0H20a2 2 0 0 0 2-2v-2.356a3 3 0 0 0-.265-1.231l-1.455-3.234A2 2 0 0 0 18.457 9H14.5V8a2 2 0 0 0-2-2H4a2 2 0 0 0-2 2v9a2 2 0 0 0 2 2zM12.5 7.5a.5.5 0 0 1 .5.5v9.5H9.792a2.5 2.5 0 0 0-4.584 0H4a.5.5 0 0 1-.5-.5V8a.5.5 0 0 1 .5-.5zM8.366 19a1 1 0 1 1-1.732-1 1 1 0 0 1 1.732 1m10 0a1 1 0 1 1-1.732-1 1 1 0 0 1 1.732 1m-3.158-1.5H14.5v-2.75h6V17a.5.5 0 0 1-.5.5h-.208a2.5 2.5 0 0 0-4.584 0m1.042-4.25H14.5V10.5h1.75zm1.5-2.75h.707a.5.5 0 0 1 .456.295l1.104 2.455H17.75z"/></svg>