<svg width="80" height="100" viewBox="0 0 80 100" fill="none" xmlns="http://www.w3.org/2000/svg">
<path d="M60.783 42V96.319H2.25684V18.2842L40.9998 18.2842" stroke="#3D9E9B" stroke-width="4"/>
<path d="M20.2699 49.4807H16.244V53.1027H19.866C19.866 53.7148 19.8998 54.3191 19.9655 54.9137H16.244V58.5357H20.7935C23.031 64.8662 29.0684 69.4018 36.1651 69.4018C38.7672 69.4018 41.227 68.792 43.4092 67.7075V63.5075C41.3558 64.9398 38.8585 65.7798 36.1651 65.7798C31.1081 65.7798 26.7426 62.8187 24.708 58.5357H34.3541V54.9137H23.6164C23.5318 54.3222 23.4881 53.7176 23.4881 53.1027H34.3541V49.4807H24.013C25.5715 44.2442 30.4224 40.4256 36.1651 40.4256C38.8585 40.4256 41.3558 41.2656 43.4092 42.6979V38.4979C41.227 37.4134 38.7672 36.8036 36.1651 36.8036C28.4082 36.8036 21.917 42.2222 20.2699 49.4807Z" fill="#3D9E9B"/>
<path d="M16 78H48" stroke="#3D9E9B" stroke-width="4" stroke-linecap="square"/>
<rect x="53" y="11" width="27" height="27" fill="#D6EBEA"/>
<rect x="47" y="5" width="27" height="27" stroke="#3D9E9B" stroke-width="4"/>
<path d="M54.7485 17.454L59.6227 22.3328L68.2012 13.7461" stroke="#004A47" stroke-width="4"/>
</svg>
