<svg width="109" height="96" viewBox="0 0 109 96" fill="none" xmlns="http://www.w3.org/2000/svg">
<g clip-path="url(#clip0_1655_3660)">
<path d="M10 27H99C103.418 27 107 30.5817 107 35V86C107 90.4183 103.418 94 99 94H10" stroke="#B3B3B3" stroke-width="4"/>
<path d="M95 49.878V35C95 30.5817 91.4183 27 87 27H10C5.58172 27 2 30.5817 2 35V86C2 90.4183 5.58172 94 10 94H87C91.4183 94 95 90.4183 95 86V71.122" stroke="#B3B3B3" stroke-width="4"/>
<path d="M82 60.5C82 57.4624 84.4624 55 87.5 55H107V66H87.5C84.4624 66 82 63.5376 82 60.5Z" stroke="#B3B3B3" stroke-width="4"/>
<circle cx="87.5" cy="60.5" r="1.5" fill="#B3B3B3"/>
<path d="M44.3999 54.4888C44.3999 58.5757 41.1144 61.8888 37.0615 61.8888C33.0086 61.8888 29.723 58.5757 29.723 54.4888" stroke="#ECECEC" stroke-width="4"/>
<path d="M71.3077 54.4888C71.3077 58.5757 68.0221 61.8888 63.9692 61.8888C59.9163 61.8888 56.6307 58.5757 56.6307 54.4888" stroke="#ECECEC" stroke-width="4"/>
<path d="M41.3999 51.4888C41.3999 55.5757 38.1144 58.8888 34.0615 58.8888C30.0086 58.8888 26.723 55.5757 26.723 51.4888" stroke="#00807B" stroke-width="4"/>
<path d="M68.3077 51.4888C68.3077 55.5757 65.0221 58.8888 60.9692 58.8888C56.9163 58.8888 53.6307 55.5757 53.6307 51.4888" stroke="#00807B" stroke-width="4"/>
<ellipse cx="49.6692" cy="69.7" rx="3.66923" ry="3.7" fill="#ECECEC"/>
<path d="M50.6845 67.522C50.6845 69.2933 49.2617 70.722 47.5153 70.722C45.7689 70.722 44.3461 69.2933 44.3461 67.522C44.3461 65.7508 45.7689 64.322 47.5153 64.322C49.2617 64.322 50.6845 65.7508 50.6845 67.522Z" fill="#00807B" stroke="#00807B"/>
</g>
<path d="M41 11.6667V9.56564L45.3292 3.12592V3.07467H41.4207L41.5959 0H50.0966V2.22059L45.9251 8.55783V8.592H50.1667L50.0089 11.6667H41Z" fill="#00807B"/>
<path d="M50 20.6667V19.4661L52.7549 15.7862V15.757H50.2677L50.3792 14H55.7887V15.2689L53.1342 18.8902V18.9097H55.8333L55.733 20.6667H50Z" fill="#00807B"/>
<defs>
<clipPath id="clip0_1655_3660">
<rect width="109" height="71" fill="white" transform="translate(0 25)"/>
</clipPath>
</defs>
</svg>
