<svg width="102" height="91" viewBox="0 0 102 91" fill="none" xmlns="http://www.w3.org/2000/svg">
<path d="M86 70V83C86 86.3137 83.3137 89 80 89H46C42.6863 89 40 86.3137 40 83V8C40 4.68629 42.6863 2 46 2H80C83.3137 2 86 4.68629 86 8V20" stroke="#B3B3B3" stroke-width="4"/>
<path d="M64 80L64 80" stroke="#B3B3B3" stroke-width="8" stroke-linecap="round"/>
<path d="M60 9H66" stroke="#B3B3B3" stroke-width="4" stroke-linecap="round"/>
<rect x="59" y="26" width="38" height="38" fill="white" stroke="#B3B3B3" stroke-width="4"/>
<rect x="70" y="49" width="4" height="9.49999" rx="2" fill="#111111" fill-opacity="0.08"/>
<rect x="78" y="42.5" width="4" height="16" rx="2" fill="#111111" fill-opacity="0.08"/>
<rect x="86" y="36" width="4" height="22.5" rx="2" fill="#111111" fill-opacity="0.08"/>
<rect x="68" y="47" width="4" height="9.49999" rx="2" fill="#00807B"/>
<rect x="76" y="40.5" width="4" height="16" rx="2" fill="#00807B"/>
<rect x="84" y="34" width="4" height="22.5" rx="2" fill="#00807B"/>
<g clip-path="url(#clip0_1950_829)">
<g clip-path="url(#clip1_1950_829)">
<path d="M40.0542 47.8C39.8081 47.8 39.6084 48.0037 39.6084 48.2547L39.6084 49.6275C38.255 51.2845 36.7727 52.7809 35.1981 54.0791C33.122 55.7907 30.8774 57.1621 28.5259 58.1561C26.1738 59.1497 23.6355 59.7995 20.9812 60.0864C18.9675 60.3042 16.8821 60.3146 14.7766 60.1191L13.8257 59.1492C13.7387 59.0605 13.6246 59.016 13.5105 59.016C13.3964 59.016 13.2822 59.0605 13.1953 59.1492C13.021 59.3265 13.021 59.6148 13.1953 59.7922L14.1462 60.7621C14.3379 62.9101 14.3272 65.0373 14.1137 67.0912C13.8324 69.7986 13.1958 72.3878 12.2217 74.7864C11.2476 77.1854 9.90264 79.4754 8.22466 81.593C6.9519 83.199 5.48478 84.7105 3.86029 86.0906L2.51443 86.0906C2.26835 86.0906 2.06863 86.2943 2.06863 86.5453C2.06863 86.7963 2.26835 87 2.51443 87L40.0542 87C40.0542 87 40.0569 87 40.0582 87C40.0716 87 40.085 86.9991 40.0983 86.9977C40.1055 86.9968 40.1122 86.9959 40.1193 86.9945C40.1269 86.9936 40.134 86.9927 40.1416 86.9909C40.1492 86.9895 40.1567 86.9873 40.1643 86.985C40.1706 86.9832 40.1772 86.9818 40.1835 86.98C40.1911 86.9777 40.1982 86.975 40.2053 86.9723C40.2116 86.97 40.2183 86.9677 40.2245 86.965C40.2312 86.9623 40.2379 86.9586 40.2446 86.9554C40.2512 86.9523 40.2575 86.9495 40.2642 86.9459C40.2704 86.9423 40.2767 86.9386 40.2829 86.9345C40.2891 86.9309 40.2954 86.9272 40.3016 86.9227C40.3083 86.9182 40.315 86.9127 40.3212 86.9077C40.3261 86.9036 40.3315 86.9 40.3364 86.8959C40.3475 86.8863 40.3587 86.8763 40.3689 86.8659C40.3689 86.8659 40.3694 86.8654 40.3698 86.8649C40.3801 86.8545 40.3894 86.8436 40.3988 86.8327C40.4033 86.8272 40.4073 86.8213 40.4113 86.8158C40.4157 86.8095 40.4206 86.8036 40.4247 86.7972C40.4291 86.7904 40.4327 86.7836 40.4367 86.7767C40.4403 86.7708 40.4438 86.7654 40.447 86.759C40.4505 86.7522 40.4536 86.7449 40.4572 86.7376C40.4603 86.7313 40.463 86.7249 40.4657 86.7185C40.4683 86.7117 40.4706 86.7044 40.4733 86.6976C40.4755 86.6908 40.4782 86.684 40.4804 86.6767C40.4826 86.6694 40.484 86.6621 40.4857 86.6549C40.4875 86.6476 40.4893 86.6408 40.4911 86.6335C40.4929 86.6249 40.4938 86.6167 40.4951 86.608C40.496 86.6017 40.4973 86.5958 40.4978 86.5894C40.4991 86.5753 40.5 86.5603 40.5 86.5448L40.5 48.2547C40.5 48.0037 40.3003 47.8 40.0542 47.8ZM23.7946 86.0906C25.1717 84.5341 26.2398 82.8316 26.9754 81.0201C27.7114 79.2089 28.1358 77.2346 28.241 75.1392L34.1768 81.1933C34.1304 82.1296 33.941 83.0131 33.6111 83.8238C33.2816 84.6355 32.8037 85.3962 32.1881 86.091L23.7951 86.091L23.7946 86.0906ZM13.7953 86.0906C16.5865 83.742 18.6198 81.0273 19.8462 78.008C21.0721 74.9896 21.5166 71.6029 21.1715 67.9279L27.7257 74.6131C27.6695 76.8321 27.2518 78.9156 26.4814 80.8113C25.7115 82.708 24.5627 84.4822 23.0653 86.0906L13.7953 86.0906ZM28.8722 74.4963C30.9251 74.389 32.8608 73.9556 34.6369 73.2053C36.4125 72.4555 38.0815 71.3656 39.6084 69.96L39.6084 78.5219C38.9263 79.1503 38.1801 79.6382 37.3852 79.9733C36.5899 80.3098 35.7237 80.503 34.8072 80.5499L28.8722 74.4963ZM39.6084 69.2157C38.0307 70.744 36.2908 71.9162 34.4322 72.7011C32.5728 73.4868 30.5302 73.9129 28.3565 73.9702L21.8019 67.2845C25.4039 67.6369 28.7238 67.184 31.6843 65.9335C34.6436 64.6835 37.3054 62.6096 39.6093 59.7622L39.6093 69.2166L39.6084 69.2157ZM34.105 84.0325C34.401 83.3045 34.5918 82.5233 34.6748 81.7017L38.978 86.0906L32.8929 86.0906C33.4033 85.4503 33.8099 84.761 34.1055 84.0325L34.105 84.0325ZM35.3056 81.0582C36.1102 80.9737 36.8761 80.7795 37.5898 80.4776C38.3036 80.1766 38.9798 79.7619 39.6084 79.2408L39.6084 85.4476L35.3056 81.0587L35.3056 81.0582ZM21.0373 60.6288C23.7429 60.3365 26.3312 59.674 28.7305 58.6604C31.1293 57.6468 33.4185 56.2481 35.5343 54.5038C36.9782 53.3134 38.345 51.9593 39.608 50.4705L39.608 58.8914C37.2671 61.9398 34.5334 64.1383 31.4784 65.4293C28.422 66.7207 24.9648 67.1367 21.1974 66.6688L15.3601 60.7148C17.2851 60.8567 19.1904 60.8289 21.0369 60.6293L21.0373 60.6288ZM8.64059 81.9358C10.3507 79.7778 11.7219 77.4424 12.7156 74.9951C13.7093 72.5478 14.3584 69.9082 14.6455 67.1485C14.8412 65.2651 14.8688 63.3217 14.7297 61.3578L20.5675 67.3122C21.0258 71.1564 20.617 74.6827 19.3513 77.7989C18.0853 80.9159 15.9294 83.7042 12.9412 86.0906L4.68591 86.0906C6.14545 84.8024 7.47304 83.4087 8.64014 81.9358L8.64059 81.9358Z" fill="black" stroke="#B3B3B3"/>
</g>
</g>
<defs>
<clipPath id="clip0_1950_829">
<rect width="40" height="40" fill="white" transform="matrix(-1 0 0 -1 40.5 87)"/>
</clipPath>
<clipPath id="clip1_1950_829">
<rect width="40.7843" height="41.6" fill="white" transform="translate(-0.284302 46.2)"/>
</clipPath>
</defs>
</svg>
