<svg width="220" height="100" viewBox="0 0 220 100" fill="none" xmlns="http://www.w3.org/2000/svg">
<g clip-path="url(#clip0_1624_3040)">
<g clip-path="url(#clip1_1624_3040)">
<path d="M21.7637 20.6557C21.7637 18.4465 19.9729 16.6557 17.7637 16.6557H-97V13H17.3901C21.8084 13 25.3901 16.5817 25.3901 21V44.3443C25.3901 46.5535 27.181 48.3443 29.3901 48.3443H68V52H29.7637C25.3455 52 21.7637 48.4183 21.7637 44V20.6557Z" fill="#B3B3B3"/>
<path d="M68.9265 54.2129C68.9265 48.2905 73.7275 43.4895 79.6499 43.4895H94.027V64.9363H79.6499C73.7275 64.9363 68.9265 60.1353 68.9265 54.2129V54.2129Z" fill="#ECECEC"/>
<path d="M77.3787 39.3618H88.9845V59.8725H77.3787C71.7149 59.8725 67.1234 55.281 67.1234 49.6171C67.1234 43.9533 71.7149 39.3618 77.3787 39.3618Z" stroke="#B3B3B3" stroke-width="4"/>
<line x1="90.9845" y1="43.7874" x2="101.633" y2="43.7874" stroke="#B3B3B3" stroke-width="4"/>
<line x1="90.9845" y1="55.447" x2="101.633" y2="55.447" stroke="#B3B3B3" stroke-width="4"/>
<path d="M196.115 78.4381C196.115 80.6472 197.906 82.4381 200.115 82.4381H312V86H200.577C196.159 86 192.577 82.4183 192.577 78V55.5619C192.577 53.3528 190.786 51.5619 188.577 51.5619H151V48H188.115C192.534 48 196.115 51.5817 196.115 56V78.4381Z" fill="#00807B"/>
<path d="M142.621 39.3618H131.015V59.8725H142.621C148.285 59.8725 152.877 55.281 152.877 49.6171C152.877 43.9533 148.285 39.3618 142.621 39.3618Z" stroke="#00807B" stroke-width="4"/>
<path fill-rule="evenodd" clip-rule="evenodd" d="M115.929 29.6569L123 22.5858L124.414 24L117.343 31.0711L115.929 29.6569Z" fill="#B3B3B3"/>
<path fill-rule="evenodd" clip-rule="evenodd" d="M108.657 31.071L101.586 23.9999L103 22.5857L110.071 29.6568L108.657 31.071Z" fill="#B3B3B3"/>
<path fill-rule="evenodd" clip-rule="evenodd" d="M114 18V28H112V18H114Z" fill="#B3B3B3"/>
<path fill-rule="evenodd" clip-rule="evenodd" d="M110.071 68.4142L103 75.4853L101.586 74.071L108.657 67L110.071 68.4142Z" fill="#B3B3B3"/>
<path fill-rule="evenodd" clip-rule="evenodd" d="M117.343 67.0001L124.414 74.0711L123 75.4854L115.929 68.4143L117.343 67.0001Z" fill="#B3B3B3"/>
<path fill-rule="evenodd" clip-rule="evenodd" d="M112 80.071L112 70.071L114 70.071L114 80.071L112 80.071Z" fill="#B3B3B3"/>
</g>
</g>
<defs>
<clipPath id="clip0_1624_3040">
<rect width="220" height="100" fill="white"/>
</clipPath>
<clipPath id="clip1_1624_3040">
<rect width="382" height="80" fill="white" transform="translate(-81 10)"/>
</clipPath>
</defs>
</svg>
