<svg width="158" height="92" viewBox="0 0 158 92" fill="none" xmlns="http://www.w3.org/2000/svg">
<path d="M116.5 2H15.5V78H116.5V2Z" stroke="#B3B3B3" stroke-width="4"/>
<g clip-path="url(#clip0_1950_848)">
<g clip-path="url(#clip1_1950_848)">
<path d="M116.457 40.8C116.709 40.8 116.914 41.0037 116.914 41.2547L116.914 42.6275C118.301 44.2845 119.82 45.7809 121.434 47.0792C123.562 48.7907 125.863 50.1621 128.273 51.1561C130.684 52.1497 133.286 52.7995 136.007 53.0864C138.071 53.3042 140.208 53.3146 142.367 53.1191L143.341 52.1492C143.43 52.0605 143.547 52.016 143.664 52.016C143.781 52.016 143.898 52.0605 143.987 52.1492C144.166 52.3265 144.166 52.6148 143.987 52.7922L143.013 53.7621C142.816 55.9102 142.827 58.0373 143.046 60.0912C143.334 62.7986 143.987 65.3878 144.985 67.7864C145.984 70.1854 147.362 72.4754 149.082 74.593C150.387 76.199 151.891 77.7105 153.556 79.0906L154.935 79.0906C155.187 79.0906 155.392 79.2943 155.392 79.5453C155.392 79.7963 155.187 80 154.935 80L116.457 80C116.457 80 116.454 80 116.453 80C116.439 80 116.425 79.9991 116.412 79.9977C116.404 79.9968 116.398 79.9959 116.39 79.9945C116.382 79.9936 116.375 79.9927 116.367 79.9909C116.36 79.9895 116.352 79.9873 116.344 79.985C116.338 79.9832 116.331 79.9818 116.324 79.98C116.317 79.9777 116.309 79.975 116.302 79.9723C116.296 79.97 116.289 79.9677 116.282 79.965C116.276 79.9623 116.269 79.9586 116.262 79.9554C116.255 79.9523 116.249 79.9495 116.242 79.9459C116.235 79.9423 116.229 79.9386 116.223 79.9345C116.216 79.9309 116.21 79.9272 116.203 79.9227C116.196 79.9182 116.19 79.9127 116.183 79.9077C116.178 79.9036 116.173 79.9 116.168 79.8959C116.156 79.8863 116.145 79.8763 116.134 79.8659C116.134 79.8659 116.134 79.8654 116.133 79.8649C116.123 79.8545 116.113 79.8436 116.104 79.8327C116.099 79.8272 116.095 79.8213 116.091 79.8158C116.086 79.8095 116.081 79.8036 116.077 79.7972C116.073 79.7904 116.069 79.7836 116.065 79.7767C116.061 79.7708 116.058 79.7654 116.054 79.759C116.051 79.7522 116.048 79.7449 116.044 79.7376C116.041 79.7313 116.038 79.7249 116.035 79.7185C116.032 79.7117 116.03 79.7044 116.027 79.6976C116.025 79.6908 116.022 79.684 116.02 79.6767C116.018 79.6694 116.016 79.6621 116.015 79.6549C116.013 79.6476 116.011 79.6408 116.009 79.6335C116.007 79.6249 116.006 79.6167 116.005 79.608C116.004 79.6017 116.003 79.5958 116.002 79.5894C116.001 79.5753 116 79.5603 116 79.5448L116 41.2547C116 41.0037 116.205 40.8 116.457 40.8ZM133.123 79.0906C131.712 77.5341 130.617 75.8316 129.863 74.0201C129.108 72.2089 128.673 70.2346 128.565 68.1392L122.481 74.1933C122.529 75.1296 122.723 76.0131 123.061 76.8238C123.399 77.6355 123.889 78.3962 124.52 79.091L133.123 79.091L133.123 79.0906ZM143.372 79.0906C140.511 76.742 138.427 74.0273 137.17 71.008C135.914 67.9896 135.458 64.6029 135.812 60.9279L129.094 67.6131C129.151 69.8321 129.579 71.9156 130.369 73.8113C131.158 75.708 132.336 77.4822 133.871 79.0906L143.372 79.0906ZM127.918 67.4963C125.814 67.389 123.83 66.9556 122.01 66.2053C120.19 65.4555 118.479 64.3656 116.914 62.96L116.914 71.5219C117.613 72.1503 118.378 72.6382 119.193 72.9733C120.008 73.3098 120.896 73.503 121.835 73.5499L127.918 67.4963ZM116.914 62.2157C118.531 63.744 120.314 64.9162 122.219 65.7011C124.125 66.4868 126.219 66.9129 128.447 66.9702L135.166 60.2845C131.473 60.6369 128.071 60.184 125.036 58.9335C122.003 57.6835 119.274 55.6096 116.913 52.7622L116.913 62.2166L116.914 62.2157ZM122.555 77.0325C122.251 76.3045 122.056 75.5233 121.971 74.7017L117.56 79.0906L123.797 79.0906C123.274 78.4503 122.857 77.761 122.554 77.0325L122.555 77.0325ZM121.324 74.0582C120.5 73.9737 119.714 73.7795 118.983 73.4776C118.251 73.1766 117.558 72.7619 116.914 72.2408L116.914 78.4476L121.324 74.0587L121.324 74.0582ZM135.949 53.6289C133.176 53.3365 130.523 52.674 128.064 51.6604C125.605 50.6468 123.259 49.2481 121.09 47.5039C119.61 46.3134 118.209 44.9593 116.914 43.4705L116.914 51.8914C119.314 54.9398 122.116 57.1383 125.247 58.4293C128.38 59.7207 131.924 60.1367 135.785 59.6688L141.768 53.7148C139.795 53.8567 137.842 53.8289 135.95 53.6293L135.949 53.6289ZM148.656 74.9358C146.903 72.7778 145.498 70.4424 144.479 67.9951C143.46 65.5478 142.795 62.9082 142.501 60.1485C142.3 58.2651 142.272 56.3217 142.415 54.3578L136.431 60.3122C135.961 64.1564 136.38 67.6827 137.677 70.7989C138.975 73.9159 141.185 76.7042 144.248 79.0906L152.709 79.0906C151.213 77.8024 149.853 76.4087 148.656 74.9358L148.656 74.9358Z" fill="black" stroke="#B3B3B3"/>
</g>
</g>
<rect x="47.5" y="20" width="38" height="38" stroke="#B3B3B3" stroke-width="4"/>
<rect x="58.5" y="43" width="4" height="9.49999" rx="2" fill="#111111" fill-opacity="0.08"/>
<rect x="66.5" y="36.5" width="4" height="16" rx="2" fill="#111111" fill-opacity="0.08"/>
<rect x="74.5" y="30" width="4" height="22.5" rx="2" fill="#111111" fill-opacity="0.08"/>
<rect x="56.5" y="41" width="4" height="9.49999" rx="2" fill="#00807B"/>
<rect x="64.5" y="34.5" width="4" height="16" rx="2" fill="#00807B"/>
<rect x="72.5" y="28" width="4" height="22.5" rx="2" fill="#00807B"/>
<line x1="2.5" y1="90" x2="130.5" y2="90" stroke="#B3B3B3" stroke-width="4"/>
<path d="M129 91.9999L114 77.9999L116.736 75.0818L131 88.4545V91.9999H129Z" fill="#B3B3B3"/>
<path d="M3 91.9999L18 77.9999L15.2642 75.0818L1 88.4545V91.9999H3Z" fill="#B3B3B3"/>
<defs>
<clipPath id="clip0_1950_848">
<rect width="41" height="40" fill="white" transform="matrix(1 0 0 -1 116 80)"/>
</clipPath>
<clipPath id="clip1_1950_848">
<rect width="41.8039" height="41.6" fill="white" transform="matrix(-1 0 0 1 157.804 39.2)"/>
</clipPath>
</defs>
</svg>
