<svg width="161" height="160" viewBox="0 0 161 160" fill="none" xmlns="http://www.w3.org/2000/svg">
<g opacity="0.16">
<path fill-rule="evenodd" clip-rule="evenodd" d="M132.317 3.25166C132.317 3.25166 111.355 0 80.4998 0C49.643 0 28.6799 3.25166 28.6799 3.25166C15.4733 4.8443 5.29354 15.2416 3.69114 28.4442C3.68997 28.4461 0.5 51.998 0.5 79.9986C0.5 108.001 3.68997 131.552 3.69114 131.554C5.29354 144.758 15.4733 155.153 28.6799 156.748C28.6799 156.748 49.643 160 80.4998 160C111.355 160 132.317 156.748 132.317 156.748C145.526 155.153 155.705 144.758 157.308 131.554C157.308 131.552 160.5 108.001 160.5 79.9986C160.5 51.998 157.308 28.4461 157.308 28.4442C155.705 15.2416 145.526 4.8443 132.317 3.25166Z" fill="#E5CFC7"/>
</g>
<rect x="64.9863" y="30.7264" width="37.1524" height="104.492" rx="4.8" fill="#E5CFC7"/>
<path d="M59.7011 37.47V29.338C59.7011 27.223 60.8228 25.5646 62.0904 25.5646H92.2222C93.4898 25.5646 94.6115 27.223 94.6115 29.338V124.093C94.6115 126.208 93.4898 127.866 92.2222 127.866H62.0904C60.8228 127.866 59.7011 126.208 59.7011 124.093V42.145C59.7011 41.8858 59.486 41.6757 59.2207 41.6757C58.9553 41.6757 58.7402 41.8858 58.7402 42.145V124.093C58.7402 126.664 60.1881 128.805 62.0904 128.805H92.2222C94.1245 128.805 95.5724 126.664 95.5724 124.093V29.338C95.5724 26.7666 94.1245 24.626 92.2222 24.626H62.0904C60.1881 24.626 58.7402 26.7666 58.7402 29.338V37.47C58.7402 37.7291 58.9553 37.9392 59.2207 37.9392C59.486 37.9392 59.7011 37.7291 59.7011 37.47Z" fill="#291D18"/>
<path fill-rule="evenodd" clip-rule="evenodd" d="M81.0003 118.012C82.5923 118.012 83.8828 116.751 83.8828 115.196C83.8828 113.641 82.5923 112.38 81.0003 112.38H73.3136C71.7216 112.38 70.4311 113.641 70.4311 115.196C70.4311 116.751 71.7216 118.012 73.3136 118.012H81.0003ZM81.0002 113.006C82.2384 113.006 83.2421 113.987 83.2421 115.196C83.2421 116.406 82.2384 117.386 81.0002 117.386H73.3135C72.0753 117.386 71.0715 116.406 71.0715 115.196C71.0715 113.987 72.0753 113.006 73.3135 113.006H81.0002Z" fill="#291D18"/>
<path fill-rule="evenodd" clip-rule="evenodd" d="M81.2547 42.7197C81.1758 43.3905 80.6746 43.9185 80.0244 43.9996C80.0244 43.9996 78.9923 44.1646 77.4733 44.1646C75.9542 44.1646 74.9222 43.9996 74.9222 43.9996C74.272 43.9185 73.7709 43.3905 73.6919 42.7197C73.6919 42.7196 73.5349 41.5234 73.5349 40.1011C73.5349 38.6787 73.6919 37.4826 73.6919 37.4824C73.7709 36.8118 74.272 36.2838 74.9222 36.2029C74.9222 36.2029 75.9542 36.0376 77.4733 36.0376C78.9923 36.0376 80.0244 36.2029 80.0244 36.2029C80.6746 36.2838 81.1758 36.8118 81.2547 37.4824C81.2547 37.4826 81.412 38.6787 81.412 40.1011C81.412 41.5234 81.2547 42.7196 81.2547 42.7197ZM82.6979 36.4832C82.5889 35.5566 81.8965 34.8269 80.9979 34.7151C80.9979 34.7151 79.572 34.4869 77.4731 34.4869C75.3741 34.4869 73.9481 34.7151 73.9481 34.7151C73.0498 34.8269 72.3573 35.5566 72.2483 36.4832C72.2482 36.4834 72.0312 38.1363 72.0312 40.1015C72.0312 42.0668 72.2482 43.7196 72.2483 43.7198C72.3573 44.6465 73.0498 45.376 73.9481 45.488C73.9481 45.488 75.3741 45.7162 77.4731 45.7162C79.572 45.7162 80.9979 45.488 80.9979 45.488C81.8965 45.376 82.5889 44.6465 82.6979 43.7198C82.6979 43.7196 82.915 42.0668 82.915 40.1015C82.915 38.1363 82.6979 36.4834 82.6979 36.4832Z" fill="#291D18"/>
<path fill-rule="evenodd" clip-rule="evenodd" d="M78.0914 39.197C78.319 39.1726 78.5416 39.162 78.8073 39.1656C79.0646 39.1698 79.3359 39.1885 79.5763 39.2217C79.5763 39.2217 79.6549 39.2358 79.6549 39.1727V38.765C79.6549 38.7276 79.5919 38.7159 79.5919 38.7159C79.3284 38.6639 79.0674 38.6348 78.8092 38.6307C78.566 38.6275 78.3237 38.6456 78.0817 38.6852C78.0817 38.6852 78.0215 38.6993 78.0215 38.7393V39.1425C78.0215 39.2173 78.0914 39.197 78.0914 39.197Z" fill="#291D18"/>
<path fill-rule="evenodd" clip-rule="evenodd" d="M76.1155 39.2229C76.1155 39.2229 76.9323 39.222 76.9323 38.6299C76.9323 38.0382 76.1155 38.0373 76.1155 38.0373C76.1155 38.0373 75.2988 38.0382 75.2988 38.6299C75.2988 39.222 76.1155 39.2229 76.1155 39.2229Z" fill="#291D18"/>
<path fill-rule="evenodd" clip-rule="evenodd" d="M80.0858 41.0185C79.7826 41.1731 78.8973 41.567 77.749 41.567C76.6006 41.567 75.7155 41.1731 75.4122 41.0185C75.4122 41.0185 75.2988 40.9534 75.2988 41.0744V41.3163C75.2988 41.3889 75.3986 41.4655 75.3986 41.4655C75.6979 41.6551 76.6347 42.1861 77.749 42.1865C78.8632 42.1861 79.7996 41.6551 80.0993 41.4655C80.0993 41.4655 80.1991 41.3889 80.1991 41.3163V41.0744C80.1991 40.9534 80.0858 41.0185 80.0858 41.0185Z" fill="#291D18"/>
<path fill-rule="evenodd" clip-rule="evenodd" d="M80.679 106.436C80.679 104.535 79.1016 102.995 77.1559 102.995C75.2101 102.995 73.6328 104.535 73.6328 106.436C73.6328 108.337 75.2101 109.877 77.1559 109.877C79.1016 109.877 80.679 108.337 80.679 106.436ZM74.2733 106.436C74.2733 104.881 75.5639 103.62 77.1559 103.62C78.7478 103.62 80.0384 104.881 80.0384 106.436C80.0384 107.991 78.7478 109.252 77.1559 109.252C75.5639 109.252 74.2733 107.991 74.2733 106.436Z" fill="#291D18"/>
<path fill-rule="evenodd" clip-rule="evenodd" d="M78.7575 53.8774C78.7575 53.0134 78.0405 52.3131 77.1561 52.3131C76.2717 52.3131 75.5547 53.0134 75.5547 53.8774C75.5547 54.7413 76.2717 55.4416 77.1561 55.4416C78.0405 55.4416 78.7575 54.7413 78.7575 53.8774ZM76.1953 53.8773C76.1953 53.359 76.6254 52.9388 77.1561 52.9388C77.6868 52.9388 78.1169 53.359 78.1169 53.8773C78.1169 54.3957 77.6868 54.8159 77.1561 54.8159C76.6254 54.8159 76.1953 54.3957 76.1953 53.8773Z" fill="#291D18"/>
<path fill-rule="evenodd" clip-rule="evenodd" d="M78.7575 58.8828C78.7575 58.0189 78.0405 57.3186 77.1561 57.3186C76.2717 57.3186 75.5547 58.0189 75.5547 58.8828C75.5547 59.7467 76.2717 60.4471 77.1561 60.4471C78.0405 60.4471 78.7575 59.7467 78.7575 58.8828ZM76.1953 58.8829C76.1953 58.3646 76.6254 57.9444 77.1561 57.9444C77.6868 57.9444 78.1169 58.3646 78.1169 58.8829C78.1169 59.4012 77.6868 59.8214 77.1561 59.8214C76.6254 59.8214 76.1953 59.4012 76.1953 58.8829Z" fill="#291D18"/>
<path fill-rule="evenodd" clip-rule="evenodd" d="M78.7575 63.8887C78.7575 63.0248 78.0405 62.3244 77.1561 62.3244C76.2717 62.3244 75.5547 63.0248 75.5547 63.8887C75.5547 64.7526 76.2717 65.4529 77.1561 65.4529C78.0405 65.4529 78.7575 64.7526 78.7575 63.8887ZM76.1953 63.8888C76.1953 63.3704 76.6254 62.9502 77.1561 62.9502C77.6868 62.9502 78.1169 63.3704 78.1169 63.8888C78.1169 64.4071 77.6868 64.8273 77.1561 64.8273C76.6254 64.8273 76.1953 64.4071 76.1953 63.8888Z" fill="#291D18"/>
<path fill-rule="evenodd" clip-rule="evenodd" d="M78.7575 69.5199C78.7575 68.656 78.0405 67.9557 77.1561 67.9557C76.2717 67.9557 75.5547 68.656 75.5547 69.5199C75.5547 70.3838 76.2717 71.0842 77.1561 71.0842C78.0405 71.0842 78.7575 70.3838 78.7575 69.5199ZM76.1953 69.5199C76.1953 69.0016 76.6254 68.5814 77.1561 68.5814C77.6868 68.5814 78.1169 69.0016 78.1169 69.5199C78.1169 70.0383 77.6868 70.4585 77.1561 70.4585C76.6254 70.4585 76.1953 70.0383 76.1953 69.5199Z" fill="#291D18"/>
<path fill-rule="evenodd" clip-rule="evenodd" d="M78.7575 74.5254C78.7575 73.6615 78.0405 72.9612 77.1561 72.9612C76.2717 72.9612 75.5547 73.6615 75.5547 74.5254C75.5547 75.3893 76.2717 76.0896 77.1561 76.0896C78.0405 76.0896 78.7575 75.3893 78.7575 74.5254ZM76.1953 74.5255C76.1953 74.0071 76.6254 73.5869 77.1561 73.5869C77.6868 73.5869 78.1169 74.0071 78.1169 74.5255C78.1169 75.0438 77.6868 75.464 77.1561 75.464C76.6254 75.464 76.1953 75.0438 76.1953 74.5255Z" fill="#291D18"/>
</svg>
