<?xml version="1.0" encoding="UTF-8"?>
<svg width="95px" height="24px" viewBox="0 0 95 24" version="1.1" xmlns="http://www.w3.org/2000/svg" xmlns:xlink="http://www.w3.org/1999/xlink">
    <title>Branding / Logo / Entertainment / Play Sports</title>
    <defs>
        <polygon id="path-1" points="0 0.054202333 94.075581 0.054202333 94.075581 23.8956522 0 23.8956522"></polygon>
    </defs>
    <g id="FINAL-DESIGNS" stroke="none" stroke-width="1" fill="none" fill-rule="evenodd">
        <g id="Config-V2_promo" transform="translate(-64.000000, -2051.000000)">
            <g id="Entertainment" transform="translate(0.000000, 1582.000000)">
                <g id="play-sports" transform="translate(16.000000, 454.000000)">
                    <g id="Group-24" transform="translate(48.000000, 15.000000)">
                        <g id="Group-3">
                            <mask id="mask-2" fill="white">
                                <use xlink:href="#path-1"></use>
                            </mask>
                            <g id="Clip-2"></g>
                            <path d="M94.075581,11.91302 C94.075581,7.72749256 93.6389284,4.46054894 93.6389284,4.46054894 L93.6389284,4.49062249 C93.4222038,2.570228 91.968617,1.04457804 90.1408147,0.823805523 L90.1561328,0.823805523 C90.1561328,0.823805523 90.1346409,0.821357676 90.1017333,0.817860751 C90.0959089,0.817044802 90.0907834,0.816345417 90.0853085,0.815937442 C89.3504484,0.731253582 88.6730748,0.0541323945 47.0457553,0.0541323945 C5.31889752,0.0541323945 3.89023902,0.880805396 3.89023902,0.880805396 L3.93211621,0.880805396 C2.1104878,1.10052883 0.660803336,2.61697023 0.436681769,4.52821443 L0.436681769,4.51731568 C0.436681769,4.51731568 0.432429983,4.54791377 0.425382501,4.60549647 C0.424974796,4.60986762 0.424334115,4.61447191 0.423751679,4.61930932 C0.351820771,5.19636018 -2.91218252e-05,8.21181664 -2.91218252e-05,11.9699616 C-2.91218252e-05,15.7171496 0.349665755,18.7258453 0.423052755,19.3158348 C0.425731963,19.3447427 0.430507942,19.3724267 0.43382783,19.4009266 C0.435458653,19.4139818 0.436681769,19.4227824 0.436681769,19.4227824 L0.436681769,19.4205094 C0.661152798,21.3355419 2.11433188,22.8526244 3.93898896,23.0689675 L3.89023902,23.0689675 C3.89023902,23.0689675 5.31889752,23.8956988 47.0457553,23.8956988 C88.6730748,23.8956988 90.1561328,23.0119676 90.1561328,23.0119676 L90.1342915,23.0119676 C91.9649476,22.7943424 93.4222038,21.267585 93.6389284,19.3439268 L93.6389284,19.365666 C93.6389284,19.365666 94.075581,16.0989555 94.075581,11.91302" id="Fill-1" fill="#42AE5C" mask="url(#mask-2)"></path>
                        </g>
                        <path d="M9.65449156,11.0181838 C10.1945572,11.0181838 10.5102842,10.6468556 10.5102842,9.96206116 C10.5102842,9.36795944 10.1529956,9.01322146 9.65449156,9.01322146 L8.85684986,9.01322146 L8.85684986,11.0181838 L9.65449156,11.0181838 Z M6.15652174,16.1336521 L6.15652174,7.86634787 C6.15652174,7.18976114 6.74647294,6.67826087 7.51081851,6.67826087 L9.65449156,6.67826087 C11.67348,6.67826087 13.2521739,8.06438177 13.2521739,9.96206116 C13.2521739,12.0165028 11.8147541,13.3530861 9.65449156,13.3530861 L8.85684986,13.3530861 L8.85684986,16.1336521 C8.85684986,16.8101807 8.26695728,17.3217391 7.51081851,17.3217391 C6.74647294,17.3217391 6.15652174,16.8101807 6.15652174,16.1336521 L6.15652174,16.1336521 Z" id="Fill-4" fill="#FFFFFF"></path>
                        <path d="M13.6695652,16.1501259 L13.6695652,7.84987415 C13.6695652,7.18155338 14.2520376,6.67826087 14.9986651,6.67826087 C15.753454,6.67826087 16.3359264,7.18155338 16.3359264,7.84987415 L16.3359264,14.9867785 L19.0022876,14.9867785 C19.7570764,14.9867785 20.3478261,15.4818633 20.3478261,16.1501259 C20.3478261,16.8183884 19.7570764,17.3217391 19.0022876,17.3217391 L14.9986651,17.3217391 C14.2520376,17.3217391 13.6695652,16.8183884 13.6695652,16.1501259" id="Fill-6" fill="#FFFFFF"></path>
                        <path d="M26.08793,12.8580596 C25.8578104,12.1485254 25.6112826,11.3976614 25.3565797,10.6798613 C25.1017609,11.3811877 24.847058,12.1485254 24.6169384,12.8580596 L26.08793,12.8580596 Z M20.8695652,15.9850976 C20.8695652,15.8035956 20.9023815,15.671573 20.976421,15.4405335 C21.1900166,14.7639467 22.8911279,9.48345012 23.9266374,7.37958729 C24.1649321,6.89271028 24.6826868,6.67826087 25.3729878,6.67826087 C26.0632889,6.67826087 26.5481114,6.90097625 26.7864641,7.37958729 C27.739701,9.31021411 29.6380578,15.0775295 29.7367385,15.4405335 C29.810662,15.671573 29.8434783,15.8035956 29.8434783,15.9850976 C29.8434783,16.7276956 29.2518,17.3217391 28.5368578,17.3217391 C27.9123053,17.3217391 27.4521239,17.0164805 27.2137712,16.3068881 C27.1069734,15.9933054 27.0001176,15.6138277 26.8768537,15.1930202 L23.8362477,15.1930202 C23.7129838,15.6138277 23.606128,15.9933054 23.4993303,16.3068881 C23.2609775,17.0164805 22.8007962,17.3217391 22.1761857,17.3217391 C21.4612435,17.3217391 20.8695652,16.7276956 20.8695652,15.9850976 L20.8695652,15.9850976 Z" id="Fill-8" fill="#FFFFFF"></path>
                        <path d="M30.8594557,16.1336521 L30.8594557,13.1963821 C30.8099427,13.1386367 30.7604878,13.0726254 30.6945092,12.9736085 C29.7791288,11.6534407 28.8884757,9.60732318 28.7152673,9.24420281 C28.550379,8.88946483 28.2782609,8.35316666 28.2782609,7.9488911 C28.2782609,7.28057033 28.8224971,6.67826087 29.5070106,6.67826087 C30.150273,6.67826087 30.5213008,6.97531173 30.752226,7.48681199 C30.9748892,7.99016272 31.642879,9.45050268 32.2201627,10.5643706 C32.8633669,9.30200635 33.1190194,8.72443657 33.564346,7.66010621 C33.7705436,7.1568137 34.1663571,6.67826087 34.8178231,6.67826087 C35.5930427,6.67826087 36.1043478,7.28057033 36.1043478,7.9488911 C36.1043478,8.22941003 35.955925,8.60888769 35.8734227,8.80697981 C35.4776092,9.72275564 34.5375013,11.6947123 33.6963032,13.0065559 C33.6551102,13.0726254 33.5973934,13.1386367 33.5313566,13.2128558 L33.5313566,16.1336521 C33.5313566,16.8101807 32.945811,17.3217391 32.1954353,17.3217391 C31.4449432,17.3217391 30.8594557,16.8101807 30.8594557,16.1336521" id="Fill-10" fill="#FFFFFF"></path>
                        <path d="M39.9966567,16.3673169 C39.6581437,16.0943232 39.4434783,15.7221226 39.4434783,15.3664954 C39.4434783,14.721301 39.9718989,14.1174233 40.690227,14.1174233 C41.0783141,14.1174233 41.4168854,14.332527 41.6563087,14.514484 C42.0443375,14.8039928 42.3911226,15.0852149 42.8865715,15.0852149 C43.5388981,15.0852149 43.9186548,14.721301 43.9186548,14.1009083 C43.9186548,12.8188063 39.6664157,13.0256233 39.6664157,9.61781121 C39.6664157,7.88904512 41.2104338,6.57391304 43.1838409,6.57391304 C44.1333785,6.57391304 45.115946,6.87993685 45.8672458,7.46718278 C46.2140309,7.74017656 46.3957247,8.07934711 46.3957247,8.47629104 C46.3957247,9.16286048 45.85076,9.70873133 45.1737338,9.70873133 C44.8765228,9.70873133 44.5379514,9.6012962 44.281984,9.4109942 C43.8443812,9.08016869 43.5388981,8.91472676 43.1838409,8.91472676 C42.7296939,8.91472676 42.3911226,9.22075057 42.3911226,9.61781121 C42.3911226,10.8750532 46.6434783,10.5442277 46.6434783,14.1009083 C46.6434783,16.0612348 45.0911299,17.426087 42.8865715,17.426087 C41.8214583,17.426087 40.8388908,17.0455413 39.9966567,16.3673169" id="Fill-12" fill="#FFFFFF"></path>
                        <path d="M51.0806371,11.0181838 C51.6207028,11.0181838 51.9364298,10.6468556 51.9364298,9.96206116 C51.9364298,9.36795944 51.5791412,9.01322146 51.0806371,9.01322146 L50.2829954,9.01322146 L50.2829954,11.0181838 L51.0806371,11.0181838 Z M47.5826087,16.1336521 L47.5826087,7.86634787 C47.5826087,7.18976114 48.1725599,6.67826087 48.9369641,6.67826087 L51.0806371,6.67826087 C53.0996255,6.67826087 54.6782609,8.06438177 54.6782609,9.96206116 C54.6782609,12.0165028 53.2408996,13.3530861 51.0806371,13.3530861 L50.2829954,13.3530861 L50.2829954,16.1336521 C50.2829954,16.8101807 49.6930442,17.3217391 48.9369641,17.3217391 C48.1725599,17.3217391 47.5826087,16.8101807 47.5826087,16.1336521 L47.5826087,16.1336521 Z" id="Fill-14" fill="#FFFFFF"></path>
                        <path d="M61.6468956,12.0248017 C61.6468956,10.2216305 60.7514852,8.91472676 59.5826379,8.91472676 C58.4468371,8.91472676 57.5183218,10.2712339 57.5183218,12.0248017 C57.5183218,13.7452228 58.4468371,15.0852149 59.5826379,15.0852149 C60.7597906,15.0852149 61.6468956,13.7948845 61.6468956,12.0248017 M54.7826087,12.0248017 C54.7826087,8.93124177 56.8468663,6.57391304 59.5826379,6.57391304 C62.3681253,6.57391304 64.3826087,8.87335169 64.3826087,12.0248017 C64.3826087,15.1348766 62.3598199,17.426087 59.5826379,17.426087 C56.8551133,17.426087 54.7826087,15.0769866 54.7826087,12.0248017" id="Fill-16" fill="#FFFFFF"></path>
                        <path d="M68.9313437,10.7871442 C69.5081757,10.7871442 69.7801665,10.4735614 69.7801665,9.80529887 C69.7801665,9.32674604 69.4587546,9.01316325 68.9313437,9.01316325 L68.0000748,9.01316325 L68.0000748,10.7871442 L68.9313437,10.7871442 Z M65.3217391,16.1336521 L65.3217391,7.86634787 C65.3217391,7.18976114 65.9068274,6.67826087 66.6568079,6.67826087 L68.9313437,6.67826087 C71.2470444,6.67826087 72.5079815,8.02316837 72.5079815,9.84657048 C72.5079815,10.9356405 72.0464461,11.7359839 71.0080786,12.2887558 C71.6343899,12.8498518 72.005223,13.6831427 72.4832127,14.9867785 C72.6480468,15.4240597 72.7304348,15.7458503 72.7304348,15.9850976 C72.7304348,16.686424 72.1700571,17.3217391 71.4201347,17.3217391 C70.8267902,17.3217391 70.2911231,16.9999486 70.1098347,16.3976391 C69.3433998,13.8399049 68.8654101,13.1220466 68.2390987,13.1220466 L68.0000748,13.1220466 L68.0000748,16.1336521 C68.0000748,16.8101807 67.4067303,17.3217391 66.6568079,17.3217391 C65.9068274,17.3217391 65.3217391,16.8101807 65.3217391,16.1336521 L65.3217391,16.1336521 Z" id="Fill-18" fill="#FFFFFF"></path>
                        <path d="M75.1707759,16.1336521 L75.1707759,9.01322146 L73.7443497,9.01322146 C72.989682,9.01322146 72.4173913,8.51819492 72.4173913,7.83334222 C72.4173913,7.16507966 72.989682,6.67826087 73.7443497,6.67826087 L79.3339697,6.67826087 C80.0886959,6.67826087 80.6608696,7.16507966 80.6608696,7.83334222 C80.6608696,8.51819492 80.0886959,9.01322146 79.3339697,9.01322146 L77.8660596,9.01322146 L77.8660596,16.1336521 C77.8660596,16.8101807 77.2689605,17.3217391 76.5142928,17.3217391 C75.7595665,17.3217391 75.1707759,16.8101807 75.1707759,16.1336521" id="Fill-20" fill="#FFFFFF"></path>
                        <path d="M81.3183959,16.3673169 C80.9798828,16.0943232 80.7652174,15.7221226 80.7652174,15.3664954 C80.7652174,14.721301 81.293638,14.1174233 82.0119661,14.1174233 C82.4000532,14.1174233 82.7386245,14.332527 82.9780478,14.514484 C83.3660766,14.8039928 83.7128618,15.0852149 84.2083107,15.0852149 C84.8606372,15.0852149 85.240394,14.721301 85.240394,14.1009083 C85.240394,12.8188063 80.9881548,13.0256233 80.9881548,9.61781121 C80.9881548,7.88904512 82.5321729,6.57391304 84.50558,6.57391304 C85.4551176,6.57391304 86.4376852,6.87993685 87.188985,7.46718278 C87.5357701,7.74017656 87.7174638,8.07934711 87.7174638,8.47629104 C87.7174638,9.16286048 87.1724991,9.70873133 86.495473,9.70873133 C86.1982619,9.70873133 85.8596906,9.6012962 85.6037232,9.4109942 C85.1661203,9.08016869 84.8606372,8.91472676 84.50558,8.91472676 C84.0514331,8.91472676 83.7128618,9.22075057 83.7128618,9.61781121 C83.7128618,10.8750532 87.9652174,10.5442277 87.9652174,14.1009083 C87.9652174,16.0612348 86.412869,17.426087 84.2083107,17.426087 C83.1431974,17.426087 82.1606299,17.0455413 81.3183959,16.3673169" id="Fill-22" fill="#FFFFFF"></path>
                    </g>
                </g>
            </g>
        </g>
    </g>
</svg>