<?xml version="1.0" encoding="UTF-8"?>
<svg width="34px" height="34px" viewBox="0 0 34 34" version="1.1" xmlns="http://www.w3.org/2000/svg" xmlns:xlink="http://www.w3.org/1999/xlink">
    <title>Illustrations/Easyswitch/Card/Dark</title>
    <g id="🟢-All-Journeys" stroke="none" stroke-width="1" fill="none" fill-rule="evenodd">
        <g id="Internet-and-DTV-Easy-Switch---11.00-(M)" transform="translate(-48.000000, -398.000000)" fill="#FFFFFF" fill-rule="nonzero">
            <g id="Group-6" transform="translate(20.000000, 264.000000)">
                <g id="Group-11" transform="translate(0.000000, 106.000000)">
                    <g id="Illustration-/-Flow-/-Mobile+Desktop-/-Add-item" transform="translate(28.000000, 28.000000)">
                        <path d="M17,0.293103448 C20.2232796,0.293103448 23.3120125,1.20779046 25.9713381,2.90374484 C26.1078221,2.99078592 26.1479035,3.17198878 26.0608624,3.30847274 C25.9738213,3.4449567 25.7926185,3.48503808 25.6561345,3.397997 C23.0902866,1.76165697 20.1107613,0.879310345 17,0.879310345 C8.09678895,0.879310345 0.879310345,8.09678895 0.879310345,17 C0.879310345,25.9032111 8.09678895,33.1206897 17,33.1206897 C25.9032111,33.1206897 33.1206897,25.9032111 33.1206897,17 C33.1206897,12.8099997 31.5157978,8.87282241 28.6871197,5.8964444 C28.5756042,5.77910601 28.5803245,5.59358321 28.6976629,5.48206763 C28.8150013,5.37055205 29.0005241,5.37527237 29.1120396,5.49261076 C32.0432605,8.57688586 33.7068966,12.6581765 33.7068966,17 C33.7068966,26.2269642 26.2269642,33.7068966 17,33.7068966 C7.77303582,33.7068966 0.293103448,26.2269642 0.293103448,17 C0.293103448,7.77303582 7.77303582,0.293103448 17,0.293103448 Z M24.4583823,8.59501118 C24.5728463,8.48054716 24.8239289,8.54604699 25.0191911,8.74130913 C25.2144532,8.93657128 25.2799531,9.18765394 25.1654891,9.30211796 L25.1654891,9.30211796 L17.4681034,17.0001034 L25.3723856,24.9047786 C25.4725416,25.0049346 25.4349128,25.2096893 25.2931303,25.3901234 L25.2260876,25.4655874 C25.0308255,25.6608496 24.7797428,25.7263494 24.6652788,25.6118854 L24.6652788,25.6118854 L16.7601034,17.7071034 L9.09522141,25.3723856 C8.99506539,25.4725416 8.79031073,25.4349128 8.60987661,25.2931303 L8.53441258,25.2260876 C8.33915044,25.0308255 8.27365061,24.7797428 8.38811463,24.6652788 L8.38811463,24.6652788 L16.0531034,17.0001034 L8.59501118,9.54161773 C8.49485516,9.44146172 8.53248397,9.23670705 8.67426649,9.05627294 L8.74130913,8.9808089 C8.93657128,8.78554676 9.18765394,8.72004693 9.30211796,8.83451095 L9.30211796,8.83451095 L16.7601034,16.2921034 Z" id="Combined-Shape"></path>
                    </g>
                </g>
            </g>
        </g>
    </g>
</svg>