<svg width="243" height="32" viewBox="0 0 243 32" fill="none" xmlns="http://www.w3.org/2000/svg">
<path fill-rule="evenodd" clip-rule="evenodd" d="M23.5104 27.0082C25.4227 26.7782 26.8974 25.2791 27.1291 23.3752L27.1292 23.3744C27.1369 23.3166 27.5915 19.9436 27.5915 15.9402C27.5915 11.9022 27.1291 8.50524 27.1291 8.50524C26.8974 6.60157 25.4227 5.10254 23.5104 4.87282C23.5104 4.87282 20.4748 4.40345 16.0069 4.40345C11.5384 4.40345 8.50278 4.87282 8.50278 4.87282C6.59076 5.10254 5.11667 6.60157 4.8841 8.50585C4.8841 8.50585 4.42197 11.9022 4.42197 15.9402C4.42197 19.9782 4.8841 23.3752 4.8841 23.3752C5.11667 25.2791 6.59076 26.7782 8.50278 27.0082C8.50278 27.0082 11.5384 27.4773 16.0069 27.4773C20.4748 27.4773 23.5104 27.0082 23.5104 27.0082ZM26.3744 0.647905C29.0172 0.965535 31.0541 3.03691 31.375 5.66767L31.3751 5.66842C31.3842 5.73643 32.0137 10.4014 32.0137 15.9402C32.0137 21.5197 31.375 26.2128 31.375 26.2128C31.0541 28.8444 29.0172 30.9149 26.3744 31.2328C26.3744 31.2328 22.1805 31.8807 16.0069 31.8807C9.83288 31.8807 5.63836 31.2328 5.63836 31.2328C2.99626 30.9149 0.959335 28.8444 0.638448 26.2128C0.638145 26.2125 0 21.5197 0 15.9402C0 10.3608 0.638145 5.66797 0.638448 5.66767C0.959335 3.03691 2.99626 0.965535 5.63836 0.647905C5.63836 0.647905 9.83288 0 16.0069 0C22.1805 0 26.3744 0.647905 26.3744 0.647905ZM22.5476 11.2021V12.858C22.5476 13.1151 22.3059 13.0576 22.3059 13.0576C21.5671 12.9221 20.7332 12.8466 19.9421 12.8294C19.1261 12.8146 18.4414 12.8577 17.7418 12.9568C17.7418 12.9568 17.5271 13.0398 17.5271 12.7355V11.0973C17.5271 10.9348 17.7122 10.8779 17.7122 10.8779C18.4559 10.7168 19.2011 10.643 19.9481 10.656C20.7417 10.6731 21.5444 10.7908 22.3534 11.0022C22.3534 11.0022 22.5476 11.0501 22.5476 11.2021ZM14.4186 11.8808C14.4186 9.79622 11.9177 9.79321 11.9177 9.79321C11.9177 9.79321 9.41688 9.79622 9.41688 11.8808C9.41688 13.967 11.9177 13.97 11.9177 13.97C11.9177 13.97 14.4186 13.967 14.4186 11.8808ZM9.31313 19.747C10.1699 20.4124 12.8544 22.2763 16.0463 22.2778C19.2383 22.2763 21.9206 20.4124 22.7792 19.747C22.7792 19.747 23.065 19.4781 23.065 19.2231V18.3744C23.065 17.9493 22.7405 18.1784 22.7405 18.1784C21.8719 18.7209 19.3356 20.1035 16.0463 20.1035C12.7567 20.1035 10.2204 18.7209 9.35214 18.1784C9.35214 18.1784 9.02732 17.9493 9.02732 18.3744V19.2231C9.02732 19.4781 9.31313 19.747 9.31313 19.747Z" fill="#919EBB"/>
<path fill-rule="evenodd" clip-rule="evenodd" d="M101.542 20.1129L105.929 9.05939L110.25 20.1129H101.542ZM108.725 2.67668C108.178 1.46758 107.272 0.876876 105.958 0.876876C104.646 0.876876 103.698 1.51214 103.216 2.71341L93.0599 27.3567C92.9698 27.6141 92.8328 28.0037 92.8328 28.5339C92.8328 29.9053 94.0196 30.9798 95.5342 30.9798C96.685 30.9798 97.4417 30.4309 97.9156 29.2519L99.6386 24.9099H112.125L113.852 29.3293C114.453 30.6935 115.47 30.9798 116.218 30.9798C117.775 30.9798 119.041 29.8098 119.041 28.3716C119.041 27.9507 118.916 27.4892 118.798 27.1971L108.725 2.67668ZM136.642 0.876876C135.279 0.876876 134.698 1.65394 134.272 2.49393L134.268 2.50085L127.42 14.6361L120.14 2.29522C119.389 1.0241 118.532 0.876876 117.953 0.876876C116.434 0.876876 115.211 2.2597 115.211 3.40437C115.211 3.9469 115.38 4.51321 115.685 4.99854L124.739 20.1936V28.2909C124.739 29.9495 125.758 30.9798 127.4 30.9798C129.041 30.9798 130.06 29.9495 130.06 28.2909V20.1867L130.085 20.1439L138.668 5.36073C139.019 4.7616 139.343 4.11038 139.343 3.40437C139.343 2.12903 138.005 0.876876 136.642 0.876876ZM87.2117 25.992H79.1989V3.4658C79.1989 1.81774 78.235 0.872673 76.5537 0.872673C74.8725 0.872673 73.9086 1.81774 73.9086 3.4658V30.9346H87.2117C88.8409 30.9346 89.7754 30.0341 89.7754 28.4638C89.7754 26.8931 88.8409 25.992 87.2117 25.992ZM61.0284 14.9466H55.2082V21.8757C55.2082 24.0019 53.4707 25.7318 51.3346 25.7318C49.1988 25.7318 47.4613 24.0019 47.4613 21.8757V6.09898H61.0284C63.479 6.09898 65.4721 8.08334 65.4721 10.5226C65.4721 12.9619 63.479 14.9466 61.0284 14.9466ZM61.0284 0.872681H42.2109V21.8757C42.2109 26.8916 46.296 30.9578 51.3346 30.9578C56.3735 30.9578 60.4583 26.8916 60.4583 21.8757V20.1729H61.0284C66.3822 20.1729 70.7225 15.8522 70.7225 10.5226C70.7225 5.19305 66.3822 0.872681 61.0284 0.872681Z" fill="#919EBB"/>
<path fill-rule="evenodd" clip-rule="evenodd" d="M189.366 11.7633V20.0891C189.366 24.0416 188.057 26.1443 184.213 26.1443C180.411 26.1443 179.017 24.0416 179.017 20.0891V11.7633C179.017 7.8527 180.411 5.70847 184.213 5.70847C188.057 5.70847 189.366 7.8527 189.366 11.7633ZM173.695 11.343V20.5516C173.695 26.859 177.159 30.9798 184.213 30.9798C191.267 30.9798 194.689 26.859 194.689 20.5516V11.343C194.689 5.03558 191.267 0.872665 184.213 0.872665C177.159 0.872665 173.695 5.03558 173.695 11.343ZM142.353 3.31165V28.499C142.353 29.8866 143.451 30.9798 144.845 30.9798C146.281 30.9798 147.379 29.8866 147.379 28.499V13.2771H147.548L153.42 24.9668C153.8 25.7237 154.433 26.1443 155.194 26.1443C155.954 26.1443 156.587 25.7237 156.967 24.9668L162.839 13.2771H163.008V28.499C163.008 29.8866 164.106 30.9798 165.542 30.9798C166.936 30.9798 168.035 29.8866 168.035 28.499V3.31165C168.035 1.92371 166.978 0.872673 165.627 0.872673C164.613 0.872673 163.768 1.46127 163.388 2.30246L155.278 18.1551H155.109L146.999 2.30246C146.619 1.46127 145.774 0.872673 144.76 0.872673C143.409 0.872673 142.353 1.92371 142.353 3.31165ZM209.431 15.2114C212.641 15.2114 214.499 14.0339 214.499 10.5439C214.499 6.84376 212.556 5.83457 209.008 5.83457H205.629V15.2114H209.431ZM200.349 28.3306V3.85834C200.349 2.30241 201.532 1.20922 203.01 1.20922H209.261C215.851 1.20922 219.864 3.81619 219.864 10.5439C219.864 15.9683 217.287 17.9867 214.711 18.9959L220.202 26.6907C220.539 27.1534 220.878 27.9103 220.878 28.4989C220.878 29.9287 219.779 30.98 218.301 30.98C217.203 30.98 216.569 30.4754 215.893 29.5081L209.557 19.8368H205.629V28.3306C205.629 29.8866 204.488 30.98 203.01 30.98C201.532 30.98 200.349 29.8866 200.349 28.3306ZM225.355 3.85819V27.9945C225.355 29.5501 226.538 30.6436 228.016 30.6436H239.97C241.238 30.6436 242.294 29.5922 242.294 28.3308C242.294 27.0693 241.238 26.0182 239.97 26.0182H230.678V17.9447H239.041C240.308 17.9447 241.364 16.8934 241.364 15.6319C241.364 14.3704 240.308 13.319 239.041 13.319H230.678V5.83442H239.97C241.238 5.83442 242.294 4.78338 242.294 3.52189C242.294 2.2604 241.238 1.20906 239.97 1.20906H228.016C226.538 1.20906 225.355 2.30255 225.355 3.85819Z" fill="#4089C4"/>
</svg>
