<svg width="96" height="88" viewBox="0 0 96 88" fill="none" xmlns="http://www.w3.org/2000/svg">
<path fill-rule="evenodd" clip-rule="evenodd" d="M18.2996 28.3346L48.3093 4.53074L78.6436 28.592V84.0366H18.2996V28.3346ZM14.7499 31.1502L2.82309 40.6106L0.617188 37.8296L48.3093 0L96.0014 37.8296L93.7955 40.6106L82.1933 31.4076V87.5862H14.7499V31.1502Z" fill="#004A47"/>
<path fill-rule="evenodd" clip-rule="evenodd" d="M69.975 47.1629C58.1867 35.3746 39.0742 35.3746 27.2859 47.1629L24.1484 44.0254C37.6695 30.5044 59.5914 30.5044 73.1125 44.0254L69.975 47.1629Z" fill="#60B0B2"/>
<path fill-rule="evenodd" clip-rule="evenodd" d="M63.4433 53.6961C55.2634 45.5161 42.001 45.5161 33.8211 53.6961L30.6836 50.5586C40.5963 40.6459 56.6681 40.6459 66.5808 50.5586L63.4433 53.6961Z" fill="#60B0B2"/>
<path fill-rule="evenodd" clip-rule="evenodd" d="M57.3092 59.8308C52.5188 55.0404 44.7521 55.0404 39.9617 59.8308L36.8242 56.6934C43.3474 50.1702 53.9235 50.1702 60.4467 56.6934L57.3092 59.8308Z" fill="#60B0B2"/>
<path d="M51.5751 62.0114C53.202 63.6382 53.202 66.2758 51.5751 67.9027C49.9483 69.5295 47.3107 69.5295 45.6839 67.9027C44.0571 66.2758 44.0571 63.6382 45.6839 62.0114C47.3107 60.3846 49.9483 60.3846 51.5751 62.0114Z" fill="#60B0B2"/>
</svg>
