<svg width="139" height="106" viewBox="0 0 139 106" fill="none" xmlns="http://www.w3.org/2000/svg">
<path fill-rule="evenodd" clip-rule="evenodd" d="M29.4345 101.295V83.1726H47.1521C47.1521 83.1726 49.5107 83.5683 49.5107 85.5312H55.109C55.109 85.5312 60.773 86.0419 60.773 91.1953V99.5034H61.3831C61.3831 99.5034 61.9984 99.5478 61.9984 100.119V101.361L57.9221 101.353C58.0252 101.673 58.081 102.014 58.081 102.368C58.081 104.192 56.6025 105.67 54.7788 105.67C52.955 105.67 51.4766 104.192 51.4766 102.368C51.4766 102.009 51.5338 101.664 51.6397 101.34L39.4174 101.315C39.5285 101.646 39.5887 102 39.5887 102.368C39.5887 104.192 38.1103 105.67 36.2866 105.67C34.4628 105.67 32.9844 104.192 32.9844 102.368C32.9844 101.995 33.0462 101.637 33.16 101.302L29.4345 101.295Z" fill="#E5CFC7"/>
<path d="M131.344 94.085V103.432H130.849V94.085H131.344Z" fill="#291D18"/>
<path fill-rule="evenodd" clip-rule="evenodd" d="M123.502 87.0127C123.502 82.9092 126.828 79.5828 130.931 79.5828C135.035 79.5828 138.361 82.9092 138.361 87.0127C138.361 91.1161 135.035 94.4426 130.931 94.4426C126.828 94.4426 123.502 91.1161 123.502 87.0127ZM137.701 87.0127C137.701 83.274 134.67 80.2432 130.931 80.2432C127.193 80.2432 124.162 83.274 124.162 87.0127C124.162 90.7514 127.193 93.7822 130.931 93.7822C134.67 93.7822 137.701 90.7514 137.701 87.0127Z" fill="#291D18"/>
<path d="M80.0893 0.330322C82.7902 0.330322 85.1095 2.18271 85.7611 4.75671L85.7695 4.7919L85.8788 4.78287C85.9261 4.77967 85.9736 4.77727 86.0211 4.77566L86.1641 4.77326C88.3456 4.77326 90.1377 6.44636 90.341 8.58491L90.3473 8.66073L92.7913 8.66082C92.9606 8.66082 93.1002 8.7883 93.1192 8.95253L93.1215 8.99104C93.1215 9.16039 92.994 9.29996 92.8298 9.31904L92.7913 9.32126H90.0299C89.8476 9.32126 89.6997 9.17342 89.6997 8.99104C89.6997 7.02596 88.1164 5.43369 86.1641 5.43369C85.9626 5.43369 85.7634 5.45062 85.5678 5.48402C85.3906 5.51429 85.2217 5.39719 85.1879 5.22058C84.721 2.78064 82.5886 0.990758 80.0893 0.990758C77.4049 0.990758 75.169 3.04925 74.9198 5.71944C74.9027 5.90242 74.7396 6.03626 74.5568 6.01719C74.3775 5.99848 74.1965 5.98906 74.0144 5.98906C71.9215 5.98906 70.058 7.24616 69.2437 9.14695C69.1861 9.28126 69.0472 9.36178 68.902 9.34492C68.7666 9.32919 68.6297 9.32126 68.4918 9.32126C66.5395 9.32126 64.9562 10.9135 64.9562 12.8786C64.9562 13.048 64.8287 13.1875 64.6645 13.2066L64.6259 13.2088H60.7601C60.5777 13.2088 60.4299 13.061 60.4299 12.8786C60.4299 12.7093 60.5574 12.5697 60.7216 12.5506L60.7601 12.5484H64.3083L64.3149 12.4725C64.515 10.3673 66.2547 8.71322 68.3898 8.66204L68.4918 8.66082C68.5462 8.66082 68.6006 8.66187 68.6548 8.66395L68.7352 8.66833C69.682 6.68566 71.6635 5.37602 73.8926 5.32988L74.0144 5.32862C74.0656 5.32862 74.1168 5.32929 74.1679 5.33061L74.301 5.33577L74.302 5.33075C74.7226 2.5193 77.1116 0.384938 79.9787 0.331354L80.0893 0.330322Z" fill="#291D18"/>
<path d="M42.5351 40.9021C41.519 40.9021 40.5451 41.1883 39.7063 41.7166C38.3589 39.9092 36.2713 38.7839 33.9826 38.6874C33.8157 35.8953 31.5015 33.6824 28.671 33.6824C25.8395 33.6824 23.5248 35.8967 23.3592 38.6902C20.6787 38.8498 18.5325 40.9962 18.3687 43.679H14.5296C14.3472 43.679 14.1994 43.8268 14.1994 44.0092C14.1994 44.1916 14.3472 44.3394 14.5296 44.3394H18.6888C18.8712 44.3394 19.019 44.1916 19.019 44.0092C19.019 41.431 21.1059 39.3411 23.6799 39.3411C23.8623 39.3411 24.0101 39.1933 24.0101 39.0109C24.0101 36.4327 26.097 34.3428 28.671 34.3428C31.245 34.3428 33.3319 36.4327 33.3319 39.0109C33.3319 39.1933 33.4797 39.3411 33.6621 39.3411C35.9664 39.3411 38.0773 40.484 39.351 42.3559C39.4555 42.5096 39.6662 42.5467 39.817 42.4381C40.6032 41.8718 41.5455 41.5626 42.5351 41.5626C45.1091 41.5626 47.196 43.6524 47.196 46.2307C47.196 46.413 47.3438 46.5609 47.5262 46.5609H50.8536C51.036 46.5609 51.1838 46.413 51.1838 46.2307C51.1838 46.0483 51.036 45.9004 50.8536 45.9004H47.8464C47.6761 43.1115 45.3633 40.9021 42.5351 40.9021Z" fill="#291D18"/>
<path fill-rule="evenodd" clip-rule="evenodd" d="M100.236 23.7759C100.419 23.7759 100.567 23.9237 100.567 24.1061C100.567 24.2754 100.439 24.415 100.275 24.4341L100.236 24.4363H79.4241L74.2398 31.5184C74.1321 31.6655 73.9255 31.6975 73.7783 31.5898C73.6425 31.4903 73.6048 31.3066 73.6845 31.1632L73.7069 31.1283L78.9902 23.911C79.0446 23.8367 79.1272 23.789 79.2175 23.7782L79.2566 23.7759H100.236ZM72.1904 34.3137C72.2701 34.1703 72.2324 33.9865 72.0966 33.8871C71.9495 33.7794 71.7428 33.8114 71.6351 33.9585L70.07 36.0966L70.0474 36.1318C70.0205 36.1805 70.0062 36.2355 70.0062 36.2916V58.3249L70.0084 58.3635C70.0275 58.5277 70.1671 58.6552 70.3364 58.6552C70.5188 58.6552 70.6667 58.5073 70.6667 58.3249V36.3996L72.168 34.3486L72.1904 34.3137ZM113.265 34.6802C113.434 34.6802 113.574 34.8076 113.593 34.9719L113.595 35.0104V60.6626C113.595 60.845 113.447 60.9928 113.265 60.9928C113.095 60.9928 112.956 60.8654 112.937 60.7011L112.935 60.6626V35.0104C112.935 34.828 113.082 34.6802 113.265 34.6802ZM70.6645 60.7982C70.6454 60.634 70.5058 60.5065 70.3364 60.5065C70.1541 60.5065 70.0062 60.6544 70.0062 60.8367V82.1742L70.0084 82.2127C70.0275 82.3769 70.1671 82.5044 70.3364 82.5044C70.5188 82.5044 70.6667 82.3565 70.6667 82.1742V60.8367L70.6645 60.7982ZM113.265 63.1018C113.434 63.1018 113.574 63.2293 113.593 63.3935L113.595 63.4321V103.358C113.595 103.541 113.447 103.689 113.265 103.689C113.095 103.689 112.956 103.561 112.937 103.397L112.935 103.358V63.4321C112.935 63.2497 113.082 63.1018 113.265 63.1018ZM70.3364 84.7666C70.5058 84.7666 70.6454 84.8941 70.6645 85.0583L70.6667 85.0968V103.358C70.6667 103.541 70.5188 103.689 70.3364 103.689C70.1671 103.689 70.0275 103.561 70.0084 103.397L70.0062 103.358V85.0968C70.0062 84.9144 70.1541 84.7666 70.3364 84.7666ZM113.593 24.0676C113.574 23.9034 113.434 23.7759 113.265 23.7759H107.845L107.806 23.7781C107.642 23.7972 107.514 23.9367 107.514 24.1061C107.514 24.2885 107.662 24.4363 107.845 24.4363H112.935V30.5034L112.937 30.5419C112.956 30.7062 113.095 30.8337 113.265 30.8337C113.447 30.8337 113.595 30.6858 113.595 30.5034V24.1061L113.593 24.0676Z" fill="#291D18"/>
<path d="M70.6689 36.9845L95.4352 36.8194L95.4308 36.1589L70.6645 36.324L70.6689 36.9845Z" fill="#291D18"/>
<path d="M95.5981 103.028V35.0032H94.9377V103.028H95.5981Z" fill="#291D18"/>
<path fill-rule="evenodd" clip-rule="evenodd" d="M110.54 49.0376C110.54 52.5483 107.694 55.3943 104.184 55.3943C100.673 55.3943 97.8271 52.5483 97.8271 49.0376C97.8271 45.5269 100.673 42.6809 104.184 42.6809C107.694 42.6809 110.54 45.5269 110.54 49.0376ZM98.3224 49.0376C98.3224 52.2748 100.947 54.899 104.184 54.899C107.421 54.899 110.045 52.2748 110.045 49.0376C110.045 45.8005 107.421 43.1762 104.184 43.1762C100.947 43.1762 98.3224 45.8005 98.3224 49.0376Z" fill="#291D18"/>
<path d="M103.936 43.9191V53.8256C103.936 53.9624 104.047 54.0733 104.184 54.0733C104.321 54.0733 104.431 53.9624 104.431 53.8256V43.9191C104.431 43.7823 104.321 43.6714 104.184 43.6714C104.047 43.6714 103.936 43.7823 103.936 43.9191Z" fill="#291D18"/>
<path d="M99.0654 49.2851H108.972C109.109 49.2851 109.22 49.1742 109.22 49.0375C109.22 48.9007 109.109 48.7898 108.972 48.7898H99.0654C98.9286 48.7898 98.8177 48.9007 98.8177 49.0375C98.8177 49.1742 98.9286 49.2851 99.0654 49.2851Z" fill="#291D18"/>
<path d="M98.4908 102.942V96.7539H97.6587V103.358C97.6587 103.588 97.845 103.774 98.0748 103.774H110.293C110.523 103.774 110.709 103.588 110.709 103.358V96.7539H109.877V102.942H98.4908Z" fill="#291D18"/>
<path d="M97.9599 101.46H109.963C110.099 101.46 110.21 101.349 110.21 101.212C110.21 101.075 110.099 100.964 109.963 100.964H97.9599C97.8231 100.964 97.7122 101.075 97.7122 101.212C97.7122 101.349 97.8231 101.46 97.9599 101.46Z" fill="#291D18"/>
<path d="M98.0748 99.1482H110.077C110.214 99.1482 110.325 99.0373 110.325 98.9005C110.325 98.7637 110.214 98.6528 110.077 98.6528H98.0748C97.938 98.6528 97.8271 98.7637 97.8271 98.9005C97.8271 99.0373 97.938 99.1482 98.0748 99.1482Z" fill="#291D18"/>
<path d="M97.9599 97.1667H109.963C110.099 97.1667 110.21 97.0558 110.21 96.9191C110.21 96.7823 110.099 96.6714 109.963 96.6714H97.9599C97.8231 96.6714 97.7122 96.7823 97.7122 96.9191C97.7122 97.0558 97.8231 97.1667 97.9599 97.1667Z" fill="#291D18"/>
<path d="M110.709 97.0843V86.006C110.709 82.4108 107.787 79.4968 104.184 79.4968C100.58 79.4968 97.6587 82.4108 97.6587 86.006V97.0843H98.4908V86.006C98.4908 82.8709 101.039 80.329 104.184 80.329C107.328 80.329 109.877 82.8709 109.877 86.006V97.0843H110.709Z" fill="#291D18"/>
<path d="M98.0748 85.9394H110.293C110.43 85.9394 110.54 85.8285 110.54 85.6918C110.54 85.555 110.43 85.4441 110.293 85.4441H98.0748C97.938 85.4441 97.8271 85.555 97.8271 85.6918C97.8271 85.8285 97.938 85.9394 98.0748 85.9394Z" fill="#291D18"/>
<path fill-rule="evenodd" clip-rule="evenodd" d="M101.244 97.0841V85.8567H100.748V97.0841H101.244ZM107.95 97.0841V85.8567H107.454V97.0841H107.95Z" fill="#291D18"/>
<path fill-rule="evenodd" clip-rule="evenodd" d="M106.608 90.9752C106.608 91.2196 106.409 91.4177 106.165 91.4177C105.921 91.4177 105.723 91.2196 105.723 90.9752C105.723 90.7308 105.921 90.5327 106.165 90.5327C106.409 90.5327 106.608 90.7308 106.608 90.9752ZM106.277 90.9752C106.277 90.9131 106.227 90.8629 106.165 90.8629C106.103 90.8629 106.053 90.9131 106.053 90.9752C106.053 91.0372 106.103 91.0874 106.165 91.0874C106.227 91.0874 106.277 91.0372 106.277 90.9752Z" fill="#291D18"/>
<path fill-rule="evenodd" clip-rule="evenodd" d="M67.0343 83.7103C67.0343 83.8927 67.1821 84.0406 67.3645 84.0406H68.1438V84.8661C68.1438 85.0485 68.2916 85.1963 68.474 85.1963H95.1028C95.2852 85.1963 95.433 85.0485 95.433 84.8661V82.5546C95.433 82.3722 95.2852 82.2244 95.1028 82.2244H67.3645C67.1821 82.2244 67.0343 82.3722 67.0343 82.5546V83.7103ZM68.8042 83.7104C68.8042 83.528 68.6564 83.3801 68.474 83.3801H67.6947V82.8848H94.7726V84.5359H68.8042V83.7104Z" fill="#291D18"/>
<path fill-rule="evenodd" clip-rule="evenodd" d="M67.0343 59.6044C67.0343 59.7868 67.1821 59.9346 67.3645 59.9346H68.1438V60.7602C68.1438 60.9425 68.2916 61.0904 68.474 61.0904H95.1028C95.2852 61.0904 95.433 60.9425 95.433 60.7602V58.4486C95.433 58.2663 95.2852 58.1184 95.1028 58.1184H67.3645C67.1821 58.1184 67.0343 58.2663 67.0343 58.4486V59.6044ZM68.8042 59.6044C68.8042 59.422 68.6564 59.2742 68.474 59.2742H67.6947V58.7788H94.7726V60.4299H68.8042V59.6044Z" fill="#291D18"/>
<path d="M93.6829 33.8476C93.6829 33.6652 93.535 33.5173 93.3526 33.5173H93.1215V33.022H104.019C104.201 33.022 104.349 32.8742 104.349 32.6918C104.349 32.5094 104.201 32.3616 104.019 32.3616H92.7913C92.6089 32.3616 92.4611 32.5094 92.4611 32.6918V33.8476C92.4611 34.0299 92.6089 34.1778 92.7913 34.1778H93.0224V35.0033C93.0224 35.1857 93.1703 35.3335 93.3526 35.3335H98.1102C98.2926 35.3335 98.4404 35.1857 98.4404 35.0033C98.4404 34.8209 98.2926 34.6731 98.1102 34.6731H93.6829V33.8476Z" fill="#291D18"/>
<path d="M114.024 33.8476C114.024 33.6652 114.171 33.5173 114.354 33.5173H114.586V33.022H103.674C103.491 33.022 103.344 32.8742 103.344 32.6918C103.344 32.5094 103.491 32.3616 103.674 32.3616H114.916C115.098 32.3616 115.246 32.5094 115.246 32.6918V33.8476C115.246 34.0299 115.098 34.1778 114.916 34.1778H114.684V35.0033C114.684 35.1857 114.536 35.3335 114.354 35.3335H99.3956C99.2133 35.3335 99.0654 35.1857 99.0654 35.0033C99.0654 34.8209 99.2133 34.6731 99.3956 34.6731H114.024V33.8476Z" fill="#291D18"/>
<path fill-rule="evenodd" clip-rule="evenodd" d="M73.3084 63.1543C73.1716 63.1543 73.0607 63.2652 73.0607 63.402V79.9129C73.0607 80.0496 73.1716 80.1605 73.3084 80.1605H81.2336C81.3704 80.1605 81.4813 80.0496 81.4813 79.9129V63.402C81.4813 63.2652 81.3704 63.1543 81.2336 63.1543H73.3084ZM73.5561 79.6652V63.6496H80.986V79.6652H73.5561Z" fill="#291D18"/>
<path fill-rule="evenodd" clip-rule="evenodd" d="M84.2056 63.1543C84.0688 63.1543 83.9579 63.2652 83.9579 63.402V79.9129C83.9579 80.0496 84.0688 80.1605 84.2056 80.1605H92.1308C92.2676 80.1605 92.3785 80.0496 92.3785 79.9129V63.402C92.3785 63.2652 92.2676 63.1543 92.1308 63.1543H84.2056ZM84.4533 79.6652V63.6496H91.8832V79.6652H84.4533Z" fill="#291D18"/>
<path d="M75.2897 45.3524H90.4797C90.6329 45.3524 90.7571 45.2282 90.7571 45.075C90.7571 44.9218 90.6329 44.7976 90.4797 44.7976H75.2897C75.1365 44.7976 75.0123 44.9218 75.0123 45.075C75.0123 45.2282 75.1365 45.3524 75.2897 45.3524Z" fill="#291D18"/>
<path d="M73.3084 69.0983H79.64C79.7768 69.0983 79.8877 68.9875 79.8877 68.8507C79.8877 68.7139 79.7768 68.603 79.64 68.603H73.3084C73.1716 68.603 73.0607 68.7139 73.0607 68.8507C73.0607 68.9875 73.1716 69.0983 73.3084 69.0983Z" fill="#291D18"/>
<path d="M84.2056 69.0983H90.2596C90.3964 69.0983 90.5073 68.9875 90.5073 68.8507C90.5073 68.7139 90.3964 68.603 90.2596 68.603H84.2056C84.0688 68.603 83.9579 68.7139 83.9579 68.8507C83.9579 68.9875 84.0688 69.0983 84.2056 69.0983Z" fill="#291D18"/>
<path fill-rule="evenodd" clip-rule="evenodd" d="M73.3084 87.9207C73.1716 87.9207 73.0607 88.0315 73.0607 88.1683V103.358C73.0607 103.495 73.1716 103.606 73.3084 103.606H91.4704C91.6072 103.606 91.7181 103.495 91.7181 103.358V88.1683C91.7181 88.0315 91.6072 87.9207 91.4704 87.9207H73.3084ZM73.5561 103.111V88.416H91.2227V103.111H73.5561Z" fill="#291D18"/>
<path d="M81.2336 101.294H83.8754C84.0121 101.294 84.123 101.184 84.123 101.047C84.123 100.91 84.0121 100.799 83.8754 100.799H81.2336C81.0968 100.799 80.986 100.91 80.986 101.047C80.986 101.184 81.0968 101.294 81.2336 101.294Z" fill="#291D18"/>
<path fill-rule="evenodd" clip-rule="evenodd" d="M73.3084 39.3787C73.1716 39.3787 73.0607 39.4895 73.0607 39.6263V55.1466C73.0607 55.2834 73.1716 55.3942 73.3084 55.3942H91.4704C91.6072 55.3942 91.7181 55.2834 91.7181 55.1466V39.6263C91.7181 39.4895 91.6072 39.3787 91.4704 39.3787H73.3084ZM73.5561 54.8989V39.874H91.2227V54.8989H73.5561Z" fill="#291D18"/>
<path d="M73.3084 45.3225H89.8193C89.9561 45.3225 90.067 45.2116 90.067 45.0748C90.067 44.938 89.9561 44.8271 89.8193 44.8271H73.3084C73.1716 44.8271 73.0607 44.938 73.0607 45.0748C73.0607 45.2116 73.1716 45.3225 73.3084 45.3225Z" fill="#291D18"/>
<path fill-rule="evenodd" clip-rule="evenodd" d="M92.5832 32.5082C92.4253 32.6873 92.5525 32.969 92.7913 32.969H114.916C115.155 32.969 115.282 32.6873 115.124 32.5082L104.062 19.9599C103.951 19.8346 103.756 19.8346 103.646 19.9599L92.5832 32.5082ZM103.854 20.5628L114.302 32.4143H93.4056L103.854 20.5628Z" fill="#291D18"/>
<path fill-rule="evenodd" clip-rule="evenodd" d="M104.101 19.9251L115.164 32.4734C115.352 32.6866 115.2 33.022 114.916 33.022H92.7913C92.507 33.022 92.3556 32.6866 92.5436 32.4734L103.606 19.9251C103.737 19.776 103.97 19.776 104.101 19.9251ZM103.854 20.6426L93.5227 32.361L114.185 32.3614L103.854 20.6426ZM103.606 24.2898L97.9802 30.6712L97.9548 30.704C97.8624 30.8396 97.8833 31.026 98.0095 31.1373L98.0423 31.1627C98.1779 31.2551 98.3643 31.2342 98.4756 31.108L103.854 25.0077L109.185 31.0555L109.215 31.0849C109.338 31.1935 109.525 31.1962 109.651 31.0848C109.788 30.9642 109.801 30.7556 109.681 30.6188L104.101 24.2898L104.072 24.2602C103.937 24.1415 103.728 24.1514 103.606 24.2898Z" fill="#291D18"/>
<path d="M4.62306 103.854H135.389C135.572 103.854 135.72 103.706 135.72 103.524C135.72 103.341 135.572 103.193 135.389 103.193H4.62306C4.44069 103.193 4.29285 103.341 4.29285 103.524C4.29285 103.706 4.44069 103.854 4.62306 103.854Z" fill="#291D18"/>
<path fill-rule="evenodd" clip-rule="evenodd" d="M119.209 93.2041H118.548C118.047 93.2041 117.64 93.6107 117.64 94.1122V103.358C117.64 103.495 117.751 103.606 117.888 103.606H119.869C120.006 103.606 120.117 103.495 120.117 103.358V94.1122C120.117 93.6107 119.71 93.2041 119.209 93.2041ZM119.622 94.1122V103.111H118.136V94.1122C118.136 93.8842 118.32 93.6994 118.548 93.6994H119.209C119.437 93.6994 119.622 93.8842 119.622 94.1122Z" fill="#291D18"/>
<path fill-rule="evenodd" clip-rule="evenodd" d="M119.787 93.6995V65.4658H117.97V93.6995H119.787ZM118.466 93.2041V65.9612H119.291V93.2041H118.466Z" fill="#291D18"/>
<path d="M116.319 63.4019C116.319 64.8153 117.465 65.961 118.879 65.961C120.292 65.961 121.438 64.8153 121.438 63.4019H120.942C120.942 64.5417 120.018 65.4657 118.879 65.4657C117.739 65.4657 116.815 64.5417 116.815 63.4019H116.319Z" fill="#291D18"/>
<path d="M115.741 63.7322H121.976C122.158 63.7322 122.306 63.5844 122.306 63.402C122.306 63.2196 122.158 63.0718 121.976 63.0718H115.741C115.559 63.0718 115.411 63.2196 115.411 63.402C115.411 63.5844 115.559 63.7322 115.741 63.7322Z" fill="#291D18"/>
<path fill-rule="evenodd" clip-rule="evenodd" d="M35.8169 79.8303H29.3894C29.2526 79.8303 29.1417 79.7194 29.1417 79.5826C29.1417 79.4458 29.2526 79.335 29.3894 79.335H35.8169C35.9537 79.335 36.0646 79.4458 36.0646 79.5826C36.0646 79.7194 35.9537 79.8303 35.8169 79.8303ZM27.7383 92.0484V99.0655H31.3153C31.8248 97.8992 32.9886 97.0842 34.3427 97.0842C35.6968 97.0842 36.8605 97.8992 37.3701 99.0655H47.2212V83.8755C47.2212 82.5988 46.1863 81.5639 44.9097 81.5639H27.7383V88.2508H28.729C28.8658 88.2508 28.9766 88.3617 28.9766 88.4985V89.9019V90.3973V91.8007C28.9766 91.9375 28.8658 92.0484 28.729 92.0484H27.7383ZM28.4813 89.9019V88.7462H27.7383V89.9019H28.4813ZM27.7383 90.3973H28.4813V91.553H27.7383V90.3973ZM37.5788 99.7259H47.2212H47.5514H49.5988C49.5554 99.9393 49.5327 100.16 49.5327 100.386C49.5327 102.21 51.0111 103.689 52.8349 103.689C54.6586 103.689 56.1371 102.21 56.1371 100.386C56.1371 100.16 56.1143 99.9393 56.071 99.7259H58.7788H59.109H60.0997C60.2821 99.7259 60.4299 99.5781 60.4299 99.3957V98.0748C60.4299 97.5277 59.9864 97.0842 59.4393 97.0842H59.109V95.4331V89.1589C59.109 85.8762 56.4478 83.215 53.1651 83.215H47.808C47.5077 81.8915 46.324 80.9035 44.9097 80.9035H27.4081C27.2257 80.9035 27.0779 81.0513 27.0779 81.2337V99.3957C27.0779 99.5781 27.2257 99.7259 27.4081 99.7259H31.1066C31.0632 99.9393 31.0405 100.16 31.0405 100.386C31.0405 102.21 32.5189 103.689 34.3427 103.689C36.1664 103.689 37.6449 102.21 37.6449 100.386C37.6449 100.16 37.6221 99.9393 37.5788 99.7259ZM58.4486 97.7446V99.0655H55.8623C55.3527 97.8992 54.189 97.0842 52.8349 97.0842C51.4808 97.0842 50.317 97.8992 49.8075 99.0655H47.8816L47.8816 83.8755L53.1651 83.8754C56.0831 83.8754 58.4486 86.2409 58.4486 89.1589V95.1029H57.7882C57.6058 95.1029 57.4579 95.2507 57.4579 95.4331V97.4144C57.4579 97.5968 57.6058 97.7446 57.7882 97.7446H58.4486ZM59.7695 99.0655H59.109V97.7446H59.4393C59.6216 97.7446 59.7695 97.8925 59.7695 98.0748V99.0655ZM58.4486 95.7633V97.0842H58.1184V95.7633H58.4486ZM50.1931 100.386C50.1931 101.845 51.3759 103.028 52.8349 103.028C54.2939 103.028 55.4766 101.845 55.4766 100.386C55.4766 98.9274 54.2939 97.7446 52.8349 97.7446C51.3759 97.7446 50.1931 98.9274 50.1931 100.386ZM52.8349 95.8459C54.0253 95.8459 55.1431 96.353 55.9867 97.2441C56.0807 97.3435 56.0764 97.5002 55.9771 97.5943C55.8778 97.6883 55.721 97.684 55.627 97.5847C54.8746 96.7899 53.8856 96.3412 52.8349 96.3412C52.6981 96.3412 52.5872 96.2303 52.5872 96.0935C52.5872 95.9567 52.6981 95.8459 52.8349 95.8459ZM37.4945 97.2441C36.6509 96.353 35.5331 95.8459 34.3427 95.8459C34.2059 95.8459 34.095 95.9567 34.095 96.0935C34.095 96.2303 34.2059 96.3412 34.3427 96.3412C35.3934 96.3412 36.3824 96.7899 37.1348 97.5847C37.2288 97.684 37.3856 97.6883 37.4849 97.5943C37.5842 97.5002 37.5885 97.3435 37.4945 97.2441ZM34.3427 103.028C32.8837 103.028 31.7009 101.845 31.7009 100.386C31.7009 98.9274 32.8837 97.7446 34.3427 97.7446C35.8017 97.7446 36.9844 98.9274 36.9844 100.386C36.9844 101.845 35.8017 103.028 34.3427 103.028ZM35.581 100.386C35.581 101.07 35.0266 101.625 34.3427 101.625C33.6588 101.625 33.1044 101.07 33.1044 100.386C33.1044 99.7025 33.6588 99.148 34.3427 99.148C35.0266 99.148 35.581 99.7025 35.581 100.386ZM33.5997 100.386C33.5997 100.797 33.9323 101.129 34.3427 101.129C34.753 101.129 35.0857 100.797 35.0857 100.386C35.0857 99.976 34.753 99.6434 34.3427 99.6434C33.9323 99.6434 33.5997 99.976 33.5997 100.386ZM52.8349 101.625C53.5188 101.625 54.0732 101.07 54.0732 100.386C54.0732 99.7025 53.5188 99.148 52.8349 99.148C52.151 99.148 51.5966 99.7025 51.5966 100.386C51.5966 101.07 52.151 101.625 52.8349 101.625ZM52.8349 101.129C52.4245 101.129 52.0919 100.797 52.0919 100.386C52.0919 99.976 52.4245 99.6434 52.8349 99.6434C53.2452 99.6434 53.5779 99.976 53.5779 100.386C53.5779 100.797 53.2452 101.129 52.8349 101.129ZM31.3707 87.7555H41.6075C41.7443 87.7555 41.8551 87.6446 41.8551 87.5079C41.8551 87.3711 41.7443 87.2602 41.6075 87.2602H31.3707C31.2339 87.2602 31.1231 87.3711 31.1231 87.5079C31.1231 87.6446 31.2339 87.7555 31.3707 87.7555ZM43.3411 93.6994H45.5701C45.7069 93.6994 45.8178 93.5886 45.8178 93.4518C45.8178 93.315 45.7069 93.2041 45.5701 93.2041H43.3411C43.2043 93.2041 43.0935 93.315 43.0935 93.4518C43.0935 93.5886 43.2043 93.6994 43.3411 93.6994ZM51.8442 93.8646H50.1931C50.0564 93.8646 49.9455 93.7537 49.9455 93.6169C49.9455 93.4801 50.0564 93.3692 50.1931 93.3692H51.8442C51.981 93.3692 52.0919 93.4801 52.0919 93.6169C52.0919 93.7537 51.981 93.8646 51.8442 93.8646ZM48.6246 93.2867V97.2741C48.6246 97.4109 48.7355 97.5218 48.8723 97.5218C49.0091 97.5218 49.1199 97.4109 49.1199 97.2741V93.2867C49.1199 93.1499 49.0091 93.039 48.8723 93.039C48.7355 93.039 48.6246 93.1499 48.6246 93.2867ZM53.8255 84.6184C55.9684 84.6184 57.7056 86.3556 57.7056 88.4985V92.3786H48.6246V84.6184H53.8255ZM49.1199 85.1138V91.8832H57.2103V88.4985C57.2103 86.6292 55.6949 85.1138 53.8255 85.1138H49.1199Z" fill="#291D18"/>
<path fill-rule="evenodd" clip-rule="evenodd" d="M4.39587 84.3653C4.39721 84.1885 4.4063 84.0112 4.42319 83.8338L4.44268 83.6562C4.86185 80.2883 7.96669 77.8951 11.3761 78.3081C14.7864 78.7212 17.2133 81.7858 16.7941 85.1546C16.3749 88.5225 13.2701 90.9158 9.86062 90.5028C9.14162 90.4157 8.45463 90.2091 7.82203 89.8949L7.7347 89.8501L7.69922 89.9281C7.01794 91.373 5.47287 92.2706 3.82443 92.1129L3.72541 92.1022C1.60704 91.8455 0.098822 89.941 0.359452 87.8468C0.607963 85.85 2.37444 84.4051 4.37464 84.4986L4.39652 84.4999L4.39587 84.3653ZM16.1387 85.073C16.5126 82.0689 14.346 79.333 11.2967 78.9637L11.1904 78.9518C8.18243 78.644 5.46769 80.7678 5.09806 83.7377C5.05205 84.1074 5.04405 84.4763 5.07334 84.8405L5.10685 85.2571L4.64056 85.1856L4.58706 85.1787C2.82888 84.9657 1.23018 86.198 1.01483 87.9283C0.79959 89.6578 2.04748 91.2336 3.80482 91.4465C5.34152 91.6326 6.78474 90.7099 7.24851 89.2755L7.37623 88.8804L7.73241 89.0938C8.39951 89.4934 9.14743 89.7511 9.94004 89.8471C12.9901 90.2165 15.7647 88.0779 16.1387 85.073Z" fill="#291D18"/>
<path d="M16.0156 86.8474C18.1129 86.8474 19.8131 88.5476 19.8131 90.6449C19.8131 92.7422 18.1129 94.4424 16.0156 94.4424C13.9183 94.4424 12.2181 92.7422 12.2181 90.6449C12.2181 90.4645 12.2307 90.2856 12.2556 90.1091L12.2767 89.9772L12.9269 90.0926C12.8948 90.2735 12.8785 90.4581 12.8785 90.6449C12.8785 92.3775 14.283 93.782 16.0156 93.782C17.7481 93.782 19.1527 92.3775 19.1527 90.6449C19.1527 88.9124 17.7481 87.5078 16.0156 87.5078L15.9047 87.5098L15.7943 87.5155L15.7485 86.8567C15.8371 86.8505 15.9262 86.8474 16.0156 86.8474Z" fill="#291D18"/>
<path d="M10.4844 86.8092V103.485C10.4844 103.621 10.5953 103.732 10.7321 103.732C10.8689 103.732 10.9798 103.621 10.9798 103.485V86.8092C10.9798 86.6724 10.8689 86.5615 10.7321 86.5615C10.5953 86.5615 10.4844 86.6724 10.4844 86.8092Z" fill="#291D18"/>
<path d="M4.17286 90.0187C4.10057 89.9026 3.94784 89.867 3.83172 89.9393C3.7156 90.0116 3.68006 90.1643 3.75235 90.2804L6.27039 94.3256C6.30912 94.3878 6.37341 94.4297 6.44597 94.4399L10.5323 95.0178C10.6677 95.037 10.793 94.9427 10.8122 94.8073C10.8313 94.6718 10.7371 94.5465 10.6016 94.5274L6.62981 93.9657L4.17286 90.0187Z" fill="#291D18"/>
<path d="M11.0723 97.2595L15.6954 92.6364C15.7921 92.5397 15.7921 92.3829 15.6954 92.2862C15.5987 92.1894 15.4418 92.1894 15.3451 92.2862L10.7221 96.9092C10.6254 97.0059 10.6254 97.1627 10.7221 97.2595C10.8188 97.3562 10.9756 97.3562 11.0723 97.2595Z" fill="#291D18"/>
</svg>
