<?xml version="1.0" encoding="utf-8"?>
<svg version="1.1" id="Layer_1" xmlns="http://www.w3.org/2000/svg" xmlns:xlink="http://www.w3.org/1999/xlink" x="0px" y="0px"
	 viewBox="0 0 29 29" style="enable-background:new 0 0 29 29;" xml:space="preserve">
<style type="text/css">
	.st0{fill-rule:evenodd;clip-rule:evenodd;fill:#001428;}
	.st1{fill:rgb(255, 86, 48);}
</style>
<path class="st0" d="M14.5,2c-2.4,0-4.6,0.1-6.6,0.3L7.1,2.4H6.3L5.7,2.5L5.3,2.6C3.9,2.7,2.8,3.8,2.6,5.2v0.3L2.5,6.1L2.4,6.8
	L2.3,7.5c0,0.1,0,0.3,0,0.4C2.2,9.6,2.1,11.3,2,13.1v1.1v0.3c0,2.2,0.1,4.4,0.3,6.4l0.1,0.8l0.1,0.8v0.6l0.1,0.5
	c0.2,1.4,1.2,2.5,2.6,2.8l0.6,0.1h0.4c0.9,0.1,1.9,0.2,3,0.3l1.1,0.1C11.6,27,13,27,14.5,27c2,0,3.9-0.1,5.7-0.2l1-0.1l0.8-0.1
	l0.7-0.1h0.4l0.6-0.1c1.4-0.2,2.5-1.2,2.7-2.6v-0.2l0,0l0.2-1.5l0.1-0.8v-0.4c0.2-2.1,0.3-4.3,0.3-6.4c0-2.2-0.1-4.4-0.3-6.4
	l-0.1-0.8l-0.1-1.2l-0.1-0.7l0,0c-0.2-1.4-1.2-2.5-2.6-2.8l-0.3-0.1h-0.6l-0.7-0.1l-0.5-0.1l-0.6-0.1c-1.6-0.1-3.4-0.2-5.4-0.3h-0.8
	L14.5,2z"/>
<path class="st1" d="M14.5,28.8c-3.9,0-6.9-0.3-8.4-0.5c-0.6-0.1-0.9-0.1-0.9-0.1c-1.1-0.1-2.2-0.6-3-1.5c-0.8-0.8-1.3-1.9-1.5-3
	v-0.2c-0.1-0.8-0.5-4.5-0.5-9c0-4.4,0.3-7.9,0.4-8.6V5.7C1,4.1,1.5,3.1,2.3,2.3s1.9-1.3,3-1.5c0.4-0.1,4-0.6,9.2-0.6l0,0
	c5.4,0,8.8,0.5,9.2,0.6c1.1,0.1,2.2,0.6,3,1.5c0.8,0.8,1.3,1.9,1.5,3c0.1,0.7,0.6,4.6,0.6,9.2c0,5-0.6,9.1-0.6,9.2
	c-0.1,1.2-0.6,2.2-1.5,3c-0.8,0.8-1.9,1.3-3,1.5C23.1,28.3,19.5,28.8,14.5,28.8z M14.5,2.3c-5.1,0-8.6,0.5-8.9,0.6
	c-0.8,0-1.4,0.3-1.9,0.8S2.9,4.9,2.7,6c-0.1,0.7-0.4,4.2-0.4,8.5c0,4.4,0.4,8,0.5,8.7v0.2l0,0c0.1,0.7,0.4,1.3,0.9,1.8
	s1.1,0.8,1.8,0.9c0,0,0.3,0,0.8,0.1c1.4,0.2,4.3,0.5,8.1,0.5c4.9,0,8.3-0.5,9-0.6s1.3-0.4,1.8-0.9s0.8-1.1,0.9-1.9
	c0-0.1,0.6-4.1,0.6-8.9c0-4.4-0.5-8.2-0.5-8.9c-0.1-0.7-0.4-1.4-0.9-1.9s-1.1-0.8-1.8-0.9C23,2.8,19.7,2.3,14.5,2.3z"/>
</svg>
