<?xml version="1.0" encoding="UTF-8"?>
<svg version="1.1" viewBox="0 0 96 82" xmlns="http://www.w3.org/2000/svg">
	<g fill="none" fill-rule="evenodd">
		<g transform="translate(-836 -446)">
			<g transform="translate(836 446)">
				<path d="m44.106 68.362c15.135 3.9594 27.767 0.74045 37.894-9.6569v-6.3676c0-17.86-14.495-32.338-32.375-32.338-17.88 0-27.384 9.9383-30.947 24.948l-2.4228 11.335c-0.16457 0.7699 0.13787 1.5647 0.7726 2.0305 4.1858 3.0716 13.212 6.4211 27.078 10.048z" stroke="#979797" stroke-linejoin="round" />
				<path d="m56 28.153c-1.1585-0.46219-2.3469-0.84973-3.5593-1.1629-2.5595-0.66107-5.2259-0.99051-7.9436-0.99051-16.662 0-24.367 13.327-28.497 32" stroke="#979797" stroke-linecap="round" stroke-linejoin="round" />
				<path d="m77 63c0-17.762-7.5712-29.035-18-34" stroke="#979797" stroke-linecap="round" stroke-linejoin="round" />
				<path d="m16 58c2.7677 7.0981 16.101 13.765 40 20" stroke="#979797" stroke-linecap="round" stroke-linejoin="round" />
				<path d="m56 77.889l12.754 2.8428c4.4973 0.78694 8.089-0.16067 10.775-2.8428 2.6862-2.6822 7.1119-6.6914 13.277-12.028 2.9248-3.0726 2.9248-5.6652 0-7.778-2.9248-2.1128-5.6664-3.8074-8.2248-5.0837" stroke="#979797" stroke-linecap="round" />
				<g fill="#239A98">
					<ellipse cx="91.093" cy="42.089" rx="1" ry="1" />
					<ellipse cx="83.837" cy="14.733" rx="1" ry="1" />
					<ellipse cx="37.186" cy="38.911" rx="1" ry="1" />
					<ellipse cx="45.186" cy=".91111" rx="1" ry="1" />
					<ellipse cx="61.884" cy="10.489" rx="1.814" ry="1.8222" />
					<ellipse cx="21.36" cy="21.944" rx="1.3605" ry="1.3667" />
					<ellipse cx="2.2209" cy="43.411" rx="1.3605" ry="1.3667" />
				</g>
			</g>
		</g>
	</g>
</svg>