<svg width="160" height="161" viewBox="0 0 160 161" fill="none" xmlns="http://www.w3.org/2000/svg">
<circle cx="82.7802" cy="83.2857" r="43.2198" fill="#E5CFC7"/>
<mask id="mask0_419_22676" style="mask-type:luminance" maskUnits="userSpaceOnUse" x="34" y="34" width="88" height="88">
<circle cx="77.978" cy="77.978" r="43.4725" fill="white"/>
</mask>
<g mask="url(#mask0_419_22676)">
<path d="M77.978 86.0526C91.7027 86.0526 102.855 97.0674 103.076 110.739L103.08 111.154V127.676H64.8219C64.5427 127.676 64.3164 127.45 64.3164 127.171C64.3164 126.911 64.5115 126.698 64.7629 126.669L64.8219 126.665L102.068 126.665L102.069 111.154C102.069 97.9825 91.4976 87.2796 78.3764 87.0668L77.978 87.0636C64.8061 87.0636 54.1032 97.6348 53.8904 110.756L53.8872 111.154L53.8872 126.665L59.6738 126.665C59.933 126.665 60.1467 126.86 60.1759 127.112L60.1793 127.171C60.1793 127.43 59.9841 127.643 59.7327 127.673L59.6738 127.676H52.8762V111.154C52.8762 97.2911 64.1147 86.0526 77.978 86.0526Z" fill="#291D18"/>
</g>
<path d="M77.978 51.7323C87.7345 51.7323 95.6437 59.6415 95.6437 69.398C95.6437 79.1545 87.7345 87.0637 77.978 87.0637C72.9309 87.0637 68.225 84.9351 64.8976 81.2718C64.7099 81.0651 64.7253 80.7454 64.932 80.5577C65.1386 80.37 65.4583 80.3854 65.646 80.592C68.7837 84.0466 73.2189 86.0527 77.978 86.0527C87.1761 86.0527 94.6327 78.5961 94.6327 69.398C94.6327 60.1999 87.1761 52.7433 77.978 52.7433C68.7798 52.7433 61.3232 60.1999 61.3232 69.398C61.3232 72.1608 61.9963 74.8254 63.2653 77.2102C63.3965 77.4567 63.303 77.7628 63.0565 77.894C62.8101 78.0251 62.504 77.9316 62.3728 77.6852C61.0264 75.155 60.3123 72.3274 60.3123 69.398C60.3123 59.6415 68.2215 51.7323 77.978 51.7323Z" fill="#291D18"/>
<path d="M55.0978 96.3156C55.2374 96.3156 55.3505 96.4291 55.3505 96.5693C55.3505 96.6938 55.2611 96.7974 55.1432 96.8189L55.0978 96.823H38.7453C38.6057 96.823 38.4926 96.7094 38.4926 96.5693C38.4926 96.4447 38.582 96.3411 38.6999 96.3196L38.7453 96.3156H55.0978Z" fill="#291D18"/>
<path d="M117.204 96.3156C117.344 96.3156 117.457 96.4291 117.457 96.5693C117.457 96.6938 117.367 96.7974 117.249 96.8189L117.204 96.823H100.858C100.719 96.823 100.605 96.7094 100.605 96.5693C100.605 96.4447 100.695 96.3411 100.813 96.3196L100.858 96.3156L117.204 96.3156Z" fill="#291D18"/>
<path d="M77.978 34C86.1415 34 93.9788 36.2282 100.802 40.3792C101.041 40.5243 101.117 40.8353 100.972 41.0738C100.826 41.3123 100.516 41.388 100.277 41.2429C93.6106 37.1875 85.9548 35.011 77.978 35.011C54.248 35.011 35.011 54.248 35.011 77.978C35.011 101.708 54.248 120.945 77.978 120.945C101.708 120.945 120.945 101.708 120.945 77.978C120.945 67.1421 116.919 56.9354 109.776 49.0804C109.588 48.8739 109.604 48.5542 109.81 48.3664C110.017 48.1785 110.336 48.1937 110.524 48.4003C117.834 56.4396 121.956 66.8881 121.956 77.978C121.956 102.266 102.266 121.956 77.978 121.956C53.6896 121.956 34 102.266 34 77.978C34 53.6896 53.6896 34 77.978 34Z" fill="#291D18"/>
</svg>
