<svg width="108" height="86" viewBox="0 0 108 86" fill="none" xmlns="http://www.w3.org/2000/svg">
<path d="M23.0116 20.5439C22.5198 19.5548 22.9229 18.3544 23.9119 17.8625L53.1378 3.32923C54.1268 2.83741 55.3273 3.24048 55.8191 4.22951L69.7047 32.1529C70.1965 33.1419 69.7934 34.3424 68.8044 34.8342L39.5785 49.3675C38.5895 49.8593 37.389 49.4562 36.8972 48.4672L23.0116 20.5439Z" fill="#E5CFC7"/>
<path d="M68.2822 40.4856C67.2785 40.0244 66.8387 38.8369 67.2999 37.8332L77.0946 16.5185C77.5558 15.5148 78.7433 15.0751 79.747 15.5363L88.6 19.6044C89.6037 20.0656 90.0434 21.2532 89.5822 22.2568L79.7875 43.5716C79.3263 44.5752 78.1388 45.015 77.1351 44.5538L68.2822 40.4856Z" fill="#E5CFC7"/>
<path fill-rule="evenodd" clip-rule="evenodd" d="M21.5 36.5001C21.5 36.224 21.7239 36.0001 22 36.0001H86C86.2761 36.0001 86.5 36.224 86.5 36.5001V84.5001H85.5V37.0001H22.5V84.5001H21.5V36.5001Z" fill="#291D18"/>
<path fill-rule="evenodd" clip-rule="evenodd" d="M56.5 65.5001C56.5 65.224 56.7239 65.0001 57 65.0001H78C78.2761 65.0001 78.5 65.224 78.5 65.5001V75.5001C78.5 75.7763 78.2761 76.0001 78 76.0001H57C56.7239 76.0001 56.5 75.7763 56.5 75.5001V65.5001ZM57.5 66.0001V75.0001H77.5V66.0001H57.5Z" fill="#291D18"/>
<path fill-rule="evenodd" clip-rule="evenodd" d="M22.3536 36.1466C22.5488 36.3418 22.5488 36.6584 22.3536 36.8537L4.35355 54.8537C4.15829 55.0489 3.84171 55.0489 3.64645 54.8537C3.45118 54.6584 3.45118 54.3418 3.64645 54.1466L21.6464 36.1466C21.8417 35.9513 22.1583 35.9513 22.3536 36.1466Z" fill="#291D18"/>
<path fill-rule="evenodd" clip-rule="evenodd" d="M104.354 54.8537C104.158 55.0489 103.842 55.0489 103.646 54.8537L85.6464 36.8537C85.4512 36.6584 85.4512 36.3418 85.6464 36.1466C85.8417 35.9513 86.1583 35.9513 86.3536 36.1466L104.354 54.1466C104.549 54.3418 104.549 54.6584 104.354 54.8537Z" fill="#291D18"/>
<path fill-rule="evenodd" clip-rule="evenodd" d="M11.5 84.5001C11.5 84.224 11.7239 84.0001 12 84.0001H101.442C101.718 84.0001 101.942 84.224 101.942 84.5001C101.942 84.7763 101.718 85.0001 101.442 85.0001H12C11.7239 85.0001 11.5 84.7763 11.5 84.5001Z" fill="#291D18"/>
<path fill-rule="evenodd" clip-rule="evenodd" d="M105.5 84.5001C105.5 84.224 105.724 84.0001 106 84.0001H107.442C107.718 84.0001 107.942 84.224 107.942 84.5001C107.942 84.7763 107.718 85.0001 107.442 85.0001H106C105.724 85.0001 105.5 84.7763 105.5 84.5001Z" fill="#291D18"/>
<path fill-rule="evenodd" clip-rule="evenodd" d="M0.5 84.5001C0.5 84.224 0.723858 84.0001 1 84.0001H7.44223C7.71837 84.0001 7.94223 84.224 7.94223 84.5001C7.94223 84.7763 7.71837 85.0001 7.44223 85.0001H1C0.723858 85.0001 0.5 84.7763 0.5 84.5001Z" fill="#291D18"/>
<path fill-rule="evenodd" clip-rule="evenodd" d="M18.4432 18.7255C17.8284 17.4892 18.3323 15.9886 19.5686 15.3739L38.7369 5.84232C38.9842 5.71937 39.2843 5.82014 39.4072 6.0674C39.5302 6.31466 39.4294 6.61478 39.1821 6.73773L20.0138 16.2693C19.2721 16.6381 18.9697 17.5385 19.3386 18.2803L27.9062 35.51C28.0292 35.7573 27.9284 36.0574 27.6811 36.1803C27.4339 36.3033 27.1337 36.2025 27.0108 35.9553L18.4432 18.7255ZM43.1694 4.19663C43.0465 3.94937 43.1472 3.64926 43.3945 3.52631L48.59 0.942784C49.8263 0.328026 51.3269 0.831885 51.9417 2.06819L65.7938 29.9252C66.4085 31.1615 65.9047 32.6621 64.6684 33.2769L58.5516 36.3185C58.3044 36.4414 58.0043 36.3406 57.8813 36.0934C57.7584 35.8461 57.8591 35.546 58.1064 35.423L64.2231 32.3815C64.9649 32.0126 65.2672 31.1123 64.8984 30.3705L51.0463 2.51343C50.6774 1.77165 49.7771 1.46934 49.0353 1.83819L43.8397 4.42172C43.5925 4.54467 43.2924 4.44389 43.1694 4.19663Z" fill="#291D18"/>
<path fill-rule="evenodd" clip-rule="evenodd" d="M27.16 21.6525C26.5452 20.4162 27.0491 18.9156 28.2854 18.3008L45.6629 9.65976C46.8992 9.045 48.3998 9.54886 49.0145 10.7852L57.0766 26.9982C57.6913 28.2345 57.1875 29.7351 55.9512 30.3499L43.7693 36.4074C43.522 36.5304 43.2219 36.4296 43.0989 36.1823C42.976 35.9351 43.0767 35.635 43.324 35.512L55.5059 29.4545C56.2477 29.0856 56.55 28.1853 56.1812 27.4435L48.1191 11.2304C47.7503 10.4886 46.8499 10.1863 46.1081 10.5552L28.7306 19.1962C27.9889 19.5651 27.6865 20.4654 28.0554 21.2072L35.2805 35.7371C35.4034 35.9844 35.3027 36.2845 35.0554 36.4074C34.8081 36.5304 34.508 36.4296 34.3851 36.1823L27.16 21.6525Z" fill="#291D18"/>
<path fill-rule="evenodd" clip-rule="evenodd" d="M65.2922 32.316C65.0413 32.2007 64.9313 31.9039 65.0466 31.6529L73.5661 13.1094C74.1425 11.8547 75.6268 11.3049 76.8815 11.8813L85.9683 16.0561C87.223 16.6325 87.7728 18.1169 87.1964 19.3715L79.6903 35.7094C79.575 35.9603 79.2782 36.0702 79.0272 35.955C78.7763 35.8397 78.6663 35.5428 78.7816 35.2919L86.2877 18.954C86.6335 18.2012 86.3037 17.3106 85.5509 16.9648L76.464 12.79C75.7112 12.4442 74.8206 12.774 74.4747 13.5268L65.9553 32.0704C65.84 32.3213 65.5432 32.4313 65.2922 32.316Z" fill="#291D18"/>
<path fill-rule="evenodd" clip-rule="evenodd" d="M67.7692 34.1068C67.017 33.7613 66.6874 32.8713 67.0329 32.1192L74.5485 15.7606C74.8941 15.0084 75.784 14.6788 76.5362 15.0244C77.2884 15.37 77.618 16.2599 77.2724 17.0121L69.7569 33.3706C69.4113 34.1228 68.5214 34.4524 67.7692 34.1068ZM67.9416 32.5366C67.8266 32.787 67.9363 33.0831 68.1867 33.1981C68.437 33.3132 68.7332 33.2034 68.8482 32.9531L76.3637 16.5946C76.4787 16.3443 76.369 16.0481 76.1187 15.9331C75.8684 15.8181 75.5722 15.9278 75.4572 16.1781L67.9416 32.5366Z" fill="#291D18"/>
<path d="M23 37H85V54H23V37Z" fill="white"/>
</svg>
