<svg width="16" height="16" viewBox="0 0 16 16" fill="none" xmlns="http://www.w3.org/2000/svg">
<path d="M5.41822 7.0404C4.78839 7.0404 4.28178 7.38969 4.28178 8.17629C4.28178 8.94529 4.78839 9.3122 5.41822 9.3122C6.04586 9.3122 6.55358 8.94529 6.55358 8.17629C6.55358 7.38969 6.04586 7.0404 5.41822 7.0404ZM5.41822 8.77202C5.13658 8.77202 4.9259 8.55804 4.9259 8.17629C4.9259 7.76098 5.13658 7.57947 5.41822 7.57947C5.69821 7.57947 5.90944 7.76098 5.90944 8.17629C5.90944 8.55804 5.69821 8.77202 5.41822 8.77202ZM9.51132 7.0602C9.51132 7.07175 9.52067 7.0811 9.53223 7.0811H10.0102C10.0482 7.0811 10.079 7.11245 10.079 7.1493V7.56296C10.079 7.57506 10.0696 7.58441 10.0581 7.58441H9.53223C9.52067 7.58441 9.51132 7.59376 9.51132 7.60533V8.40843C9.51132 8.71647 9.62793 8.80778 9.82267 8.80778C9.91398 8.80778 10.0575 8.75167 10.0784 8.75167C10.09 8.75167 10.0999 8.76102 10.0999 8.77257V9.16864C10.0999 9.19833 10.0828 9.21924 10.0641 9.22913C9.97724 9.2759 9.83147 9.30779 9.61583 9.30779C9.23904 9.30779 8.88919 9.11803 8.88919 8.51239V7.11575C8.88919 6.99198 8.93759 6.87428 9.01405 6.79066C9.11582 6.67845 9.44311 6.46831 9.48548 6.46831C9.50363 6.46831 9.51132 6.47382 9.51132 6.49086V7.0602ZM1.91151 7.15151C1.91151 7.11245 1.94286 7.08165 1.98191 7.08165H2.81033C3.62388 7.08165 4.04525 7.57012 4.04525 8.20214C4.04525 8.83474 3.57382 9.2726 2.79713 9.2726H2.5551C2.54354 9.2726 2.53363 9.28195 2.53363 9.29405V10.3188C2.53363 10.3359 2.5265 10.3414 2.50779 10.3414C2.46543 10.3414 2.13814 10.1313 2.03637 10.019C1.9599 9.93487 1.91151 9.81717 1.91151 9.69395V7.15151ZM3.43081 8.17024C3.43081 7.90126 3.25699 7.64933 2.79768 7.64933H2.55399C2.54245 7.64933 2.5331 7.65868 2.5331 7.67078V8.68181C2.5331 8.69336 2.54245 8.70326 2.55399 8.70326H2.80978C3.3571 8.70326 3.43081 8.32317 3.43081 8.17024ZM8.56904 8.5971C8.56904 9.0586 8.23736 9.3122 7.59047 9.3122C7.22026 9.3122 6.82916 9.18238 6.82586 9.18129C6.79672 9.17028 6.77746 9.14387 6.77746 9.11362V8.68347C6.77746 8.66916 6.78956 8.65817 6.80441 8.65817C6.80662 8.65817 6.81267 8.65926 6.81322 8.65981C6.95129 8.70437 7.39905 8.81549 7.63722 8.81549C7.77804 8.81549 7.85175 8.79457 7.89906 8.74727C7.93152 8.71482 7.94637 8.68017 7.94637 8.63836C7.94637 8.49755 7.76979 8.45848 7.59871 8.42108C7.57726 8.41667 7.58661 8.41889 7.52885 8.40513C7.15425 8.31656 6.75931 8.22525 6.75931 7.74284C6.75931 7.52886 6.84896 7.35118 7.01674 7.22796C7.18397 7.10474 7.42544 7.0404 7.71478 7.0404C7.97497 7.0404 8.28356 7.12621 8.38697 7.15921C8.41943 7.16966 8.43813 7.19827 8.43813 7.22743V7.65647C8.43703 7.67628 8.41613 7.68563 8.40182 7.68013C8.10534 7.56901 7.83416 7.52997 7.63942 7.52997C7.48485 7.52997 7.38474 7.59706 7.38474 7.70103C7.38474 7.82094 7.53106 7.8534 7.71644 7.89521C7.73899 7.90016 7.84021 7.92327 7.8666 7.92876C8.01842 7.96231 8.17519 7.99643 8.30392 8.08059C8.48214 8.1972 8.56904 8.36607 8.56904 8.5971ZM11.9228 9.26489C11.9157 9.26489 11.9096 9.25884 11.9096 9.25168V7.94636C11.9096 7.65647 11.8112 7.53272 11.5802 7.53272C11.4976 7.53272 11.3981 7.56352 11.2991 7.61962C11.2006 7.67683 11.1236 7.72414 11.0961 7.74064C11.0884 7.74559 11.0801 7.75879 11.0801 7.76925V9.25224C11.0801 9.25939 11.0741 9.26544 11.0669 9.26544H10.485C10.4778 9.26544 10.4712 9.25939 10.4712 9.25224V7.15205C10.4712 7.11795 10.4993 7.0899 10.5339 7.0899H11.0675C11.0746 7.0899 11.0812 7.09595 11.0812 7.1031V7.26813C11.0812 7.27802 11.0895 7.28628 11.0994 7.28628C11.1032 7.28628 11.1082 7.28408 11.1098 7.28298L11.1274 7.26977C11.1923 7.21972 11.2925 7.16306 11.3596 7.1372C11.5053 7.08165 11.6627 7.04919 11.7903 7.04919C12.2661 7.04919 12.5175 7.32257 12.5175 7.83909V9.25113C12.5175 9.25884 12.5114 9.26434 12.5037 9.26434L11.9228 9.26489ZM12.9977 9.26489C12.9905 9.26489 12.9845 9.25884 12.9845 9.25168V6.03541C12.9845 6.02385 12.9867 6.02055 13.0026 6.02055C13.0389 6.02055 13.3635 6.22464 13.4686 6.34015C13.5467 6.42596 13.5912 6.54258 13.5912 6.66028V9.25168C13.5912 9.25884 13.5852 9.26489 13.578 9.26489H12.9977ZM5.41767 3.6745C5.40668 3.6745 5.39622 3.6778 5.38357 3.68549C5.28565 3.7592 5.1993 3.84447 5.12448 3.94019C5.10248 3.96494 5.10248 3.99354 5.12559 4.02324C5.19654 4.1151 5.27796 4.19706 5.36706 4.26692C5.38357 4.28013 5.40008 4.28618 5.41712 4.28618C5.43418 4.28618 5.45068 4.27958 5.46719 4.26637C5.55629 4.19651 5.6377 4.11455 5.70867 4.02324C5.73177 3.99354 5.73177 3.96494 5.70867 3.93853C5.6355 3.84391 5.54915 3.75865 5.45343 3.68659C5.43967 3.6778 5.42923 3.6745 5.41767 3.6745ZM5.41767 4.46275C5.37092 4.46275 5.32142 4.46384 5.27025 4.46605C5.25211 4.46605 5.2356 4.47266 5.22295 4.48584C5.2048 4.50401 5.19764 4.53315 5.19764 4.55241C5.1993 4.65307 5.20591 5.18445 5.2103 5.52273C5.21249 5.68612 5.2136 5.80438 5.21415 5.80823C5.21415 5.83243 5.23175 5.88304 5.28621 5.88304H5.54969C5.58875 5.88304 5.61569 5.85554 5.62121 5.81153C5.62121 5.81043 5.62121 5.80932 5.62121 5.80823C5.62121 5.79997 5.6267 5.34837 5.63716 4.56891V4.55351C5.6377 4.53866 5.63275 4.50676 5.61241 4.4864C5.59976 4.47319 5.58325 4.46714 5.564 4.46714C5.5145 4.46439 5.46498 4.46275 5.41767 4.46275ZM6.08601 4.53481C6.0255 4.53481 5.976 4.56836 5.95014 4.62612C5.87423 4.79499 5.81923 4.94901 5.76588 5.14044C5.75983 5.163 5.76202 5.1817 5.77248 5.19544C5.77962 5.20479 5.79393 5.2158 5.82253 5.2158H6.02827C6.07502 5.2158 6.09206 5.19105 6.09866 5.17069C6.13223 5.05627 6.15643 4.98971 6.19933 4.89511C6.19988 4.89401 6.20318 4.88796 6.21583 4.88796C6.22077 4.88796 6.22574 4.88851 6.23068 4.89015L6.3352 4.92481C6.34729 4.92922 6.355 4.93965 6.35886 4.94792C6.36655 4.96387 6.36766 4.98532 6.36216 5.00127C6.36105 5.00457 6.15093 5.59204 6.08822 5.78787C6.07887 5.81814 6.07996 5.84178 6.09261 5.85939C6.10416 5.87535 6.12397 5.88359 6.15147 5.88359H6.40616C6.44796 5.88359 6.47547 5.86708 6.48757 5.83354C6.49692 5.80823 6.51013 5.77136 6.52553 5.72791L6.53158 5.71142C6.60804 5.49798 6.72411 5.17455 6.74886 5.08268C6.79067 4.927 6.80221 4.75648 6.57392 4.67177C6.50131 4.64482 6.43256 4.62171 6.3693 4.60246C6.289 4.57771 6.21142 4.55956 6.14322 4.54361L6.13498 4.54141C6.11628 4.53645 6.10088 4.53481 6.08601 4.53481ZM4.74933 4.53481C4.73448 4.53481 4.71908 4.53645 4.70424 4.54031L4.69378 4.5425C4.62558 4.55845 4.54856 4.57662 4.46826 4.60137C4.40553 4.62063 4.33678 4.64372 4.26361 4.67068C4.03479 4.75539 4.04689 4.92591 4.0887 5.08157C4.11234 5.17014 4.22016 5.47323 4.31147 5.72682C4.32743 5.77028 4.34008 5.80712 4.34943 5.83243C4.36153 5.86598 4.38904 5.88248 4.43084 5.88248H4.68554C4.71964 5.88248 4.73614 5.86928 4.74439 5.85829C4.75704 5.84123 4.75815 5.81758 4.74879 5.78732C4.68662 5.59426 4.4765 5.00622 4.47431 5.00072C4.46879 4.98477 4.4699 4.96387 4.47761 4.94736C4.48144 4.93912 4.4886 4.92866 4.50181 4.92425L4.60688 4.8896C4.61071 4.88851 4.61567 4.88796 4.62062 4.88796C4.63107 4.88796 4.63602 4.89235 4.63712 4.89511C4.68057 4.99192 4.70532 5.05904 4.73778 5.17069C4.74383 5.19159 4.76089 5.2158 4.80765 5.2158H5.01391C5.03647 5.2158 5.05353 5.2092 5.06399 5.19544C5.07443 5.1817 5.07664 5.16354 5.07004 5.14098C5.01613 4.94847 4.96111 4.79443 4.88575 4.62612C4.8731 4.59862 4.83515 4.53481 4.74933 4.53481ZM6.35445 6.07831H4.48366C4.41818 6.07831 4.36263 6.13333 4.36263 6.19878V6.43421C4.36263 6.50793 4.39399 6.54367 4.45944 6.54367H6.3792C6.44412 6.54367 6.47547 6.50793 6.47547 6.43421V6.19878C6.47547 6.13333 6.4199 6.07831 6.35445 6.07831ZM15.3636 7.89852C15.3614 6.58492 12.8937 4.30982 10.2644 2.86038C7.23127 1.18761 3.77956 0.201876 2.64256 0.82841C1.34658 1.54351 0.636436 5.11293 0.635885 7.89852C0.636436 10.7066 1.30532 14.2304 2.64256 14.9681C3.85436 15.6359 7.15591 14.6501 10.2644 12.9366C12.935 11.4641 15.3614 9.2759 15.3636 7.89852ZM3.55293 0C5.46719 0 8.53385 1.21016 10.573 2.33451C11.7397 2.97755 13.0637 3.91597 14.0879 4.8709C15.0709 5.78678 15.9983 6.92708 16 7.89852C15.9983 8.81327 15.2557 9.88648 14.0604 10.9822C13.0455 11.9118 11.7276 12.8261 10.5735 13.4625C8.6037 14.5484 5.6014 15.8168 3.62224 15.8168C3.08427 15.8168 2.64311 15.7239 2.30975 15.5401C1.43349 15.0572 0.871866 13.7557 0.540173 12.4806C0.183725 11.1126 0.000550157 9.46732 0 7.89905C0 6.36435 0.198026 4.71524 0.542922 3.37415C0.96318 1.74098 1.57431 0.663389 2.30975 0.257434C2.61834 0.0863616 3.03696 0 3.55293 0Z" fill="#FF9500"/>
</svg>
