<svg xmlns="http://www.w3.org/2000/svg" width="200" height="102"><g fill="none" fill-rule="evenodd"><path fill="#66C0BD" d="M0 42h40v60H0z"/><path fill="#33ABA7" d="M40 32h40v70H40z"/><path fill="#009793" d="M80 21h40v81H80z"/><path fill="#007874" d="M120 10h40v92h-40z"/><path fill="#005A57" d="M160 0h40v102h-40z"/><path fill="#FFF" fill-rule="nonzero" d="M15.755 82.75v-.61l-3.58-1.88v-.02l3.58-1.88v-.62l-4.27 2.29v.43l4.27 2.29zm3.41.36c1.39 0 2.18-1.17 2.2-3.34 0-2.16-.81-3.38-2.2-3.38-1.38 0-2.2 1.21-2.2 3.38.02 2.15.8 3.34 2.2 3.34zm0-.56c-1.09 0-1.49-1.09-1.49-2.77 0-1.74.47-2.83 1.49-2.83 1.03 0 1.49 1.09 1.49 2.83 0 1.68-.4 2.77-1.49 2.77zm3.99.55c.3 0 .55-.24.55-.54a.544.544 0 00-1.09 0c0 .3.24.54.54.54zm4.82-.1v-1.81h.86l.04-.56h-.9v-4.16h-.75l-2.99 4.23v.49h3.08V83h.66zm-.66-2.37h-2.34v-.02l1.84-2.58.49-.79.03.01-.02.91v2.47zM11.74 95l1.46-5.9h.02l1.46 5.9h.76l1.69-6.83h-.71l-.85 3.64-.51 2.31h-.03l-.52-2.31-.91-3.64h-.76l-.91 3.64-.53 2.31h-.03l-.51-2.31-.85-3.64h-.72L10.97 95h.77zm6.29.26l2.93-7.16h-.59l-2.93 7.16h.59zm4.56-.26v-2.09l.59-.32L24.92 95h.83l-2.07-2.77 1.86-2.11h-.83l-1.57 1.91-.55.31v-4.65l-.68.04V95h.68zm8.02.61c-.08-1.05-1.4-1.05-3.06-1.13-.4-.02-.52-.14-.55-.31-.05-.23.11-.51.31-.73.26.14.57.21.93.21 1.03 0 1.83-.67 1.83-1.81 0-.6-.21-1.06-.55-1.37.01-.2.19-.31.32-.31h.6v-.49h-.62c-.37 0-.55.25-.6.58-.27-.15-.62-.23-.98-.23-1.06 0-1.83.67-1.83 1.82 0 .61.23 1.08.58 1.37v.02c-.31.31-.56.67-.56 1.02 0 .23.08.42.26.56v.02c-.4.24-.68.58-.69.97-.06 1.26 1.5 1.42 1.95 1.43 2.06.05 2.72-.86 2.66-1.62zm-2.37-2.47c-.84 0-1.17-.54-1.17-1.3s.33-1.3 1.17-1.3c.84 0 1.17.54 1.17 1.3s-.33 1.3-1.17 1.3zm-.23 3.54c-.42-.01-1.41-.12-1.41-.95 0-.27.18-.52.47-.75.13.03.29.05.47.05 1.25.01 2.39.11 2.44.58.06.51-.44 1.11-1.97 1.07zm23.475-25.93l4.27-2.28v-.44l-4.27-2.29v.62l3.58 1.88v.02l-3.58 1.88v.61zm7.68.36c1.39 0 2.18-1.17 2.2-3.34 0-2.16-.81-3.38-2.2-3.38-1.38 0-2.2 1.21-2.2 3.38.02 2.15.8 3.34 2.2 3.34zm0-.56c-1.09 0-1.49-1.09-1.49-2.77 0-1.74.47-2.83 1.49-2.83 1.03 0 1.49 1.09 1.49 2.83 0 1.68-.4 2.77-1.49 2.77zm3.99.55c.3 0 .55-.24.55-.54a.544.544 0 00-1.09 0c0 .3.24.54.54.54zm4.82-.1v-1.81h.86l.04-.56h-.9v-4.16h-.75l-2.99 4.23v.49h3.08V71h.66zm-.66-2.37h-2.34v-.02l1.84-2.58.49-.79.03.01-.02.91v2.47zm-11.63 14.12v-.61l-3.58-1.88v-.02l3.58-1.88v-.62l-4.27 2.29v.43l4.27 2.29zm3.41.36c1.39 0 2.18-1.17 2.2-3.34 0-2.16-.81-3.38-2.2-3.38-1.38 0-2.2 1.21-2.2 3.38.02 2.15.8 3.34 2.2 3.34zm0-.56c-1.09 0-1.49-1.09-1.49-2.77 0-1.74.47-2.83 1.49-2.83 1.03 0 1.49 1.09 1.49 2.83 0 1.68-.4 2.77-1.49 2.77zm3.99.55c.3 0 .55-.24.55-.54a.544.544 0 00-1.09 0c0 .3.24.54.54.54zm3.51 0c1.21 0 2.18-.71 2.18-1.85 0-.78-.52-1.35-1.36-1.7v-.02c.82-.37 1.14-.94 1.14-1.54 0-.88-.72-1.59-1.87-1.59-1.11 0-1.99.65-1.99 1.69 0 .58.36 1.14 1.12 1.48v.02c-.84.35-1.34.94-1.34 1.77 0 1.01.85 1.74 2.12 1.74zm.16-3.79c-.82-.18-1.37-.57-1.37-1.27 0-.62.45-1.11 1.25-1.11.84 0 1.23.52 1.23 1.12 0 .64-.51 1.07-1.11 1.26zm-.14 3.26c-.95 0-1.43-.59-1.43-1.31 0-.68.52-1.19 1.31-1.44.93.24 1.57.66 1.57 1.5 0 .74-.57 1.25-1.45 1.25zM51.74 95l1.46-5.9h.02l1.46 5.9h.76l1.69-6.83h-.71l-.85 3.64-.51 2.31h-.03l-.52-2.31-.91-3.64h-.76l-.91 3.64-.53 2.31h-.03l-.51-2.31-.85-3.64h-.72L50.97 95h.77zm6.29.26l2.93-7.16h-.59l-2.93 7.16h.59zm4.56-.26v-2.09l.59-.32L64.92 95h.83l-2.07-2.77 1.86-2.11h-.83l-1.57 1.91-.55.31v-4.65l-.68.04V95h.68zm8.02.61c-.08-1.05-1.4-1.05-3.06-1.13-.4-.02-.52-.14-.55-.31-.05-.23.11-.51.31-.73.26.14.57.21.93.21 1.03 0 1.83-.67 1.83-1.81 0-.6-.21-1.06-.55-1.37.01-.2.19-.31.32-.31h.6v-.49h-.62c-.37 0-.55.25-.6.58-.27-.15-.62-.23-.98-.23-1.06 0-1.83.67-1.83 1.82 0 .61.23 1.08.58 1.37v.02c-.31.31-.56.67-.56 1.02 0 .23.08.42.26.56v.02c-.4.24-.68.58-.69.97-.06 1.26 1.5 1.42 1.95 1.43 2.06.05 2.72-.86 2.66-1.62zm-2.37-2.47c-.84 0-1.17-.54-1.17-1.3s.33-1.3 1.17-1.3c.84 0 1.17.54 1.17 1.3s-.33 1.3-1.17 1.3zm-.23 3.54c-.42-.01-1.41-.12-1.41-.95 0-.27.18-.52.47-.75.13.03.29.05.47.05 1.25.01 2.39.11 2.44.58.06.51-.44 1.11-1.97 1.07zm23.405-25.93l4.27-2.28v-.44l-4.27-2.29v.62l3.58 1.88v.02l-3.58 1.88v.61zm7.68.36c1.39 0 2.18-1.17 2.2-3.34 0-2.16-.81-3.38-2.2-3.38-1.38 0-2.2 1.21-2.2 3.38.02 2.15.8 3.34 2.2 3.34zm0-.56c-1.09 0-1.49-1.09-1.49-2.77 0-1.74.47-2.83 1.49-2.83 1.03 0 1.49 1.09 1.49 2.83 0 1.68-.4 2.77-1.49 2.77zm3.99.55c.3 0 .55-.24.55-.54a.544.544 0 00-1.09 0c0 .3.24.54.54.54zm3.51 0c1.21 0 2.18-.71 2.18-1.85 0-.78-.52-1.35-1.36-1.7v-.02c.82-.37 1.14-.94 1.14-1.54 0-.88-.72-1.59-1.87-1.59-1.11 0-1.99.65-1.99 1.69 0 .58.36 1.14 1.12 1.48v.02c-.84.35-1.34.94-1.34 1.77 0 1.01.85 1.74 2.12 1.74zm.16-3.79c-.82-.18-1.37-.57-1.37-1.27 0-.62.45-1.11 1.25-1.11.84 0 1.23.52 1.23 1.12 0 .64-.51 1.07-1.11 1.26zm-.14 3.26c-.95 0-1.43-.59-1.43-1.31 0-.68.52-1.19 1.31-1.44.93.24 1.57.66 1.57 1.5 0 .74-.57 1.25-1.45 1.25zm-10.36 12.18v-.61l-3.58-1.88v-.02l3.58-1.88v-.62l-4.27 2.29v.43l4.27 2.29zm3.56.25v-6.53h-.6l-1.43.76.2.52 1.13-.6h.02l.01 5.85h.67zm2.91.1c.3 0 .55-.24.55-.54a.544.544 0 00-1.09 0c0 .3.24.54.54.54zm5.39-.1l.04-.58-3.14-.01c1.69-1.52 2.99-2.66 2.99-4.15 0-.97-.61-1.86-1.91-1.86-.68 0-1.31.24-1.77.55l.19.49c.4-.23.87-.45 1.45-.45.96 0 1.33.61 1.33 1.36 0 1.19-1.09 2.23-3.21 4.17V83h4.03zM91.74 95l1.46-5.9h.02l1.46 5.9h.76l1.69-6.83h-.71l-.85 3.64-.51 2.31h-.03l-.52-2.31-.91-3.64h-.76l-.91 3.64-.53 2.31h-.03l-.51-2.31-.85-3.64h-.72L90.97 95h.77zm6.29.26l2.93-7.16h-.59l-2.93 7.16h.59zm4.56-.26v-2.09l.59-.32 1.74 2.41h.83l-2.07-2.77 1.86-2.11h-.83l-1.57 1.91-.55.31v-4.65l-.68.04V95h.68zm8.02.61c-.08-1.05-1.4-1.05-3.06-1.13-.4-.02-.52-.14-.55-.31-.05-.23.11-.51.31-.73.26.14.57.21.93.21 1.03 0 1.83-.67 1.83-1.81 0-.6-.21-1.06-.55-1.37.01-.2.19-.31.32-.31h.6v-.49h-.62c-.37 0-.55.25-.6.58-.27-.15-.62-.23-.98-.23-1.06 0-1.83.67-1.83 1.82 0 .61.23 1.08.58 1.37v.02c-.31.31-.56.67-.56 1.02 0 .23.08.42.26.56v.02c-.4.24-.68.58-.69.97-.06 1.26 1.5 1.42 1.95 1.43 2.06.05 2.72-.86 2.66-1.62zm-2.37-2.47c-.84 0-1.17-.54-1.17-1.3s.33-1.3 1.17-1.3c.84 0 1.17.54 1.17 1.3s-.33 1.3-1.17 1.3zm-.23 3.54c-.42-.01-1.41-.12-1.41-.95 0-.27.18-.52.47-.75.13.03.29.05.47.05 1.25.01 2.39.11 2.44.58.06.51-.44 1.11-1.97 1.07zm23.975-25.93l4.27-2.28v-.44l-4.27-2.29v.62l3.58 1.88v.02l-3.58 1.88v.61zm7.83.25v-6.53h-.6l-1.43.76.2.52 1.13-.6h.02l.01 5.85h.67zm2.91.1c.3 0 .55-.24.55-.54a.544.544 0 00-1.09 0c0 .3.24.54.54.54zm5.39-.1l.04-.58-3.14-.01c1.69-1.52 2.99-2.66 2.99-4.15 0-.97-.61-1.86-1.91-1.86-.68 0-1.31.24-1.77.55l.19.49c.4-.23.87-.45 1.45-.45.96 0 1.33.61 1.33 1.36 0 1.19-1.09 2.23-3.21 4.17V71h4.03zM136.17 82.75v-.61l-3.58-1.88v-.02l3.58-1.88v-.62l-4.27 2.29v.43l4.27 2.29zm3.56.25v-6.53h-.6l-1.43.76.2.52 1.13-.6h.02l.01 5.85h.67zm2.91.1c.3 0 .55-.24.55-.54a.544.544 0 00-1.09 0c0 .3.24.54.54.54zm3.55 0c1.33 0 2.13-1.04 2.13-2.25 0-1.24-.77-2.1-1.95-2.1-.69 0-1.28.33-1.63.78h-.02c.19-1.6 1.42-2.59 3.01-2.59v-.58c-1.99-.01-3.72 1.33-3.72 3.99 0 1.69.85 2.75 2.18 2.75zm.05-.55c-1.04 0-1.57-.9-1.55-2.19.16-.56.87-1.05 1.5-1.05.88 0 1.43.61 1.43 1.58 0 1-.57 1.66-1.38 1.66zM131.74 95l1.46-5.9h.02l1.46 5.9h.76l1.69-6.83h-.71l-.85 3.64-.51 2.31h-.03l-.52-2.31-.91-3.64h-.76l-.91 3.64-.53 2.31h-.03l-.51-2.31-.85-3.64h-.72l1.68 6.83h.77zm6.29.26l2.93-7.16h-.59l-2.93 7.16h.59zm4.56-.26v-2.09l.59-.32 1.74 2.41h.83l-2.07-2.77 1.86-2.11h-.83l-1.57 1.91-.55.31v-4.65l-.68.04V95h.68zm8.02.61c-.08-1.05-1.4-1.05-3.06-1.13-.4-.02-.52-.14-.55-.31-.05-.23.11-.51.31-.73.26.14.57.21.93.21 1.03 0 1.83-.67 1.83-1.81 0-.6-.21-1.06-.55-1.37.01-.2.19-.31.32-.31h.6v-.49h-.62c-.37 0-.55.25-.6.58-.27-.15-.62-.23-.98-.23-1.06 0-1.83.67-1.83 1.82 0 .61.23 1.08.58 1.37v.02c-.31.31-.56.67-.56 1.02 0 .23.08.42.26.56v.02c-.4.24-.68.58-.69.97-.06 1.26 1.5 1.42 1.95 1.43 2.06.05 2.72-.86 2.66-1.62zm-2.37-2.47c-.84 0-1.17-.54-1.17-1.3s.33-1.3 1.17-1.3c.84 0 1.17.54 1.17 1.3s-.33 1.3-1.17 1.3zm-.23 3.54c-.42-.01-1.41-.12-1.41-.95 0-.27.18-.52.47-.75.13.03.29.05.47.05 1.25.01 2.39.11 2.44.58.06.51-.44 1.11-1.97 1.07zm23.89-25.93l4.27-2.28v-.44l-4.27-2.29v.62l3.58 1.88v.02l-3.58 1.88v.61zm7.83.25v-6.53h-.6l-1.43.76.2.52 1.13-.6h.02l.01 5.85h.67zm2.91.1c.3 0 .55-.24.55-.54a.544.544 0 00-1.09 0c0 .3.24.54.54.54zm3.55 0c1.33 0 2.13-1.04 2.13-2.25 0-1.24-.77-2.1-1.95-2.1-.69 0-1.28.33-1.63.78h-.02c.19-1.6 1.42-2.59 3.01-2.59v-.58c-1.99-.01-3.72 1.33-3.72 3.99 0 1.69.85 2.75 2.18 2.75zm.05-.55c-1.04 0-1.57-.9-1.55-2.19.16-.56.87-1.05 1.5-1.05.88 0 1.43.61 1.43 1.58 0 1-.57 1.66-1.38 1.66zm-6.665 12.2v-.61l-3.58-1.88v-.02l3.58-1.88v-.62l-4.27 2.29v.43l4.27 2.29zm5.22.25l.04-.58-3.14-.01c1.69-1.52 2.99-2.66 2.99-4.15 0-.97-.61-1.86-1.91-1.86-.68 0-1.31.24-1.77.55l.19.49c.4-.23.87-.45 1.45-.45.96 0 1.33.61 1.33 1.36 0 1.19-1.09 2.23-3.21 4.17V83h4.03zM171.74 95l1.46-5.9h.02l1.46 5.9h.76l1.69-6.83h-.71l-.85 3.64-.51 2.31h-.03l-.52-2.31-.91-3.64h-.76l-.91 3.64-.53 2.31h-.03l-.51-2.31-.85-3.64h-.72l1.68 6.83h.77zm6.29.26l2.93-7.16h-.59l-2.93 7.16h.59zm4.56-.26v-2.09l.59-.32 1.74 2.41h.83l-2.07-2.77 1.86-2.11h-.83l-1.57 1.91-.55.31v-4.65l-.68.04V95h.68zm8.02.61c-.08-1.05-1.4-1.05-3.06-1.13-.4-.02-.52-.14-.55-.31-.05-.23.11-.51.31-.73.26.14.57.21.93.21 1.03 0 1.83-.67 1.83-1.81 0-.6-.21-1.06-.55-1.37.01-.2.19-.31.32-.31h.6v-.49h-.62c-.37 0-.55.25-.6.58-.27-.15-.62-.23-.98-.23-1.06 0-1.83.67-1.83 1.82 0 .61.23 1.08.58 1.37v.02c-.31.31-.56.67-.56 1.02 0 .23.08.42.26.56v.02c-.4.24-.68.58-.69.97-.06 1.26 1.5 1.42 1.95 1.43 2.06.05 2.72-.86 2.66-1.62zm-2.37-2.47c-.84 0-1.17-.54-1.17-1.3s.33-1.3 1.17-1.3c.84 0 1.17.54 1.17 1.3s-.33 1.3-1.17 1.3zm-.23 3.54c-.42-.01-1.41-.12-1.41-.95 0-.27.18-.52.47-.75.13.03.29.05.47.05 1.25.01 2.39.11 2.44.58.06.51-.44 1.11-1.97 1.07zM17.652 55l.588-2.1h2.4l.612 2.1h1.752l-2.484-8.208h-2.1L15.936 55h1.716zm2.712-3.372h-1.836l.648-2.508.252-.972h.024l.24.972.672 2.508zm38.706 3.42c2.604 0 3.984-.564 3.984-2.376 0-1.044-.744-1.764-1.62-2.004v-.024c.852-.324 1.344-1.02 1.344-1.8 0-1.584-1.32-2.076-3.144-2.076-.876 0-1.776.048-2.376.108v8.112c.456.024 1.056.06 1.812.06zm.588-4.92h-.792v-2.076c.252-.012.552-.036.972-.036.78 0 1.284.312 1.284 1.02 0 .696-.48 1.092-1.464 1.092zm-.048 3.66c-.288 0-.528 0-.744-.012v-2.412h.948c.876 0 1.524.384 1.524 1.212 0 .912-.708 1.212-1.728 1.212zm41.332 1.332c.888 0 1.68-.156 2.1-.348l-.168-1.32c-.456.192-1.116.312-1.728.312-1.584 0-2.472-1.08-2.472-2.856 0-1.872.996-2.868 2.472-2.868.672 0 1.248.132 1.728.312l.228-1.308c-.408-.192-1.152-.36-2.04-.36-2.508 0-4.092 1.728-4.092 4.296 0 2.328 1.308 4.14 3.972 4.14zm37.864-.072c3.108 0 4.74-1.368 4.74-4.26 0-2.484-1.392-4.02-4.272-4.02-.876 0-1.752.036-2.484.108v8.112c.528.024 1.188.06 2.016.06zm.252-1.296c-.228 0-.468-.012-.636-.036v-5.604c.228-.024.54-.048.924-.048 1.596 0 2.484.972 2.484 2.748 0 2.088-1.008 2.94-2.772 2.94zM182.7 55l.072-1.344h-3.396V51.46h2.868l.084-1.344h-2.952V48.16h3.156l.084-1.356h-4.872V55z"/></g></svg>