<svg width="179" height="175" fill="none" xmlns="http://www.w3.org/2000/svg"><rect x="56.5" y="12.836" width="86" height="157" rx="12" fill="#E5CFC7"/><path fill-rule="evenodd" clip-rule="evenodd" d="M27.493 82.45a1 1 0 00-1.993.116v9.663l.007.117a1 1 0 001.993-.117v-9.663l-.007-.116zm0 18.801a1 1 0 00-1.993.116v5.647l.004.306c.162 6.729 5.667 12.132 12.435 12.132h8.313l.117-.006a1 1 0 00-.117-1.994H37.94l-.283-.003c-5.635-.15-10.156-4.764-10.156-10.435v-5.647l-.007-.116z" fill="#291D18"/><path d="M26.5 32.212a25.47 25.47 0 0120.98 11l.245.362-2.495 1.665A22.474 22.474 0 0026.5 35.212c-12.427 0-22.5 10.074-22.5 22.5s10.073 22.5 22.5 22.5c7.7 0 14.73-3.898 18.853-10.214l.222-.347 2.541 1.594A25.48 25.48 0 0126.5 83.212c-14.083 0-25.5-11.417-25.5-25.5s11.416-25.5 25.5-25.5z" fill="#291D18"/><path fill-rule="evenodd" clip-rule="evenodd" d="M26.5 66.462c-3.139 0-5.996-1.597-8.526-4.23a22.314 22.314 0 01-3.074-4.057l-.027-.047-.015-.027a.766.766 0 01-.016-.749c.04-.072.112-.199.217-.372a22.314 22.314 0 012.915-3.787c2.53-2.634 5.387-4.231 8.526-4.231 3.139 0 5.996 1.597 8.526 4.23A22.314 22.314 0 0138.1 57.25l.027.047.015.026a.766.766 0 01.016.75c-.04.072-.112.198-.217.372a22.314 22.314 0 01-2.915 3.787c-2.53 2.634-5.388 4.23-8.526 4.23zm-9.594-7.924c.62.906 1.34 1.811 2.15 2.654 2.273 2.367 4.784 3.77 7.444 3.77s5.17-1.403 7.444-3.77a20.827 20.827 0 002.686-3.48 20.827 20.827 0 00-2.686-3.48c-2.274-2.367-4.784-3.77-7.444-3.77s-5.17 1.403-7.445 3.77a20.835 20.835 0 00-2.685 3.48c.152.25.331.528.536.826zm3.844-.826a5.75 5.75 0 1011.5 0 5.75 5.75 0 00-11.5 0zm5.75 4.25a4.25 4.25 0 100-8.5 4.25 4.25 0 000 8.5zm-2-5a.75.75 0 00-.75.75 2.75 2.75 0 102.75-2.75.75.75 0 000 1.5 1.25 1.25 0 11-1.25 1.25.75.75 0 00-.75-.75z" fill="#291D18"/><circle cx="26.5" cy="96.712" r="4" fill="#fff"/><path d="M23.793 94.005a1 1 0 011.32-.083l.094.083 3.782 3.782a1 1 0 01-1.32 1.498l-.094-.083-3.782-3.783a1 1 0 010-1.414z" fill="#291D18"/><path d="M27.575 94.005a1 1 0 011.497 1.32l-.083.094-3.782 3.783a1 1 0 01-1.497-1.32l.083-.095 3.782-3.782zm124.924-14.793c14.084 0 25.501 11.417 25.501 25.5s-11.417 25.5-25.501 25.5a25.48 25.48 0 01-21.623-11.978l-.228-.372 2.569-1.549a22.483 22.483 0 0019.282 10.899c12.427 0 22.501-10.073 22.501-22.5s-10.074-22.5-22.501-22.5a22.47 22.47 0 00-18.554 9.77l-.229.339-2.502-1.655a25.47 25.47 0 0121.285-11.454z" fill="#291D18"/><path fill-rule="evenodd" clip-rule="evenodd" d="M149.5 110.462a8.75 8.75 0 116.695-3.116l7.335 7.336a.749.749 0 11-1.06 1.06l-7.336-7.335a8.716 8.716 0 01-5.634 2.055zm0-1.5a7.25 7.25 0 100-14.5 7.25 7.25 0 000 14.5zm3.864-54.118c-.163-6.729-5.667-12.132-12.436-12.132h-9.038l-.116.007a1 1 0 00.116 1.993h9.038l.283.004c5.636.15 10.156 4.764 10.156 10.435v4.589l.007.116a1 1 0 001.993-.116v-4.59l-.003-.306zm-.004 15.013a1 1 0 00-1.993.117v9.624l.007.116a1 1 0 001.993-.116v-9.624l-.007-.117z" fill="#291D18"/><circle cx="152.5" cy="64.712" r="4" fill="#fff"/><path d="M149.793 62.005a1 1 0 011.32-.083l.094.083 3.782 3.782a1 1 0 01-1.32 1.498l-.094-.083-3.782-3.783a1 1 0 010-1.414z" fill="#291D18"/><path d="M153.575 62.005a1 1 0 011.497 1.32l-.083.094-3.782 3.783a1 1 0 01-1.497-1.32l.083-.095 3.782-3.782z" fill="#291D18"/><path fill-rule="evenodd" clip-rule="evenodd" d="M59.204 104.08l28-48a1.5 1.5 0 012.591 0l28.001 48a1.5 1.5 0 01-1.296 2.256h-56a1.5 1.5 0 01-1.296-2.256zm54.684-.745L88.499 59.814l-25.388 43.521h50.777z" fill="#291D18"/><path d="M86.5 74.836h3v16h-3v-16z" fill="#291D18"/><path fill-rule="evenodd" clip-rule="evenodd" d="M86.5 97.836h3v-3h-3v3z" fill="#291D18"/><path fill-rule="evenodd" clip-rule="evenodd" d="M60.718 1h57.622c8.378 0 15.227 6.849 15.227 15.227v129.738c0 8.379-6.848 15.227-15.227 15.227H60.718c-8.38 0-15.227-6.848-15.227-15.227V16.227C45.492 7.848 52.34 1 60.719 1zm57.622 3H60.718c-6.722 0-12.227 5.505-12.227 12.227v129.738c0 6.722 5.505 12.227 12.227 12.227h57.622c6.722 0 12.227-5.505 12.227-12.227V16.227C130.567 9.505 125.061 4 118.34 4z" fill="#291D18"/><path fill-rule="evenodd" clip-rule="evenodd" d="M93.788 139.189a4.259 4.259 0 11-8.519 0 4.26 4.26 0 118.519 0" fill="#291D18"/><path d="M116.429 21.953a1.5 1.5 0 01.144 2.993l-.144.007H64.916a1.5 1.5 0 01-.144-2.993l.144-.007h51.513z" fill="#291D18"/></svg>