<svg xmlns="http://www.w3.org/2000/svg" width="24" height="24" fill="none"><path fill="#291D18" d="M0 12.002C0 5.352 5.37 0 12.013 0 18.63 0 24 5.352 24 12.002 24 18.621 18.63 24 12.013 24 5.37 24 0 18.62 0 12.002M9.302 6.1v4.025l.836.854-.836.873v5.574l1.49 1.522h4.729l1.49-1.47v-5.68l-.822-.81.822-.81v-4.13l-1.49-1.466h-4.755zm-6.343-.672v1.394H4.75v12.126h2.81V4.582H5.37zm14.994 3.776h1.606v1.603h1.393V9.204h1.601V7.805h-1.601V6.202h-1.393v1.603h-1.606zm-5.816 3.542h2.087v3.763h-2.087zm0-5.751h2.087v3.338h-2.087z"/></svg>