<svg xmlns="http://www.w3.org/2000/svg" width="24" height="24" fill="none"><path fill="#291D18" d="M24 11.986c0-3.316-1.168-6.17-3.502-8.48C18.136 1.168 15.312 0 11.999 0Q7.033 0 3.53 3.506C1.194 5.816 0 8.67 0 11.986s1.194 6.143 3.53 8.508Q7.031 24 12 24c3.312 0 6.136-1.169 8.498-3.506C22.832 18.129 24 15.302 24 11.986M17.881 4.66c.651.38.95 1.057.894 2.005a4.4 4.4 0 0 1-.758 2.357 5.4 5.4 0 0 1-1.273 1.436c-.407.325-.623.542-.623.623-.027.136.053.271.244.434l.514.433c.46.406.57.921.298 1.544-.542 1.274-.704 2.602-.596 3.984l.488 2.086c.135.65.135 1.03-.082 1.11-.243.082-.677-.541-1.409-1.95-.704-1.517-1.219-2.276-1.436-2.357-.27-.055-.352.812-.243 2.628.081 1.87 0 2.79-.217 2.763-.244-.027-.488-.46-.813-1.273a13 13 0 0 1-.677-2.845c-.461-2.818-.217-4.741.704-5.744.298-.352.705-.542 1.192-.596.46-.054.732-.162.84-.325.082-.135.055-.27-.054-.38l-.38-.352c-.433-.379-.541-.84-.352-1.435.46.622.949 1.002 1.436 1.083.434.108.813-.081 1.138-.487.461-.624.488-1.328.163-2.086-.379-.895-1.165-1.301-2.276-1.247.163-.732.65-1.246 1.3-1.545.678-.297 1.328-.243 1.978.136m-5.174 1.002q.731.732.406.732c-.081 0-.298-.108-.704-.38-.38-.216-.65-.352-.759-.352l-.975.732c-.596.488-.976.677-1.22.623-.19-.054-.379-.46-.568-1.273-.217-.759-.353-1.192-.515-1.22-.163-.027-.596.163-1.274.57-.514.297-.84.216-.948-.244-.19-.57.163-.976.948-1.247.732-.244 1.3-.27 1.761-.054.163.109.353.515.542 1.274.19.731.326 1.138.407 1.138.135.054.46-.109.975-.461.515-.38.813-.569.948-.569q.204 0 .976.731m.46 1.979 1.545.054c.027.135-.434.325-1.355.541l-1.598.461-.542 1.409c-.271.867-.569 1.354-.868 1.436-.27.081-.84-.27-1.679-1.084-.894-.84-1.355-1.246-1.436-1.246-.081.027-.19.216-.325.623l-.38 1.328c-.406 1.327-.866 2.113-1.327 2.384l-.949.081c-.243-.081-.379-.298-.46-.569a1 1 0 0 1 .108-.731c.136-.244.38-.38.705-.434.352-.054.731-.705 1.137-1.897q.692-1.91 1.139-2.032c.27-.108.894.271 1.788 1.138.921.867 1.409 1.274 1.463 1.274.136-.054.325-.46.569-1.165.27-.759.488-1.138.623-1.247.244-.108.867-.216 1.843-.324"/></svg>