<svg width="664" height="98" viewBox="0 0 664 98" fill="none" xmlns="http://www.w3.org/2000/svg">
<path fill-rule="evenodd" clip-rule="evenodd" d="M65.4337 59.9994C65.4337 59.9994 66.2546 59.2225 66.2546 58.4858V56.0328C66.2546 54.8045 65.3222 55.4656 65.3222 55.4656C62.8276 57.0336 55.5424 61.0288 46.0929 61.0288C36.643 61.0288 29.3592 57.0336 26.8637 55.4656C26.8637 55.4656 25.9308 54.8045 25.9308 56.0328V58.4858C25.9308 59.2225 26.7522 59.9994 26.7522 59.9994C29.2144 61.9219 36.9235 67.3074 46.0929 67.3119C55.2614 67.3074 62.9669 61.9219 65.4337 59.9994ZM34.2342 31.2375C34.2342 31.2375 27.0503 31.246 27.0503 37.27C27.0503 43.298 34.2342 43.3066 34.2342 43.3066C34.2342 43.3066 41.4182 43.298 41.4182 37.27C41.4182 31.246 34.2342 31.2375 34.2342 31.2375ZM64.7683 35.3075C64.7683 34.8685 64.211 34.7311 64.211 34.7311C61.8854 34.1206 59.5805 33.7791 57.3013 33.7301C55.154 33.6923 53.0143 33.905 50.8778 34.371C50.8778 34.371 50.3457 34.5358 50.3457 35.0051V39.7394C50.3457 40.6182 50.9637 40.3786 50.9637 40.3786C52.973 40.0924 54.9382 39.9678 57.2846 40.0112C59.5558 40.0598 61.9515 40.279 64.0741 40.6694C64.0741 40.6694 64.7683 40.8351 64.7683 40.0937V35.3075ZM67.6525 80.9809C67.6525 80.9809 58.9167 82.3352 46.0599 82.3352C33.2017 82.3352 24.4669 80.9809 24.4669 80.9809C18.9642 80.3158 14.7224 75.9843 14.0541 70.4816C14.0541 70.4816 12.7249 60.6675 12.7249 48.9992C12.7249 37.3307 14.0541 27.5168 14.0541 27.5168C14.7224 22.015 18.9642 17.684 24.4669 17.0202C24.4669 17.0202 33.2017 15.6644 46.0599 15.6644C58.9167 15.6644 67.6525 17.0202 67.6525 17.0202C73.1556 17.684 77.3978 22.015 78.0652 27.5168C78.0652 27.5168 79.3965 37.3307 79.3965 48.9992C79.3965 60.6675 78.0652 70.4816 78.0652 70.4816C77.3978 75.9843 73.1556 80.3158 67.6525 80.9809ZM75.8937 4.81214C75.8937 4.81214 63.825 2.94 46.0599 2.94C28.2941 2.94 16.2245 4.81214 16.2245 4.81214C8.62089 5.7291 2.75988 11.7153 1.8373 19.3167C1.8373 19.3167 0 32.8778 0 48.9992C0 65.1217 1.8373 78.6824 1.8373 78.6824C2.75988 86.2842 8.62089 92.2693 16.2245 93.1876C16.2245 93.1876 28.2941 95.06 46.0599 95.06C63.825 95.06 75.8937 93.1876 75.8937 93.1876C83.4989 92.2693 89.3594 86.2842 90.2825 78.6824C90.2825 78.6824 92.12 65.1217 92.12 48.9992C92.12 32.8778 90.2825 19.3167 90.2825 19.3167C89.3594 11.7153 83.4989 5.7291 75.8937 4.81214Z" fill="#FFC421"/>
<path fill-rule="evenodd" clip-rule="evenodd" d="M121.52 5.2285H175.844C191.301 5.2285 203.83 17.7904 203.83 33.2858C203.83 48.7829 191.301 61.3449 175.844 61.3449H174.198V66.2961C174.198 80.8811 162.406 92.7033 147.86 92.7033C133.313 92.7033 121.52 80.8811 121.52 66.2961V5.2285ZM159.042 46.149H175.845C182.92 46.149 188.674 40.3793 188.674 33.286C188.674 26.1944 182.92 20.4238 175.845 20.4238H136.677V66.2963C136.677 72.4792 141.693 77.5083 147.859 77.5083C154.026 77.5083 159.042 72.4792 159.042 66.2963V46.149Z" fill="white"/>
<path fill-rule="evenodd" clip-rule="evenodd" d="M660.003 16.235C657.486 12.4935 653.942 9.57588 649.468 7.56337C645.024 5.56486 639.875 4.55116 634.165 4.55116C628.299 4.55116 622.846 5.60338 617.96 7.67979C613.052 9.76322 608.98 12.7894 605.856 16.6735C602.721 20.5707 600.793 25.177 600.126 30.3654C599.959 31.8615 599.876 32.9627 599.876 33.6516C599.876 38.3026 601.143 42.297 603.643 45.5254C606.104 48.7048 609.087 51.2495 612.511 53.0896C615.877 54.9008 619.906 56.6507 624.488 58.2894L627.31 59.2733C631.721 60.8841 634.802 62.2427 636.454 63.308C637.954 64.2744 638.683 65.5735 638.683 67.2814C638.683 69.2142 637.857 70.9431 636.158 72.5696C634.477 74.1829 631.828 75.0014 628.29 75.0014C624.078 75.0014 620.801 74.0481 618.544 72.1678C616.757 70.6796 615.812 69.0505 615.656 67.186C615.56 66.0086 614.631 65.1306 613.495 65.1306C613.406 65.1306 613.315 65.1367 613.224 65.1481L613.149 65.1577L596.463 67.2744C595.38 67.4109 594.558 68.3021 594.507 69.3911C594.496 69.6624 594.489 69.9014 594.489 70.1036C594.489 77.4324 597.242 83.3088 602.671 87.5685C608.044 91.7878 615.469 93.9264 624.738 93.9264C634.326 93.9264 642.404 91.5436 648.748 86.8454C655.134 82.1192 658.878 75.6089 659.879 67.4959C660.049 65.9657 660.131 64.8942 660.131 64.2132C660.131 59.4756 658.858 55.5363 656.347 52.5049C653.879 49.5294 651.2 47.3366 648.382 45.9859C645.631 44.671 641.717 43.0927 636.744 41.2938C632.377 39.6726 629.096 38.3779 627 37.4464C624.972 36.5492 623.442 35.5898 622.452 34.5962C621.528 33.6709 621.078 32.5994 621.078 31.3187C621.078 28.8431 621.944 26.9698 623.726 25.5911C625.542 24.1878 628.066 23.4762 631.227 23.4762C635.08 23.4762 638.051 24.5161 640.06 26.5663C641.691 28.2348 642.539 30.0407 642.651 32.0882C642.716 33.2656 643.694 34.1874 644.878 34.1874C644.972 34.1874 645.067 34.1813 645.161 34.169L661.829 32.0558C662.912 31.9184 663.733 31.0281 663.784 29.94C663.797 29.6713 663.803 29.434 663.803 29.2336C663.803 24.3585 662.525 19.9851 660.003 16.235Z" fill="#00E650"/>
<path fill-rule="evenodd" clip-rule="evenodd" d="M596.975 23.9663C597.448 23.5496 597.704 23.0139 597.719 22.4116L599.546 7.87146C599.662 7.24906 599.519 6.68006 599.133 6.22573C598.744 5.77228 598.21 5.5333 597.585 5.5333H535.762C535.16 5.5333 534.617 5.7574 534.194 6.18196C533.801 6.57589 533.547 7.05647 533.439 7.60972L533.432 7.63861L533.429 7.66749L531.719 22.2444C531.602 22.8677 531.746 23.4367 532.135 23.891C532.519 24.3419 533.054 24.5808 533.68 24.5808H553.479L545.43 90.6069C545.313 91.231 545.458 91.7992 545.847 92.2544C546.23 92.7043 546.765 92.9442 547.391 92.9442H564.286C564.889 92.9442 565.432 92.7201 565.855 92.2955C566.245 91.9042 566.499 91.4263 566.609 90.8713L566.616 90.8433L574.693 24.5808H595.381C595.974 24.5808 596.51 24.3743 596.975 23.9663Z" fill="#00E650"/>
<path fill-rule="evenodd" clip-rule="evenodd" d="M468.053 5.53332H503.31C510.661 5.53332 516.562 7.67014 520.85 11.8842C525.141 16.1036 527.316 21.8575 527.316 28.9876C527.316 29.8288 527.235 31.1358 527.065 33.0152C526.317 38.6046 524.33 43.5155 521.162 47.6114C518.002 51.6951 513.88 54.6985 508.931 56.5325L520.408 90.1981C520.525 90.4572 520.584 90.7575 520.584 91.0919C520.584 91.5261 520.425 92.9442 518.367 92.9442H500.617C499.48 92.9442 498.664 92.3708 498.311 91.3099L488.419 58.7393C488.403 58.7139 488.388 58.7026 488.376 58.7017H480.663L476.752 90.8135L476.748 90.8433L476.742 90.8713C476.631 91.4263 476.377 91.9042 475.988 92.2955C475.565 92.7201 475.023 92.9442 474.418 92.9442H457.525C456.898 92.9442 456.363 92.7043 455.979 92.2544C455.59 91.7992 455.446 91.2302 455.563 90.606L465.716 7.70428C465.73 7.10113 465.986 6.5654 466.46 6.14871C466.923 5.74078 467.46 5.53332 468.053 5.53332ZM495.72 41.6177C498.733 41.6177 501.148 40.7204 503.104 38.8751C505.046 37.0429 505.991 34.6916 505.991 31.6873C505.991 29.4349 505.291 27.7104 503.851 26.4149C502.407 25.1167 500.413 24.4584 497.923 24.4584H484.825L482.776 41.6177H495.72Z" fill="#00E650"/>
<path fill-rule="evenodd" clip-rule="evenodd" d="M405.423 0C378.431 0 356.548 21.9389 356.548 49.0007C356.548 76.0632 378.431 98.0004 405.423 98.0004C432.417 98.0004 454.299 76.0632 454.299 49.0007C454.299 21.9389 432.417 0 405.423 0Z" fill="#00E650"/>
<path fill-rule="evenodd" clip-rule="evenodd" d="M294.057 5.53332H328.335C335.925 5.53332 342.05 7.70953 346.54 11.9998C351.038 16.3006 353.321 22.1823 353.321 29.4786C353.321 30.3164 353.24 31.7021 353.07 33.7435C352.404 39.1604 350.59 44.0223 347.677 48.1953C344.759 52.3735 340.935 55.6352 336.312 57.8893C331.702 60.1382 326.464 61.2788 320.744 61.2788H306.331L306.331 61.2799C306.321 61.2939 306.307 61.3138 306.292 61.3445L302.756 90.8126L302.752 90.8424L302.746 90.8713C302.635 91.4254 302.381 91.9042 301.992 92.2955C301.568 92.7201 301.025 92.9442 300.423 92.9442H283.528C282.901 92.9442 282.366 92.7043 281.983 92.2535C281.593 91.7983 281.449 91.2302 281.567 90.606L291.725 7.66313L291.728 7.63687L291.733 7.60973C291.842 7.05649 292.097 6.5759 292.489 6.18198C292.911 5.75741 293.453 5.53332 294.057 5.53332ZM320.5 43.5812C323.874 43.5812 326.665 42.5369 328.796 40.4771C330.949 38.3945 331.996 35.7614 331.996 32.4244C331.996 30.0048 331.215 28.1184 329.609 26.6582C328.002 25.1981 325.803 24.4584 323.071 24.4584H310.862C310.851 24.4715 310.837 24.4934 310.822 24.5249L308.536 43.5812H320.5Z" fill="#00E650"/>
<path fill-rule="evenodd" clip-rule="evenodd" d="M281.974 29.2336C281.974 24.3585 280.695 19.9851 278.173 16.235C275.656 12.4935 272.112 9.57588 267.638 7.56337C263.194 5.56486 258.046 4.55116 252.335 4.55116C246.47 4.55116 241.018 5.60338 236.13 7.67979C231.223 9.76322 227.151 12.7894 224.027 16.6735C220.891 20.5707 218.964 25.177 218.297 30.3654C218.13 31.8615 218.046 32.9627 218.046 33.6516C218.046 38.3026 219.313 42.297 221.814 45.5254C224.274 48.7048 227.257 51.2495 230.682 53.0896C234.047 54.9008 238.076 56.6507 242.658 58.2894L245.48 59.2733C249.892 60.8841 252.972 62.2427 254.625 63.308C256.124 64.2744 256.853 65.5735 256.853 67.2814C256.853 69.2142 256.027 70.9431 254.33 72.5696C252.647 74.1829 249.999 75.0014 246.46 75.0014C242.249 75.0014 238.971 74.0481 236.714 72.1678C234.927 70.6796 233.982 69.0505 233.826 67.186C233.73 66.0086 232.802 65.1306 231.666 65.1306C231.577 65.1306 231.486 65.1367 231.394 65.1481L231.319 65.1577L214.634 67.2744C213.551 67.4109 212.728 68.3021 212.678 69.3911C212.665 69.6624 212.66 69.9014 212.66 70.1036C212.66 77.4324 215.412 83.3088 220.842 87.5685C226.215 91.7878 233.639 93.9264 242.909 93.9264C252.496 93.9264 260.574 91.5436 266.919 86.8454C273.304 82.1192 277.049 75.6089 278.051 67.4959C278.219 65.9657 278.301 64.8942 278.301 64.2132C278.301 59.4756 277.028 55.5363 274.517 52.5049C272.051 49.5294 269.37 47.3366 266.552 45.9859C263.802 44.671 259.887 43.0927 254.915 41.2938C250.548 39.6726 247.267 38.3779 245.17 37.4464C243.142 36.5492 241.612 35.5898 240.622 34.5962C239.698 33.6709 239.248 32.5994 239.248 31.3187C239.248 28.8431 240.114 26.9698 241.896 25.5911C243.713 24.1878 246.236 23.4762 249.398 23.4762C253.251 23.4762 256.223 24.5161 258.23 26.5663C259.862 28.2348 260.71 30.0407 260.822 32.0882C260.886 33.2656 261.864 34.1874 263.048 34.1874C263.142 34.1874 263.237 34.1813 263.332 34.169L279.999 32.0558C281.082 31.9184 281.905 31.0281 281.955 29.94C281.967 29.6713 281.974 29.434 281.974 29.2336Z" fill="#00E650"/>
</svg>
