<svg width="298" height="100" viewBox="0 0 298 100" fill="none" xmlns="http://www.w3.org/2000/svg">
<path fill-rule="evenodd" clip-rule="evenodd" d="M134.675 61.0332L144.632 35.8296L154.44 61.0332H134.675ZM150.978 21.2751C149.737 18.5181 147.68 17.1718 144.697 17.1718C141.72 17.1718 139.567 18.6197 138.473 21.3588L115.422 77.5521C115.216 78.1377 114.906 79.0267 114.906 80.2357C114.906 83.3627 117.599 85.8135 121.037 85.8135C123.649 85.8135 125.367 84.5606 126.443 81.8723L130.354 71.9729H158.697L162.618 82.0487C163.98 85.16 166.289 85.8135 167.989 85.8135C171.521 85.8135 174.396 83.1444 174.396 79.8663C174.396 78.9059 174.111 77.8528 173.844 77.1876L150.978 21.2751ZM214.347 17.1718C211.254 17.1718 209.933 18.943 208.967 20.8583L208.958 20.8748L193.415 48.5457L176.89 20.4053C175.184 17.5075 173.24 17.1718 171.926 17.1718C168.479 17.1718 165.702 20.3249 165.702 22.9343C165.702 24.1728 166.084 25.4634 166.778 26.5694L187.329 61.2185V79.681C187.329 83.4636 189.643 85.8135 193.369 85.8135C197.094 85.8135 199.408 83.4636 199.408 79.681V61.202L199.465 61.1046L218.946 27.3959C219.743 26.0305 220.479 24.5455 220.479 22.9343C220.479 20.027 217.442 17.1718 214.347 17.1718ZM102.146 74.4388H83.9579V23.0751C83.9579 19.3165 81.77 17.1629 77.9537 17.1629C74.1382 17.1629 71.9496 19.3165 71.9496 23.0751V85.7098H102.146C105.844 85.7098 107.966 83.6558 107.966 80.075C107.966 76.4942 105.844 74.4388 102.146 74.4388ZM42.7128 49.2528H29.5018V65.053C29.5018 69.9011 25.5578 73.8457 20.709 73.8457C15.861 73.8457 11.917 69.9011 11.917 65.053V29.0799H42.7128C48.2755 29.0799 52.8003 33.604 52.8003 39.1653C52.8003 44.7287 48.2755 49.2528 42.7128 49.2528ZM42.7128 17.1629H0V65.053C0 76.4915 9.2719 85.7627 20.709 85.7627C32.1462 85.7627 41.4188 76.4915 41.4188 65.053V61.1698H42.7128C54.866 61.1698 64.7173 51.3191 64.7173 39.1653C64.7173 27.0135 54.866 17.1629 42.7128 17.1629Z" fill="white"/>
<path fill-rule="evenodd" clip-rule="evenodd" d="M274.86 32.5821L270.374 40.0526C281.326 43.2064 289.338 53.3028 289.338 65.2698C289.338 79.7612 277.591 91.5087 263.099 91.5087C248.608 91.5087 236.859 79.7612 236.859 65.2698C236.859 60.2227 238.286 55.5078 240.755 51.5062L240.752 51.5048L268.533 5.24418H258.634L233.443 47.1936C230.225 52.4598 228.369 58.6472 228.369 65.2698C228.369 84.4507 243.918 100 263.099 100C282.28 100 297.829 84.4507 297.829 65.2698C297.829 50.217 288.253 37.4013 274.86 32.5821ZM245.176 55.1097C243.472 58.1097 242.493 61.5731 242.493 65.2698C242.493 76.6507 251.719 85.8759 263.099 85.8759C274.479 85.8759 283.705 76.6507 283.705 65.2698C283.705 55.3438 276.687 47.057 267.342 45.1011L262.51 53.1627C262.705 53.1538 262.902 53.149 263.099 53.149C269.793 53.149 275.219 58.5758 275.219 65.2698C275.219 71.9639 269.793 77.3907 263.099 77.3907C256.405 77.3907 250.978 71.9639 250.978 65.2698C250.978 62.8321 251.698 60.5632 252.935 58.663L252.93 58.6596L288.156 0H278.258L245.167 55.1049L245.176 55.1097Z" fill="#007DFA"/>
</svg>
