<svg width="227" height="170" fill="none" xmlns="http://www.w3.org/2000/svg"><path opacity=".24" d="M181.127 48.167v88.778H58.641V48.167h122.486z" fill="#00807B"/><path fill-rule="evenodd" clip-rule="evenodd" d="M43.508 112.389h7.567v1.889h-7.567c-4.701 0-8.512-3.806-8.512-8.5V75.556h1.892v30.222a6.616 6.616 0 006.62 6.611z" fill="#004A47"/><path d="M43.508 94.445c0 4.172-3.387 7.555-7.566 7.555-4.18 0-7.567-3.383-7.567-7.555 0-4.173 3.388-7.556 7.567-7.556s7.566 3.383 7.566 7.556z" fill="#fff"/><path fill-rule="evenodd" clip-rule="evenodd" d="M33.773 90.943l5.675 5.667-1.338 1.336-5.675-5.667 1.338-1.336z" fill="#004A47"/><path fill-rule="evenodd" clip-rule="evenodd" d="M38.11 90.943l-5.675 5.667 1.338 1.336 5.675-5.667-1.338-1.336zm143.017-33.332h-7.566v-1.889h7.566c4.702 0 8.513 3.806 8.513 8.5v30.222h-1.892V64.222c0-3.651-2.964-6.61-6.621-6.61zM35.942 39.667c-9.403 0-17.025 7.61-17.025 17 0 9.388 7.622 17 17.025 17a17 17 0 0013.291-6.376l2.952 2.363a20.784 20.784 0 01-16.243 7.79c-11.492 0-20.809-9.302-20.809-20.777 0-11.476 9.317-20.778 20.809-20.778a20.784 20.784 0 0116.243 7.79l-2.952 2.364a17 17 0 00-13.291-6.376z" fill="#004A47"/><path fill-rule="evenodd" clip-rule="evenodd" d="M188.694 130.333c9.402 0 17.025-7.611 17.025-17s-7.623-17-17.025-17a17 17 0 00-13.292 6.376l-2.952-2.363a20.785 20.785 0 0116.244-7.79c11.492 0 20.808 9.302 20.808 20.777 0 11.476-9.316 20.778-20.808 20.778a20.783 20.783 0 01-16.244-7.791l2.952-2.363a16.997 16.997 0 0013.292 6.376z" fill="#004A47"/><path fill-rule="evenodd" clip-rule="evenodd" d="M175.452 38.722v92.556H49.183V38.722h126.269zm-3.783 3.778H52.967v85h118.702v-85z" fill="#00807B"/><path fill-rule="evenodd" clip-rule="evenodd" d="M113.5 62.776l24.068 42.057H89.432L113.5 62.776zm0 7.614l-17.549 30.666h35.098L113.5 70.391z" fill="#00807B"/><path fill-rule="evenodd" clip-rule="evenodd" d="M111.608 91.611V80.278h3.784V91.61h-3.784zm3.784 1.889v3.778h-3.784V93.5h3.784z" fill="#00807B"/><path fill-rule="evenodd" clip-rule="evenodd" d="M28.567 56.667a8.514 8.514 0 007.375 4.25c3.146 0 5.9-1.706 7.374-4.25a8.514 8.514 0 00-7.374-4.25 8.514 8.514 0 00-7.375 4.25zm18.914 0a12.3 12.3 0 00-11.54-8.028 12.3 12.3 0 00-11.539 8.028 12.3 12.3 0 0011.54 8.028 12.3 12.3 0 0011.539-8.028z" fill="#004A47"/><path d="M38.78 56.667a2.835 2.835 0 01-2.838 2.833 2.835 2.835 0 01-2.838-2.833 2.835 2.835 0 012.838-2.834 2.835 2.835 0 012.837 2.834z" fill="#004A47"/><path fill-rule="evenodd" clip-rule="evenodd" d="M186.802 106.958a4.017 4.017 0 00-4.02 4.014c0 2.217 1.8 4.014 4.02 4.014 2.22 0 4.02-1.797 4.02-4.014 0-2.217-1.8-4.014-4.02-4.014zm-7.33 4.014c0-4.042 3.282-7.319 7.33-7.319 4.049 0 7.33 3.277 7.33 7.319a7.277 7.277 0 01-1.109 3.874l5.354 5.346-2.341 2.338-5.354-5.346a7.306 7.306 0 01-3.88 1.108c-4.048 0-7.33-3.277-7.33-7.32z" fill="#004A47"/><path d="M196.26 75.556c0 4.172-3.387 7.555-7.566 7.555s-7.567-3.383-7.567-7.555c0-4.173 3.388-7.556 7.567-7.556s7.566 3.383 7.566 7.556z" fill="#fff"/><path fill-rule="evenodd" clip-rule="evenodd" d="M186.525 72.054l5.675 5.667-1.338 1.336-5.675-5.667 1.338-1.336z" fill="#004A47"/><path fill-rule="evenodd" clip-rule="evenodd" d="M190.862 72.054l-5.675 5.667 1.338 1.336 5.675-5.667-1.338-1.336z" fill="#004A47"/><path fill-rule="evenodd" clip-rule="evenodd" d="M115.392 127.5v17.944h18.916v3.778H92.692v-3.778h18.916V127.5h3.784z" fill="#00807B"/></svg>