<svg xmlns="http://www.w3.org/2000/svg" width="24" height="24" fill="none"><path fill="#111" d="M21 8V3h-2v5zm0 1v2h-2V9z"/><path fill="#111" d="M19.586 19.516A9.97 9.97 0 0 0 22 13h-2a8 8 0 0 1-1.361 4.467l-3.384-2.559a4.01 4.01 0 0 0 .034-3.752l1.934-1.934-1.415-1.414-1.858 1.858a4.001 4.001 0 0 0-5.66 5.365l-2.95 2.405A8.003 8.003 0 0 1 15.956 6.044l1.456-1.456c-3.873-2.496-9.093-2.05-12.483 1.34-3.725 3.726-3.897 9.658-.515 13.588l.635.738 4.665-3.803a4.01 4.01 0 0 0 4.168-.073l5.092 3.85zm-9.262-7.93a2 2 0 1 1 2.828 2.828 2 2 0 0 1-2.828-2.828"/></svg>