<svg width="29" height="30" xmlns="http://www.w3.org/2000/svg"><g fill="#fff" fill-rule="evenodd"><path d="M6.18 10.31h16.504V6.997H6.18zm0 6.07h11.649v-3.313H6.18z"/><path d="M25.362 17.4a1.953 1.953 0 01-1.95 1.951H5.264a1.953 1.953 0 01-1.951-1.95V5.599c0-1.075.875-1.95 1.95-1.95H23.41c1.076 0 1.951.875 1.951 1.95v11.802zM23.412.338H5.264A5.27 5.27 0 000 5.599v11.802a5.27 5.27 0 005.265 5.263h2.758c-1.077 1.722-2.531 3.205-4.423 4.558l1.928 2.694c2.832-2.026 4.88-4.393 6.232-7.252h11.65a5.27 5.27 0 005.265-5.263V5.599A5.27 5.27 0 0023.411.337z"/></g></svg>