<svg width="215" height="100" viewBox="0 0 215 100" fill="none" xmlns="http://www.w3.org/2000/svg">
<path fill-rule="evenodd" clip-rule="evenodd" d="M125.9 85.4885C123.267 83.2184 121.952 80.3407 121.952 76.8521V51.4859H112.97V39.7404H118.596C121.03 39.7404 122.248 38.5238 122.248 36.0885V26.7119L136.659 23.5534V39.7404H148.009V51.4859H136.659V73.3976C136.659 75.7015 137.974 76.8521 140.607 76.8521C142.119 76.8521 143.568 76.4911 144.949 75.7664L147.91 86.5248C144.949 88.1041 141.362 88.8937 137.152 88.8937C132.282 88.8937 128.531 87.7586 125.9 85.4885Z" fill="#FFC421"/>
<path fill-rule="evenodd" clip-rule="evenodd" d="M152.993 39.7405H168.39L178.655 72.2132L188.229 39.7405H203.627L185.762 87.5119H170.759L152.993 39.7405Z" fill="#FFC421"/>
<path fill-rule="evenodd" clip-rule="evenodd" d="M77.0395 75.512C76.3805 80.9421 72.194 85.2164 66.7636 85.8736C66.7636 85.8736 58.1426 87.2097 45.4545 87.2097C32.7652 87.2097 24.1455 85.8736 24.1455 85.8736C18.7153 85.2164 14.5296 80.9421 13.8699 75.512C13.8699 75.512 12.5577 65.8271 12.5577 54.312C12.5577 42.7967 13.8699 33.112 13.8699 33.112C14.5296 27.6824 18.7153 23.4081 24.1455 22.7528C24.1455 22.7528 32.7652 21.4156 45.4545 21.4156C58.1426 21.4156 66.7636 22.7528 66.7636 22.7528C72.194 23.4081 76.3805 27.6824 77.0395 33.112C77.0395 33.112 78.3532 42.7967 78.3532 54.312C78.3532 65.8271 77.0395 75.512 77.0395 75.512ZM89.0964 25.0196C88.1857 17.518 82.4018 11.6105 74.8964 10.7053C74.8964 10.7053 62.9865 8.85831 45.4545 8.85831C27.9221 8.85831 16.0114 10.7053 16.0114 10.7053C8.50753 11.6105 2.72364 17.518 1.81377 25.0196C1.81377 25.0196 0 38.403 0 54.3121C0 70.2227 1.81377 83.6051 1.81377 83.6051C2.72364 91.1066 8.50753 97.0126 16.0114 97.9199C16.0114 97.9199 27.9221 99.7674 45.4545 99.7674C62.9865 99.7674 74.8964 97.9199 74.8964 97.9199C82.4018 97.0126 88.1857 91.1066 89.0964 83.6051C89.0964 83.6051 90.9091 70.2227 90.9091 54.3121C90.9091 38.403 89.0964 25.0196 89.0964 25.0196Z" fill="#FFC421"/>
<path fill-rule="evenodd" clip-rule="evenodd" d="M50.2614 45.8048C52.2448 45.5222 54.1835 45.3993 56.4993 45.4419C58.7403 45.4905 61.1045 45.7063 63.1993 46.0918C63.1993 46.0918 63.884 46.2554 63.884 45.5237V40.8001C63.884 40.3669 63.3349 40.2313 63.3349 40.2313C61.0393 39.6289 58.765 39.2918 56.5159 39.2435C54.3962 39.2063 52.2848 39.4162 50.1767 39.8759C50.1767 39.8759 49.6515 40.0388 49.6515 40.5017V45.1736C49.6515 46.0411 50.2614 45.8048 50.2614 45.8048Z" fill="#FFC421"/>
<path fill-rule="evenodd" clip-rule="evenodd" d="M33.7519 48.6941C33.7519 48.6941 40.8412 48.6858 40.8412 42.7372C40.8412 36.7917 33.7519 36.7834 33.7519 36.7834C33.7519 36.7834 26.6623 36.7917 26.6623 42.7372C26.6623 48.6858 33.7519 48.6941 33.7519 48.6941Z" fill="#FFC421"/>
<path fill-rule="evenodd" clip-rule="evenodd" d="M64.4312 60.6934C61.9691 62.2409 54.7797 66.1835 45.4545 66.1835C36.1288 66.1835 28.9408 62.2409 26.4782 60.6934C26.4782 60.6934 25.5577 60.0409 25.5577 61.2531V63.6736C25.5577 64.4006 26.3683 65.1676 26.3683 65.1676C28.7979 67.065 36.4055 72.3796 45.4545 72.3843C54.5021 72.3796 62.107 67.065 64.541 65.1676C64.541 65.1676 65.3509 64.4006 65.3509 63.6736V61.2531C65.3509 60.0409 64.4312 60.6934 64.4312 60.6934Z" fill="#FFC421"/>
<path fill-rule="evenodd" clip-rule="evenodd" d="M159.079 26.4728H164.497V0.472808H159.079V26.4728ZM147.043 13.2003H143.588V8.87299H147.043V5.96364C147.043 4.02467 147.57 2.54545 148.625 1.52727C149.679 0.509091 151.212 0 153.225 0C154.679 0 155.952 0.242857 157.043 0.727273L156.134 5.01818C155.867 4.89714 155.534 4.8 155.134 4.72727C154.734 4.65455 154.4 4.61818 154.134 4.61818C153.503 4.61818 153.055 4.78208 152.788 5.10909C152.521 5.43636 152.388 5.90364 152.388 6.50909V8.87299H156.498V13.2003H152.498V26.4727H147.043V13.2003Z" fill="white"/>
<path fill-rule="evenodd" clip-rule="evenodd" d="M174.065 21.3456C174.756 22.1456 175.634 22.5456 176.701 22.5456C177.792 22.5456 178.683 22.1519 179.374 21.3638C180.065 20.5763 180.41 19.3456 180.41 17.6729C180.41 15.9519 180.059 14.6973 179.356 13.9093C178.652 13.1217 177.768 12.7274 176.701 12.7274C175.659 12.7274 174.786 13.1339 174.083 13.9456C173.379 14.7584 173.029 16.0002 173.029 17.6729C173.029 19.3217 173.374 20.5456 174.065 21.3456ZM172.101 26.0183C170.707 25.3035 169.592 24.2427 168.756 22.8364C167.919 21.4307 167.501 19.7216 167.501 17.7092C167.501 15.6972 167.919 13.9762 168.756 12.5455C169.592 11.1154 170.707 10.0364 172.101 9.30917C173.495 8.5819 175.004 8.21826 176.629 8.21826C178.277 8.21826 179.81 8.57618 181.229 9.29099C182.647 10.0066 183.786 11.0793 184.647 12.5092C185.507 13.9398 185.938 15.6609 185.938 17.6728C185.938 19.6364 185.519 21.3276 184.683 22.7458C183.847 24.164 182.719 25.2427 181.301 25.9822C179.883 26.7211 178.338 27.091 176.665 27.091C175.016 27.091 173.495 26.7331 172.101 26.0183Z" fill="white"/>
<path fill-rule="evenodd" clip-rule="evenodd" d="M186.704 8.87277H192.45L195.322 19.3819L198.413 8.87277H202.413L205.431 19.3819L208.413 8.87277H214.086L208.231 26.4728H203.504L200.413 15.9637L197.286 26.4728H192.522L186.704 8.87277Z" fill="white"/>
</svg>
