<svg width="250" height="100" viewBox="0 0 250 100" fill="none" xmlns="http://www.w3.org/2000/svg">
<path fill-rule="evenodd" clip-rule="evenodd" d="M71.0309 61.9407C71.0309 61.9407 71.9221 61.0973 71.9221 60.2976V57.6347C71.9221 56.3014 70.9099 57.0191 70.9099 57.0191C68.2019 58.7212 60.2936 63.0581 50.0358 63.0581C39.7775 63.0581 31.8706 58.7212 29.1617 57.0191C29.1617 57.0191 28.1489 56.3014 28.1489 57.6347V60.2976C28.1489 61.0973 29.0406 61.9407 29.0406 61.9407C31.7135 64.0276 40.082 69.8738 50.0358 69.8787C59.9886 69.8738 68.3532 64.0276 71.0309 61.9407ZM37.1627 30.7178C37.1627 30.7178 29.3643 30.727 29.3643 37.2663C29.3643 43.81 37.1627 43.8193 37.1627 43.8193C37.1627 43.8193 44.9612 43.81 44.9612 37.2663C44.9612 30.727 37.1627 30.7178 37.1627 30.7178ZM70.3086 35.1359C70.3086 34.6594 69.7037 34.5103 69.7037 34.5103C67.1792 33.8475 64.6771 33.4768 62.2029 33.4236C59.8719 33.3826 57.5492 33.6134 55.23 34.1193C55.23 34.1193 54.6523 34.2982 54.6523 34.8077V39.947C54.6523 40.9009 55.3232 40.6408 55.3232 40.6408C57.5043 40.3301 59.6376 40.1949 62.1848 40.242C64.6503 40.2947 67.2509 40.5327 69.555 40.9566C69.555 40.9566 70.3086 41.1364 70.3086 40.3316V35.1359ZM73.4395 84.7164C73.4395 84.7164 63.9565 86.1865 49.9999 86.1865C36.0419 86.1865 26.5598 84.7164 26.5598 84.7164C20.5864 83.9943 15.9818 79.2924 15.2563 73.319C15.2563 73.3175 13.8134 62.6654 13.8134 49.999C13.8134 37.3323 15.2563 26.6804 15.2563 26.6789C15.9818 20.7065 20.5864 16.005 26.5598 15.2844C26.5598 15.2844 36.0419 13.8127 49.9999 13.8127C63.9565 13.8127 73.4395 15.2844 73.4395 15.2844C79.4134 16.005 84.0185 20.7065 84.743 26.6789C84.743 26.6804 86.1882 37.3323 86.1882 49.999C86.1882 62.6654 84.743 73.3175 84.743 73.319C84.0185 79.2924 79.4134 83.9943 73.4395 84.7164ZM82.3856 2.03228C82.3856 2.03228 69.2846 0 49.9999 0C30.7144 0 17.6124 2.03228 17.6124 2.03228C9.35832 3.02769 2.99596 9.52597 1.99446 17.7776C1.99373 17.7788 0 32.4987 0 49.9991C0 67.5008 1.99373 82.2197 1.99446 82.2214C2.99596 90.4735 9.35832 96.9706 17.6124 97.9675C17.6124 97.9675 30.7144 100 49.9999 100C69.2846 100 82.3856 97.9675 82.3856 97.9675C90.6414 96.9706 97.0033 90.4735 98.0053 82.2214C98.0053 82.2197 100 67.5008 100 49.9991C100 32.4987 98.0053 17.7788 98.0053 17.7776C97.0033 9.52597 90.6414 3.02769 82.3856 2.03228Z" fill="white"/>
<path fill-rule="evenodd" clip-rule="evenodd" d="M139.167 38.45C139.167 42.5833 135.967 45.0833 130.667 45.0833H120V21.25H130.7C135.567 21.25 138.3 23.5167 138.3 27.0833C138.3 29.4833 137.067 31.3167 134.833 32.2833V32.3833C137.933 33.55 139.167 35.85 139.167 38.45ZM125.233 30.7833H130.133C131.7 30.7833 132.833 29.85 132.833 28.1167C132.833 26.3167 131.7 25.45 130.167 25.45H125.233V30.7833ZM130.867 40.7503H125.233V34.6836H130.767C132.5 34.6836 133.7 35.9169 133.7 37.7836C133.7 39.6169 132.533 40.7503 130.867 40.7503ZM151.7 43.1169C150.7 44.6169 149.133 45.5502 147 45.5502C144.3 45.5502 141.5 44.0502 141.5 40.1835V28.9502H146.467V39.0169C146.467 40.4835 147.267 41.4835 148.733 41.4835C150.367 41.4835 151.733 40.3835 151.733 37.6169V28.9502H156.733V45.0835H151.733V43.1169H151.7ZM166.434 45.6496C171.5 45.6496 173.5 43.1163 173.5 40.1829C173.5 36.7829 170.633 35.7829 168 35.1496C167.799 35.1026 167.603 35.0584 167.413 35.0155L167.411 35.0152C165.713 34.6321 164.5 34.3585 164.5 33.2496C164.5 32.4163 165.167 31.8496 166.233 31.8496C167.9 31.8496 168.967 33.1163 169.434 34.0829L173.5 32.6829C172.867 30.7496 170.8 28.3496 166.2 28.3496C162.034 28.3496 159.367 30.3163 159.367 33.6829C159.367 36.8516 161.729 37.8352 164.286 38.468L164.526 38.5263C164.606 38.5455 164.686 38.5643 164.767 38.5829L165.046 38.6468C166.945 39.0796 168.4 39.4114 168.4 40.6829C168.4 41.5829 167.633 42.0829 166.434 42.0829C164.367 42.0829 163.4 40.6829 163.1 39.5496L158.833 40.8829C159.333 43.1496 161.467 45.6496 166.434 45.6496ZM181.6 24.2838C181.6 25.9171 180.267 27.2171 178.4 27.2171C176.567 27.2171 175.2 25.9838 175.2 24.2838C175.2 22.5838 176.6 21.3838 178.4 21.3838C180.267 21.3838 181.6 22.6838 181.6 24.2838ZM180.867 45.0835V28.9502H175.9V45.0835H180.867ZM188.867 36.5168V45.0835H183.9V28.9501H188.867V30.9835H188.9C189.733 29.5835 191.467 28.4835 193.7 28.4835C196.467 28.4835 199.1 29.9835 199.1 33.8501V45.0835H194.133V35.0835C194.133 33.6168 193.367 32.5501 191.867 32.5501C190.2 32.5501 188.867 33.6835 188.867 36.5168ZM209.867 45.6496C214 45.6496 216.367 43.3496 217.2 41.3163L213.267 39.3163C212.9 40.4163 211.933 41.5829 210.067 41.5829C208.133 41.5829 206.633 40.3163 206.5 38.4163H217.6V36.7163C217.6 31.4163 214.833 28.3496 209.933 28.3496C205 28.3496 201.367 31.4496 201.367 37.0829C201.367 42.8829 205.3 45.6496 209.867 45.6496ZM206.667 35.1493H212.433C212.366 33.0827 211.5 31.916 209.633 31.916C207.8 31.916 206.767 33.1827 206.667 35.1493ZM226.633 45.6496C231.7 45.6496 233.7 43.1163 233.7 40.1829C233.7 36.7829 230.833 35.7829 228.2 35.1496C227.998 35.1025 227.801 35.0582 227.611 35.0152C225.913 34.6321 224.7 34.3585 224.7 33.2496C224.7 32.4163 225.367 31.8496 226.433 31.8496C228.1 31.8496 229.167 33.1163 229.633 34.0829L233.7 32.6829C233.067 30.7496 231 28.3496 226.4 28.3496C222.233 28.3496 219.567 30.3163 219.567 33.6829C219.567 36.8516 221.929 37.8352 224.485 38.468L224.726 38.5263C224.806 38.5455 224.886 38.5643 224.967 38.5829L225.246 38.6468C227.145 39.0796 228.6 39.4114 228.6 40.6829C228.6 41.5829 227.833 42.0829 226.633 42.0829C224.567 42.0829 223.6 40.6829 223.3 39.5496L219.033 40.8829C219.533 43.1496 221.667 45.6496 226.633 45.6496ZM249.7 40.1829C249.7 43.1163 247.7 45.6496 242.633 45.6496C237.667 45.6496 235.533 43.1496 235.033 40.8829L239.3 39.5496C239.6 40.6829 240.567 42.0829 242.633 42.0829C243.833 42.0829 244.6 41.5829 244.6 40.6829C244.6 39.4114 243.145 39.0796 241.246 38.6468L240.967 38.5829L240.846 38.5548L240.726 38.5263L240.485 38.468C237.929 37.8352 235.567 36.8516 235.567 33.6829C235.567 30.3163 238.233 28.3496 242.4 28.3496C247 28.3496 249.067 30.7496 249.7 32.6829L245.633 34.0829C245.167 33.1163 244.1 31.8496 242.433 31.8496C241.367 31.8496 240.7 32.4163 240.7 33.2496C240.7 34.3585 241.913 34.6321 243.611 35.0152C243.801 35.0582 243.998 35.1025 244.2 35.1496C246.833 35.7829 249.7 36.7829 249.7 40.1829ZM123.433 78.4163V69.4163H128.767C134.467 69.4163 137.167 65.9163 137.167 61.883C137.167 57.7497 134.367 54.583 129.1 54.583H120.5V78.4163H123.433ZM123.433 66.7165H129.233C132.3 66.7165 134.167 64.9832 134.167 61.9165C134.167 58.9498 132.267 57.3165 129.2 57.3165H123.433V66.7165ZM145.3 78.8833C148.433 78.8833 150.167 77.1833 150.833 75.0833H150.867C150.867 77.6167 151.5 78.85 154.233 78.85C154.333 78.85 154.6 78.8167 154.867 78.7833V76.5167C153.733 76.65 153.4 75.95 153.433 74.95L153.633 67.9833C153.767 63.7833 151 61.9833 147.367 61.9833C143.3 61.9833 141.333 64.1833 140.667 65.9833L143.1 67.2833C143.533 66.05 144.767 64.3167 147.367 64.3167C149.433 64.3167 150.933 65.45 150.933 67.15C150.933 68.2167 150.367 68.35 148.067 68.6833C144.767 69.1833 139.9 69.9833 139.9 74.25C139.9 77.2167 142.2 78.8833 145.3 78.8833ZM142.733 74.1498C142.733 75.7165 143.7 76.5498 145.5 76.5498C148.833 76.5498 150.833 73.8165 150.9 71.3832L150.933 69.8165C150.567 70.2498 149.833 70.5498 148.9 70.7165L148.657 70.7631C144.812 71.499 142.733 71.8969 142.733 74.1498ZM161.067 78.4167V70.1833C161.067 66.15 162.733 64.7167 164.5 64.7167C165.1 64.7167 165.8 64.85 166.4 65.1833L166.933 62.55C166.333 62.1833 165.567 61.9833 164.867 61.9833C162.833 61.9833 161.667 63.5833 161.067 65.0167V62.4833H158.233V78.4167H161.067ZM178.833 78.2172C178.033 78.5505 177.167 78.8505 176 78.8505C173.3 78.8505 171.967 77.2172 171.967 75.2505V64.8172H168.867V62.4839H170.967C171.7 62.4839 171.967 62.2172 171.967 61.4839V58.2172L174.767 57.6172V62.4839H178.6V64.8172H174.767V74.7505C174.767 75.7839 175.233 76.4172 176.467 76.4172C176.933 76.4172 177.633 76.3172 178.233 76.0172L178.833 78.2172ZM184.9 78.4167V69.95C184.9 66.3833 186.933 64.45 189.333 64.45C191.4 64.45 192.5 65.8167 192.5 67.8833V78.4167H195.333V67.35C195.333 63.5833 192.767 61.9833 190 61.9833C187.9 61.9833 185.867 62.8167 184.933 65.05H184.9V62.4833H182.067V78.4167H184.9ZM212.867 74.35C212.033 76.4833 209.967 78.8833 206.1 78.8833C201.867 78.8833 198.567 76.05 198.567 70.55C198.567 65.1833 201.7 61.9833 206.233 61.9833C210.4 61.9833 213 64.6833 213 69.6833V71.0167H201.4C201.5 73.9833 203.2 76.4833 206.167 76.4833C208.733 76.4833 210.1 74.7167 210.6 73.25L212.867 74.35ZM210.167 68.8497H201.5C201.867 66.2831 203.2 64.3164 205.967 64.3164C208.833 64.3164 209.967 66.1831 210.167 68.8497ZM219.333 70.1833V78.4167H216.5V62.4833H219.333V65.0167C219.933 63.5833 221.1 61.9833 223.133 61.9833C223.833 61.9833 224.6 62.1833 225.2 62.55L224.667 65.1833C224.067 64.85 223.367 64.7167 222.767 64.7167C221 64.7167 219.333 66.15 219.333 70.1833Z" fill="#291D18"/>
</svg>
