<svg width="109" height="94" viewBox="0 0 109 94" fill="none" xmlns="http://www.w3.org/2000/svg">
<path d="M0.398273 93.3721H3.97967V81.8837H4.00292L10.7936 93.3721H14.7239V76.7442H11.1657V88.2093H11.1192L4.39827 76.7442H0.398273V93.3721Z" fill="#291D18"/>
<path d="M22.5249 93.7674C25.2924 93.7674 26.99 92.3953 27.711 90.7442L24.9668 89.3488C24.6877 90.1861 23.9668 90.9302 22.7342 90.9302C21.3854 90.9302 20.3389 90.0465 20.2458 88.7209H27.99V87.5349C27.99 83.8372 26.1528 81.6977 22.4551 81.6977C19.2923 81.6977 16.6644 83.8605 16.6644 87.7907C16.6644 92.0465 19.6644 93.7674 22.5249 93.7674ZM20.3621 86.4884C20.4319 85.0698 21.1528 84.1861 22.4319 84.1861C23.7342 84.1861 24.3389 85 24.3854 86.4884H20.3621Z" fill="#291D18"/>
<path d="M34.3955 93.6977C35.349 93.6977 36.1862 93.5349 36.9304 93.1395L36.2328 90.6047C35.8839 90.7907 35.4653 90.8605 35.2095 90.8605C34.5351 90.8605 34.2793 90.5581 34.2793 90.0465V84.8837H36.9537V82.1163H34.2793V78.3023L30.8839 79.0465V81.2558C30.8839 81.8372 30.6049 82.1163 30.0235 82.1163H28.6979V84.8837H30.8142V90.8605C30.8142 92.4186 32.0002 93.6977 34.3955 93.6977Z" fill="#291D18"/>
<path d="M41.4987 93.3721H44.5453L46.5453 86.6512L48.522 93.3721H51.5453L55.2894 82.1163H51.6615L49.7546 88.8372L47.8243 82.1163H45.2662L43.2894 88.8372L41.4522 82.1163H37.7778L41.4987 93.3721Z" fill="#291D18"/>
<path d="M61.4739 93.7674C64.2413 93.7674 65.939 92.3953 66.6599 90.7442L63.9157 89.3488C63.6366 90.1861 62.9157 90.9302 61.6832 90.9302C60.3343 90.9302 59.2878 90.0465 59.1948 88.7209H66.939V87.5349C66.939 83.8372 65.1018 81.6977 61.4041 81.6977C58.2413 81.6977 55.6134 83.8605 55.6134 87.7907C55.6134 92.0465 58.6134 93.7674 61.4739 93.7674ZM59.3111 86.4884C59.3808 85.0698 60.1018 84.1861 61.3808 84.1861C62.6832 84.1861 63.2878 85 63.3343 86.4884H59.3111Z" fill="#291D18"/>
<path d="M73.3445 93.6977C74.298 93.6977 75.1352 93.5349 75.8794 93.1395L75.1817 90.6047C74.8329 90.7907 74.4143 90.8605 74.1585 90.8605C73.484 90.8605 73.2282 90.5581 73.2282 90.0465V84.8837H75.9026V82.1163H73.2282V78.3023L69.8329 79.0465V81.2558C69.8329 81.8372 69.5538 82.1163 68.9724 82.1163H67.6468V84.8837H69.7631V90.8605C69.7631 92.4186 70.9491 93.6977 73.3445 93.6977Z" fill="#291D18"/>
<path d="M82.7311 93.7674C85.4986 93.7674 87.1962 92.3953 87.9172 90.7442L85.173 89.3488C84.8939 90.1861 84.173 90.9302 82.9404 90.9302C81.5916 90.9302 80.5451 90.0465 80.4521 88.7209H88.1962V87.5349C88.1962 83.8372 86.359 81.6977 82.6614 81.6977C79.4986 81.6977 76.8707 83.8605 76.8707 87.7907C76.8707 92.0465 79.8707 93.7674 82.7311 93.7674ZM80.5683 86.4884C80.6381 85.0698 81.359 84.1861 82.6381 84.1861C83.9404 84.1861 84.5451 85 84.5916 86.4884H80.5683Z" fill="#291D18"/>
<path d="M89.9419 93.3721H93.407V88.5814C93.407 86.3954 94.0116 85.0698 95.6163 85.0698C96.0582 85.0698 96.6396 85.1628 97.1047 85.3488L97.6861 82.1628C97.1744 81.8605 96.6163 81.7674 96.0116 81.7674C94.8954 81.7674 93.9419 82.6977 93.4302 83.6512H93.407V82.1163H89.9419V93.3721Z" fill="#291D18"/>
<path d="M103.22 93.7674C106.29 93.7674 108.173 92.3256 108.173 89.9535C108.173 88.093 106.987 87.0465 104.313 86.4884C102.104 86.0233 101.685 85.6744 101.685 85.0465C101.685 84.4884 102.173 84.1395 102.964 84.1395C104.104 84.1395 104.755 84.9302 104.987 85.7442L108.173 84.7209C107.499 82.7907 105.638 81.6977 103.011 81.6977C100.057 81.6977 98.2896 83.0465 98.2896 85.3256C98.2896 87.1861 99.4989 88.2558 102.011 88.7674C104.197 89.2093 104.731 89.6046 104.731 90.3023C104.731 90.9767 104.22 91.3023 103.336 91.3023C102.034 91.3023 101.476 90.5581 101.22 89.4651L97.9175 90.4419C98.4292 92.5349 100.359 93.7674 103.22 93.7674Z" fill="#291D18"/>
<path fill-rule="evenodd" clip-rule="evenodd" d="M68.6145 43.2138C68.6145 43.2138 69.2362 42.6254 69.2362 42.0674V40.2096C69.2362 39.2794 68.53 39.7801 68.53 39.7801C66.6407 40.9676 61.1233 43.9934 53.9667 43.9934C46.8097 43.9934 41.2933 40.9676 39.4033 39.7801C39.4033 39.7801 38.6968 39.2794 38.6968 40.2096V42.0674C38.6968 42.6254 39.3189 43.2138 39.3189 43.2138C41.1837 44.6698 47.0222 48.7485 53.9667 48.7519C60.9105 48.7485 66.7463 44.6698 68.6145 43.2138ZM44.9857 21.4316C44.9857 21.4316 39.5449 21.4381 39.5449 26.0004C39.5449 30.5658 44.9857 30.5722 44.9857 30.5722C44.9857 30.5722 50.4265 30.5658 50.4265 26.0004C50.4265 21.4381 44.9857 21.4316 44.9857 21.4316ZM68.1105 24.5133C68.1105 24.1808 67.6884 24.0768 67.6884 24.0768C65.9271 23.6144 64.1815 23.3558 62.4553 23.3187C60.8291 23.2901 59.2086 23.4511 57.5905 23.8041C57.5905 23.8041 57.1875 23.9289 57.1875 24.2843V27.8699C57.1875 28.5354 57.6555 28.3539 57.6555 28.3539C59.1773 28.1372 60.6656 28.0429 62.4427 28.0757C64.1628 28.1125 65.9772 28.2785 67.5847 28.5742C67.5847 28.5742 68.1105 28.6997 68.1105 28.1382V24.5133ZM70.2951 59.1045C70.2951 59.1045 63.679 60.1301 53.9418 60.1301C44.2037 60.1301 37.5883 59.1045 37.5883 59.1045C33.4208 58.6007 30.2083 55.3203 29.7021 51.1528C29.7021 51.1528 28.6954 43.72 28.6954 34.883C28.6954 26.0458 29.7021 18.6132 29.7021 18.6132C30.2083 14.4464 33.4208 11.1663 37.5883 10.6635C37.5883 10.6635 44.2037 9.63674 53.9418 9.63674C63.679 9.63674 70.2951 10.6635 70.2951 10.6635C74.4629 11.1663 77.6757 14.4464 78.1812 18.6132C78.1812 18.6132 79.1894 26.0458 79.1894 34.883C79.1894 43.72 78.1812 51.1528 78.1812 51.1528C77.6757 55.3203 74.4629 58.6007 70.2951 59.1045ZM76.5365 1.41787C76.5365 1.41787 67.3962 0 53.9417 0C40.4868 0 31.3458 1.41787 31.3458 1.41787C25.5872 2.11234 21.1483 6.64603 20.4496 12.403C20.4496 12.403 19.0581 22.6735 19.0581 34.8831C19.0581 47.0936 20.4496 57.3638 20.4496 57.3638C21.1483 63.1211 25.5872 67.6539 31.3458 68.3494C31.3458 68.3494 40.4868 69.7674 53.9417 69.7674C67.3962 69.7674 76.5365 68.3494 76.5365 68.3494C82.2963 67.6539 86.7348 63.1211 87.4339 57.3638C87.4339 57.3638 88.8256 47.0936 88.8256 34.8831C88.8256 22.6735 87.4339 12.403 87.4339 12.403C86.7348 6.64603 82.2963 2.11234 76.5365 1.41787Z" fill="white"/>
</svg>
