<svg width="100" height="100" viewBox="0 0 100 100" fill="none" xmlns="http://www.w3.org/2000/svg">
<path fill-rule="evenodd" clip-rule="evenodd" d="M71.0309 61.9403C71.0309 61.9403 71.9221 61.0969 71.9221 60.2972V57.6344C71.9221 56.301 70.9099 57.0187 70.9099 57.0187C68.2019 58.7208 60.2936 63.0577 50.0358 63.0577C39.7774 63.0577 31.8706 58.7208 29.1616 57.0187C29.1616 57.0187 28.1489 56.301 28.1489 57.6344V60.2972C28.1489 61.0969 29.0406 61.9403 29.0406 61.9403C31.7135 64.0272 40.082 69.8735 50.0358 69.8783C59.9885 69.8735 68.3532 64.0272 71.0309 61.9403ZM37.1627 30.7181C37.1627 30.7181 29.3642 30.7273 29.3642 37.2666C29.3642 43.8103 37.1627 43.8196 37.1627 43.8196C37.1627 43.8196 44.9611 43.8103 44.9611 37.2666C44.9611 30.7273 37.1627 30.7181 37.1627 30.7181ZM70.3086 35.1362C70.3086 34.6596 69.7036 34.5105 69.7036 34.5105C67.1791 33.8478 64.6771 33.4771 62.2029 33.4239C59.8719 33.3829 57.5492 33.6137 55.2299 34.1196C55.2299 34.1196 54.6523 34.2985 54.6523 34.808V39.9473C54.6523 40.9012 55.3232 40.6411 55.3232 40.6411C57.5043 40.3304 59.6376 40.1952 62.1848 40.2423C64.6502 40.295 67.2509 40.533 69.555 40.9568C69.555 40.9568 70.3086 41.1367 70.3086 40.3319V35.1362ZM73.4395 84.7166C73.4395 84.7166 63.9565 86.1867 49.9999 86.1867C36.0418 86.1867 26.5598 84.7166 26.5598 84.7166C20.5864 83.9945 15.9818 79.2926 15.2563 73.3192C15.2563 73.3192 13.8133 62.6655 13.8133 49.9991C13.8133 37.3325 15.2563 26.6791 15.2563 26.6791C15.9818 20.7067 20.5864 16.0052 26.5598 15.2846C26.5598 15.2846 36.0418 13.8129 49.9999 13.8129C63.9565 13.8129 73.4395 15.2846 73.4395 15.2846C79.4134 16.0052 84.0185 20.7067 84.743 26.6791C84.743 26.6791 86.1881 37.3325 86.1881 49.9991C86.1881 62.6655 84.743 73.3192 84.743 73.3192C84.0185 79.2926 79.4134 83.9945 73.4395 84.7166ZM82.3856 2.03228C82.3856 2.03228 69.2846 0 49.9999 0C30.7144 0 17.6124 2.03228 17.6124 2.03228C9.35832 3.02769 2.99596 9.52597 1.99446 17.7776C1.99446 17.7776 0 32.4987 0 49.9991C0 67.5008 1.99446 82.2214 1.99446 82.2214C2.99596 90.4735 9.35832 96.9706 17.6124 97.9675C17.6124 97.9675 30.7144 100 49.9999 100C69.2846 100 82.3856 97.9675 82.3856 97.9675C90.6414 96.9706 97.0033 90.4735 98.0053 82.2214C98.0053 82.2214 100 67.5008 100 49.9991C100 32.4987 98.0053 17.7776 98.0053 17.7776C97.0033 9.52597 90.6414 3.02769 82.3856 2.03228Z" fill="white"/>
</svg>
