<svg width="92" height="94" viewBox="0 0 92 94" fill="none" xmlns="http://www.w3.org/2000/svg">
<path fill-rule="evenodd" clip-rule="evenodd" d="M14.2442 88.7442C14.2442 91.6279 12.0116 93.3721 8.31393 93.3721H0.87207V76.7442H8.33719C11.7325 76.7442 13.6395 78.3256 13.6395 80.814C13.6395 82.4884 12.779 83.7674 11.2209 84.4419V84.5116C13.3837 85.3256 14.2442 86.9302 14.2442 88.7442ZM4.52344 83.3958H7.94204C9.03507 83.3958 9.82576 82.7446 9.82576 81.5353C9.82576 80.2795 9.03507 79.6749 7.9653 79.6749H4.52344V83.3958ZM8.45347 90.3488H4.52323V86.1163H8.3837C9.593 86.1163 10.4302 86.9767 10.4302 88.2791C10.4302 89.5581 9.61626 90.3488 8.45347 90.3488ZM22.9883 92C22.2907 93.0465 21.1977 93.6977 19.7093 93.6977C17.8256 93.6977 15.8721 92.6512 15.8721 89.9535V82.1163H19.3372V89.1395C19.3372 90.1628 19.8953 90.8605 20.9186 90.8605C22.0581 90.8605 23.0116 90.093 23.0116 88.1628V82.1163H26.5V93.3721H23.0116V92H22.9883ZM33.2677 93.7671C36.8025 93.7671 38.1979 91.9996 38.1979 89.9531C38.1979 87.581 36.1979 86.8834 34.3607 86.4415C34.2199 86.4087 34.0827 86.3777 33.9498 86.3477C32.7649 86.0804 31.9188 85.8896 31.9188 85.1159C31.9188 84.5345 32.3839 84.1392 33.1281 84.1392C34.2909 84.1392 35.0351 85.0229 35.3607 85.6973L38.1979 84.7206C37.756 83.3717 36.3142 81.6973 33.1049 81.6973C30.1979 81.6973 28.3374 83.0694 28.3374 85.4182C28.3374 87.6289 29.9854 88.3152 31.7692 88.7566L31.9368 88.7973C31.9927 88.8107 32.0488 88.8239 32.1049 88.8368L32.2999 88.8814C33.6245 89.1834 34.6398 89.4148 34.6398 90.302C34.6398 90.9299 34.1049 91.2787 33.2677 91.2787C31.8258 91.2787 31.1514 90.302 30.9421 89.5113L27.9653 90.4415C28.3142 92.0229 29.8025 93.7671 33.2677 93.7671ZM43.8489 78.8602C43.8489 79.9997 42.9187 80.9067 41.6163 80.9067C40.3373 80.9067 39.3838 80.0463 39.3838 78.8602C39.3838 77.6742 40.3605 76.837 41.6163 76.837C42.9187 76.837 43.8489 77.7439 43.8489 78.8602ZM43.3372 93.3721V82.1163H39.8721V93.3721H43.3372ZM48.9187 87.3957V93.3725H45.4536V82.1166H48.9187V83.5352H48.942C49.5234 82.5585 50.7327 81.7911 52.2908 81.7911C54.2211 81.7911 56.0583 82.8376 56.0583 85.5352V93.3725H52.5931V86.3957C52.5931 85.3725 52.0583 84.6283 51.0118 84.6283C49.849 84.6283 48.9187 85.419 48.9187 87.3957ZM63.5699 93.7671C66.4536 93.7671 68.1048 92.1624 68.6862 90.7438L65.942 89.3485C65.6862 90.1159 65.0117 90.9299 63.7094 90.9299C62.3606 90.9299 61.3141 90.0462 61.221 88.7206H68.9652V87.5345C68.9652 83.8368 67.035 81.6973 63.6164 81.6973C60.1745 81.6973 57.6396 83.8601 57.6396 87.7903C57.6396 91.8368 60.3838 93.7671 63.5699 93.7671ZM61.3374 86.4414H65.3607C65.3141 84.9995 64.7095 84.1856 63.4072 84.1856C62.1281 84.1856 61.4072 85.0693 61.3374 86.4414ZM75.2677 93.7671C78.8025 93.7671 80.1979 91.9996 80.1979 89.9531C80.1979 87.581 78.1979 86.8834 76.3607 86.4415C76.2199 86.4087 76.0827 86.3777 75.9498 86.3477C74.7649 86.0804 73.9188 85.8896 73.9188 85.1159C73.9188 84.5345 74.3839 84.1392 75.1281 84.1392C76.2909 84.1392 77.0351 85.0229 77.3607 85.6973L80.1979 84.7206C79.756 83.3717 78.3142 81.6973 75.1049 81.6973C72.1979 81.6973 70.3374 83.0694 70.3374 85.4182C70.3374 87.6289 71.9855 88.3152 73.7692 88.7566L73.9368 88.7973C73.9608 88.8031 73.9849 88.8088 74.009 88.8145C74.041 88.822 74.0729 88.8294 74.1049 88.8368L74.2999 88.8814C75.6245 89.1834 76.6397 89.4148 76.6397 90.302C76.6397 90.9299 76.1049 91.2787 75.2677 91.2787C73.8258 91.2787 73.1514 90.302 72.9421 89.5113L69.9653 90.4415C70.3142 92.0229 71.8025 93.7671 75.2677 93.7671ZM91.3605 89.9531C91.3605 91.9996 89.9651 93.7671 86.4303 93.7671C82.9651 93.7671 81.4768 92.0229 81.1279 90.4415L84.1047 89.5113C84.314 90.302 84.9884 91.2787 86.4303 91.2787C87.2675 91.2787 87.8023 90.9299 87.8023 90.302C87.8023 89.4148 86.7871 89.1834 85.4625 88.8814C85.3982 88.8667 85.3332 88.8519 85.2675 88.8368C85.2114 88.8239 85.1553 88.8107 85.0994 88.7973L84.9318 88.7566C83.148 88.3152 81.5 87.6289 81.5 85.4182C81.5 83.0694 83.3605 81.6973 86.2675 81.6973C89.4768 81.6973 90.9186 83.3717 91.3605 84.7206L88.5233 85.6973C88.1977 85.0229 87.4535 84.1392 86.2907 84.1392C85.5465 84.1392 85.0814 84.5345 85.0814 85.1159C85.0814 85.8896 85.9275 86.0804 87.1124 86.3477C87.2453 86.3777 87.3825 86.4087 87.5233 86.4415C89.3605 86.8834 91.3605 87.581 91.3605 89.9531Z" fill="#291D18"/>
<path fill-rule="evenodd" clip-rule="evenodd" d="M60.8935 43.2138C60.8935 43.2138 61.5152 42.6254 61.5152 42.0674V40.2096C61.5152 39.2794 60.809 39.7801 60.809 39.7801C58.9197 40.9676 53.4023 43.9934 46.2457 43.9934C39.0887 43.9934 33.5723 40.9676 31.6824 39.7801C31.6824 39.7801 30.9758 39.2794 30.9758 40.2096V42.0674C30.9758 42.6254 31.5979 43.2138 31.5979 43.2138C33.4627 44.6698 39.3012 48.7485 46.2457 48.7519C53.1895 48.7485 59.0253 44.6698 60.8935 43.2138ZM37.2648 21.4316C37.2648 21.4316 31.824 21.4381 31.824 26.0004C31.824 30.5658 37.2648 30.5722 37.2648 30.5722C37.2648 30.5722 42.7056 30.5658 42.7056 26.0004C42.7056 21.4381 37.2648 21.4316 37.2648 21.4316ZM60.3895 24.5133C60.3895 24.1808 59.9674 24.0768 59.9674 24.0768C58.2062 23.6144 56.4606 23.3558 54.7344 23.3187C53.1081 23.2901 51.4876 23.4511 49.8695 23.8041C49.8695 23.8041 49.4665 23.9289 49.4665 24.2843V27.8699C49.4665 28.5354 49.9346 28.3539 49.9346 28.3539C51.4563 28.1372 52.9446 28.0429 54.7218 28.0757C56.4418 28.1125 58.2562 28.2785 59.8638 28.5742C59.8638 28.5742 60.3895 28.6997 60.3895 28.1382V24.5133ZM62.574 59.1046C62.574 59.1046 55.9579 60.1302 46.2208 60.1302C36.4826 60.1302 29.8672 59.1046 29.8672 59.1046C25.6997 58.6008 22.4872 55.3204 21.9811 51.1529C21.9811 51.1529 20.9743 43.7201 20.9743 34.8831C20.9743 26.0459 21.9811 18.6133 21.9811 18.6133C22.4872 14.4465 25.6997 11.1664 29.8672 10.6637C29.8672 10.6637 36.4826 9.63687 46.2208 9.63687C55.9579 9.63687 62.574 10.6637 62.574 10.6637C66.7418 11.1664 69.9547 14.4465 70.4601 18.6133C70.4601 18.6133 71.4684 26.0459 71.4684 34.8831C71.4684 43.7201 70.4601 51.1529 70.4601 51.1529C69.9547 55.3204 66.7418 58.6008 62.574 59.1046ZM68.8155 1.41787C68.8155 1.41787 59.6752 0 46.2208 0C32.7658 0 23.6249 1.41787 23.6249 1.41787C17.8662 2.11234 13.4273 6.64603 12.7286 12.403C12.7286 12.403 11.3371 22.6735 11.3371 34.8831C11.3371 47.0936 12.7286 57.3638 12.7286 57.3638C13.4273 63.1211 17.8662 67.6539 23.6249 68.3494C23.6249 68.3494 32.7658 69.7674 46.2208 69.7674C59.6752 69.7674 68.8155 68.3494 68.8155 68.3494C74.5753 67.6539 79.0139 63.1211 79.7129 57.3638C79.7129 57.3638 81.1046 47.0936 81.1046 34.8831C81.1046 22.6735 79.7129 12.403 79.7129 12.403C79.0139 6.64603 74.5753 2.11234 68.8155 1.41787Z" fill="#FFC421"/>
</svg>
