<svg width="100" height="100" viewBox="0 0 100 100" fill="none" xmlns="http://www.w3.org/2000/svg">
<path fill-rule="evenodd" clip-rule="evenodd" d="M0 0H100V100H0V0ZM3.84615 3.84615V96.1538H96.1538V3.84615H3.84615Z" fill="#FF9500" fill-opacity="0.16"/>
<path fill-rule="evenodd" clip-rule="evenodd" d="M50 59.6157C38.3171 59.6157 28.8462 69.0866 28.8462 80.7695H25C25 66.9624 36.1929 55.7695 50 55.7695C63.8071 55.7695 75 66.9624 75 80.7695H71.1538C71.1538 69.0866 61.6829 59.6157 50 59.6157Z" fill="#FF9500"/>
<path fill-rule="evenodd" clip-rule="evenodd" d="M49.9998 25.0005C43.6273 25.0005 38.4614 30.1664 38.4614 36.5389C38.4614 42.9114 43.6273 48.0774 49.9998 48.0774C56.3724 48.0774 61.5383 42.9114 61.5383 36.5389C61.5383 30.1664 56.3724 25.0005 49.9998 25.0005ZM34.6152 36.5389C34.6152 28.0422 41.5032 21.1543 49.9998 21.1543C58.4965 21.1543 65.3845 28.0422 65.3845 36.5389C65.3845 45.0356 58.4965 51.9235 49.9998 51.9235C41.5032 51.9235 34.6152 45.0356 34.6152 36.5389Z" fill="#FF9500"/>
</svg>
