<svg width="179" height="180" viewBox="0 0 179 180" fill="none" xmlns="http://www.w3.org/2000/svg">
<circle cx="96.3847" cy="96.885" r="79.8615" fill="#E5CFC7"/>
<path fill-rule="evenodd" clip-rule="evenodd" d="M123.384 15.518C110.891 7.55087 96.3806 3.25391 81.2385 3.25391C37.8927 3.25391 2.75391 38.3927 2.75391 81.7385C2.75391 125.084 37.8927 160.223 81.2385 160.223C124.584 160.223 159.723 125.084 159.723 81.7385C159.723 61.3418 151.908 42.1689 138.138 27.6798C137.614 27.1286 136.742 27.1064 136.191 27.6303C135.64 28.1542 135.618 29.0257 136.142 29.5769C149.43 43.5592 156.969 62.055 156.969 81.7385C156.969 123.563 123.063 157.469 81.2385 157.469C39.4136 157.469 5.50775 123.563 5.50775 81.7385C5.50775 39.9136 39.4136 6.00775 81.2385 6.00775C95.8521 6.00775 109.849 10.1528 121.903 17.8399C122.544 18.2488 123.395 18.0605 123.804 17.4193C124.213 16.7782 124.025 15.9269 123.384 15.518ZM77.1942 81.7381L41.4694 117.463C40.9317 118.001 40.9317 118.872 41.4694 119.41C42.0071 119.948 42.879 119.948 43.4167 119.41L79.1415 83.6853L116.963 121.507C117.501 122.045 118.373 122.045 118.911 121.507C119.448 120.969 119.448 120.098 118.911 119.56L81.0888 81.7381L118.911 43.9162C119.448 43.3785 119.448 42.5067 118.911 41.969C118.373 41.4313 117.501 41.4313 116.963 41.969L79.1415 79.7908L43.4167 44.066C42.879 43.5282 42.0071 43.5282 41.4694 44.066C40.9317 44.6037 40.9317 45.4755 41.4694 46.0132L77.1942 81.7381Z" fill="#291D18"/>
</svg>
