<svg width="227" height="170" viewBox="0 0 227 170" fill="none" xmlns="http://www.w3.org/2000/svg">
<path opacity="0.24" d="M181.127 48.1667L181.127 136.945L58.6415 136.945L58.6415 48.1667L181.127 48.1667Z" fill="#00807B"/>
<path fill-rule="evenodd" clip-rule="evenodd" d="M43.5083 112.389H51.075V114.278H43.5083C38.807 114.278 34.9958 110.472 34.9958 105.778V75.5556H36.8875V105.778C36.8875 109.429 39.8517 112.389 43.5083 112.389Z" fill="#004A47"/>
<path d="M43.5083 94.4445C43.5083 98.6173 40.1206 102 35.9417 102C31.7627 102 28.375 98.6173 28.375 94.4445C28.375 90.2717 31.7627 86.8889 35.9417 86.8889C40.1206 86.8889 43.5083 90.2717 43.5083 94.4445Z" fill="white"/>
<path fill-rule="evenodd" clip-rule="evenodd" d="M33.773 90.9432L39.448 96.6099L38.1104 97.9456L32.4354 92.2789L33.773 90.9432Z" fill="#004A47"/>
<path fill-rule="evenodd" clip-rule="evenodd" d="M38.1103 90.9432L32.4353 96.6099L33.7729 97.9456L39.4479 92.2789L38.1103 90.9432Z" fill="#004A47"/>
<path fill-rule="evenodd" clip-rule="evenodd" d="M181.127 57.6111H173.561V55.7222H181.127C185.829 55.7222 189.64 59.5277 189.64 64.2222V94.4444H187.748V64.2222C187.748 60.571 184.784 57.6111 181.127 57.6111Z" fill="#004A47"/>
<path fill-rule="evenodd" clip-rule="evenodd" d="M35.9416 39.6667C26.539 39.6667 18.9166 47.2779 18.9166 56.6667C18.9166 66.0555 26.539 73.6667 35.9416 73.6667C41.3172 73.6667 46.1102 71.1811 49.2334 67.2908L52.1853 69.6537C48.375 74.4 42.5137 77.4445 35.9416 77.4445C24.4495 77.4445 15.1333 68.1419 15.1333 56.6667C15.1333 45.1914 24.4495 35.8889 35.9416 35.8889C42.5137 35.8889 48.375 38.9334 52.1853 43.6797L49.2334 46.0426C46.1102 42.1523 41.3172 39.6667 35.9416 39.6667Z" fill="#004A47"/>
<path fill-rule="evenodd" clip-rule="evenodd" d="M188.694 130.333C198.096 130.333 205.719 122.722 205.719 113.333C205.719 103.944 198.096 96.3333 188.694 96.3333C183.318 96.3333 178.525 98.8189 175.402 102.709L172.45 100.346C176.26 95.6 182.122 92.5555 188.694 92.5555C200.186 92.5555 209.502 101.858 209.502 113.333C209.502 124.809 200.186 134.111 188.694 134.111C182.122 134.111 176.26 131.067 172.45 126.32L175.402 123.957C178.525 127.848 183.318 130.333 188.694 130.333Z" fill="#004A47"/>
<path fill-rule="evenodd" clip-rule="evenodd" d="M175.452 38.7222L175.452 131.278L49.1834 131.278L49.1834 38.7222L175.452 38.7222ZM171.669 42.4999L52.9667 42.4999L52.9667 127.5L171.669 127.5L171.669 42.4999Z" fill="#00807B"/>
<path fill-rule="evenodd" clip-rule="evenodd" d="M113.5 62.7761L137.568 104.833H89.4319L113.5 62.7761ZM113.5 70.3905L95.9513 101.056H131.049L113.5 70.3905Z" fill="#00807B"/>
<path fill-rule="evenodd" clip-rule="evenodd" d="M111.608 91.6112V80.2778H115.392V91.6112H111.608Z" fill="#00807B"/>
<path fill-rule="evenodd" clip-rule="evenodd" d="M115.392 93.5001L115.392 97.2778L111.608 97.2778L111.608 93.5001L115.392 93.5001Z" fill="#00807B"/>
<path fill-rule="evenodd" clip-rule="evenodd" d="M28.5668 56.6667C30.0407 59.2108 32.7951 60.9167 35.9416 60.9167C39.088 60.9167 41.8425 59.2108 43.3164 56.6667C41.8425 54.1226 39.088 52.4167 35.9416 52.4167C32.7952 52.4167 30.0407 54.1226 28.5668 56.6667ZM47.4808 56.6667C45.7492 51.9804 41.2362 48.6389 35.9416 48.6389C30.647 48.6389 26.134 51.9805 24.4023 56.6667C26.134 61.353 30.647 64.6945 35.9416 64.6945C41.2362 64.6945 45.7492 61.3529 47.4808 56.6667Z" fill="#004A47"/>
<path d="M38.7793 56.6666C38.7793 58.2314 37.5089 59.4999 35.9417 59.4999C34.3746 59.4999 33.1042 58.2314 33.1042 56.6666C33.1042 55.1018 34.3746 53.8333 35.9417 53.8333C37.5089 53.8333 38.7793 55.1018 38.7793 56.6666Z" fill="#004A47"/>
<path fill-rule="evenodd" clip-rule="evenodd" d="M186.802 106.958C184.582 106.958 182.782 108.755 182.782 110.972C182.782 113.189 184.582 114.986 186.802 114.986C189.022 114.986 190.822 113.189 190.822 110.972C190.822 108.755 189.022 106.958 186.802 106.958ZM179.472 110.972C179.472 106.93 182.754 103.653 186.802 103.653C190.851 103.653 194.132 106.93 194.132 110.972C194.132 112.395 193.726 113.723 193.023 114.846L198.377 120.192L196.036 122.53L190.682 117.184C189.557 117.886 188.227 118.292 186.802 118.292C182.754 118.292 179.472 115.015 179.472 110.972Z" fill="#004A47"/>
<path d="M196.26 75.5556C196.26 79.7284 192.873 83.1111 188.694 83.1111C184.515 83.1111 181.127 79.7284 181.127 75.5556C181.127 71.3827 184.515 68 188.694 68C192.873 68 196.26 71.3827 196.26 75.5556Z" fill="white"/>
<path fill-rule="evenodd" clip-rule="evenodd" d="M186.525 72.0543L192.2 77.721L190.862 79.0566L185.187 73.39L186.525 72.0543Z" fill="#004A47"/>
<path fill-rule="evenodd" clip-rule="evenodd" d="M190.862 72.0543L185.187 77.721L186.525 79.0566L192.2 73.39L190.862 72.0543Z" fill="#004A47"/>
<path fill-rule="evenodd" clip-rule="evenodd" d="M115.392 127.5V145.444H134.308V149.222H92.6917V145.444H111.608V127.5H115.392Z" fill="#00807B"/>
</svg>
