<?xml version="1.0" encoding="UTF-8"?>
<svg width="350px" height="359px" viewBox="0 0 350 359" version="1.1" xmlns="http://www.w3.org/2000/svg" xmlns:xlink="http://www.w3.org/1999/xlink">
    <!-- Generator: Sketch 60 (88103) - https://sketch.com -->
    <title>Illustration / Flow / Desktop / Switch Fixed line</title>
    <desc>Created with Sketch.</desc>
    <g id="Illustration-/-Flow-/-Desktop-/-Switch-Fixed-line" stroke="none" stroke-width="1" fill="none" fill-rule="evenodd">
        <g id="Illustration-/-Flow-/-Desktop-/-Switch-vatse-lijn">
            <path d="M101.311995,172.951754 C101.726209,172.951754 102.061995,173.287541 102.061995,173.701754 C102.061995,174.115968 101.726209,174.451754 101.311995,174.451754 C94.5246411,174.451754 88.9993744,179.953092 88.8342518,186.882713 L88.830454,187.193935 L80.2125,267.587719 C80.2125,274.480343 85.6379526,280.083043 92.3867185,280.246337 L92.6897727,280.25 L102.610227,280.25 C103.024441,280.25 103.360227,280.585786 103.360227,281 C103.360227,281.379696 103.078073,281.693491 102.711998,281.743153 L102.610227,281.75 L92.6897727,281.75 C85.0723368,281.75 78.881835,275.577291 78.7200127,267.827192 L78.7167682,267.507819 L87.3347222,187.114035 C87.3347222,179.294737 93.5902106,172.951754 101.311995,172.951754 Z M203.113005,172.951754 C210.730441,172.951754 216.920943,179.124464 217.082765,186.721153 L217.08601,187.034135 L225.7125,267.587719 C225.7125,275.301351 219.624937,281.578298 212.047457,281.746537 L211.735227,281.75 L115.8375,281.75 C115.423286,281.75 115.0875,281.414214 115.0875,281 C115.0875,280.620304 115.369654,280.306509 115.735729,280.256847 L115.8375,280.25 L211.735227,280.25 C218.522581,280.25 224.047848,274.748662 224.21297,267.971895 L224.216768,267.66762 L215.590278,187.114035 C215.590278,180.221412 210.164825,174.618712 203.416059,174.455417 L203.113005,174.451754 L109.934217,174.451754 C109.520004,174.451754 109.184217,174.115968 109.184217,173.701754 C109.184217,173.322059 109.466371,173.008263 109.832447,172.958601 L109.934217,172.951754 L203.113005,172.951754 Z M226.052525,141.25 C236.211882,141.25 244.438889,149.714315 244.433077,160.051898 L244.433077,160.051898 L248.75,194.574215 C248.75,205.004984 240.522993,213.469298 230.363636,213.469298 C229.949423,213.469298 229.613636,213.133512 229.613636,212.719298 C229.613636,212.305085 229.949423,211.969298 230.363636,211.969298 C239.684869,211.969298 247.25,204.185952 247.255811,194.6674 L247.255811,194.6674 L242.938889,160.145083 C242.938889,150.533346 235.373758,142.75 226.052525,142.75 L226.052525,142.75 L78.1030303,142.75 C68.7817972,142.75 61.2166667,150.533346 61.2166667,160.145083 L61.2166667,160.145083 L61.2037773,160.283531 L54.7501305,194.643345 L54.7543475,194.97295 C54.9601213,204.400291 62.4443711,211.969298 71.6363636,211.969298 L71.6363636,211.969298 L79.5904702,211.969298 C80.0046838,211.969298 80.3404702,212.305085 80.3404702,212.719298 C80.3404702,213.133512 80.0046838,213.469298 79.5904702,213.469298 L79.5904702,213.469298 L71.6363636,213.469298 C61.4770074,213.469298 53.25,205.004984 53.25,194.574215 L53.25,194.574215 L53.2628893,194.435767 L59.7167919,160.074592 C59.7537576,149.676207 67.9665694,141.25 78.1030303,141.25 L78.1030303,141.25 Z M126.334965,158.320175 C126.749179,158.320175 127.084965,158.655962 127.084965,159.070175 C127.084965,159.484389 126.749179,159.820175 126.334965,159.820175 C122.265849,159.820175 118.690844,162.772384 117.58525,167.039856 L117.516668,167.320017 L116.568313,171.431718 C116.475219,171.835335 116.072556,172.087064 115.66894,171.993971 C115.298958,171.908635 115.056603,171.563175 115.090486,171.195303 L115.106687,171.094597 L116.055042,166.982896 C117.226956,161.901928 121.459275,158.320175 126.334965,158.320175 Z M177.426439,158.320175 C177.498815,158.320175 177.568796,158.330427 177.635011,158.349558 C182.09142,158.69049 185.885495,162.02365 187.08447,166.683663 L187.157458,166.982896 L188.105813,171.094597 C188.198906,171.498214 187.947177,171.900877 187.54356,171.993971 C187.173578,172.079306 186.804398,171.874895 186.673731,171.529347 L186.644187,171.431718 L185.695832,167.320017 C184.698538,162.996134 181.188891,159.951927 177.142191,159.824344 L176.877535,159.820175 L168.870776,159.820175 C164.80166,159.820175 161.226655,162.772384 160.121061,167.039856 L160.052479,167.320017 L159.104124,171.431718 C159.01103,171.835335 158.608367,172.087064 158.20475,171.993971 C157.834768,171.908635 157.592414,171.563175 157.626297,171.195303 L157.642498,171.094597 L158.590853,166.982896 C159.74023,161.999639 163.833436,158.45849 168.590217,158.324134 L168.870776,158.320175 L177.426439,158.320175 Z M132.408278,158.320175 C137.190205,158.320175 141.353267,161.765493 142.617212,166.691442 L142.688201,166.982896 L143.636556,171.094597 C143.729649,171.498214 143.47792,171.900877 143.074304,171.993971 C142.704322,172.079306 142.335141,171.874895 142.204475,171.529347 L142.17493,171.431718 L141.226575,167.320017 C140.207601,162.902136 136.565854,159.820175 132.408278,159.820175 C131.994064,159.820175 131.658278,159.484389 131.658278,159.070175 C131.658278,158.655962 131.994064,158.320175 132.408278,158.320175 Z" id="Combined-Shape" fill="#8C8D8E" fill-rule="nonzero"></path>
            <path d="M57.5,272 C59.9852814,272 62,274.014719 62,276.5 C62,278.985281 59.9852814,281 57.5,281 C55.0147186,281 53,278.985281 53,276.5 C53,274.014719 55.0147186,272 57.5,272 Z M151.95,190.25 C171.115222,190.25 186.65,205.871878 186.65,225.140351 C186.65,244.408824 171.115222,260.030702 151.95,260.030702 C132.784778,260.030702 117.25,244.408824 117.25,225.140351 C117.25,205.871878 132.784778,190.25 151.95,190.25 Z M151.95,191.75 C133.615088,191.75 118.75,206.698433 118.75,225.140351 C118.75,243.582268 133.615088,258.530702 151.95,258.530702 C170.284912,258.530702 185.15,243.582268 185.15,225.140351 C185.15,206.698433 170.284912,191.75 151.95,191.75 Z M165.350499,210.624969 C165.557623,210.266259 166.016322,210.143375 166.375031,210.350499 C166.733741,210.557623 166.856625,211.016322 166.649501,211.375031 L166.649501,211.375031 L149.904481,240.375031 C149.653794,240.809186 149.055934,240.879895 148.710885,240.516198 L148.710885,240.516198 L136.455905,227.598939 C136.170817,227.298443 136.183306,226.823734 136.483802,226.538645 C136.784297,226.253557 137.259006,226.266046 137.544095,226.566542 L137.544095,226.566542 L149.107746,238.755113 Z M275.5,137 C277.985281,137 280,139.014719 280,141.5 C280,143.985281 277.985281,146 275.5,146 C273.014719,146 271,143.985281 271,141.5 C271,139.014719 273.014719,137 275.5,137 Z M194,0 C198.970563,0 203,4.02943725 203,9 C203,13.9705627 198.970563,18 194,18 C189.029437,18 185,13.9705627 185,9 C185,4.02943725 189.029437,0 194,0 Z" id="Combined-Shape" fill="#239A98" fill-rule="nonzero"></path>
            <path d="M269,299 C285.568542,299 299,312.431458 299,329 C299,345.568542 285.568542,359 269,359 C252.431458,359 239,345.568542 239,329 C239,312.431458 252.431458,299 269,299 Z M18,115 C27.9411255,115 36,123.282732 36,133.5 C36,143.717268 27.9411255,152 18,152 C8.0588745,152 0,143.717268 0,133.5 C0,123.282732 8.0588745,115 18,115 Z" id="Combined-Shape" fill="#F2F2F2"></path>
            <path d="M235.5,350 C237.985281,350 240,352.014719 240,354.5 C240,356.985281 237.985281,359 235.5,359 C233.014719,359 231,356.985281 231,354.5 C231,352.014719 233.014719,350 235.5,350 Z M151.60625,182.95614 C161.567864,182.95614 171.000285,186.427856 178.526313,192.670683 L178.526313,192.670683 L177.887872,193.440354 C170.539578,187.344957 161.332389,183.95614 151.60625,183.95614 C128.780259,183.95614 110.275,202.565154 110.275,225.52193 C110.275,248.478705 128.780259,267.087719 151.60625,267.087719 C174.432241,267.087719 192.9375,248.478705 192.9375,225.52193 L192.9375,225.52193 L193.9375,225.52193 C193.9375,249.029742 174.985782,268.087719 151.60625,268.087719 C128.226718,268.087719 109.275,249.029742 109.275,225.52193 C109.275,202.014117 128.226718,182.95614 151.60625,182.95614 Z M301.804645,127.917357 C302.930006,134.632303 303.5,141.468956 303.5,148.378505 C303.5,190.462542 282.185971,228.837901 247.765938,250.977698 L246.718904,251.643619 L241.467,254.719 L248.737188,254.592049 C248.98261,254.58775 249.189825,254.761023 249.236239,254.993495 L249.245868,255.083216 C249.250166,255.328638 249.076894,255.535853 248.844422,255.582267 L248.754701,255.591896 L239.577329,255.75273 C239.215336,255.758995 238.976244,255.395428 239.101346,255.073876 L239.136791,255.000605 L243.765109,247.074151 C243.904352,246.835685 244.210545,246.755248 244.449011,246.89449 C244.660981,247.018261 244.748089,247.273944 244.667035,247.496717 L244.628672,247.578392 L240.962,253.856 L246.20001,250.788925 C280.584704,229.166301 302.067324,191.30764 302.493538,149.642245 L302.5,148.378505 C302.5,141.524389 301.934615,134.743021 300.818399,128.082643 C300.772756,127.810298 300.956535,127.552519 301.228879,127.506877 C301.501223,127.461235 301.759002,127.645013 301.804645,127.917357 Z M219.446263,54.921875 C219.860476,54.921875 220.196263,55.2576614 220.196263,55.671875 C220.196263,56.0860886 219.860476,56.421875 219.446263,56.421875 C215.836929,56.421875 212.892164,59.3319854 212.764492,63.049187 L212.760182,63.2927359 L207.92,108.458984 C207.92,112.132137 210.787971,115.120399 214.367391,115.245897 L214.601818,115.25 L220.175682,115.25 C220.589895,115.25 220.925682,115.585786 220.925682,116 C220.925682,116.379696 220.643528,116.693491 220.277452,116.743153 L220.175682,116.75 L214.601818,116.75 C210.164381,116.75 206.555875,113.171855 206.427778,108.636842 L206.424262,108.379139 L211.264444,63.2128906 C211.264444,58.6363181 214.925101,54.921875 219.446263,54.921875 Z M276.643737,54.921875 C281.081174,54.921875 284.689681,58.50002 284.817777,62.8840507 L284.821293,63.1330454 L289.67,108.458984 C289.67,112.950806 286.143668,116.612132 281.738454,116.746197 L281.488182,116.75 L227.6075,116.75 C227.193286,116.75 226.8575,116.414214 226.8575,116 C226.8575,115.620304 227.139654,115.306509 227.505729,115.256847 L227.6075,115.25 L281.488182,115.25 C285.097516,115.25 288.042281,112.33989 288.169952,108.772401 L288.174262,108.53883 L283.325556,63.2128906 C283.325556,59.5397384 280.457585,56.5514758 276.878164,56.4259785 L276.643737,56.421875 L224.290707,56.421875 C223.876494,56.421875 223.540707,56.0860886 223.540707,55.671875 C223.540707,55.2921792 223.822861,54.978384 224.188937,54.9287216 L224.290707,54.921875 L276.643737,54.921875 Z M248.045,60.534375 C253.511948,60.534375 258.697471,62.3850758 262.888611,65.7236332 L263.266865,66.0312271 L262.628161,66.8006795 C258.550541,63.4159449 253.442,61.534375 248.045,61.534375 C235.379055,61.534375 225.11,71.8682009 225.11,84.6171875 C225.11,97.3661741 235.379055,107.7 248.045,107.7 C260.584285,107.7 270.774379,97.5718173 270.976927,84.9989246 L270.98,84.6171875 L271.98,84.6171875 C271.98,97.9170563 261.264642,108.7 248.045,108.7 C234.825358,108.7 224.11,97.9170563 224.11,84.6171875 C224.11,71.3173187 234.825358,60.534375 248.045,60.534375 Z M247.5,66.75 C257.141143,66.75 264.955556,74.6137004 264.955556,84.3125 C264.955556,94.0112996 257.141143,101.875 247.5,101.875 C237.858857,101.875 230.044444,94.0112996 230.044444,84.3125 C230.044444,74.6137004 237.858857,66.75 247.5,66.75 Z M247.5,67.75 C238.412554,67.75 231.044444,75.1645825 231.044444,84.3125 C231.044444,93.4604175 238.412554,100.875 247.5,100.875 C256.587446,100.875 263.955556,93.4604175 263.955556,84.3125 C263.955556,75.1645825 256.587446,67.75 247.5,67.75 Z M289.668687,37.25 C295.464305,37.25 300.173664,41.9695605 300.318468,47.7526479 L300.321894,48.0379034 L302.75,67.3558388 C302.75,73.3619314 297.981537,78.2375 292.090909,78.2375 C291.676696,78.2375 291.340909,77.9017136 291.340909,77.4875 C291.340909,77.0732864 291.676696,76.7375 292.090909,76.7375 C297.056883,76.7375 301.105692,72.6868286 301.251806,67.7167144 L301.255883,67.4495966 L298.827778,48.1316612 C298.827778,43.0375954 294.866091,38.8975544 289.933827,38.7538577 L289.668687,38.75 L206.542424,38.75 C201.576451,38.75 197.527641,42.8006714 197.387106,47.8596948 L197.383333,48.1316612 L197.370287,48.270944 L193.750242,67.4248097 L193.755874,67.6950973 C193.927147,72.6329219 197.822283,76.5937913 202.645124,76.7336764 L202.909091,76.7375 L207.378151,76.7375 C207.792364,76.7375 208.128151,77.0732864 208.128151,77.4875 C208.128151,77.8671958 207.845997,78.180991 207.479921,78.2306534 L207.378151,78.2375 L202.909091,78.2375 C197.113473,78.2375 192.404113,73.5179395 192.253706,67.6455582 L192.25,67.3558388 L192.263047,67.216556 L195.883558,48.0602182 C195.920587,42.1832957 200.523043,37.4063263 206.259409,37.2537594 L206.542424,37.25 L289.668687,37.25 Z M345.5,68 C347.985281,68 350,70.0147186 350,72.5 C350,74.9852814 347.985281,77 345.5,77 C343.014719,77 341,74.9852814 341,72.5 C341,70.0147186 343.014719,68 345.5,68 Z" id="Combined-Shape" fill="#D8D8D8"></path>
        </g>
    </g>
</svg>