<svg width="24" height="24" viewBox="0 0 24 24" fill="none" xmlns="http://www.w3.org/2000/svg">
<path d="M3.05918 16.3391C2.17839 15.3529 1.81791 14.0072 2.08775 12.7128L3.77119 6.42606C4.18478 5.16999 5.16999 4.18478 6.42606 3.77119L12.7128 2.08775C14.0072 1.81791 15.3529 2.17839 16.3391 3.05918L20.9368 7.66243C21.8187 8.64806 22.1812 9.99345 21.9137 11.2887L20.2248 17.5699C19.8123 18.8247 18.8294 19.8097 17.5754 20.2248L11.2832 21.9137C9.98878 22.1836 8.6431 21.8231 7.65691 20.9423L3.05918 16.3391Z" fill="#FF4612"/>
<path d="M16.1183 12.6962C14.8322 12.6962 13.8663 13.4137 13.6014 14.639C13.5296 13.491 12.8011 12.8066 11.7248 12.8066C11.1084 12.7736 10.522 13.0752 10.1903 13.5959C9.84502 13.076 9.25168 12.7762 8.62833 12.8066C7.99359 12.8066 5.99002 12.7293 5.99002 15.3069V17.178C5.99002 17.5667 6.30509 17.8817 6.69376 17.8817C7.08242 17.8817 7.39749 17.5667 7.39749 17.178V15.1248C7.39749 14.5286 7.73418 14.1257 8.29165 14.1257C8.80496 14.1257 9.10301 14.479 9.10301 15.1192V17.189C9.10301 17.5777 9.41808 17.8928 9.80674 17.8928C10.1954 17.8928 10.5105 17.5777 10.5105 17.189V14.9536C10.5657 14.4514 10.8748 14.1257 11.377 14.1257C11.9124 14.1257 12.205 14.479 12.205 15.1192V17.189C12.205 17.5762 12.5188 17.89 12.9059 17.89C13.2931 17.89 13.6069 17.5762 13.6069 17.189V16.0851C13.8829 17.2884 14.8488 18.0059 16.1569 18.0059C16.7751 18.0059 17.3602 17.8183 17.7852 17.5092L17.8735 17.4429V17.4374L17.9507 17.3822C18.3592 17.0069 18.1219 16.3114 17.5699 16.2397C17.3251 16.2072 17.0826 16.3136 16.9407 16.5157C16.7751 16.7254 16.4991 16.8468 16.1238 16.8468C15.4725 16.8468 15.0861 16.4384 15.053 15.8092H18.1053C18.3583 15.8092 18.5634 15.6041 18.5634 15.3511V15.2351C18.5634 13.6455 17.5975 12.6962 16.1293 12.6962H16.1183ZM15.053 14.8488C15.0972 14.192 15.4946 13.8166 16.1128 13.8166C16.7641 13.8166 17.0787 14.2251 17.1063 14.8433L15.053 14.8488Z" fill="white"/>
<path d="M13.3254 8.56209C13.2978 8.91533 13.6787 8.9926 14.2748 9.19683V9.20235C15.2683 9.54455 15.9637 9.91436 15.892 10.8416C15.8147 11.8738 15.0034 12.4754 13.6787 12.3705C13.2531 12.3504 12.8378 12.2333 12.4644 12.0283C12.0063 12.2877 11.5482 12.3705 10.93 12.3705C10.3118 12.3705 9.804 12.2049 9.48387 11.8517C9.22445 12.1498 8.86017 12.3705 8.32478 12.3705C7.03874 12.3705 6.10594 11.8407 6.11689 10.6595L6.14458 7.82247C6.14457 7.74685 6.17498 7.6744 6.22897 7.62145C6.28296 7.5685 6.35599 7.5395 6.43159 7.54098H7.30367C7.45914 7.54098 7.58517 7.66701 7.58517 7.82247L7.55757 10.3062C7.55757 10.8692 7.92185 11.079 8.31926 11.079C8.7001 11.079 9.03679 10.8858 9.07543 10.4001L9.10302 6.46468C9.10605 6.22907 9.29791 6.03968 9.53354 6.03968H10.1131C10.3509 6.03968 10.5436 6.23243 10.5436 6.4702V7.13254C10.6635 7.06016 10.801 7.02198 10.941 7.02215C11.2733 7.02141 11.57 7.23031 11.6813 7.54344C11.7926 7.85656 11.6943 8.20583 11.436 8.41498C11.1778 8.62413 10.8157 8.64769 10.5326 8.47377L10.5215 10.3062C10.5215 10.8582 10.8693 11.0679 11.2611 11.079C11.7965 11.079 12.0725 10.7699 12.0725 10.7699C12.1998 10.639 12.3757 10.567 12.5582 10.5712C12.8044 10.5683 13.0319 10.7022 13.1488 10.9189C13.2426 11.1121 13.4413 11.2446 13.7725 11.2666C14.1699 11.2997 14.4238 11.1507 14.4459 10.8582C14.468 10.5491 14.2913 10.4387 13.5628 10.2069C12.503 9.84813 11.8021 9.56663 11.8848 8.52345C11.9566 7.5465 12.7624 6.97799 14.043 7.07182C14.7715 7.13254 15.2904 7.39747 15.605 7.78384C15.9527 8.21988 15.6105 8.86566 15.053 8.85462C14.806 8.84911 14.5826 8.70654 14.4735 8.48481C14.3907 8.31371 14.2141 8.1978 13.9381 8.17572C13.5572 8.1426 13.3475 8.28611 13.3254 8.56209Z" fill="white"/>
<path d="M7.62537 6.42112C7.50439 6.71467 7.21825 6.90624 6.90075 6.90624C6.47003 6.90624 6.12002 6.5587 6.11698 6.12799C6.11475 5.8105 6.30428 5.52302 6.59697 5.39996C6.88966 5.27691 7.22767 5.3426 7.45298 5.56631C7.67828 5.79003 7.74635 6.12757 7.62537 6.42112Z" fill="white"/>
</svg>
