<?xml version="1.0" encoding="UTF-8"?>
<svg width="274px" height="231px" viewBox="0 0 274 231" version="1.1" xmlns="http://www.w3.org/2000/svg" xmlns:xlink="http://www.w3.org/1999/xlink">
    <title>Illustrations/Flow/AddingMobileNumbers/Manage Services</title>
    <g id="Checkout-concept-BB" stroke="none" stroke-width="1" fill="none" fill-rule="evenodd">
        <g id="Scenario-3---02-Change-Bundle---Desktop---Modem-Installatie---Make-selection-Copy-18" transform="translate(-283.000000, -235.000000)">
            <g id="Group" transform="translate(283.000000, 235.000000)">
                <g id="Group-3">
                    <ellipse id="Oval-Copy-3" fill="#F2F2F2" cx="139.104" cy="11.047619" rx="11.04" ry="11.047619"></ellipse>
                    <ellipse id="Oval-Copy" fill="#239A98" cx="5.52" cy="66.2857143" rx="5.52" ry="5.52380952"></ellipse>
                    <ellipse id="Oval" fill="#C5C6C6" cx="269.376" cy="103.847619" rx="4.416" ry="4.41904762"></ellipse>
                    <ellipse id="Oval-Copy-2" fill="#239A98" cx="235.704" cy="158.533333" rx="2.76" ry="2.76190476"></ellipse>
                    <ellipse id="Oval" fill="#F2F2F2" cx="43.056" cy="224.266667" rx="6.624" ry="6.62857143"></ellipse>
                    <ellipse id="Oval-Copy-4" fill="#F2F2F2" cx="149.592" cy="189.466667" rx="8.28" ry="8.28571429"></ellipse>
                </g>
                <g id="Group-2" transform="translate(67.344000, 44.190476)">
                    <path d="M47.1184924,-6.96331881e-13 C54.0694458,1.52313817 60.3124653,4.87743164 65.2896902,9.51759281 L63.6198219,16.3007028 C62.7892898,19.6757944 64.7695105,23.1050476 68.1078357,24.0728343 L75.729787,26.2808527 C76.7274564,29.6335704 77.2623375,33.1788689 77.2623375,36.8462799 C77.2623375,39.9497802 76.8792997,42.9658335 76.1569127,45.8517358 L68.1078357,48.1843249 C64.7695105,49.1521116 62.7892898,52.5813649 63.6198219,55.9564564 L65.5761843,63.9051243 C60.8398267,68.4121147 54.9243713,71.7411135 48.3250322,73.4080673 L42.6272828,67.9714803 C40.1235831,65.5828528 36.1849011,65.5828528 33.6812014,67.9714803 L28.1894128,73.211256 C21.531834,71.3885857 15.6009121,67.8661076 10.9174392,63.1528762 L12.6886622,55.9564564 C13.5191944,52.5813649 11.5389737,49.1521116 8.20064848,48.1843249 L1.18136641,46.1498234 C0.409910831,43.1737416 0,40.0568017 0,36.8462799 C0,33.0686377 0.567518149,29.4205591 1.62376347,25.9790593 L8.20064848,24.0728343 C11.5389737,23.1050476 13.5191944,19.6757944 12.6886622,16.3007028 L11.2011061,10.2571736 C16.1185131,5.41058215 22.3709732,1.86017449 29.3745539,0.176722597 L33.6812014,4.28567891 C36.1849011,6.67430644 40.1235831,6.67430644 42.6272828,4.28567891 Z" id="Combined-Shape" stroke="#239A98" stroke-width="2"></path>
                    <ellipse id="Oval" fill="#F2F2F2" cx="38.0917025" cy="36.6532481" rx="13.8" ry="13.8095238"></ellipse>
                    <path d="M38.6419535,51.9222494 C40.0745005,51.9222494 41.4560363,51.7042328 42.7551217,51.2990559 C48.3677211,49.5485197 52.441297,44.3081858 52.4404285,38.115074 C52.4396049,32.2443738 48.7777634,27.2288036 43.6152079,25.2300291 C42.0711443,24.6322176 40.3928354,24.304025 38.6380798,24.304025" id="Oval" stroke="#C5C6C6" stroke-width="2" stroke-linecap="round" stroke-dasharray="2,5" transform="translate(45.539254, 38.113137) rotate(12.000000) translate(-45.539254, -38.113137) "></path>
                    <path d="M28.5704323,51.0990939 C36.1920906,51.0999066 42.3700066,44.9179354 42.3691939,37.2912747 C42.3685683,31.4204986 38.7069432,26.404987 33.5445218,24.4063607 C32.0004983,23.8085935 30.3222222,23.4805124 28.5674893,23.4805124 C27.0137056,23.4805124 25.5199248,23.7371415 24.1262651,24.2107521" id="Oval" stroke="#8C8D8E" stroke-width="2" stroke-linecap="round" transform="translate(33.247729, 37.289803) scale(-1, 1) rotate(9.000000) translate(-33.247729, -37.289803) "></path>
                    <path d="M106.733569,90.2255945 C107.527114,89.9671971 108.2615,89.577701 108.911127,89.0827006 C109.792935,88.4107829 110.518567,87.5444672 111.023987,86.5477675 C111.529944,85.5500094 111.815221,84.4215903 111.815578,83.2267279 C111.815955,81.963525 111.497844,80.7747733 110.937104,79.7363067 C110.422484,78.7832519 109.703505,77.9567774 108.838807,77.3155024 C107.615036,76.4079325 106.099396,75.871309 104.458111,75.8717989 C103.040739,75.8722225 101.716829,76.2731483 100.593496,76.9674974 C99.429073,77.6872449 98.4801698,78.7222745 97.8660918,79.9533217 C97.3737144,80.9403946 97.0965991,82.0534889 97.0962469,83.2311243 C97.0953702,86.1666823 98.8144952,88.7001652 101.301561,89.8798398" id="Oval" stroke="#8C8D8E" stroke-width="2" stroke-linecap="round" stroke-linejoin="round" transform="translate(104.455912, 83.048697) rotate(-240.000000) translate(-104.455912, -83.048697) "></path>
                </g>
                <g id="Group-2-Copy-2" transform="translate(153.052573, 115.135554) rotate(-4.000000) translate(-153.052573, -115.135554) translate(100.612573, 68.735554)">
                    <path d="M78.0579041,28.7237098 C84.0357209,30.0336079 89.4047151,32.9182979 93.6851275,36.9088332 L92.2490478,42.7423144 C91.5347901,45.6448932 93.2377799,48.594051 96.1087397,49.4263476 L102.663662,51.3253903 C103.521629,54.2086843 103.981611,57.257591 103.981611,60.411511 C103.981611,63.0802689 103.652261,65.6738367 103.031122,68.1554992 L96.1087397,70.1622299 C93.2377799,70.9945265 91.5347901,73.9436843 92.2490478,76.8462631 L93.9317551,83.6818933 C89.8585403,87.5579312 84.7713,90.420911 79.0959141,91.8545513 L74.1954638,87.1791838 C72.042282,85.1249641 68.6550155,85.1249641 66.5018337,87.1791838 L61.7782389,91.6852113 C56.053293,90.1177466 50.9531747,87.0887315 46.9256423,83.0358327 L48.4482497,76.8462631 C49.1625074,73.9436843 47.4595176,70.9945265 44.5885578,70.1622299 L38.5519702,68.4125396 C37.8885216,65.8531149 37.536,63.172553 37.536,60.411511 C37.536,57.1626878 38.0240809,54.0252927 38.9324793,51.0655619 L44.5885578,49.4263476 C47.4595176,48.594051 49.1625074,45.6448932 48.4482497,42.7423144 L47.1691974,37.5446367 C51.3980727,33.3767486 56.7750082,30.3235146 62.7978717,28.8757501 L66.5018337,32.4093937 C68.6550155,34.4636134 72.042282,34.4636134 74.1954638,32.4093937 Z" id="Combined-Shape" stroke="#239A98" stroke-width="2"></path>
                    <path d="M78.9986915,40.1827167 C81.7819434,36.0872081 85.0950776,33.650698 88.9380943,32.8731866" id="Path-10" stroke="#979797" stroke-width="1.5" stroke-linecap="round" transform="translate(83.968393, 36.527952) rotate(63.000000) translate(-83.968393, -36.527952) "></path>
                    <ellipse id="Oval" stroke="#239A98" stroke-width="2" fill="#FFFFFF" cx="7.6967935" cy="8.48785151" rx="7.51956478" ry="7.52475426"></ellipse>
                </g>
                <g id="Group-2-Copy" transform="translate(127.072766, 141.975393) rotate(-27.000000) translate(-127.072766, -141.975393) translate(75.736766, 116.013488)">
                    <path d="M32.9829441,-2.99756093e-12 C37.8481614,1.0660981 42.2179167,3.41376781 45.7018157,6.66141371 L44.5338746,11.4104918 C43.9525021,13.7730558 45.3386566,16.1735331 47.6754842,16.8509837 L53.011103,18.3974466 C53.709309,20.7440982 54.0836354,23.2255178 54.0836354,25.7923955 C54.0836354,27.9649487 53.8154834,30.0762833 53.309766,32.0965021 L47.6754842,33.7290269 C45.3386566,34.4064776 43.9525021,36.8069548 44.5338746,39.1695188 L45.9026367,44.7342442 C42.5873187,47.8887878 38.4467793,50.2188365 33.827591,51.3856288 L29.8390974,47.5800354 C28.0865077,45.9079962 25.3294303,45.9079962 23.5768406,47.5800354 L19.7327594,51.2479251 C15.0726964,49.9721547 10.9212333,47.5066444 7.64286469,44.2076741 L8.88206341,39.1695188 C9.46343593,36.8069548 8.07728146,34.4064776 5.74045384,33.7290269 L0.827137918,32.3055758 C0.287001852,30.2221073 4.01743705e-12,28.0400124 4.01743705e-12,25.7923955 C4.01743705e-12,23.1482168 0.397211373,20.594721 1.13649112,18.1858081 L5.74045384,16.8509837 C8.07728146,16.1735331 9.46343593,13.7730558 8.88206341,11.4104918 L7.84109187,7.17970822 C11.2832612,3.78722209 15.6599155,1.30203838 20.5623279,0.12367204 L23.5768406,2.99997519 C25.3294303,4.67201443 28.0865077,4.67201443 29.8390974,2.99997519 Z" id="Combined-Shape" stroke="#8C8D8E" stroke-width="2"></path>
                    <ellipse id="Oval" stroke="#8C8D8E" stroke-width="2" cx="27.048" cy="25.9619048" rx="9.384" ry="9.39047619"></ellipse>
                    <path d="M31.6269962,28.55238 C31.9687144,27.861627 32.1613905,27.0804152 32.1616379,26.2532028 C32.1618989,25.3786777 31.947059,24.5556942 31.5683517,23.8367529 C31.2207923,23.1769431 30.7352126,22.6047649 30.1512161,22.1608009 C29.32471,21.5324771 28.3010793,21.1609608 27.192588,21.1612916 C26.2353234,21.1615778 25.3411787,21.4391351 24.5824986,21.9198326 C23.7960669,22.4181135 23.1551913,23.1346677 22.740449,23.986928 C22.4079022,24.6702837 22.2207384,25.440886 22.2204945,26.256172 C22.2198876,28.2884814 23.3809376,30.0424398 25.0606462,30.8591502" id="Oval" stroke="#C5C6C6" stroke-width="2" stroke-linecap="round" stroke-linejoin="round" transform="translate(27.191066, 26.010221) rotate(-240.000000) translate(-27.191066, -26.010221) "></path>
                    <ellipse id="Oval" fill="#239A98" cx="97.8372318" cy="33.0531267" rx="4.416" ry="4.41904762"></ellipse>
                </g>
                <path d="M83.9039546,57.0306742 C87.6081987,52.9321009 92.0167311,50.4932785 97.1295519,49.7142068" id="Path-10" stroke="#979797" stroke-width="1.5" stroke-linecap="round" transform="translate(90.516753, 53.372441) rotate(-1.000000) translate(-90.516753, -53.372441) "></path>
                <path d="M119.230738,166.819925 C121.396187,164.962981 123.973029,163.857634 126.961262,163.503884" id="Path-10" stroke="#C5C6C6" stroke-width="1.5" stroke-linecap="round" transform="translate(123.096000, 165.161905) rotate(148.000000) translate(-123.096000, -165.161905) "></path>
            </g>
        </g>
    </g>
</svg>