<svg width="80" height="80" viewBox="0 0 80 80" fill="none" xmlns="http://www.w3.org/2000/svg">
<path fill-rule="evenodd" clip-rule="evenodd" d="M65.9085 1.62583C65.9085 1.62583 55.4277 0 39.9999 0C24.5715 0 14.0899 1.62583 14.0899 1.62583C7.48666 2.42215 2.39677 7.62078 1.59557 14.2221C1.59498 14.2231 0 25.999 0 39.9993C0 54.0006 1.59498 65.7758 1.59557 65.7771C2.39677 72.3788 7.48666 77.5765 14.0899 78.374C14.0899 78.374 24.5715 80 39.9999 80C55.4277 80 65.9085 78.374 65.9085 78.374C72.5132 77.5765 77.6026 72.3788 78.4042 65.7771C78.4042 65.7758 80 54.0006 80 39.9993C80 25.999 78.4042 14.2231 78.4042 14.2221C77.6026 7.62078 72.5132 2.42215 65.9085 1.62583Z" fill="#FFF7C7"/>
<path d="M40.0007 25.7783C36.7322 25.7783 33.4958 26.4221 30.4761 27.6729C27.4564 28.9237 24.7127 30.757 22.4016 33.0681C21.7073 33.7624 21.7073 34.888 22.4016 35.5823C23.0958 36.2765 24.2215 36.2765 24.9157 35.5823C26.8967 33.6013 29.2485 32.0299 31.8367 30.9578C34.425 29.8857 37.1991 29.3339 40.0007 29.3339C42.8022 29.3339 45.5763 29.8857 48.1646 30.9578C50.7529 32.0299 53.1046 33.6013 55.0856 35.5823C55.7799 36.2765 56.9055 36.2765 57.5998 35.5823C58.294 34.888 58.294 33.7624 57.5998 33.0681C55.2886 30.757 52.5449 28.9237 49.5252 27.6729C46.5056 26.4221 43.2691 25.7783 40.0007 25.7783Z" fill="#291D18"/>
<path d="M33.1973 34.2427C35.3542 33.3493 37.6659 32.8894 40.0006 32.8894C42.3352 32.8894 44.6469 33.3493 46.8038 34.2427C48.9607 35.1361 50.9205 36.4456 52.5713 38.0964C53.2656 38.7907 53.2656 39.9163 52.5713 40.6106C51.8771 41.3048 50.7515 41.3048 50.0572 40.6106C48.7365 39.2899 47.1687 38.2423 45.4432 37.5276C43.7176 36.8129 41.8682 36.445 40.0006 36.445C38.1329 36.445 36.2835 36.8129 34.5579 37.5276C32.8324 38.2423 31.2646 39.2899 29.9439 40.6106C29.2497 41.3048 28.124 41.3048 27.4298 40.6106C26.7355 39.9163 26.7355 38.7907 27.4298 38.0964C29.0806 36.4456 31.0404 35.1361 33.1973 34.2427Z" fill="#291D18"/>
<path d="M40.0005 40.0005C38.5997 40.0005 37.2126 40.2764 35.9185 40.8125C34.6244 41.3485 33.4485 42.1342 32.458 43.1247C31.7637 43.819 31.7637 44.9446 32.458 45.6389C33.1522 46.3332 34.2779 46.3332 34.9721 45.6389C35.6325 44.9786 36.4164 44.4548 37.2792 44.0974C38.1419 43.74 39.0666 43.5561 40.0005 43.5561C40.9343 43.5561 41.859 43.74 42.7218 44.0974C43.5845 44.4548 44.3684 44.9786 45.0288 45.6389C45.723 46.3332 46.8487 46.3332 47.5429 45.6389C48.2372 44.9446 48.2372 43.819 47.5429 43.1247C46.5524 42.1342 45.3766 41.3485 44.0824 40.8125C42.7883 40.2764 41.4012 40.0005 40.0005 40.0005Z" fill="#291D18"/>
<path d="M40.0005 47.8226C38.4295 47.8226 37.156 49.0961 37.156 50.667C37.156 52.238 38.4295 53.5115 40.0005 53.5115C41.5714 53.5115 42.8467 52.238 42.8467 50.667C42.8467 49.0961 41.5714 47.8226 40.0005 47.8226Z" fill="#291D18"/>
</svg>
