<?xml version="1.0" encoding="UTF-8"?>
<svg width="85px" height="70px" viewBox="0 0 85 70" version="1.1" xmlns="http://www.w3.org/2000/svg" xmlns:xlink="http://www.w3.org/1999/xlink">
    <title>Illustrations/Flow/AddingMobileNumberssM/Telenet Installation/Dark Copy</title>
    <g id="Page-1" stroke="none" stroke-width="1" fill="none" fill-rule="evenodd">
        <g id="Group" transform="translate(-5.000000, -5.000000)">
            <path d="M15,27 L9,27 L18.1427382,10.5430712 C18.6718469,9.59067565 19.6757087,9 20.76521,9 L76.6463866,9 C78.0990551,9 79.4375375,9.78756753 80.1430157,11.0574283 L89,27 L89,27 L82.5,27 M76.5,27 L21,27" id="Shape" stroke="#979797" stroke-linecap="round" stroke-linejoin="round"></path>
            <line x1="12" y1="74" x2="86" y2="74" id="Path-12" stroke="#979797" stroke-linecap="round" stroke-linejoin="round"></line>
            <polyline id="Path-11" stroke="#979797" stroke-linecap="round" stroke-linejoin="round" points="14 36 14 74 84 74 84 36"></polyline>
            <rect id="Rectangle-Copy" stroke="#979797" stroke-linecap="round" stroke-linejoin="round" x="20" y="43" width="35" height="25"></rect>
            <rect id="Rectangle" stroke="#979797" stroke-linecap="round" stroke-linejoin="round" x="61" y="43" width="17" height="31"></rect>
            <line x1="61" y1="67" x2="78" y2="67" id="Path-13" stroke="#979797"></line>
            <path d="M9,27 C9,32.5228475 13.4771525,37 19,37 C24.5228475,37 29,32.5228475 29,27" id="Path" stroke="#979797" stroke-linejoin="round"></path>
            <path d="M29,27 C29,32.5228475 33.4771525,37 39,37 C44.5228475,37 49,32.5228475 49,27" id="Path-Copy" stroke="#979797" stroke-linejoin="round"></path>
            <path d="M49,27 C49,32.5228475 53.4771525,37 59,37 C64.5228475,37 69,32.5228475 69,27" id="Path-Copy-2" stroke="#979797" stroke-linejoin="round"></path>
            <path d="M69,27 C69,32.5228475 73.4771525,37 79,37 C84.5228475,37 89,32.5228475 89,27" id="Path-Copy-3" stroke="#979797" stroke-linejoin="round"></path>
            <path d="M76.1627907,32.2953405 C76.6251686,32.2953405 77,32.6769415 77,33.1476703 C77,33.618399 76.6251686,34 76.1627907,34 C75.7004128,34 75.3255814,33.618399 75.3255814,33.1476703 C75.3255814,32.6769415 75.7004128,32.2953405 76.1627907,32.2953405 Z M25.5116279,23.7512545 C26.2051948,23.7512545 26.7674419,24.323656 26.7674419,25.0297491 C26.7674419,25.7358422 26.2051948,26.3082437 25.5116279,26.3082437 C24.818061,26.3082437 24.255814,25.7358422 24.255814,25.0297491 C24.255814,24.323656 24.818061,23.7512545 25.5116279,23.7512545 Z M51.0465116,17.7849462 C51.9712675,17.7849462 52.7209302,18.5481483 52.7209302,19.4896057 C52.7209302,20.4310632 51.9712675,21.1942652 51.0465116,21.1942652 C50.1217558,21.1942652 49.372093,20.4310632 49.372093,19.4896057 C49.372093,18.5481483 50.1217558,17.7849462 51.0465116,17.7849462 Z M6.25581395,18.637276 C6.94938085,18.637276 7.51162791,19.2096775 7.51162791,19.9157706 C7.51162791,20.6218637 6.94938085,21.1942652 6.25581395,21.1942652 C5.56224706,21.1942652 5,20.6218637 5,19.9157706 C5,19.2096775 5.56224706,18.637276 6.25581395,18.637276 Z M69.4651163,6.7046595 C69.9274942,6.7046595 70.3023256,7.08626053 70.3023256,7.55698925 C70.3023256,8.02771797 69.9274942,8.409319 69.4651163,8.409319 C69.0027383,8.409319 68.627907,8.02771797 68.627907,7.55698925 C68.627907,7.08626053 69.0027383,6.7046595 69.4651163,6.7046595 Z M39.3255814,5 C39.7879593,5 40.1627907,5.38160103 40.1627907,5.85232975 C40.1627907,6.32305847 39.7879593,6.7046595 39.3255814,6.7046595 C38.8632035,6.7046595 38.4883721,6.32305847 38.4883721,5.85232975 C38.4883721,5.38160103 38.8632035,5 39.3255814,5 Z" id="Combined-Shape" fill="#239A98"></path>
        </g>
    </g>
</svg>