<?xml version="1.0" encoding="UTF-8"?>
<svg width="24px" height="24px" viewBox="0 0 24 24" version="1.1" xmlns="http://www.w3.org/2000/svg" xmlns:xlink="http://www.w3.org/1999/xlink">
    <!-- Generator: Sketch 56.3 (81716) - https://sketch.com -->
    <title>Icons / Navigation / Large / ICO-User-24px</title>
    <desc>Created with Sketch.</desc>
    <g id="Icons-/-Navigation-/-Large-/-ICO-User-24px" stroke="none" stroke-width="1" fill="none" fill-rule="evenodd">
        <path d="M8.70406161,13.8919956 C6.64296201,12.736557 5.25,10.5309504 5.25,8 C5.25,4.27207794 8.27207794,1.25 12,1.25 C15.7279221,1.25 18.75,4.27207794 18.75,8 C18.75,10.5309504 17.357038,12.736557 15.2959384,13.8919956 C18.4948449,15.1936749 20.75,18.3334776 20.75,22 C20.75,22.4142136 20.4142136,22.75 20,22.75 C19.5857864,22.75 19.25,22.4142136 19.25,22 C19.25,17.9959356 16.0040644,14.75 12,14.75 C7.99593556,14.75 4.75,17.9959356 4.75,22 C4.75,22.4142136 4.41421356,22.75 4,22.75 C3.58578644,22.75 3.25,22.4142136 3.25,22 C3.25,18.3334776 5.50515508,15.1936749 8.70406161,13.8919956 Z M12,13.25 C14.8994949,13.25 17.25,10.8994949 17.25,8 C17.25,5.10050506 14.8994949,2.75 12,2.75 C9.10050506,2.75 6.75,5.10050506 6.75,8 C6.75,10.8994949 9.10050506,13.25 12,13.25 Z" id="Combined-Shape" fill="white" fill-rule="nonzero"></path>
    </g>
</svg>