<svg width="224" height="100" viewBox="0 0 224 100" fill="none" xmlns="http://www.w3.org/2000/svg">
<path fill-rule="evenodd" clip-rule="evenodd" d="M138.49 84.2932C135.594 81.7961 134.147 78.6306 134.147 74.7932V46.8903H124.267V33.9703H130.456C133.133 33.9703 134.473 32.6321 134.473 29.9532V19.6389L150.324 16.1646V33.9703H162.81V46.8903H150.324V70.9932C150.324 73.5275 151.771 74.7932 154.667 74.7932C156.331 74.7932 157.924 74.3961 159.444 73.5989L162.701 85.4332C159.444 87.1703 155.498 88.0389 150.867 88.0389C145.51 88.0389 141.384 86.7903 138.49 84.2932Z" fill="#FFC421"/>
<path fill-rule="evenodd" clip-rule="evenodd" d="M168.292 33.9704H185.229L196.521 69.6904L207.052 33.9704H223.989L204.338 86.5189H187.835L168.292 33.9704Z" fill="#FFC421"/>
<path fill-rule="evenodd" clip-rule="evenodd" d="M84.7434 73.3191C84.0183 79.2923 79.4134 83.994 73.44 84.7169C73.44 84.7169 63.9569 86.1866 50 86.1866C36.0417 86.1866 26.56 84.7169 26.56 84.7169C20.5869 83.994 15.9826 79.2923 15.2569 73.3191C15.2569 73.3191 13.8134 62.6657 13.8134 49.9991C13.8134 37.3323 15.2569 26.6791 15.2569 26.6791C15.9826 20.7066 20.5869 16.0049 26.56 15.284C26.56 15.284 36.0417 13.8131 50 13.8131C63.9569 13.8131 73.44 15.284 73.44 15.284C79.4134 16.0049 84.0183 20.7066 84.7434 26.6791C84.7434 26.6791 86.1886 37.3323 86.1886 49.9991C86.1886 62.6657 84.7434 73.3191 84.7434 73.3191ZM98.006 17.7774C97.0043 9.52571 90.6417 3.02743 82.386 2.03171C82.386 2.03171 69.2851 0 50 0C30.7143 0 17.6126 2.03171 17.6126 2.03171C9.35857 3.02743 2.996 9.52571 1.99514 17.7774C1.99514 17.7774 0 32.4991 0 49.9991C0 67.5009 1.99514 82.2214 1.99514 82.2214C2.996 90.4731 9.35857 96.9697 17.6126 97.9677C17.6126 97.9677 30.7143 100 50 100C69.2851 100 82.386 97.9677 82.386 97.9677C90.6417 96.9697 97.0043 90.4731 98.006 82.2214C98.006 82.2214 100 67.5009 100 49.9991C100 32.4991 98.006 17.7774 98.006 17.7774Z" fill="#FFC421"/>
<path fill-rule="evenodd" clip-rule="evenodd" d="M55.2875 40.6411C57.4692 40.3303 59.6018 40.1951 62.1492 40.242C64.6144 40.2954 67.2152 40.5328 69.5192 40.9568C69.5192 40.9568 70.2727 41.1368 70.2727 40.332V35.136C70.2727 34.6594 69.6684 34.5103 69.6684 34.5103C67.1435 33.8477 64.6418 33.4768 62.1675 33.4237C59.8358 33.3828 57.5135 33.6137 55.1941 34.1194C55.1941 34.1194 54.6167 34.2985 54.6167 34.8077V39.9468C54.6167 40.9011 55.2875 40.6411 55.2875 40.6411Z" fill="#FFC421"/>
<path fill-rule="evenodd" clip-rule="evenodd" d="M37.1269 43.8194C37.1269 43.8194 44.9252 43.8103 44.9252 37.2669C44.9252 30.7269 37.1269 30.7177 37.1269 30.7177C37.1269 30.7177 29.3286 30.7269 29.3286 37.2669C29.3286 43.8103 37.1269 43.8194 37.1269 43.8194Z" fill="#FFC421"/>
<path fill-rule="evenodd" clip-rule="evenodd" d="M70.8741 57.0186C68.1658 58.7209 60.2576 63.0578 49.9999 63.0578C39.7419 63.0578 31.835 58.7209 29.1259 57.0186C29.1259 57.0186 28.1133 56.3009 28.1133 57.6343V60.2969C28.1133 61.0966 29.005 61.9403 29.005 61.9403C31.6776 64.0275 40.0459 69.8735 49.9999 69.8786C59.9524 69.8735 68.3176 64.0275 70.995 61.9403C70.995 61.9403 71.8858 61.0966 71.8858 60.2969V57.6343C71.8858 56.3009 70.8741 57.0186 70.8741 57.0186Z" fill="#FFC421"/>
</svg>
