<svg width="109" height="94" viewBox="0 0 109 94" fill="none" xmlns="http://www.w3.org/2000/svg">
<path d="M0.398438 93.372H3.97983V81.8837H4.00309L10.7938 93.372H14.724V76.7441H11.1659V88.2093H11.1194L4.39844 76.7441H0.398438V93.372Z" fill="white"/>
<path d="M22.5251 93.7674C25.2925 93.7674 26.9902 92.3953 27.7111 90.7441L24.9669 89.3488C24.6879 90.186 23.9669 90.9302 22.7344 90.9302C21.3855 90.9302 20.339 90.0465 20.246 88.7209H27.9902V87.5348C27.9902 83.8372 26.153 81.6976 22.4553 81.6976C19.2925 81.6976 16.6646 83.8604 16.6646 87.7906C16.6646 92.0465 19.6646 93.7674 22.5251 93.7674ZM20.3623 86.4883C20.432 85.0697 21.153 84.186 22.432 84.186C23.7344 84.186 24.339 85 24.3855 86.4883H20.3623Z" fill="white"/>
<path d="M34.3957 93.6976C35.3492 93.6976 36.1864 93.5348 36.9306 93.1395L36.2329 90.6046C35.8841 90.7906 35.4655 90.8604 35.2097 90.8604C34.5352 90.8604 34.2794 90.5581 34.2794 90.0465V84.8837H36.9538V82.1162H34.2794V78.3023L30.8841 79.0465V81.2558C30.8841 81.8372 30.605 82.1162 30.0236 82.1162H28.698V84.8837H30.8143V90.8604C30.8143 92.4186 32.0004 93.6976 34.3957 93.6976Z" fill="white"/>
<path d="M41.4989 93.372H44.5454L46.5454 86.6511L48.5222 93.372H51.5454L55.2896 82.1162H51.6617L49.7547 88.8372L47.8245 82.1162H45.2663L43.2896 88.8372L41.4524 82.1162H37.778L41.4989 93.372Z" fill="white"/>
<path d="M61.474 93.7674C64.2415 93.7674 65.9391 92.3953 66.6601 90.7441L63.9159 89.3488C63.6368 90.186 62.9159 90.9302 61.6833 90.9302C60.3345 90.9302 59.288 90.0465 59.195 88.7209H66.9391V87.5348C66.9391 83.8372 65.1019 81.6976 61.4043 81.6976C58.2415 81.6976 55.6136 83.8604 55.6136 87.7906C55.6136 92.0465 58.6136 93.7674 61.474 93.7674ZM59.3112 86.4883C59.381 85.0697 60.1019 84.186 61.381 84.186C62.6833 84.186 63.288 85 63.3345 86.4883H59.3112Z" fill="white"/>
<path d="M73.3447 93.6976C74.2981 93.6976 75.1354 93.5348 75.8795 93.1395L75.1819 90.6046C74.833 90.7906 74.4144 90.8604 74.1586 90.8604C73.4842 90.8604 73.2284 90.5581 73.2284 90.0465V84.8837H75.9028V82.1162H73.2284V78.3023L69.833 79.0465V81.2558C69.833 81.8372 69.554 82.1162 68.9726 82.1162H67.647V84.8837H69.7633V90.8604C69.7633 92.4186 70.9493 93.6976 73.3447 93.6976Z" fill="white"/>
<path d="M82.7313 93.7674C85.4987 93.7674 87.1964 92.3953 87.9173 90.7441L85.1731 89.3488C84.8941 90.186 84.1731 90.9302 82.9406 90.9302C81.5918 90.9302 80.5452 90.0465 80.4522 88.7209H88.1964V87.5348C88.1964 83.8372 86.3592 81.6976 82.6615 81.6976C79.4987 81.6976 76.8708 83.8604 76.8708 87.7906C76.8708 92.0465 79.8708 93.7674 82.7313 93.7674ZM80.5685 86.4883C80.6383 85.0697 81.3592 84.186 82.6383 84.186C83.9406 84.186 84.5452 85 84.5918 86.4883H80.5685Z" fill="white"/>
<path d="M89.942 93.372H93.4072V88.5814C93.4072 86.3953 94.0118 85.0697 95.6165 85.0697C96.0583 85.0697 96.6397 85.1628 97.1048 85.3488L97.6862 82.1627C97.1746 81.8604 96.6165 81.7674 96.0118 81.7674C94.8955 81.7674 93.942 82.6976 93.4304 83.6511H93.4072V82.1162H89.942V93.372Z" fill="white"/>
<path d="M103.22 93.7674C106.29 93.7674 108.174 92.3255 108.174 89.9534C108.174 88.093 106.987 87.0465 104.313 86.4883C102.104 86.0232 101.685 85.6744 101.685 85.0465C101.685 84.4883 102.174 84.1395 102.964 84.1395C104.104 84.1395 104.755 84.9302 104.987 85.7441L108.174 84.7209C107.499 82.7906 105.639 81.6976 103.011 81.6976C100.057 81.6976 98.2898 83.0465 98.2898 85.3255C98.2898 87.186 99.4991 88.2558 102.011 88.7674C104.197 89.2093 104.732 89.6046 104.732 90.3023C104.732 90.9767 104.22 91.3023 103.336 91.3023C102.034 91.3023 101.476 90.5581 101.22 89.4651L97.9177 90.4418C98.4293 92.5348 100.36 93.7674 103.22 93.7674Z" fill="white"/>
<path fill-rule="evenodd" clip-rule="evenodd" d="M68.6145 43.2138C68.6145 43.2138 69.2362 42.6254 69.2362 42.0674V40.2096C69.2362 39.2794 68.53 39.7801 68.53 39.7801C66.6407 40.9676 61.1233 43.9934 53.9667 43.9934C46.8097 43.9934 41.2933 40.9676 39.4033 39.7801C39.4033 39.7801 38.6968 39.2794 38.6968 40.2096V42.0674C38.6968 42.6254 39.3189 43.2138 39.3189 43.2138C41.1837 44.6698 47.0222 48.7485 53.9667 48.7519C60.9105 48.7485 66.7463 44.6698 68.6145 43.2138ZM44.9857 21.4316C44.9857 21.4316 39.5449 21.4381 39.5449 26.0004C39.5449 30.5658 44.9857 30.5722 44.9857 30.5722C44.9857 30.5722 50.4265 30.5658 50.4265 26.0004C50.4265 21.4381 44.9857 21.4316 44.9857 21.4316ZM68.1105 24.5133C68.1105 24.1808 67.6884 24.0768 67.6884 24.0768C65.9271 23.6144 64.1815 23.3558 62.4553 23.3187C60.8291 23.2901 59.2086 23.4511 57.5905 23.8041C57.5905 23.8041 57.1875 23.9289 57.1875 24.2843V27.8699C57.1875 28.5354 57.6555 28.3539 57.6555 28.3539C59.1773 28.1372 60.6656 28.0429 62.4427 28.0757C64.1628 28.1125 65.9772 28.2785 67.5847 28.5742C67.5847 28.5742 68.1105 28.6997 68.1105 28.1382V24.5133ZM70.295 59.1045C70.295 59.1045 63.6789 60.1301 53.9418 60.1301C44.2036 60.1301 37.5882 59.1045 37.5882 59.1045C33.4207 58.6007 30.2082 55.3203 29.7021 51.1528C29.7021 51.1528 28.6953 43.72 28.6953 34.883C28.6953 26.0458 29.7021 18.6132 29.7021 18.6132C30.2082 14.4464 33.4207 11.1663 37.5882 10.6635C37.5882 10.6635 44.2036 9.63674 53.9418 9.63674C63.6789 9.63674 70.295 10.6635 70.295 10.6635C74.4628 11.1663 77.6757 14.4464 78.1811 18.6132C78.1811 18.6132 79.1894 26.0458 79.1894 34.883C79.1894 43.72 78.1811 51.1528 78.1811 51.1528C77.6757 55.3203 74.4628 58.6007 70.295 59.1045ZM76.5365 1.41787C76.5365 1.41787 67.3962 0 53.9417 0C40.4868 0 31.3458 1.41787 31.3458 1.41787C25.5872 2.11234 21.1483 6.64603 20.4496 12.403C20.4496 12.403 19.0581 22.6735 19.0581 34.8831C19.0581 47.0936 20.4496 57.3638 20.4496 57.3638C21.1483 63.1211 25.5872 67.6539 31.3458 68.3494C31.3458 68.3494 40.4868 69.7674 53.9417 69.7674C67.3962 69.7674 76.5365 68.3494 76.5365 68.3494C82.2963 67.6539 86.7348 63.1211 87.4339 57.3638C87.4339 57.3638 88.8255 47.0936 88.8255 34.8831C88.8255 22.6735 87.4339 12.403 87.4339 12.403C86.7348 6.64603 82.2963 2.11234 76.5365 1.41787Z" fill="#FFC421"/>
</svg>
