<svg width="190" height="50" viewBox="0 0 190 50" fill="none" xmlns="http://www.w3.org/2000/svg">
<path fill-rule="evenodd" clip-rule="evenodd" d="M79.1667 30.117C79.1667 34.2503 75.9667 36.7503 70.6667 36.7503H60V12.917H70.7C75.5667 12.917 78.3 15.1837 78.3 18.7503C78.3 21.1503 77.0667 22.9837 74.8333 23.9503V24.0503C77.9333 25.217 79.1667 27.517 79.1667 30.117ZM65.2333 22.4503H70.1333C71.7 22.4503 72.8333 21.517 72.8333 19.7837C72.8333 17.9837 71.7 17.117 70.1667 17.117H65.2333V22.4503ZM70.8667 32.4173H65.2334V26.3506H70.7667C72.5001 26.3506 73.7001 27.5839 73.7001 29.4506C73.7001 31.2839 72.5334 32.4173 70.8667 32.4173ZM91.7 34.7837C90.7 36.2837 89.1333 37.217 87 37.217C84.3 37.217 81.5 35.717 81.5 31.8503V20.617H86.4667V30.6837C86.4667 32.1503 87.2667 33.1503 88.7333 33.1503C90.3667 33.1503 91.7333 32.0503 91.7333 29.2837V20.617H96.7333V36.7503H91.7333V34.7837H91.7ZM106.433 37.3166C111.5 37.3166 113.5 34.7833 113.5 31.8499C113.5 28.4499 110.633 27.4499 108 26.8166C107.799 26.7696 107.603 26.7254 107.413 26.6825L107.411 26.6822C105.713 26.2991 104.5 26.0255 104.5 24.9166C104.5 24.0833 105.167 23.5166 106.233 23.5166C107.9 23.5166 108.967 24.7833 109.433 25.7499L113.5 24.3499C112.867 22.4166 110.8 20.0166 106.2 20.0166C102.034 20.0166 99.3668 21.9833 99.3668 25.3499C99.3668 28.5186 101.729 29.5022 104.286 30.135L104.526 30.1933C104.606 30.2125 104.686 30.2313 104.767 30.2499L105.046 30.3138C106.945 30.7466 108.4 31.0783 108.4 32.3499C108.4 33.2499 107.633 33.7499 106.433 33.7499C104.367 33.7499 103.4 32.3499 103.1 31.2166L98.8335 32.5499C99.3335 34.8166 101.467 37.3166 106.433 37.3166ZM121.6 15.9508C121.6 17.5841 120.267 18.8841 118.4 18.8841C116.567 18.8841 115.2 17.6508 115.2 15.9508C115.2 14.2508 116.6 13.0508 118.4 13.0508C120.267 13.0508 121.6 14.3508 121.6 15.9508ZM120.867 36.7503V20.617H115.9V36.7503H120.867ZM128.867 28.1837V36.7503H123.9V20.617H128.867V22.6503H128.9C129.733 21.2503 131.467 20.1503 133.7 20.1503C136.467 20.1503 139.1 21.6503 139.1 25.517V36.7503H134.133V26.7503C134.133 25.2837 133.367 24.217 131.867 24.217C130.2 24.217 128.867 25.3503 128.867 28.1837ZM149.867 37.3166C154 37.3166 156.367 35.0166 157.2 32.9833L153.267 30.9833C152.9 32.0833 151.933 33.2499 150.067 33.2499C148.133 33.2499 146.633 31.9833 146.5 30.0833H157.6V28.3833C157.6 23.0833 154.833 20.0166 149.933 20.0166C145 20.0166 141.367 23.1166 141.367 28.7499C141.367 34.5499 145.3 37.3166 149.867 37.3166ZM146.667 26.8173H152.433C152.367 24.7507 151.5 23.584 149.633 23.584C147.8 23.584 146.767 24.8507 146.667 26.8173ZM166.633 37.3166C171.7 37.3166 173.7 34.7833 173.7 31.8499C173.7 28.4499 170.833 27.4499 168.2 26.8166C167.998 26.7695 167.802 26.7252 167.611 26.6822C165.913 26.2991 164.7 26.0255 164.7 24.9166C164.7 24.0833 165.367 23.5166 166.433 23.5166C168.1 23.5166 169.167 24.7833 169.633 25.7499L173.7 24.3499C173.067 22.4166 171 20.0166 166.4 20.0166C162.233 20.0166 159.567 21.9833 159.567 25.3499C159.567 28.5186 161.929 29.5022 164.486 30.135L164.726 30.1933C164.806 30.2125 164.886 30.2313 164.967 30.2499L165.246 30.3138C167.145 30.7466 168.6 31.0783 168.6 32.3499C168.6 33.2499 167.833 33.7499 166.633 33.7499C164.567 33.7499 163.6 32.3499 163.3 31.2166L159.033 32.5499C159.533 34.8166 161.667 37.3166 166.633 37.3166ZM189.7 31.8499C189.7 34.7833 187.7 37.3166 182.633 37.3166C177.667 37.3166 175.533 34.8166 175.033 32.5499L179.3 31.2166C179.6 32.3499 180.567 33.7499 182.633 33.7499C183.833 33.7499 184.6 33.2499 184.6 32.3499C184.6 31.0783 183.145 30.7466 181.246 30.3138C181.154 30.2928 181.061 30.2715 180.967 30.2499C180.923 30.2399 180.88 30.2298 180.837 30.2196C180.8 30.2109 180.763 30.2021 180.726 30.1933L180.485 30.135C177.929 29.5022 175.567 28.5186 175.567 25.3499C175.567 21.9833 178.233 20.0166 182.4 20.0166C187 20.0166 189.067 22.4166 189.7 24.3499L185.633 25.7499C185.167 24.7833 184.1 23.5166 182.433 23.5166C181.367 23.5166 180.7 24.0833 180.7 24.9166C180.7 26.0255 181.913 26.2991 183.611 26.6822C183.801 26.7252 183.998 26.7695 184.2 26.8166C186.833 27.4499 189.7 28.4499 189.7 31.8499Z" fill="#291D18"/>
<path fill-rule="evenodd" clip-rule="evenodd" d="M35.5157 30.9703C35.5157 30.9703 35.9613 30.5486 35.9613 30.1488V28.8174C35.9613 28.1507 35.4552 28.5095 35.4552 28.5095C34.1012 29.3606 30.147 31.529 25.0181 31.529C19.889 31.529 15.9356 29.3606 14.5811 28.5095C14.5811 28.5095 14.0747 28.1507 14.0747 28.8174V30.1488C14.0747 30.5486 14.5206 30.9703 14.5206 30.9703C15.857 32.0138 20.0413 34.9369 25.0181 34.9394C29.9945 34.9369 34.1768 32.0138 35.5157 30.9703ZM18.5814 15.3594C18.5814 15.3594 14.6821 15.364 14.6821 18.6337C14.6821 21.9055 18.5814 21.9101 18.5814 21.9101C18.5814 21.9101 22.4806 21.9055 22.4806 18.6337C22.4806 15.364 18.5814 15.3594 18.5814 15.3594ZM35.1543 17.5685C35.1543 17.3302 34.8518 17.2556 34.8518 17.2556C33.5896 16.9242 32.3386 16.7389 31.1014 16.7123C29.936 16.6918 28.7746 16.8072 27.615 17.0601C27.615 17.0601 27.3262 17.1496 27.3262 17.4043V19.974C27.3262 20.4509 27.6616 20.3209 27.6616 20.3209C28.7522 20.1656 29.8188 20.098 31.0924 20.1215C32.3251 20.1479 33.6255 20.2668 34.7775 20.4788C34.7775 20.4788 35.1543 20.5687 35.1543 20.1663V17.5685ZM36.7198 42.3581C36.7198 42.3581 31.9783 43.0932 25 43.0932C18.021 43.0932 13.28 42.3581 13.28 42.3581C10.2933 41.9971 7.99099 39.6461 7.62824 36.6594C7.62824 36.6587 6.90676 31.3326 6.90676 24.9994C6.90676 18.6661 7.62824 13.3401 7.62824 13.3394C7.99099 10.3532 10.2933 8.00244 13.28 7.64213C13.28 7.64213 18.021 6.90626 25 6.90626C31.9783 6.90626 36.7198 7.64213 36.7198 7.64213C39.7068 8.00244 42.0093 10.3532 42.3716 13.3394C42.3716 13.3401 43.0942 18.6661 43.0942 24.9994C43.0942 31.3326 42.3716 36.6587 42.3716 36.6594C42.0093 39.6461 39.7068 41.9971 36.7198 42.3581ZM41.1928 1.01614C41.1928 1.01614 34.6423 0 24.9999 0C15.3572 0 8.8062 1.01614 8.8062 1.01614C4.67916 1.51384 1.49798 4.76299 0.99723 8.88881C0.996864 8.88942 0 16.2494 0 24.9996C0 33.7504 0.996864 41.1098 0.99723 41.1107C1.49798 45.2368 4.67916 48.4853 8.8062 48.9837C8.8062 48.9837 15.3572 50 24.9999 50C34.6423 50 41.1928 48.9837 41.1928 48.9837C45.3207 48.4853 48.5017 45.2368 49.0026 41.1107C49.0026 41.1098 50 33.7504 50 24.9996C50 16.2494 49.0026 8.88942 49.0026 8.88881C48.5017 4.76299 45.3207 1.51384 41.1928 1.01614Z" fill="white"/>
</svg>
